<?xml version="1.0" standalone="no"?><!DOCTYPE svg PUBLIC "-//W3C//DTD SVG 1.1//EN" "http://www.w3.org/Graphics/SVG/1.1/DTD/svg11.dtd"><svg t="1600504837996" class="icon" viewBox="0 0 1060 1024" version="1.1" xmlns="http://www.w3.org/2000/svg" p-id="21766" width="16.5625" height="16" xmlns:xlink="http://www.w3.org/1999/xlink"><defs><style type="text/css"></style></defs><path d="M553.325714 1010.468571V422.802286c41.837714 6.582857 86.125714 14.372571 122.660572 14.372571 119.771429 0 212.260571-35.218286 274.907428-104.594286 105.179429-116.589714 85.211429-285.696 84.333715-292.827428l-2.852572-22.528-22.784-3.876572c-1.462857-0.146286-34.450286-5.595429-83.382857-5.595428-56.868571 0-141.458286 7.68-221.476571 43.776-61.366857 27.721143-115.382857 92.745143-160.841143 193.097143-7.241143 16.201143-13.714286 31.853714-19.419429 46.628571a426.788571 426.788571 0 0 0-35.620571-83.675428c-27.062857-47.652571-62.683429-86.125714-106.057143-114.468572C276.882286 23.990857 174.189714 9.325714 106.825143 9.325714 57.490286 9.325714 25.782857 17.225143 24.502857 17.481143L3.291429 22.930286l-1.974858 21.357714c-0.256 2.450286-5.412571 59.684571 7.533715 132.352a460.873143 460.873143 0 0 0 37.046857 117.979429c21.577143 44.909714 50.468571 82.724571 85.942857 112.274285 50.907429 42.459429 104.923429 73.801143 160.329143 92.964572 43.776 15.140571 78.116571 26.697143 122.770286 26.697143 28.123429 0 51.017143 3.218286 69.156571 0V1010.468571h69.302857z" fill="#73BF4C" p-id="21767"></path></svg>