<?xml version="1.0" standalone="no"?><!DOCTYPE svg PUBLIC "-//W3C//DTD SVG 1.1//EN" "http://www.w3.org/Graphics/SVG/1.1/DTD/svg11.dtd"><svg t="1600507688023" class="icon" viewBox="0 0 1024 1024" version="1.1" xmlns="http://www.w3.org/2000/svg" p-id="30000" width="32" height="32" xmlns:xlink="http://www.w3.org/1999/xlink"><defs><style type="text/css"></style></defs><path d="M367.5648 472.917333L119.364267 697.088c-2.338133 15.291733-3.5328 30.72-3.549867 46.1824 0 154.709333 126.122667 280.576 281.105067 280.576a279.8592 279.8592 0 0 0 228.437333-117.4528l42.154667-222.2592-51.319467-97.928533-248.6272-113.322667z" fill="#24BBB1" p-id="30001"></path><path d="M301.226667 378.043733l-182.647467-49.152c-68.0448 24.3712-116.224 89.821867-118.272 162.082134-1.911467 66.372267 34.440533 128.631467 92.0064 160.529066l239.0016-203.793066-30.088533-69.666134z" fill="#17A8E0" p-id="30002"></path><path d="M884.804267 280.797867c0-154.4192-125.610667-280.029867-279.978667-280.029867a279.381333 279.381333 0 0 0-226.901333 116.343467l-43.298134 224.187733 44.5952 95.317333 247.227734 112.571734 254.805333-223.607467c2.3552-15.530667 3.549867-30.276267 3.549867-44.782933z" fill="#FED10A" p-id="30003"></path><path d="M700.177067 682.205867l-21.486934 209.425066a146.056533 146.056533 0 0 0 71.714134 11.690667 149.76 149.76 0 0 0 102.741333-53.76 148.3264 148.3264 0 0 0 33.9456-109.602133 144.5888 144.5888 0 0 0-6.263467-31.7952l-180.650666-25.941334z" fill="#93C83E" p-id="30004"></path><path d="M310.903467 314.538667l37.034666-206.9504a142.0288 142.0288 0 0 0-68.795733-16.861867c-80.503467 0.7168-145.425067 68.573867-144.6912 151.313067a157.354667 157.354667 0 0 0 3.549867 31.982933l172.9024 40.516267z" fill="#EF5098" p-id="30005"></path><path d="M914.090667 356.061867L675.805867 564.821333l36.983466 70.468267 185.053867 43.127467c67.3792-25.8048 113.373867-92.330667 112.964267-164.693334a177.442133 177.442133 0 0 0-96.682667-157.661866z" fill="#0779A1" p-id="30006"></path></svg>