<?xml version="1.0" standalone="no"?><!DOCTYPE svg PUBLIC "-//W3C//DTD SVG 1.1//EN" "http://www.w3.org/Graphics/SVG/1.1/DTD/svg11.dtd"><svg t="1600507848283" class="icon" viewBox="0 0 1024 1024" version="1.1" xmlns="http://www.w3.org/2000/svg" p-id="36654" width="32" height="32" xmlns:xlink="http://www.w3.org/1999/xlink"><defs><style type="text/css"></style></defs><path d="M512 976.213333l185.685333-571.392H326.314667L512 976.213333z" fill="#E24329" p-id="36655"></path><path d="M512 976.213333L326.314667 404.821333H66.218667L512 976.213333z" fill="#FC6D26" p-id="36656"></path><path d="M66.218667 404.821333L9.898667 578.56c-5.12 15.701333 0.341333 33.109333 13.994666 43.008L512 976.213333 66.218667 404.821333z" fill="#FCA326" p-id="36657"></path><path d="M66.218667 404.821333h260.096L214.698667 60.757333c-5.802667-17.749333-30.72-17.749333-36.522667 0L66.218667 404.821333z" fill="#E24329" p-id="36658"></path><path d="M512 976.213333l185.685333-571.392h260.096L512 976.213333z" fill="#FC6D26" p-id="36659"></path><path d="M957.781333 404.821333l56.32 173.738667c5.12 15.701333-0.341333 33.109333-13.994666 43.008L512 976.213333l445.781333-571.392z" fill="#FCA326" p-id="36660"></path><path d="M957.781333 404.821333h-260.096l111.957334-344.064c5.802667-17.749333 30.72-17.749333 36.522666 0l111.616 344.064z" fill="#E24329" p-id="36661"></path></svg>