<?xml version="1.0" standalone="no"?><!DOCTYPE svg PUBLIC "-//W3C//DTD SVG 1.1//EN" "http://www.w3.org/Graphics/SVG/1.1/DTD/svg11.dtd"><svg t="1600500070139" class="icon" viewBox="0 0 1079 1024" version="1.1" xmlns="http://www.w3.org/2000/svg" p-id="8570" xmlns:xlink="http://www.w3.org/1999/xlink" width="33.71875" height="32"><defs><style type="text/css"></style></defs><path d="M1076.943561 776.572153a47.64044 47.64044 0 0 1-11.938535 47.185639 52.131604 52.131604 0 0 1-41.500622 17.623552h-70.494208c-11.938535 29.562087-23.87707 100.056295-41.500623 147.241934a45.480134 45.480134 0 0 1-47.75414 35.247104h-106.309814a45.025333 45.025333 0 0 1-47.185639-35.247104c-11.938535-41.500622-29.562087-111.99483-35.815606-140.988416h-70.494207a44.343131 44.343131 0 0 1-41.500623-23.87707 61.909833 61.909833 0 0 1-11.938535-47.185639l83.001245-317.223936a187.605553 187.605553 0 0 1 366.683581 0zM970.633748 159.179332A159.748971 159.748971 0 1 1 810.884777 0.567365a159.180469 159.180469 0 0 1 159.748971 158.611967z" fill="#FCA1B6" p-id="8571"></path><path d="M278.198706 318.359802a159.180469 159.180469 0 1 1 159.748971-159.18047 166.798392 166.798392 0 0 1-159.748971 159.18047 269.242394 269.242394 0 0 1 272.312303 264.353279v158.611968a33.769 33.769 0 0 1-35.815605 35.247104H444.201196v229.674677a13.302939 13.302939 0 0 1-11.938536 11.938535H124.134752a12.791288 12.791288 0 0 1-11.370033-11.938535v-229.674677H17.824939a15.406395 15.406395 0 0 1-17.623552-17.623552v-164.296985a279.475424 279.475424 0 0 1 189.311058-264.921781 473.618746 473.618746 0 0 1 88.686261-11.370033z m0 0" fill="#81DCFB" p-id="8572"></path></svg>