<?xml version="1.0" standalone="no"?><!DOCTYPE svg PUBLIC "-//W3C//DTD SVG 1.1//EN" "http://www.w3.org/Graphics/SVG/1.1/DTD/svg11.dtd"><svg t="1600507807567" class="icon" viewBox="0 0 1024 1024" version="1.1" xmlns="http://www.w3.org/2000/svg" p-id="34165" width="32" height="32" xmlns:xlink="http://www.w3.org/1999/xlink"><defs><style type="text/css"></style></defs><path d="M512 75.2L134.4 294.4v436.8L512 948.8l377.6-217.6V294.4L512 75.2z m217.6 603.2c0 25.6-24 46.4-56 46.4-22.4 0-49.6-9.6-65.6-28.8L390.4 436.8v241.6c0 25.6-20.8 46.4-46.4 46.4h-3.2c-25.6 0-46.4-22.4-46.4-46.4V345.6c0-25.6 22.4-46.4 54.4-46.4 24 0 49.6 9.6 67.2 28.8l217.6 259.2V345.6c0-25.6 22.4-46.4 46.4-46.4h3.2c25.6 0 46.4 22.4 46.4 46.4v332.8z" fill="#009900" p-id="34166"></path></svg>