<?xml version="1.0" standalone="no"?><!DOCTYPE svg PUBLIC "-//W3C//DTD SVG 1.1//EN" "http://www.w3.org/Graphics/SVG/1.1/DTD/svg11.dtd"><svg t="1600507785431" class="icon" viewBox="0 0 1024 1024" version="1.1" xmlns="http://www.w3.org/2000/svg" p-id="33272" width="32" height="32" xmlns:xlink="http://www.w3.org/1999/xlink"><defs><style type="text/css"></style></defs><path d="M452.6976 994.9824S96.1664 646.7328 96.1664 414.5792C96.1664 182.4 278.5664 0 510.72 0 742.912 0 925.312 182.4128 925.312 414.5792c0 232.1536-356.5312 580.4032-356.5312 580.4032-33.1648 33.152-82.9184 33.152-116.096 0z m8.2944-190.7072c33.152 33.1648 82.9056 33.1648 116.0704 0 0 0 223.872-232.1664 223.872-389.696 0-157.5424-132.6592-290.2016-290.2016-290.2016C353.2032 124.3776 220.544 257.024 220.544 414.5792c0 157.5296 240.4608 389.696 240.4608 389.696z" fill="#589EE7" p-id="33273"></path><path d="M510.7328 572.1088c-91.2 0-157.5296-74.624-157.5296-157.5296 0-82.9184 74.624-157.5424 157.5296-157.5424 82.9184 0 157.5424 74.624 157.5424 157.5424 0 82.9056-66.3296 157.5296-157.5424 157.5296z" fill="#FFBA54" p-id="33274"></path><path d="M510.7328 514.0736c49.7536 0 99.5072-41.4592 99.5072-99.4944 0-58.048-49.7536-99.5072-99.5072-99.5072-49.7408 0-99.4944 49.7536-99.4944 99.5072 0 49.7408 49.7536 99.4944 99.4944 99.4944z" fill="#FFBA54" p-id="33275"></path></svg>