<?xml version="1.0" standalone="no"?><!DOCTYPE svg PUBLIC "-//W3C//DTD SVG 1.1//EN" "http://www.w3.org/Graphics/SVG/1.1/DTD/svg11.dtd"><svg t="1600503775942" class="icon" viewBox="0 0 1024 1024" version="1.1" xmlns="http://www.w3.org/2000/svg" p-id="19449" width="16" height="16" xmlns:xlink="http://www.w3.org/1999/xlink"><defs><style type="text/css"></style></defs><path d="M164.207537 948.465319c0 41.559803 75.709448 75.499727 168.755871 75.499727s168.755871-33.939924 168.755871-75.499727-75.709448-75.534681-168.755871-75.53468-168.755871 33.450573-168.755871 75.53468z m357.994538 0c0 41.559803 75.709448 75.499727 168.755871 75.499727 93.570726 0 168.755871-33.939924 168.755872-75.499727s-75.709448-75.534681-168.755872-75.53468-168.685964 33.450573-168.685963 75.53468z" fill="#F5B824" p-id="19450"></path><path d="M885.090115 507.176406l-37.540142-118.842162C846.955762 1.537957 528.878209 0 512.170399 0S177.385035 1.537957 177.385035 388.334244l-38.064445 118.842162S11.565265 664.956854 97.586019 802.254506c9.891862 6.676133 10.486073 30.724194 62.566903-77.352267a360.021846 360.021846 0 0 0 349.920262 243.871109h3.145822a360.021846 360.021846 0 0 0 349.920262-243.871109c52.150737 108.111415 53.199345 86.055707 62.566903 77.352267 87.104315-137.297652-40.616057-295.078099-40.616056-295.0781z" fill="#121213" p-id="19451"></path><path d="M526.186783 253.867832c0 51.206991 29.395958 92.766794 65.887493 92.766794s65.887493-41.559803 65.887494-92.766794-29.395958-92.731841-65.887494-92.731841-65.887493 41.559803-65.887493 92.731841z m-169.280175 0c0 51.206991 29.395958 92.766794 65.887494 92.766794s65.887493-41.559803 65.887493-92.766794-29.395958-92.731841-65.887493-92.731841S356.906608 202.695795 356.906608 253.867832z" fill="#FFFFFF" p-id="19452"></path><path d="M413.811032 254.252321c0 21.811032 12.653195 40.021846 28.382305 40.021846s28.382305-17.721464 28.382305-40.021846-12.688149-40.0568-28.382305-40.056799-28.382305 18.245767-28.382305 40.056799z" fill="#161616" p-id="19453"></path><path d="M790.645549 472.572365a450.271983 450.271983 0 0 1-278.440197 82.595303s-161.974877 10.486073-278.440196-82.595303c0 0-111.152376 479.982523 278.440196 479.982523s278.440197-479.982523 278.440197-479.982523z" fill="#FAFAFB" p-id="19454"></path><path d="M848.808301 390.606226s-92.277444 160.157291-336.602949 160.157291-336.602949-160.157291-336.602949-160.157291a512.629164 512.629164 0 0 0-38.274167 117.583834 464.253413 464.253413 0 0 0 132.648826 98.848717c-3.145822 34.464227-7.864555 87.174222-7.340252 114.053522 0.524304 41.944293 27.26379 44.600765 88.607319 50.682687s48.76024-10.136537 48.76024-37.015838v-84.797378a438.282906 438.282906 0 0 0 111.67668 7.619879 486.309121 486.309121 0 0 0 374.877116-150.545057c0.524304 1.013654 1.677772-13.701802-37.749864-116.430366z" fill="#D53118" p-id="19455"></path><path d="M686.064446 407.663572a468.377936 468.377936 0 0 0-347.683234 0c-25.341344 8.633534-35.477881 15.204806-35.47788 23.83834a7.410158 7.410158 0 0 0 2.551611 4.054614 449.258329 449.258329 0 0 0 414.58438 0c1.537957-2.027307 2.551611-3.040961 2.551611-4.054614-0.559257-8.633534-10.660841-15.204806-36.526488-23.83834z" fill="#F0B225" p-id="19456"></path><path d="M577.393774 226.499181c12.303659 0 22.405243 17.476789 22.405243 39.113053h7.480065c0-28.557073-13.177499-51.836155-29.885308-51.836155s-29.885309 23.279082-29.885309 51.836155h7.480066c-0.034954-21.9858 10.101584-39.113053 22.405243-39.113053z" fill="#0F0F0F" p-id="19457"></path></svg>