<?xml version="1.0" standalone="no"?><!DOCTYPE svg PUBLIC "-//W3C//DTD SVG 1.1//EN" "http://www.w3.org/Graphics/SVG/1.1/DTD/svg11.dtd"><svg t="1600502779777" class="icon" viewBox="0 0 1024 1024" version="1.1" xmlns="http://www.w3.org/2000/svg" p-id="8784" width="16" height="16" xmlns:xlink="http://www.w3.org/1999/xlink"><defs><style type="text/css"></style></defs><path d="M 301.664 208.13 m -208.13 0 a 208.13 208.13 0 1 0 416.26 0 a 208.13 208.13 0 1 0 -416.26 0 Z" fill="#1ad7ec" p-id="8785"></path><path d="M 93.5337 491.187 m 37.9629 0 l 340.334 0 q 37.9629 0 37.9629 37.9629 l 0 7.32618 q 0 37.9629 -37.9629 37.9629 l -340.334 0 q -37.9629 0 -37.9629 -37.9629 l 0 -7.32618 q 0 -37.9629 37.9629 -37.9629 Z" fill="#1ad7ec" p-id="8786"></path><path d="M 260.038 357.984 m 35.0491 0 l 13.1538 0 q 35.0491 0 35.0491 35.0491 l 0 520.991 q 0 35.0491 -35.0491 35.0491 l -13.1538 0 q -35.0491 0 -35.0491 -35.0491 l 0 -520.991 q 0 -35.0491 35.0491 -35.0491 Z" fill="#1ad7ec" p-id="8787"></path><path d="M 717.924 815.87 m -208.13 0 a 208.13 208.13 0 1 0 416.26 0 a 208.13 208.13 0 1 0 -416.26 0 Z" fill="#f95bf5" p-id="8788"></path><path d="M 676.298 158.179 m 37.2137 0 l 8.82471 0 q 37.2137 0 37.2137 37.2137 l 0 591.589 q 0 37.2137 -37.2137 37.2137 l -8.82471 0 q -37.2137 0 -37.2137 -37.2137 l 0 -591.589 q 0 -37.2137 37.2137 -37.2137 Z" fill="#f95bf5" p-id="8789"></path><path d="M 496.959 353.518 m 23.7827 -23.7827 l 174.544 -174.544 q 23.7827 -23.7827 47.5654 0 l 11.3027 11.3027 q 23.7827 23.7827 0 47.5654 l -174.544 174.544 q -23.7827 23.7827 -47.5654 0 l -11.3027 -11.3027 q -23.7827 -23.7827 0 -47.5654 Z" fill="#f95bf5" p-id="8790"></path><path d="M 722.324 131.381 m 23.7827 23.7827 l 174.544 174.544 q 23.7827 23.7827 0 47.5654 l -11.3027 11.3027 q -23.7827 23.7827 -47.5654 0 l -174.544 -174.544 q -23.7827 -23.7827 0 -47.5654 l 11.3027 -11.3027 q 23.7827 -23.7827 47.5654 0 Z" fill="#f95bf5" p-id="8791"></path></svg>