<?xml version="1.0" standalone="no"?><!DOCTYPE svg PUBLIC "-//W3C//DTD SVG 1.1//EN" "http://www.w3.org/Graphics/SVG/1.1/DTD/svg11.dtd"><svg t="1600504769498" class="icon" viewBox="0 0 1024 1024" version="1.1" xmlns="http://www.w3.org/2000/svg" p-id="20322" width="16" height="16" xmlns:xlink="http://www.w3.org/1999/xlink"><defs><style type="text/css"></style></defs><path d="M520.4 419c-8 0-16.1-2.8-22.5-8.2L280.7 227.6c-13.9-11.7-16.5-32-6.1-46.8L390.5 15.2C397 5.9 407.7 0 419.1 0h210c11.6 0 22.5 6.1 29 15.8L775 190.2c10.3 15.3 6.9 36-7.7 47.3L541.8 411.7c-6.4 4.8-13.9 7.3-21.4 7.3zM350.3 194.4l171.1 144.5 177.3-137.1L610.4 70H437.3l-87 124.4z" fill="#6496F5" p-id="20323"></path><path d="M514.4 1023.9c-33 0-62.8-16.8-79.9-45.1l-239-396.7c-7.4-12.3-6.6-27.9 2.2-39.3l119.5-156.4c11.7-15.3 33.7-18.3 49.1-6.6 15.4 11.7 18.3 33.7 6.6 49.1l-105 137.4 226.7 376.3c6.1 10.1 15.9 11.3 19.9 11.3 2.8-1 13.9-1.1 20-11.4L756.8 566l-98.9-137.8c-11.3-15.7-7.7-37.5 8-48.8 15.6-11.3 37.5-7.7 48.8 8l112.2 156.4c8.1 11.2 8.8 26.2 1.7 38.2L594.7 978.1c-16.8 28.5-46.7 45.7-79.8 45.8h-0.5z" fill="#6496F5" p-id="20324"></path></svg>