
<svg xmlns="http://www.w3.org/2000/svg" version="1.1" xmlns:xlink="http://www.w3.org/1999/xlink" preserveAspectRatio="none" x="0px" y="0px" width="1024px" height="1024px" viewBox="0 0 1024 1024">
<defs>
<g id="Layer0_0_MEMBER_0_FILL">
<path fill="#1D1D1B" fill-opacity="0.09803921568627451" stroke="none" d="
M 85.9 2.1
Q 100.6 1.75 100.6 1.2 100.6 0.7 85.9 0.35 71.05 0 50.3 0 29.6 0 14.75 0.35 0 0.7 0 1.2 0 1.7 14.75 2.1 29.4 2.45 50.3 2.45 71.2 2.45 85.9 2.1 Z"/>
</g>

<g id="Layer0_0_MEMBER_1_FILL">
<path fill="#E94E1B" stroke="none" d="
M 327 379.35
Q 326.9 380.25 327.3 380.25
L 327.5 380.3
Q 327.8 380.3 327.9 379.6
L 328.15 377.15
Q 328.25 376.3 327.85 376.3
L 327.75 376.3
Q 327.45 376.3 327.35 376.95
L 327 379.35 Z"/>
</g>

<g id="Layer0_0_MEMBER_2_FILL">
<path fill="#F9B659" stroke="none" d="
M 426.5 375.6
L 425.7 381 426.4 380.95
Q 427.15 380.95 427.25 380.05
L 427.55 376.75
Q 427.65 375.95 426.9 375.7
L 426.5 375.6 Z"/>
</g>

<g id="Layer0_0_MEMBER_3_FILL">
<path fill="#122237" stroke="none" d="
M 425.8 375.45
L 425.45 381.2 426.45 381.1 427.05 375.5 425.8 375.45 Z"/>
</g>

<g id="Layer0_0_MEMBER_4_FILL">
<path fill="#DAD1D1" stroke="none" d="
M 425.15 384
Q 425.05 384.5 425.55 384.5
L 426.7 384.55
Q 427.15 384.55 427.25 384.05
L 427.55 382.2
Q 427.6 381.95 427.4 381.75 427.25 381.55 427 381.55
L 425.45 381.55 425.15 384 Z"/>
</g>

<g id="Layer0_0_MEMBER_5_FILL">
<path fill="#22395A" stroke="none" d="
M 358.75 364.3
Q 355.1 364.3 352.45 366.85
L 348.9 370.3
Q 348.3 370.9 347.3 371.15
L 329.45 374.85
Q 328.8 374.95 328.35 375.45 327.95 375.95 327.85 376.6
L 327.4 380.7
Q 327.2 382.3 328.25 383.55 329.25 384.8 330.85 384.9
L 343.45 385.75 417.05 385.75 423.25 384.95
Q 424.25 384.85 424.95 384.15 425.65 383.4 425.8 382.4
L 426.5 375.75
Q 426.65 374.6 425.85 374.15 425.25 373.8 423.75 373.7
L 395.85 372.3
Q 394.2 372.2 393 371.25
L 384.8 364.95
Q 384 364.3 382.85 364.3
L 358.75 364.3 Z"/>
</g>

<g id="Layer0_0_MEMBER_6_FILL">
<path fill="#F6F6F6" fill-opacity="0.2" stroke="none" d="
M 26.15 1.3
L 0 0 23.95 2
Q 26.55 2.2 27 2.9 27.75 4.05 27.45 9.1
L 28.1 2.75
Q 28.35 1.5 26.15 1.3 Z"/>
</g>

<g id="Layer0_0_MEMBER_7_FILL">
<path fill="#F6F6F6" fill-opacity="0.2" stroke="none" d="
M 0.45 4.95
L 0 9.05
Q 1 5.35 3.8 4.2 5.7 3.4 19.5 0.15
L 19.15 0 1.4 3.9
Q 0.55 4.05 0.45 4.95 Z"/>
</g>

<g id="Layer0_0_MEMBER_8_FILL">
<path fill="#122237" stroke="none" d="
M 384.3 365.6
Q 383.65 365.1 382.85 365.1
L 371.8 365.1 372.6 376.75 371.8 384.95 393.6 384.95 394.7 377.05 393.6 372.6 392.5 371.9 384.3 365.6 Z"/>
</g>

<g id="Layer0_0_MEMBER_9_FILL">
<path fill="#ABEDE3" stroke="none" d="
M 372.7 365.9
L 373.15 372.7 392.15 372.7 392 372.55 383.8 366.25
Q 383.3 365.9 382.85 365.9
L 372.7 365.9 Z"/>
</g>

<g id="Layer0_0_MEMBER_10_FILL">
<path fill="#122237" stroke="none" d="
M 356.35 366.35
L 352.5 371.75
Q 351.95 372.55 351.95 373.55
L 352 377.5
Q 354.5 378.25 356.2 380.25 357.85 382.3 358.1 384.95
L 371 384.95 371.8 376.75 371 365.1 358.7 365.1
Q 357.25 365.1 356.35 366.35 Z"/>
</g>

<g id="Layer0_0_MEMBER_11_FILL">
<path fill="#ABEDE3" stroke="none" d="
M 357.05 366.8
L 352.95 372.7 370.7 372.7 370.2 365.9 358.75 365.9
Q 357.7 365.9 357.05 366.8 Z"/>
</g>

<g id="Layer0_0_MEMBER_12_FILL">
<path fill="#DAD1D1" stroke="none" d="
M 373.7 373.85
L 373.7 375 377.35 375 377.35 373.85 373.7 373.85 Z"/>
</g>

<g id="Layer0_0_MEMBER_13_FILL">
<path fill="#DAD1D1" stroke="none" d="
M 352.95 373.85
L 352.95 375 356.55 375 356.55 373.85 352.95 373.85 Z"/>
</g>

<g id="Layer0_0_MEMBER_14_FILL">
<path fill="#DAD1D1" stroke="none" d="
M 327.45 380.7
L 326.95 380.7
Q 326.55 380.7 326.2 381 325.9 381.3 325.85 381.75
L 325.8 382.1
Q 325.75 382.5 326.1 382.8 326.35 383.05 326.8 383.1
L 331.65 383.3
Q 331.65 382.45 331.05 381.85 330.45 381.25 329.6 381.25
L 327.4 381.25 327.45 380.7 Z"/>
</g>

<g id="Layer0_0_MEMBER_15_FILL">
<path fill="#DAD1D1" stroke="none" d="
M 423.1 383.8
Q 423.25 384 423.5 384
L 426.45 384
Q 426.85 384 426.95 383.55
L 427.15 382.75
Q 427.2 382.5 427.05 382.3 426.85 382.1 426.6 382.1
L 423.7 382.1
Q 423.25 382.1 423.15 382.55
L 423 383.35
Q 422.95 383.6 423.1 383.8 Z"/>
</g>

<g id="Layer0_0_MEMBER_16_FILL">
<path fill="#22395A" stroke="none" d="
M 389.25 371.55
L 388.9 373 390.6 373.8 390.75 372.9 389.25 371.55 Z"/>
</g>

<g id="Layer0_0_MEMBER_17_FILL">
<path fill="#22395A" stroke="none" d="
M 388.4 370.4
L 388 373.85 388.15 373.85
Q 388.9 373.95 389.4 373.4 389.9 372.85 389.7 372.15
L 389.45 371.25
Q 389.3 370.5 388.55 370.4
L 388.4 370.4 Z"/>
</g>

<g id="Layer0_0_MEMBER_18_FILL">
<path fill="#403430" stroke="none" d="
M 401.05 383.75
L 400.7 385.75 415.4 385.75 414.95 383.45
Q 414.55 381.2 412.55 380.15 411.6 379.65 410.4 379.65
L 406 379.65
Q 404.45 379.65 403.3 380.4 401.45 381.6 401.05 383.75 Z"/>
</g>

<g id="Layer0_0_MEMBER_19_FILL">
<path fill="#403430" stroke="none" d="
M 341.55 385.6
L 343.45 385.75 356.2 385.75 355.8 383.45
Q 355.4 381.25 353.4 380.15 352.45 379.65 351.25 379.65
L 346.8 379.65
Q 345.3 379.65 344.15 380.4 342.3 381.6 341.9 383.75
L 341.55 385.6 Z"/>
</g>

<g id="Layer0_0_MEMBER_20_MEMBER_0_FILL">
<path fill="#FFFFFF" fill-opacity="0.4980392156862745" stroke="none" d="
M 8.55 6.3
L 3.8 0 0 0 4.8 6.3 8.55 6.3 Z"/>
</g>

<g id="Layer0_0_MEMBER_20_MEMBER_1_FILL">
<path fill="#FFFFFF" fill-opacity="0.4980392156862745" stroke="none" d="
M 10.25 6.3
L 5.5 0 4.25 0 9 6.3 10.25 6.3 Z"/>
</g>

<g id="Layer0_0_MEMBER_21_MEMBER_0_FILL">
<path fill="#FFFFFF" fill-opacity="0.4980392156862745" stroke="none" d="
M 8.6 6.3
L 3.8 0 0 0 4.8 6.3 8.6 6.3 Z"/>
</g>

<g id="Layer0_0_MEMBER_21_MEMBER_1_FILL">
<path fill="#FFFFFF" fill-opacity="0.4980392156862745" stroke="none" d="
M 10.25 6.3
L 5.55 0 4.3 0 9.05 6.3 10.25 6.3 Z"/>
</g>

<g id="Layer0_0_MEMBER_22_FILL">
<path fill="#000000" fill-opacity="0.09803921568627451" stroke="none" d="
M 91.25 8.1
L 97.45 7.3
Q 98.55 7.15 99.25 6.35
L 99.35 6.35
Q 99.25 6.85 99.75 6.85
L 100.9 6.9
Q 101.35 6.9 101.45 6.4
L 101.75 4.55 101.75 4.4 1.45 0 1.2 1.7
Q 1.1 2.6 1.5 2.6
L 1.65 2.65 1.6 3.05 1.15 3.05
Q 0.75 3.05 0.4 3.35 0.1 3.65 0.05 4.1
L 0 4.45
Q -0.05 4.85 0.3 5.15 0.55 5.4 1 5.45
L 2.15 5.5
Q 3.25 7.1 5.05 7.25
L 17.65 8.1 91.25 8.1 Z"/>
</g>

<g id="Layer0_0_MEMBER_23_MEMBER_0_FILL">
<path fill="#DAD1D1" stroke="none" d="
M 408.05 380.55
Q 406.35 380.55 405.2 381.75 404 382.9 404 384.55 404 386.25 405.2 387.4 406.35 388.6 408.05 388.6 409.7 388.6 410.9 387.4 412.05 386.25 412.05 384.55 412.05 382.9 410.9 381.75 409.7 380.55 408.05 380.55 Z"/>
</g>

<g id="Layer0_0_MEMBER_23_MEMBER_1_FILL">
<path fill="#1D1715" stroke="none" d="
M 403.3 380.4
Q 401.75 382.2 401.75 384.6
L 401.85 385.75
Q 402.25 387.95 404 389.4 405.75 390.9 408.05 390.9 410.35 390.9 412.1 389.4 413.85 387.95 414.25 385.75
L 414.35 384.55
Q 414.35 382.05 412.55 380.15 411.6 379.65 410.4 379.65
L 406 379.65
Q 404.45 379.65 403.3 380.4
M 404.35 385.75
Q 404.15 385.05 404.15 384.55 404.15 382.95 405.3 381.85 406.45 380.7 408.05 380.7 409.65 380.7 410.8 381.8 411.95 382.95 411.95 384.55 411.95 385.05 411.75 385.75 411.35 386.95 410.35 387.7 409.35 388.45 408.05 388.45 406.75 388.45 405.75 387.7 404.75 386.95 404.35 385.75 Z"/>
</g>

<g id="Layer0_0_MEMBER_23_MEMBER_2_FILL">
<path fill="#FFFFFF" stroke="none" d="
M 406 382.5
Q 405.1 383.35 405.1 384.55 405.1 385.8 406 386.65 406.85 387.5 408.05 387.5 409.25 387.5 410.15 386.65 411 385.8 411 384.55 411 383.35 410.15 382.5 409.25 381.65 408.05 381.65 406.85 381.65 406 382.5 Z"/>
</g>

<g id="Layer0_0_MEMBER_23_MEMBER_3_FILL">
<path fill="#DAD1D1" stroke="none" d="
M 406.8 383.3
Q 406.3 383.85 406.3 384.55 406.3 385.3 406.8 385.85 407.3 386.35 408.05 386.35 408.8 386.35 409.3 385.85 409.8 385.3 409.8 384.55 409.8 383.85 409.3 383.3 408.8 382.8 408.05 382.8 407.3 382.8 406.8 383.3 Z"/>
</g>

<g id="Layer0_0_MEMBER_23_MEMBER_4_FILL">
<path fill="#FFFFFF" fill-opacity="0.4980392156862745" stroke="none" d="
M 3 1.3
Q 2.4 0.35 1.55 0
L 0 3.15 3 1.3 Z"/>
</g>

<g id="Layer0_0_MEMBER_23_MEMBER_5_FILL">
<path fill="#FFFFFF" fill-opacity="0.4980392156862745" stroke="none" d="
M 1.5 3.2
L 3.05 0 0 1.85
Q 0.55 2.75 1.5 3.2 Z"/>
</g>

<g id="Layer0_0_MEMBER_24_MEMBER_0_FILL">
<path fill="#DAD1D1" stroke="none" d="
M 346.05 381.75
Q 344.85 382.9 344.85 384.55 344.85 386.25 346.05 387.4 347.2 388.6 348.85 388.6 350.55 388.6 351.7 387.4 352.9 386.25 352.9 384.55 352.9 382.9 351.7 381.75 350.55 380.55 348.85 380.55 347.2 380.55 346.05 381.75 Z"/>
</g>

<g id="Layer0_0_MEMBER_24_MEMBER_1_FILL">
<path fill="#1D1715" stroke="none" d="
M 344.15 380.4
Q 342.55 382.15 342.55 384.6
L 342.65 385.7
Q 343.05 387.95 344.8 389.4 346.6 390.9 348.9 390.9 351.15 390.9 352.9 389.4 354.65 387.95 355.05 385.75 355.2 385.15 355.2 384.55 355.2 382.05 353.4 380.15 352.45 379.65 351.25 379.65
L 346.8 379.65
Q 345.3 379.65 344.15 380.4
M 348.85 380.7
Q 350.45 380.7 351.6 381.8 352.75 382.95 352.75 384.55 352.75 385.3 352.55 385.75 352.15 386.95 351.2 387.7 350.15 388.45 348.9 388.45 347.6 388.45 346.55 387.7 345.55 386.95 345.15 385.75 345 385.25 345 384.55 345 382.95 346.1 381.85 347.25 380.7 348.85 380.7 Z"/>
</g>

<g id="Layer0_0_MEMBER_24_MEMBER_2_FILL">
<path fill="#FFFFFF" stroke="none" d="
M 346.8 382.5
Q 345.95 383.35 345.95 384.55 345.95 385.8 346.8 386.65 347.65 387.5 348.85 387.5 350.1 387.5 350.95 386.65 351.8 385.8 351.8 384.55 351.8 383.35 350.95 382.5 350.1 381.65 348.85 381.65 347.65 381.65 346.8 382.5 Z"/>
</g>

<g id="Layer0_0_MEMBER_24_MEMBER_3_FILL">
<path fill="#DAD1D1" stroke="none" d="
M 347.6 383.3
Q 347.1 383.85 347.1 384.55 347.1 385.3 347.6 385.85 348.15 386.35 348.85 386.35 349.6 386.35 350.15 385.85 350.65 385.3 350.65 384.55 350.65 383.85 350.15 383.3 349.6 382.8 348.85 382.8 348.15 382.8 347.6 383.3 Z"/>
</g>

<g id="Layer0_0_MEMBER_24_MEMBER_4_FILL">
<path fill="#FFFFFF" fill-opacity="0.4980392156862745" stroke="none" d="
M 3.05 1.3
Q 2.45 0.4 1.55 0
L 0 3.15 3.05 1.3 Z"/>
</g>

<g id="Layer0_0_MEMBER_24_MEMBER_5_FILL">
<path fill="#FFFFFF" fill-opacity="0.4980392156862745" stroke="none" d="
M 1.45 3.2
L 3 0 0 1.85
Q 0.6 2.75 1.45 3.2 Z"/>
</g>
</defs>

<g transform="matrix( 8.99993896484375, 0, 0, 8.99993896484375, 54.1,613.65) ">
<use xlink:href="#Layer0_0_MEMBER_0_FILL"/>
</g>

<g transform="matrix( 8.99993896484375, 0, 0, 8.99993896484375, -2878.05,-2890.4) ">
<use xlink:href="#Layer0_0_MEMBER_1_FILL"/>
</g>

<g transform="matrix( 8.99993896484375, 0, 0, 8.99993896484375, -2878.05,-2890.4) ">
<use xlink:href="#Layer0_0_MEMBER_2_FILL"/>
</g>

<g transform="matrix( 8.99993896484375, 0, 0, 8.99993896484375, -2878.05,-2890.4) ">
<use xlink:href="#Layer0_0_MEMBER_3_FILL"/>
</g>

<g transform="matrix( 8.99993896484375, 0, 0, 8.99993896484375, -2878.05,-2890.4) ">
<use xlink:href="#Layer0_0_MEMBER_4_FILL"/>
</g>

<g transform="matrix( 8.99993896484375, 0, 0, 8.99993896484375, -2878.05,-2890.4) ">
<use xlink:href="#Layer0_0_MEMBER_5_FILL"/>
</g>

<g transform="matrix( 8.99993896484375, 0, 0, 8.99993896484375, 699.85,468.3) ">
<use xlink:href="#Layer0_0_MEMBER_6_FILL"/>
</g>

<g transform="matrix( 8.99993896484375, 0, 0, 8.99993896484375, 75.7,455.25) ">
<use xlink:href="#Layer0_0_MEMBER_7_FILL"/>
</g>

<g transform="matrix( 8.99993896484375, 0, 0, 8.99993896484375, -2878.05,-2890.4) ">
<use xlink:href="#Layer0_0_MEMBER_8_FILL"/>
</g>

<g transform="matrix( 8.99993896484375, 0, 0, 8.99993896484375, -2878.05,-2890.4) ">
<use xlink:href="#Layer0_0_MEMBER_9_FILL"/>
</g>

<g transform="matrix( 8.99993896484375, 0, 0, 8.99993896484375, -2878.05,-2890.4) ">
<use xlink:href="#Layer0_0_MEMBER_10_FILL"/>
</g>

<g transform="matrix( 8.99993896484375, 0, 0, 8.99993896484375, -2878.05,-2890.4) ">
<use xlink:href="#Layer0_0_MEMBER_11_FILL"/>
</g>

<g transform="matrix( 8.99993896484375, 0, 0, 8.99993896484375, -2878.05,-2890.4) ">
<use xlink:href="#Layer0_0_MEMBER_12_FILL"/>
</g>

<g transform="matrix( 8.99993896484375, 0, 0, 8.99993896484375, -2878.05,-2890.4) ">
<use xlink:href="#Layer0_0_MEMBER_13_FILL"/>
</g>

<g transform="matrix( 8.99993896484375, 0, 0, 8.99993896484375, -2878.05,-2890.4) ">
<use xlink:href="#Layer0_0_MEMBER_14_FILL"/>
</g>

<g transform="matrix( 8.99993896484375, 0, 0, 8.99993896484375, -2878.05,-2890.4) ">
<use xlink:href="#Layer0_0_MEMBER_15_FILL"/>
</g>

<g transform="matrix( 8.99993896484375, 0, 0, 8.99993896484375, -2878.05,-2890.4) ">
<use xlink:href="#Layer0_0_MEMBER_16_FILL"/>
</g>

<g transform="matrix( 8.99993896484375, 0, 0, 8.99993896484375, -2878.05,-2890.4) ">
<use xlink:href="#Layer0_0_MEMBER_17_FILL"/>
</g>

<g transform="matrix( 8.99993896484375, 0, 0, 8.99993896484375, -2878.05,-2890.4) ">
<use xlink:href="#Layer0_0_MEMBER_18_FILL"/>
</g>

<g transform="matrix( 8.99993896484375, 0, 0, 8.99993896484375, -2878.05,-2890.4) ">
<use xlink:href="#Layer0_0_MEMBER_19_FILL"/>
</g>

<g transform="matrix( 8.99993896484375, 0, 0, 8.99993896484375, 504.1,405.3) ">
<use xlink:href="#Layer0_0_MEMBER_20_MEMBER_0_FILL"/>
</g>

<g transform="matrix( 8.99993896484375, 0, 0, 8.99993896484375, 504.1,405.3) ">
<use xlink:href="#Layer0_0_MEMBER_20_MEMBER_1_FILL"/>
</g>

<g transform="matrix( 8.99993896484375, 0, 0, 8.99993896484375, 355.15,405.3) ">
<use xlink:href="#Layer0_0_MEMBER_21_MEMBER_0_FILL"/>
</g>

<g transform="matrix( 8.99993896484375, 0, 0, 8.99993896484375, 355.15,405.3) ">
<use xlink:href="#Layer0_0_MEMBER_21_MEMBER_1_FILL"/>
</g>

<g transform="matrix( 8.99993896484375, 0, 0, 8.99993896484375, 54.1,508.35) ">
<use xlink:href="#Layer0_0_MEMBER_22_FILL"/>
</g>

<g transform="matrix( 8.99993896484375, 0, 0, 8.99993896484375, -2878.05,-2890.4) ">
<use xlink:href="#Layer0_0_MEMBER_23_MEMBER_0_FILL"/>
</g>

<g transform="matrix( 8.99993896484375, 0, 0, 8.99993896484375, -2878.05,-2890.4) ">
<use xlink:href="#Layer0_0_MEMBER_23_MEMBER_1_FILL"/>
</g>

<g transform="matrix( 8.99993896484375, 0, 0, 8.99993896484375, -2878.05,-2890.4) ">
<use xlink:href="#Layer0_0_MEMBER_23_MEMBER_2_FILL"/>
</g>

<g transform="matrix( 8.99993896484375, 0, 0, 8.99993896484375, -2878.05,-2890.4) ">
<use xlink:href="#Layer0_0_MEMBER_23_MEMBER_3_FILL"/>
</g>

<g transform="matrix( 8.99993896484375, 0, 0, 8.99993896484375, 794.35,542.1) ">
<use xlink:href="#Layer0_0_MEMBER_23_MEMBER_4_FILL"/>
</g>

<g transform="matrix( 8.99993896484375, 0, 0, 8.99993896484375, 766.9,570.45) ">
<use xlink:href="#Layer0_0_MEMBER_23_MEMBER_5_FILL"/>
</g>

<g transform="matrix( 8.99993896484375, 0, 0, 8.99993896484375, -2878.05,-2890.4) ">
<use xlink:href="#Layer0_0_MEMBER_24_MEMBER_0_FILL"/>
</g>

<g transform="matrix( 8.99993896484375, 0, 0, 8.99993896484375, -2878.05,-2890.4) ">
<use xlink:href="#Layer0_0_MEMBER_24_MEMBER_1_FILL"/>
</g>

<g transform="matrix( 8.99993896484375, 0, 0, 8.99993896484375, -2878.05,-2890.4) ">
<use xlink:href="#Layer0_0_MEMBER_24_MEMBER_2_FILL"/>
</g>

<g transform="matrix( 8.99993896484375, 0, 0, 8.99993896484375, -2878.05,-2890.4) ">
<use xlink:href="#Layer0_0_MEMBER_24_MEMBER_3_FILL"/>
</g>

<g transform="matrix( 8.99993896484375, 0, 0, 8.99993896484375, 261.55,542.1) ">
<use xlink:href="#Layer0_0_MEMBER_24_MEMBER_4_FILL"/>
</g>

<g transform="matrix( 8.99993896484375, 0, 0, 8.99993896484375, 234.55,570.45) ">
<use xlink:href="#Layer0_0_MEMBER_24_MEMBER_5_FILL"/>
</g>
</svg>
