<?xml version="1.0" encoding="utf-8"?>
<!-- Generator: Adobe Illustrator 24.0.1, SVG Export Plug-In . SVG Version: 6.00 Build 0)  -->
<svg version="1.1" id="图层_1" xmlns="http://www.w3.org/2000/svg" xmlns:xlink="http://www.w3.org/1999/xlink" x="0px" y="0px"
	 viewBox="0 0 334.8 329.4" style="enable-background:new 0 0 334.8 329.4;" xml:space="preserve">
<style type="text/css">
	.st0{opacity:0.15;fill:#2131F9;enable-background:new    ;}
	.st1{fill:#210C04;}
	.st2{fill:#FFFFFF;}
	.st3{fill:url(#SVGID_1_);}
	.st4{opacity:0.56;fill:url(#SVGID_2_);enable-background:new    ;}
	.st5{fill:url(#SVGID_3_);}
	.st6{fill:url(#SVGID_4_);}
	.st7{fill:#E22F3D;}
	.st8{fill:none;stroke:#FFFFFF;stroke-miterlimit:10;}
	.st9{fill:none;stroke:#FFFFFF;stroke-width:3;stroke-miterlimit:10;}
	.st10{opacity:0.93;fill:#442725;enable-background:new    ;}
	.st11{fill:url(#SVGID_5_);}
	.st12{fill:none;stroke:#FFFFFF;stroke-width:0.5;stroke-linecap:round;stroke-miterlimit:10;}
	.st13{opacity:0.25;fill:#FFFFFF;stroke:url(#SVGID_6_);stroke-miterlimit:10;enable-background:new    ;}
	.st14{opacity:0.1;fill:#FFFFFF;stroke:url(#SVGID_7_);stroke-miterlimit:10;enable-background:new    ;}
	.st15{fill:#A63938;}
	.st16{opacity:0.4;fill:url(#SVGID_8_);enable-background:new    ;}
	.st17{opacity:0.4;fill:url(#SVGID_9_);enable-background:new    ;}
	.st18{opacity:0.4;fill:url(#SVGID_10_);enable-background:new    ;}
	.st19{fill:url(#SVGID_11_);}
	.st20{fill:url(#SVGID_12_);}
	.st21{fill:url(#SVGID_13_);}
	.st22{fill:#F6E3D8;}
	.st23{fill:url(#SVGID_14_);}
	.st24{fill:url(#SVGID_15_);}
	.st25{fill:url(#SVGID_16_);}
	.st26{fill:url(#SVGID_17_);}
	.st27{fill:url(#SVGID_18_);}
	.st28{fill:url(#SVGID_19_);}
	.st29{fill:url(#SVGID_20_);}
	.st30{fill:url(#SVGID_21_);}
	.st31{fill:url(#SVGID_22_);}
	.st32{fill:url(#SVGID_23_);}
	.st33{fill:url(#SVGID_24_);}
	.st34{fill:url(#SVGID_25_);}
	.st35{fill:#E77974;}
	.st36{fill:#A82E22;}
	.st37{fill:#F0BAB8;}
	.st38{fill:#AE6B27;}
	.st39{fill:url(#SVGID_26_);}
	.st40{fill:url(#SVGID_27_);}
	.st41{opacity:0.44;fill:#A0A4C5;enable-background:new    ;}
	.st42{fill:#AD6823;}
	.st43{fill:url(#SVGID_28_);}
	.st44{opacity:0.47;fill:url(#SVGID_29_);enable-background:new    ;}
	.st45{fill:url(#SVGID_30_);}
	.st46{fill:url(#SVGID_31_);}
	.st47{fill:url(#SVGID_32_);}
	.st48{fill:url(#SVGID_33_);}
	.st49{fill:url(#SVGID_34_);}
	.st50{fill:url(#SVGID_35_);}
	.st51{fill:url(#SVGID_36_);}
	.st52{fill:url(#SVGID_37_);}
	.st53{fill:url(#SVGID_38_);}
	.st54{fill:url(#SVGID_39_);}
	.st55{fill:url(#SVGID_40_);}
	.st56{fill:url(#SVGID_41_);}
	.st57{fill:url(#SVGID_42_);}
	.st58{fill:url(#SVGID_43_);}
	.st59{fill:url(#SVGID_44_);}
	.st60{fill:url(#SVGID_45_);}
	.st61{fill:url(#SVGID_46_);}
	.st62{fill:url(#SVGID_47_);}
	.st63{fill:url(#SVGID_48_);}
	.st64{fill:url(#SVGID_49_);}
	.st65{fill:url(#SVGID_50_);}
	.st66{fill:url(#SVGID_51_);}
	.st67{fill:url(#SVGID_52_);}
	.st68{fill:url(#SVGID_53_);}
	.st69{fill:url(#SVGID_54_);}
	.st70{fill:url(#SVGID_55_);}
	.st71{fill:#F1E7B2;}
	.st72{fill:url(#SVGID_56_);}
	.st73{fill:url(#SVGID_57_);}
	.st74{fill:url(#SVGID_58_);}
	.st75{fill:url(#SVGID_59_);}
	.st76{fill:url(#SVGID_60_);}
	.st77{fill:url(#SVGID_61_);stroke:#FCFCFC;stroke-miterlimit:10;}
	.st78{fill:url(#SVGID_62_);}
	.st79{fill:url(#SVGID_63_);}
	.st80{fill:url(#SVGID_64_);}
	.st81{fill:#C0E0F3;}
	.st82{opacity:0.29;}
	.st83{fill:url(#SVGID_65_);}
	.st84{fill:#74B5F2;}
	.st85{fill:#6AB6E3;}
	.st86{fill:url(#SVGID_66_);}
	.st87{fill:url(#SVGID_67_);}
	.st88{fill:url(#SVGID_68_);}
	.st89{fill:url(#SVGID_69_);}
	.st90{fill:url(#SVGID_70_);}
	.st91{fill:url(#SVGID_71_);}
	.st92{fill:url(#SVGID_72_);}
	.st93{fill:url(#SVGID_73_);}
	.st94{fill:url(#SVGID_74_);}
	.st95{fill:url(#SVGID_75_);}
	.st96{fill:url(#SVGID_76_);}
	.st97{fill:url(#SVGID_77_);}
	.st98{fill:url(#SVGID_78_);}
	.st99{fill:url(#SVGID_79_);}
	.st100{fill:url(#SVGID_80_);}
	.st101{fill:url(#SVGID_81_);}
	.st102{fill:url(#SVGID_82_);}
	.st103{enable-background:new    ;}
	.st104{fill:#2C509A;}
	.st105{fill:url(#SVGID_83_);}
	.st106{fill:url(#SVGID_84_);}
	.st107{fill:url(#SVGID_85_);}
	.st108{fill:#E24416;}
	.st109{fill:url(#SVGID_86_);}
	.st110{fill:url(#SVGID_87_);}
</style>
<g>
	
		<ellipse transform="matrix(0.7474 -0.6644 0.6644 0.7474 -51.0442 60.6678)" class="st81" cx="54.3" cy="97.5" rx="21.1" ry="11.2"/>
	<g class="st82">
	</g>
	
		<linearGradient id="SVGID_1_" gradientUnits="userSpaceOnUse" x1="127.0028" y1="-2439.9714" x2="164.9741" y2="-2439.9714" gradientTransform="matrix(1 0 0 -1 0 -2358.6001)">
		<stop  offset="0.1145" style="stop-color:#F8E9DD"/>
		<stop  offset="0.852" style="stop-color:#F1C290"/>
	</linearGradient>
	<path class="st3" d="M135.9,60.8c0,0-26.9,24.7,12.4,47.3l16.5-18.6c0,0-28.9-6.2-10.4-35L135.9,60.8z"/>
	
		<ellipse transform="matrix(0.2347 -0.9721 0.9721 0.2347 52.0506 171.2178)" class="st84" cx="134.8" cy="52.6" rx="11.1" ry="21.1"/>
	
		<ellipse transform="matrix(0.2347 -0.9721 0.9721 0.2347 55.4097 170.9626)" class="st81" cx="136.3" cy="50.3" rx="11.1" ry="21.1"/>
	
		<ellipse transform="matrix(0.7474 -0.6644 0.6644 0.7474 -51.9818 62.7916)" class="st85" cx="56.6" cy="99.8" rx="21.1" ry="11.2"/>
	
		<linearGradient id="SVGID_2_" gradientUnits="userSpaceOnUse" x1="74.8034" y1="-2493.5261" x2="102.5763" y2="-2465.7529" gradientTransform="matrix(1 0 0 -1 0 -2358.6001)">
		<stop  offset="0.1145" style="stop-color:#F8E9DD"/>
		<stop  offset="0.852" style="stop-color:#F1C290"/>
	</linearGradient>
	<path style="fill:url(#SVGID_2_);" d="M119.8,125.9c-10.6-3-36.8-11.7-40.7-26.9c-0.7-2.7-2.7-4.9-5.3-5.7
		c-5.9-1.9-15-3.1-16.6,7.1c-2.5,15.1,19.2,46.8,48,46.8c18.1,0,21-8,20.7-13.8C125.6,129.9,123.1,126.9,119.8,125.9z"/>
	
		<linearGradient id="SVGID_3_" gradientUnits="userSpaceOnUse" x1="181.583" y1="-2616.345" x2="253.8806" y2="-2616.345" gradientTransform="matrix(1 0 0 -1 0 -2358.6001)">
		<stop  offset="0.1145" style="stop-color:#F8E9DD"/>
		<stop  offset="0.852" style="stop-color:#F1C290"/>
	</linearGradient>
	<path class="st5" d="M182.5,226.4c-0.8,0.5-1.1,1.5-0.7,2.3c5.5,10.2,37.9,71.8,43.5,73.4c6,1.9,0-13.2,0-16.8s8,14.9,14.1,13.2
		c6-1.8,0-13.2-6-18.7c-6-5.6,12.1,9.4,14.1,11.3s8-3.8,6-7.5c-1.6-3.1-13.4-10.3-17.1-12.5c-0.7-0.4-1.1-1.4-0.7-2.2
		c0.4-1.1,1.4-2.2,3.7-2.2c4.1,0,10.1-11.3-2-9.4c-12.1,1.9-12.1-1.9-12.1-1.9l-19.2-41.2c-0.4-0.9-1.6-1.4-2.6-0.8L182.5,226.4z"/>
	
		<linearGradient id="SVGID_4_" gradientUnits="userSpaceOnUse" x1="-685.8928" y1="-3533.6829" x2="-665.9922" y2="-3533.6829" gradientTransform="matrix(1.5146 -1.0801 -2.1581 -3.0262 -6340.0566 -11218.3428)">
		<stop  offset="0.1145" style="stop-color:#F8E9DD"/>
		<stop  offset="0.852" style="stop-color:#F1C290"/>
	</linearGradient>
	<path class="st6" d="M233.9,194.8c0,0,17.3,12.1,18.8,21.4c1.5,9.4,5.3,17.1,9.8,20.9c4.5,3.8,2-11.8,2-11.8l22.1,8.7
		c0,0,5.2-0.1,1.8-4.7c-3.3-4.6-15.4-7.2-16.2-8.8c-0.8-1.6-0.5-1.8,0.5-2.6c1.2-0.8,10.9,7.2,16.4,6.4c1.4-0.1,5.3-6.9-1.5-8.4
		c-4-0.8-11.7-3.9-13.6-5c-1.8-1.1-0.3-3.4,2.9-1.9c5.3,2.6,8.9,2.3,10,1.5c1.2-0.8-0.7-4.1-3.5-5.6s-26.2-2.3-36.6-19.3
		s-13.6-4.3-13.6-4.3L233.9,194.8z"/>
	<g>
		
			<linearGradient id="SVGID_5_" gradientUnits="userSpaceOnUse" x1="608.8033" y1="-3464.0571" x2="608.8033" y2="-3400.8943" gradientTransform="matrix(0.9349 -0.355 -0.355 -0.9349 -1663.541 -2881.3835)">
			<stop  offset="0.4162" style="stop-color:#4885D8"/>
			<stop  offset="0.7514" style="stop-color:#61B8ED"/>
		</linearGradient>
		<path class="st11" d="M131.2,102.7L131.2,102.7c1.1-3.4,1.1-7.1-0.3-10.7c-3.1-8.3-12.4-12.5-20.7-9.4
			c-8.3,3.1-12.4,12.3-9.3,20.6c2,5.3,6.4,8.8,11.6,9.9c1.8,0.4,3.7,0.4,5.5,0.3l0,0c0,0,11.7,1.4,20.2,17.6s11.7-5,11.7-5
			S129.5,115.6,131.2,102.7z"/>
		
			<linearGradient id="SVGID_6_" gradientUnits="userSpaceOnUse" x1="-5510.5239" y1="-3338.6096" x2="-5510.5239" y2="-3275.5103" gradientTransform="matrix(-0.6139 0.1785 -0.2005 -0.6897 -3861.9165 -1208.0156)">
			<stop  offset="8.100558e-02" style="stop-color:#4681EE"/>
			<stop  offset="0.7514" style="stop-color:#74B5F2"/>
		</linearGradient>
		<path style="fill:url(#SVGID_6_);" d="M177,87.5L177,87.5c-1.9-1.5-3.4-3.7-4.2-6.4c-1.8-6.1,1.2-12.3,6.7-13.8
			c5.5-1.6,11.3,2.2,13.1,8.3c1.1,3.8,0.4,7.7-1.8,10.4c-0.7,0.9-1.6,1.8-2.6,2.3l0,0c0,0-5.5,5.6-3,18.4s-7.9,1.9-7.9,1.9
			S183.1,94.5,177,87.5z"/>
		
			<linearGradient id="SVGID_7_" gradientUnits="userSpaceOnUse" x1="-812.1599" y1="-103.7104" x2="-812.1599" y2="-41.6184" gradientTransform="matrix(0.3416 0.6286 0.6692 -0.3637 541.1748 583.4768)">
			<stop  offset="2.513967e-02" style="stop-color:#3767B2"/>
			<stop  offset="0.7514" style="stop-color:#74B5F2"/>
		</linearGradient>
		<path style="fill:url(#SVGID_7_);" d="M222.3,103.7L222.3,103.7c2.6,0.4,5.3,0,7.9-1.4c5.9-3.1,8-10.3,4.9-16s-10.4-7.7-16.1-4.6
			c-3.7,2-5.9,5.6-6.3,9.4c-0.1,1.4,0,2.7,0.3,3.9l0,0c0,0,0.1,8.7-11.2,16.5c-11.3,7.9,4.8,8,4.8,8S212.5,103.8,222.3,103.7z"/>
		
			<radialGradient id="SVGID_8_" cx="-1775.5858" cy="-4118.8398" r="8.688" gradientTransform="matrix(7.0679 -2.6683 -2.7431 -7.1832 1430.7596 -34161.1719)" gradientUnits="userSpaceOnUse">
			<stop  offset="0.1145" style="stop-color:#4783EE"/>
			<stop  offset="0.7514" style="stop-color:#5BACEB"/>
		</radialGradient>
		<path style="fill:url(#SVGID_8_);" d="M241,139.8c13.1,34.5-3.7,72.8-37.5,85.6c-34,12.8-72-4.7-85.3-39.2
			c-13.1-34.5,3.7-72.8,37.5-85.6C189.5,87.7,227.7,105.2,241,139.8z"/>
		
			<linearGradient id="SVGID_9_" gradientUnits="userSpaceOnUse" x1="1922.3895" y1="-2029.9918" x2="1922.3895" y2="-1967.0068" gradientTransform="matrix(0.6319 4.404612e-02 4.259213e-02 -0.6111 -970.1031 -1199.1041)">
			<stop  offset="0.4162" style="stop-color:#4680EC"/>
			<stop  offset="0.7514" style="stop-color:#61B8ED"/>
		</linearGradient>
		<path style="fill:url(#SVGID_9_);" d="M165.9,103.8L165.9,103.8c1.5-1.6,2.5-3.7,2.6-6c0.3-5.4-4-10.2-9.5-10.6
			c-5.6-0.4-10.5,3.5-10.8,9c-0.3,3.4,1.4,6.5,4.1,8.5c1,0.7,1.9,1.2,3.1,1.5l0,0c0,0,6.5,3.8,7.1,14.9s8,0.3,8,0.3
			S161.4,110.5,165.9,103.8z"/>
		
			<linearGradient id="SVGID_10_" gradientUnits="userSpaceOnUse" x1="-6083.334" y1="-7017.2686" x2="-6083.334" y2="-6938.2661" gradientTransform="matrix(-0.6008 0.2007 0.194 0.581 -2072.5977 5485.7134)">
			<stop  offset="0.4162" style="stop-color:#4680EC"/>
			<stop  offset="0.7514" style="stop-color:#61B8ED"/>
		</linearGradient>
		<path style="fill:url(#SVGID_10_);" d="M222.6,217.2L222.6,217.2c-1,2.6-1.1,5.4-0.1,8.1c2.2,6.4,9.4,9.9,16.2,7.6
			c6.8-2.3,10.4-9.1,8.2-15.5c-1.4-4.1-4.8-6.9-8.9-7.9c-1.4-0.4-2.9-0.4-4.4-0.3l0,0c0,0-9.4-1.4-15.4-14c-6-12.6-9.5,3.5-9.5,3.5
			S224.5,207.3,222.6,217.2z"/>
		
			<linearGradient id="SVGID_11_" gradientUnits="userSpaceOnUse" x1="-3068.6255" y1="-7310.5835" x2="-3068.6255" y2="-7247.3599" gradientTransform="matrix(-0.7799 -0.6259 -0.6259 0.7799 -6784.2412 3993.6538)">
			<stop  offset="0.4162" style="stop-color:#4885D8"/>
			<stop  offset="0.7514" style="stop-color:#61B8ED"/>
		</linearGradient>
		<path class="st19" d="M153.7,235.5L153.7,235.5c-3.4,0.8-6.7,2.7-9.1,5.7c-5.6,6.9-4.5,17,2.5,22.5c7,5.6,17.1,4.5,22.6-2.4
			c3.5-4.3,4.4-10,2.7-14.9c-0.5-1.8-1.5-3.4-2.6-4.7h0.1c0,0-4.9-10.7,5-26.2c9.8-15.5-10.2-7.6-10.2-7.6S165.8,230.4,153.7,235.5z
			"/>
		
			<linearGradient id="SVGID_12_" gradientUnits="userSpaceOnUse" x1="1145.0433" y1="-7338.9536" x2="1145.0433" y2="-7275.4731" gradientTransform="matrix(1.397381e-02 -0.5497 -0.8178 -2.078786e-02 -5888.4033 661.9192)">
			<stop  offset="0.4162" style="stop-color:#4885D8"/>
			<stop  offset="0.7514" style="stop-color:#61B8ED"/>
		</linearGradient>
		<path class="st20" d="M99,179L99,179c-2.2-1.2-5-2-8.2-2.2c-7.2-0.1-13.2,3.7-13.4,8.4c-0.1,4.9,5.7,9,13,9.1
			c4.6,0.1,8.7-1.4,11.1-3.7c0.8-0.8,1.5-1.8,1.8-2.7l0,0c0,0,4.5-5.7,19.5-6.4c15-0.7-0.3-6.9-0.3-6.9S108.4,182.6,99,179z"/>
		
			<linearGradient id="SVGID_13_" gradientUnits="userSpaceOnUse" x1="-812.5922" y1="-10222.7383" x2="-812.5922" y2="-10159.5381" gradientTransform="matrix(-0.2824 -0.567 -0.5483 0.2731 -5685.5728 2543.1436)">
			<stop  offset="0.4162" style="stop-color:#4680EC"/>
			<stop  offset="0.7514" style="stop-color:#61B8ED"/>
		</linearGradient>
		<path class="st21" d="M125.7,216.7L125.7,216.7c-2.2-0.5-4.4-0.3-6.5,0.8c-4.9,2.4-6.8,8.5-4.2,13.6c2.5,5,8.5,7.2,13.2,4.7
			c3-1.5,4.9-4.5,5.3-7.9c0.1-1.1,0-2.3-0.3-3.4l0,0c0,0,0-7.5,9.4-13.7c9.4-6.2-3.8-7.1-3.8-7.1S133.7,217,125.7,216.7z"/>
		
			<linearGradient id="SVGID_14_" gradientUnits="userSpaceOnUse" x1="10213.3711" y1="-8012.6084" x2="10213.3711" y2="-7949.2891" gradientTransform="matrix(6.941414e-02 -0.2014 -0.6173 -0.2127 -5525.4048 510.5016)">
			<stop  offset="0.4162" style="stop-color:#4680EC"/>
			<stop  offset="0.7514" style="stop-color:#61B8ED"/>
		</linearGradient>
		<path class="st23" d="M107.8,148.2L107.8,148.2c-1.5-1.1-3.5-2-6-2.8c-5.5-1.9-10.5-1.9-11.2-0.1c-0.7,1.8,3.3,4.7,8.7,6.5
			c3.4,1.2,6.7,1.6,8.9,1.4c0.7-0.1,1.4-0.3,1.8-0.5l0,0c0,0,4.1-0.9,15.6,2.4s0.7-2.7,0.7-2.7S114.5,151.8,107.8,148.2z"/>
		
			<linearGradient id="SVGID_15_" gradientUnits="userSpaceOnUse" x1="-6843.0166" y1="-3468.6934" x2="-6843.0166" y2="-3405.3628" gradientTransform="matrix(-0.2101 0.4225 0.5847 0.2907 825.9099 4062.1621)">
			<stop  offset="0.4162" style="stop-color:#4680EC"/>
			<stop  offset="0.7514" style="stop-color:#61B8ED"/>
		</linearGradient>
		<path class="st24" d="M255.2,177.8L255.2,177.8c1.1,1.8,2.9,3.3,5.2,4.3c5.2,2.6,10.9,1.6,13-2.2c1.9-3.7-0.7-8.8-6-11.4
			c-3.3-1.6-6.8-1.8-9.4-0.8c-1,0.4-1.6,0.8-2.3,1.5l0,0c0,0-5.5,2.8-16.5-1.5c-11.2-4.3-2.5,5.4-2.5,5.4S249.7,171.8,255.2,177.8z"
			/>
		
			<radialGradient id="SVGID_16_" cx="-1771.2787" cy="-3912.2615" r="1.5095" gradientTransform="matrix(7.8532 -2.9648 -3.4289 -8.979 678.45 -40219.1172)" gradientUnits="userSpaceOnUse">
			<stop  offset="0" style="stop-color:#447DED"/>
			<stop  offset="1" style="stop-color:#74B5F2;stop-opacity:0.3"/>
		</radialGradient>
		<path class="st25" d="M195.3,155.5c2.7,7.1-0.7,14.8-7.6,17.5c-7,2.6-14.7-0.9-17.3-8c-2.7-7.1,0.7-14.8,7.6-17.5
			C184.9,144.8,192.7,148.5,195.3,155.5z"/>
		
			<linearGradient id="SVGID_17_" gradientUnits="userSpaceOnUse" x1="-2088.2468" y1="-478.3752" x2="-2088.2468" y2="-416.2314" gradientTransform="matrix(0.1143 0.7063 0.7518 -0.1217 810.161 1546.2522)">
			<stop  offset="2.513967e-02" style="stop-color:#3767B2"/>
			<stop  offset="0.7514" style="stop-color:#74B5F2"/>
		</linearGradient>
		<path class="st26" d="M240.3,132L240.3,132c2.3,1.2,5,1.8,7.9,1.4c6.5-1.1,11.1-7.1,10-13.4c-1-6.4-7.1-10.7-13.6-9.6
			c-4.1,0.7-7.5,3.4-9,6.8c-0.5,1.2-1,2.6-1,3.9l0,0c0,0-2.7,8.3-16,11.9c-13.2,3.7,1.8,9.1,1.8,9.1S231,128.9,240.3,132z"/>
	</g>
	<g>
		<g>
			
				<linearGradient id="SVGID_18_" gradientUnits="userSpaceOnUse" x1="191.6619" y1="-2562.9883" x2="191.6619" y2="-2584.1213" gradientTransform="matrix(1 0 0 -1 0 -2358.6001)">
				<stop  offset="0" style="stop-color:#FFFFFF"/>
				<stop  offset="0.2391" style="stop-color:#F6FEFF"/>
				<stop  offset="0.6339" style="stop-color:#DDFDFF"/>
				<stop  offset="0.9944" style="stop-color:#C0FBFF"/>
				<stop  offset="1" style="stop-color:#C8FCFB"/>
			</linearGradient>
			<path class="st27" d="M205.2,211.5c1.4,5.6-3.5,11.5-11.1,13.4c-7.5,1.9-14.6-1.1-16.1-6.6c-1.4-5.6,3.5-11.5,11.1-13.4
				C196.6,203,203.7,206.1,205.2,211.5z"/>
			<g class="st103">
				<path class="st104" d="M195.2,217.5c0.4,0.1,0.8,0.3,1.2,0.4c0.4,0.1,0.7,0.2,1,0.3c0.3,0.1,0.6,0.2,0.8,0.3
					c0.2,0.1,0.3,0.1,0.4,0.2c0.1,0.1,0.2,0.2,0.2,0.3c0,0.1-0.1,0.2-0.2,0.3c-0.1,0.1-0.2,0.2-0.4,0.3c-0.1,0.1-0.3,0.2-0.4,0.3
					c-0.1,0.1-0.3,0.2-0.6,0.4c-0.3,0.1-0.6,0.3-0.9,0.4c-0.3,0.1-0.6,0.2-0.9,0.3c-0.3,0.1-0.5,0.1-0.7,0c-0.3-0.1-0.7-0.3-1.1-0.4
					s-0.9-0.3-1.4-0.5c-0.3,0.3-0.6,0.7-1,1s-0.6,0.7-0.8,0.9c-0.1,0.1-0.3,0.2-0.6,0.3c-0.3,0.1-0.6,0.1-0.9,0
					c-0.3,0-0.6-0.1-0.7-0.2c-0.1-0.1-0.2-0.2-0.1-0.3c0.3-0.3,0.6-0.7,1-1.1c0.4-0.4,0.8-0.9,1.3-1.3c-0.6-0.2-1.2-0.4-1.7-0.6
					c-0.5-0.2-1-0.3-1.4-0.5c-0.2-0.1-0.3-0.2-0.3-0.4c0-0.2,0.2-0.5,0.6-0.7c0.2-0.1,0.4-0.3,0.7-0.4c0.2-0.1,0.5-0.3,0.8-0.4
					c0.3-0.1,0.5-0.2,0.8-0.2c0.2-0.1,0.5-0.1,0.6,0c0.3,0.1,0.8,0.2,1.3,0.3c0.5,0.1,1.1,0.3,1.6,0.5c0.2-0.2,0.5-0.4,0.7-0.6
					c0.2-0.2,0.4-0.4,0.6-0.6c0.2-0.2,0.4-0.3,0.5-0.5c0.2-0.1,0.3-0.2,0.4-0.3c0.3-0.2,0.8-0.3,1.5-0.3c0.3,0,0.6,0.1,0.7,0.2
					c0.2,0.1,0.2,0.2,0.1,0.3c-0.3,0.3-0.7,0.6-1.2,1C196.2,216.6,195.7,217.1,195.2,217.5z"/>
			</g>
		</g>
		<g>
			
				<linearGradient id="SVGID_19_" gradientUnits="userSpaceOnUse" x1="770.5649" y1="-3203.0674" x2="770.5649" y2="-3224.209" gradientTransform="matrix(0.7796 -0.3305 -0.2803 -0.7376 -1268.7012 -1929.4495)">
				<stop  offset="0" style="stop-color:#FFFFFF"/>
				<stop  offset="0.3234" style="stop-color:#F6FCFF"/>
				<stop  offset="0.8578" style="stop-color:#DDF5FD"/>
				<stop  offset="0.9944" style="stop-color:#D5F3FD"/>
				<stop  offset="1" style="stop-color:#C8FCFB"/>
			</linearGradient>
			<path class="st28" d="M242.5,179.6c2.6,3.7,0.5,9.6-4.8,13.4s-11.7,3.9-14.3,0.4c-2.6-3.7-0.5-9.6,4.8-13.4
				C233.3,176.3,239.8,176.1,242.5,179.6z"/>
			<g class="st103">
				<path class="st104" d="M236.8,187.3c0.3,0,0.6,0,0.9-0.1s0.6,0,0.8,0c0.2,0,0.4,0,0.6,0c0.2,0,0.3,0,0.3,0
					c0.1,0,0.2,0.1,0.2,0.1c0,0.1,0,0.2,0,0.3c0,0.1-0.1,0.2-0.1,0.3c-0.1,0.1-0.1,0.2-0.2,0.3c-0.1,0.1-0.1,0.2-0.3,0.4
					c-0.1,0.2-0.3,0.3-0.5,0.5c-0.2,0.2-0.3,0.3-0.5,0.4c-0.2,0.1-0.3,0.2-0.5,0.2c-0.2,0-0.5,0-0.9,0c-0.3,0-0.7,0-1.1,0
					c-0.1,0.3-0.2,0.6-0.3,1c-0.1,0.4-0.2,0.6-0.3,0.9c0,0.1-0.1,0.2-0.3,0.4c-0.2,0.1-0.4,0.2-0.6,0.3c-0.2,0.1-0.4,0.1-0.5,0.1
					c-0.1,0-0.2-0.1-0.1-0.2c0.1-0.3,0.2-0.7,0.3-1.1c0.1-0.4,0.3-0.8,0.5-1.2c-0.5,0-0.9,0.1-1.3,0.1c-0.4,0-0.8,0.1-1.1,0.1
					c-0.2,0-0.3-0.1-0.3-0.2c0-0.2,0-0.4,0.2-0.7c0.1-0.2,0.2-0.3,0.3-0.5c0.1-0.2,0.2-0.3,0.4-0.5c0.1-0.1,0.3-0.3,0.4-0.4
					s0.3-0.2,0.4-0.2c0.2,0,0.6-0.1,0.9-0.1c0.4,0,0.8-0.1,1.2-0.1c0.1-0.2,0.2-0.4,0.3-0.6c0.1-0.2,0.2-0.4,0.2-0.6
					c0.1-0.2,0.1-0.3,0.2-0.5c0.1-0.1,0.1-0.3,0.2-0.3c0.1-0.2,0.4-0.4,0.9-0.6c0.2-0.1,0.4-0.1,0.5-0.1c0.1,0,0.2,0.1,0.1,0.2
					c-0.1,0.3-0.3,0.6-0.5,1C237.2,186.4,237,186.8,236.8,187.3z"/>
			</g>
		</g>
	</g>
	<path class="st81" d="M129.2,42.4c-1.8,3.5-3.5,7.2-5.3,10.7"/>
</g>
</svg>
