<?xml version="1.0" encoding="UTF-8"?>
<svg width="500px" height="500px" viewBox="0 0 500 500" version="1.1" xmlns="http://www.w3.org/2000/svg" xmlns:xlink="http://www.w3.org/1999/xlink">
    <title>画板备份 5</title>
    <g id="画板备份-5" stroke="none" stroke-width="1" fill="none" fill-rule="evenodd">
        <g id="编组" transform="translate(163.000000, 99.000000)" fill-rule="nonzero">
            <g transform="translate(2.000000, 48.000000)">
                <rect id="矩形" fill="#8A5D3B" x="0.2" y="0.3" width="54.46" height="51.91"></rect>
                <polygon id="路径" fill="#C3996B" points="26.09 14.32 27.44 15.7 28.79 14.32 30.14 15.7 31.5 14.32 32.79 15.65 32.79 0.3 22.08 0.3 22.08 15.65 23.38 14.32 24.73 15.7"></polygon>
                <rect id="矩形" fill="#C3996B" x="16.47" y="44.47" width="4.81" height="4.54"></rect>
                <rect id="矩形" fill="#C3996B" x="9.92" y="44.47" width="4.81" height="4.54"></rect>
                <rect id="矩形" fill="#C3996B" x="3.37" y="44.47" width="4.81" height="4.54"></rect>
            </g>
            <g id="路径">
                <path d="M49.87,277.47 C46.53,281.26 44.91,292.89 43.57,293.83 C42.23,294.77 39.95,295.17 36.99,292.89 C34.05,290.62 18.62,279.22 13.12,275.59 C7.62,271.97 7.36,267.95 8.3,266.48 C8.43,266.28 8.56,266.13 8.7,266.04 C9.63,265.43 11.35,266.91 18.89,269.69 C27.6,272.91 34.98,271.43 34.98,271.43 L40.67,273.73 L49.87,277.47 Z" fill="#122028"></path>
                <path d="M49.87,277.47 C46.53,281.26 44.91,292.89 43.57,293.83 C42.23,294.77 39.95,295.17 36.99,292.89 C34.05,290.62 18.62,279.22 13.12,275.59 C7.62,271.97 7.36,267.95 8.3,266.48 C8.43,266.28 8.56,266.13 8.7,266.04 C10.69,269.2 14.93,274.54 22.81,279.38 C34.94,286.82 38.34,288.52 40.12,288.03 C41.55,287.64 42.91,279.32 40.66,273.74 L49.87,277.47 Z" fill="#000000" opacity="0.25"></path>
                <path d="M169.79,279.04 C165.95,281.38 146.44,293.81 139.97,298.44 C133.51,303.07 128.87,301.63 127.61,299.93 C127.56,299.86 127.51,299.79 127.47,299.73 C126.53,298.19 128.72,297.47 135.82,289.39 C143.21,280.96 144.74,272.02 144.74,272.02 L148.71,267.77 L156,259.99 L157.98,257.88 C158.15,258.19 158.33,258.51 158.57,258.82 C162.2,264.04 173.23,270.25 173.69,272.06 C174.17,273.96 173.63,276.7 169.79,279.04 Z" fill="#122028"></path>
                <path d="M102.09,96.63 C102.09,96.63 81.06,104.73 68.6,103.59 C56.14,102.45 59.38,89.84 72.97,86.6 C86.56,83.36 101.93,72.52 103.55,71.55" fill="#A2CADB"></path>
                <path d="M169.79,279.04 C165.95,281.38 146.44,293.81 139.97,298.44 C133.51,303.07 128.87,301.63 127.61,299.93 C127.56,299.86 127.51,299.79 127.47,299.73 C138.06,297.31 147.75,285.57 150.54,280.31 C152.52,276.6 150.51,271.26 148.71,267.77 C147.65,265.68 146.65,264.25 146.65,264.25 L156,259.98 L158.57,258.81 C162.2,264.03 173.23,270.24 173.69,272.05 C174.17,273.96 173.63,276.7 169.79,279.04 Z" fill="#000000" opacity="0.25"></path>
                <path d="M102.09,96.63 C102.09,96.63 81.06,104.73 68.6,103.59 C56.14,102.45 59.38,89.84 72.97,86.6 C86.56,83.36 101.93,72.52 103.55,71.55" fill="#000000" opacity="0.51"></path>
                <path d="M130.11,28.52 C127.94,31.35 125.38,34.02 123.29,35.91 C122.06,37.02 120.99,37.86 120.26,38.3 C116.33,40.66 114.11,33.72 115.81,32.28 C117.51,30.84 120.26,27.05 118.17,25.48 C116.07,23.91 114.89,28.88 112.8,27.44 C110.71,26 111.36,22.59 104.3,21.94 C102.53,21.77 100.71,21.46 99.08,20.93 C95.83,19.87 93.27,17.93 93.21,14.52 C93.16,12.78 93.78,10.65 95.27,8.07 C101.16,-2.14 123.14,-1.22 126.76,3.22 C130.38,7.67 126.76,11.46 126.76,11.46 C126.76,11.46 130.72,10.55 134.26,16.3 C136.02,19.18 133.54,24.06 130.11,28.52 Z" fill="#020F21"></path>
                <path d="M126.76,50.36 C126.76,50.36 125.11,51.6 122.98,52.9 C119.11,55.29 113.7,57.94 114.02,53.75 C114.04,53.49 114.05,53.22 114.06,52.96 C114.15,50.69 113.83,48.73 113.25,47.23 C112.29,44.72 110.62,43.45 108.87,44.13 C108.62,44.23 108.37,44.32 108.12,44.4 L108.12,44.41 C105.4,45.33 102.43,45.43 100.06,39.51 C98.96,36.75 98.65,32.7 98.6597674,28.95 C98.6597674,27.72 98.7,26.52 98.75,25.42 C98.84,23.59 98.98,22 99.08,20.92 C100.72,21.46 102.54,21.77 104.3,21.93 C111.36,22.58 110.71,25.98 112.8,27.43 C113.92,28.2 114.79,27.11 115.67,26.2 C116.43,25.41 117.2,24.74 118.17,25.47 C120.26,27.04 117.51,30.83 115.81,32.27 C114.77,33.15 115.2,36.09 116.59,37.7 C117.47,38.72 118.73,39.2 120.26,38.29 C120.99,37.85 122.06,37.01 123.29,35.9 C123.45,43.16 126.76,50.36 126.76,50.36 Z" fill="#FFCCA6"></path>
                <path d="M126.76,50.36 C126.76,50.36 125.11,51.6 122.98,52.9 C120.07,53.33 116.88,53.38 114.06,52.97 C114.15,50.7 113.83,48.74 113.25,47.24 C114.88,45.75 116.49,44.17 116.21,42.78 C115.84,40.97 116.18,39.1 116.6,37.71 C117.48,38.73 118.74,39.21 120.27,38.3 C121,37.86 122.07,37.02 123.3,35.91 C123.45,43.16 126.76,50.36 126.76,50.36 Z" fill="#000000" opacity="0.25"></path>
                <path d="M140.22,88.01 C139.88,91.07 139.46,94.05 138.98,96.79 C138.41,100.07 137.69,103.32 136.96,106.5 C134.8,115.88 132.51,124.57 133.48,131.09 C134.67,139.08 135.22,143.55 131.76,144.5 C131.44,144.6 131.08,144.65 130.68,144.68 C126.04,145 94.3,138.11 84,139.51 L83.98,139.51 C81.44,139.86 78.66,137.4 78.09,134.33 C77.86,133.09 77.99,131.75 78.64,130.45 C79.68,128.37 82.2,125.02 84.84,120.85 C87.95,115.95 91.25,109.9 92.56,103.43 C92.64,103 92.73,102.56 92.81,102.11 C94.47,93.11 95.54,79.44 98.86,68.55 C100.04,64.66 101.52,61.12 103.41,58.29 C103.41,58.29 104.51,55.16 111.54,52.56 C112.69,52.13 113.99,51.71 115.47,51.34 C116.03,51.2 116.59,51.07 117.15,50.96 C124.09,49.62 130.51,51.14 134.79,54.27 C135,54.42 135.21,54.58 135.41,54.75 C135.41,54.76 135.42,54.76 135.42,54.76 C135.54,54.86 135.65,54.95 135.77,55.05 C135.77,55.05 135.77,55.06 135.78,55.06 C137.15,56.24 138.26,57.6 139,59.11 C141.53,64.2 141.47,76.64 140.22,88.01 Z" fill="#2A829A"></path>
                <path d="M122.12,72.7 C121.99,87.26 116.51,102.73 99.99,112.77 C93.16,116.91 88.32,119.41 84.83,120.86 C87.94,115.96 91.24,109.91 92.55,103.44 C92.63,103.01 92.72,102.57 92.8,102.12 C94.46,93.12 95.53,79.45 98.85,68.56 L108.25,57.0099352 C108.24,57 122.26,58.13 122.12,72.7 Z" fill="#000000" opacity="0.25"></path>
                <path d="M95.45,90.95 C83.76,98.53 70.89,104.54 66.82,105.85 C66.09,106.09 65.35,106.08 64.62,105.88 C59.95,104.6 55.98,95.17 58.08,90.97 C58.65,89.81 61.58,87.26 65.73,84.04 C79.06,73.66 104.91,56.3 104.91,56.3 C104.91,56.3 110.93,53.36 114.63,59.13 C114.86,59.48 115.08,59.86 115.28,60.28 C115.99,61.71 116.57,63.55 116.96,65.9 C118.26,73.66 107.47,83.14 95.45,90.95 Z" fill="#2A829A"></path>
                <path d="M64.39,107.88 C63.39,107.44 62.5,106.93 61.72,106.37 C56.83,102.9 55.63,97.44 55.37,94.3 C55.25,92.81 55.33,91.85 55.33,91.85 C55.08,87.72 63.75,83.7 63.58,85.57 C63.57,85.63 63.57,85.7 63.57,85.77 C63.47,88.37 65.73,92.38 68.22,96.08 C69.86,98.51 71.59,100.82 72.85,102.52 C73.02,102.75 73.17,102.96 73.32,103.16 C74,104.1 74.46,104.78 74.58,105.1 C75.23,106.84 66.82,108.95 64.39,107.88 Z" fill="#0A4856"></path>
                <path d="M61.72,106.37 C49.96,109.26 37.09,109.35 27.5,108.57 C19.76,107.95 14.15,106.77 12.95,106.03 C9.55,103.95 10.53,104.07 5.51,102.94 C0.5,101.81 -0.96,96.95 0.82,97.58 C1.91,97.96 4.18,98.25 6.66,98.37 C9.95,98.51 13.62,98.33 15.38,97.58 C18.29,96.33 15.55,92.11 16.35,90.42 C16.39,90.32 16.45,90.23 16.52,90.16 C17.81,88.7 24.45,98.57 33.02,99.7 C37.64,100.31 45.02,98.15 50.85,96.03 C52.53,95.43 54.07,94.82 55.39,94.29 C55.63,97.44 56.83,102.9 61.72,106.37 Z" fill="#FFCCA6"></path>
                <path d="M134.77,54.27 C130.48,51.14 124.06,49.62 117.13,50.96 C116.57,51.07 116.01,51.19 115.45,51.34 C113.97,51.72 112.66,52.13 111.52,52.56 C110.86,51.68 110.06,50.61 109.52,49.88 C109.1,49.32 111.51,48.41 114.84,47.52 C120.19,46.09 127.9,44.72 129.92,45.02 C132.95,45.48 132.38,51.91 134.77,54.27 Z" fill="#2A829A"></path>
                <path d="M142.91,273.39 C141.42,273.47 140,273.09 138.79,272.1 C137.33,270.91 135.2,268.57 132.7,265.5 C122.18,252.64 104.91,227.06 101.77,221.05 C98.98,215.71 98.05,201.99 96.9,193.35 C96.9,193.34 96.9,193.34 96.9,193.34 C96.58,190.92 96.24,188.91 95.84,187.58 C95.84,187.58 95.79,187.44 95.7,187.17 C95.58,186.82 95.45,186.53 95.31,186.32 L94.96,186.43 C94.96,186.43 81.82,202.98 73.23,215.39 C70.32,219.6 67.93,223.33 66.76,225.78 C66.76,225.78 66.75,225.8 66.73,225.85 C66.5,226.33 66.31,226.77 66.19,227.14 C66.18,227.16 66.17,227.18 66.17,227.2 C63.58,234.96 53.88,278.99 48.7,278 C44.26,277.17 32.23,270.87 28.87,267.26 C28.3,266.66 27.99,266.12 27.99,265.7 C27.99,263.76 33.72,239.48 39.46,220.59 C42.34,211.08 45.24,202.94 47.4,199.69 C51.9,192.95 64.51,167.32 75.26,150.89 C77.46,147.54 79.57,144.57 81.53,142.22 C82.38,141.19 83.21,140.28 83.99,139.51 C94.3,138.11 126.04,145.01 130.67,144.68 C131.07,144.65 131.43,144.6 131.75,144.5 C132.44,148.12 132.85,154.41 130.67,163.45 C129.7,167.45 128.86,172.22 128.16,177.17 C126.18,191.02 125.32,206.32 126.04,210.37 C126.31,211.93 129.09,216.1 132.96,221.37 C142.78,234.76 159.64,255.22 160.34,257.53 C161.15,260.25 150.76,273 142.91,273.39 Z" fill="#2A829A"></path>
                <path d="M95.7,187.18 C95.58,186.83 95.45,186.54 95.31,186.33 L94.96,186.44 C94.96,186.44 81.82,202.99 73.23,215.4 C66.44,181.05 97.05,156.94 97.05,156.94 C97.6,163.81 94.75,184.25 95.7,187.18 Z" fill="#000000" opacity="0.25"></path>
                <path d="M66.17,227.2 C63.58,234.96 53.88,278.99 48.7,278 C44.26,277.17 32.23,270.87 28.87,267.26 C50.27,260.94 63.31,233.73 66.17,227.2 Z" fill="#000000" opacity="0.25"></path>
                <path d="M130.67,163.45 C129.7,167.45 128.86,172.22 128.16,177.17 C119.64,172.4 127.15,161.87 118.1,153.87 C108.58,145.46 85.84,142.8 81.53,142.22 C82.38,141.19 83.21,140.28 83.99,139.51 C94.3,138.11 126.04,145.01 130.67,144.68 C131.07,144.65 131.43,144.6 131.75,144.5 C132.44,148.13 132.86,154.42 130.67,163.45 Z" fill="#000000" opacity="0.25"></path>
                <path d="M142.91,273.39 C144.34,257.78 137.99,235.81 132.95,221.37 C142.77,234.76 159.63,255.22 160.33,257.53 C161.15,260.25 150.76,273 142.91,273.39 Z" fill="#000000" opacity="0.25"></path>
                <path d="M132.7,265.5 C122.18,252.64 104.91,227.06 101.77,221.05 C98.98,215.71 98.05,201.99 96.9,193.35 C98.37,196.24 100.79,201.49 101.77,206.4 C103.23,213.69 104.79,219.02 106.92,222.66 C108.96,226.15 134.28,256.68 132.7,265.5 Z" fill="#FFFFFF" opacity="0.25"></path>
                <path d="M55.33,195.32 C47.24,205.51 47.4,210.69 43.52,216.35 C42.42,217.95 40.97,219.38 39.46,220.59 C42.34,211.08 45.24,202.94 47.4,199.69 C51.9,192.95 64.51,167.32 75.26,150.89 C78.21,158.55 62.79,185.93 55.33,195.32 Z" fill="#FFFFFF" opacity="0.25"></path>
                <path d="M133.47,131.09 C134.66,139.08 135.21,143.55 131.75,144.5 C131.43,144.6 131.07,144.65 130.67,144.68 C126.03,145 94.29,138.11 83.99,139.51 L83.97,139.51 C81.43,139.86 78.65,137.4 78.08,134.33 C80.13,133.91 83.23,133.58 86.4,134.33 C91.9,135.62 119.53,139.32 124.91,139.32 C130.35,139.32 130.9,139.83 129.76,135.14 C128.7,130.73 127.91,110.07 136.96,106.5 C134.8,115.88 132.51,124.57 133.47,131.09 Z" fill="#000000" opacity="0.25"></path>
                <path d="M61.72,106.37 C49.96,109.26 37.09,109.35 27.5,108.57 C28.52,107.66 30.44,106.55 33.95,106.03 C39.38,105.24 48.44,101.99 50.84,96.03 C52.52,95.43 54.06,94.82 55.38,94.29 C55.63,97.44 56.83,102.9 61.72,106.37 Z" fill="#000000" opacity="0.25"></path>
                <path d="M114.65,59.14 C113.69,58.28 111.34,57.63 105.57,60.29 C97.22,64.15 76.56,85.04 65.74,84.05 C79.07,73.67 104.92,56.31 104.92,56.31 C104.92,56.31 110.94,53.36 114.65,59.14 Z" fill="#FFFFFF" opacity="0.25"></path>
                <path d="M140.22,88.01 C136.54,84.42 138.51,74.56 137.2,66.54 C135.38,55.42 125.19,54.37 119.61,52.31 C118.59,51.93 117.78,51.46 117.13,50.96 C115.74,49.87 115.11,48.57 114.83,47.52 C120.18,46.09 127.89,44.72 129.91,45.02 C132.95,45.47 132.37,51.91 134.76,54.27 C134.97,54.42 135.18,54.58 135.38,54.75 C135.38,54.76 135.39,54.76 135.39,54.76 C135.51,54.86 135.62,54.95 135.74,55.05 C135.74,55.05 135.74,55.06 135.75,55.06 C137.12,56.24 138.23,57.6 138.97,59.11 C141.53,64.2 141.47,76.64 140.22,88.01 Z" fill="#2A829A"></path>
                <path d="M95.45,90.95 C87.6,96.04 79.22,100.43 73.32,103.15 C73.18,102.95 73.02,102.73 72.85,102.51 C71.6,100.81 69.86,98.5 68.22,96.07 C73.58,96.48 83.4,96.52 91.32,92.59 C92.84,91.84 94.21,91.31 95.45,90.95 Z" fill="#000000" opacity="0.25"></path>
                <path d="M14.71,100.06 C12.63,100.06 9.07,99.1 6.66,98.38 C9.95,98.52 13.62,98.34 15.38,97.59 C18.29,96.34 15.55,92.12 16.35,90.43 C20.63,95.41 17.95,100.06 14.71,100.06 Z" fill="#000000" opacity="0.25"></path>
                <path d="M107.71,27.01 C105.23,25.36 101.62,25.2 98.74,25.43 C98.83,23.6 98.97,22.01 99.07,20.93 C100.71,21.47 102.53,21.78 104.29,21.94 C111.35,22.59 110.7,25.99 112.79,27.44 C113.91,28.21 114.78,27.12 115.66,26.21 C116.37,32.05 112.24,30.03 107.71,27.01 Z" fill="#000000" opacity="0.25"></path>
                <path d="M130.11,28.52 C127.94,31.35 125.38,34.02 123.29,35.91 C122.06,37.02 120.99,37.86 120.26,38.3 C116.33,40.66 114.11,33.72 115.81,32.28 C117.51,30.84 120.26,27.05 118.17,25.48 C116.07,23.91 114.89,28.88 112.8,27.44 C110.71,26 111.36,22.59 104.3,21.94 C102.53,21.77 100.71,21.46 99.08,20.93 C95.83,19.87 93.27,17.93 93.21,14.52 C95.38,15.95 99.19,17.91 104.56,18.57 C113.42,19.66 122.82,15.32 127.95,25.43 C128.58,26.69 129.31,27.7 130.11,28.52 Z" fill="#000000" opacity="0.25"></path>
                <path d="M108.12,44.42 L108.12,44.42 C105.4,45.35 102.43,45.45 100.06,39.53 C98.96,36.77 98.65,32.72 98.66,28.97 C99.33,29.17 100.07,29.66 100.32,30.8 C100.8,33.06 101.48,39.16 102.66,40.99 C104.96,44.58 109.13,41.47 108.12,44.42 Z" fill="#FFFFFF" opacity="0.25"></path>
            </g>
        </g>
    </g>
</svg>