<?xml version="1.0" encoding="utf-8"?>
<!-- Generator: Adobe Illustrator 23.0.2, SVG Export Plug-In . SVG Version: 6.00 Build 0)  -->
<svg version="1.1" id="图层_1" xmlns="http://www.w3.org/2000/svg" xmlns:xlink="http://www.w3.org/1999/xlink" x="0px" y="0px"
	 viewBox="0 0 243.66 199.35" style="enable-background:new 0 0 243.66 199.35;" xml:space="preserve">
<style type="text/css">
	.st0{fill:#067F60;}
	.st1{fill:#01002D;}
	.st2{fill:#4DEF60;}
	.st3{fill:#FFCF01;}
</style>
<g>
	<g>
		<g>
			<g>
				<g>
					<g>
						<g>
							<g>
								<g>
									<g>
										
											<rect x="72.79" y="4.02" transform="matrix(-0.4534 0.8913 -0.8913 -0.4534 267.4785 55.9483)" class="st0" width="87.58" height="211.94"/>
									</g>
								</g>
							</g>
						</g>
					</g>
				</g>
			</g>
			<g>
				<g>
					<g>
						<g>
							<g>
								<g>
									<g>
										<path class="st1" d="M191.92,199.35l-1.51-0.77L0,101.71l41.25-81.08l1.51,0.77l190.41,96.87L191.92,199.35z M4.56,100.23
											l185.88,94.56l38.17-75.04L42.73,25.19L4.56,100.23z"/>
									</g>
								</g>
							</g>
						</g>
					</g>
				</g>
			</g>
		</g>
		<g>
			<g>
				<g>
					<g>
						<g>
							<g>
								<g>
									<g>
										
											<rect x="81.01" y="-1.02" transform="matrix(-0.4534 0.8913 -0.8913 -0.4534 266.713 46.3387)" class="st0" width="76.27" height="211.94"/>
									</g>
								</g>
							</g>
						</g>
					</g>
				</g>
			</g>
			<g>
				<g>
					<g>
						<g>
							<g>
								<g>
									<g>
										<path class="st1" d="M197.05,189.27l-1.51-0.77L5.13,91.63l36.12-71l1.51,0.77l190.41,96.87L197.05,189.27z M9.68,90.15
											l185.88,94.56l33.05-64.96L42.73,25.19L9.68,90.15z"/>
									</g>
								</g>
							</g>
						</g>
					</g>
				</g>
			</g>
		</g>
		<g>
			<g>
				<g>
					<g>
						<g>
							<g>
								<g>
									<g>
										
											<rect x="83.29" y="-16.61" transform="matrix(-0.4534 0.8913 -0.8913 -0.4534 264.3442 16.6068)" class="st0" width="87.58" height="211.94"/>
									</g>
								</g>
							</g>
						</g>
					</g>
				</g>
			</g>
			<g>
				<g>
					<g>
						<g>
							<g>
								<g>
									<g>
										<path class="st1" d="M202.42,178.71L10.5,81.08L51.74,0l1.51,0.77l190.41,96.87L202.42,178.71z M15.05,79.6l185.88,94.56
											l38.17-75.04L53.23,4.56L15.05,79.6z"/>
									</g>
								</g>
							</g>
						</g>
					</g>
				</g>
			</g>
		</g>
		<g>
			<g>
				<g>
					<g>
						<g>
							<g>
								<g>
									<g>
										
											<rect x="35.98" y="61.69" transform="matrix(-0.8913 -0.4534 0.4534 -0.8913 199.831 226.6212)" class="st2" width="182.2" height="55.33"/>
									</g>
								</g>
							</g>
						</g>
					</g>
				</g>
			</g>
			<g>
				<g>
					<g>
						<g>
							<g>
								<g>
									<g>
										<path class="st1" d="M196.48,157.6L31.06,73.45l26.63-52.34l165.42,84.15L196.48,157.6z M35.62,71.97l159.38,81.08
											l23.55-46.3L59.17,25.67L35.62,71.97z"/>
									</g>
								</g>
							</g>
						</g>
					</g>
				</g>
			</g>
		</g>
	</g>
	<g>
		<g>
			<g>
				<g>
					<g>
						<g>
							<g>
								<g>
									<g>
										
											<rect x="83.29" y="74.22" transform="matrix(-0.4534 0.8913 -0.8913 -0.4534 264.3442 16.6068)" class="st3" width="87.58" height="30.28"/>
									</g>
								</g>
							</g>
						</g>
					</g>
				</g>
			</g>
			<g>
				<g>
					<g>
						<g>
							<g>
								<g>
									<g>
										<path class="st1" d="M121.46,137.53l-30.01-15.26l41.25-81.08l30.01,15.27L121.46,137.53z M96.01,120.78l23.97,12.19
											l38.17-75.04l-23.97-12.19L96.01,120.78z"/>
									</g>
								</g>
							</g>
						</g>
					</g>
				</g>
			</g>
		</g>
		<g>
			<g>
				<g>
					<g>
						<g>
							<g>
								<g>
									<g>
										
											<rect x="90.4" y="123.56" transform="matrix(-0.4534 0.8913 -0.8913 -0.4534 271.8406 110.7005)" class="st3" width="23.15" height="30.28"/>
									</g>
								</g>
							</g>
						</g>
					</g>
				</g>
			</g>
			<g>
				<g>
					<g>
						<g>
							<g>
								<g>
									<g>
										<path class="st1" d="M110.96,158.16L80.96,142.9l12.03-23.65L123,134.51L110.96,158.16z M85.51,141.41l23.97,12.19
											l8.96-17.61L94.47,123.8L85.51,141.41z"/>
									</g>
								</g>
							</g>
						</g>
					</g>
				</g>
			</g>
		</g>
	</g>
	<g>
		<g>
			<g>
				<g>
					<g>
						<g>
							<g>
								<g>
									<path class="st1" d="M166.34,128.77l-2.58,5.06l-3.86-1.96l2.56-5.03c-2.23-1.44-3.85-3.18-4.85-5.22s-1.29-4.16-0.87-6.36
										l5.47,0.08c-0.25,1.4-0.17,2.71,0.26,3.91c0.42,1.21,1.18,2.25,2.27,3.11l4.73-9.29c-2.5-2-4.09-4.1-4.77-6.28
										s-0.46-4.38,0.67-6.59c1.17-2.31,2.9-3.86,5.19-4.65s4.84-0.69,7.66,0.32l2.58-5.06l3.86,1.96l-2.58,5.06
										c1.99,1.32,3.4,2.86,4.24,4.61s1.07,3.67,0.72,5.75l-5.41-0.09c0.27-2.52-0.34-4.44-1.84-5.75l-4.19,8.23
										c2.6,2.15,4.22,4.34,4.85,6.57c0.62,2.23,0.32,4.56-0.92,6.99c-1.21,2.38-3.01,3.99-5.39,4.83
										C171.75,129.8,169.15,129.74,166.34,128.77z M174.16,121.6c0.47-0.92,0.61-1.83,0.42-2.72c-0.19-0.89-0.77-1.86-1.74-2.9
										l-4.19,8.24c1.23,0.23,2.32,0.11,3.27-0.35S173.63,122.64,174.16,121.6z M172.17,107.74l3.71-7.29
										c-1.12-0.2-2.14-0.11-3.06,0.28c-0.92,0.39-1.6,1.02-2.04,1.9c-0.45,0.87-0.56,1.71-0.36,2.5
										C170.64,105.93,171.22,106.8,172.17,107.74z"/>
								</g>
							</g>
						</g>
					</g>
				</g>
			</g>
		</g>
		<g>
			<g>
				<g>
					<g>
						<g>
							<g>
								<g>
									<path class="st1" d="M76.91,83.27l-2.58,5.06l-3.86-1.96l2.56-5.03c-2.23-1.44-3.85-3.18-4.85-5.22s-1.29-4.16-0.87-6.36
										l5.47,0.08c-0.25,1.4-0.17,2.71,0.26,3.91c0.42,1.21,1.18,2.25,2.27,3.11l4.73-9.29c-2.5-2-4.09-4.1-4.77-6.28
										c-0.68-2.18-0.46-4.38,0.67-6.59c1.17-2.31,2.9-3.86,5.19-4.65c2.29-0.79,4.84-0.69,7.66,0.32l2.58-5.06l3.86,1.96
										l-2.58,5.06c1.99,1.32,3.4,2.86,4.24,4.61s1.07,3.67,0.72,5.75l-5.41-0.09c0.27-2.52-0.34-4.44-1.84-5.75l-4.19,8.23
										c2.6,2.15,4.22,4.34,4.85,6.57c0.62,2.23,0.32,4.56-0.92,6.99c-1.21,2.38-3.01,3.99-5.39,4.83
										C82.32,84.31,79.72,84.24,76.91,83.27z M84.73,76.1c0.47-0.92,0.61-1.83,0.42-2.72c-0.19-0.89-0.77-1.86-1.73-2.9
										l-4.19,8.24c1.23,0.23,2.32,0.11,3.27-0.35C83.46,77.9,84.2,77.15,84.73,76.1z M82.74,62.25l3.71-7.29
										c-1.12-0.2-2.14-0.11-3.06,0.28c-0.92,0.39-1.6,1.02-2.04,1.9c-0.45,0.87-0.56,1.71-0.36,2.5
										C81.21,60.43,81.79,61.3,82.74,62.25z"/>
								</g>
							</g>
						</g>
					</g>
				</g>
			</g>
		</g>
	</g>
</g>
</svg>
