<?xml version="1.0" ?><!DOCTYPE svg  PUBLIC '-//W3C//DTD SVG 1.1//EN'  'http://www.w3.org/Graphics/SVG/1.1/DTD/svg11.dtd'><svg enable-background="new 0 0 126 126" id="Layer_1" version="1.1" viewBox="0 0 126 126" xml:space="preserve" xmlns="http://www.w3.org/2000/svg" xmlns:xlink="http://www.w3.org/1999/xlink"><g><path d="M105.783,74.2974c-1.4882-0.2166-15.6165,4.4122-17.114,10.7417   c-1.4976,6.3382-12.8003,12.9354-17.6132,11.306s-11.1234,0.1131-11.1234,0.1131l-3.9746,1.9214l-0.9042,0.4332h-0.0094L1,67.6092   l67.4382-39.199l52.3299,30.2149c1.6483,0.9511,3.0233,2.3638,3.7392,4.1252C128.4819,72.4702,107.1487,74.4859,105.783,74.2974z" fill="#F3F6FD"/><path d="M55.302,63.8771c0,0,0,0,0,0.0098l0.48,0.6299l-1.21,1.3203l-0.77-0.0503c-0.03,0.02-0.05,0.04-0.08,0.0601   c-0.09,0.0801-0.18,0.1499-0.28,0.2202c-0.04,0.0298-0.07,0.0498-0.11,0.0796l0.33,0.4102l-2.02,1.1602l-0.57-0.2202   c-0.1,0.0503-0.19,0.0903-0.29,0.1401c-0.12,0.0498-0.23,0.1001-0.36,0.1499c-0.09,0.0503-0.2,0.0903-0.3,0.1304   c-0.02,0.0098-0.04,0.0195-0.06,0.0298l0.27,0.3501l-2.5,0.8198l-0.29-0.3599c-0.01,0-0.02,0.0098-0.03,0.0098   c-0.18,0.0503-0.38,0.1001-0.57,0.1401c-0.12,0.0298-0.26,0.0601-0.38,0.0898c-0.06,0.0103-0.12,0.02-0.17,0.0303l-0.07,0.4302   l-2.64,0.3599l-0.31-0.4102c-0.1,0.0103-0.2,0.02-0.3,0.02h-0.44l-0.4,0.4399l-0.92-1.1802l0.91,1.1904l-2.36-0.1602l-0.02-0.0303   c-0.0099,0-0.02,0.0103-0.02,0.0103c-0.02,0.0103-0.04,0.02-0.09,0.0298c0,0-0.03,0-0.18-0.0298c0.08,0.02,0.19,0.0498,0.21,0.0801   c0.01,0,0.01,0,0,0.0098c0,0-0.03,0.0103-0.1,0.0103c-0.23,0.0098-0.33,0-0.36,0c0.05,0.0098,0.17,0.0601,0.2,0.0996   c0,0.0103,0,0.0103,0,0.0103c-0.01,0.0103-0.04,0.0103-0.1,0.02c-0.26,0-0.82-0.0698-1.25-0.27   c-0.01,0.0898-0.05,0.1401-0.05,0.1401l-3.05-0.6299c-0.38-0.1001-0.76-0.0303-1.02,0.1699c-0.84,0.6797-3.19,2.3896-4.11,2.04   h-0.04c-0.26-0.0601-0.51-0.1602-0.71-0.2305c-0.03-0.0195-0.06-0.0195-0.09-0.0298c0.03,0.1099,0.0099,0.2202-0.05,0.3403   c-0.1,0.21-0.25,0.46-0.42,0.6797c0.01,0.0098,0.01,0.0098,0.01,0.0098c-0.95,1.2803-2.58,1.0205-3.54-0.1895   c-0.22-0.2705-0.19-0.5303-0.02-0.7603c0.02-0.1099,0.08-0.21,0.19-0.29c0.14-0.0698,0.33-0.1201,0.39-0.2397   c0.03-0.0601,0.01-0.1304,0.04-0.2002c0.05-0.1201,0.23-0.1899,0.41-0.23c0.1801-0.0503,0.3701-0.0698,0.51-0.1499   c0.3-0.1904,0.22-0.5801,0.48-0.7803c-0.07-0.1602-0.19-0.3101-0.31-0.4697c-0.06-0.0601-0.1-0.1201-0.13-0.2002l-0.01-0.02   c-0.28-0.3301,0.05-0.73,0.05-0.73c0.23-0.3599,2.12-2.2402,2.87-2.8701c0.09-0.0801,0.2-0.1299,0.33-0.1699   c-0.07-0.54-0.06-0.8198,0.16-1.3501c0.01-0.0298,0.02-0.0498,0.02-0.0698c0.06-0.1602,0.15-0.3198,0.32-0.4697   c2.61-2.3804,2.52-3.04,2.52-3.04c0.0699-0.0103,0.16-0.0205,0.25-0.0103c-0.16-1.0601,0.2599-2.1299,0.36-2.48   c0.12-0.46-0.14-1.21-0.14-1.21c-0.9-0.1099-0.49-0.9902-0.29-1.1602c0.18-0.1699,0.12-0.6797,0.12-0.6797l0.3,0.0098   c0,0-0.05,0.4399-0.03,0.5703c0.01,0.1196,0.28,0.3096,0.4301-0.2305c0.14-0.5298,0.15-0.46,1.03-0.6597   c0.65-0.1602,0.91,0.02,1.01,0.1299c0.03,0.0298,0.02,0.0698-0.02,0.0898c-0.18,0.1001-0.6,0.4302-0.6,0.4302   c-0.29,0.25-0.42,0.7402-0.59,1.2798c-0.19,0.5303-0.06,0.6802,0.41,1.9604c0.38,1.0195,0.14,2.0898,0.04,2.4795   c0.51,0.2002,1.02,0.46,1.44,0.71c0.7-0.7695,2.42-3.8496,2.73-4.0596c0.48-0.3301,0.9-2.23,0.9-2.23   c-0.71-0.4204,0.34-0.9702,0.64-1.04c0.29-0.0601,0.63-0.4902,0.63-0.4902l0.27,0.1201c0,0-0.4,0.3398-0.48,0.4399   c-0.08,0.1099,0.01,0.3599,0.56-0.02c0.54-0.3799,0.5-0.3101,1.44-0.1499c0.7,0.1201,0.8,0.3599,0.8,0.48   c0,0.0298-0.04,0.0601-0.09,0.0698c-0.2401,0.0103-0.87,0.1299-0.87,0.1299c-0.44,0.0703-0.95,0.4204-1.53,0.79   c-0.52,0.3203-1.34,4.1704-1.77,5.0801c0.24-0.1099,0.49-0.2197,0.75-0.3198l-0.27-0.3501l2.5099-0.8198l0.28,0.3501   c0.38-0.1001,0.77-0.1904,1.15-0.2603l0.0699-0.4399l2.64-0.3501l0.32,0.3999c0.25-0.0098,0.49-0.0195,0.73-0.0195l0.41-0.4404   l2.36,0.1602l0.47,0.6099c0.0099,0.0103,0.03,0.0103,0.04,0.02l0.67-0.3896l1.73,0.6499l0.45,0.5898l0.3-0.0898l0.8199,1.0498   l0.92,1.1802l-0.28,0.0898l0.46,0.5898l-0.19,1.2803L55.302,63.8771z" fill="#E1E9F4"/><path d="M92.2872,76.3879c-0.22,0.0801-0.42,0.29-0.55,0.29l-0.06-0.0103c-0.34,0.1104-2.01,1.3799-3.73,1.5103   c-0.63,0.04-1.22,0.1099-1.72,0.21c-0.61,0.1201-1.26,0.4097-1.67,0.6499c-0.56,0.3301-1.22,0.4199-1.81,0.4199   c-0.26,0-0.51-0.02-0.73-0.04c-1.23,0.6904-2.28,1.4404-2.84,1.8203c-0.34,0.23-0.62,0.48-0.92,0.73   c-0.66,0.5298-1.8799,0.1797-2.39,0h-0.09c0.03,0.0601,0.03,0.1499-0.09,0.2397c-0.27,0.2002-0.31,0.4502-0.4901,0.54   c-0.18,0.0801-0.8199,0.6499-2.92-0.1899c-3.53-1.4199-2.51-1.5801-1.14-1.46c0.3-0.25,0.77-0.4702,1.4901-0.3799   c0.31,0.04,0.35,0.1401,0.62,0.1597c0.04,0,0.0699,0.0103,0.09,0c-0.46-0.21-0.91-0.9497-1.1-1.4297   c-3.1-3.4902-5.18-6.8799-5.66-7.6802l-0.04,0.5601l-2.27,0.52l-0.89-0.52c-0.02,0-0.03-0.0098-0.04,0h-0.01l-0.31,0.6099   l-2.06-0.1899l-0.85-0.5l-0.2,0.1802l-1.53-0.8901l-1.16-0.6899l-0.55-0.3101l0.18-0.1797l-0.84-0.5l-0.77-1.4404l0.7-0.3896   c0-0.0103,0-0.0103,0.0099-0.02l-0.9-0.5303V67.468l0.1-1.77l0.76-0.1699c0.04-0.1699,0.09-0.3501,0.15-0.5303l-0.6-0.3501   l0.97-1.8398l0.69,0.0698c0.19-0.2798,0.38-0.5195,0.58-0.7798l-0.5-0.3003l1.67-1.6299l0.52,0.3003   c0.28-0.21,0.56-0.4302,0.86-0.6201l-0.25-0.4897l2.13-1.1704l0.6,0.3599c0.21-0.0996,0.43-0.1797,0.66-0.25l0.02-0.5898   l2.27-0.5298l0.9,0.5298c0.01,0,0.03-0.0098,0.05,0l0.3199-0.6201l2.04,0.2002l0.86,0.5l0.19-0.1899l1.53,0.8799v0.0103   l1.72,1.0098l-0.18,0.1699l0.84,0.5l0.78,1.4404l-0.72,0.3896v0.0103l0.91,0.5396l-0.12,1.7803l-0.74,0.1802   c-0.01,0.02-0.02,0.0498-0.03,0.0796c-0.02,0.1104-0.05,0.2202-0.09,0.3301c0,0.04-0.02,0.0703-0.03,0.1104l0.59,0.3496   l-0.98,1.8501l-0.67-0.0801h-0.01c-0.05,0.0801-0.1,0.1602-0.17,0.2402c-0.06,0.0898-0.12,0.1802-0.2,0.27   c-0.05,0.0801-0.12,0.1499-0.18,0.23c-0.01,0.02-0.02,0.0298-0.04,0.04l0.5099,0.2998l-1.68,1.6304l-0.52-0.3003   c0,0-0.01,0.0103-0.02,0.02c-0.13,0.1001-0.27,0.21-0.42,0.3198c-0.08,0.0601-0.18,0.1401-0.28,0.2002   c-0.05,0.0298-0.08,0.0601-0.12,0.0898l0.25,0.48l-1.07,0.5801l4.65,7.3701c1.25-0.1899,2.94-1.6201,2.94-1.8701   c0-0.0098-0.01-0.02-0.01-0.0298c-0.92-1.3301,0.42-1.2603,0.6-1.3203l4.02-0.6499c-0.5-0.27-1.54-0.75-1.94-0.8701   c-0.47-0.1396-0.59-0.7798,0.4-0.6099c1,0.1602,1.3,1.02,1.3,1.02l1.11-0.0098c0.07-0.0103,0.21,0,0.3,0.0298l0.82,0.5601   c0.09,0.0298,0.05,0.04,0.02,0.0698c0,0-0.36,0.27-0.49,0.27h-0.01c-1.58,0.5503-2.2,0.8003-3.1,0.8799   c-0.17,0.0103-0.24,0.0801-0.21,0.1704c0.13,0.27,0.45,0.0796,1.67,0.9297c0.14,0.0903,0.23,0.1704,0.31,0.25   c0.49-0.0898,1.12-0.1597,1.87-0.1899c0.54-0.02,1.64,0.02,2.04-0.0898c0.1299-0.0303,0.3-0.04,0.47-0.0303   c2.32,0.1504,4.01-0.8599,4.53-0.9497c-0.5-0.27-1.54-0.77-1.92-0.8804c-0.45-0.1299-0.62-0.6997,0.31-0.5596   c0.94,0.1299,2.33,1.0596,2.33,1.0596l0.05-0.0098c0.05-0.02,0.18-0.0098,0.27,0.02l1.02,0.5103L92.2872,76.3879z" fill="#E1E9F4"/><polygon fill="#FDFEFF" points="120.4058,58.416 82.023,80.4263 72.838,75.1232 111.2213,53.113 110.6699,52.7947 72.2867,74.805    43.6391,58.2654 82.0235,36.2542 81.4722,35.936 43.0877,57.9472 33.9078,52.6469 72.2926,30.6357 71.7412,30.3175 4.0423,69.3655    4.5936,69.6842 33.4735,52.8994 42.6534,58.1992 13.7734,74.984 14.3247,75.3027 43.2048,58.5174 52.4692,63.8665 23.5889,80.6513    23.9813,80.878 52.8616,64.0932 62.2055,69.4877 33.3249,86.273 33.7125,86.4965 62.5929,69.7112 71.8524,75.0575 42.9717,91.8428    43.523,92.161 72.4038,75.3757 81.5887,80.6787 52.7077,97.4641 53.2591,97.7823 120.9572,58.7342  "/><g><g><path d="M75.5729,52.9179c0.1494-0.0593,0.3135,0.0078,0.338,0.0354c0.0315,0.0353,0.1442,0.0306,0.1523,0.0349     c0.0011,0.0004,0.0216,0.0076,0.036-0.0094c0.0218-0.0256,0.0269-0.1074-0.0854-0.3567c-0.1874-0.4138-0.3474-0.9234-0.39-1.1042     c-0.0222-0.0919-0.0004-0.1496,0.0283-0.1833c0.0274-0.0324,0.0614-0.0426,0.0695-0.0401     c0.0168,0.0053,0.4063,0.8342,0.45,0.9166c0.0202,0.0389,0.0359,0.0367,0.0471,0.0238c0.0123-0.0144,0.0184-0.0412,0.0187-0.0425     c-0.0168-0.0516-0.335-1.0315-0.3326-1.275c0.0007-0.0918,0.0175-0.1397,0.038-0.1636c0.0335-0.0393,0.0749-0.0162,0.077-0.0152     c0.0193,0.0558,0.3855,1.1146,0.4315,1.1825c0.0239,0.0346,0.0366,0.0348,0.0433,0.0269     c0.0065-0.0075,0.0073-0.022,0.0074-0.0228c-0.0091-0.0422-0.1818-0.8469-0.2199-0.9743s-0.0523-0.1845,0.0647-0.3217     c0.1162-0.1365,0.3449,1.0935,0.3859,1.1926c0.0263,0.0635,0.0487,0.0628,0.0623,0.047     c0.0076-0.0088,0.0123-0.0225,0.0135-0.0324c0.0029-0.0285-0.0138-0.8483-0.0204-0.9691     c-0.0033-0.0701,0.0138-0.1227,0.0394-0.1528c0.0185-0.0219,0.0415-0.0316,0.0646-0.0279c0.055,0.009,0.123,1.0642,0.1277,1.0925     c0.0049,0.0292,0.1425,0.7409,0.1087,0.9778c-0.0341,0.236,0.7895,0.3775,0.7951,0.4047l-0.6191,0.7267     c-0.4752,0.1194-0.8242-0.2663-1.0151-0.3066c-0.1912-0.0412-0.2909-0.1992-0.2961-0.2075     c-0.0107-0.013-0.252-0.2254-0.3399-0.2394c-0.088-0.0142-0.1593-0.0441-0.163-0.0457     C75.5086,53.0143,75.5229,52.9376,75.5729,52.9179z" fill="#ECB4BF"/><g><g><path d="M77.5427,52.9328c0,0-0.0828,0.1032,3.1412,0.3783c2.3318,0.199,4.065,0.0573,4.8457-0.0362       c0.354-0.0425,0.7046,0.0963,0.9269,0.3752c0.295,0.3698,0.5289,0.9349-0.0046,1.5458       c-0.9275,1.0618-9.5503-1.1276-9.8164-1.3226C76.6377,53.2785,76.9024,53.0176,77.5427,52.9328z" fill="#3887E5"/></g></g></g><g><g><g enable-background="new    "><g enable-background="new    "><defs><path d="M73.7686,56.9211l1.5301-0.8892         c-0.1463,0.2024-0.2995,0.3771-0.4736,0.5402l-1.5301,0.8892C73.4691,57.2982,73.6223,57.1235,73.7686,56.9211z" enable-background="new    " id="SVGID_1_"/></defs><use fill="#9EB5DF" overflow="visible" xlink:href="#SVGID_1_"/><clipPath id="SVGID_2_"><use overflow="visible" xlink:href="#SVGID_1_"/></clipPath><g clip-path="url(#SVGID_2_)" enable-background="new    "><path d="M73.7686,56.9211l1.5301-0.8892c-0.1463,0.2024-0.2996,0.3771-0.4736,0.5402l-1.5301,0.8892         C73.4691,57.2982,73.6223,57.1235,73.7686,56.9211" fill="#9EB5DF"/></g></g><g enable-background="new    "><defs><path d="M63.4376,40.3873l1.5301-0.8892         c0.2223-0.0711,0.4585-0.1183,0.7015-0.1372L64.1391,40.25C63.8961,40.269,63.66,40.3161,63.4376,40.3873z" enable-background="new    " id="SVGID_3_"/></defs><use fill="#9EB5DF" overflow="visible" xlink:href="#SVGID_3_"/><clipPath id="SVGID_4_"><use overflow="visible" xlink:href="#SVGID_3_"/></clipPath><g clip-path="url(#SVGID_4_)" enable-background="new    "><path d="M63.4376,40.3873l1.5301-0.8892c0.1111-0.0355,0.2257-0.0651,0.3428-0.0882l-1.5301,0.8892         C63.6633,40.3222,63.5487,40.3517,63.4376,40.3873" fill="#9EB5DF"/><path d="M63.7804,40.2991l1.5301-0.8892c0.106-0.0209,0.2141-0.0364,0.3238-0.0462l-1.5301,0.8892         C63.9946,40.2627,63.8865,40.2783,63.7804,40.2991" fill="#9EB5DF"/><path d="M64.1042,40.253l1.5301-0.8892c0.0116-0.001,0.0233-0.002,0.035-0.0029L64.1391,40.25         C64.1275,40.2509,64.1158,40.2519,64.1042,40.253" fill="#9EB5DF"/></g></g><g enable-background="new    "><defs><path d="M74.678,54.4549l1.5301-0.8892         c-0.0425,0.2944-0.0988,0.5808-0.169,0.8514l-1.5301,0.8892C74.5792,55.0357,74.6356,54.7493,74.678,54.4549z" enable-background="new    " id="SVGID_5_"/></defs><use fill="#9EB5DF" overflow="visible" xlink:href="#SVGID_5_"/><clipPath id="SVGID_6_"><use overflow="visible" xlink:href="#SVGID_5_"/></clipPath><g clip-path="url(#SVGID_6_)" enable-background="new    "><path d="M74.678,54.4549l1.5301-0.8892c-0.0117,0.0809-0.0244,0.1613-0.0382,0.2409l-1.5301,0.8892         C74.6536,54.6162,74.6664,54.5359,74.678,54.4549" fill="#9EB5DF"/><path d="M74.6399,54.6958l1.5301-0.8892c-0.0239,0.138-0.0509,0.2738-0.0811,0.4063l-1.5301,0.8892         C74.5889,54.9695,74.616,54.8338,74.6399,54.6958" fill="#9EB5DF"/><path d="M74.5587,55.1021l1.5301-0.8892c-0.0157,0.069-0.0323,0.1371-0.0497,0.2043l-1.5301,0.8892         C74.5265,55.2392,74.543,55.1711,74.5587,55.1021" fill="#9EB5DF"/></g></g><g enable-background="new    "><defs><path d="M65.9157,40.4301l1.5301-0.8892         c0.2705,0.0683,0.5479,0.1649,0.8322,0.2892l-1.5301,0.8892C66.4636,40.595,66.1862,40.4985,65.9157,40.4301z" enable-background="new    " id="SVGID_7_"/></defs><use fill="#9EB5DF" overflow="visible" xlink:href="#SVGID_7_"/><clipPath id="SVGID_8_"><use overflow="visible" xlink:href="#SVGID_7_"/></clipPath><g clip-path="url(#SVGID_8_)" enable-background="new    "><path d="M65.9157,40.4301l1.5301-0.8892c0.0698,0.0176,0.14,0.0371,0.2106,0.0585l-1.5301,0.8892         C66.0557,40.4672,65.9855,40.4478,65.9157,40.4301" fill="#9EB5DF"/><path d="M66.1263,40.4886l1.5301-0.8892c0.0732,0.0221,0.1468,0.0462,0.221,0.0724l-1.5301,0.8892         C66.2732,40.5349,66.1995,40.5107,66.1263,40.4886" fill="#9EB5DF"/><path d="M66.3473,40.561l1.5301-0.8892c0.0741,0.0261,0.1486,0.0542,0.2236,0.0842l-1.5301,0.8892         C66.4959,40.6151,66.4214,40.5871,66.3473,40.561" fill="#9EB5DF"/><path d="M66.571,40.6452l1.5301-0.8892c0.0587,0.0235,0.1177,0.0482,0.1769,0.0741l-1.5301,0.8892         C66.6886,40.6934,66.6297,40.6687,66.571,40.6452" fill="#9EB5DF"/></g></g><g enable-background="new    "><defs><path d="M74.5207,51.1971l1.5301-0.8892         c0.0684,0.3506,0.123,0.7011,0.1636,1.0439l-1.5301,0.8892C74.6436,51.8982,74.5891,51.5478,74.5207,51.1971z" enable-background="new    " id="SVGID_9_"/></defs><use fill="#9EB5DF" overflow="visible" xlink:href="#SVGID_9_"/><clipPath id="SVGID_10_"><use overflow="visible" xlink:href="#SVGID_9_"/></clipPath><g clip-path="url(#SVGID_10_)" enable-background="new    "><path d="M74.5207,51.1971l1.5301-0.8892c0.0063,0.0325,0.0126,0.065,0.0187,0.0974l-1.5301,0.8892         C74.5332,51.2621,74.527,51.2296,74.5207,51.1971" fill="#9EB5DF"/><path d="M74.5393,51.2946l1.5301-0.8892c0.0259,0.1381,0.0497,0.276,0.0714,0.4134l-1.5301,0.8892         C74.5891,51.5706,74.5653,51.4327,74.5393,51.2946" fill="#9EB5DF"/><path d="M74.6107,51.708l1.5301-0.8892c0.0223,0.1414,0.0423,0.2822,0.06,0.4219l-1.5301,0.8892         C74.653,51.9902,74.633,51.8494,74.6107,51.708" fill="#9EB5DF"/><path d="M74.6707,52.1298l1.5301-0.8892c0.0047,0.0372,0.0093,0.0743,0.0137,0.1113l-1.5301,0.8892         C74.6799,52.2041,74.6754,52.167,74.6707,52.1298" fill="#9EB5DF"/></g></g><g enable-background="new    "><defs><path d="M68.6676,41.8277l1.5301-0.8892         c0.284,0.2038,0.5611,0.4274,0.8311,0.6711l-1.5301,0.8892C69.2287,42.255,68.9516,42.0315,68.6676,41.8277z" enable-background="new    " id="SVGID_11_"/></defs><use fill="#9EB5DF" overflow="visible" xlink:href="#SVGID_11_"/><clipPath id="SVGID_12_"><use overflow="visible" xlink:href="#SVGID_11_"/></clipPath><g clip-path="url(#SVGID_12_)" enable-background="new    "><path d="M68.6676,41.8277l1.5301-0.8892c0.0297,0.0213,0.0593,0.0428,0.0889,0.0646l-1.5301,0.8892         C68.7269,41.8705,68.6973,41.849,68.6676,41.8277" fill="#9EB5DF"/><path d="M68.7565,41.8922l1.5301-0.8892c0.0831,0.0612,0.1657,0.1241,0.2476,0.1887l-1.5301,0.8892         C68.9222,42.0163,68.8396,41.9534,68.7565,41.8922" fill="#9EB5DF"/><path d="M69.0041,42.0809l1.5301-0.8892c0.0825,0.0651,0.1644,0.1319,0.2456,0.2005l-1.5301,0.8892         C69.1685,42.2128,69.0866,42.146,69.0041,42.0809" fill="#9EB5DF"/><path d="M69.2497,42.2814l1.5301-0.8892c0.0813,0.0686,0.162,0.139,0.2421,0.2112l-1.5301,0.8892         C69.4118,42.4204,69.3311,42.35,69.2497,42.2814" fill="#9EB5DF"/><polyline fill="#9EB5DF" points="69.4919,42.4926 71.0219,41.6034 71.0288,41.6096 69.4987,42.4988 69.4919,42.4926                 "/></g></g><g enable-background="new    "><defs><path d="M73.3229,47.6498l1.5301-0.8892         c0.1725,0.3631,0.3242,0.7216,0.469,1.0848l-1.5301,0.8892C73.6471,48.3715,73.4954,48.013,73.3229,47.6498z" enable-background="new    " id="SVGID_13_"/></defs><use fill="#9EB5DF" overflow="visible" xlink:href="#SVGID_13_"/><clipPath id="SVGID_14_"><use overflow="visible" xlink:href="#SVGID_13_"/></clipPath><g clip-path="url(#SVGID_14_)" enable-background="new    "><path d="M73.3229,47.6498l1.5301-0.8892c0.0109,0.0229,0.0217,0.0458,0.0324,0.0687l-1.5301,0.8892         C73.3446,47.6957,73.3338,47.6728,73.3229,47.6498" fill="#9EB5DF"/><path d="M73.3553,47.7186l1.5301-0.8892c0.0499,0.1064,0.098,0.2124,0.1448,0.3183l-1.5301,0.8892         C73.4533,47.931,73.4052,47.8249,73.3553,47.7186" fill="#9EB5DF"/><path d="M73.5001,48.0369l1.5301-0.8892c0.0554,0.1253,0.1088,0.2505,0.1609,0.3759l-1.5301,0.8892         C73.6089,48.2874,73.5554,48.1622,73.5001,48.0369" fill="#9EB5DF"/><path d="M73.661,48.4128l1.5301-0.8892c0.0445,0.107,0.088,0.2142,0.1309,0.3218l-1.5301,0.8892         C73.7489,48.627,73.7054,48.5198,73.661,48.4128" fill="#9EB5DF"/></g></g><g enable-background="new    "><defs><path d="M71.2705,44.3673l1.5301-0.8892         c0.2421,0.299,0.4772,0.6183,0.6984,0.9455l-1.5301,0.8892C71.7477,44.9856,71.5126,44.6664,71.2705,44.3673z" enable-background="new    " id="SVGID_15_"/></defs><use fill="#9EB5DF" overflow="visible" xlink:href="#SVGID_15_"/><clipPath id="SVGID_16_"><use overflow="visible" xlink:href="#SVGID_15_"/></clipPath><g clip-path="url(#SVGID_16_)" enable-background="new    "><path d="M71.2705,44.3673l1.5301-0.8892c0.0346,0.0427,0.0691,0.0859,0.1034,0.1294l-1.5301,0.8892         C71.3396,44.4532,71.3051,44.4101,71.2705,44.3673" fill="#9EB5DF"/><path d="M71.3739,44.4968l1.5301-0.8892c0.0801,0.1017,0.1594,0.2055,0.2375,0.3109l-1.5301,0.8892         C71.5333,44.7023,71.454,44.5985,71.3739,44.4968" fill="#9EB5DF"/><path d="M71.6114,44.8076l1.5301-0.8892c0.1155,0.1558,0.2284,0.3151,0.3381,0.4764l-1.5301,0.8892         C71.8398,45.1227,71.7269,44.9634,71.6114,44.8076" fill="#9EB5DF"/><path d="M71.9494,45.2841l1.5301-0.8892c0.0065,0.0096,0.013,0.0192,0.0195,0.0288l-1.5301,0.8892         C71.9624,45.3032,71.9559,45.2936,71.9494,45.2841" fill="#9EB5DF"/></g></g><g><polygon fill="#9EB5DF" points="71.5127,43.8269 73.0432,42.937 72.8044,43.4798 71.2739,44.3697       "/><polygon fill="#9EB5DF" points="62.3838,46.53 60.8534,47.4204 60.2564,47.3658 61.7868,46.4759       "/><polygon fill="#9EB5DF" points="63.122,50.3292 63.5779,50.0795 62.0473,50.9694 61.5915,51.2196       "/><polygon fill="#9EB5DF" points="65.8682,56.1148 67.3987,55.2244 67.16,55.7783 65.6294,56.6681       "/><polygon fill="#9EB5DF" points="64.5114,38.7038 64.9673,39.4962 63.4368,40.3861 62.9808,39.5937 61.624,40.3755         63.1437,39.485       "/><polygon fill="#9EB5DF" points="67.2033,38.7144 67.4422,39.5396 65.9116,40.4295 65.6729,39.6048       "/><rect fill="#9EB5DF" height="1.7704" transform="matrix(-0.5037 -0.8639 0.8639 -0.5037 62.1164 150.4969)" width="0.905" x="73.8336" y="56.5213"/><polygon fill="#9EB5DF" points="68.6688,41.092 70.1993,40.2016 70.1993,40.9399 68.6688,41.8298       "/><polygon fill="#9EB5DF" points="60.6905,44.164 60.0501,43.7946 61.5806,42.9047 62.2211,43.2736       "/><polygon fill="#9EB5DF" points="61.6023,41.6994 61.0161,41.0703 62.5467,40.1799 63.1328,40.8095       "/><polygon fill="#9EB5DF" points="74.6823,52.2393 76.2128,51.3494 76.8532,51.7189 75.3227,52.6088       "/><polygon fill="#9EB5DF" points="76.0391,54.4214 76.6361,55.0511 75.1056,55.941 74.5086,55.3113       "/><polygon fill="#9EB5DF" points="74.3783,48.7879 73.7922,48.7338 75.3227,47.8434 75.9089,47.8974       "/></g><g><polygon fill="#9EB5DF" points="71.9689,45.3128 73.499,44.4236 73.9579,44.1623 72.4278,45.0515       "/></g></g><g><polygon fill="#B6CBEA" points="68.6221,57.8977 70.1521,57.0085 70.15,57.7495 68.6199,58.6387      "/></g><g><polygon fill="#B6CBEA" points="71.2308,58.367 72.7609,57.4778 73.0015,58.3027 71.4714,59.1918      "/></g><g><polygon fill="#B6CBEA" points="75.1042,55.9374 76.6343,55.0482 75.887,56.6584 74.3569,57.5476      "/></g><g><polygon fill="#B6CBEA" points="63.8985,39.4252 65.4286,38.536 67.2052,38.7161 65.6751,39.6053      "/></g><g><polygon fill="#B6CBEA" points="75.3219,52.6092 76.852,51.72 76.8457,53.9338 75.3156,54.823      "/></g><g><polygon fill="#B6CBEA" points="66.75,39.9784 68.2801,39.0892 70.1998,40.1975 68.6697,41.0867      "/></g><g><polygon fill="#B6CBEA" points="74.3817,48.7878 75.9118,47.8986 76.6476,50.3656 75.1175,51.2548      "/></g><g><polygon fill="#B6CBEA" points="69.7432,41.954 71.2733,41.0648 73.0451,42.9334 71.515,43.8226      "/></g><g><polygon fill="#B6CBEA" points="72.4278,45.0515 73.9579,44.1623 75.3118,46.5071 73.7818,47.3963      "/></g><g><path d="M68.6697,41.0867l-0.0021,0.741c0.284,0.2038,0.5611,0.4274,0.8311,0.6711l0.2445-0.5448l1.7718,1.8685       l-0.2445,0.5448c0.2421,0.299,0.4772,0.6183,0.6984,0.9455l0.4589-0.2613l1.3539,2.3448l-0.4589,0.2535       c0.1725,0.3632,0.3242,0.7216,0.469,1.0848l0.5899,0.0532l0.7358,2.467l-0.5968-0.0577       c0.0684,0.3507,0.123,0.7011,0.1636,1.0439l0.6376,0.3681l-0.0063,2.2138l-0.6376-0.3681       c-0.0425,0.2944-0.0988,0.5808-0.169,0.8515l0.5952,0.631l-0.7473,1.6103l-0.5883-0.6266       c-0.1463,0.2024-0.2996,0.3771-0.4736,0.5402l0.4559,0.7817l-1.3628,0.7763l-0.4559-0.7817       c-0.2223,0.0634-0.4585,0.1105-0.7015,0.1295l0.2406,0.8248l-1.7766-0.1801l-0.2406-0.8248       c-0.2705-0.0683-0.5479-0.1649-0.8322-0.2892l-0.0021,0.741l-1.9197-1.1083l0.0021-0.741       c-0.284-0.2038-0.5611-0.4274-0.8311-0.6711l-0.2445,0.5448l-1.7718-1.8685l0.2445-0.5448       c-0.2421-0.299-0.4772-0.6183-0.6985-0.9377l-0.4589,0.2535l-1.3539-2.3448l0.4589-0.2535       c-0.1725-0.3632-0.3242-0.7139-0.469-1.0843l-0.5899-0.0537l-0.7288-2.4625l0.5899,0.0532       c-0.0684-0.3507-0.123-0.7011-0.1636-1.0435l-0.6376-0.3681l0.0063-2.2138l0.6376,0.3681       c0.0425-0.2948,0.0988-0.5813,0.169-0.8519l-0.5883-0.6266l0.7404-1.6147l0.5883,0.627       c0.1463-0.1951,0.2996-0.3775,0.4736-0.5406l-0.4559-0.7817l1.3628-0.7763l0.4559,0.7895       c0.2223-0.0711,0.4585-0.1183,0.7015-0.1372l-0.2406-0.8248l1.7766,0.1801l0.2406,0.8248       c0.2705,0.0683,0.5479,0.1649,0.8322,0.2892l0.0021-0.741L68.6697,41.0867z" fill="#83A1CC"/></g></g><g><path d="M67.7005,42.5908c3.2296,1.8646,5.8407,6.3794,5.8302,10.0902      c-0.0105,3.7113-2.6387,5.2089-5.8683,3.3443c-3.2226-1.8606-5.8338-6.3831-5.8232-10.0944      C61.8497,42.22,64.4779,40.7302,67.7005,42.5908z" fill="#DEE7F8"/></g><g><path d="M63.3139,42.3435c-0.5184,0.7023-0.8231,1.6918-0.8266,2.9395      c-0.0105,3.7112,2.6006,8.2338,5.8232,10.0942c1.7483,1.0097,3.3159,1.0266,4.3919,0.2475      c-1.0244,1.3876-2.8971,1.6377-5.0399,0.4007c-3.2226-1.8604-5.8338-6.383-5.8233-10.0947      C61.844,44.2293,62.4035,43.0023,63.3139,42.3435z" fill="#B6CBEA"/></g></g><g><g><g><g><g><g><g><path d="M36.1156,54.3009c-0.065-0.2202-0.152-0.8476-0.152-0.8476           c-0.5971-0.389,0.3076-2.4522-0.4567-2.8184c-0.7642-0.3663-1.0637,0.8934-1.0341,1.1956           c0.0296,0.3021-0.3757,0.8668-0.3757,0.8668l0.2425,0.1537c0,0,0.2651-0.5544,0.3636-0.6903           c0.0986-0.1359,0.4383-0.2109,0.174,0.5014s-0.1955,0.6269,0.3249,1.3536c0.3882,0.5418,0.7209,0.4723,0.8648,0.4021           C36.1106,54.3964,36.1292,54.3475,36.1156,54.3009z" fill="#4C4A8B"/><path d="M35.5069,50.6349c0,0,0.7219-0.7429,0.9483-1.3547c0.2265-0.6119,0.9338-3.1273,2.5198-4.1366           l0.9302,1.3175c0,0-0.5698,1.8549-1.8244,3.0994c-1.2547,1.2446-1.4498,1.3421-1.6901,2.0711s-0.4837,1.3831-0.4272,1.8218           c0,0-0.8791-0.0425-0.7985-0.9233c0.0805-0.8807,0.0218-0.478-0.0668-1.0378           C35.0097,50.9325,35.5069,50.6349,35.5069,50.6349z" fill="#ECB4BF"/></g><g><path d="M44.2837,54.0286c-0.1727-0.1514-0.5822-0.6345-0.5822-0.6345           c-0.7125-0.0091-1.0532-2.2359-1.8948-2.1363c-0.8416,0.0997-0.4201,1.3242-0.2333,1.5635s0.1467,0.9332,0.1467,0.9332           h0.2872c0,0-0.0729-0.6102-0.0625-0.7778c0.0105-0.1674,0.2572-0.4126,0.4155,0.3305           c0.1582,0.7431,0.1706,0.6342,0.9992,0.9692c0.618,0.2498,0.8617,0.0132,0.9458-0.1234           C44.3307,54.1118,44.3203,54.0606,44.2837,54.0286z" fill="#4C4A8B"/><path d="M41.8068,51.2579c0,0,0.212-1.0139,0.0756-1.652s-0.8857-3.1414-0.0865-4.843l1.4911,0.6148           c0,0,0.5119,1.8718,0.1185,3.5946c-0.3934,1.7229-0.506,1.9098-0.3186,2.6542s0.332,1.4271,0.6146,1.7675           c0,0-0.7653,0.4347-1.1688-0.3524c-0.4035-0.7869-0.2375-0.4154-0.612-0.8408           C41.5462,51.7755,41.8068,51.2579,41.8068,51.2579z" fill="#ECB4BF"/></g><g><path d="M43.5482,39.8369c0,0,0.1064,0.9277-0.0228,3.1887c-0.1292,2.261,0.1938,2.2917-0.5814,3.0669           s-4.3212,0.8404-5.2256-0.064c0,0,0.534-0.7286,0.1948-4.9631c-0.086-1.0731,0.7989-1.7364,0.7989-1.7364L43.5482,39.8369z           " fill="#4C4A8B"/></g></g><g><g><g><path d="M44.2326,32.6553c-0.0858-0.0989-0.1475-0.2171-0.1475-0.3482            c-0.0001-0.176-0.0319-0.4833-0.1856-0.9391c-0.1691-0.5007-0.8341-0.5247-1.2193-0.5749            c-0.9333-0.1222-1.8908-0.1527-1.8908-0.1527s-0.3123,0.4556-0.4646,0.6544c-0.2874,0.3752-0.6679,0.6628-1.0846,0.8855            c-0.4877,0.261-1.0365,0.9081,0.0606,2.4414c0,0,1.1581,1.7241-0.0668,3.416c-0.7339,1.0127-0.9593,1.2913-1.2348,2.3122            c0,0,1.4281,1.6543,5.5489-0.5129c0,0-0.0524-3.9783,0.3876-4.9904C43.9357,34.8465,45.1496,33.7121,44.2326,32.6553z" fill="#6B9EF9"/><path d="M41.9834,32.0152c0,0-0.805-0.7069-0.9951-0.9328c-0.3951-0.4694-0.3119-1.2594-0.3119-1.2594            s1.4674-0.1099,1.3248,0.5256c-0.0178,0.0773,0.1218,0.2051,0.2079,0.2051            C42.4112,31.1329,42.0488,31.136,41.9834,32.0152z" fill="#E0A4B2"/></g></g></g><g><path d="M42.2442,27.6174c-0.936-0.3419-2.2653,2.3716-2.2653,2.3716l0.3163,0.4819l0.5878,0.4603          c0.4559,0.357,1.1138,0.3883,1.558,0.0167c0.1658-0.1386,0.3005-0.3304,0.3555-0.5953          C42.9945,29.3985,43.1802,27.9595,42.2442,27.6174z" fill="#ECB4BF"/></g></g></g></g></g></g><g><path d="M89.1982,74.9179c0.3566,0.1008,1.2977,0.1276,1.8508-0.0381c0.9031,0.7119,1.1179,0.2047,1.2024,0.3543     c0.0628,0.117,0.0154,0.7013,0.0583,1.0526c0.0075,0.0778-0.0157,0.1299-0.0947,0.1104l-0.7786-0.0717     c-0.0789-0.0193-0.1625-0.1038-0.1806-0.1819l-0.0137-0.0585c0,0-1.4133-0.0587-2.092-0.5528     C88.4672,75.0349,88.8038,74.8072,89.1982,74.9179z" fill="#2A2A5E"/><path d="M79.9,73.4571c0.3697,0.1006,1.4922,0.2225,2.0238,0.0571c0.9957,0.7107,1.1445,0.2042,1.2485,0.3536     c0.078,0.117,0.0172,0.9558,0.0172,0.9558c-0.0122,0.0874,0.0011,0.1297-0.0804,0.1102l-0.7879-0.0714     c-0.0814-0.0193-0.176-0.1036-0.2043-0.1816l-0.0213-0.0583c0,0-1.421-0.0587-2.1639-0.5521     C79.1842,73.5739,79.4913,73.3467,79.9,73.4571z" fill="#2A2A5E"/><path d="M88.0421,62.9789c0.2573,0.2763,1.6568,0.8106,1.6568,3.2807c0,0.8233,0.0854,1.9452,0.3244,2.6893     c0.1946,0.613,0.4778,1.226,0.7986,1.8357c0.9804,1.8745,1.4318,4.5497,1.4318,4.5497c-0.4955,0.11-0.9557,0.0569-1.3391-0.3329     c-0.1667-0.542-0.9072-2.2886-2.4773-3.9808c-0.1104-0.119-0.1987-0.2781-0.242-0.4582     c-0.1318-0.5483-0.8033-1.3852-1.0946-1.8681c-1.5989-2.6502-1.4521-4.8436-1.4521-4.8436L88.0421,62.9789z" fill="#3A3A77"/><path d="M80.7757,67.9601c0.3813-1.3221,1.8337-5.7395,5.3747-4.6202c0,0,1.7328,2.7426-0.3885,3.6973     c-1.5608,0.7025-2.623,1.7676-2.9623,2.2055c-0.1162,0.1501-0.1413,0.3529-0.0542,0.5216     c0.465,0.901,0.0389,1.7004,0.4361,4.1869c-0.5973,0.1273-0.8168,0.0266-1.3429-0.3785l-1.1077-4.794     C80.6862,68.4975,80.7008,68.2195,80.7757,67.9601z" fill="#4C4A8B"/><g><g><g><g><g><g><g><g><g><path d="M84.1998,49.6502c0,0,3.0139,0.8939,3.0242,1.0655c-0.0024,0.0617,0.1197,3.1742,0.0645,3.8802              c-0.0811,1.1507-3.1075,0.5842-2.6737-0.1894c0.2801-0.5081,0.5972-0.8648,0.3157-1.1461              c-0.184-0.1838-0.2999-0.0255-0.5192-0.1969C83.3783,52.2404,84.1998,49.6502,84.1998,49.6502z" fill="#ECB4BF"/></g><path d="M83.7103,55.0658c0.35-0.2622,0.7145-0.5684,1.0062-0.9187             c0.1895-0.2476,0.5104-0.3503,0.8311-0.3212c0.6708,0.0585,1.6041,0.0442,1.7499-0.6123c0,0,1.8368-0.1163,1.6387,1.9868             c-0.0699,0.7425-0.1577,1.4783-0.1886,2.2234c-0.0509,1.2274-0.1951,3.5892-0.1517,5.9885             c0,0-2.8341,2.3966-5.9275,0.8611c0.2445,0.0007,0.867-5.7064-0.0082-6.5832             C82.1111,57.14,82.4562,56.0134,83.7103,55.0658z" fill="#6B9EF9"/></g></g></g></g></g></g></g></g></g><g><path d="M42.1996,34.1132c-0.7491,1.4151-1.8173,1.0413-2.5278,0.546v0.6981     c1.9406,1.1019,2.4553-0.7887,2.4553-0.7887c1.0299,1.1807,1.8087,0.278,1.8087,0.278     C43.0565,35.4381,42.1996,34.1132,42.1996,34.1132z" fill="#3887E5"/></g><g><g><path d="M49.4549,37.9401l-0.3062,0.2847c0.0081,0.0045,0.173,0.0769,0.202,0.1386      c0.0252,0.0642-0.1084,0.1784,0.2082,0.4807c0.2152,0.2053,0.3569,0.3107,0.4216,0.3555l0.0876-0.0113l0.0227-0.0653      c0.0146-0.0698-0.0191-0.1753-0.2128-0.2956l0.003-0.0533c0.0513-0.0313,0.1707-0.048,0.401,0.097      c0.3589,0.2111,0.6308,0.2417,0.6428,0.2437l0.0432-0.0403c0.0034-0.0348-0.0298-0.0988-0.2192-0.1984      c0.0145,0.0038,0.3158,0.1316,0.3834,0.0904c0.0071-0.0043,0.0117-0.0104,0.013-0.0188c0.0038-0.0162-0.0047-0.0392-0.0373-0.08      c-0.0012-0.0011-0.0245-0.0226-0.1608-0.0656c0.0711,0.0188,0.1803,0.044,0.2117,0.0249      c0.0039-0.0024,0.0068-0.0054,0.0079-0.0094c-0.0041-0.016-0.0126-0.039-0.0611-0.0748      c-0.1661-0.1371-0.2508-0.1791-0.2869-0.1898c0.0582,0.0046,0.1839,0.0127,0.2233-0.0113      c0.0066-0.004,0.0107-0.009,0.0117-0.015c-0.0004-0.0185-0.0207-0.0434-0.0692-0.0838      c-0.1941-0.1388-0.6813-0.3656-1.1403-0.3663c-0.1277-0.0016-0.2439-0.0335-0.3248-0.0917L49.4549,37.9401z" fill="#ECB4BF"/></g><g><path d="M45.9624,36.6718c-0.3564-0.0867-0.6177-0.378-0.6672-0.7504c-0.1693-1.2751-0.938-4.9707-1.9077-5.0031      c0.0567,0.0188,0.1115,0.0409,0.1634,0.0672c0.0059,0.0031,0.0107,0.0073,0.0166,0.0103      c0.0456,0.0244,0.0895,0.051,0.129,0.0829c0.0168,0.0134,0.0294,0.0315,0.0448,0.0465      c0.0257,0.0254,0.0531,0.0489,0.0745,0.0787c0.0345,0.0482,0.0631,0.1024,0.0839,0.164      c0.1537,0.4558,0.1855,0.7631,0.1856,0.9391c0.0001,0.1311,0.0617,0.2493,0.1475,0.3482      c0.9075,1.046-0.2703,2.1661-0.2947,2.1891c-0.0009,0.0012-0.0018,0.0023-0.0027,0.0035      c-0.1444,0.3334-0.235,0.9873-0.2925,1.7135c0.0536,0.1515,0.2496,0.6179,0.293,0.7302      c0.1055,0.2728,0.3359,0.4683,0.6172,0.5345l4.6967,0.7819c0.6452-0.2293,0.6557-0.7218,0.6557-0.7218L45.9624,36.6718z" fill="#3887E5"/></g></g><g><path d="M73.6294,54.2358c0.0434,0.0757,0.3492,0.5512,0.3618,0.5622c0.0045,0.0036,0.0125,0.0035,0.0203-0.0034     c0.0139-0.0122,0.0271-0.0468,0.0179-0.1226c-0.0144-0.1182-0.3554-1.1483-0.2357-1.2545     c0.1204-0.1069,0.1342-0.0537,0.1612,0.0755c0.027,0.1292,0.2367,0.8392,0.2478,0.8765c0.0003,0.0004,0.0063,0.007,0.0129,0.0011     c0.0068-0.006,0.0139-0.0259,0.0141-0.0815c0.0012-0.1099-0.1945-1.2604-0.2048-1.321c0.0007-0.004,0.0156-0.0809,0.05-0.1114     c0.0211-0.0188,0.0492-0.0187,0.0853,0.0302c0.095,0.1299,0.2881,1.1625,0.2983,1.2169     c0.0007,0.0003,0.0143,0.0054,0.0269-0.0058c0.0113-0.0099,0.0212-0.0334,0.0183-0.0864     c-0.0064-0.1132-0.1001-1.1742-0.0925-1.2031c0.0038-0.0143,0.0274-0.0613,0.0557-0.0865     c0.0296-0.0262,0.0643-0.0285,0.0868,0.0566c0.0449,0.1654,0.1486,0.6936,0.1994,1.2124     c0.0305,0.3122,0.065,0.3489,0.0876,0.3288c0.0149-0.0133,0.0242-0.0493,0.0247-0.0511c0.003-0.0148,0.0611-0.2961,0.0657-0.3646     c0.0036-0.0534,0.0993-0.3683,0.2249-0.4797c0.0359-0.0319,0.0744-0.0473,0.1138-0.0352     c-0.0016,0.0069-0.0313,0.1345-0.0767,0.2789c-0.0455,0.1448-0.0691,0.5948-0.0703,0.6185     c0.0002,0.0127,0.0033,0.2545-0.0914,0.5749c-0.0948,0.3194-0.0688,0.6004,0.0207,0.9217l-0.484,0.2667     c-0.001-0.0033-0.0136-0.0089-0.0346-0.0162c-0.3959-0.1364-0.6657-0.5007-0.6847-0.919c-0.0005-0.0104-0.001-0.017-0.0017-0.019     c-0.0082-0.0226-0.3749-0.7071-0.3466-0.7976c0.0119-0.038,0.029-0.0684,0.048-0.0853     C73.5748,54.1894,73.6048,54.1917,73.6294,54.2358z" fill="#ECB4BF"/><path d="M75.093,55.1561c0,0-0.0828,0.1032,3.1412,0.3783c2.3317,0.199,4.065,0.0573,4.8457-0.0362     c0.354-0.0425,0.7046,0.0963,0.9269,0.3752c0.295,0.3698,0.5289,0.9349-0.0046,1.5458     c-0.9275,1.0618-9.5503-1.1276-9.8164-1.3226C74.188,55.5018,74.4527,55.2409,75.093,55.1561z" fill="#3887E5"/></g><path d="M85.0365,53.5658c1.6527,0.1567,2.2663-0.633,2.2663-0.633l0.2367,0.2911    c-0.7137,1.3352-2.823,0.9231-2.823,0.9231L85.0365,53.5658z" fill="#3887E5"/><path d="M86.0346,49.0906c-5.0797-0.0867-1.7961,2.4339-0.8766,2.9069c0.2037,0.1043,0.1599,0.3208,0.2553,0.8168    l0.1962,0.0086c-0.0099-0.2451,0.0048-0.8389,0.4071-0.6508c0.5014,0.2341,0.4382,1.4762,1.2841,1.1208    c0,0,0.3308-0.0889,0.3748-0.7048c0.0441-0.615,0.2678-1.1468,0.2518-1.4681C87.9114,50.799,88.0986,49.1262,86.0346,49.0906z" fill="#3A3A77"/><g><g><g><g enable-background="new    "><g enable-background="new    "><defs><path d="M57.4933,56.928l1.5301-0.8892          c-0.1463,0.2024-0.2995,0.3771-0.4736,0.5402l-1.5301,0.8892C57.1938,57.305,57.347,57.1304,57.4933,56.928z" enable-background="new    " id="SVGID_17_"/></defs><use fill="#9EB5DF" overflow="visible" xlink:href="#SVGID_17_"/><clipPath id="SVGID_18_"><use overflow="visible" xlink:href="#SVGID_17_"/></clipPath><g clip-path="url(#SVGID_18_)" enable-background="new    "><path d="M57.4933,56.928l1.5301-0.8892c-0.1463,0.2024-0.2996,0.3771-0.4736,0.5402l-1.5301,0.8892          C57.1938,57.305,57.347,57.1304,57.4933,56.928" fill="#9EB5DF"/></g></g><g enable-background="new    "><defs><path d="M47.1624,40.3941l1.5301-0.8892          c0.2223-0.0712,0.4585-0.1183,0.7015-0.1372l-1.5301,0.8892C47.6208,40.2759,47.3847,40.323,47.1624,40.3941z" enable-background="new    " id="SVGID_19_"/></defs><use fill="#9EB5DF" overflow="visible" xlink:href="#SVGID_19_"/><clipPath id="SVGID_20_"><use overflow="visible" xlink:href="#SVGID_19_"/></clipPath><g clip-path="url(#SVGID_20_)" enable-background="new    "><path d="M47.1624,40.3941l1.5301-0.8892c0.1111-0.0355,0.2257-0.0651,0.3428-0.0882l-1.5301,0.8892          C47.388,40.329,47.2735,40.3586,47.1624,40.3941" fill="#9EB5DF"/><path d="M47.5052,40.306l1.5301-0.8892c0.106-0.0209,0.2141-0.0364,0.3238-0.0462l-1.5301,0.8892          C47.7193,40.2696,47.6112,40.2851,47.5052,40.306" fill="#9EB5DF"/><path d="M47.8289,40.2598l1.5301-0.8892c0.0116-0.001,0.0233-0.002,0.0349-0.0029l-1.5301,0.8892          C47.8522,40.2578,47.8405,40.2588,47.8289,40.2598" fill="#9EB5DF"/></g></g><g enable-background="new    "><defs><path d="M58.4028,54.4618l1.5301-0.8892          c-0.0425,0.2944-0.0988,0.5808-0.169,0.8515l-1.5301,0.8892C58.3039,55.0426,58.3603,54.7562,58.4028,54.4618z" enable-background="new    " id="SVGID_21_"/></defs><use fill="#9EB5DF" overflow="visible" xlink:href="#SVGID_21_"/><clipPath id="SVGID_22_"><use overflow="visible" xlink:href="#SVGID_21_"/></clipPath><g clip-path="url(#SVGID_22_)" enable-background="new    "><path d="M58.4028,54.4618l1.5301-0.8892c-0.0117,0.0809-0.0244,0.1613-0.0382,0.2409l-1.5301,0.8892          C58.3783,54.6231,58.3911,54.5427,58.4028,54.4618" fill="#9EB5DF"/><path d="M58.3646,54.7026l1.5301-0.8892c-0.0239,0.138-0.0509,0.2738-0.0811,0.4063l-1.5301,0.8892          C58.3136,54.9764,58.3407,54.8407,58.3646,54.7026" fill="#9EB5DF"/><path d="M58.2834,55.109l1.5301-0.8892c-0.0157,0.069-0.0323,0.1371-0.0497,0.2043l-1.5301,0.8892          C58.2512,55.2461,58.2677,55.178,58.2834,55.109" fill="#9EB5DF"/></g></g><g enable-background="new    "><defs><path d="M49.6404,40.437l1.5301-0.8892          c0.2705,0.0683,0.5479,0.1649,0.8322,0.2892l-1.5301,0.8892C50.1884,40.6019,49.911,40.5054,49.6404,40.437z" enable-background="new    " id="SVGID_23_"/></defs><use fill="#9EB5DF" overflow="visible" xlink:href="#SVGID_23_"/><clipPath id="SVGID_24_"><use overflow="visible" xlink:href="#SVGID_23_"/></clipPath><g clip-path="url(#SVGID_24_)" enable-background="new    "><path d="M49.6404,40.437l1.5301-0.8892c0.0698,0.0176,0.14,0.0371,0.2106,0.0585l-1.5301,0.8892          C49.7804,40.4741,49.7102,40.4546,49.6404,40.437" fill="#9EB5DF"/><path d="M49.8511,40.4955l1.5301-0.8892c0.0732,0.0221,0.1468,0.0462,0.221,0.0724l-1.5301,0.8892          C49.9979,40.5417,49.9242,40.5176,49.8511,40.4955" fill="#9EB5DF"/><path d="M50.072,40.5679l1.5301-0.8892c0.0741,0.0261,0.1486,0.0542,0.2236,0.0842l-1.5301,0.8892          C50.2206,40.622,50.1461,40.5939,50.072,40.5679" fill="#9EB5DF"/><path d="M50.2957,40.6521l1.5301-0.8892c0.0587,0.0235,0.1177,0.0482,0.1769,0.0741l-1.5301,0.8892          C50.4133,40.7003,50.3544,40.6756,50.2957,40.6521" fill="#9EB5DF"/></g></g><g enable-background="new    "><defs><path d="M58.2454,51.204l1.5301-0.8892          c0.0684,0.3506,0.123,0.7011,0.1636,1.0439L58.409,52.248C58.3684,51.9051,58.3138,51.5547,58.2454,51.204z" enable-background="new    " id="SVGID_25_"/></defs><use fill="#9EB5DF" overflow="visible" xlink:href="#SVGID_25_"/><clipPath id="SVGID_26_"><use overflow="visible" xlink:href="#SVGID_25_"/></clipPath><g clip-path="url(#SVGID_26_)" enable-background="new    "><path d="M58.2454,51.204l1.5301-0.8892c0.0063,0.0325,0.0126,0.065,0.0187,0.0974l-1.5301,0.8892          C58.2579,51.269,58.2517,51.2365,58.2454,51.204" fill="#9EB5DF"/><path d="M58.264,51.3015l1.5301-0.8892c0.0259,0.1381,0.0497,0.276,0.0714,0.4134l-1.5301,0.8892          C58.3138,51.5775,58.29,51.4395,58.264,51.3015" fill="#9EB5DF"/><path d="M58.3354,51.7149l1.5301-0.8892c0.0223,0.1414,0.0423,0.2822,0.06,0.4219l-1.5301,0.8892          C58.3777,51.997,58.3577,51.8563,58.3354,51.7149" fill="#9EB5DF"/><path d="M58.3954,52.1367l1.5301-0.8892c0.0047,0.0372,0.0093,0.0743,0.0137,0.1113L58.409,52.248          C58.4046,52.211,58.4001,52.1739,58.3954,52.1367" fill="#9EB5DF"/></g></g><g enable-background="new    "><defs><path d="M52.3923,41.8345l1.5301-0.8892          c0.2841,0.2038,0.5611,0.4274,0.8311,0.6711l-1.5301,0.8892C52.9534,42.2619,52.6764,42.0383,52.3923,41.8345z" enable-background="new    " id="SVGID_27_"/></defs><use fill="#9EB5DF" overflow="visible" xlink:href="#SVGID_27_"/><clipPath id="SVGID_28_"><use overflow="visible" xlink:href="#SVGID_27_"/></clipPath><g clip-path="url(#SVGID_28_)" enable-background="new    "><path d="M52.3923,41.8345l1.5301-0.8892c0.0297,0.0213,0.0593,0.0428,0.0889,0.0646l-1.5301,0.8892          C52.4516,41.8774,52.422,41.8559,52.3923,41.8345" fill="#9EB5DF"/><path d="M52.4812,41.8991l1.5301-0.8892c0.0831,0.0612,0.1657,0.1241,0.2476,0.1887l-1.5301,0.8892          C52.6469,42.0232,52.5643,41.9603,52.4812,41.8991" fill="#9EB5DF"/><path d="M52.7288,42.0878l1.5301-0.8892c0.0825,0.0651,0.1644,0.1319,0.2456,0.2005l-1.5301,0.8892          C52.8932,42.2197,52.8113,42.1529,52.7288,42.0878" fill="#9EB5DF"/><path d="M52.9744,42.2883l1.5301-0.8892c0.0813,0.0686,0.162,0.139,0.2421,0.2112l-1.5301,0.8892          C53.1365,42.4273,53.0558,42.3569,52.9744,42.2883" fill="#9EB5DF"/><polyline fill="#9EB5DF" points="53.2166,42.4995 54.7466,41.6103 54.7535,41.6165 53.2234,42.5057 53.2166,42.4995                   "/></g></g><g enable-background="new    "><defs><path d="M57.0476,47.6567l1.5301-0.8892          c0.1725,0.3631,0.3242,0.7216,0.469,1.0848l-1.5301,0.8892C57.3718,48.3784,57.2201,48.0199,57.0476,47.6567z" enable-background="new    " id="SVGID_29_"/></defs><use fill="#9EB5DF" overflow="visible" xlink:href="#SVGID_29_"/><clipPath id="SVGID_30_"><use overflow="visible" xlink:href="#SVGID_29_"/></clipPath><g clip-path="url(#SVGID_30_)" enable-background="new    "><path d="M57.0476,47.6567l1.5301-0.8892c0.0109,0.0229,0.0217,0.0458,0.0324,0.0687L57.08,47.7254          C57.0693,47.7025,57.0585,47.6796,57.0476,47.6567" fill="#9EB5DF"/><path d="M57.08,47.7254l1.5301-0.8892c0.0499,0.1064,0.098,0.2124,0.1448,0.3183l-1.5301,0.8892          C57.178,47.9379,57.1299,47.8318,57.08,47.7254" fill="#9EB5DF"/><path d="M57.2248,48.0438l1.5301-0.8892c0.0554,0.1253,0.1088,0.2505,0.1609,0.3759l-1.5301,0.8892          C57.3336,48.2943,57.2801,48.1691,57.2248,48.0438" fill="#9EB5DF"/><path d="M57.3857,48.4197l1.5301-0.8892c0.0445,0.107,0.088,0.2142,0.1309,0.3218l-1.5301,0.8892          C57.4737,48.6339,57.4302,48.5267,57.3857,48.4197" fill="#9EB5DF"/></g></g><g enable-background="new    "><defs><path d="M54.9952,44.3742l1.5301-0.8892          c0.2421,0.299,0.4772,0.6183,0.6984,0.9455l-1.5301,0.8892C55.4724,44.9925,55.2373,44.6732,54.9952,44.3742z" enable-background="new    " id="SVGID_31_"/></defs><use fill="#9EB5DF" overflow="visible" xlink:href="#SVGID_31_"/><clipPath id="SVGID_32_"><use overflow="visible" xlink:href="#SVGID_31_"/></clipPath><g clip-path="url(#SVGID_32_)" enable-background="new    "><path d="M54.9952,44.3742l1.5301-0.8892c0.0346,0.0427,0.0691,0.0859,0.1034,0.1294l-1.5301,0.8892          C55.0643,44.4601,55.0298,44.417,54.9952,44.3742" fill="#9EB5DF"/><path d="M55.0986,44.5036l1.5301-0.8892c0.0801,0.1017,0.1594,0.2055,0.2375,0.3109l-1.5301,0.8892          C55.258,44.7091,55.1787,44.6054,55.0986,44.5036" fill="#9EB5DF"/><path d="M55.3361,44.8145l1.5301-0.8892c0.1155,0.1558,0.2284,0.3151,0.3381,0.4764l-1.5301,0.8892          C55.5645,45.1296,55.4516,44.9703,55.3361,44.8145" fill="#9EB5DF"/><path d="M55.6742,45.2909l1.5301-0.8892c0.0065,0.0096,0.013,0.0192,0.0195,0.0287l-1.5301,0.8892          C55.6872,45.3101,55.6807,45.3005,55.6742,45.2909" fill="#9EB5DF"/></g></g><g><polygon fill="#9EB5DF" points="55.2374,43.8338 56.7679,42.9439 56.5291,43.4866 54.9986,44.3765        "/><polygon fill="#9EB5DF" points="46.1086,46.5369 44.5781,47.4273 43.9811,47.3727 45.5116,46.4828        "/><polygon fill="#9EB5DF" points="46.8467,50.336 47.3026,50.0864 45.7721,50.9763 45.3162,51.2265        "/><polygon fill="#9EB5DF" points="49.5929,56.1217 51.1234,55.2313 50.8847,55.7851 49.3541,56.675        "/><polygon fill="#9EB5DF" points="48.2361,38.7107 48.692,39.503 47.1615,40.3929 46.7056,39.6006 45.3487,40.3823          46.8684,39.4919        "/><polygon fill="#9EB5DF" points="50.9281,38.7213 51.1669,39.5465 49.6363,40.4364 49.3976,39.6117        "/><rect fill="#9EB5DF" height="1.7704" transform="matrix(-0.5037 -0.8639 0.8639 -0.5037 37.6367 136.4477)" width="0.905" x="57.5583" y="56.5281"/><polygon fill="#9EB5DF" points="52.3935,41.0989 53.924,40.2085 53.924,40.9468 52.3935,41.8367        "/><polygon fill="#9EB5DF" points="44.4152,44.1709 43.7748,43.8015 45.3053,42.9116 45.9458,43.2805        "/><polygon fill="#9EB5DF" points="45.327,41.7063 44.7408,41.0772 46.2714,40.1868 46.8575,40.8164        "/><polygon fill="#9EB5DF" points="58.407,52.2462 59.9375,51.3563 60.5779,51.7257 59.0474,52.6156        "/><polygon fill="#9EB5DF" points="59.7638,54.4283 60.3608,55.058 58.8303,55.9478 58.2333,55.3182        "/><polygon fill="#9EB5DF" points="58.103,48.7948 57.5169,48.7407 59.0474,47.8503 59.6336,47.9043        "/></g><g><polygon fill="#9EB5DF" points="55.6936,45.3197 57.2237,44.4305 57.6826,44.1692 56.1525,45.0584        "/></g></g><g><polygon fill="#B6CBEA" points="52.3468,57.9046 53.8768,57.0154 53.8747,57.7564 52.3447,58.6456       "/></g><g><polygon fill="#B6CBEA" points="54.9555,58.3739 56.4856,57.4847 56.7262,58.3095 55.1961,59.1987       "/></g><g><polygon fill="#B6CBEA" points="58.8289,55.9442 60.359,55.0551 59.6117,56.6653 58.0816,57.5545       "/></g><g><polygon fill="#B6CBEA" points="47.6232,39.4321 49.1533,38.5429 50.9299,38.723 49.3998,39.6122       "/></g><g><polygon fill="#B6CBEA" points="59.0466,52.6161 60.5767,51.7269 60.5704,53.9407 59.0403,54.8299       "/></g><g><polygon fill="#B6CBEA" points="50.4747,39.9852 52.0048,39.0961 53.9245,40.2044 52.3944,41.0936       "/></g><g><polygon fill="#B6CBEA" points="58.1064,48.7947 59.6365,47.9055 60.3723,50.3725 58.8422,51.2617       "/></g><g><polygon fill="#B6CBEA" points="53.4679,41.9609 54.998,41.0717 56.7698,42.9403 55.2397,43.8294       "/></g><g><polygon fill="#B6CBEA" points="56.1525,45.0584 57.6826,44.1692 59.0365,46.514 57.5065,47.4032       "/></g><g><path d="M52.3944,41.0936l-0.0021,0.741c0.284,0.2038,0.5611,0.4274,0.8311,0.6711l0.2445-0.5448        l1.7718,1.8685l-0.2445,0.5448c0.2421,0.299,0.4772,0.6183,0.6984,0.9455l0.4589-0.2613l1.3539,2.3448l-0.4589,0.2535        c0.1725,0.3632,0.3242,0.7216,0.469,1.0848l0.5899,0.0532l0.7358,2.467l-0.5968-0.0577        c0.0684,0.3507,0.123,0.7011,0.1636,1.0439l0.6376,0.3681l-0.0063,2.2138l-0.6376-0.3681        c-0.0425,0.2944-0.0988,0.5808-0.169,0.8515l0.5952,0.631l-0.7473,1.6103l-0.5883-0.6266        c-0.1463,0.2024-0.2996,0.3771-0.4736,0.5402l0.4559,0.7817l-1.3628,0.7763l-0.4559-0.7817        c-0.2223,0.0634-0.4585,0.1105-0.7015,0.1295l0.2406,0.8248l-1.7766-0.1801l-0.2406-0.8248        c-0.2705-0.0683-0.5479-0.1649-0.8322-0.2892l-0.0021,0.741l-1.9197-1.1083l0.0021-0.741        c-0.284-0.2038-0.5611-0.4274-0.8311-0.6711l-0.2445,0.5448l-1.7718-1.8685l0.2445-0.5448        c-0.2421-0.299-0.4772-0.6183-0.6985-0.9377l-0.4589,0.2535l-1.3539-2.3448l0.4589-0.2535        c-0.1725-0.3632-0.3242-0.7139-0.469-1.0843l-0.5899-0.0537l-0.7288-2.4625l0.5899,0.0532        c-0.0684-0.3507-0.123-0.7011-0.1636-1.0435l-0.6376-0.3681l0.0063-2.2138l0.6376,0.3681        c0.0425-0.2948,0.0988-0.5813,0.169-0.8519l-0.5883-0.6266l0.7404-1.6147l0.5883,0.627        c0.1463-0.1951,0.2996-0.3775,0.4736-0.5406l-0.4559-0.7817l1.3628-0.7763l0.4559,0.7895        c0.2223-0.0711,0.4585-0.1183,0.7015-0.1372l-0.2406-0.8248l1.7766,0.1801l0.2406,0.8248        c0.2705,0.0683,0.5479,0.1649,0.8322,0.2892l0.0021-0.741L52.3944,41.0936z" fill="#83A1CC"/></g></g><g><path d="M51.4252,42.5976c3.2296,1.8646,5.8407,6.3794,5.8302,10.0902       c-0.0105,3.7113-2.6387,5.2089-5.8683,3.3443c-3.2226-1.8606-5.8338-6.3831-5.8232-10.0944       C45.5744,42.2269,48.2026,40.7371,51.4252,42.5976z" fill="#DEE7F8"/></g><g><path d="M47.0386,42.3504c-0.5184,0.7023-0.8231,1.6918-0.8266,2.9395       c-0.0105,3.7112,2.6006,8.2338,5.8232,10.0942c1.7483,1.0097,3.3159,1.0266,4.3919,0.2475       c-1.0244,1.3876-2.8971,1.6377-5.0399,0.4007c-3.2226-1.8604-5.8338-6.383-5.8233-10.0947       C45.5687,44.2362,46.1282,43.0092,47.0386,42.3504z" fill="#B6CBEA"/></g></g><g><g><g><path d="M51.2321,50.6319l-0.4709,0.2705c-0.4608-0.3473-0.905-0.8649-1.3391-1.5496l0.4709-0.2738        C50.3271,49.7637,50.7712,50.2813,51.2321,50.6319z" fill="#B6CBEA"/><path d="M51.2387,47.8067l-0.4709,0.2739c-0.2905-0.2739-0.4842-0.4977-0.5877-0.6746        c-0.1035-0.1737-0.1536-0.3607-0.1536-0.5611c0-0.1803,0.0568-0.3039,0.167-0.3674l0.4709-0.2738        c-0.1102,0.0634-0.167,0.187-0.167,0.3674c0,0.2004,0.0501,0.3873,0.1536,0.5609        C50.7545,47.3092,50.9482,47.5329,51.2387,47.8067z" fill="#B6CBEA"/><polygon fill="#B6CBEA" points="51.2555,52.1681 51.7263,51.8943 51.723,52.5354 51.2521,52.8092       "/><path d="M52.3174,51.0327c0.02-0.0067,0.0367-0.0134,0.0534-0.0233L51.9,51.2831        c-0.0167,0.0101-0.0334,0.0166-0.0534,0.0233c-0.1469,0.0535-0.3406,0.0235-0.5911-0.0902l0.0067-1.6029l0.4709-0.2738        l-0.0067,1.6063C51.9768,51.056,52.1705,51.0862,52.3174,51.0327z" fill="#B6CBEA"/><path d="M51.2454,45.3155l-0.4709,0.2705c-0.5009-0.2571-0.9083-0.3139-1.2189-0.167        c-0.0234,0.0099-0.0434,0.0201-0.0635,0.0302l0.4709-0.2739c0.02-0.0099,0.0401-0.0201,0.0634-0.03        C50.3371,44.9983,50.7445,45.0551,51.2454,45.3155z" fill="#B6CBEA"/><path d="M51.2722,45.3021l-0.4942-0.2837l0.4709-0.2739l0.4942,0.2873v0.5776        c0.5677,0.3741,1.102,0.9084,1.6096,1.5996l-0.5076,0.5277l-0.4709,0.2739l0.5076-0.5277        c-0.5076-0.6914-1.0419-1.2256-1.6096-1.5996V45.3021z" fill="#B6CBEA"/><path d="M53.0654,49.6736c0.2805,0.4341,0.4174,0.9117,0.4141,1.4325c0,0.4776-0.1369,0.7915-0.4074,0.9518        l-0.4709,0.2739c0.2705-0.1603,0.4074-0.4776,0.4074-0.9518c0.0033-0.521-0.1336-0.9986-0.4141-1.4326        c-0.2772-0.4341-0.7146-0.905-1.3057-1.4059l-0.0234-0.0134l0.0033-1.673l0.4709-0.2739l-0.0033,1.6732l0.0234,0.0132        C52.3508,48.7684,52.7883,49.2393,53.0654,49.6736z" fill="#B6CBEA"/></g></g><g><g enable-background="new    "><g><path d="M52.5954,49.9464c0.2785,0.4356,0.416,0.9125,0.4145,1.432         c-0.0015,0.5193-0.1626,0.8485-0.4833,0.9896c-0.3229,0.1424-0.7455,0.0751-1.2723-0.1996l-0.0018,0.6419l-0.4968-0.2868         l0.0018-0.6492c-0.7076-0.492-1.3421-1.1823-1.9034-2.0707l0.5672-0.4504c0.4337,0.6847,0.8786,1.2017,1.3389,1.5509         l0.0049-1.7273c-0.5837-0.4989-1.0096-0.9558-1.2796-1.3719c-0.2722-0.4197-0.4054-0.8844-0.4039-1.3988         c0.0015-0.5121,0.1583-0.8436,0.4726-0.9885c0.3122-0.1462,0.72-0.0899,1.2211,0.1699l0.0016-0.5708l0.4968,0.2868         l-0.0016,0.5806c0.567,0.374,1.1037,0.9072,1.61,1.5971l-0.5076,0.5289c-0.3403-0.4762-0.7087-0.8606-1.1051-1.1558         l-0.0047,1.6733l0.0235,0.0135C51.8804,49.0427,52.3169,49.5132,52.5954,49.9464z M51.8462,51.3078         c0.1454-0.0536,0.2184-0.1832,0.2189-0.3915c0.0006-0.2082-0.0565-0.4056-0.1692-0.5933         c-0.1148-0.1865-0.3256-0.4235-0.6344-0.7098l-0.0045,1.6047C51.5044,51.3288,51.7008,51.3612,51.8462,51.3078          M50.7683,48.0817l0.0044-1.5411c-0.2325-0.1096-0.4139-0.1358-0.5465-0.0799c-0.1326,0.0585-0.1991,0.1868-0.1997,0.3853         s0.0502,0.3848,0.1543,0.5603C50.2828,47.583,50.4787,47.8065,50.7683,48.0817" fill="#83A1CC"/></g></g></g></g></g><g><path d="M66.6333,49.8882l-0.4709,0.2738c-0.0468,0.0267-0.1236,0.0034-0.2438-0.0667     c-0.0368-0.0235-0.0768-0.0435-0.1135-0.0669c-0.0801-0.0434-0.1569-0.0902-0.2404-0.137l0.4709-0.2738     c0.0835,0.0468,0.1603,0.0934,0.2404,0.1368c0.0367,0.0235,0.0768,0.0468,0.1135,0.0669     C66.5098,49.8915,66.5866,49.9149,66.6333,49.8882z" fill="#B6CBEA"/><polygon fill="#B6CBEA" points="67.2612,51.7215 67.732,51.4477 67.7287,52.5697 67.2578,52.8435    "/><polygon fill="#B6CBEA" points="65.9387,45.1494 67.1376,45.844 66.6667,46.1179 65.4679,45.4233    "/><polygon fill="#B6CBEA" points="68.3365,52.3259 68.8073,52.0522 68.804,53.1908 68.3331,53.4647    "/><path d="M67.7554,47.0029l-0.0033,1.3759c0.0935,0.0567,0.187,0.1135,0.2805,0.167     c0.2471,0.1435,0.4876,0.2638,0.7213,0.3105c0.1069,0.0201,0.197,0.0101,0.2638-0.03L68.5469,49.1     c-0.0668,0.0401-0.157,0.0502-0.2638,0.0302c-0.2337-0.0468-0.4742-0.167-0.7213-0.3106     c-0.0935-0.0535-0.187-0.1102-0.2805-0.167l0.0033-1.3759L67.7554,47.0029z" fill="#B6CBEA"/><path d="M69.2882,51.1504l-0.4709,0.2738c-0.0601,0.0369-0.1436,0.0468-0.2505,0.0369     c-0.3039-0.0369-0.6178-0.1905-0.935-0.3741c-0.1202-0.0701-0.2371-0.1402-0.3573-0.2104l0.0067-1.5295l0.4709-0.2705     l-0.0067,1.5261c0.1202,0.0701,0.2371,0.1437,0.3573,0.2105c0.3173,0.1836,0.6312,0.3406,0.935,0.3739     C69.1446,51.2005,69.2248,51.1871,69.2882,51.1504z" fill="#B6CBEA"/><path d="M70.3368,52.3093c-0.0234,0.0233-0.0501,0.0434-0.0801,0.06l-0.4241,0.2438     c0.01-0.0099,0.0234-0.0201,0.0334-0.03c0.3206-0.2938,0.374-0.8014,0.217-1.4527c-0.1035-0.4308-0.3807-0.7613-0.6812-1.0553     c-0.0234-0.0233-0.0468-0.04-0.0735-0.0801l0.3674-0.2138c0.217-0.3406,0.1135-1.1755-0.364-1.8132     c-0.1536-0.2038-0.5376-0.6178-0.9785-0.875l0.0033-1.1354l-0.6078-0.3507v0.5544l0.4642,0.2671l-0.4709,0.2739l-0.4642-0.2673     l0.0033-1.0985l-0.6111-0.3507l0.4708-0.2738l0.6111,0.3506l-0.0033,0.541l0.4675-0.2705l0.6111,0.3506l-0.0033,1.1354     c0.4408,0.2573,0.8249,0.6713,0.9785,0.875c0.5477,0.7347,0.6044,1.7333,0.2471,1.9303l-0.2238,0.1301     c0.0167,0.0168,0.0334,0.0334,0.0468,0.0468c0.3006,0.294,0.5777,0.6245,0.6813,1.0553     C70.7108,51.5077,70.6574,52.0187,70.3368,52.3093z" fill="#B6CBEA"/><g><path d="M70.0831,51.1317c0.1562,0.6496,0.1035,1.1592-0.2155,1.451c-0.2227,0.2028-0.5556,0.1308-0.897,0.0097      c-0.2048-0.0717-0.416-0.1738-0.6335-0.2675l-0.0032,1.1391l-0.6098-0.3521l0.0032-1.122l-0.4648-0.2684l-0.0032,1.122      l-0.6098-0.3521l0.0033-1.1661l-1.2068-0.6967c0.0413-0.2559,0.0804-0.4885,0.1196-0.7383      c0.0824,0.0476,0.1611,0.0941,0.2385,0.1388c0.0387,0.0223,0.0771,0.0442,0.1154,0.0656      c0.2409,0.1391,0.3072,0.0988,0.308-0.178c0.0048-0.9494,0.0075-1.8999,0.0081-2.8518      c0.0009-0.3283-0.1032-0.5136-0.3889-0.6834c-0.1279-0.0739-0.2559-0.1477-0.3817-0.2203l0.0021-0.7374l1.2004,0.693      l0.0032-1.1318l0.6098,0.3521l-0.0031,1.0975l0.4648,0.2684l0.0031-1.0975l0.6098,0.3521l-0.0032,1.1367      c0.4414,0.2548,0.8267,0.6688,0.9799,0.875c0.5489,0.734,0.6038,1.7301,0.2465,1.9288c-0.077,0.0439-0.1668,0.0657-0.2501,0.096      c0.0276,0.0406,0.0511,0.0591,0.0745,0.0823C69.7029,50.3699,69.9796,50.6989,70.0831,51.1317z M68.5658,51.4606      c0.2797,0.0314,0.3954-0.0981,0.392-0.4018c-0.0034-0.2868-0.1479-0.5762-0.4183-0.8526      c-0.2641-0.2691-0.5367-0.4443-0.8144-0.6047c-0.0671-0.0388-0.1346-0.0768-0.2023-0.1148      c-0.0573-0.0313-0.1146-0.0627-0.1719-0.0958c-0.0237-0.0137-0.0475-0.0278-0.0712-0.0422l-0.0043,1.5263      c0.1191,0.0714,0.2377,0.1435,0.3556,0.2115C67.95,51.2708,68.2634,51.4258,68.5658,51.4606 M67.2857,47.2762l-0.0039,1.3768      c0.0946,0.0573,0.188,0.1139,0.2805,0.1673c0.2473,0.1427,0.4873,0.2623,0.7219,0.3084      c0.2561,0.0498,0.4039-0.0809,0.4089-0.3455c0.005-0.2695-0.1351-0.5663-0.3864-0.8194      c-0.2139-0.2126-0.4325-0.3639-0.655-0.4924C67.5308,47.4016,67.4087,47.3386,67.2857,47.2762" fill="#83A1CC"/></g></g></g><path d="M39.5739,28.4726c0.0383-0.3614,0.1926-0.6849,0.5483-0.8851c1.5721-0.8839,3.0071-0.3043,2.8351,1.7361   c0,0-0.6876-0.3207-1.1424-1.0498c0,0-1.0976,0.5108-1.2096,1.5904c0.004,0.2361,0.0269,0.4713,0.1022,0.6941   c0.0724,0.214,0.1898,0.4095,0.3065,0.6029c0.1574,0.2615,0.0983,0.5061,0.3437,0.6875c0.1029,0.0759,0.2182,0.1349,0.3151,0.2185   c0.0969,0.0834,0.1766,0.2002,0.1738,0.328c-0.0028,0.1295-0.0888,0.2479-0.0831,0.3771c0.0044,0.1027,0.0653,0.1924,0.1179,0.2805   c0.1313,0.2194,0.2162,0.5183,0.055,0.7169c-0.0552,0.0679-0.134,0.1151-0.1824,0.1884c-0.088,0.133-0.0511,0.3139,0.0227,0.4556   c0.0738,0.1414,0.1808,0.266,0.2357,0.4159c0.0175,0.0477,0.029,0.1029,0.0054,0.148c-0.0347,0.0667-0.1243,0.0775-0.1994,0.0764   c-0.2-0.0031-0.3996-0.0322-0.5921-0.0869c-0.0786-0.0221-0.1616-0.0526-0.2078-0.1201c-0.1122-0.1642,0.0724-0.3816,0.0438-0.5785   c-0.0185-0.1276-0.1267-0.226-0.2443-0.2794c-0.1176-0.0533-0.2473-0.0724-0.3708-0.11c-0.0488-0.015-0.1002-0.0357-0.1269-0.0792   c-0.0177-0.0289-0.0219-0.0637-0.024-0.0973c-0.0233-0.3877,0.1875-0.7998,0.0172-1.1487   c-0.118-0.2418-0.3948-0.3839-0.4873-0.6367c-0.1513-0.4135,0.2665-0.8635,0.1498-1.288   c-0.0478-0.1739-0.1781-0.3104-0.2855-0.4553c-0.1074-0.145-0.1984-0.3264-0.1499-0.5c0.0251-0.09,0.0855-0.1678,0.105-0.2592   c0.0361-0.1689-0.0734-0.3306-0.1174-0.4976C39.4896,28.7696,39.5114,28.6117,39.5739,28.4726z" fill="#A0533F"/><path d="M46.5786,40.6428c0.029-0.0223,0.0242-0.0491,0.0242-0.0491c-0.0089-0.0094-0.1819-0.1825-0.5917-0.3168   c-0.2703-0.084-0.3115-0.175-0.3078-0.2279c0.0019-0.0272,0.0293-0.0403,0.0578-0.0312c0.2284,0.073,0.3579,0.0368,0.4251-0.0126   c0.0267-0.0155,0.0454-0.0337,0.0584-0.0501c0.017-0.0214,0.001-0.0576-0.0298-0.0658c-0.0844-0.0219-0.2695-0.0625-0.5977-0.0994   c-0.4832-0.0598-0.5419,0.0957-0.6219,0.1108c-0.08,0.0149-0.2424-0.06-0.2543-0.0634l-0.1497,0.3669l0.0841,0.0195   c0.1023,0.0238,0.1957,0.0899,0.261,0.1781c0.2339,0.3161,0.7243,0.5334,0.9733,0.5939c0.0699,0.0149,0.1068,0.0134,0.1249,0.0046   c0.0421-0.0302-0.0513-0.135-0.089-0.1778c0.0279,0.0171,0.1176,0.0558,0.3471,0.0961c0.0648,0.0156,0.0948,0.0099,0.1129,0.001   c0.034-0.0232-0.0644-0.099-0.1291-0.1423c0.1185,0.0722,0.1525,0.077,0.1525,0.077c0.0589,0,0.0889-0.0056,0.1049-0.0198   c0.0861-0.0552-0.2635-0.2283-0.2774-0.2369C46.4576,40.6766,46.5445,40.6657,46.5786,40.6428z" fill="#ECB4BF"/><path d="M42.1188,38.1801c-0.367-0.175-0.6343-0.5245-0.6826-0.8993c-0.1656-1.2883-0.7885-4.8204-1.7937-4.998   c-1.1487-0.2029-1.1255,0.8068-1.0932,1.2139c0.0442,0.5582,1.2456,3.5758,1.6678,4.7316c0.1067,0.2919,0.343,0.5408,0.6327,0.6766   l4.105,1.5917c0.2845-0.3765,0.2884-0.6393,0.2091-0.7341L42.1188,38.1801z" fill="#3887E5"/></g></svg>