<?xml version="1.0" encoding="utf-8"?>
<!-- Generator: Adobe Illustrator 22.0.0, SVG Export Plug-In . SVG Version: 6.00 Build 0)  -->
<svg version="1.1" id="图层_1" xmlns="http://www.w3.org/2000/svg" xmlns:xlink="http://www.w3.org/1999/xlink" x="0px" y="0px"
	 viewBox="0 0 750 1125" style="enable-background:new 0 0 750 1125;" xml:space="preserve">
<style type="text/css">
	.st0{fill:#3C53E1;stroke:#000000;stroke-width:2;stroke-linecap:round;stroke-linejoin:round;stroke-miterlimit:10;}
	.st1{fill:none;stroke:#131C4D;stroke-width:2;stroke-linecap:round;stroke-linejoin:round;stroke-miterlimit:10;}
	.st2{fill:#FF9412;stroke:#000000;stroke-width:2;stroke-linecap:round;stroke-linejoin:round;stroke-miterlimit:10;}
	.st3{fill:#FFC4BD;stroke:#000000;stroke-width:2;stroke-linecap:round;stroke-linejoin:round;stroke-miterlimit:10;}
	.st4{fill:#3C53E1;}
	.st5{fill:none;stroke:#000000;stroke-width:2;stroke-linecap:round;stroke-linejoin:round;stroke-miterlimit:10;}
	.st6{opacity:0.54;fill:#FD756E;}
	.st7{fill:#F5F7DE;stroke:#000000;stroke-width:2;stroke-linecap:round;stroke-linejoin:round;stroke-miterlimit:10;}
</style>
<g>
	<path class="st0" d="M188.5,619.7c-4.5-1.4-9.2-1.8-13.9-1.5c-16.2,1.1-51.2-0.2-53.1-32c-2.5-41.5,57.4-53.2,69.9-105.1
		c17-70.9,25.5-96.5,68.6-123.3c64.9-40.2,51.5-110.4,99.8-121.4c82.4-18.7,84.9,86.4,119.8,112.3c34.9,26,54.5,27.2,67.4,67.5
		c10,31.1-5,67.5,34.9,101.2c40.7,34.4,63.7,92.1-10,106.4C501.9,637.4,239,635,188.5,619.7z"/>
	<path class="st1" d="M318.2,353.2c0,0-34.1,10.4-42.4,75.2c-4.1,32.1-46.6,51.1-39.8,113.9c3.5,31.8-62,51-47.5,77.4"/>
	<path class="st1" d="M419.9,360.9c0,0,34.1,10.4,42.4,75.2c4.1,32.1,46.6,51.1,39.8,113.9c-3.5,31.8,62,51,47.5,77.4"/>
	<path class="st2" d="M289.1,661.3c0,0-10,14.7-13.3,18.2c-3.3,3.5-203.2,49.3-221,135.8s70.4,88.2,163.6,57.1
		C311.6,841.2,336.5,830,361,830c0,0,41.8-4.3,59,3.5c17.2,7.8,243.5,106,288.5,13.8c44.9-92.1-222.2-167.4-232.1-168.7l-14-26
		C462.4,652.6,412.7,714,289.1,661.3z"/>
	<path class="st3" d="M363.7,394.9c-3.3,0-5.1-2.6-5.1,0.9c0.1,7.4-1.5,23.2-6.8,25.5c-7.8,3.5-41.9,5.5-52.7,11.2
		c-10.8,5.7-34.1,10.9-64.9,93.9S131,708.9,106.9,714.9s-47.4,13-39.9,20.8c5.6,5.8,14,2.9,17.9,1.1c1.8-0.9,4-0.7,5.6,0.4
		c2.1,1.5,4.2,4.4,2.3,9.7c-3.3,9.5-9.2,11.2-17.5,0c-8.3-11.2-13.7-8.2-14.6,0.9c-0.6,6.4,3.8,11.7,9.8,15.4
		c3.5,2.1,4.1,7.1,1.1,10c-8.4,7.9-20.8,21-15.4,24.8c3.4,2.4,5.9,2.8,7.7,2.4c2.1-0.5,4.3,0.3,5.8,1.9c1.4,1.5,3.5,2.5,6.6,1.2
		c2.4-1,5.2-0.4,6.9,1.7c2.6,3.3,7.4,5.6,15-4.2c12.5-16,19.6-36.8,47-54.1c26.6-16.8,139.4-128.8,155.2-179.7
		c0.4-1.3,2.1-1.3,2.5,0c2.8,10.4,9.2,35.4,7.9,45.6c-1.7,13-20,44.1-21.6,48.4c-1.6,4.2,104.8,50.9,170.9-5.2
		c2.2-1.8,2.2-3.7,0.9-6.2c-4.1-7.9-10.2-24.3-11.2-38.7c-1.4-18.8,2.5-42.5,3.8-49.7c0.1-0.8,1.2-1,1.6-0.3
		c11,17.1,96.1,147.8,167.4,193.3c0.4,0.2,0.7,0.5,1,0.8c2.8,2.8,17.3,17.7,21.9,25.5c4.5,7.9,21.4,34.3,28.9,24.8
		c1.6-2,4.2-2.8,6.5-2c2.8,0.9,6.1,1.2,7.4-1.4c1.2-2.6,3.8-4.3,6.6-3.8c5.1,1,10.7,0.1,5.6-10.7c-3.3-7-7.1-11.9-10.6-15.2
		c-3-2.9-2.4-8,1.3-10c6-3.2,10.9-9.5,4-21.8c-0.5-0.9-1.3-1.7-2.2-2.2c-1.8-1-4.7-1.2-6.3,5.6c-2.5,10.4-5.4,12.5-10,10.8
		c-4.3-1.6-10.2-10.7-1.8-16.4c0.9-0.6,1.9-0.9,2.9-0.9c2-0.1,5.8-0.2,8.9,0.1c4.6,0.4,9.2-6.9-0.8-10.8c-10-3.9-30.4-5.2-44.9-17.3
		c-14.6-12.1-82-89.5-115.2-175.2c-33.1-85.1-48.6-113-110.7-112.5c-1,0-0.7-0.2-1.6-0.7c-2.8-1.6-8.2-9.7-8.6-23.4
		c-0.1-3.4-2.6-2.7-5.9-2.7L363.7,394.9z"/>
	<path class="st3" d="M341.3,363.6c0,0-22.2,1-23.1-18.9c-0.8-19.9,23.3-16.4,23.3-16.4"/>
	<path class="st3" d="M420,359.4c0,0,23.9,0,21.4-18.2s-25-13-25-13"/>
	<path class="st3" d="M341.5,328.2c0,0-13.3,75.3,40.8,73.5c54.1-1.7,34.1-73.5,34.1-73.5s7.5-53.6-7.5-67.5
		C394,246.9,334.1,226.2,341.5,328.2z"/>
	<path class="st0" d="M380.1,268.8c0,0,18.9,34.6-73.5,77"/>
	<path class="st4" d="M459,340.4c0,0-65.6-9.7-86.1-52.2c0,0-15.1-59.9,29.1-40.5C401.9,247.7,453.9,296.6,459,340.4z"/>
	<path class="st5" d="M380.1,334.3c0,0-7.2,25.1,0,25.1"/>
	<path class="st5" d="M373.6,363.6c0,0,6.1,7.6,13.5,0"/>
	<path class="st5" d="M351.8,332.5c0,0,9,9.7,18.4,0"/>
	<path class="st5" d="M387.1,332.5c0,0,9,9.7,18.4,0"/>
	<ellipse class="st6" cx="357.4" cy="353.2" rx="13.3" ry="13.8"/>
	<ellipse class="st6" cx="401.8" cy="353.2" rx="13.3" ry="13.8"/>
	<path class="st7" d="M312.7,428.4c0,0,7.6,46.5,5.5,59.9c-1.5,9.9-27.8,21-17.8,79c8,46.1,6.2,46.8,6.2,46.8s74,17.6,146.9-3
		c0,0-3.1,5.2,1.6-50c0,0,12.4-34.7-13.9-69.4c-2-2.7-3.2-5.9-3.4-9.3c-0.3-9.8-0.4-31.9,3.8-58.6c0,0-11.8-4-18.1-2
		c0,0,1.7,47-43.5,44.9c-45.2-2.2-50.2-41.1-50.2-41.1L312.7,428.4z"/>
	<path d="M476.3,678.6c0,0-20,6.1-30.8,17.3c0,0,32.4-17.4,46.9-13l-14.5-4.4"/>
	<path class="st3" d="M362.8,785c0,0,24.3,0,42.7-18.2s25.9,2.6,44.2,13c18.3,10.4,70.7,20,82.4,28.2c11.6,8.2-1.8,41.9-171,22
		L362.8,785z"/>
	<path class="st5" d="M157.7,791c0,0,55.7-45.5,125.6-31.4c69.9,14.1,79.5,25.4,79.5,25.4"/>
	<path class="st5" d="M441.6,774.1C564.1,739.9,603.6,791,603.6,791"/>
	<path class="st5" d="M677.2,803.4c0,0-14.9-14.2-19.3-26.7"/>
	<path class="st5" d="M690.4,797.9c0,0-17.6-16.7-22.8-26.2"/>
	<path class="st5" d="M63.9,800.3c0,0,20.6-21.1,23.7-26.3"/>
	<path class="st5" d="M76.3,803.4c0,0,15.6-12.3,23.1-26.8"/>
	<path class="st4" d="M361,240.4c0,0-53,44.8-48,66.9s55.7-6.3,59.3-21.1C376,271.4,388.6,229.3,361,240.4z"/>
	<path class="st5" d="M373.6,292.2c0,0,12.5,26.5,64.5,43.6"/>
	<path class="st1" d="M396.3,259.4c0,0,38.2,3.3,56.9,79.9c4.6,18.6,20.6,43.4,48.9,55.5c28.3,12.1,25.2,29.4,36.3,77.8
		c11.1,48.4,67.5,58.3,78,124.7"/>
	<path class="st5" d="M347,501.2c0,0-12.5-32.9-11.9-52.7c0.6-19.8,12.8-48.5-0.6-71c-13.3-22.5,5.8-49.3,5.8-49.3
		s-3.2,53.5,15.9,80.6c19.1,27.1-7.1,63,5.3,92.4"/>
	<line class="st5" x1="429" y1="348.7" x2="431.5" y2="334.3"/>
	<path class="st5" d="M326.6,340.4"/>
	<line class="st5" x1="329.8" y1="351.9" x2="327.8" y2="335.8"/>
	<path class="st1" d="M474.4,590.1c0,0,8.1,28,5,41.4"/>
	<path class="st1" d="M459,570.4c0,0,10.7,38.1,2,62.3"/>
	<path class="st1" d="M293.9,582.4c0,0-5.5,26.2-2.7,46.5"/>
	<path class="st1" d="M143.7,615c-21.6-38.6,18.2-68.7,43.9-91.3c25.8-22.5,25.6-80.5,41.6-109c18-32,46.3-57.9,65-72.7
		c11.7-9.3,21.5-20.9,28.6-34.3c7.8-14.6,14.2-40.1,31.8-48.2"/>
	<path class="st5" d="M353,334.6c0,0-1.7,3.8-5.2,4.8"/>
	<path class="st5" d="M358.6,336.4c0,0,0,4.6-2.9,6.1"/>
	<path class="st5" d="M366.7,336c0,0,0.7,3.4,3.6,5.1"/>
	<path class="st5" d="M390.6,335.1c0,0-0.6,3.1-4.3,4.4"/>
	<path class="st5" d="M397.5,337.2c0,0-1.7,4.7-1,6.6"/>
	<path class="st5" d="M402.3,335.1c0,0,2.7,4,6.2,4.4"/>
	<path d="M358.6,395.7c0,0,10,15.4,46.8,12l-1.8-12C403.6,395.7,373.5,405.8,358.6,395.7z"/>
	<path d="M375.7,295.6c0,0,10.4,29.2,40.7,32.7C416.4,328.2,378.5,302.9,375.7,295.6z"/>
	<path d="M438.5,486.5c0,0,3.1-51.7,11.7-60.6l-8.6-2.1C441.6,423.8,435.8,481.2,438.5,486.5z"/>
	<path d="M451.7,623c0,0-121.4,10-140.7-8.1c0,0,87.6,15.2,138.7-3.9L451.7,623z"/>
	<path d="M291.2,657.1c0,0,101.1,48.9,170.3-8.6l0.9,4.1c0,0-55.3,66-173.3,9.9L291.2,657.1z"/>
	<polygon points="268.2,682.1 306.6,695.9 275.8,679.4 	"/>
	<path d="M271.7,756.9l91.7,25.7l-23.6-13.9c-1.3-1-15.9-8.1-27.2-10C301.6,756.9,285.7,757.3,271.7,756.9z"/>
	<path d="M435.4,768.8"/>
	<path class="st2" d="M435.4,768.8"/>
	<path d="M434.8,769.2c0,0,38.8-7.4,48.3-2.7l-41.4,7.3L434.8,769.2z"/>
	<path d="M535.2,817c0,0-12.2,20.2-55.1,26.8c0,0-21.8,4.6-34.1,2.1l-0.5-9.7c0,0,64.5,4.6,89.7-20.9"/>
</g>
</svg>
