<?xml version="1.0" encoding="utf-8"?>
<!-- Generator: Adobe Illustrator 22.0.0, SVG Export Plug-In . SVG Version: 6.00 Build 0)  -->
<svg version="1.1" id="图层_1" xmlns="http://www.w3.org/2000/svg" xmlns:xlink="http://www.w3.org/1999/xlink" x="0px" y="0px"
	 viewBox="0 0 750 1125" style="enable-background:new 0 0 750 1125;" xml:space="preserve">
<style type="text/css">
	.st0{fill:#FF4936;stroke:#000000;stroke-width:2;stroke-miterlimit:10;}
	.st1{fill:#C14B42;stroke:#000000;stroke-width:2;stroke-miterlimit:10;}
	.st2{fill:#FFCF48;stroke:#000000;stroke-width:2;stroke-miterlimit:10;}
	.st3{fill:#FFD4D4;stroke:#000000;stroke-width:2;stroke-miterlimit:10;}
	.st4{clip-path:url(#SVGID_2_);}
	.st5{fill:#FFFFFF;stroke:#000000;stroke-width:2;stroke-miterlimit:10;}
	.st6{clip-path:url(#SVGID_4_);}
	.st7{fill:#FFD892;}
	.st8{fill:none;stroke:#000000;stroke-width:2;stroke-miterlimit:10;}
	.st9{fill:#3AABDD;stroke:#000000;stroke-width:2;stroke-miterlimit:10;}
	.st10{fill:#F25949;stroke:#000000;stroke-width:2;stroke-miterlimit:10;}
	.st11{fill:#C68136;stroke:#000000;stroke-width:2;stroke-miterlimit:10;}
	.st12{fill:#4EAF91;stroke:#000000;stroke-width:2;stroke-miterlimit:10;}
	.st13{clip-path:url(#SVGID_6_);stroke:#000000;stroke-width:2;stroke-miterlimit:10;}
	.st14{fill:#5ED1B3;stroke:#000000;stroke-width:2;stroke-miterlimit:10;}
	.st15{fill:none;stroke:#000000;stroke-width:2;stroke-linecap:round;stroke-linejoin:round;stroke-miterlimit:10;}
	.st16{clip-path:url(#SVGID_8_);}
	.st17{clip-path:url(#SVGID_10_);}
	.st18{fill:#13409B;stroke:#000000;stroke-width:2;stroke-miterlimit:10;}
	.st19{clip-path:url(#SVGID_12_);}
	.st20{fill:#F93535;}
	.st21{fill:#FFFFFF;}
	.st22{fill:#3AABDD;}
	.st23{fill:#52BFA0;}
</style>
<g>
	<g>
		<path class="st0" d="M61.9,339.7c0,0-2.9,20.4,15.9,24.2l105.6-69.2c0,0-19.1,1.1-28-30L61.9,339.7z"/>
		
			<ellipse transform="matrix(0.7954 -0.606 0.606 0.7954 -133.0376 160.6342)" class="st1" cx="171.4" cy="277.4" rx="9.4" ry="22.3"/>
		<path class="st2" d="M81.6,323.9c0,0,0.4,22.9,17.1,26.3l4.6-3.1c0,0-15.4-6.4-16.3-27.6L81.6,323.9z"/>
		<path class="st2" d="M96.2,312.1c0,0-1.7,23.9,16.3,29l5.2-3.4c0,0-17.4-7-15.8-30.2L96.2,312.1z"/>
		<path class="st2" d="M134.8,281.2c0,0-1.7,24.6,20.2,32.1l6-3.9c0,0-19.2-3.3-21.5-31.9L134.8,281.2z"/>
		<path class="st2" d="M151.3,267.9c0,0,1.8,27.5,24.8,31.6l7.4-4.8c0,0-21-2.9-28-30L151.3,267.9z"/>
		<path class="st3" d="M112.5,342.5c0,0,3.4,28,31.4,67.1s58.5,66.2,58.5,66.2l28-37.3c0,0-46.7-50-55.1-64.5
			c-8.5-14.4-16.2-30.5-14.4-61.1c1.7-30.5-15.3-16.9-10.2,0L112.5,342.5z"/>
		<g>
			<g>
				<defs>
					<path id="SVGID_1_" d="M112.5,342.5c0,0,3.4,28,31.4,67.1s58.5,66.2,58.5,66.2l28-37.3c0,0-46.7-50-55.1-64.5
						c-8.5-14.4-16.2-30.5-14.4-61.1c1.7-30.5-15.3-16.9-10.2,0L112.5,342.5z"/>
				</defs>
				<clipPath id="SVGID_2_">
					<use xlink:href="#SVGID_1_"  style="overflow:visible;"/>
				</clipPath>
				<path class="st4" d="M129.8,398.1c0,0,35.6-9.2,51.5-29.1c4.1-5.1-33.5,40.1-33.5,40.1L129.8,398.1z"/>
			</g>
		</g>
		<path class="st3" d="M436.7,439.8c3.4,1.1,89.3,10.4,110.9,33c21.5,22.5,58.3,90.9,53.8,119.9c0,0-1.8,5.3-9,4.5
			c0,0-2.2,6.7-9.3,5.1c0,0,0.4,7.6-9.3,6c0,0-4.1,11.1-11.5,2.5c-6.1-7-10.7-28-12.7-39.5s-17.6-40.7-27.2-50
			c-9.7-9.3-40.7-28.9-77.1-28.9C408.7,492.2,436.7,439.8,436.7,439.8z"/>
		<path class="st5" d="M131.5,408.1c-2.3,0.8-3.2,3.7-1.5,5.5c12.5,13.9,54.2,59.6,68.5,73.2c16.9,16.2,23.8,95.8,13.6,112
			s40.3,8.1,67.7,7.4s116.3-23.4,125.7-48.9c4.3-11.7-5.7-17.6-22.9-30.7c-10.1-7.6-18.6-25.5-22.4-30.2c-1.9-2.3-0.4-5.6,2.5-5.6
			c32.8,0,125.9,3.4,156,40.6c1.3,1.5,3.4,1.8,5,0.4c8.8-8.1,35-35.6,30.2-71.5c-0.3-1.8-1.9-3.2-3.8-2.9
			c-4.7,0.6-16.3,0.1-44.4-8.4C462,435.7,381.8,424.5,367.8,426c-13.7,1.5-54.9,1.7-101.1,35.4c-1.3,0.9-2.9,0.9-4.1-0.1
			c-10.4-8.5-58.9-49.3-83.5-85.5c-1.4-2.2-4.6-1.9-5.7,0.4C169.1,384.5,158.2,399.5,131.5,408.1z"/>
		<g>
			<g>
				<defs>
					<path id="SVGID_3_" d="M131.5,408.1c-2.3,0.8-3.2,3.7-1.5,5.5c12.5,13.9,54.2,59.6,68.5,73.2c16.9,16.2,23.8,95.8,13.6,112
						s40.3,8.1,67.7,7.4s116.3-23.4,125.7-48.9c4.3-11.7-5.7-17.6-22.9-30.7c-10.1-7.6-18.6-25.5-22.4-30.2
						c-1.9-2.3-0.4-5.6,2.5-5.6c32.8,0,125.9,3.4,156,40.6c1.3,1.5,3.4,1.8,5,0.4c8.8-8.1,35-35.6,30.2-71.5
						c-0.3-1.8-1.9-3.2-3.8-2.9c-4.7,0.6-16.3,0.1-44.4-8.4C462,435.7,381.8,424.5,367.8,426c-13.7,1.5-54.9,1.7-101.1,35.4
						c-1.3,0.9-2.9,0.9-4.1-0.1c-10.4-8.5-58.9-49.3-83.5-85.5c-1.4-2.2-4.6-1.9-5.7,0.4C169.1,384.5,158.2,399.5,131.5,408.1z"/>
				</defs>
				<clipPath id="SVGID_4_">
					<use xlink:href="#SVGID_3_"  style="overflow:visible;"/>
				</clipPath>
				<g class="st6">
					
						<rect x="352.5" y="117.2" transform="matrix(7.507199e-02 -0.9972 0.9972 7.507199e-02 -51.3533 722.0936)" class="st7" width="22.1" height="543.1"/>
					
						<rect x="346.6" y="195.8" transform="matrix(7.507199e-02 -0.9972 0.9972 7.507199e-02 -135.2149 789.0076)" class="st7" width="22.1" height="543.1"/>
					
						<rect x="343.7" y="235" transform="matrix(7.507199e-02 -0.9972 0.9972 7.507199e-02 -177.0103 822.3566)" class="st7" width="22.1" height="543.1"/>
					
						<rect x="340.7" y="274.4" transform="matrix(7.507199e-02 -0.9972 0.9972 7.507199e-02 -219.0488 855.6782)" class="st7" width="22.1" height="543.1"/>
					
						<rect x="337.7" y="313.7" transform="matrix(7.507199e-02 -0.9972 0.9972 7.507199e-02 -260.9796 889.1352)" class="st7" width="22.1" height="543.1"/>
					
						<rect x="334.8" y="353" transform="matrix(7.507199e-02 -0.9972 0.9972 7.507199e-02 -302.9103 922.5922)" class="st7" width="22.1" height="543.1"/>
					
						<rect x="349.6" y="156.5" transform="matrix(7.507199e-02 -0.9972 0.9972 7.507199e-02 -93.2843 755.5505)" class="st7" width="22.1" height="543.1"/>
				</g>
			</g>
		</g>
		<path class="st8" d="M131.5,408.1c-2.3,0.8-3.2,3.7-1.5,5.5c12.5,13.9,54.2,59.6,68.5,73.2c16.9,16.2,23.8,95.8,13.6,112
			s40.3,8.1,67.7,7.4s116.3-23.4,125.7-48.9c4.3-11.7-5.7-17.6-22.9-30.7c-10.1-7.6-18.6-25.5-22.4-30.2c-1.9-2.3-0.4-5.6,2.5-5.6
			c32.8,0,125.9,3.4,156,40.6c1.3,1.5,3.4,1.8,5,0.4c8.8-8.1,35-35.6,30.2-71.5c-0.3-1.8-1.9-3.2-3.8-2.9
			c-4.7,0.6-16.3,0.1-44.4-8.4C462,435.7,381.8,424.5,367.8,426c-13.7,1.5-54.9,1.7-101.1,35.4c-1.3,0.9-2.9,0.9-4.1-0.1
			c-10.4-8.5-58.9-49.3-83.5-85.5c-1.4-2.2-4.6-1.9-5.7,0.4C169.1,384.5,158.2,399.5,131.5,408.1z"/>
		<path class="st3" d="M279.5,468c0,0-10.3-17.9-28.8-17.7c0,0,15.9-0.6,23.5-14.9L293,445C293.1,445,293.1,461.1,279.5,468z"/>
		<path d="M261.7,452.4c0,0,9.5,0.9,15.7-3.4c6.1-4.3-6.1-3.1-6.1-3.1L261.7,452.4z"/>
		<path class="st3" d="M249.6,401.8c0,0-5.5,7.6-12.3,8.9c-6.7,1.3,0,8,0,8s-15.3,24.6,4.6,33.1c20,8.5,33.1-9.8,33.1-9.8
			s20-20.4,4.7-33.5C264.5,395.5,254.9,396.4,249.6,401.8z"/>
		<path class="st9" d="M249.6,401.8c0,0,4.3,0.1,9,1.9c6,2.3,12.3,7.3,9.7,18.1c-4.7,19.1,2.8,24.2,2.8,24.2s6.1,10.1,24.3-6.2
			c18.2-16.3,25.1-19.2,55.6-29.8c30.5-10.6,35.3-21.6,68.7-48s49.3-36,69.1-44.2c20-8-8-15.3-34-6c-25.8,9.3-16.5-0.9-36-3.8
			s-20,7.3-40.3,10.6s-42.4,11.1-58.5,36.5c-16.2,25.5-42.9,22.9-47.3,24.6C268.3,381.5,237.2,394.7,249.6,401.8z"/>
		<path class="st10" d="M280.9,469.7c2.9,2.2,10.1,7.8,12.5,13.6c0.4,0.9,1.7,0.9,2,0c2.7-7.4,8.9-26.6,6.2-40.2
			c-0.1-0.8-1-1.1-1.7-0.8l-4.2,2.5c-0.3,0.1-0.4,0.4-0.5,0.6c-0.8,2.4-5.5,15.9-14.4,22.5C280.4,468.4,280.4,469.3,280.9,469.7z"/>
		<path class="st10" d="M281.3,486.1c0,0.5-0.6,0.6-0.9,0.1c-2.4-6.4-9.8-25.7-11.2-29c-1.5-3.3,8.9,8.4,11.8,11.8
			c0.5,0.5,0.8,1.3,0.8,2L281.3,486.1z"/>
		<path class="st5" d="M315.8,392.2"/>
		<path class="st3" d="M281.8,425.9l-9.8,13c0,0,3.7,7.9,11.1,2.3C290.4,435.6,283.6,423.6,281.8,425.9z"/>
		<path class="st11" d="M371.1,800.1c0,0,40.1,9,43.4,20.1c3.4,11.1-28.3,121.3-75.6,151.1c-47.3,29.7,16.3-81.5,21.4-94.2
			s-2.9-19-2.9-19L371.1,800.1z"/>
		<path class="st11" d="M558.9,620.2c0,0,31.8-26,42.6-21.9c10.8,4.1,78.3,97,72.4,152.6c-5.9,55.6-54.2-63-61.1-74.8
			c-6.9-11.8-16.7-9.3-16.7-9.3L558.9,620.2z"/>
		<path class="st12" d="M297.9,700.6c0,0,32.5,67.5,41,75.1c8.7,7.6,194.5-29.5,272.1-93c0,0-12.9-13.5-38.2-45.4
			c-25.3-32.1-26.7-41.2-44.5-28.4c-17.8,12.9-69.1,44.7-133.1,62.5L382,646.2C382,646.2,322.1,634.4,297.9,700.6z"/>
		<g>
			<g>
				<defs>
					<path id="SVGID_5_" d="M297.9,700.6c0,0,32.5,67.5,41,75.1c8.7,7.6,194.5-29.5,272.1-93c0,0-12.9-13.5-38.2-45.4
						c-25.3-32.1-26.7-41.2-44.5-28.4c-17.8,12.9-69.1,44.7-133.1,62.5L382,646.2C382,646.2,322.1,634.4,297.9,700.6z"/>
				</defs>
				<clipPath id="SVGID_6_">
					<use xlink:href="#SVGID_5_"  style="overflow:visible;"/>
				</clipPath>
				<path class="st13" d="M294.9,720.5c0,0,69.7-41.1,87.1-74.3s-96.7,43.7-96.7,43.7L294.9,720.5z"/>
			</g>
		</g>
		<path class="st14" d="M230.5,608.4c0,0-102.5,61.2-95.7,104c6.7,42.8,182.9,140.9,204.2,157.4c21,16.3,28-59.1,38.3-99.4
			c0.3-1.1-0.3-2.4-1.4-2.9c-11.8-5.2-74.1-32.8-110.2-55.1c0,0,97.7-34.4,122.9-76.5c25.2-42.1,11.2-66.9,11.2-66.9
			S357.8,603.2,230.5,608.4z"/>
		<g>
			<g>
				<path class="st3" d="M99.4,302.4c0,0,8.9,18.7,14,16c5.1-2.5-1.3-14.3-7-18.8C100.7,295.1,99.4,302.4,99.4,302.4z"/>
				<path class="st3" d="M106.4,296.5c0,0,9.5,19.9,15,17.1c5.5-2.8-1.4-15.1-7.5-20C107.8,288.7,106.4,296.5,106.4,296.5z"/>
				<path class="st3" d="M113.3,290.5c0,0,10.1,20.5,15.8,17.7s-1.4-15.7-7.9-20.6C114.7,282.3,113.3,290.5,113.3,290.5z"/>
				<path class="st3" d="M120.5,283.5c0,0,10.4,21.6,16.4,18.7c6-2.9-1.5-16.5-8.1-21.9C122.1,274.9,120.5,283.5,120.5,283.5z"/>
			</g>
		</g>
		<path class="st15" d="M239.1,424.7c0,0,7.5,3.2,13.5-2.3"/>
		<path d="M247.4,412l-0.3-0.4c-0.5-0.6-0.4-1.4,0.3-1.9l5.2-3.9c0.6-0.5,1.4-0.4,1.9,0.3l0.3,0.4c0.5,0.6,0.4,1.4-0.3,1.9l-5.2,3.9
			C248.7,412.8,247.9,412.7,247.4,412z"/>
		<g>
			<g>
				<defs>
					<path id="SVGID_7_" d="M230.5,608.4c0,0-102.5,61.2-95.7,104c6.7,42.8,182.9,140.9,204.2,157.4c21,16.3,28-59.1,38.3-99.4
						c0.3-1.1-0.3-2.4-1.4-2.9c-11.8-5.2-74.1-32.8-110.2-55.1c0,0,97.7-34.4,122.9-76.5c25.2-42.1,11.2-66.9,11.2-66.9
						S357.8,603.2,230.5,608.4z"/>
				</defs>
				<clipPath id="SVGID_8_">
					<use xlink:href="#SVGID_7_"  style="overflow:visible;"/>
				</clipPath>
				<path class="st16" d="M430.1,576.5c0,0-114.3,48-199.6,31.9S450.3,528.7,430.1,576.5z"/>
			</g>
		</g>
		<g>
			<g>
				<defs>
					<path id="SVGID_9_" d="M371.1,800.1c0,0,40.1,9,43.4,20.1c3.4,11.1-28.3,121.3-75.6,151.1c-47.3,29.7,16.3-81.5,21.4-94.2
						s-2.9-19-2.9-19L371.1,800.1z"/>
				</defs>
				<clipPath id="SVGID_10_">
					<use xlink:href="#SVGID_9_"  style="overflow:visible;"/>
				</clipPath>
				<path class="st17" d="M357.4,858.1c0,0,31.8-34.5,34.7-51.9c2.9-17.4-21-6.1-21-6.1L357.4,858.1z"/>
			</g>
		</g>
		<path class="st15" d="M573.8,608c0,0-1.1-6.9-4.1-15.4"/>
		<path class="st15" d="M583,602.2c0,0-0.6-7.5-2.9-12.6"/>
		<path class="st15" d="M592.3,597.1c0,0-0.1-4.3-2.7-10.4"/>
		<polygon class="st3" points="552.1,583.5 547.5,595.7 554.4,592.5 		"/>
		<path d="M553.5,479.7c0,0-0.6,20.9-25.7,48c0,0,22.4-3.1,30.8-41.1L553.5,479.7z"/>
		<path d="M150.7,312.7l-35.4,41.4c0,0-2.4-3.3-2.8-11.6L150.7,312.7z"/>
		<g id="BAG">
			<path class="st18" d="M509.7,655.6l43.5,94.4c1.3,2.8,4.6,3.8,7.3,2.3l139.2-82.5c2.3-1.4,3.2-4.3,1.9-6.7l-43.9-84
				c-1.3-2.5-4.3-3.4-6.9-2.2L512,649C509.6,650.3,508.6,653.2,509.7,655.6z"/>
			<line class="st15" x1="519.4" y1="655.1" x2="652.2" y2="586.6"/>
			<line class="st15" x1="559.1" y1="741.7" x2="692" y2="664.8"/>
			<path d="M560.1,645.2c0,0,0.9,3.7,13.6,0.1c12.7-3.7,65.8-30.4,70.4-37.2c4.7-6.7-8.9-22.9-8.9-22.9l-6.4,3.3l-85.7,42.5
				L560.1,645.2z"/>
			<path class="st0" d="M619.6,564.6c-2.8-4.3-18.1,5.5-18.1,5.5l0,0l-1.8,1.3c0,0,11.5,24.2,7.4,27.5c-6.6,5.6-37.4,18.6-37.4,18.6
				c-16,2.4-14.4-20.9-15.3-25.2c-5.5,2.4-17.8,7.8-19.1,9.7c-2.2,3.2,10.2,44.9,24.8,43c14.6-1.9,75.7-30.8,75.1-40.3
				C634.6,595,625.6,574.2,619.6,564.6z"/>
			<g>
				<g>
					<defs>
						<path id="SVGID_11_" d="M509.7,655.6l43.5,94.4c1.3,2.8,4.6,3.8,7.3,2.3l139.2-82.5c2.3-1.4,3.2-4.3,1.9-6.7l-43.9-84
							c-1.3-2.5-4.3-3.4-6.9-2.2L512,649C509.6,650.3,508.6,653.2,509.7,655.6z"/>
					</defs>
					<clipPath id="SVGID_12_">
						<use xlink:href="#SVGID_11_"  style="overflow:visible;"/>
					</clipPath>
					<polygon class="st19" points="650.9,577 697,671.7 705.9,667.8 657.3,564.5 					"/>
				</g>
			</g>
		</g>
	</g>
	<g id="烟花">
		<path class="st20" d="M192.6,209.5c0,0-1.4-4,8.1-8.5s7.5-11.5,7.5-11.5l6.5,3c0,0-3.5,12-9.5,13s-6.5,8.5-6.5,8.5L192.6,209.5z"
			/>
		<path class="st21" d="M215.5,232.7c0,0,11.5-4,16,3.5s19.4,3,19.4,3v-7.6c0,0-12.5,8.4-17.7,0s-17.7-4.4-17.7-4.4L215.5,232.7
			L215.5,232.7z"/>
		<path class="st20" d="M238.5,256.5c0,0,7.5,2.7,9.5,11.7s2,13,6.5,14l4.3-4c0,0-4.3,3-5.3-6.5s-6-18.9-10.5-17L238.5,256.5z"/>
		<path class="st21" d="M245.9,300.3c0,0,3,2.7,0,9.5c-3,6.8,8,9.8,8,9.8l2.5-6.1c0,0-6,3.6-5.5-4.4s0-12.5,0-12.5L245.9,300.3z"/>
		<path class="st22" d="M285.9,228.8c0,0,0.4-22.5,33.1-22.5s49.2,1,56.2-12.2v-12.8c0,0-16.5,17.5-40.5,16.5s-69.5,13.5-61.2,31
			H285.9z"/>
		<path class="st23" d="M295,262.7c0,0,14.7-0.8,19.9,17.3s29.7,13,29.7,13l3.5-8.1c0,0-20.7,7.7-26.6-6
			c-5.9-13.8-26.6-20.3-26.6-20.3v4.1H295z"/>
		<path class="st22" d="M172.9,188.5c0,0-33.4-40.2-19.7-47.9C167,132.8,161.9,165.4,172.9,188.5z"/>
	</g>
</g>
</svg>
