<svg xmlns="http://www.w3.org/2000/svg" xmlns:xlink="http://www.w3.org/1999/xlink" viewBox="0 0 233.13 90.19"><defs><style>.cls-1{opacity:0.2;}.cls-2{fill:url(#未命名的渐变_183);}.cls-3{fill:url(#未命名的渐变_141);}.cls-4{fill:url(#未命名的渐变_141-2);}</style><linearGradient id="未命名的渐变_183" x1="86.99" y1="9.27" x2="142.77" y2="9.27" gradientUnits="userSpaceOnUse"><stop offset="0" stop-color="#c9f381"/><stop offset="0.26" stop-color="#8ce373"/><stop offset="0.5" stop-color="#5ad567"/><stop offset="0.72" stop-color="#36cc5f"/><stop offset="0.89" stop-color="#20c65a"/><stop offset="1" stop-color="#18c458"/></linearGradient><linearGradient id="未命名的渐变_141" x1="718.66" y1="30.28" x2="788.29" y2="30.28" gradientTransform="matrix(-1, 0, 0, 1, 951.79, 0)" gradientUnits="userSpaceOnUse"><stop offset="0" stop-color="#54c882"/><stop offset="0.23" stop-color="#47c57f"/><stop offset="0.7" stop-color="#31c07b"/><stop offset="1" stop-color="#29be79"/></linearGradient><linearGradient id="未命名的渐变_141-2" x1="0" y1="57.3" x2="155.62" y2="57.3" gradientTransform="matrix(1, 0, 0, 1, 0, 0)" xlink:href="#未命名的渐变_141"/></defs><g id="图层_2" data-name="图层 2"><g id="图层_1-2" data-name="图层 1"><path class="cls-1" d="M142.1,12.73a13.14,13.14,0,0,1-4.35,4.36l-.31.18c-3.27,2-7.23,2.86-10.55,3.46-1.48.27-3,.48-4.47.63l-.27,0a63.51,63.51,0,0,1-8.5.22h-.23a74.65,74.65,0,0,1-8.29-.86c-1.74-.28-3.5-.58-5.25-1l-.37-.09a37,37,0,0,1-7.41-2.46c-1.85-.86-4.95-2.53-5.11-5.2v-.27a3.54,3.54,0,0,1,.16-1c.68-2.38,3.31-4.43,6.94-6.06l.37-.17a53.18,53.18,0,0,1,11.05-3.23l.29-.06A72.28,72.28,0,0,1,115.31.07h.23c1.38-.06,2.71-.08,3.95,0a43.09,43.09,0,0,1,8,.9l.32.07C133,2.17,135,4.1,135.23,5c.28,1.33-3.44,1.33-4.58,2-.57.34-.71.75-.56,1.06a.72.72,0,0,0,.19.25,1.37,1.37,0,0,0,1,.21C137,7.85,145.18,7.56,142.1,12.73Z"/><path class="cls-2" d="M142.1,10.89a12.27,12.27,0,0,1-4.35,3.73l-.31.16a35.61,35.61,0,0,1-10.55,3c-1.48.23-3,.41-4.47.53l-.27,0a73.1,73.1,0,0,1-8.5.19h-.23c-2.77-.11-5.54-.36-8.29-.73-1.74-.24-3.5-.5-5.25-.84l-.37-.07a41.84,41.84,0,0,1-7.41-2.11C90.25,14,87.15,12.57,87,10.29v-.23a2.66,2.66,0,0,1,.16-.89c.68-2,3.31-3.78,6.94-5.19l.37-.14a60.88,60.88,0,0,1,11.05-2.76L105.8,1a85.18,85.18,0,0,1,9.51-1h.23c1.38,0,2.71-.07,3.95,0a50.67,50.67,0,0,1,8,.77,3,3,0,0,1,.32.06c5.15,1,7.19,2.66,7.39,3.46.28,1.14-3.44,1.14-4.58,1.72-.57.28-.71.63-.56.9a.54.54,0,0,0,.19.21,1.6,1.6,0,0,0,1,.19C137,6.71,145.18,6.46,142.1,10.89Z"/><path class="cls-1" d="M137.75,14.62,115.52,9.21l14.76-2.07a.54.54,0,0,1-.19-.21L115.4,9,127.84.85a3,3,0,0,0-.32-.06L115,9l.51-8.9h-.23l-.5,8.87-9-7.9-.29.05,9,7.87-20-5.11L94.09,4l20,5.11L87,10.06v.23l27.4-1L99.51,16.84l.37.07,14.88-7.53-1.34,9.1h.23l1.33-9,7.17,8.85.27,0-7.21-8.9.13,0h0l22.11,5.38Z"/><path class="cls-1" d="M164.34,34.16a16.11,16.11,0,0,0,5.43,5.28l.39.23c4.08,2.39,9,3.46,13.16,4.2q2.79.5,5.58.76l.35,0a79.85,79.85,0,0,0,10.6.27h.29a95,95,0,0,0,10.35-1c2.17-.34,4.36-.71,6.55-1.19l.46-.1a48,48,0,0,0,9.25-3c2.31-1,6.18-3.07,6.37-6.31,0-.11,0-.22,0-.33a4.84,4.84,0,0,0-.2-1.25c-.85-2.89-4.13-5.37-8.66-7.36l-.47-.2A68,68,0,0,0,210,20.24l-.37-.07a93.78,93.78,0,0,0-11.87-1.37h-.28c-1.73-.08-3.39-.1-4.93-.06a56.23,56.23,0,0,0-10,1.1l-.4.08c-6.43,1.43-9,3.77-9.22,4.91-.36,1.63,4.28,1.63,5.71,2.44.71.4.89.9.71,1.29a1.11,1.11,0,0,1-.25.29,1.73,1.73,0,0,1-1.27.26C170.71,28.23,160.5,27.88,164.34,34.16Z"/><path class="cls-3" d="M164.34,32.31A15.47,15.47,0,0,0,169.77,37l.39.2c4.08,2.1,9,3.05,13.16,3.69q2.79.43,5.58.67l.35,0a91.5,91.5,0,0,0,10.6.24h.29c3.46-.13,6.91-.45,10.35-.92,2.17-.29,4.36-.62,6.55-1l.46-.09a52.3,52.3,0,0,0,9.25-2.63c2.31-.92,6.18-2.7,6.37-5.55a2.71,2.71,0,0,0,0-.29,3.77,3.77,0,0,0-.2-1.1c-.85-2.55-4.13-4.73-8.66-6.48l-.47-.18A75.18,75.18,0,0,0,210,20.06l-.37-.06a105,105,0,0,0-11.87-1.21h-.28c-1.73-.07-3.39-.09-4.93-.05a63.24,63.24,0,0,0-10,1l-.4.08c-6.43,1.26-9,3.32-9.22,4.32-.36,1.43,4.28,1.43,5.71,2.14.71.36.89.8.71,1.14a.85.85,0,0,1-.25.25,1.9,1.9,0,0,1-1.27.24C170.71,27.09,160.5,26.78,164.34,32.31Z"/><path class="cls-1" d="M169.77,37l27.75-6.76-18.43-2.58a.85.85,0,0,0,.25-.25l18.32,2.56L182.14,19.77l.4-.08,15.58,10.2-.62-11.11h.28l.63,11.07L209.65,20l.37.06-11.19,9.82,25-6.38.47.18-25,6.38,33.85,1.2a2.71,2.71,0,0,1,0,.29l-34.19-1.22,18.57,9.4-.46.09-18.58-9.4,1.68,11.36h-.29l-1.66-11.28-8.94,11-.35,0,9-11.11-.16,0h0l-27.59,6.72Z"/><path class="cls-1" d="M153.75,66a36.14,36.14,0,0,1-12.14,11.81l-.86.51c-9.12,5.34-20.16,7.74-29.43,9.38q-6.21,1.1-12.47,1.69l-.77.09a180.31,180.31,0,0,1-23.7.59l-.65,0a211.73,211.73,0,0,1-23.12-2.33c-4.86-.75-9.76-1.58-14.64-2.64-.34-.09-.69-.16-1-.23a106.62,106.62,0,0,1-20.68-6.68C9.11,75.81.45,71.28,0,64.05a4.45,4.45,0,0,1,0-.73,10.08,10.08,0,0,1,.43-2.79c1.9-6.48,9.25-12,19.37-16.46.34-.16.7-.31,1.05-.45a150.85,150.85,0,0,1,30.8-8.76l.82-.15A207.32,207.32,0,0,1,79,31.64l.64,0c3.85-.17,7.56-.21,11-.11a124.31,124.31,0,0,1,22.4,2.44c.31.05.61.12.9.19,14.38,3.2,20.05,8.42,20.61,11,.8,3.63-9.58,3.63-12.77,5.45-1.59.89-2,2-1.58,2.87a2,2,0,0,0,.55.66,3.87,3.87,0,0,0,2.86.58C139.51,52.72,162.34,51.93,153.75,66Z"/><path class="cls-4" d="M153.75,61.83a34.54,34.54,0,0,1-12.14,10.4c-.29.16-.58.31-.86.44-9.12,4.71-20.16,6.82-29.43,8.26q-6.21,1-12.47,1.49l-.77.08a203.73,203.73,0,0,1-23.7.51h-.65c-7.73-.3-15.44-1-23.12-2-4.86-.66-9.76-1.39-14.64-2.33l-1-.2a117.19,117.19,0,0,1-20.68-5.87C9.11,70.49.45,66.51,0,60.14a3.41,3.41,0,0,1,0-.64A8,8,0,0,1,.44,57c1.9-5.7,9.25-10.57,19.37-14.48.34-.14.7-.28,1.05-.4a167.34,167.34,0,0,1,30.8-7.71l.82-.13A235.32,235.32,0,0,1,79,31.62l.64,0c3.85-.15,7.56-.19,11-.1a140.29,140.29,0,0,1,22.4,2.15l.9.16c14.38,2.82,20.05,7.42,20.61,9.67.8,3.19-9.58,3.19-12.77,4.79-1.59.79-2,1.78-1.58,2.53a1.75,1.75,0,0,0,.55.57,4.25,4.25,0,0,0,2.86.52C139.51,50.17,162.34,49.48,153.75,61.83Z"/><path class="cls-1" d="M141.61,72.23l-62-15.1,41.19-5.77a1.75,1.75,0,0,1-.55-.57l-41,5.73L114,33.8l-.9-.16L78.24,56.43l1.41-24.84-.64,0-1.4,24.75-25.13-22-.82.13,25,21.95L20.86,42.16c-.35.12-.71.26-1.05.4L75.67,56.8,0,59.5a3.41,3.41,0,0,0,0,.64l76.43-2.73-41.51,21,1,.2,41.51-21L73.73,83h.65l3.72-25.2,20,24.69.77-.08L78.75,57.59l.35.09,0,0,61.67,15C141,72.54,141.32,72.39,141.61,72.23Z"/></g></g></svg>