<?xml version="1.0" encoding="utf-8"?>
<!-- Generator: Adobe Illustrator 22.0.0, SVG Export Plug-In . SVG Version: 6.00 Build 0)  -->
<svg version="1.1" id="图层_1" xmlns="http://www.w3.org/2000/svg" xmlns:xlink="http://www.w3.org/1999/xlink" x="0px" y="0px"
	 viewBox="0 0 750 1125" style="enable-background:new 0 0 750 1125;" xml:space="preserve">
<style type="text/css">
	.st0{fill:none;stroke:#1D1D1D;stroke-width:2;stroke-linecap:round;stroke-linejoin:round;stroke-miterlimit:10;}
	
		.st1{clip-path:url(#SVGID_4_);fill:#96423E;stroke:#000000;stroke-width:2;stroke-linecap:round;stroke-linejoin:round;stroke-miterlimit:10;}
	.st2{fill:#FFFFFF;stroke:#000000;stroke-width:2;stroke-miterlimit:10;}
	.st3{fill:#96423E;stroke:#000000;stroke-width:2;stroke-linecap:round;stroke-linejoin:round;stroke-miterlimit:10;}
	.st4{fill:#E2A047;stroke:#000000;stroke-width:2;stroke-linecap:round;stroke-linejoin:round;stroke-miterlimit:10;}
	.st5{fill:#700918;stroke:#1D1D1D;stroke-width:2;stroke-linecap:round;stroke-linejoin:round;stroke-miterlimit:10;}
	.st6{fill:#EFA852;stroke:#000000;stroke-width:2;stroke-linecap:round;stroke-linejoin:round;stroke-miterlimit:10;}
	.st7{fill:#FFDB1B;stroke:#000000;stroke-width:2;stroke-linecap:round;stroke-linejoin:round;stroke-miterlimit:10;}
	.st8{fill:#EA9939;stroke:#000000;stroke-width:2;stroke-linecap:round;stroke-linejoin:round;stroke-miterlimit:10;}
	.st9{fill:#D4DB1B;stroke:#000000;stroke-width:2;stroke-linecap:round;stroke-linejoin:round;stroke-miterlimit:10;}
	.st10{fill:#E84D6B;stroke:#1D1D1D;stroke-width:2;stroke-linecap:round;stroke-linejoin:round;stroke-miterlimit:10;}
	.st11{fill:#B4A3F9;stroke:#000000;stroke-width:2;stroke-linecap:round;stroke-linejoin:round;stroke-miterlimit:10;}
</style>
<g>
	<path class="st0" d="M480.1,556.3c-3.5-8.8-45.4-15.7-96.6-15.7c-53.5,0-96.9,7.6-96.9,17c0,0.6,0.2,1.2,0.6,1.8v382.4
		c0,1.5,1,2.9,2.5,3.3C355,962.6,418,964.2,478,945.1c1.4-0.4,2.4-1.8,2.4-3.2l0-385.7C480.3,556.3,480.2,556.3,480.1,556.3z"/>
	<g>
		<g>
			<defs>
				<path id="SVGID_1_" d="M480.1,556.3c-3.5-8.8-45.4-15.7-96.6-15.7c-53.5,0-96.9,7.6-96.9,17c0,0.6,0.2,1.2,0.6,1.8v382.4
					c0,1.5,1,2.9,2.5,3.3C355,962.6,418,964.2,478,945.1c1.4-0.4,2.4-1.8,2.4-3.2l0-385.7C480.3,556.3,480.2,556.3,480.1,556.3z"/>
			</defs>
			<clipPath id="SVGID_2_">
				<use xlink:href="#SVGID_1_"  style="overflow:visible;"/>
			</clipPath>
		</g>
		<g>
			<defs>
				<path id="SVGID_3_" d="M480.1,556.3c-3.5-8.8-45.4-15.7-96.6-15.7c-53.5,0-96.9,7.6-96.9,17c0,0.6,0.2,1.2,0.6,1.8v382.4
					c0,1.5,1,2.9,2.5,3.3C355,962.6,418,964.2,478,945.1c1.4-0.4,2.4-1.8,2.4-3.2l0-385.7C480.3,556.3,480.2,556.3,480.1,556.3z"/>
			</defs>
			<use xlink:href="#SVGID_3_"  style="overflow:visible;fill:#DB5D53;"/>
			<clipPath id="SVGID_4_">
				<use xlink:href="#SVGID_3_"  style="overflow:visible;"/>
			</clipPath>
			<path class="st1" d="M286.7,914.7c0,0,100.3,35.6,193.7,0l10.6,44.1c0,0-189.6,22-211.1-6.2C258.4,924.3,286.7,914.7,286.7,914.7
				z"/>
			
				<use xlink:href="#SVGID_3_"  style="overflow:visible;fill:none;stroke:#000000;stroke-width:2;stroke-linecap:round;stroke-linejoin:round;stroke-miterlimit:10;"/>
		</g>
		<g>
			<defs>
				<path id="SVGID_5_" d="M480.1,556.3c-3.5-8.8-45.4-15.7-96.6-15.7c-53.5,0-96.9,7.6-96.9,17c0,0.6,0.2,1.2,0.6,1.8v382.4
					c0,1.5,1,2.9,2.5,3.3C355,962.6,418,964.2,478,945.1c1.4-0.4,2.4-1.8,2.4-3.2l0-385.7C480.3,556.3,480.2,556.3,480.1,556.3z"/>
			</defs>
			<clipPath id="SVGID_6_">
				<use xlink:href="#SVGID_5_"  style="overflow:visible;"/>
			</clipPath>
		</g>
	</g>
	<g>
		<path class="st2" d="M347.9,748c0,0,34.1-16.9,72.1,0l26.7,26.9l-31.3,53.2h-67.5l-35.3-53.5L347.9,748z"/>
		<path class="st3" d="M290.6,711.8c0,0-16.6,58.8,22,62.8c38.6,4,35.3-26.6,35.3-26.6s-32.6,5.4-45.9-36.2H290.6z"/>
		<path class="st3" d="M477.2,711.8c0,0,16.6,58.8-22,62.8c-38.6,4-35.3-26.6-35.3-26.6s32.6,5.4,45.9-36.2H477.2z"/>
		<path d="M386.8,740.6c0,0-10.1,49.1,42.1,64.7l17.8-30.3L420,748C420,748,399.1,740.1,386.8,740.6z"/>
		<circle cx="356.4" cy="786.5" r="5.2"/>
		<circle class="st2" cx="398.4" cy="786.5" r="5.2"/>
		<path class="st4" d="M356.4,828.1c0,0-6.9-18.6,23.8-18.6c29.7,0,23.5,18.6,23.5,18.6H356.4z"/>
		<circle class="st2" cx="370.3" cy="821.4" r="5.2"/>
		<circle class="st2" cx="390.2" cy="822.9" r="5.2"/>
	</g>
	<ellipse class="st5" cx="383.5" cy="557.5" rx="96.9" ry="17"/>
	<path class="st6" d="M288.3,688.1c0,0,89.6,35.6,192,0l0-28.3c0,0-71.1,32.8-192,0V688.1z"/>
	<path class="st6" d="M288.3,612.9c0,0,89.6,35.6,192,0l0-28.3c0,0-71.1,32.8-192,0V612.9z"/>
	<path class="st7" d="M267.4,556.2c0,0-263.4-189.2-230.6-236.6S256.1,520.5,267.4,556.2z"/>
	<path class="st8" d="M392.8,557.5c0,0-54.9-353.5-9-342.4S401.8,515.9,392.8,557.5z"/>
	<path class="st9" d="M491,529.8c0,0,122.3-250.9,218.1-228.9C804.9,323,561.9,367.1,491,529.8z"/>
	<path class="st10" d="M277.6,455.2c0,0-59.1-128.4-135.6-195s23.7-71.2,67.8,0S277.6,455.2,277.6,455.2z"/>
	<path class="st11" d="M431.8,556.2c0,0-3.3-101,30.6-101S427.4,516.4,431.8,556.2z"/>
</g>
</svg>
