
<svg xmlns="http://www.w3.org/2000/svg" version="1.1" xmlns:xlink="http://www.w3.org/1999/xlink" preserveAspectRatio="none" x="0px" y="0px" width="1024px" height="1024px" viewBox="0 0 1024 1024">
<defs>
<g id="Layer0_0_MEMBER_0_FILL">
<path fill="#1D1D1B" fill-opacity="0.09803921568627451" stroke="none" d="
M 43.6 2.8
Q 61.8 2.8 74.45 2.4 87.2 2 87.2 1.4 87.2 0.8 74.45 0.4 61.8 0 43.6 0 25.4 0 12.75 0.4 0 0.8 0 1.4 0 2 12.75 2.4 25.4 2.8 43.6 2.8 Z"/>
</g>

<g id="Layer0_0_MEMBER_1_MEMBER_0_FILL">
<path fill="#614F49" stroke="none" d="
M 198.7 105.35
L 198.3 106.25 200.5 107.15 200.85 106.3 198.7 105.35 Z"/>
</g>

<g id="Layer0_0_MEMBER_1_MEMBER_1_FILL">
<path fill="#614F49" stroke="none" d="
M 196.9 107.75
Q 196.7 108.2 197.15 108.3 197.6 108.5 197.7 108.1
L 199.35 103.85
Q 199.55 103.5 199.1 103.3 198.75 103.1 198.55 103.55
L 196.9 107.75 Z"/>
</g>

<g id="Layer0_0_MEMBER_2_FILL">
<path fill="#614F49" stroke="none" d="
M 176.05 103.25
L 179 114.05 183.5 114.05 180.6 103.45
Q 180.4 102.65 179.75 102.15 179.1 101.65 178.25 101.65
L 177.3 101.65
Q 176.65 101.65 176.3 102.15 175.9 102.65 176.05 103.25 Z"/>
</g>

<g id="Layer0_0_MEMBER_3_FILL">
<path fill="#22395A" stroke="none" d="
M 230 107.9
Q 226.9 107.05 209.9 106.1 203.85 102 201.9 100.85 199.4 99.4 197.9 99.3 197.3 99.3 197.05 99.35
L 203.75 106.35 176.5 104.85 175.8 101.65 168.45 103.7 155.55 104.65
Q 152.55 104.8 151.25 105.8 150.3 106.5 150.4 107.4
L 150.45 107.85 150.45 108.15 151 112.95 151 113.05 151.05 113.4 151.05 113.7 151.15 114.7 151.35 115.55
Q 152 117.45 153.85 118
L 158.15 119.45 234 119.45
Q 235.5 119.45 236 118
L 236.5 116.35
Q 236.85 109.7 230 107.9 Z"/>
</g>

<g id="Layer0_0_MEMBER_4_FILL">
<path fill="#F9B659" stroke="none" d="
M 230.85 108.7
Q 230.6 108.6 230.4 108.8 230.25 109 230.4 109.25 231.65 111.15 231.9 112.5 232.25 113.9 233.7 114
L 234.75 114
Q 235.1 114.05 235.3 113.75 235.5 113.5 235.4 113.2 234.9 111.3 233.75 110.3 232.8 109.4 230.85 108.7 Z"/>
</g>

<g id="Layer0_0_MEMBER_5_MEMBER_0_FILL">
<path fill="#122237" stroke="none" d="
M 203.55 116.5
L 203.75 106.35 176.5 104.85 177.15 111.2
Q 177.5 114.05 179.6 115.95 181.75 117.85 184.6 117.85
L 202.15 117.85
Q 202.7 117.85 203.1 117.45 203.5 117.05 203.55 116.5 Z"/>
</g>

<g id="Layer0_0_MEMBER_6_FILL">
<path fill="#1D1715" stroke="none" d="
M 214.85 112.2
Q 212.7 114.35 212.7 117.45
L 212.7 119.45 227.5 119.45 227.5 117.45
Q 227.5 114.65 225.7 112.6 223.95 110.5 221.25 110.1
L 220.1 110
Q 217.05 110 214.85 112.2 Z"/>
</g>

<g id="Layer0_0_MEMBER_7_FILL">
<path fill="#1D1715" stroke="none" d="
M 167.25 110.1
L 166.1 110
Q 163.05 110 160.85 112.2 158.7 114.35 158.7 117.45
L 158.7 119.45 173.5 119.45 173.5 117.45
Q 173.5 114.65 171.7 112.6 169.95 110.5 167.25 110.1 Z"/>
</g>

<g id="Layer0_0_MEMBER_8_FILL">
<path fill="#DAD1D1" stroke="none" d="
M 178.3 106.5
Q 178.05 106.7 178.05 107 178.05 107.75 178.75 107.75
L 181.5 107.85
Q 182.25 107.85 182.25 107.15 182.3 106.85 182.05 106.65 181.85 106.4 181.55 106.4
L 178.8 106.3
Q 178.5 106.25 178.3 106.5 Z"/>
</g>

<g id="Layer0_0_MEMBER_9_FILL">
<path fill="#4AA2B7" stroke="none" d="
M 232.8 116.35
Q 231.5 116.35 231.05 117.65
L 230.5 119.45 234 119.45
Q 235.5 119.45 236 118
L 236.5 116.35 232.8 116.35 Z"/>
</g>

<g id="Layer0_0_MEMBER_10_FILL">
<path fill="#FFFFFF" stroke="none" d="
M 233.05 118.3
L 234.75 118.3 234.9 117.55 233.5 117.55
Q 233.2 117.55 233.1 118
L 233.05 118.3 Z"/>
</g>

<g id="Layer0_0_MEMBER_11_FILL">
<path fill="#4AA2B7" stroke="none" d="
M 154.55 115.55
L 151.35 115.55
Q 152 117.45 153.85 118
L 158.15 119.45 157.8 117.8
Q 157.6 116.8 156.65 116.2 155.75 115.55 154.55 115.55 Z"/>
</g>

<g id="Layer0_0_MEMBER_12_FILL">
<path fill="#FFFFFF" stroke="none" d="
M 151 107.85
L 150.45 107.85 150.45 108.15 151 112.95 151 113.05 151.05 113.4 151.05 113.7 151.3 113.7
Q 152 113.7 152.35 113.25 152.75 112.8 152.65 112.15
L 152.35 108.9
Q 152.1 107.85 151 107.85 Z"/>
</g>

<g id="Layer0_0_MEMBER_13_FILL">
<path fill="#C44645" stroke="none" d="
M 151 108.15
L 150.45 108.15 151 112.95 151 113.05 151.05 113.4 151.35 113.4
Q 151.85 113.4 152.15 113 152.45 112.65 152.35 112.15
L 152.05 109
Q 151.9 108.15 151 108.15 Z"/>
</g>

<g id="Layer0_0_MEMBER_14_FILL">
<path fill="#122237" stroke="none" d="
M 204.45 106.5
Q 204.3 105.8 203.95 105.1 203.55 104.25 203.1 104.1
L 202.6 107.65 202.9 107.65
Q 203.7 107.55 204 107.4 204.55 107.1 204.45 106.5 Z"/>
</g>

<g id="Layer0_0_MEMBER_15_FILL">
<path fill="#ABEDE3" stroke="none" d="
M 206.2 106.1
L 209.9 106.1
Q 201.8 100.7 199.95 99.85
L 199 99.85
Q 198.9 99.85 198.85 99.95 198.8 100.05 198.9 100.15
L 206.2 106.1 Z"/>
</g>

<g id="Layer0_0_MEMBER_16_MEMBER_0_FILL">
<path fill="#122237" stroke="none" d="
M 167.65 103.8
L 166.6 103.85 166.7 105.05
Q 166.7 105.65 167.25 105.55 167.75 105.55 167.75 105
L 167.75 104.95 167.65 103.8 Z"/>
</g>

<g id="Layer0_0_MEMBER_16_MEMBER_1_FILL">
<path fill="#122237" stroke="none" d="
M 165.95 103.9
L 164.85 104 164.95 105.2
Q 164.95 105.7 165.55 105.7 166 105.6 166 105.15
L 165.95 103.9 Z"/>
</g>

<g id="Layer0_0_MEMBER_16_MEMBER_2_FILL">
<path fill="#122237" stroke="none" d="
M 164.2 104
L 163.1 104.1 163.2 105.35
Q 163.3 105.85 163.8 105.85 164.3 105.75 164.3 105.3
L 164.3 105.25 164.2 104 Z"/>
</g>

<g id="Layer0_0_MEMBER_16_MEMBER_3_FILL">
<path fill="#122237" stroke="none" d="
M 162.55 105.4
L 162.45 104.15 161.35 104.2 161.45 105.45
Q 161.55 106.05 162.05 105.95 162.55 105.95 162.55 105.45
L 162.55 105.4 Z"/>
</g>

<g id="Layer0_0_MEMBER_16_MEMBER_4_FILL">
<path fill="#122237" stroke="none" d="
M 160.7 104.25
L 159.65 104.35 159.75 105.6
Q 159.75 106.2 160.3 106.1 160.8 106.1 160.8 105.55
L 160.7 104.25 Z"/>
</g>

<g id="Layer0_0_MEMBER_16_MEMBER_5_FILL">
<path fill="#122237" stroke="none" d="
M 158.95 104.4
L 157.9 104.45 158 105.75
Q 158 106.25 158.55 106.25 159.05 106.15 159.05 105.7
L 159.05 105.65 158.95 104.4 Z"/>
</g>

<g id="Layer0_0_MEMBER_17_FILL">
<path fill="#000000" fill-opacity="0.2" stroke="none" d="
M 85.75 5.35
L 85.75 4.6 0 0 0.05 0.2 0.25 1.95 0.25 2.05 0.3 2.4 0.3 2.7 0.4 3.7 0.6 4.55
Q 1.25 6.45 3.1 7
L 7.4 8.45 83.25 8.45
Q 83.7 8.45 84.05 8.3 84.9 8 85.25 7
L 85.75 5.35 Z"/>
</g>

<g id="Layer0_0_MEMBER_18_MEMBER_0_FILL">
<path fill="#F6F6F6" stroke="none" d="
M 222.75 117.55
Q 222.75 116.45 221.95 115.7 221.2 114.9 220.1 114.9 219 114.9 218.25 115.7 217.5 116.45 217.5 117.55 217.5 118.65 218.25 119.4 219 120.2 220.1 120.2 221.2 120.2 221.95 119.4 222.75 118.65 222.75 117.55 Z"/>
</g>

<g id="Layer0_0_MEMBER_18_MEMBER_1_FILL">
<path fill="#1D1715" stroke="none" d="
M 224.75 122.2
Q 226.7 120.3 226.7 117.55 226.7 114.8 224.75 112.9 222.85 110.95 220.1 110.95 217.35 110.95 215.45 112.9 213.5 114.8 213.5 117.55 213.5 120.3 215.45 122.2 217.35 124.15 220.1 124.15 222.85 124.15 224.75 122.2
M 224.6 117.55
Q 224.6 119.4 223.3 120.7 221.95 122.05 220.1 122.05 218.25 122.05 216.95 120.7 215.6 119.4 215.6 117.55 215.6 115.7 216.95 114.35 218.25 113.05 220.1 113.05 222 113.05 223.3 114.35 224.6 115.7 224.6 117.55 Z"/>
</g>

<g id="Layer0_0_MEMBER_18_MEMBER_2_FILL">
<path fill="#DAD1D1" stroke="none" d="
M 223.4 120.85
Q 224.75 119.45 224.75 117.55 224.75 115.65 223.4 114.25 222 112.9 220.1 112.9 218.2 112.9 216.8 114.25 215.45 115.65 215.45 117.55 215.45 119.45 216.8 120.85 218.2 122.2 220.1 122.2 222 122.2 223.4 120.85
M 224.3 118.05
Q 224.15 119.2 223.45 120.15
L 222.55 119.25
Q 222.9 118.8 223.05 118.05
L 224.3 118.05
M 224.3 117
L 223.05 117
Q 222.9 116.3 222.55 115.85
L 223.4 114.95
Q 224.15 115.85 224.3 117
M 220.6 113.35
Q 221.75 113.5 222.7 114.2
L 221.8 115.1
Q 221.35 114.75 220.6 114.6
L 220.6 113.35
M 219.6 114.6
Q 218.9 114.75 218.4 115.1
L 217.5 114.2
Q 218.45 113.5 219.6 113.35
L 219.6 114.6
M 217.95 116.15
Q 218.25 115.7 218.7 115.4 219.2 115.1 219.6 115.05
L 220.1 115 220.6 115.05
Q 221 115.1 221.5 115.4 221.95 115.7 222.25 116.15 222.55 116.65 222.6 117
L 222.65 117.55 222.6 118.05
Q 222.55 118.5 222.25 118.95 221.95 119.4 221.5 119.7 221 120 220.6 120.05
L 220.1 120.1 219.6 120.05
Q 219.2 120 218.7 119.7 218.25 119.4 217.95 118.95 217.65 118.5 217.6 118.05
L 217.55 117.55 217.6 117
Q 217.65 116.65 217.95 116.15
M 216.8 114.95
L 217.65 115.85
Q 217.25 116.55 217.2 117
L 215.9 117
Q 216.05 115.95 216.8 114.95
M 215.9 118.05
L 217.15 118.05
Q 217.3 118.8 217.65 119.25
L 216.75 120.15
Q 216.05 119.2 215.9 118.05
M 220.6 120.5
Q 221.35 120.35 221.8 120
L 222.7 120.85
Q 221.8 121.6 220.6 121.75
L 220.6 120.5
M 218.4 120
Q 218.9 120.35 219.6 120.5
L 219.6 121.75
Q 218.4 121.6 217.5 120.85
L 218.4 120 Z"/>
</g>

<g id="Layer0_0_MEMBER_19_MEMBER_0_FILL">
<path fill="#F6F6F6" stroke="none" d="
M 168.65 117.55
Q 168.65 116.45 167.9 115.7 167.1 114.9 166 114.9 164.9 114.9 164.15 115.7 163.4 116.45 163.4 117.55 163.4 118.65 164.15 119.4 164.9 120.2 166 120.2 167.1 120.2 167.9 119.4 168.65 118.65 168.65 117.55 Z"/>
</g>

<g id="Layer0_0_MEMBER_19_MEMBER_1_FILL">
<path fill="#1D1715" stroke="none" d="
M 172.6 117.55
Q 172.6 114.8 170.65 112.9 168.75 110.95 166 110.95 163.3 110.95 161.4 112.9 159.45 114.8 159.45 117.55 159.45 120.3 161.4 122.2 163.3 124.15 166 124.15 168.75 124.15 170.65 122.2 172.6 120.3 172.6 117.55
M 166 122.05
Q 164.15 122.05 162.85 120.7 161.55 119.4 161.55 117.55 161.55 115.7 162.85 114.35 164.15 113.05 166 113.05 167.9 113.05 169.2 114.35 170.5 115.7 170.5 117.55 170.5 119.4 169.2 120.7 167.85 122.05 166 122.05 Z"/>
</g>

<g id="Layer0_0_MEMBER_19_MEMBER_2_FILL">
<path fill="#DAD1D1" stroke="none" d="
M 170.65 117.55
Q 170.65 115.65 169.3 114.25 167.95 112.9 166 112.9 164.1 112.9 162.75 114.25 161.4 115.65 161.4 117.55 161.4 119.45 162.75 120.85 164.1 122.2 166 122.2 167.95 122.2 169.3 120.85 170.65 119.45 170.65 117.55
M 168.45 115.85
L 169.35 114.95
Q 170.05 115.9 170.2 117
L 168.95 117
Q 168.8 116.3 168.45 115.85
M 167.4 115.4
Q 167.85 115.7 168.15 116.15 168.4 116.5 168.5 117
L 168.6 117.55 168.55 118.05
Q 168.3 118.75 168.15 118.95 167.95 119.4 167.45 119.7 166.85 120 166.55 120.05
L 166 120.1 165.5 120.05
Q 165.2 120 164.6 119.7 164.1 119.4 163.9 118.95 163.75 118.75 163.5 118.05
L 163.45 117.55 163.5 117
Q 163.7 116.4 163.9 116.15 164.2 115.7 164.65 115.4 165.15 115.1 165.5 115.05
L 166 115 166.55 115.05
Q 166.9 115.1 167.4 115.4
M 168.6 114.2
L 167.7 115.1
Q 167.25 114.75 166.55 114.6
L 166.55 113.35
Q 167.65 113.5 168.6 114.2
M 162.7 114.95
L 163.6 115.85
Q 163.25 116.3 163.1 117
L 161.85 117
Q 162 115.9 162.7 114.95
M 165.5 113.35
L 165.5 114.6
Q 164.8 114.75 164.35 115.1
L 163.45 114.2
Q 164.4 113.5 165.5 113.35
M 163.1 118.05
Q 163.15 118.65 163.6 119.25
L 162.7 120.15
Q 162 119.2 161.85 118.05
L 163.1 118.05
M 163.4 120.85
L 164.3 120
Q 164.8 120.35 165.5 120.5
L 165.5 121.75
Q 164.3 121.6 163.4 120.85
M 166.55 121.75
L 166.55 120.5
Q 167.3 120.35 167.75 120
L 168.65 120.85
Q 167.75 121.6 166.55 121.75
M 169.35 120.15
L 168.45 119.25
Q 168.9 118.65 168.95 118.05
L 170.2 118.05
Q 170.05 119.2 169.35 120.15 Z"/>
</g>
</defs>

<g transform="matrix( 10, 0, 0, 10, 75.7,615.25) ">
<use xlink:href="#Layer0_0_MEMBER_0_FILL"/>
</g>

<g transform="matrix( 10, 0, 0, 10, -1416.8,-612.25) ">
<use xlink:href="#Layer0_0_MEMBER_1_MEMBER_0_FILL"/>
</g>

<g transform="matrix( 10, 0, 0, 10, -1416.8,-612.25) ">
<use xlink:href="#Layer0_0_MEMBER_1_MEMBER_1_FILL"/>
</g>

<g transform="matrix( 10, 0, 0, 10, -1416.8,-612.25) ">
<use xlink:href="#Layer0_0_MEMBER_2_FILL"/>
</g>

<g transform="matrix( 10, 0, 0, 10, -1416.8,-612.25) ">
<use xlink:href="#Layer0_0_MEMBER_3_FILL"/>
</g>

<g transform="matrix( 10, 0, 0, 10, -1416.8,-612.25) ">
<use xlink:href="#Layer0_0_MEMBER_4_FILL"/>
</g>

<g transform="matrix( 10, 0, 0, 10, -1416.8,-612.25) ">
<use xlink:href="#Layer0_0_MEMBER_5_MEMBER_0_FILL"/>
</g>

<g transform="matrix( 10, 0, 0, 10, -1416.8,-612.25) ">
<use xlink:href="#Layer0_0_MEMBER_6_FILL"/>
</g>

<g transform="matrix( 10, 0, 0, 10, -1416.8,-612.25) ">
<use xlink:href="#Layer0_0_MEMBER_7_FILL"/>
</g>

<g transform="matrix( 10, 0, 0, 10, -1416.8,-612.25) ">
<use xlink:href="#Layer0_0_MEMBER_8_FILL"/>
</g>

<g transform="matrix( 10, 0, 0, 10, -1416.8,-612.25) ">
<use xlink:href="#Layer0_0_MEMBER_9_FILL"/>
</g>

<g transform="matrix( 10, 0, 0, 10, -1416.8,-612.25) ">
<use xlink:href="#Layer0_0_MEMBER_10_FILL"/>
</g>

<g transform="matrix( 10, 0, 0, 10, -1416.8,-612.25) ">
<use xlink:href="#Layer0_0_MEMBER_11_FILL"/>
</g>

<g transform="matrix( 10, 0, 0, 10, -1416.8,-612.25) ">
<use xlink:href="#Layer0_0_MEMBER_12_FILL"/>
</g>

<g transform="matrix( 10, 0, 0, 10, -1416.8,-612.25) ">
<use xlink:href="#Layer0_0_MEMBER_13_FILL"/>
</g>

<g transform="matrix( 10, 0, 0, 10, -1416.8,-612.25) ">
<use xlink:href="#Layer0_0_MEMBER_14_FILL"/>
</g>

<g transform="matrix( 10, 0, 0, 10, -1416.8,-612.25) ">
<use xlink:href="#Layer0_0_MEMBER_15_FILL"/>
</g>

<g transform="matrix( 10, 0, 0, 10, -1416.8,-612.25) ">
<use xlink:href="#Layer0_0_MEMBER_16_MEMBER_0_FILL"/>
</g>

<g transform="matrix( 10, 0, 0, 10, -1416.8,-612.25) ">
<use xlink:href="#Layer0_0_MEMBER_16_MEMBER_1_FILL"/>
</g>

<g transform="matrix( 10, 0, 0, 10, -1416.8,-612.25) ">
<use xlink:href="#Layer0_0_MEMBER_16_MEMBER_2_FILL"/>
</g>

<g transform="matrix( 10, 0, 0, 10, -1416.8,-612.25) ">
<use xlink:href="#Layer0_0_MEMBER_16_MEMBER_3_FILL"/>
</g>

<g transform="matrix( 10, 0, 0, 10, -1416.8,-612.25) ">
<use xlink:href="#Layer0_0_MEMBER_16_MEMBER_4_FILL"/>
</g>

<g transform="matrix( 10, 0, 0, 10, -1416.8,-612.25) ">
<use xlink:href="#Layer0_0_MEMBER_16_MEMBER_5_FILL"/>
</g>

<g transform="matrix( 10, 0, 0, 10, 90.7,497.75) ">
<use xlink:href="#Layer0_0_MEMBER_17_FILL"/>
</g>

<g transform="matrix( 10, 0, 0, 10, -1416.8,-612.25) ">
<use xlink:href="#Layer0_0_MEMBER_18_MEMBER_0_FILL"/>
</g>

<g transform="matrix( 10, 0, 0, 10, -1416.8,-612.25) ">
<use xlink:href="#Layer0_0_MEMBER_18_MEMBER_1_FILL"/>
</g>

<g transform="matrix( 10, 0, 0, 10, -1416.8,-612.25) ">
<use xlink:href="#Layer0_0_MEMBER_18_MEMBER_2_FILL"/>
</g>

<g transform="matrix( 10, 0, 0, 10, -1416.8,-612.25) ">
<use xlink:href="#Layer0_0_MEMBER_19_MEMBER_0_FILL"/>
</g>

<g transform="matrix( 10, 0, 0, 10, -1416.8,-612.25) ">
<use xlink:href="#Layer0_0_MEMBER_19_MEMBER_1_FILL"/>
</g>

<g transform="matrix( 10, 0, 0, 10, -1416.8,-612.25) ">
<use xlink:href="#Layer0_0_MEMBER_19_MEMBER_2_FILL"/>
</g>
</svg>
