<svg id="图层_1" data-name="图层 1" xmlns="http://www.w3.org/2000/svg" viewBox="0 0 361 361"><defs><style>.cls-1{fill:#545147;}.cls-2{fill:#f7b5b5;}.cls-3{fill:#f9c7c6;}.cls-4{fill:#781f24;}.cls-5{fill:#634c49;}.cls-6{fill:#d75566;}.cls-7{fill:#443332;}.cls-8{fill:#49463e;}.cls-9{fill:#dbd2c6;}.cls-10{fill:none;stroke:#dbd2c6;stroke-linecap:round;stroke-linejoin:round;stroke-width:2.51px;}.cls-11{fill:#8e8e8e;}</style></defs><title>我想要的2021终稿</title><path class="cls-1" d="M142.85,183.83s-7.79,5.85-10.47,42-1.26,71-14.24,76.42-46.91,23-25.55,44.27,61.65-24.95,62.24-33.41,5.14-3.42,5.58-14.45S142.85,183.83,142.85,183.83Z"/><path class="cls-2" d="M192.78,125.79l14.69-7.66s-7.78,31.67,4.15,44.2-44.39,12.53-44.39,12.53,9.32-18.32,0-34.06S192.78,125.79,192.78,125.79Z"/><path class="cls-3" d="M145.17,111.21c2.48,19.12,9.64,43,30.93,42.11,19.76-.85,27.93-18.35,31.37-35.19l-19-50.54H171.32l-26.15,43.62"/><path class="cls-4" d="M205.93,80.21c7.5,12.06,5.55,39.66,5.55,39.66-27.75-11.67-31.66-45.31-31.66-45.31s-15.91,37.3-40.18,37.3c0,0-5.18-23.81,2.78-37.3S161.52,43.22,193,52.74,224,89.62,220,103.11c0,0-3-5.18-9,.8"/><path class="cls-3" d="M211.29,102c2.29-2,5.83-4.07,8.45-.41,4.17,5.85-3.19,12.1-3.29,13.29s-3.61,11-10.4,7.81"/><path class="cls-5" d="M169.63,114.75a28.29,28.29,0,0,1-.74,6.44,20.38,20.38,0,0,1-2.49,6.21h0l0-1.41c-.09-.07,0,.06,0,.1a1.67,1.67,0,0,0,.13.2,3.37,3.37,0,0,0,.37.4,5.4,5.4,0,0,0,1,.73,11.43,11.43,0,0,0,2.45,1,11.81,11.81,0,0,1-2.8.1,7.39,7.39,0,0,1-1.49-.29,6.64,6.64,0,0,1-.76-.3l-.39-.22a2.48,2.48,0,0,1-.46-.39,1,1,0,0,1,0-1.37l0,0h0a16.81,16.81,0,0,0,1.82-2.4,21.72,21.72,0,0,0,1.44-2.75A27.84,27.84,0,0,0,169.63,114.75Z"/><path class="cls-6" d="M182.61,135.91l-20.74-.74S172.16,153.17,182.61,135.91Z"/><path class="cls-7" d="M180.31,101.39a10.8,10.8,0,0,1,2.5-1.64,9.57,9.57,0,0,1,3-.88,7.83,7.83,0,0,1,3.22.22,9.91,9.91,0,0,1,3,1.38,1.2,1.2,0,1,1-1.27,2l-.18-.14-.06-.06a8,8,0,0,0-2.1-1.54,6.51,6.51,0,0,0-2.56-.71A9.76,9.76,0,0,0,180.31,101.39Z"/><path class="cls-7" d="M165.45,100.42,162,99.51a1.26,1.26,0,1,1,.63-2.45,1.33,1.33,0,0,1,.7.47Z"/><path class="cls-7" d="M184.78,108.2c2.13,0,3.92,2,4.51,4.65l-5.14,1.9,5.31.67c-.24,3.3-2.23,5.88-4.68,5.88-2.61,0-4.73-2.93-4.73-6.55S182.17,108.2,184.78,108.2Z"/><path class="cls-7" d="M159.35,107.16c2.14,0,3.92,2,4.51,4.64l-5.14,1.91,5.32.67c-.25,3.3-2.24,5.88-4.69,5.88-2.61,0-4.72-2.94-4.72-6.55S156.74,107.16,159.35,107.16Z"/><path class="cls-8" d="M167.77,158.15s36.25-9.75,40.43-7.49,1.66,5.61,6.48,9.16,11.93,3.76,11.93,3.76,18.47,1.29,29.35,9.33c15.92,11.78,9.18,142.51-4.64,147s-70.15,38.72-98,3c0,0-8.59-6.89,3.77-14.2,0,0-9.62-20.73-4.92-35,0,0-15.18-79-9.32-89.87s25.22-11.48,26.9-17.33C169.75,166.5,163.94,159.16,167.77,158.15Z"/><path class="cls-9" d="M241.31,323.94l8.42-6.79a4.16,4.16,0,0,0,1.53-3.6l-6.39-73.46a4.24,4.24,0,0,0-1-2.37L216,205.5a4.22,4.22,0,0,0-3.34-1.44l-48,2a4.16,4.16,0,0,0-3.52,2.21l-14.6,27.4a4.2,4.2,0,0,0-.44,2.58c2.47,16.23,5.15,30.64,5.87,34.46a4.26,4.26,0,0,1-.11,1.94c-3,10.83,1.58,24.92,4,31a4.21,4.21,0,0,1-1.39,4.83c-7.49,5.92-2.44,11.2-1.32,12.22a4.47,4.47,0,0,1,.42.45,42.27,42.27,0,0,0,6.24,6.41,4.15,4.15,0,0,0,2.62.91h63a4.25,4.25,0,0,0,1.54-.29c5-1.95,9.52-3.95,13.42-5.7A3.6,3.6,0,0,0,241.31,323.94Z"/><line class="cls-10" x1="169.75" y1="166.5" x2="161.87" y2="208.36"/><line class="cls-10" x1="214.68" y1="206.17" x2="214.68" y2="159.82"/><path class="cls-3" d="M180.54,274.83s-12.44-7.14-14.35-9.75-9.06-14.75-14.54-15.22-11-4.28-21.94,0-1.57,5.08,3.57,3.57c2.29-.68,10.54-1.06,15.08,1.55,0,0-11.5-.6-15.08.82s-12.31,4.45-9.77,7.38c1.51,1.74,10.2-2.06,10.2-2.06s8.32-1.27,14,1.34c0,0-9.83.24-12.86,1s-14,1.43-11.86,4.28,14.85.72,14.85.72l8.28,1.66s-6.54-.24-8.28.71-9.6,4.05-9.6,4.05,1.43,4,12.64,0l7.47,1.79s3.73,4.15,14.94,4.15c0,0,5.71,5.47,9.41,7.14S180.54,274.83,180.54,274.83Z"/><path class="cls-1" d="M254.14,171.19s22.33,11.4,25.26,84.11-51.51,76-51.51,76-36-1.67-37.28-25.89c0,0-17.45-1.49-18.84-13.36s7.12-26.83,15.07-27.2,15.49,7.57,15.49,7.57,11.7-5.85,23.24.84C225.57,273.3,213,169.31,254.14,171.19Z"/><path class="cls-7" d="M210.48,34.11s-61.24-.7-69,29.29,0,21.57,0,21.57,21.72-18.59,44.27-9.1,35.95,17.72,35.95,17.72,9.12-27.58-5.91-43.53S210.48,34.11,210.48,34.11Z"/><ellipse class="cls-11" cx="206.05" cy="34.11" rx="11.12" ry="11.08"/><path class="cls-3" d="M93,330.1s1-7,8.92-5.06c0,0,.88-6.1,5.77-4.19,0,0,.7-4.71,6.65-2.61,0,0-.17-5.24,6.3-3.32s8.23,6.11,8.23,6.11,9.79-2,9.62,1.27-2.45,6.93-9.27,5.71c0,0-1.58,2.09-3.5,1,0,0,1.48,5.24-6,3.84,0,0-2.93,6.81-9.93,3.14,0,0,.35,3.56-5.77,1.09,0,0-4.2,1.36-6,1.88S93,330.1,93,330.1Z"/></svg>