
<svg xmlns="http://www.w3.org/2000/svg" version="1.1" xmlns:xlink="http://www.w3.org/1999/xlink" preserveAspectRatio="none" x="0px" y="0px" width="1024px" height="1024px" viewBox="0 0 1024 1024">
<defs>
<g id="Layer0_0_MEMBER_0_MEMBER_0_FILL">
<path fill="#AA7B61" stroke="none" d="
M 97.3 357.7
Q 95.5 356.65 93.65 357.7
L 29.95 394.5
Q 28.15 395.55 28.15 397.65
L 28.15 405.9
Q 28.15 408 29.95 409.05
L 93.65 445.85
Q 95.5 446.8 97.3 445.85
L 161 409.05
Q 162.8 408 162.8 405.9
L 162.8 397.65
Q 162.8 395.55 161 394.5
L 97.3 357.7 Z"/>
</g>

<g id="Layer0_0_MEMBER_0_MEMBER_1_FILL">
<path fill="#8C644F" stroke="none" d="
M 97.3 358.75
Q 95.5 357.7 93.65 358.75
L 29.95 395.55
Q 28.15 396.6 28.15 398.7
L 28.15 401.55
Q 28.15 403.65 29.95 404.7
L 93.65 441.5
Q 95.5 442.55 97.3 441.5
L 161 404.7
Q 162.8 403.65 162.8 401.55
L 162.8 398.7
Q 162.8 396.6 161 395.55
L 97.3 358.75 Z"/>
</g>

<g id="Layer0_0_MEMBER_0_MEMBER_2_FILL">
<path fill="#6C9C38" stroke="none" d="
M 97.3 357.7
Q 95.5 356.65 93.65 357.7
L 29.95 394.5
Q 28.15 395.55 28.15 397.65
L 28.15 400.55
Q 28.15 402.6 29.95 403.65
L 93.65 440.45
Q 95.5 441.5 97.3 440.45
L 161 403.65
Q 162.8 402.6 162.8 400.55
L 162.8 397.65
Q 162.8 395.55 161 394.5
L 97.3 357.7 Z"/>
</g>

<g id="Layer0_0_MEMBER_0_MEMBER_3_FILL">
<path fill="#5A852F" stroke="none" d="
M 97.3 357.7
Q 95.5 356.65 93.65 357.7
L 29.95 394.5
Q 28.15 395.55 28.15 397.65
L 28.15 398.35
Q 28.15 400.45 29.95 401.5
L 93.65 438.3
Q 95.5 439.25 97.3 438.3
L 161 401.5
Q 162.8 400.45 162.8 398.35
L 162.8 397.65
Q 162.8 395.55 161 394.5
L 97.3 357.7 Z"/>
</g>

<g id="Layer0_0_MEMBER_0_MEMBER_4_FILL">
<path fill="#000000" fill-opacity="0.2" stroke="none" d="
M 0 13.65
L 1.05 14.3
Q 2.9 15.25 4.7 14.3
L 5.75 13.65 5.75 0 0 0 0 13.65 Z"/>
</g>

<g id="Layer0_0_MEMBER_0_MEMBER_5_FILL">
<path fill="#80B844" stroke="none" d="
M 97.3 357.7
Q 95.5 356.65 93.65 357.7
L 29.95 394.5
Q 28.1 395.55 28.1 397.65 28.1 399.75 29.95 400.75
L 93.65 437.55
Q 95.5 438.6 97.3 437.55
L 161 400.75
Q 162.85 399.75 162.85 397.65 162.85 395.55 161 394.5
L 97.3 357.7 Z"/>
</g>

<g id="Layer0_0_MEMBER_0_MEMBER_6_FILL">
<path fill="#DDE6C0" stroke="none" d="
M 86.5 402.5
Q 85.55 401.95 82.1 399.55
L 54.95 415.2 65.85 421.5 92.75 405.95
Q 88.25 403.6 86.5 402.5 Z"/>
</g>

<g id="Layer0_0_MEMBER_1_MEMBER_0_MEMBER_0_FILL">
<path fill="#E6CAA4" stroke="none" d="
M 143.15 339.1
L 121.95 351.3 121.95 411.7 143.15 399.45 143.15 339.1 Z"/>
</g>

<g id="Layer0_0_MEMBER_1_MEMBER_0_MEMBER_1_FILL">
<path fill="#FAEFDD" stroke="none" d="
M 143.15 339.1
L 100.8 314.6 79.6 326.85 121.95 351.3 143.15 339.1 Z"/>
</g>

<g id="Layer0_0_MEMBER_1_MEMBER_0_MEMBER_2_FILL">
<path fill="#90CAAB" stroke="none" d="
M 121.95 396.15
L 121.95 411.7 143.15 399.45 143.15 383.9 121.95 396.15 Z"/>
</g>

<g id="Layer0_0_MEMBER_1_MEMBER_0_MEMBER_3_FILL">
<path fill="#FFECC9" stroke="none" d="
M 79.55 326.85
L 79.55 387.2 121.95 411.7 121.95 351.3 79.55 326.85 Z"/>
</g>

<g id="Layer0_0_MEMBER_1_MEMBER_0_MEMBER_4_FILL">
<path fill="#CAE6D6" stroke="none" d="
M 79.55 371.65
L 79.55 387.2 121.95 411.7 121.95 396.15 79.55 371.65 Z"/>
</g>

<g id="Layer0_0_MEMBER_1_MEMBER_0_MEMBER_5_MEMBER_0_FILL">
<path fill="#D96B55" stroke="none" d="
M 128 371.1
L 128 381.85 128.85 382.45 128.85 371.7 128 371.1 Z"/>
</g>

<g id="Layer0_0_MEMBER_1_MEMBER_0_MEMBER_5_MEMBER_1_FILL">
<path fill="#EE8F7D" stroke="none" d="
M 128.85 371.7
L 138.15 366.3 137.3 365.7 128 371.1 128.85 371.7 Z"/>
</g>

<g id="Layer0_0_MEMBER_1_MEMBER_0_MEMBER_5_MEMBER_2_FILL">
<path fill="#813D2E" stroke="none" d="
M 128.85 371.7
L 128.85 382.45 138.15 377.1 138.15 366.3 128.85 371.7 Z"/>
</g>

<g id="Layer0_0_MEMBER_1_MEMBER_0_MEMBER_5_MEMBER_3_FILL">
<path fill="#85CDD2" stroke="none" d="
M 129.75 372.2
L 129.75 380.9 137.25 376.55 137.25 367.9 129.75 372.2 Z"/>
</g>

<g id="Layer0_0_MEMBER_1_MEMBER_0_MEMBER_5_MEMBER_4_FILL">
<path fill="#813D2E" stroke="none" d="
M 133 369.3
L 133 380.05 134 379.5 134 368.7 133 369.3 Z"/>
</g>

<g id="Layer0_0_MEMBER_1_MEMBER_0_MEMBER_5_MEMBER_5_FILL">
<path fill="#813D2E" stroke="none" d="
M 128.85 377.65
L 138.15 372.25 138.15 371.15 128.85 376.5 128.85 377.65 Z"/>
</g>

<g id="Layer0_0_MEMBER_1_MEMBER_0_MEMBER_6_MEMBER_0_FILL">
<path fill="#813D2E" stroke="none" d="
M 116.85 364.8
L 116.85 354.05 116 354.65 116 365.4 116.85 364.8 Z"/>
</g>

<g id="Layer0_0_MEMBER_1_MEMBER_0_MEMBER_6_MEMBER_1_FILL">
<path fill="#EE8F7D" stroke="none" d="
M 106.65 349.25
L 116 354.65 116.85 354.05 107.5 348.65 106.65 349.25 Z"/>
</g>

<g id="Layer0_0_MEMBER_1_MEMBER_0_MEMBER_6_MEMBER_2_FILL">
<path fill="#D96B55" stroke="none" d="
M 116 365.4
L 116 354.65 106.65 349.25 106.65 360 116 365.4 Z"/>
</g>

<g id="Layer0_0_MEMBER_1_MEMBER_0_MEMBER_6_MEMBER_3_FILL">
<path fill="#85CDD2" stroke="none" d="
M 115.1 363.85
L 115.1 355.15 107.6 350.85 107.6 359.5 115.1 363.85 Z"/>
</g>

<g id="Layer0_0_MEMBER_1_MEMBER_0_MEMBER_6_MEMBER_4_FILL">
<path fill="#D96B55" stroke="none" d="
M 111.8 363
L 111.8 352.25 110.85 351.65 110.85 362.45 111.8 363 Z"/>
</g>

<g id="Layer0_0_MEMBER_1_MEMBER_0_MEMBER_6_MEMBER_5_FILL">
<path fill="#D96B55" stroke="none" d="
M 106.65 355.2
L 116 360.6 116 359.45 106.65 354.1 106.65 355.2 Z"/>
</g>

<g id="Layer0_0_MEMBER_1_MEMBER_0_MEMBER_7_MEMBER_0_FILL">
<path fill="#813D2E" stroke="none" d="
M 92.7 340.45
L 91.9 341.05 91.9 351.8 92.7 351.2 92.7 340.45 Z"/>
</g>

<g id="Layer0_0_MEMBER_1_MEMBER_0_MEMBER_7_MEMBER_1_FILL">
<path fill="#EE8F7D" stroke="none" d="
M 82.55 335.65
L 91.9 341.05 92.7 340.45 83.4 335.05 82.55 335.65 Z"/>
</g>

<g id="Layer0_0_MEMBER_1_MEMBER_0_MEMBER_7_MEMBER_2_FILL">
<path fill="#D96B55" stroke="none" d="
M 91.9 341.05
L 82.55 335.65 82.55 346.45 91.9 351.8 91.9 341.05 Z"/>
</g>

<g id="Layer0_0_MEMBER_1_MEMBER_0_MEMBER_7_MEMBER_3_FILL">
<path fill="#85CDD2" stroke="none" d="
M 90.95 341.6
L 83.45 337.25 83.45 345.9 90.95 350.25 90.95 341.6 Z"/>
</g>

<g id="Layer0_0_MEMBER_1_MEMBER_0_MEMBER_7_MEMBER_4_FILL">
<path fill="#D96B55" stroke="none" d="
M 87.7 338.65
L 86.75 338.1 86.75 348.85 87.7 349.4 87.7 338.65 Z"/>
</g>

<g id="Layer0_0_MEMBER_1_MEMBER_0_MEMBER_7_MEMBER_5_FILL">
<path fill="#D96B55" stroke="none" d="
M 91.9 345.85
L 82.55 340.5 82.55 341.6 91.9 347 91.9 345.85 Z"/>
</g>

<g id="Layer0_0_MEMBER_1_MEMBER_0_MEMBER_8_MEMBER_0_FILL">
<path fill="#D96B55" stroke="none" d="
M 128 355.6
L 128 366.4 128.85 367 128.85 356.2 128 355.6 Z"/>
</g>

<g id="Layer0_0_MEMBER_1_MEMBER_0_MEMBER_8_MEMBER_1_FILL">
<path fill="#EE8F7D" stroke="none" d="
M 128.85 356.2
L 138.15 350.85 137.3 350.25 128 355.6 128.85 356.2 Z"/>
</g>

<g id="Layer0_0_MEMBER_1_MEMBER_0_MEMBER_8_MEMBER_2_FILL">
<path fill="#813D2E" stroke="none" d="
M 128.85 356.2
L 128.85 367 138.15 361.6 138.15 350.85 128.85 356.2 Z"/>
</g>

<g id="Layer0_0_MEMBER_1_MEMBER_0_MEMBER_8_MEMBER_3_FILL">
<path fill="#85CDD2" stroke="none" d="
M 129.75 356.75
L 129.75 365.4 137.25 361.1 137.25 352.4 129.75 356.75 Z"/>
</g>

<g id="Layer0_0_MEMBER_1_MEMBER_0_MEMBER_8_MEMBER_4_FILL">
<path fill="#813D2E" stroke="none" d="
M 133 353.8
L 133 364.6 134 364 134 353.25 133 353.8 Z"/>
</g>

<g id="Layer0_0_MEMBER_1_MEMBER_0_MEMBER_8_MEMBER_5_FILL">
<path fill="#813D2E" stroke="none" d="
M 128.85 362.15
L 138.15 356.8 138.15 355.65 128.85 361.05 128.85 362.15 Z"/>
</g>

<g id="Layer0_0_MEMBER_1_MEMBER_1_MEMBER_0_FILL">
<path fill="#CAE6D6" stroke="none" d="
M 77.65 363.6
L 60.65 385.2 60.65 399.5 94.65 419.15 94.65 404.8 77.65 363.6 Z"/>
</g>

<g id="Layer0_0_MEMBER_1_MEMBER_1_MEMBER_1_FILL">
<path fill="#90CAAB" stroke="none" d="
M 94.65 404.8
L 94.65 419.15 114.65 407.7 114.65 393.35 94.65 404.8 Z"/>
</g>

<g id="Layer0_0_MEMBER_1_MEMBER_1_MEMBER_2_MEMBER_0_FILL">
<path fill="#D96B55" stroke="none" d="
M 82.3 389.95
L 71.4 383.65 71.4 405.7 82.3 412 82.3 389.95 Z"/>
</g>

<g id="Layer0_0_MEMBER_1_MEMBER_1_MEMBER_2_MEMBER_1_FILL">
<path fill="#813D2E" stroke="none" d="
M 72.4 385.6
L 72.4 395.85 81.25 400.95 81.25 390.75 72.4 385.6 Z"/>
</g>

<g id="Layer0_0_MEMBER_1_MEMBER_1_MEMBER_2_MEMBER_2_FILL">
<path fill="#85CDD2" stroke="none" d="
M 80.4 391.25
L 73.3 387.1 73.3 395.35 80.4 399.45 80.4 391.25 Z"/>
</g>

<g id="Layer0_0_MEMBER_1_MEMBER_1_MEMBER_2_MEMBER_3_FILL">
<path fill="#813D2E" stroke="none" d="
M 77.3 388.45
L 76.4 387.9 76.4 398.15 77.3 398.65 77.3 388.45 Z"/>
</g>

<g id="Layer0_0_MEMBER_1_MEMBER_1_MEMBER_2_MEMBER_4_FILL">
<path fill="#813D2E" stroke="none" d="
M 72.4 390.2
L 72.4 391.25 81.25 396.4 81.25 395.3 72.4 390.2 Z"/>
</g>

<g id="Layer0_0_MEMBER_1_MEMBER_1_MEMBER_3_FILL">
<path fill="#D96B55" stroke="none" d="
M 61.6 385.95
L 77.3 366 93.5 405.3
Q 93.85 406.05 94.65 406.05
L 95.1 405.95 115.1 394.4
Q 115.6 394.2 115.8 393.75 116 393.3 115.8 392.8
L 98.8 351.55
Q 98.5 350.95 97.8 350.8 97.25 350.7 96.8 351.15
L 77.45 362.35
Q 77.05 362.4 76.65 362.8
L 59.65 384.4
Q 59.35 384.8 59.4 385.35 59.45 385.85 59.85 386.15 60.25 386.45 60.8 386.4 61.3 386.35 61.6 385.95 Z"/>
</g>

<g id="Layer0_0_MEMBER_1_MEMBER_1_MEMBER_4_MEMBER_0_FILL">
<path fill="#AF5541" stroke="none" d="
M 78.75 363.1
Q 78.55 362.5 77.8 362.35 77.15 362.3 76.65 362.8
L 59.65 384.4
Q 59.35 384.8 59.4 385.35 59.45 385.85 59.85 386.15 60.25 386.45 60.8 386.4 61.3 386.35 61.6 385.95
L 77.3 366 93.5 405.3
Q 93.85 406.05 94.65 406.05
L 95.1 405.95
Q 95.6 405.75 95.8 405.3 96 404.8 95.75 404.35
L 78.75 363.1 Z"/>
</g>

<g id="Layer0_0_MEMBER_1_MEMBER_2_FILL">
<path fill="#AF5541" stroke="none" d="
M 138.55 381.25
L 127.6 387.55 127.6 408.4 138.55 402.1 138.55 381.25 Z"/>
</g>

<g id="Layer0_0_MEMBER_1_MEMBER_3_MEMBER_0_FILL">
<path fill="#E6CAA4" stroke="none" d="
M 101.05 330.65
L 101.05 321.95 97.3 319.8 97.3 328.5 101.05 330.65 Z"/>
</g>

<g id="Layer0_0_MEMBER_1_MEMBER_3_MEMBER_1_FILL">
<path fill="#B29C7E" stroke="none" d="
M 104.8 328.5
L 104.8 319.8 101.05 321.95 101.05 330.65 104.8 328.5 Z"/>
</g>

<g id="Layer0_0_MEMBER_1_MEMBER_3_MEMBER_2_FILL">
<path fill="#FFECC9" stroke="none" d="
M 101.05 321.95
L 104.8 319.8 101.05 317.65 97.3 319.8 101.05 321.95 Z"/>
</g>

<g id="Layer0_0_MEMBER_1_MEMBER_3_MEMBER_3_FILL">
<path fill="#B29C7E" stroke="none" d="
M 101.05 321.15
L 103.4 319.8 101.05 318.45 98.7 319.8 101.05 321.15 Z"/>
</g>

<g id="Layer0_0_MEMBER_1_MEMBER_3_MEMBER_4_FILL">
<path fill="#E6CAA4" stroke="none" d="
M 101.05 318.45
L 101.05 321.15 103.4 319.8 101.05 318.45 Z"/>
</g>

<g id="Layer0_0_MEMBER_1_MEMBER_4_MEMBER_0_FILL">
<path fill="#E6CAA4" stroke="none" d="
M 111.95 336.55
L 111.95 326.2 107.5 323.6 107.5 334 111.95 336.55 Z"/>
</g>

<g id="Layer0_0_MEMBER_1_MEMBER_4_MEMBER_1_FILL">
<path fill="#B29C7E" stroke="none" d="
M 116.4 334
L 116.4 323.6 111.95 326.2 111.95 336.55 116.4 334 Z"/>
</g>

<g id="Layer0_0_MEMBER_1_MEMBER_4_MEMBER_2_FILL">
<path fill="#FFECC9" stroke="none" d="
M 111.95 326.2
L 116.4 323.6 111.95 321.05 107.5 323.6 111.95 326.2 Z"/>
</g>

<g id="Layer0_0_MEMBER_1_MEMBER_4_MEMBER_3_FILL">
<path fill="#B29C7E" stroke="none" d="
M 111.95 325.25
L 114.75 323.6 111.95 322 109.15 323.6 111.95 325.25 Z"/>
</g>

<g id="Layer0_0_MEMBER_1_MEMBER_4_MEMBER_4_FILL">
<path fill="#E6CAA4" stroke="none" d="
M 111.95 322
L 111.95 325.25 114.75 323.6 111.95 322 Z"/>
</g>

<g id="Layer0_0_MEMBER_1_MEMBER_5_MEMBER_0_FILL">
<path fill="#E6CAA4" stroke="none" d="
M 122.85 342.4
L 122.85 330.45 117.75 327.5 117.75 339.45 122.85 342.4 Z"/>
</g>

<g id="Layer0_0_MEMBER_1_MEMBER_5_MEMBER_1_FILL">
<path fill="#B29C7E" stroke="none" d="
M 128 339.45
L 128 327.5 122.85 330.45 122.85 342.4 128 339.45 Z"/>
</g>

<g id="Layer0_0_MEMBER_1_MEMBER_5_MEMBER_2_FILL">
<path fill="#FFECC9" stroke="none" d="
M 122.85 330.45
L 128 327.5 122.85 324.55 117.75 327.5 122.85 330.45 Z"/>
</g>

<g id="Layer0_0_MEMBER_1_MEMBER_5_MEMBER_3_FILL">
<path fill="#B29C7E" stroke="none" d="
M 122.85 329.35
L 126.1 327.5 122.85 325.6 119.6 327.5 122.85 329.35 Z"/>
</g>

<g id="Layer0_0_MEMBER_1_MEMBER_5_MEMBER_4_FILL">
<path fill="#E6CAA4" stroke="none" d="
M 122.85 325.6
L 122.85 329.35 126.1 327.5 122.85 325.6 Z"/>
</g>
</defs>

<g transform="matrix( 7, 0, 0, 7, -156.3,-2151.2) ">
<use xlink:href="#Layer0_0_MEMBER_0_MEMBER_0_FILL"/>
</g>

<g transform="matrix( 7, 0, 0, 7, -156.3,-2151.2) ">
<use xlink:href="#Layer0_0_MEMBER_0_MEMBER_1_FILL"/>
</g>

<g transform="matrix( 7, 0, 0, 7, -156.3,-2151.2) ">
<use xlink:href="#Layer0_0_MEMBER_0_MEMBER_2_FILL"/>
</g>

<g transform="matrix( 7, 0, 0, 7, -156.3,-2151.2) ">
<use xlink:href="#Layer0_0_MEMBER_0_MEMBER_3_FILL"/>
</g>

<g transform="matrix( 7, 0, 0, 7, 491.9,869.65) ">
<use xlink:href="#Layer0_0_MEMBER_0_MEMBER_4_FILL"/>
</g>

<g transform="matrix( 7, 0, 0, 7, -156.3,-2151.2) ">
<use xlink:href="#Layer0_0_MEMBER_0_MEMBER_5_FILL"/>
</g>

<g transform="matrix( 7, 0, 0, 7, -156.3,-2151.2) ">
<use xlink:href="#Layer0_0_MEMBER_0_MEMBER_6_FILL"/>
</g>

<g transform="matrix( 7, 0, 0, 7, -156.3,-2151.2) ">
<use xlink:href="#Layer0_0_MEMBER_1_MEMBER_0_MEMBER_0_FILL"/>
</g>

<g transform="matrix( 7, 0, 0, 7, -156.3,-2151.2) ">
<use xlink:href="#Layer0_0_MEMBER_1_MEMBER_0_MEMBER_1_FILL"/>
</g>

<g transform="matrix( 7, 0, 0, 7, -156.3,-2151.2) ">
<use xlink:href="#Layer0_0_MEMBER_1_MEMBER_0_MEMBER_2_FILL"/>
</g>

<g transform="matrix( 7, 0, 0, 7, -156.3,-2151.2) ">
<use xlink:href="#Layer0_0_MEMBER_1_MEMBER_0_MEMBER_3_FILL"/>
</g>

<g transform="matrix( 7, 0, 0, 7, -156.3,-2151.2) ">
<use xlink:href="#Layer0_0_MEMBER_1_MEMBER_0_MEMBER_4_FILL"/>
</g>

<g transform="matrix( 7, 0, 0, 7, -156.3,-2151.2) ">
<use xlink:href="#Layer0_0_MEMBER_1_MEMBER_0_MEMBER_5_MEMBER_0_FILL"/>
</g>

<g transform="matrix( 7, 0, 0, 7, -156.3,-2151.2) ">
<use xlink:href="#Layer0_0_MEMBER_1_MEMBER_0_MEMBER_5_MEMBER_1_FILL"/>
</g>

<g transform="matrix( 7, 0, 0, 7, -156.3,-2151.2) ">
<use xlink:href="#Layer0_0_MEMBER_1_MEMBER_0_MEMBER_5_MEMBER_2_FILL"/>
</g>

<g transform="matrix( 7, 0, 0, 7, -156.3,-2151.2) ">
<use xlink:href="#Layer0_0_MEMBER_1_MEMBER_0_MEMBER_5_MEMBER_3_FILL"/>
</g>

<g transform="matrix( 7, 0, 0, 7, -156.3,-2151.2) ">
<use xlink:href="#Layer0_0_MEMBER_1_MEMBER_0_MEMBER_5_MEMBER_4_FILL"/>
</g>

<g transform="matrix( 7, 0, 0, 7, -156.3,-2151.2) ">
<use xlink:href="#Layer0_0_MEMBER_1_MEMBER_0_MEMBER_5_MEMBER_5_FILL"/>
</g>

<g transform="matrix( 7, 0, 0, 7, -156.3,-2151.2) ">
<use xlink:href="#Layer0_0_MEMBER_1_MEMBER_0_MEMBER_6_MEMBER_0_FILL"/>
</g>

<g transform="matrix( 7, 0, 0, 7, -156.3,-2151.2) ">
<use xlink:href="#Layer0_0_MEMBER_1_MEMBER_0_MEMBER_6_MEMBER_1_FILL"/>
</g>

<g transform="matrix( 7, 0, 0, 7, -156.3,-2151.2) ">
<use xlink:href="#Layer0_0_MEMBER_1_MEMBER_0_MEMBER_6_MEMBER_2_FILL"/>
</g>

<g transform="matrix( 7, 0, 0, 7, -156.3,-2151.2) ">
<use xlink:href="#Layer0_0_MEMBER_1_MEMBER_0_MEMBER_6_MEMBER_3_FILL"/>
</g>

<g transform="matrix( 7, 0, 0, 7, -156.3,-2151.2) ">
<use xlink:href="#Layer0_0_MEMBER_1_MEMBER_0_MEMBER_6_MEMBER_4_FILL"/>
</g>

<g transform="matrix( 7, 0, 0, 7, -156.3,-2151.2) ">
<use xlink:href="#Layer0_0_MEMBER_1_MEMBER_0_MEMBER_6_MEMBER_5_FILL"/>
</g>

<g transform="matrix( 7, 0, 0, 7, -156.3,-2151.2) ">
<use xlink:href="#Layer0_0_MEMBER_1_MEMBER_0_MEMBER_7_MEMBER_0_FILL"/>
</g>

<g transform="matrix( 7, 0, 0, 7, -156.3,-2151.2) ">
<use xlink:href="#Layer0_0_MEMBER_1_MEMBER_0_MEMBER_7_MEMBER_1_FILL"/>
</g>

<g transform="matrix( 7, 0, 0, 7, -156.3,-2151.2) ">
<use xlink:href="#Layer0_0_MEMBER_1_MEMBER_0_MEMBER_7_MEMBER_2_FILL"/>
</g>

<g transform="matrix( 7, 0, 0, 7, -156.3,-2151.2) ">
<use xlink:href="#Layer0_0_MEMBER_1_MEMBER_0_MEMBER_7_MEMBER_3_FILL"/>
</g>

<g transform="matrix( 7, 0, 0, 7, -156.3,-2151.2) ">
<use xlink:href="#Layer0_0_MEMBER_1_MEMBER_0_MEMBER_7_MEMBER_4_FILL"/>
</g>

<g transform="matrix( 7, 0, 0, 7, -156.3,-2151.2) ">
<use xlink:href="#Layer0_0_MEMBER_1_MEMBER_0_MEMBER_7_MEMBER_5_FILL"/>
</g>

<g transform="matrix( 7, 0, 0, 7, -156.3,-2151.2) ">
<use xlink:href="#Layer0_0_MEMBER_1_MEMBER_0_MEMBER_8_MEMBER_0_FILL"/>
</g>

<g transform="matrix( 7, 0, 0, 7, -156.3,-2151.2) ">
<use xlink:href="#Layer0_0_MEMBER_1_MEMBER_0_MEMBER_8_MEMBER_1_FILL"/>
</g>

<g transform="matrix( 7, 0, 0, 7, -156.3,-2151.2) ">
<use xlink:href="#Layer0_0_MEMBER_1_MEMBER_0_MEMBER_8_MEMBER_2_FILL"/>
</g>

<g transform="matrix( 7, 0, 0, 7, -156.3,-2151.2) ">
<use xlink:href="#Layer0_0_MEMBER_1_MEMBER_0_MEMBER_8_MEMBER_3_FILL"/>
</g>

<g transform="matrix( 7, 0, 0, 7, -156.3,-2151.2) ">
<use xlink:href="#Layer0_0_MEMBER_1_MEMBER_0_MEMBER_8_MEMBER_4_FILL"/>
</g>

<g transform="matrix( 7, 0, 0, 7, -156.3,-2151.2) ">
<use xlink:href="#Layer0_0_MEMBER_1_MEMBER_0_MEMBER_8_MEMBER_5_FILL"/>
</g>

<g transform="matrix( 7, 0, 0, 7, -156.3,-2151.2) ">
<use xlink:href="#Layer0_0_MEMBER_1_MEMBER_1_MEMBER_0_FILL"/>
</g>

<g transform="matrix( 7, 0, 0, 7, -156.3,-2151.2) ">
<use xlink:href="#Layer0_0_MEMBER_1_MEMBER_1_MEMBER_1_FILL"/>
</g>

<g transform="matrix( 7, 0, 0, 7, -156.3,-2151.2) ">
<use xlink:href="#Layer0_0_MEMBER_1_MEMBER_1_MEMBER_2_MEMBER_0_FILL"/>
</g>

<g transform="matrix( 7, 0, 0, 7, -156.3,-2151.2) ">
<use xlink:href="#Layer0_0_MEMBER_1_MEMBER_1_MEMBER_2_MEMBER_1_FILL"/>
</g>

<g transform="matrix( 7, 0, 0, 7, -156.3,-2151.2) ">
<use xlink:href="#Layer0_0_MEMBER_1_MEMBER_1_MEMBER_2_MEMBER_2_FILL"/>
</g>

<g transform="matrix( 7, 0, 0, 7, -156.3,-2151.2) ">
<use xlink:href="#Layer0_0_MEMBER_1_MEMBER_1_MEMBER_2_MEMBER_3_FILL"/>
</g>

<g transform="matrix( 7, 0, 0, 7, -156.3,-2151.2) ">
<use xlink:href="#Layer0_0_MEMBER_1_MEMBER_1_MEMBER_2_MEMBER_4_FILL"/>
</g>

<g transform="matrix( 7, 0, 0, 7, -156.3,-2151.2) ">
<use xlink:href="#Layer0_0_MEMBER_1_MEMBER_1_MEMBER_3_FILL"/>
</g>

<g transform="matrix( 7, 0, 0, 7, -156.3,-2151.2) ">
<use xlink:href="#Layer0_0_MEMBER_1_MEMBER_1_MEMBER_4_MEMBER_0_FILL"/>
</g>

<g transform="matrix( 7, 0, 0, 7, -156.3,-2151.2) ">
<use xlink:href="#Layer0_0_MEMBER_1_MEMBER_2_FILL"/>
</g>

<g transform="matrix( 7, 0, 0, 7, -156.3,-2151.2) ">
<use xlink:href="#Layer0_0_MEMBER_1_MEMBER_3_MEMBER_0_FILL"/>
</g>

<g transform="matrix( 7, 0, 0, 7, -156.3,-2151.2) ">
<use xlink:href="#Layer0_0_MEMBER_1_MEMBER_3_MEMBER_1_FILL"/>
</g>

<g transform="matrix( 7, 0, 0, 7, -156.3,-2151.2) ">
<use xlink:href="#Layer0_0_MEMBER_1_MEMBER_3_MEMBER_2_FILL"/>
</g>

<g transform="matrix( 7, 0, 0, 7, -156.3,-2151.2) ">
<use xlink:href="#Layer0_0_MEMBER_1_MEMBER_3_MEMBER_3_FILL"/>
</g>

<g transform="matrix( 7, 0, 0, 7, -156.3,-2151.2) ">
<use xlink:href="#Layer0_0_MEMBER_1_MEMBER_3_MEMBER_4_FILL"/>
</g>

<g transform="matrix( 7, 0, 0, 7, -156.3,-2151.2) ">
<use xlink:href="#Layer0_0_MEMBER_1_MEMBER_4_MEMBER_0_FILL"/>
</g>

<g transform="matrix( 7, 0, 0, 7, -156.3,-2151.2) ">
<use xlink:href="#Layer0_0_MEMBER_1_MEMBER_4_MEMBER_1_FILL"/>
</g>

<g transform="matrix( 7, 0, 0, 7, -156.3,-2151.2) ">
<use xlink:href="#Layer0_0_MEMBER_1_MEMBER_4_MEMBER_2_FILL"/>
</g>

<g transform="matrix( 7, 0, 0, 7, -156.3,-2151.2) ">
<use xlink:href="#Layer0_0_MEMBER_1_MEMBER_4_MEMBER_3_FILL"/>
</g>

<g transform="matrix( 7, 0, 0, 7, -156.3,-2151.2) ">
<use xlink:href="#Layer0_0_MEMBER_1_MEMBER_4_MEMBER_4_FILL"/>
</g>

<g transform="matrix( 7, 0, 0, 7, -156.3,-2151.2) ">
<use xlink:href="#Layer0_0_MEMBER_1_MEMBER_5_MEMBER_0_FILL"/>
</g>

<g transform="matrix( 7, 0, 0, 7, -156.3,-2151.2) ">
<use xlink:href="#Layer0_0_MEMBER_1_MEMBER_5_MEMBER_1_FILL"/>
</g>

<g transform="matrix( 7, 0, 0, 7, -156.3,-2151.2) ">
<use xlink:href="#Layer0_0_MEMBER_1_MEMBER_5_MEMBER_2_FILL"/>
</g>

<g transform="matrix( 7, 0, 0, 7, -156.3,-2151.2) ">
<use xlink:href="#Layer0_0_MEMBER_1_MEMBER_5_MEMBER_3_FILL"/>
</g>

<g transform="matrix( 7, 0, 0, 7, -156.3,-2151.2) ">
<use xlink:href="#Layer0_0_MEMBER_1_MEMBER_5_MEMBER_4_FILL"/>
</g>
</svg>
