<svg xmlns="http://www.w3.org/2000/svg" viewBox="0 0 173.59 120.87"><defs><style>.cls-1{fill:#ffbc9b;}.cls-2{fill:#cd7717;}.cls-3{fill:#e6932e;}.cls-4{fill:#dc8424;}.cls-5{fill:#114d4f;}.cls-6{fill:#ece5e6;}.cls-7{fill:#212e35;}.cls-8{fill:#131313;}.cls-9{fill:#156463;}.cls-10{fill:#e89776;}.cls-11{fill:#fff;opacity:0.1;}</style></defs><g id="图层_2" data-name="图层 2"><g id="图层_1-2" data-name="图层 1"><polygon class="cls-1" points="79.82 103.66 73.12 112.19 67.03 107.92 72.51 100.01 79.82 103.66"/><polygon class="cls-1" points="25.62 91.48 14.96 94.22 17.7 100.62 28.05 100.01 25.62 91.48"/><polygon class="cls-2" points="115.66 55.99 114.49 56.45 103.47 35.79 105.61 34.57 115.66 55.99"/><path class="cls-3" d="M119.23,31.87S129.61,47.7,130.45,54c0,0-11.67,0-14.79,2L104.9,35S110,31.55,119.23,31.87Z"/><path class="cls-4" d="M103.82,35.59S97.17,32.32,91.07,35c0,0,9,16.94,12.43,22,0,0,6.56-1.48,11-.53Z"/><path class="cls-1" d="M131.13,70.84S120,65.25,119.31,65s-12.47-6-13.46-6.52-4.46-1.25-5.53-2.34-3.94-1.93-4-4.39a9.62,9.62,0,0,1,.54-3.49,2.65,2.65,0,0,1,2.27-1.72,4.74,4.74,0,0,1,1.59-.1,4.1,4.1,0,0,1,2.56,2.06c.85,1.2,1.51,2.51,2.29,3.75.45.7,1.36,1.86.37,2.53s1.89.37,2.49.29c.37-.05,5,.87,5,.87l1,.48,1.17-.46s1.37.25,1.89.36c2.53.59,15,4.47,15,4.47Z"/><path class="cls-5" d="M115.45,78.69s-36.85-1.83-45.68,0S24.4,90.57,24.4,90.57l1.52,11a28,28,0,0,0,7.92,0c4.57-.61,17.66-2.74,23.45-3.35s21.31-.91,27.1,0,42.63,11.57,52.07,8.22S115.45,78.69,115.45,78.69Z"/><path class="cls-6" d="M67.94,104.88l7.92,5.78a36.18,36.18,0,0,0,.61,4.27c.31.91,1.52,3.65-3,5.17s-9.44.31-13.1.31-9.74.3-11.26,0-5.79-2.13-5.18-4.87,6.7-1.22,9.44-2.44,7.31-3,9.74-6.09S67.94,104.88,67.94,104.88Z"/><path class="cls-6" d="M18.61,92.39s.31,8.23.61,9.44-6.09,2.74-7.91,3S7,102.14,6.43,100.62.34,86.61,0,83.56s1.22-5.48,2.44-5.17,3.35,4,4,4.56S18.61,92.39,18.61,92.39Z"/><path class="cls-1" d="M131,13.4s.76,10.35,3.27,13.09,5.23,2.38,6.09,2a1.32,1.32,0,0,1,.41-.11l0,.05a6.18,6.18,0,0,1,.3.89h0c.06.35.81,2.05.59,2.69a15,15,0,0,0,.14,3.36s1,3.24,5.11,1.47,6.12-4.8,6-6a6,6,0,0,0-1.27-2.6c-.38-.56-1.76-6.84-1.76-6.84l-.3-4.57,0-4.31-.78-3.58-7-1.84s-9.48.33-10.57,1.4S131,13.4,131,13.4Z"/><path class="cls-7" d="M147,13.75s-1.79,2.69-2.44,2.47-.24-1.81-.7-3a21.7,21.7,0,0,0-1.34-2.52c-.37-.66-.56-1.4-.89-2.07a1.38,1.38,0,0,0-.31-.47,1.27,1.27,0,0,0-.85-.24,20.75,20.75,0,0,0-5.82.68,12.65,12.65,0,0,0-3.5,1.38c-.62.42-.17,3.41-.17,3.41a21,21,0,0,1-1.28-5.06c-.4-3,.45-5.89,4.82-7.7a9.7,9.7,0,0,1,5.66-.42,29,29,0,0,1,6.29,2c.74.34,2.65.94,2.81,1.93.14.8-.5,1.4.54,1.66s1.7.36,2.16,1.43a12.4,12.4,0,0,1,.6,5,12.21,12.21,0,0,1-1,4.25c-.53,1.35-1.43,2.79-1.24,4.29,0,.23.36,2.26,0,2.31s-3.42-2.62-3.16-3a4.8,4.8,0,0,0,1.52-4.81C148.05,12.38,147,13.75,147,13.75Z"/><path class="cls-8" d="M152.29,28.73c.3-.47,6.6,2.15,7.29,2.5,5.68,2.84,8.5,8.75,10.17,14.59,1,3.48,1.68,7,2.43,10.59.69,3.21,1.68,6.43,1.34,9.75a11.7,11.7,0,0,1-7,9.83,16.72,16.72,0,0,1-3,.7,1.52,1.52,0,0,0-1.65,1.45c-.22,3.31-1,6.54-1.25,9.85-.36,4.87-.8,9.82-4.69,13.23a15.35,15.35,0,0,1-4.1,2.85c-2.16.77-4.35,1.43-6.56,2,0,0-7.29-9-11.57-15.84s-1.71-13.43-2-15.55c-.47-3.59-1.36-8.22-1.32-11.83.1-8.78-5.53-23.92,4.89-28.74.46-.21,6-2.48,6-2.73,0,0,.78,3.58,3.24,3.57S149.75,32.75,152.29,28.73Z"/><path class="cls-1" d="M154.18,61.65q2.67,1,5.31,2.13c1.26.53,2.53,1.07,3.77,1.66a8.45,8.45,0,0,1,4.08,4.69c1.43,4.13-3.62,7.78-7.42,7-.95-.18-11.18-5.58-13.31-7.76a99.53,99.53,0,0,0-13-9.66,7.32,7.32,0,0,0-3.82-1c-.73.08-2.11.28-3.6-1.67a13.25,13.25,0,0,1-1.14-1.73c-.33-.61-.72-1.78-1.52-1.92s-1.94.63-2.61,1c-1,.49-1.71-1.31-1.5-4.41s1-4.43,2.72-5a7.56,7.56,0,0,1,6.58,1c2,1.58,3.33,6.63,5.34,7.9S154.18,61.65,154.18,61.65Z"/><path class="cls-9" d="M131.59,74.43S101.44,56.77,96,57.07,85.91,69.25,81,79.91a195.47,195.47,0,0,1-11.27,20.71l11,5.17s20.1-24.66,21.62-24.36c1.28.26,2.87,2.24,3.78,3,2.53,2.26,5,4.57,7.49,6.89q7.41,6.93,14.71,14c1.44,1.38,3.91,1.86,5.8,2.18a18.16,18.16,0,0,0,7.12-.14c.63-.15,4.4-.65,4.34-1.59C145.15,97.73,131.59,74.43,131.59,74.43Z"/><path class="cls-10" d="M140.77,28.39a6.18,6.18,0,0,1,.3.89h0a7.06,7.06,0,0,0,3-3.28A7.18,7.18,0,0,1,140.77,28.39Z"/><path class="cls-10" d="M147.42,15.66a1.92,1.92,0,0,1-.3,2.13l-.31-.3A2.67,2.67,0,0,0,147.42,15.66Z"/><path class="cls-11" d="M159,44s.06.23.15.64c.56,2.58,1.68,5.75,2,16.41l-.6-2.13A117.05,117.05,0,0,0,159,44Z"/><path class="cls-11" d="M168.13,62.86a19.11,19.11,0,0,0-7-1.53l1.53.31s4.87,1.22,5.78,1.83S168.13,62.86,168.13,62.86Z"/><path class="cls-11" d="M138,37s-4,0-6.09,6.4A11,11,0,0,1,138,37Z"/></g></g></svg>