
<svg xmlns="http://www.w3.org/2000/svg" version="1.1" xmlns:xlink="http://www.w3.org/1999/xlink" preserveAspectRatio="none" x="0px" y="0px" width="1024px" height="1024px" viewBox="0 0 1024 1024">
<defs>
<g id="Layer0_0_MEMBER_0_MEMBER_0_FILL">
<path fill="#AA7B61" stroke="none" d="
M 251.75 357.7
Q 249.95 356.65 248.15 357.7
L 184.4 394.5
Q 182.6 395.55 182.6 397.65
L 182.6 405.9
Q 182.6 408 184.4 409.05
L 248.15 445.85
Q 249 446.3 249.95 446.3 250.95 446.3 251.75 445.85
L 315.5 409.05
Q 317.3 408 317.3 405.9
L 317.3 397.65
Q 317.3 395.55 315.5 394.5
L 251.75 357.7 Z"/>
</g>

<g id="Layer0_0_MEMBER_0_MEMBER_1_FILL">
<path fill="#8C644F" stroke="none" d="
M 251.75 358.75
Q 249.95 357.7 248.15 358.75
L 184.4 395.55
Q 182.6 396.6 182.6 398.7
L 182.6 401.55
Q 182.6 403.65 184.4 404.7
L 248.15 441.5
Q 249 442 249.95 442 250.95 442 251.75 441.5
L 315.5 404.7
Q 317.3 403.65 317.3 401.55
L 317.3 398.7
Q 317.3 396.6 315.5 395.55
L 251.75 358.75 Z"/>
</g>

<g id="Layer0_0_MEMBER_0_MEMBER_2_FILL">
<path fill="#5A852F" stroke="none" d="
M 251.75 357.7
Q 249.95 356.65 248.15 357.7
L 184.4 394.5
Q 182.6 395.55 182.6 397.65
L 182.6 400.55
Q 182.6 402.6 184.4 403.65
L 248.15 440.45
Q 249 440.95 249.95 440.95 250.95 440.95 251.75 440.45
L 315.5 403.65
Q 317.3 402.6 317.3 400.55
L 317.3 397.65
Q 317.3 395.55 315.5 394.5
L 251.75 357.7 Z"/>
</g>

<g id="Layer0_0_MEMBER_0_MEMBER_3_FILL">
<path fill="#496E25" stroke="none" d="
M 251.75 357.7
Q 249.95 356.65 248.15 357.7
L 184.4 394.5
Q 182.6 395.55 182.6 397.65
L 182.6 398.35
Q 182.6 400.45 184.4 401.5
L 248.15 438.3
Q 249 438.75 249.95 438.75 250.95 438.75 251.75 438.3
L 315.5 401.5
Q 317.3 400.45 317.3 398.35
L 317.3 397.65
Q 317.3 395.55 315.5 394.5
L 251.75 357.7 Z"/>
</g>

<g id="Layer0_0_MEMBER_0_MEMBER_4_FILL">
<path fill="#000000" fill-opacity="0.2" stroke="none" d="
M 0 13.65
L 1.1 14.3
Q 1.95 14.75 2.9 14.75 3.9 14.75 4.7 14.3
L 5.8 13.65 5.8 0 0 0 0 13.65 Z"/>
</g>

<g id="Layer0_0_MEMBER_0_MEMBER_5_FILL">
<path fill="#6C9C38" stroke="none" d="
M 251.75 357.7
Q 249.95 356.65 248.15 357.7
L 184.4 394.5
Q 182.6 395.55 182.6 397.65 182.6 399.75 184.4 400.75
L 248.15 437.55
Q 249 438.05 249.95 438.05 250.95 438.05 251.75 437.55
L 315.5 400.75
Q 317.3 399.75 317.3 397.65 317.3 395.55 315.5 394.5
L 251.75 357.7 Z"/>
</g>

<g id="Layer0_0_MEMBER_0_MEMBER_6_FILL">
<path fill="#DADFD4" stroke="none" d="
M 271.05 390.05
Q 271.05 387.95 269.25 386.95
L 257.95 380.4
Q 258.85 381.65 258.6 383.2 258.3 384.8 256.85 385.65
L 207.5 414.1 220.25 421.45 269.25 393.2
Q 271.05 392.15 271.05 390.05 Z"/>
</g>

<g id="Layer0_0_MEMBER_1_MEMBER_0_MEMBER_0_FILL">
<path fill="#FFECC9" stroke="none" d="
M 249.95 424.25
L 249.95 396.75 207.55 372.25 207.55 399.75 249.95 424.25 Z"/>
</g>

<g id="Layer0_0_MEMBER_1_MEMBER_0_MEMBER_1_FILL">
<path fill="#A9C0B3" stroke="none" d="
M 249.95 424.25
L 249.95 408.7 207.55 384.2 207.55 399.75 249.95 424.25 Z"/>
</g>

<g id="Layer0_0_MEMBER_1_MEMBER_0_MEMBER_2_FILL">
<path fill="#E6CAA4" stroke="none" d="
M 249.95 396.75
L 249.95 424.25 292.35 399.75 292.35 372.25 249.95 396.75 Z"/>
</g>

<g id="Layer0_0_MEMBER_1_MEMBER_0_MEMBER_3_FILL">
<path fill="#FAEFDD" stroke="none" d="
M 292.35 372.25
L 249.95 347.75 207.55 372.25 249.95 396.75 292.35 372.25 Z"/>
</g>

<g id="Layer0_0_MEMBER_1_MEMBER_0_MEMBER_4_FILL">
<path fill="#8A9D92" stroke="none" d="
M 249.95 408.7
L 249.95 424.25 292.35 399.75 292.35 384.2 249.95 408.7 Z"/>
</g>

<g id="Layer0_0_MEMBER_1_MEMBER_0_MEMBER_5_MEMBER_0_FILL">
<path fill="#009D94" stroke="none" d="
M 232.75 389.7
L 220 382.35 220 406.95 232.75 414.3 232.75 389.7 Z"/>
</g>

<g id="Layer0_0_MEMBER_1_MEMBER_1_MEMBER_0_FILL">
<path fill="#FFECC9" stroke="none" d="
M 215.8 359.9
L 215.8 371.85 249.95 391.55 249.95 359.95 215.8 359.9 Z"/>
</g>

<g id="Layer0_0_MEMBER_1_MEMBER_1_MEMBER_1_FILL">
<path fill="#E6CAA4" stroke="none" d="
M 249.95 359.9
L 249.95 391.55 284.1 371.85 284.1 340.2 249.95 359.9 Z"/>
</g>

<g id="Layer0_0_MEMBER_1_MEMBER_1_MEMBER_2_FILL">
<path fill="#A9C0B3" stroke="none" d="
M 215.8 362.45
L 215.8 371.85 249.95 391.55 249.95 382.15 215.8 362.45 Z"/>
</g>

<g id="Layer0_0_MEMBER_1_MEMBER_1_MEMBER_3_MEMBER_0_FILL">
<path fill="#005B56" stroke="none" d="
M 240 370.65
Q 238.8 368.4 237.1 367.4
L 235.85 366.65
Q 234.6 365.9 233.55 366.25 233.3 366.3 233 366.4 232.35 366.65 231.95 367.1 230.95 368.1 230.95 370.1 230.95 372.4 232.15 374.7 233.35 376.95 235.05 377.95
L 236.35 378.7
Q 237.4 379.3 238.45 379.15 239.35 378.85 239.65 378.65 241.2 377.85 241.2 375.25 241.2 372.95 240 370.65 Z"/>
</g>

<g id="Layer0_0_MEMBER_1_MEMBER_1_MEMBER_3_MEMBER_1_FILL">
<path fill="#009D94" stroke="none" d="
M 232.15 366.95
Q 230.95 367.85 230.95 370.1 230.95 372.4 232.15 374.7 233.35 376.95 235.05 377.95
L 236.35 378.7
Q 238.05 379.7 239.25 378.75 240.45 377.85 240.45 375.6 240.45 373.3 239.25 371 238.05 368.75 236.35 367.75
L 235.05 367
Q 233.35 366.05 232.15 366.95 Z"/>
</g>

<g id="Layer0_0_MEMBER_1_MEMBER_1_MEMBER_3_MEMBER_2_FILL">
<path fill="#85CDD2" stroke="none" d="
M 232.85 368.1
Q 231.85 368.8 231.85 370.65 231.85 372.5 232.85 374.35 233.8 376.15 235.2 376.95
L 236.2 377.55
Q 237.6 378.35 238.55 377.6 239.5 376.9 239.5 375.05 239.5 373.2 238.55 371.4 237.6 369.55 236.2 368.75
L 235.2 368.15
Q 233.8 367.35 232.85 368.1 Z"/>
</g>

<g id="Layer0_0_MEMBER_1_MEMBER_1_MEMBER_3_MEMBER_3_FILL">
<path fill="#009D94" stroke="none" d="
M 236.2 378.6
L 236.2 367.65 235.2 367.1 235.2 378.05 236.2 378.6 Z"/>
</g>

<g id="Layer0_0_MEMBER_1_MEMBER_1_MEMBER_3_MEMBER_4_FILL">
<path fill="#009D94" stroke="none" d="
M 230.95 370.7
L 240.45 376.15 240.45 375 230.95 369.55 230.95 370.7 Z"/>
</g>

<g id="Layer0_0_MEMBER_1_MEMBER_1_MEMBER_4_FILL">
<path fill="#8A9D92" stroke="none" d="
M 249.95 382.15
L 249.95 391.55 284.1 371.85 284.1 362.45 249.95 382.15 Z"/>
</g>

<g id="Layer0_0_MEMBER_1_MEMBER_1_MEMBER_5_FILL">
<path fill="#46C3BC" stroke="none" d="
M 214.6 359.4
Q 214 359.75 214.2 360.45 214.35 361.1 215.05 361.1
L 249.7 361.1
Q 250.05 361.1 250.15 361
L 285.3 340.7
Q 285.9 340.35 285.75 339.7 285.55 339 284.85 339
L 250.2 339
Q 250 339 249.75 339.15
L 214.6 359.4 Z"/>
</g>

<g id="Layer0_0_MEMBER_1_MEMBER_1_MEMBER_6_FILL">
<path fill="#009D94" stroke="none" d="
M 214.2 360.45
Q 214.35 361.1 215.05 361.1
L 249.7 361.1
Q 250.05 361.1 250.15 361
L 285.3 340.7
Q 285.9 340.35 285.75 339.7 285.55 339 284.85 339
L 284.8 339 250.15 359
Q 250 359.15 249.7 359.15
L 215.1 359.15 214.6 359.4
Q 214 359.75 214.2 360.45 Z"/>
</g>

<g id="Layer0_0_MEMBER_1_MEMBER_1_MEMBER_7_MEMBER_0_FILL">
<path fill="#85CDD2" stroke="none" d="
M 258.35 362.2
L 258.35 374.25 265.7 369.95 265.7 357.95 258.35 362.2 Z"/>
</g>

<g id="Layer0_0_MEMBER_1_MEMBER_1_MEMBER_7_MEMBER_1_FILL">
<path fill="#005B56" stroke="none" d="
M 265.7 357.95
L 258.35 362.2 258.35 374.25 265.7 369.95 265.7 357.95
M 259.25 372.6
L 259.25 362.75 264.8 359.55 264.8 369.45 259.25 372.6 Z"/>
</g>

<g id="Layer0_0_MEMBER_1_MEMBER_1_MEMBER_7_MEMBER_2_FILL">
<path fill="#009D94" stroke="none" d="
M 257.4 361.5
L 257.4 373.55 258.35 374.25 258.35 362.2 257.4 361.5 Z"/>
</g>

<g id="Layer0_0_MEMBER_1_MEMBER_1_MEMBER_7_MEMBER_3_FILL">
<path fill="#46C3BC" stroke="none" d="
M 258.35 362.2
L 265.7 357.95 264.8 357.25 257.4 361.5 258.35 362.2 Z"/>
</g>

<g id="Layer0_0_MEMBER_1_MEMBER_1_MEMBER_7_MEMBER_4_FILL">
<path fill="#005B56" stroke="none" d="
M 258.35 367.7
L 258.35 368.7 265.7 364.5 265.7 363.45 258.35 367.7 Z"/>
</g>

<g id="Layer0_0_MEMBER_1_MEMBER_1_MEMBER_8_MEMBER_0_FILL">
<path fill="#85CDD2" stroke="none" d="
M 272.15 354.6
L 272.15 366.65 279.5 362.35 279.5 350.35 272.15 354.6 Z"/>
</g>

<g id="Layer0_0_MEMBER_1_MEMBER_1_MEMBER_8_MEMBER_1_FILL">
<path fill="#005B56" stroke="none" d="
M 279.5 350.35
L 272.15 354.6 272.15 366.65 279.5 362.35 279.5 350.35
M 273.05 365
L 273.05 355.15 278.6 351.95 278.6 361.85 273.05 365 Z"/>
</g>

<g id="Layer0_0_MEMBER_1_MEMBER_1_MEMBER_8_MEMBER_2_FILL">
<path fill="#009D94" stroke="none" d="
M 271.2 353.95
L 271.2 365.95 272.15 366.65 272.15 354.6 271.2 353.95 Z"/>
</g>

<g id="Layer0_0_MEMBER_1_MEMBER_1_MEMBER_8_MEMBER_3_FILL">
<path fill="#46C3BC" stroke="none" d="
M 272.15 354.6
L 279.5 350.35 278.6 349.65 271.2 353.95 272.15 354.6 Z"/>
</g>

<g id="Layer0_0_MEMBER_1_MEMBER_1_MEMBER_8_MEMBER_4_FILL">
<path fill="#005B56" stroke="none" d="
M 272.15 360.1
L 272.15 361.1 279.5 356.9 279.5 355.85 272.15 360.1 Z"/>
</g>

<g id="Layer0_0_MEMBER_1_MEMBER_1_MEMBER_9_MEMBER_0_FILL">
<path fill="#FFECC9" stroke="none" d="
M 237.65 346.2
L 232.9 343.5 232.9 354.25 237.65 354.25 237.65 346.2 Z"/>
</g>

<g id="Layer0_0_MEMBER_1_MEMBER_1_MEMBER_9_MEMBER_1_FILL">
<path fill="#E6CAA4" stroke="none" d="
M 232.9 345.15
L 232.9 346.4 235.5 347.95 235.5 346.65 232.9 345.15 Z"/>
</g>

<g id="Layer0_0_MEMBER_1_MEMBER_1_MEMBER_9_MEMBER_2_FILL">
<path fill="#E6CAA4" stroke="none" d="
M 237.65 352.1
L 237.65 350.8 235.3 349.45 235.3 350.75 237.65 352.1 Z"/>
</g>

<g id="Layer0_0_MEMBER_1_MEMBER_1_MEMBER_9_MEMBER_3_FILL">
<path fill="#E6CAA4" stroke="none" d="
M 232.9 351.45
L 232.9 352.75 235.5 354.25 235.5 352.95 232.9 351.45 Z"/>
</g>

<g id="Layer0_0_MEMBER_1_MEMBER_1_MEMBER_9_MEMBER_4_FILL">
<path fill="#E6CAA4" stroke="none" d="
M 242.35 343.5
L 237.65 346.2 237.65 354.2 242.35 351.5 242.35 343.5 Z"/>
</g>

<g id="Layer0_0_MEMBER_1_MEMBER_1_MEMBER_9_MEMBER_5_FILL">
<path fill="#B7A081" stroke="none" d="
M 237.65 348.6
L 237.65 349.85 239.55 348.75 239.55 347.5 237.65 348.6 Z"/>
</g>

<g id="Layer0_0_MEMBER_1_MEMBER_1_MEMBER_9_MEMBER_6_FILL">
<path fill="#B7A081" stroke="none" d="
M 242.35 349.85
L 242.35 348.55 239.15 350.45 239.15 351.75 242.35 349.85 Z"/>
</g>

<g id="Layer0_0_MEMBER_1_MEMBER_1_MEMBER_9_MEMBER_7_FILL">
<path fill="#FFF8EC" stroke="none" d="
M 237.65 346.2
L 242.35 343.5 237.65 340.75 232.9 343.5 237.65 346.2 Z"/>
</g>

<g id="Layer0_0_MEMBER_1_MEMBER_1_MEMBER_9_MEMBER_8_FILL">
<path fill="#FFECC9" stroke="none" d="
M 237.65 345.2
L 240.65 343.5 237.65 341.75 234.65 343.5 237.65 345.2 Z"/>
</g>

<g id="Layer0_0_MEMBER_1_MEMBER_1_MEMBER_9_MEMBER_9_FILL">
<path fill="#E6CAA4" stroke="none" d="
M 237.65 341.75
L 237.65 345.2 240.65 343.5 237.65 341.75 Z"/>
</g>

<g id="Layer0_0_MEMBER_1_MEMBER_2_MEMBER_0_FILL">
<path fill="#85CDD2" stroke="none" d="
M 257.1 399.05
L 257.1 411.1 264.45 406.8 264.45 394.8 257.1 399.05 Z"/>
</g>

<g id="Layer0_0_MEMBER_1_MEMBER_2_MEMBER_1_FILL">
<path fill="#005B56" stroke="none" d="
M 257.1 411.1
L 264.45 406.8 264.45 394.8 257.1 399.05 257.1 411.1
M 258 409.45
L 258 399.6 263.55 396.4 263.55 406.25 258 409.45 Z"/>
</g>

<g id="Layer0_0_MEMBER_1_MEMBER_2_MEMBER_2_FILL">
<path fill="#009D94" stroke="none" d="
M 256.15 398.35
L 256.15 410.4 257.1 411.1 257.1 399.05 256.15 398.35 Z"/>
</g>

<g id="Layer0_0_MEMBER_1_MEMBER_2_MEMBER_3_FILL">
<path fill="#46C3BC" stroke="none" d="
M 264.45 394.8
L 263.55 394.1 256.15 398.35 257.1 399.05 264.45 394.8 Z"/>
</g>

<g id="Layer0_0_MEMBER_1_MEMBER_2_MEMBER_4_FILL">
<path fill="#005B56" stroke="none" d="
M 257.1 404.55
L 257.1 405.55 264.45 401.3 264.45 400.3 257.1 404.55 Z"/>
</g>

<g id="Layer0_0_MEMBER_1_MEMBER_3_MEMBER_0_FILL">
<path fill="#85CDD2" stroke="none" d="
M 276.35 388.5
L 269 392.75 269 404.8 276.35 400.5 276.35 388.5 Z"/>
</g>

<g id="Layer0_0_MEMBER_1_MEMBER_3_MEMBER_1_FILL">
<path fill="#005B56" stroke="none" d="
M 276.35 388.5
L 269 392.75 269 404.8 276.35 400.5 276.35 388.5
M 269.9 393.3
L 275.45 390.1 275.45 399.95 269.9 403.15 269.9 393.3 Z"/>
</g>

<g id="Layer0_0_MEMBER_1_MEMBER_3_MEMBER_2_FILL">
<path fill="#009D94" stroke="none" d="
M 269 392.75
L 268.05 392.05 268.05 404.1 269 404.8 269 392.75 Z"/>
</g>

<g id="Layer0_0_MEMBER_1_MEMBER_3_MEMBER_3_FILL">
<path fill="#46C3BC" stroke="none" d="
M 269 392.75
L 276.35 388.5 275.45 387.8 268.05 392.05 269 392.75 Z"/>
</g>

<g id="Layer0_0_MEMBER_1_MEMBER_3_MEMBER_4_FILL">
<path fill="#005B56" stroke="none" d="
M 276.35 395
L 276.35 394 269 398.25 269 399.25 276.35 395 Z"/>
</g>

<g id="Layer0_0_MEMBER_1_MEMBER_4_MEMBER_0_FILL">
<path fill="#85CDD2" stroke="none" d="
M 288.25 394.2
L 288.25 382.2 280.85 386.45 280.85 398.5 288.25 394.2 Z"/>
</g>

<g id="Layer0_0_MEMBER_1_MEMBER_4_MEMBER_1_FILL">
<path fill="#005B56" stroke="none" d="
M 288.25 394.2
L 288.25 382.2 280.85 386.45 280.85 398.5 288.25 394.2
M 287.35 383.8
L 287.35 393.65 281.8 396.85 281.8 387 287.35 383.8 Z"/>
</g>

<g id="Layer0_0_MEMBER_1_MEMBER_4_MEMBER_2_FILL">
<path fill="#009D94" stroke="none" d="
M 280.85 386.45
L 279.95 385.75 279.95 397.8 280.85 398.5 280.85 386.45 Z"/>
</g>

<g id="Layer0_0_MEMBER_1_MEMBER_4_MEMBER_3_FILL">
<path fill="#46C3BC" stroke="none" d="
M 279.95 385.75
L 280.85 386.45 288.25 382.2 287.35 381.5 279.95 385.75 Z"/>
</g>

<g id="Layer0_0_MEMBER_1_MEMBER_4_MEMBER_4_FILL">
<path fill="#005B56" stroke="none" d="
M 280.9 391.95
L 280.9 392.95 288.25 388.7 288.25 387.7 280.9 391.95 Z"/>
</g>
</defs>

<g transform="matrix( 7, 0, 0, 7, -1237.65,-2236.55) ">
<use xlink:href="#Layer0_0_MEMBER_0_MEMBER_0_FILL"/>
</g>

<g transform="matrix( 7, 0, 0, 7, -1237.65,-2236.55) ">
<use xlink:href="#Layer0_0_MEMBER_0_MEMBER_1_FILL"/>
</g>

<g transform="matrix( 7, 0, 0, 7, -1237.65,-2236.55) ">
<use xlink:href="#Layer0_0_MEMBER_0_MEMBER_2_FILL"/>
</g>

<g transform="matrix( 7, 0, 0, 7, -1237.65,-2236.55) ">
<use xlink:href="#Layer0_0_MEMBER_0_MEMBER_3_FILL"/>
</g>

<g transform="matrix( 7, 0, 0, 7, 491.7,784.3) ">
<use xlink:href="#Layer0_0_MEMBER_0_MEMBER_4_FILL"/>
</g>

<g transform="matrix( 7, 0, 0, 7, -1237.65,-2236.55) ">
<use xlink:href="#Layer0_0_MEMBER_0_MEMBER_5_FILL"/>
</g>

<g transform="matrix( 7, 0, 0, 7, -1237.65,-2236.55) ">
<use xlink:href="#Layer0_0_MEMBER_0_MEMBER_6_FILL"/>
</g>

<g transform="matrix( 7, 0, 0, 7, -1237.65,-2236.55) ">
<use xlink:href="#Layer0_0_MEMBER_1_MEMBER_0_MEMBER_0_FILL"/>
</g>

<g transform="matrix( 7, 0, 0, 7, -1237.65,-2236.55) ">
<use xlink:href="#Layer0_0_MEMBER_1_MEMBER_0_MEMBER_1_FILL"/>
</g>

<g transform="matrix( 7, 0, 0, 7, -1237.65,-2236.55) ">
<use xlink:href="#Layer0_0_MEMBER_1_MEMBER_0_MEMBER_2_FILL"/>
</g>

<g transform="matrix( 7, 0, 0, 7, -1237.65,-2236.55) ">
<use xlink:href="#Layer0_0_MEMBER_1_MEMBER_0_MEMBER_3_FILL"/>
</g>

<g transform="matrix( 7, 0, 0, 7, -1237.65,-2236.55) ">
<use xlink:href="#Layer0_0_MEMBER_1_MEMBER_0_MEMBER_4_FILL"/>
</g>

<g transform="matrix( 7, 0, 0, 7, -1237.65,-2236.55) ">
<use xlink:href="#Layer0_0_MEMBER_1_MEMBER_0_MEMBER_5_MEMBER_0_FILL"/>
</g>

<g transform="matrix( 7, 0, 0, 7, -1237.65,-2236.55) ">
<use xlink:href="#Layer0_0_MEMBER_1_MEMBER_1_MEMBER_0_FILL"/>
</g>

<g transform="matrix( 7, 0, 0, 7, -1237.65,-2236.55) ">
<use xlink:href="#Layer0_0_MEMBER_1_MEMBER_1_MEMBER_1_FILL"/>
</g>

<g transform="matrix( 7, 0, 0, 7, -1237.65,-2236.55) ">
<use xlink:href="#Layer0_0_MEMBER_1_MEMBER_1_MEMBER_2_FILL"/>
</g>

<g transform="matrix( 7, 0, 0, 7, -1237.65,-2236.55) ">
<use xlink:href="#Layer0_0_MEMBER_1_MEMBER_1_MEMBER_3_MEMBER_0_FILL"/>
</g>

<g transform="matrix( 7, 0, 0, 7, -1237.65,-2236.55) ">
<use xlink:href="#Layer0_0_MEMBER_1_MEMBER_1_MEMBER_3_MEMBER_1_FILL"/>
</g>

<g transform="matrix( 7, 0, 0, 7, -1237.65,-2236.55) ">
<use xlink:href="#Layer0_0_MEMBER_1_MEMBER_1_MEMBER_3_MEMBER_2_FILL"/>
</g>

<g transform="matrix( 7, 0, 0, 7, -1237.65,-2236.55) ">
<use xlink:href="#Layer0_0_MEMBER_1_MEMBER_1_MEMBER_3_MEMBER_3_FILL"/>
</g>

<g transform="matrix( 7, 0, 0, 7, -1237.65,-2236.55) ">
<use xlink:href="#Layer0_0_MEMBER_1_MEMBER_1_MEMBER_3_MEMBER_4_FILL"/>
</g>

<g transform="matrix( 7, 0, 0, 7, -1237.65,-2236.55) ">
<use xlink:href="#Layer0_0_MEMBER_1_MEMBER_1_MEMBER_4_FILL"/>
</g>

<g transform="matrix( 7, 0, 0, 7, -1237.65,-2236.55) ">
<use xlink:href="#Layer0_0_MEMBER_1_MEMBER_1_MEMBER_5_FILL"/>
</g>

<g transform="matrix( 7, 0, 0, 7, -1237.65,-2236.55) ">
<use xlink:href="#Layer0_0_MEMBER_1_MEMBER_1_MEMBER_6_FILL"/>
</g>

<g transform="matrix( 7, 0, 0, 7, -1237.65,-2236.55) ">
<use xlink:href="#Layer0_0_MEMBER_1_MEMBER_1_MEMBER_7_MEMBER_0_FILL"/>
</g>

<g transform="matrix( 7, 0, 0, 7, -1237.65,-2236.55) ">
<use xlink:href="#Layer0_0_MEMBER_1_MEMBER_1_MEMBER_7_MEMBER_1_FILL"/>
</g>

<g transform="matrix( 7, 0, 0, 7, -1237.65,-2236.55) ">
<use xlink:href="#Layer0_0_MEMBER_1_MEMBER_1_MEMBER_7_MEMBER_2_FILL"/>
</g>

<g transform="matrix( 7, 0, 0, 7, -1237.65,-2236.55) ">
<use xlink:href="#Layer0_0_MEMBER_1_MEMBER_1_MEMBER_7_MEMBER_3_FILL"/>
</g>

<g transform="matrix( 7, 0, 0, 7, -1237.65,-2236.55) ">
<use xlink:href="#Layer0_0_MEMBER_1_MEMBER_1_MEMBER_7_MEMBER_4_FILL"/>
</g>

<g transform="matrix( 7, 0, 0, 7, -1237.65,-2236.55) ">
<use xlink:href="#Layer0_0_MEMBER_1_MEMBER_1_MEMBER_8_MEMBER_0_FILL"/>
</g>

<g transform="matrix( 7, 0, 0, 7, -1237.65,-2236.55) ">
<use xlink:href="#Layer0_0_MEMBER_1_MEMBER_1_MEMBER_8_MEMBER_1_FILL"/>
</g>

<g transform="matrix( 7, 0, 0, 7, -1237.65,-2236.55) ">
<use xlink:href="#Layer0_0_MEMBER_1_MEMBER_1_MEMBER_8_MEMBER_2_FILL"/>
</g>

<g transform="matrix( 7, 0, 0, 7, -1237.65,-2236.55) ">
<use xlink:href="#Layer0_0_MEMBER_1_MEMBER_1_MEMBER_8_MEMBER_3_FILL"/>
</g>

<g transform="matrix( 7, 0, 0, 7, -1237.65,-2236.55) ">
<use xlink:href="#Layer0_0_MEMBER_1_MEMBER_1_MEMBER_8_MEMBER_4_FILL"/>
</g>

<g transform="matrix( 7, 0, 0, 7, -1237.65,-2236.55) ">
<use xlink:href="#Layer0_0_MEMBER_1_MEMBER_1_MEMBER_9_MEMBER_0_FILL"/>
</g>

<g transform="matrix( 7, 0, 0, 7, -1237.65,-2236.55) ">
<use xlink:href="#Layer0_0_MEMBER_1_MEMBER_1_MEMBER_9_MEMBER_1_FILL"/>
</g>

<g transform="matrix( 7, 0, 0, 7, -1237.65,-2236.55) ">
<use xlink:href="#Layer0_0_MEMBER_1_MEMBER_1_MEMBER_9_MEMBER_2_FILL"/>
</g>

<g transform="matrix( 7, 0, 0, 7, -1237.65,-2236.55) ">
<use xlink:href="#Layer0_0_MEMBER_1_MEMBER_1_MEMBER_9_MEMBER_3_FILL"/>
</g>

<g transform="matrix( 7, 0, 0, 7, -1237.65,-2236.55) ">
<use xlink:href="#Layer0_0_MEMBER_1_MEMBER_1_MEMBER_9_MEMBER_4_FILL"/>
</g>

<g transform="matrix( 7, 0, 0, 7, -1237.65,-2236.55) ">
<use xlink:href="#Layer0_0_MEMBER_1_MEMBER_1_MEMBER_9_MEMBER_5_FILL"/>
</g>

<g transform="matrix( 7, 0, 0, 7, -1237.65,-2236.55) ">
<use xlink:href="#Layer0_0_MEMBER_1_MEMBER_1_MEMBER_9_MEMBER_6_FILL"/>
</g>

<g transform="matrix( 7, 0, 0, 7, -1237.65,-2236.55) ">
<use xlink:href="#Layer0_0_MEMBER_1_MEMBER_1_MEMBER_9_MEMBER_7_FILL"/>
</g>

<g transform="matrix( 7, 0, 0, 7, -1237.65,-2236.55) ">
<use xlink:href="#Layer0_0_MEMBER_1_MEMBER_1_MEMBER_9_MEMBER_8_FILL"/>
</g>

<g transform="matrix( 7, 0, 0, 7, -1237.65,-2236.55) ">
<use xlink:href="#Layer0_0_MEMBER_1_MEMBER_1_MEMBER_9_MEMBER_9_FILL"/>
</g>

<g transform="matrix( 7, 0, 0, 7, -1237.65,-2236.55) ">
<use xlink:href="#Layer0_0_MEMBER_1_MEMBER_2_MEMBER_0_FILL"/>
</g>

<g transform="matrix( 7, 0, 0, 7, -1237.65,-2236.55) ">
<use xlink:href="#Layer0_0_MEMBER_1_MEMBER_2_MEMBER_1_FILL"/>
</g>

<g transform="matrix( 7, 0, 0, 7, -1237.65,-2236.55) ">
<use xlink:href="#Layer0_0_MEMBER_1_MEMBER_2_MEMBER_2_FILL"/>
</g>

<g transform="matrix( 7, 0, 0, 7, -1237.65,-2236.55) ">
<use xlink:href="#Layer0_0_MEMBER_1_MEMBER_2_MEMBER_3_FILL"/>
</g>

<g transform="matrix( 7, 0, 0, 7, -1237.65,-2236.55) ">
<use xlink:href="#Layer0_0_MEMBER_1_MEMBER_2_MEMBER_4_FILL"/>
</g>

<g transform="matrix( 7, 0, 0, 7, -1237.65,-2236.55) ">
<use xlink:href="#Layer0_0_MEMBER_1_MEMBER_3_MEMBER_0_FILL"/>
</g>

<g transform="matrix( 7, 0, 0, 7, -1237.65,-2236.55) ">
<use xlink:href="#Layer0_0_MEMBER_1_MEMBER_3_MEMBER_1_FILL"/>
</g>

<g transform="matrix( 7, 0, 0, 7, -1237.65,-2236.55) ">
<use xlink:href="#Layer0_0_MEMBER_1_MEMBER_3_MEMBER_2_FILL"/>
</g>

<g transform="matrix( 7, 0, 0, 7, -1237.65,-2236.55) ">
<use xlink:href="#Layer0_0_MEMBER_1_MEMBER_3_MEMBER_3_FILL"/>
</g>

<g transform="matrix( 7, 0, 0, 7, -1237.65,-2236.55) ">
<use xlink:href="#Layer0_0_MEMBER_1_MEMBER_3_MEMBER_4_FILL"/>
</g>

<g transform="matrix( 7, 0, 0, 7, -1237.65,-2236.55) ">
<use xlink:href="#Layer0_0_MEMBER_1_MEMBER_4_MEMBER_0_FILL"/>
</g>

<g transform="matrix( 7, 0, 0, 7, -1237.65,-2236.55) ">
<use xlink:href="#Layer0_0_MEMBER_1_MEMBER_4_MEMBER_1_FILL"/>
</g>

<g transform="matrix( 7, 0, 0, 7, -1237.65,-2236.55) ">
<use xlink:href="#Layer0_0_MEMBER_1_MEMBER_4_MEMBER_2_FILL"/>
</g>

<g transform="matrix( 7, 0, 0, 7, -1237.65,-2236.55) ">
<use xlink:href="#Layer0_0_MEMBER_1_MEMBER_4_MEMBER_3_FILL"/>
</g>

<g transform="matrix( 7, 0, 0, 7, -1237.65,-2236.55) ">
<use xlink:href="#Layer0_0_MEMBER_1_MEMBER_4_MEMBER_4_FILL"/>
</g>
</svg>
