<?xml version="1.0" encoding="iso-8859-1"?>
<!-- Generator: Adobe Illustrator 23.0.2, SVG Export Plug-In . SVG Version: 6.00 Build 0)  -->
<svg version="1.1" id="&#x56FE;&#x5C42;_1" xmlns="http://www.w3.org/2000/svg" xmlns:xlink="http://www.w3.org/1999/xlink" x="0px"
	 y="0px" viewBox="0 0 500 500" style="enable-background:new 0 0 500 500;" xml:space="preserve">
<g id="&#x949F;">
	<circle style="fill:#5A78EC;" cx="261.526" cy="245.464" r="94.148"/>
	<circle style="fill:#EAF0FF;" cx="247.474" cy="238.438" r="94.148"/>
	<path style="fill:#FF6666;" d="M248.931,239.048l-0.822-0.581c-0.558-0.394-0.691-1.174-0.297-1.731l40.758-57.629
		c0.395-0.558,1.174-0.691,1.731-0.297l0.822,0.581c0.558,0.394,0.691,1.174,0.297,1.731l-40.758,57.629
		C250.268,239.309,249.489,239.442,248.931,239.048z"/>
	<path style="fill:#FFD840;" d="M247.262,237.357l-0.714,2.169c-0.214,0.649-0.919,1.005-1.568,0.791l-42.632-14.041
		c-0.649-0.214-1.005-0.919-0.791-1.568l0.714-2.169c0.214-0.649,0.919-1.005,1.568-0.791l42.632,14.041
		C247.12,236.002,247.476,236.708,247.262,237.357z"/>
	<circle style="fill:#5A78EC;" cx="247.474" cy="238.438" r="5.621"/>
</g>
</svg>
