<svg xmlns="http://www.w3.org/2000/svg" xmlns:xlink="http://www.w3.org/1999/xlink" viewBox="0 0 352.94 797.37"><defs><style>.cls-1,.cls-6{fill:#d1b178;}.cls-1,.cls-10,.cls-12,.cls-16,.cls-17,.cls-2,.cls-3,.cls-4,.cls-5,.cls-9{stroke:#291e1e;}.cls-1,.cls-10,.cls-12,.cls-16,.cls-17,.cls-2,.cls-22,.cls-24,.cls-25,.cls-27,.cls-28,.cls-3,.cls-30,.cls-33,.cls-4,.cls-5,.cls-9{stroke-linecap:round;stroke-linejoin:round;}.cls-1,.cls-10,.cls-12,.cls-16,.cls-17,.cls-2,.cls-21,.cls-22,.cls-24,.cls-26,.cls-27,.cls-29,.cls-3,.cls-30,.cls-31,.cls-32,.cls-33,.cls-34,.cls-4,.cls-5,.cls-9{stroke-width:2px;}.cls-13,.cls-2{fill:#376f92;}.cls-18,.cls-3{fill:#ffc266;}.cls-21,.cls-23,.cls-27,.cls-28,.cls-4{fill:#ffdbd1;}.cls-5{fill:#594424;}.cls-7{clip-path:url(#clip-path);}.cls-8{fill:#a88a57;}.cls-10,.cls-12,.cls-16,.cls-17,.cls-24,.cls-25,.cls-26,.cls-9{fill:none;}.cls-10{stroke-dasharray:3;}.cls-11{clip-path:url(#clip-path-2);}.cls-12{stroke-dasharray:3.31 3.31;}.cls-14{clip-path:url(#clip-path-3);}.cls-15{fill:#265a7a;}.cls-16{stroke-dasharray:12.23 12.23;}.cls-17{stroke-dasharray:11.71 11.71;}.cls-19{clip-path:url(#clip-path-4);}.cls-20{fill:#d9a252;}.cls-21,.cls-22,.cls-24,.cls-25,.cls-26,.cls-27,.cls-28,.cls-29,.cls-30,.cls-31,.cls-32,.cls-33,.cls-34{stroke:#493437;}.cls-21,.cls-26,.cls-29,.cls-31,.cls-32,.cls-34{stroke-miterlimit:10;}.cls-22{fill:#457c9a;}.cls-29{fill:#291e1e;}.cls-30{fill:#1a1313;}.cls-31{fill:#9c280e;}.cls-32{fill:#493437;}.cls-33{fill:#ffbeac;}.cls-34{fill:#ff9d82;}</style><clipPath id="clip-path" transform="translate(-224.17 -122.53)"><path class="cls-1" d="M393.19,842.91s-7.15,12-8.68,13-13.53-.26-13.53-.26,2,15.58,3.06,16.6-3.32,19.15.77,24.25c1,1.53,27.31.51,27.31.51l-.51-4.08,13.79.76,4.34,3.58s30.38.25,37.28,0,13.79-6.64,13.79-6.64,1.27-16.34-16.09-16.09c0,0-32.42-15.57-39.32-17.36L410,834.74Z"/></clipPath><clipPath id="clip-path-2" transform="translate(-224.17 -122.53)"><path class="cls-1" d="M291.83,855.17s-.26,10.21-1.79,12.26-7.66,0-7.66,0l-.51,32.68,1.53,5.1h52.85s2.3-16.08-7.66-19.91l-5.61-.51s-4.86-17.88-5.37-33.7S291.83,855.17,291.83,855.17Z"/></clipPath><clipPath id="clip-path-3" transform="translate(-224.17 -122.53)"><path class="cls-2" d="M363.83,821.47l4.34-1.79s-14.9-85-6.13-124.08c0,0,2.81-14.81,2.81-17.88s-8.51-130.63-8.51-130.63l-12.51-.6S340.08,663,334,687.68c0,0-2.55,19.15-6.12,23l-7.41,120.25,3.32-.25s.77,18.13-.25,18.13-17.62,15.06-45.19,6.38c0,0-6.13-19.66-4.6-23.23.94-1.28,7.66-1.28,7.66-1.28S265,740.53,275.49,712.19l5.36-17.62-2.3-133.78-1.27-30.3,130.46,7.83,9.7,5.36s-.51,124.09-2,133.79,1.19,19.57-5.1,33.87l-1.37,104.34,1.88.17s1.27,15.58.25,18.64-17.62,15.32-44.17,7.66c0,0-3.57-12-3.06-19.92"/></clipPath><clipPath id="clip-path-4" transform="translate(-224.17 -122.53)"><path class="cls-3" d="M385.61,256.36s5.45,6.47,2.39,12.26-4.43,3.74-4.09,6.47,1.36,10.55,4.43,11.91,22.81,7.83,36.76,19.4,48,38.47,52.43,40.17,42.89-37.78,44.59-38.8,18,7.83,24.18,18c0,0-33.71,49-51.75,59.57s-30,2.73-32.68,1.36-41.53-18-41.53-18-3.41,70.13-1,109.28,2.38,61.62,1,68.42c-1.17,5.84-110.24,1.43-141.5,0a8.74,8.74,0,0,1-8.36-8.69c-.08-16.27,0-52.38,1.77-71,0,0-33.7-10.89-43.91-29.95S251.83,334,272.25,310.49s29.62-22.81,37.45-24.85,10.89-1,12.94-2.38,5.78-11.24,4.76-12.6-6.81-8.51-5.45-11.23,4.09-5.11,6.13-4.09S385.61,256.36,385.61,256.36Z"/></clipPath></defs><title>在汇报的女孩</title><g id="图层_8" data-name="图层 8"><polygon class="cls-4" points="148.09 720.13 150.89 743.62 167.49 742.09 168.25 718.86 148.09 720.13"/><path class="cls-5" d="M469.91,889.23l-52.85,4.89v7.24h40.05a16.64,16.64,0,0,0,5.53-1.27c4.68-1.79,6.63-3.07,8.93-5.24Z" transform="translate(-224.17 -122.53)"/><polygon class="cls-5" points="177.83 772.98 150.38 775.52 150.38 778.84 177.83 778.84 177.83 772.98"/><path class="cls-6" d="M393.19,842.91s-7.15,12-8.68,13-13.53-.26-13.53-.26,2,15.58,3.06,16.6-3.32,19.15.77,24.25c1,1.53,27.31.51,27.31.51l-.51-4.08,13.79.76,4.34,3.58s30.38.25,37.28,0,13.79-6.64,13.79-6.64,1.27-16.34-16.09-16.09c0,0-32.42-15.57-39.32-17.36L410,834.74Z" transform="translate(-224.17 -122.53)"/><g class="cls-7"><path class="cls-8" d="M383.61,852s3.83,21.83,5,23.74,4.22,10.09,8.43,13.66a114.54,114.54,0,0,1,8.55,8.3l-10.72,22.21-39.19-30.76-3.07-36.9Z" transform="translate(-224.17 -122.53)"/></g><path class="cls-9" d="M393.19,842.91s-7.15,12-8.68,13-13.53-.26-13.53-.26,2,15.58,3.06,16.6-3.32,19.15.77,24.25c1,1.53,27.31.51,27.31.51l-.51-4.08,13.79.76,4.34,3.58s30.38.25,37.28,0,13.79-6.64,13.79-6.64,1.27-16.34-16.09-16.09c0,0-32.42-15.57-39.32-17.36L410,834.74Z" transform="translate(-224.17 -122.53)"/><path class="cls-9" d="M454.72,874.57s-14.55,7.41-12.51,16.6" transform="translate(-224.17 -122.53)"/><path class="cls-9" d="M404.93,849.3S407,863.09,422,869.47s24,9.44,24,9.44" transform="translate(-224.17 -122.53)"/><path class="cls-10" d="M375.06,869.21s14.3-1.27,30.89-10.47" transform="translate(-224.17 -122.53)"/><polygon class="cls-4" points="60 729.58 62.81 753.07 79.4 751.54 80.17 728.3 60 729.58"/><path class="cls-6" d="M291.83,855.17s-.26,10.21-1.79,12.26-7.66,0-7.66,0l-.51,32.68,1.53,5.1h52.85s2.3-16.08-7.66-19.91l-5.61-.51s-4.86-17.88-5.37-33.7S291.83,855.17,291.83,855.17Z" transform="translate(-224.17 -122.53)"/><g class="cls-11"><path class="cls-8" d="M289.27,859.13s1.41,35.74,3.07,38.3,16.47,14.29,16.47,14.29l-47.88,2.56V875.47l14.43-19.66Z" transform="translate(-224.17 -122.53)"/></g><path class="cls-9" d="M291.83,855.17s-.26,10.21-1.79,12.26-7.66,0-7.66,0l-.51,32.68,1.53,5.1h52.85s2.3-16.08-7.66-19.91l-5.61-.51s-4.86-17.88-5.37-33.7S291.83,855.17,291.83,855.17Z" transform="translate(-224.17 -122.53)"/><path class="cls-9" d="M299.49,896.28s2.55-12,23.23-10.73" transform="translate(-224.17 -122.53)"/><path class="cls-9" d="M302.55,858v11.74s6.13,13.79,7.15,15.07" transform="translate(-224.17 -122.53)"/><path class="cls-9" d="M306.12,868.7s6.64-1.27,10-.25" transform="translate(-224.17 -122.53)"/><path class="cls-9" d="M282.64,873a6.24,6.24,0,0,0,1.4.51" transform="translate(-224.17 -122.53)"/><path class="cls-12" d="M287.31,874a29.91,29.91,0,0,0,11.3-2.27" transform="translate(-224.17 -122.53)"/><path class="cls-9" d="M300.15,871.09l1.38-.6" transform="translate(-224.17 -122.53)"/><rect class="cls-5" x="58.79" y="781.41" width="53.11" height="4.79"/><path class="cls-13" d="M363.83,821.47l4.34-1.79s-14.9-85-6.13-124.08c0,0,2.81-14.81,2.81-17.88s-8.51-130.63-8.51-130.63l-12.51-.6S340.08,663,334,687.68c0,0-2.55,19.15-6.12,23l-7.41,120.25,3.32-.25s.77,18.13-.25,18.13-17.62,15.06-45.19,6.38c0,0-6.13-19.66-4.6-23.23.94-1.28,7.66-1.28,7.66-1.28S265,740.53,275.49,712.19l5.36-17.62-2.3-133.78-1.27-30.3,130.46,7.83,9.7,5.36s-.51,124.09-2,133.79,1.19,19.57-5.1,33.87l-1.37,104.34,1.88.17s1.27,15.58.25,18.64-17.62,15.32-44.17,7.66c0,0-3.57-12-3.06-19.92" transform="translate(-224.17 -122.53)"/><g class="cls-14"><path class="cls-15" d="M295.32,546s1.44,135.57-3.32,154-7.15,50-2.05,75.91,6.13,63,6.13,63-5.78,3.74,1,18.38-54.8,4.43-54.8,4.43l10.21-132.43,22-191.06Z" transform="translate(-224.17 -122.53)"/><path class="cls-15" d="M368.26,543.64s9.18,115.45,11.57,129.4-3.07,22.47-3.41,23.83-7.49,45.62,2.73,91.58,2,34.38,2,34.38-3.07,18.38,2.38,26.89-31-6.81-31-6.81l-3.06-131.74V550.83Z" transform="translate(-224.17 -122.53)"/></g><path class="cls-9" d="M363.83,821.47l4.34-1.79s-14.9-85-6.13-124.08c0,0,2.81-14.81,2.81-17.88s-8.51-130.63-8.51-130.63l-12.51-.6S340.08,663,334,687.68c0,0-2.55,19.15-6.12,23l-7.41,120.25,3.32-.25s.77,18.13-.25,18.13-17.62,15.06-45.19,6.38c0,0-6.13-19.66-4.6-23.23.94-1.28,7.66-1.28,7.66-1.28S265,740.53,275.49,712.19l5.36-17.62-2.3-133.78-1.27-30.3,130.46,7.83,9.7,5.36s-.51,124.09-2,133.79,1.19,19.57-5.1,33.87l-1.37,104.34,1.88.17s1.27,15.58.25,18.64-17.62,15.32-44.17,7.66c0,0-3.57-12-3.06-19.92" transform="translate(-224.17 -122.53)"/><path class="cls-9" d="M277.7,835.09s18.72,9.36,42.72-1.37" transform="translate(-224.17 -122.53)"/><path class="cls-9" d="M366.89,823s25.87,8.68,41.87-4.6" transform="translate(-224.17 -122.53)"/><path class="cls-9" d="M294.38,566.83l0,6" transform="translate(-224.17 -122.53)"/><path class="cls-16" d="M294.43,585.05c.1,33.32.29,100.84.29,102.63,0,2.38-10.21,37.79-7.15,63,2.2,18,5.79,53.19,7.65,71.69" transform="translate(-224.17 -122.53)"/><path class="cls-9" d="M295.83,828.44c.37,3.75.59,6,.59,6" transform="translate(-224.17 -122.53)"/><path class="cls-9" d="M370.64,566.83s.17,2.19.48,6" transform="translate(-224.17 -122.53)"/><path class="cls-17" d="M372.06,584.48c2.55,32,7.6,96.39,7.09,99.46-.68,4.08-9.54,31.66-4.43,72.85,3,24.59,5.13,43.6,6.31,54.93" transform="translate(-224.17 -122.53)"/><path class="cls-9" d="M381.62,817.54c.4,3.91.59,6,.59,6" transform="translate(-224.17 -122.53)"/><path class="cls-18" d="M385.61,256.36s5.45,6.47,2.39,12.26-4.43,3.74-4.09,6.47,1.36,10.55,4.43,11.91,22.81,7.83,36.76,19.4,48,38.47,52.43,40.17,42.89-37.78,44.59-38.8,18,7.83,24.18,18c0,0-33.71,49-51.75,59.57s-30,2.73-32.68,1.36-41.53-18-41.53-18-3.41,70.13-1,109.28,2.38,61.62,1,68.42c-1.17,5.84-110.24,1.43-141.5,0a8.74,8.74,0,0,1-8.36-8.69c-.08-16.27,0-52.38,1.77-71,0,0-33.7-10.89-43.91-29.95S251.83,334,272.25,310.49s29.62-22.81,37.45-24.85,10.89-1,12.94-2.38,5.78-11.24,4.76-12.6-6.81-8.51-5.45-11.23,4.09-5.11,6.13-4.09S385.61,256.36,385.61,256.36Z" transform="translate(-224.17 -122.53)"/><g class="cls-19"><path class="cls-20" d="M339.83,258.74s-6.39,5.24-4.73,11.88a28.38,28.38,0,0,1,0,14c-.51,1.4-4.34,5-4.34,5s-18.76.13-25.27,4.34-45.32,23.49-65.24,132.25c0,0-.34,3.24,3.07,6.64s8.85,14.81,70.63,38l-1.36,6.81s-35-7.41-46.64-11.92S224.17,454,224.17,454l6.89-152.85,62.81-42.39,42.38-14.29Z" transform="translate(-224.17 -122.53)"/><path class="cls-20" d="M420,371.43l-.51-20.94s46.81,22.64,57,24.68,43.91-31.32,52.42-38.81,15.66-18,15.66-18l13.62,22.47L505.44,415Z" transform="translate(-224.17 -122.53)"/><path class="cls-20" d="M297.1,433.38s1.37-70.12,3.75-79.66-2.19.07-2.19.07S280.17,404.62,280.34,413s-1,8.93.51,9.78S297.1,433.38,297.1,433.38Z" transform="translate(-224.17 -122.53)"/><path class="cls-20" d="M291.83,473s.17,42.47,20.25,75.49c27.92,45.9-53.32-6.81-53.32-6.81l7-75.19,5.88.89s15.83,4.72,20.17,5.62" transform="translate(-224.17 -122.53)"/><path class="cls-20" d="M345.1,274.4s19.75,6.81,44.26-2.55c19.06-7.28-2.89,8-2.89,8S362.64,285,345.1,274.4Z" transform="translate(-224.17 -122.53)"/><path class="cls-20" d="M421.53,440s-8.68,104.68-20.94,122.3,62.3-6.64,62.3-6.64L456,486Z" transform="translate(-224.17 -122.53)"/></g><path class="cls-9" d="M385.61,256.36s5.45,6.47,2.39,12.26-4.43,3.74-4.09,6.47,1.36,10.55,4.43,11.91,22.81,7.83,36.76,19.4,48,38.47,52.43,40.17,42.89-37.78,44.59-38.8,18,7.83,24.18,18c0,0-33.71,49-51.75,59.57s-30,2.73-32.68,1.36-41.53-18-41.53-18-3.41,70.13-1,109.28,2.38,61.62,1,68.42c-1.17,5.84-110.24,1.43-141.5,0a8.74,8.74,0,0,1-8.36-8.69c-.08-16.27,0-52.38,1.77-71,0,0-33.7-10.89-43.91-29.95S251.83,334,272.25,310.49s29.62-22.81,37.45-24.85,10.89-1,12.94-2.38,5.78-11.24,4.76-12.6-6.81-8.51-5.45-11.23,4.09-5.11,6.13-4.09S385.61,256.36,385.61,256.36Z" transform="translate(-224.17 -122.53)"/><path class="cls-9" d="M299.83,351s-19.75,54.47-19.75,60.94v10.89" transform="translate(-224.17 -122.53)"/><path class="cls-9" d="M267.83,418.4s-6.13,4.43-7.49,6.13,16.34-5.44,22.13-.34,43.23,23.49,47.31,28.6-2.72,6.81-2.72,6.81-15.32,12.59-14,16.68-25.19-4.09-40.85-9.54" transform="translate(-224.17 -122.53)"/><path class="cls-21" d="M330.64,455.72s21.44.9,25.4,6.39a21.69,21.69,0,0,1-3.77,16.15c-1.66,2.17-3.72,4.64-10.15,6.7-4.51,1.44-24.85-5.11-28.89-10.17C313.19,470,330.64,455.72,330.64,455.72Z" transform="translate(-224.17 -122.53)"/><rect class="cls-22" x="342.12" y="439" width="10.13" height="33.62" transform="translate(50.25 -235.05) rotate(30)"/><path class="cls-23" d="M334.55,459.26s12.68,2.72,17.45,2.8S344.51,478,344.51,478l-13.28-3.66Z" transform="translate(-224.17 -122.53)"/><path class="cls-24" d="M335.57,459.43s10.21,2.29,15,1.87" transform="translate(-224.17 -122.53)"/><path class="cls-25" d="M350.64,466.91s-1.62,8.9-6.3,13.07" transform="translate(-224.17 -122.53)"/><path class="cls-26" d="M356,462.11a21.69,21.69,0,0,1-3.77,16.15c-1.66,2.17-5.42,6.25-10.15,6.7" transform="translate(-224.17 -122.53)"/><path class="cls-21" d="M523.15,308.79s.51-9,10.21-19.41c3.41-3.65,6.27-6.29,7.67-7.53a2.09,2.09,0,0,1,2.6-.2,1,1,0,0,1,.45,1.26c-.51,1.54-6,13.45-6,14.13s12.09-7,21.31-21.25a3.22,3.22,0,0,1,4.38-1,2.21,2.21,0,0,1,.56.5c.39.19,1.8-3.77,3.37-4.91a2,2,0,0,1,3.28,1.28c4.89-1.19,3.05,4,2,9.11a2.4,2.4,0,0,1,3.06,2.21c.34,2.89-2.55,13.87-10.38,22.55s-15.92,15.32-22.21,17.19S523.15,308.79,523.15,308.79Z" transform="translate(-224.17 -122.53)"/><path class="cls-27" d="M537.78,299.43s.6,5.7-2.12,9.87" transform="translate(-224.17 -122.53)"/><path class="cls-28" d="M550.21,292.45s9.62,2.64,13.79,8.17" transform="translate(-224.17 -122.53)"/><path class="cls-28" d="M564.25,276s-5.7,11.87-8.59,14.59" transform="translate(-224.17 -122.53)"/><path class="cls-28" d="M572,281.85s-4,12-7.36,15.28" transform="translate(-224.17 -122.53)"/><path class="cls-28" d="M571.23,270.83A83.83,83.83,0,0,1,560.51,293" transform="translate(-224.17 -122.53)"/><path class="cls-29" d="M319.74,162.06s-14.13-1.7-18.38-3.57-15.66-16.34-.17-25.19c0,0,6.81-16.85,24.34-6.3s3.74,27.23,3.74,27.23Z" transform="translate(-224.17 -122.53)"/><path class="cls-30" d="M318.55,132.11s5.28,3.57,5.28,11.57" transform="translate(-224.17 -122.53)"/><path class="cls-30" d="M300.17,144.19s6.13,5.28,12.25,5.45" transform="translate(-224.17 -122.53)"/><path class="cls-30" d="M308.68,130.57s-8.17,1.88-10.56,4.77" transform="translate(-224.17 -122.53)"/><path class="cls-31" d="M314.68,168.62s-7.92-6.51-8.3-8.68,17.11-16.85,27.7-15.83,5,8.93,5,8.93Z" transform="translate(-224.17 -122.53)"/><path class="cls-21" d="M393.19,190.83s7.81,41.72-8.43,66.64C370,280.19,334.47,261.3,333.19,260A60.81,60.81,0,0,1,319,241.49c-3.86-4.36-10.16-4.53-11.86-13.89-.62-3.39,2.38-5.62,5-5.93-4.37-16.2-7.17-33-1.17-41.82,7.14-10.47,31.4-41.87,55.66-25S393.19,190.83,393.19,190.83Z" transform="translate(-224.17 -122.53)"/><path class="cls-24" d="M378,206s7.66.85,13.11,5.62" transform="translate(-224.17 -122.53)"/><path class="cls-24" d="M357.87,208a22,22,0,0,0-16.17,5.28" transform="translate(-224.17 -122.53)"/><path class="cls-24" d="M388.41,219.31s-6.5-1.79-8.66,2.61" transform="translate(-224.17 -122.53)"/><circle class="cls-32" cx="158.21" cy="100.3" r="2.89"/><circle class="cls-32" cx="128.02" cy="101.71" r="2.89"/><path class="cls-33" d="M344.68,222s4.4-2.23,8.17-.7" transform="translate(-224.17 -122.53)"/><path class="cls-24" d="M371.83,230.7s2.64,5.06,1.19,7.62c-1.07,1.87-3.75.59-3.75.59" transform="translate(-224.17 -122.53)"/><path class="cls-34" d="M360.89,247.27a34.24,34.24,0,0,0,9.61,1,1.19,1.19,0,0,1,1.17,1.65c-.87,2-2.62,4.92-5.46,5.42-3.73.66-6.2-3.08-6.77-6.74A1.19,1.19,0,0,1,360.89,247.27Z" transform="translate(-224.17 -122.53)"/><path class="cls-29" d="M360.93,170.91s3.41-5.44,8.51-.68,4.6,17.37,26.39,39.83c0,0,3.74.34,4.93-4.59s3.75-24.85-7.15-38.64-21.57-15.45-25.83-18a30.28,30.28,0,0,0-10.59-4.3c-2.83-.58-10.38-1-12.77.68s-5.44,1-5.95,1-30.17,6.56-40,48.51C292,222.29,294.55,233,301,238.49s11.57,5.79,15,4.94,3-1.94,3-1.94l-9.57-19.3s2.39-2.72,7.66-.64c7.11,1.4,17.55-5.34,29-19.83C356.51,188.62,357,181.64,360.93,170.91Z" transform="translate(-224.17 -122.53)"/><path class="cls-21" d="M319,241.49" transform="translate(-224.17 -122.53)"/><path class="cls-27" d="M312,221.21a5.66,5.66,0,0,0-4.85,6.39c1.7,9.36,8,9.53,11.86,13.89" transform="translate(-224.17 -122.53)"/><path class="cls-23" d="M313.19,221.72c-2.62.32-5.7,2.27-5.09,5.65,1.71,9.36,8,9.53,11.87,13.9l2.78-.72Z" transform="translate(-224.17 -122.53)"/><path class="cls-27" d="M318.51,238.35a21.46,21.46,0,0,0,1.47,4.88" transform="translate(-224.17 -122.53)"/><path class="cls-30" d="M351.4,150.49s9,4.42,12.94,10.72" transform="translate(-224.17 -122.53)"/></g></svg>