<?xml version="1.0" encoding="utf-8"?>
<!-- Generator: Adobe Illustrator 22.0.0, SVG Export Plug-In . SVG Version: 6.00 Build 0)  -->
<svg version="1.1" id="图层_1" xmlns="http://www.w3.org/2000/svg" xmlns:xlink="http://www.w3.org/1999/xlink" x="0px" y="0px"
	 viewBox="0 0 297.6 297.6" style="enable-background:new 0 0 297.6 297.6;" xml:space="preserve">
<style type="text/css">
	.st0{fill:#FFFFFF;}
	.st1{fill:#DCE1E4;}
	.st2{fill:#E6EAEA;}
	.st3{fill:#7B787A;}
	.st4{fill:#FEFDFE;}
	.st5{fill:#FBEEE0;}
	.st6{fill:#553328;}
	.st7{fill:#AE4F32;}
	.st8{fill:#1E5142;}
	.st9{fill:#4E9236;}
	.st10{fill:#61A74E;}
	.st11{fill:#C7E1A8;}
	.st12{fill:#88B265;}
	.st13{fill:#74726E;}
	.st14{fill:#D4DAD4;}
	.st15{opacity:0.22;}
	.st16{fill:#9B9B9B;}
	.st17{fill:#ECC042;}
	.st18{fill:#FCF0D2;}
	.st19{fill:#4D7B3A;}
	.st20{fill:none;stroke:#FFFFFE;stroke-width:2;stroke-miterlimit:10;}
	.st21{fill:#F6F7F5;}
	.st22{fill:#F1B35F;}
	.st23{fill:#F0C35D;}
	.st24{fill:#FBE6BE;}
	.st25{fill:#30180F;}
	.st26{fill:#658F55;}
	.st27{fill:#6C995B;}
	.st28{fill:#AE5132;}
	.st29{fill:#F7F7F7;}
	.st30{fill:#7A492D;}
	.st31{opacity:0.33;fill:#F7F7F7;}
	.st32{fill:#E1B769;}
	.st33{fill:#D2A347;}
	.st34{fill:#EAEAEA;}
	.st35{fill:#559862;}
	.st36{fill:#447E4F;}
	.st37{opacity:0.11;fill:#323D44;}
	.st38{fill:#ECB129;}
	.st39{fill:#E38C22;}
	.st40{fill:#D67010;}
	.st41{fill:#855676;}
	.st42{fill:#AE6995;}
	.st43{fill:#989786;}
	.st44{fill:#6A1217;}
	.st45{fill:#C32623;}
	.st46{fill:#D83633;}
	.st47{fill:#D49559;}
	.st48{fill:#B42328;}
	.st49{opacity:0.46;fill:#7E1C1E;}
	.st50{fill:#A88564;}
	.st51{fill:#8E5C27;}
	.st52{fill:#896443;}
	.st53{opacity:0.26;fill:#D8A69F;}
	.st54{fill:#E89E2A;}
	.st55{fill:#E3981A;}
	.st56{fill:#745123;}
	.st57{opacity:0.35;fill:#F2F2F2;}
	.st58{fill:#976D26;}
	.st59{opacity:0.4;fill:#D4C8AD;}
	.st60{fill:#F8EED2;}
	.st61{fill:#421D0B;}
	.st62{opacity:0.35;fill:#421D0B;}
	.st63{fill:#C94C32;}
	.st64{fill:#C95B48;}
	.st65{fill:#A09B68;}
	.st66{fill:#8F895C;}
	.st67{fill:#BA8A67;}
	.st68{fill:#E3D4B0;}
	.st69{fill:#F8E9DC;}
	.st70{fill:#BF7265;}
	.st71{fill:#8F4B43;}
	.st72{fill:#59662E;}
	.st73{fill:#878253;}
	.st74{fill:#F6B7B1;}
	.st75{fill:#D66962;}
	.st76{fill:#844F23;}
	.st77{fill:#5A3C26;}
	.st78{fill:#704520;}
	.st79{fill:#936534;}
	.st80{opacity:0.69;}
	.st81{opacity:0.13;}
	.st82{fill:#F2F2F2;}
	.st83{opacity:0.49;}
	.st84{fill:#519D4C;}
	.st85{opacity:0.18;fill:#C32623;}
	.st86{fill:#101010;}
	.st87{fill:#E6DC41;}
	.st88{fill:#D4C536;}
	.st89{fill:#A69325;}
	.st90{fill:#EDE8E7;}
</style>
<rect x="0" class="st0" width="297.6" height="297.6"/>
<circle class="st1" cx="153.5" cy="156.2" r="105.6"/>
<circle class="st37" cx="146.2" cy="161.8" r="93.5"/>
<circle class="st13" cx="148.4" cy="152.9" r="102.8"/>
<g>
	<g>
		<g>
			<circle class="st5" cx="148.4" cy="152.9" r="85.4"/>
		</g>
	</g>
</g>
<g>
	<g>
		<path class="st35" d="M113.4,94.9c1,6,1.3,11,0.7,11.1c-0.6,0.1-2-4.7-3-10.7c-1-6-1.7-10.4-0.7-11.1
			C111.6,83.4,112.4,88.9,113.4,94.9z"/>
		<path class="st35" d="M112.3,88.4c0,0-7.2,15.4-21.9,9.3C95.3,83.4,107.7,86.5,112.3,88.4z"/>
		<path class="st35" d="M110.9,86.5c0,0,16.9-2,19.5,13.7C115.7,103.7,111.8,91.4,110.9,86.5z"/>
		<path class="st36" d="M90.5,97.6c13.9,5.6,21.1-8.2,21.7-9.2L90.5,97.6z"/>
		<path class="st36" d="M130.3,100.1c-2.5-14.8-18.1-13.7-19.2-13.6L130.3,100.1z"/>
		<g>
			<path class="st87" d="M140.1,136.8c0-17.9-9.9-32.8-23.1-36.2c-0.5-3.5-2.9-2-5.8-2c-2.9,0-5.3-1.5-5.8,2
				c-13.2,3.4-23.1,18.4-23.1,36.2c0,18.5,10.6,33.8,24.4,36.5c0.9,2.8,3,4.8,5.5,4.8c2.6,0,4.9-2.2,5.6-5.3
				C130.6,169,140.1,154.3,140.1,136.8z"/>
		</g>
		<g>
			<path class="st88" d="M140.1,136.8c0-17.9-9.9-32.8-23.1-36.2c-0.5-3.5-2.9-2-5.8-2c-2.9,0-5.3-1.5-5.8,2
				c-13.2,3.4-23.1,18.4-23.1,36.2c0,18.5,10.6,33.8,24.4,36.5c0.9,2.8,3,4.8,5.5,4.8c2.6,0,4.9-2.2,5.6-5.3
				C130.6,169,140.1,154.3,140.1,136.8z"/>
		</g>
	</g>
	<g class="st15">
		<g>
			<g>
				<path class="st89" d="M133.7,137c0,14.7-5.6,27.6-14.2,35.7c11.9-4.6,20.5-18.7,20.5-35.4c0-16.3-8.2-30.1-19.6-35
					C128.6,110.3,133.7,122.9,133.7,137z"/>
			</g>
		</g>
	</g>
</g>
<g>
	<circle class="st54" cx="183.2" cy="133.5" r="34.6"/>
	<circle class="st55" cx="183.2" cy="133.5" r="34.6"/>
	<path class="st38" d="M173.6,134.7c3.5-15.7,17.1-26.5,32.5-27.1c-4.3-3.8-9.5-6.5-15.4-7.9c-18.7-4.1-37.2,7.6-41.3,26.3
		c-4.1,18.7,7.6,37.2,26.3,41.3c3,0.7,5.9,0.9,8.8,0.8C175.3,160.1,170.8,147.4,173.6,134.7z"/>
	
		<ellipse transform="matrix(0.1305 -0.9914 0.9914 0.1305 34.9766 323.2826)" class="st56" cx="201.8" cy="141.7" rx="4.2" ry="3.2"/>
	<path class="st57" d="M164.2,147.5c-0.7-1.3-2.2-6.1-2.5-7.9c-0.5-2.7-4.9-2.4-5.8,0.2c-1.2,4,2.9,10.4,4.2,10.9
		c0.1,0,0.9,0.7,1,0.7C163.4,152.3,165.3,149.7,164.2,147.5z"/>
	<path class="st57" d="M164.4,114.3c0.4-0.5,1.9-1.9,2.5-2.4c0.9-0.7,0-2.3-1.1-2.2c-1.7,0.2-3.4,3-3.4,3.6c0,0-0.1,0.5-0.1,0.5
		C162.5,114.8,163.8,115.1,164.4,114.3z"/>
	<path class="st57" d="M171.7,108.5c1-0.4,4.9-1.5,6.3-1.9c2.1-0.5,2.6-2.5,0.7-2.7c-2.8-0.2-8.2,2.3-8.8,2.9c0,0-0.6,0.5-0.7,0.5
		C168.2,108.5,169.9,109.2,171.7,108.5z"/>
	
		<ellipse transform="matrix(0.1305 -0.9914 0.9914 0.1305 35.1044 323.1972)" class="st58" cx="201.8" cy="141.6" rx="3.7" ry="2.8"/>
	
		<ellipse transform="matrix(0.1305 -0.9914 0.9914 0.1305 36.7203 322.4143)" class="st57" cx="202.2" cy="140.3" rx="1.5" ry="1.1"/>
</g>
<g>
	
		<ellipse transform="matrix(0.9006 -0.4346 0.4346 0.9006 -62.0211 83.9982)" class="st36" cx="152.7" cy="177.6" rx="41.8" ry="46.8"/>
	
		<ellipse transform="matrix(0.9006 -0.4346 0.4346 0.9006 -62.0211 83.9982)" class="st36" cx="152.7" cy="177.6" rx="41.8" ry="46.8"/>
	
		<ellipse transform="matrix(0.9006 -0.4346 0.4346 0.9006 -61.9627 84.0712)" class="st84" cx="152.9" cy="177.5" rx="35.1" ry="46.8"/>
	
		<ellipse transform="matrix(0.9006 -0.4346 0.4346 0.9006 -61.9627 84.0712)" class="st36" cx="152.9" cy="177.5" rx="24" ry="46.8"/>
	
		<ellipse transform="matrix(0.9006 -0.4346 0.4346 0.9006 -61.9627 84.0712)" class="st84" cx="152.9" cy="177.5" rx="15" ry="46.8"/>
	
		<ellipse transform="matrix(0.9006 -0.4346 0.4346 0.9006 -61.9627 84.0712)" class="st36" cx="152.9" cy="177.5" rx="5.2" ry="46.8"/>
</g>
</svg>
