<?xml version="1.0" encoding="utf-8"?>
<!-- Generator: Adobe Illustrator 22.0.0, SVG Export Plug-In . SVG Version: 6.00 Build 0)  -->
<svg version="1.1" id="图层_1" xmlns="http://www.w3.org/2000/svg" xmlns:xlink="http://www.w3.org/1999/xlink" x="0px" y="0px"
	 viewBox="0 0 750 1125" style="enable-background:new 0 0 750 1125;" xml:space="preserve">
<style type="text/css">
	.st0{fill:#62D8F4;stroke:#000000;stroke-width:2;stroke-linecap:round;stroke-linejoin:round;stroke-miterlimit:10;}
	.st1{fill:#3C5E82;stroke:#000000;stroke-width:2;stroke-linecap:round;stroke-linejoin:round;stroke-miterlimit:10;}
	.st2{fill:#BFE8E7;stroke:#1D1D1D;stroke-width:2;stroke-linecap:round;stroke-linejoin:round;stroke-miterlimit:10;}
	.st3{fill:#559ADD;stroke:#000000;stroke-width:2;stroke-linecap:round;stroke-linejoin:round;stroke-miterlimit:10;}
	.st4{fill:none;stroke:#1D1D1D;stroke-width:2;stroke-linecap:round;stroke-linejoin:round;stroke-miterlimit:10;}
	.st5{fill:#3A8BCE;}
	.st6{fill:none;stroke:#FFFFFF;stroke-width:2;stroke-linecap:round;stroke-linejoin:round;stroke-miterlimit:10;}
</style>
<g>
	<path class="st0" d="M446.1,420c0,0,25-130.6,30.8-154.3c0,0,31.5,9.2,24.4,72.6c0,0,40.4,18.6,16.6,64S446.1,420,446.1,420z"/>
	<polygon class="st1" points="172.8,568 155,590.4 477,426.9 502.4,389.6 	"/>
	<path class="st2" d="M502.4,389.6c0,0,65.1,60.9,137.3,54.5l-16.3,22.1c0,0,18.3,4.7,31.5,5.5c0,0-5.8,11.9-10.5,12.6
		c0,0,13.2,5.6,22.5,5.6c0,0-0.5,5.2-6.7,12.1c0,0,8.8,4.5,16.1,1.3c0,0-3.6,10.3-7.8,12.9c0,0,6.7,0.5,15.5,0.5
		c0,0-32.6,19.9-70.3,98.1c0,0,4.1,25.1-11,47.1l-2.1-21.4c0,0-3.6,30-17.6,45.6c-1.2-4.9-0.7-19.5-0.5-23.2c0,0-2.1,30.8-23.8,44.5
		c0,0,1.6-11.6,0-19c0,0-3.9,19-16.4,31.1c0,0,1.1-3.7-0.5-16.3c0,0-0.6,14.2-10,20.5c0,0-11-207.4-54.7-297L502.4,389.6z"/>
	<path class="st3" d="M155,590.4c0,0,29.3,131.1,21.5,236.2c0,0,159.3,48.2,355.1-98.8c0,0-7-196-54.7-301L155,590.4z"/>
	<path class="st4" d="M494,447.6c0,0,50.5,106.8,47.7,255.8"/>
	<path class="st4" d="M558.6,688.6C548.3,507.9,501.3,443,501.3,443"/>
	<path class="st4" d="M582.4,663.1c-17.6-147.7-74.1-224.3-74.1-224.3"/>
	<path class="st4" d="M512.8,434.1c0,0,64.2,76.7,87.7,206.6"/>
	<path class="st4" d="M526.8,417.1c0,0,60.8,47.8,96.6,49.2"/>
	<path class="st4" d="M522,424c0,0,41.5,44.6,122.4,60.4"/>
	<path class="st4" d="M660.2,502.1c-96.9-19.9-141.3-74.5-141.3-74.5"/>
	<path class="st4" d="M668.4,516.4c-122-35.3-152.9-85.6-152.9-85.6"/>
	<path class="st4" d="M548.8,470.5c0,0,47.9,52.4,64.9,144.5"/>
	<polygon points="480.2,433.8 508.3,394.8 502.4,389.6 477,426.9 	"/>
	<path d="M477,426.9c0,0,64.8,113.2,61.8,287.7l-8.8,3.6C529,718.4,516,502.8,477,426.9z"/>
	<path d="M596.6,660.4c0,0-14.2-118.3-57.8-186.8c0,0,55,89.3,62.4,174.2L596.6,660.4z"/>
	<path d="M551.9,530.8c0,0,29.4,134.4,22.1,160.1c0,0,7.3-7.6,8.5-27.8C582.4,663.1,568.2,558.4,551.9,530.8z"/>
	<path d="M550.9,608.8c0,0,5.4,91.1,0.3,99c0,0,4.3-7.7,7.4-21.5C558.6,686.3,555.1,615.9,550.9,608.8z"/>
	<path d="M582.4,482.7c0,0,72.3,29.8,91.8,25.5c0,0-1.9,7.4-6.6,7.9C667.7,516.1,590.5,492.1,582.4,482.7z"/>
	<path d="M578.3,450.2c0,0,34.7,13.5,53.1,4c0,0-3.6,7.4-8.5,12C622.9,466.3,598.6,463,578.3,450.2z"/>
	<path d="M587.8,467.1c0,0,40,16.6,62.8,11.7c0,0-2.5,4-6.4,5.8C644.2,484.5,595.8,474,587.8,467.1z"/>
	<path d="M622.3,491.1c0,0,24.2,8,42.1,3.9c0,0,0.1,4.2-4.2,6.3C660.2,501.3,629.1,496.8,622.3,491.1z"/>
	<polygon points="455,415.3 460.2,347.4 446.1,420 	"/>
	<path class="st5" d="M501.3,503.2c0,0-247.6,52-311,70.1L477,427.7C477,427.7,494.9,471.7,501.3,503.2z"/>
	<path class="st4" d="M498.9,490c0,0-125.1,89.6-333.3,160.1"/>
	<path class="st4" d="M435.3,530.8c0,0,29.8,97.5,31.6,239.7"/>
	<path class="st0" d="M302,584.8l62.2,89.5c0,0-49.8,34.6-86.3-8.6c0,0-61.6,35.7-90.1-21.4c0,0-62.9,31-95.5-21.5
		c-32.6-52.5-25.6-61-25.6-61L302,584.8z"/>
	<path class="st4" d="M73.2,563.8c0,0,29.5,97.5,112.3,68.4c0,0,31.5,51.1,91.7,25.2c0,0,45,36.6,81.4,8.9"/>
	<path class="st4" d="M83.2,563.8c0,0,25.6,88.8,108.4,59.7c0,0,31.5,51.1,91.7,25.2c0,0,30.9,32.8,71.2,11.7"/>
	<path class="st4" d="M96.1,564.7c0,0,22.8,76.4,105.6,47.2c0,0,31.5,51.1,91.7,25.2c0,0,12.2,29.5,54.3,13.6"/>
	<polygon points="143.1,569.3 303.2,594.9 332.7,629 302,584.8 	"/>
	<path class="st4" d="M475.4,272.4c0,0,23.8,11.8,18.5,68.2c0,0,31.4,22.2,14.3,54.2"/>
	<path class="st4" d="M473,283.6c0,0,15.7,8.9,12.3,61.7c0,0,31.4,22.2,14.3,54.2"/>
	<path class="st6" d="M478.4,347.4c0,0,23.5,13.2,17.1,42.2"/>
	<path class="st6" d="M478.4,355.7c0,0,9.2,4.8,9.1,30.4"/>
	<path class="st6" d="M115.2,575.5c0,0,22.2,47.5,82.6,23.7"/>
	<path class="st6" d="M134.7,578.5c0,0,13.7,21.6,48.3,12.1"/>
</g>
</svg>
