<?xml version="1.0" encoding="utf-8"?>
<!-- Generator: Adobe Illustrator 22.1.0, SVG Export Plug-In . SVG Version: 6.00 Build 0)  -->
<svg version="1.1" id="图层_1" xmlns="http://www.w3.org/2000/svg" xmlns:xlink="http://www.w3.org/1999/xlink" x="0px" y="0px"
	 viewBox="0 0 1024 1024" style="enable-background:new 0 0 1024 1024;" xml:space="preserve">
<style type="text/css">
	.st0{fill:#333333;}
	.st1{fill:#AFAFAF;}
	.st2{fill:#FEBD8B;}
	.st3{fill:#020202;}
	.st4{fill:#8E8E8E;}
	.st5{fill:#1A417A;}
	.st6{fill:none;stroke:#0A2C54;stroke-miterlimit:10;}
	.st7{fill:#515151;}
	.st8{fill:none;stroke:#494949;stroke-width:0.25;stroke-miterlimit:10;}
	.st9{fill:#595959;}
	.st10{opacity:0.4;fill:#232323;}
</style>
<g>
	<path class="st0" d="M687.2,553l-48.3,8.2c-0.7,0.1-1.4-0.3-1.6-1l-2.6-10c-0.2-0.8,0.3-1.6,1.1-1.7l50.2-8.1
		c0.8-0.1,1.6,0.5,1.6,1.3l0.7,9.9C688.4,552.3,687.9,552.9,687.2,553z"/>
	<polygon class="st0" points="760.5,775.5 687.6,540.1 686.2,552 754.6,782.5 	"/>
	<polygon class="st0" points="635.1,550.8 699.1,794.7 707.8,787.4 638.4,549.5 	"/>
	<path class="st0" d="M316.9,868.6c0,0-15.5-18.5-29.1-11.2c-13.6,7.3-8.3,28.1,8.3,43.9s46.9,38,58.5,34.2
		c11.6-3.8,4.9-31.6,4.9-31.6L316.9,868.6z"/>
	<path class="st1" d="M321.6,873.2c0,0-4.3,14.5,1.2,22.2c5.5,7.7,30.9,19.2,34.5,14.9c3.6-4.3,0.9-36.9,0.9-36.9L321.6,873.2z"/>
	<path class="st2" d="M248.3,223.9c0,0,39.1-14.2,44.9-16c5.8-1.9,24.2-9.7,30.7-24.6c6.5-14.9,9.8-19.1,13.7-21.2
		c4-2.1,2.6-1.9,2.6-1.9s0.2-4.8,4.7-6.7c4.7-2.1,14.1,1.3,14.1,1.3s6.8-2.7,12-7.6c5.1-4.9,3.5,0.9,0.9,9.5
		c-2.6,8.6-17.7,27.4-17.9,28.8s8.1-6.7,10.9-6c2.8,0.7-0.2,10.7-3.3,12.8c-3,2.1-42.3,31.2-62.8,39.3c-20.5,8.1-41.2,9.8-41.2,9.8
		L248.3,223.9z"/>
	<path class="st2" d="M627.6,479.4c0,0,10.8,19.5,10.1,29.3c-0.7,9.8,14.3,21.3,15.3,24.8c1,3.5-9.1,20.6-9.1,25.8s4.9-0.3,6.3-4.5
		s9.4-19.5,12.2-16c2.8,3.5-0.7,10.5-2.4,12.9s-8.4,6.6-7,9.1c1.4,2.4,9.8-1.4,11.9-1c2.1,0.3,3.1,1.7,7,2.1
		c3.8,0.3,5.2,2.4,6.6,0.3c1.4-2.1-2.1-5.9,1.4-5.9s9.4,4.2,9.1-3.1c-0.3-7.3,2.1-6.3-2.1-8.7s-0.7,4.2-7.7-12.2
		c-7-16.4-8.7-14-16.4-24.4c-7.7-10.5-42.2-86.8-42.2-86.8s-18.1,10.1-18.8,15C601.1,440.7,627.6,479.4,627.6,479.4z"/>
	<path class="st2" d="M372.7,124.9c0,0-3.7,11.9-0.5,22.6s1.6,20.2,2.8,26.7c1.2,6.5,5.3,15.6,14.2,15.1c8.8-0.5,27.9-6.7,33.2-17
		C427.8,162.1,409.6,126.5,372.7,124.9z"/>
	<path class="st0" d="M391.3,79.9c0,0-1.6,4.5-6.1,7.1s-7.3,0.3-7.3,0.3s2.1,0.2-1.4,6.3c-3.5,6.1-13.8,23.7-4.4,37.8
		s14.1,13.3,14.3,20.1c0.2,6.8-0.7,7.3,5.8,14.3c6.5,7,12.4,16.9,24.8,17.8c12.4,0.9,28.3-5.8,35.7-25.5c0,0,9.6-9.4,7.8-24.9
		s-14.3-35.2-19.9-38.7s-29.1-15.7-33.1-15.2S402.7,85.3,391.3,79.9z"/>
	<path class="st0" d="M365.7,469c0,0-25.1,162.5-24.4,177.9c0.7,15.3-2.8,30.7-4.2,34.2c-1.4,3.5-29.3,156.9-18.8,192.5
		c0,0,31.4,23,64.9,0c0,0,15.3-55.1,8.4-97c0,0,18.8-83,17.4-113.7c-1.4-30.7,14.6-9.1,43.9-81.6c0,0,36.3,27.9,57.2,115.8
		l14.6,25.8l34.9,16c0,0,66.3,43.2,69.1,50.9c2.8,7.7,10.5,18.8,10.5,18.8s1.9-49.8,11-54c9.1-4.2,14.8-4.6,14.8-4.6
		s-65.6-74.6-83-78.8l-14-3.5c0,0-7-76-2.1-85.8l1.9-7.3c0,0-10.9-9.6-10.9-16.4s4.7-9.9,4.7-9.9s0.9-4.8,0.5-6.2
		c-0.5-1.4,3.7-11.4,4.2-14.6c0.5-3.3-5.1-10.5-5.1-12.6s-0.2-6.3-0.2-6.3l-0.9-4.7c0,0-5.8-2.3-6-12.3c-0.2-10-46.3-58.8-71.8-61.6
		C456.4,427.4,385.2,437.6,365.7,469z"/>
	<path class="st3" d="M664.9,750.1c0,0,12.2,2.1,21.4,15.5c9.2,13.4,10.5,31.4,12,46.6c1.6,15.2,16.6,46.9,4.7,73.2
		s-29.8,28.4-35.6,22.8s-12-16.6-7.8-43.6c0,0-7.1-28.8-12.7-38.7s-7.8-17.3-7.8-17.3s2.1-48.1,8.9-52.8S664.9,750.1,664.9,750.1z"
		/>
	<path class="st4" d="M678.9,763.9c0,0-16-3.5-15.3,23.2c0.7,26.7,11,27.6,7,47.8c-4,20.2-7,12.7-10.8,29.8
		c-3.8,17.1-1.7,41.7,12.2,45.9c14,4.2,32.4-12.6,35.2-43.1C709.9,836.9,697.9,760,678.9,763.9z"/>
	<polygon class="st0" points="652.4,831 686.6,941.9 842.1,926.6 805.1,819.8 	"/>
	<polygon class="st0" points="701.2,780.8 652.4,831 686.6,941.9 842.1,926.6 890.9,876.3 	"/>
	<path class="st5" d="M322,207.4c0,0,16.7-18.6,38.8-16c22.1,2.6,32.3,4,39.3-0.5c7-4.4,11.4-10.7,11.4-10.7s28.1-9.3,33.5-4
		c5.3,5.3,17.4,23.9,18.4,24.6c0.9,0.7,58.8,23,67,30.5c8.1,7.4,20.7,21.4,17.9,29.5c0,0,11.2,11.2,14.9,17.9
		c3.7,6.7,8.8,20.5,8.8,20.5s17.4,37,18.1,45.1c0,0,10.9,10.5,12.6,18.1c1.6,7.7,19.5,44.9,19.5,44.9l12.8,3c0,0-1.4,8.6-8.8,15.6
		l-12.3,8.8l34.4,25.6c0,0-1.9,10.2-16.3,20c-14.4,9.8-22.3-0.9-28.8,0s-128.8,26-128.8,26l-11.6-55.8l-4.2,33.5
		c0,0-22.3,0.5-27.4-11.6c-5.1-12.1,6-15.8-5.1-22.8c-11.2-7-14,3.3-27.4,9.3c-13.5,6-56.3,18.1-73.5,28.8
		c-17.2,10.7-41.4-5.6-45.6,10.7c0,0,23.3-183.2,18.1-196.7c-5.1-13.5-7.4-15.8-18.6-14c-11.2,1.9-27.9,13-41.4,6.5
		c-13.5-6.5-29.3-4.7-29.8-20.9c-0.5-16.3,6.5-26.5,20-39.1c13.5-12.6,21.9-15.3,21.9-15.3l17.7,12.1c0,0,27.4-3.7,34.9-7
		c7.4-3.3,5.1-3.3,12.1-6.5C321.3,214.4,322,207.4,322,207.4z"/>
	<path class="st6" d="M430.9,453.5c0,0-33.1-80-26.9-126.2"/>
	<path class="st6" d="M613.8,434.8c0,0-86.7-56-96.7-136"/>
	<g>
		<path class="st0" d="M384.5,156.2C384.5,156.2,384.5,156.2,384.5,156.2c-0.1-0.1-0.1-0.1-0.1-0.1c0,0,0,0,0-0.1c0,0,0,0,0-0.1
			c0,0,0,0,0-0.1c0,0,0,0,0-0.1c0,0,0,0,0-0.1c0,0,0,0,0-0.1c0,0,0,0,0-0.1c0,0,0,0,0-0.1c0,0,0,0,0-0.1c0,0,0,0,0-0.1
			c0,0,0,0,0-0.1c0,0,0,0,0-0.1c0,0,0,0,0-0.1c0,0,0,0,0-0.1c0,0,0,0,0-0.1c0,0,0,0,0-0.1c0,0,0,0,0-0.1c0,0,0,0,0-0.1
			c0,0,0,0,0-0.1c0,0,0,0,0-0.1c0,0,0,0,0-0.1c0,0,0,0,0-0.1c0,0,0,0,0-0.1c0,0,0,0,0-0.1c0,0,0,0,0-0.1c0,0,0,0,0-0.1
			c0,0,0,0,0-0.1c0,0,0,0,0-0.1c-0.3-0.6-1-1-1.7-0.7l-12.3,5.2l-15,26.5l0.1,0l-0.1,0.1l0.1,0l-0.1,0.1l0.1,0l-0.1,0.1l0.1,0
			l-0.1,0.1l0.1,0l-0.1,0.1l0.1,0l-0.1,0.1l0.1,0l-0.1,0.1l0.1,0l-0.1,0.1l0.1,0l-0.1,0.1l0.1,0l-0.1,0.1l0.1,0l-0.1,0.1l0.1,0
			l-0.1,0.1l0.1,0l-0.1,0.1l0.1,0l-0.1,0.1l0.1,0l-0.1,0.1l0.1,0l-0.1,0.1l0.1,0l-0.1,0.1l0.1,0l-0.1,0.1l0.1,0l-0.1,0.1l0.1,0
			l-0.1,0.1l0.1,0l-0.1,0.1l0.1,0l-0.1,0.1l0.1,0l-0.1,0.1l0.1,0l-0.1,0.1l0.1,0l-0.1,0.1l0.1,0l-0.1,0.1l0.1,0l-0.1,0.1l0.1,0
			l-0.1,0.1l0.1,0l-0.1,0.1l0.1,0l-0.1,0.1l0.1,0l-0.1,0.1l23.8-8c1.1-0.4,2-1.4,2.2-2.6l3.1-19.8
			C384.7,156.7,384.6,156.4,384.5,156.2z"/>
		<g>
			<path class="st0" d="M369.1,158.8l12.3-5.2c0.2-0.1,0.3-0.1,0.5-0.1c0.4,0,0.7,0.2,0.9,0.4c0.2,0.3,0.3,0.6,0.3,1l-3.1,19.8
				c-0.2,1.2-1,2.1-2.1,2.5l-23.7,8L369.1,158.8z"/>
			<path class="st7" d="M381.9,153.6L381.9,153.6c0.3,0,0.7,0.2,0.9,0.4c0.2,0.3,0.3,0.6,0.3,0.9l-3.1,19.8c-0.2,1.2-1,2.1-2.1,2.5
				l-23.6,7.9l14.9-26.3l12.3-5.2C381.6,153.6,381.8,153.6,381.9,153.6 M381.9,153.5c-0.2,0-0.3,0-0.5,0.1l-12.3,5.2l-15,26.5
				l23.8-8c1.1-0.4,2-1.4,2.2-2.6l3.1-19.8C383.3,154.1,382.7,153.5,381.9,153.5L381.9,153.5z"/>
		</g>
	</g>
	<path class="st8" d="M370.9,158.5c0,0-0.7-0.7-15.9-4.8c-15.2-4-14.9,6.5-14.9,6.5s0.5,3.7,0.2,5.2"/>
	<path class="st9" d="M701.2,780.8l34.2,110.9l155.6-15.3l-34.3-99.1c-1.5-4.5-5.9-7.3-10.6-7L701.2,780.8z"/>
	<polygon class="st10" points="568,667.8 544.7,668.8 538.3,670.2 545.8,666.7 564.8,629.3 	"/>
</g>
</svg>
