
<svg xmlns="http://www.w3.org/2000/svg" version="1.1" xmlns:xlink="http://www.w3.org/1999/xlink" preserveAspectRatio="none" x="0px" y="0px" width="1024px" height="1024px" viewBox="0 0 1024 1024">
<defs>
<g id="Layer0_0_MEMBER_0_MEMBER_0_FILL">
<path fill="#75B008" stroke="none" d="
M 158.85 312
L 160.55 312.7
Q 162.65 313.4 164.95 313.45 172.3 313.5 178.4 306.75 186.9 297.35 194.65 281.65 203.25 264.15 200.05 258.35 198.7 255.8 198.25 251.3
L 198.05 247.3 197.05 246.75 190.4 259.6
Q 183.35 273.1 181.4 276.55 174.95 287.85 166.25 301.05 161.9 307.65 158.85 312 Z"/>
</g>

<g id="Layer0_0_MEMBER_1_MEMBER_0_FILL">
<path fill="#75B008" stroke="none" d="
M 144.2 300.15
Q 146.05 301.4 148.25 302.05 155.3 304.1 163 299.2 173.7 292.35 185.35 279.25 198.3 264.65 196.75 258.25 196.05 255.45 196.8 251
L 197.7 247.1 196.9 246.25 187.1 256.9
Q 176.7 268.05 173.9 270.85 164.7 280 152.8 290.45 146.85 295.65 142.75 299.05
L 144.2 300.15 Z"/>
</g>

<g id="Layer0_0_MEMBER_2_MEMBER_0_FILL">
<path fill="#60A003" stroke="none" d="
M 145.2 301.15
Q 147.05 302.4 149.25 303.05 156.3 305.1 164 300.2 174.75 293.35 186.35 280.3 199.3 265.7 197.75 259.25 197.05 256.45 197.8 252
L 198.7 248.1 197.9 247.3 188.1 257.9
Q 177.7 269.05 174.9 271.85 160.15 286.5 143.75 300.05
L 145.2 301.15 Z"/>
</g>

<g id="Layer0_0_MEMBER_3_MEMBER_0_FILL">
<path fill="#60A003" stroke="none" d="
M 146.25 302.05
Q 147.85 303.05 149.75 303.45 155.8 304.65 163.05 299.45 173.2 292.2 184.7 279 197.55 264.25 196.7 258.4 196.35 255.85 197.45 251.65
L 198.6 247.95 197.95 247.3 188.3 258.05
Q 178.05 269.35 175.3 272.2 160.9 287.1 145.1 301.15
L 146.25 302.05 Z"/>
</g>

<g id="Layer0_0_MEMBER_4_MEMBER_0_FILL">
<path fill="#9BCA24" stroke="none" d="
M 194.65 256
Q 193.85 255.2 192.8 255.45 192.4 255.6 191.7 255.3 190.75 255.05 190.15 255.65
L 189.6 256.25
Q 188.9 256.85 189.25 257.8 189.4 258.4 189.25 259 189 260.05 189.8 260.85
L 190.55 261.6
Q 191.55 262.6 192.95 262.6 194.4 262.6 195.35 261.6
L 195.4 261.55
Q 196.4 260.55 196.4 259.15 196.4 257.75 195.4 256.75
L 194.65 256 Z"/>
</g>

<g id="Layer0_0_MEMBER_5_MEMBER_0_FILL">
<path fill="#E9FFB3" stroke="none" d="
M 192.05 257.8
Q 193.3 259.35 194.25 258.3 195.2 257.25 193.6 256.2 192.65 255.25 191.85 256.05 191.1 256.85 192.05 257.8 Z"/>
</g>

<g id="Layer0_0_MEMBER_6_MEMBER_0_FILL">
<path fill="#9BCA24" stroke="none" d="
M 191.9 263.95
L 190.8 262.9
Q 189.7 261.8 188.15 262.15 187.6 262.35 186.55 261.95 185.3 261.55 184.35 262.45
L 183.55 263.25
Q 182.65 264.15 183.05 265.5 183.3 266.25 183.15 267.2 182.75 268.65 183.85 269.85
L 184.95 270.9
Q 186.4 272.35 188.4 272.35 190.4 272.35 191.8 270.9
L 191.9 270.85
Q 193.3 269.45 193.3 267.4 193.3 265.4 191.9 263.95 Z"/>
</g>

<g id="Layer0_0_MEMBER_7_MEMBER_0_FILL">
<path fill="#E9FFB3" stroke="none" d="
M 187.15 265.9
Q 189.2 268.5 190.85 266.75 192.45 265 189.85 263.15 188.3 261.6 187 263 185.65 264.4 187.15 265.9 Z"/>
</g>

<g id="Layer0_0_MEMBER_8_MEMBER_0_FILL">
<path fill="#9BCA24" stroke="none" d="
M 184.25 271.6
L 183.2 270.5
Q 182 269.4 180.55 269.8 180 269.95 178.95 269.55 177.65 269.15 176.75 270.05
L 175.95 270.85
Q 175 271.8 175.45 273.1 175.75 273.9 175.5 274.8 175.15 276.35 176.25 277.45
L 177.3 278.55
Q 178.75 279.95 180.75 279.95 182.8 279.95 184.2 278.55
L 184.25 278.45
Q 185.7 277.05 185.7 275.05 185.7 273.05 184.25 271.6 Z"/>
</g>

<g id="Layer0_0_MEMBER_9_MEMBER_0_FILL">
<path fill="#E9FFB3" stroke="none" d="
M 179.55 273.5
Q 181.6 276.1 183.25 274.35 184.85 272.6 182.25 270.8 180.7 269.25 179.35 270.6 178.05 272 179.55 273.5 Z"/>
</g>

<g id="Layer0_0_MEMBER_10_MEMBER_0_FILL">
<path fill="#9BCA24" stroke="none" d="
M 175.6 278.1
Q 174.4 277 172.95 277.4 172.4 277.5 171.35 277.2 170.1 276.7 169.1 277.7
L 168.35 278.5
Q 167.4 279.35 167.85 280.75 168.1 281.6 167.9 282.4 167.5 283.95 168.65 285.05
L 169.7 286.15
Q 171.15 287.6 173.15 287.6 175.2 287.6 176.6 286.15
L 176.65 286.05
Q 178.1 284.65 178.1 282.65 178.1 280.65 176.65 279.2
L 175.6 278.1 Z"/>
</g>

<g id="Layer0_0_MEMBER_11_MEMBER_0_FILL">
<path fill="#E9FFB3" stroke="none" d="
M 171.95 281.1
Q 173.95 283.75 175.6 282 177.25 280.25 174.65 278.4 173.1 276.85 171.75 278.2 170.45 279.6 171.95 281.1 Z"/>
</g>

<g id="Layer0_0_MEMBER_12_MEMBER_0_FILL">
<path fill="#9BCA24" stroke="none" d="
M 160.5 292.15
L 161.6 293.25
Q 163.05 294.7 165.05 294.7 167.05 294.7 168.45 293.25
L 168.55 293.2
Q 170 291.8 170 289.75 170 287.75 168.55 286.3
L 167.45 285.25
Q 166.35 284.1 164.8 284.5 164.3 284.6 163.2 284.3 162 283.8 161 284.8
L 160.2 285.6
Q 159.3 286.6 159.75 287.85 160 288.7 159.8 289.55 159.4 291.05 160.5 292.15 Z"/>
</g>

<g id="Layer0_0_MEMBER_13_MEMBER_0_FILL">
<path fill="#E9FFB3" stroke="none" d="
M 163.8 288.2
Q 165.85 290.85 167.5 289.1 169.15 287.35 166.55 285.5 165 283.95 163.65 285.3 162.3 286.7 163.8 288.2 Z"/>
</g>

<g id="Layer0_0_MEMBER_14_MEMBER_0_FILL">
<path fill="#9BCA24" stroke="none" d="
M 155.45 291.95
Q 154.25 291.55 153.35 292.45
L 152.65 293.2
Q 151.8 294.05 152.15 295.3 152.45 296.05 152.2 296.85 151.85 298.3 152.9 299.35
L 153.9 300.35
Q 155.25 301.7 157.15 301.7 159.05 301.7 160.35 300.35
L 160.4 300.3
Q 161.75 298.95 161.75 297.1 161.75 295.2 160.4 293.85
L 159.4 292.85
Q 158.45 291.8 156.95 292.15 156.3 292.3 155.45 291.95 Z"/>
</g>

<g id="Layer0_0_MEMBER_15_MEMBER_0_FILL">
<path fill="#E9FFB3" stroke="none" d="
M 156.1 295.5
Q 157.95 297.9 159.45 296.3 160.95 294.7 158.55 293 157.15 291.6 155.9 292.85 154.7 294.1 156.1 295.5 Z"/>
</g>

<g id="Layer0_0_MEMBER_16_MEMBER_0_FILL">
<path fill="#CBDC4F" stroke="none" d="
M 203.2 244.7
Q 204.75 244.65 206.65 245.9 207.65 246.5 208.3 247.1
L 209.65 245.75
Q 208.8 245.95 205 243.95 202.4 242.6 198.55 244.55 195.05 246.3 194.3 248.2 193.85 249.55 190.95 250.65
L 188.2 251.45 190.65 251.4
Q 193.4 251.3 194.95 250.85 196.5 250.4 197.05 248.45
L 197.15 247.75 196.85 250.15
Q 196.75 253.8 198.6 253.95 200.45 254.1 201.7 255.3 202.35 255.9 202.6 256.5 203.1 256.65 203.15 256.25 203.15 255.45 200.65 252.65 197.95 249.6 199.5 247 200.8 244.75 203.2 244.7 Z"/>
</g>
</defs>

<g transform="matrix( 10, 0, 0, 10, -1250,-2272.25) ">
<use xlink:href="#Layer0_0_MEMBER_0_MEMBER_0_FILL"/>
</g>

<g transform="matrix( 10, 0, 0, 10, -1250,-2272.25) ">
<use xlink:href="#Layer0_0_MEMBER_1_MEMBER_0_FILL"/>
</g>

<g transform="matrix( 10, 0, 0, 10, -1250,-2272.25) ">
<use xlink:href="#Layer0_0_MEMBER_2_MEMBER_0_FILL"/>
</g>

<g transform="matrix( 10, 0, 0, 10, -1250,-2272.25) ">
<use xlink:href="#Layer0_0_MEMBER_3_MEMBER_0_FILL"/>
</g>

<g transform="matrix( 10, 0, 0, 10, -1250,-2272.25) ">
<use xlink:href="#Layer0_0_MEMBER_4_MEMBER_0_FILL"/>
</g>

<g transform="matrix( 10, 0, 0, 10, -1250,-2272.25) ">
<use xlink:href="#Layer0_0_MEMBER_5_MEMBER_0_FILL"/>
</g>

<g transform="matrix( 10, 0, 0, 10, -1250,-2272.25) ">
<use xlink:href="#Layer0_0_MEMBER_6_MEMBER_0_FILL"/>
</g>

<g transform="matrix( 10, 0, 0, 10, -1250,-2272.25) ">
<use xlink:href="#Layer0_0_MEMBER_7_MEMBER_0_FILL"/>
</g>

<g transform="matrix( 10, 0, 0, 10, -1250,-2272.25) ">
<use xlink:href="#Layer0_0_MEMBER_8_MEMBER_0_FILL"/>
</g>

<g transform="matrix( 10, 0, 0, 10, -1250,-2272.25) ">
<use xlink:href="#Layer0_0_MEMBER_9_MEMBER_0_FILL"/>
</g>

<g transform="matrix( 10, 0, 0, 10, -1250,-2272.25) ">
<use xlink:href="#Layer0_0_MEMBER_10_MEMBER_0_FILL"/>
</g>

<g transform="matrix( 10, 0, 0, 10, -1250,-2272.25) ">
<use xlink:href="#Layer0_0_MEMBER_11_MEMBER_0_FILL"/>
</g>

<g transform="matrix( 10, 0, 0, 10, -1250,-2272.25) ">
<use xlink:href="#Layer0_0_MEMBER_12_MEMBER_0_FILL"/>
</g>

<g transform="matrix( 10, 0, 0, 10, -1250,-2272.25) ">
<use xlink:href="#Layer0_0_MEMBER_13_MEMBER_0_FILL"/>
</g>

<g transform="matrix( 10, 0, 0, 10, -1250,-2272.25) ">
<use xlink:href="#Layer0_0_MEMBER_14_MEMBER_0_FILL"/>
</g>

<g transform="matrix( 10, 0, 0, 10, -1250,-2272.25) ">
<use xlink:href="#Layer0_0_MEMBER_15_MEMBER_0_FILL"/>
</g>

<g transform="matrix( 10, 0, 0, 10, -1250,-2272.25) ">
<use xlink:href="#Layer0_0_MEMBER_16_MEMBER_0_FILL"/>
</g>
</svg>
