<svg xmlns="http://www.w3.org/2000/svg" viewBox="0 0 281.43 179.04"><defs><style>.cls-1{isolation:isolate;}.cls-2{fill:#f66452;}.cls-3,.cls-6{fill:#fff;mix-blend-mode:screen;}.cls-11,.cls-12,.cls-14,.cls-3,.cls-4,.cls-8{opacity:0.2;}.cls-4,.cls-7{fill:#f1cdc8;}.cls-5{fill:#6c7983;}.cls-15,.cls-6{opacity:0.1;}.cls-7{mix-blend-mode:multiply;}.cls-8{fill:#2d2a22;}.cls-9{opacity:0.1;}.cls-10{fill:#74bebf;}.cls-11{fill:#fddbcf;}.cls-12{fill:#eddcd9;}.cls-13{fill:#ef764d;}.cls-14{fill:#f1dfd8;}</style></defs><g class="cls-1"><g id="图层_2" data-name="图层 2"><g id="图层_1-2" data-name="图层 1"><rect class="cls-2" x="3.39" width="136.79" height="91.81" rx="8.48"/><path class="cls-3" d="M138.9,6.85V9.47A5.52,5.52,0,0,0,133.32,4H10.43A5.53,5.53,0,0,0,4.84,9.47V6.85A5.53,5.53,0,0,1,10.43,1.4H133.32A5.52,5.52,0,0,1,138.9,6.85Z"/><rect class="cls-2" x="140.18" width="136.79" height="91.81" rx="8.48"/><path class="cls-4" d="M269,83.54H11.64a6.44,6.44,0,0,1-6.45-6.45v5.72a6.52,6.52,0,0,0,.6,2.72,7.47,7.47,0,0,0,.67,1.13,6.47,6.47,0,0,0,5.18,2.59l128.1-2.67v1.73L269,89.25a6.42,6.42,0,0,0,5.23-2.67,5.57,5.57,0,0,0,.65-1.11,6.39,6.39,0,0,0,.58-2.66V77.09A6.45,6.45,0,0,1,269,83.54Z"/><rect class="cls-5" x="18.99" y="124.01" width="120.88" height="13.51"/><rect class="cls-5" x="139.74" y="124.01" width="122.7" height="13.51"/><polygon class="cls-5" points="44 117.69 23.98 166.46 30.59 166.46 54.25 117.69 44 117.69"/><polygon class="cls-5" points="227.17 117.69 250.84 166.46 257.45 166.46 237.43 117.69 227.17 117.69"/><path class="cls-3" d="M275.6,6.85V9.47A5.53,5.53,0,0,0,270,4H147.12a5.52,5.52,0,0,0-5.58,5.46V6.85a5.52,5.52,0,0,1,5.58-5.45H270A5.53,5.53,0,0,1,275.6,6.85Z"/><path class="cls-2" d="M139.86,89.25v36.89H6.64A6.63,6.63,0,0,1,0,119.51V92.1a6.63,6.63,0,0,1,5.79-6.57,6,6,0,0,1,.85-.06H140.18v.64c0,.16,0,.31,0,.46"/><path class="cls-2" d="M139.74,88.31V85.47H274.88a6.63,6.63,0,0,1,6.55,6.63v27.41a6.63,6.63,0,0,1-6.64,6.63h-135V89.25"/><path class="cls-4" d="M273.43,118.63H8a6.51,6.51,0,0,1-6.58-6.44v5.72A6.51,6.51,0,0,0,8,124.35H273.43a6.53,6.53,0,0,0,6.6-6.44v-5.72A6.52,6.52,0,0,1,273.43,118.63Z"/><path class="cls-6" d="M274.23,86.58H7.49a5.89,5.89,0,0,0-1,.09A6.61,6.61,0,0,0,.89,93.21v1.05H280.54V93.21A6.63,6.63,0,0,0,274.23,86.58Z"/><rect class="cls-7" x="139.74" y="6.63" width="0.79" height="76.91"/><path class="cls-8" d="M173.75,85.34H119c-6.39-16.52-11.21-32.23-13.45-53.66,22.62-5.75,39.42-7.7,61.49-1.75C177.2,47.59,176.2,68.25,173.75,85.34Z"/><path class="cls-9" d="M29.72,85.34H92.58c6.82-17.64,11-36.23,13.39-59.11-24.14-6.14-47.34-7.74-70.9-1.38C26.41,44.72,27,65.5,29.72,85.34Z"/><path class="cls-10" d="M167.4,85.34H116.92A4.15,4.15,0,0,1,113,82.66C107.51,68,103.27,53.8,101,35.33a4.19,4.19,0,0,1,3.12-4.55C124.59,25.59,143,23.51,164,25.66a3.87,3.87,0,0,1,3.12,3,178.42,178.42,0,0,1,4.47,52.73A4.17,4.17,0,0,1,167.4,85.34Z"/><path class="cls-11" d="M108,33.53c.48,18.89,1.8,36.48,6,49.68,12.67,1.42,33.91,1.48,55.87.56C140.46,81.48,114.62,72.79,108,33.53Z"/><path class="cls-12" d="M160.9,28.45c-.22,11.41,1,25.47,6.62,39.22C166.53,53.62,166.55,40.29,160.9,28.45Z"/><path class="cls-8" d="M107.26,27.34c10.84,18.37,18.45,37.45,20.46,57.77L109,85.34Z"/><path class="cls-13" d="M115.71,85.34H45.19a4.53,4.53,0,0,1-4.31-3.13c-5.42-16.61-6.1-32.88-6-53.8A4.55,4.55,0,0,1,38.38,24c22.21-5.12,44.19-5.2,65.9.29a4.52,4.52,0,0,1,3,2.61,168.14,168.14,0,0,1,12.9,53.61A4.51,4.51,0,0,1,115.71,85.34Z"/><path class="cls-14" d="M38.83,29.05c.56,20.17,2.1,39,6.94,53,14.77,1.52,39.54,1.59,65.14.61C76.67,80.24,46.55,71,38.83,29.05Z"/><path class="cls-12" d="M102.68,25.25c.66,12.16,5.39,28.62,12.4,42.83C112.92,53.2,109.62,37.41,102.68,25.25Z"/><ellipse class="cls-15" cx="137.39" cy="163.66" rx="136.5" ry="15.38"/></g></g></g></svg>