
<svg xmlns="http://www.w3.org/2000/svg" version="1.1" xmlns:xlink="http://www.w3.org/1999/xlink" preserveAspectRatio="none" x="0px" y="0px" width="1024px" height="1024px" viewBox="0 0 1024 1024">
<defs>
<g id="Layer0_0_MEMBER_0_MEMBER_0_FILL">
<path fill="#AA7B61" stroke="none" d="
M 97.3 215.9
Q 95.5 214.85 93.65 215.9
L 29.95 252.7
Q 28.15 253.75 28.15 255.85
L 28.15 264.1
Q 28.15 266.2 29.95 267.25
L 93.65 304.05
Q 95.5 305.1 97.3 304.05
L 161 267.25
Q 162.8 266.2 162.8 264.1
L 162.8 255.85
Q 162.8 253.75 161 252.7
L 97.3 215.9 Z"/>
</g>

<g id="Layer0_0_MEMBER_0_MEMBER_1_FILL">
<path fill="#8C644F" stroke="none" d="
M 97.3 216.95
Q 95.5 215.9 93.65 216.95
L 29.95 253.75
Q 28.15 254.8 28.15 256.9
L 28.15 259.75
Q 28.15 261.85 29.95 262.9
L 93.65 299.7
Q 95.5 300.75 97.3 299.7
L 161 262.9
Q 162.8 261.85 162.8 259.75
L 162.8 256.9
Q 162.8 254.8 161 253.75
L 97.3 216.95 Z"/>
</g>

<g id="Layer0_0_MEMBER_0_MEMBER_2_FILL">
<path fill="#5A852F" stroke="none" d="
M 97.3 215.9
Q 95.5 214.85 93.65 215.9
L 29.95 252.7
Q 28.15 253.75 28.15 255.85
L 28.15 258.75
Q 28.15 260.8 29.95 261.85
L 93.65 298.65
Q 95.5 299.7 97.3 298.65
L 161 261.85
Q 162.8 260.8 162.8 258.75
L 162.8 255.85
Q 162.8 253.75 161 252.7
L 97.3 215.9 Z"/>
</g>

<g id="Layer0_0_MEMBER_0_MEMBER_3_FILL">
<path fill="#496E25" stroke="none" d="
M 97.3 215.9
Q 95.5 214.85 93.65 215.9
L 29.95 252.7
Q 28.15 253.75 28.15 255.85
L 28.15 256.55
Q 28.15 258.65 29.95 259.7
L 93.65 296.5
Q 95.5 297.55 97.3 296.5
L 161 259.7
Q 162.8 258.65 162.8 256.55
L 162.8 255.85
Q 162.8 253.75 161 252.7
L 97.3 215.9 Z"/>
</g>

<g id="Layer0_0_MEMBER_0_MEMBER_4_FILL">
<path fill="#000000" fill-opacity="0.2" stroke="none" d="
M 0 13.65
L 1.05 14.3
Q 2.9 15.35 4.7 14.3
L 5.75 13.65 5.75 0 0 0 0 13.65 Z"/>
</g>

<g id="Layer0_0_MEMBER_0_MEMBER_5_FILL">
<path fill="#6C9C38" stroke="none" d="
M 97.3 215.9
Q 95.5 214.85 93.65 215.9
L 29.95 252.7
Q 28.1 253.75 28.1 255.85 28.1 257.95 29.95 259
L 93.65 295.75
Q 95.5 296.8 97.3 295.75
L 161 259
Q 162.85 257.95 162.85 255.85 162.85 253.75 161 252.7
L 97.3 215.9 Z"/>
</g>

<g id="Layer0_0_MEMBER_0_MEMBER_6_FILL">
<path fill="#DADFD4" stroke="none" d="
M 76 244.2
L 40.15 264.9 51.2 271.25 82.75 253.05
Q 77.7 246.6 76 244.2 Z"/>
</g>

<g id="Layer0_0_MEMBER_1_MEMBER_0_FILL">
<path fill="#EBAA56" stroke="none" d="
M 140.2 229.6
L 95.5 229.6 95.5 280 140.2 254.2 140.2 229.6 Z"/>
</g>

<g id="Layer0_0_MEMBER_1_MEMBER_1_MEMBER_0_FILL">
<path fill="#C94556" stroke="none" d="
M 108.85 239.4
Q 106.65 240.7 105.05 243.7 103.5 246.7 103.5 249.65 103.5 253.1 105.5 254.1 106.1 254.5 107.1 254.75 108.3 255.05 109.9 254.2
L 111.55 253.25
Q 113.75 251.95 115.35 248.95 116.9 245.9 116.9 242.95 116.9 240.3 115.6 239 115.05 238.4 114.25 238.1
L 113.5 237.9
Q 112.15 237.5 110.55 238.45
L 108.85 239.4 Z"/>
</g>

<g id="Layer0_0_MEMBER_1_MEMBER_1_MEMBER_1_FILL">
<path fill="#95313E" stroke="none" d="
M 109.9 239.85
Q 107.65 241.1 106.1 244.15 104.5 247.15 104.5 250.15 104.5 253.1 106.1 254.3 107.65 255.5 109.9 254.2
L 111.55 253.25
Q 113.75 251.95 115.35 248.95 116.9 245.9 116.9 242.95 116.9 240 115.35 238.8 113.75 237.65 111.55 238.9
L 109.9 239.85 Z"/>
</g>

<g id="Layer0_0_MEMBER_1_MEMBER_1_MEMBER_2_FILL">
<path fill="#7DB4C0" stroke="none" d="
M 110.05 241.15
Q 108.25 242.2 107 244.65 105.7 247.05 105.7 249.45 105.7 251.8 107 252.8 108.25 253.75 110.05 252.7
L 111.4 251.95
Q 113.15 250.9 114.45 248.5 115.7 246.05 115.7 243.65 115.7 241.25 114.45 240.3 113.15 239.35 111.4 240.4
L 110.05 241.15 Z"/>
</g>

<g id="Layer0_0_MEMBER_1_MEMBER_1_MEMBER_3_FILL">
<path fill="#95313E" stroke="none" d="
M 111.35 239
L 110.05 239.75 110.05 254.1 111.35 253.35 111.35 239 Z"/>
</g>

<g id="Layer0_0_MEMBER_1_MEMBER_1_MEMBER_4_FILL">
<path fill="#95313E" stroke="none" d="
M 116.9 243.7
L 116.9 242.2 104.5 249.4 104.5 250.85 116.9 243.7 Z"/>
</g>

<g id="Layer0_0_MEMBER_1_MEMBER_2_MEMBER_0_FILL">
<path fill="#C94556" stroke="none" d="
M 131.3 234.75
Q 130.4 234.45 129.35 235.1
L 128.3 235.7
Q 126.85 236.55 125.85 238.45 124.85 240.4 124.85 242.3 124.85 244.6 126.15 245.15 126.35 245.35 127.15 245.6 128.05 245.75 128.95 245.2
L 130 244.6
Q 131.45 243.8 132.45 241.85 133.45 239.9 133.45 238 133.45 236.2 132.6 235.45 132.3 235.1 131.75 234.9
L 131.3 234.75 Z"/>
</g>

<g id="Layer0_0_MEMBER_1_MEMBER_2_MEMBER_1_FILL">
<path fill="#95313E" stroke="none" d="
M 126.5 245.25
Q 127.5 246.05 128.95 245.2
L 130 244.6
Q 131.45 243.8 132.45 241.85 133.45 239.9 133.45 238 133.45 236.1 132.45 235.3 131.45 234.55 130 235.35
L 128.95 236
Q 127.5 236.85 126.5 238.75 125.5 240.7 125.5 242.6 125.5 244.5 126.5 245.25 Z"/>
</g>

<g id="Layer0_0_MEMBER_1_MEMBER_2_MEMBER_2_FILL">
<path fill="#7DB4C0" stroke="none" d="
M 127.05 244.3
Q 127.9 244.95 129.05 244.25
L 129.9 243.75
Q 131.05 243.1 131.9 241.55 132.7 240 132.7 238.45 132.7 236.9 131.9 236.3 131.05 235.7 129.9 236.35
L 129.05 236.85
Q 127.9 237.5 127.05 239.05 126.25 240.6 126.25 242.15 126.25 243.7 127.05 244.3 Z"/>
</g>

<g id="Layer0_0_MEMBER_1_MEMBER_2_MEMBER_3_FILL">
<path fill="#95313E" stroke="none" d="
M 129.05 235.9
L 129.05 245.15 129.9 244.65 129.9 235.45 129.05 235.9 Z"/>
</g>

<g id="Layer0_0_MEMBER_1_MEMBER_2_MEMBER_4_FILL">
<path fill="#95313E" stroke="none" d="
M 125.5 243.1
L 133.45 238.45 133.45 237.5 125.5 242.1 125.5 243.1 Z"/>
</g>

<g id="Layer0_0_MEMBER_1_MEMBER_3_FILL">
<path fill="#FFCD7A" stroke="none" d="
M 95.5 280
L 95.5 229.6 50.8 203.8 50.8 254.2 95.5 280 Z"/>
</g>

<g id="Layer0_0_MEMBER_1_MEMBER_4_FILL">
<path fill="#C2822F" stroke="none" d="
M 95.5 267.7
L 95.5 280 140.2 254.2 140.2 241.9 95.5 267.7 Z"/>
</g>

<g id="Layer0_0_MEMBER_1_MEMBER_5_FILL">
<path fill="#EBAA56" stroke="none" d="
M 95.5 280
L 95.5 267.7 50.8 241.9 50.8 254.2 95.5 280 Z"/>
</g>

<g id="Layer0_0_MEMBER_1_MEMBER_6_FILL">
<path fill="#FF5D73" stroke="none" d="
M 142.35 230.3
Q 142.6 229.4 141.8 228.95
L 95.8 202.4
Q 95.5 202.25 95.2 202.25
L 49.85 202.25
Q 48.9 202.25 48.7 203.15 48.45 204 49.25 204.45
L 95.25 231.05
Q 95.5 231.2 95.85 231.2
L 141.2 231.2
Q 142.1 231.2 142.35 230.3 Z"/>
</g>

<g id="Layer0_0_MEMBER_1_MEMBER_7_FILL">
<path fill="#C94556" stroke="none" d="
M 141.2 231.2
Q 142.1 231.2 142.35 230.3 142.6 229.4 141.8 228.95
L 141.15 228.6 95.85 228.6
Q 95.45 228.6 95.25 228.4
L 49.9 202.25 49.85 202.25
Q 48.9 202.25 48.7 203.15 48.45 204 49.25 204.45
L 95.25 231.05
Q 95.5 231.2 95.85 231.2
L 141.2 231.2 Z"/>
</g>

<g id="Layer0_0_MEMBER_1_MEMBER_8_FILL">
<path fill="#FFFFFF" stroke="none" d="
M 65.75 240.45
L 54.75 234.05 54.75 256.45 65.75 262.8 65.75 240.45 Z"/>
</g>

<g id="Layer0_0_MEMBER_1_MEMBER_9_FILL">
<path fill="#C94556" stroke="none" d="
M 64.75 241.2
L 55.8 236.05 55.8 246.35 64.75 251.55 64.75 241.2 Z"/>
</g>

<g id="Layer0_0_MEMBER_1_MEMBER_10_FILL">
<path fill="#7DB4C0" stroke="none" d="
M 63.85 241.7
L 56.65 237.55 56.65 245.85 63.85 250 63.85 241.7 Z"/>
</g>

<g id="Layer0_0_MEMBER_1_MEMBER_11_FILL">
<path fill="#C94556" stroke="none" d="
M 60.75 238.9
L 59.8 238.35 59.8 248.7 60.75 249.2 60.75 238.9 Z"/>
</g>

<g id="Layer0_0_MEMBER_1_MEMBER_12_FILL">
<path fill="#C94556" stroke="none" d="
M 55.8 241.75
L 64.75 246.9 64.75 245.85 55.8 240.65 55.8 241.75 Z"/>
</g>

<g id="Layer0_0_MEMBER_1_MEMBER_13_MEMBER_0_FILL">
<path fill="#7DB4C0" stroke="none" d="
M 84.4 246
L 84.4 232.55 76.15 227.75 76.15 241.2 84.4 246 Z"/>
</g>

<g id="Layer0_0_MEMBER_1_MEMBER_13_MEMBER_1_FILL">
<path fill="#C94556" stroke="none" d="
M 84.4 246
L 84.4 232.55 76.15 227.75 76.15 241.2 84.4 246
M 83.35 233.15
L 83.35 244.15 77.2 240.6 77.2 229.55 83.35 233.15 Z"/>
</g>

<g id="Layer0_0_MEMBER_1_MEMBER_13_MEMBER_2_FILL">
<path fill="#95313E" stroke="none" d="
M 85.45 245.2
L 85.45 231.8 84.4 232.55 84.4 246 85.45 245.2 Z"/>
</g>

<g id="Layer0_0_MEMBER_1_MEMBER_13_MEMBER_3_FILL">
<path fill="#FF5D73" stroke="none" d="
M 84.4 232.55
L 85.45 231.8 77.2 227 76.15 227.75 84.4 232.55 Z"/>
</g>

<g id="Layer0_0_MEMBER_1_MEMBER_13_MEMBER_4_FILL">
<path fill="#C94556" stroke="none" d="
M 84.35 239.8
L 84.35 238.65 76.2 233.95 76.2 235.1 84.35 239.8 Z"/>
</g>

<g id="Layer0_0_MEMBER_1_MEMBER_14_MEMBER_0_FILL">
<path fill="#7DB4C0" stroke="none" d="
M 64.35 235.7
L 64.35 222.25 56.1 217.45 56.1 230.9 64.35 235.7 Z"/>
</g>

<g id="Layer0_0_MEMBER_1_MEMBER_14_MEMBER_1_FILL">
<path fill="#C94556" stroke="none" d="
M 64.35 222.25
L 56.1 217.45 56.1 230.9 64.35 235.7 64.35 222.25
M 63.3 222.85
L 63.3 233.9 57.1 230.3 57.1 219.3 63.3 222.85 Z"/>
</g>

<g id="Layer0_0_MEMBER_1_MEMBER_14_MEMBER_2_FILL">
<path fill="#95313E" stroke="none" d="
M 65.4 234.95
L 65.4 221.5 64.35 222.25 64.35 235.7 65.4 234.95 Z"/>
</g>

<g id="Layer0_0_MEMBER_1_MEMBER_14_MEMBER_3_FILL">
<path fill="#FF5D73" stroke="none" d="
M 56.1 217.45
L 64.35 222.25 65.4 221.5 57.1 216.7 56.1 217.45 Z"/>
</g>

<g id="Layer0_0_MEMBER_1_MEMBER_14_MEMBER_4_FILL">
<path fill="#C94556" stroke="none" d="
M 64.3 229.5
L 64.3 228.35 56.1 223.65 56.1 224.8 64.3 229.5 Z"/>
</g>

<g id="Layer0_0_MEMBER_1_MEMBER_15_MEMBER_0_FILL">
<path fill="#EBAA56" stroke="none" d="
M 117.8 222.15
L 117.8 208.1 111.6 211.65 111.6 222.15 117.8 222.15 Z"/>
</g>

<g id="Layer0_0_MEMBER_1_MEMBER_15_MEMBER_1_FILL">
<path fill="#C38D46" stroke="none" d="
M 117.8 211.95
L 117.8 210.25 114.4 212.2 114.4 213.9 117.8 211.95 Z"/>
</g>

<g id="Layer0_0_MEMBER_1_MEMBER_15_MEMBER_2_FILL">
<path fill="#C38D46" stroke="none" d="
M 111.6 217.65
L 111.6 219.35 114.7 217.6 114.7 215.9 111.6 217.65 Z"/>
</g>

<g id="Layer0_0_MEMBER_1_MEMBER_15_MEMBER_3_FILL">
<path fill="#C38D46" stroke="none" d="
M 117.8 220.2
L 117.8 218.5 114.4 220.45 114.4 222.15 117.8 220.2 Z"/>
</g>

<g id="Layer0_0_MEMBER_1_MEMBER_15_MEMBER_4_FILL">
<path fill="#FFCD7A" stroke="none" d="
M 105.45 218.6
L 111.6 222.15 111.6 211.65 105.45 208.1 105.45 218.6 Z"/>
</g>

<g id="Layer0_0_MEMBER_1_MEMBER_15_MEMBER_5_FILL">
<path fill="#EBAA56" stroke="none" d="
M 111.6 216.45
L 111.6 214.75 109.15 213.35 109.15 215 111.6 216.45 Z"/>
</g>

<g id="Layer0_0_MEMBER_1_MEMBER_15_MEMBER_6_FILL">
<path fill="#EBAA56" stroke="none" d="
M 105.45 214.75
L 105.45 216.45 109.7 218.9 109.7 217.2 105.45 214.75 Z"/>
</g>

<g id="Layer0_0_MEMBER_1_MEMBER_15_MEMBER_7_FILL">
<path fill="#FFE8C1" stroke="none" d="
M 105.45 208.1
L 111.6 211.65 117.8 208.1 111.6 204.5 105.45 208.1 Z"/>
</g>

<g id="Layer0_0_MEMBER_1_MEMBER_15_MEMBER_8_FILL">
<path fill="#FFCD7A" stroke="none" d="
M 107.7 208.1
L 111.6 210.35 115.55 208.1 111.6 205.85 107.7 208.1 Z"/>
</g>

<g id="Layer0_0_MEMBER_1_MEMBER_15_MEMBER_9_FILL">
<path fill="#EBAA56" stroke="none" d="
M 111.6 210.35
L 111.6 205.85 107.7 208.1 111.6 210.35 Z"/>
</g>
</defs>

<g transform="matrix( 7, 0, 0, 7, -156.3,-1261.85) ">
<use xlink:href="#Layer0_0_MEMBER_0_MEMBER_0_FILL"/>
</g>

<g transform="matrix( 7, 0, 0, 7, -156.3,-1261.85) ">
<use xlink:href="#Layer0_0_MEMBER_0_MEMBER_1_FILL"/>
</g>

<g transform="matrix( 7, 0, 0, 7, -156.3,-1261.85) ">
<use xlink:href="#Layer0_0_MEMBER_0_MEMBER_2_FILL"/>
</g>

<g transform="matrix( 7, 0, 0, 7, -156.3,-1261.85) ">
<use xlink:href="#Layer0_0_MEMBER_0_MEMBER_3_FILL"/>
</g>

<g transform="matrix( 7, 0, 0, 7, 491.9,766.4) ">
<use xlink:href="#Layer0_0_MEMBER_0_MEMBER_4_FILL"/>
</g>

<g transform="matrix( 7, 0, 0, 7, -156.3,-1261.85) ">
<use xlink:href="#Layer0_0_MEMBER_0_MEMBER_5_FILL"/>
</g>

<g transform="matrix( 7, 0, 0, 7, -156.3,-1261.85) ">
<use xlink:href="#Layer0_0_MEMBER_0_MEMBER_6_FILL"/>
</g>

<g transform="matrix( 7, 0, 0, 7, -156.3,-1261.85) ">
<use xlink:href="#Layer0_0_MEMBER_1_MEMBER_0_FILL"/>
</g>

<g transform="matrix( 7, 0, 0, 7, -156.3,-1261.85) ">
<use xlink:href="#Layer0_0_MEMBER_1_MEMBER_1_MEMBER_0_FILL"/>
</g>

<g transform="matrix( 7, 0, 0, 7, -156.3,-1261.85) ">
<use xlink:href="#Layer0_0_MEMBER_1_MEMBER_1_MEMBER_1_FILL"/>
</g>

<g transform="matrix( 7, 0, 0, 7, -156.3,-1261.85) ">
<use xlink:href="#Layer0_0_MEMBER_1_MEMBER_1_MEMBER_2_FILL"/>
</g>

<g transform="matrix( 7, 0, 0, 7, -156.3,-1261.85) ">
<use xlink:href="#Layer0_0_MEMBER_1_MEMBER_1_MEMBER_3_FILL"/>
</g>

<g transform="matrix( 7, 0, 0, 7, -156.3,-1261.85) ">
<use xlink:href="#Layer0_0_MEMBER_1_MEMBER_1_MEMBER_4_FILL"/>
</g>

<g transform="matrix( 7, 0, 0, 7, -156.3,-1261.85) ">
<use xlink:href="#Layer0_0_MEMBER_1_MEMBER_2_MEMBER_0_FILL"/>
</g>

<g transform="matrix( 7, 0, 0, 7, -156.3,-1261.85) ">
<use xlink:href="#Layer0_0_MEMBER_1_MEMBER_2_MEMBER_1_FILL"/>
</g>

<g transform="matrix( 7, 0, 0, 7, -156.3,-1261.85) ">
<use xlink:href="#Layer0_0_MEMBER_1_MEMBER_2_MEMBER_2_FILL"/>
</g>

<g transform="matrix( 7, 0, 0, 7, -156.3,-1261.85) ">
<use xlink:href="#Layer0_0_MEMBER_1_MEMBER_2_MEMBER_3_FILL"/>
</g>

<g transform="matrix( 7, 0, 0, 7, -156.3,-1261.85) ">
<use xlink:href="#Layer0_0_MEMBER_1_MEMBER_2_MEMBER_4_FILL"/>
</g>

<g transform="matrix( 7, 0, 0, 7, -156.3,-1261.85) ">
<use xlink:href="#Layer0_0_MEMBER_1_MEMBER_3_FILL"/>
</g>

<g transform="matrix( 7, 0, 0, 7, -156.3,-1261.85) ">
<use xlink:href="#Layer0_0_MEMBER_1_MEMBER_4_FILL"/>
</g>

<g transform="matrix( 7, 0, 0, 7, -156.3,-1261.85) ">
<use xlink:href="#Layer0_0_MEMBER_1_MEMBER_5_FILL"/>
</g>

<g transform="matrix( 7, 0, 0, 7, -156.3,-1261.85) ">
<use xlink:href="#Layer0_0_MEMBER_1_MEMBER_6_FILL"/>
</g>

<g transform="matrix( 7, 0, 0, 7, -156.3,-1261.85) ">
<use xlink:href="#Layer0_0_MEMBER_1_MEMBER_7_FILL"/>
</g>

<g transform="matrix( 7, 0, 0, 7, -156.3,-1261.85) ">
<use xlink:href="#Layer0_0_MEMBER_1_MEMBER_8_FILL"/>
</g>

<g transform="matrix( 7, 0, 0, 7, -156.3,-1261.85) ">
<use xlink:href="#Layer0_0_MEMBER_1_MEMBER_9_FILL"/>
</g>

<g transform="matrix( 7, 0, 0, 7, -156.3,-1261.85) ">
<use xlink:href="#Layer0_0_MEMBER_1_MEMBER_10_FILL"/>
</g>

<g transform="matrix( 7, 0, 0, 7, -156.3,-1261.85) ">
<use xlink:href="#Layer0_0_MEMBER_1_MEMBER_11_FILL"/>
</g>

<g transform="matrix( 7, 0, 0, 7, -156.3,-1261.85) ">
<use xlink:href="#Layer0_0_MEMBER_1_MEMBER_12_FILL"/>
</g>

<g transform="matrix( 7, 0, 0, 7, -156.3,-1261.85) ">
<use xlink:href="#Layer0_0_MEMBER_1_MEMBER_13_MEMBER_0_FILL"/>
</g>

<g transform="matrix( 7, 0, 0, 7, -156.3,-1261.85) ">
<use xlink:href="#Layer0_0_MEMBER_1_MEMBER_13_MEMBER_1_FILL"/>
</g>

<g transform="matrix( 7, 0, 0, 7, -156.3,-1261.85) ">
<use xlink:href="#Layer0_0_MEMBER_1_MEMBER_13_MEMBER_2_FILL"/>
</g>

<g transform="matrix( 7, 0, 0, 7, -156.3,-1261.85) ">
<use xlink:href="#Layer0_0_MEMBER_1_MEMBER_13_MEMBER_3_FILL"/>
</g>

<g transform="matrix( 7, 0, 0, 7, -156.3,-1261.85) ">
<use xlink:href="#Layer0_0_MEMBER_1_MEMBER_13_MEMBER_4_FILL"/>
</g>

<g transform="matrix( 7, 0, 0, 7, -156.3,-1261.85) ">
<use xlink:href="#Layer0_0_MEMBER_1_MEMBER_14_MEMBER_0_FILL"/>
</g>

<g transform="matrix( 7, 0, 0, 7, -156.3,-1261.85) ">
<use xlink:href="#Layer0_0_MEMBER_1_MEMBER_14_MEMBER_1_FILL"/>
</g>

<g transform="matrix( 7, 0, 0, 7, -156.3,-1261.85) ">
<use xlink:href="#Layer0_0_MEMBER_1_MEMBER_14_MEMBER_2_FILL"/>
</g>

<g transform="matrix( 7, 0, 0, 7, -156.3,-1261.85) ">
<use xlink:href="#Layer0_0_MEMBER_1_MEMBER_14_MEMBER_3_FILL"/>
</g>

<g transform="matrix( 7, 0, 0, 7, -156.3,-1261.85) ">
<use xlink:href="#Layer0_0_MEMBER_1_MEMBER_14_MEMBER_4_FILL"/>
</g>

<g transform="matrix( 7, 0, 0, 7, -156.3,-1261.85) ">
<use xlink:href="#Layer0_0_MEMBER_1_MEMBER_15_MEMBER_0_FILL"/>
</g>

<g transform="matrix( 7, 0, 0, 7, -156.3,-1261.85) ">
<use xlink:href="#Layer0_0_MEMBER_1_MEMBER_15_MEMBER_1_FILL"/>
</g>

<g transform="matrix( 7, 0, 0, 7, -156.3,-1261.85) ">
<use xlink:href="#Layer0_0_MEMBER_1_MEMBER_15_MEMBER_2_FILL"/>
</g>

<g transform="matrix( 7, 0, 0, 7, -156.3,-1261.85) ">
<use xlink:href="#Layer0_0_MEMBER_1_MEMBER_15_MEMBER_3_FILL"/>
</g>

<g transform="matrix( 7, 0, 0, 7, -156.3,-1261.85) ">
<use xlink:href="#Layer0_0_MEMBER_1_MEMBER_15_MEMBER_4_FILL"/>
</g>

<g transform="matrix( 7, 0, 0, 7, -156.3,-1261.85) ">
<use xlink:href="#Layer0_0_MEMBER_1_MEMBER_15_MEMBER_5_FILL"/>
</g>

<g transform="matrix( 7, 0, 0, 7, -156.3,-1261.85) ">
<use xlink:href="#Layer0_0_MEMBER_1_MEMBER_15_MEMBER_6_FILL"/>
</g>

<g transform="matrix( 7, 0, 0, 7, -156.3,-1261.85) ">
<use xlink:href="#Layer0_0_MEMBER_1_MEMBER_15_MEMBER_7_FILL"/>
</g>

<g transform="matrix( 7, 0, 0, 7, -156.3,-1261.85) ">
<use xlink:href="#Layer0_0_MEMBER_1_MEMBER_15_MEMBER_8_FILL"/>
</g>

<g transform="matrix( 7, 0, 0, 7, -156.3,-1261.85) ">
<use xlink:href="#Layer0_0_MEMBER_1_MEMBER_15_MEMBER_9_FILL"/>
</g>
</svg>
