<?xml version="1.0" encoding="UTF-8"?>
<svg width="480px" height="480px" viewBox="0 0 480 480" version="1.1" xmlns="http://www.w3.org/2000/svg" xmlns:xlink="http://www.w3.org/1999/xlink">
    <title>默认5</title>
    <defs>
        <linearGradient x1="50%" y1="100.122278%" x2="50%" y2="-0.0579832828%" id="linearGradient-1">
            <stop stop-color="#FFFFFF" stop-opacity="0.1" offset="0%"></stop>
            <stop stop-color="#D9E9FF" offset="100%"></stop>
        </linearGradient>
        <linearGradient x1="50.0843871%" y1="100%" x2="50.0843871%" y2="0.00649473815%" id="linearGradient-2">
            <stop stop-color="#FFFFFF" stop-opacity="0.1" offset="0%"></stop>
            <stop stop-color="#F8FBFF" stop-opacity="0.27" offset="14%"></stop>
            <stop stop-color="#EDF5FF" stop-opacity="0.52" offset="37%"></stop>
            <stop stop-color="#E4F0FF" stop-opacity="0.73" offset="58%"></stop>
            <stop stop-color="#DEECFF" stop-opacity="0.88" offset="76%"></stop>
            <stop stop-color="#DAEAFF" stop-opacity="0.97" offset="91%"></stop>
            <stop stop-color="#D9E9FF" offset="100%"></stop>
        </linearGradient>
        <linearGradient x1="50.0045895%" y1="99.9311993%" x2="50.0045895%" y2="-0.0811277354%" id="linearGradient-3">
            <stop stop-color="#FFFFFF" stop-opacity="0.1" offset="0%"></stop>
            <stop stop-color="#FEFEFF" stop-opacity="0.13" offset="9%"></stop>
            <stop stop-color="#FBFCFF" stop-opacity="0.21" offset="23%"></stop>
            <stop stop-color="#F5F9FF" stop-opacity="0.33" offset="40%"></stop>
            <stop stop-color="#EEF5FF" stop-opacity="0.51" offset="59%"></stop>
            <stop stop-color="#E4EFFF" stop-opacity="0.74" offset="79%"></stop>
            <stop stop-color="#D9E9FF" offset="100%"></stop>
        </linearGradient>
        <linearGradient x1="50%" y1="100%" x2="50%" y2="0%" id="linearGradient-4">
            <stop stop-color="#FFFFFF" stop-opacity="0.1" offset="0%"></stop>
            <stop stop-color="#FBFDFF" stop-opacity="0.19" offset="13%"></stop>
            <stop stop-color="#F1F7FF" stop-opacity="0.43" offset="41%"></stop>
            <stop stop-color="#E1EEFF" stop-opacity="0.82" offset="81%"></stop>
            <stop stop-color="#D9E9FF" offset="100%"></stop>
        </linearGradient>
        <linearGradient x1="50%" y1="100%" x2="50%" y2="0%" id="linearGradient-5">
            <stop stop-color="#FFFFFF" offset="0%"></stop>
            <stop stop-color="#D9E9FF" offset="100%"></stop>
        </linearGradient>
        <linearGradient x1="0%" y1="50.0060613%" x2="100%" y2="50.0060613%" id="linearGradient-6">
            <stop stop-color="#E0E7FF" offset="0%"></stop>
            <stop stop-color="#CCDFFB" offset="33%"></stop>
            <stop stop-color="#BBD9F7" offset="71%"></stop>
            <stop stop-color="#B5D7F6" offset="100%"></stop>
        </linearGradient>
        <linearGradient x1="0%" y1="50%" x2="100%" y2="50%" id="linearGradient-7">
            <stop stop-color="#EEF6FF" offset="0%"></stop>
            <stop stop-color="#D2E6FE" offset="100%"></stop>
        </linearGradient>
        <linearGradient x1="-1198.12563%" y1="-1361.69233%" x2="-1298.12563%" y2="-1361.69233%" id="linearGradient-8">
            <stop stop-color="#FFFFFF" offset="0%"></stop>
            <stop stop-color="#F9FCFF" offset="6%"></stop>
            <stop stop-color="#DAEAFF" offset="45%"></stop>
            <stop stop-color="#C7DFFF" offset="77%"></stop>
            <stop stop-color="#C0DBFF" offset="100%"></stop>
        </linearGradient>
        <linearGradient x1="100%" y1="50%" x2="-14.8903051%" y2="50%" id="linearGradient-9">
            <stop stop-color="#FFFFFF" offset="0%"></stop>
            <stop stop-color="#F9FCFF" offset="6%"></stop>
            <stop stop-color="#DAEAFF" offset="67.4804304%"></stop>
            <stop stop-color="#C7DFFF" offset="84.9696706%"></stop>
            <stop stop-color="#C0DBFF" offset="100%"></stop>
        </linearGradient>
        <linearGradient x1="28.6970471%" y1="57.0341798%" x2="106.883829%" y2="45.856203%" id="linearGradient-10">
            <stop stop-color="#D7E8FF" offset="0%"></stop>
            <stop stop-color="#EAF3FF" offset="100%"></stop>
        </linearGradient>
        <linearGradient x1="-1416.74401%" y1="-4054.70568%" x2="-1316.74401%" y2="-4054.70568%" id="linearGradient-11">
            <stop stop-color="#CBE2FC" offset="0%"></stop>
            <stop stop-color="#FCFDFF" offset="4%"></stop>
            <stop stop-color="#E9F3FF" offset="35%"></stop>
            <stop stop-color="#DEECFF" offset="66%"></stop>
            <stop stop-color="#DAEAFF" offset="100%"></stop>
        </linearGradient>
    </defs>
    <g id="组件设计" stroke="none" stroke-width="1" fill="none" fill-rule="evenodd">
        <g id="基础-缺省图" transform="translate(-837.000000, -5768.000000)">
            <g id="默认5" transform="translate(837.000000, 5768.000000)">
                <rect id="矩形" fill="#F4F7F9" opacity="0" x="0" y="0" width="480" height="480"></rect>
                <polygon id="路径" fill="#E4EFFF" fill-rule="nonzero" points="93.8769231 278.349682 95.9736264 300.799664 82.8395604 299.306523"></polygon>
                <polygon id="路径" fill="#F3F8FF" fill-rule="nonzero" points="93.8769231 278.349682 107.70989 296.06918 95.9736264 300.799664"></polygon>
                <polygon id="路径" fill="#E4EFFF" fill-rule="nonzero" points="46.8263736 284.150472 49.5032967 312.876935 32.9538462 310.960957"></polygon>
                <polygon id="路径" fill="#F3F8FF" fill-rule="nonzero" points="46.8263736 284.150472 64.2989011 306.851514 49.5032967 312.876935"></polygon>
                <polygon id="路径" fill="#E4EFFF" fill-rule="nonzero" points="69.2307692 264.277151 73.6615385 311.793417 43.8725275 308.83356"></polygon>
                <polygon id="路径" fill="#F3F8FF" fill-rule="nonzero" points="69.2307692 264.277151 100.391209 301.61891 73.6615385 311.793417"></polygon>
                <path d="M78.356044,160.100777 C76.6020081,150.773316 68.3894907,144.073809 58.9186813,144.244404 C53.8515331,144.220889 48.9608371,146.107567 45.2175824,149.529862 C43.1200323,148.582489 40.8458344,148.091596 38.5450549,148.089575 C31.255123,147.974465 24.8730003,152.971676 23.221978,160.087564 C17.6193859,161.328773 13.5794035,166.232383 13.4241758,171.979844 C13.6396005,178.973942 19.4450493,184.484411 26.4263736,184.321388 L75.1120879,184.321388 C82.0962094,184.491696 87.9059698,178.977135 88.1142857,171.979844 C87.9621542,166.247421 83.940912,161.352215 78.356044,160.100777 L78.356044,160.100777 Z" id="路径" fill="url(#linearGradient-1)" fill-rule="nonzero"></path>
                <path d="M360.61978,95.737115 C358.096088,91.8301913 353.828283,89.4033952 349.186813,89.2360019 C346.484078,85.1026934 341.853819,82.648153 336.923077,82.7348888 C332.969883,82.6954629 329.167396,84.2528919 326.373626,87.0557505 C325.094519,86.6467296 323.76024,86.4372673 322.417582,86.4347093 C316.206593,86.4347093 311.076923,90.7423574 310.549451,96.1863789 C305.814821,97.3171557 302.405854,101.46157 302.202198,106.334458 C302.202198,112.201316 307.569231,116.984655 314.07033,116.984655 L359.657143,116.984655 C366.250549,116.984655 371.525275,112.201316 371.525275,106.334458 C371.630769,100.7583 366.751648,96.1731653 360.61978,95.737115 Z" id="路径" fill="url(#linearGradient-2)" fill-rule="nonzero"></path>
                <path d="M445.186813,80.4092874 C440.718234,71.1746843 431.389279,65.2982525 421.147253,65.2664507 C415.442784,65.2787512 409.894017,67.1321037 405.323077,70.5519085 C399.884003,59.9215996 388.071591,54.1918165 376.37665,56.5110219 C364.681709,58.8302274 355.937731,68.6365163 354.949451,80.5414238 C342.36888,84.5192395 334.562478,97.0953814 336.563474,110.161299 C338.564471,123.227217 349.775014,132.879121 362.967033,132.893932 L437.393407,132.893932 C450.661726,132.919121 461.940148,123.187736 463.885086,110.03601 C465.830023,96.8842839 457.852681,84.2936678 445.147253,80.4621419 L445.186813,80.4092874 Z" id="路径" fill="url(#linearGradient-3)" fill-rule="nonzero"></path>
                <ellipse id="椭圆形" fill="url(#linearGradient-4)" fill-rule="nonzero" cx="240" cy="347.562752" rx="240" ry="75.978456"></ellipse>
                <polygon id="路径" fill="#E4EFFF" fill-rule="nonzero" points="424.193407 283.991909 421.925275 313.775463 405.112088 308.899628"></polygon>
                <polygon id="路径" fill="#F3F8FF" fill-rule="nonzero" points="424.193407 283.991909 438.303297 310.234207 421.925275 313.775463"></polygon>
                <polygon id="路径" fill="url(#linearGradient-5)" fill-rule="nonzero" points="331.094505 288.722393 241.503297 274.834853 241.503297 180.410149 331.094505 194.29769"></polygon>
                <polygon id="路径" fill="url(#linearGradient-6)" fill-rule="nonzero" points="163.410989 289.409503 241.503297 274.834853 241.503297 180.410149 163.410989 194.998013"></polygon>
                <polygon id="路径" fill="url(#linearGradient-7)" fill-rule="nonzero" points="253.002198 303.297043 163.410989 289.409503 163.410989 194.998013 253.002198 208.872339"></polygon>
                <polygon id="路径" fill="url(#linearGradient-8)" fill-rule="nonzero" points="253.002198 303.297043 331.094505 288.722393 331.094505 194.29769 253.002198 208.872339"></polygon>
                <polygon id="路径" fill="url(#linearGradient-9)" fill-rule="nonzero" points="228.791209 231.784799 139.2 217.897259 163.410989 194.998013 253.002198 208.872339"></polygon>
                <g id="_人物" transform="translate(167.000000, 189.000000)" fill-rule="nonzero">
                    <path d="M56.7836735,12.4212245 L64,16.5450827 C64,16.5450827 49.3518367,16.3853061 43.082449,21.7208163 C36.8130612,27.0563265 31.3273469,38.6677551 11.2065306,31.7453061 C-8.91428571,24.8228571 6.37387755,17.3910204 14.0930612,18.6906122 C21.8122449,19.9902041 32.3395918,17.2473469 37.6032653,11.7681633 C42.8669388,6.28897959 54.9812245,10.9779592 56.7836735,12.4212245 Z" id="路径" fill="url(#linearGradient-10)"></path>
                    <path d="M36.0032653,4.95020408 C36.0032653,4.95020408 29.6228571,5.06122449 25.2930612,10.9387755 C24.0653061,12.6693878 23.3469388,13.7861224 22.7657143,14.6873469 C22.1844898,15.5885714 20.564898,17.1755102 18.1877551,15.2293878 C15.8106122,13.2832653 9.86122449,8.2677551 9.86122449,8.2677551 L6.72653061,12.4930612 C6.72653061,12.4930612 17.0710204,23.8759184 21.2897959,23.3404082 C25.5085714,22.7983673 30.2302041,23.2293878 35.6767347,16.4897959 C41.1232653,9.74367347 42.5273469,8.12408163 42.5273469,8.12408163 L36.0032653,4.95020408 Z" id="路径" fill="#143E81"></path>
                    <path d="M8.32653061,5.16571429 L0.679183673,15.4579592 C0.679183673,15.4579592 3.38285714,18.2530612 6.26938776,14.1061224 C9.15591837,9.95918367 10.7232653,7.49061224 10.7232653,7.49061224 L8.32653061,5.16571429 Z" id="路径" fill="#003A8C"></path>
                    <polygon id="路径" fill="#001529" points="7.80408163 4.46040816 4.03591837 8.69877551 4.74122449 9.47591837 0.0391836735 15.0204082 0.653061224 15.6473469 9.19510204 5.77959184"></polygon>
                    <path d="M36.3036735,5.28326531 C36.3036735,5.28326531 31.4253061,6.72653061 28.4408163,12.6367347 C25.4628571,18.5534694 25.0057143,20.7608163 21.7077551,19.1281633 C18.4163265,17.4955102 12.3559184,14.4653061 12.3559184,14.4653061 L9.68489796,19.1738776 C9.68489796,19.1738776 21.6097959,28.8130612 26.2465306,26.6971429 C30.8832653,24.5812245 45.1918367,14.9159184 45.1918367,14.9159184 C45.1918367,14.9159184 46.2040816,11.3110204 46.0342857,11.1412245 C45.8710204,10.9844898 36.3036735,5.28326531 36.3036735,5.28326531 Z" id="路径" fill="#3E65A3"></path>
                    <path d="M10.475102,12.075102 L2.8277551,22.3673469 C2.8277551,22.3673469 5.53142857,25.162449 8.41795918,21.0155102 C11.3044898,16.8685714 12.8718367,14.4 12.8718367,14.4 L10.475102,12.075102 Z" id="路径" fill="#003A8C"></path>
                    <polygon id="路径" fill="#001529" points="9.95265306 11.3697959 6.1844898 15.6081633 6.88979592 16.3853061 2.19428571 21.9297959 2.80816327 22.5567347 11.3436735 12.6889796"></polygon>
                    <path d="M64,16.5450827 C64,16.5450827 61.643084,2.20212737e-13 48.32,0.483265306 C34.996916,0.966530612 32.1567347,2.78204082 31.882449,4.25142857 C31.6930612,5.24408163 32.842449,5.58367347 32.842449,5.58367347 C32.842449,5.58367347 42.1681633,9.16244898 43.6571429,15.8497959 C43.8987755,16.9534694 44.715102,16.6204082 47.0204082,15.7061224 C49.3257143,14.7918367 52.8195918,13.6946939 57.3126531,14.484898 C60.1503945,14.8476368 64,16.5450827 64,16.5450827 Z" id="路径" fill="#53A4FC"></path>
                </g>
                <polygon id="路径" fill="url(#linearGradient-11)" fill-rule="nonzero" points="277.213187 231.784799 355.305495 217.210149 331.094505 194.29769 253.002198 208.872339"></polygon>
            </g>
        </g>
    </g>
</svg>