<?xml version="1.0" encoding="utf-8"?>
<!-- Generator: Adobe Illustrator 23.0.0, SVG Export Plug-In . SVG Version: 6.00 Build 0)  -->
<svg version="1.1" id="图层_1" xmlns="http://www.w3.org/2000/svg" xmlns:xlink="http://www.w3.org/1999/xlink" x="0px" y="0px"
	 viewBox="0 0 300 300" style="enable-background:new 0 0 300 300;" xml:space="preserve">
<style type="text/css">
	.st0{fill:#F2D031;}
	.st1{fill:#3F1336;}
	.st2{fill:#585358;}
	.st3{fill:#666268;}
	.st4{fill:#C6CBD2;}
	.st5{fill:#A2A9B1;}
	.st6{fill:#D8DCE1;}
	.st7{fill:#4E5A5D;}
	.st8{fill:#505C69;}
	.st9{fill:#838383;}
	.st10{fill:#B2B9C0;}
	.st11{fill:#808080;}
	.st12{fill:#45515D;}
	.st13{fill:#FDFDFF;stroke:#F2F2F2;stroke-miterlimit:10;}
	.st14{fill:#DBDDE1;}
	.st15{fill:#E6EAEE;}
	.st16{fill:url(#SVGID_1_);}
	.st17{fill:#AAE0F9;}
	.st18{fill:url(#SVGID_2_);}
	.st19{fill:url(#SVGID_3_);}
	.st20{enable-background:new    ;}
	.st21{fill:#63737A;}
	.st22{fill:#EBEDF0;}
	.st23{fill-rule:evenodd;clip-rule:evenodd;fill:#F4F5F7;}
	.st24{fill:url(#SVGID_4_);}
	.st25{fill:url(#SVGID_5_);}
	.st26{fill:#A5ADB5;}
	.st27{opacity:0.2;fill:#FFFFFF;}
	.st28{fill:url(#SVGID_6_);}
	.st29{fill:url(#SVGID_7_);}
	.st30{fill:url(#SVGID_8_);}
	.st31{fill:url(#SVGID_9_);}
</style>
<g>
	<path class="st0" d="M146.09,24C80.17,24,26.25,77.38,26.25,143.84c0,66.45,53.93,119.83,119.84,119.83
		c66.45,0,119.83-53.38,119.83-119.84C265.92,77.38,212.54,24,146.09,24L146.09,24z M113.95,39.8l-6.54,8.17
		c0,0.55-0.54,0.55-0.54,1.09c-4.36,5.98-8.18,13.08-11.44,20.69c0,0.55-0.55,1.09-0.55,1.09c0,0.55-0.55,1.09-0.55,1.64
		c-6.38-3.17-12.4-7.01-17.98-11.45C86.71,51.24,99.79,44.15,113.95,39.8z M67.65,68.11c6.54,5.45,13.61,10.35,22.33,14.16
		c0,0.55-0.54,1.09-0.54,1.09c-2.73,8.17-4.91,17.43-5.99,26.69c0,1.08-0.55,2.18-0.55,3.81c-0.55,3.82-1.09,7.08-1.09,10.9
		c0,1.63,0,2.72-0.55,4.35c0,3.27,0,5.99-0.54,9.27H37.15C38.76,112.11,49.56,87.24,67.65,68.11L67.65,68.11z M37.15,149.28h43.58
		c0,3.26,0,6.54,0.54,9.25c0,1.64,0,2.73,0.55,4.36c0.55,3.81,0.55,7.08,1.09,10.89c0,1.09,0.55,2.18,0.55,3.82
		c1.63,9.26,3.81,18.52,5.99,26.69c0,0.55,0.54,1.09,0.54,1.09c-8.02,3.75-15.52,8.5-22.33,14.15
		C49.56,200.41,38.76,175.54,37.15,149.28L37.15,149.28z M75.82,226.62c5.57-4.44,11.6-8.27,17.98-11.44c0,0.55,0.55,1.09,0.55,1.64
		s0.55,1.08,0.55,1.08c3.27,7.63,7.08,14.71,11.44,20.7c0,0.55,0.55,0.55,0.55,1.09l6.54,8.17
		C99.79,243.51,86.72,236.42,75.82,226.62z M140.64,252.22c-15.25-3.27-28.32-18.52-37.04-40.85c11.44-4.36,23.97-6.54,37.04-7.08
		V252.22z M140.64,192.85c-13.92,0.49-27.69,3.06-40.85,7.62c-4.9-15.25-7.62-32.68-8.17-51.74h49.02V192.85L140.64,192.85z
		 M140.64,138.38H91.62c0.55-19.06,3.27-36.5,8.17-51.74c12.53,4.35,26.15,7.08,40.85,7.62V138.38z M140.64,83.91
		c-12.63-0.52-25.11-2.91-37.04-7.08c8.71-22.88,22.33-38.13,37.04-40.85V83.91L140.64,83.91z M255.03,138.38h-43.58
		c0-3.27,0-6.54-0.55-9.26c0-1.63,0-2.72-0.54-4.35c-0.55-3.81-0.55-7.08-1.09-10.89c0-1.09-0.55-2.18-0.55-3.82
		c-1.62-8.98-3.62-17.88-5.99-26.69c0-0.55-0.55-1.09-0.55-1.09c8.02-3.75,15.53-8.5,22.34-14.15
		C242.62,87.24,253.42,112.11,255.03,138.38L255.03,138.38z M216.36,61.04c-5.57,4.44-11.6,8.28-17.98,11.45
		c0-0.55-0.55-1.09-0.55-1.64s-0.55-1.08-0.55-1.08c-3.27-7.63-7.08-14.71-11.44-20.7c0-0.55-0.55-0.55-0.55-1.09l-6.54-8.17
		C192.39,44.15,205.46,51.24,216.36,61.04z M151.54,35.44c15.24,3.27,28.32,18.52,37.04,40.85c-11.44,4.36-23.97,6.54-37.04,7.08
		V35.44z M151.54,94.81c13.92-0.49,27.69-3.06,40.85-7.62c4.9,15.24,7.62,32.68,8.17,51.74h-49.02V94.81z M151.54,149.28h49.02
		c-0.55,19.06-3.27,36.5-8.17,51.74c-13.16-4.57-26.93-7.14-40.85-7.62V149.28z M151.54,252.23v-48.48
		c12.63,0.52,25.11,2.91,37.04,7.08C179.86,233.71,166.78,248.96,151.54,252.23z M178.23,247.87l6.54-8.17
		c0-0.55,0.54-0.55,0.54-1.09c4.36-5.99,8.17-13.08,11.44-20.69c0-0.55,0.55-1.09,0.55-1.09c0-0.55,0.55-1.09,0.55-1.64
		c6.54,3.27,12.53,7.08,17.98,11.44C205.47,236.43,192.39,243.51,178.23,247.87z M224.53,219.55c-6.54-5.45-13.62-10.35-22.34-14.16
		c0-0.55,0.55-1.09,0.55-1.09c2.73-8.17,4.91-17.43,5.99-26.69c0-1.09,0.55-2.18,0.55-3.81c0.55-3.82,1.09-7.08,1.09-10.9
		c0-1.63,0-2.73,0.54-4.36c0-3.26,0-5.99,0.55-9.25h43.58C253.42,175.56,242.62,200.43,224.53,219.55z"/>
	<g>
		<g>
			<polygon class="st1" points="160.43,229.91 261.04,172.64 255.62,168.29 160.43,225.04 			"/>
			<polygon class="st1" points="264.15,176.94 254.38,170.7 264.15,165.06 			"/>
			<g>
				<g>
					<path class="st2" d="M236.9,208.4c-0.04-0.03-0.08-0.06-0.12-0.1c-0.11-0.09-0.21-0.18-0.32-0.29
						c-0.02-0.01-0.04-0.03-0.05-0.05c-0.12-0.11-0.24-0.24-0.35-0.36c-0.03-0.03-0.06-0.07-0.1-0.11c-0.08-0.1-0.16-0.19-0.24-0.29
						c-0.03-0.04-0.07-0.09-0.1-0.13c-0.08-0.11-0.16-0.22-0.24-0.34c-0.02-0.03-0.04-0.06-0.06-0.09c-0.1-0.16-0.2-0.32-0.29-0.49
						c-0.09-0.17-0.18-0.35-0.27-0.53c-0.01-0.03-0.02-0.06-0.04-0.08c-0.07-0.14-0.13-0.29-0.19-0.44
						c-0.02-0.04-0.04-0.09-0.05-0.13c-0.03-0.09-0.07-0.18-0.1-0.27c-0.05-0.14-0.1-0.29-0.15-0.44c-0.03-0.09-0.06-0.19-0.08-0.29
						c-0.03-0.13-0.07-0.25-0.1-0.38c-0.03-0.11-0.05-0.22-0.08-0.33c-0.02-0.11-0.05-0.22-0.07-0.34
						c-0.02-0.12-0.04-0.25-0.06-0.37c-0.02-0.1-0.03-0.2-0.05-0.3c-0.02-0.14-0.03-0.28-0.05-0.42c-0.01-0.1-0.02-0.19-0.03-0.29
						c-0.01-0.17-0.03-0.34-0.04-0.51c0-0.07-0.01-0.14-0.01-0.21c-0.01-0.25-0.02-0.51-0.02-0.76c0-0.25,0.01-0.5,0.01-0.75
						c0-0.09,0.01-0.17,0.01-0.25c0.01-0.18,0.02-0.35,0.03-0.53c0.01-0.09,0.01-0.18,0.02-0.27c0.01-0.19,0.04-0.37,0.06-0.56
						c0.01-0.07,0.02-0.15,0.02-0.22c0.03-0.26,0.07-0.52,0.11-0.79c0.01-0.03,0.01-0.07,0.02-0.1c0.04-0.23,0.08-0.46,0.12-0.69
						c0.02-0.09,0.04-0.19,0.06-0.28c0.04-0.18,0.07-0.35,0.11-0.53c0.02-0.1,0.05-0.2,0.07-0.31c0.04-0.17,0.08-0.34,0.13-0.52
						c0.03-0.1,0.05-0.2,0.08-0.31c0.05-0.18,0.1-0.37,0.16-0.55c0.03-0.09,0.05-0.17,0.08-0.26c0.08-0.27,0.17-0.53,0.26-0.8
						c0.01-0.02,0.01-0.04,0.02-0.06c0.08-0.25,0.17-0.49,0.26-0.74c0.03-0.08,0.06-0.16,0.09-0.24c0.07-0.19,0.14-0.37,0.22-0.56
						c0.04-0.09,0.07-0.18,0.11-0.26c0.08-0.19,0.16-0.39,0.24-0.58c0.03-0.07,0.06-0.14,0.09-0.21c0.11-0.26,0.23-0.52,0.35-0.77
						c0.03-0.07,0.06-0.13,0.09-0.2c0.09-0.2,0.19-0.39,0.29-0.59c0.07-0.14,0.14-0.28,0.22-0.42c0.07-0.13,0.14-0.26,0.21-0.4
						c0.19-0.36,0.39-0.72,0.6-1.07c0.07-0.12,0.14-0.24,0.21-0.36c0.09-0.15,0.17-0.29,0.26-0.43c0.08-0.13,0.16-0.25,0.24-0.38
						c0.09-0.14,0.18-0.28,0.27-0.42c0.06-0.09,0.12-0.18,0.18-0.27c0.26-0.38,0.52-0.76,0.79-1.12c0,0,0.01-0.01,0.01-0.01
						c0.19-0.26,0.39-0.52,0.59-0.77c0.15-0.19,0.31-0.39,0.46-0.58c0.03-0.04,0.06-0.07,0.09-0.11c0.19-0.23,0.38-0.45,0.57-0.67
						c0.05-0.06,0.11-0.12,0.17-0.18c0.14-0.15,0.27-0.31,0.41-0.45c0.08-0.08,0.16-0.17,0.24-0.25c0.12-0.13,0.24-0.25,0.36-0.37
						c0.09-0.09,0.17-0.17,0.26-0.26c0.12-0.11,0.24-0.23,0.36-0.34c0.09-0.09,0.19-0.18,0.28-0.27c0.12-0.11,0.23-0.21,0.35-0.32
						c0.1-0.09,0.19-0.17,0.29-0.25c0.12-0.1,0.24-0.21,0.36-0.31c0.09-0.08,0.19-0.15,0.28-0.23c0.13-0.1,0.26-0.2,0.39-0.3
						c0.09-0.07,0.17-0.13,0.26-0.2c0.14-0.1,0.29-0.21,0.43-0.31c0.07-0.05,0.15-0.11,0.22-0.16c0.22-0.15,0.43-0.29,0.65-0.44
						c0.01-0.01,0.03-0.01,0.04-0.02c0.22-0.14,0.45-0.28,0.68-0.41c0.2-0.12,0.41-0.23,0.61-0.33c0.08-0.04,0.15-0.08,0.23-0.12
						c0.15-0.08,0.3-0.15,0.45-0.22c0.07-0.03,0.13-0.06,0.2-0.1c0.21-0.1,0.43-0.19,0.64-0.28c0.21-0.08,0.42-0.16,0.63-0.23
						c0.07-0.02,0.13-0.04,0.2-0.06c0.14-0.05,0.28-0.09,0.43-0.13c0.08-0.02,0.16-0.05,0.25-0.07c0.13-0.04,0.26-0.07,0.39-0.1
						c0.08-0.02,0.16-0.04,0.24-0.05c0.12-0.03,0.24-0.05,0.36-0.07c0.09-0.01,0.19-0.03,0.28-0.05c0.11-0.02,0.22-0.03,0.33-0.04
						c0.1-0.01,0.2-0.02,0.3-0.03c0.1-0.01,0.19-0.01,0.29-0.01c0.12-0.01,0.24-0.01,0.35-0.01c0.16,0,0.32,0,0.48,0.01
						c0.02,0,0.03,0,0.05,0c0.16,0.01,0.31,0.02,0.47,0.04c0.04,0,0.09,0.01,0.14,0.01c0.17,0.02,0.34,0.05,0.5,0.08
						c0.04,0.01,0.09,0.02,0.13,0.03c0.13,0.03,0.26,0.06,0.39,0.1c0.06,0.02,0.13,0.04,0.19,0.06c0.1,0.03,0.21,0.07,0.31,0.1
						c0.13,0.04,0.25,0.1,0.37,0.15c0.06,0.02,0.12,0.05,0.18,0.07c0.18,0.08,0.35,0.17,0.52,0.27l-13.27-7.71
						c-0.17-0.1-0.34-0.19-0.52-0.27c-0.06-0.03-0.12-0.05-0.18-0.08c-1.94-0.84-4.24-0.66-6.21-0.01
						c-1.98,0.65-3.89,1.77-5.52,3.05c-0.05,0.04-0.1,0.08-0.15,0.12c-0.1,0.08-0.19,0.15-0.28,0.23
						c-5.97,4.94-10.26,12.71-10.82,20.48c-0.19,2.66,0.1,5.73,1.57,8.03c0.01,0.01,0.01,0.02,0.02,0.03
						c0.02,0.03,0.04,0.06,0.06,0.09c0.08,0.12,0.16,0.23,0.24,0.34c0.03,0.04,0.07,0.09,0.1,0.13c0.08,0.1,0.16,0.2,0.24,0.29
						c0.03,0.04,0.06,0.07,0.09,0.11c0.11,0.13,0.23,0.25,0.35,0.36c0.02,0.02,0.03,0.03,0.05,0.05c0.1,0.1,0.21,0.19,0.32,0.28
						c0.04,0.03,0.08,0.07,0.12,0.1c0.09,0.07,0.19,0.15,0.28,0.22c0.04,0.03,0.08,0.06,0.12,0.09c0.14,0.09,0.27,0.18,0.41,0.26
						l13.27,7.71c-0.14-0.08-0.28-0.17-0.41-0.26c-0.04-0.03-0.08-0.06-0.12-0.09C237.09,208.55,236.99,208.47,236.9,208.4z"/>
					<g>
						<path class="st3" d="M247.53,176.02c-7.68,4.44-13.89,15.19-13.87,24.02c0.02,8.83,6.28,12.39,13.96,7.95
							c7.68-4.44,13.89-15.19,13.87-24.02C261.46,175.15,255.21,171.59,247.53,176.02z"/>
					</g>
				</g>
				<g>
					<g>
						<path class="st4" d="M248,182.23c-4.74,2.74-8.63,9.15-9.04,14.72c-0.03,0.34-0.04,0.67-0.04,1.01
							c0.02,5.78,4.11,8.11,9.14,5.21c5.03-2.9,9.1-9.94,9.08-15.73c0-0.33-0.02-0.65-0.04-0.96
							C256.65,181.4,252.74,179.49,248,182.23z"/>
					</g>
					<g>
						<path class="st5" d="M248.01,185.08c-3.45,1.99-6.27,6.66-6.58,10.7c-0.02,0.25-0.03,0.49-0.03,0.74
							c0.01,4.2,2.99,5.9,6.65,3.79c3.66-2.11,6.61-7.23,6.6-11.44c0-0.24-0.01-0.48-0.03-0.7
							C254.3,184.48,251.46,183.09,248.01,185.08z"/>
					</g>
					<path class="st6" d="M254.63,188.16c-0.27-3.06-2.27-4.53-4.91-3.82c2.05-0.05,3.52,1.41,3.75,3.99
						c0.02,0.23,0.03,0.46,0.03,0.7c0.01,4.21-2.95,9.33-6.6,11.44c-0.59,0.34-1.17,0.58-1.72,0.73c0.87-0.02,1.85-0.31,2.88-0.91
						c3.66-2.11,6.61-7.23,6.6-11.44C254.66,188.62,254.65,188.39,254.63,188.16z"/>
					<g>
						<path class="st7" d="M250.52,193.5c0.19-0.11,0.38-0.14,0.53-0.05c0.29,0.17,0.29,0.71,0,1.21c-0.14,0.25-0.34,0.44-0.53,0.55
							c-0.19,0.11-0.38,0.14-0.53,0.05c-0.29-0.17-0.29-0.71,0-1.21C250.14,193.81,250.33,193.61,250.52,193.5z"/>
						<path class="st7" d="M247.61,190.75c0.93-0.54,1.69-0.11,1.7,0.97c0,1.07-0.75,2.38-1.69,2.92c-0.93,0.54-1.69,0.11-1.7-0.97
							C245.92,192.6,246.67,191.29,247.61,190.75z"/>
						<path class="st7" d="M247.62,196.56c0.41-0.24,0.75-0.05,0.75,0.43c0,0.47-0.33,1.05-0.74,1.28
							c-0.41,0.24-0.74,0.05-0.75-0.42C246.88,197.38,247.21,196.8,247.62,196.56z"/>
						<path class="st7" d="M244.71,196.86c0.19-0.11,0.38-0.14,0.53-0.05c0.29,0.17,0.29,0.71,0,1.21
							c-0.14,0.25-0.33,0.44-0.53,0.56c-0.19,0.11-0.38,0.14-0.53,0.05c-0.29-0.17-0.29-0.71,0-1.21
							C244.33,197.16,244.52,196.97,244.71,196.86z"/>
						<path class="st7" d="M250.5,186.82c0.19-0.11,0.38-0.13,0.53-0.05c0.29,0.17,0.29,0.71,0,1.21c-0.15,0.25-0.34,0.45-0.53,0.56
							c-0.19,0.11-0.38,0.13-0.53,0.05c-0.29-0.17-0.29-0.71,0-1.21C250.12,187.13,250.31,186.94,250.5,186.82z"/>
						<path class="st7" d="M247.6,188.83c-0.41,0.24-0.75,0.05-0.75-0.43c0-0.47,0.33-1.05,0.74-1.28c0.41-0.24,0.75-0.05,0.75,0.43
							C248.34,188.02,248.01,188.59,247.6,188.83z"/>
						<path class="st7" d="M244.7,191.89c-0.19,0.11-0.38,0.13-0.53,0.05c-0.29-0.17-0.29-0.71,0-1.21
							c0.15-0.25,0.34-0.44,0.53-0.56c0.19-0.11,0.38-0.14,0.53-0.05c0.29,0.17,0.29,0.71,0,1.21
							C245.08,191.59,244.89,191.78,244.7,191.89z"/>
						<path class="st7" d="M250.98,190.75c0-0.47,0.33-1.05,0.74-1.28c0.41-0.24,0.74-0.05,0.75,0.43c0,0.47-0.33,1.05-0.74,1.28
							C251.31,191.42,250.98,191.23,250.98,190.75z"/>
						<path class="st7" d="M243.5,194.21c0.41-0.24,0.74-0.05,0.75,0.43c0,0.47-0.33,1.05-0.74,1.28c-0.41,0.24-0.75,0.05-0.75-0.43
							C242.76,195.03,243.09,194.45,243.5,194.21z"/>
					</g>
				</g>
			</g>
			<polygon class="st8" points="153.69,220.82 103.37,192.32 220.32,124.45 270.63,152.95 			"/>
			<g>
				<path class="st9" d="M161.2,221.11c0.01-0.01,0.03-0.01,0.04-0.02c0.02-0.01,0.04-0.02,0.07-0.03c0.01-0.01,0.03-0.01,0.04-0.02
					c0.02-0.01,0.04-0.01,0.07-0.02c0.02-0.01,0.03-0.01,0.05-0.02c0.01,0,0.03-0.01,0.04-0.01c0.02-0.01,0.04-0.01,0.06-0.02
					c0.02,0,0.03-0.01,0.04-0.01c0.02-0.01,0.04-0.01,0.06-0.02c0.01,0,0.03-0.01,0.04-0.01c0.02-0.01,0.04-0.01,0.07-0.02
					c0.01,0,0.03-0.01,0.04-0.01c0.03-0.01,0.06-0.01,0.1-0.02c0,0,0.01,0,0.02,0c0.03,0,0.05-0.01,0.08-0.01c0.01,0,0.02,0,0.03,0
					c0.03,0,0.07-0.01,0.1-0.01c0.04,0,0.09-0.01,0.13-0.01c0.01,0,0.03,0,0.04,0c0.03,0,0.06,0,0.1,0c0.02,0,0.03,0,0.05,0
					c0.02,0,0.05,0,0.07,0c0.02,0,0.04,0,0.06,0c0.02,0,0.05,0,0.07,0c0.02,0,0.04,0,0.06,0c0.02,0,0.04,0,0.06,0
					c0.02,0,0.04,0.01,0.06,0.01c0.02,0,0.04,0,0.06,0.01c0.02,0,0.04,0.01,0.06,0.01c0.02,0,0.04,0.01,0.06,0.01
					c0.02,0,0.04,0.01,0.07,0.01c0.02,0,0.04,0.01,0.06,0.01c0.03,0,0.05,0.01,0.07,0.01c0.02,0,0.03,0.01,0.04,0.01
					c0.03,0.01,0.06,0.01,0.09,0.02c0.01,0,0.02,0.01,0.03,0.01c0.04,0.01,0.08,0.02,0.12,0.03c0.01,0,0.02,0,0.03,0.01
					c0.03,0.01,0.06,0.02,0.1,0.03c0.01,0.01,0.03,0.01,0.04,0.01c0.03,0.01,0.06,0.02,0.08,0.03c0.01,0,0.03,0.01,0.04,0.01
					c0.03,0.01,0.06,0.02,0.08,0.03c0.01,0.01,0.03,0.01,0.04,0.01c0.04,0.01,0.07,0.03,0.11,0.04c0.01,0,0.01,0.01,0.02,0.01
					c0.04,0.02,0.08,0.03,0.12,0.05c0.01,0.01,0.02,0.01,0.04,0.02c0.03,0.01,0.06,0.03,0.09,0.04c0.01,0.01,0.03,0.01,0.04,0.02
					c0.03,0.01,0.06,0.03,0.09,0.04c0.01,0.01,0.03,0.01,0.04,0.02c0.04,0.02,0.08,0.04,0.13,0.06l0,0
					c0.04,0.02,0.08,0.05,0.13,0.07c0.01,0,0.02,0.01,0.02,0.01c0.04,0.02,0.08,0.05,0.13,0.07l27.38-15.93
					c-0.04-0.02-0.08-0.05-0.13-0.07c-0.01-0.01-0.02-0.01-0.03-0.01c-0.01,0-0.01-0.01-0.02-0.01c-0.04-0.02-0.07-0.04-0.11-0.06h0
					c-0.04-0.02-0.08-0.04-0.11-0.06c0,0-0.01,0-0.02-0.01c-0.01,0-0.03-0.01-0.04-0.02c-0.03-0.01-0.06-0.03-0.09-0.04
					c-0.01-0.01-0.03-0.01-0.04-0.02c-0.01-0.01-0.02-0.01-0.03-0.01c-0.02-0.01-0.04-0.02-0.06-0.02
					c-0.01-0.01-0.02-0.01-0.04-0.01c-0.04-0.02-0.08-0.04-0.12-0.05c0,0,0,0,0,0c-0.01,0-0.01,0-0.02-0.01
					c-0.03-0.02-0.07-0.03-0.11-0.04c-0.01-0.01-0.03-0.01-0.04-0.02c-0.02-0.01-0.03-0.01-0.05-0.02c-0.01,0-0.02-0.01-0.04-0.01
					c-0.01-0.01-0.03-0.01-0.04-0.01c-0.03-0.01-0.06-0.02-0.08-0.03c-0.01,0-0.03-0.01-0.04-0.01c0,0-0.01,0-0.01-0.01
					c-0.03-0.01-0.05-0.01-0.08-0.02c-0.01,0-0.02-0.01-0.03-0.01c-0.04-0.01-0.08-0.02-0.12-0.03l-0.01,0c-0.01,0-0.02,0-0.03-0.01
					c-0.03-0.01-0.06-0.01-0.09-0.02c-0.01,0-0.03-0.01-0.04-0.01c-0.02,0-0.03-0.01-0.05-0.01c-0.01,0-0.02,0-0.02,0
					c-0.02-0.01-0.04-0.01-0.06-0.01c-0.02,0-0.05-0.01-0.07-0.01c-0.02,0-0.04-0.01-0.06-0.01c-0.01,0-0.02,0-0.03-0.01
					c-0.01,0-0.02,0-0.03,0c-0.02,0-0.04,0-0.06-0.01c-0.02,0-0.04,0-0.06-0.01c-0.02,0-0.04,0-0.06-0.01c-0.01,0-0.02,0-0.03,0
					c-0.01,0-0.02,0-0.03,0c-0.02,0-0.05,0-0.07,0c-0.02,0-0.04,0-0.06,0c-0.02,0-0.04,0-0.07,0c-0.01,0-0.02,0-0.03,0
					c-0.01,0-0.01,0-0.02,0c-0.03,0-0.06,0-0.09,0c-0.01,0-0.03,0-0.04,0c-0.04,0-0.09,0.01-0.13,0.01h0c-0.03,0-0.06,0.01-0.1,0.01
					c-0.01,0-0.02,0-0.03,0c-0.03,0.01-0.05,0.01-0.08,0.01c-0.01,0-0.01,0-0.02,0c-0.03,0.01-0.06,0.01-0.09,0.02c0,0,0,0,0,0
					c-0.02,0-0.03,0.01-0.04,0.01c-0.02,0.01-0.04,0.01-0.07,0.01c-0.01,0.01-0.03,0.01-0.04,0.01c-0.02,0.01-0.04,0.01-0.06,0.02
					c-0.01,0-0.03,0.01-0.04,0.01c-0.02,0-0.04,0.01-0.06,0.02c-0.01,0-0.03,0.01-0.04,0.01c-0.01,0-0.02,0.01-0.03,0.01
					c-0.01,0-0.02,0.01-0.02,0.01c-0.02,0.01-0.04,0.02-0.06,0.02c-0.01,0.01-0.03,0.01-0.04,0.02c-0.02,0.01-0.04,0.02-0.06,0.03
					c-0.01,0.01-0.03,0.01-0.04,0.02c-0.02,0.01-0.05,0.02-0.07,0.03c-0.01,0-0.02,0.01-0.03,0.02c-0.03,0.02-0.07,0.04-0.1,0.06
					l0,0L161,221.22c0.03-0.02,0.07-0.04,0.1-0.06c0.01-0.01,0.02-0.01,0.03-0.02C161.15,221.14,161.18,221.12,161.2,221.11z"/>
				<g>
					<polygon class="st10" points="164.86,221.59 192.24,205.66 195.56,207.58 168.18,223.51 					"/>
				</g>
				<path class="st6" d="M200.97,216.81c0-0.01,0-0.03,0-0.04c0-0.02,0-0.04,0-0.05c0-0.02,0-0.04,0-0.05c0-0.01,0-0.03,0-0.05
					c0-0.04,0-0.08-0.01-0.12c0-0.01,0-0.02,0-0.03c0,0,0-0.01,0-0.01c0-0.05-0.01-0.1-0.01-0.14c0-0.01,0-0.03,0-0.04
					c0-0.03,0-0.06-0.01-0.08c0-0.01,0-0.02,0-0.03c0-0.02,0-0.03,0-0.05c0-0.04-0.01-0.07-0.01-0.11c0-0.02,0-0.03-0.01-0.05
					c0-0.01,0-0.02,0-0.02c0-0.03-0.01-0.07-0.01-0.1c0-0.01,0-0.02,0-0.03c-0.01-0.05-0.01-0.1-0.02-0.14l0-0.01
					c0-0.01,0-0.03-0.01-0.04c-0.01-0.04-0.01-0.07-0.02-0.11c0-0.02-0.01-0.04-0.01-0.05c0-0.02-0.01-0.04-0.01-0.05
					c0-0.01-0.01-0.03-0.01-0.05c0-0.02-0.01-0.04-0.01-0.06c-0.01-0.04-0.01-0.07-0.02-0.1c0-0.02-0.01-0.04-0.01-0.05
					c0,0,0-0.01,0-0.02c-0.01-0.04-0.02-0.08-0.03-0.13c0,0,0-0.01,0-0.01c-0.01-0.05-0.02-0.1-0.03-0.14c0,0,0-0.01,0-0.01
					c0-0.02-0.01-0.03-0.01-0.05c-0.01-0.04-0.02-0.07-0.03-0.11c-0.01-0.02-0.01-0.04-0.02-0.06c-0.01-0.02-0.01-0.04-0.01-0.06
					c0-0.01-0.01-0.03-0.01-0.04c-0.01-0.02-0.01-0.04-0.02-0.06c-0.01-0.04-0.02-0.07-0.03-0.1c0-0.02-0.01-0.04-0.02-0.06
					c0-0.01,0-0.01-0.01-0.02c-0.01-0.03-0.02-0.07-0.03-0.1c0-0.01-0.01-0.02-0.01-0.03c-0.02-0.05-0.03-0.1-0.05-0.15
					c0-0.01,0-0.01,0-0.01c-0.01-0.01-0.01-0.03-0.01-0.04c-0.01-0.04-0.03-0.08-0.04-0.12c-0.01-0.02-0.01-0.03-0.02-0.05
					c-0.01-0.02-0.01-0.04-0.02-0.06c-0.01-0.02-0.01-0.03-0.02-0.05c-0.01-0.02-0.01-0.04-0.02-0.05
					c-0.01-0.04-0.03-0.08-0.04-0.11c0-0.01-0.01-0.03-0.02-0.04c0,0,0-0.01,0-0.01c-0.02-0.05-0.04-0.09-0.06-0.14
					c0-0.01-0.01-0.02-0.01-0.03c-0.01-0.03-0.02-0.06-0.04-0.09c0,0-0.01-0.01-0.01-0.02c-0.03-0.08-0.06-0.15-0.1-0.23
					c0-0.01-0.01-0.01-0.01-0.01c-0.01-0.01-0.01-0.02-0.01-0.03c-0.03-0.07-0.06-0.14-0.1-0.21c0-0.01-0.01-0.02-0.01-0.03
					c0,0,0-0.01-0.01-0.01c-0.01-0.02-0.02-0.04-0.03-0.05c-0.02-0.03-0.03-0.07-0.05-0.1c-0.01-0.02-0.02-0.04-0.03-0.06
					c-0.01-0.02-0.02-0.04-0.03-0.06c-0.01-0.01-0.01-0.02-0.02-0.03c-0.01-0.03-0.03-0.05-0.04-0.08
					c-0.01-0.03-0.03-0.05-0.04-0.08c-0.01-0.03-0.03-0.05-0.04-0.08c-0.01-0.02-0.02-0.03-0.03-0.05c0-0.01-0.01-0.01-0.01-0.02
					c-0.04-0.07-0.08-0.14-0.12-0.21c-0.01-0.01-0.01-0.02-0.01-0.02c-0.04-0.07-0.07-0.13-0.11-0.19c0-0.01-0.01-0.02-0.02-0.03
					c-0.01-0.01-0.01-0.02-0.02-0.03c-0.02-0.03-0.03-0.06-0.05-0.09c-0.02-0.02-0.03-0.05-0.05-0.07
					c-0.02-0.03-0.04-0.06-0.05-0.09c-0.01-0.02-0.03-0.05-0.05-0.07c-0.02-0.03-0.04-0.06-0.05-0.09
					c-0.02-0.02-0.03-0.04-0.05-0.07c-0.02-0.03-0.04-0.06-0.06-0.08c-0.01-0.02-0.02-0.04-0.04-0.05c0-0.01-0.01-0.01-0.01-0.01
					c-0.05-0.07-0.1-0.14-0.15-0.22c-0.01-0.01-0.02-0.03-0.03-0.04c-0.05-0.07-0.1-0.15-0.16-0.22l0,0
					c-0.01-0.01-0.02-0.03-0.03-0.04c-0.03-0.04-0.06-0.08-0.08-0.11c-0.01-0.02-0.03-0.04-0.04-0.06
					c-0.02-0.03-0.05-0.06-0.07-0.09c0-0.01-0.01-0.01-0.01-0.02c-0.02-0.02-0.03-0.04-0.05-0.06c-0.02-0.02-0.03-0.04-0.04-0.06
					c-0.02-0.03-0.05-0.06-0.07-0.09c-0.01-0.02-0.03-0.03-0.04-0.05c0,0,0,0-0.01-0.01c-0.04-0.04-0.07-0.08-0.1-0.13l0,0
					c-0.03-0.04-0.07-0.08-0.1-0.12c0,0,0,0,0,0c-0.01-0.02-0.03-0.03-0.04-0.04c-0.03-0.03-0.05-0.06-0.08-0.09
					c-0.01-0.01-0.03-0.03-0.04-0.05c-0.01-0.02-0.03-0.04-0.05-0.05c-0.01-0.01-0.01-0.02-0.02-0.02
					c-0.02-0.02-0.03-0.04-0.05-0.05c-0.02-0.02-0.05-0.05-0.07-0.07c-0.02-0.02-0.03-0.04-0.05-0.05
					c-0.01-0.01-0.02-0.02-0.03-0.03c-0.01-0.01-0.02-0.02-0.04-0.04c-0.02-0.02-0.03-0.04-0.05-0.05
					c-0.02-0.02-0.05-0.05-0.07-0.07c-0.02-0.02-0.03-0.03-0.05-0.05c-0.01-0.01-0.01-0.01-0.02-0.02
					c-0.02-0.01-0.03-0.03-0.05-0.05c-0.02-0.02-0.04-0.03-0.05-0.05c-0.02-0.02-0.05-0.04-0.07-0.07
					c-0.02-0.02-0.03-0.03-0.05-0.05c0,0-0.01-0.01-0.01-0.01c-0.02-0.02-0.05-0.04-0.07-0.06c-0.01-0.01-0.03-0.03-0.04-0.04
					c-0.03-0.03-0.07-0.06-0.1-0.09c-0.01-0.01-0.02-0.01-0.03-0.02h0c-0.04-0.04-0.08-0.07-0.12-0.1
					c-0.01-0.01-0.02-0.02-0.04-0.03c-0.03-0.02-0.05-0.05-0.08-0.07c0,0-0.01-0.01-0.01-0.01c-0.01-0.01-0.03-0.02-0.04-0.03
					c-0.03-0.02-0.06-0.04-0.08-0.06c-0.02-0.01-0.03-0.03-0.05-0.04c-0.01-0.01-0.03-0.02-0.05-0.04
					c-0.01-0.01-0.02-0.02-0.03-0.02c-0.02-0.01-0.03-0.02-0.05-0.04c-0.03-0.02-0.05-0.04-0.08-0.06
					c-0.02-0.01-0.03-0.02-0.05-0.04c-0.01,0-0.02-0.01-0.03-0.02c-0.02-0.01-0.04-0.03-0.06-0.04c-0.01-0.01-0.03-0.02-0.04-0.03
					c-0.04-0.03-0.08-0.06-0.13-0.08h0c0,0,0,0-0.01,0c-0.04-0.03-0.08-0.05-0.12-0.07c-0.02-0.01-0.03-0.02-0.04-0.03
					c-0.02-0.01-0.04-0.02-0.06-0.04c-0.02-0.01-0.03-0.02-0.05-0.03l-27.38,15.93c0.04,0.02,0.07,0.04,0.11,0.07
					c0.01,0.01,0.03,0.01,0.04,0.02c0.04,0.03,0.08,0.05,0.12,0.08c0,0,0,0,0.01,0c0.04,0.03,0.08,0.06,0.13,0.08
					c0.01,0.01,0.03,0.02,0.04,0.03c0.03,0.02,0.06,0.04,0.09,0.06c0.02,0.01,0.03,0.02,0.05,0.03c0.03,0.02,0.05,0.04,0.08,0.06
					c0.02,0.01,0.03,0.02,0.05,0.04c0.03,0.02,0.05,0.04,0.08,0.06c0.02,0.01,0.03,0.02,0.05,0.04c0.03,0.02,0.06,0.04,0.08,0.06
					c0.02,0.01,0.03,0.02,0.05,0.04c0.03,0.02,0.06,0.05,0.09,0.07c0.01,0.01,0.02,0.02,0.04,0.03c0.04,0.04,0.08,0.07,0.13,0.11
					c0.01,0.01,0.02,0.01,0.03,0.02c0.03,0.03,0.07,0.06,0.1,0.09c0.01,0.01,0.03,0.03,0.04,0.04c0.03,0.02,0.05,0.05,0.08,0.07
					c0.02,0.01,0.03,0.03,0.05,0.05c0.02,0.02,0.05,0.04,0.07,0.07c0.02,0.02,0.04,0.03,0.05,0.05c0.02,0.02,0.05,0.04,0.07,0.07
					c0.02,0.02,0.04,0.03,0.05,0.05c0.02,0.02,0.05,0.04,0.07,0.07c0.02,0.02,0.04,0.03,0.05,0.05c0.02,0.02,0.05,0.05,0.07,0.07
					c0.02,0.02,0.03,0.04,0.05,0.05c0.02,0.03,0.05,0.05,0.07,0.07c0.02,0.02,0.03,0.04,0.05,0.05c0.02,0.03,0.05,0.05,0.07,0.08
					c0.01,0.02,0.03,0.03,0.04,0.05c0.03,0.03,0.05,0.06,0.08,0.08c0.01,0.01,0.03,0.03,0.04,0.04c0.03,0.04,0.07,0.08,0.11,0.13
					c0,0,0,0,0,0c0.04,0.04,0.07,0.09,0.11,0.13c0.01,0.01,0.03,0.03,0.04,0.05c0.02,0.03,0.05,0.06,0.07,0.09
					c0.01,0.02,0.03,0.04,0.04,0.06c0.02,0.03,0.04,0.05,0.06,0.08c0.02,0.03,0.05,0.06,0.07,0.1c0.02,0.02,0.03,0.04,0.04,0.06
					c0.03,0.04,0.06,0.07,0.08,0.11c0.01,0.01,0.02,0.03,0.03,0.04c0.05,0.07,0.11,0.14,0.16,0.22c0.01,0.01,0.02,0.03,0.03,0.04
					c0.05,0.07,0.1,0.14,0.15,0.22c0.01,0.02,0.03,0.04,0.04,0.07c0.02,0.03,0.04,0.06,0.06,0.08c0.02,0.02,0.03,0.05,0.05,0.07
					c0.02,0.03,0.04,0.06,0.06,0.08c0.01,0.03,0.03,0.05,0.05,0.07c0.02,0.03,0.04,0.06,0.05,0.09c0.02,0.03,0.03,0.05,0.05,0.07
					c0.02,0.03,0.03,0.06,0.05,0.09c0.01,0.02,0.02,0.04,0.03,0.06c0.04,0.06,0.07,0.13,0.11,0.19c0,0.01,0.01,0.02,0.01,0.02
					c0.04,0.07,0.08,0.14,0.12,0.21c0.01,0.02,0.02,0.05,0.04,0.07c0.01,0.03,0.03,0.05,0.04,0.08c0.01,0.03,0.03,0.05,0.04,0.08
					c0.01,0.03,0.03,0.05,0.04,0.08c0.01,0.03,0.03,0.06,0.04,0.09c0.01,0.02,0.02,0.04,0.03,0.06c0.02,0.03,0.03,0.07,0.05,0.1
					c0.01,0.02,0.02,0.04,0.03,0.05c0.01,0.01,0.01,0.03,0.02,0.04c0.03,0.07,0.06,0.14,0.09,0.21c0.01,0.02,0.01,0.03,0.02,0.05
					c0.03,0.08,0.07,0.15,0.1,0.23c0.01,0.04,0.03,0.07,0.04,0.11c0.01,0.01,0.01,0.02,0.01,0.03c0.02,0.05,0.04,0.1,0.06,0.15
					c0.01,0.01,0.01,0.03,0.01,0.04c0.02,0.04,0.03,0.08,0.04,0.12c0.01,0.02,0.01,0.03,0.02,0.05c0.01,0.04,0.03,0.07,0.04,0.11
					c0.01,0.02,0.01,0.04,0.02,0.05c0.01,0.04,0.03,0.08,0.04,0.12c0,0.01,0.01,0.03,0.01,0.04c0.02,0.05,0.04,0.11,0.05,0.16
					c0,0.01,0.01,0.02,0.01,0.03c0.01,0.04,0.02,0.08,0.04,0.12c0.01,0.02,0.01,0.04,0.02,0.06c0.01,0.04,0.02,0.07,0.03,0.1
					c0.01,0.02,0.01,0.04,0.02,0.06c0.01,0.03,0.02,0.07,0.03,0.1c0.01,0.02,0.01,0.04,0.02,0.06c0.01,0.04,0.02,0.07,0.03,0.11
					c0,0.01,0.01,0.03,0.01,0.05c0.01,0.05,0.03,0.1,0.04,0.16c0,0.01,0,0.01,0,0.01c0.01,0.05,0.02,0.1,0.03,0.15
					c0,0.02,0.01,0.03,0.01,0.05c0.01,0.04,0.02,0.07,0.02,0.11c0,0.02,0.01,0.04,0.01,0.06c0.01,0.04,0.01,0.07,0.02,0.1
					c0,0.02,0.01,0.04,0.01,0.05c0.01,0.04,0.01,0.08,0.02,0.12c0,0.01,0,0.03,0,0.04c0.01,0.05,0.02,0.1,0.02,0.15
					c0,0.01,0,0.02,0,0.03c0.01,0.04,0.01,0.08,0.02,0.12c0,0.02,0,0.03,0.01,0.05c0.01,0.04,0.01,0.07,0.01,0.11
					c0,0.02,0,0.04,0,0.05c0,0.04,0.01,0.08,0.01,0.11c0,0.01,0,0.02,0,0.04c0,0.05,0.01,0.1,0.01,0.15c0,0.01,0,0.02,0,0.03
					c0,0.04,0,0.08,0.01,0.12c0,0.01,0,0.03,0,0.05c0,0.04,0,0.07,0,0.1c0,0.01,0,0.03,0,0.04c0,0.05,0,0.1,0,0.14
					c0,0.05,0,0.1,0,0.15c0,0.01,0,0.02,0,0.03c0,0.04,0,0.07-0.01,0.11c0,0.02,0,0.03,0,0.05c0,0.03,0,0.06-0.01,0.09
					c0,0.02,0,0.04,0,0.05c0,0.03,0,0.06-0.01,0.09c0,0.02,0,0.04-0.01,0.05c0,0.03-0.01,0.06-0.01,0.09c0,0.02,0,0.04-0.01,0.05
					c0,0.03-0.01,0.06-0.01,0.09c0,0.01,0,0.03-0.01,0.04c-0.01,0.04-0.01,0.09-0.02,0.13c0,0.01,0,0.02-0.01,0.03
					c-0.01,0.04-0.01,0.07-0.02,0.11c0,0.02-0.01,0.03-0.01,0.05c-0.01,0.03-0.01,0.06-0.02,0.08c-0.01,0.05-0.02,0.09-0.03,0.14
					c0,0.01,0,0.01-0.01,0.02c-0.01,0.04-0.02,0.08-0.03,0.11c0,0.01-0.01,0.02-0.01,0.03c-0.01,0.04-0.02,0.07-0.03,0.1
					c-0.01,0.01-0.01,0.03-0.02,0.05c-0.01,0.03-0.02,0.06-0.03,0.09c0,0.02-0.01,0.03-0.02,0.04c-0.01,0.04-0.03,0.07-0.04,0.11
					c0,0.01-0.01,0.02-0.01,0.03c-0.02,0.04-0.04,0.09-0.06,0.14c-0.01,0.03-0.03,0.06-0.04,0.08c0,0-0.01,0.01-0.01,0.02
					c-0.02,0.03-0.04,0.07-0.05,0.1c0,0.01-0.01,0.02-0.02,0.03c-0.01,0.02-0.03,0.05-0.04,0.07c-0.01,0.01-0.01,0.02-0.02,0.03
					c-0.01,0.02-0.02,0.04-0.04,0.06c-0.01,0.01-0.01,0.02-0.02,0.03c-0.01,0.02-0.03,0.04-0.04,0.06
					c-0.01,0.01-0.01,0.02-0.02,0.03c-0.02,0.02-0.03,0.05-0.05,0.07c0,0,0,0.01,0,0.01c-0.02,0.03-0.04,0.06-0.06,0.08
					c-0.01,0.01-0.01,0.01-0.02,0.02c-0.01,0.02-0.03,0.04-0.05,0.06c-0.01,0.01-0.01,0.02-0.02,0.03
					c-0.02,0.02-0.03,0.04-0.05,0.05c0,0-0.01,0.01-0.01,0.01c-0.02,0.03-0.05,0.05-0.07,0.07c-0.01,0.01-0.01,0.01-0.02,0.02
					c-0.02,0.02-0.04,0.04-0.05,0.05c-0.01,0.01-0.02,0.01-0.02,0.02c-0.02,0.01-0.04,0.03-0.05,0.05
					c-0.01,0.01-0.01,0.01-0.02,0.02c-0.03,0.02-0.05,0.04-0.08,0.06c0,0-0.01,0.01-0.01,0.01c-0.02,0.02-0.04,0.03-0.06,0.05
					c-0.01,0-0.02,0.01-0.03,0.01c-0.02,0.01-0.04,0.03-0.06,0.04c-0.01,0.01-0.01,0.01-0.02,0.02c-0.03,0.01-0.05,0.03-0.08,0.05
					l0,0l27.38-15.93c0.03-0.01,0.06-0.03,0.08-0.05c0.01,0,0.02-0.01,0.02-0.01c0.02-0.01,0.04-0.02,0.06-0.04
					c0.01-0.01,0.02-0.01,0.02-0.02c0.02-0.02,0.04-0.03,0.07-0.05c0,0,0.01-0.01,0.01-0.01c0.03-0.02,0.05-0.04,0.08-0.06
					c0.01-0.01,0.01-0.01,0.02-0.02c0.02-0.02,0.04-0.03,0.05-0.05c0.01-0.01,0.02-0.01,0.02-0.02c0.02-0.02,0.04-0.03,0.05-0.05
					c0.01,0,0.01-0.01,0.02-0.02c0.02-0.02,0.05-0.05,0.07-0.07c0.01-0.01,0.01-0.01,0.01-0.01c0.02-0.02,0.03-0.04,0.05-0.06
					c0.01-0.01,0.01-0.02,0.02-0.02c0.02-0.02,0.03-0.04,0.05-0.05c0.01-0.01,0.01-0.02,0.02-0.02c0.02-0.03,0.04-0.05,0.06-0.08
					c0,0,0.01,0,0.01,0c0.02-0.03,0.04-0.05,0.06-0.08c0.01-0.01,0.01-0.02,0.02-0.03c0.01-0.02,0.03-0.04,0.04-0.06
					c0.01-0.01,0.01-0.02,0.02-0.03c0-0.01,0.01-0.01,0.01-0.01c0.01-0.02,0.02-0.03,0.03-0.05c0.01-0.01,0.01-0.02,0.02-0.04
					c0.01-0.02,0.03-0.04,0.04-0.07c0-0.01,0.01-0.02,0.01-0.03c0.02-0.03,0.04-0.07,0.05-0.1c0-0.01,0.01-0.01,0.01-0.01
					c0.02-0.03,0.03-0.06,0.04-0.08c0,0,0-0.01,0-0.01c0.02-0.04,0.04-0.09,0.06-0.14c0-0.01,0.01-0.03,0.01-0.04
					c0.01-0.04,0.03-0.07,0.04-0.11c0-0.01,0.01-0.02,0.01-0.02c0-0.01,0-0.01,0.01-0.02c0.01-0.03,0.02-0.06,0.03-0.09
					c0.01-0.01,0.01-0.03,0.02-0.05c0.01-0.03,0.02-0.07,0.03-0.1c0-0.01,0.01-0.02,0.01-0.03l0,0c0.01-0.04,0.02-0.08,0.03-0.11
					c0-0.01,0-0.01,0.01-0.02c0.01-0.04,0.02-0.09,0.03-0.14l0,0c0.01-0.03,0.01-0.06,0.02-0.08c0-0.02,0.01-0.03,0.01-0.05
					c0.01-0.04,0.01-0.08,0.02-0.12c0-0.01,0-0.01,0-0.02v0c0.01-0.04,0.01-0.09,0.02-0.13c0-0.02,0-0.03,0.01-0.05
					c0-0.03,0.01-0.05,0.01-0.08l0-0.01c0-0.02,0-0.03,0.01-0.05c0-0.03,0.01-0.06,0.01-0.09c0-0.02,0-0.04,0.01-0.06
					c0-0.02,0-0.03,0-0.05c0-0.01,0-0.02,0-0.04c0-0.02,0-0.04,0-0.05c0-0.03,0-0.06,0.01-0.1c0-0.02,0-0.03,0-0.05l0-0.02
					c0-0.04,0-0.07,0-0.1c0-0.01,0-0.02,0-0.03c0-0.05,0-0.09,0-0.14v-0.01C200.97,216.9,200.97,216.85,200.97,216.81z"/>
				<g>
					<path class="st11" d="M168.18,223.51c2.98,1.72,5.42,5.94,5.41,9.37c-0.01,3.43-2.46,4.83-5.44,3.1l-3.32-1.92
						c-2.99-1.72-5.42-5.94-5.41-9.37c0.01-3.43,2.46-4.82,5.44-3.1L168.18,223.51z"/>
				</g>
			</g>
			<polygon class="st12" points="270.69,173.16 270.63,152.95 153.69,220.82 153.69,240.98 160.43,237.06 160.43,225.04 
				264.15,165.06 264.15,176.94 			"/>
		</g>
		<g>
			<polygon class="st13" points="102.1,127.55 156.49,159.2 272.22,92.06 218.01,60.52 			"/>
			<polygon class="st14" points="156.49,159.2 156.49,219.69 102.1,188.05 102.1,127.55 			"/>
			<polygon class="st15" points="272.22,92.06 156.49,159.2 156.49,219.69 272.22,152.55 			"/>
		</g>
		<g>
			<g>
				<path class="st2" d="M125.19,272.88c-0.04-0.03-0.08-0.06-0.12-0.1c-0.11-0.09-0.22-0.19-0.32-0.29
					c-0.02-0.02-0.04-0.03-0.05-0.05c-0.12-0.12-0.24-0.24-0.35-0.36c-0.03-0.04-0.06-0.07-0.09-0.11c-0.08-0.1-0.16-0.19-0.24-0.29
					c-0.04-0.04-0.07-0.09-0.1-0.13c-0.08-0.11-0.16-0.22-0.24-0.34c-0.02-0.03-0.04-0.06-0.06-0.09c-0.1-0.16-0.2-0.32-0.29-0.49
					c-0.09-0.17-0.18-0.35-0.27-0.53c-0.01-0.03-0.02-0.06-0.04-0.09c-0.07-0.14-0.13-0.29-0.19-0.44
					c-0.02-0.04-0.04-0.09-0.05-0.13c-0.03-0.09-0.06-0.18-0.1-0.27c-0.05-0.15-0.1-0.29-0.15-0.44c-0.03-0.1-0.06-0.19-0.08-0.29
					c-0.04-0.12-0.07-0.25-0.1-0.38c-0.03-0.11-0.05-0.22-0.08-0.33c-0.02-0.11-0.05-0.22-0.07-0.33c-0.02-0.12-0.04-0.25-0.06-0.38
					c-0.01-0.1-0.03-0.2-0.04-0.3c-0.02-0.14-0.04-0.28-0.05-0.42c-0.01-0.09-0.02-0.19-0.03-0.29c-0.01-0.17-0.03-0.34-0.03-0.51
					c0-0.07-0.01-0.14-0.01-0.21c-0.01-0.25-0.02-0.51-0.02-0.76c0-0.25,0-0.5,0.01-0.75c0-0.08,0.01-0.17,0.01-0.25
					c0.01-0.18,0.02-0.35,0.03-0.53c0.01-0.09,0.01-0.18,0.02-0.27c0.02-0.19,0.04-0.37,0.06-0.56c0.01-0.07,0.02-0.15,0.02-0.22
					c0.03-0.26,0.07-0.52,0.11-0.79c0.01-0.03,0.01-0.07,0.02-0.1c0.04-0.23,0.08-0.46,0.12-0.69c0.02-0.09,0.04-0.18,0.06-0.28
					c0.04-0.18,0.07-0.35,0.11-0.53c0.02-0.1,0.05-0.21,0.07-0.31c0.04-0.17,0.08-0.34,0.13-0.51c0.03-0.1,0.05-0.2,0.08-0.31
					c0.05-0.18,0.1-0.37,0.16-0.55c0.03-0.09,0.05-0.17,0.08-0.26c0.08-0.27,0.17-0.54,0.25-0.8c0.01-0.02,0.01-0.04,0.02-0.06
					c0.08-0.24,0.17-0.49,0.26-0.74c0.03-0.08,0.06-0.16,0.09-0.24c0.07-0.19,0.14-0.37,0.22-0.56c0.04-0.09,0.07-0.18,0.11-0.26
					c0.08-0.19,0.16-0.39,0.24-0.58c0.03-0.07,0.06-0.14,0.09-0.21c0.11-0.26,0.23-0.51,0.35-0.77c0.03-0.06,0.06-0.13,0.09-0.19
					c0.09-0.2,0.19-0.4,0.29-0.59c0.07-0.14,0.14-0.28,0.22-0.42c0.07-0.13,0.14-0.26,0.21-0.4c0.19-0.36,0.4-0.72,0.6-1.07
					c0.07-0.12,0.14-0.24,0.21-0.36c0.09-0.15,0.17-0.29,0.26-0.43c0.08-0.13,0.16-0.26,0.24-0.38c0.09-0.14,0.18-0.28,0.27-0.42
					c0.06-0.09,0.12-0.18,0.18-0.27c0.26-0.38,0.52-0.76,0.79-1.13l0.01-0.01c0.19-0.26,0.39-0.51,0.58-0.77
					c0.15-0.2,0.31-0.39,0.47-0.58c0.03-0.03,0.06-0.08,0.09-0.11c0.19-0.23,0.38-0.45,0.57-0.66c0.06-0.06,0.11-0.13,0.17-0.19
					c0.14-0.15,0.27-0.3,0.41-0.45c0.08-0.08,0.16-0.17,0.24-0.25c0.12-0.13,0.24-0.25,0.36-0.38c0.09-0.09,0.18-0.17,0.26-0.26
					c0.12-0.12,0.24-0.23,0.35-0.34c0.09-0.09,0.19-0.18,0.28-0.26c0.12-0.11,0.23-0.22,0.35-0.32c0.1-0.09,0.19-0.17,0.29-0.25
					c0.12-0.1,0.24-0.21,0.37-0.31c0.09-0.08,0.19-0.15,0.28-0.23c0.13-0.1,0.26-0.21,0.39-0.3c0.09-0.07,0.18-0.14,0.26-0.2
					c0.14-0.11,0.29-0.21,0.43-0.31c0.07-0.05,0.15-0.11,0.22-0.16c0.22-0.15,0.43-0.29,0.65-0.43c0.01-0.01,0.03-0.02,0.04-0.03
					c0.22-0.14,0.45-0.28,0.68-0.41c0.2-0.12,0.41-0.23,0.61-0.33c0.08-0.04,0.15-0.08,0.23-0.12c0.15-0.08,0.3-0.15,0.45-0.22
					c0.07-0.03,0.14-0.06,0.2-0.1c0.21-0.1,0.43-0.19,0.64-0.27c0.21-0.09,0.42-0.16,0.63-0.23c0.07-0.03,0.13-0.05,0.2-0.07
					c0.14-0.05,0.28-0.09,0.42-0.13c0.08-0.02,0.16-0.05,0.25-0.07c0.13-0.03,0.26-0.07,0.39-0.1c0.08-0.02,0.16-0.04,0.24-0.06
					c0.12-0.03,0.24-0.05,0.36-0.07c0.09-0.02,0.19-0.03,0.28-0.05c0.11-0.01,0.22-0.03,0.33-0.04c0.1-0.01,0.2-0.02,0.3-0.03
					c0.1-0.01,0.19-0.01,0.29-0.02c0.12-0.01,0.24-0.01,0.35-0.01c0.16,0,0.32,0,0.48,0.01c0.02,0,0.03,0,0.05,0
					c0.16,0.01,0.31,0.02,0.47,0.04c0.05,0,0.09,0.01,0.14,0.01c0.17,0.02,0.34,0.05,0.5,0.08c0.04,0.01,0.09,0.02,0.13,0.03
					c0.13,0.03,0.26,0.06,0.39,0.1c0.06,0.02,0.13,0.04,0.19,0.06c0.1,0.03,0.21,0.07,0.31,0.1c0.13,0.05,0.25,0.1,0.37,0.15
					c0.06,0.03,0.12,0.05,0.18,0.08c0.18,0.08,0.35,0.17,0.52,0.27l-10.28-6.01c-0.17-0.1-0.34-0.19-0.52-0.27
					c-0.06-0.03-0.12-0.05-0.18-0.08c-1.94-0.84-4.24-0.66-6.21-0.01c-1.98,0.65-3.89,1.77-5.52,3.06c-0.05,0.04-0.1,0.08-0.15,0.12
					c-0.09,0.08-0.19,0.15-0.28,0.23c-5.97,4.94-10.26,12.71-10.83,20.48c-0.19,2.67,0.1,5.73,1.57,8.03
					c0.01,0.01,0.01,0.02,0.02,0.03c0.02,0.03,0.04,0.06,0.06,0.09c0.08,0.12,0.16,0.23,0.24,0.34c0.03,0.04,0.07,0.09,0.1,0.13
					c0.08,0.1,0.16,0.2,0.24,0.29c0.03,0.04,0.06,0.07,0.09,0.11c0.11,0.13,0.23,0.25,0.35,0.36c0.02,0.02,0.03,0.03,0.05,0.05
					c0.1,0.1,0.21,0.19,0.32,0.28c0.04,0.04,0.08,0.07,0.12,0.1c0.09,0.08,0.19,0.15,0.29,0.22c0.04,0.03,0.08,0.06,0.12,0.09
					c0.13,0.09,0.27,0.18,0.41,0.26l10.27,6.01c-0.14-0.08-0.28-0.17-0.41-0.26c-0.04-0.03-0.08-0.06-0.12-0.08
					C125.38,273.02,125.28,272.95,125.19,272.88z"/>
				<g>
					<path class="st3" d="M135.81,240.5c-7.68,4.44-13.89,15.19-13.87,24.02c0.02,8.83,6.27,12.39,13.96,7.95
						c7.68-4.44,13.89-15.19,13.87-24.02C149.75,239.62,143.5,236.06,135.81,240.5z"/>
				</g>
			</g>
			<g>
				<g>
					<path class="st4" d="M136.29,246.7c-4.74,2.74-8.63,9.15-9.04,14.72c-0.03,0.34-0.04,0.68-0.04,1.01
						c0.02,5.78,4.11,8.11,9.14,5.21c5.03-2.9,9.1-9.95,9.08-15.73c0-0.33-0.01-0.65-0.04-0.96
						C144.94,245.88,141.03,243.97,136.29,246.7z"/>
				</g>
				<g>
					<path class="st5" d="M136.3,249.56c-3.45,1.99-6.27,6.65-6.58,10.71c-0.02,0.25-0.03,0.49-0.03,0.73
						c0.01,4.21,2.99,5.9,6.65,3.79c3.66-2.11,6.62-7.23,6.6-11.44c0-0.24-0.01-0.48-0.03-0.7
						C142.59,248.96,139.75,247.57,136.3,249.56z"/>
				</g>
				<path class="st6" d="M142.91,252.64c-0.27-3.05-2.27-4.53-4.91-3.81c2.05-0.05,3.52,1.4,3.75,3.99c0.02,0.23,0.03,0.46,0.03,0.7
					c0.01,4.2-2.95,9.33-6.6,11.44c-0.59,0.34-1.17,0.59-1.72,0.73c0.87-0.02,1.85-0.31,2.88-0.91c3.66-2.11,6.62-7.24,6.6-11.44
					C142.94,253.1,142.93,252.87,142.91,252.64z"/>
				<g>
					<path class="st7" d="M138.81,257.98c0.19-0.11,0.38-0.13,0.53-0.05c0.29,0.16,0.29,0.7,0,1.21c-0.14,0.25-0.33,0.45-0.52,0.55
						c-0.19,0.11-0.38,0.14-0.53,0.05c-0.29-0.17-0.29-0.71,0-1.21C138.43,258.28,138.62,258.09,138.81,257.98z"/>
					<path class="st7" d="M135.89,255.23c0.93-0.54,1.69-0.11,1.7,0.97c0,1.08-0.75,2.38-1.69,2.92c-0.93,0.54-1.69,0.11-1.7-0.97
						C134.2,257.08,134.96,255.77,135.89,255.23z"/>
					<path class="st7" d="M135.91,261.04c0.41-0.24,0.74-0.05,0.75,0.42c0,0.47-0.33,1.05-0.74,1.28c-0.41,0.24-0.75,0.05-0.75-0.42
						C135.17,261.85,135.5,261.28,135.91,261.04z"/>
					<path class="st7" d="M133,261.33c0.19-0.11,0.38-0.13,0.53-0.05c0.29,0.17,0.29,0.71,0,1.21c-0.14,0.25-0.34,0.44-0.53,0.55
						c-0.19,0.11-0.38,0.14-0.53,0.05c-0.29-0.17-0.29-0.71,0-1.21C132.62,261.64,132.81,261.44,133,261.33z"/>
					<path class="st7" d="M138.79,251.3c0.19-0.11,0.38-0.14,0.53-0.05c0.29,0.16,0.29,0.71,0,1.21c-0.14,0.25-0.34,0.44-0.53,0.55
						c-0.19,0.11-0.38,0.14-0.53,0.05c-0.29-0.17-0.29-0.71,0-1.21C138.41,251.61,138.6,251.41,138.79,251.3z"/>
					<path class="st7" d="M135.89,253.31c-0.41,0.24-0.75,0.05-0.75-0.43c0-0.47,0.33-1.05,0.74-1.28c0.41-0.24,0.75-0.05,0.75,0.42
						C136.63,252.49,136.3,253.07,135.89,253.31z"/>
					<path class="st7" d="M132.98,256.37c-0.19,0.11-0.38,0.14-0.53,0.05c-0.29-0.17-0.29-0.71,0-1.21
						c0.15-0.25,0.33-0.45,0.53-0.56c0.19-0.11,0.38-0.14,0.53-0.05c0.29,0.16,0.29,0.71,0,1.21
						C133.37,256.06,133.18,256.26,132.98,256.37z"/>
					<path class="st7" d="M139.26,255.23c0-0.47,0.33-1.05,0.74-1.29c0.41-0.24,0.74-0.05,0.74,0.43c0,0.47-0.33,1.05-0.74,1.28
						C139.6,255.89,139.26,255.7,139.26,255.23z"/>
					<path class="st7" d="M131.79,258.69c0.41-0.24,0.74-0.05,0.75,0.43c0,0.47-0.33,1.05-0.74,1.28s-0.75,0.05-0.75-0.43
						C131.04,259.5,131.38,258.93,131.79,258.69z"/>
				</g>
			</g>
		</g>
		<linearGradient id="SVGID_1_" gradientUnits="userSpaceOnUse" x1="62.3779" y1="235.0332" x2="112.9537" y2="235.0332">
			<stop  offset="0" style="stop-color:#3282ED"/>
			<stop  offset="1" style="stop-color:#60A2F0"/>
		</linearGradient>
		<polygon class="st16" points="112.95,264.57 62.46,236.01 62.38,205.49 112.87,234.05 		"/>
		<polygon class="st17" points="112.87,234.05 62.38,205.49 69.24,175.82 119.73,204.38 		"/>
		<linearGradient id="SVGID_2_" gradientUnits="userSpaceOnUse" x1="69.2415" y1="180.3314" x2="153.5822" y2="180.3314">
			<stop  offset="0" style="stop-color:#3282ED"/>
			<stop  offset="1" style="stop-color:#60A2F0"/>
		</linearGradient>
		<polygon class="st18" points="119.73,204.38 69.24,175.82 103.09,156.28 153.58,184.84 		"/>
		<linearGradient id="SVGID_3_" gradientUnits="userSpaceOnUse" x1="62.3779" y1="204.9374" x2="119.7319" y2="204.9374">
			<stop  offset="0" style="stop-color:#3282ED"/>
			<stop  offset="1" style="stop-color:#60A2F0"/>
		</linearGradient>
		<path class="st19" d="M69.24,175.82l-6.86,29.67l50.49,28.56l6.86-29.67L69.24,175.82z M111.53,231.01l-46.88-26.52l5.93-25.63
			l46.88,26.52L111.53,231.01z"/>
		<g id="XMLID_139_">
			<g id="XMLID_140_" class="st20">
				<g id="XMLID_141_">
					<polygon id="XMLID_142_" class="st21" points="71.38,216.31 71.38,235.91 103.95,254.74 103.95,235.14 					"/>
				</g>
			</g>
		</g>
		<g>
			<polygon class="st6" points="110.49,259.11 110.49,265.98 60.26,237.1 60.26,230.23 			"/>
			<polygon class="st4" points="110.49,259.11 110.49,265.98 112.95,264.6 112.95,257.72 			"/>
			<polygon class="st22" points="60.27,230.23 110.49,259.11 112.95,257.72 62.74,228.83 			"/>
		</g>
		<g>
			<polygon class="st23" points="112.87,250.7 104.8,246.05 104.8,250.91 112.87,255.51 			"/>
		</g>
		<linearGradient id="SVGID_4_" gradientUnits="userSpaceOnUse" x1="112.8688" y1="224.7062" x2="153.6857" y2="224.7062">
			<stop  offset="0" style="stop-color:#3282ED"/>
			<stop  offset="1" style="stop-color:#60A2F0"/>
		</linearGradient>
		<path class="st24" d="M153.58,184.84l-33.85,19.54l-6.86,29.67l0.08,30.52l7.24-4.19c1.85-8.66,7.9-17.72,15.09-21.88
			c7.18-4.14,13.24-2.11,15.15,4.36l3.24-1.88v-20.15L153.58,184.84z"/>
		<g>
			<path class="st17" d="M140.17,195.09c0.36-0.21,0.65-0.04,0.65,0.37l0.05,17.69c0,0.41-0.29,0.91-0.65,1.11l-22.46,12.97
				c-0.45,0.25-0.76-0.07-0.61-0.64l3.98-20.02c0.09-0.35,0.34-0.69,0.61-0.85L140.17,195.09z"/>
		</g>
		<linearGradient id="SVGID_5_" gradientUnits="userSpaceOnUse" x1="103.1403" y1="260.6548" x2="109.2506" y2="260.6548">
			<stop  offset="0" style="stop-color:#3282ED"/>
			<stop  offset="1" style="stop-color:#60A2F0"/>
		</linearGradient>
		<polygon class="st25" points="109.25,260.84 109.25,263.98 103.14,260.47 103.14,257.33 		"/>
		<polygon class="st4" points="225,187.7 225,199.1 203.74,211.16 203.74,199.99 		"/>
		<polygon class="st26" points="203.74,211.16 199.72,208.97 199.72,202.31 203.74,199.99 		"/>
		<polygon class="st27" points="117.46,205.38 64.65,204.49 70.58,178.87 		"/>
		<g>
			<linearGradient id="SVGID_6_" gradientUnits="userSpaceOnUse" x1="218.1614" y1="149.4698" x2="224.1211" y2="149.4698">
				<stop  offset="0" style="stop-color:#3282ED"/>
				<stop  offset="1" style="stop-color:#60A2F0"/>
			</linearGradient>
			<polygon class="st28" points="218.16,170.98 224.12,167.56 224.12,127.96 218.16,131.39 			"/>
			<linearGradient id="SVGID_7_" gradientUnits="userSpaceOnUse" x1="231.3008" y1="138.0834" x2="250.3995" y2="138.0834">
				<stop  offset="0" style="stop-color:#3282ED"/>
				<stop  offset="1" style="stop-color:#60A2F0"/>
			</linearGradient>
			<polygon class="st29" points="244.44,149.11 237.26,153.25 237.26,120.37 231.3,123.8 231.3,156.7 231.3,163.39 237.26,159.97 
				237.26,159.95 250.4,152.37 250.4,145.67 250.4,112.77 244.44,116.2 			"/>
			<linearGradient id="SVGID_8_" gradientUnits="userSpaceOnUse" x1="257.5782" y1="126.6969" x2="263.539" y2="126.6969">
				<stop  offset="0" style="stop-color:#3282ED"/>
				<stop  offset="1" style="stop-color:#60A2F0"/>
			</linearGradient>
			<polygon class="st30" points="257.58,108.61 257.58,148.21 263.54,144.78 263.54,105.19 			"/>
		</g>
		<linearGradient id="SVGID_9_" gradientUnits="userSpaceOnUse" x1="62.1403" y1="236.6548" x2="68.2506" y2="236.6548">
			<stop  offset="0" style="stop-color:#3282ED"/>
			<stop  offset="1" style="stop-color:#60A2F0"/>
		</linearGradient>
		<polygon class="st31" points="68.25,236.84 68.25,239.98 62.14,236.47 62.14,233.33 		"/>
	</g>
</g>
</svg>
