<svg width="383" height="132" viewBox="0 0 383 132" fill="none" xmlns="http://www.w3.org/2000/svg">
<path d="M56.8014 111.332L17.9152 99.6126L8.8595 82.5666L46.1476 44.7457L244.84 54.8668L341.257 46.8765L358.835 104.407H256.559H159.077L56.8014 111.332Z" fill="#3E3E3E"/>
<path d="M65.5106 131.872C83.8851 131.872 98.7806 116.976 98.7806 98.6018C98.7806 80.2273 83.8851 65.3318 65.5106 65.3318C47.1361 65.3318 32.2406 80.2273 32.2406 98.6018C32.2406 116.976 47.1361 131.872 65.5106 131.872Z" fill="black"/>
<path d="M65.5106 124.942C79.8811 124.942 91.5306 113.292 91.5306 98.9218C91.5306 84.5514 79.8811 72.9019 65.5106 72.9019C51.1402 72.9019 39.4906 84.5514 39.4906 98.9218C39.4906 113.292 51.1402 124.942 65.5106 124.942Z" fill="#353535" stroke="#EAEAEA" stroke-width="3" stroke-miterlimit="10"/>
<path d="M69.8106 99.1118H60.9906L61.9906 72.0018H68.8106L69.8106 99.1118Z" fill="#EAEAEA"/>
<path d="M66.5706 94.6518L63.8406 103.042L38.3706 93.7118L40.4806 87.2218L66.5706 94.6518Z" fill="#EAEAEA"/>
<path d="M61.3206 96.3618L68.4606 101.542L51.7206 122.882L46.2006 118.872L61.3206 96.3618Z" fill="#EAEAEA"/>
<path d="M61.3206 101.872L68.4605 96.6818L83.5905 119.202L78.0706 123.212L61.3206 101.872Z" fill="#EAEAEA"/>
<path d="M66.5706 103.572L63.8406 95.1817L89.9306 87.7617L92.0406 94.2417L66.5706 103.572Z" fill="#EAEAEA"/>
<path d="M65.5106 105.052C68.7911 105.052 71.4506 102.392 71.4506 99.1118C71.4506 95.8312 68.7911 93.1718 65.5106 93.1718C62.23 93.1718 59.5706 95.8312 59.5706 99.1118C59.5706 102.392 62.23 105.052 65.5106 105.052Z" fill="#CCCCCC"/>
<path d="M65.5106 105.692C64.2092 105.692 62.937 105.306 61.8549 104.583C60.7728 103.86 59.9295 102.832 59.4314 101.63C58.9334 100.427 58.8031 99.1044 59.057 97.828C59.3109 96.5516 59.9376 95.3792 60.8578 94.459C61.778 93.5387 62.9505 92.9121 64.2269 92.6582C65.5033 92.4043 66.8263 92.5346 68.0286 93.0326C69.2309 93.5306 70.2586 94.374 70.9816 95.4561C71.7046 96.5382 72.0905 97.8103 72.0905 99.1117C72.0879 100.856 71.3938 102.528 70.1604 103.762C68.927 104.995 67.2549 105.689 65.5106 105.692ZM65.5106 93.8117C64.4623 93.8117 63.4376 94.1226 62.566 94.7049C61.6945 95.2873 61.0151 96.1151 60.614 97.0835C60.2128 98.052 60.1079 99.1176 60.3124 100.146C60.5169 101.174 61.0217 102.118 61.7629 102.859C62.5041 103.601 63.4485 104.105 64.4766 104.31C65.5047 104.514 66.5703 104.409 67.5388 104.008C68.5072 103.607 69.335 102.928 69.9173 102.056C70.4997 101.185 70.8105 100.16 70.8105 99.1117C70.8079 97.7069 70.2486 96.3604 69.2553 95.367C68.2619 94.3736 66.9154 93.8144 65.5106 93.8117Z" fill="#3F3F3F"/>
<path d="M307.511 131.872C325.885 131.872 340.781 116.976 340.781 98.6018C340.781 80.2273 325.885 65.3318 307.511 65.3318C289.136 65.3318 274.241 80.2273 274.241 98.6018C274.241 116.976 289.136 131.872 307.511 131.872Z" fill="black"/>
<path d="M307.511 124.942C321.881 124.942 333.531 113.292 333.531 98.9218C333.531 84.5514 321.881 72.9019 307.511 72.9019C293.14 72.9019 281.491 84.5514 281.491 98.9218C281.491 113.292 293.14 124.942 307.511 124.942Z" fill="#353535" stroke="#EAEAEA" stroke-width="3" stroke-miterlimit="10"/>
<path d="M311.811 99.1118H302.991L303.991 72.0018H310.811L311.811 99.1118Z" fill="#EAEAEA"/>
<path d="M308.571 94.6518L305.841 103.042L280.371 93.7118L282.481 87.2218L308.571 94.6518Z" fill="#EAEAEA"/>
<path d="M303.321 96.3618L310.461 101.542L293.721 122.882L288.201 118.872L303.321 96.3618Z" fill="#EAEAEA"/>
<path d="M303.321 101.872L310.461 96.6818L325.591 119.202L320.071 123.212L303.321 101.872Z" fill="#EAEAEA"/>
<path d="M308.571 103.572L305.841 95.1817L331.931 87.7617L334.041 94.2417L308.571 103.572Z" fill="#EAEAEA"/>
<path d="M307.511 105.052C310.791 105.052 313.451 102.392 313.451 99.1118C313.451 95.8312 310.791 93.1718 307.511 93.1718C304.23 93.1718 301.571 95.8312 301.571 99.1118C301.571 102.392 304.23 105.052 307.511 105.052Z" fill="#CCCCCC"/>
<path d="M307.511 105.692C306.209 105.692 304.937 105.306 303.855 104.583C302.773 103.86 301.929 102.832 301.431 101.63C300.933 100.427 300.803 99.1044 301.057 97.828C301.311 96.5516 301.938 95.3792 302.858 94.459C303.778 93.5387 304.95 92.9121 306.227 92.6582C307.503 92.4043 308.826 92.5346 310.029 93.0326C311.231 93.5306 312.259 94.374 312.982 95.4561C313.705 96.5382 314.091 97.8103 314.091 99.1117C314.088 100.856 313.394 102.528 312.16 103.762C310.927 104.995 309.255 105.689 307.511 105.692ZM307.511 93.8117C306.462 93.8117 305.438 94.1226 304.566 94.7049C303.694 95.2873 303.015 96.1151 302.614 97.0835C302.213 98.052 302.108 99.1176 302.312 100.146C302.517 101.174 303.022 102.118 303.763 102.859C304.504 103.601 305.448 104.105 306.477 104.31C307.505 104.514 308.57 104.409 309.539 104.008C310.507 103.607 311.335 102.928 311.917 102.056C312.5 101.185 312.811 100.16 312.811 99.1117C312.808 97.7069 312.249 96.3604 311.255 95.367C310.262 94.3736 308.915 93.8144 307.511 93.8117Z" fill="#3F3F3F"/>
<path d="M158.91 23.3877C158.444 20.9242 160.333 18.6442 162.84 18.6442H165.352C167.274 18.6442 168.925 20.0117 169.282 21.9006L172.395 38.3536H161.741L158.91 23.3877Z" fill="#3E3E3E"/>
<path d="M211.281 5.85965L214.477 1.59814C214.477 1.59814 230.99 9.05577 243.242 17.5788C255.494 26.1018 267.213 36.2229 267.213 36.2229H248.036C233.8 22.4675 225.748 15.8817 211.281 5.85965Z" fill="#919AA7" fill-opacity="0.42"/>
<path d="M223 0L213.944 1.59806C217.496 3.19613 225.131 6.39225 238.448 16.5133C251.765 26.6344 258.335 32.6715 261.886 36.7555H276.802C260.243 19.3255 248.986 10.9165 223 0Z" fill="#B8C1CB" fill-opacity="0.46"/>
<path fill-rule="evenodd" clip-rule="evenodd" d="M247.637 12.1691C254.569 18.8099 260.467 25.7181 269.154 36.7555H276.802C266.627 26.0456 258.455 18.7416 247.637 12.1691Z" fill="white" fill-opacity="0.47"/>
<path fill-rule="evenodd" clip-rule="evenodd" d="M226.889 28.0581C226.314 26.3892 224.495 25.5024 222.826 26.0774C221.157 26.6524 220.27 28.4714 220.845 30.1403L221.096 30.8701C221.353 31.6143 221.206 32.4382 220.707 33.0474L220.253 33.6023C219.222 34.8629 220.119 36.7555 221.747 36.7555C222.571 36.7555 223.304 37.2783 223.573 38.0572L223.764 38.6141C224.26 40.0535 225.829 40.8183 227.269 40.3224L227.684 40.1792C229.353 39.6042 230.24 37.7852 229.665 36.1163L226.889 28.0581Z" fill="#3E3E3E"/>
<mask id="path-25-outside-1" maskUnits="userSpaceOnUse" x="0" y="27.4286" width="383" height="85" fill="black">
<rect fill="white" y="27.4286" width="383" height="85"/>
<path fill-rule="evenodd" clip-rule="evenodd" d="M367.358 71.3802L374.432 76.2202C376.339 77.5249 377.48 79.6867 377.48 81.9973V98.0146L378.751 100.135C379.739 101.78 378.948 103.917 377.128 104.524L375.881 104.94L372.153 108.668H346.328C347.277 105.239 347.784 101.626 347.784 97.8951C347.784 75.6326 329.736 57.5853 307.474 57.5853C285.211 57.5853 267.164 75.6326 267.164 97.8951C267.164 101.626 267.671 105.239 268.62 108.668H105.276L104.481 108.624C105.422 105.208 105.925 101.61 105.925 97.8951C105.925 75.6326 87.8776 57.5853 65.6151 57.5853C43.3526 57.5853 25.3053 75.6326 25.3053 97.8951C25.3053 100.05 25.4744 102.165 25.8 104.228L9.92494 103.341C8.85957 103.341 3 92.155 3 90.5569C3 89.2785 4.06538 86.8281 4.59806 85.7627C4.24294 83.2769 3.53269 77.5594 3.53269 74.5763C3.53269 70.8475 5.66344 68.184 7.2615 66.586C7.93976 65.9077 9.67353 64.5578 11.4854 63.147L11.4855 63.147L11.4855 63.147C13.9426 61.2338 16.5433 59.2089 16.8499 58.5957C17.2938 57.7079 23.6556 49.4226 26.381 46.0683H15.0656C12.5469 46.0683 10.5447 43.9536 10.6821 41.4386C10.8094 39.1106 12.7342 37.2882 15.0656 37.2882H37.891L45.615 31.4286L254.429 34.6247C280.708 36.4003 336.671 42.9784 349.247 49.54C361.499 55.9322 365.938 67.2962 367.358 71.3802Z"/>
</mask>
<path fill-rule="evenodd" clip-rule="evenodd" d="M367.358 71.3802L374.432 76.2202C376.339 77.5249 377.48 79.6867 377.48 81.9973V98.0146L378.751 100.135C379.739 101.78 378.948 103.917 377.128 104.524L375.881 104.94L372.153 108.668H346.328C347.277 105.239 347.784 101.626 347.784 97.8951C347.784 75.6326 329.736 57.5853 307.474 57.5853C285.211 57.5853 267.164 75.6326 267.164 97.8951C267.164 101.626 267.671 105.239 268.62 108.668H105.276L104.481 108.624C105.422 105.208 105.925 101.61 105.925 97.8951C105.925 75.6326 87.8776 57.5853 65.6151 57.5853C43.3526 57.5853 25.3053 75.6326 25.3053 97.8951C25.3053 100.05 25.4744 102.165 25.8 104.228L9.92494 103.341C8.85957 103.341 3 92.155 3 90.5569C3 89.2785 4.06538 86.8281 4.59806 85.7627C4.24294 83.2769 3.53269 77.5594 3.53269 74.5763C3.53269 70.8475 5.66344 68.184 7.2615 66.586C7.93976 65.9077 9.67353 64.5578 11.4854 63.147L11.4855 63.147L11.4855 63.147C13.9426 61.2338 16.5433 59.2089 16.8499 58.5957C17.2938 57.7079 23.6556 49.4226 26.381 46.0683H15.0656C12.5469 46.0683 10.5447 43.9536 10.6821 41.4386C10.8094 39.1106 12.7342 37.2882 15.0656 37.2882H37.891L45.615 31.4286L254.429 34.6247C280.708 36.4003 336.671 42.9784 349.247 49.54C361.499 55.9322 365.938 67.2962 367.358 71.3802Z" fill="#96C5FB"/>
<path d="M30.1671 43.1477L30.6414 44.5707L30.8764 44.4924L31.0737 44.3428L30.1671 43.1477ZM27.5036 44.7458L28.5643 45.8064L28.5643 45.8064L27.5036 44.7458ZM29.6927 41.7247C29.0494 41.9391 27.5261 42.602 26.443 43.6851L28.5643 45.8064C29.1858 45.185 30.2193 44.7114 30.6414 44.5707L29.6927 41.7247ZM36.9845 36.0931L29.2605 41.9527L31.0737 44.3428L38.7976 38.4832L36.9845 36.0931ZM26.443 43.6851C26.1983 43.9298 25.7441 44.4734 25.2168 45.1224L27.5452 47.0142C28.1085 46.3209 28.4537 45.917 28.5643 45.8064L26.443 43.6851ZM374.432 76.2202L376.126 73.7443V73.7443L374.432 76.2202ZM367.358 71.3802L364.525 72.3657L364.849 73.2985L365.664 73.8561L367.358 71.3802ZM377.48 98.0146H374.48V98.8455L374.907 99.5581L377.48 98.0146ZM378.751 100.135L376.179 101.678V101.678L378.751 100.135ZM377.128 104.524L378.076 107.37V107.37L377.128 104.524ZM375.881 104.94L374.933 102.093L374.261 102.317L373.76 102.818L375.881 104.94ZM372.153 108.668V111.668H373.395L374.274 110.79L372.153 108.668ZM346.328 108.668L343.436 107.868L342.385 111.668H346.328V108.668ZM268.62 108.668V111.668H272.562L271.511 107.868L268.62 108.668ZM105.276 108.668L105.109 111.664L105.192 111.668H105.276V108.668ZM104.481 108.624L101.589 107.827L100.602 111.412L104.314 111.619L104.481 108.624ZM25.8 104.228L25.6326 107.224L29.3425 107.431L28.7633 103.761L25.8 104.228ZM9.92494 103.341L10.0923 100.346L10.0087 100.341H9.92494V103.341ZM4.59806 85.7627L7.28134 87.1044L7.70044 86.2662L7.56791 85.3385L4.59806 85.7627ZM7.2615 66.586L5.14019 64.4647L5.14018 64.4647L7.2615 66.586ZM11.4854 63.147L13.3285 65.5141L13.3608 65.4889L13.3925 65.4628L11.4854 63.147ZM11.4855 63.147L9.72094 60.7208L9.64797 60.7738L9.57833 60.8312L11.4855 63.147ZM11.4855 63.147L13.25 65.5732L13.2898 65.5443L13.3285 65.5141L11.4855 63.147ZM26.381 46.0683L28.7094 47.96L32.6839 43.0683H26.381V46.0683ZM10.6821 41.4386L7.6866 41.2749L10.6821 41.4386ZM37.891 37.2882V40.2882H38.9002L39.7042 39.6782L37.891 37.2882ZM45.615 31.4286L45.6609 28.4289L44.6263 28.4131L43.8019 29.0385L45.615 31.4286ZM254.429 34.6247L254.631 31.6315L254.553 31.6263L254.475 31.6251L254.429 34.6247ZM349.247 49.54L350.635 46.8802L349.247 49.54ZM376.126 73.7443L369.053 68.9043L365.664 73.8561L372.738 78.6961L376.126 73.7443ZM380.48 81.9973C380.48 78.6964 378.851 75.6082 376.126 73.7443L372.738 78.6961C373.828 79.4417 374.48 80.677 374.48 81.9973H380.48ZM380.48 98.0146V81.9973H374.48V98.0146H380.48ZM381.324 98.5911L380.052 96.4711L374.907 99.5581L376.179 101.678L381.324 98.5911ZM378.076 107.37C381.718 106.156 383.299 101.882 381.324 98.591L376.179 101.678L376.179 101.678L378.076 107.37ZM376.83 107.786L378.076 107.37L376.179 101.678L374.933 102.093L376.83 107.786ZM374.274 110.79L378.003 107.061L373.76 102.818L370.031 106.547L374.274 110.79ZM346.328 111.668H372.153V105.668H346.328V111.668ZM344.784 97.8951C344.784 101.353 344.314 104.697 343.436 107.868L349.219 109.468C350.239 105.781 350.784 101.899 350.784 97.8951H344.784ZM307.474 60.5853C328.079 60.5853 344.784 77.2895 344.784 97.8951H350.784C350.784 73.9757 331.393 54.5853 307.474 54.5853V60.5853ZM270.164 97.8951C270.164 77.2895 286.868 60.5853 307.474 60.5853V54.5853C283.554 54.5853 264.164 73.9757 264.164 97.8951H270.164ZM271.511 107.868C270.634 104.697 270.164 101.353 270.164 97.8951H264.164C264.164 101.899 264.708 105.781 265.728 109.468L271.511 107.868ZM105.276 111.668H268.62V105.668H105.276V111.668ZM104.314 111.619L105.109 111.664L105.443 105.673L104.649 105.629L104.314 111.619ZM102.925 97.8951C102.925 101.338 102.459 104.668 101.589 107.827L107.374 109.421C108.385 105.747 108.925 101.882 108.925 97.8951H102.925ZM65.6151 60.5853C86.2207 60.5853 102.925 77.2895 102.925 97.8951H108.925C108.925 73.9757 89.5344 54.5853 65.6151 54.5853V60.5853ZM28.3053 97.8951C28.3053 77.2895 45.0095 60.5853 65.6151 60.5853V54.5853C41.6958 54.5853 22.3053 73.9757 22.3053 97.8951H28.3053ZM28.7633 103.761C28.462 101.852 28.3053 99.8927 28.3053 97.8951H22.3053C22.3053 100.207 22.4867 102.479 22.8366 104.696L28.7633 103.761ZM9.75761 106.337L25.6326 107.224L25.9673 101.233L10.0923 100.346L9.75761 106.337ZM0 90.5569C0 91.3443 0.281273 92.1576 0.425599 92.5656C0.624216 93.127 0.891535 93.7738 1.19077 94.4471C1.79265 95.8014 2.59198 97.4154 3.4159 98.9602C4.23683 100.499 5.11473 102.031 5.87947 103.206C6.25452 103.782 6.6509 104.347 7.03398 104.799C7.2192 105.017 7.47367 105.295 7.78117 105.545C7.93954 105.673 8.7377 106.341 9.92494 106.341V100.341C10.5241 100.341 10.9595 100.529 11.1555 100.627C11.3696 100.735 11.5082 100.842 11.562 100.886C11.6667 100.971 11.686 101.007 11.609 100.917C11.4678 100.75 11.2316 100.429 10.9075 99.9316C10.2739 98.9586 9.48715 97.5938 8.71001 96.1367C7.93587 94.6852 7.20372 93.203 6.67364 92.0103C6.40689 91.4101 6.20811 90.9208 6.08212 90.5646C5.90184 90.055 6 90.1691 6 90.5569H0ZM1.91478 84.4211C1.60689 85.0369 1.16078 86.0186 0.783538 87.0447C0.450961 87.9494 0 89.3302 0 90.5569H6C6 90.5987 5.99979 90.4824 6.08252 90.1566C6.15734 89.862 6.27126 89.5061 6.41501 89.1151C6.70363 88.3301 7.05655 87.554 7.28134 87.1044L1.91478 84.4211ZM0.532688 74.5763C0.532688 77.8044 1.27666 83.7261 1.62821 86.187L7.56791 85.3385C7.20922 82.8276 6.53269 77.3143 6.53269 74.5763H0.532688ZM5.14018 64.4647C3.36082 66.244 0.532688 69.6393 0.532688 74.5763H6.53269C6.53269 72.0557 7.96606 70.1241 9.38282 68.7073L5.14018 64.4647ZM9.64234 60.7799C7.93439 62.1098 5.98829 63.6166 5.14019 64.4647L9.38282 68.7073C9.89123 68.1989 11.4127 67.0058 13.3285 65.5141L9.64234 60.7799ZM9.57833 60.8312L9.57828 60.8312L13.3925 65.4628L13.3926 65.4628L9.57833 60.8312ZM9.72097 60.7208L9.72094 60.7208L13.25 65.5732L13.25 65.5732L9.72097 60.7208ZM14.1666 57.254C14.3133 56.9606 14.4602 56.817 14.3951 56.8899C14.3695 56.9186 14.3014 56.99 14.1726 57.1111C13.917 57.3515 13.544 57.6742 13.0641 58.0704C12.1086 58.8593 10.8817 59.8149 9.64242 60.7799L13.3285 65.5141C14.5464 64.5658 15.8484 63.5524 16.8841 62.6972C17.3999 62.2714 17.8881 61.8534 18.2832 61.4818C18.4797 61.297 18.6843 61.0947 18.8692 60.8877C19.0145 60.7251 19.3098 60.3841 19.5332 59.9373L14.1666 57.254ZM24.0527 44.1765C22.6626 45.8875 20.37 48.8244 18.3756 51.4362C17.3768 52.7441 16.4427 53.9838 15.7261 54.9583C15.369 55.4441 15.0566 55.8765 14.8142 56.2243C14.626 56.4941 14.339 56.9092 14.1666 57.254L19.5332 59.9373C19.4717 60.0602 19.4806 60.0222 19.736 59.6559C19.937 59.3675 20.2159 58.9808 20.5601 58.5126C21.2465 57.5791 22.1563 56.3714 23.1442 55.0777C25.123 52.4864 27.3741 49.6035 28.7094 47.96L24.0527 44.1765ZM15.0656 49.0683H26.381V43.0683H15.0656V49.0683ZM7.6866 41.2749C7.45521 45.5085 10.8257 49.0683 15.0656 49.0683V43.0683C14.2681 43.0683 13.6341 42.3987 13.6777 41.6024L7.6866 41.2749ZM15.0656 34.2882C11.1409 34.2882 7.90078 37.356 7.6866 41.2749L13.6777 41.6024C13.7179 40.8652 14.3274 40.2882 15.0656 40.2882V34.2882ZM37.891 34.2882H15.0656V40.2882H37.891V34.2882ZM43.8019 29.0385L36.0779 34.8981L39.7042 39.6782L47.4282 33.8187L43.8019 29.0385ZM254.475 31.6251L45.6609 28.4289L45.5691 34.4282L254.383 37.6244L254.475 31.6251ZM350.635 46.8802C347.079 45.0249 340.84 43.3172 333.441 41.7557C325.925 40.1695 316.858 38.6659 307.4 37.3176C288.483 34.6211 267.849 32.5246 254.631 31.6315L254.226 37.6179C267.288 38.5004 287.774 40.5808 306.553 43.2576C315.943 44.596 324.866 46.0782 332.202 47.6264C339.655 49.1992 345.127 50.7743 347.859 52.1997L350.635 46.8802ZM370.192 70.3946C368.707 66.1267 363.94 53.8223 350.635 46.8802L347.859 52.1997C359.057 58.0422 363.168 68.4658 364.525 72.3657L370.192 70.3946Z" fill="black" mask="url(#path-25-outside-1)"/>
<path d="M21.2406 50.3318L37.7406 36.3318" stroke="black" stroke-width="2"/>
<path d="M87.1646 29.2978C89.2954 29.724 90.8934 31.251 91.4261 31.9613L45.615 31.4286C47.2131 28.41 50.9419 22.1598 53.0726 21.3075C55.7361 20.2421 55.2034 21.8402 57.3341 22.9056C59.4649 23.971 67.4552 26.1017 75.4455 27.6998C83.4358 29.2978 84.5012 28.7651 87.1646 29.2978Z" fill="#96C5FB" stroke="black" stroke-width="2"/>
<path d="M239.843 25.4662C237.968 26.5644 235.112 28.2521 233.49 29.2573C232.922 29.6095 232.589 30.2322 232.589 30.9009V34.2228C232.589 35.3274 233.484 36.2228 234.588 36.2228H243.201C244.154 36.2228 244.969 35.5468 245.031 34.5954C245.109 33.3779 245.107 31.6943 244.84 29.8306C244.492 27.3922 242.696 25.9741 241.373 25.3436C240.881 25.1091 240.314 25.1908 239.843 25.4662Z" fill="#96C5FB" stroke="black" stroke-width="2"/>
<path d="M356.701 59.3184C359.085 62.2183 360.882 65.1336 361.841 67.5012C362.321 68.6877 362.579 69.7085 362.611 70.5059C362.643 71.3099 362.446 71.7942 362.131 72.0528C361.818 72.3105 361.367 72.3925 360.692 72.192C360.009 71.9892 359.175 71.5154 358.215 70.7823C356.301 69.3207 354.012 66.9269 351.614 64.0103C349.201 61.0768 347.022 58.3773 345.686 56.2161C345.015 55.1315 344.584 54.2242 344.426 53.5171C344.271 52.8176 344.402 52.4347 344.683 52.2037C345.012 51.9332 345.578 51.8033 346.423 51.9343C347.255 52.0637 348.278 52.4368 349.415 53.0525C351.685 54.2822 354.329 56.4343 356.701 59.3184Z" fill="white" stroke="black"/>
<path d="M354.173 57.0219C355.957 59.1914 357.253 61.4026 357.893 63.2198C358.214 64.1303 358.36 64.9146 358.339 65.5314C358.318 66.1463 358.135 66.5392 357.857 66.7681C357.578 66.9972 357.212 67.0796 356.7 66.967C356.173 66.851 355.532 66.5336 354.794 66.0108C353.32 64.9677 351.587 63.2008 349.787 61.0117C347.97 58.8028 346.344 56.7814 345.38 55.1435C344.896 54.3213 344.606 53.6413 344.524 53.1122C344.445 52.6061 344.559 52.3059 344.81 52.1C345.1 51.8611 345.569 51.7285 346.237 51.7809C346.9 51.833 347.706 52.065 348.595 52.4843C350.372 53.3219 352.405 54.8711 354.173 57.0219Z" fill="#E9E9E9" stroke="black"/>
<path d="M352.163 56.4615C353.867 58.5331 354.668 60.7188 353.864 61.3793C353.061 62.0398 351.439 60.7096 349.735 58.638C348.032 56.5665 346.622 54.7735 347.425 54.113C348.229 53.4525 350.46 54.39 352.163 56.4615Z" fill="white"/>
<path d="M363.064 80.3705C363.064 80.0943 363.288 79.8705 363.564 79.8705H373.287C373.506 79.8705 373.699 80.0129 373.764 80.222L374.468 82.4835C374.568 82.8053 374.327 83.132 373.99 83.132H363.564C363.288 83.132 363.064 82.9081 363.064 82.632V80.3705Z" fill="#F9D10B" stroke="black"/>
<path d="M361.499 89.6975C361.499 86.9361 363.737 84.6975 366.499 84.6975H371.62L370.555 97.482H366.499C363.737 97.482 361.499 95.2434 361.499 92.482V89.6975Z" fill="#3E3E3E"/>
<path d="M371.62 84.6975H374.749C375.35 84.6975 375.816 85.2247 375.741 85.8215L374.393 96.6061C374.33 97.1065 373.905 97.482 373.401 97.482H370.022L371.62 84.6975Z" fill="black" fill-opacity="0.33"/>
<ellipse cx="154.283" cy="46.8766" rx="6.92494" ry="4.79419" fill="black" fill-opacity="0.31"/>
<rect x="145.162" y="45.213" width="18.2421" height="3.32688" rx="1.66344" fill="#C0DDFF" stroke="black" stroke-width="2"/>
<path d="M139.901 33.0266C136.424 45.1191 137.861 57.8406 146.293 96.9491" stroke="black" stroke-width="2"/>
<path d="M251.241 33.8318C256.517 47.237 257.472 63.6315 252.831 96.4166" stroke="black" stroke-width="2"/>
<path d="M118.593 96.4165H254.961" stroke="black" stroke-width="2"/>
<path fill-rule="evenodd" clip-rule="evenodd" d="M66.8699 44.1466C49.7713 43.2445 36.214 44.5801 26.1979 47.6422L25.6132 45.7296C35.9251 42.577 49.7275 41.2415 66.949 42.148C96.0261 42.1623 119.593 65.7383 119.593 94.8187C119.593 97.3724 119.411 99.8842 119.06 102.342L254.495 102.342C254.143 99.8841 253.961 97.3723 253.961 94.8186C253.961 65.7294 277.543 42.1479 306.632 42.1479C335.721 42.1479 359.303 65.7294 359.303 94.8186C359.303 97.7768 359.059 100.679 358.59 103.505L356.617 103.178C357.068 100.459 357.303 97.6667 357.303 94.8186C357.303 66.8339 334.617 44.1479 306.632 44.1479C278.647 44.1479 255.961 66.8339 255.961 94.8186C255.961 97.6667 256.196 100.459 256.647 103.178L256.841 104.342H255.661L117.894 104.342H116.714L116.907 103.178C117.358 100.459 117.593 97.6668 117.593 94.8187C117.593 66.834 94.9072 44.148 66.9225 44.148H66.8962L66.8699 44.1466Z" fill="black"/>
<path d="M32.2978 45.2784L26.4383 46.8765H25.9056L15.2518 60.1937C17.3826 59.3059 22.2833 57.2106 24.8402 55.9322C27.3971 54.6537 30.8773 48.297 32.2978 45.2784Z" fill="#EA1E02" stroke="black"/>
<path d="M4.19392 89.5243C4.58002 88.188 4.88481 87.3438 5.43488 86.2628H10.9903C11.891 86.2628 12.6211 86.9929 12.6211 87.8936C12.6211 88.7942 11.891 89.5243 10.9903 89.5243H4.19392Z" fill="#EA1E02" stroke="black"/>
<path opacity="0.8" d="M27.5036 52.2035L21.1114 53.8016L19.5133 55.9323C20.2236 55.7547 21.9637 55.3996 23.2421 55.3996C24.5206 55.3996 26.6158 53.2689 27.5036 52.2035Z" fill="white"/>
<path d="M347.649 57.5302L348.714 56.4648" stroke="black"/>
<path d="M348.714 59.1282L350.312 58.0629" stroke="black"/>
<path d="M349.78 60.7265L351.378 59.6611" stroke="black"/>
<path d="M274.241 33.8318L280.53 49.54" stroke="black" stroke-width="2"/>
<path fill-rule="evenodd" clip-rule="evenodd" d="M323.274 42.8586C301.172 38.9663 271.521 35.7796 254.428 34.6247L45.6149 31.4286L30.4509 42.9323C145.001 40.9316 213.901 41.3187 323.274 42.8586Z" fill="white" fill-opacity="0.22"/>
<path fill-rule="evenodd" clip-rule="evenodd" d="M91.4263 31.9611C90.8936 31.2509 89.2956 29.7239 87.1648 29.2977C86.1899 29.1027 85.4291 29.0505 84.4645 28.9842C82.7937 28.8695 80.5113 28.7128 75.4457 27.6996C73.7965 27.3698 72.1474 27.0173 70.5498 26.6561C70.8936 27.5605 70.897 28.376 70.1188 28.7651C68.6723 29.4884 62.7758 30.7743 58.7449 31.5811L91.4263 31.9611Z" fill="black" fill-opacity="0.21"/>
<path d="M259.755 34.6246C255.445 29.7351 253.053 26.9556 247.504 23.9708C252.564 31.5027 251.254 33.1719 246.438 34.6246H259.755Z" fill="#4D5C6E" fill-opacity="0.39"/>
</svg>
