
<svg xmlns="http://www.w3.org/2000/svg" version="1.1" xmlns:xlink="http://www.w3.org/1999/xlink" preserveAspectRatio="none" x="0px" y="0px" width="1024px" height="1024px" viewBox="0 0 1024 1024">
<defs>
<g id="Layer0_0_MEMBER_0_FILL">
<path fill="#38B4D7" stroke="none" d="
M 376 36.85
Q 375 35.95 372.5 39.35 368.8 44.4 366.4 46.35 355.6 55.2 338.45 41.8 332.4 37.05 329.65 36.9 326.7 36.8 320.65 41.3 315.35 45.25 299.15 52.3 285.8 58.15 281 59.6 278.65 60.35 271.1 59.9 263.15 59.3 261.5 59.15 258.45 58.9 255.8 61 252.5 63.55 252.35 68.3 252.2 73.25 262.75 78.05 272.2 82.3 284.6 84.25 295.5 85.95 306.9 85 317.7 84.1 321.95 81.5 326.25 78.85 331.95 78.65 337.95 78.4 340.15 81.4 342.35 84.45 352.65 84.95 362.45 85.45 370.25 83.4 377 81.65 382 77.85 386.5 74.45 385.65 73 388.1 55.1 383.95 46.05 382.5 42.8 380 40.3 377.15 37.85 376 36.85 Z"/>
</g>

<g id="Layer0_0_MEMBER_1_FILL">
<path fill="#57D7ED" stroke="none" d="
M 329 56.9
Q 336.1 65.7 328 68.65 322.4 70.7 308.8 65.1
L 296.3 59.15 291.55 61.35 302.65 68.7
Q 313.5 76.45 312.1 78.45 328.1 74.7 360.05 64.95 355.5 65.15 341.7 57.45 327.65 49.6 325.6 45.4
L 320.25 48.7 323.3 51.15
Q 326.75 54.15 329 56.9 Z"/>
</g>

<g id="Layer0_0_MEMBER_2_FILL">
<path fill="#C9E28E" stroke="none" d="
M 333.3 82.55
Q 343.05 81.65 349.35 81.3
L 386.35 77.65
Q 386.25 74.05 385.65 73 387.85 56.55 384.65 47.7 374.9 53.05 367.45 56.35 353.8 62.4 340.95 65.25 323.85 69.05 312.15 74.8 300.25 80.7 296.55 87.3 313.75 84.35 333.3 82.55 Z"/>
</g>

<g id="Layer0_0_MEMBER_3_FILL">
<path fill="#FCE179" stroke="none" d="
M 385.05 49
L 384.65 47.7
Q 374.9 53.05 367.45 56.35 353.8 62.4 340.95 65.25 323.85 69.05 312.15 74.8 300.25 80.7 296.55 87.3
L 298.55 87
Q 302.85 80.65 314.45 75.15 325.9 69.7 342.25 66.05 354.7 63.3 367.9 57.55 375.7 54.15 385.05 49 Z"/>
</g>

<g id="Layer0_0_MEMBER_4_FILL">
<path fill="#425B71" stroke="none" d="
M 386 74.1
L 385.65 73
Q 387 62.8 386.3 55.85 382.55 55.85 374.95 59.6 366.1 63.95 350.75 74.05 360.25 74.05 366.7 74.9 368.7 75.2 372.55 75.9 375.95 76.45 378.45 76.3 382.35 76.1 386 74.1 Z"/>
</g>

<g id="Layer0_0_MEMBER_5_FILL">
<path fill="#425B71" stroke="none" d="
M 252.35 68.3
Q 252.2 72.25 257.6 77.9 271.7 80.85 289.9 84.5 291.85 79.5 291.55 77.95 291.1 75.3 285.7 73.7 264.05 67.3 259.65 59.25 256.8 59.8 254.9 61.8 252.5 64.3 252.35 68.3 Z"/>
</g>

<g id="Layer0_0_MEMBER_6_FILL">
<path fill="#474747" stroke="none" d="
M 329.25 86.35
Q 332.5 86.35 334.7 89.4 336.9 92.45 354 93.15 370.5 93.8 378.35 91.75 384.65 90.1 386.05 82.05 387.15 75.6 385.65 73
L 385.65 72.85
Q 384.6 73.75 382.1 74.4 377 75.7 369.55 74.5 362.15 73.3 347.65 74.05 334.55 74.65 330.5 75.8 314.8 80.2 305.45 81.55 295.3 83.05 287.1 81.9 269.5 79.45 259.1 73.4 256 71.6 253.8 69.65 252.35 68.15 252.35 68.3 252.2 73.6 260.85 81 269.9 88.7 280.25 90.95 280.8 90.55 281.85 89.55 282.8 88.85 283.45 88.95 284 89.05 284.6 89.95 284.85 90.35 285.6 91.75 292.95 92.6 301.3 92.45 301.75 91.9 302.5 90.8 303.15 90 303.8 89.95 304.4 89.9 305.15 90.65 305.45 90.9 306.55 92.2 318.1 91.4 322.05 88.95 326.3 86.35 329.25 86.35 Z"/>
</g>

<g id="Layer0_0_MEMBER_7_FILL">
<path fill="#2D4253" stroke="none" d="
M 332.05 87.05
Q 338.5 83.4 343.75 84 345.05 84.15 348.15 84.95 350.9 85.65 352.5 85.7 353.7 85.7 357.25 84.9 359.65 84.45 361.85 84.65 363.35 84.8 365.85 85.65 368.55 86.55 369.8 86.75 373.55 87.3 378.6 85.2 382.65 83.5 386.2 80.75 386.35 79.4 386.35 78.1 384.7 80.25 383.1 81.55 381.3 83 378.35 83.8 375.65 84.45 373.05 84.35 370.9 84.2 368.55 82.85 365.95 81.15 364.45 80.4 362.3 79.3 360.25 80.45 358 82.15 356.75 83 355.2 84.05 353.3 83.8 351.55 83.65 349.95 82.5 347.6 80.5 346.25 79.8 344.3 78.75 341.5 79.65 338.75 80.5 335.45 82.6 335.2 82.7 329.8 86.4 330.9 86.45 332.05 87.05 Z"/>
</g>

<g id="Layer0_0_MEMBER_8_FILL">
<path fill="#C9E28E" stroke="none" d="
M 344.05 45.65
Q 341.25 43.95 338.45 41.8 335.55 39.5 333.95 38.5 331.95 37.3 330.45 37 329.5 37.25 328.3 37.85 326.2 38.75 322.3 41.45 317.1 45 309.5 49.3 302.85 53 296.1 55.65 292.15 57.2 290.2 57.2 289.5 57.2 288.2 56.9
L 282.85 58.95
Q 284.35 61.1 286.15 63.4 289.25 67.25 303.7 60.55 311.65 56.9 320.4 51.4 323.75 49.3 326.25 49.1 329.9 48.85 336.15 51.4 344.3 54.75 344.05 45.65 Z"/>
</g>

<g id="Layer0_0_MEMBER_9_FILL">
<path fill="#FCE179" stroke="none" d="
M 344.05 45.65
L 343.75 45.5
Q 343.25 52.6 335.85 49.55 329.6 47 326 47.25 323.5 47.45 320.15 49.55 311.4 55.05 303.45 58.7 289 65.4 285.9 61.55
L 283.65 58.65 282.85 58.95
Q 284.35 61.1 286.15 63.4 289.25 67.25 303.7 60.55 311.65 56.9 320.4 51.4 323.75 49.3 326.25 49.1 329.9 48.85 336.15 51.4 344.3 54.75 344.05 45.65 Z"/>
</g>

<g id="Layer0_0_MEMBER_10_FILL">
<path fill="#474747" stroke="none" d="
M 370.85 45.35
Q 371.85 44.25 374.2 40.6 376.35 37.7 377.65 38.25
L 376 36.85
Q 375 35.95 372.5 39.35 368.8 44.4 366.4 46.35 355.6 55.2 338.45 41.8 332.95 37.45 330.45 37 327.65 36.5 323.2 39.5 328.65 36.85 335.05 41.35 336.9 42.65 341.15 45.95 345.3 48.95 349 50.65 358.1 54.85 364.35 51.55 366.45 50.4 368.35 48.3 369.4 47.15 370.85 45.35 Z"/>
</g>

<g id="Layer0_0_MEMBER_11_MEMBER_0_FILL">
<path fill="#474747" stroke="none" d="
M 326.25 42.8
Q 325.95 43.25 326.15 43.65 326.35 44.05 326.9 44.1 327.45 44.15 328.05 43.85 328.65 43.5 328.95 43 329.2 42.5 329 42.15 328.8 41.8 328.25 41.75 327.7 41.7 327.1 42 326.5 42.3 326.25 42.8 Z"/>
</g>

<g id="Layer0_0_MEMBER_11_MEMBER_1_FILL">
<path fill="#474747" stroke="none" d="
M 313.95 48.35
Q 313.35 48.65 313.1 49.15 312.8 49.6 313 50 313.2 50.4 313.75 50.45 314.3 50.5 314.9 50.2 316.35 49.4 315.85 48.5 315.65 48.15 315.1 48.1 314.55 48.05 313.95 48.35 Z"/>
</g>

<g id="Layer0_0_MEMBER_11_MEMBER_2_FILL">
<path fill="#474747" stroke="none" d="
M 305.1 51.7
Q 303.65 52.5 304.15 53.4 304.35 53.75 304.9 53.8 305.45 53.85 306.05 53.55 306.65 53.25 306.9 52.75 307.2 52.3 307 51.9 306.8 51.5 306.25 51.45 305.7 51.4 305.1 51.7 Z"/>
</g>

<g id="Layer0_0_MEMBER_11_MEMBER_3_FILL">
<path fill="#474747" stroke="none" d="
M 295.5 55.85
Q 295.2 56.2 295.3 56.5 295.45 57.25 296.75 56.9 297.25 56.75 297.55 56.4 297.8 56.05 297.7 55.75 297.6 55.4 297.15 55.3 296.75 55.2 296.25 55.35 295.75 55.5 295.5 55.85 Z"/>
</g>

<g id="Layer0_0_MEMBER_11_MEMBER_4_FILL">
<path fill="#474747" stroke="none" d="
M 289.15 57.55
Q 288.85 57.9 288.95 58.2 289.2 58.95 290.4 58.6 290.9 58.45 291.2 58.1 291.45 57.75 291.35 57.45 291.25 57.1 290.8 57 290.4 56.9 289.9 57.05 289.4 57.2 289.15 57.55 Z"/>
</g>

<g id="Layer0_0_MEMBER_12_FILL">
<path fill="#474747" stroke="none" d="
M 327.9 42.1
Q 327.5 41.8 327 41.8
L 317.25 41.85
Q 316.75 41.85 316.35 42.15 316 42.45 316 42.85 316 43.25 316.4 43.55 316.75 43.85 317.25 43.8
L 327 43.75
Q 327.5 43.75 327.9 43.45 328.25 43.2 328.25 42.8 328.25 42.4 327.9 42.1 Z"/>
</g>

<g id="Layer0_0_MEMBER_13_FILL">
<path fill="#474747" stroke="none" d="
M 323 39.55
Q 323 39.1 322.7 38.85 321.95 38.25 321.15 39.25
L 313.6 48.25
Q 313.25 48.65 313.25 49.1 313.25 49.55 313.55 49.8 314.3 50.35 315.1 49.45
L 322.65 40.4
Q 322.95 40 323 39.55 Z"/>
</g>

<g id="Layer0_0_MEMBER_14_FILL">
<path fill="#474747" stroke="none" d="
M 305.4 47.75
Q 305 47.95 304.9 48.3 304.75 49.2 305.75 49.4
L 313.75 49.95
Q 314.25 50.05 314.65 49.8 315.05 49.55 315.1 49.2 315.2 48.8 314.85 48.45 314.55 48.15 314.05 48.05
L 306.35 47.6
Q 305.85 47.5 305.4 47.75 Z"/>
</g>

<g id="Layer0_0_MEMBER_15_FILL">
<path fill="#474747" stroke="none" d="
M 311.5 46.3
Q 311.55 45.85 311.25 45.6 310.95 45.3 310.5 45.4 310.05 45.45 309.7 45.85
L 304.75 51.55
Q 304.4 51.95 304.35 52.45 304.3 52.9 304.65 53.15 304.95 53.4 305.4 53.35 305.85 53.25 306.2 52.9
L 311.15 47.15
Q 311.5 46.8 311.5 46.3 Z"/>
</g>

<g id="Layer0_0_MEMBER_16_FILL">
<path fill="#474747" stroke="none" d="
M 305.2 53.4
Q 305.55 53.4 305.8 53.15 306.1 52.85 306.1 52.5 306.1 52.15 305.85 51.9 305.6 51.6 305.25 51.6
L 296.85 51.55
Q 296.5 51.55 296.2 51.8 295.95 52.1 295.95 52.45 295.95 52.8 296.2 53.05 296.45 53.35 296.8 53.35
L 305.2 53.4 Z"/>
</g>

<g id="Layer0_0_MEMBER_17_FILL">
<path fill="#474747" stroke="none" d="
M 303.25 50.25
Q 303.2 49.9 302.9 49.7 302.2 49.15 301.55 49.8
L 295.7 55.1
Q 295.45 55.35 295.45 55.7 295.45 56.1 295.7 56.3 295.95 56.55 296.35 56.6 296.7 56.6 296.95 56.35
L 303 50.85
Q 303.25 50.6 303.25 50.25 Z"/>
</g>

<g id="Layer0_0_MEMBER_18_FILL">
<path fill="#474747" stroke="none" d="
M 291.25 54.25
Q 290.5 54.1 290.1 54.75 289.95 55.05 290.1 55.3 290.2 55.6 290.55 55.65
L 295.8 56.6
Q 296.25 56.7 296.65 56.55 297.1 56.35 297.15 56 297.35 55.2 296.25 54.95
L 291.25 54.25 Z"/>
</g>

<g id="Layer0_0_MEMBER_19_FILL">
<path fill="#474747" stroke="none" d="
M 295.55 53.4
Q 295.5 53.15 295.2 53.05 294.5 52.8 293.95 53.15
L 289.45 56.85
Q 289.15 57.1 289.1 57.45 289.05 57.8 289.25 58.1 289.5 58.4 289.9 58.4 290.35 58.4 290.7 58.1
L 295.4 53.8
Q 295.65 53.6 295.55 53.4 Z"/>
</g>

<g id="Layer0_0_MEMBER_20_FILL">
<path fill="#2D4253" stroke="none" d="
M 329.25 86.35
Q 332.5 86.35 334.7 89.4 336.9 92.45 354 93.15 370.5 93.8 378.35 91.75 383 90.55 385 85.75 386.5 82.2 386.35 77.35 386.2 81.8 384.6 84.95 382.55 89 378.35 90.1 370.5 92.15 354 91.45 336.9 90.75 334.7 87.75 332.5 84.7 329.25 84.7 326.3 84.7 322.05 87.25 318.1 89.7 306.55 90.5 305.2 89 305.15 88.95 304.4 88.2 303.8 88.25 303.2 88.3 302.5 89.15 301.75 90.25 301.3 90.75 293.7 91 285.6 90.1 284.8 88.6 284.6 88.25 284 87.35 283.45 87.25 282.8 87.15 281.85 87.9 280.8 88.85 280.25 89.25 270.8 87.2 262.2 80.45 254.1 74.05 252.6 68.5 252.35 68.15 252.35 68.3 252.2 73.6 260.85 81 269.9 88.7 280.25 90.95 280.8 90.55 281.85 89.55 282.8 88.85 283.45 88.95 284 89.05 284.6 89.95 284.85 90.35 285.6 91.75 292.95 92.6 301.3 92.45 301.75 91.9 302.5 90.8 303.15 90 303.8 89.95 304.4 89.9 305.15 90.65 305.45 90.9 306.55 92.2 318.1 91.4 322.05 88.95 326.3 86.35 329.25 86.35 Z"/>
</g>
</defs>

<g transform="matrix( 6.79998779296875, 0, 0, 6.79998779296875, -1660.25,70.1) ">
<use xlink:href="#Layer0_0_MEMBER_0_FILL"/>
</g>

<g transform="matrix( 6.79998779296875, 0, 0, 6.79998779296875, -1660.25,70.1) ">
<use xlink:href="#Layer0_0_MEMBER_1_FILL"/>
</g>

<g transform="matrix( 6.79998779296875, 0, 0, 6.79998779296875, -1660.25,70.1) ">
<use xlink:href="#Layer0_0_MEMBER_2_FILL"/>
</g>

<g transform="matrix( 6.79998779296875, 0, 0, 6.79998779296875, -1660.25,70.1) ">
<use xlink:href="#Layer0_0_MEMBER_3_FILL"/>
</g>

<g transform="matrix( 6.79998779296875, 0, 0, 6.79998779296875, -1660.25,70.1) ">
<use xlink:href="#Layer0_0_MEMBER_4_FILL"/>
</g>

<g transform="matrix( 6.79998779296875, 0, 0, 6.79998779296875, -1660.25,70.1) ">
<use xlink:href="#Layer0_0_MEMBER_5_FILL"/>
</g>

<g transform="matrix( 6.79998779296875, 0, 0, 6.79998779296875, -1660.25,70.1) ">
<use xlink:href="#Layer0_0_MEMBER_6_FILL"/>
</g>

<g transform="matrix( 6.79998779296875, 0, 0, 6.79998779296875, -1660.25,70.1) ">
<use xlink:href="#Layer0_0_MEMBER_7_FILL"/>
</g>

<g transform="matrix( 6.79998779296875, 0, 0, 6.79998779296875, -1660.25,70.1) ">
<use xlink:href="#Layer0_0_MEMBER_8_FILL"/>
</g>

<g transform="matrix( 6.79998779296875, 0, 0, 6.79998779296875, -1660.25,70.1) ">
<use xlink:href="#Layer0_0_MEMBER_9_FILL"/>
</g>

<g transform="matrix( 6.79998779296875, 0, 0, 6.79998779296875, -1660.25,70.1) ">
<use xlink:href="#Layer0_0_MEMBER_10_FILL"/>
</g>

<g transform="matrix( 6.79998779296875, 0, 0, 6.79998779296875, -1660.25,70.1) ">
<use xlink:href="#Layer0_0_MEMBER_11_MEMBER_0_FILL"/>
</g>

<g transform="matrix( 6.79998779296875, 0, 0, 6.79998779296875, -1660.25,70.1) ">
<use xlink:href="#Layer0_0_MEMBER_11_MEMBER_1_FILL"/>
</g>

<g transform="matrix( 6.79998779296875, 0, 0, 6.79998779296875, -1660.25,70.1) ">
<use xlink:href="#Layer0_0_MEMBER_11_MEMBER_2_FILL"/>
</g>

<g transform="matrix( 6.79998779296875, 0, 0, 6.79998779296875, -1660.25,70.1) ">
<use xlink:href="#Layer0_0_MEMBER_11_MEMBER_3_FILL"/>
</g>

<g transform="matrix( 6.79998779296875, 0, 0, 6.79998779296875, -1660.25,70.1) ">
<use xlink:href="#Layer0_0_MEMBER_11_MEMBER_4_FILL"/>
</g>

<g transform="matrix( 6.79998779296875, 0, 0, 6.79998779296875, -1660.25,70.1) ">
<use xlink:href="#Layer0_0_MEMBER_12_FILL"/>
</g>

<g transform="matrix( 6.79998779296875, 0, 0, 6.79998779296875, -1660.25,70.1) ">
<use xlink:href="#Layer0_0_MEMBER_13_FILL"/>
</g>

<g transform="matrix( 6.79998779296875, 0, 0, 6.79998779296875, -1660.25,70.1) ">
<use xlink:href="#Layer0_0_MEMBER_14_FILL"/>
</g>

<g transform="matrix( 6.79998779296875, 0, 0, 6.79998779296875, -1660.25,70.1) ">
<use xlink:href="#Layer0_0_MEMBER_15_FILL"/>
</g>

<g transform="matrix( 6.79998779296875, 0, 0, 6.79998779296875, -1660.25,70.1) ">
<use xlink:href="#Layer0_0_MEMBER_16_FILL"/>
</g>

<g transform="matrix( 6.79998779296875, 0, 0, 6.79998779296875, -1660.25,70.1) ">
<use xlink:href="#Layer0_0_MEMBER_17_FILL"/>
</g>

<g transform="matrix( 6.79998779296875, 0, 0, 6.79998779296875, -1660.25,70.1) ">
<use xlink:href="#Layer0_0_MEMBER_18_FILL"/>
</g>

<g transform="matrix( 6.79998779296875, 0, 0, 6.79998779296875, -1660.25,70.1) ">
<use xlink:href="#Layer0_0_MEMBER_19_FILL"/>
</g>

<g transform="matrix( 6.79998779296875, 0, 0, 6.79998779296875, -1660.25,70.1) ">
<use xlink:href="#Layer0_0_MEMBER_20_FILL"/>
</g>
</svg>
