<?xml version="1.0" encoding="UTF-8"?>
<svg width="160px" height="166px" viewBox="0 0 160 166" version="1.1" xmlns="http://www.w3.org/2000/svg" xmlns:xlink="http://www.w3.org/1999/xlink">
    <title>分析</title>
    <defs>
        <linearGradient x1="99.1344906%" y1="37.9461704%" x2="32.6773932%" y2="54.6740656%" id="linearGradient-1">
            <stop stop-color="#7FFFD3" offset="0%"></stop>
            <stop stop-color="#04C994" offset="100%"></stop>
        </linearGradient>
        <linearGradient x1="100%" y1="39.747241%" x2="0%" y2="60.252759%" id="linearGradient-2">
            <stop stop-color="#979797" stop-opacity="0" offset="0%"></stop>
            <stop stop-color="#FFFFFF" stop-opacity="0.380945592" offset="100%"></stop>
        </linearGradient>
        <linearGradient x1="50%" y1="0.51648939%" x2="50%" y2="100%" id="linearGradient-3">
            <stop stop-color="#A3FFE8" stop-opacity="0.6" offset="0%"></stop>
            <stop stop-color="#A1FFBB" stop-opacity="0.475238507" offset="100%"></stop>
        </linearGradient>
        <linearGradient x1="45.6053384%" y1="55.105873%" x2="40.5276991%" y2="83.787485%" id="linearGradient-4">
            <stop stop-color="#FFFFFF" stop-opacity="0" offset="0%"></stop>
            <stop stop-color="#FFFFFF" offset="100%"></stop>
        </linearGradient>
        <linearGradient x1="50%" y1="0%" x2="50%" y2="100%" id="linearGradient-5">
            <stop stop-color="#C6FFEA" stop-opacity="0.6" offset="0%"></stop>
            <stop stop-color="#A2FFED" stop-opacity="0.475238507" offset="100%"></stop>
        </linearGradient>
        <linearGradient x1="50%" y1="0%" x2="50%" y2="100%" id="linearGradient-6">
            <stop stop-color="#DDFFF0" stop-opacity="0.264051744" offset="0.0649117135%"></stop>
            <stop stop-color="#8CF9BD" stop-opacity="0.650779884" offset="100%"></stop>
        </linearGradient>
        <linearGradient x1="42.9712338%" y1="46.5930744%" x2="33.2985371%" y2="55.9289208%" id="linearGradient-7">
            <stop stop-color="#FFFFFF" stop-opacity="0" offset="0%"></stop>
            <stop stop-color="#FFFFFF" stop-opacity="0.721960535" offset="100%"></stop>
        </linearGradient>
    </defs>
    <g id="页面-1" stroke="none" stroke-width="1" fill="none" fill-rule="evenodd">
        <g id="毛玻璃质感图标" transform="translate(-681.000000, -272.000000)">
            <g id="分析" transform="translate(681.000000, 272.000000)">
                <rect id="背景" fill="#304B68" x="0" y="0" width="160" height="166" rx="40"></rect>
                <g id="icon_空间分析_常态" transform="translate(19.000000, 23.000000)">
                    <rect id="选中背景" x="0" y="0" width="120" height="120" rx="60"></rect>
                    <g id="编组-4" transform="translate(17.000000, 28.000000)">
                        <path d="M60.6061433,49.5 C61.401275,49.5 62.1464356,49.7680245 62.7433552,50.2282992 C63.3402749,50.688574 63.7889537,51.341099 63.9911216,52.1101 L63.9911216,52.1101 L68.1974708,68.1101 C68.4432099,69.0448359 68.2868083,69.9906859 67.835288,70.7642867 C67.3837676,71.5378876 66.6371285,72.1392392 65.7023925,72.3849783 C65.4119229,72.4613418 65.1128323,72.5 64.8124925,72.5 L64.8124925,72.5 L22.1875075,72.5 C21.2210092,72.5 20.3460092,72.1082492 19.7126338,71.4748737 C19.0792583,70.8414983 18.6875075,69.9664983 18.6875075,69 C18.6875075,68.6996602 18.7261657,68.4005696 18.8025292,68.1101 L18.8025292,68.1101 L23.0088784,52.1101 C23.2110463,51.341099 23.6597251,50.688574 24.2566448,50.2282992 C24.8535644,49.7680245 25.598725,49.5 26.3938567,49.5 L26.3938567,49.5 Z" id="矩形" stroke="url(#linearGradient-2)" fill="url(#linearGradient-1)"></path>
                        <path d="M78,0.5 C80.0710678,0.5 81.9460678,1.33946609 83.3033009,2.69669914 C84.6605339,4.05393219 85.5,5.92893219 85.5,8 L85.5,8 L85.5,50 C85.5,52.0710678 84.6605339,53.9460678 83.3033009,55.3033009 C81.9460678,56.6605339 80.0710678,57.5 78,57.5 L78,57.5 L8,57.5 C5.92893219,57.5 4.05393219,56.6605339 2.69669914,55.3033009 C1.33946609,53.9460678 0.5,52.0710678 0.5,50 L0.5,50 L0.5,6 C0.5,4.48121694 1.11560847,3.10621694 2.1109127,2.1109127 C3.10621694,1.11560847 4.48121694,0.5 6,0.5 L6,0.5 Z" id="矩形" stroke="url(#linearGradient-4)" fill="url(#linearGradient-3)"></path>
                        <path d="M6,0 L80,0 C83.3137085,-6.08718376e-16 86,2.6862915 86,6 L86,14 L86,14 L0,14 L0,6 C-4.05812251e-16,2.6862915 2.6862915,6.08718376e-16 6,0 Z" id="矩形" fill-opacity="0.67" fill="url(#linearGradient-5)"></path>
                        <path d="M34.2830865,22.5 C34.938245,22.5 35.5604214,22.7753584 36.0023896,23.2539088 L36.0023896,23.2539088 L43.2515979,33.7815938 L47.4312123,27.9151557 C47.8059489,27.1723506 48.5388851,26.687197 49.3558253,26.6282125 L49.3558253,26.6282125 L64.1526542,26.6221413 C64.8005613,26.6221413 65.387013,26.8863179 65.8115654,27.3130713 C66.2370512,27.740763 66.5,28.3316739 66.5,28.9842489 C66.5,29.7259795 66.4750294,30.4026859 66.2034737,30.8645207 C66.0346857,31.1515784 65.7460315,31.3130745 65.3036453,31.3415614 L65.3036453,31.3415614 L64.1526542,31.3463564 L50.9743649,31.3463564 L45.8354811,39.2153785 C45.4568216,39.9575998 44.770602,40.3882728 44.0428989,40.4809372 C43.3247183,40.572389 42.5663382,40.3352194 42.0253573,39.7442097 L42.0253573,39.7442097 L33.1649015,27.2239622 L20.8473458,27.224215 C20.2244763,27.224215 19.65838,26.9800807 19.2383623,26.5820169 C18.8180992,26.1837206 18.5438267,25.6314634 18.5048232,25.0148909 C18.5059754,24.32072 18.7411549,23.7141831 19.1340768,23.269824 C19.528094,22.8242263 20.0792412,22.5443673 20.6953785,22.5048532 L20.6953785,22.5048532 Z" id="路径-3" stroke="url(#linearGradient-7)" fill="url(#linearGradient-6)" fill-rule="nonzero"></path>
                    </g>
                </g>
            </g>
        </g>
    </g>
</svg>