<?xml version="1.0" encoding="utf-8"?>
<!-- Generator: Adobe Illustrator 16.0.0, SVG Export Plug-In . SVG Version: 6.00 Build 0)  -->
<!DOCTYPE svg PUBLIC "-//W3C//DTD SVG 1.1//EN" "http://www.w3.org/Graphics/SVG/1.1/DTD/svg11.dtd">
<svg version="1.1" id="图层_1" xmlns="http://www.w3.org/2000/svg" xmlns:xlink="http://www.w3.org/1999/xlink" x="0px" y="0px"
	 width="960px" height="540px" viewBox="0 0 960 540" enable-background="new 0 0 960 540" xml:space="preserve">
<rect fill="none" width="960" height="540"/>
<rect fill="#FFFFFF" width="960" height="540"/>
<g id="组_40">
	<path id="矩形_13" fill="#69BAF9" d="M688.481,385.335l38.184,38.184c12.888,12.887,12.888,33.781,0,46.669l0,0
		c-12.887,12.887-33.781,12.887-46.669,0l-38.184-38.184c-12.888-12.888-12.888-33.782,0-46.669l0,0
		C654.7,372.447,675.595,372.447,688.481,385.335z"/>
	<path id="矩形_15" fill="#69BAF9" d="M221.633,91.284L324.87,194.521c10.154,10.153,10.154,26.616,0,36.77l0,0
		c-10.153,10.153-26.616,10.153-36.77,0L184.863,128.053c-10.154-10.154-10.154-26.616,0-36.77l0,0
		C195.017,81.13,211.479,81.13,221.633,91.284z"/>
	<path id="矩形_16" fill="#69BAF9" d="M309.633,58.284L412.87,161.521c10.154,10.153,10.154,26.616,0,36.77l0,0
		c-10.153,10.153-26.616,10.153-36.77,0L272.863,95.053c-10.154-10.154-10.154-26.616,0-36.77l0,0
		C283.017,48.13,299.479,48.13,309.633,58.284z"/>
	<path id="矩形_14" fill="#69BAF9" d="M689.844,291.881l57.275,57.275c7.615,7.615,7.615,19.962,0,27.577l0,0
		c-7.615,7.615-19.962,7.615-27.577,0l-57.275-57.275c-7.615-7.615-7.615-19.962,0-27.577l0,0
		C669.882,284.266,682.229,284.266,689.844,291.881z"/>
	<circle id="椭圆_1" fill="#69BAF9" cx="480" cy="270" r="242"/>
</g>
<line id="直线_12" fill="none" stroke="#3D3D63" stroke-width="10" stroke-linecap="round" x1="458" y1="458" x2="556" y2="458"/>
<line id="直线_15" fill="none" stroke="#3D3D63" stroke-width="10" stroke-linecap="round" x1="589" y1="482" x2="480" y2="482"/>
<line id="直线_13" fill="none" stroke="#3D3D63" stroke-width="10" stroke-linecap="round" x1="336" y1="458" x2="403" y2="458"/>
<line id="直线_16" fill="none" stroke="#3D3D63" stroke-width="10" stroke-linecap="round" x1="701" y1="482" x2="645" y2="482"/>
<line id="直线_18" fill="none" stroke="#3D3D63" stroke-width="10" stroke-linecap="round" x1="439" y1="482" x2="283" y2="482"/>
<line id="直线_14" fill="none" stroke="#3D3D63" stroke-width="10" stroke-linecap="round" x1="431" y1="458" x2="431" y2="458"/>
<line id="直线_17" fill="none" stroke="#3D3D63" stroke-width="10" stroke-linecap="round" x1="621" y1="482" x2="621" y2="482"/>
<rect id="矩形_17" x="787" y="274" transform="matrix(-0.7071 -0.7071 0.7071 -0.7071 1164.7457 1060.4535)" fill="none" stroke="#69BAF9" stroke-width="4" stroke-linecap="round" stroke-linejoin="round" width="30" height="30"/>
<rect id="矩形_19" x="221.101" y="200.001" transform="matrix(-0.7071 -0.7071 0.7071 -0.7071 243.0214 514.6638)" fill="none" stroke="#69BAF9" stroke-width="4" stroke-linecap="round" stroke-linejoin="round" width="14" height="14"/>
<rect id="矩形_18" x="684" y="310" transform="matrix(-0.7071 -0.7071 0.7071 -0.7071 955.4576 1029.7644)" fill="none" stroke="#FFFFFF" stroke-width="4" stroke-linecap="round" stroke-linejoin="round" width="14" height="14.001"/>
<rect id="矩形_20" x="537" y="49.001" transform="matrix(-0.7071 -0.7071 0.7071 -0.7071 889.0677 480.2649)" fill="none" stroke="#FFFFFF" stroke-width="4" stroke-linecap="round" stroke-linejoin="round" width="14" height="14"/>
<g id="椭圆_9" transform="translate(176 391)">
	<circle fill="#FFFFFF" cx="27.5" cy="27.5" r="27.5"/>
	<circle fill="none" stroke="#69BAF9" stroke-width="4" cx="27.5" cy="27.5" r="25.5"/>
</g>
<g id="椭圆_10" transform="translate(194 100)">
	<circle fill="none" cx="13.5" cy="13.5" r="13.5"/>
	<circle fill="none" stroke="#FFFFFF" stroke-width="4" cx="13.5" cy="13.5" r="11.5"/>
</g>
<g id="椭圆_11" transform="translate(306 437)">
	<circle fill="none" cx="13.5" cy="13.5" r="13.5"/>
	<circle fill="none" stroke="#FFFFFF" stroke-width="4" cx="13.5" cy="13.5" r="11.5"/>
</g>
<g id="椭圆_12" transform="translate(438 89)">
	<circle fill="none" cx="9.5" cy="9.5" r="9.5"/>
	<circle fill="none" stroke="#FFFFFF" stroke-width="4" cx="9.5" cy="9.5" r="7.5"/>
</g>
<g id="椭圆_13" transform="translate(662 34)">
	<circle fill="none" cx="15" cy="15" r="15"/>
	<circle fill="none" stroke="#69BAF9" stroke-width="4" cx="15" cy="15" r="13"/>
</g>
<g id="椭圆_15" transform="translate(359 28)">
	<circle fill="none" cx="9" cy="9" r="9"/>
	<circle fill="none" stroke="#69BAF9" stroke-width="4" cx="9" cy="9" r="7"/>
</g>
<g id="椭圆_14" transform="translate(692 185)">
	<circle fill="none" cx="15" cy="15" r="15"/>
	<circle fill="none" stroke="#FFFFFF" stroke-width="4" cx="15" cy="15" r="13"/>
</g>
<g id="联合_6" transform="translate(267 215.97)">
	<path fill="#E5E5E5" d="M387.005,161.032H39v-43.81l5.027-61.382l0.879-10.811H34.06H16c-3.309,0-6-2.691-6-6v-23
		c0-3.309,2.691-6,6-6h25.896h7.82L49.724,10h327.201l7.412,0.03h25.664c3.308,0,5.999,2.692,5.999,6v23c0,3.309-2.691,6-5.999,6
		h-17.044h-10.673l0.693,10.65l4.052,62.192L387.005,161.032z"/>
	<path fill="#3D3D63" d="M377.003,151.032l0.005-33.16l-4.009-61.542c-0.359-5.519,1.582-10.939,5.363-14.975
		s9.064-6.325,14.595-6.325H406v-15h-21.663c-0.365,0-0.729-0.01-1.091-0.03H42.991c-0.363,0.02-0.728,0.03-1.095,0.03H20v15h14.06
		c5.586,0,10.918,2.336,14.705,6.443c3.786,4.107,5.683,9.611,5.229,15.178L49,118.035v32.997H377.003 M397,171.032H29v-53.81
		l5.06-62.192H16c-8.837,0-16-7.164-16-16v-23c0-8.837,7.163-16,16-16h25.896L41.904,0h342.424l0.009,0.03h25.664
		c8.836,0,15.999,7.163,15.999,16v23c0,8.837-7.163,16-15.999,16h-17.044l4.051,62.192L397,171.032z"/>
</g>
<path id="路径_83" fill="#8BECEF" stroke="#3D3D63" stroke-width="20" stroke-linejoin="round" d="M413.968,99H542.79
	c42.349,0,76.68,25.578,76.68,57.129l13.26,70.271l-34.634,18.829H365.921L327,226.4l10.29-70.271
	C337.29,124.578,371.618,99,413.968,99z"/>
<g id="矩形_52" transform="translate(296 367.002)">
	<path fill="#3D3D63" d="M0,0h62l0,0v39c0,17.121-13.879,31-31,31l0,0C13.879,70,0,56.121,0,39V0L0,0z"/>
	<path fill="none" stroke="#3D3D63" stroke-width="30" d="M25.435,15h11.13C42.328,15,47,19.672,47,25.435l0,0V39
		c0,8.837-7.164,16-16,16l0,0c-8.836,0-16-7.163-16-16V25.435C15,19.672,19.672,15,25.435,15z"/>
</g>
<g id="矩形_51" transform="translate(602 367.002)">
	<path fill="#3D3D63" d="M0,0h62l0,0v39c0,17.121-13.879,31-31,31l0,0C13.879,70,0,56.121,0,39V0L0,0z"/>
	<path fill="none" stroke="#3D3D63" stroke-width="30" d="M25.435,15h11.131C42.328,15,47,19.672,47,25.435l0,0V39
		c0,8.837-7.163,16-16,16l0,0c-8.837,0-16-7.163-16-16V25.435C15,19.672,19.672,15,25.435,15z"/>
</g>
<line id="直线_116" fill="none" stroke="#3D3D63" stroke-width="20" stroke-linecap="round" x1="507" y1="138" x2="454" y2="138"/>
<line id="直线_119" fill="none" stroke="#7BD2FA" stroke-width="8" x1="607" y1="143" x2="549" y2="143"/>
<line id="直线_120" fill="none" stroke="#7BD2FA" stroke-width="8" x1="609" y1="160" x2="583" y2="160"/>
<line id="直线_121" fill="none" stroke="#7BD2FA" stroke-width="8" x1="612" y1="177" x2="565" y2="177"/>
<line id="直线_122" fill="none" stroke="#7BD2FA" stroke-width="8" x1="615" y1="194" x2="585" y2="194"/>
<line id="直线_123" fill="none" stroke="#7BD2FA" stroke-width="8" x1="615" y1="211" x2="557" y2="211"/>
<line id="直线_124" fill="none" stroke="#D4FEFF" stroke-width="16" stroke-linecap="round" x1="400" y1="134" x2="389" y2="123"/>
<line id="直线_125" fill="none" stroke="#D4FEFF" stroke-width="16" stroke-linecap="round" x1="403" y1="175" x2="365" y2="137"/>
<path id="路径_96" fill="#D6D6D6" d="M644.067,346.098l-0.008,20.9H315.81v-20.9H644.067z"/>
<g id="组_31" transform="translate(496.184 367) rotate(-90)">
	<g id="组_17" transform="translate(0 94.316)">
		<line id="直线_21" fill="none" stroke="#B6BDC6" stroke-width="8" x1="0" y1="17" x2="34" y2="17"/>
		<line id="直线_22" fill="none" stroke="#B6BDC6" stroke-width="8" x1="0" y1="0" x2="26" y2="0"/>
	</g>
	<g id="组_18" transform="translate(0 47.158)">
		<line id="直线_21-2" fill="none" stroke="#B6BDC6" stroke-width="8" x1="0" y1="17" x2="34" y2="17"/>
		<line id="直线_22-2" fill="none" stroke="#B6BDC6" stroke-width="8" x1="0" y1="0" x2="26" y2="0"/>
	</g>
	<g id="组_19">
		<line id="直线_21-3" fill="none" stroke="#B6BDC6" stroke-width="8" x1="0" y1="17" x2="34" y2="17"/>
		<line id="直线_22-3" fill="none" stroke="#B6BDC6" stroke-width="8" x1="0" y1="0" x2="26" y2="0"/>
	</g>
</g>
<g id="组_32" transform="translate(350.5 367) rotate(-90)">
	<g id="组_17-2" transform="translate(0 97.945)">
		<line id="直线_21-4" fill="none" stroke="#B6BDC6" stroke-width="8" x1="0" y1="17" x2="34" y2="17"/>
		<line id="直线_22-4" fill="none" stroke="#B6BDC6" stroke-width="8" x1="0" y1="0" x2="26" y2="0"/>
	</g>
	<g id="组_18-2" transform="translate(0 48.973)">
		<line id="直线_21-5" fill="none" stroke="#B6BDC6" stroke-width="8" x1="0" y1="17" x2="34" y2="17"/>
		<line id="直线_22-5" fill="none" stroke="#B6BDC6" stroke-width="8" x1="0" y1="0" x2="26" y2="0"/>
	</g>
	<g id="组_19-2">
		<line id="直线_21-6" fill="none" stroke="#B6BDC6" stroke-width="8" x1="0" y1="17" x2="34" y2="17"/>
		<line id="直线_22-6" fill="none" stroke="#B6BDC6" stroke-width="8" x1="0" y1="0" x2="26" y2="0"/>
	</g>
</g>
<g id="组_41">
	
		<line id="直线_117" fill="none" stroke="#3D3D63" stroke-width="20" stroke-linecap="round" x1="450.5" y1="301.5" x2="506.5" y2="301.5"/>
	
		<line id="直线_118" fill="none" stroke="#3D3D63" stroke-width="20" stroke-linecap="round" x1="450.5" y1="333" x2="506.5" y2="333"/>
	<g id="椭圆_29" transform="translate(327 275.002)">
		<circle fill="#FFFFFF" cx="38" cy="38" r="38"/>
		<circle fill="none" stroke="#3D3D63" stroke-width="20" cx="38" cy="38" r="28"/>
	</g>
	<g id="椭圆_28" transform="translate(560 275.002)">
		<circle fill="#FFFFFF" cx="38" cy="38" r="38"/>
		<circle fill="none" stroke="#3D3D63" stroke-width="20" cx="38" cy="38" r="28"/>
	</g>
</g>
</svg>
