<?xml version="1.0" encoding="utf-8"?>
<!-- Generator: Adobe Illustrator 22.1.0, SVG Export Plug-In . SVG Version: 6.00 Build 0)  -->
<svg version="1.1" id="图层_1" xmlns="http://www.w3.org/2000/svg" xmlns:xlink="http://www.w3.org/1999/xlink" x="0px" y="0px"
	 viewBox="0 0 1024 1024" style="enable-background:new 0 0 1024 1024;" xml:space="preserve">
<style type="text/css">
	.st0{fill:#EC4C47;}
	.st1{opacity:0.2;fill:#BC3737;}
	.st2{fill:#FEBD8B;stroke:#70330A;stroke-width:0.2;stroke-miterlimit:10;}
	.st3{opacity:0.2;fill:#B24800;}
	.st4{opacity:0.3;fill:#BC3737;}
	.st5{fill:#FEBD8B;}
	.st6{opacity:0.1;fill:#B24800;}
	.st7{fill:#353535;}
	.st8{fill:#1E1E1E;}
	.st9{fill:#6D6B6A;}
	.st10{fill:#09090A;}
	.st11{fill:#242426;}
	.st12{fill:#A0A0A0;}
	.st13{fill:#7F7F7F;}
	.st14{fill:#2A2A2B;}
	.st15{fill:#515151;}
	.st16{fill:#8C8C8C;}
	.st17{opacity:0.2;fill:#8C8C8C;}
	.st18{fill:#EC4C47;stroke:#AF0808;stroke-width:0.75;stroke-miterlimit:10;}
	.st19{fill:#70330A;}
	.st20{fill:#BC3737;}
	.st21{opacity:0.4;fill:#BC3737;}
	.st22{stroke:#BC3737;stroke-miterlimit:10;}
</style>
<g>
	<path class="st0" d="M674.4,928.9c-2.1-28.4-2.8-53.4,0-63.9c8.3-31.2,3.7-171.1,2.8-183c-0.9-11.9,22-146.8,17-198.6
		s-50.9-65.1-50.9-65.1c-31.8-18.7-148.6-0.3-148.6-0.3s-13.5,2.4-58.7,28.4c-35.8,20.5-81.3,339.9-99.4,482.5H674.4z"/>
	<path class="st1" d="M677.3,840.6c3.5-51.2,0.3-148-0.5-157.8c-0.9-11.9,22-146.8,17-198.6c-0.8-8.5-2.7-15.9-5.4-22.4
		c-33.4-28.4-81.4-26.4-89.9-10.3c-9.2,17.4-45.9,201.8-45.9,201.8S657.8,715.2,677.3,840.6z"/>
	<path class="st2" d="M476.2,372.6c0,0,30,20.2,25.4,48.6c0,0,90.8-41,100.9-37.9c0,0-22.9-37.9-23.2-68.8l-30.6-3.1L476.2,372.6z"
		/>
	<path class="st3" d="M579,315.4l-26.3-2.6c-2.8,0.9-5.5,1.7-7.8,2.5L528,329.6C512,347,483,378.1,483,378.1s54.2-19.6,74.2-11.5
		c20,8,45.1,17.7,45.1,17.7S579.3,346.3,579,315.4z"/>
	<path class="st2" d="M395,225.8c0,0-11.5,143.1,36.2,152.9S534,361,552.4,330.4l2.4-8c0,0,37.3-2.4,36.1-25.1
		c-1.2-22.6-41-33-41-33s-0.6-47.1-22.6-66.1C505.3,179.4,405.3,180.6,395,225.8z"/>
	<path d="M665.3,407.6c-1.8-28.7-17.1-74.6-30-83.8c-12.8-9.2-15.3-8.6-12.8-14.7c2.4-6.1,32.4-120.5-15.9-154.1
		c-48.3-33.6-80.7-26.3-80.7-26.3s-126.6-1.8-138.2,80.1c-11.6,82,95.4,22.6,106.4,63c2.6,9.6,3.8,17.8,4.1,24.9l-7.2,32.6
		c0,0,48.5-19.1,56.9-48.9c3.1-6.1,28.9-9.5,36.8,2.8c8,12.2,1.8,24.6-4.3,32c-6.1,7.3,12.1,54.6,13.3,58.9
		c1.2,4.3,38.5,37.3,61.8,50.8C678.7,438.1,667.1,436.3,665.3,407.6z"/>
	<path class="st0" d="M250.1,596.2c0,0,6,11,18.3,11s175.7-44,193.1-65.1s13.8-110.1,2.8-110.1c-11,0-106.9,48.2-130.3,52.7
		c-23.4,4.6-45.4,10.1-45.4,10.1S260.2,489.3,250.1,596.2z"/>
	<path class="st4" d="M337.2,484.7c0,0,36.2-7.3,44,23.9c7.8,31.2,7.8,60.5,7.8,60.5l7.3-111C396.4,458.1,363.9,476,337.2,484.7z"/>
	<path class="st5" d="M324.6,265.6c0,0-6.4,10.4-5.8,17.1c0,0-3.4,0-5.5,14.1c-2.1,14.1-5.8,39.8-5.8,41.6s-11,6.1-11.6,12.5
		S198,509,200.4,547.2c2.4,38.2,16.8,38.5,22.6,41c5.8,2.4,45.9,11,53.2,6.4s4.6-49.8,5.8-52c1.2-2.1,12.5-29.7,10.7-40.4
		s36.4-130,59.6-141.6s33-42.2,34.6-50.2s1.2-30.6-1.8-35.8C382,269.6,324.6,265.6,324.6,265.6z"/>
	<path class="st6" d="M337.2,312.4c0,0,1.5,6.3-2,11.3c0,0,12.4-2.4,16.8,0.3c4.4,2.8,14.7-17,24.8-14.8c10.1,2.1,9.6-8.4,9.6-8.4
		l-29.2-9.3l-22,7L337.2,312.4z"/>
	<g>
		<path class="st7" d="M384,228.5c0-0.7,2.1-8,2.1-8l-3-8.9l0.2-9.9l17.7,0.7l55.7,25.9l-0.9,9.4l-7.1,3v2.8l17,2.5l7.3,10.5
			l-12.6,37.6l-23.9,15.4l-18.1,3.1l-71.8-19.1l24.3-66.3L384,228.5z"/>
		<path class="st8" d="M356.6,216.9c0,0,42.1,9.5,48.7,22.8c6.7,13.3-8,46.8-20.2,51.4c-12.2,4.6-50.8-13-50.8-13L356.6,216.9z"/>
		<path class="st7" d="M353.7,248.7l57.9,16.6c1.3-4.2,2.5-14.5,2.7-18.2l-52.9-19.8L353.7,248.7z"/>
		<ellipse transform="matrix(0.3412 -0.94 0.94 0.3412 -5.0795 487.8441)" class="st9" cx="345.5" cy="247.5" rx="32.6" ry="15.4"/>
		
			<ellipse transform="matrix(0.3412 -0.94 0.94 0.3412 -5.0795 487.8441)" class="st10" cx="345.5" cy="247.5" rx="30.5" ry="14.4"/>
		<ellipse transform="matrix(0.3412 -0.94 0.94 0.3412 -2.0541 498.5827)" class="st11" cx="354.7" cy="250.8" rx="11.4" ry="4.4"/>
		<polygon class="st12" points="384.4,202.6 400.5,203.1 398.5,210.5 384.3,211.2 		"/>
		<path class="st13" d="M387.2,220.6l24.1,4.4l-3.4,18.5c0,0-1.5-8.7-11.2-13.1s-10.7-4.9-10.7-4.9L387.2,220.6z"/>
		<polygon class="st14" points="384.3,211.8 387,220.1 411,224.5 398.8,211.1 		"/>
		<polygon class="st14" points="455.8,237.7 439.5,229.8 448.7,240.7 		"/>
		<polygon class="st14" points="433.9,244.8 451,249.1 465.7,245.9 448.7,243.4 		"/>
		<path class="st15" d="M436.5,231.2l-3.4,13.1l-15.4-3.2C417.7,241.1,423.3,231.6,436.5,231.2z"/>
		
			<ellipse transform="matrix(0.6814 -0.732 0.732 0.6814 -56.6562 326.4187)" class="st16" cx="346.6" cy="228.3" rx="2.4" ry="1.5"/>
		
			<ellipse transform="matrix(0.4351 -0.9004 0.9004 0.4351 -15.7513 439.3496)" class="st16" cx="342.3" cy="232.2" rx="1.5" ry="0.9"/>
		<path class="st17" d="M350.5,248.8l-16-11.8c0,0-3.3,6.1-4,10.4l19.1,3.9L350.5,248.8z"/>
		<path class="st16" d="M406.4,253.3c0,0,0.2,3.8,0,4.7l31.8,9.5l5.8-3L406.4,253.3z"/>
		<polygon class="st14" points="464.8,247.5 451.3,250.9 444.5,265.4 444.2,265.2 438.3,268.6 419,311.4 436.6,308.1 459.7,292.8 
			471.6,256.6 		"/>
		<g>
			<path class="st14" d="M406.8,259.6c-1,3.7-2.3,7.4-3.7,11c-1.5,3.6-3.2,7-5.3,10.3c-2.1,3.3-4.5,6.3-7.6,8.7
				c-1.5,1.2-3.3,2.1-5.1,2.7c-1.8,0.6-3.8,0.8-5.7,0.6c1.9,0.1,3.9-0.1,5.7-0.7c1.8-0.6,3.5-1.6,5-2.7c3-2.4,5.4-5.5,7.5-8.7
				c2-3.3,3.7-6.8,5.1-10.3c1.4-3.6,2.7-7.2,3.6-10.9L406.8,259.6z"/>
		</g>
		<polygon class="st12" points="456.7,228.3 456.7,229.2 445.2,223.9 444.6,222.5 		"/>
	</g>
	<path class="st18" d="M468,551.2c0,0,74.3-31.6,87.6-54.1c13.3-22.5,29.4-50.5,72.9-56.9c43.6-6.4,78,43.1,55.5,98.2
		s-53.7,106.9-150,122.5c-96.3,15.6-117.9,22.5-123.8,11.9c-3.1-5.4,18.3,17.4,48.6-56C478.8,568.2,468,551.2,468,551.2z"/>
	<path class="st2" d="M423.3,262.2c0,0-0.2,10.8,10.1,11h5.5l8.3,7.3c0,0-3.9,20.9-7.3,20.6c-3.4-0.2-7.1-1.1-7.1-1.8
		c0-0.7-14.2-26.6-20.2-25.5c-6,1.1-16.5,15.8-16.5,15.8s-7.6,0.9-10.3,3c-2.8,2.1-1.8,11.7-1.8,11.7s-8.9-5-10.8,0.5
		s-1.4,28.7-1.4,33.5c0,4.8-4.4,40.6,1.4,49.5c5.7,8.9,13,165.4,19.7,208.9c6.7,43.4,6.1,77.7,25.7,78.3
		c19.6,0.6,62.2-83.9,53.8-110.1c-5.3-16.5-44.6-130.9-36.7-170s17.7-47.7,17.7-47.7s10.2-8.9,13.3-12.9c3.1-4,1.7-13.1,0.8-22
		s3.4-28.1,3.1-33.9s-15.6-18.7-23.9-19.9C438.3,257.3,423.3,262.2,423.3,262.2z"/>
	<g>
		<path class="st5" d="M337.6,311.6c0.5-4.6-1.2-9.2-1.2-9.2c3.4,0.6,8.3-0.9,8.3-0.9c-0.5,1.5,0.5,15.3,6.9,11.5s5.8-14.8,0.5-20.6
			c-5.4-5.8-13.5-7.2-24.5-9.2c-11-2-11.8,3.4-11.8,3.4"/>
		<path class="st19" d="M337.6,311.6c0.1-1.5,0.1-3.1-0.2-4.6c-0.2-1.5-0.6-3.1-1.1-4.5l0,0l0,0c1.4,0.2,2.8,0.1,4.2,0
			c1.4-0.2,2.7-0.5,4.1-0.9l0.1,0l0,0.1c-0.2,1.6,0,3.3,0.2,4.9c0.3,1.6,0.7,3.3,1.4,4.7c0.4,0.7,0.9,1.4,1.5,1.9
			c0.7,0.5,1.5,0.6,2.3,0.4c0.8-0.2,1.5-0.7,2.1-1.2c0.4-0.2,0.6-0.6,0.9-0.8c0.3-0.3,0.5-0.6,0.8-0.9c1.9-2.7,2.4-6.2,1.9-9.5
			c-0.5-3.3-1.9-6.4-4.1-8.8c-2.3-2.4-5.2-4.1-8.3-5.3c-3.1-1.2-6.3-1.9-9.6-2.6c-1.6-0.3-3.3-0.6-4.9-0.9c-1.6-0.3-3.3-0.6-4.9-0.7
			c-1.6-0.1-3.3,0-4.9,0.5c-1.5,0.5-3.1,1.6-3.5,3.2c0.4-1.7,1.9-2.8,3.5-3.3c1.6-0.5,3.3-0.6,4.9-0.5c1.7,0.1,3.3,0.4,4.9,0.7
			c1.6,0.3,3.3,0.6,4.9,0.9c3.3,0.6,6.5,1.4,9.6,2.5c3.1,1.2,6.1,2.9,8.3,5.3c2.3,2.4,3.7,5.6,4.2,8.9c0.5,3.3,0,6.8-1.9,9.6
			c-0.3,0.3-0.5,0.7-0.8,1c-0.3,0.3-0.6,0.6-0.9,0.8c-0.7,0.5-1.4,1-2.2,1.2c-0.8,0.2-1.7,0.1-2.4-0.4c-0.7-0.5-1.2-1.2-1.6-1.9
			c-0.8-1.5-1.1-3.1-1.4-4.8c-0.2-1.6-0.4-3.3-0.2-5l0,0c-1.3,0.4-2.7,0.7-4.1,0.9c-1.4,0.2-2.8,0.3-4.2,0l0,0
			c0.5,1.5,0.8,3,1.1,4.5C337.6,308.5,337.7,310.1,337.6,311.6z"/>
	</g>
	<path class="st20" d="M497.5,397.1c0,0-25.4,22-45.6,23.9l-2.8,5.5c0,0,25.8,84.2,12.5,104.8C461.7,531.2,526.9,424.6,497.5,397.1z
		"/>
	<path class="st21" d="M505.6,420.9c0,0,33.9,18.3,35.3,57.3c0,0,54.6-55.5,98.6-58.3C639.5,420,562,409.9,505.6,420.9z"/>
	<path class="st18" d="M603.5,381.4c0,0-71.3,18-99.4,39.1c0,0,31.2,4.6,48.6,52c0,0,70.9-61.2,93-55
		C645.7,417.5,623.4,381.1,603.5,381.4z"/>
	<path class="st3" d="M554.3,301.7c0,0,3.4-22.1,18.5-19.3C572.8,282.4,561.4,281.4,554.3,301.7z"/>
	<path class="st20" d="M250.9,594.8c0,0,28.9,7.5,28.9-4.7c0,0-1.6,16.4-10.5,16.4C260.3,606.5,251.4,599.6,250.9,594.8z"/>
	<g>
		<path class="st22" d="M346.9,421.9c0,0-15.3,19-12.8,44.6s-3.1,129.7,0,140.7c3.1,11,8,41,5.5,79.5c-2.4,38.5,8.6,52,8.6,52
			s-19.6,31.2-28.1,31.8c-8.6,0.6-23.2-38.5-16.5-58.7c6.7-20.2,36.1-85.6,38.5-105.8c2.4-20.2,30-124.2,25.1-146.8
			c-4.9-22.6-11.6-36.7-11.6-36.7L346.9,421.9z"/>
		<path class="st22" d="M376.2,436.5c0,0-11.6,10.4-17.1,37.3c-5.5,26.9-4.3,88.1-6.1,107s-4.9,34.2-4.9,59.9
			c0,25.7-6.7,122.3-28.1,129.7c0,0,26.3,6.1,32.4,3.1s34.9-61.8,35.5-100.3c0.6-38.5-15.9-88.7-3.7-117.4S376.2,436.5,376.2,436.5z
			"/>
		<path d="M346.9,421.9c0,0,0.3-38.2,0.3-39.8s-0.6-30.6-0.6-30.6s-0.6-19,0.9-31.8c1.5-12.8,9.8-34.2,9.8-34.2l8.9,4.6
			c0,0-1.5,8.3-6.4,19.6c-4.9,11.3-2.8,18.7-5.2,27.8c-2.4,9.2-3.1,24.8-2.4,38.2c0.6,13.5,3.1,48.9,3.1,48.9l-5.2,6.1L346.9,421.9z
			"/>
	</g>
	<path class="st3" d="M469.7,555.9c-0.3-1.1-1.1-4.3-2.3-9.1c-12.2-37.6-37.7-120.9-31.2-153.1c7.4-36.6,16.5-46.5,17.6-47.6
		c-2,1.9-30.1,29.1-37.2,58c-7.3,30,23.9,203,38.5,198.2c0.8-0.3,1.5-0.6,2.2-1.1c-13.2,20.6-35.3,48.1-43.8,47.9c-11-0.3-15-7-15-7
		s2.1,32.1,18.3,33c16.2,0.9,54.7-63,56.6-101.5C473.5,573.5,471.6,562.7,469.7,555.9z"/>
	<path class="st3" d="M293.1,502c-1.8-10.6,36-128.6,59.2-141.4c-5,1.3-14,5.6-24.7,19.7c-16.2,21.4-47.1,96.3-51.7,118.3
		c-4.6,22-8.3,29.7-8.9,42.2c-0.6,12.5-4.9,21.1,2.4,32.4c3.4,5.2,7.5,8.6,10.9,10.8c2.3-14.8,1-40.1,1.9-41.7
		C283.6,540.2,294.9,512.7,293.1,502z"/>
</g>
</svg>
