
<svg xmlns="http://www.w3.org/2000/svg" version="1.1" xmlns:xlink="http://www.w3.org/1999/xlink" preserveAspectRatio="none" x="0px" y="0px" width="1024px" height="1024px" viewBox="0 0 1024 1024">
<defs>
<g id="Layer0_0_MEMBER_0_MEMBER_0_FILL">
<path fill="#88C836" stroke="none" d="
M 61.65 268.55
L 55.85 283.15 59.15 277.95
Q 64.65 272.45 70.1 265.35 81.05 251.25 81 243.45
L 75.15 251.25
Q 68.05 260.6 61.65 268.55 Z"/>
</g>

<g id="Layer0_0_MEMBER_1_MEMBER_0_FILL">
<path fill="#88C836" stroke="none" d="
M 104.6 267.05
Q 96.8 267 82.7 277.95 75.6 283.4 70.1 288.9
L 64.9 292.2 79.5 286.4
Q 87.45 280 96.8 272.9
L 104.6 267.05 Z"/>
</g>

<g id="Layer0_0_MEMBER_2_MEMBER_0_MEMBER_0_FILL">
<path fill="#FFB600" stroke="none" d="
M 89 251.95
Q 86.6 252.5 82.55 254.65 79.95 256.05 66.45 268.6 53.75 280.45 45.25 289.15 43.55 290.85 40.6 295 37.35 299.65 36.85 301.45 35.8 305.2 39.5 308.9 43.1 312.55 46.9 311.55 48.7 311.05 53.35 307.8 57.5 304.85 59.25 303.15 68.2 294.35 79.75 281.95 92.3 268.4 93.7 265.8 95.85 261.8 96.45 259.35 97.35 255.4 95.15 253.2 92.95 251 89 251.95 Z"/>
</g>

<g id="Layer0_0_MEMBER_2_MEMBER_1_MEMBER_0_MEMBER_0_FILL">
<path fill="#FFDE17" stroke="none" d="
M 45.65 300
Q 46 299.6 46 299.1 46.05 298.55 45.7 298.2
L 44.65 297
Q 44.35 296.65 43.9 296.65 43.5 296.65 43.15 297
L 42.05 298.35
Q 41.75 298.75 41.75 299.3 41.75 299.85 42.05 300.2 42.4 300.65 43.25 301.1 44.2 301.55 44.5 301.25
L 45.65 300 Z"/>
</g>

<g id="Layer0_0_MEMBER_2_MEMBER_1_MEMBER_1_MEMBER_0_FILL">
<path fill="#FFE35A" stroke="none" d="
M 45.15 299.45
Q 45.45 299.1 45.15 298.7
L 44.05 297.45 43.9 297.35 43.75 297.45 42.65 298.8
Q 42.25 299.3 42.65 299.75
L 42.7 299.8
Q 43.4 300.5 44.05 300.6
L 45.15 299.45 Z"/>
</g>

<g id="Layer0_0_MEMBER_2_MEMBER_1_MEMBER_2_MEMBER_0_FILL">
<path fill="#FFDE17" stroke="none" d="
M 49.35 295.65
Q 49.8 295.65 50.15 295.3
L 51.35 294.1
Q 51.7 293.75 51.7 293.25 51.7 292.75 51.35 292.35
L 50.15 291
Q 49.85 290.65 49.35 290.6 48.9 290.55 48.55 290.9
L 47.3 292.15
Q 47 292.5 47.05 293 47.05 293.5 47.35 293.9
L 48.5 295.25
Q 48.85 295.6 49.35 295.65 Z"/>
</g>

<g id="Layer0_0_MEMBER_2_MEMBER_1_MEMBER_3_MEMBER_0_FILL">
<path fill="#FFE35A" stroke="none" d="
M 47.9 293.4
L 49.1 294.75
Q 49.2 294.9 49.35 294.9
L 49.6 294.75 50.8 293.55
Q 51.15 293.2 50.8 292.85
L 49.6 291.45
Q 49.5 291.35 49.35 291.35 49.15 291.35 49.1 291.45
L 47.85 292.7
Q 47.75 292.8 47.75 293 47.75 293.25 47.9 293.4 Z"/>
</g>

<g id="Layer0_0_MEMBER_2_MEMBER_1_MEMBER_4_MEMBER_0_FILL">
<path fill="#FFDE17" stroke="none" d="
M 44.7 295.15
Q 44.35 295.5 44.35 296.1 44.35 296.6 44.65 297
L 45.7 298.2
Q 46.05 298.55 46.5 298.6 46.95 298.6 47.3 298.25
L 48.5 297
Q 48.85 296.65 48.85 296.15 48.85 295.65 48.5 295.25
L 47.35 293.9
Q 47.05 293.55 46.6 293.5 46.15 293.5 45.8 293.85
L 44.7 295.15 Z"/>
</g>

<g id="Layer0_0_MEMBER_2_MEMBER_1_MEMBER_5_MEMBER_0_FILL">
<path fill="#FFE35A" stroke="none" d="
M 47.95 296.5
Q 48.35 296.15 47.95 295.75
L 46.75 294.35 46.55 294.25 46.35 294.35 45.25 295.65
Q 45.1 295.8 45.1 296.1 45.1 296.35 45.25 296.5
L 46.25 297.75
Q 46.35 297.85 46.5 297.85
L 46.75 297.75 47.95 296.5 Z"/>
</g>

<g id="Layer0_0_MEMBER_2_MEMBER_1_MEMBER_6_MEMBER_0_FILL">
<path fill="#FFDE17" stroke="none" d="
M 42.8 301.6
Q 42.45 300.7 42.05 300.2 41.75 299.8 41.35 299.85 40.9 299.85 40.6 300.25
L 39.55 301.7
Q 39.25 302.1 39.25 302.65 39.25 303.15 39.5 303.5 39.85 303.9 40.6 304.25 41.45 304.6 41.75 304.25
L 42.9 303
Q 43.2 302.65 42.8 301.6 Z"/>
</g>

<g id="Layer0_0_MEMBER_2_MEMBER_1_MEMBER_7_MEMBER_0_FILL">
<path fill="#FFE35A" stroke="none" d="
M 41.3 303.7
L 42.25 302.55
Q 42.3 302.3 42 301.65 41.75 301 41.45 300.65
L 41.35 300.6 41.2 300.65 40.15 302.1
Q 39.8 302.65 40.1 303.05
L 40.15 303.05
Q 40.6 303.6 41.3 303.7 Z"/>
</g>

<g id="Layer0_0_MEMBER_2_MEMBER_1_MEMBER_8_MEMBER_0_FILL">
<path fill="#FFDE17" stroke="none" d="
M 44.5 303
Q 44.15 302.65 43.7 302.65 43.25 302.65 42.9 303
L 41.75 304.25
Q 41.4 304.6 41.4 305.1 41.4 305.6 41.65 305.95
L 42.45 306.7
Q 42.75 307 43.25 307 43.7 306.95 44.1 306.65
L 45.4 305.5
Q 45.75 305.15 45.75 304.7 45.75 304.2 45.4 303.85
L 44.5 303 Z"/>
</g>

<g id="Layer0_0_MEMBER_2_MEMBER_1_MEMBER_9_MEMBER_0_FILL">
<path fill="#FFE35A" stroke="none" d="
M 43.6 306.05
L 44.9 304.95
Q 45 304.85 45 304.7 45 304.5 44.85 304.4
L 43.95 303.5 43.7 303.35 43.45 303.5 42.3 304.75
Q 41.95 305.15 42.2 305.4
L 42.95 306.15
Q 43.25 306.45 43.6 306.05 Z"/>
</g>

<g id="Layer0_0_MEMBER_2_MEMBER_1_MEMBER_10_MEMBER_0_FILL">
<path fill="#FFDE17" stroke="none" d="
M 64.65 276.8
Q 64.25 276.45 63.8 276.45 63.25 276.45 62.9 276.8
L 61.75 277.95
Q 61.4 278.3 61.35 278.8 61.35 279.25 61.7 279.6
L 62.95 280.85
Q 63.3 281.2 63.8 281.2 64.3 281.2 64.65 280.85
L 65.85 279.65
Q 66.2 279.3 66.2 278.8 66.2 278.35 65.85 277.95
L 64.65 276.8 Z"/>
</g>

<g id="Layer0_0_MEMBER_2_MEMBER_1_MEMBER_11_MEMBER_0_FILL">
<path fill="#FFE35A" stroke="none" d="
M 63.8 277.2
Q 63.55 277.2 63.45 277.3
L 62.25 278.45 62.15 278.75
Q 62.15 279 62.25 279.1
L 63.45 280.3
Q 63.8 280.65 64.1 280.3
L 65.3 279.15
Q 65.45 279 65.45 278.8
L 65.3 278.5 64.1 277.3
Q 64 277.2 63.8 277.2 Z"/>
</g>

<g id="Layer0_0_MEMBER_2_MEMBER_1_MEMBER_12_MEMBER_0_FILL">
<path fill="#FFDE17" stroke="none" d="
M 67.55 277.95
L 68.75 276.8
Q 69.1 276.45 69.1 275.95 69.1 275.45 68.75 275.1
L 67.55 273.95
Q 67.2 273.6 66.7 273.6 66.2 273.65 65.85 274
L 64.65 275.1
Q 64.3 275.5 64.3 275.95 64.3 276.45 64.65 276.8
L 65.85 277.95
Q 66.2 278.35 66.7 278.35 67.2 278.35 67.55 277.95 Z"/>
</g>

<g id="Layer0_0_MEMBER_2_MEMBER_1_MEMBER_13_MEMBER_0_FILL">
<path fill="#FFE35A" stroke="none" d="
M 67.05 274.5
Q 66.7 274.25 66.35 274.5
L 65.15 275.65 65.05 275.95
Q 65.05 276.15 65.15 276.25
L 66.35 277.45
Q 66.7 277.75 67 277.45
L 68.2 276.25 68.35 275.95 68.2 275.65 67.05 274.5 Z"/>
</g>

<g id="Layer0_0_MEMBER_2_MEMBER_1_MEMBER_14_MEMBER_0_FILL">
<path fill="#FFDE17" stroke="none" d="
M 49.9 290.1
Q 49.85 290.65 50.15 291
L 51.35 292.35
Q 51.7 292.7 52.2 292.75 52.65 292.75 53.05 292.4
L 54.25 291.2
Q 54.6 290.85 54.6 290.35 54.6 289.85 54.25 289.45
L 53.05 288.15
Q 52.7 287.8 52.25 287.75 51.75 287.7 51.4 288.05
L 50.25 289.25
Q 49.9 289.6 49.9 290.1 Z"/>
</g>

<g id="Layer0_0_MEMBER_2_MEMBER_1_MEMBER_15_MEMBER_0_FILL">
<path fill="#FFE35A" stroke="none" d="
M 50.75 290.5
L 51.95 291.85
Q 52.05 292 52.2 292
L 52.5 291.85 53.7 290.65
Q 54.05 290.3 53.7 289.95
L 52.45 288.6
Q 52.2 288.35 51.95 288.6
L 50.75 289.75
Q 50.45 290.2 50.75 290.5 Z"/>
</g>

<g id="Layer0_0_MEMBER_2_MEMBER_1_MEMBER_16_MEMBER_0_FILL">
<path fill="#FFDE17" stroke="none" d="
M 60.05 279.6
L 58.85 280.75
Q 58.5 281.1 58.5 281.6 58.45 282.1 58.8 282.45
L 60.05 283.7
Q 60.4 284.05 60.9 284.1 61.35 284.1 61.7 283.75
L 62.95 282.55
Q 63.3 282.2 63.3 281.7 63.3 281.2 62.95 280.85
L 61.7 279.6
Q 61.35 279.25 60.9 279.25 60.4 279.25 60.05 279.6 Z"/>
</g>

<g id="Layer0_0_MEMBER_2_MEMBER_1_MEMBER_17_MEMBER_0_FILL">
<path fill="#FFE35A" stroke="none" d="
M 59.35 281.95
L 60.6 283.2
Q 60.9 283.5 61.2 283.2
L 62.4 282
Q 62.75 281.7 62.4 281.35
L 61.2 280.15
Q 60.85 279.8 60.55 280.15
L 59.35 281.25
Q 59.1 281.6 59.35 281.95 Z"/>
</g>

<g id="Layer0_0_MEMBER_2_MEMBER_1_MEMBER_18_MEMBER_0_FILL">
<path fill="#FFDE17" stroke="none" d="
M 55.9 289.5
L 57.1 288.3
Q 57.45 287.95 57.5 287.45 57.5 286.95 57.15 286.6
L 55.95 285.3
Q 55.6 284.9 55.1 284.9 54.6 284.9 54.25 285.25
L 53.1 286.4
Q 52.75 286.75 52.75 287.25 52.7 287.8 53.05 288.15
L 54.25 289.45
Q 54.6 289.8 55.1 289.85 55.55 289.85 55.9 289.5 Z"/>
</g>

<g id="Layer0_0_MEMBER_2_MEMBER_1_MEMBER_19_MEMBER_0_FILL">
<path fill="#FFE35A" stroke="none" d="
M 53.6 287.6
L 54.8 288.95
Q 55.15 289.3 55.4 288.95
L 56.6 287.75
Q 56.95 287.45 56.6 287.1
L 55.35 285.75
Q 55.1 285.5 54.8 285.75
L 53.65 286.9
Q 53.3 287.3 53.6 287.6 Z"/>
</g>

<g id="Layer0_0_MEMBER_2_MEMBER_1_MEMBER_20_MEMBER_0_FILL">
<path fill="#FFDE17" stroke="none" d="
M 85.6 269
L 84.7 268
Q 84.35 267.65 83.9 267.6 83.45 267.6 83.05 267.95
L 81.9 269.2
Q 81.55 269.55 81.5 270.05 81.5 270.55 81.85 270.9
L 82.8 272
Q 83.15 272.4 83.6 272.4 84.05 272.4 84.4 272
L 85.55 270.8
Q 85.9 270.45 85.9 269.9 85.9 269.4 85.6 269 Z"/>
</g>

<g id="Layer0_0_MEMBER_2_MEMBER_1_MEMBER_21_MEMBER_0_FILL">
<path fill="#FFE35A" stroke="none" d="
M 84.15 268.5
L 83.85 268.35 83.6 268.5 82.4 269.7
Q 82.15 270.05 82.4 270.4
L 83.4 271.5
Q 83.45 271.6 83.65 271.6 83.8 271.6 83.85 271.5
L 85 270.3
Q 85.35 269.95 85.05 269.5
L 84.15 268.5 Z"/>
</g>

<g id="Layer0_0_MEMBER_2_MEMBER_1_MEMBER_22_MEMBER_0_FILL">
<path fill="#FFDE17" stroke="none" d="
M 45.4 305.5
L 44.1 306.65
Q 43.75 306.95 43.7 307.4 43.7 307.85 44.05 308.15 44.45 308.5 45.35 308.8 46.3 309.1 46.7 308.85
L 48.15 307.75
Q 48.55 307.5 48.55 307.05 48.55 306.6 48.15 306.3 47.65 305.9 46.75 305.6 45.7 305.2 45.4 305.5 Z"/>
</g>

<g id="Layer0_0_MEMBER_2_MEMBER_1_MEMBER_23_MEMBER_0_FILL">
<path fill="#FFE35A" stroke="none" d="
M 44.55 307.6
Q 44.8 307.8 45.4 308 46.05 308.25 46.3 308.2
L 47.7 307.2 47.8 307.05 47.75 306.9 47.7 306.9
Q 47.4 306.65 46.75 306.4 46.1 306.1 45.8 306.1
L 44.6 307.2
Q 44.45 307.3 44.45 307.45
L 44.55 307.6 Z"/>
</g>

<g id="Layer0_0_MEMBER_2_MEMBER_1_MEMBER_24_MEMBER_0_FILL">
<path fill="#FFDE17" stroke="none" d="
M 71.95 284.6
Q 71.95 284.1 71.6 283.75
L 70.4 282.55
Q 70.05 282.2 69.55 282.2 69.1 282.2 68.7 282.55
L 67.55 283.75
Q 67.2 284.1 67.2 284.6 67.2 285.1 67.55 285.45
L 68.75 286.65
Q 69.15 287 69.6 287 70.1 287 70.45 286.65
L 71.6 285.45
Q 71.95 285.1 71.95 284.6 Z"/>
</g>

<g id="Layer0_0_MEMBER_2_MEMBER_1_MEMBER_25_MEMBER_0_FILL">
<path fill="#FFE35A" stroke="none" d="
M 69.85 283.05
Q 69.75 282.95 69.55 282.95
L 69.25 283.05 68.05 284.3
Q 67.75 284.6 68.05 284.9
L 69.3 286.1
Q 69.4 286.25 69.6 286.25 69.85 286.25 69.9 286.1
L 71.05 284.95
Q 71.4 284.6 71.05 284.25
L 69.85 283.05 Z"/>
</g>

<g id="Layer0_0_MEMBER_2_MEMBER_1_MEMBER_26_MEMBER_0_FILL">
<path fill="#FFDE17" stroke="none" d="
M 51.8 304.45
Q 51.8 304 51.4 303.7
L 50.15 302.7
Q 49.8 302.35 49.3 302.35 48.8 302.35 48.4 302.7
L 47.15 303.85
Q 46.8 304.2 46.8 304.65 46.8 305.15 47.15 305.45
L 48.15 306.3
Q 49.1 307 50.05 306.3
L 51.4 305.2
Q 51.8 304.9 51.8 304.45 Z"/>
</g>

<g id="Layer0_0_MEMBER_2_MEMBER_1_MEMBER_27_MEMBER_0_FILL">
<path fill="#FFE35A" stroke="none" d="
M 50.9 304.65
Q 51 304.6 51 304.45
L 50.95 304.3 50.9 304.3 49.65 303.25
Q 49.3 302.9 48.9 303.25
L 47.65 304.4 47.55 304.65
Q 47.55 304.8 47.65 304.9
L 48.65 305.75
Q 48.8 305.85 49.1 305.85 49.4 305.85 49.55 305.75
L 50.9 304.65 Z"/>
</g>

<g id="Layer0_0_MEMBER_2_MEMBER_1_MEMBER_28_MEMBER_0_FILL">
<path fill="#FFDE17" stroke="none" d="
M 80 274.95
L 79 273.85
Q 78.65 273.5 78.2 273.45 77.7 273.45 77.35 273.8
L 76.15 275
Q 75.8 275.4 75.8 275.9 75.8 276.4 76.15 276.75
L 77.2 277.9
Q 77.55 278.3 78.05 278.3 78.5 278.3 78.85 277.9
L 80 276.7
Q 80.35 276.35 80.35 275.85 80.35 275.35 80 274.95 Z"/>
</g>

<g id="Layer0_0_MEMBER_2_MEMBER_1_MEMBER_29_MEMBER_0_FILL">
<path fill="#FFE35A" stroke="none" d="
M 78.45 274.35
L 78.15 274.2 77.85 274.35 76.7 275.55
Q 76.35 275.9 76.7 276.25
L 77.8 277.4 78.05 277.5
Q 78.2 277.5 78.3 277.4
L 79.45 276.2
Q 79.85 275.85 79.45 275.45
L 78.45 274.35 Z"/>
</g>

<g id="Layer0_0_MEMBER_2_MEMBER_1_MEMBER_30_MEMBER_0_FILL">
<path fill="#FFDE17" stroke="none" d="
M 66.7 285.1
Q 66.2 285.1 65.85 285.45
L 64.65 286.65
Q 64.3 287 64.3 287.5 64.3 288 64.65 288.35
L 65.95 289.55
Q 66.3 289.9 66.8 289.9 67.3 289.9 67.65 289.55
L 68.8 288.35
Q 69.15 288 69.15 287.5 69.1 287 68.75 286.65
L 67.55 285.45
Q 67.2 285.1 66.7 285.1 Z"/>
</g>

<g id="Layer0_0_MEMBER_2_MEMBER_1_MEMBER_31_MEMBER_0_FILL">
<path fill="#FFE35A" stroke="none" d="
M 66.7 285.85
Q 66.5 285.85 66.4 286
L 65.2 287.2
Q 65.05 287.3 65.05 287.5 65.05 287.7 65.2 287.8
L 66.45 289
Q 66.8 289.35 67.1 289
L 68.25 287.85
Q 68.55 287.5 68.25 287.2
L 67 286
Q 66.9 285.85 66.7 285.85 Z"/>
</g>

<g id="Layer0_0_MEMBER_2_MEMBER_1_MEMBER_32_MEMBER_0_FILL">
<path fill="#FFDE17" stroke="none" d="
M 77.2 277.9
L 76.15 276.75
Q 75.8 276.4 75.3 276.4 74.85 276.4 74.45 276.75
L 73.3 277.95
Q 72.95 278.3 72.9 278.8 72.9 279.25 73.25 279.65
L 74.4 280.8
Q 74.75 281.15 75.25 281.2 75.7 281.2 76.05 280.85
L 77.2 279.65
Q 77.55 279.3 77.55 278.8 77.55 278.3 77.2 277.9 Z"/>
</g>

<g id="Layer0_0_MEMBER_2_MEMBER_1_MEMBER_33_MEMBER_0_FILL">
<path fill="#FFE35A" stroke="none" d="
M 75.3 277.1
L 75 277.25 73.8 278.45
Q 73.55 278.8 73.8 279.15
L 74.95 280.3 75.25 280.45
Q 75.45 280.45 75.5 280.3
L 76.65 279.1
Q 77.05 278.8 76.65 278.4
L 75.6 277.25 75.3 277.1 Z"/>
</g>

<g id="Layer0_0_MEMBER_2_MEMBER_1_MEMBER_34_MEMBER_0_FILL">
<path fill="#FFDE17" stroke="none" d="
M 72.45 279.3
Q 71.95 279.3 71.6 279.65
L 70.4 280.85
Q 70.05 281.2 70.05 281.7 70.05 282.2 70.4 282.55
L 71.6 283.75
Q 71.95 284.1 72.45 284.1 72.9 284.1 73.25 283.75
L 74.4 282.55
Q 74.75 282.2 74.75 281.7 74.75 281.2 74.4 280.8
L 73.25 279.65
Q 72.9 279.3 72.45 279.3 Z"/>
</g>

<g id="Layer0_0_MEMBER_2_MEMBER_1_MEMBER_35_MEMBER_0_FILL">
<path fill="#FFE35A" stroke="none" d="
M 72.75 280.15
L 72.45 280.05
Q 72.25 280.05 72.15 280.15
L 70.95 281.35
Q 70.6 281.7 70.95 282
L 72.1 283.25 72.4 283.35
Q 72.65 283.35 72.7 283.2
L 73.85 282.05
Q 74.25 281.65 73.85 281.35
L 72.75 280.15 Z"/>
</g>

<g id="Layer0_0_MEMBER_2_MEMBER_1_MEMBER_36_MEMBER_0_FILL">
<path fill="#FFDE17" stroke="none" d="
M 57.4 298.2
L 56.05 297
Q 55.7 296.65 55.15 296.7 54.65 296.7 54.3 297.05
L 53.1 298.25
Q 52.75 298.6 52.75 299.05 52.8 299.55 53.15 299.85
L 54.5 301.05
Q 54.9 301.35 55.35 301.35 55.85 301.35 56.2 301.05
L 57.45 299.85
Q 57.8 299.45 57.8 299 57.75 298.55 57.4 298.2 Z"/>
</g>

<g id="Layer0_0_MEMBER_2_MEMBER_1_MEMBER_37_MEMBER_0_FILL">
<path fill="#FFE35A" stroke="none" d="
M 57.05 299.05
L 56.9 298.75 55.55 297.55
Q 55.15 297.25 54.85 297.55
L 53.6 298.8
Q 53.5 298.85 53.5 299.05 53.5 299.2 53.6 299.3
L 54.95 300.45
Q 55.35 300.8 55.7 300.55
L 56.95 299.3 57.05 299.05 Z"/>
</g>

<g id="Layer0_0_MEMBER_2_MEMBER_1_MEMBER_38_MEMBER_0_FILL">
<path fill="#FFDE17" stroke="none" d="
M 53.15 299.85
Q 52.25 299.1 51.35 299.9
L 50.15 301.05
Q 49.8 301.4 49.8 301.9 49.8 302.35 50.15 302.7
L 51.4 303.7
Q 51.8 304 52.3 304 52.85 304 53.2 303.7
L 54.5 302.6
Q 54.9 302.25 54.9 301.8 54.9 301.35 54.5 301.05
L 53.15 299.85 Z"/>
</g>

<g id="Layer0_0_MEMBER_2_MEMBER_1_MEMBER_39_MEMBER_0_FILL">
<path fill="#FFE35A" stroke="none" d="
M 50.65 302.1
L 51.85 303.15
Q 52.35 303.45 52.75 303.1
L 54 302
Q 54.1 301.95 54.1 301.85 54.15 301.75 54 301.6
L 52.65 300.45
Q 52.3 300.1 51.9 300.45
L 50.65 301.6
Q 50.55 301.7 50.55 301.85 50.55 302 50.65 302.1 Z"/>
</g>

<g id="Layer0_0_MEMBER_2_MEMBER_1_MEMBER_40_MEMBER_0_FILL">
<path fill="#FFDE17" stroke="none" d="
M 57.2 294.15
L 56 295.35
Q 55.65 295.7 55.65 296.2 55.7 296.65 56.05 297
L 57.4 298.2
Q 57.75 298.55 58.3 298.5 58.8 298.5 59.15 298.15
L 60.3 297
Q 60.65 296.6 60.65 296.15 60.6 295.65 60.25 295.35
L 58.9 294.1
Q 58.55 293.75 58.05 293.8 57.55 293.8 57.2 294.15 Z"/>
</g>

<g id="Layer0_0_MEMBER_2_MEMBER_1_MEMBER_41_MEMBER_0_FILL">
<path fill="#FFE35A" stroke="none" d="
M 56.5 296.45
L 56.55 296.45 57.85 297.65
Q 58.35 297.95 58.6 297.6
L 59.8 296.45
Q 60.1 296.15 59.75 295.9
L 58.4 294.65
Q 58.05 294.35 57.7 294.7
L 56.5 295.9
Q 56.25 296.2 56.5 296.45 Z"/>
</g>

<g id="Layer0_0_MEMBER_2_MEMBER_1_MEMBER_42_MEMBER_0_FILL">
<path fill="#FFDE17" stroke="none" d="
M 60.1 291.25
L 58.9 292.45
Q 58.55 292.8 58.55 293.3 58.55 293.75 58.9 294.1
L 60.25 295.35
Q 60.65 295.65 61.15 295.65 61.65 295.65 62 295.3
L 63.15 294.1
Q 63.5 293.75 63.5 293.3 63.45 292.8 63.1 292.45
L 61.8 291.25
Q 61.45 290.9 60.95 290.9 60.45 290.9 60.1 291.25 Z"/>
</g>

<g id="Layer0_0_MEMBER_2_MEMBER_1_MEMBER_43_MEMBER_0_FILL">
<path fill="#FFE35A" stroke="none" d="
M 59.4 293.55
L 60.75 294.8
Q 61.2 295.1 61.45 294.75
L 62.6 293.6
Q 62.85 293.35 62.6 293
L 61.3 291.75
Q 60.95 291.45 60.6 291.8
L 59.4 293
Q 59.15 293.3 59.4 293.55 Z"/>
</g>

<g id="Layer0_0_MEMBER_2_MEMBER_1_MEMBER_44_MEMBER_0_FILL">
<path fill="#FFDE17" stroke="none" d="
M 66.3 290.4
Q 66.3 289.9 65.95 289.55
L 64.65 288.35
Q 64.3 288 63.8 288 63.35 288 62.95 288.35
L 61.75 289.55
Q 61.4 289.95 61.4 290.4 61.45 290.9 61.8 291.25
L 63.1 292.45
Q 63.5 292.8 63.95 292.8 64.45 292.75 64.8 292.4
L 65.95 291.25
Q 66.3 290.9 66.3 290.4 Z"/>
</g>

<g id="Layer0_0_MEMBER_2_MEMBER_1_MEMBER_45_MEMBER_0_FILL">
<path fill="#FFE35A" stroke="none" d="
M 62.3 290.7
L 63.6 291.9
Q 63.9 292.2 64.3 291.9
L 65.45 290.7
Q 65.75 290.45 65.4 290.1
L 64.15 288.9
Q 63.8 288.55 63.5 288.9
L 62.3 290.1
Q 62.05 290.35 62.3 290.7 Z"/>
</g>

<g id="Layer0_0_MEMBER_2_MEMBER_1_MEMBER_46_MEMBER_0_FILL">
<path fill="#FFDE17" stroke="none" d="
M 55.95 283.55
Q 55.6 283.9 55.6 284.4 55.6 284.95 55.95 285.3
L 57.15 286.6
Q 57.5 286.95 58 286.95 58.45 286.95 58.8 286.6
L 60 285.4
Q 60.35 285.05 60.4 284.55 60.4 284.1 60.05 283.7
L 58.8 282.45
Q 58.45 282.1 58 282.05 57.5 282.05 57.15 282.4
L 55.95 283.55 Z"/>
</g>

<g id="Layer0_0_MEMBER_2_MEMBER_1_MEMBER_47_MEMBER_0_FILL">
<path fill="#FFE35A" stroke="none" d="
M 59.5 284.25
L 58.25 282.95
Q 58 282.7 57.65 282.95
L 56.5 284.1
Q 56.35 284.2 56.35 284.45 56.35 284.65 56.45 284.75
L 57.7 286.1
Q 58 286.4 58.3 286.1
L 59.5 284.9
Q 59.8 284.5 59.5 284.25 Z"/>
</g>

<g id="Layer0_0_MEMBER_2_MEMBER_1_MEMBER_48_MEMBER_0_FILL">
<path fill="#FFDE17" stroke="none" d="
M 64.65 280.85
Q 64.3 281.2 64.25 281.7 64.25 282.15 64.6 282.55
L 65.85 283.75
Q 66.2 284.1 66.7 284.1 67.2 284.1 67.55 283.75
L 68.7 282.55
Q 69.1 282.2 69.1 281.7 69.1 281.2 68.7 280.85
L 67.55 279.65
Q 67.2 279.3 66.7 279.3 66.2 279.3 65.85 279.65
L 64.65 280.85 Z"/>
</g>

<g id="Layer0_0_MEMBER_2_MEMBER_1_MEMBER_49_MEMBER_0_FILL">
<path fill="#FFE35A" stroke="none" d="
M 65 281.7
Q 65 281.95 65.15 282
L 66.35 283.25 66.7 283.35 67 283.25 68.2 282
Q 68.5 281.7 68.2 281.4
L 67 280.2
Q 66.7 279.85 66.35 280.2
L 65.15 281.4
Q 65 281.5 65 281.7 Z"/>
</g>

<g id="Layer0_0_MEMBER_2_MEMBER_1_MEMBER_50_MEMBER_0_FILL">
<path fill="#FFDE17" stroke="none" d="
M 77.35 272.1
L 76.3 271.05
Q 75.95 270.7 75.45 270.7 74.95 270.7 74.55 271.05
L 73.35 272.25
Q 73 272.6 73 273.1 73 273.55 73.35 273.9
L 74.5 275
Q 74.85 275.4 75.35 275.4 75.8 275.4 76.15 275
L 77.35 273.8
Q 77.7 273.45 77.7 272.95 77.7 272.45 77.35 272.1 Z"/>
</g>

<g id="Layer0_0_MEMBER_2_MEMBER_1_MEMBER_51_MEMBER_0_FILL">
<path fill="#FFE35A" stroke="none" d="
M 75.45 271.45
Q 75.2 271.45 75.1 271.55
L 73.9 272.75 73.75 273.05
Q 73.75 273.3 73.9 273.35
L 75 274.5 75.3 274.65
Q 75.55 274.55 75.6 274.5
L 76.8 273.3
Q 77.15 272.95 76.8 272.6
L 75.75 271.55
Q 75.65 271.45 75.45 271.45 Z"/>
</g>

<g id="Layer0_0_MEMBER_2_MEMBER_1_MEMBER_52_MEMBER_0_FILL">
<path fill="#FFDE17" stroke="none" d="
M 65.85 283.75
L 64.6 282.55
Q 64.25 282.2 63.8 282.2 63.3 282.2 62.95 282.55
L 61.7 283.75
Q 61.35 284.1 61.35 284.6 61.35 285.05 61.7 285.4
L 62.95 286.65
Q 63.3 287 63.8 287 64.3 287 64.65 286.65
L 65.85 285.45
Q 66.2 285.1 66.2 284.6 66.2 284.1 65.85 283.75 Z"/>
</g>

<g id="Layer0_0_MEMBER_2_MEMBER_1_MEMBER_53_MEMBER_0_FILL">
<path fill="#FFE35A" stroke="none" d="
M 62.25 284.9
L 63.5 286.15
Q 63.8 286.45 64.1 286.15
L 65.3 284.95
Q 65.65 284.6 65.3 284.3
L 64.1 283.05
Q 63.75 282.75 63.45 283.05
L 62.25 284.25
Q 61.95 284.6 62.25 284.9 Z"/>
</g>

<g id="Layer0_0_MEMBER_2_MEMBER_1_MEMBER_54_MEMBER_0_FILL">
<path fill="#FFDE17" stroke="none" d="
M 71.95 278.8
Q 71.95 278.3 71.6 277.95
L 70.45 276.8
Q 70.1 276.45 69.6 276.45 69.1 276.45 68.75 276.8
L 67.55 277.95
Q 67.2 278.35 67.2 278.8 67.2 279.3 67.55 279.65
L 68.7 280.85
Q 69.1 281.2 69.55 281.2 70.05 281.2 70.4 280.85
L 71.6 279.65
Q 71.95 279.3 71.95 278.8 Z"/>
</g>

<g id="Layer0_0_MEMBER_2_MEMBER_1_MEMBER_55_MEMBER_0_FILL">
<path fill="#FFE35A" stroke="none" d="
M 71.05 279.1
Q 71.4 278.8 71.05 278.45
L 69.9 277.3
Q 69.6 277 69.25 277.3
L 68.05 278.5
Q 67.95 278.6 67.95 278.8 67.95 279.05 68.05 279.15
L 69.25 280.3 69.55 280.45
Q 69.75 280.45 69.9 280.3
L 71.05 279.1 Z"/>
</g>

<g id="Layer0_0_MEMBER_2_MEMBER_1_MEMBER_56_MEMBER_0_FILL">
<path fill="#FFDE17" stroke="none" d="
M 74.5 275
L 73.35 273.9
Q 73 273.55 72.5 273.55 72 273.55 71.65 273.9
L 70.45 275.1
Q 70.1 275.45 70.1 275.95 70.1 276.45 70.45 276.8
L 71.6 277.95
Q 71.95 278.3 72.45 278.3 72.95 278.3 73.3 277.95
L 74.45 276.75
Q 74.8 276.4 74.85 275.9 74.85 275.4 74.5 275 Z"/>
</g>

<g id="Layer0_0_MEMBER_2_MEMBER_1_MEMBER_57_MEMBER_0_FILL">
<path fill="#FFE35A" stroke="none" d="
M 70.95 276.25
L 72.15 277.4
Q 72.25 277.55 72.45 277.55
L 72.75 277.4 73.95 276.2
Q 74.25 275.85 73.95 275.55
L 72.85 274.45
Q 72.5 274.1 72.2 274.45
L 70.95 275.65 70.85 275.95 70.95 276.25 Z"/>
</g>

<g id="Layer0_0_MEMBER_2_MEMBER_1_MEMBER_58_MEMBER_0_FILL">
<path fill="#FFDE17" stroke="none" d="
M 60 285.4
L 58.8 286.6
Q 58.45 286.95 58.45 287.45 58.45 287.95 58.8 288.3
L 60.05 289.55
Q 60.45 289.95 60.9 289.95 61.4 289.95 61.75 289.55
L 62.95 288.35
Q 63.35 288 63.35 287.5 63.35 287.05 62.95 286.65
L 61.7 285.4
Q 61.35 285.05 60.85 285.05 60.4 285.05 60 285.4 Z"/>
</g>

<g id="Layer0_0_MEMBER_2_MEMBER_1_MEMBER_59_MEMBER_0_FILL">
<path fill="#FFE35A" stroke="none" d="
M 59.35 287.8
L 60.6 289.05
Q 60.9 289.35 61.25 289.05
L 62.45 287.85
Q 62.75 287.5 62.45 287.2
L 61.2 285.95
Q 60.85 285.6 60.55 285.95
L 59.35 287.15
Q 59 287.45 59.35 287.8 Z"/>
</g>

<g id="Layer0_0_MEMBER_2_MEMBER_1_MEMBER_60_MEMBER_0_FILL">
<path fill="#FFDE17" stroke="none" d="
M 60.05 289.55
L 58.8 288.3
Q 58.45 287.95 57.95 287.95 57.5 287.95 57.1 288.3
L 55.9 289.5
Q 55.55 289.85 55.55 290.35 55.55 290.85 55.9 291.2
L 57.2 292.45
Q 57.55 292.8 58.05 292.8 58.5 292.8 58.9 292.45
L 60.1 291.25
Q 60.45 290.9 60.45 290.4 60.4 289.9 60.05 289.55 Z"/>
</g>

<g id="Layer0_0_MEMBER_2_MEMBER_1_MEMBER_61_MEMBER_0_FILL">
<path fill="#FFE35A" stroke="none" d="
M 56.45 290.7
L 57.7 291.95
Q 58.05 292.25 58.35 291.95
L 59.55 290.75
Q 59.8 290.45 59.55 290.1
L 58.25 288.85
Q 57.95 288.5 57.65 288.8
L 56.45 290
Q 56.1 290.35 56.45 290.7 Z"/>
</g>

<g id="Layer0_0_MEMBER_2_MEMBER_1_MEMBER_62_MEMBER_0_FILL">
<path fill="#FFDE17" stroke="none" d="
M 48.4 301.05
L 47.3 300
Q 46.95 299.65 46.5 299.65 46 299.65 45.65 300
L 44.5 301.25
Q 44.15 301.6 44.15 302.1 44.15 302.65 44.5 303
L 45.4 303.85
Q 45.75 304.2 46.25 304.2 46.8 304.2 47.15 303.85
L 48.4 302.7
Q 48.8 302.35 48.8 301.9 48.8 301.4 48.4 301.05 Z"/>
</g>

<g id="Layer0_0_MEMBER_2_MEMBER_1_MEMBER_63_MEMBER_0_FILL">
<path fill="#FFE35A" stroke="none" d="
M 46.5 300.35
L 46.2 300.5 45.05 301.75
Q 44.75 302.15 45.05 302.45
L 45.9 303.35
Q 46.3 303.65 46.65 303.3
L 47.9 302.15
Q 48 302.05 48 301.9
L 47.9 301.6 46.75 300.5
Q 46.7 300.35 46.5 300.35 Z"/>
</g>

<g id="Layer0_0_MEMBER_2_MEMBER_1_MEMBER_64_MEMBER_0_FILL">
<path fill="#FFDE17" stroke="none" d="
M 51.75 299.1
Q 51.75 298.6 51.35 298.25
L 50.15 297
Q 49.8 296.65 49.35 296.65 48.85 296.65 48.5 297
L 47.3 298.25
Q 46.95 298.6 46.95 299.1 46.95 299.65 47.3 300
L 48.4 301.05
Q 48.8 301.4 49.3 301.4 49.8 301.4 50.15 301.05
L 51.35 299.9
Q 51.75 299.55 51.75 299.1 Z"/>
</g>

<g id="Layer0_0_MEMBER_2_MEMBER_1_MEMBER_65_MEMBER_0_FILL">
<path fill="#FFE35A" stroke="none" d="
M 50.85 299.35
Q 51 299.3 51 299.1
L 50.85 298.8 49.6 297.5 49.3 297.4 49 297.5 47.85 298.75
Q 47.45 299.15 47.85 299.45
L 48.9 300.55
Q 49.3 300.85 49.65 300.55
L 50.85 299.35 Z"/>
</g>

<g id="Layer0_0_MEMBER_2_MEMBER_1_MEMBER_66_MEMBER_0_FILL">
<path fill="#FFDE17" stroke="none" d="
M 55.1 290.85
Q 54.6 290.85 54.25 291.2
L 53.05 292.4
Q 52.7 292.75 52.65 293.25 52.65 293.7 53 294.1
L 54.3 295.35
Q 54.65 295.7 55.15 295.7 55.65 295.7 56 295.35
L 57.2 294.15
Q 57.55 293.8 57.55 293.3 57.55 292.85 57.2 292.45
L 55.9 291.2
Q 55.55 290.85 55.1 290.85 Z"/>
</g>

<g id="Layer0_0_MEMBER_2_MEMBER_1_MEMBER_67_MEMBER_0_FILL">
<path fill="#FFE35A" stroke="none" d="
M 54.8 294.85
Q 55.2 295.15 55.45 294.8
L 56.65 293.6
Q 57 293.35 56.65 293
L 55.35 291.7
Q 55.05 291.4 54.75 291.7
L 53.55 292.9
Q 53.25 293.3 53.55 293.6
L 54.8 294.85 Z"/>
</g>

<g id="Layer0_0_MEMBER_2_MEMBER_1_MEMBER_68_MEMBER_0_FILL">
<path fill="#FFDE17" stroke="none" d="
M 54.3 295.35
L 53 294.1
Q 52.65 293.75 52.2 293.75 51.7 293.75 51.35 294.1
L 50.15 295.3
Q 49.8 295.65 49.8 296.15 49.8 296.65 50.15 297
L 51.35 298.25
Q 51.75 298.6 52.25 298.6 52.75 298.6 53.1 298.25
L 54.3 297.05
Q 54.65 296.7 54.65 296.2 54.65 295.75 54.3 295.35 Z"/>
</g>

<g id="Layer0_0_MEMBER_2_MEMBER_1_MEMBER_69_MEMBER_0_FILL">
<path fill="#FFE35A" stroke="none" d="
M 53.8 296.5
L 53.9 296.2 53.75 295.9 52.45 294.6
Q 52.4 294.5 52.15 294.5 51.95 294.5 51.85 294.6
L 50.7 295.8
Q 50.35 296.15 50.65 296.5
L 51.9 297.7
Q 52.2 298.1 52.6 297.7
L 53.8 296.5 Z"/>
</g>

<g id="Layer0_0_MEMBER_2_MEMBER_1_MEMBER_70_MEMBER_0_FILL">
<path fill="#FFDE17" stroke="none" d="
M 74.55 271.05
Q 74.95 270.7 74.95 270.25 74.95 269.75 74.55 269.4
L 73.45 268.35
Q 73.1 268 72.55 268.05 72.05 268.05 71.65 268.4
L 70.45 269.55
Q 70.1 269.9 70.1 270.35 70.15 270.8 70.5 271.15
L 71.65 272.25
Q 72 272.6 72.5 272.6 73 272.6 73.35 272.25
L 74.55 271.05 Z"/>
</g>

<g id="Layer0_0_MEMBER_2_MEMBER_1_MEMBER_71_MEMBER_0_FILL">
<path fill="#FFE35A" stroke="none" d="
M 71 270.6
L 72.15 271.7
Q 72.5 272.05 72.85 271.7
L 74.05 270.5
Q 74.15 270.45 74.15 270.2 74.15 270 74.05 269.95
L 72.95 268.9
Q 72.55 268.6 72.2 268.95
L 71 270.05 70.85 270.35
Q 70.85 270.45 71 270.6 Z"/>
</g>

<g id="Layer0_0_MEMBER_2_MEMBER_1_MEMBER_72_MEMBER_0_FILL">
<path fill="#FFDE17" stroke="none" d="
M 80.4 265.3
Q 80.75 264.95 80.75 264.5 80.75 264 80.4 263.65
L 79.4 262.8
Q 79 262.45 78.45 262.5 77.95 262.5 77.6 262.85
L 76.35 263.95
Q 76 264.3 76 264.75 76.05 265.25 76.4 265.55
L 77.45 266.5
Q 77.85 266.85 78.35 266.85 78.85 266.85 79.2 266.5
L 80.4 265.3 Z"/>
</g>

<g id="Layer0_0_MEMBER_2_MEMBER_1_MEMBER_73_MEMBER_0_FILL">
<path fill="#FFE35A" stroke="none" d="
M 78.1 263.35
L 76.85 264.5 76.75 264.75 76.85 265 77.95 266
Q 78.35 266.3 78.7 265.95
L 79.9 264.8
Q 80 264.7 80 264.5 80 264.3 79.9 264.25
L 78.9 263.35
Q 78.5 263.05 78.1 263.35 Z"/>
</g>

<g id="Layer0_0_MEMBER_2_MEMBER_1_MEMBER_74_MEMBER_0_FILL">
<path fill="#FFDE17" stroke="none" d="
M 82.15 263.65
L 83.35 262.45
Q 83.7 262.1 83.7 261.65 83.7 261.15 83.3 260.85
L 82.35 260
Q 82 259.7 81.5 259.75 80.95 259.75 80.6 260.05
L 79.35 261.2
Q 78.95 261.55 79 262 79 262.45 79.4 262.8
L 80.4 263.65
Q 80.75 264 81.25 264 81.8 264 82.15 263.65 Z"/>
</g>

<g id="Layer0_0_MEMBER_2_MEMBER_1_MEMBER_75_MEMBER_0_FILL">
<path fill="#FFE35A" stroke="none" d="
M 81.6 263.1
L 82.85 261.9
Q 82.95 261.85 82.95 261.65 82.95 261.5 82.8 261.4
L 81.9 260.6
Q 81.55 260.25 81.1 260.6
L 79.85 261.75 79.75 262
Q 79.75 262.15 79.85 262.2
L 80.9 263.1
Q 81.25 263.45 81.6 263.1 Z"/>
</g>

<g id="Layer0_0_MEMBER_2_MEMBER_1_MEMBER_76_MEMBER_0_FILL">
<path fill="#FFDE17" stroke="none" d="
M 84.95 260.7
Q 85.25 260.6 86.4 259.55 86.75 259.25 86.7 258.8 86.7 258.35 86.3 258.05 85.85 257.65 85 257.4 84.05 257.1 83.7 257.35 83.45 257.55 82.4 258.4 81.6 259.25 82.35 260 83.6 261.35 84.95 260.7 Z"/>
</g>

<g id="Layer0_0_MEMBER_2_MEMBER_1_MEMBER_77_MEMBER_0_FILL">
<path fill="#FFE35A" stroke="none" d="
M 82.9 259.5
L 83 259.55
Q 83.6 260.2 84.15 260.2 84.75 260.15 85.65 259.25
L 85.9 259 85.95 258.85
Q 85.95 258.75 85.8 258.6 85.6 258.4 84.95 258.15 84.35 257.9 84.1 257.95
L 83.85 258.15
Q 82.8 259.05 82.75 259.2
L 82.9 259.5 Z"/>
</g>

<g id="Layer0_0_MEMBER_2_MEMBER_1_MEMBER_78_MEMBER_0_FILL">
<path fill="#FFDE17" stroke="none" d="
M 80.2 269.15
L 79.2 268.15
Q 78.85 267.8 78.35 267.8 77.85 267.8 77.5 268.15
L 76.3 269.35
Q 75.95 269.7 75.95 270.2 75.95 270.7 76.3 271.05
L 77.35 272.1
Q 77.7 272.45 78.2 272.45 78.65 272.45 79 272.1
L 80.2 270.9
Q 80.55 270.55 80.55 270.05 80.55 269.55 80.2 269.15 Z"/>
</g>

<g id="Layer0_0_MEMBER_2_MEMBER_1_MEMBER_79_MEMBER_0_FILL">
<path fill="#FFE35A" stroke="none" d="
M 76.8 270.5
L 77.9 271.6 78.2 271.7 78.5 271.6 79.65 270.35
Q 79.8 270.25 79.8 270.05 79.8 269.8 79.7 269.7
L 78.7 268.7
Q 78.4 268.4 78 268.7
L 76.8 269.9
Q 76.65 270 76.65 270.2
L 76.8 270.5 Z"/>
</g>

<g id="Layer0_0_MEMBER_2_MEMBER_1_MEMBER_80_MEMBER_0_FILL">
<path fill="#FFDE17" stroke="none" d="
M 70.5 271.15
Q 70.1 270.8 69.6 270.8 69.1 270.85 68.75 271.2
L 67.55 272.3
Q 67.2 272.65 67.2 273.15 67.2 273.6 67.55 273.95
L 68.75 275.1
Q 69.1 275.45 69.6 275.45 70.1 275.45 70.45 275.1
L 71.65 273.9
Q 72 273.55 72 273.1 72 272.6 71.65 272.25
L 70.5 271.15 Z"/>
</g>

<g id="Layer0_0_MEMBER_2_MEMBER_1_MEMBER_81_MEMBER_0_FILL">
<path fill="#FFE35A" stroke="none" d="
M 70 271.7
Q 69.65 271.4 69.25 271.7
L 68.05 272.85 67.95 273.15 68.05 273.4 69.25 274.55
Q 69.6 274.9 69.9 274.55
L 71.15 273.4 71.25 273.1 71.15 272.8 70 271.7 Z"/>
</g>

<g id="Layer0_0_MEMBER_2_MEMBER_1_MEMBER_82_MEMBER_0_FILL">
<path fill="#FFDE17" stroke="none" d="
M 73.4 266.75
Q 73.05 267.1 73.05 267.55 73.1 268 73.45 268.35
L 74.55 269.4
Q 75.4 270.15 76.3 269.35
L 77.5 268.15
Q 77.85 267.8 77.85 267.35 77.8 266.85 77.45 266.5
L 76.4 265.55
Q 75.5 264.8 74.6 265.6
L 73.4 266.75 Z"/>
</g>

<g id="Layer0_0_MEMBER_2_MEMBER_1_MEMBER_83_MEMBER_0_FILL">
<path fill="#FFE35A" stroke="none" d="
M 73.9 267.8
L 75.05 268.85
Q 75.4 269.1 75.75 268.85
L 76.95 267.65 77.1 267.35
Q 77.1 267.2 76.95 267.1
L 75.9 266.15
Q 75.55 265.8 75.15 266.15
L 73.9 267.3
Q 73.8 267.35 73.8 267.55 73.8 267.7 73.9 267.8 Z"/>
</g>

<g id="Layer0_0_MEMBER_2_MEMBER_1_MEMBER_84_MEMBER_0_FILL">
<path fill="#FFDE17" stroke="none" d="
M 85.95 263.3
L 85.05 262.45
Q 84.7 262.1 84.2 262.1 83.75 262.1 83.35 262.45
L 82.15 263.65
Q 81.8 264 81.8 264.5 81.8 264.95 82.15 265.3
L 83.1 266.25
Q 83.45 266.6 83.95 266.6 84.4 266.6 84.75 266.25
L 85.9 265.05
Q 86.25 264.7 86.3 264.2 86.3 263.7 85.95 263.3 Z"/>
</g>

<g id="Layer0_0_MEMBER_2_MEMBER_1_MEMBER_85_MEMBER_0_FILL">
<path fill="#FFE35A" stroke="none" d="
M 82.65 264.2
Q 82.55 264.25 82.55 264.45 82.5 264.6 82.65 264.75
L 83.65 265.75 83.9 265.85 84.2 265.75 85.4 264.5
Q 85.7 264.15 85.4 263.85
L 84.55 263
Q 84.25 262.6 83.85 263
L 82.65 264.2 Z"/>
</g>

<g id="Layer0_0_MEMBER_2_MEMBER_1_MEMBER_86_MEMBER_0_FILL">
<path fill="#FFDE17" stroke="none" d="
M 83.1 266.25
L 82.15 265.3
Q 81.8 264.95 81.3 264.95 80.8 264.95 80.4 265.3
L 79.2 266.5
Q 78.85 266.85 78.85 267.35 78.85 267.8 79.2 268.15
L 80.2 269.15
Q 80.55 269.5 81.05 269.55 81.5 269.55 81.9 269.2
L 83.05 267.95
Q 83.4 267.6 83.45 267.1 83.45 266.6 83.1 266.25 Z"/>
</g>

<g id="Layer0_0_MEMBER_2_MEMBER_1_MEMBER_87_MEMBER_0_FILL">
<path fill="#FFE35A" stroke="none" d="
M 81.05 268.8
L 81.35 268.65 82.55 267.45
Q 82.8 267.1 82.55 266.75
L 81.6 265.85
Q 81.5 265.7 81.3 265.7 81.05 265.7 80.95 265.85
L 79.7 267.05 79.6 267.3
Q 79.6 267.5 79.75 267.65
L 80.75 268.65 81.05 268.8 Z"/>
</g>

<g id="Layer0_0_MEMBER_2_MEMBER_1_MEMBER_88_MEMBER_0_FILL">
<path fill="#FFDE17" stroke="none" d="
M 84.9 256.35
Q 84.6 256.65 85.45 257.3 87.15 258.8 87.35 258.7
L 87.4 258.65 89.4 256.9
Q 89.75 256.55 89.8 256.15 89.85 255.7 89.55 255.45 89.2 255.15 88.4 254.9 87.5 254.65 87.1 254.9
L 84.9 256.35 Z"/>
</g>

<g id="Layer0_0_MEMBER_2_MEMBER_1_MEMBER_89_MEMBER_0_FILL">
<path fill="#FFE35A" stroke="none" d="
M 85.8 256.65
L 85.9 256.7 87.25 257.75 88.9 256.35
Q 89.15 256.1 89.05 256 88.85 255.85 88.3 255.65 87.7 255.45 87.5 255.5
L 85.8 256.65 Z"/>
</g>

<g id="Layer0_0_MEMBER_2_MEMBER_1_MEMBER_90_MEMBER_0_FILL">
<path fill="#FFDE17" stroke="none" d="
M 91.5 259
Q 92.25 258.1 91.65 257.4
L 90.95 256.75
Q 90.7 256.5 90.25 256.55 89.75 256.55 89.4 256.9
L 87.4 258.65 87.35 258.7
Q 87.15 258.8 88 259.55
L 88.8 260.4
Q 89.6 261.2 89.7 261.05
L 89.75 261 91.5 259 Z"/>
</g>

<g id="Layer0_0_MEMBER_2_MEMBER_1_MEMBER_91_MEMBER_0_FILL">
<path fill="#FFE35A" stroke="none" d="
M 88.5 259.05
L 89.55 260.1 90.9 258.5
Q 91.3 258.15 91.1 257.95
L 90.45 257.3
Q 90.25 257.1 89.85 257.45
L 88.3 258.8 88.5 259.05 Z"/>
</g>

<g id="Layer0_0_MEMBER_2_MEMBER_1_MEMBER_92_MEMBER_0_FILL">
<path fill="#FFDE17" stroke="none" d="
M 87.2 259.25
Q 86.75 259.25 86.4 259.55 85.95 259.95 85.4 261 84.75 262.15 85.05 262.45
L 85.95 263.3
Q 86.3 263.7 86.75 263.7 87.25 263.7 87.6 263.3
L 88.8 262
Q 89.15 261.65 89.15 261.2 89.15 260.75 88.8 260.4
L 88 259.55
Q 87.65 259.25 87.2 259.25 Z"/>
</g>

<g id="Layer0_0_MEMBER_2_MEMBER_1_MEMBER_93_MEMBER_0_FILL">
<path fill="#FFE35A" stroke="none" d="
M 86.9 260.1
Q 86.65 260.35 86.25 261 85.8 261.7 85.75 262.05
L 86.5 262.8
Q 86.6 262.9 86.75 262.9
L 87.05 262.8 88.25 261.5
Q 88.5 261.25 88.3 260.9
L 87.5 260.1
Q 87.2 259.8 86.9 260.1 Z"/>
</g>

<g id="Layer0_0_MEMBER_2_MEMBER_1_MEMBER_94_MEMBER_0_FILL">
<path fill="#FFDE17" stroke="none" d="
M 81.85 270.9
Q 81.5 270.55 81.05 270.55 80.55 270.55 80.2 270.9
L 79 272.1
Q 78.65 272.45 78.65 272.95 78.65 273.5 79 273.85
L 80 274.95
Q 80.35 275.35 80.85 275.35 81.3 275.35 81.65 274.95
L 82.8 273.75
Q 83.15 273.4 83.15 272.9 83.15 272.4 82.8 272
L 81.85 270.9 Z"/>
</g>

<g id="Layer0_0_MEMBER_2_MEMBER_1_MEMBER_95_MEMBER_0_FILL">
<path fill="#FFE35A" stroke="none" d="
M 81.1 274.45
L 82.25 273.25
Q 82.55 272.8 82.25 272.5
L 81.3 271.4 81 271.3
Q 80.85 271.3 80.75 271.4
L 79.55 272.6
Q 79.2 273 79.55 273.35
L 80.6 274.45 80.85 274.6 81.1 274.45 Z"/>
</g>

<g id="Layer0_0_MEMBER_2_MEMBER_1_MEMBER_96_MEMBER_0_FILL">
<path fill="#FFDE17" stroke="none" d="
M 52.35 304.9
Q 51.8 304.9 51.4 305.2
L 50.05 306.3
Q 49.65 306.6 49.65 307.05 49.7 307.45 50.1 307.75
L 51.4 308.55
Q 51.85 308.8 52.45 308.8 53.05 308.75 53.45 308.45
L 54.95 307.35
Q 55.35 307.1 55.3 306.7 55.3 306.3 54.85 306.1
L 53.3 305.15
Q 52.9 304.85 52.35 304.9 Z"/>
</g>

<g id="Layer0_0_MEMBER_2_MEMBER_1_MEMBER_97_MEMBER_0_FILL">
<path fill="#FFE35A" stroke="none" d="
M 51.75 307.9
Q 52.4 308.25 53 307.85
L 54.5 306.75 54.45 306.75 52.85 305.75
Q 52.4 305.4 51.85 305.8
L 50.5 306.9 50.4 307 50.5 307.1 51.75 307.9 Z"/>
</g>

<g id="Layer0_0_MEMBER_2_MEMBER_1_MEMBER_98_MEMBER_0_FILL">
<path fill="#FFDE17" stroke="none" d="
M 44.95 310
L 44.7 310.1
Q 41.4546875 311.6015625 39.2 309.5 42.97265625 313.1822265625 46.8 312.25
L 47.6 311.95
Q 48.05 311.75 48.1 311.45 48.1 311.15 47.7 310.9 47.1 310.55 46.3 310.25 45.2 309.8 44.95 310 Z"/>
</g>

<g id="Layer0_0_MEMBER_2_MEMBER_1_MEMBER_99_MEMBER_0_FILL">
<path fill="#FFE35A" stroke="none" d="
M 43.35 311.35
Q 45.1 311.9 46.65 311.5
L 47.1 311.4
Q 45.8 310.7 45.2 310.7
L 45 310.8
Q 44.45 311.05 43.35 311.35 Z"/>
</g>

<g id="Layer0_0_MEMBER_2_MEMBER_1_MEMBER_100_MEMBER_0_FILL">
<path fill="#FFDE17" stroke="none" d="
M 51.85 309.2
Q 51.85 308.8 51.4 308.55
L 50.1 307.75
Q 49.7 307.45 49.1 307.45 48.55 307.5 48.15 307.75
L 46.7 308.85
Q 46.3 309.1 46.3 309.55 46.3 309.95 46.7 310.2
L 47.7 310.9
Q 48.1 311.15 48.7 311.1 49.3 311.1 49.7 310.85
L 51.45 309.8
Q 51.85 309.55 51.85 309.2 Z"/>
</g>

<g id="Layer0_0_MEMBER_2_MEMBER_1_MEMBER_101_MEMBER_0_FILL">
<path fill="#FFE35A" stroke="none" d="
M 49.65 308.35
Q 49.45 308.2 49.15 308.2 48.8 308.2 48.6 308.4
L 47.1 309.45 47.05 309.5 47.05 309.55 47.1 309.6 48.1 310.25
Q 48.7 310.55 49.35 310.2
L 51 309.2 49.65 308.35 Z"/>
</g>

<g id="Layer0_0_MEMBER_2_MEMBER_1_MEMBER_102_MEMBER_0_FILL">
<path fill="#FFDE17" stroke="none" d="
M 55.45 302.25
Q 54.9 302.25 54.5 302.6
L 53.2 303.7
Q 52.85 304 52.85 304.45 52.9 304.85 53.3 305.15
L 54.85 306.1
Q 55.3 306.35 55.9 306.3 56.5 306.25 56.85 305.95
L 58.15 304.85
Q 58.55 304.55 58.5 304.15 58.45 303.75 58 303.55
L 56.4 302.5
Q 56 302.2 55.45 302.25 Z"/>
</g>

<g id="Layer0_0_MEMBER_2_MEMBER_1_MEMBER_103_MEMBER_0_FILL">
<path fill="#FFE35A" stroke="none" d="
M 53.65 304.5
L 53.7 304.5 55.2 305.45
Q 55.8 305.75 56.4 305.35
L 57.7 304.3 57.75 304.25 55.95 303.1
Q 55.5 302.75 55 303.15
L 53.7 304.25 53.6 304.4 53.65 304.5 Z"/>
</g>

<g id="Layer0_0_MEMBER_2_MEMBER_1_MEMBER_104_MEMBER_0_FILL">
<path fill="#FFDE17" stroke="none" d="
M 60.8 300.8
Q 61.85 301.3 62.7 300.55
L 63.7 299.5
Q 64.05 299.15 64 298.7 63.95 298.25 63.55 298 62.95 297.6 61.9 297.2 60.6 296.65 60.3 297
L 59.15 298.15
Q 58.8 298.5 58.85 298.95 58.9 299.4 59.25 299.7
L 60.8 300.8 Z"/>
</g>

<g id="Layer0_0_MEMBER_2_MEMBER_1_MEMBER_105_MEMBER_0_FILL">
<path fill="#FFE35A" stroke="none" d="
M 63.15 298.6
Q 61.75 297.7 60.75 297.6
L 59.7 298.65
Q 59.5 298.9 59.65 299.05
L 59.7 299.1
Q 60 299.3 61.2 300.15 61.4 300.25 61.7 300.25 62 300.2 62.15 300
L 63.2 299
Q 63.3 298.8 63.15 298.65
L 63.15 298.6 Z"/>
</g>

<g id="Layer0_0_MEMBER_2_MEMBER_1_MEMBER_106_MEMBER_0_FILL">
<path fill="#FFDE17" stroke="none" d="
M 61 302.25
Q 61.35 301.85 61.3 301.45 61.25 301 60.8 300.8 60.15 300.4 59.1 300 57.75 299.5 57.45 299.85
L 56.2 301.05
Q 55.85 301.35 55.95 301.8 56 302.2 56.4 302.5
L 58 303.55
Q 59.1 304.1 59.35 303.85
L 61 302.25 Z"/>
</g>

<g id="Layer0_0_MEMBER_2_MEMBER_1_MEMBER_107_MEMBER_0_FILL">
<path fill="#FFE35A" stroke="none" d="
M 57.9 300.45
L 56.7 301.6 56.65 301.7 56.8 301.85 58.35 302.9 59 303.15 60.45 301.7
Q 60.55 301.65 60.55 301.55
L 60.45 301.45
Q 58.7 300.45 57.9 300.45 Z"/>
</g>

<g id="Layer0_0_MEMBER_2_MEMBER_1_MEMBER_108_MEMBER_0_FILL">
<path fill="#FFDE17" stroke="none" d="
M 40.55 305.65
Q 40.7 305.45 40.6 305.1 40.55 304.7 40.2 304.35 39.85 303.9 39.25 303.55 38.55 303.15 38.4 303.45
L 38.25 303.7
Q 36.7560546875 307.036328125 39 309.3 38.2751953125 308.518359375 40.4 305.85
L 40.55 305.65 Z"/>
</g>

<g id="Layer0_0_MEMBER_2_MEMBER_1_MEMBER_109_MEMBER_0_FILL">
<path fill="#FFE35A" stroke="none" d="
M 38.6 307.2
Q 39.55 305.75 39.8 305.35
L 39.9 305.25 39.65 304.8 39.6 304.75
Q 39.2 304.35 38.85 304.2 38.15 305.9 38.6 307.2 Z"/>
</g>

<g id="Layer0_0_MEMBER_2_MEMBER_1_MEMBER_110_MEMBER_0_FILL">
<path fill="#FFDE17" stroke="none" d="
M 39.2 296.55
Q 38.85 296.55 38.6 296.95
L 37.55 298.65
Q 37.3 299.1 37.3 299.7 37.25 300.25 37.5 300.65 37.75 301.15 38.5 301.6 39.3 302.1 39.55 301.7
L 40.6 300.25
Q 40.9 299.85 40.9 299.3 40.9 298.7 40.65 298.3
L 39.8 297
Q 39.6 296.55 39.2 296.55 Z"/>
</g>

<g id="Layer0_0_MEMBER_2_MEMBER_1_MEMBER_111_MEMBER_0_FILL">
<path fill="#FFE35A" stroke="none" d="
M 38.3 300.5
L 39.1 301.05 40 299.8
Q 40.4 299.2 40 298.7
L 39.2 297.4 38.2 299.05
Q 38.05 299.3 38.05 299.7 38 300.1 38.15 300.3
L 38.3 300.5 Z"/>
</g>

<g id="Layer0_0_MEMBER_2_MEMBER_1_MEMBER_112_MEMBER_0_FILL">
<path fill="#FFDE17" stroke="none" d="
M 38.9 309.2
Q 36.796875 306.9453125 38.25 303.7
L 38.4 303.45
Q 38.85 302.65 38.15 301.7
L 37.5 300.65
Q 37.3 300.3 36.95 300.3 36.65 300.35 36.4 300.75
L 36.15 301.55
Q 35.168359375 305.3783203125 38.9 309.2 Z"/>
</g>

<g id="Layer0_0_MEMBER_2_MEMBER_1_MEMBER_113_MEMBER_0_FILL">
<path fill="#FFE35A" stroke="none" d="
M 37.05 305
Q 37.2 304.3 37.6 303.4
L 37.75 303.1 37.75 303.05
Q 37.95 302.7 37.55 302.15
L 37 301.3 36.85 301.75
Q 36.5 303.4 37.05 305 Z"/>
</g>

<g id="Layer0_0_MEMBER_2_MEMBER_1_MEMBER_114_MEMBER_0_FILL">
<path fill="#FFDE17" stroke="none" d="
M 42.7 307.85
L 42.55 307.95
Q 39.821484375 310.083203125 39.05 309.35 41.35859375 311.64609375 44.7 310.1
L 44.95 310
Q 45.25 309.75 45.25 309.45 45.25 309.1 44.9 308.85 43.05 307.55 42.7 307.85 Z"/>
</g>

<g id="Layer0_0_MEMBER_2_MEMBER_1_MEMBER_115_MEMBER_0_FILL">
<path fill="#FFE35A" stroke="none" d="
M 41.15 309.8
Q 42.55 310.25 44.35 309.45
L 44.4 309.4
Q 43.55 308.8 42.95 308.6 42.2 309.25 41.15 309.8 Z"/>
</g>

<g id="Layer0_0_MEMBER_2_MEMBER_1_MEMBER_116_MEMBER_0_FILL">
<path fill="#FFDE17" stroke="none" d="
M 41.05 305.55
Q 40.7 305.45 40.55 305.65
L 40.4 305.85
Q 38.25 308.55 39.05 309.35 39.8 310.1 42.55 307.95
L 42.7 307.85
Q 43.2 307.45 42.45 306.7
L 41.65 305.95
Q 41.4 305.6 41.05 305.55 Z"/>
</g>

<g id="Layer0_0_MEMBER_2_MEMBER_1_MEMBER_117_MEMBER_0_FILL">
<path fill="#FFE35A" stroke="none" d="
M 42.05 307.4
L 41 306.3
Q 39.6 308.05 39.6 308.8 40.55 308.55 42.05 307.4 Z"/>
</g>

<g id="Layer0_0_MEMBER_2_MEMBER_1_MEMBER_118_MEMBER_0_FILL">
<path fill="#FFDE17" stroke="none" d="
M 63.15 294.1
L 62 295.3
Q 61.65 295.65 61.7 296.1 61.7 296.55 62.1 296.9
L 63.55 298
Q 63.95 298.25 64.5 298.2 65.05 298.15 65.4 297.8
L 66.4 296.75
Q 66.75 296.4 66.7 295.95 66.7 295.5 66.3 295.2 65.8 294.8 64.7 294.35 63.45 293.8 63.15 294.1 Z"/>
</g>

<g id="Layer0_0_MEMBER_2_MEMBER_1_MEMBER_119_MEMBER_0_FILL">
<path fill="#FFE35A" stroke="none" d="
M 62.5 296.25
L 62.55 296.3 64 297.4
Q 64.15 297.5 64.45 297.5 64.7 297.45 64.85 297.25
L 65.85 296.25
Q 66.1 296.05 65.85 295.8 65.5 295.55 64.7 295.15 63.9 294.8 63.55 294.75
L 62.5 295.8
Q 62.3 296.05 62.5 296.25 Z"/>
</g>

<g id="Layer0_0_MEMBER_2_MEMBER_1_MEMBER_120_MEMBER_0_FILL">
<path fill="#FFDE17" stroke="none" d="
M 74.4 282.55
L 73.25 283.75
Q 72.9 284.1 72.9 284.6 72.9 285.1 73.25 285.45
L 74.45 286.7
Q 74.8 287.05 75.3 287.05 75.75 287 76.1 286.65
L 77.1 285.6
Q 77.45 285.2 77.45 284.7 77.5 284.2 77.15 283.85 76.8 283.4 75.8 282.85 74.7 282.25 74.4 282.55 Z"/>
</g>

<g id="Layer0_0_MEMBER_2_MEMBER_1_MEMBER_121_MEMBER_0_FILL">
<path fill="#FFE35A" stroke="none" d="
M 76.55 284.3
Q 76.25 284 75.7 283.6 75.1 283.3 74.8 283.2
L 73.8 284.25
Q 73.45 284.6 73.8 284.95
L 75 286.2
Q 75.1 286.3 75.25 286.3
L 75.55 286.15 76.55 285.05
Q 76.95 284.7 76.55 284.3 Z"/>
</g>

<g id="Layer0_0_MEMBER_2_MEMBER_1_MEMBER_122_MEMBER_0_FILL">
<path fill="#FFDE17" stroke="none" d="
M 85.25 275.05
Q 84.9 274.6 84.05 274.05 83.1 273.45 82.8 273.75
L 81.65 274.95
Q 81.3 275.35 81.3 275.85 81.25 276.4 81.6 276.75
L 82.55 278
Q 82.85 278.4 83.3 278.4 83.7 278.45 84.05 278.05
L 85.1 276.9
Q 85.45 276.55 85.5 276 85.5 275.45 85.25 275.05 Z"/>
</g>

<g id="Layer0_0_MEMBER_2_MEMBER_1_MEMBER_123_MEMBER_0_FILL">
<path fill="#FFE35A" stroke="none" d="
M 83.15 277.55
L 83.2 277.6 83.3 277.65
Q 83.45 277.65 83.5 277.55
L 84.55 276.4
Q 84.95 276 84.65 275.5
L 84.5 275.3
Q 83.65 274.55 83.2 274.45
L 82.2 275.5
Q 81.8 275.9 82.15 276.3
L 83.15 277.55 Z"/>
</g>

<g id="Layer0_0_MEMBER_2_MEMBER_1_MEMBER_124_MEMBER_0_FILL">
<path fill="#FFDE17" stroke="none" d="
M 85.55 270.8
L 84.4 272
Q 84.05 272.35 84.05 272.9 84.05 273.45 84.35 273.85
L 85.25 275.05
Q 85.5 275.45 85.95 275.5 86.35 275.5 86.7 275.15
L 87.75 273.95
Q 88.1 273.55 88.15 273 88.2 272.45 87.95 272.05 87.6 271.55 86.8 271.05 85.85 270.45 85.55 270.8 Z"/>
</g>

<g id="Layer0_0_MEMBER_2_MEMBER_1_MEMBER_125_MEMBER_0_FILL">
<path fill="#FFE35A" stroke="none" d="
M 85.9 274.65
L 85.9 274.7 86 274.75 86.15 274.65 87.2 273.45
Q 87.7 272.95 87.3 272.5
L 87.15 272.3
Q 86.55 271.7 85.95 271.45
L 84.95 272.55
Q 84.6 272.9 84.9 273.35
L 85.9 274.65 Z"/>
</g>

<g id="Layer0_0_MEMBER_2_MEMBER_1_MEMBER_126_MEMBER_0_FILL">
<path fill="#FFDE17" stroke="none" d="
M 90.6 269
Q 90.3 268.55 89.5 268.05 88.6 267.45 88.3 267.8
L 87.15 269.05
Q 86.85 269.4 86.85 269.95 86.8 270.5 87.1 270.85
L 87.95 272.05
Q 88.2 272.45 88.6 272.5 89 272.55 89.35 272.15
L 90.4 270.9
Q 90.75 270.5 90.8 269.95 90.85 269.4 90.6 269 Z"/>
</g>

<g id="Layer0_0_MEMBER_2_MEMBER_1_MEMBER_127_MEMBER_0_FILL">
<path fill="#FFE35A" stroke="none" d="
M 87.7 269.55
Q 87.55 269.7 87.55 270 87.55 270.25 87.7 270.4
L 88.55 271.65 88.65 271.75
Q 88.75 271.75 88.8 271.65
L 89.85 270.4
Q 90.3 269.85 89.95 269.4
L 89.8 269.2
Q 89.3 268.7 88.7 268.45
L 87.7 269.55 Z"/>
</g>

<g id="Layer0_0_MEMBER_2_MEMBER_1_MEMBER_128_MEMBER_0_FILL">
<path fill="#FFDE17" stroke="none" d="
M 89.8 267.85
L 90.6 269
Q 90.85 269.4 91.25 269.45 91.65 269.45 91.95 269.05
L 93.05 267.75
Q 93.75 266.8 93.2 265.8
L 92.5 264.75
Q 92.2 264.4 91.8 264.35 91.35 264.3 91.05 264.65 90.65 265.15 90.15 266.25 89.55 267.5 89.8 267.85 Z"/>
</g>

<g id="Layer0_0_MEMBER_2_MEMBER_1_MEMBER_129_MEMBER_0_FILL">
<path fill="#FFE35A" stroke="none" d="
M 90.9 266.35
Q 90.5 267.2 90.5 267.5
L 91.25 268.65 91.25 268.65 91.4 268.6 92.45 267.25
Q 92.9 266.75 92.55 266.2
L 91.85 265.2 91.8 265.15 91.7 265.1 91.6 265.15
Q 91.3 265.55 90.9 266.35 Z"/>
</g>

<g id="Layer0_0_MEMBER_2_MEMBER_1_MEMBER_130_MEMBER_0_FILL">
<path fill="#FFDE17" stroke="none" d="
M 68.8 288.35
L 67.65 289.55
Q 67.3 289.9 67.3 290.4 67.35 290.85 67.7 291.2
L 69.05 292.4
Q 69.4 292.7 69.9 292.65 70.4 292.6 70.75 292.25
L 71.75 291.2
Q 72.1 290.85 72.1 290.4 72.1 289.9 71.75 289.55 71.3 289.1 70.3 288.6 69.1 288.05 68.8 288.35 Z"/>
</g>

<g id="Layer0_0_MEMBER_2_MEMBER_1_MEMBER_131_MEMBER_0_FILL">
<path fill="#FFE35A" stroke="none" d="
M 68.2 290.6
L 68.2 290.65 69.5 291.8
Q 69.85 292.1 70.2 291.75
L 71.2 290.7
Q 71.55 290.4 71.25 290.1 71 289.85 70.3 289.45 69.55 289.1 69.2 289
L 68.15 290.05
Q 67.85 290.35 68.2 290.6 Z"/>
</g>

<g id="Layer0_0_MEMBER_2_MEMBER_1_MEMBER_132_MEMBER_0_FILL">
<path fill="#FFDE17" stroke="none" d="
M 70.1 287.5
Q 70.15 288 70.5 288.35
L 71.75 289.55
Q 72.1 289.9 72.6 289.85 73.05 289.85 73.4 289.5
L 74.45 288.4
Q 74.8 288.05 74.8 287.55 74.8 287.05 74.45 286.7 74 286.25 73.05 285.75 71.9 285.15 71.6 285.45
L 70.45 286.65
Q 70.1 287 70.1 287.5 Z"/>
</g>

<g id="Layer0_0_MEMBER_2_MEMBER_1_MEMBER_133_MEMBER_0_FILL">
<path fill="#FFE35A" stroke="none" d="
M 71 287.8
L 72.25 289
Q 72.55 289.3 72.85 288.95
L 73.9 287.9
Q 74.2 287.5 73.9 287.2 73.65 286.95 73 286.55 72.35 286.2 72 286.1
L 71 287.15
Q 70.7 287.5 71 287.8 Z"/>
</g>

<g id="Layer0_0_MEMBER_2_MEMBER_1_MEMBER_134_MEMBER_0_FILL">
<path fill="#FFDE17" stroke="none" d="
M 82.55 278
Q 82.25 277.55 81.3 277 80.3 276.4 80 276.7
L 78.85 277.9
Q 78.5 278.25 78.5 278.8 78.5 279.3 78.8 279.65
L 79.85 280.95
Q 80.15 281.35 80.6 281.35 81.05 281.35 81.4 280.95
L 82.45 279.85
Q 82.8 279.5 82.8 278.95 82.85 278.4 82.55 278 Z"/>
</g>

<g id="Layer0_0_MEMBER_2_MEMBER_1_MEMBER_135_MEMBER_0_FILL">
<path fill="#FFE35A" stroke="none" d="
M 81.9 279.35
Q 82.3 278.85 81.95 278.45
L 81.85 278.35
Q 81.15 277.55 80.4 277.35
L 79.4 278.4
Q 79.05 278.75 79.35 279.2
L 80.45 280.45 80.5 280.5 80.65 280.55
Q 80.8 280.55 80.85 280.45
L 81.9 279.35 Z"/>
</g>

<g id="Layer0_0_MEMBER_2_MEMBER_1_MEMBER_136_MEMBER_0_FILL">
<path fill="#FFDE17" stroke="none" d="
M 64.8 292.4
Q 64.45 292.8 64.5 293.25 64.55 293.7 64.9 294.05
L 66.3 295.2
Q 66.65 295.5 67.2 295.45 67.7 295.4 68.05 295.05
L 69.1 294
Q 69.45 293.65 69.4 293.15 69.4 292.7 69.05 292.4 68.55 291.95 67.5 291.45 66.3 290.9 65.95 291.25
L 64.8 292.4 Z"/>
</g>

<g id="Layer0_0_MEMBER_2_MEMBER_1_MEMBER_137_MEMBER_0_FILL">
<path fill="#FFE35A" stroke="none" d="
M 65.35 292.95
Q 65.1 293.2 65.35 293.45
L 65.4 293.45
Q 65.4 293.65 66.75 294.6 67.2 294.95 67.55 294.5
L 68.55 293.5
Q 68.8 293.2 68.55 292.95 68.25 292.7 67.5 292.3 66.75 291.95 66.4 291.9
L 65.35 292.95 Z"/>
</g>

<g id="Layer0_0_MEMBER_2_MEMBER_1_MEMBER_138_MEMBER_0_FILL">
<path fill="#FFDE17" stroke="none" d="
M 79.85 280.95
Q 79.45 280.45 78.55 279.95 77.5 279.3 77.2 279.65
L 76.05 280.85
Q 75.7 281.2 75.7 281.7 75.7 282.2 76.05 282.55
L 77.15 283.85
Q 77.5 284.2 77.95 284.2 78.4 284.2 78.75 283.85
L 79.75 282.7
Q 80.1 282.35 80.1 281.85 80.15 281.35 79.85 280.95 Z"/>
</g>

<g id="Layer0_0_MEMBER_2_MEMBER_1_MEMBER_139_MEMBER_0_FILL">
<path fill="#FFE35A" stroke="none" d="
M 79.3 281.4
L 79.2 281.3
Q 78.45 280.55 77.6 280.3
L 76.6 281.35
Q 76.25 281.7 76.6 282.05
L 77.75 283.35 77.95 283.45
Q 78.05 283.45 78.2 283.3
L 79.25 282.2
Q 79.6 281.85 79.3 281.4 Z"/>
</g>

<g id="Layer0_0_MEMBER_2_MEMBER_1_MEMBER_140_MEMBER_0_FILL">
<path fill="#FFDE17" stroke="none" d="
M 39.95 294.95
Q 39.65 295.35 39.6 295.95 39.55 296.55 39.8 297
L 40.65 298.3
Q 40.9 298.7 41.35 298.7 41.75 298.75 42.05 298.35
L 43.15 297
Q 43.5 296.65 43.5 296.05 43.5 295.5 43.25 295.1
L 42.25 293.55
Q 42.05 293.1 41.65 293.05 41.3 293.05 41 293.45
L 39.95 294.95 Z"/>
</g>

<g id="Layer0_0_MEMBER_2_MEMBER_1_MEMBER_141_MEMBER_0_FILL">
<path fill="#FFE35A" stroke="none" d="
M 42.6 296.5
Q 42.75 296.3 42.75 296 42.75 295.7 42.6 295.5
L 41.6 293.9 40.55 295.4
Q 40.1 295.95 40.45 296.6
L 41.25 297.85 41.3 297.95 41.35 297.95 41.5 297.9 42.6 296.5 Z"/>
</g>

<g id="Layer0_0_MEMBER_2_MEMBER_1_MEMBER_142_MEMBER_0_FILL">
<path fill="#FFDE17" stroke="none" d="
M 85.95 253.05
Q 84.95 252.8 84.55 253
L 82.65 253.9 82.4 254.05
Q 82.05 254.25 82.1 254.6 82.15 254.95 82.55 255.2 84.8 256.45 84.9 256.35
L 87.1 254.9
Q 87.55 254.65 87.6 254.25 87.65 253.85 87.25 253.6 86.85 253.3 85.95 253.05 Z"/>
</g>

<g id="Layer0_0_MEMBER_2_MEMBER_1_MEMBER_143_MEMBER_0_FILL">
<path fill="#FFE35A" stroke="none" d="
M 83 254.6
L 84.75 255.55 86.7 254.25 86.8 254.2
Q 86.55 254 85.8 253.8 85.05 253.6 84.85 253.65
L 83 254.6 Z"/>
</g>

<g id="Layer0_0_MEMBER_2_MEMBER_1_MEMBER_144_MEMBER_0_FILL">
<path fill="#FFDE17" stroke="none" d="
M 91.85 252.6
L 89.2 253.7
Q 88.75 253.95 88.65 254.25 88.55 254.6 88.85 254.85 89.25 255.15 90 255.4 90.9 255.65 91.25 255.35 92.25 254.55 93.3 253.8 95.391796875 252.3556640625 95.7 252.65 94.746484375 251.701171875 91.85 252.6 Z"/>
</g>

<g id="Layer0_0_MEMBER_2_MEMBER_1_MEMBER_145_MEMBER_0_FILL">
<path fill="#FFE35A" stroke="none" d="
M 89.55 254.35
L 89.5 254.4
Q 90.3 254.8 90.75 254.8 91.85 253.85 93.05 253.05 91.45 253.4 89.55 254.35 Z"/>
</g>

<g id="Layer0_0_MEMBER_2_MEMBER_1_MEMBER_146_MEMBER_0_FILL">
<path fill="#FFDE17" stroke="none" d="
M 93.3 253.8
Q 92.25 254.55 91.25 255.35 90.85 255.7 90.75 256.1 90.7 256.5 90.95 256.75
L 91.65 257.4
Q 91.9 257.7 92.3 257.6 92.7 257.55 93 257.15 96.2 253.15 95.7 252.65 95.4 252.35 93.3 253.8 Z"/>
</g>

<g id="Layer0_0_MEMBER_2_MEMBER_1_MEMBER_147_MEMBER_0_FILL">
<path fill="#FFE35A" stroke="none" d="
M 91.5 256.2
L 92.15 256.9 92.45 256.7
Q 93.65 255.2 94.4 253.95 93.75 254.35 91.7 255.95 91.5 256.1 91.5 256.2 Z"/>
</g>

<g id="Layer0_0_MEMBER_2_MEMBER_1_MEMBER_148_MEMBER_0_FILL">
<path fill="#FFDE17" stroke="none" d="
M 95.65 252.6
Q 93.966796875 250.953515625 90.2 251.35
L 86.75 252.1
Q 86.25 252.25 86.2 252.5 86.1 252.75 86.45 253 86.9 253.3 87.75 253.6 88.8 253.9 89.2 253.7
L 91.85 252.6
Q 94.7046875 251.7140625 95.65 252.6 Z"/>
</g>

<g id="Layer0_0_MEMBER_2_MEMBER_1_MEMBER_149_MEMBER_0_FILL">
<path fill="#FFE35A" stroke="none" d="
M 87.4 252.65
Q 88.5 253.15 88.85 253.05 89.65 252.6 91.15 252.05 89.35 252.1 87.4 252.65 Z"/>
</g>

<g id="Layer0_0_MEMBER_2_MEMBER_1_MEMBER_150_MEMBER_0_FILL">
<path fill="#FFDE17" stroke="none" d="
M 88.35 266
Q 88 265.55 87.15 265.15 86.25 264.7 85.9 265.05
L 84.75 266.25
Q 84.4 266.6 84.4 267.1 84.35 267.65 84.7 268
L 85.6 269
Q 85.9 269.35 86.4 269.4 86.85 269.4 87.15 269.05
L 88.3 267.8
Q 88.65 267.4 88.65 266.9 88.7 266.35 88.35 266 Z"/>
</g>

<g id="Layer0_0_MEMBER_2_MEMBER_1_MEMBER_151_MEMBER_0_FILL">
<path fill="#FFE35A" stroke="none" d="
M 85.25 267.5
L 86.2 268.55 86.4 268.65 86.6 268.55 87.75 267.3
Q 88.15 266.9 87.75 266.45 87.05 265.75 86.35 265.65
L 85.25 266.75
Q 84.95 267.15 85.25 267.5 Z"/>
</g>

<g id="Layer0_0_MEMBER_2_MEMBER_1_MEMBER_152_MEMBER_0_FILL">
<path fill="#FFDE17" stroke="none" d="
M 82.15 258.4
Q 82.65 258.2 83.7 257.35 84.1 257.05 84.05 256.65 84 256.2 83.6 255.9 83.1 255.5 82.55 255.2 82.2 254.95 81.6 255 81.05 255.05 80.65 255.35
L 79.3 256.4
Q 78.5 257.1 79.35 257.8 80.7 258.9 82.15 258.4 Z"/>
</g>

<g id="Layer0_0_MEMBER_2_MEMBER_1_MEMBER_153_MEMBER_0_FILL">
<path fill="#FFE35A" stroke="none" d="
M 81.6 257.75
Q 82.25 257.65 83.1 256.9
L 83.25 256.75 83.3 256.65 83.25 256.55 83.2 256.5 82.15 255.85
Q 81.7 255.5 81.1 255.9
L 79.8 257 79.7 257.05 79.85 257.2
Q 80.75 257.95 81.6 257.75 Z"/>
</g>

<g id="Layer0_0_MEMBER_2_MEMBER_1_MEMBER_154_MEMBER_0_FILL">
<path fill="#FFDE17" stroke="none" d="
M 92.55 258.95
Q 91.75 258.65 91.5 259
L 89.75 261 89.7 261.05
Q 89.6 261.3 90.35 262.05 91.85 263.75 92 263.45
L 92.1 263.35 93.5 261.25
Q 93.75 260.85 93.75 260.35 93.8 259.8 93.55 259.55 93.25 259.2 92.55 258.95 Z"/>
</g>

<g id="Layer0_0_MEMBER_2_MEMBER_1_MEMBER_155_MEMBER_0_FILL">
<path fill="#FFE35A" stroke="none" d="
M 91.8 262.45
L 92.85 260.85
Q 93.2 260.25 92.95 260 92.5 259.55 92 259.55
L 90.6 261.15 90.9 261.6 91.8 262.45 Z"/>
</g>

<g id="Layer0_0_MEMBER_2_MEMBER_1_MEMBER_156_MEMBER_0_FILL">
<path fill="#FFDE17" stroke="none" d="
M 87.6 263.3
Q 87.25 263.65 87.2 264.2 87.2 264.65 87.55 265.05
L 88.35 266
Q 88.7 266.4 89.15 266.4 89.55 266.4 89.9 266
L 91.05 264.65
Q 91.35 264.3 91.35 263.8 91.35 263.3 91.1 262.95 90.75 262.5 89.95 262.1 89.1 261.7 88.8 262
L 87.6 263.3 Z"/>
</g>

<g id="Layer0_0_MEMBER_2_MEMBER_1_MEMBER_157_MEMBER_0_FILL">
<path fill="#FFE35A" stroke="none" d="
M 88.95 265.55
L 89.15 265.65 89.35 265.5 90.5 264.2
Q 90.8 263.8 90.45 263.35 89.85 262.75 89.25 262.65
L 88.1 263.8
Q 87.8 264.25 88.1 264.55
L 88.95 265.55 Z"/>
</g>

<g id="Layer0_0_MEMBER_2_MEMBER_1_MEMBER_158_MEMBER_0_FILL">
<path fill="#FFDE17" stroke="none" d="
M 76.25 259.05
Q 75.85 259.35 75.9 259.75 75.9 260.2 76.3 260.45 76.9 260.8 77.85 261.15 79 261.5 79.35 261.2
L 80.6 260.05
Q 80.95 259.75 80.95 259.3 80.9 258.85 80.5 258.55 79.9 258.1 79.35 257.8 78.95 257.55 78.4 257.6 77.85 257.65 77.45 257.95
L 76.25 259.05 Z"/>
</g>

<g id="Layer0_0_MEMBER_2_MEMBER_1_MEMBER_159_MEMBER_0_FILL">
<path fill="#FFE35A" stroke="none" d="
M 76.65 259.75
L 76.7 259.8
Q 77.1 260.05 77.85 260.35 78.6 260.6 78.9 260.6
L 80.1 259.5 80.2 259.35 80.1 259.2 80.05 259.15 78.95 258.4
Q 78.45 258.1 77.95 258.5
L 76.75 259.6
Q 76.65 259.65 76.65 259.75 Z"/>
</g>

<g id="Layer0_0_MEMBER_2_MEMBER_1_MEMBER_160_MEMBER_0_FILL">
<path fill="#FFDE17" stroke="none" d="
M 95.7 252.65
Q 96.1876953125 253.1654296875 93 257.15 92.7 257.55 92.65 258 92.65 258.5 92.9 258.8 93.2 259.15 93.8 259.35 94.45 259.55 94.7 259.2 95.35 257.95 95.8 256.5 96.6484375 253.6056640625 95.7 252.65 Z"/>
</g>

<g id="Layer0_0_MEMBER_2_MEMBER_1_MEMBER_161_MEMBER_0_FILL">
<path fill="#FFE35A" stroke="none" d="
M 93.45 258.3
L 93.5 258.35
Q 93.8 258.65 94.1 258.65 95 256.95 95.3 255.35 94.6 256.4 93.6 257.6 93.25 258.1 93.45 258.3 Z"/>
</g>

<g id="Layer0_0_MEMBER_2_MEMBER_1_MEMBER_162_MEMBER_0_FILL">
<path fill="#FFDE17" stroke="none" d="
M 95.35 261.95
Q 95.05 261.55 94.45 261.25 93.75 260.9 93.5 261.25
L 92.1 263.35 92 263.45
Q 91.8 263.85 92.5 264.75
L 93.2 265.8
Q 93.4 266.2 93.75 266.25 94.1 266.3 94.35 265.95
L 94.45 265.7 95.4 263.85
Q 95.85 262.75 95.35 261.95 Z"/>
</g>

<g id="Layer0_0_MEMBER_2_MEMBER_1_MEMBER_163_MEMBER_0_FILL">
<path fill="#FFE35A" stroke="none" d="
M 93.8 265.4
L 93.8 265.35 94.7 263.55
Q 95 262.85 94.75 262.35
L 94.65 262.3
Q 94.4 262 94 261.85
L 92.75 263.7 93.8 265.4 Z"/>
</g>

<g id="Layer0_0_MEMBER_2_MEMBER_1_MEMBER_164_MEMBER_0_FILL">
<path fill="#FFDE17" stroke="none" d="
M 95.8 256.5
Q 95.35 257.95 94.7 259.2 94.45 259.6 94.45 260.2 94.5 260.75 94.75 261.1 95.1 261.55 95.6 261.8 96.15 262.05 96.3 261.65 96.85 260.1 97 258.2 97.396484375 254.38359375 95.7 252.65 96.63671875 253.6453125 95.8 256.5 Z"/>
</g>

<g id="Layer0_0_MEMBER_2_MEMBER_1_MEMBER_165_MEMBER_0_FILL">
<path fill="#FFE35A" stroke="none" d="
M 95.7 261
Q 96.3 259.25 96.35 257.25 95.95 258.3 95.35 259.55 95 260.2 95.35 260.65
L 95.7 261 Z"/>
</g>

<g id="Layer0_0_MEMBER_2_MEMBER_1_MEMBER_166_MEMBER_0_FILL">
<path fill="#FFDE17" stroke="none" d="
M 59.95 273.95
L 58.9 274.95
Q 58.55 275.3 58.5 275.8 58.5 276.25 58.85 276.65 59.25 277.1 60.25 277.65 61.4 278.25 61.75 277.95
L 62.9 276.8
Q 63.3 276.45 63.3 275.95 63.3 275.45 62.9 275.1
L 61.7 273.9
Q 60.8 273.2 59.95 273.95 Z"/>
</g>

<g id="Layer0_0_MEMBER_2_MEMBER_1_MEMBER_167_MEMBER_0_FILL">
<path fill="#FFE35A" stroke="none" d="
M 59.35 276.1
L 59.4 276.15
Q 59.7 276.45 60.35 276.8 61.05 277.2 61.35 277.25
L 62.4 276.25 62.55 275.95 62.4 275.65 61.15 274.45
Q 61.05 274.35 60.85 274.35 60.6 274.35 60.5 274.5
L 59.4 275.5
Q 59.1 275.85 59.35 276.1 Z"/>
</g>

<g id="Layer0_0_MEMBER_2_MEMBER_1_MEMBER_168_MEMBER_0_FILL">
<path fill="#FFDE17" stroke="none" d="
M 55.2 278.95
Q 54.75 278.95 54.4 279.3
L 53.35 280.3
Q 53 280.65 52.95 281.15 52.9 281.65 53.2 282.05 53.5 282.55 54.55 283.2 55.65 283.85 55.95 283.55
L 57.15 282.4
Q 57.5 282.05 57.5 281.55 57.55 281.05 57.2 280.7
L 56 279.35
Q 55.7 279 55.2 278.95 Z"/>
</g>

<g id="Layer0_0_MEMBER_2_MEMBER_1_MEMBER_169_MEMBER_0_FILL">
<path fill="#FFE35A" stroke="none" d="
M 53.85 281.75
Q 54.8 282.6 55.6 282.9
L 56.6 281.9
Q 56.95 281.55 56.65 281.2
L 55.4 279.8
Q 55.2 279.6 54.9 279.85
L 53.85 280.85
Q 53.45 281.25 53.8 281.6
L 53.85 281.75 Z"/>
</g>

<g id="Layer0_0_MEMBER_2_MEMBER_1_MEMBER_170_MEMBER_0_FILL">
<path fill="#FFDE17" stroke="none" d="
M 60.05 277.9
L 58.85 276.65
Q 58.5 276.3 58 276.25 57.55 276.25 57.15 276.6
L 56.1 277.65
Q 55.75 278 55.75 278.5 55.7 279 56 279.35 56.4 279.85 57.4 280.4 58.55 281.05 58.85 280.75
L 60.05 279.6
Q 60.4 279.25 60.4 278.75 60.4 278.25 60.05 277.9 Z"/>
</g>

<g id="Layer0_0_MEMBER_2_MEMBER_1_MEMBER_171_MEMBER_0_FILL">
<path fill="#FFE35A" stroke="none" d="
M 56.55 278.85
L 56.6 278.9
Q 57.5 279.8 58.45 280.05
L 59.5 279.05
Q 59.85 278.75 59.5 278.4
L 58.3 277.15
Q 57.95 276.9 57.7 277.15
L 56.6 278.15
Q 56.3 278.6 56.55 278.85 Z"/>
</g>

<g id="Layer0_0_MEMBER_2_MEMBER_1_MEMBER_172_MEMBER_0_FILL">
<path fill="#FFDE17" stroke="none" d="
M 52.45 281.65
Q 52 281.6 51.6 281.95
L 50.6 283
Q 50.2 283.35 50.15 283.85 50.1 284.4 50.4 284.8 50.75 285.3 51.7 286 52.8 286.7 53.1 286.4
L 54.25 285.25
Q 54.6 284.9 54.65 284.4 54.65 283.9 54.35 283.5 53.55 282.6 53.2 282.05 52.9 281.7 52.45 281.65 Z"/>
</g>

<g id="Layer0_0_MEMBER_2_MEMBER_1_MEMBER_173_MEMBER_0_FILL">
<path fill="#FFE35A" stroke="none" d="
M 51.2 284.6
Q 51.85 285.3 52.75 285.7
L 53.75 284.7
Q 54.1 284.35 53.8 284
L 52.55 282.5
Q 52.45 282.3 52.15 282.5
L 51.1 283.5
Q 50.75 283.95 51 284.4
L 51.2 284.6 Z"/>
</g>

<g id="Layer0_0_MEMBER_2_MEMBER_1_MEMBER_174_MEMBER_0_FILL">
<path fill="#FFDE17" stroke="none" d="
M 48.9 288.8
Q 49.95 289.55 50.25 289.25
L 51.4 288.05
Q 51.75 287.7 51.75 287.2 51.8 286.7 51.5 286.3
L 50.4 284.8
Q 50.1 284.4 49.65 284.35 49.25 284.3 48.9 284.65
L 47.85 285.7
Q 47.5 286.05 47.45 286.6 47.35 287.15 47.6 287.55 47.9 288.1 48.9 288.8 Z"/>
</g>

<g id="Layer0_0_MEMBER_2_MEMBER_1_MEMBER_175_MEMBER_0_FILL">
<path fill="#FFE35A" stroke="none" d="
M 48.55 287.5
Q 49.2 288.2 49.9 288.55
L 50.9 287.55
Q 51.2 287.15 50.9 286.75
L 49.7 285.15
Q 49.6 285.05 49.4 285.2
L 48.35 286.2
Q 48 286.65 48.25 287.2
L 48.55 287.5 Z"/>
</g>

<g id="Layer0_0_MEMBER_2_MEMBER_1_MEMBER_176_MEMBER_0_FILL">
<path fill="#FFDE17" stroke="none" d="
M 48.95 290.05
Q 48.95 289.5 48.7 289.1 47.95 288.15 47.6 287.55 47.35 287.15 46.9 287.1 46.5 287.05 46.15 287.4
L 44.5 289.05
Q 44.35 289.3 44.85 290.35
L 45.9 292
Q 46.15 292.4 46.6 292.45 47 292.5 47.3 292.15
L 48.55 290.9
Q 48.9 290.55 48.95 290.05 Z"/>
</g>

<g id="Layer0_0_MEMBER_2_MEMBER_1_MEMBER_177_MEMBER_0_FILL">
<path fill="#FFE35A" stroke="none" d="
M 48.05 290.4
Q 48.4 290.05 48.1 289.55 48.05 289.55 47.65 289 47.2 288.35 46.95 287.95
L 46.9 287.85 46.8 287.85 46.7 287.9 45.25 289.35 45.45 289.95 46.5 291.55 46.55 291.65 46.7 291.7 46.8 291.65 48.05 290.4 Z"/>
</g>

<g id="Layer0_0_MEMBER_2_MEMBER_1_MEMBER_178_MEMBER_0_FILL">
<path fill="#FFDE17" stroke="none" d="
M 69.95 265.1
Q 69.95 265.55 70.35 265.8 70.9 266.2 71.9 266.6 73.1 267.05 73.4 266.75
L 74.6 265.6
Q 74.95 265.25 74.95 264.8 74.95 264.35 74.55 264.05
L 73.3 263.1
Q 72.95 262.85 72.4 262.9 71.85 262.95 71.45 263.25
L 70.3 264.3
Q 69.95 264.65 69.95 265.1 Z"/>
</g>

<g id="Layer0_0_MEMBER_2_MEMBER_1_MEMBER_179_MEMBER_0_FILL">
<path fill="#FFE35A" stroke="none" d="
M 70.75 265.15
L 70.8 265.2
Q 71.2 265.5 71.9 265.8 72.7 266.1 73 266.1
L 74.1 265.05 74.2 264.85 74.1 264.65 74.1 264.6 72.9 263.75
Q 72.45 263.4 71.95 263.8
L 70.8 264.85 70.7 265.05 70.75 265.15 Z"/>
</g>

<g id="Layer0_0_MEMBER_2_MEMBER_1_MEMBER_180_MEMBER_0_FILL">
<path fill="#FFDE17" stroke="none" d="
M 68.95 269.35
Q 70.15 269.85 70.45 269.55
L 71.65 268.4
Q 72 268.05 72 267.6 72 267.1 71.6 266.8
L 70.35 265.8
Q 69.95 265.55 69.45 265.6 68.9 265.6 68.55 265.95
L 67.4 267
Q 67.05 267.3 67.05 267.75 67.1 268.2 67.45 268.5 68 268.9 68.95 269.35 Z"/>
</g>

<g id="Layer0_0_MEMBER_2_MEMBER_1_MEMBER_181_MEMBER_0_FILL">
<path fill="#FFE35A" stroke="none" d="
M 67.9 267.9
L 67.9 267.95
Q 68.2 268.2 68.95 268.5 69.75 268.85 70.05 268.9
L 71.15 267.85
Q 71.25 267.8 71.25 267.6 71.25 267.45 71.15 267.4
L 71.15 267.35 69.95 266.4
Q 69.45 266.1 69.05 266.5
L 67.9 267.55 67.8 267.75 67.9 267.9 Z"/>
</g>

<g id="Layer0_0_MEMBER_2_MEMBER_1_MEMBER_182_MEMBER_0_FILL">
<path fill="#FFDE17" stroke="none" d="
M 76.35 263.95
L 77.6 262.85
Q 77.95 262.5 77.95 262.05 77.9 261.6 77.5 261.3
L 76.3 260.45
Q 75.9 260.2 75.35 260.25 74.8 260.25 74.45 260.6
L 73.25 261.65
Q 72.9 262 72.9 262.4 72.9 262.85 73.3 263.1 73.85 263.5 74.85 263.85 76.05 264.25 76.35 263.95 Z"/>
</g>

<g id="Layer0_0_MEMBER_2_MEMBER_1_MEMBER_183_MEMBER_0_FILL">
<path fill="#FFE35A" stroke="none" d="
M 77.1 261.9
L 77.05 261.9 75.9 261.05
Q 75.45 260.75 74.95 261.15
L 73.75 262.2 73.65 262.4 73.75 262.5
Q 74.15 262.75 74.85 263.05 75.6 263.35 75.95 263.35
L 77.1 262.3 77.2 262.1 77.1 261.9 Z"/>
</g>

<g id="Layer0_0_MEMBER_2_MEMBER_1_MEMBER_184_MEMBER_0_FILL">
<path fill="#FFDE17" stroke="none" d="
M 64.55 271.2
Q 63.65 270.5 62.8 271.25
L 61.7 272.3
Q 61.35 272.65 61.35 273.1 61.35 273.6 61.7 273.9 62.15 274.35 63.15 274.85 64.3 275.45 64.65 275.1
L 65.85 274
Q 66.2 273.6 66.2 273.15 66.15 272.7 65.8 272.35
L 64.55 271.2 Z"/>
</g>

<g id="Layer0_0_MEMBER_2_MEMBER_1_MEMBER_185_MEMBER_0_FILL">
<path fill="#FFE35A" stroke="none" d="
M 64.05 271.8
Q 63.75 271.5 63.3 271.8
L 62.2 272.85 62.1 273.15
Q 62.1 273.3 62.2 273.35
L 62.2 273.4
Q 62.5 273.65 63.15 274 63.9 274.4 64.25 274.45
L 65.3 273.45 65.45 273.15
Q 65.45 273.05 65.3 272.9
L 64.05 271.8 Z"/>
</g>

<g id="Layer0_0_MEMBER_2_MEMBER_1_MEMBER_186_MEMBER_0_FILL">
<path fill="#FFDE17" stroke="none" d="
M 65.65 268.6
L 64.55 269.65
Q 64.2 270 64.2 270.45 64.2 270.9 64.55 271.2 65.05 271.65 66.05 272.1 67.25 272.6 67.55 272.3
L 68.75 271.2
Q 69.1 270.8 69.1 270.35 69.05 269.9 68.7 269.55
L 67.45 268.5
Q 67.1 268.2 66.55 268.25 66.05 268.25 65.65 268.6 Z"/>
</g>

<g id="Layer0_0_MEMBER_2_MEMBER_1_MEMBER_187_MEMBER_0_FILL">
<path fill="#FFE35A" stroke="none" d="
M 65 270.65
L 65.05 270.65
Q 65.35 270.95 66.05 271.3 66.8 271.65 67.15 271.7
L 68.25 270.65 68.35 270.4
Q 68.35 270.25 68.2 270.15
L 67 269.1
Q 66.55 268.85 66.15 269.15
L 65.05 270.2 64.95 270.45 65 270.65 Z"/>
</g>

<g id="Layer0_0_MEMBER_2_MEMBER_1_MEMBER_188_MEMBER_0_FILL">
<path fill="#FFDE17" stroke="none" d="
M 44.85 290.35
Q 44.65 289.9 44.25 289.85 43.85 289.8 43.5 290.2
L 42.45 291.55
Q 42.15 291.95 42.1 292.5 42.05 293.1 42.25 293.55
L 43.25 295.1
Q 43.5 295.5 43.95 295.5 44.35 295.5 44.7 295.15
L 45.8 293.85
Q 46.15 293.5 46.15 292.95 46.15 292.45 45.9 292
L 44.85 290.35 Z"/>
</g>

<g id="Layer0_0_MEMBER_2_MEMBER_1_MEMBER_189_MEMBER_0_FILL">
<path fill="#FFE35A" stroke="none" d="
M 44.15 290.6
L 44.1 290.65 43.05 292
Q 42.6 292.55 42.9 293.15
L 43.85 294.65 43.9 294.7 44 294.75 44.15 294.65 45.25 293.4
Q 45.6 292.95 45.25 292.4
L 44.15 290.7 44.15 290.6 Z"/>
</g>

<g id="Layer0_0_MEMBER_2_MEMBER_2_MEMBER_0_MEMBER_0_FILL">
<path fill="#88C836" stroke="none" d="
M 44.2 295.8
Q 51.8 283 54 277.85 44.65 288.95 39.45 293.15 34.35 297.3 34.65 303.1 34.75 305.25 35.6 306.9 36.45 308.45 37.35 308.65 37.55 307 44.2 295.8 Z"/>
</g>

<g id="Layer0_0_MEMBER_2_MEMBER_2_MEMBER_1_MEMBER_0_FILL">
<path fill="#A7CE33" stroke="none" d="
M 38.25 309.8
Q 38 309.05 38.2 308.4
L 38.15 308.45
Q 37.8 308.75 37.35 308.65 37.35 309.05 37.45 309.15 37.75 309.5 38.25 309.8 Z"/>
</g>

<g id="Layer0_0_MEMBER_2_MEMBER_2_MEMBER_2_MEMBER_0_FILL">
<path fill="#A7CE33" stroke="none" d="
M 54 277.85
Q 58.05 273.1 61.65 268.55
L 71.35 244.1 63.05 255.45
Q 54.9 267.65 55.55 271.75 55.9 273.5 54 277.85 Z"/>
</g>

<g id="Layer0_0_MEMBER_2_MEMBER_2_MEMBER_3_MEMBER_0_FILL">
<path fill="#A7CE33" stroke="none" d="
M 41.45 304.45
Q 43.7 302.65 47.55 300.5 51.4 293.8 55.85 283.15 45.65 298.95 41.45 304.45 Z"/>
</g>

<g id="Layer0_0_MEMBER_2_MEMBER_2_MEMBER_4_MEMBER_0_FILL">
<path fill="#A7CE33" stroke="none" d="
M 54 277.85
Q 51.8 283 44.2 295.8 37.55 307 37.35 308.65 37.8 308.75 38.15 308.45
L 38.2 308.4
Q 38.6 306.7 41.45 304.45 45.65 298.95 55.85 283.15
L 61.65 268.55
Q 58.05 273.1 54 277.85 Z"/>
</g>

<g id="Layer0_0_MEMBER_2_MEMBER_2_MEMBER_5_MEMBER_0_FILL">
<path fill="#88C836" stroke="none" d="
M 44.95 313.45
Q 50.75 313.7 54.9 308.6 59.15 303.4 70.2 294.05 65.1 296.25 52.25 303.85 41.1 310.5 39.4 310.7 39.6 311.65 41.15 312.45 42.8 313.35 44.95 313.45 Z"/>
</g>

<g id="Layer0_0_MEMBER_2_MEMBER_2_MEMBER_6_MEMBER_0_FILL">
<path fill="#A7CE33" stroke="none" d="
M 47.55 300.5
Q 45.4 304.35 43.6 306.6 49.6 302.1 64.9 292.2 54.45 296.55 47.55 300.5 Z"/>
</g>

<g id="Layer0_0_MEMBER_2_MEMBER_2_MEMBER_7_MEMBER_0_FILL">
<path fill="#A7CE33" stroke="none" d="
M 39.4 310.7
Q 39.35 310.25 39.6 309.9
L 39.65 309.85
Q 38.9 310.1 38.25 309.8 38.55 310.35 38.95 310.6 39 310.7 39.4 310.7 Z"/>
</g>

<g id="Layer0_0_MEMBER_2_MEMBER_2_MEMBER_8_MEMBER_0_FILL">
<path fill="#A7CE33" stroke="none" d="
M 92.65 285
L 104 276.7 79.5 286.4
Q 75 290 70.2 294.05 74.45 292.2 76.3 292.5 80.45 293.15 92.65 285 Z"/>
</g>

<g id="Layer0_0_MEMBER_2_MEMBER_2_MEMBER_9_MEMBER_0_FILL">
<path fill="#A7CE33" stroke="none" d="
M 47.55 300.5
Q 43.7 302.65 41.45 304.45 39.35 307.35 38.2 308.4 38 309.05 38.25 309.8 38.9 310.1 39.65 309.85 40.75 308.7 43.6 306.6 45.4 304.35 47.55 300.5 Z"/>
</g>

<g id="Layer0_0_MEMBER_2_MEMBER_2_MEMBER_10_MEMBER_0_FILL">
<path fill="#A7CE33" stroke="none" d="
M 41.45 304.45
Q 38.6 306.7 38.2 308.4 39.35 307.35 41.45 304.45 Z"/>
</g>

<g id="Layer0_0_MEMBER_2_MEMBER_2_MEMBER_11_MEMBER_0_FILL">
<path fill="#A7CE33" stroke="none" d="
M 70.2 294.05
Q 75 290 79.5 286.4
L 64.9 292.2
Q 49.6 302.1 43.6 306.6 41.35 309.45 39.65 309.85
L 39.6 309.9
Q 39.35 310.25 39.4 310.7 41.1 310.5 52.25 303.85 65.1 296.25 70.2 294.05 Z"/>
</g>

<g id="Layer0_0_MEMBER_2_MEMBER_2_MEMBER_12_MEMBER_0_FILL">
<path fill="#A7CE33" stroke="none" d="
M 43.6 306.6
Q 40.75 308.7 39.65 309.85 41.35 309.45 43.6 306.6 Z"/>
</g>

<g id="Layer0_0_MEMBER_3_MEMBER_0_FILL">
<path fill="#FFFFFF" fill-opacity="0.4980392156862745" stroke="none" d="
M 0.3 1.55
Q 0.95 2.2 1.55 1.55 1.8 1.3 1.8 0.9 1.8 0.5 1.55 0.25 1.3 0 0.95 0 0.55 0 0.3 0.25 0 0.5 0 0.9 0 1.3 0.3 1.55 Z"/>
</g>

<g id="Layer0_0_MEMBER_3_MEMBER_1_FILL">
<path fill="#FFFFFF" fill-opacity="0.4980392156862745" stroke="none" d="
M 0.2 1.1
Q 0.65 1.55 1.1 1.1 1.55 0.65 1.1 0.2 0.65 -0.25 0.2 0.2 -0.25 0.65 0.2 1.1 Z"/>
</g>

<g id="Layer0_0_MEMBER_3_MEMBER_2_FILL">
<path fill="#FFFFFF" fill-opacity="0.4980392156862745" stroke="none" d="
M 0.15 1
Q 0.6 1.45 1 1 1.45 0.6 1 0.15 0.6 -0.25 0.15 0.15 -0.25 0.6 0.15 1 Z"/>
</g>

<g id="Layer0_0_MEMBER_3_MEMBER_3_FILL">
<path fill="#FFFFFF" fill-opacity="0.4980392156862745" stroke="none" d="
M 0.2 1.05
Q 0.6 1.5 1.05 1.05 1.4 0.65 1.05 0.2 0.85 0 0.6 0 0.35 0 0.2 0.2 -0.2 0.65 0.2 1.05 Z"/>
</g>

<g id="Layer0_0_MEMBER_3_MEMBER_4_FILL">
<path fill="#FFFFFF" fill-opacity="0.4980392156862745" stroke="none" d="
M 0.15 1.05
Q 0.6 1.4 1 1.05 1.45 0.65 1 0.2 0.6 -0.2 0.15 0.2 -0.25 0.65 0.15 1.05 Z"/>
</g>

<g id="Layer0_0_MEMBER_3_MEMBER_5_FILL">
<path fill="#FFFFFF" fill-opacity="0.4980392156862745" stroke="none" d="
M 0.2 1.05
Q 0.6 1.45 1.05 1.05 1.45 0.6 1.05 0.2 0.85 0 0.6 0 0.35 0 0.2 0.2 0 0.35 0 0.6 0 0.85 0.2 1.05 Z"/>
</g>

<g id="Layer0_0_MEMBER_3_MEMBER_6_FILL">
<path fill="#FFFFFF" fill-opacity="0.4980392156862745" stroke="none" d="
M 0.15 1
Q 0.6 1.45 1 1 1.2 0.85 1.2 0.6 1.2 0.35 1 0.2 0.6 -0.2 0.15 0.2 -0.05 0.35 -0.05 0.6 -0.05 0.85 0.15 1 Z"/>
</g>

<g id="Layer0_0_MEMBER_3_MEMBER_7_FILL">
<path fill="#FFFFFF" fill-opacity="0.4980392156862745" stroke="none" d="
M 0.2 1
Q 0.6 1.45 1.05 1 1.45 0.6 1.05 0.15 0.6 -0.25 0.2 0.15 0 0.35 0 0.6 0 0.85 0.2 1 Z"/>
</g>

<g id="Layer0_0_MEMBER_3_MEMBER_8_FILL">
<path fill="#FFFFFF" fill-opacity="0.4980392156862745" stroke="none" d="
M 0.15 1
Q 0.6 1.45 1 1 1.45 0.6 1 0.15 0.6 -0.2 0.15 0.15 -0.25 0.6 0.15 1 Z"/>
</g>

<g id="Layer0_0_MEMBER_3_MEMBER_9_FILL">
<path fill="#FFFFFF" fill-opacity="0.4980392156862745" stroke="none" d="
M 0.2 1
Q 0.6 1.45 1.05 1 1.4 0.6 1.05 0.15 0.85 -0.05 0.6 -0.05 0.35 -0.05 0.2 0.15 -0.2 0.6 0.2 1 Z"/>
</g>

<g id="Layer0_0_MEMBER_3_MEMBER_10_FILL">
<path fill="#FFFFFF" fill-opacity="0.4980392156862745" stroke="none" d="
M 0.2 1.15
Q 0.7 1.65 1.15 1.15 1.35 0.95 1.35 0.7 1.35 0.4 1.15 0.2 0.95 0 0.7 0 0.4 0 0.2 0.2 0 0.4 0 0.7 0 0.95 0.2 1.15 Z"/>
</g>

<g id="Layer0_0_MEMBER_3_MEMBER_11_FILL">
<path fill="#FFFFFF" fill-opacity="0.4980392156862745" stroke="none" d="
M 0.2 1.15
Q 0.7 1.65 1.15 1.15 1.35 0.95 1.35 0.7 1.35 0.4 1.15 0.2 0.95 0 0.7 0 0.4 0 0.2 0.2 0 0.4 0 0.7 0 0.95 0.2 1.15 Z"/>
</g>

<g id="Layer0_0_MEMBER_3_MEMBER_12_FILL">
<path fill="#FFFFFF" fill-opacity="0.4980392156862745" stroke="none" d="
M 0.2 1.1
Q 0.65 1.6 1.15 1.1 1.6 0.65 1.15 0.2 0.65 -0.3 0.2 0.2 -0.35 0.65 0.2 1.1 Z"/>
</g>

<g id="Layer0_0_MEMBER_3_MEMBER_13_FILL">
<path fill="#FFFFFF" fill-opacity="0.4980392156862745" stroke="none" d="
M 0.7 1.35
Q 0.95 1.35 1.15 1.1 1.6 0.65 1.15 0.2 0.7 -0.35 0.2 0.2 -0.25 0.65 0.2 1.1 0.4 1.35 0.7 1.35 Z"/>
</g>
</defs>

<g transform="matrix( 10, 0, 0, 10, -184.15,-2272.55) ">
<use xlink:href="#Layer0_0_MEMBER_0_MEMBER_0_FILL"/>
</g>

<g transform="matrix( 10, 0, 0, 10, -184.15,-2272.55) ">
<use xlink:href="#Layer0_0_MEMBER_1_MEMBER_0_FILL"/>
</g>

<g transform="matrix( 10, 0, 0, 10, -184.15,-2272.55) ">
<use xlink:href="#Layer0_0_MEMBER_2_MEMBER_0_MEMBER_0_FILL"/>
</g>

<g transform="matrix( 10, 0, 0, 10, -184.15,-2272.55) ">
<use xlink:href="#Layer0_0_MEMBER_2_MEMBER_1_MEMBER_0_MEMBER_0_FILL"/>
</g>

<g transform="matrix( 10, 0, 0, 10, -184.15,-2272.55) ">
<use xlink:href="#Layer0_0_MEMBER_2_MEMBER_1_MEMBER_1_MEMBER_0_FILL"/>
</g>

<g transform="matrix( 10, 0, 0, 10, -184.15,-2272.55) ">
<use xlink:href="#Layer0_0_MEMBER_2_MEMBER_1_MEMBER_2_MEMBER_0_FILL"/>
</g>

<g transform="matrix( 10, 0, 0, 10, -184.15,-2272.55) ">
<use xlink:href="#Layer0_0_MEMBER_2_MEMBER_1_MEMBER_3_MEMBER_0_FILL"/>
</g>

<g transform="matrix( 10, 0, 0, 10, -184.15,-2272.55) ">
<use xlink:href="#Layer0_0_MEMBER_2_MEMBER_1_MEMBER_4_MEMBER_0_FILL"/>
</g>

<g transform="matrix( 10, 0, 0, 10, -184.15,-2272.55) ">
<use xlink:href="#Layer0_0_MEMBER_2_MEMBER_1_MEMBER_5_MEMBER_0_FILL"/>
</g>

<g transform="matrix( 10, 0, 0, 10, -184.15,-2272.55) ">
<use xlink:href="#Layer0_0_MEMBER_2_MEMBER_1_MEMBER_6_MEMBER_0_FILL"/>
</g>

<g transform="matrix( 10, 0, 0, 10, -184.15,-2272.55) ">
<use xlink:href="#Layer0_0_MEMBER_2_MEMBER_1_MEMBER_7_MEMBER_0_FILL"/>
</g>

<g transform="matrix( 10, 0, 0, 10, -184.15,-2272.55) ">
<use xlink:href="#Layer0_0_MEMBER_2_MEMBER_1_MEMBER_8_MEMBER_0_FILL"/>
</g>

<g transform="matrix( 10, 0, 0, 10, -184.15,-2272.55) ">
<use xlink:href="#Layer0_0_MEMBER_2_MEMBER_1_MEMBER_9_MEMBER_0_FILL"/>
</g>

<g transform="matrix( 10, 0, 0, 10, -184.15,-2272.55) ">
<use xlink:href="#Layer0_0_MEMBER_2_MEMBER_1_MEMBER_10_MEMBER_0_FILL"/>
</g>

<g transform="matrix( 10, 0, 0, 10, -184.15,-2272.55) ">
<use xlink:href="#Layer0_0_MEMBER_2_MEMBER_1_MEMBER_11_MEMBER_0_FILL"/>
</g>

<g transform="matrix( 10, 0, 0, 10, -184.15,-2272.55) ">
<use xlink:href="#Layer0_0_MEMBER_2_MEMBER_1_MEMBER_12_MEMBER_0_FILL"/>
</g>

<g transform="matrix( 10, 0, 0, 10, -184.15,-2272.55) ">
<use xlink:href="#Layer0_0_MEMBER_2_MEMBER_1_MEMBER_13_MEMBER_0_FILL"/>
</g>

<g transform="matrix( 10, 0, 0, 10, -184.15,-2272.55) ">
<use xlink:href="#Layer0_0_MEMBER_2_MEMBER_1_MEMBER_14_MEMBER_0_FILL"/>
</g>

<g transform="matrix( 10, 0, 0, 10, -184.15,-2272.55) ">
<use xlink:href="#Layer0_0_MEMBER_2_MEMBER_1_MEMBER_15_MEMBER_0_FILL"/>
</g>

<g transform="matrix( 10, 0, 0, 10, -184.15,-2272.55) ">
<use xlink:href="#Layer0_0_MEMBER_2_MEMBER_1_MEMBER_16_MEMBER_0_FILL"/>
</g>

<g transform="matrix( 10, 0, 0, 10, -184.15,-2272.55) ">
<use xlink:href="#Layer0_0_MEMBER_2_MEMBER_1_MEMBER_17_MEMBER_0_FILL"/>
</g>

<g transform="matrix( 10, 0, 0, 10, -184.15,-2272.55) ">
<use xlink:href="#Layer0_0_MEMBER_2_MEMBER_1_MEMBER_18_MEMBER_0_FILL"/>
</g>

<g transform="matrix( 10, 0, 0, 10, -184.15,-2272.55) ">
<use xlink:href="#Layer0_0_MEMBER_2_MEMBER_1_MEMBER_19_MEMBER_0_FILL"/>
</g>

<g transform="matrix( 10, 0, 0, 10, -184.15,-2272.55) ">
<use xlink:href="#Layer0_0_MEMBER_2_MEMBER_1_MEMBER_20_MEMBER_0_FILL"/>
</g>

<g transform="matrix( 10, 0, 0, 10, -184.15,-2272.55) ">
<use xlink:href="#Layer0_0_MEMBER_2_MEMBER_1_MEMBER_21_MEMBER_0_FILL"/>
</g>

<g transform="matrix( 10, 0, 0, 10, -184.15,-2272.55) ">
<use xlink:href="#Layer0_0_MEMBER_2_MEMBER_1_MEMBER_22_MEMBER_0_FILL"/>
</g>

<g transform="matrix( 10, 0, 0, 10, -184.15,-2272.55) ">
<use xlink:href="#Layer0_0_MEMBER_2_MEMBER_1_MEMBER_23_MEMBER_0_FILL"/>
</g>

<g transform="matrix( 10, 0, 0, 10, -184.15,-2272.55) ">
<use xlink:href="#Layer0_0_MEMBER_2_MEMBER_1_MEMBER_24_MEMBER_0_FILL"/>
</g>

<g transform="matrix( 10, 0, 0, 10, -184.15,-2272.55) ">
<use xlink:href="#Layer0_0_MEMBER_2_MEMBER_1_MEMBER_25_MEMBER_0_FILL"/>
</g>

<g transform="matrix( 10, 0, 0, 10, -184.15,-2272.55) ">
<use xlink:href="#Layer0_0_MEMBER_2_MEMBER_1_MEMBER_26_MEMBER_0_FILL"/>
</g>

<g transform="matrix( 10, 0, 0, 10, -184.15,-2272.55) ">
<use xlink:href="#Layer0_0_MEMBER_2_MEMBER_1_MEMBER_27_MEMBER_0_FILL"/>
</g>

<g transform="matrix( 10, 0, 0, 10, -184.15,-2272.55) ">
<use xlink:href="#Layer0_0_MEMBER_2_MEMBER_1_MEMBER_28_MEMBER_0_FILL"/>
</g>

<g transform="matrix( 10, 0, 0, 10, -184.15,-2272.55) ">
<use xlink:href="#Layer0_0_MEMBER_2_MEMBER_1_MEMBER_29_MEMBER_0_FILL"/>
</g>

<g transform="matrix( 10, 0, 0, 10, -184.15,-2272.55) ">
<use xlink:href="#Layer0_0_MEMBER_2_MEMBER_1_MEMBER_30_MEMBER_0_FILL"/>
</g>

<g transform="matrix( 10, 0, 0, 10, -184.15,-2272.55) ">
<use xlink:href="#Layer0_0_MEMBER_2_MEMBER_1_MEMBER_31_MEMBER_0_FILL"/>
</g>

<g transform="matrix( 10, 0, 0, 10, -184.15,-2272.55) ">
<use xlink:href="#Layer0_0_MEMBER_2_MEMBER_1_MEMBER_32_MEMBER_0_FILL"/>
</g>

<g transform="matrix( 10, 0, 0, 10, -184.15,-2272.55) ">
<use xlink:href="#Layer0_0_MEMBER_2_MEMBER_1_MEMBER_33_MEMBER_0_FILL"/>
</g>

<g transform="matrix( 10, 0, 0, 10, -184.15,-2272.55) ">
<use xlink:href="#Layer0_0_MEMBER_2_MEMBER_1_MEMBER_34_MEMBER_0_FILL"/>
</g>

<g transform="matrix( 10, 0, 0, 10, -184.15,-2272.55) ">
<use xlink:href="#Layer0_0_MEMBER_2_MEMBER_1_MEMBER_35_MEMBER_0_FILL"/>
</g>

<g transform="matrix( 10, 0, 0, 10, -184.15,-2272.55) ">
<use xlink:href="#Layer0_0_MEMBER_2_MEMBER_1_MEMBER_36_MEMBER_0_FILL"/>
</g>

<g transform="matrix( 10, 0, 0, 10, -184.15,-2272.55) ">
<use xlink:href="#Layer0_0_MEMBER_2_MEMBER_1_MEMBER_37_MEMBER_0_FILL"/>
</g>

<g transform="matrix( 10, 0, 0, 10, -184.15,-2272.55) ">
<use xlink:href="#Layer0_0_MEMBER_2_MEMBER_1_MEMBER_38_MEMBER_0_FILL"/>
</g>

<g transform="matrix( 10, 0, 0, 10, -184.15,-2272.55) ">
<use xlink:href="#Layer0_0_MEMBER_2_MEMBER_1_MEMBER_39_MEMBER_0_FILL"/>
</g>

<g transform="matrix( 10, 0, 0, 10, -184.15,-2272.55) ">
<use xlink:href="#Layer0_0_MEMBER_2_MEMBER_1_MEMBER_40_MEMBER_0_FILL"/>
</g>

<g transform="matrix( 10, 0, 0, 10, -184.15,-2272.55) ">
<use xlink:href="#Layer0_0_MEMBER_2_MEMBER_1_MEMBER_41_MEMBER_0_FILL"/>
</g>

<g transform="matrix( 10, 0, 0, 10, -184.15,-2272.55) ">
<use xlink:href="#Layer0_0_MEMBER_2_MEMBER_1_MEMBER_42_MEMBER_0_FILL"/>
</g>

<g transform="matrix( 10, 0, 0, 10, -184.15,-2272.55) ">
<use xlink:href="#Layer0_0_MEMBER_2_MEMBER_1_MEMBER_43_MEMBER_0_FILL"/>
</g>

<g transform="matrix( 10, 0, 0, 10, -184.15,-2272.55) ">
<use xlink:href="#Layer0_0_MEMBER_2_MEMBER_1_MEMBER_44_MEMBER_0_FILL"/>
</g>

<g transform="matrix( 10, 0, 0, 10, -184.15,-2272.55) ">
<use xlink:href="#Layer0_0_MEMBER_2_MEMBER_1_MEMBER_45_MEMBER_0_FILL"/>
</g>

<g transform="matrix( 10, 0, 0, 10, -184.15,-2272.55) ">
<use xlink:href="#Layer0_0_MEMBER_2_MEMBER_1_MEMBER_46_MEMBER_0_FILL"/>
</g>

<g transform="matrix( 10, 0, 0, 10, -184.15,-2272.55) ">
<use xlink:href="#Layer0_0_MEMBER_2_MEMBER_1_MEMBER_47_MEMBER_0_FILL"/>
</g>

<g transform="matrix( 10, 0, 0, 10, -184.15,-2272.55) ">
<use xlink:href="#Layer0_0_MEMBER_2_MEMBER_1_MEMBER_48_MEMBER_0_FILL"/>
</g>

<g transform="matrix( 10, 0, 0, 10, -184.15,-2272.55) ">
<use xlink:href="#Layer0_0_MEMBER_2_MEMBER_1_MEMBER_49_MEMBER_0_FILL"/>
</g>

<g transform="matrix( 10, 0, 0, 10, -184.15,-2272.55) ">
<use xlink:href="#Layer0_0_MEMBER_2_MEMBER_1_MEMBER_50_MEMBER_0_FILL"/>
</g>

<g transform="matrix( 10, 0, 0, 10, -184.15,-2272.55) ">
<use xlink:href="#Layer0_0_MEMBER_2_MEMBER_1_MEMBER_51_MEMBER_0_FILL"/>
</g>

<g transform="matrix( 10, 0, 0, 10, -184.15,-2272.55) ">
<use xlink:href="#Layer0_0_MEMBER_2_MEMBER_1_MEMBER_52_MEMBER_0_FILL"/>
</g>

<g transform="matrix( 10, 0, 0, 10, -184.15,-2272.55) ">
<use xlink:href="#Layer0_0_MEMBER_2_MEMBER_1_MEMBER_53_MEMBER_0_FILL"/>
</g>

<g transform="matrix( 10, 0, 0, 10, -184.15,-2272.55) ">
<use xlink:href="#Layer0_0_MEMBER_2_MEMBER_1_MEMBER_54_MEMBER_0_FILL"/>
</g>

<g transform="matrix( 10, 0, 0, 10, -184.15,-2272.55) ">
<use xlink:href="#Layer0_0_MEMBER_2_MEMBER_1_MEMBER_55_MEMBER_0_FILL"/>
</g>

<g transform="matrix( 10, 0, 0, 10, -184.15,-2272.55) ">
<use xlink:href="#Layer0_0_MEMBER_2_MEMBER_1_MEMBER_56_MEMBER_0_FILL"/>
</g>

<g transform="matrix( 10, 0, 0, 10, -184.15,-2272.55) ">
<use xlink:href="#Layer0_0_MEMBER_2_MEMBER_1_MEMBER_57_MEMBER_0_FILL"/>
</g>

<g transform="matrix( 10, 0, 0, 10, -184.15,-2272.55) ">
<use xlink:href="#Layer0_0_MEMBER_2_MEMBER_1_MEMBER_58_MEMBER_0_FILL"/>
</g>

<g transform="matrix( 10, 0, 0, 10, -184.15,-2272.55) ">
<use xlink:href="#Layer0_0_MEMBER_2_MEMBER_1_MEMBER_59_MEMBER_0_FILL"/>
</g>

<g transform="matrix( 10, 0, 0, 10, -184.15,-2272.55) ">
<use xlink:href="#Layer0_0_MEMBER_2_MEMBER_1_MEMBER_60_MEMBER_0_FILL"/>
</g>

<g transform="matrix( 10, 0, 0, 10, -184.15,-2272.55) ">
<use xlink:href="#Layer0_0_MEMBER_2_MEMBER_1_MEMBER_61_MEMBER_0_FILL"/>
</g>

<g transform="matrix( 10, 0, 0, 10, -184.15,-2272.55) ">
<use xlink:href="#Layer0_0_MEMBER_2_MEMBER_1_MEMBER_62_MEMBER_0_FILL"/>
</g>

<g transform="matrix( 10, 0, 0, 10, -184.15,-2272.55) ">
<use xlink:href="#Layer0_0_MEMBER_2_MEMBER_1_MEMBER_63_MEMBER_0_FILL"/>
</g>

<g transform="matrix( 10, 0, 0, 10, -184.15,-2272.55) ">
<use xlink:href="#Layer0_0_MEMBER_2_MEMBER_1_MEMBER_64_MEMBER_0_FILL"/>
</g>

<g transform="matrix( 10, 0, 0, 10, -184.15,-2272.55) ">
<use xlink:href="#Layer0_0_MEMBER_2_MEMBER_1_MEMBER_65_MEMBER_0_FILL"/>
</g>

<g transform="matrix( 10, 0, 0, 10, -184.15,-2272.55) ">
<use xlink:href="#Layer0_0_MEMBER_2_MEMBER_1_MEMBER_66_MEMBER_0_FILL"/>
</g>

<g transform="matrix( 10, 0, 0, 10, -184.15,-2272.55) ">
<use xlink:href="#Layer0_0_MEMBER_2_MEMBER_1_MEMBER_67_MEMBER_0_FILL"/>
</g>

<g transform="matrix( 10, 0, 0, 10, -184.15,-2272.55) ">
<use xlink:href="#Layer0_0_MEMBER_2_MEMBER_1_MEMBER_68_MEMBER_0_FILL"/>
</g>

<g transform="matrix( 10, 0, 0, 10, -184.15,-2272.55) ">
<use xlink:href="#Layer0_0_MEMBER_2_MEMBER_1_MEMBER_69_MEMBER_0_FILL"/>
</g>

<g transform="matrix( 10, 0, 0, 10, -184.15,-2272.55) ">
<use xlink:href="#Layer0_0_MEMBER_2_MEMBER_1_MEMBER_70_MEMBER_0_FILL"/>
</g>

<g transform="matrix( 10, 0, 0, 10, -184.15,-2272.55) ">
<use xlink:href="#Layer0_0_MEMBER_2_MEMBER_1_MEMBER_71_MEMBER_0_FILL"/>
</g>

<g transform="matrix( 10, 0, 0, 10, -184.15,-2272.55) ">
<use xlink:href="#Layer0_0_MEMBER_2_MEMBER_1_MEMBER_72_MEMBER_0_FILL"/>
</g>

<g transform="matrix( 10, 0, 0, 10, -184.15,-2272.55) ">
<use xlink:href="#Layer0_0_MEMBER_2_MEMBER_1_MEMBER_73_MEMBER_0_FILL"/>
</g>

<g transform="matrix( 10, 0, 0, 10, -184.15,-2272.55) ">
<use xlink:href="#Layer0_0_MEMBER_2_MEMBER_1_MEMBER_74_MEMBER_0_FILL"/>
</g>

<g transform="matrix( 10, 0, 0, 10, -184.15,-2272.55) ">
<use xlink:href="#Layer0_0_MEMBER_2_MEMBER_1_MEMBER_75_MEMBER_0_FILL"/>
</g>

<g transform="matrix( 10, 0, 0, 10, -184.15,-2272.55) ">
<use xlink:href="#Layer0_0_MEMBER_2_MEMBER_1_MEMBER_76_MEMBER_0_FILL"/>
</g>

<g transform="matrix( 10, 0, 0, 10, -184.15,-2272.55) ">
<use xlink:href="#Layer0_0_MEMBER_2_MEMBER_1_MEMBER_77_MEMBER_0_FILL"/>
</g>

<g transform="matrix( 10, 0, 0, 10, -184.15,-2272.55) ">
<use xlink:href="#Layer0_0_MEMBER_2_MEMBER_1_MEMBER_78_MEMBER_0_FILL"/>
</g>

<g transform="matrix( 10, 0, 0, 10, -184.15,-2272.55) ">
<use xlink:href="#Layer0_0_MEMBER_2_MEMBER_1_MEMBER_79_MEMBER_0_FILL"/>
</g>

<g transform="matrix( 10, 0, 0, 10, -184.15,-2272.55) ">
<use xlink:href="#Layer0_0_MEMBER_2_MEMBER_1_MEMBER_80_MEMBER_0_FILL"/>
</g>

<g transform="matrix( 10, 0, 0, 10, -184.15,-2272.55) ">
<use xlink:href="#Layer0_0_MEMBER_2_MEMBER_1_MEMBER_81_MEMBER_0_FILL"/>
</g>

<g transform="matrix( 10, 0, 0, 10, -184.15,-2272.55) ">
<use xlink:href="#Layer0_0_MEMBER_2_MEMBER_1_MEMBER_82_MEMBER_0_FILL"/>
</g>

<g transform="matrix( 10, 0, 0, 10, -184.15,-2272.55) ">
<use xlink:href="#Layer0_0_MEMBER_2_MEMBER_1_MEMBER_83_MEMBER_0_FILL"/>
</g>

<g transform="matrix( 10, 0, 0, 10, -184.15,-2272.55) ">
<use xlink:href="#Layer0_0_MEMBER_2_MEMBER_1_MEMBER_84_MEMBER_0_FILL"/>
</g>

<g transform="matrix( 10, 0, 0, 10, -184.15,-2272.55) ">
<use xlink:href="#Layer0_0_MEMBER_2_MEMBER_1_MEMBER_85_MEMBER_0_FILL"/>
</g>

<g transform="matrix( 10, 0, 0, 10, -184.15,-2272.55) ">
<use xlink:href="#Layer0_0_MEMBER_2_MEMBER_1_MEMBER_86_MEMBER_0_FILL"/>
</g>

<g transform="matrix( 10, 0, 0, 10, -184.15,-2272.55) ">
<use xlink:href="#Layer0_0_MEMBER_2_MEMBER_1_MEMBER_87_MEMBER_0_FILL"/>
</g>

<g transform="matrix( 10, 0, 0, 10, -184.15,-2272.55) ">
<use xlink:href="#Layer0_0_MEMBER_2_MEMBER_1_MEMBER_88_MEMBER_0_FILL"/>
</g>

<g transform="matrix( 10, 0, 0, 10, -184.15,-2272.55) ">
<use xlink:href="#Layer0_0_MEMBER_2_MEMBER_1_MEMBER_89_MEMBER_0_FILL"/>
</g>

<g transform="matrix( 10, 0, 0, 10, -184.15,-2272.55) ">
<use xlink:href="#Layer0_0_MEMBER_2_MEMBER_1_MEMBER_90_MEMBER_0_FILL"/>
</g>

<g transform="matrix( 10, 0, 0, 10, -184.15,-2272.55) ">
<use xlink:href="#Layer0_0_MEMBER_2_MEMBER_1_MEMBER_91_MEMBER_0_FILL"/>
</g>

<g transform="matrix( 10, 0, 0, 10, -184.15,-2272.55) ">
<use xlink:href="#Layer0_0_MEMBER_2_MEMBER_1_MEMBER_92_MEMBER_0_FILL"/>
</g>

<g transform="matrix( 10, 0, 0, 10, -184.15,-2272.55) ">
<use xlink:href="#Layer0_0_MEMBER_2_MEMBER_1_MEMBER_93_MEMBER_0_FILL"/>
</g>

<g transform="matrix( 10, 0, 0, 10, -184.15,-2272.55) ">
<use xlink:href="#Layer0_0_MEMBER_2_MEMBER_1_MEMBER_94_MEMBER_0_FILL"/>
</g>

<g transform="matrix( 10, 0, 0, 10, -184.15,-2272.55) ">
<use xlink:href="#Layer0_0_MEMBER_2_MEMBER_1_MEMBER_95_MEMBER_0_FILL"/>
</g>

<g transform="matrix( 10, 0, 0, 10, -184.15,-2272.55) ">
<use xlink:href="#Layer0_0_MEMBER_2_MEMBER_1_MEMBER_96_MEMBER_0_FILL"/>
</g>

<g transform="matrix( 10, 0, 0, 10, -184.15,-2272.55) ">
<use xlink:href="#Layer0_0_MEMBER_2_MEMBER_1_MEMBER_97_MEMBER_0_FILL"/>
</g>

<g transform="matrix( 10, 0, 0, 10, -184.15,-2272.55) ">
<use xlink:href="#Layer0_0_MEMBER_2_MEMBER_1_MEMBER_98_MEMBER_0_FILL"/>
</g>

<g transform="matrix( 10, 0, 0, 10, -184.15,-2272.55) ">
<use xlink:href="#Layer0_0_MEMBER_2_MEMBER_1_MEMBER_99_MEMBER_0_FILL"/>
</g>

<g transform="matrix( 10, 0, 0, 10, -184.15,-2272.55) ">
<use xlink:href="#Layer0_0_MEMBER_2_MEMBER_1_MEMBER_100_MEMBER_0_FILL"/>
</g>

<g transform="matrix( 10, 0, 0, 10, -184.15,-2272.55) ">
<use xlink:href="#Layer0_0_MEMBER_2_MEMBER_1_MEMBER_101_MEMBER_0_FILL"/>
</g>

<g transform="matrix( 10, 0, 0, 10, -184.15,-2272.55) ">
<use xlink:href="#Layer0_0_MEMBER_2_MEMBER_1_MEMBER_102_MEMBER_0_FILL"/>
</g>

<g transform="matrix( 10, 0, 0, 10, -184.15,-2272.55) ">
<use xlink:href="#Layer0_0_MEMBER_2_MEMBER_1_MEMBER_103_MEMBER_0_FILL"/>
</g>

<g transform="matrix( 10, 0, 0, 10, -184.15,-2272.55) ">
<use xlink:href="#Layer0_0_MEMBER_2_MEMBER_1_MEMBER_104_MEMBER_0_FILL"/>
</g>

<g transform="matrix( 10, 0, 0, 10, -184.15,-2272.55) ">
<use xlink:href="#Layer0_0_MEMBER_2_MEMBER_1_MEMBER_105_MEMBER_0_FILL"/>
</g>

<g transform="matrix( 10, 0, 0, 10, -184.15,-2272.55) ">
<use xlink:href="#Layer0_0_MEMBER_2_MEMBER_1_MEMBER_106_MEMBER_0_FILL"/>
</g>

<g transform="matrix( 10, 0, 0, 10, -184.15,-2272.55) ">
<use xlink:href="#Layer0_0_MEMBER_2_MEMBER_1_MEMBER_107_MEMBER_0_FILL"/>
</g>

<g transform="matrix( 10, 0, 0, 10, -184.15,-2272.55) ">
<use xlink:href="#Layer0_0_MEMBER_2_MEMBER_1_MEMBER_108_MEMBER_0_FILL"/>
</g>

<g transform="matrix( 10, 0, 0, 10, -184.15,-2272.55) ">
<use xlink:href="#Layer0_0_MEMBER_2_MEMBER_1_MEMBER_109_MEMBER_0_FILL"/>
</g>

<g transform="matrix( 10, 0, 0, 10, -184.15,-2272.55) ">
<use xlink:href="#Layer0_0_MEMBER_2_MEMBER_1_MEMBER_110_MEMBER_0_FILL"/>
</g>

<g transform="matrix( 10, 0, 0, 10, -184.15,-2272.55) ">
<use xlink:href="#Layer0_0_MEMBER_2_MEMBER_1_MEMBER_111_MEMBER_0_FILL"/>
</g>

<g transform="matrix( 10, 0, 0, 10, -184.15,-2272.55) ">
<use xlink:href="#Layer0_0_MEMBER_2_MEMBER_1_MEMBER_112_MEMBER_0_FILL"/>
</g>

<g transform="matrix( 10, 0, 0, 10, -184.15,-2272.55) ">
<use xlink:href="#Layer0_0_MEMBER_2_MEMBER_1_MEMBER_113_MEMBER_0_FILL"/>
</g>

<g transform="matrix( 10, 0, 0, 10, -184.15,-2272.55) ">
<use xlink:href="#Layer0_0_MEMBER_2_MEMBER_1_MEMBER_114_MEMBER_0_FILL"/>
</g>

<g transform="matrix( 10, 0, 0, 10, -184.15,-2272.55) ">
<use xlink:href="#Layer0_0_MEMBER_2_MEMBER_1_MEMBER_115_MEMBER_0_FILL"/>
</g>

<g transform="matrix( 10, 0, 0, 10, -184.15,-2272.55) ">
<use xlink:href="#Layer0_0_MEMBER_2_MEMBER_1_MEMBER_116_MEMBER_0_FILL"/>
</g>

<g transform="matrix( 10, 0, 0, 10, -184.15,-2272.55) ">
<use xlink:href="#Layer0_0_MEMBER_2_MEMBER_1_MEMBER_117_MEMBER_0_FILL"/>
</g>

<g transform="matrix( 10, 0, 0, 10, -184.15,-2272.55) ">
<use xlink:href="#Layer0_0_MEMBER_2_MEMBER_1_MEMBER_118_MEMBER_0_FILL"/>
</g>

<g transform="matrix( 10, 0, 0, 10, -184.15,-2272.55) ">
<use xlink:href="#Layer0_0_MEMBER_2_MEMBER_1_MEMBER_119_MEMBER_0_FILL"/>
</g>

<g transform="matrix( 10, 0, 0, 10, -184.15,-2272.55) ">
<use xlink:href="#Layer0_0_MEMBER_2_MEMBER_1_MEMBER_120_MEMBER_0_FILL"/>
</g>

<g transform="matrix( 10, 0, 0, 10, -184.15,-2272.55) ">
<use xlink:href="#Layer0_0_MEMBER_2_MEMBER_1_MEMBER_121_MEMBER_0_FILL"/>
</g>

<g transform="matrix( 10, 0, 0, 10, -184.15,-2272.55) ">
<use xlink:href="#Layer0_0_MEMBER_2_MEMBER_1_MEMBER_122_MEMBER_0_FILL"/>
</g>

<g transform="matrix( 10, 0, 0, 10, -184.15,-2272.55) ">
<use xlink:href="#Layer0_0_MEMBER_2_MEMBER_1_MEMBER_123_MEMBER_0_FILL"/>
</g>

<g transform="matrix( 10, 0, 0, 10, -184.15,-2272.55) ">
<use xlink:href="#Layer0_0_MEMBER_2_MEMBER_1_MEMBER_124_MEMBER_0_FILL"/>
</g>

<g transform="matrix( 10, 0, 0, 10, -184.15,-2272.55) ">
<use xlink:href="#Layer0_0_MEMBER_2_MEMBER_1_MEMBER_125_MEMBER_0_FILL"/>
</g>

<g transform="matrix( 10, 0, 0, 10, -184.15,-2272.55) ">
<use xlink:href="#Layer0_0_MEMBER_2_MEMBER_1_MEMBER_126_MEMBER_0_FILL"/>
</g>

<g transform="matrix( 10, 0, 0, 10, -184.15,-2272.55) ">
<use xlink:href="#Layer0_0_MEMBER_2_MEMBER_1_MEMBER_127_MEMBER_0_FILL"/>
</g>

<g transform="matrix( 10, 0, 0, 10, -184.15,-2272.55) ">
<use xlink:href="#Layer0_0_MEMBER_2_MEMBER_1_MEMBER_128_MEMBER_0_FILL"/>
</g>

<g transform="matrix( 10, 0, 0, 10, -184.15,-2272.55) ">
<use xlink:href="#Layer0_0_MEMBER_2_MEMBER_1_MEMBER_129_MEMBER_0_FILL"/>
</g>

<g transform="matrix( 10, 0, 0, 10, -184.15,-2272.55) ">
<use xlink:href="#Layer0_0_MEMBER_2_MEMBER_1_MEMBER_130_MEMBER_0_FILL"/>
</g>

<g transform="matrix( 10, 0, 0, 10, -184.15,-2272.55) ">
<use xlink:href="#Layer0_0_MEMBER_2_MEMBER_1_MEMBER_131_MEMBER_0_FILL"/>
</g>

<g transform="matrix( 10, 0, 0, 10, -184.15,-2272.55) ">
<use xlink:href="#Layer0_0_MEMBER_2_MEMBER_1_MEMBER_132_MEMBER_0_FILL"/>
</g>

<g transform="matrix( 10, 0, 0, 10, -184.15,-2272.55) ">
<use xlink:href="#Layer0_0_MEMBER_2_MEMBER_1_MEMBER_133_MEMBER_0_FILL"/>
</g>

<g transform="matrix( 10, 0, 0, 10, -184.15,-2272.55) ">
<use xlink:href="#Layer0_0_MEMBER_2_MEMBER_1_MEMBER_134_MEMBER_0_FILL"/>
</g>

<g transform="matrix( 10, 0, 0, 10, -184.15,-2272.55) ">
<use xlink:href="#Layer0_0_MEMBER_2_MEMBER_1_MEMBER_135_MEMBER_0_FILL"/>
</g>

<g transform="matrix( 10, 0, 0, 10, -184.15,-2272.55) ">
<use xlink:href="#Layer0_0_MEMBER_2_MEMBER_1_MEMBER_136_MEMBER_0_FILL"/>
</g>

<g transform="matrix( 10, 0, 0, 10, -184.15,-2272.55) ">
<use xlink:href="#Layer0_0_MEMBER_2_MEMBER_1_MEMBER_137_MEMBER_0_FILL"/>
</g>

<g transform="matrix( 10, 0, 0, 10, -184.15,-2272.55) ">
<use xlink:href="#Layer0_0_MEMBER_2_MEMBER_1_MEMBER_138_MEMBER_0_FILL"/>
</g>

<g transform="matrix( 10, 0, 0, 10, -184.15,-2272.55) ">
<use xlink:href="#Layer0_0_MEMBER_2_MEMBER_1_MEMBER_139_MEMBER_0_FILL"/>
</g>

<g transform="matrix( 10, 0, 0, 10, -184.15,-2272.55) ">
<use xlink:href="#Layer0_0_MEMBER_2_MEMBER_1_MEMBER_140_MEMBER_0_FILL"/>
</g>

<g transform="matrix( 10, 0, 0, 10, -184.15,-2272.55) ">
<use xlink:href="#Layer0_0_MEMBER_2_MEMBER_1_MEMBER_141_MEMBER_0_FILL"/>
</g>

<g transform="matrix( 10, 0, 0, 10, -184.15,-2272.55) ">
<use xlink:href="#Layer0_0_MEMBER_2_MEMBER_1_MEMBER_142_MEMBER_0_FILL"/>
</g>

<g transform="matrix( 10, 0, 0, 10, -184.15,-2272.55) ">
<use xlink:href="#Layer0_0_MEMBER_2_MEMBER_1_MEMBER_143_MEMBER_0_FILL"/>
</g>

<g transform="matrix( 10, 0, 0, 10, -184.15,-2272.55) ">
<use xlink:href="#Layer0_0_MEMBER_2_MEMBER_1_MEMBER_144_MEMBER_0_FILL"/>
</g>

<g transform="matrix( 10, 0, 0, 10, -184.15,-2272.55) ">
<use xlink:href="#Layer0_0_MEMBER_2_MEMBER_1_MEMBER_145_MEMBER_0_FILL"/>
</g>

<g transform="matrix( 10, 0, 0, 10, -184.15,-2272.55) ">
<use xlink:href="#Layer0_0_MEMBER_2_MEMBER_1_MEMBER_146_MEMBER_0_FILL"/>
</g>

<g transform="matrix( 10, 0, 0, 10, -184.15,-2272.55) ">
<use xlink:href="#Layer0_0_MEMBER_2_MEMBER_1_MEMBER_147_MEMBER_0_FILL"/>
</g>

<g transform="matrix( 10, 0, 0, 10, -184.15,-2272.55) ">
<use xlink:href="#Layer0_0_MEMBER_2_MEMBER_1_MEMBER_148_MEMBER_0_FILL"/>
</g>

<g transform="matrix( 10, 0, 0, 10, -184.15,-2272.55) ">
<use xlink:href="#Layer0_0_MEMBER_2_MEMBER_1_MEMBER_149_MEMBER_0_FILL"/>
</g>

<g transform="matrix( 10, 0, 0, 10, -184.15,-2272.55) ">
<use xlink:href="#Layer0_0_MEMBER_2_MEMBER_1_MEMBER_150_MEMBER_0_FILL"/>
</g>

<g transform="matrix( 10, 0, 0, 10, -184.15,-2272.55) ">
<use xlink:href="#Layer0_0_MEMBER_2_MEMBER_1_MEMBER_151_MEMBER_0_FILL"/>
</g>

<g transform="matrix( 10, 0, 0, 10, -184.15,-2272.55) ">
<use xlink:href="#Layer0_0_MEMBER_2_MEMBER_1_MEMBER_152_MEMBER_0_FILL"/>
</g>

<g transform="matrix( 10, 0, 0, 10, -184.15,-2272.55) ">
<use xlink:href="#Layer0_0_MEMBER_2_MEMBER_1_MEMBER_153_MEMBER_0_FILL"/>
</g>

<g transform="matrix( 10, 0, 0, 10, -184.15,-2272.55) ">
<use xlink:href="#Layer0_0_MEMBER_2_MEMBER_1_MEMBER_154_MEMBER_0_FILL"/>
</g>

<g transform="matrix( 10, 0, 0, 10, -184.15,-2272.55) ">
<use xlink:href="#Layer0_0_MEMBER_2_MEMBER_1_MEMBER_155_MEMBER_0_FILL"/>
</g>

<g transform="matrix( 10, 0, 0, 10, -184.15,-2272.55) ">
<use xlink:href="#Layer0_0_MEMBER_2_MEMBER_1_MEMBER_156_MEMBER_0_FILL"/>
</g>

<g transform="matrix( 10, 0, 0, 10, -184.15,-2272.55) ">
<use xlink:href="#Layer0_0_MEMBER_2_MEMBER_1_MEMBER_157_MEMBER_0_FILL"/>
</g>

<g transform="matrix( 10, 0, 0, 10, -184.15,-2272.55) ">
<use xlink:href="#Layer0_0_MEMBER_2_MEMBER_1_MEMBER_158_MEMBER_0_FILL"/>
</g>

<g transform="matrix( 10, 0, 0, 10, -184.15,-2272.55) ">
<use xlink:href="#Layer0_0_MEMBER_2_MEMBER_1_MEMBER_159_MEMBER_0_FILL"/>
</g>

<g transform="matrix( 10, 0, 0, 10, -184.15,-2272.55) ">
<use xlink:href="#Layer0_0_MEMBER_2_MEMBER_1_MEMBER_160_MEMBER_0_FILL"/>
</g>

<g transform="matrix( 10, 0, 0, 10, -184.15,-2272.55) ">
<use xlink:href="#Layer0_0_MEMBER_2_MEMBER_1_MEMBER_161_MEMBER_0_FILL"/>
</g>

<g transform="matrix( 10, 0, 0, 10, -184.15,-2272.55) ">
<use xlink:href="#Layer0_0_MEMBER_2_MEMBER_1_MEMBER_162_MEMBER_0_FILL"/>
</g>

<g transform="matrix( 10, 0, 0, 10, -184.15,-2272.55) ">
<use xlink:href="#Layer0_0_MEMBER_2_MEMBER_1_MEMBER_163_MEMBER_0_FILL"/>
</g>

<g transform="matrix( 10, 0, 0, 10, -184.15,-2272.55) ">
<use xlink:href="#Layer0_0_MEMBER_2_MEMBER_1_MEMBER_164_MEMBER_0_FILL"/>
</g>

<g transform="matrix( 10, 0, 0, 10, -184.15,-2272.55) ">
<use xlink:href="#Layer0_0_MEMBER_2_MEMBER_1_MEMBER_165_MEMBER_0_FILL"/>
</g>

<g transform="matrix( 10, 0, 0, 10, -184.15,-2272.55) ">
<use xlink:href="#Layer0_0_MEMBER_2_MEMBER_1_MEMBER_166_MEMBER_0_FILL"/>
</g>

<g transform="matrix( 10, 0, 0, 10, -184.15,-2272.55) ">
<use xlink:href="#Layer0_0_MEMBER_2_MEMBER_1_MEMBER_167_MEMBER_0_FILL"/>
</g>

<g transform="matrix( 10, 0, 0, 10, -184.15,-2272.55) ">
<use xlink:href="#Layer0_0_MEMBER_2_MEMBER_1_MEMBER_168_MEMBER_0_FILL"/>
</g>

<g transform="matrix( 10, 0, 0, 10, -184.15,-2272.55) ">
<use xlink:href="#Layer0_0_MEMBER_2_MEMBER_1_MEMBER_169_MEMBER_0_FILL"/>
</g>

<g transform="matrix( 10, 0, 0, 10, -184.15,-2272.55) ">
<use xlink:href="#Layer0_0_MEMBER_2_MEMBER_1_MEMBER_170_MEMBER_0_FILL"/>
</g>

<g transform="matrix( 10, 0, 0, 10, -184.15,-2272.55) ">
<use xlink:href="#Layer0_0_MEMBER_2_MEMBER_1_MEMBER_171_MEMBER_0_FILL"/>
</g>

<g transform="matrix( 10, 0, 0, 10, -184.15,-2272.55) ">
<use xlink:href="#Layer0_0_MEMBER_2_MEMBER_1_MEMBER_172_MEMBER_0_FILL"/>
</g>

<g transform="matrix( 10, 0, 0, 10, -184.15,-2272.55) ">
<use xlink:href="#Layer0_0_MEMBER_2_MEMBER_1_MEMBER_173_MEMBER_0_FILL"/>
</g>

<g transform="matrix( 10, 0, 0, 10, -184.15,-2272.55) ">
<use xlink:href="#Layer0_0_MEMBER_2_MEMBER_1_MEMBER_174_MEMBER_0_FILL"/>
</g>

<g transform="matrix( 10, 0, 0, 10, -184.15,-2272.55) ">
<use xlink:href="#Layer0_0_MEMBER_2_MEMBER_1_MEMBER_175_MEMBER_0_FILL"/>
</g>

<g transform="matrix( 10, 0, 0, 10, -184.15,-2272.55) ">
<use xlink:href="#Layer0_0_MEMBER_2_MEMBER_1_MEMBER_176_MEMBER_0_FILL"/>
</g>

<g transform="matrix( 10, 0, 0, 10, -184.15,-2272.55) ">
<use xlink:href="#Layer0_0_MEMBER_2_MEMBER_1_MEMBER_177_MEMBER_0_FILL"/>
</g>

<g transform="matrix( 10, 0, 0, 10, -184.15,-2272.55) ">
<use xlink:href="#Layer0_0_MEMBER_2_MEMBER_1_MEMBER_178_MEMBER_0_FILL"/>
</g>

<g transform="matrix( 10, 0, 0, 10, -184.15,-2272.55) ">
<use xlink:href="#Layer0_0_MEMBER_2_MEMBER_1_MEMBER_179_MEMBER_0_FILL"/>
</g>

<g transform="matrix( 10, 0, 0, 10, -184.15,-2272.55) ">
<use xlink:href="#Layer0_0_MEMBER_2_MEMBER_1_MEMBER_180_MEMBER_0_FILL"/>
</g>

<g transform="matrix( 10, 0, 0, 10, -184.15,-2272.55) ">
<use xlink:href="#Layer0_0_MEMBER_2_MEMBER_1_MEMBER_181_MEMBER_0_FILL"/>
</g>

<g transform="matrix( 10, 0, 0, 10, -184.15,-2272.55) ">
<use xlink:href="#Layer0_0_MEMBER_2_MEMBER_1_MEMBER_182_MEMBER_0_FILL"/>
</g>

<g transform="matrix( 10, 0, 0, 10, -184.15,-2272.55) ">
<use xlink:href="#Layer0_0_MEMBER_2_MEMBER_1_MEMBER_183_MEMBER_0_FILL"/>
</g>

<g transform="matrix( 10, 0, 0, 10, -184.15,-2272.55) ">
<use xlink:href="#Layer0_0_MEMBER_2_MEMBER_1_MEMBER_184_MEMBER_0_FILL"/>
</g>

<g transform="matrix( 10, 0, 0, 10, -184.15,-2272.55) ">
<use xlink:href="#Layer0_0_MEMBER_2_MEMBER_1_MEMBER_185_MEMBER_0_FILL"/>
</g>

<g transform="matrix( 10, 0, 0, 10, -184.15,-2272.55) ">
<use xlink:href="#Layer0_0_MEMBER_2_MEMBER_1_MEMBER_186_MEMBER_0_FILL"/>
</g>

<g transform="matrix( 10, 0, 0, 10, -184.15,-2272.55) ">
<use xlink:href="#Layer0_0_MEMBER_2_MEMBER_1_MEMBER_187_MEMBER_0_FILL"/>
</g>

<g transform="matrix( 10, 0, 0, 10, -184.15,-2272.55) ">
<use xlink:href="#Layer0_0_MEMBER_2_MEMBER_1_MEMBER_188_MEMBER_0_FILL"/>
</g>

<g transform="matrix( 10, 0, 0, 10, -184.15,-2272.55) ">
<use xlink:href="#Layer0_0_MEMBER_2_MEMBER_1_MEMBER_189_MEMBER_0_FILL"/>
</g>

<g transform="matrix( 10, 0, 0, 10, -184.15,-2272.55) ">
<use xlink:href="#Layer0_0_MEMBER_2_MEMBER_2_MEMBER_0_MEMBER_0_FILL"/>
</g>

<g transform="matrix( 10, 0, 0, 10, -184.15,-2272.55) ">
<use xlink:href="#Layer0_0_MEMBER_2_MEMBER_2_MEMBER_1_MEMBER_0_FILL"/>
</g>

<g transform="matrix( 10, 0, 0, 10, -184.15,-2272.55) ">
<use xlink:href="#Layer0_0_MEMBER_2_MEMBER_2_MEMBER_2_MEMBER_0_FILL"/>
</g>

<g transform="matrix( 10, 0, 0, 10, -184.15,-2272.55) ">
<use xlink:href="#Layer0_0_MEMBER_2_MEMBER_2_MEMBER_3_MEMBER_0_FILL"/>
</g>

<g transform="matrix( 10, 0, 0, 10, -184.15,-2272.55) ">
<use xlink:href="#Layer0_0_MEMBER_2_MEMBER_2_MEMBER_4_MEMBER_0_FILL"/>
</g>

<g transform="matrix( 10, 0, 0, 10, -184.15,-2272.55) ">
<use xlink:href="#Layer0_0_MEMBER_2_MEMBER_2_MEMBER_5_MEMBER_0_FILL"/>
</g>

<g transform="matrix( 10, 0, 0, 10, -184.15,-2272.55) ">
<use xlink:href="#Layer0_0_MEMBER_2_MEMBER_2_MEMBER_6_MEMBER_0_FILL"/>
</g>

<g transform="matrix( 10, 0, 0, 10, -184.15,-2272.55) ">
<use xlink:href="#Layer0_0_MEMBER_2_MEMBER_2_MEMBER_7_MEMBER_0_FILL"/>
</g>

<g transform="matrix( 10, 0, 0, 10, -184.15,-2272.55) ">
<use xlink:href="#Layer0_0_MEMBER_2_MEMBER_2_MEMBER_8_MEMBER_0_FILL"/>
</g>

<g transform="matrix( 10, 0, 0, 10, -184.15,-2272.55) ">
<use xlink:href="#Layer0_0_MEMBER_2_MEMBER_2_MEMBER_9_MEMBER_0_FILL"/>
</g>

<g transform="matrix( 10, 0, 0, 10, -184.15,-2272.55) ">
<use xlink:href="#Layer0_0_MEMBER_2_MEMBER_2_MEMBER_10_MEMBER_0_FILL"/>
</g>

<g transform="matrix( 10, 0, 0, 10, -184.15,-2272.55) ">
<use xlink:href="#Layer0_0_MEMBER_2_MEMBER_2_MEMBER_11_MEMBER_0_FILL"/>
</g>

<g transform="matrix( 10, 0, 0, 10, -184.15,-2272.55) ">
<use xlink:href="#Layer0_0_MEMBER_2_MEMBER_2_MEMBER_12_MEMBER_0_FILL"/>
</g>

<g transform="matrix( 10, 0, 0, 10, 650.85,304.45) ">
<use xlink:href="#Layer0_0_MEMBER_3_MEMBER_0_FILL"/>
</g>

<g transform="matrix( 10, 0, 0, 10, 625.35,284.45) ">
<use xlink:href="#Layer0_0_MEMBER_3_MEMBER_1_FILL"/>
</g>

<g transform="matrix( 10, 0, 0, 10, 624.35,331.95) ">
<use xlink:href="#Layer0_0_MEMBER_3_MEMBER_2_FILL"/>
</g>

<g transform="matrix( 10, 0, 0, 10, 596.35,310.45) ">
<use xlink:href="#Layer0_0_MEMBER_3_MEMBER_3_FILL"/>
</g>

<g transform="matrix( 10, 0, 0, 10, 594.85,357.95) ">
<use xlink:href="#Layer0_0_MEMBER_3_MEMBER_4_FILL"/>
</g>

<g transform="matrix( 10, 0, 0, 10, 566.85,336.95) ">
<use xlink:href="#Layer0_0_MEMBER_3_MEMBER_5_FILL"/>
</g>

<g transform="matrix( 10, 0, 0, 10, 565.35,384.45) ">
<use xlink:href="#Layer0_0_MEMBER_3_MEMBER_6_FILL"/>
</g>

<g transform="matrix( 10, 0, 0, 10, 537.35,363.45) ">
<use xlink:href="#Layer0_0_MEMBER_3_MEMBER_7_FILL"/>
</g>

<g transform="matrix( 10, 0, 0, 10, 535.85,410.95) ">
<use xlink:href="#Layer0_0_MEMBER_3_MEMBER_8_FILL"/>
</g>

<g transform="matrix( 10, 0, 0, 10, 507.85,389.95) ">
<use xlink:href="#Layer0_0_MEMBER_3_MEMBER_9_FILL"/>
</g>

<g transform="matrix( 10, 0, 0, 10, 662.35,262.95) ">
<use xlink:href="#Layer0_0_MEMBER_3_MEMBER_10_FILL"/>
</g>

<g transform="matrix( 10, 0, 0, 10, 721.85,257.95) ">
<use xlink:href="#Layer0_0_MEMBER_3_MEMBER_11_FILL"/>
</g>

<g transform="matrix( 10, 0, 0, 10, 701.85,244.45) ">
<use xlink:href="#Layer0_0_MEMBER_3_MEMBER_12_FILL"/>
</g>

<g transform="matrix( 10, 0, 0, 10, 686.35,281.45) ">
<use xlink:href="#Layer0_0_MEMBER_3_MEMBER_13_FILL"/>
</g>
</svg>
