
<svg xmlns="http://www.w3.org/2000/svg" version="1.1" xmlns:xlink="http://www.w3.org/1999/xlink" preserveAspectRatio="none" x="0px" y="0px" width="1024px" height="1024px" viewBox="0 0 1024 1024">
<defs>
<g id="Layer0_0_MEMBER_0_FILL">
<path fill="#00C5AD" stroke="none" d="
M 357.05 296.35
Q 352.3 296.5 344.15 290.4 336.2 283.75 334.75 282.65 330.25 279.2 325.2 279.95 322.65 280.4 318.35 282.65 316.3 283.7 298.9 289.75 280.75 296 278.25 296.9 276.55 297.5 268 299.65 260.55 301.55 257.7 302.95 254.05 304.75 252.95 308 251.95 311 252.9 316 256.7 326.05 273.25 330.85 284.6 334.2 295.15 334 297.55 333.95 316.8 330.75 335.9 327.6 347.4 327.4 357.4 327.25 371.1 327.1 380.3 326.8 383.25 325.1 389.9 313.55 385.6 299.3 384.1 294.4 381.6 290.25 379.55 286.75 378.45 286.2 377.4 285.65 376.2 287 374.6 289.1 373.3 290.45 367.75 296.05 357.05 296.35 Z"/>
</g>

<g id="Layer0_0_MEMBER_1_FILL">
<path fill="#92C266" stroke="none" d="
M 345.25 329.15
Q 344.75 328.4 345.75 326.65 346.75 324.9 346.25 324.15 343.65 320.45 338.25 311.45 333.2 303.15 330.1 298.9 327 294.65 325.4 292.35 322.5 288.35 320.8 285.75 318.05 286.65 309.05 290.1 300.8 293.25 297.3 294.35 300.2 300.1 305.45 308.15
L 320.85 331.9
Q 335.2 329.7 345.25 329.15 Z"/>
</g>

<g id="Layer0_0_MEMBER_2_FILL">
<path fill="#030507" stroke="none" d="
M 326.1 299.35
Q 331.2 307 341.2 322.5
L 344.2 327.2 357.45 326.95
Q 338.35 300.6 328.25 284.25
L 318.7 287.85
Q 321.5 292.5 326.1 299.35 Z"/>
</g>

<g id="Layer0_0_MEMBER_3_FILL">
<path fill="#030507" stroke="none" d="
M 300.2 294.3
L 292.1 296.9
Q 295.15 303.6 299.9 311.55 302.7 316.35 308.55 325.45
L 312.5 331.5 320.9 330 307.5 307.7
Q 303.05 300.25 300.2 294.3 Z"/>
</g>

<g id="Layer0_0_MEMBER_4_FILL">
<path fill="#FCE179" stroke="none" d="
M 336.3 283.9
Q 335.05 282.85 334.75 282.65 330.25 279.2 325.2 279.95 322.65 280.4 318.35 282.65 316.3 283.7 298.9 289.75 280.75 296 278.25 296.9 277 297.35 273.15 298.35 276.2 301.2 281.8 300.8 285.5 300.55 290.55 299.15 293.45 298.35 299.1 296.55 317.25 291.05 336.3 283.9 Z"/>
</g>

<g id="Layer0_0_MEMBER_5_FILL">
<path fill="#92C266" stroke="none" d="
M 384.7 296.7
Q 383.2 292.7 381.1 289.4 379.35 286.65 378.45 286.2 377.3 285.6 375.15 288.3 372.15 292.1 368.6 293.85 372.9 298.25 376.05 302.05 381.85 309.05 386.1 318.4 389 308.15 384.7 296.7 Z"/>
</g>

<g id="Layer0_0_MEMBER_6_FILL">
<path fill="#92C266" stroke="none" d="
M 275.05 299.6
Q 274.35 299.2 273.45 298.3 260.9 301.4 257.7 302.95 254.05 304.75 252.95 308 251.95 311 252.9 316 255.35 322.5 263.35 326.85 269.65 330.35 279 332.3 278 328.7 276.55 325.5 275.35 322.95 272 318.85 268.5 314.65 267.3 312.3 264.5 306.8 268.05 303.5 269.9 301.75 275.05 299.6 Z"/>
</g>

<g id="Layer0_0_MEMBER_7_FILL">
<path fill="#030507" stroke="none" d="
M 370.05 334.7
Q 381.55 334.7 383.6 332.3 384.5 331.25 384.25 329.3 384.2 328.8 383.25 325.1 344.75 325.1 325.8 327.7 320.15 328.5 314.2 329.85 308.2 331.2 305.85 331.5 297.7 332.65 287.7 331.9 278.4 331.2 275.95 329.75 274.65 329 273.55 326.5 272.5 324.15 270 322.95 265.05 320.5 259.7 315.8 255.45 312.05 252.35 308.15 248.05 324.35 270.2 330.9 283 334.7 301.4 334.7
L 370.05 334.7 Z"/>
</g>

<g id="Layer0_0_MEMBER_8_MEMBER_0_FILL">
<path fill="#FCE179" stroke="none" d="
M 370.05 334.7
Q 378.1 334.7 381.3 333.65 384.15 332.7 384.3 330.5 381.25 331.95 372.15 331.95 355.05 331.95 335.55 332.55 310.35 333.35 301.95 334.7
L 370.05 334.7 Z"/>
</g>

<g id="Layer0_0_MEMBER_9_FILL">
<path fill="#030507" stroke="none" d="
M 357.05 296.35
Q 352.3 296.5 344.15 290.4 336.2 283.75 334.75 282.65 332.4 280.8 329.6 280.1 331.25 281.25 339.9 289.9 349.25 298.05 356.25 298.05 368.15 298.05 374.3 292.4 375.75 291.05 377.55 288.85 378.9 287.4 380 287.85 378.95 286.4 378.45 286.2 377.4 285.65 376.2 287 374.6 289.1 373.3 290.45 367.75 296.05 357.05 296.35 Z"/>
</g>

<g id="Layer0_0_MEMBER_10_FILL">
<path fill="#030507" stroke="none" d="
M 327.45 313.65
Q 329.9 312.8 330.3 311.6 330.5 311.4 330.6 311.05 330.8 310.05 329.4 308.75 327.95 307.45 325.75 306.6 323.55 305.75 321.85 305.85 320.15 305.9 319.95 306.85 319.9 307.4 320.25 308.05 317.15 308.25 315.1 309.1 313.05 310 313.05 311.2 313.05 312.55 315.6 313.5 318.15 314.45 321.7 314.45 325 314.45 327.45 313.65 Z"/>
</g>

<g id="Layer0_0_MEMBER_11_FILL">
<path fill="#5D5D5D" stroke="none" d="
M 322.35 283.4
L 319.95 284.35
Q 319.55 284.5 319.35 284.85 319.15 285.15 319.25 285.45
L 319.35 285.6
Q 319.45 285.9 319.85 286 320.2 286.1 320.6 285.95
L 323 285
Q 323.4 284.85 323.6 284.55 323.8 284.2 323.7 283.9
L 323.6 283.75
Q 323.25 283.05 322.35 283.4 Z"/>
</g>

<g id="Layer0_0_MEMBER_12_FILL">
<path fill="#5D5D5D" stroke="none" d="
M 317.85 285.25
Q 317.45 285.15 317.05 285.3
L 314.65 286.25
Q 314.3 286.4 314.1 286.75 313.9 287.05 314 287.35
L 314.1 287.55
Q 314.2 287.85 314.6 287.95 314.95 288.05 315.35 287.85
L 317.75 286.95
Q 318.65 286.5 318.4 285.85
L 318.3 285.65
Q 318.2 285.35 317.85 285.25 Z"/>
</g>

<g id="Layer0_0_MEMBER_13_FILL">
<path fill="#5D5D5D" stroke="none" d="
M 311.75 287.25
L 309.3 288.2
Q 308.95 288.35 308.75 288.7 308.55 289 308.65 289.3
L 308.75 289.5
Q 308.85 289.8 309.25 289.9 309.6 290 310 289.8
L 312.4 288.9
Q 313.4 288.45 313.05 287.8
L 312.95 287.6
Q 312.85 287.3 312.5 287.2 312.15 287.1 311.75 287.25 Z"/>
</g>

<g id="Layer0_0_MEMBER_14_FILL">
<path fill="#5D5D5D" stroke="none" d="
M 303.45 290.75
Q 303.25 291.05 303.35 291.35
L 303.5 291.55
Q 303.6 291.85 303.95 291.95 304.35 292.05 304.7 291.85
L 307.1 290.95
Q 308.05 290.5 307.8 289.85
L 307.7 289.65
Q 307.45 288.95 306.45 289.3
L 304.05 290.25
Q 303.65 290.4 303.45 290.75 Z"/>
</g>

<g id="Layer0_0_MEMBER_15_FILL">
<path fill="#5D5D5D" stroke="none" d="
M 298.4 292.6
Q 298.2 292.9 298.3 293.2
L 298.4 293.35
Q 298.65 294.05 299.65 293.7
L 302.05 292.75
Q 302.45 292.6 302.65 292.3 302.85 291.95 302.7 291.65
L 302.6 291.5
Q 302.35 290.8 301.35 291.15
L 298.95 292.1
Q 298.6 292.25 298.4 292.6 Z"/>
</g>

<g id="Layer0_0_MEMBER_16_FILL">
<path fill="#030507" stroke="none" d="
M 320.9 280.4
L 318.9 281.2
Q 318.1 281.45 318.35 282.1
L 319.7 285.2
Q 319.9 285.75 320.7 285.5
L 322.7 284.7
Q 323.45 284.45 323.25 283.8
L 321.9 280.7
Q 321.65 280.1 320.9 280.4 Z"/>
</g>

<g id="Layer0_0_MEMBER_17_FILL">
<path fill="#030507" stroke="none" d="
M 315.5 282.45
L 313.55 283.2
Q 312.75 283.55 313 284.1
L 314.3 287.2
Q 314.55 287.75 315.35 287.5
L 317.3 286.7
Q 318.1 286.45 317.85 285.8
L 316.55 282.7
Q 316.25 282.1 315.5 282.45 Z"/>
</g>

<g id="Layer0_0_MEMBER_18_FILL">
<path fill="#030507" stroke="none" d="
M 312.75 287.75
L 311.4 284.65
Q 311.15 284.05 310.4 284.35
L 308.4 285.15
Q 307.6 285.4 307.85 286.05
L 309.2 289.15
Q 309.4 289.7 310.2 289.45
L 312.2 288.65
Q 312.5 288.55 312.65 288.25 312.85 288 312.75 287.75 Z"/>
</g>

<g id="Layer0_0_MEMBER_19_FILL">
<path fill="#030507" stroke="none" d="
M 305 286.4
L 303.05 287.15
Q 302.25 287.5 302.5 288.05
L 303.8 291.15
Q 304.05 291.7 304.85 291.45
L 306.8 290.65
Q 307.6 290.4 307.35 289.75
L 306.05 286.65
Q 305.75 286.05 305 286.4 Z"/>
</g>

<g id="Layer0_0_MEMBER_20_FILL">
<path fill="#030507" stroke="none" d="
M 300.5 288.25
Q 300.2 288.2 299.9 288.3
L 297.9 289.1
Q 297.1 289.35 297.35 290
L 298.7 293.1
Q 298.8 293.35 299.05 293.4 299.35 293.5 299.7 293.35
L 301.7 292.6
Q 302 292.5 302.15 292.2 302.35 291.95 302.25 291.7
L 300.9 288.6
Q 300.85 288.35 300.5 288.25 Z"/>
</g>

<g id="Layer0_0_MEMBER_21_MEMBER_0_FILL">
<path fill="#5D5D5D" stroke="none" d="
M 292.95 295.2
L 293.05 295.4
Q 293.3 296.1 294.3 295.75
L 296.7 294.8
Q 297.1 294.65 297.25 294.35 297.45 294 297.35 293.7
L 297.25 293.55
Q 297.15 293.25 296.8 293.15 296.4 293 296 293.2
L 293.6 294.15
Q 292.7 294.5 292.95 295.2 Z"/>
</g>

<g id="Layer0_0_MEMBER_21_MEMBER_1_FILL">
<path fill="#030507" stroke="none" d="
M 294.5 290.35
L 292.55 291.1
Q 291.75 291.45 292 292
L 293.3 295.1
Q 293.55 295.65 294.35 295.4
L 296.3 294.6
Q 297.1 294.35 296.9 293.7
L 295.55 290.6
Q 295.25 290 294.5 290.35 Z"/>
</g>

<g id="Layer0_0_MEMBER_22_MEMBER_0_FILL">
<path fill="#5D5D5D" stroke="none" d="
M 290.15 295.35
L 287.7 296.05
Q 286.75 296.3 286.9 297.1
L 287 297.25
Q 287.1 297.55 287.45 297.7 287.8 297.85 288.2 297.7
L 290.7 297
Q 291.1 296.9 291.35 296.6 291.55 296.3 291.45 296
L 291.4 295.8
Q 291.3 295.5 290.95 295.35 290.55 295.25 290.15 295.35 Z"/>
</g>

<g id="Layer0_0_MEMBER_22_MEMBER_1_FILL">
<path fill="#030507" stroke="none" d="
M 288.95 292.35
L 286.9 292.95
Q 286.15 293.1 286.25 293.8
L 287.3 297
Q 287.45 297.6 288.3 297.4
L 290.35 296.8
Q 291.15 296.55 291 295.95
L 289.95 292.75
Q 289.8 292.15 288.95 292.35 Z"/>
</g>

<g id="Layer0_0_MEMBER_23_MEMBER_0_FILL">
<path fill="#5D5D5D" stroke="none" d="
M 285.5 297.65
Q 285.3 296.95 284.35 297.1
L 281.8 297.65
Q 280.8 297.95 280.95 298.65
L 281.05 298.8
Q 281.15 299.15 281.45 299.3 281.8 299.45 282.2 299.35
L 284.75 298.8
Q 285.15 298.75 285.4 298.45 285.65 298.15 285.6 297.85
L 285.5 297.65 Z"/>
</g>

<g id="Layer0_0_MEMBER_23_MEMBER_1_FILL">
<path fill="#030507" stroke="none" d="
M 283.3 294.05
L 281.25 294.5
Q 280.4 294.7 280.55 295.3
L 281.35 298.6
Q 281.55 299.2 282.3 299.05
L 284.4 298.6
Q 285.2 298.45 285.1 297.8
L 284.3 294.5
Q 284.15 293.9 283.3 294.05 Z"/>
</g>
</defs>

<g transform="matrix( 6.79998779296875, 0, 0, 6.79998779296875, -1660.4,-1577.35) ">
<use xlink:href="#Layer0_0_MEMBER_0_FILL"/>
</g>

<g transform="matrix( 6.79998779296875, 0, 0, 6.79998779296875, -1660.4,-1577.35) ">
<use xlink:href="#Layer0_0_MEMBER_1_FILL"/>
</g>

<g transform="matrix( 6.79998779296875, 0, 0, 6.79998779296875, -1660.4,-1577.35) ">
<use xlink:href="#Layer0_0_MEMBER_2_FILL"/>
</g>

<g transform="matrix( 6.79998779296875, 0, 0, 6.79998779296875, -1660.4,-1577.35) ">
<use xlink:href="#Layer0_0_MEMBER_3_FILL"/>
</g>

<g transform="matrix( 6.79998779296875, 0, 0, 6.79998779296875, -1660.4,-1577.35) ">
<use xlink:href="#Layer0_0_MEMBER_4_FILL"/>
</g>

<g transform="matrix( 6.79998779296875, 0, 0, 6.79998779296875, -1660.4,-1577.35) ">
<use xlink:href="#Layer0_0_MEMBER_5_FILL"/>
</g>

<g transform="matrix( 6.79998779296875, 0, 0, 6.79998779296875, -1660.4,-1577.35) ">
<use xlink:href="#Layer0_0_MEMBER_6_FILL"/>
</g>

<g transform="matrix( 6.79998779296875, 0, 0, 6.79998779296875, -1660.4,-1577.35) ">
<use xlink:href="#Layer0_0_MEMBER_7_FILL"/>
</g>

<g transform="matrix( 6.79998779296875, 0, 0, 6.79998779296875, -1660.4,-1577.35) ">
<use xlink:href="#Layer0_0_MEMBER_8_MEMBER_0_FILL"/>
</g>

<g transform="matrix( 6.79998779296875, 0, 0, 6.79998779296875, -1660.4,-1577.35) ">
<use xlink:href="#Layer0_0_MEMBER_9_FILL"/>
</g>

<g transform="matrix( 6.79998779296875, 0, 0, 6.79998779296875, -1660.4,-1577.35) ">
<use xlink:href="#Layer0_0_MEMBER_10_FILL"/>
</g>

<g transform="matrix( 6.79998779296875, 0, 0, 6.79998779296875, -1660.4,-1577.35) ">
<use xlink:href="#Layer0_0_MEMBER_11_FILL"/>
</g>

<g transform="matrix( 6.79998779296875, 0, 0, 6.79998779296875, -1660.4,-1577.35) ">
<use xlink:href="#Layer0_0_MEMBER_12_FILL"/>
</g>

<g transform="matrix( 6.79998779296875, 0, 0, 6.79998779296875, -1660.4,-1577.35) ">
<use xlink:href="#Layer0_0_MEMBER_13_FILL"/>
</g>

<g transform="matrix( 6.79998779296875, 0, 0, 6.79998779296875, -1660.4,-1577.35) ">
<use xlink:href="#Layer0_0_MEMBER_14_FILL"/>
</g>

<g transform="matrix( 6.79998779296875, 0, 0, 6.79998779296875, -1660.4,-1577.35) ">
<use xlink:href="#Layer0_0_MEMBER_15_FILL"/>
</g>

<g transform="matrix( 6.79998779296875, 0, 0, 6.79998779296875, -1660.4,-1577.35) ">
<use xlink:href="#Layer0_0_MEMBER_16_FILL"/>
</g>

<g transform="matrix( 6.79998779296875, 0, 0, 6.79998779296875, -1660.4,-1577.35) ">
<use xlink:href="#Layer0_0_MEMBER_17_FILL"/>
</g>

<g transform="matrix( 6.79998779296875, 0, 0, 6.79998779296875, -1660.4,-1577.35) ">
<use xlink:href="#Layer0_0_MEMBER_18_FILL"/>
</g>

<g transform="matrix( 6.79998779296875, 0, 0, 6.79998779296875, -1660.4,-1577.35) ">
<use xlink:href="#Layer0_0_MEMBER_19_FILL"/>
</g>

<g transform="matrix( 6.79998779296875, 0, 0, 6.79998779296875, -1660.4,-1577.35) ">
<use xlink:href="#Layer0_0_MEMBER_20_FILL"/>
</g>

<g transform="matrix( 6.79998779296875, 0, 0, 6.79998779296875, -1660.4,-1577.35) ">
<use xlink:href="#Layer0_0_MEMBER_21_MEMBER_0_FILL"/>
</g>

<g transform="matrix( 6.79998779296875, 0, 0, 6.79998779296875, -1660.4,-1577.35) ">
<use xlink:href="#Layer0_0_MEMBER_21_MEMBER_1_FILL"/>
</g>

<g transform="matrix( 6.79998779296875, 0, 0, 6.79998779296875, -1660.4,-1577.35) ">
<use xlink:href="#Layer0_0_MEMBER_22_MEMBER_0_FILL"/>
</g>

<g transform="matrix( 6.79998779296875, 0, 0, 6.79998779296875, -1660.4,-1577.35) ">
<use xlink:href="#Layer0_0_MEMBER_22_MEMBER_1_FILL"/>
</g>

<g transform="matrix( 6.79998779296875, 0, 0, 6.79998779296875, -1660.4,-1577.35) ">
<use xlink:href="#Layer0_0_MEMBER_23_MEMBER_0_FILL"/>
</g>

<g transform="matrix( 6.79998779296875, 0, 0, 6.79998779296875, -1660.4,-1577.35) ">
<use xlink:href="#Layer0_0_MEMBER_23_MEMBER_1_FILL"/>
</g>
</svg>
