<?xml version="1.0" ?><!DOCTYPE svg  PUBLIC '-//W3C//DTD SVG 1.1//EN'  'http://www.w3.org/Graphics/SVG/1.1/DTD/svg11.dtd'><svg enable-background="new 0 0 126 126" id="Layer_1" version="1.1" viewBox="0 0 126 126" xml:space="preserve" xmlns="http://www.w3.org/2000/svg" xmlns:xlink="http://www.w3.org/1999/xlink"><g><g><path d="M105.783,73.6858c-1.4882-0.2166-15.6165,4.4122-17.114,10.7417    c-1.4976,6.3382-12.8003,12.9354-17.6132,11.306c-4.8129-1.6294-11.1234,0.1131-11.1234,0.1131l-3.9746,1.9214l-0.9042,0.4332    h-0.0094L1,66.9976l67.4382-39.199l52.3299,30.2149c1.6483,0.9511,3.0233,2.3638,3.7392,4.1252    C128.4819,71.8586,107.1487,73.8743,105.783,73.6858z" fill="#F3F6FD"/><polygon fill="#E1E9F4" points="88.2786,52.8864 88.2786,53.9565 80.7486,60.8364 72.9986,62.7065 65.2586,69.7866     57.4586,71.6665 34.0886,58.0764 34.0886,57.1464 34.3686,57.0764 35.9386,56.6965 36.6486,56.5263 36.9186,56.4665     40.7286,55.5463 41.7786,55.2866 42.3986,54.7265 42.9586,54.2065 43.1286,54.0463 44.6286,52.6865 45.1986,52.1665     49.5186,48.2165 57.2686,46.3464 60.4086,43.4765 61.2486,42.7065 61.8886,42.1264 62.5786,41.4965 63.5986,40.5566     64.9486,39.3264 66.7086,40.3464 67.1786,40.6164 68.6286,41.4665 69.9586,42.2365 73.8486,44.4965 73.8586,44.5065     79.5286,47.7963 80.4086,48.3066 84.1086,50.4565 86.0286,51.5764 86.9486,52.1064   "/><g><path d="M76.1886,91.8264c-0.18-0.8899-0.41-1.9199-0.3-2.73c0.09-0.6599,0.3-1.3201,0.56-1.97     c0.81-2.03,1.14-7.3699,1.14-7.3699c0.19-0.3,0.47-1.6001,0.24-1.8601c-0.24-0.28-2.17,0.2-2.4-0.0601     c-0.27-0.3198-1.3,0.73-2.46,0.73c-0.23,0-0.46,0-0.69,0.04c-0.5,0.0901-1.33,0.27-1.75,0.5901c0,0-0.49,0.49,0.68,0.54     c0.98,0.03,1.5-0.0901,2.11,0.2c0,0-0.84,4.9199-1.15,5.8501c-0.15,0.4299-0.34,0.8599-0.58,1.27     c-2.03,3.3298-2.43,5.9697-2.43,5.9697s-0.2164,1.3879-0.2783,2.2007c0.7405,0.1101,1.4743,0.269,2.1754,0.5066     c1.0402,0.3521,2.3844,0.3186,3.8665-0.0122c0.3679-0.854,0.7314-1.5623,0.8464-1.835     C76.1086,93.3464,76.3586,92.6564,76.1886,91.8264z" fill="#E1E9F4"/></g><polygon fill="#FDFEFF" points="120.4058,57.8044 82.023,79.8147 72.838,74.5117 111.2213,52.5014 110.6699,52.1831     72.2867,74.1934 43.6391,57.6538 82.0235,35.6426 81.4722,35.3244 43.0877,57.3356 33.9078,52.0353 72.2926,30.0241     71.7412,29.7059 4.0423,68.7539 4.5936,69.0727 33.4735,52.2878 42.6534,57.5876 13.7734,74.3725 14.3247,74.6912     43.2048,57.9058 52.4692,63.2549 23.5889,80.0397 23.9813,80.2664 52.8616,63.4816 62.2055,68.8761 33.3249,85.6614     33.7125,85.8849 62.5929,69.0996 71.8524,74.4459 42.9717,91.2312 43.523,91.5494 72.4038,74.7641 81.5887,80.0672     52.7077,96.8525 53.2591,97.1707 120.9572,58.1226   "/></g><g><g><g><g><g enable-background="new    "><g><polygon fill="#83A1CC" points="89.0299,46.8889 89.0299,47.9596 81.4948,54.8479 73.7456,56.7142 66.0095,63.7903          58.2078,65.6696 34.8334,52.0855 34.8334,51.1503 42.5302,49.2971 50.2663,42.221 58.0155,40.3547 65.6992,33.3311                 "/></g></g></g><polygon fill="#DEE7F8" points="65.6992,33.3311 58.0155,40.3547 50.2663,42.221 42.5302,49.2971 34.8334,51.1503       58.1641,64.7125 65.8609,62.8549 73.597,55.7831 81.3462,53.917 89.0299,46.8889     "/><g><g><g enable-background="new    "><g><polygon fill="#9EB5DF" points="58.2059,65.6695 34.8341,52.0873 34.8341,51.152 58.1656,64.7108         "/></g><g><polygon fill="#83A1CC" points="73.598,55.7811 81.3482,53.9151 89.0305,46.8909 89.0305,47.9589 81.4952,54.8479           73.7449,56.7158 66.0095,63.7886 58.2059,65.6695 58.1656,64.7108 65.8625,62.8558         "/></g></g></g><g><polygon fill="#B6CBEA" points="86.7824,45.5866 84.8823,47.2203 82.8988,46.7089 84.8527,44.4643       "/><polygon fill="#B6CBEA" points="89.0298,46.8919 87.8482,47.9739 86.2199,47.4598 87.6948,46.1168       "/></g><g><g><polygon fill="#B6CBEA" points="66.974,37.0388 65.5798,38.0534 62.6355,36.1345 63.3272,35.502 63.9892,35.1548        "/></g><g enable-background="new    "><g><polygon fill="#B6CBEA" points="67.4611,34.3582 65.8382,35.5397 64.3472,34.5682 65.6982,33.3328         "/></g><g><polygon fill="#B6CBEA" points="69.3774,35.4697 67.5769,36.697 66.3199,35.8169 67.924,34.6273         "/></g><g><polygon fill="#B6CBEA" points="71.2924,38.6975 70.7111,39.9913 66.6202,38.6189 67.4899,37.465 68.9804,36.3461           70.615,37.1504         "/></g><g><path d="M66.1043,40.3309c-1.1922,0.0472-1.7889,0.6993-1.8203,0.7336l-0.8926-0.2388l1.0806-1.021          L66.1043,40.3309z" fill="#B6CBEA"/></g><g><path d="M68.1515,40.8743l-1.2934,0.921l-1.7806-0.5463c0.2793-0.3918,1.224-0.8755,1.2738-0.9009          L68.1515,40.8743z" fill="#B6CBEA"/></g><g><polygon fill="#B6CBEA" points="71.5392,41.8467 70.1522,42.8163 67.6227,42.1056 68.9008,41.0988         "/></g><g><polygon fill="#B6CBEA" points="74.0594,43.5412 73.3479,44.7524 70.8914,43.8616 71.8948,42.7562         "/></g><g><path d="M69.6896,43.0851l-1.3249,1.9034L63.8447,43.71c-0.021-0.0468-0.42-0.9352,0.6922-2.0177          L69.6896,43.0851z" fill="#B6CBEA"/></g><g><polygon fill="#B6CBEA" points="64.5262,44.6109 62.7212,45.8808 60.8195,45.3045 62.6346,44.0804         "/></g><g><polygon fill="#B6CBEA" points="73.0981,45.1185 72.2655,46.3198 69.2301,45.2172 70.1748,44.1776         "/></g><g><polygon fill="#B6CBEA" points="66.9126,45.3416 65.2436,46.6301 63.7193,45.998 65.1147,44.7825         "/></g><g><polygon fill="#B6CBEA" points="86.7824,45.5866 84.8823,47.2203 82.8988,46.7089 84.8527,44.4643         "/></g><g><polygon fill="#B6CBEA" points="76.5264,44.5408 74.5841,47.2735 72.5902,46.55 74.5375,43.8201         "/></g><g><polygon fill="#B6CBEA" points="57.8002,47.0591 58.8038,48.1573 56.6149,49.2084 55.6953,48.113         "/></g><g><polygon fill="#B6CBEA" points="60.5433,45.5915 58.2642,46.9158 60.8568,49.8005 63.4785,48.5197 65.5471,47.0886                   "/></g><g><path d="M50.0789,48.5621l0.4152,0.5162c-0.0593,0.0184-1.1853,0.3675-1.2629,1.0582l-0.9114-0.9452          L50.0789,48.5621z" fill="#B6CBEA"/></g><g><polygon fill="#B6CBEA" points="69.753,46.8732 69.0006,47.428 71.0696,48.7765 71.8093,48.1687 72.8405,48.9037           71.0581,50.2351 66.8367,47.6497 68.678,46.2525         "/></g><g><path d="M86.6523,49.0654c-0.8935-0.4252-1.6444-0.8182-2.2769-1.1842          c-2.3872-1.378-3.4548-1.9608-3.514-2.5745c-0.0727-0.7778,0.8289-1.125,0.8397-1.1277          c0.2153-0.078,0.3364-0.218,0.323-0.3768c-0.0081-0.1346-0.1157-0.2718-0.2934-0.3741          c-0.0296-0.0161-0.0592-0.0323-0.0942-0.0458l-4.4058-2.0185l-2.6375-2.8609l-3.8863-2.2581l5.1513,5.5873          c0.0511,0.0538,0.113,0.1023,0.1884,0.1453c0.0269,0.0161,0.0565,0.0296,0.0888,0.0458l3.9079,1.8059          c-0.401,0.3068-0.7993,0.7886-0.7321,1.4695c0.1023,1.0927,1.6785,1.9043,3.9958,3.2419          c0.7213,0.4172,1.5556,0.8478,2.503,1.2945L86.6523,49.0654z" fill="#6B9EF9"/></g><g><polygon fill="#B6CBEA" points="59.0095,48.7351 60.1031,49.6174 57.8867,50.5869 56.9156,49.5473         "/></g><g><polygon fill="#B6CBEA" points="45.2977,49.8417 43.5537,50.6491 41.4732,49.5537 42.5309,49.298 43.1419,48.7382                   "/></g><g><polygon fill="#B6CBEA" points="40.9591,49.9977 38.5208,51.1308 37.3931,50.536 40.5339,49.7798         "/></g><g><path d="M50.8127,49.5388l0.9513,1.0282l-1.5881,0.7536l-0.9143-1.0411          C49.3055,50.2505,50.1397,49.7004,50.8127,49.5388z" fill="#B6CBEA"/></g><g><polygon fill="#B6CBEA" points="38.0659,51.4268 36.9006,51.9705 35.1135,51.085 36.6853,50.7056         "/></g><g><path d="M55.0574,48.8166l2.2243,2.6126l-3.2841,0.7751l-2.4213-2.9801          C53.4415,48.5764,54.9766,48.8046,55.0574,48.8166z" fill="#B6CBEA"/></g><g><polygon fill="#B6CBEA" points="42.9653,51.0003 40.533,52.2043 39.0642,51.3564 41.443,50.2753         "/></g><g><polygon fill="#B6CBEA" points="66.2634,47.98 70.4183,50.6069 68.884,51.7109 66.988,52.6003 62.4394,50.2022           64.4381,49.1441         "/></g><g><polygon fill="#B6CBEA" points="45.0359,52.1958 43.7529,52.7606 42.3577,51.8154 43.587,51.3592         "/></g><g><polygon fill="#B6CBEA" points="46.2778,50.4411 48.666,52.8035 46.4312,53.1467 44.2907,50.9474         "/></g><g><polygon fill="#B6CBEA" points="52.3023,51.0088 53.5374,52.4717 51.8682,53.2782 50.5684,51.7524         "/></g><g><polygon fill="#B6CBEA" points="66.3483,52.9721 64.0532,54.0103 62.7834,53.414 63.8278,52.985 61.4954,51.7895           60.5375,52.2286 59.4626,51.608 61.8711,50.5354         "/></g><g><polygon fill="#B6CBEA" points="57.6795,51.9297 59.5904,53.6857 57.5193,54.172 55.8878,52.4803         "/></g><g><polygon fill="#B6CBEA" points="55.3421,52.8978 56.8906,54.3164 54.8019,54.7325 53.4395,53.4813         "/></g><g><polygon fill="#B6CBEA" points="59.9889,53.8731 61.2445,55.0256 56.5356,56.1582 55.2824,55.0099         "/></g><g><polygon fill="#B6CBEA" points="56.3076,45.205 53.8206,43.6082 56.1609,43.0568 57.7931,44.7477         "/></g><g><polygon fill="#B6CBEA" points="53.5719,43.3858 51.5351,42.2224 57.1439,41.0702 58.3976,42.2178         "/></g><g><polygon fill="#A6C2FF" points="50.8698,57.3454 47.693,58.6236 39.923,54.1102 41.2293,53.9677         "/></g><g><path d="M59.7914,43.3328l-0.9132-0.8379l-2.0886,0.4172l1.8719,1.7131          C59.0178,44.3071,59.4183,43.8811,59.7914,43.3328z" fill="#B6CBEA"/></g><g><path d="M56.1658,45.6507l-5.8993-3.4283l-4.3219,3.9527l-0.5689,0.5204          C50.9567,46.9967,54.3572,46.2696,56.1658,45.6507z" fill="#A6C2FF"/><g><path d="M60.1917,38.3683l-2.1742,1.9885l2.017,1.1722C60.2737,40.6534,60.3663,39.6076,60.1917,38.3683z" fill="#A6C2FF"/><path d="M80.1455,47.5943c-0.872-0.5033-2.215-0.4656-2.729,0.0781l-2.0562,2.172           c-0.1194,0.1262-0.2468,0.25-0.3732,0.3741l6.3611,3.6966l3.2853-3.0039l0.4874-0.4457L80.1455,47.5943z" fill="#A6C2FF"/></g><path d="M70.0118,53.6971c-1.3312,0.6787-2.7836,1.2749-4.3243,1.7668l-3.7491,1.2031          c-0.9339,0.2987-0.9958,1.0765-0.1265,1.5798l5.1163,2.9524l2.0431-1.1866l4.2903-3.9238l0.3359-0.3073l0.0002-0.0001          l0.0004-0.0003L70.0118,53.6971z" fill="#A6C2FF"/></g><g><path d="M66.8387,61.9626l-0.9747,0.8916c-0.896-0.6512-2.1416-1.9711-2.8934-2.4039          c-2.382-1.3767-4.0385-1.7525-5.1006-1.7832c-1.3418-0.0394-1.9362,0.4851-1.9406,0.4895          c-0.1355,0.1268-0.3802,0.1968-0.6512,0.188c-0.236-0.0045-0.4677-0.0656-0.6469-0.1661          c-0.0262-0.0175-0.0568-0.035-0.083-0.0569l-3.4922-2.5437l-9.6461-2.959l-2.6924-0.2098l-0.0043-0.0044l-1.9362-1.1233          l4.7728,0.3759c0.1049,0.0088,0.2142,0.0261,0.3147,0.0568l9.987,3.0682c0.0918,0.0306,0.1792,0.0656,0.2535,0.1049          c0.0262,0.0175,0.0524,0.035,0.0787,0.0525l3.1338,2.2596c0.5288-0.2317,1.3549-0.4633,2.535-0.4283          c1.8881,0.0525,3.9467,0.7255,6.2632,2.063C64.8981,60.2844,65.9908,61.3595,66.8387,61.9626z" fill="#6B9EF9"/></g><path d="M80.2786,41.8051l-2.2509,2.0804l-4.209-2.4301c-0.0481-0.0262-0.1049-0.0524-0.1617-0.0699         l-7.5962-2.3515l-4.0629-2.3196l-0.8454,0.7723c0.7518,4.9695-2.1766,7.2947-3.1644,7.9285         c-1.0752,0.5682-4.9782,2.2291-13.2738,1.8838l-1.0053,0.9178l3.2824,1.8969l4.0866,4.3926         c0.035,0.0349,0.0743,0.0655,0.1224,0.0918l4.2046,2.4301l-6.4205,2.347l0.8741,0.5113l6.8182-2.4913l6.4992-1.6171         l7.3078-3.1469l5.459-4.292l2.7142-3.7195l2.4957-2.3077L80.2786,41.8051z M74.9113,47.9765l-5.2929,4.1566l-7.1592,3.0812         l-6.1146,1.5035l-4.3313-2.5044l-4.0866-4.3924c-0.0349-0.0306-0.0787-0.0612-0.1267-0.0918l-3.077-1.7789         c8.8288,0.3889,12.7361-1.2806,13.925-1.9274c1.1145-0.6906,4.1259-3.6146,3.5446-8.383l3.2081,1.8663         c0.0481,0.0263,0.1005,0.0481,0.1573,0.07l7.5962,2.3514l4.3357,2.5131L74.9113,47.9765z" fill="#83A1CC"/><g><polygon fill="#B6CBEA" points="60.2965,59.8433 61.1843,60.9916 55.5753,63.1953 54.4897,61.5536         "/></g><g><path d="M51.9104,60.9704c0,0.0081-0.0027,0.0485,0.0107,0.1131l-1.1788-0.6863l1.3699-0.4575l0.8774,0.6163          L51.9104,60.9704z" fill="#B6CBEA"/></g><g><polygon fill="#B6CBEA" points="63.1495,63.3954 62.8131,63.5919 62.8104,63.5919 58.1651,64.7115 56.4077,63.6914           61.6073,61.7645         "/></g></g><g><polygon fill="#B6CBEA" points="89.0298,46.8919 87.8482,47.9739 86.2199,47.4598 87.6948,46.1168        "/></g></g></g></g><g><polygon fill="#B6CBEA" points="77.8464,54.7598 80.152,54.2047 76.523,51.8187 75.2473,52.985     "/><polygon fill="#B6CBEA" points="74.3753,50.4215 73.1443,51.549 74.7463,52.6429 76.013,51.4848     "/><polygon fill="#B6CBEA" points="74.7993,55.4935 77.0933,54.9412 75.8927,54.1557 74.5841,55.3523     "/><polygon fill="#B6CBEA" points="72.6737,52.0497 70.8914,52.9349 74.074,55.0183 75.3825,53.8219     "/></g></g><g><g><path d="M60.8072,46.9765c-0.3553,0.2051-0.3559,0.5388-0.0028,0.744c0.3544,0.2059,0.9291,0.2059,1.2844,0.0008      c0.3567-0.2059,0.3585-0.5388,0.0042-0.7447C61.7399,46.7713,61.1639,46.7705,60.8072,46.9765z" fill="#4C4A8B"/></g><g><g><path d="M61.4459,48.2518c-0.3874,0-0.7745-0.0855-1.0688-0.2564c-0.2929-0.1703-0.454-0.3998-0.4537-0.6462       c0.0004-0.2473,0.1632-0.4774,0.4585-0.6479l0,0c0.5913-0.3414,1.5502-0.3414,2.138,0       c0.2933,0.1705,0.4546,0.3999,0.4542,0.6457c-0.0004,0.2475-0.1642,0.4782-0.4612,0.6497       C62.2185,48.1667,61.8319,48.2518,61.4459,48.2518z M60.4315,46.7871c-0.2633,0.1521-0.4085,0.3518-0.4089,0.5621       c-0.0002,0.2096,0.1433,0.4085,0.4044,0.5602c0.5601,0.3255,1.4738,0.326,2.0362,0.0013       c0.265-0.1531,0.4112-0.3533,0.4116-0.5639c0.0004-0.209-0.1435-0.4078-0.405-0.5597       C61.91,46.4616,60.9953,46.4616,60.4315,46.7871L60.4315,46.7871z" fill="#4C4A8B"/></g></g><g><path d="M60.7876,42.0694l0.3789-0.2201c-0.1671,0.097-0.2713,0.3039-0.272,0.5977      c-0.0015,0.5911,0.4138,1.311,0.9283,1.6077c0.259,0.1497,0.4934,0.1635,0.6627,0.0651l-0.3781,0.2201      c-0.1693,0.0984-0.4037,0.0847-0.6627-0.0651c-0.5144-0.2966-0.9305-1.0173-0.9283-1.6077      C60.517,42.3732,60.6204,42.1663,60.7876,42.0694z" fill="#A6C2FF"/><path d="M60.2063,41.0647l0.361-0.2101c0.3192-0.1853,0.7607-0.1589,1.2483,0.1222      c0.9694,0.5593,1.7521,1.9161,1.7491,3.0289c-0.0013,0.5104-0.2919,1.1088-0.6062,1.6073      c-0.3314,0.5255-0.7477,1.0339-1.2001,1.4597l-0.3189,0.2758c0.279-0.3147,1.6763-2.0904,1.5985-3.1023      C62.8314,41.558,60.5248,40.8795,60.2063,41.0647z" fill="#A6C2FF"/><g><path d="M63.2034,44.2157c-0.0032,1.1135-1.6759,3.079-1.7639,3.1329       c-0.0874-0.1552-1.7485-4.0454-1.7453-5.1589c0.0032-1.113,0.7915-1.5622,1.7601-1.003       C62.4238,41.7464,63.2066,43.1028,63.2034,44.2157z M61.4446,44.5986c0.6713,0.3876,1.2172,0.0765,1.2194-0.6943       s-0.5402-1.7102-1.2114-2.0978c-0.6708-0.3873-1.2167-0.0762-1.2189,0.6946S60.7738,44.2113,61.4446,44.5986" fill="#3887E5"/></g><g><path d="M62.7277,43.9411c-0.0023,0.8112-0.5768,1.1387-1.2833,0.7308       c-0.706-0.4076-1.2768-1.3963-1.2745-2.2075c0.0023-0.8113,0.5768-1.1387,1.2828-0.7311       C62.1592,42.1412,62.73,43.1299,62.7277,43.9411z M61.4456,44.2464c0.502,0.2898,0.9102,0.0572,0.9118-0.5191       c0.0016-0.5768-0.4039-1.2793-0.9059-1.5691c-0.5015-0.2896-0.9098-0.0569-0.9114,0.5199       C60.5385,43.2544,60.9441,43.9569,61.4456,44.2464" fill="#1E72C6"/></g></g></g><g><g><path d="M80.0086,50.6072c-0.2737,0.158-0.2741,0.415-0.0022,0.5731c0.273,0.1586,0.7156,0.1586,0.9893,0.0006      c0.2747-0.1586,0.2762-0.415,0.0032-0.5737C80.727,50.4491,80.2833,50.4485,80.0086,50.6072z" fill="#4C4A8B"/></g><g><g><path d="M80.5006,51.5895c-0.2984,0-0.5966-0.0659-0.8233-0.1975c-0.2256-0.1312-0.3497-0.3079-0.3494-0.4977       c0.0003-0.1905,0.1257-0.3677,0.3532-0.4991l0,0c0.4555-0.263,1.1941-0.263,1.6469,0c0.226,0.1313,0.3502,0.308,0.3499,0.4974       c-0.0003,0.1906-0.1265,0.3683-0.3553,0.5004C81.0957,51.524,80.7979,51.5895,80.5006,51.5895z M79.7192,50.4613       c-0.2028,0.1172-0.3147,0.271-0.315,0.433c-0.0002,0.1614,0.1104,0.3147,0.3115,0.4315       c0.4314,0.2507,1.1353,0.2511,1.5685,0.001c0.2041-0.1179,0.3167-0.2722,0.317-0.4344c0.0003-0.161-0.1105-0.3141-0.312-0.4311       C80.8581,50.2106,80.1535,50.2106,79.7192,50.4613L79.7192,50.4613z" fill="#4C4A8B"/></g></g><g><path d="M79.9935,46.8273l0.2918-0.1696c-0.1287,0.0747-0.209,0.2341-0.2095,0.4604      c-0.0011,0.4553,0.3188,1.0099,0.715,1.2384c0.1995,0.1153,0.3801,0.1259,0.5105,0.0501L81.01,48.5761      c-0.1304,0.0758-0.311,0.0652-0.5105-0.0502c-0.3963-0.2285-0.7167-0.7836-0.715-1.2384      C79.785,47.0613,79.8647,46.9019,79.9935,46.8273z" fill="#A6C2FF"/><path d="M79.5457,46.0534l0.278-0.1619c0.2459-0.1427,0.586-0.1224,0.9616,0.0942      c0.7467,0.4309,1.3496,1.4759,1.3473,2.3332c-0.001,0.3932-0.2248,0.8541-0.467,1.2381      c-0.2553,0.4048-0.576,0.7964-0.9244,1.1244l-0.2457,0.2125c0.2149-0.2424,1.2912-1.6102,1.2313-2.3897      C81.5678,46.4333,79.791,45.9107,79.5457,46.0534z" fill="#A6C2FF"/><g><path d="M81.8544,48.4806c-0.0024,0.8577-1.2909,2.3717-1.3587,2.4132       c-0.0673-0.1195-1.3468-3.1162-1.3444-3.9739c0.0024-0.8573,0.6097-1.2034,1.3558-0.7726       C81.2538,46.5785,81.8568,47.6233,81.8544,48.4806z M80.4996,48.7755c0.5171,0.2985,0.9376,0.0589,0.9393-0.5348       c0.0017-0.5938-0.4161-1.3174-0.9332-1.6159c-0.5167-0.2983-0.9372-0.0587-0.9389,0.5351       C79.5651,47.7536,79.9829,48.4772,80.4996,48.7755" fill="#3887E5"/></g><g><path d="M81.488,48.269c-0.0018,0.6249-0.4443,0.8771-0.9885,0.5629c-0.5438-0.314-0.9835-1.0756-0.9817-1.7005       c0.0018-0.6249,0.4443-0.8771,0.9882-0.5631C81.05,46.8826,81.4897,47.6441,81.488,48.269z M80.5004,48.5042       c0.3867,0.2232,0.7011,0.044,0.7024-0.3999c0.0013-0.4443-0.3111-0.9854-0.6978-1.2087       c-0.3863-0.223-0.7008-0.0438-0.702,0.4005C79.8016,47.7401,80.114,48.2812,80.5004,48.5042" fill="#1E72C6"/></g></g></g><g><path d="M68.5044,49.1373c-0.2243-0.1601-0.2824-0.2792-0.2908-0.3455     c-0.0001-0.0554,0.0248-0.0774,0.0248-0.0774c0.0139-0.0002,0.2989,0.0245,0.7308,0.3782     c0.2824,0.2377,0.393,0.196,0.4317,0.1322c0.0221-0.0305,0.011-0.0775-0.0167-0.1052c-0.1487-0.1609-0.1668-0.2215-0.1807-0.3601     c-0.0057-0.044-0.0081-0.1363-0.0054-0.1694c0.0055-0.0388,0.0497-0.0582,0.0774-0.0306     c0.0859,0.0773,0.1301,0.1287,0.4128,0.4907c0.1473,0.1801,0.2431,0.3386,0.3053,0.4691     c0.1299,0.2723,0.7728,1.1387,1.0938,1.335c0.5657,0.3562,1.0957,0.6378,1.5438,1.1277     c0.6254,0.6838,1.8354-0.2764,1.8988-0.3381c0,0,0.1141-0.1419,0.4012-0.4756c0.2681,0.4409,0.7139,0.2807,1.1561,0.596     c0.1209,0.0994,0.2009,0.1499,0.2577,0.1917c0.1943,0.2535-0.3568,1.0161-0.1057,1.2251     c-0.7658,0.4415-1.4125,0.4519-2.5088,0.7534c-0.7495,0.2093-1.5518-0.0655-2.0213-0.6895     c-0.6989-0.924-1.6163-2.6695-2.011-2.7037c-0.4547-0.0394-1.2468-0.4985-1.4933-0.7388     c-0.0636-0.0665-0.0942-0.1161-0.0997-0.1466c-0.0084-0.0801,0.3859,0.104,0.4496,0.101     c-0.036-0.0109-0.2092-0.0574-0.4225-0.2951c-0.0664-0.0608-0.0804-0.1022-0.0915-0.1354     c-0.0029-0.0635,0.2092-0.0533,0.2949-0.0173c-0.1522-0.0691-0.1876-0.1324-0.1876-0.1324     c-0.0472-0.0718-0.0616-0.0887-0.0589-0.1218C68.067,48.8916,68.4877,49.129,68.5044,49.1373z" fill="#ECB4BF"/></g><g><g><path d="M68.4452,57.1306c0.4527,0.2614,0.4534,0.6865,0.0036,0.9479c-0.4515,0.2624-1.1838,0.2624-1.6365,0.001      c-0.4544-0.2624-0.4568-0.6865-0.0053-0.9489C67.2568,56.8693,67.9908,56.8683,68.4452,57.1306z" fill="#4C4A8B"/></g><g><g><path d="M66.2718,58.4305c-0.3784-0.2185-0.5872-0.5125-0.5877-0.8278       c-0.0005-0.3132,0.205-0.6055,0.5788-0.8227c0.749-0.435,1.9708-0.435,2.7242,0l0,0c0.3762,0.2173,0.5837,0.5105,0.5842,0.8256       c0.0005,0.314-0.2048,0.6063-0.578,0.8233c-0.375,0.2178-0.8683,0.3267-1.3618,0.3267       C67.1396,58.7556,66.647,58.6473,66.2718,58.4305z M68.9239,56.8894c-0.7183-0.4148-1.8838-0.4148-2.5972,0       c-0.3332,0.1935-0.5165,0.4469-0.516,0.7132c0.0005,0.2683,0.1868,0.5234,0.5244,0.7185       c0.7166,0.4138,1.8808,0.4131,2.5945-0.0016c0.3327-0.1933,0.5155-0.4467,0.5153-0.7138       C69.4443,57.3377,69.2593,57.0832,68.9239,56.8894L68.9239,56.8894z" fill="#4C4A8B"/></g></g><g><path d="M68.7033,49.4162l-0.5876-0.3414c0.2592,0.1504,0.4208,0.4713,0.422,0.927      c0.0023,0.9169-0.6419,2.0335-1.4398,2.4936c-0.4018,0.2323-0.7654,0.2536-1.028,0.101l0.5865,0.3414      c0.2626,0.1527,0.6262,0.1313,1.028-0.101c0.7979-0.4601,1.4432-1.5779,1.4398-2.4936      C69.1231,49.8876,68.9626,49.5666,68.7033,49.4162z" fill="#A6C2FF"/><path d="M69.605,47.858l-0.5599-0.3259c-0.4951-0.2874-1.1799-0.2465-1.9363,0.1896      c-1.5036,0.8676-2.7176,2.972-2.7131,4.6982c0.0021,0.7917,0.4527,1.7198,0.9403,2.493      c0.514,0.8151,1.1598,1.6037,1.8614,2.2641l0.4947,0.4279c-0.4327-0.4881-2.6001-3.2424-2.4795-4.8119      C65.5332,48.623,69.111,47.5706,69.605,47.858z" fill="#A6C2FF"/><g><path d="M67.6692,48.0471c1.5023-0.8674,2.7252-0.1705,2.7301,1.5558c0.0049,1.7271-2.5715,7.7612-2.7071,8.002       c-0.1366-0.0836-2.7311-3.1322-2.736-4.8594C64.9513,51.0192,66.1654,48.9153,67.6692,48.0471z M67.6842,53.3394       c1.0405-0.6007,1.8817-2.0578,1.8783-3.2534c-0.0034-1.1956-0.8501-1.6781-1.8906-1.0774       c-1.0412,0.6011-1.8824,2.0582-1.879,3.2538C65.7963,53.458,66.643,53.9405,67.6842,53.3394" fill="#3887E5"/></g><g><path d="M67.6717,48.895c1.0951-0.6322,1.9862-0.1244,1.9898,1.1339c0.0036,1.2583-0.8818,2.7919-1.9769,3.4241       c-1.0958,0.6327-1.987,0.1248-1.9906-1.1335C65.6905,51.0612,66.5758,49.5276,67.6717,48.895z M67.6827,52.7931       c0.7779-0.4491,1.407-1.5387,1.4045-2.4326c-0.0025-0.8947-0.6357-1.2555-1.4136-0.8064       c-0.7786,0.4495-1.4077,1.5391-1.4052,2.4338C66.2709,52.8818,66.9041,53.2426,67.6827,52.7931" fill="#1E72C6"/></g></g></g><g><g><path d="M51.4041,44.6684c0.2737,0.158,0.2741,0.415,0.0022,0.5731c-0.273,0.1586-0.7156,0.1586-0.9893,0.0006      c-0.2747-0.1586-0.2762-0.415-0.0032-0.5737C50.6857,44.5104,51.1294,44.5098,51.4041,44.6684z" fill="#4C4A8B"/></g><g><g><path d="M50.0902,45.4542c-0.2288-0.1321-0.355-0.3098-0.3553-0.5004c-0.0003-0.1894,0.124-0.366,0.3499-0.4974       c0.4528-0.263,1.1914-0.263,1.6469,0l0,0c0.2274,0.1313,0.3529,0.3086,0.3532,0.4991       c0.0003,0.1898-0.1238,0.3666-0.3495,0.4977c-0.2267,0.1316-0.5249,0.1975-0.8233,0.1975       C50.6148,45.6507,50.317,45.5852,50.0902,45.4542z M51.6935,44.5225c-0.4343-0.2507-1.1389-0.2507-1.5701,0       c-0.2015,0.117-0.3123,0.2702-0.312,0.4311c0.0003,0.1622,0.1129,0.3164,0.317,0.4343       c0.4332,0.2501,1.1371,0.2498,1.5685-0.001c0.2012-0.1169,0.3117-0.2701,0.3115-0.4315       C52.0081,44.7935,51.8963,44.6397,51.6935,44.5225L51.6935,44.5225z" fill="#4C4A8B"/></g></g><g><path d="M51.4192,40.8885l-0.2918-0.1696c0.1287,0.0747,0.209,0.2341,0.2095,0.4604      c0.0011,0.4553-0.3188,1.0099-0.715,1.2384c-0.1995,0.1153-0.3801,0.1259-0.5105,0.0502l0.2913,0.1695      c0.1304,0.0758,0.311,0.0652,0.5105-0.0501c0.3963-0.2285,0.7167-0.7836,0.715-1.2384      C51.6277,41.1225,51.548,40.9631,51.4192,40.8885z" fill="#A6C2FF"/><path d="M51.867,40.1146l-0.278-0.1619c-0.2459-0.1427-0.586-0.1224-0.9616,0.0942      c-0.7467,0.4309-1.3496,1.4759-1.3473,2.3332c0.001,0.3932,0.2248,0.8541,0.467,1.2381      c0.2553,0.4048,0.576,0.7964,0.9244,1.1244l0.2457,0.2125c-0.2149-0.2424-1.2912-1.6102-1.2313-2.3897      C49.8449,40.4946,51.6217,39.9719,51.867,40.1146z" fill="#A6C2FF"/><g><path d="M50.9057,40.2085c0.7461-0.4308,1.3534-0.0847,1.3558,0.7726c0.0024,0.8577-1.277,3.8543-1.3444,3.9739       c-0.0678-0.0415-1.3563-1.5555-1.3587-2.4132C49.5559,41.6845,50.1589,40.6397,50.9057,40.2085z M50.9131,42.8368       c0.5167-0.2983,0.9345-1.0219,0.9328-1.6157c-0.0017-0.5937-0.4222-0.8334-0.9389-0.5351       c-0.5171,0.2985-0.9348,1.0221-0.9332,1.6159C49.9755,42.8957,50.396,43.1353,50.9131,42.8368" fill="#3887E5"/></g><g><path d="M50.9069,40.6296c0.5438-0.314,0.9864-0.0618,0.9882,0.5631c0.0018,0.6249-0.4379,1.3865-0.9817,1.7005       c-0.5442,0.3142-0.9868,0.062-0.9885-0.5629C49.923,41.7054,50.3627,40.9438,50.9069,40.6296z M50.9123,42.5655       c0.3863-0.223,0.6987-0.7642,0.6975-1.2081c-0.0013-0.4443-0.3157-0.6235-0.702-0.4005       c-0.3867,0.2232-0.6991,0.7644-0.6978,1.2087C50.2112,42.6095,50.5257,42.7887,50.9123,42.5655" fill="#1E72C6"/></g></g></g><g><g><path d="M53.95,50.0082c-0.207,0.1195-0.2073,0.3139-0.0017,0.4334c0.2064,0.12,0.5412,0.12,0.7482,0.0005      c0.2078-0.12,0.2089-0.3139,0.0024-0.4338C54.4933,49.8887,54.1578,49.8882,53.95,50.0082z" fill="#4C4A8B"/></g><g><g><path d="M54.3221,50.7511c-0.2257,0-0.4512-0.0498-0.6226-0.1494c-0.1707-0.0992-0.2645-0.2329-0.2643-0.3764       c0.0002-0.1441,0.0951-0.2781,0.2671-0.3774l0,0c0.3445-0.1989,0.9031-0.1989,1.2455,0       c0.1709,0.0993,0.2648,0.2329,0.2646,0.3761c-0.0002,0.1442-0.0957,0.2786-0.2687,0.3785       C54.7721,50.7016,54.5469,50.7511,54.3221,50.7511z M53.7312,49.8979c-0.1534,0.0886-0.238,0.2049-0.2382,0.3275       c-0.0001,0.1221,0.0835,0.238,0.2356,0.3263c0.3263,0.1896,0.8586,0.1899,1.1862,0.0007       c0.1544-0.0892,0.2395-0.2058,0.2398-0.3285c0.0002-0.1217-0.0836-0.2376-0.2359-0.3261       C54.5924,49.7083,54.0596,49.7083,53.7312,49.8979L53.7312,49.8979z" fill="#4C4A8B"/></g></g><g><path d="M53.9386,47.1496l0.2207-0.1282c-0.0974,0.0565-0.1581,0.177-0.1585,0.3482      c-0.0008,0.3444,0.2411,0.7637,0.5408,0.9365c0.1509,0.0872,0.2875,0.0952,0.3861,0.0379l-0.2203,0.1282      c-0.0986,0.0573-0.2352,0.0493-0.3861-0.0379c-0.2997-0.1728-0.542-0.5926-0.5408-0.9365      C53.781,47.3266,53.8412,47.2061,53.9386,47.1496z" fill="#A6C2FF"/><path d="M53.5999,46.5644l0.2103-0.1224c0.186-0.1079,0.4431-0.0926,0.7272,0.0712      c0.5647,0.3258,1.0207,1.1162,1.0189,1.7645c-0.0008,0.2973-0.17,0.6459-0.3532,0.9363      c-0.193,0.3061-0.4356,0.6023-0.6991,0.8503l-0.1858,0.1607c0.1625-0.1833,0.9765-1.2178,0.9312-1.8072      C55.1292,46.8517,53.7855,46.4564,53.5999,46.5644z" fill="#A6C2FF"/><g><path d="M55.3459,48.4c-0.0018,0.6487-0.9763,1.7936-1.0276,1.825c-0.0509-0.0904-1.0185-2.3566-1.0167-3.0053       c0.0018-0.6483,0.4611-0.9101,1.0253-0.5843C54.8917,46.9615,55.3477,47.7516,55.3459,48.4z M54.3213,48.623       c0.391,0.2258,0.709,0.0445,0.7103-0.4045s-0.3147-0.9963-0.7057-1.222c-0.3908-0.2256-0.7088-0.0444-0.7101,0.4046       C53.6146,47.8502,53.9306,48.3974,54.3213,48.623" fill="#3887E5"/></g><g><path d="M55.0688,48.24c-0.0013,0.4726-0.336,0.6633-0.7476,0.4257c-0.4113-0.2374-0.7438-0.8134-0.7425-1.286       c0.0013-0.4726,0.336-0.6633,0.7473-0.4259C54.7376,47.1914,55.0701,47.7674,55.0688,48.24z M54.3219,48.4178       c0.2924,0.1688,0.5302,0.0333,0.5312-0.3024c0.001-0.336-0.2353-0.7452-0.5277-0.9141       c-0.2922-0.1687-0.53-0.0332-0.5309,0.3028C53.7935,47.8399,54.0298,48.2492,54.3219,48.4178" fill="#1E72C6"/></g></g></g><g><g><path d="M68.8984,37.8975c-0.207,0.1195-0.2073,0.3139-0.0017,0.4334c0.2064,0.12,0.5412,0.12,0.7482,0.0005      c0.2078-0.12,0.2089-0.3139,0.0024-0.4338C69.4417,37.778,69.1061,37.7776,68.8984,37.8975z" fill="#4C4A8B"/></g><g><g><path d="M69.2704,38.6404c-0.2256,0-0.4512-0.0498-0.6226-0.1494c-0.1707-0.0992-0.2645-0.2329-0.2643-0.3764       c0.0002-0.1441,0.0951-0.2781,0.2671-0.3774l0,0c0.3445-0.1989,0.9031-0.1989,1.2455,0       c0.1709,0.0993,0.2648,0.2329,0.2646,0.3761c-0.0002,0.1442-0.0957,0.2786-0.2687,0.3785       C69.7205,38.5909,69.4953,38.6404,69.2704,38.6404z M68.6795,37.7872c-0.1534,0.0886-0.238,0.2049-0.2382,0.3275       c-0.0001,0.1221,0.0835,0.238,0.2356,0.3263c0.3263,0.1896,0.8586,0.1899,1.1862,0.0007       c0.1544-0.0892,0.2395-0.2058,0.2398-0.3285c0.0002-0.1217-0.0836-0.2376-0.2359-0.3261       C69.5408,37.5976,69.008,37.5976,68.6795,37.7872L68.6795,37.7872z" fill="#4C4A8B"/></g></g><g><path d="M68.8869,35.0389l0.2207-0.1282c-0.0974,0.0565-0.1581,0.177-0.1585,0.3482      c-0.0008,0.3444,0.2411,0.7637,0.5408,0.9365c0.1509,0.0872,0.2875,0.0952,0.3861,0.0379l-0.2203,0.1282      c-0.0986,0.0573-0.2352,0.0493-0.3861-0.0379c-0.2997-0.1728-0.542-0.5926-0.5408-0.9365      C68.7293,35.216,68.7896,35.0954,68.8869,35.0389z" fill="#A6C2FF"/><path d="M68.5483,34.4537l0.2103-0.1224c0.186-0.1079,0.4431-0.0926,0.7272,0.0712      c0.5647,0.3258,1.0207,1.1162,1.0189,1.7645c-0.0008,0.2973-0.17,0.6459-0.3532,0.9363      c-0.193,0.3061-0.4356,0.6023-0.6991,0.8503l-0.1858,0.1607c0.1625-0.1833,0.9765-1.2178,0.9312-1.8072      C70.0776,34.741,68.7338,34.3458,68.5483,34.4537z" fill="#A6C2FF"/><g><path d="M70.2943,36.2893c-0.0018,0.6487-0.9763,1.7936-1.0276,1.825       c-0.0509-0.0904-1.0185-2.3566-1.0167-3.0053c0.0018-0.6483,0.4611-0.9101,1.0253-0.5843       C69.8401,34.8508,70.2961,35.641,70.2943,36.2893z M69.2697,36.5124c0.391,0.2258,0.709,0.0445,0.7103-0.4045       s-0.3147-0.9963-0.7057-1.222c-0.3908-0.2256-0.7088-0.0444-0.7101,0.4046S68.8789,36.2867,69.2697,36.5124" fill="#3887E5"/></g><g><path d="M70.0172,36.1293c-0.0013,0.4726-0.336,0.6633-0.7476,0.4257       c-0.4113-0.2374-0.7438-0.8134-0.7425-1.286c0.0013-0.4726,0.336-0.6633,0.7473-0.4259       C69.686,35.0808,70.0185,35.6567,70.0172,36.1293z M69.2703,36.3072c0.2924,0.1688,0.5302,0.0333,0.5312-0.3024       c0.001-0.336-0.2353-0.7452-0.5277-0.9141c-0.2922-0.1687-0.53-0.0332-0.5309,0.3029       C68.7419,35.7293,68.9781,36.1385,69.2703,36.3072" fill="#1E72C6"/></g></g></g><g><g><g><path d="M77.5894,76.3727l-1.3765-0.4655c-0.9464,0.809-1.4282,0.5513-2.6327,0.6023       c-1.1873,0.0689-0.8088,0.706-0.8088,0.706c0.3507,0.4093,1.146,0.6435,1.6202,0.7519c0.2235,0.051,0.4499,0.0606,0.6792,0.059       c1.1594-0.0073,2.3083,0.5127,2.6564,0.1005C78.1057,77.68,77.5894,76.3727,77.5894,76.3727z" fill="#3887E5"/><g><path d="M78.9683,64.1296c0.7634-2.2552-0.4753-3.7461-0.6835-4.1277l-3.8172,1.2142        c0,0-0.3178,3.4126,0.9408,7.7051c0.1584,0.5401,0.2472,1.0939,0.289,1.6551c0.1201,1.613,0.3388,4.7662,0.2748,5.5248        c0.3206,0.5436,0.9328,0.6167,1.6844,0.4655c0,0,0.8357-3.7342,0.493-6.3502c-0.1113-0.8502-0.1692-1.7036-0.1078-2.5586        C78.1164,66.6194,78.5805,65.2758,78.9683,64.1296z" fill="#3A3A77"/></g><g><path d="M75.4245,77.8382l-1.3765-0.4655c-0.9464,0.809-1.4281,0.5513-2.6327,0.6023        c-1.1873,0.0689-0.8088,0.706-0.8088,0.706c0.3507,0.4093,1.1461,0.6435,1.6202,0.7519        c0.2235,0.051,0.4499,0.0606,0.6792,0.059c1.1595-0.0073,2.3083,0.5127,2.6564,0.1005        C75.9408,79.1456,75.4245,77.8382,75.4245,77.8382z" fill="#3887E5"/><path d="M77.0035,65.2966c0.8927-2.1158,0.0015-4.2546-0.2067-4.6359l-4.5907,1.9196        c0,0-0.1997,3.4196,1.059,7.7127c0.1583,0.5398,0.2472,1.0936,0.2889,1.6548c0.1201,1.613,0.3388,4.7662,0.2748,5.5245        c0.3206,0.5436,0.9329,0.617,1.6844,0.4658c0,0,0.8159-3.6458,0.5048-6.2567c-0.1106-0.9284-0.1751-1.8609-0.0908-2.7921        C76.0265,67.7937,76.5356,66.4055,77.0035,65.2966z" fill="#4C4A8B"/></g></g></g><g><g><g><path d="M71.6384,55.1273c-0.4966-0.4753-1.0559-1.8022,0.1388-2.3008c1.05-0.4385,0.453-1.8776,1.2722-2.1613        c0.8192-0.2837,1.6873-0.8584,1.6873-0.8584s1.265,0.5513,2.399-0.2677c0,0,1.789-0.2036,1.789,1.2762        c0,1.4825-0.1562,2.5661-0.4024,3.5797c-0.5731,2.3597,0.3742,6.2319,0.4994,7.067c0,0-5.4764,3.6976-6.8157,1.1184        c0,0,0.1159-1.8321,0.2313-2.8727c0.0879-0.7796,0.2365-2.3102,0.0577-3.0524C72.3926,56.2293,71.83,55.3108,71.6384,55.1273z        " fill="#9EB5DF"/></g></g></g><g><path d="M64.6303,50.5446c-0.2243-0.1601-0.2824-0.2792-0.2908-0.3455      c-0.0001-0.0554,0.0248-0.0774,0.0248-0.0774c0.0139-0.0002,0.2989,0.0245,0.7308,0.3782      c0.2824,0.2377,0.393,0.196,0.4317,0.1322c0.0221-0.0305,0.011-0.0775-0.0167-0.1052      c-0.1487-0.1609-0.1668-0.2215-0.1807-0.3601c-0.0057-0.044-0.0081-0.1363-0.0054-0.1694      c0.0055-0.0388,0.0497-0.0582,0.0774-0.0306c0.0859,0.0773,0.1301,0.1287,0.4128,0.4907      c0.1473,0.1801,0.2431,0.3386,0.3053,0.4691c0.1299,0.2723,0.7728,1.1387,1.0938,1.335      c0.5657,0.3562,1.0957,0.6378,1.5438,1.1277c0.6254,0.6838,1.8354-0.2764,1.8988-0.3381c0,0,0.1141-0.1419,0.4012-0.4756      c0.2681,0.4409,0.7139,0.2807,1.1561,0.596c0.1209,0.0994,0.2009,0.1499,0.2577,0.1917      c0.1943,0.2534-0.3568,1.0161-0.1057,1.2251c-0.7658,0.4415-1.4125,0.4519-2.5088,0.7534      c-0.7495,0.2093-1.5518-0.0655-2.0213-0.6895c-0.6989-0.924-1.6163-2.6695-2.011-2.7037      c-0.4547-0.0394-1.2468-0.4985-1.4933-0.7388c-0.0636-0.0665-0.0942-0.1161-0.0997-0.1466      c-0.0084-0.0801,0.3859,0.104,0.4496,0.101c-0.036-0.0109-0.2092-0.0574-0.4225-0.2951      c-0.0664-0.0608-0.0804-0.1022-0.0915-0.1354c-0.0029-0.0635,0.2092-0.0533,0.2949-0.0173      c-0.1522-0.0691-0.1876-0.1324-0.1876-0.1324c-0.0472-0.0718-0.0616-0.0887-0.0589-0.1218      C64.1929,50.2989,64.6137,50.5364,64.6303,50.5446z" fill="#ECB4BF"/><path d="M74.5136,51.1879c-0.2995-0.6711-1.6127-0.7558-2.3969,0.0195      c-0.2911,0.288-0.9422,1.0046-1.4572,1.7102c0.0077,0.8133,0.9729,1.9685,1.4626,1.9094      c0.6555-0.4113,1.5095-1.0145,1.7661-1.2685C74.672,52.7842,74.8152,51.8579,74.5136,51.1879z" fill="#83A1CC"/></g><g><g><path d="M73.5831,46.0352c0,0,2.0897-0.1828,2.1028-0.1437c0.0131,0.0393,1.4846,2.9798-0.0697,3.5152       c-0.5602,0.1929-1.1604,0.8554-1.4461,0.4166c-0.5069-0.7786-0.7079-2.54-0.7307-2.9518       C73.4039,46.2278,73.5831,46.0352,73.5831,46.0352z" fill="#ECB4BF"/></g><path d="M78.2408,49.2336c-0.6362-1.0154-0.4128-1.8471-0.4128-1.8471      c0.2384-2.2539-0.5182-2.8266-0.5182-2.8266c-1.0349-1.525-4.0285-0.588-4.0004,0.8244c0.0141,0.7429,0.3159,1.131,0.6598,1.374      c0.037,0.0263,0.0632,0.0654,0.0702,0.1101c0.0722,0.4586,0.0664,0.891,0.0664,0.891l0.2467,0.2373      c0.0171-0.4371,0.0595-0.6742,0.1128-0.8246c0.0195-0.0554,0.3544-0.2944,0.3167,0.593      c-0.049,1.1567-0.118,2.0391-0.2839,2.6992c-0.7026,2.7952,1.9445,1.7855,3.246,1.2825      C79.0456,51.2434,78.9045,50.293,78.2408,49.2336z" fill="#4C4A8B"/></g></g></g></g></svg>