<svg width="468" height="134" viewBox="0 0 468 134" fill="none" xmlns="http://www.w3.org/2000/svg">
<path d="M427.654 124.75L32.0539 124.92L30.7339 47.09L413.294 60.15L427.654 124.75Z" fill="#0F0F0F"/>
<path d="M92.4837 133.62C113.001 133.62 129.634 116.987 129.634 96.47C129.634 75.9526 113.001 59.3199 92.4837 59.3199C71.9664 59.3199 55.3337 75.9526 55.3337 96.47C55.3337 116.987 71.9664 133.62 92.4837 133.62Z" fill="#232323"/>
<path d="M85.7537 124.45C84.5582 124.162 83.3824 123.798 82.2337 123.36C82.8964 121.89 83.0314 120.237 82.616 118.679C82.2006 117.121 81.2602 115.755 79.9537 114.81C78.7566 113.939 77.3141 113.47 75.8337 113.47C74.9046 113.466 73.984 113.647 73.1255 114.002C72.2671 114.358 71.488 114.88 70.8337 115.54C69.9827 114.592 69.1944 113.59 68.4737 112.54C69.9244 111.867 71.101 110.718 71.8077 109.283C72.5145 107.849 72.7087 106.215 72.358 104.655C72.0074 103.095 71.1331 101.701 69.8806 100.707C68.628 99.7129 67.0728 99.1774 65.4737 99.1899C64.8484 99.1874 64.2258 99.2716 63.6237 99.4399C63.4879 98.3151 63.4211 97.1829 63.4237 96.0499C63.4237 95.7999 63.4237 95.5399 63.4237 95.2699C65.1821 95.8075 67.0815 95.6316 68.7113 94.7802C70.3411 93.9288 71.5704 92.4703 72.1337 90.7199C72.4206 89.8441 72.5317 88.9202 72.4606 88.0013C72.3896 87.0825 72.1378 86.1866 71.7197 85.3653C71.3016 84.544 70.7254 83.8133 70.0242 83.2151C69.3231 82.617 68.5107 82.1633 67.6337 81.8799L67.1537 81.7399C67.9265 80.3705 68.8094 79.0662 69.7937 77.8399C69.9042 78.0325 70.0244 78.2194 70.1537 78.3999C70.8075 79.2965 71.6634 80.0262 72.652 80.5301C73.6406 81.0339 74.7341 81.2977 75.8437 81.2999C77.1411 81.306 78.4148 80.9514 79.5224 80.2756C80.63 79.5998 81.528 78.6295 82.1161 77.473C82.7043 76.3164 82.9594 75.0192 82.853 73.726C82.7466 72.4329 82.2829 71.1948 81.5137 70.1499C81.3021 69.8587 81.0681 69.5845 80.8137 69.3299C82.391 68.6323 84.0275 68.0767 85.7037 67.6699C85.6352 68.0494 85.6017 68.4343 85.6037 68.8199C85.6037 70.6764 86.3412 72.4569 87.6539 73.7697C88.9667 75.0824 90.7471 75.8199 92.6037 75.8199C94.4602 75.8199 96.2406 75.0824 97.5534 73.7697C98.8662 72.4569 99.6037 70.6764 99.6037 68.8199C99.6056 68.4343 99.5721 68.0494 99.5037 67.6699C101.18 68.0767 102.816 68.6323 104.394 69.3299C103.613 70.1029 103.025 71.0488 102.677 72.0912C102.33 73.1335 102.233 74.243 102.394 75.3299C102.649 76.9818 103.487 78.4876 104.756 79.5753C106.026 80.6629 107.642 81.2605 109.314 81.2599C110.423 81.2577 111.517 80.9939 112.505 80.4901C113.494 79.9862 114.35 79.2564 115.004 78.3599C115.134 78.1799 115.254 77.9899 115.374 77.7999C116.351 79.0289 117.231 80.3329 118.004 81.6999L117.534 81.8399C115.915 82.3287 114.527 83.387 113.628 84.8192C112.729 86.2515 112.379 87.9609 112.642 89.6315C112.905 91.302 113.765 92.8207 115.061 93.9068C116.357 94.9929 118.003 95.573 119.694 95.5399C120.372 95.5332 121.045 95.4288 121.694 95.2299C121.694 95.4999 121.694 95.7599 121.694 96.0099C121.696 97.1429 121.629 98.2751 121.494 99.3999C120.891 99.2316 120.269 99.1474 119.644 99.1499C118.048 99.1424 116.498 99.68 115.25 100.674C114.002 101.667 113.131 103.058 112.781 104.614C112.431 106.17 112.623 107.8 113.326 109.232C114.028 110.664 115.199 111.814 116.644 112.49C115.931 113.543 115.146 114.546 114.294 115.49C112.967 114.165 111.169 113.421 109.294 113.42C108.121 113.416 106.966 113.706 105.935 114.265C104.904 114.824 104.03 115.632 103.392 116.617C102.755 117.601 102.376 118.73 102.289 119.9C102.201 121.069 102.41 122.242 102.894 123.31C101.745 123.748 100.569 124.112 99.3737 124.4C99.0523 122.818 98.1938 121.395 96.9436 120.373C95.6934 119.351 94.1284 118.793 92.5137 118.793C90.899 118.793 89.3339 119.351 88.0837 120.373C86.8335 121.395 85.975 122.818 85.6537 124.4L85.7537 124.45Z" fill="#353535"/>
<path d="M100.914 69.4C101.394 69.55 101.914 69.71 102.334 69.88C101.246 71.631 100.846 73.7236 101.213 75.7523C101.58 77.7811 102.687 79.6013 104.319 80.8603C105.952 82.1193 107.994 82.7273 110.049 82.5665C112.104 82.4057 114.027 81.4875 115.444 79.99C115.694 80.34 115.934 80.7 116.164 81.06C114.463 81.8766 113.091 83.2467 112.271 84.9458C111.452 86.6449 111.234 88.5719 111.654 90.411C112.074 92.25 113.106 93.8919 114.581 95.0673C116.056 96.2427 117.887 96.8819 119.774 96.88C120.02 96.8952 120.267 96.8952 120.514 96.88C120.514 97.24 120.514 97.6 120.464 97.96H119.774C118.028 97.9683 116.328 98.5259 114.916 99.5537C113.505 100.582 112.452 102.028 111.908 103.687C111.364 105.346 111.355 107.135 111.884 108.799C112.413 110.463 113.452 111.919 114.854 112.96C114.654 113.23 114.444 113.49 114.234 113.76C112.844 112.768 111.183 112.228 109.476 112.212C107.769 112.197 106.098 112.707 104.691 113.673C103.283 114.639 102.207 116.015 101.609 117.614C101.01 119.213 100.917 120.957 101.344 122.61L100.344 122.92C99.7317 121.369 98.6672 120.038 97.2887 119.1C95.9101 118.162 94.2812 117.66 92.6138 117.66C90.9463 117.66 89.3174 118.162 87.9388 119.1C86.5603 120.038 85.4958 121.369 84.8838 122.92L83.8838 122.61C84.1672 121.506 84.2217 120.356 84.0438 119.23C83.8201 117.837 83.2454 116.523 82.3738 115.414C81.5021 114.304 80.3623 113.435 79.0617 112.887C77.7611 112.34 76.3425 112.133 74.9398 112.286C73.537 112.438 72.1962 112.946 71.0438 113.76C70.8238 113.49 70.6138 113.23 70.4138 112.96C71.8158 111.919 72.8548 110.463 73.3835 108.799C73.9123 107.135 73.9039 105.346 73.3596 103.687C72.8154 102.028 71.7629 100.582 70.3511 99.5537C68.9394 98.5259 67.24 97.9683 65.4938 97.96H64.8038C64.8038 97.6 64.8038 97.24 64.8038 96.88C65.0502 96.8952 65.2973 96.8952 65.5438 96.88C67.4301 96.8819 69.2611 96.2427 70.7364 95.0673C72.2117 93.8919 73.2439 92.25 73.6635 90.411C74.0832 88.5719 73.8655 86.6449 73.046 84.9458C72.2266 83.2467 70.8542 81.8766 69.1538 81.06C69.3838 80.7 69.6238 80.34 69.8738 79.99C70.6463 80.807 71.576 81.4594 72.6071 81.908C73.6382 82.3565 74.7494 82.5919 75.8738 82.6C77.3566 82.5965 78.8116 82.1974 80.0886 81.4436C81.3656 80.6899 82.4182 79.609 83.1378 78.3125C83.8574 77.016 84.2179 75.5509 84.182 74.0685C84.1461 72.5861 83.7152 71.1402 82.9337 69.88C83.4037 69.71 83.8738 69.55 84.3538 69.4C84.4998 71.5017 85.4376 73.4698 86.9781 74.907C88.5186 76.3442 90.5469 77.1435 92.6537 77.1435C94.7605 77.1435 96.7889 76.3442 98.3294 74.907C99.8699 73.4698 100.808 71.5017 100.954 69.4H100.914ZM97.5338 65.99C97.9763 66.7473 98.2384 67.5964 98.2998 68.4714C98.3611 69.3464 98.2201 70.2238 97.8876 71.0354C97.5551 71.8471 97.04 72.5712 96.3824 73.1517C95.7248 73.7322 94.9423 74.1533 94.0956 74.3825C93.249 74.6117 92.3609 74.6427 91.5003 74.4732C90.6397 74.3037 89.8297 73.9382 89.1331 73.405C88.4366 72.8719 87.8723 72.1855 87.4839 71.399C87.0956 70.6125 86.8936 69.7471 86.8938 68.87C86.8996 67.8546 87.1794 66.8596 87.7038 65.99C84.3997 66.526 81.2067 67.6038 78.2538 69.18C79.1269 69.576 79.8843 70.1887 80.4538 70.96C80.9062 71.5667 81.2338 72.2572 81.4174 72.9914C81.6011 73.7256 81.6373 74.4889 81.5238 75.2372C81.4103 75.9855 81.1494 76.7038 80.7563 77.3506C80.3632 77.9973 79.8457 78.5596 79.2337 79.0049C78.6217 79.4501 77.9274 79.7695 77.1911 79.9445C76.4548 80.1195 75.691 80.1467 74.9441 80.0244C74.1972 79.9021 73.482 79.6328 72.84 79.2321C72.1979 78.8313 71.6418 78.3072 71.2038 77.69C70.6995 77.0059 70.3575 76.2159 70.2038 75.38C68.1284 77.6206 66.3993 80.1586 65.0738 82.91H65.4538C66.0445 82.906 66.632 82.9971 67.1938 83.18C67.9838 83.34 68.7312 83.6652 69.3868 84.1343C70.0424 84.6034 70.5914 85.2057 70.9979 85.9019C71.4044 86.598 71.6591 87.3722 71.7455 88.1737C71.8318 88.9752 71.7477 89.7859 71.4987 90.5527C71.2498 91.3194 70.8416 92.0248 70.3009 92.6227C69.7602 93.2207 69.0992 93.6975 68.3613 94.0221C67.6234 94.3467 66.8252 94.5116 66.0191 94.506C65.213 94.5005 64.4171 94.3246 63.6838 93.99C63.166 93.8131 62.6773 93.5603 62.2338 93.24C62.1538 94.17 62.1038 95.1 62.1038 96.05C62.1062 97.7996 62.2567 99.5458 62.5538 101.27C62.9121 101.062 63.2907 100.891 63.6838 100.76C64.402 100.513 65.1621 100.412 65.9198 100.462C66.6776 100.512 67.4177 100.713 68.0972 101.052C68.7766 101.392 69.3816 101.863 69.877 102.438C70.3724 103.014 70.7483 103.682 70.9826 104.405C71.217 105.127 71.3052 105.889 71.242 106.645C71.1789 107.402 70.9657 108.139 70.6149 108.812C70.264 109.486 69.7826 110.083 69.1987 110.568C68.6147 111.054 67.94 111.418 67.2138 111.64C66.9707 111.709 66.7235 111.762 66.4738 111.8C67.7379 113.882 69.2415 115.808 70.9538 117.54C71.0438 117.4 71.1038 117.25 71.2038 117.12C71.6335 116.484 72.1868 115.941 72.8307 115.523C73.4747 115.105 74.1962 114.822 74.9522 114.688C75.7082 114.555 76.4832 114.576 77.2311 114.749C77.979 114.922 78.6845 115.243 79.3056 115.694C79.9266 116.145 80.4504 116.717 80.8459 117.375C81.2414 118.033 81.5005 118.763 81.6076 119.524C81.7147 120.284 81.6678 121.058 81.4696 121.799C81.2713 122.541 80.9259 123.235 80.4538 123.84L80.3338 123.98C82.4429 124.888 84.6464 125.559 86.9037 125.98C86.9037 125.98 86.9037 125.92 86.9037 125.89C86.9037 124.373 87.5064 122.918 88.5791 121.845C89.6518 120.773 91.1067 120.17 92.6237 120.17C94.1408 120.17 95.5957 120.773 96.6684 121.845C97.7411 122.918 98.3438 124.373 98.3438 125.89C98.3438 125.89 98.3438 125.95 98.3438 125.98C100.601 125.559 102.805 124.888 104.914 123.98C104.877 123.931 104.837 123.884 104.794 123.84C104.35 123.232 104.03 122.542 103.853 121.811C103.677 121.079 103.647 120.319 103.765 119.576C103.883 118.832 104.147 118.119 104.541 117.478C104.936 116.837 105.453 116.28 106.064 115.84C107.036 115.129 108.209 114.747 109.414 114.75C110.319 114.749 111.211 114.962 112.017 115.373C112.824 115.783 113.522 116.378 114.054 117.11C114.144 117.24 114.214 117.39 114.294 117.53C116.009 115.801 117.513 113.874 118.774 111.79C118.524 111.752 118.277 111.699 118.034 111.63C117.308 111.408 116.633 111.044 116.049 110.558C115.465 110.073 114.983 109.476 114.633 108.802C114.282 108.129 114.069 107.392 114.005 106.635C113.942 105.879 114.031 105.117 114.265 104.395C114.499 103.672 114.875 103.004 115.37 102.428C115.866 101.853 116.471 101.382 117.15 101.042C117.83 100.703 118.57 100.502 119.328 100.452C120.085 100.402 120.846 100.503 121.564 100.75C121.957 100.881 122.335 101.052 122.694 101.26C122.994 99.5361 123.148 97.7898 123.154 96.04C123.154 95.09 123.104 94.16 123.014 93.23C122.57 93.5503 122.082 93.8031 121.564 93.98C120.846 94.2267 120.085 94.3279 119.328 94.2777C118.57 94.2275 117.83 94.0269 117.15 93.6877C116.471 93.3484 115.866 92.8773 115.37 92.3018C114.875 91.7262 114.499 91.0578 114.265 90.3354C114.031 89.6131 113.942 88.8513 114.005 88.0946C114.069 87.3378 114.282 86.6012 114.633 85.9277C114.983 85.2542 115.465 84.6573 116.049 84.1718C116.633 83.6863 117.308 83.3219 118.034 83.1C118.595 82.9171 119.183 82.826 119.774 82.83H120.134C118.808 80.0786 117.079 77.5406 115.004 75.3C114.844 76.1408 114.498 76.935 113.99 77.6239C113.482 78.3127 112.826 78.8786 112.07 79.2796C111.314 79.6807 110.477 79.9066 109.622 79.9408C108.767 79.975 107.915 79.8165 107.129 79.477C106.344 79.1376 105.644 78.6259 105.083 77.9797C104.522 77.3336 104.113 76.5696 103.887 75.7442C103.661 74.9188 103.623 74.053 103.776 73.2111C103.93 72.3691 104.271 71.5725 104.774 70.88C105.343 70.1087 106.101 69.4959 106.974 69.1C104.019 67.5531 100.83 66.5025 97.5338 65.99Z" fill="#3F3F3F"/>
<path d="M92.6138 74.54C93.6216 74.5454 94.6127 74.283 95.4858 73.7797C96.3589 73.2765 97.0827 72.5503 97.5832 71.6756C98.0836 70.8008 98.3427 69.8089 98.334 68.8011C98.3254 67.7934 98.0492 66.806 97.5338 65.94C94.2788 65.4067 90.9588 65.4067 87.7038 65.94C87.1795 66.8096 86.8996 67.8046 86.8938 68.82C86.8938 69.5711 87.0417 70.3149 87.3292 71.0089C87.6166 71.7029 88.038 72.3335 88.5692 72.8646C89.1003 73.3958 89.7309 73.8171 90.4248 74.1046C91.1188 74.392 91.8626 74.54 92.6138 74.54Z" fill="black"/>
<path d="M79.1837 78.9C79.7942 78.4596 80.3117 77.9028 80.7063 77.2617C81.1009 76.6205 81.3648 75.9077 81.4828 75.1642C81.6008 74.4207 81.5707 73.6611 81.394 72.9293C81.2174 72.1975 80.8978 71.5078 80.4537 70.9C79.8842 70.1287 79.1268 69.516 78.2537 69.12C75.2609 70.7276 72.5572 72.823 70.2537 75.32C70.4074 76.1559 70.7494 76.9459 71.2537 77.63C72.142 78.8432 73.473 79.6569 74.9577 79.8947C76.4424 80.1325 77.9609 79.775 79.1837 78.9Z" fill="black"/>
<path d="M70.8936 90.32C71.3598 88.8772 71.234 87.3084 70.5439 85.9583C69.8539 84.6082 68.656 83.5874 67.2136 83.12C66.5306 82.8962 65.8105 82.8078 65.0936 82.86C63.5308 86.126 62.5623 89.6443 62.2336 93.25C62.6772 93.5704 63.1659 93.8231 63.6836 94C65.1278 94.4665 66.698 94.341 68.0497 93.651C69.4014 92.9611 70.4241 91.7632 70.8936 90.32Z" fill="black"/>
<path d="M70.8937 104.44C70.4222 102.999 69.3985 101.803 68.0471 101.115C66.6956 100.427 65.1265 100.303 63.6837 100.77C63.2907 100.901 62.912 101.072 62.5537 101.28C63.1988 105.002 64.5279 108.572 66.4737 111.81C66.7235 111.772 66.9706 111.719 67.2137 111.65C68.6569 111.181 69.8548 110.158 70.5447 108.806C71.2346 107.454 71.3601 105.884 70.8937 104.44Z" fill="black"/>
<path d="M79.1838 115.86C78.5765 115.415 77.8869 115.094 77.1548 114.916C76.4228 114.739 75.6629 114.709 74.919 114.827C74.1751 114.945 73.462 115.209 72.8209 115.604C72.1798 116 71.6234 116.518 71.1838 117.13C71.0838 117.26 71.0238 117.41 70.9338 117.55C73.6369 120.266 76.8254 122.45 80.3338 123.99L80.4538 123.85C80.8965 123.242 81.2148 122.554 81.3905 121.823C81.5663 121.092 81.596 120.334 81.478 119.591C81.36 118.849 81.0966 118.137 80.7029 117.497C80.3092 116.857 79.793 116.3 79.1838 115.86Z" fill="black"/>
<path d="M92.6138 120.22C91.0968 120.22 89.6419 120.823 88.5692 121.895C87.4964 122.968 86.8938 124.423 86.8938 125.94C86.8938 125.94 86.8938 126 86.8938 126.03C90.6664 126.75 94.5412 126.75 98.3138 126.03C98.3138 126.03 98.3138 125.97 98.3138 125.94C98.3138 124.426 97.7139 122.975 96.6455 121.902C95.5771 120.83 94.1274 120.225 92.6138 120.22Z" fill="black"/>
<path d="M106.044 115.86C105.433 116.3 104.916 116.857 104.521 117.498C104.127 118.139 103.863 118.852 103.745 119.596C103.627 120.339 103.657 121.099 103.833 121.831C104.01 122.562 104.33 123.252 104.774 123.86C104.817 123.904 104.857 123.951 104.894 124C108.395 122.458 111.577 120.273 114.274 117.56C114.194 117.42 114.124 117.27 114.034 117.14C113.593 116.531 113.037 116.015 112.397 115.621C111.757 115.227 111.046 114.963 110.304 114.844C109.562 114.726 108.804 114.754 108.073 114.928C107.342 115.103 106.652 115.419 106.044 115.86Z" fill="black"/>
<path d="M121.544 100.77C120.825 100.523 120.065 100.422 119.308 100.472C118.55 100.522 117.81 100.723 117.13 101.062C116.451 101.401 115.846 101.873 115.35 102.448C114.855 103.024 114.479 103.692 114.245 104.414C114.01 105.137 113.922 105.899 113.985 106.655C114.049 107.412 114.262 108.149 114.613 108.822C114.963 109.496 115.445 110.093 116.029 110.578C116.613 111.064 117.287 111.428 118.014 111.65C118.257 111.719 118.504 111.772 118.754 111.81C120.704 108.574 122.033 105.003 122.674 101.28C122.315 101.072 121.937 100.901 121.544 100.77Z" fill="black"/>
<path d="M114.334 90.32C114.803 91.7632 115.826 92.9611 117.178 93.651C118.529 94.341 120.1 94.4665 121.544 94C122.061 93.8231 122.55 93.5704 122.994 93.25C122.67 89.6434 121.701 86.1243 120.134 82.86C119.417 82.8078 118.697 82.8962 118.014 83.12C116.571 83.5874 115.373 84.6082 114.683 85.9583C113.993 87.3084 113.868 88.8772 114.334 90.32Z" fill="black"/>
<path d="M104.774 70.91C104.262 71.6028 103.914 72.4021 103.755 73.2482C103.595 74.0944 103.629 74.9656 103.854 75.7969C104.078 76.6282 104.487 77.3982 105.05 78.0493C105.614 78.7005 106.317 79.216 107.107 79.5575C107.898 79.899 108.755 80.0577 109.615 80.0217C110.476 79.9856 111.317 79.7559 112.076 79.3495C112.835 78.9431 113.492 78.3705 113.999 77.6746C114.506 76.9786 114.85 76.1771 115.004 75.33C112.7 72.833 109.996 70.7376 107.004 69.13C106.12 69.5216 105.352 70.1347 104.774 70.91Z" fill="black"/>
<path d="M92.0636 127.33C85.9601 127.33 79.9936 125.52 74.9187 122.129C69.8438 118.738 65.8884 113.918 63.5527 108.279C61.217 102.641 60.6059 96.4356 61.7966 90.4494C62.9873 84.4631 65.9265 78.9644 70.2423 74.6486C74.5582 70.3327 80.0569 67.3936 86.0431 66.2028C92.0294 65.0121 98.2343 65.6233 103.873 67.959C109.512 70.2947 114.332 74.2501 117.723 79.325C121.114 84.3999 122.924 90.3664 122.924 96.4699C122.913 104.651 119.658 112.494 113.873 118.279C108.088 124.065 100.245 127.319 92.0636 127.33ZM92.0636 68.2199C86.4739 68.2199 81.0097 69.8776 76.3622 72.9833C71.7146 76.089 68.0925 80.5031 65.9538 85.6676C63.8152 90.832 63.2561 96.5146 64.3474 101.997C65.4386 107.479 68.1311 112.514 72.0843 116.466C76.0376 120.418 81.0739 123.109 86.5565 124.198C92.0391 125.287 97.7215 124.726 102.885 122.586C108.049 120.445 112.462 116.822 115.566 112.173C118.67 107.524 120.326 102.06 120.324 96.4699C120.313 88.979 117.332 81.7982 112.034 76.5023C106.736 71.2064 99.5545 68.2278 92.0636 68.2199Z" fill="#F7F6F5"/>
<path d="M92.6138 106.6C97.7059 106.6 101.834 102.472 101.834 97.3799C101.834 92.2878 97.7059 88.1599 92.6138 88.1599C87.5217 88.1599 83.3938 92.2878 83.3938 97.3799C83.3938 102.472 87.5217 106.6 92.6138 106.6Z" fill="#CCCCCC"/>
<path d="M92.6137 109.2C90.2759 109.2 87.9906 108.507 86.0469 107.208C84.1031 105.909 82.5881 104.063 81.6935 101.903C80.7988 99.7434 80.5647 97.3668 81.0208 95.074C81.4769 92.7811 82.6027 90.675 84.2557 89.022C85.9088 87.3689 88.0149 86.2431 90.3077 85.7871C92.6006 85.331 94.9772 85.5651 97.137 86.4597C99.2969 87.3543 101.143 88.8693 102.442 90.8131C103.74 92.7569 104.434 95.0422 104.434 97.38C104.431 100.514 103.185 103.519 100.969 105.735C98.7527 107.951 95.7478 109.197 92.6137 109.2ZM92.6137 90.7599C91.3044 90.7599 90.0245 91.1482 88.9358 91.8756C87.8472 92.603 86.9987 93.6369 86.4976 94.8466C85.9966 96.0562 85.8655 97.3873 86.1209 98.6714C86.3764 99.9556 87.0068 101.135 87.9327 102.061C88.8585 102.987 90.0381 103.617 91.3222 103.873C92.6064 104.128 93.9374 103.997 95.1471 103.496C96.3567 102.995 97.3906 102.146 98.118 101.058C98.8454 99.9692 99.2337 98.6893 99.2337 97.38C99.2311 95.625 98.5327 93.9427 97.2918 92.7018C96.0509 91.4609 94.3686 90.7626 92.6137 90.7599Z" fill="#1C1C1C"/>
<path d="M92.4839 84.31C93.7431 84.31 94.7639 83.2892 94.7639 82.03C94.7639 80.7708 93.7431 79.75 92.4839 79.75C91.2246 79.75 90.2039 80.7708 90.2039 82.03C90.2039 83.2892 91.2246 84.31 92.4839 84.31Z" fill="#1E1E1D"/>
<path d="M83.4839 87.32C84.7431 87.32 85.7639 86.2992 85.7639 85.04C85.7639 83.7808 84.7431 82.76 83.4839 82.76C82.2246 82.76 81.2039 83.7808 81.2039 85.04C81.2039 86.2992 82.2246 87.32 83.4839 87.32Z" fill="#1E1E1D"/>
<path d="M77.9738 95.04C79.2331 95.04 80.2538 94.0192 80.2538 92.76C80.2538 91.5008 79.2331 90.48 77.9738 90.48C76.7146 90.48 75.6938 91.5008 75.6938 92.76C75.6938 94.0192 76.7146 95.04 77.9738 95.04Z" fill="#1E1E1D"/>
<path d="M78.0537 104.53C79.3129 104.53 80.3337 103.509 80.3337 102.25C80.3337 100.991 79.3129 99.97 78.0537 99.97C76.7945 99.97 75.7737 100.991 75.7737 102.25C75.7737 103.509 76.7945 104.53 78.0537 104.53Z" fill="#1E1E1D"/>
<path d="M83.6938 112.16C84.953 112.16 85.9738 111.139 85.9738 109.88C85.9738 108.621 84.953 107.6 83.6938 107.6C82.4346 107.6 81.4138 108.621 81.4138 109.88C81.4138 111.139 82.4346 112.16 83.6938 112.16Z" fill="#1E1E1D"/>
<path d="M92.7436 115.01C94.0028 115.01 95.0237 113.989 95.0237 112.73C95.0237 111.471 94.0028 110.45 92.7436 110.45C91.4844 110.45 90.4636 111.471 90.4636 112.73C90.4636 113.989 91.4844 115.01 92.7436 115.01Z" fill="#1E1E1D"/>
<path d="M101.744 112.01C103.003 112.01 104.024 110.989 104.024 109.73C104.024 108.471 103.003 107.45 101.744 107.45C100.484 107.45 99.4636 108.471 99.4636 109.73C99.4636 110.989 100.484 112.01 101.744 112.01Z" fill="#1E1E1D"/>
<path d="M107.254 104.28C108.513 104.28 109.534 103.259 109.534 102C109.534 100.741 108.513 99.72 107.254 99.72C105.994 99.72 104.974 100.741 104.974 102C104.974 103.259 105.994 104.28 107.254 104.28Z" fill="#1E1E1D"/>
<path d="M107.174 94.8C108.433 94.8 109.454 93.7792 109.454 92.52C109.454 91.2608 108.433 90.24 107.174 90.24C105.915 90.24 104.894 91.2608 104.894 92.52C104.894 93.7792 105.915 94.8 107.174 94.8Z" fill="#1E1E1D"/>
<path d="M101.534 87.17C102.793 87.17 103.814 86.1492 103.814 84.89C103.814 83.6308 102.793 82.61 101.534 82.61C100.274 82.61 99.2537 83.6308 99.2537 84.89C99.2537 86.1492 100.274 87.17 101.534 87.17Z" fill="#1E1E1D"/>
<path d="M379.424 133.2C398.776 133.2 414.464 117.512 414.464 98.16C414.464 78.8079 398.776 63.12 379.424 63.12C360.072 63.12 344.384 78.8079 344.384 98.16C344.384 117.512 360.072 133.2 379.424 133.2Z" fill="#1E1E1E"/>
<path d="M385.944 124.86C385.589 123.404 384.756 122.109 383.577 121.182C382.398 120.256 380.943 119.753 379.444 119.753C377.945 119.753 376.489 120.256 375.311 121.182C374.132 122.109 373.299 123.404 372.944 124.86C371.868 124.591 370.809 124.257 369.774 123.86C370.29 122.692 370.453 121.399 370.244 120.14C369.998 118.564 369.196 117.128 367.984 116.092C366.772 115.056 365.229 114.488 363.634 114.49C361.88 114.497 360.198 115.185 358.944 116.41C358.182 115.558 357.474 114.66 356.824 113.72C358.178 113.047 359.265 111.936 359.907 110.567C360.55 109.198 360.711 107.651 360.363 106.18C360.015 104.708 359.18 103.397 357.993 102.46C356.805 101.523 355.336 101.016 353.824 101.02C353.257 101.019 352.692 101.093 352.144 101.24C352.025 100.211 351.965 99.1759 351.964 98.14C351.964 97.93 351.964 97.72 351.964 97.5C352.565 97.6751 353.188 97.7627 353.814 97.7599C355.411 97.7661 356.958 97.2006 358.174 96.1657C359.391 95.1308 360.197 93.6948 360.447 92.1173C360.697 90.5398 360.375 88.9248 359.538 87.5645C358.701 86.2041 357.405 85.188 355.884 84.7L355.524 84.59C356.226 83.3659 357.018 82.1959 357.894 81.09C357.985 81.2427 358.085 81.3897 358.194 81.53C358.814 82.3836 359.628 83.0785 360.568 83.5582C361.508 84.0378 362.548 84.2885 363.604 84.2899C364.838 84.2888 366.048 83.9467 367.1 83.3015C368.152 82.6562 369.006 81.7329 369.566 80.6334C370.127 79.5338 370.373 78.3008 370.277 77.0703C370.182 75.8397 369.748 74.6596 369.024 73.66C368.843 73.4108 368.642 73.1767 368.424 72.96C369.843 72.3307 371.316 71.8288 372.824 71.46C372.772 71.7908 372.745 72.1251 372.744 72.46C372.709 73.3609 372.856 74.2597 373.177 75.1023C373.498 75.945 373.985 76.7142 374.611 77.364C375.236 78.0137 375.986 78.5306 376.815 78.8837C377.645 79.2368 378.537 79.4188 379.439 79.4188C380.34 79.4188 381.233 79.2368 382.062 78.8837C382.892 78.5306 383.642 78.0137 384.267 77.364C384.892 76.7142 385.38 75.945 385.701 75.1023C386.021 74.2597 386.169 73.3609 386.134 72.46C386.136 72.1253 386.113 71.791 386.064 71.46C387.568 71.8304 389.037 72.3323 390.454 72.96C389.544 73.9054 388.932 75.0977 388.694 76.3884C388.456 77.6791 388.603 79.0112 389.117 80.2189C389.631 81.4265 390.489 82.4564 391.583 83.1803C392.678 83.9042 393.961 84.2901 395.274 84.2899C396.331 84.2885 397.372 84.0378 398.314 83.5583C399.256 83.0787 400.071 82.3838 400.694 81.53L400.994 81.09C401.87 82.1959 402.662 83.3659 403.364 84.59L402.994 84.7C401.473 85.188 400.177 86.2041 399.34 87.5645C398.503 88.9248 398.18 90.5398 398.43 92.1173C398.681 93.6948 399.487 95.1308 400.703 96.1657C401.92 97.2006 403.467 97.7661 405.064 97.7599C405.69 97.7591 406.312 97.6716 406.914 97.5C406.914 97.72 406.914 97.93 406.914 98.14C406.913 99.1759 406.853 100.211 406.734 101.24C406.186 101.092 405.621 101.018 405.054 101.02C403.542 101.016 402.072 101.523 400.885 102.46C399.698 103.397 398.863 104.708 398.515 106.18C398.167 107.651 398.328 109.198 398.97 110.567C399.613 111.936 400.7 113.047 402.054 113.72C401.41 114.662 400.705 115.561 399.944 116.41C398.813 115.3 397.326 114.627 395.746 114.51C394.166 114.393 392.596 114.839 391.314 115.77C390.08 116.666 389.188 117.956 388.787 119.426C388.385 120.897 388.497 122.461 389.104 123.86C388.072 124.259 387.017 124.593 385.944 124.86Z" fill="#353535"/>
<path d="M371.464 73.21C371.662 75.1835 372.586 77.013 374.057 78.3436C375.528 79.6742 377.44 80.411 379.424 80.411C381.407 80.411 383.32 79.6742 384.791 78.3436C386.262 77.013 387.186 75.1835 387.384 73.21L388.384 73.55C387.669 74.7641 387.287 76.1456 387.277 77.5546C387.267 78.9637 387.63 80.3503 388.328 81.5742C389.026 82.7981 390.036 83.8159 391.253 84.5246C392.471 85.2333 393.855 85.6077 395.264 85.61C396.32 85.6095 397.366 85.3999 398.341 84.9931C399.316 84.5863 400.2 83.9905 400.944 83.24L401.434 83.96C399.838 84.7776 398.563 86.1075 397.814 87.7365C397.064 89.3655 396.884 91.199 397.301 92.9428C397.719 94.6866 398.71 96.2396 400.116 97.3525C401.522 98.4655 403.261 99.0738 405.054 99.08C405.237 99.0898 405.421 99.0898 405.604 99.08C405.604 99.32 405.604 99.55 405.604 99.78H405.094C403.421 99.7806 401.79 100.306 400.431 101.282C399.072 102.258 398.053 103.635 397.517 105.22C396.982 106.805 396.957 108.518 397.446 110.119C397.935 111.719 398.914 113.125 400.244 114.14L399.834 114.66C398.499 113.746 396.921 113.255 395.304 113.25C394.094 113.25 392.9 113.524 391.811 114.052C390.723 114.58 389.768 115.348 389.019 116.298C388.27 117.248 387.747 118.355 387.488 119.537C387.229 120.719 387.241 121.944 387.524 123.12L386.854 123.32C386.245 121.865 385.22 120.622 383.906 119.748C382.593 118.874 381.051 118.408 379.474 118.408C377.896 118.408 376.354 118.874 375.041 119.748C373.728 120.622 372.703 121.865 372.094 123.32C371.864 123.26 371.634 123.19 371.414 123.11C371.781 121.573 371.684 119.961 371.136 118.478C370.588 116.996 369.613 115.709 368.334 114.78C366.973 113.784 365.33 113.248 363.644 113.25C362.026 113.251 360.446 113.743 359.114 114.66L358.694 114.14C360.024 113.125 361.002 111.719 361.492 110.119C361.981 108.518 361.956 106.805 361.42 105.22C360.885 103.635 359.866 102.258 358.507 101.282C357.148 100.306 355.517 99.7806 353.844 99.78H353.334V99.08C353.514 99.09 353.694 99.09 353.874 99.08C355.65 99.0461 357.365 98.4215 358.748 97.305C360.13 96.1884 361.101 94.6433 361.508 92.9135C361.915 91.1837 361.735 89.3677 360.995 87.7519C360.256 86.1361 358.999 84.8125 357.424 83.99C357.574 83.75 357.744 83.51 357.904 83.27C358.648 84.0217 359.535 84.6182 360.511 85.025C361.488 85.4318 362.536 85.6409 363.594 85.64C365.28 85.6423 366.923 85.1063 368.284 84.11C369.892 82.9409 371.007 81.2147 371.412 79.268C371.817 77.3212 371.483 75.2935 370.474 73.58C370.794 73.46 371.124 73.35 371.474 73.24L371.464 73.21ZM384.064 69.78C384.551 70.5964 384.812 71.5274 384.821 72.4779C384.83 73.4284 384.587 74.3643 384.116 75.19C383.646 76.0157 382.964 76.7016 382.141 77.1778C381.319 77.6539 380.384 77.9031 379.434 77.9C378.002 77.9 376.628 77.3311 375.615 76.3184C374.603 75.3057 374.034 73.9322 374.034 72.5C374.038 71.5416 374.301 70.6021 374.794 69.78C371.683 70.2849 368.676 71.2984 365.894 72.78C366.639 73.1291 367.293 73.6443 367.808 74.2861C368.323 74.9279 368.683 75.6791 368.862 76.482C369.041 77.2849 369.033 78.1181 368.84 78.9176C368.646 79.7171 368.272 80.4615 367.745 81.0937C367.219 81.7259 366.555 82.229 365.804 82.5643C365.053 82.8996 364.235 83.0582 363.413 83.0279C362.591 82.9976 361.786 82.7792 361.062 82.3895C360.338 81.9998 359.712 81.4492 359.234 80.78C358.767 80.1305 358.45 79.3862 358.304 78.6C356.348 80.7123 354.72 83.1055 353.474 85.7H353.834C354.391 85.6983 354.945 85.7861 355.474 85.96C356.698 86.3545 357.74 87.1736 358.413 88.2693C359.086 89.365 359.345 90.6651 359.143 91.9351C358.942 93.205 358.293 94.3611 357.314 95.1945C356.334 96.028 355.09 96.4839 353.804 96.48C353.24 96.4818 352.68 96.3941 352.144 96.22C351.658 96.0497 351.197 95.8142 350.774 95.52C350.694 96.39 350.644 97.27 350.644 98.16C350.649 99.8125 350.793 101.462 351.074 103.09C351.412 102.892 351.771 102.731 352.144 102.61C353.504 102.168 354.985 102.285 356.259 102.935C357.533 103.585 358.497 104.714 358.939 106.075C359.38 107.436 359.263 108.916 358.614 110.19C357.964 111.464 356.834 112.428 355.474 112.87C355.244 112.935 355.01 112.985 354.774 113.02C355.96 114.987 357.381 116.804 359.004 118.43C359.067 118.293 359.144 118.162 359.234 118.04C360.075 116.882 361.341 116.106 362.754 115.882C364.167 115.658 365.611 116.004 366.769 116.845C367.926 117.686 368.703 118.952 368.927 120.365C369.151 121.778 368.805 123.222 367.964 124.38L367.844 124.51C369.832 125.382 371.911 126.026 374.044 126.43C374.044 126.43 374.044 126.38 374.044 126.35C374.104 124.959 374.698 123.646 375.703 122.683C376.709 121.72 378.047 121.182 379.439 121.182C380.831 121.182 382.169 121.72 383.174 122.683C384.179 123.646 384.774 124.959 384.834 126.35C384.839 126.376 384.839 126.404 384.834 126.43C386.967 126.027 389.047 125.383 391.034 124.51C391.034 124.51 390.954 124.43 390.924 124.38C390.507 123.807 390.208 123.157 390.043 122.468C389.878 121.779 389.85 121.065 389.961 120.365C390.072 119.665 390.319 118.994 390.69 118.39C391.06 117.786 391.546 117.261 392.119 116.845C392.692 116.429 393.342 116.129 394.031 115.964C394.719 115.799 395.434 115.771 396.134 115.882C396.833 115.993 397.504 116.241 398.108 116.611C398.712 116.981 399.238 117.467 399.654 118.04C399.744 118.16 399.804 118.3 399.884 118.43C401.501 116.801 402.918 114.985 404.104 113.02C403.868 112.983 403.634 112.933 403.404 112.87C402.688 112.632 402.031 112.247 401.473 111.739C400.916 111.231 400.472 110.612 400.169 109.921C399.866 109.231 399.711 108.484 399.714 107.73C399.718 106.976 399.879 106.231 400.189 105.544C400.498 104.856 400.948 104.241 401.51 103.738C402.072 103.236 402.733 102.856 403.451 102.625C404.169 102.394 404.927 102.316 405.677 102.396C406.427 102.476 407.151 102.712 407.804 103.09C408.089 101.462 408.233 99.8127 408.234 98.16C408.234 97.2667 408.194 96.3867 408.114 95.52C407.69 95.8121 407.229 96.0475 406.744 96.22C405.406 96.6002 403.973 96.4485 402.744 95.7965C401.515 95.1446 400.586 94.0428 400.151 92.7217C399.716 91.4006 399.808 89.9624 400.409 88.7079C401.009 87.4533 402.072 86.4795 403.374 85.99C403.903 85.8169 404.457 85.7291 405.014 85.73H405.384C404.13 83.1372 402.499 80.7445 400.544 78.63C400.324 79.8702 399.672 80.9925 398.704 81.798C397.736 82.6034 396.513 83.0399 395.254 83.03C394.258 83.0315 393.281 82.757 392.432 82.237C391.582 81.717 390.893 80.9718 390.442 80.0841C389.99 79.1964 389.793 78.201 389.873 77.2082C389.953 76.2154 390.306 75.2642 390.894 74.46C391.427 73.7306 392.14 73.1518 392.964 72.78C390.178 71.2984 387.168 70.2849 384.054 69.78H384.064Z" fill="#3F3F3F"/>
<path d="M379.424 77.87C380.374 77.8731 381.309 77.6238 382.131 77.1477C382.954 76.6716 383.636 75.9856 384.106 75.1599C384.577 74.3342 384.821 73.3983 384.811 72.4478C384.802 71.4974 384.541 70.5664 384.054 69.75C380.984 69.2567 377.854 69.2567 374.784 69.75C374.291 70.572 374.029 71.5115 374.024 72.47C374.024 73.9021 374.593 75.2756 375.606 76.2883C376.618 77.301 377.992 77.87 379.424 77.87Z" fill="black"/>
<path d="M366.754 81.99C367.518 81.4459 368.126 80.7103 368.516 79.8572C368.906 79.004 369.065 78.0632 368.977 77.1292C368.889 76.1951 368.557 75.3007 368.014 74.5356C367.471 73.7705 366.736 73.1616 365.884 72.77C363.048 74.2875 360.483 76.2643 358.294 78.62C358.44 79.4062 358.757 80.1505 359.224 80.8C359.64 81.3726 360.165 81.8577 360.769 82.2274C361.372 82.5971 362.043 82.8443 362.742 82.9548C363.441 83.0653 364.156 83.037 364.844 82.8714C365.532 82.7059 366.181 82.4064 366.754 81.99Z" fill="black"/>
<path d="M358.924 92.75C359.143 92.0771 359.228 91.3673 359.173 90.6615C359.118 89.9556 358.925 89.2676 358.603 88.6368C358.282 88.006 357.839 87.4448 357.3 86.9855C356.761 86.5262 356.137 86.1777 355.464 85.96C354.819 85.75 354.14 85.6652 353.464 85.71C351.985 88.7927 351.071 92.1151 350.764 95.52C351.187 95.8142 351.647 96.0497 352.134 96.22C352.807 96.4383 353.517 96.5217 354.223 96.4654C354.929 96.4091 355.617 96.2142 356.248 95.892C356.878 95.5697 357.439 95.1264 357.898 94.5873C358.357 94.0481 358.706 93.4239 358.924 92.75Z" fill="black"/>
<path d="M358.924 106.07C358.482 104.711 357.518 103.583 356.245 102.934C354.972 102.285 353.493 102.169 352.134 102.61C351.761 102.731 351.402 102.892 351.064 103.09C351.667 106.602 352.922 109.97 354.764 113.02C355.532 112.909 356.265 112.629 356.911 112.199C357.557 111.769 358.098 111.2 358.497 110.535C358.895 109.869 359.14 109.123 359.214 108.35C359.288 107.578 359.189 106.799 358.924 106.07Z" fill="black"/>
<path d="M366.754 116.84C366.181 116.424 365.531 116.125 364.842 115.961C364.154 115.796 363.439 115.768 362.74 115.88C362.041 115.991 361.37 116.239 360.767 116.61C360.164 116.981 359.639 117.467 359.224 118.04C359.134 118.162 359.057 118.292 358.994 118.43C361.531 120.995 364.53 123.058 367.834 124.51L367.954 124.38C368.794 123.221 369.14 121.775 368.915 120.362C368.69 118.948 367.912 117.681 366.754 116.84Z" fill="black"/>
<path d="M379.424 120.99C378.715 120.989 378.013 121.127 377.358 121.397C376.703 121.668 376.108 122.065 375.606 122.565C375.105 123.066 374.707 123.66 374.435 124.315C374.164 124.97 374.024 125.671 374.024 126.38C374.024 126.38 374.024 126.44 374.024 126.46C377.58 127.153 381.237 127.153 384.794 126.46C384.794 126.46 384.794 126.41 384.794 126.38C384.794 124.954 384.229 123.586 383.222 122.576C382.216 121.566 380.85 120.995 379.424 120.99Z" fill="black"/>
<path d="M392.134 116.84C390.977 117.682 390.201 118.95 389.978 120.364C389.755 121.777 390.102 123.222 390.944 124.38C390.944 124.43 391.024 124.46 391.054 124.51C394.361 123.061 397.365 120.998 399.904 118.43C399.824 118.3 399.764 118.16 399.674 118.04C398.833 116.881 397.566 116.104 396.152 115.879C394.738 115.654 393.293 116 392.134 116.84Z" fill="black"/>
<path d="M406.714 102.61C406.04 102.391 405.33 102.306 404.624 102.361C403.917 102.417 403.229 102.61 402.597 102.932C401.966 103.253 401.404 103.695 400.943 104.234C400.483 104.772 400.133 105.396 399.914 106.07C399.695 106.744 399.61 107.454 399.665 108.16C399.721 108.867 399.914 109.555 400.236 110.187C400.557 110.818 400.999 111.38 401.538 111.84C402.076 112.301 402.7 112.651 403.374 112.87C403.604 112.933 403.838 112.983 404.074 113.02C405.915 109.97 407.17 106.602 407.774 103.09C407.439 102.892 407.084 102.731 406.714 102.61Z" fill="black"/>
<path d="M399.914 92.7499C400.132 93.4249 400.48 94.0502 400.94 94.5902C401.4 95.1301 401.962 95.5739 402.594 95.8963C403.225 96.2186 403.914 96.4132 404.621 96.4687C405.329 96.5242 406.04 96.4397 406.714 96.2199C407.199 96.0474 407.66 95.8121 408.084 95.5199C407.777 92.115 406.862 88.7926 405.384 85.7099C404.51 85.6541 403.636 85.8122 402.838 86.1706C402.039 86.5289 401.34 87.0767 400.801 87.7663C400.262 88.456 399.9 89.2667 399.745 90.1282C399.591 90.9897 399.649 91.8759 399.914 92.7099V92.7499Z" fill="black"/>
<path d="M390.894 74.44C390.408 75.0936 390.076 75.8487 389.923 76.6486C389.771 77.4485 389.801 78.2726 390.012 79.0593C390.223 79.8459 390.609 80.5746 391.141 81.1909C391.673 81.8073 392.338 82.2952 393.086 82.6183C393.833 82.9413 394.644 83.0911 395.458 83.0564C396.271 83.0217 397.067 82.8034 397.784 82.4178C398.501 82.0323 399.122 81.4895 399.6 80.8301C400.078 80.1707 400.401 79.4117 400.544 78.61C398.36 76.2521 395.798 74.275 392.964 72.76C392.14 73.1318 391.427 73.7106 390.894 74.44Z" fill="black"/>
<path d="M378.904 127.73C373.135 127.72 367.498 126 362.706 122.788C357.914 119.576 354.181 115.015 351.981 109.682C349.78 104.349 349.209 98.4837 350.34 92.8266C351.472 87.1696 354.255 81.9749 358.338 77.899C362.421 73.8231 367.62 71.0489 373.279 69.927C378.938 68.8052 384.803 69.386 390.132 71.596C395.461 73.806 400.015 77.5461 403.219 82.3436C406.424 87.1412 408.134 92.7808 408.134 98.55C408.126 106.295 405.042 113.72 399.561 119.192C394.079 124.664 386.649 127.735 378.904 127.73ZM378.904 71.97C373.647 71.97 368.508 73.5289 364.137 76.4495C359.766 79.3702 356.359 83.5214 354.347 88.3782C352.335 93.2351 351.809 98.5795 352.834 103.735C353.86 108.891 356.392 113.628 360.109 117.345C363.826 121.062 368.562 123.594 373.718 124.619C378.874 125.645 384.219 125.118 389.075 123.107C393.932 121.095 398.084 117.688 401.004 113.317C403.925 108.946 405.484 103.807 405.484 98.55C405.47 91.5064 402.665 84.7554 397.683 79.7768C392.7 74.7981 385.947 71.9979 378.904 71.99V71.97Z" fill="#FFD400"/>
<path d="M379.424 108.1C384.223 108.1 388.114 104.209 388.114 99.41C388.114 94.6106 384.223 90.72 379.424 90.72C374.625 90.72 370.734 94.6106 370.734 99.41C370.734 104.209 374.625 108.1 379.424 108.1Z" fill="#CCCCCC"/>
<path d="M379.424 110.71C377.188 110.712 375.003 110.051 373.143 108.81C371.284 107.57 369.834 105.806 368.977 103.741C368.12 101.677 367.895 99.4042 368.33 97.2116C368.765 95.019 369.84 93.0045 371.42 91.4232C373 89.8419 375.013 88.7647 377.206 88.3278C379.398 87.891 381.67 88.1142 383.736 88.9692C385.801 89.8242 387.567 91.2725 388.809 93.131C390.051 94.9895 390.714 97.1746 390.714 99.41C390.711 102.404 389.521 105.276 387.405 107.394C385.288 109.512 382.418 110.705 379.424 110.71ZM379.424 93.32C378.216 93.318 377.036 93.6744 376.031 94.3439C375.026 95.0134 374.243 95.966 373.78 97.081C373.317 98.196 373.195 99.4234 373.431 100.608C373.666 101.792 374.247 102.88 375.1 103.733C375.954 104.587 377.042 105.168 378.226 105.403C379.41 105.638 380.638 105.517 381.753 105.054C382.868 104.591 383.82 103.807 384.49 102.803C385.159 101.798 385.516 100.617 385.514 99.41C385.511 97.7956 384.869 96.2481 383.727 95.1066C382.586 93.9651 381.038 93.3226 379.424 93.32Z" fill="#1C1C1C"/>
<path d="M379.304 87.09C380.497 87.09 381.464 86.123 381.464 84.93C381.464 83.7371 380.497 82.77 379.304 82.77C378.111 82.77 377.144 83.7371 377.144 84.93C377.144 86.123 378.111 87.09 379.304 87.09Z" fill="#1E1E1D"/>
<path d="M370.814 89.93C372.007 89.93 372.974 88.9629 372.974 87.77C372.974 86.5771 372.007 85.61 370.814 85.61C369.621 85.61 368.654 86.5771 368.654 87.77C368.654 88.9629 369.621 89.93 370.814 89.93Z" fill="#1E1E1D"/>
<path d="M365.614 97.21C366.807 97.21 367.774 96.243 367.774 95.05C367.774 93.8571 366.807 92.89 365.614 92.89C364.421 92.89 363.454 93.8571 363.454 95.05C363.454 96.243 364.421 97.21 365.614 97.21Z" fill="#1E1E1D"/>
<path d="M365.684 106.16C366.877 106.16 367.844 105.193 367.844 104C367.844 102.807 366.877 101.84 365.684 101.84C364.491 101.84 363.524 102.807 363.524 104C363.524 105.193 364.491 106.16 365.684 106.16Z" fill="#1E1E1D"/>
<path d="M371.004 113.36C372.197 113.36 373.164 112.393 373.164 111.2C373.164 110.007 372.197 109.04 371.004 109.04C369.811 109.04 368.844 110.007 368.844 111.2C368.844 112.393 369.811 113.36 371.004 113.36Z" fill="#1E1E1D"/>
<path d="M379.544 116.05C380.737 116.05 381.704 115.083 381.704 113.89C381.704 112.697 380.737 111.73 379.544 111.73C378.351 111.73 377.384 112.697 377.384 113.89C377.384 115.083 378.351 116.05 379.544 116.05Z" fill="#1E1E1D"/>
<path d="M388.034 113.22C389.227 113.22 390.194 112.253 390.194 111.06C390.194 109.867 389.227 108.9 388.034 108.9C386.841 108.9 385.874 109.867 385.874 111.06C385.874 112.253 386.841 113.22 388.034 113.22Z" fill="#1E1E1D"/>
<path d="M393.234 105.93C394.427 105.93 395.394 104.963 395.394 103.77C395.394 102.577 394.427 101.61 393.234 101.61C392.041 101.61 391.074 102.577 391.074 103.77C391.074 104.963 392.041 105.93 393.234 105.93Z" fill="#1E1E1D"/>
<path d="M393.154 96.98C394.347 96.98 395.314 96.0129 395.314 94.82C395.314 93.6271 394.347 92.66 393.154 92.66C391.961 92.66 390.994 93.6271 390.994 94.82C390.994 96.0129 391.961 96.98 393.154 96.98Z" fill="#1E1E1D"/>
<path d="M387.834 89.78C389.027 89.78 389.994 88.8129 389.994 87.62C389.994 86.427 389.027 85.46 387.834 85.46C386.641 85.46 385.674 86.427 385.674 87.62C385.674 88.8129 386.641 89.78 387.834 89.78Z" fill="#1E1E1D"/>
<path d="M133.004 46.04C144.704 51.91 147.004 32.58 163.664 22.53C175.764 15.23 204.564 16.66 205.394 17.66C207.394 20.03 231.044 50.93 231.044 50.93L263.214 49.32L226.764 15.86L197.884 3.85999L139.954 9.28998L133.004 46.04Z" fill="#3A3939"/>
<g style="mix-blend-mode:multiply" opacity="0.8">
<g style="mix-blend-mode:multiply" opacity="0.8">
<path d="M45.2439 35.38C45.2439 35.38 104.244 10.54 124.674 7.95002C145.104 5.36002 226.454 10.7 226.454 10.7L283.534 44.09L195.624 57.15L45.2439 35.38Z" fill="#2D2D2D"/>
</g>
</g>
<g style="mix-blend-mode:screen" opacity="0.5">
<g style="mix-blend-mode:screen" opacity="0.5">
<path d="M86.1339 37.12C78.6138 33.51 76.1339 28.49 83.6139 25.31C91.0939 22.13 122.534 12.12 122.534 12.12L122.094 7.94995C103.891 11.9005 86.1434 17.7179 69.1339 25.31C56.4938 30.92 52.1938 33.4 52.1938 33.4L86.1339 37.12Z" fill="#CCCACA"/>
</g>
</g>
<path d="M137.134 44.31C137.134 44.31 141.804 17.99 153.134 13.99C164.464 9.98996 197.134 8.59997 203.374 12.59C209.614 16.58 236.874 47.16 236.874 47.16L256.944 44.33C256.944 44.33 219.314 18.19 216.644 14.19C213.974 10.19 226.494 10.69 226.494 10.69C226.494 10.69 214.734 1.31995 191.874 1.31995C159.074 1.31995 124.714 6.00995 124.714 6.00995C124.714 6.00995 103.804 29.91 89.4738 34.58C78.6138 38.58 125.154 49.34 125.154 49.34L137.134 44.31Z" fill="#A81111"/>
<path d="M125.234 50.68L124.824 50.58C110.644 47.31 86.8239 41.09 86.4939 36.16C86.4439 35.32 86.8239 34.16 88.9839 33.34C102.854 28.82 123.484 5.34 123.694 5.13L124.014 4.76999L124.494 4.69998C124.844 4.69998 159.324 0 191.834 0C214.884 0 226.774 9.26 227.264 9.66L230.364 12.13L226.364 11.97C222.234 11.82 218.034 12.39 217.484 13.18C217.484 13.18 217.534 13.29 217.644 13.45C219.504 16.23 242.564 32.79 257.644 43.25L260.364 45.14L236.364 48.53L235.894 48.01C235.624 47.7 208.684 17.52 202.654 13.67C197.144 10.14 165.024 11.15 153.554 15.2C143.104 18.89 138.554 44.28 138.474 44.54L138.354 45.24L125.234 50.68ZM89.1339 36.11C90.9139 38.72 108.774 44.2 124.964 47.96L135.964 43.38C136.814 39.01 141.674 16.62 152.614 12.75C164.144 8.67 197.304 7.21 203.974 11.47C209.924 15.28 233.554 41.58 237.294 45.76L253.394 43.49C244.284 37.11 217.864 18.49 215.474 14.9C215.136 14.4836 214.929 13.9771 214.877 13.4436C214.826 12.9102 214.932 12.3733 215.184 11.9C216.114 10.25 219.124 9.61999 221.954 9.39999C216.954 6.70999 206.764 2.56 191.784 2.56C161.534 2.56 129.544 6.60998 125.274 7.16998C122.464 10.34 103.474 31.3 89.7839 35.76C89.5544 35.8512 89.3363 35.9686 89.1339 36.11Z" fill="#020202"/>
<path d="M343.314 125.5C344.414 129.9 341.314 106.89 341.404 97.97C341.604 76.21 358.084 57.88 379.844 58.19C390.132 58.3398 399.949 62.5329 407.17 69.8629C414.391 77.1928 418.438 87.0704 418.434 97.36C418.434 106.51 417.994 118.1 417.994 118.1L463.094 117.86C463.094 117.86 464.184 106.95 464.184 102.3C464.184 98.13 460.504 99.1 460.514 97.98C460.584 87.28 460.364 73.61 458.704 70.56C457.134 67.66 412.324 44.25 384.134 42.99C356.324 41.71 276.734 40.5 266.294 40.5C255.854 40.5 154.094 49.37 96.8738 31.04C91.9938 29.48 8.71385 33.45 8.71385 33.45C8.71385 33.45 9.76385 57.09 10.7139 75.72C10.7139 76.45 6.61386 79.15 6.65386 79.86C7.02386 87.38 7.65385 92.7 7.91385 96.11C8.21385 100.52 23.5038 108.62 23.5038 108.62L57.5038 120.33C57.5038 120.33 51.5939 104.17 52.0939 93.11C52.9639 73.45 70.0938 55.98 89.7838 54.76C112.394 53.36 132.474 72.58 132.474 94.89C132.474 105.25 127.014 125.53 127.014 125.53L343.314 125.5Z" fill="#A81111"/>
<path d="M343.474 127.36C343.274 127.356 343.078 127.302 342.904 127.205C342.73 127.107 342.582 126.968 342.474 126.8H125.324L125.764 125.16C125.814 124.96 131.174 104.93 131.174 94.8599C131.06 89.5783 129.894 84.3723 127.746 79.5461C125.597 74.72 122.508 70.3704 118.659 66.7516C114.81 63.1327 110.279 60.3172 105.33 58.4694C100.38 56.6217 95.1126 55.7788 89.834 55.9899C70.914 57.1599 54.2139 74.1599 53.3739 93.0999C52.8939 103.78 58.6439 119.65 58.7039 119.81L59.6439 122.37L22.8339 109.72C20.1739 108.31 6.89393 101.04 6.56393 96.1399C6.48393 94.9999 6.35395 93.63 6.20395 92.03C5.91395 88.84 5.54395 84.87 5.29395 79.87C5.29395 78.87 6.02394 78.2199 7.77394 76.7599C8.25394 76.3599 9.01394 75.76 9.33394 75.38C8.43394 57.01 7.41395 33.6999 7.40395 33.4599L7.34395 32.1699L8.63394 32.1099C17.1839 31.6999 92.2839 28.16 97.2439 29.75C146.294 45.46 229.564 41.0199 256.924 39.5699C261.654 39.3099 264.784 39.15 266.274 39.15C277.694 39.15 356.454 40.36 384.174 41.65C412.414 42.95 457.874 66.34 459.844 69.94C460.364 70.94 461.944 73.7999 461.844 97.4199H461.934C463.023 97.6463 463.99 98.2662 464.651 99.161C465.311 100.056 465.618 101.163 465.514 102.27C465.514 106.93 464.464 117.51 464.414 117.96L464.304 119.12L416.674 119.38V118.02C416.674 117.91 417.114 106.35 417.114 97.3199C417.079 87.3844 413.154 77.8577 406.18 70.7809C399.206 63.7042 389.738 59.6403 379.804 59.4599C375.126 59.3802 370.478 60.2361 366.136 61.9774C361.793 63.7187 357.841 66.3103 354.514 69.5999C346.978 77.1293 342.732 87.3373 342.704 97.99C342.654 102.82 343.554 111.85 344.214 118.44C345.084 127.11 345.084 127.11 343.734 127.34L343.474 127.36ZM128.684 124.18H342.154C342.034 122.77 341.824 120.7 341.624 118.67C340.964 112.02 340.054 102.91 340.104 97.94C340.16 86.6052 344.697 75.7526 352.724 67.75C356.301 64.2278 360.542 61.452 365.201 59.5842C369.861 57.7163 374.845 56.7937 379.864 56.87C390.478 57.0684 400.593 61.4133 408.044 68.9749C415.496 76.5364 419.691 86.7141 419.734 97.3299C419.734 104.58 419.454 113.44 419.344 116.78L461.914 116.54C462.194 113.62 462.914 105.92 462.914 102.28C462.914 100.48 462.164 100.28 461.134 99.9C460.474 99.68 459.234 99.2799 459.244 97.9499C459.384 77.5299 458.244 72.4 457.584 71.16C455.654 68.68 412.014 45.52 384.084 44.22C357.084 42.97 277.394 41.7299 266.304 41.7299C264.884 41.7299 261.614 41.8999 257.094 42.1399C145.974 48.0599 108.724 36.1399 96.4839 32.2099C93.104 31.1299 43.4839 33.04 10.0839 34.62C10.3139 39.82 11.2039 59.62 11.9839 75.62C11.9839 76.62 11.2439 77.2899 9.46394 78.7699C8.97394 79.1799 8.25394 79.7699 7.94394 80.1099C8.18394 84.8899 8.54394 88.7099 8.82394 91.7999C8.97394 93.4199 9.10394 94.7999 9.18394 95.9799C9.34394 98.2499 16.9739 103.66 23.9939 107.39L55.4239 118.19C53.7739 113.19 50.4239 101.68 50.8039 93.0199C51.7039 72.8099 69.5239 54.6799 89.7039 53.4199C95.3317 53.1927 100.948 54.0895 106.225 56.058C111.502 58.0264 116.334 61.027 120.438 64.8844C124.542 68.7418 127.837 73.3785 130.128 78.5236C132.419 83.6687 133.662 89.2189 133.784 94.8499C133.754 103.65 129.984 119.11 128.684 124.18Z" fill="#020202"/>
<path d="M52.0537 93.71C41.8337 93.44 28.1037 92.48 27.9737 92.47H27.6037L27.4337 92.15C24.61 86.8038 22.3543 81.1764 20.7037 75.36H10.5737V73.99H21.7337L21.8537 74.5C21.8537 74.56 23.3837 81.2 28.4237 91.16C30.6837 91.31 42.8337 92.16 52.0837 92.37L52.0537 93.71Z" fill="#020202"/>
<path d="M278.324 106.35L277.324 105.57C286.704 93.17 282.574 67.15 278.244 59.01L279.394 58.41C283.574 66.34 288.444 92.99 278.324 106.35Z" fill="#020202"/>
<path d="M420.864 52.5C420.864 52.5 414.584 50.84 414.584 53.12C414.584 55.4 421.704 64.6399 424.684 65.0699C427.664 65.4999 446.884 66.6299 448.454 65.9199C450.024 65.2099 420.864 52.5 420.864 52.5Z" fill="#919191"/>
<path d="M444.824 66.7999C438.394 66.7999 426.354 65.9699 424.594 65.7099C421.434 65.2599 413.934 55.8199 413.934 53.1199C413.93 52.8704 413.984 52.6235 414.094 52.3992C414.203 52.175 414.364 51.9799 414.564 51.8299C416.094 50.6499 420.214 51.6599 421.034 51.8299H421.124C449.124 64.0599 449.124 65.2599 449.124 65.7699V66.1899L448.684 66.4499C447.418 66.7317 446.12 66.8493 444.824 66.7999ZM416.824 52.5599C416.315 52.5145 415.804 52.6188 415.354 52.8599C415.311 52.888 415.277 52.9268 415.254 52.9725C415.231 53.0181 415.221 53.069 415.224 53.1199C415.224 54.9999 421.994 64.0299 424.774 64.4299C427.554 64.8299 442.584 65.6799 447.034 65.4299C443.314 63.1999 429.534 56.9499 420.644 53.0799C419.398 52.7591 418.12 52.5846 416.834 52.5599H416.824Z" fill="#020202"/>
<path d="M399.094 62.9142L399.02 64.2122L422.064 65.5126L422.137 64.2146L399.094 62.9142Z" fill="#020202"/>
<path d="M7.42383 50.4299V59.2199H19.9738L19.5138 50.4299H7.42383Z" fill="#FF0000"/>
<path d="M20.6539 59.87H6.77393V49.78H20.1339L20.6539 59.87ZM8.07393 58.57H19.2839L18.8939 51.08H8.07393V58.57Z" fill="#020202"/>
<path d="M8.97388 17.42L15.0939 32.76L30.6839 32.53L25.5039 15.86L8.97388 17.42Z" fill="#7F0D0D"/>
<path d="M14.2238 34.08L7.13379 16.2899L26.4438 14.46L32.4438 33.81L14.2238 34.08ZM10.8238 18.55L15.9738 31.45L28.9238 31.2599L24.5738 17.2599L10.8238 18.55Z" fill="#020202"/>
<path d="M8.13373 3.90003H33.4437C33.9219 3.89878 34.3932 4.01417 34.8168 4.23625C35.2403 4.45832 35.6032 4.78035 35.8742 5.17442C36.1451 5.56848 36.3158 6.0227 36.3715 6.49766C36.4272 6.97262 36.3661 7.45399 36.1937 7.90003L31.3737 20.73C31.1635 21.292 30.7864 21.7762 30.2931 22.1176C29.7997 22.459 29.2137 22.6413 28.6137 22.64H6.61373C5.97702 22.6313 5.3596 22.4202 4.85083 22.0373C4.34206 21.6543 3.96833 21.1194 3.78373 20.51L1.53373 12.73C1.23472 11.7037 1.17826 10.6221 1.36878 9.57023C1.55929 8.5184 1.99158 7.52522 2.63155 6.66902C3.27152 5.81282 4.10166 5.11701 5.05651 4.63648C6.01135 4.15596 7.06479 3.90384 8.13373 3.90003Z" fill="#A81111"/>
<path d="M28.6438 23.92H6.64381C5.72336 23.9177 4.82839 23.6174 4.0929 23.064C3.3574 22.5106 2.82093 21.7338 2.56381 20.85L0.323823 13.07C-0.0285264 11.8544 -0.0943915 10.5738 0.131409 9.32854C0.35721 8.08328 0.868527 6.9073 1.62523 5.89287C2.38193 4.87844 3.36344 4.05316 4.49271 3.48183C5.62197 2.9105 6.86828 2.60864 8.13382 2.59996H33.4438C34.1316 2.59502 34.8103 2.75749 35.4213 3.07332C36.0323 3.38916 36.5573 3.84888 36.951 4.41286C37.3447 4.97684 37.5953 5.62814 37.6811 6.31056C37.767 6.99299 37.6855 7.68605 37.4438 8.32997L32.6138 21.17C32.307 21.9755 31.7635 22.6693 31.0549 23.1601C30.3464 23.651 29.5058 23.9159 28.6438 23.92ZM8.13382 5.19997C7.26613 5.20016 6.41036 5.40199 5.63402 5.78951C4.85767 6.17703 4.18199 6.73964 3.66029 7.43297C3.1386 8.12631 2.78515 8.93138 2.62784 9.78469C2.47053 10.638 2.51365 11.5162 2.75382 12.35L5.00382 20.13C5.10323 20.4724 5.3109 20.7735 5.59573 20.988C5.88057 21.2025 6.22723 21.319 6.58382 21.32H28.5838C28.9188 21.319 29.2455 21.2161 29.5206 21.025C29.7957 20.8339 30.0061 20.5636 30.1238 20.25L34.9538 7.41997C35.0454 7.17123 35.0757 6.90412 35.0421 6.64119C35.0086 6.37827 34.9122 6.12729 34.7611 5.9095C34.6101 5.69172 34.4087 5.5135 34.1742 5.39C33.9397 5.2665 33.6789 5.20132 33.4138 5.19997H8.13382Z" fill="#020202"/>
<path d="M418.464 117.7L416.554 130.05H467.804L466.204 122.18L463.094 117.86L418.464 117.7Z" fill="#232323"/>
<path d="M459.434 73.12C455.154 73.25 449.714 75.68 449.434 78.65C449.154 81.62 449.434 96.65 449.434 96.65L460.514 97.99L459.434 73.12Z" fill="#420202"/>
<path d="M461.194 98.72L448.754 97.2V96.64C448.754 96.03 448.434 81.56 448.754 78.58C449.144 74.98 455.234 72.58 459.424 72.47H460.064L461.194 98.72ZM450.024 96.05L459.834 97.24L458.834 73.8C454.944 74.13 450.314 76.33 450.054 78.72C449.754 81.3 449.974 93.29 450.024 96.05Z" fill="#020202"/>
<path d="M240.734 49.74C240.734 49.74 353.624 39.48 392.374 56.43C392.374 56.43 372.024 52.85 358.804 60.93C339.654 72.63 339.134 95.62 339.134 95.62L298.384 92.06C298.384 92.06 328.184 64.85 330.014 53.69L240.734 49.74Z" fill="#F9D10B"/>
<path d="M454.884 73.78L458.784 73.12C458.784 73.12 461.234 84.48 460.784 88.05C460.334 91.62 459.884 97.98 459.884 97.98L455.884 97.49L454.884 73.78Z" fill="#A30202"/>
<path d="M460.464 98.71L455.244 98.07L454.244 73.23L459.334 72.37L459.464 72.98C459.564 73.45 461.924 84.49 461.464 88.14C461.004 91.79 460.564 97.96 460.564 98.02L460.464 98.71ZM456.464 96.91L459.234 97.25C459.364 95.51 459.714 90.83 460.094 87.97C460.474 85.11 458.744 76.25 458.244 73.86L455.524 74.32L456.464 96.91Z" fill="#020202"/>
<path d="M459.724 89.43H450.204V83.71H456.234L459.724 89.43Z" fill="#A30202"/>
<path d="M460.874 90.08H449.554V83.08H456.604L460.874 90.08ZM450.874 88.78H458.584L455.894 84.36H450.894L450.874 88.78Z" fill="#020202"/>
<path d="M416.304 55.6699L417.744 57.7899C417.744 57.7899 437.434 61.7899 441.064 62.3199L420.864 52.4999C420.864 52.4999 416.264 51.3999 415.264 53.1899L416.304 55.6699Z" fill="#666464"/>
<path d="M422.319 57.8006C424.141 56.7485 425.26 55.2752 424.819 54.51C424.377 53.7447 422.541 53.9772 420.719 55.0293C418.897 56.0814 417.778 57.5547 418.219 58.32C418.661 59.0852 420.497 58.8527 422.319 57.8006Z" fill="#D3D3D3"/>
<path d="M419.304 59.42C418.985 59.4555 418.662 59.4024 418.371 59.2665C418.08 59.1307 417.832 58.9174 417.654 58.6501C417.444 58.2901 417.234 57.53 418.094 56.39C418.726 55.6086 419.504 54.9567 420.384 54.4701C421.557 53.6747 422.974 53.3204 424.384 53.4701C424.589 53.5124 424.784 53.5964 424.956 53.7167C425.128 53.8371 425.274 53.9914 425.384 54.17C425.584 54.52 425.794 55.2901 424.934 56.4301C424.298 57.2082 423.521 57.8596 422.644 58.35C421.636 58.9781 420.489 59.3458 419.304 59.42ZM423.714 54.71C422.762 54.7792 421.842 55.0814 421.034 55.5901C420.305 55.9948 419.661 56.5344 419.134 57.1801C418.744 57.6901 418.754 57.9601 418.774 58.0001C418.894 58.2101 420.194 58.28 421.994 57.24C422.722 56.8387 423.366 56.3025 423.894 55.6601C424.284 55.1501 424.274 54.8801 424.254 54.8401C424.209 54.7916 424.149 54.7598 424.084 54.7501C423.963 54.7197 423.838 54.7062 423.714 54.71Z" fill="#020202"/>
<path d="M428.504 55.88C428.374 55.95 428.244 56 428.114 56.08C426.574 56.97 425.704 58.34 426.114 59.14C426.524 59.94 428.204 59.86 429.744 58.97C430.477 58.5685 431.097 57.9869 431.544 57.28L428.504 55.88Z" fill="#D3D3D3"/>
<path d="M427.444 60.3399C427.086 60.3718 426.727 60.3069 426.403 60.1521C426.079 59.9973 425.803 59.7582 425.604 59.4599C425.429 59.1139 425.359 58.7245 425.402 58.3393C425.444 57.954 425.598 57.5895 425.844 57.2899C426.347 56.5563 427.015 55.9502 427.794 55.5199C427.909 55.4489 428.03 55.3854 428.154 55.3299L428.424 55.1899L428.764 55.2899L432.504 56.9799L432.154 57.5999C431.641 58.3959 430.946 59.0592 430.128 59.5354C429.309 60.0117 428.389 60.2874 427.444 60.3399ZM428.514 56.5999H428.444C427.839 56.9399 427.322 57.4158 426.934 57.9899C426.714 58.3299 426.634 58.6599 426.724 58.8099C426.934 59.1599 428.124 59.1799 429.464 58.4099C429.878 58.1774 430.256 57.8841 430.584 57.5399L428.514 56.5999Z" fill="#020202"/>
<path d="M438.624 77.9199C437.54 77.9195 436.47 78.1587 435.49 78.6203C434.51 79.0819 433.644 79.7545 432.954 80.5899C434.176 80.8239 435.284 81.4618 436.1 82.4012C436.916 83.3406 437.393 84.527 437.454 85.7699C437.421 86.8857 437.046 87.9643 436.378 88.859C435.711 89.7537 434.784 90.4209 433.724 90.7699C434.61 91.5632 435.676 92.129 436.83 92.4188C437.984 92.7086 439.191 92.7136 440.347 92.4334C441.503 92.1532 442.574 91.5962 443.467 90.8104C444.36 90.0245 445.049 89.0334 445.474 87.9223C445.899 86.8112 446.047 85.6134 445.907 84.4322C445.766 83.2509 445.34 82.1215 444.666 81.1413C443.992 80.161 443.09 79.3593 442.038 78.8051C440.985 78.2509 439.813 77.9608 438.624 77.9599V77.9199Z" fill="#490505"/>
<path d="M438.624 93.26C436.658 93.2719 434.758 92.56 433.284 91.26L432.494 90.54L433.494 90.1601C434.425 89.8616 435.242 89.2842 435.834 88.5062C436.426 87.7281 436.764 86.7869 436.804 85.81C436.738 84.7146 436.31 83.6723 435.585 82.8481C434.861 82.024 433.882 81.4651 432.804 81.26L431.804 81.02L432.464 80.2201C433.32 79.1779 434.427 78.3693 435.68 77.8695C436.933 77.3696 438.292 77.1948 439.63 77.3611C440.969 77.5274 442.244 78.0296 443.336 78.8209C444.429 79.6122 445.304 80.6669 445.879 81.887C446.455 83.1071 446.712 84.4529 446.628 85.7993C446.544 87.1457 446.121 88.4489 445.398 89.5878C444.675 90.7266 443.675 91.6642 442.493 92.3133C441.31 92.9623 439.983 93.3017 438.634 93.3L438.624 93.26ZM434.964 90.87C436.011 91.5524 437.227 91.9279 438.477 91.9541C439.726 91.9803 440.958 91.6561 442.032 91.0182C443.107 90.3804 443.981 89.4543 444.556 88.3451C445.131 87.2358 445.384 85.9876 445.286 84.7419C445.189 83.4962 444.744 82.3027 444.003 81.2968C443.261 80.2909 442.253 79.5127 441.092 79.0504C439.931 78.588 438.664 78.4601 437.434 78.6809C436.205 78.9018 435.061 79.4627 434.134 80.3C435.27 80.7084 436.259 81.4476 436.971 82.4225C437.684 83.3973 438.089 84.5632 438.134 85.77C438.109 86.8258 437.802 87.8557 437.245 88.7526C436.687 89.6496 435.9 90.3807 434.964 90.87Z" fill="#020202"/>
<path d="M437.454 85.77C437.393 84.5271 436.916 83.3406 436.1 82.4012C435.284 81.4618 434.176 80.8239 432.954 80.59C431.746 82.0515 431.151 83.9244 431.294 85.8152C431.438 87.706 432.309 89.4676 433.724 90.7299C434.778 90.3833 435.7 89.7221 436.367 88.8353C437.034 87.9485 437.413 86.8788 437.454 85.77Z" fill="#770505"/>
<path d="M433.584 91.48L433.284 91.22C431.76 89.8434 430.824 87.9336 430.67 85.886C430.515 83.8383 431.154 81.8097 432.454 80.22L432.714 79.9L433.114 80C434.476 80.2726 435.707 80.9924 436.613 82.045C437.519 83.0977 438.047 84.4228 438.114 85.81C438.074 87.0512 437.654 88.2502 436.912 89.246C436.171 90.2418 435.142 90.9865 433.964 91.38L433.584 91.48ZM433.204 81.34C432.27 82.622 431.823 84.195 431.944 85.7766C432.065 87.3582 432.746 88.845 433.864 89.97C434.707 89.6287 435.434 89.0504 435.955 88.3051C436.477 87.5597 436.772 86.6793 436.804 85.77C436.751 84.7454 436.373 83.7641 435.726 82.9678C435.079 82.1715 434.196 81.6015 433.204 81.34Z" fill="#020202"/>
<path d="M158.384 126.1C155.024 124.94 147.624 109.68 146.154 106.6C144.484 106.6 137.834 106.42 131.454 106.6V105.3C138.824 105.09 146.554 105.3 146.634 105.3H147.024L147.194 105.67C150.504 112.67 156.584 124.07 158.854 124.85L158.384 126.1Z" fill="#020202"/>
<path d="M138.914 118.04C138.104 118.042 137.312 117.803 136.638 117.355C135.964 116.906 135.438 116.268 135.127 115.52C134.816 114.772 134.735 113.949 134.892 113.155C135.05 112.36 135.439 111.631 136.012 111.058C136.585 110.485 137.314 110.096 138.109 109.938C138.903 109.781 139.726 109.862 140.474 110.173C141.222 110.484 141.86 111.01 142.309 111.684C142.757 112.358 142.996 113.15 142.994 113.96C142.994 115.042 142.564 116.08 141.799 116.845C141.034 117.61 139.996 118.04 138.914 118.04ZM138.914 111.17C138.362 111.168 137.821 111.33 137.361 111.635C136.901 111.941 136.542 112.376 136.329 112.885C136.117 113.395 136.06 113.956 136.166 114.498C136.273 115.04 136.538 115.538 136.928 115.929C137.317 116.32 137.814 116.587 138.356 116.696C138.897 116.804 139.459 116.749 139.969 116.539C140.48 116.328 140.916 115.97 141.223 115.511C141.53 115.052 141.694 114.512 141.694 113.96C141.694 113.222 141.401 112.514 140.88 111.991C140.359 111.468 139.652 111.173 138.914 111.17Z" fill="#020202"/>
<path d="M418.464 116.4L417.774 122.12L466.204 122.18L463.094 117.86L418.464 116.4Z" fill="#020202"/>
<path d="M21.2037 51.99L19.9037 51.88C20.037 49.0966 19.6989 46.3107 18.9037 43.64C17.2337 38.13 13.7437 34.8899 8.53369 34.0099L8.75369 32.72C22.4537 35.08 21.2137 51.86 21.2037 51.99Z" fill="#020202"/>
<path d="M277.874 106.61H277.784C268.664 106.4 134.334 100.89 132.974 100.83L133.034 99.53C134.384 99.59 268.704 105.1 277.814 105.31H277.884C286.064 105.31 321.574 69.79 324.654 61.56L160.444 53.18L160.514 51.88L326.244 60.34L326.134 61.05C325.584 64.77 315.184 76.65 305.194 86.46C300.364 91.2 284.184 106.61 277.874 106.61Z" fill="#020202"/>
<path d="M270.464 57.99C269.134 50.86 255.134 41.59 254.974 41.5L255.684 40.41C256.284 40.8 270.354 50.08 271.744 57.78L270.464 57.99Z" fill="#020202"/>
<path d="M339.104 93.7501L338.794 118.17L153.544 117.11L151.784 111.43L277.804 105.96L298.334 92.0601L339.104 93.7501Z" fill="#020202"/>
<path d="M325.508 60.2966L325.46 61.5957L360.406 62.8954L360.454 61.5963L325.508 60.2966Z" fill="#020202"/>
<path d="M18.8738 46.99H19.1338C19.1178 46.9711 19.0979 46.9558 19.0755 46.9454C19.053 46.935 19.0285 46.9296 19.0038 46.9296C18.979 46.9296 18.9545 46.935 18.9321 46.9454C18.9096 46.9558 18.8897 46.9711 18.8738 46.99Z" fill="#020202"/>
<path d="M258.874 56.42L19.1338 46.99C19.4238 47.3 19.8338 48.79 19.7338 54.87C19.6538 59.47 21.2038 74.72 21.2038 74.72L25.4438 86.51C25.4438 86.51 36.1138 87.17 53.0038 88.17C53.5773 85.2912 54.466 82.4843 55.6538 79.8L25.5938 78.74L23.9238 70.94L59.3738 73.18C63.3307 67.4438 68.705 62.8294 74.9739 59.7861C81.2428 56.7427 88.1928 55.3739 95.1475 55.8128C102.102 56.2518 108.825 58.4835 114.661 62.291C120.498 66.0984 125.25 71.3518 128.454 77.54L229.234 83.91L231.474 86.06L130.604 82.47C131.788 85.7654 132.537 89.201 132.834 92.69C197.004 96.15 266.914 99.37 271.094 97.29C278.924 93.41 306.884 59.87 306.884 59.87L258.874 56.42Z" fill="#020202"/>
<path d="M229.244 83.87L128.464 77.5C129.288 79.0943 130.006 80.7412 130.614 82.43L231.484 85.99L229.244 83.87Z" fill="#F7F6F5"/>
<path d="M23.9338 70.9L25.6038 78.7L55.6638 79.76C56.6919 77.4407 57.9374 75.2242 59.3838 73.14L23.9338 70.9Z" fill="#F7F6F5"/>
<path d="M47.7239 51.33L39.2539 51.04L41.9239 66.61L50.0439 67.0901L47.7239 51.33Z" fill="#F9D10B"/>
<path d="M32.3138 66.0399L37.6238 66.36L35.3538 50.9L29.6738 50.7L32.3138 66.0399Z" fill="#F9D10B"/>
<path d="M66.1338 51.99L68.2138 64.1C76.665 57.6587 87.3222 54.8245 97.8566 56.2167C108.391 57.609 117.946 63.1144 124.434 71.53L288.594 81.28L306.864 60.38L66.1338 51.99Z" fill="#F9D10B"/>
<path d="M25.7938 50.5699L21.9138 50.4299L23.6238 65.5199L28.0238 65.7899L25.7938 50.5699Z" fill="#F9D10B"/>
<path d="M62.2838 51.84L51.6038 51.47L54.3238 67.3499L63.8938 67.92L64.5438 67.28L62.2838 51.84Z" fill="#F9D10B"/>
<path d="M342.184 59.59V67.78V67.84H339.354C339.244 67.84 339.244 67.84 339.244 67.73V59.68C339.244 59.6 339.244 59.6 339.164 59.63C338.121 60.0175 337.263 60.7857 336.764 61.78C336.554 62.1806 336.412 62.6131 336.344 63.06C336.246 63.6474 336.268 64.2483 336.407 64.8271C336.546 65.406 336.8 65.951 337.154 66.43C337.214 66.51 337.214 66.51 337.154 66.57L334.854 68.37C334.854 68.37 334.774 68.37 334.734 68.37C334.359 67.8735 334.047 67.3328 333.804 66.76C333.612 66.3258 333.465 65.8736 333.364 65.41C333.304 65.07 333.254 64.73 333.224 64.41C333.204 64.0937 333.204 63.7764 333.224 63.46C333.237 63.1648 333.271 62.8708 333.324 62.58C333.366 62.3072 333.423 62.0368 333.494 61.77C333.597 61.3996 333.731 61.0384 333.894 60.69C334.262 59.8809 334.77 59.143 335.394 58.51C336.054 57.8454 336.83 57.3066 337.684 56.92C338.12 56.7313 338.572 56.5808 339.034 56.47C340.355 56.1615 341.735 56.2063 343.034 56.6C344.274 56.9781 345.395 57.6703 346.289 58.6094C347.182 59.5486 347.818 60.7028 348.134 61.96C348.333 62.7604 348.404 63.5874 348.344 64.41C348.23 65.8613 347.703 67.2495 346.824 68.41C346.824 68.46 346.764 68.41 346.714 68.41L344.714 66.9L344.334 66.6C344.334 66.6 344.334 66.54 344.334 66.5C344.639 66.1002 344.873 65.6501 345.024 65.17C345.198 64.6007 345.259 64.0028 345.204 63.41C345.126 62.6343 344.847 61.8923 344.394 61.2574C343.942 60.6226 343.332 60.1167 342.624 59.79L342.184 59.59Z" fill="black"/>
<path d="M149.544 101.14C148.824 99.44 131.754 59.52 129.834 52.98C127.834 46.29 130.534 38.44 130.654 38.1L131.874 38.53C131.874 38.61 129.224 46.32 131.074 52.61C132.984 59.08 150.564 100.21 150.744 100.61L149.544 101.14Z" fill="#020202"/>
<path d="M138.134 61.8401C138.134 62.0301 138.134 62.2301 138.084 62.4201C137.954 65.0401 137.824 67.66 137.724 70.29C137.724 70.85 137.534 71.04 136.964 70.98C136.084 70.9 135.204 70.8801 134.324 70.8601C133.874 70.8601 133.694 70.7001 133.714 70.2201C133.934 65.8001 134.137 61.3834 134.324 56.9701C134.324 56.4901 134.544 56.3701 134.994 56.4001C135.924 56.4701 136.864 56.5101 137.804 56.5301C137.995 56.5322 138.183 56.5752 138.355 56.6563C138.528 56.7374 138.681 56.8546 138.804 57.0001C141.464 59.9501 144.144 62.8801 146.804 65.8101C147.374 66.4401 147.374 66.4501 148.004 65.8701C150.984 63.1634 153.967 60.46 156.954 57.76C157.176 57.5742 157.454 57.4685 157.744 57.4601C158.744 57.4601 159.804 57.5501 160.834 57.5801C161.254 57.5801 161.384 57.7601 161.364 58.1701C161.144 62.6234 160.937 67.0767 160.744 71.5301C160.744 71.9601 160.524 72.0701 160.134 72.0501C159.184 71.9901 158.224 71.9401 157.274 71.9201C156.804 71.9201 156.664 71.7301 156.694 71.2701C156.834 68.6201 156.944 65.9601 157.064 63.2701C157.086 63.0615 157.065 62.8506 157.004 62.6501C153.654 65.4501 150.484 68.4401 147.144 71.3901L138.274 61.73L138.134 61.8401Z" fill="black"/>
<path d="M249.264 71.7599L253.994 76.2699C253.634 76.2699 253.444 76.2699 253.244 76.2699C251.804 76.2099 250.364 76.1599 248.924 76.0599C248.617 76.0288 248.326 75.903 248.094 75.6999C246.694 74.3699 245.334 73.0099 243.924 71.6999C243.643 71.4528 243.295 71.296 242.924 71.2499C240.924 71.1199 238.924 71.0599 236.974 70.9499C236.484 70.9499 236.274 71.0299 236.264 71.5799C236.264 72.6799 236.164 73.7899 236.134 74.8899C236.134 75.3099 236.014 75.4999 235.544 75.4599C234.544 75.3899 233.594 75.3599 232.624 75.3199C232.244 75.3199 232.094 75.1699 232.114 74.7799C232.327 70.3199 232.534 65.8633 232.734 61.4099C232.734 61.0199 232.914 60.8899 233.294 60.9099C238.794 61.1799 244.294 61.4099 249.804 61.7099C251.704 61.8099 253.264 62.9799 253.434 64.5099C253.584 65.8103 253.564 67.1247 253.374 68.4199C253.054 70.4199 252.104 71.1999 250.064 71.4699L249.354 71.5699L249.264 71.7599ZM242.914 64.9899C241.024 64.8999 239.134 64.8199 237.244 64.7199C236.754 64.7199 236.504 64.7899 236.534 65.3399C236.55 65.8277 236.527 66.316 236.464 66.7999C236.404 67.2899 236.564 67.4499 237.064 67.4699C239.384 67.5499 241.704 67.6699 244.064 67.7799L248.434 67.9799C249.174 67.9799 249.494 67.6999 249.544 66.9799C249.544 66.8699 249.544 66.7599 249.544 66.6499C249.604 65.5199 249.424 65.3099 248.314 65.2599L242.914 64.9899Z" fill="black"/>
<path d="M220.314 60.34C222.394 60.44 224.474 60.51 226.554 60.64C227.171 60.6788 227.778 60.8137 228.354 61.04C229.033 61.309 229.604 61.793 229.982 62.4179C230.359 63.0428 230.522 63.7741 230.444 64.5C230.444 66.16 230.314 67.83 230.244 69.5C230.174 71.17 230.074 72.98 230.014 74.72C230.014 75.13 229.854 75.28 229.434 75.25C228.434 75.19 227.494 75.15 226.514 75.12C226.114 75.12 225.954 74.95 225.984 74.53C226.054 73.43 226.074 72.32 226.154 71.22C226.154 70.75 226.064 70.55 225.554 70.53C221.674 70.36 217.804 70.19 213.924 69.99C213.384 69.99 213.184 70.13 213.174 70.67C213.174 71.74 213.074 72.8 213.044 73.87C213.044 74.33 212.864 74.5 212.394 74.47C211.464 74.4 210.524 74.36 209.584 74.33C209.214 74.33 209.054 74.19 209.074 73.79C209.254 70.33 209.384 66.86 209.584 63.4C209.611 62.5926 209.93 61.8225 210.482 61.2322C211.033 60.642 211.78 60.2718 212.584 60.19C213.23 60.0983 213.882 60.0615 214.534 60.08C216.464 60.14 218.394 60.25 220.314 60.34ZM219.864 66.76L225.744 67.04C226.184 67.04 226.384 66.93 226.364 66.49C226.349 66.2836 226.349 66.0764 226.364 65.87C226.494 64.23 226.224 64.16 224.784 64.11C221.864 63.99 218.944 63.84 216.034 63.71C215.544 63.71 215.034 63.65 214.574 63.64C213.804 63.64 213.524 63.86 213.444 64.64C213.444 65.01 213.444 65.39 213.374 65.76C213.304 66.29 213.514 66.49 214.054 66.51C216.004 66.57 217.934 66.68 219.864 66.76Z" fill="black"/>
<path d="M173.244 72.58C170.924 72.47 168.604 72.43 166.244 72.24C165.576 72.2295 164.928 72.011 164.39 71.6148C163.853 71.2187 163.452 70.6647 163.244 70.03C163.063 69.4034 162.985 68.7515 163.014 68.1C163.064 66.1 163.194 64.05 163.274 62.03C163.384 59.03 165.014 57.89 167.724 57.93C170.434 57.97 172.934 58.15 175.534 58.26C177.034 58.33 178.534 58.37 180.024 58.49C180.705 58.5336 181.378 58.6681 182.024 58.89C182.716 59.1008 183.316 59.5398 183.726 60.1355C184.137 60.7311 184.333 61.4483 184.284 62.17C184.234 64.68 184.124 67.17 183.924 69.69C183.895 70.1477 183.775 70.5949 183.57 71.0051C183.364 71.4153 183.079 71.7801 182.73 72.0777C182.381 72.3753 181.976 72.5997 181.538 72.7375C181.101 72.8753 180.64 72.9238 180.184 72.88C177.884 72.88 175.584 72.69 173.274 72.59L173.244 72.58ZM173.864 61.76C171.864 61.67 169.864 61.59 167.924 61.47C167.454 61.47 167.304 61.59 167.284 62.06C167.214 64.06 167.114 66.13 167.004 68.17C167.004 68.64 167.104 68.84 167.604 68.86C171.531 69.0266 175.457 69.21 179.384 69.41C179.844 69.41 180.024 69.27 180.034 68.81C180.114 66.81 180.204 64.73 180.324 62.69C180.324 62.19 180.184 62.04 179.704 62.02C177.754 61.99 175.814 61.85 173.864 61.76Z" fill="black"/>
<path d="M186.264 65.99C186.364 63.82 186.474 61.65 186.554 59.48C186.554 58.95 186.744 58.82 187.254 58.85C192.424 59.1 197.584 59.32 202.744 59.59C203.6 59.6395 204.446 59.8112 205.254 60.1C205.774 60.2591 206.238 60.5626 206.592 60.975C206.946 61.3875 207.175 61.8921 207.254 62.43C207.528 63.9642 207.449 65.5407 207.024 67.04C206.833 67.6549 206.462 68.1986 205.959 68.6013C205.457 69.004 204.846 69.2473 204.204 69.3C203.503 69.4118 202.792 69.4487 202.084 69.41C198.344 69.26 194.594 69.08 190.854 68.89C190.284 68.89 190.094 69.02 190.094 69.59C190.094 70.64 189.974 71.68 189.964 72.73C189.964 73.29 189.744 73.44 189.224 73.39C188.364 73.32 187.504 73.27 186.644 73.27C186.104 73.27 185.934 73.11 185.964 72.56C186.074 70.32 186.134 68.13 186.264 65.99ZM196.574 65.6L201.744 65.83C203.134 65.9 203.334 65.71 203.374 64.32V63.99C203.374 63.39 203.104 63.12 202.514 63.09L190.884 62.54C190.504 62.54 190.394 62.7 190.384 63.04C190.384 63.58 190.384 64.12 190.304 64.66C190.224 65.2 190.444 65.28 190.904 65.29C192.794 65.36 194.684 65.46 196.574 65.55V65.6Z" fill="black"/>
<path d="M261.584 73.7799C261.567 74.1854 261.471 74.5836 261.299 74.9516C261.128 75.3196 260.886 75.6501 260.587 75.9243C260.288 76.1984 259.937 76.4107 259.556 76.549C259.174 76.6872 258.769 76.7487 258.364 76.7299C257.756 76.7017 257.17 76.4942 256.68 76.1334C256.19 75.7726 255.818 75.2747 255.611 74.7026C255.403 74.1306 255.37 73.5099 255.515 72.9189C255.66 72.328 255.977 71.7932 256.426 71.3822C256.875 70.9712 257.435 70.7022 258.036 70.6093C258.638 70.5165 259.253 70.6038 259.805 70.8603C260.357 71.1168 260.82 71.5309 261.137 72.0506C261.453 72.5702 261.609 73.172 261.584 73.7799ZM256.164 73.5399C256.134 74.1723 256.356 74.7907 256.782 75.2594C257.207 75.7281 257.802 76.0088 258.434 76.0399C259.057 76.0514 259.661 75.8218 260.12 75.3988C260.578 74.9759 260.855 74.3924 260.894 73.7699C260.897 73.1591 260.665 72.5705 260.244 72.1271C259.824 71.6836 259.249 71.4195 258.639 71.3898C258.029 71.3602 257.431 71.5672 256.97 71.9678C256.509 72.3684 256.22 72.9316 256.164 73.5399Z" fill="black"/>
<path d="M259.064 73.99L259.674 75.27C258.494 75.56 258.674 74.27 257.994 73.97C257.991 74.2435 257.954 74.5156 257.884 74.78C257.779 74.959 257.644 75.1181 257.484 75.25C257.384 75.09 257.204 74.92 257.204 74.75C257.204 74 257.254 73.26 257.274 72.51C257.274 72.13 257.454 71.97 257.834 72.03C258.214 72.09 258.364 72.03 258.624 72.03C259.144 72.03 259.624 72.2 259.764 72.74C259.904 73.28 259.674 73.72 259.064 73.99ZM258.414 73.59L259.014 73.04C258.844 72.8786 258.648 72.7468 258.434 72.65C258.144 72.56 257.944 72.75 258.004 73.05C258.064 73.35 258.214 73.3 258.414 73.55V73.59Z" fill="black"/>
<path d="M335.414 69.62V70.42C335.414 70.48 335.414 70.49 335.344 70.49H335.134C335.134 70.49 335.064 70.49 335.074 70.43C335.074 70.01 335.074 69.59 335.074 69.17C335.074 69.17 335.074 69.11 335.134 69.12H335.394C335.41 69.1134 335.427 69.11 335.444 69.11C335.461 69.11 335.478 69.1134 335.494 69.12L336.284 69.93C336.344 69.93 336.344 69.93 336.404 69.93L337.214 69.13H337.294H337.584C337.584 69.13 337.634 69.13 337.634 69.19C337.634 69.61 337.634 70.03 337.634 70.46C337.634 70.46 337.634 70.46 337.584 70.46H337.314C337.314 70.46 337.254 70.46 337.254 70.4V69.64C337.254 69.64 337.254 69.64 337.254 69.58C336.944 69.86 336.654 70.15 336.344 70.45L335.474 69.56L335.414 69.62Z" fill="black"/>
<path d="M345.984 70.16L346.444 70.57H345.964C345.938 70.5784 345.91 70.5784 345.884 70.57L345.474 70.21C345.46 70.2037 345.444 70.2004 345.429 70.2004C345.413 70.2004 345.398 70.2037 345.384 70.21H344.814C344.814 70.21 344.744 70.21 344.754 70.27C344.764 70.33 344.754 70.48 344.754 70.59C344.754 70.7 344.754 70.64 344.704 70.64H344.424C344.424 70.64 344.424 70.64 344.424 70.59C344.424 70.17 344.424 69.74 344.424 69.32C344.424 69.32 344.424 69.27 344.484 69.27H346.044C346.123 69.2645 346.202 69.2862 346.268 69.3317C346.333 69.3771 346.381 69.4436 346.404 69.52C346.414 69.6431 346.414 69.7669 346.404 69.89C346.399 69.9697 346.364 70.0446 346.307 70.1001C346.25 70.1556 346.174 70.1877 346.094 70.19H346.034L345.984 70.16ZM345.354 69.54H344.824C344.774 69.54 344.754 69.54 344.754 69.6V69.74C344.754 69.79 344.754 69.8 344.814 69.8H345.884C345.954 69.8 345.984 69.8 345.994 69.7C345.994 69.59 345.994 69.57 345.874 69.57L345.354 69.54Z" fill="black"/>
<path d="M343.204 69.18H343.794C343.85 69.1697 343.908 69.1697 343.964 69.18C344.031 69.2006 344.088 69.2438 344.127 69.3022C344.165 69.3606 344.182 69.4306 344.174 69.5C344.174 69.66 344.174 69.82 344.174 69.97V70.47C344.174 70.47 344.174 70.52 344.114 70.52H343.844C343.844 70.52 343.784 70.52 343.784 70.47C343.784 70.42 343.784 70.26 343.784 70.15C343.784 70.04 343.784 70.09 343.724 70.09H342.624C342.564 70.09 342.554 70.09 342.554 70.16C342.554 70.23 342.554 70.36 342.554 70.46C342.556 70.4683 342.556 70.4769 342.553 70.4851C342.551 70.4932 342.547 70.5007 342.541 70.5067C342.535 70.5127 342.527 70.517 342.519 70.5194C342.511 70.5217 342.502 70.5219 342.494 70.52H342.224C342.224 70.52 342.174 70.52 342.174 70.47C342.174 70.14 342.174 69.81 342.174 69.47C342.173 69.3943 342.2 69.3209 342.25 69.2638C342.3 69.2067 342.369 69.1698 342.444 69.16H342.634L343.204 69.18ZM343.204 69.79H343.764C343.764 69.79 343.764 69.79 343.764 69.73V69.67C343.764 69.52 343.764 69.51 343.614 69.51H342.614C342.534 69.51 342.514 69.51 342.504 69.6V69.71C342.504 69.71 342.504 69.78 342.574 69.78L343.204 69.79Z" fill="black"/>
<path d="M338.784 70.51H338.134C338.07 70.5144 338.007 70.4983 337.953 70.4642C337.899 70.43 337.857 70.3795 337.834 70.32C337.824 70.257 337.824 70.193 337.834 70.13C337.834 69.94 337.834 69.75 337.834 69.56C337.828 69.5056 337.834 69.4504 337.852 69.3986C337.869 69.3467 337.898 69.2995 337.937 69.2602C337.975 69.221 338.021 69.1908 338.073 69.1717C338.124 69.1526 338.179 69.1452 338.234 69.15H339.404C339.467 69.1404 339.531 69.1404 339.594 69.15C339.66 69.171 339.718 69.2122 339.759 69.2679C339.8 69.3235 339.823 69.3907 339.824 69.46C339.824 69.69 339.824 69.93 339.824 70.17C339.823 70.2134 339.813 70.256 339.795 70.2956C339.777 70.3351 339.752 70.3708 339.72 70.4005C339.689 70.4302 339.651 70.4534 339.611 70.4688C339.57 70.4841 339.527 70.4914 339.484 70.49L338.784 70.51ZM338.784 69.51H338.224C338.174 69.51 338.164 69.51 338.164 69.57C338.164 69.63 338.164 69.95 338.164 70.15C338.164 70.15 338.164 70.21 338.224 70.21H339.344C339.352 70.2119 339.361 70.2117 339.369 70.2094C339.377 70.207 339.385 70.2027 339.391 70.1967C339.397 70.1907 339.401 70.1832 339.403 70.1751C339.406 70.1669 339.406 70.1583 339.404 70.15V69.57C339.404 69.52 339.404 69.51 339.344 69.51H338.784Z" fill="black"/>
<path d="M339.994 69.8401V69.2201C339.994 69.1701 339.994 69.1501 340.064 69.1601H341.534C341.614 69.1504 341.694 69.1504 341.774 69.1601C341.822 69.174 341.865 69.201 341.899 69.2381C341.932 69.2752 341.955 69.3209 341.964 69.37C341.994 69.5152 341.994 69.6649 341.964 69.8101C341.949 69.8695 341.916 69.9227 341.87 69.9622C341.823 70.0018 341.765 70.0255 341.704 70.0301C341.638 70.0399 341.57 70.0399 341.504 70.0301H340.434C340.434 70.0301 340.364 70.03 340.364 70.1C340.364 70.17 340.364 70.3 340.364 70.4C340.364 70.5 340.364 70.4701 340.294 70.4701H340.054C340.054 70.4701 339.984 70.4701 339.984 70.4101C339.994 70.2501 339.994 70.0401 339.994 69.8401ZM340.994 69.76H341.494C341.624 69.76 341.644 69.76 341.634 69.61C341.634 69.55 341.634 69.5301 341.554 69.5301H340.454C340.454 69.5301 340.454 69.53 340.454 69.58V69.73C340.454 69.78 340.454 69.79 340.514 69.79L340.994 69.76Z" fill="black"/>
<path d="M347.134 70.31C347.135 70.3484 347.129 70.3868 347.115 70.4226C347.1 70.4584 347.079 70.4909 347.052 70.5181C347.025 70.5453 346.992 70.5667 346.956 70.5808C346.921 70.5948 346.882 70.6014 346.844 70.6C346.806 70.6 346.769 70.5924 346.734 70.5777C346.7 70.563 346.668 70.5415 346.642 70.5144C346.616 70.4874 346.596 70.4553 346.582 70.4202C346.569 70.3851 346.562 70.3476 346.564 70.31C346.561 70.2711 346.566 70.2321 346.58 70.1955C346.593 70.159 346.615 70.1258 346.642 70.0982C346.67 70.0707 346.703 70.0494 346.739 70.0359C346.776 70.0224 346.815 70.017 346.854 70.02C346.891 70.0199 346.929 70.0275 346.963 70.0422C346.998 70.0569 347.029 70.0784 347.055 70.1055C347.082 70.1325 347.102 70.1646 347.115 70.1997C347.129 70.2349 347.135 70.2724 347.134 70.31ZM346.624 70.31C346.624 70.371 346.648 70.4295 346.691 70.4726C346.734 70.5157 346.793 70.54 346.854 70.54C346.912 70.54 346.968 70.5168 347.009 70.4755C347.051 70.4343 347.074 70.3783 347.074 70.32C347.074 70.2898 347.068 70.2598 347.056 70.2319C347.045 70.204 347.028 70.1787 347.006 70.1573C346.985 70.136 346.96 70.119 346.932 70.1075C346.904 70.0959 346.874 70.09 346.844 70.09C346.791 70.0948 346.741 70.1187 346.704 70.1574C346.668 70.196 346.646 70.2467 346.644 70.3L346.624 70.31Z" fill="black"/>
<path d="M346.924 70.33L346.984 70.45C346.874 70.45 346.894 70.36 346.824 70.33C346.754 70.3 346.824 70.39 346.824 70.41V70.46C346.824 70.46 346.824 70.46 346.824 70.41V70.2H346.904C346.928 70.1966 346.952 70.2018 346.972 70.2146C346.992 70.2275 347.007 70.2471 347.014 70.27C347.014 70.27 346.974 70.31 346.924 70.33ZM346.854 70.33L346.914 70.27H346.854V70.33Z" fill="black"/>
<path d="M289.894 109.6C289.967 109.213 290.037 108.833 290.104 108.46L290.914 104.06C291.004 103.6 291.094 103.14 291.174 102.68C291.174 102.59 291.174 102.54 291.314 102.54H293.714L292.764 107.72H296.294C296.584 107.733 296.868 107.638 297.091 107.453C297.315 107.268 297.462 107.007 297.504 106.72C297.774 105.31 298.034 103.89 298.294 102.47C298.312 102.379 298.312 102.286 298.292 102.196C298.273 102.106 298.234 102.02 298.179 101.946C298.125 101.872 298.055 101.809 297.975 101.764C297.895 101.718 297.806 101.689 297.714 101.68C297.568 101.665 297.42 101.665 297.274 101.68H291.364L291.484 101.01C291.544 100.7 291.614 100.38 291.664 100.06C291.664 99.94 291.724 99.8999 291.844 99.9199H298.844C299.232 99.9056 299.619 99.9667 299.984 100.1C300.258 100.191 300.499 100.362 300.677 100.589C300.854 100.817 300.961 101.092 300.984 101.38C301.015 101.905 300.964 102.431 300.834 102.94C300.564 104.37 300.304 105.8 300.034 107.22C299.953 107.691 299.783 108.142 299.534 108.55C299.351 108.814 299.112 109.033 298.833 109.192C298.554 109.352 298.244 109.446 297.924 109.47C297.342 109.562 296.753 109.608 296.164 109.61C294.164 109.61 292.104 109.61 290.064 109.61L289.894 109.6Z" fill="#FBFBFB"/>
<path d="M321.764 107.87L321.524 109.17C321.444 109.58 321.444 109.58 321.044 109.58H318.744C318.478 109.594 318.213 109.538 317.976 109.417C317.739 109.296 317.538 109.114 317.394 108.89C317.284 108.711 317.211 108.511 317.178 108.304C317.146 108.096 317.154 107.884 317.204 107.68C317.434 106.41 317.674 105.14 317.914 103.87C317.979 103.412 318.207 102.993 318.556 102.69C318.905 102.387 319.352 102.22 319.814 102.22C321.694 102.22 323.574 102.22 325.454 102.22H325.524C325.524 102.36 325.474 102.51 325.444 102.66L324.444 107.82C324.234 108.91 324.044 110 323.834 111.09C323.764 111.509 323.593 111.904 323.334 112.24C323.173 112.441 322.969 112.602 322.737 112.713C322.505 112.824 322.251 112.881 321.994 112.88C321.154 112.88 320.324 112.88 319.484 112.88C318.644 112.88 317.564 112.88 316.604 112.88H316.424C316.524 112.34 316.624 111.82 316.714 111.3C316.714 111.17 316.824 111.2 316.904 111.2H320.704C320.864 111.203 321.024 111.176 321.174 111.12C321.33 111.058 321.465 110.954 321.566 110.82C321.666 110.686 321.728 110.527 321.744 110.36L322.104 108.41L322.944 103.93C322.944 103.93 322.944 103.85 322.944 103.8H321.134C321.015 103.785 320.895 103.793 320.78 103.826C320.665 103.858 320.557 103.913 320.464 103.988C320.371 104.062 320.293 104.155 320.237 104.26C320.18 104.365 320.145 104.481 320.134 104.6C319.974 105.31 319.854 106.03 319.714 106.74C319.714 106.89 319.654 107.05 319.634 107.21C319.619 107.269 319.617 107.33 319.628 107.389C319.638 107.449 319.661 107.505 319.695 107.555C319.729 107.605 319.773 107.648 319.825 107.68C319.876 107.711 319.934 107.732 319.994 107.74C320.125 107.775 320.259 107.795 320.394 107.8H321.804L321.764 107.87Z" fill="#FBFBFB"/>
<path d="M314.224 107.87L315.874 98.97H318.134L316.134 109.6H310.564C310.283 109.613 310.005 109.549 309.758 109.415C309.511 109.281 309.306 109.082 309.164 108.84C308.964 108.451 308.914 108.003 309.024 107.58C309.254 106.35 309.474 105.12 309.714 103.89C309.795 103.42 310.041 102.995 310.407 102.691C310.774 102.386 311.237 102.223 311.714 102.23H314.714C314.661 102.517 314.611 102.797 314.564 103.07C314.564 103.29 314.474 103.52 314.434 103.74C314.394 103.96 314.384 103.87 314.294 103.87H312.914C312.795 103.855 312.673 103.864 312.558 103.897C312.442 103.93 312.334 103.985 312.241 104.061C312.147 104.137 312.07 104.231 312.014 104.337C311.958 104.443 311.924 104.56 311.914 104.68C311.764 105.33 311.654 106 311.534 106.68C311.534 106.89 311.454 107.1 311.424 107.32C311.408 107.389 311.409 107.461 311.426 107.529C311.443 107.598 311.475 107.662 311.52 107.716C311.566 107.77 311.623 107.813 311.688 107.842C311.753 107.87 311.823 107.883 311.894 107.88L314.224 107.87Z" fill="#FBFBFB"/>
<path d="M305.544 102.23H307.774C308.062 102.23 308.342 102.321 308.576 102.49C308.809 102.659 308.983 102.897 309.074 103.17C309.143 103.425 309.143 103.695 309.074 103.95C308.864 105.07 308.664 106.19 308.444 107.31C308.392 107.673 308.298 108.029 308.164 108.37C308.008 108.745 307.741 109.063 307.4 109.283C307.059 109.502 306.659 109.613 306.254 109.6C304.914 109.6 303.574 109.6 302.254 109.6C302.016 109.607 301.779 109.559 301.562 109.461C301.344 109.363 301.152 109.217 300.999 109.035C300.846 108.852 300.737 108.637 300.679 108.406C300.62 108.175 300.615 107.933 300.664 107.7C300.894 106.42 301.134 105.14 301.384 103.87C301.457 103.399 301.702 102.971 302.071 102.668C302.44 102.366 302.907 102.21 303.384 102.23H305.554H305.544ZM304.474 107.88H305.214C305.387 107.891 305.559 107.851 305.709 107.763C305.858 107.676 305.978 107.546 306.054 107.39C306.054 107.28 306.134 107.15 306.164 107.03C306.324 106.18 306.484 105.33 306.634 104.48C306.655 104.406 306.658 104.327 306.642 104.251C306.626 104.175 306.592 104.104 306.543 104.044C306.494 103.984 306.431 103.937 306.36 103.907C306.289 103.876 306.211 103.864 306.134 103.87H304.614C304.497 103.855 304.378 103.863 304.264 103.894C304.15 103.925 304.043 103.978 303.95 104.051C303.857 104.123 303.78 104.214 303.722 104.317C303.664 104.419 303.627 104.533 303.614 104.65C303.524 105.02 303.464 105.39 303.394 105.76C303.324 106.13 303.204 106.76 303.124 107.26C303.044 107.76 303.204 107.8 303.554 107.84C303.904 107.88 304.134 107.87 304.474 107.88Z" fill="#FBFBFB"/>
<path d="M328.274 106.58C328.324 106.35 328.354 106.12 328.404 105.9L328.494 105.4C328.494 105.29 328.554 105.25 328.674 105.25H330.814C330.874 104.97 330.944 104.7 330.984 104.43C330.999 104.359 330.998 104.285 330.98 104.214C330.963 104.143 330.929 104.078 330.881 104.023C330.834 103.967 330.774 103.924 330.707 103.896C330.639 103.867 330.566 103.855 330.494 103.86H329.054C328.935 103.84 328.814 103.845 328.698 103.875C328.582 103.905 328.473 103.959 328.379 104.033C328.284 104.108 328.207 104.201 328.151 104.307C328.095 104.413 328.062 104.53 328.054 104.65C327.874 105.52 327.724 106.39 327.574 107.27C327.556 107.336 327.552 107.405 327.565 107.472C327.577 107.539 327.605 107.602 327.645 107.657C327.686 107.712 327.738 107.757 327.798 107.789C327.859 107.82 327.926 107.838 327.994 107.84C328.127 107.85 328.261 107.85 328.394 107.84H332.534C332.534 107.9 332.534 107.94 332.534 107.99L332.264 109.47C332.264 109.59 332.174 109.58 332.094 109.58H329.834C328.834 109.58 327.894 109.58 326.934 109.58C326.688 109.599 326.441 109.561 326.212 109.468C325.983 109.375 325.779 109.23 325.616 109.045C325.453 108.86 325.336 108.639 325.273 108.4C325.21 108.162 325.203 107.912 325.254 107.67C325.484 106.35 325.704 105.03 325.964 103.72C326.047 103.283 326.283 102.891 326.629 102.612C326.975 102.333 327.409 102.187 327.854 102.2H332.024C332.218 102.195 332.412 102.232 332.59 102.31C332.768 102.388 332.927 102.504 333.056 102.65C333.185 102.795 333.28 102.968 333.335 103.154C333.39 103.341 333.403 103.538 333.374 103.73C333.234 104.65 333.054 105.57 332.884 106.49C332.884 106.49 332.884 106.49 332.884 106.55L328.274 106.58Z" fill="#FBFBFB"/>
<path d="M51.9938 54.18C50.3878 54.18 48.8179 53.7037 47.4826 52.8115C46.1472 51.9192 45.1065 50.6511 44.4919 49.1674C43.8773 47.6836 43.7165 46.0509 44.0298 44.4758C44.3431 42.9007 45.1165 41.4539 46.2521 40.3183C47.3877 39.1827 48.8345 38.4093 50.4096 38.096C51.9848 37.7827 53.6174 37.9435 55.1012 38.558C56.5849 39.1726 57.8531 40.2134 58.7453 41.5487C59.6375 42.8841 60.1138 44.454 60.1138 46.06C60.1111 48.2127 59.2548 50.2765 57.7326 51.7987C56.2103 53.321 54.1465 54.1773 51.9938 54.18ZM51.9938 39.24C50.6449 39.24 49.3263 39.6399 48.2048 40.3893C47.0833 41.1387 46.2091 42.2039 45.6929 43.4501C45.1767 44.6963 45.0417 46.0675 45.3048 47.3905C45.568 48.7134 46.2175 49.9286 47.1713 50.8824C48.1251 51.8362 49.3403 52.4857 50.6633 52.7489C51.9862 53.012 53.3575 52.877 54.6037 52.3608C55.8499 51.8446 56.915 50.9705 57.6644 49.8489C58.4138 48.7274 58.8138 47.4088 58.8138 46.06C58.8111 44.252 58.0918 42.5188 56.8133 41.2404C55.5349 39.962 53.8017 39.2426 51.9938 39.24Z" fill="black"/>
<g opacity="0.5">
<path opacity="0.5" d="M427.654 90.73L448.684 102.74L442.354 106.32L428.214 99.67L427.654 90.73Z" fill="#020202"/>
</g>
<path d="M426.874 90.76C431.274 98.11 435.014 103.65 448.624 103.18L449.624 106.28C449.624 106.28 439.494 107.23 435.474 106.9C431.454 106.57 422.644 95.52 422.644 95.52L426.874 90.76Z" fill="#870502"/>
<path d="M437.644 107.62C436.814 107.62 436.054 107.62 435.444 107.55C431.264 107.2 423.074 97.0799 422.154 95.9299L421.814 95.4999L426.974 89.6699L427.424 90.4299C431.474 97.1699 434.984 102.99 448.604 102.53H449.094L450.514 106.87L449.704 106.94C449.354 106.99 442.254 107.62 437.644 107.62ZM423.514 95.5399C426.174 98.8099 432.614 106.01 435.514 106.25C438.784 106.52 446.264 105.92 448.744 105.7L448.134 103.84C434.684 104.2 430.614 98.2899 426.734 91.8399L423.514 95.5399Z" fill="#020202"/>
<path d="M20.5537 63.55H6.59375V67.6601H20.5537V63.55Z" fill="#A81111"/>
<path d="M21.2039 68.31H5.94385V62.9H21.2039V68.31ZM7.20386 67.01H19.8638V64.2H7.24385L7.20386 67.01Z" fill="#020202"/>
</svg>
