
<svg xmlns="http://www.w3.org/2000/svg" version="1.1" xmlns:xlink="http://www.w3.org/1999/xlink" preserveAspectRatio="none" x="0px" y="0px" width="1024px" height="1024px" viewBox="0 0 1024 1024">
<defs>
<g id="Layer0_0_MEMBER_0_MEMBER_0_MEMBER_0_FILL">
<path fill="#9DBE33" stroke="none" d="
M 193.15 379
L 180 384.25 213.7 374
Q 207.5 373.8 193.15 379 Z"/>
</g>

<g id="Layer0_0_MEMBER_0_MEMBER_1_MEMBER_0_MEMBER_0_MEMBER_0_FILL">
<path fill="#C9E553" stroke="none" d="
M 202.25 368.5
Q 201.7333984375 369.0166015625 201.65 369.7 201.6775390625 369.3494140625 201.5 368.95 201.1 368 199.75 367.8 198.25 367.55 196.45 368.5 194.5 369.55 194.15 371 193.5 373.6 191.85 375.75 192.05 375 191.95 374.2 191.85 372.6 190.45 372.35 189 372.15 188.1 374.5 187.65 375.7 187.45 376.9 187.35 376.65 186.95 376.5 186.25 376.3 185.05 377.1 183.85 377.95 184.2 379.9 184.4 380.9 184.85 381.7
L 178.75 384.3 179.05 384.8 184.85 382.3
Q 191.7 379.45 196.8 377.75 203.6 375.45 208.3 374.55
L 212.15 374.05 213.65 374
Q 213.75 373.75 213.65 373.3 213.45 372.3 212.55 371.3 211.3 369.9 209.25 369.9 208.7 369.95 208.1 370.15
L 207.7 370.35
Q 207.75 370.05 207.6 369.7 207.35 368.95 206.15 368.45 203.55 367.4 202.25 368.5 Z"/>
</g>

<g id="Layer0_0_MEMBER_0_MEMBER_1_MEMBER_1_MEMBER_0_MEMBER_0_FILL">
<path fill="#B0C91B" stroke="none" d="
M 179.05 384.8
L 179.05 385 185.2 382.45 186 384.2
Q 187.05 385.95 188.45 385.75 189.85 385.55 190.2 384.9
L 190.3 384.3 190.9 384.75
Q 191.65 385.3 192.3 385.65 194.5 386.85 195.3 385.85 196.2 384.8 195.3 383.5 195 383.05 194.6 382.65
L 194.2 382.35 195.75 382.85
Q 197.55 383.6 198.8 384.7 199.9 385.65 201.8 385.45 203.6 385.25 204.5 384.35 205.3 383.5 205.2 382.5
L 204.9 381.7 205.2 382.05
Q 205.55 382.45 205.95 382.55 207.25 382.95 208.75 381 209.35 380.2 209.35 379.35
L 209.25 378.75 209.6 378.75
Q 210.2 378.75 210.5 378.65 211.85 378.35 212.7 376.75 213.4 375.6 213.6 374.7
L 213.65 374 210.45 374.2 208.3 374.55
Q 203.6 375.45 196.8 377.75 191.7 379.45 184.85 382.3
L 179.05 384.8 Z"/>
</g>

<g id="Layer0_0_MEMBER_1_MEMBER_1_MEMBER_0_MEMBER_0_MEMBER_0_FILL">
<path fill="#C9E553" stroke="none" d="
M 185.15 344.4
Q 184.25 344.4 182.95 345 181.2 345.9 180.7 347.6 180.4 348.45 180.5 349.15 180.3 349 179.85 349 179.05 349.05 178.15 349.85 176.1 351.75 176.55 353.3 176.725 353.9560546875 177.25 354.35 176.9798828125 354.2 176.6 354.2 175.6 354.15 174.8 355.2 173.85 356.4 173.8 358.55 173.7 360.75 174.75 361.85 176.65 363.8 177.55 366.5 177.05 365.9 176.3 365.5 174.9 364.75 173.95 365.9 173 367.05 174.45 369.2 175.2 370.3 176.1 371.15
L 175.5 371.35
Q 174.9 371.9 174.9 373.45 174.9 375 176.75 376.05 177.65 376.55 178.55 376.75
L 177.15 382.7 177.55 382.85 185.85 344.5
Q 185.65 344.4 185.15 344.4 Z"/>
</g>

<g id="Layer0_0_MEMBER_1_MEMBER_1_MEMBER_1_MEMBER_0_MEMBER_0_FILL">
<path fill="#B0C91B" stroke="none" d="
M 188.3 346.15
Q 187.45 345.05 186.55 344.65
L 185.85 344.5 177.4 382.9 177.7 382.85 180.15 376.9 181.7 377
Q 183.35 376.8 184 375.4 184.65 373.95 184.3 373.25
L 183.85 372.8
Q 185.05 372.4 186.15 371.7 188.35 370.35 187.95 368.9 187.6 367.45 185.95 367.6
L 184.4 368
Q 184.9 367.45 185.7 366.8 187.3 365.5 188.9 364.85 190.3 364.3 191.15 362.25 191.9 360.35 191.6 358.85 191.3 357.55 190.35 357.15
L 189.5 357.05
Q 190.25 356.95 190.75 356.35 191.8 355.1 190.7 352.5 190.25 351.4 189.5 351.05
L 188.85 350.95
Q 189.2 350.35 189.35 349.45 189.55 347.65 188.3 346.15 Z"/>
</g>

<g id="Layer0_0_MEMBER_2_MEMBER_1_MEMBER_0_MEMBER_0_MEMBER_0_FILL">
<path fill="#C9E553" stroke="none" d="
M 195.5 355.2
Q 194.75 354.85 193.6 355.15 190.9 355.9 190.6 357.5 190.45 358.3 190.8 358.95 190.6 358.6 190.2 358.3 189.3 357.8 188.1 358.4 186.75 359.05 185.7 360.9 184.6 362.8 185.05 364.25 185.85 366.85 185.4 369.7 185.2 368.9 184.75 368.25 183.85 366.9 182.45 367.5 181.1 368.1 181.4 370.7 181.6 372 182 373.15 181.75 372.95 181.35 373.05 180.55 373.25 179.85 374.65 179.15 376.05 180.25 377.8 180.85 378.65 181.55 379.25
L 177.6 383.9 177.9 384.25 202.9 353.95
Q 202.35 353.1 200.1 353.1 198.15 353.05 196.85 354.35 196.25 355 196 355.65 195.85 355.4 195.5 355.2 Z"/>
</g>

<g id="Layer0_0_MEMBER_2_MEMBER_1_MEMBER_1_MEMBER_0_MEMBER_0_FILL">
<path fill="#B0C91B" stroke="none" d="
M 200.35 366.8
Q 201.05 367.05 201.8 366.75 203.3 366.1 203.5 363.3 203.6 362.1 203.1 361.45
L 202.55 361.05
Q 203.15 360.7 203.65 359.95 204.7 358.45 204.3 356.55 204 355.2 203.45 354.45
L 202.9 353.95 177.7 384.2 178 384.25 182.95 380.1 184.25 380.9
Q 185.8 381.5 187.05 380.55 188.25 379.6 188.3 378.75
L 188.1 378.15 190.6 378.25
Q 193.2 378.05 193.55 376.6 193.85 375.15 192.35 374.5
L 190.8 374.15 192.5 373.7
Q 194.5 373.25 196.2 373.45 197.7 373.6 199.4 372.15 201 370.8 201.4 369.3 201.7 368 201.05 367.3
L 200.35 366.8 Z"/>
</g>

<g id="Layer0_0_MEMBER_3_MEMBER_0_MEMBER_0_FILL">
<path fill="#E1093C" stroke="none" d="
M 182.15 387.4
Q 179.15 382.2 173.35 380.6 167.6 379.05 162.4 382.05 157.2 385.05 155.6 390.85 154.05 396.65 157.05 401.85 160.05 407.05 165.85 408.6 171.65 410.15 176.8 407.15 182 404.15 183.55 398.35 185.1 392.6 182.15 387.4 Z"/>
</g>

<g id="Layer0_0_MEMBER_4_MEMBER_0_MEMBER_0_FILL">
<path fill="#E1093C" stroke="none" d="
M 164.45 409.3
Q 167.2 409.1 173.05 408.15
L 158.35 401.65 159.2 403.85
Q 160.15 406.35 160.65 408.1 161.05 409.4 159.2 410.85 158.1 411.7 155.45 413.5
L 156.5 414.1
Q 157.75 413.55 160.75 411.25 163.2 409.4 164.45 409.3 Z"/>
</g>

<g id="Layer0_0_MEMBER_4_MEMBER_1_MEMBER_0_FILL">
<path fill="#F9EFEE" stroke="none" d="
M 143.15 415.45
Q 149.1 416.8 156.5 414.1
L 155.45 413.5
Q 149.35 416.05 143.4 415.05
L 138.7 413.55 139.8 414.25
Q 141.3 415 143.15 415.45 Z"/>
</g>

<g id="Layer0_0_MEMBER_5_MEMBER_0_FILL">
<path fill="#E54051" stroke="none" d="
M 161.8 386.15
Q 160.75 387.9 161.05 389.8 161.35 391.7 162.8 392.6 164.25 393.45 166.05 392.8 167.85 392.15 168.95 390.35 170 388.6 169.75 386.7 169.45 384.8 167.95 383.9 166.5 383.05 164.7 383.7 162.9 384.35 161.8 386.15 Z"/>
</g>
</defs>

<g transform="matrix( 10, 0, 0, 10, -1250,-3289.5) ">
<use xlink:href="#Layer0_0_MEMBER_0_MEMBER_0_MEMBER_0_FILL"/>
</g>

<g transform="matrix( 10, 0, 0, 10, -1250,-3289.5) ">
<use xlink:href="#Layer0_0_MEMBER_0_MEMBER_1_MEMBER_0_MEMBER_0_MEMBER_0_FILL"/>
</g>

<g transform="matrix( 10, 0, 0, 10, -1250,-3289.5) ">
<use xlink:href="#Layer0_0_MEMBER_0_MEMBER_1_MEMBER_1_MEMBER_0_MEMBER_0_FILL"/>
</g>

<g transform="matrix( 10, 0, 0, 10, -1250,-3289.5) ">
<use xlink:href="#Layer0_0_MEMBER_1_MEMBER_1_MEMBER_0_MEMBER_0_MEMBER_0_FILL"/>
</g>

<g transform="matrix( 10, 0, 0, 10, -1250,-3289.5) ">
<use xlink:href="#Layer0_0_MEMBER_1_MEMBER_1_MEMBER_1_MEMBER_0_MEMBER_0_FILL"/>
</g>

<g transform="matrix( 10, 0, 0, 10, -1250,-3289.5) ">
<use xlink:href="#Layer0_0_MEMBER_2_MEMBER_1_MEMBER_0_MEMBER_0_MEMBER_0_FILL"/>
</g>

<g transform="matrix( 10, 0, 0, 10, -1250,-3289.5) ">
<use xlink:href="#Layer0_0_MEMBER_2_MEMBER_1_MEMBER_1_MEMBER_0_MEMBER_0_FILL"/>
</g>

<g transform="matrix( 10, 0, 0, 10, -1250,-3289.5) ">
<use xlink:href="#Layer0_0_MEMBER_3_MEMBER_0_MEMBER_0_FILL"/>
</g>

<g transform="matrix( 10, 0, 0, 10, -1250,-3289.5) ">
<use xlink:href="#Layer0_0_MEMBER_4_MEMBER_0_MEMBER_0_FILL"/>
</g>

<g transform="matrix( 10, 0, 0, 10, -1250,-3289.5) ">
<use xlink:href="#Layer0_0_MEMBER_4_MEMBER_1_MEMBER_0_FILL"/>
</g>

<g transform="matrix( 10, 0, 0, 10, -1250,-3289.5) ">
<use xlink:href="#Layer0_0_MEMBER_5_MEMBER_0_FILL"/>
</g>
</svg>
