
<svg xmlns="http://www.w3.org/2000/svg" version="1.1" xmlns:xlink="http://www.w3.org/1999/xlink" preserveAspectRatio="none" x="0px" y="0px" width="1024px" height="1024px" viewBox="0 0 1024 1024">
<defs>
<g id="Layer0_0_MEMBER_0_MEMBER_0_FILL">
<path fill="#AA7B61" stroke="none" d="
M 162.8 122.3
L 162.8 114.05
Q 162.8 111.95 161 110.9
L 97.3 74.1
Q 96.45 73.65 95.5 73.65 94.5 73.65 93.65 74.1
L 29.95 110.9
Q 28.15 111.95 28.15 114.05
L 28.15 122.3
Q 28.15 124.4 29.95 125.45
L 93.65 162.25
Q 95.5 163.3 97.3 162.25
L 161 125.45
Q 162.8 124.4 162.8 122.3 Z"/>
</g>

<g id="Layer0_0_MEMBER_0_MEMBER_1_FILL">
<path fill="#8C644F" stroke="none" d="
M 162.8 117.95
L 162.8 115.1
Q 162.8 113 161 111.95
L 97.3 75.15
Q 95.5 74.1 93.65 75.15
L 29.95 111.95
Q 28.15 113 28.15 115.1
L 28.15 117.95
Q 28.15 120.05 29.95 121.1
L 93.65 157.9
Q 95.5 158.95 97.3 157.9
L 161 121.1
Q 162.8 120.05 162.8 117.95 Z"/>
</g>

<g id="Layer0_0_MEMBER_0_MEMBER_2_FILL">
<path fill="#96AD41" stroke="none" d="
M 162.8 116.95
L 162.8 114.05
Q 162.8 111.95 161 110.9
L 97.3 74.1
Q 96.45 73.65 95.5 73.65 94.5 73.65 93.65 74.1
L 29.95 110.9
Q 28.15 111.95 28.15 114.05
L 28.15 116.95
Q 28.15 119 29.95 120.05
L 93.65 156.85
Q 95.5 157.9 97.3 156.85
L 161 120.05
Q 162.8 119 162.8 116.95 Z"/>
</g>

<g id="Layer0_0_MEMBER_0_MEMBER_3_FILL">
<path fill="#829637" stroke="none" d="
M 162.8 114.75
L 162.8 114.05
Q 162.8 111.95 161 110.9
L 97.3 74.1
Q 96.45 73.65 95.5 73.65 94.5 73.65 93.65 74.1
L 29.95 110.9
Q 28.15 111.95 28.15 114.05
L 28.15 114.75
Q 28.15 116.85 29.95 117.9
L 93.65 154.7
Q 95.5 155.75 97.3 154.7
L 161 117.9
Q 162.8 116.85 162.8 114.75 Z"/>
</g>

<g id="Layer0_0_MEMBER_0_MEMBER_4_FILL">
<path fill="#000000" fill-opacity="0.2" stroke="none" d="
M 0 13.65
L 1.05 14.3
Q 2.9 15.35 4.7 14.3
L 5.75 13.65 5.75 0 0 0 0 13.65 Z"/>
</g>

<g id="Layer0_0_MEMBER_0_MEMBER_5_FILL">
<path fill="#B4CC59" stroke="none" d="
M 95.5 73.65
Q 94.5 73.65 93.65 74.1
L 29.95 110.9
Q 28.1 111.95 28.1 114.05 28.1 116.15 29.95 117.2
L 93.65 154
Q 95.5 154.95 97.3 154
L 161 117.2
Q 162.85 116.15 162.85 114.05 162.85 111.95 161 110.9
L 97.3 74.1
Q 96.45 73.65 95.5 73.65 Z"/>
</g>

<g id="Layer0_0_MEMBER_0_MEMBER_6_FILL">
<path fill="#E1E6D0" stroke="none" d="
M 91 89.95
Q 90.1 89.4 88.95 89.5 87.95 96.7 87.55 102.45
L 137.05 131 149.6 123.8 91 89.95 Z"/>
</g>

<g id="Layer0_0_MEMBER_0_MEMBER_7_FILL">
<path fill="#DDE6C0" stroke="none" d="
M 79.2 124.85
Q 77.45 123.45 76.8 123 74.75 121.55 71.95 119.85
L 53.25 130.65 64 136.85 81.6 126.65
Q 80.7 126.05 79.2 124.85 Z"/>
</g>

<g id="Layer0_0_MEMBER_1_MEMBER_0_FILL">
<path fill="#E6CAA4" stroke="none" d="
M 95.45 108.15
L 95.45 139.2 138.5 114.35 138.5 83.3 95.45 108.15 Z"/>
</g>

<g id="Layer0_0_MEMBER_1_MEMBER_1_FILL">
<path fill="#AA7B61" stroke="none" d="
M 123.1 123.25
L 135.6 116.05 135.6 93.65 123.1 100.9 123.1 123.25 Z"/>
</g>

<g id="Layer0_0_MEMBER_1_MEMBER_2_MEMBER_0_FILL">
<path fill="#8C644F" stroke="none" d="
M 123.1 121.8
L 123.1 123.25 135.6 116.05 135.6 114.6 123.1 121.8 Z"/>
</g>

<g id="Layer0_0_MEMBER_1_MEMBER_2_MEMBER_1_FILL">
<path fill="#8C644F" stroke="none" d="
M 123.1 116.55
L 123.1 118 135.6 110.8 135.6 109.35 123.1 116.55 Z"/>
</g>

<g id="Layer0_0_MEMBER_1_MEMBER_2_MEMBER_2_FILL">
<path fill="#8C644F" stroke="none" d="
M 123.1 111.3
L 123.1 112.75 135.6 105.55 135.6 104.1 123.1 111.3 Z"/>
</g>

<g id="Layer0_0_MEMBER_1_MEMBER_2_MEMBER_3_FILL">
<path fill="#8C644F" stroke="none" d="
M 123.1 106.05
L 123.1 107.5 135.6 100.3 135.6 98.85 123.1 106.05 Z"/>
</g>

<g id="Layer0_0_MEMBER_1_MEMBER_2_MEMBER_4_FILL">
<path fill="#8C644F" stroke="none" d="
M 135.6 95.05
L 135.6 93.6 123.1 100.8 123.1 102.25 135.6 95.05 Z"/>
</g>

<g id="Layer0_0_MEMBER_1_MEMBER_3_FILL">
<path fill="#FFECC9" stroke="none" d="
M 73.95 82.95
L 52.45 83.65 52.45 114.35 66.85 122.65 67.65 122.05 78.5 128.35 77.7 128.95 95.45 139.2 95.45 108.5 73.95 82.95 Z"/>
</g>

<g id="Layer0_0_MEMBER_1_MEMBER_4_FILL">
<path fill="#C19279" stroke="none" d="
M 94.3 57
Q 94.05 57 93.65 57.3
L 50.85 82.35 74.65 82.95 97.1 110.2 139.7 85.3
Q 139.95 85.3 140.1 85.05 140.6 84.3 139.7 83.2
L 117.45 56.8
Q 117 56.25 116.5 56.25
L 94.3 57 Z"/>
</g>

<g id="Layer0_0_MEMBER_1_MEMBER_5_FILL">
<path fill="#A36E51" stroke="none" d="
M 139.7 85.3
Q 139.95 85.3 140.1 85.05 140.6 84.3 139.7 83.2
L 117.5 56.85 73.4 82.95 74.65 82.95 97.1 110.2 139.7 85.3 Z"/>
</g>

<g id="Layer0_0_MEMBER_1_MEMBER_6_MEMBER_0_FILL">
<path fill="#A36E51" stroke="none" d="
M 102.4 112.45
L 102.4 122.65 103.2 123.2 103.2 113.05 102.4 112.45 Z"/>
</g>

<g id="Layer0_0_MEMBER_1_MEMBER_6_MEMBER_1_FILL">
<path fill="#C19279" stroke="none" d="
M 103.2 113.05
L 109.45 109.45 108.65 108.85 102.4 112.45 103.2 113.05 Z"/>
</g>

<g id="Layer0_0_MEMBER_1_MEMBER_6_MEMBER_2_FILL">
<path fill="#7DB4C0" stroke="none" d="
M 103.2 113.05
L 103.2 123.2 109.45 119.6 109.45 109.45 103.2 113.05 Z"/>
</g>

<g id="Layer0_0_MEMBER_1_MEMBER_6_MEMBER_3_FILL">
<path fill="#654330" stroke="none" d="
M 109.45 109.45
L 103.2 113.05 103.2 123.2 109.45 119.6 109.45 109.45
M 104 121.85
L 104 113.5 108.65 110.8 108.65 119.15 104 121.85 Z"/>
</g>

<g id="Layer0_0_MEMBER_1_MEMBER_6_MEMBER_4_FILL">
<path fill="#654330" stroke="none" d="
M 103.2 117.7
L 103.2 118.55 109.45 114.95 109.45 114.1 103.2 117.7 Z"/>
</g>

<g id="Layer0_0_MEMBER_1_MEMBER_6_MEMBER_5_FILL">
<path fill="#654330" stroke="none" d="
M 105.95 121.65
L 106.7 121.2 106.7 111 105.95 111.45 105.95 121.65 Z"/>
</g>

<g id="Layer0_0_MEMBER_1_MEMBER_7_MEMBER_0_FILL">
<path fill="#A36E51" stroke="none" d="
M 113.45 106.9
L 113.45 117.05 114.25 117.65 114.25 107.45 113.45 106.9 Z"/>
</g>

<g id="Layer0_0_MEMBER_1_MEMBER_7_MEMBER_1_FILL">
<path fill="#C19279" stroke="none" d="
M 114.25 107.45
L 120.5 103.85 119.7 103.3 113.45 106.9 114.25 107.45 Z"/>
</g>

<g id="Layer0_0_MEMBER_1_MEMBER_7_MEMBER_2_FILL">
<path fill="#7DB4C0" stroke="none" d="
M 114.25 107.45
L 114.25 117.65 120.5 114.05 120.5 103.85 114.25 107.45 Z"/>
</g>

<g id="Layer0_0_MEMBER_1_MEMBER_7_MEMBER_3_FILL">
<path fill="#654330" stroke="none" d="
M 120.5 103.85
L 114.25 107.45 114.25 117.65 120.5 114.05 120.5 103.85
M 115.05 116.25
L 115.05 107.9 119.7 105.2 119.7 113.6 115.05 116.25 Z"/>
</g>

<g id="Layer0_0_MEMBER_1_MEMBER_7_MEMBER_4_FILL">
<path fill="#654330" stroke="none" d="
M 114.25 112.1
L 114.25 113 120.5 109.4 120.5 108.5 114.25 112.1 Z"/>
</g>

<g id="Layer0_0_MEMBER_1_MEMBER_7_MEMBER_5_FILL">
<path fill="#654330" stroke="none" d="
M 117 116.05
L 117.75 115.6 117.75 105.45 117 105.9 117 116.05 Z"/>
</g>

<g id="Layer0_0_MEMBER_1_MEMBER_8_MEMBER_0_FILL">
<path fill="#A36E51" stroke="none" d="
M 64.85 98.1
L 64.1 98.7 64.1 108.85 64.85 108.3 64.85 98.1 Z"/>
</g>

<g id="Layer0_0_MEMBER_1_MEMBER_8_MEMBER_1_FILL">
<path fill="#C19279" stroke="none" d="
M 55.25 93.6
L 64.1 98.7 64.85 98.1 56.05 93 55.25 93.6 Z"/>
</g>

<g id="Layer0_0_MEMBER_1_MEMBER_8_MEMBER_2_FILL">
<path fill="#654330" stroke="none" d="
M 64.1 98.7
L 55.25 93.6 55.25 103.75 64.1 108.85 64.1 98.7 Z"/>
</g>

<g id="Layer0_0_MEMBER_1_MEMBER_8_MEMBER_3_FILL">
<path fill="#7DB4C0" stroke="none" d="
M 63.2 107.35
L 63.2 99.2 56.1 95.1 56.1 103.3 63.2 107.35 Z"/>
</g>

<g id="Layer0_0_MEMBER_1_MEMBER_8_MEMBER_4_FILL">
<path fill="#654330" stroke="none" d="
M 60.15 96.4
L 59.2 95.85 59.2 106.05 60.15 106.6 60.15 96.4 Z"/>
</g>

<g id="Layer0_0_MEMBER_1_MEMBER_8_MEMBER_5_FILL">
<path fill="#654330" stroke="none" d="
M 55.25 99.2
L 64.1 104.3 64.1 103.25 55.25 98.15 55.25 99.2 Z"/>
</g>

<g id="Layer0_0_MEMBER_1_MEMBER_9_MEMBER_0_FILL">
<path fill="#A36E51" stroke="none" d="
M 90.85 122.65
L 90.85 112.45 90.05 113.05 90.05 123.2 90.85 122.65 Z"/>
</g>

<g id="Layer0_0_MEMBER_1_MEMBER_9_MEMBER_1_FILL">
<path fill="#C19279" stroke="none" d="
M 81.25 107.95
L 90.05 113.05 90.85 112.45 82.05 107.35 81.25 107.95 Z"/>
</g>

<g id="Layer0_0_MEMBER_1_MEMBER_9_MEMBER_2_FILL">
<path fill="#654330" stroke="none" d="
M 90.05 123.2
L 90.05 113.05 81.25 107.95 81.25 118.1 90.05 123.2 Z"/>
</g>

<g id="Layer0_0_MEMBER_1_MEMBER_9_MEMBER_3_FILL">
<path fill="#7DB4C0" stroke="none" d="
M 89.2 121.7
L 89.2 113.55 82.1 109.45 82.1 117.6 89.2 121.7 Z"/>
</g>

<g id="Layer0_0_MEMBER_1_MEMBER_9_MEMBER_4_FILL">
<path fill="#654330" stroke="none" d="
M 86.1 120.95
L 86.1 110.75 85.2 110.2 85.2 120.4 86.1 120.95 Z"/>
</g>

<g id="Layer0_0_MEMBER_1_MEMBER_9_MEMBER_5_FILL">
<path fill="#654330" stroke="none" d="
M 81.25 113.55
L 90.05 118.65 90.05 117.6 81.25 112.5 81.25 113.55 Z"/>
</g>

<g id="Layer0_0_MEMBER_1_MEMBER_10_FILL">
<path fill="#A36E51" stroke="none" d="
M 78.5 128.35
L 78.5 106 67.65 99.7 67.65 122.05 78.5 128.35 Z"/>
</g>

<g id="Layer0_0_MEMBER_1_MEMBER_11_FILL">
<path fill="#E6CAA4" stroke="none" d="
M 67.65 122.1
L 67.65 99.7 66.85 100.3 66.85 122.65 67.65 122.1 Z"/>
</g>

<g id="Layer0_0_MEMBER_1_MEMBER_12_FILL">
<path fill="#FFECC9" stroke="none" d="
M 78.5 128.35
L 78.5 105.7 67.65 99.7 66.85 100.3 77.7 106.55 77.7 128.95 78.5 128.35 Z"/>
</g>

<g id="Layer0_0_MEMBER_1_MEMBER_13_MEMBER_0_FILL">
<path fill="#654330" stroke="none" d="
M 51.7 84.65
L 52.2 84.8 73.95 84.05 95.7 109.9
Q 96.1 110.35 96.5 110.45 96.9 110.55 97.1 110.2 97.3 109.9 97.15 109.35 97 108.8 96.65 108.4
L 74.45 82
Q 73.9 81.4 73.5 81.45
L 51.25 82.15
Q 50.9 82.2 50.75 82.6 50.6 83 50.8 83.5 51.15 84.35 51.7 84.65 Z"/>
</g>

<g id="Layer0_0_MEMBER_1_MEMBER_14_MEMBER_0_FILL">
<path fill="#FFECC9" stroke="none" d="
M 110.4 76.2
L 114.65 81.45 114.65 71.45 110.4 69 110.4 76.2 Z"/>
</g>

<g id="Layer0_0_MEMBER_1_MEMBER_14_MEMBER_1_FILL">
<path fill="#E6CAA4" stroke="none" d="
M 110.4 70.5
L 110.4 71.7 112.75 73.05 112.75 71.85 110.4 70.5 Z"/>
</g>

<g id="Layer0_0_MEMBER_1_MEMBER_14_MEMBER_2_FILL">
<path fill="#E6CAA4" stroke="none" d="
M 114.65 76.4
L 114.65 75.25 112.55 74 112.55 75.2 114.65 76.4 Z"/>
</g>

<g id="Layer0_0_MEMBER_1_MEMBER_14_MEMBER_3_FILL">
<path fill="#E6CAA4" stroke="none" d="
M 111.45 75.75
L 111.45 74.6 110.4 73.95 110.4 75.15 111.45 75.75 Z"/>
</g>

<g id="Layer0_0_MEMBER_1_MEMBER_14_MEMBER_4_FILL">
<path fill="#E6CAA4" stroke="none" d="
M 118.95 79
L 118.95 69 114.65 71.45 114.65 81.5 118.95 79 Z"/>
</g>

<g id="Layer0_0_MEMBER_1_MEMBER_14_MEMBER_5_FILL">
<path fill="#BFA787" stroke="none" d="
M 114.65 74.35
L 114.65 75.55 116.4 74.55 116.4 73.35 114.65 74.35 Z"/>
</g>

<g id="Layer0_0_MEMBER_1_MEMBER_14_MEMBER_6_FILL">
<path fill="#BFA787" stroke="none" d="
M 118.95 75.55
L 118.95 74.35 116 76.05 116 77.25 118.95 75.55 Z"/>
</g>

<g id="Layer0_0_MEMBER_1_MEMBER_14_MEMBER_7_FILL">
<path fill="#BFA787" stroke="none" d="
M 118.95 78
L 118.95 76.8 117.8 77.5 117.8 78.65 118.95 78 Z"/>
</g>

<g id="Layer0_0_MEMBER_1_MEMBER_14_MEMBER_8_FILL">
<path fill="#FFF9EE" stroke="none" d="
M 114.65 71.45
L 118.95 69 114.65 66.5 110.4 69 114.65 71.45 Z"/>
</g>

<g id="Layer0_0_MEMBER_1_MEMBER_14_MEMBER_9_FILL">
<path fill="#E6CAA4" stroke="none" d="
M 114.65 70.55
L 117.4 69 114.65 67.4 111.95 69 114.65 70.55 Z"/>
</g>

<g id="Layer0_0_MEMBER_1_MEMBER_14_MEMBER_10_FILL">
<path fill="#FFECC9" stroke="none" d="
M 114.65 67.4
L 114.65 70.55 117.4 69 114.65 67.4 Z"/>
</g>
</defs>

<g transform="matrix( 7, 0, 0, 7, -156.3,-254.55) ">
<use xlink:href="#Layer0_0_MEMBER_0_MEMBER_0_FILL"/>
</g>

<g transform="matrix( 7, 0, 0, 7, -156.3,-254.55) ">
<use xlink:href="#Layer0_0_MEMBER_0_MEMBER_1_FILL"/>
</g>

<g transform="matrix( 7, 0, 0, 7, -156.3,-254.55) ">
<use xlink:href="#Layer0_0_MEMBER_0_MEMBER_2_FILL"/>
</g>

<g transform="matrix( 7, 0, 0, 7, -156.3,-254.55) ">
<use xlink:href="#Layer0_0_MEMBER_0_MEMBER_3_FILL"/>
</g>

<g transform="matrix( 7, 0, 0, 7, 491.9,781.1) ">
<use xlink:href="#Layer0_0_MEMBER_0_MEMBER_4_FILL"/>
</g>

<g transform="matrix( 7, 0, 0, 7, -156.3,-254.55) ">
<use xlink:href="#Layer0_0_MEMBER_0_MEMBER_5_FILL"/>
</g>

<g transform="matrix( 7, 0, 0, 7, -156.3,-254.55) ">
<use xlink:href="#Layer0_0_MEMBER_0_MEMBER_6_FILL"/>
</g>

<g transform="matrix( 7, 0, 0, 7, -156.3,-254.55) ">
<use xlink:href="#Layer0_0_MEMBER_0_MEMBER_7_FILL"/>
</g>

<g transform="matrix( 7, 0, 0, 7, -156.3,-254.55) ">
<use xlink:href="#Layer0_0_MEMBER_1_MEMBER_0_FILL"/>
</g>

<g transform="matrix( 7, 0, 0, 7, -156.3,-254.55) ">
<use xlink:href="#Layer0_0_MEMBER_1_MEMBER_1_FILL"/>
</g>

<g transform="matrix( 7, 0, 0, 7, -156.3,-254.55) ">
<use xlink:href="#Layer0_0_MEMBER_1_MEMBER_2_MEMBER_0_FILL"/>
</g>

<g transform="matrix( 7, 0, 0, 7, -156.3,-254.55) ">
<use xlink:href="#Layer0_0_MEMBER_1_MEMBER_2_MEMBER_1_FILL"/>
</g>

<g transform="matrix( 7, 0, 0, 7, -156.3,-254.55) ">
<use xlink:href="#Layer0_0_MEMBER_1_MEMBER_2_MEMBER_2_FILL"/>
</g>

<g transform="matrix( 7, 0, 0, 7, -156.3,-254.55) ">
<use xlink:href="#Layer0_0_MEMBER_1_MEMBER_2_MEMBER_3_FILL"/>
</g>

<g transform="matrix( 7, 0, 0, 7, -156.3,-254.55) ">
<use xlink:href="#Layer0_0_MEMBER_1_MEMBER_2_MEMBER_4_FILL"/>
</g>

<g transform="matrix( 7, 0, 0, 7, -156.3,-254.55) ">
<use xlink:href="#Layer0_0_MEMBER_1_MEMBER_3_FILL"/>
</g>

<g transform="matrix( 7, 0, 0, 7, -156.3,-254.55) ">
<use xlink:href="#Layer0_0_MEMBER_1_MEMBER_4_FILL"/>
</g>

<g transform="matrix( 7, 0, 0, 7, -156.3,-254.55) ">
<use xlink:href="#Layer0_0_MEMBER_1_MEMBER_5_FILL"/>
</g>

<g transform="matrix( 7, 0, 0, 7, -156.3,-254.55) ">
<use xlink:href="#Layer0_0_MEMBER_1_MEMBER_6_MEMBER_0_FILL"/>
</g>

<g transform="matrix( 7, 0, 0, 7, -156.3,-254.55) ">
<use xlink:href="#Layer0_0_MEMBER_1_MEMBER_6_MEMBER_1_FILL"/>
</g>

<g transform="matrix( 7, 0, 0, 7, -156.3,-254.55) ">
<use xlink:href="#Layer0_0_MEMBER_1_MEMBER_6_MEMBER_2_FILL"/>
</g>

<g transform="matrix( 7, 0, 0, 7, -156.3,-254.55) ">
<use xlink:href="#Layer0_0_MEMBER_1_MEMBER_6_MEMBER_3_FILL"/>
</g>

<g transform="matrix( 7, 0, 0, 7, -156.3,-254.55) ">
<use xlink:href="#Layer0_0_MEMBER_1_MEMBER_6_MEMBER_4_FILL"/>
</g>

<g transform="matrix( 7, 0, 0, 7, -156.3,-254.55) ">
<use xlink:href="#Layer0_0_MEMBER_1_MEMBER_6_MEMBER_5_FILL"/>
</g>

<g transform="matrix( 7, 0, 0, 7, -156.3,-254.55) ">
<use xlink:href="#Layer0_0_MEMBER_1_MEMBER_7_MEMBER_0_FILL"/>
</g>

<g transform="matrix( 7, 0, 0, 7, -156.3,-254.55) ">
<use xlink:href="#Layer0_0_MEMBER_1_MEMBER_7_MEMBER_1_FILL"/>
</g>

<g transform="matrix( 7, 0, 0, 7, -156.3,-254.55) ">
<use xlink:href="#Layer0_0_MEMBER_1_MEMBER_7_MEMBER_2_FILL"/>
</g>

<g transform="matrix( 7, 0, 0, 7, -156.3,-254.55) ">
<use xlink:href="#Layer0_0_MEMBER_1_MEMBER_7_MEMBER_3_FILL"/>
</g>

<g transform="matrix( 7, 0, 0, 7, -156.3,-254.55) ">
<use xlink:href="#Layer0_0_MEMBER_1_MEMBER_7_MEMBER_4_FILL"/>
</g>

<g transform="matrix( 7, 0, 0, 7, -156.3,-254.55) ">
<use xlink:href="#Layer0_0_MEMBER_1_MEMBER_7_MEMBER_5_FILL"/>
</g>

<g transform="matrix( 7, 0, 0, 7, -156.3,-254.55) ">
<use xlink:href="#Layer0_0_MEMBER_1_MEMBER_8_MEMBER_0_FILL"/>
</g>

<g transform="matrix( 7, 0, 0, 7, -156.3,-254.55) ">
<use xlink:href="#Layer0_0_MEMBER_1_MEMBER_8_MEMBER_1_FILL"/>
</g>

<g transform="matrix( 7, 0, 0, 7, -156.3,-254.55) ">
<use xlink:href="#Layer0_0_MEMBER_1_MEMBER_8_MEMBER_2_FILL"/>
</g>

<g transform="matrix( 7, 0, 0, 7, -156.3,-254.55) ">
<use xlink:href="#Layer0_0_MEMBER_1_MEMBER_8_MEMBER_3_FILL"/>
</g>

<g transform="matrix( 7, 0, 0, 7, -156.3,-254.55) ">
<use xlink:href="#Layer0_0_MEMBER_1_MEMBER_8_MEMBER_4_FILL"/>
</g>

<g transform="matrix( 7, 0, 0, 7, -156.3,-254.55) ">
<use xlink:href="#Layer0_0_MEMBER_1_MEMBER_8_MEMBER_5_FILL"/>
</g>

<g transform="matrix( 7, 0, 0, 7, -156.3,-254.55) ">
<use xlink:href="#Layer0_0_MEMBER_1_MEMBER_9_MEMBER_0_FILL"/>
</g>

<g transform="matrix( 7, 0, 0, 7, -156.3,-254.55) ">
<use xlink:href="#Layer0_0_MEMBER_1_MEMBER_9_MEMBER_1_FILL"/>
</g>

<g transform="matrix( 7, 0, 0, 7, -156.3,-254.55) ">
<use xlink:href="#Layer0_0_MEMBER_1_MEMBER_9_MEMBER_2_FILL"/>
</g>

<g transform="matrix( 7, 0, 0, 7, -156.3,-254.55) ">
<use xlink:href="#Layer0_0_MEMBER_1_MEMBER_9_MEMBER_3_FILL"/>
</g>

<g transform="matrix( 7, 0, 0, 7, -156.3,-254.55) ">
<use xlink:href="#Layer0_0_MEMBER_1_MEMBER_9_MEMBER_4_FILL"/>
</g>

<g transform="matrix( 7, 0, 0, 7, -156.3,-254.55) ">
<use xlink:href="#Layer0_0_MEMBER_1_MEMBER_9_MEMBER_5_FILL"/>
</g>

<g transform="matrix( 7, 0, 0, 7, -156.3,-254.55) ">
<use xlink:href="#Layer0_0_MEMBER_1_MEMBER_10_FILL"/>
</g>

<g transform="matrix( 7, 0, 0, 7, -156.3,-254.55) ">
<use xlink:href="#Layer0_0_MEMBER_1_MEMBER_11_FILL"/>
</g>

<g transform="matrix( 7, 0, 0, 7, -156.3,-254.55) ">
<use xlink:href="#Layer0_0_MEMBER_1_MEMBER_12_FILL"/>
</g>

<g transform="matrix( 7, 0, 0, 7, -156.3,-254.55) ">
<use xlink:href="#Layer0_0_MEMBER_1_MEMBER_13_MEMBER_0_FILL"/>
</g>

<g transform="matrix( 7, 0, 0, 7, -156.3,-254.55) ">
<use xlink:href="#Layer0_0_MEMBER_1_MEMBER_14_MEMBER_0_FILL"/>
</g>

<g transform="matrix( 7, 0, 0, 7, -156.3,-254.55) ">
<use xlink:href="#Layer0_0_MEMBER_1_MEMBER_14_MEMBER_1_FILL"/>
</g>

<g transform="matrix( 7, 0, 0, 7, -156.3,-254.55) ">
<use xlink:href="#Layer0_0_MEMBER_1_MEMBER_14_MEMBER_2_FILL"/>
</g>

<g transform="matrix( 7, 0, 0, 7, -156.3,-254.55) ">
<use xlink:href="#Layer0_0_MEMBER_1_MEMBER_14_MEMBER_3_FILL"/>
</g>

<g transform="matrix( 7, 0, 0, 7, -156.3,-254.55) ">
<use xlink:href="#Layer0_0_MEMBER_1_MEMBER_14_MEMBER_4_FILL"/>
</g>

<g transform="matrix( 7, 0, 0, 7, -156.3,-254.55) ">
<use xlink:href="#Layer0_0_MEMBER_1_MEMBER_14_MEMBER_5_FILL"/>
</g>

<g transform="matrix( 7, 0, 0, 7, -156.3,-254.55) ">
<use xlink:href="#Layer0_0_MEMBER_1_MEMBER_14_MEMBER_6_FILL"/>
</g>

<g transform="matrix( 7, 0, 0, 7, -156.3,-254.55) ">
<use xlink:href="#Layer0_0_MEMBER_1_MEMBER_14_MEMBER_7_FILL"/>
</g>

<g transform="matrix( 7, 0, 0, 7, -156.3,-254.55) ">
<use xlink:href="#Layer0_0_MEMBER_1_MEMBER_14_MEMBER_8_FILL"/>
</g>

<g transform="matrix( 7, 0, 0, 7, -156.3,-254.55) ">
<use xlink:href="#Layer0_0_MEMBER_1_MEMBER_14_MEMBER_9_FILL"/>
</g>

<g transform="matrix( 7, 0, 0, 7, -156.3,-254.55) ">
<use xlink:href="#Layer0_0_MEMBER_1_MEMBER_14_MEMBER_10_FILL"/>
</g>
</svg>
