<?xml version="1.0" encoding="utf-8"?>
<!-- Generator: Adobe Illustrator 22.0.0, SVG Export Plug-In . SVG Version: 6.00 Build 0)  -->
<svg version="1.1" id="图层_1" xmlns="http://www.w3.org/2000/svg" xmlns:xlink="http://www.w3.org/1999/xlink" x="0px" y="0px"
	 viewBox="0 0 297.6 297.6" style="enable-background:new 0 0 297.6 297.6;" xml:space="preserve">
<style type="text/css">
	.st0{fill:#FFFFFF;}
	.st1{fill:#DCE1E4;}
	.st2{fill:#E6EAEA;}
	.st3{fill:#7B787A;}
	.st4{fill:#FEFDFE;}
	.st5{fill:#FBEEE0;}
	.st6{fill:#553328;}
	.st7{fill:#AE4F32;}
	.st8{fill:#1E5142;}
	.st9{fill:#4E9236;}
	.st10{fill:#61A74E;}
	.st11{fill:#C7E1A8;}
	.st12{fill:#88B265;}
	.st13{fill:#74726E;}
	.st14{fill:#D4DAD4;}
	.st15{opacity:0.22;}
	.st16{fill:#9B9B9B;}
	.st17{fill:#ECC042;}
	.st18{fill:#FCF0D2;}
	.st19{fill:#4D7B3A;}
	.st20{fill:none;stroke:#FFFFFE;stroke-width:2;stroke-miterlimit:10;}
	.st21{fill:#F6F7F5;}
	.st22{fill:#F1B35F;}
	.st23{fill:#F0C35D;}
	.st24{fill:#FBE6BE;}
	.st25{fill:#30180F;}
	.st26{fill:#658F55;}
	.st27{fill:#6C995B;}
	.st28{fill:#AE5132;}
	.st29{fill:#F7F7F7;}
	.st30{fill:#7A492D;}
	.st31{opacity:0.33;fill:#F7F7F7;}
	.st32{fill:#E1B769;}
	.st33{fill:#D2A347;}
	.st34{fill:#EAEAEA;}
	.st35{fill:#559862;}
	.st36{fill:#447E4F;}
	.st37{opacity:0.11;fill:#323D44;}
	.st38{fill:#ECB129;}
	.st39{fill:#E38C22;}
	.st40{fill:#D67010;}
	.st41{fill:#855676;}
	.st42{fill:#AE6995;}
	.st43{fill:#989786;}
	.st44{fill:#6A1217;}
	.st45{fill:#C32623;}
	.st46{fill:#D83633;}
	.st47{fill:#D49559;}
	.st48{fill:#B42328;}
	.st49{opacity:0.46;fill:#7E1C1E;}
	.st50{fill:#A88564;}
	.st51{fill:#8E5C27;}
	.st52{fill:#896443;}
	.st53{opacity:0.26;fill:#D8A69F;}
	.st54{fill:#E89E2A;}
	.st55{fill:#E3981A;}
	.st56{fill:#745123;}
	.st57{opacity:0.35;fill:#F2F2F2;}
	.st58{fill:#976D26;}
	.st59{opacity:0.4;fill:#D4C8AD;}
	.st60{fill:#F8EED2;}
	.st61{fill:#421D0B;}
	.st62{opacity:0.35;fill:#421D0B;}
	.st63{fill:#C94C32;}
	.st64{fill:#C95B48;}
	.st65{fill:#A09B68;}
	.st66{fill:#8F895C;}
	.st67{fill:#BA8A67;}
	.st68{fill:#E3D4B0;}
	.st69{fill:#F8E9DC;}
	.st70{fill:#BF7265;}
	.st71{fill:#8F4B43;}
	.st72{fill:#59662E;}
	.st73{fill:#878253;}
	.st74{fill:#F6B7B1;}
	.st75{fill:#D66962;}
	.st76{fill:#844F23;}
	.st77{fill:#5A3C26;}
	.st78{fill:#704520;}
	.st79{fill:#936534;}
	.st80{opacity:0.69;}
	.st81{opacity:0.13;}
	.st82{fill:#F2F2F2;}
	.st83{opacity:0.49;}
	.st84{fill:#519D4C;}
	.st85{opacity:0.18;fill:#C32623;}
	.st86{fill:#101010;}
	.st87{fill:#E6DC41;}
	.st88{fill:#D4C536;}
	.st89{fill:#A69325;}
	.st90{fill:#EDE8E7;}
</style>
<rect x="0" class="st0" width="297.6" height="297.6"/>
<circle class="st1" cx="155" cy="159.4" r="105.6"/>
<circle class="st2" cx="147.5" cy="154.7" r="96.2"/>
<g>
	<circle class="st0" cx="149.4" cy="152" r="103.6"/>
</g>
<g class="st83">
	<circle class="st14" cx="147.6" cy="152.8" r="84.1"/>
</g>
<g>
	<path class="st35" d="M182.7,104.3c1.2,7.2,1.6,13.2,0.8,13.4c-0.8,0.1-2.4-5.6-3.6-12.9s-2-12.5-0.8-13.4
		C180.6,90.4,181.5,97,182.7,104.3z"/>
	<path class="st35" d="M181.4,96.4c0,0-8.7,18.5-26.3,11.2C160.9,90.3,175.9,94.2,181.4,96.4z"/>
	<path class="st35" d="M179.7,94.2c0,0,20.3-2.4,23.4,16.5C185.4,114.8,180.8,100,179.7,94.2z"/>
	<path class="st36" d="M155.2,107.5c16.8,6.8,25.4-9.9,26-11.1L155.2,107.5z"/>
	<path class="st36" d="M203,110.5c-3-17.8-21.8-16.5-23.1-16.3L203,110.5z"/>
	<g>
		<path class="st87" d="M214.8,154.6c0-21.5-11.9-39.5-27.8-43.6c-0.6-4.2-3.5-2.4-7-2.4c-3.5,0-6.3-1.7-7,2.4
			c-15.9,4.1-27.8,22.1-27.8,43.6c0,22.2,12.7,40.6,29.4,44c1,3.3,3.6,5.7,6.6,5.7c3.2,0,5.9-2.7,6.8-6.4
			C203.4,193.3,214.8,175.7,214.8,154.6z"/>
	</g>
	<g>
		<path class="st88" d="M214.8,154.6c0-21.5-11.9-39.5-27.8-43.6c-0.6-4.2-3.5-2.4-7-2.4c-3.5,0-6.3-1.7-7,2.4
			c-15.9,4.1-27.8,22.1-27.8,43.6c0,22.2,12.7,40.6,29.4,44c1,3.3,3.6,5.7,6.6,5.7c3.2,0,5.9-2.7,6.8-6.4
			C203.4,193.3,214.8,175.7,214.8,154.6z"/>
	</g>
	<g class="st15">
		<g>
			<g>
				<path class="st89" d="M207.2,154.9c0,17.6-6.7,33.2-17,42.9c14.3-5.5,24.7-22.5,24.7-42.6c0-19.6-9.9-36.2-23.6-42.1
					C201,122.8,207.2,137.9,207.2,154.9z"/>
			</g>
		</g>
	</g>
	<circle class="st88" cx="122.9" cy="168.7" r="37.7"/>
	<circle class="st90" cx="122.9" cy="168.7" r="34.3"/>
	<g>
		<g>
			<g>
				<path class="st88" d="M95.9,150.4c-2.6,3.8-4.4,8.1-5.2,12.8c-0.5,2.8,1.7,5.3,4.5,5.3h5.2c2.1,0,12.5,2.5,13,0.4
					c0.5-2,2.9-4.2,2.2-6.1c-0.7-2-7.4-7.7-9-9.2l-3.8-3.8C100.9,147.7,97.5,148.1,95.9,150.4z"/>
				<path class="st88" d="M141.3,141.9c-3.8-2.6-8.3-4.5-13.1-5.3c-2.8-0.5-5.2,1.7-5.2,4.5v5.4c0,2.2,0.3,10.8,1.2,11.3
					c1.9,1.1,4.1,1.2,5.9,2.3c1.8,1.1,6.7-5.9,8.2-7.4l3.7-3.7C144,146.9,143.7,143.5,141.3,141.9z"/>
				<path class="st88" d="M116.7,136.7c-4.7,0.9-9,2.8-12.7,5.4c-2.3,1.6-2.6,5-0.6,7l3.8,3.8c1.5,1.5,7.7,9.5,9.5,8.4
					c1.7-1.1,3.7-1.6,5.4-2.8c1.2-0.9-0.1-9.7-0.1-11.8v-5.4C122.2,138.3,119.5,136.2,116.7,136.7z"/>
				<path class="st88" d="M90.8,174.7c0.8,4.6,2.6,8.9,5.2,12.6c1.6,2.4,5,2.7,7,0.6l3.4-3.4c1.5-1.5,9.9-6.7,8.8-8.6
					c-1.1-1.8-0.1-4-2-5c-2.8-1.5-10.7-1.7-12.9-1.7h-5C92.4,169.3,90.2,171.9,90.8,174.7z"/>
				<path class="st88" d="M139.3,185l3.2,3.2c2,2,5.3,1.7,7-0.6c2.7-3.8,4.6-8.3,5.5-13.1c0.5-2.8-1.7-5.3-4.5-5.3h-4.7
					c-2.2,0-10.4-0.9-10.8,1.2c-0.5,2.3-2.3,4.1-2.6,6.4C132.2,178,137.8,183.5,139.3,185z"/>
				<path class="st88" d="M145.6,168.5h4.9c2.8,0,5-2.5,4.5-5.3c-0.8-4.8-2.7-9.3-5.4-13.1c-1.6-2.3-5-2.6-7-0.6L139,153
					c-1.6,1.6-8.5,6.7-7.2,8.6c1.2,1.8,2.1,3.9,2.7,6.1C134.9,169.7,143.5,168.5,145.6,168.5z"/>
				<path class="st88" d="M106.7,185.3l-3.2,3.2c-2,2-1.7,5.3,0.6,7c3.7,2.6,8,4.5,12.6,5.3c2.8,0.5,5.5-1.6,5.5-4.5v-4.5
					c0-2.1,1.6-11.2-0.4-11.7c-2.2-0.5-5.2-2.4-6.3-2.1C113.2,178.6,108.3,183.7,106.7,185.3z"/>
				<path class="st88" d="M128.2,201c4.8-0.8,9.2-2.6,13-5.2c2.4-1.6,2.7-5,0.7-7l-3.1-3.1c-1.5-1.5-6.6-8.6-8.5-7.4
					c-1.9,1.2-3.4,1.7-5.7,2.2c-2.1,0.4-1.6,9.5-1.6,11.7v4.4C123,199.3,125.5,201.4,128.2,201z"/>
			</g>
			
				<ellipse transform="matrix(0.2165 -0.9763 0.9763 0.2165 -43.9107 239.5301)" class="st88" cx="127.3" cy="147.1" rx="3" ry="0.9"/>
			
				<ellipse transform="matrix(0.3106 -0.9506 0.9506 0.3106 -50.4344 225.9236)" class="st88" cx="130.5" cy="147.7" rx="3" ry="0.9"/>
			
				<ellipse transform="matrix(0.6276 -0.7786 0.7786 0.6276 -66.2792 159.5372)" class="st88" cx="133.6" cy="149" rx="3" ry="0.9"/>
			<ellipse transform="matrix(0.8436 -0.537 0.537 0.8436 -64.6441 84.2009)" class="st88" cx="112.2" cy="153.1" rx="0.9" ry="3"/>
			
				<ellipse transform="matrix(0.8919 -0.4522 0.4522 0.8919 -55.9523 68.3302)" class="st88" cx="114.9" cy="151.2" rx="0.9" ry="3"/>
			
				<ellipse transform="matrix(0.9943 -0.1065 0.1065 0.9943 -15.2922 13.4203)" class="st88" cx="118.1" cy="149.9" rx="0.9" ry="3"/>
		</g>
	</g>
</g>
</svg>
