
<svg xmlns="http://www.w3.org/2000/svg" version="1.1" xmlns:xlink="http://www.w3.org/1999/xlink" preserveAspectRatio="none" x="0px" y="0px" width="1024px" height="1024px" viewBox="0 0 1024 1024">
<defs>
<g id="Layer0_0_MEMBER_0_MEMBER_0_FILL">
<path fill="#79A139" stroke="none" d="
M 341.9 253.8
L 341.9 245.8 250 192.75 158.05 245.8 158.05 253.8 249.95 306.9 341.9 253.8 Z"/>
</g>

<g id="Layer0_0_MEMBER_0_MEMBER_1_FILL">
<path fill="#719634" stroke="none" d="
M 341.9 253.8
L 341.9 245.8 249.95 298.9 249.95 306.9 341.9 253.8 Z"/>
</g>

<g id="Layer0_0_MEMBER_0_MEMBER_2_FILL">
<path fill="#9CC459" stroke="none" d="
M 250 192.75
L 158.05 245.8 249.95 298.9 341.9 245.8 250 192.75 Z"/>
</g>

<g id="Layer0_0_MEMBER_0_MEMBER_3_FILL">
<path fill="#B7E76A" stroke="none" d="
M 250 199.55
L 169.9 245.8 249.95 292.05 330.05 245.8 250 199.55 Z"/>
</g>

<g id="Layer0_0_MEMBER_0_MEMBER_4_FILL">
<path fill="#9CC459" stroke="none" d="
M 235.65 265
L 221.45 256.8 199.25 269.6 213.45 277.8 235.65 265 Z"/>
</g>

<g id="Layer0_0_MEMBER_0_MEMBER_5_FILL">
<path fill="#000000" fill-opacity="0.14901960784313725" stroke="none" d="
M 64.35 9.25
L 48.35 0 0 27.95 16 37.15 64.35 9.25 Z"/>
</g>

<g id="Layer0_0_MEMBER_0_MEMBER_6_MEMBER_0_MEMBER_0_FILL">
<path fill="#BCA580" stroke="none" d="
M 286.5 204.7
L 286.5 221.6 287.3 221.1 287.3 204.25 286.5 204.7 Z"/>
</g>

<g id="Layer0_0_MEMBER_0_MEMBER_6_MEMBER_0_MEMBER_1_FILL">
<path fill="#DAC5A3" stroke="none" d="
M 287.3 204.25
L 286.05 201.9 285.2 202.4 286.5 204.7 287.3 204.25 Z"/>
</g>

<g id="Layer0_0_MEMBER_0_MEMBER_6_MEMBER_0_MEMBER_2_FILL">
<path fill="#F0DFC3" stroke="none" d="
M 286.5 204.7
L 285.2 202.4 284.25 203.4 284.25 220.3 286.5 221.6 286.5 204.7 Z"/>
</g>

<g id="Layer0_0_MEMBER_0_MEMBER_6_MEMBER_1_MEMBER_0_FILL">
<path fill="#BCA580" stroke="none" d="
M 290.35 206.95
L 290.35 223.85 291.2 223.35 291.2 206.45 290.35 206.95 Z"/>
</g>

<g id="Layer0_0_MEMBER_0_MEMBER_6_MEMBER_1_MEMBER_1_FILL">
<path fill="#DAC5A3" stroke="none" d="
M 291.2 206.45
L 289.9 204.15 289.1 204.65 290.35 206.95 291.2 206.45 Z"/>
</g>

<g id="Layer0_0_MEMBER_0_MEMBER_6_MEMBER_1_MEMBER_2_FILL">
<path fill="#F0DFC3" stroke="none" d="
M 290.35 206.95
L 289.1 204.65 288.15 205.65 288.15 222.55 290.35 223.85 290.35 206.95 Z"/>
</g>

<g id="Layer0_0_MEMBER_0_MEMBER_6_MEMBER_2_MEMBER_0_FILL">
<path fill="#BCA580" stroke="none" d="
M 294.25 209.2
L 294.25 226.1 295.05 225.6 295.05 208.7 294.25 209.2 Z"/>
</g>

<g id="Layer0_0_MEMBER_0_MEMBER_6_MEMBER_2_MEMBER_1_FILL">
<path fill="#DAC5A3" stroke="none" d="
M 295.05 208.7
L 293.8 206.4 293 206.85 294.25 209.2 295.05 208.7 Z"/>
</g>

<g id="Layer0_0_MEMBER_0_MEMBER_6_MEMBER_2_MEMBER_2_FILL">
<path fill="#F0DFC3" stroke="none" d="
M 294.25 209.2
L 293 206.85 292.05 207.9 292.05 224.8 294.25 226.1 294.25 209.2 Z"/>
</g>

<g id="Layer0_0_MEMBER_0_MEMBER_6_MEMBER_3_MEMBER_0_FILL">
<path fill="#BCA580" stroke="none" d="
M 298.15 211.45
L 298.15 228.3 298.95 227.85 298.95 210.95 298.15 211.45 Z"/>
</g>

<g id="Layer0_0_MEMBER_0_MEMBER_6_MEMBER_3_MEMBER_1_FILL">
<path fill="#DAC5A3" stroke="none" d="
M 298.95 210.95
L 297.7 208.65 296.85 209.1 298.15 211.45 298.95 210.95 Z"/>
</g>

<g id="Layer0_0_MEMBER_0_MEMBER_6_MEMBER_3_MEMBER_2_FILL">
<path fill="#F0DFC3" stroke="none" d="
M 298.15 211.45
L 296.85 209.1 295.95 210.15 295.95 227.05 298.15 228.3 298.15 211.45 Z"/>
</g>

<g id="Layer0_0_MEMBER_0_MEMBER_6_MEMBER_4_MEMBER_0_FILL">
<path fill="#BCA580" stroke="none" d="
M 302.05 213.65
L 302.05 230.55 302.85 230.1 302.85 213.2 302.05 213.65 Z"/>
</g>

<g id="Layer0_0_MEMBER_0_MEMBER_6_MEMBER_4_MEMBER_1_FILL">
<path fill="#DAC5A3" stroke="none" d="
M 302.85 213.2
L 301.55 210.9 300.75 211.35 302.05 213.65 302.85 213.2 Z"/>
</g>

<g id="Layer0_0_MEMBER_0_MEMBER_6_MEMBER_4_MEMBER_2_FILL">
<path fill="#F0DFC3" stroke="none" d="
M 302.05 213.65
L 300.75 211.35 299.8 212.4 299.8 229.3 302.05 230.55 302.05 213.65 Z"/>
</g>

<g id="Layer0_0_MEMBER_0_MEMBER_6_MEMBER_5_MEMBER_0_FILL">
<path fill="#BCA580" stroke="none" d="
M 305.9 215.9
L 305.9 232.8 306.75 232.35 306.75 215.45 305.9 215.9 Z"/>
</g>

<g id="Layer0_0_MEMBER_0_MEMBER_6_MEMBER_5_MEMBER_1_FILL">
<path fill="#DAC5A3" stroke="none" d="
M 306.75 215.45
L 305.45 213.15 304.65 213.6 305.9 215.9 306.75 215.45 Z"/>
</g>

<g id="Layer0_0_MEMBER_0_MEMBER_6_MEMBER_5_MEMBER_2_FILL">
<path fill="#F0DFC3" stroke="none" d="
M 305.9 215.9
L 304.65 213.6 303.7 214.65 303.7 231.55 305.9 232.8 305.9 215.9 Z"/>
</g>

<g id="Layer0_0_MEMBER_0_MEMBER_6_MEMBER_6_MEMBER_0_FILL">
<path fill="#BCA580" stroke="none" d="
M 309.8 218.15
L 309.8 235.05 310.6 234.6 310.6 217.7 309.8 218.15 Z"/>
</g>

<g id="Layer0_0_MEMBER_0_MEMBER_6_MEMBER_6_MEMBER_1_FILL">
<path fill="#DAC5A3" stroke="none" d="
M 310.6 217.7
L 309.35 215.4 308.55 215.85 309.8 218.15 310.6 217.7 Z"/>
</g>

<g id="Layer0_0_MEMBER_0_MEMBER_6_MEMBER_6_MEMBER_2_FILL">
<path fill="#F0DFC3" stroke="none" d="
M 309.8 218.15
L 308.55 215.85 307.6 216.9 307.6 233.8 309.8 235.05 309.8 218.15 Z"/>
</g>

<g id="Layer0_0_MEMBER_0_MEMBER_6_MEMBER_7_MEMBER_0_FILL">
<path fill="#BCA580" stroke="none" d="
M 313.7 220.4
L 313.7 237.3 314.5 236.85 314.5 219.95 313.7 220.4 Z"/>
</g>

<g id="Layer0_0_MEMBER_0_MEMBER_6_MEMBER_7_MEMBER_1_FILL">
<path fill="#DAC5A3" stroke="none" d="
M 314.5 219.95
L 313.25 217.65 312.4 218.1 313.7 220.4 314.5 219.95 Z"/>
</g>

<g id="Layer0_0_MEMBER_0_MEMBER_6_MEMBER_7_MEMBER_2_FILL">
<path fill="#F0DFC3" stroke="none" d="
M 313.7 220.4
L 312.4 218.1 311.5 219.15 311.5 236.05 313.7 237.3 313.7 220.4 Z"/>
</g>

<g id="Layer0_0_MEMBER_0_MEMBER_6_MEMBER_8_MEMBER_0_FILL">
<path fill="#BCA580" stroke="none" d="
M 317.6 222.65
L 317.6 239.55 318.4 239.1 318.4 222.2 317.6 222.65 Z"/>
</g>

<g id="Layer0_0_MEMBER_0_MEMBER_6_MEMBER_8_MEMBER_1_FILL">
<path fill="#DAC5A3" stroke="none" d="
M 318.4 222.2
L 317.1 219.85 316.3 220.35 317.6 222.65 318.4 222.2 Z"/>
</g>

<g id="Layer0_0_MEMBER_0_MEMBER_6_MEMBER_8_MEMBER_2_FILL">
<path fill="#F0DFC3" stroke="none" d="
M 317.6 222.65
L 316.3 220.35 315.35 221.4 315.35 238.25 317.6 239.55 317.6 222.65 Z"/>
</g>

<g id="Layer0_0_MEMBER_0_MEMBER_6_MEMBER_9_MEMBER_0_FILL">
<path fill="#BCA580" stroke="none" d="
M 321.45 224.9
L 321.45 241.8 322.3 241.3 322.3 224.45 321.45 224.9 Z"/>
</g>

<g id="Layer0_0_MEMBER_0_MEMBER_6_MEMBER_9_MEMBER_1_FILL">
<path fill="#DAC5A3" stroke="none" d="
M 322.3 224.45
L 321 222.1 320.2 222.6 321.45 224.9 322.3 224.45 Z"/>
</g>

<g id="Layer0_0_MEMBER_0_MEMBER_6_MEMBER_9_MEMBER_2_FILL">
<path fill="#F0DFC3" stroke="none" d="
M 321.45 224.9
L 320.2 222.6 319.25 223.6 319.25 240.5 321.45 241.8 321.45 224.9 Z"/>
</g>

<g id="Layer0_0_MEMBER_0_MEMBER_6_MEMBER_10_MEMBER_0_FILL">
<path fill="#BCA580" stroke="none" d="
M 325.35 227.15
L 325.35 244.05 326.15 243.55 326.15 226.7 325.35 227.15 Z"/>
</g>

<g id="Layer0_0_MEMBER_0_MEMBER_6_MEMBER_10_MEMBER_1_FILL">
<path fill="#DAC5A3" stroke="none" d="
M 326.15 226.7
L 324.9 224.35 324.1 224.85 325.35 227.15 326.15 226.7 Z"/>
</g>

<g id="Layer0_0_MEMBER_0_MEMBER_6_MEMBER_10_MEMBER_2_FILL">
<path fill="#F0DFC3" stroke="none" d="
M 325.35 227.15
L 324.1 224.85 323.15 225.85 323.15 242.75 325.35 244.05 325.35 227.15 Z"/>
</g>

<g id="Layer0_0_MEMBER_0_MEMBER_6_MEMBER_11_MEMBER_0_FILL">
<path fill="#BCA580" stroke="none" d="
M 329.25 229.4
L 329.25 246.3 330.05 245.8 330.05 228.9 329.25 229.4 Z"/>
</g>

<g id="Layer0_0_MEMBER_0_MEMBER_6_MEMBER_11_MEMBER_1_FILL">
<path fill="#DAC5A3" stroke="none" d="
M 330.05 228.9
L 328.8 226.6 327.95 227.1 329.25 229.4 330.05 228.9 Z"/>
</g>

<g id="Layer0_0_MEMBER_0_MEMBER_6_MEMBER_11_MEMBER_2_FILL">
<path fill="#F0DFC3" stroke="none" d="
M 329.25 229.4
L 327.95 227.1 327.05 228.1 327.05 245 329.25 246.3 329.25 229.4 Z"/>
</g>

<g id="Layer0_0_MEMBER_0_MEMBER_7_MEMBER_0_FILL">
<path fill="#F0DFC3" stroke="none" d="
M 256.2 276.85
L 256.2 244.15 228.55 200.35 200.85 212.2 200.85 244.9 256.2 276.85 Z"/>
</g>

<g id="Layer0_0_MEMBER_0_MEMBER_7_MEMBER_1_FILL">
<path fill="#DAC5A3" stroke="none" d="
M 304.55 248.9
L 304.55 216.2 256.2 244.1 256.2 276.85 304.55 248.9 Z"/>
</g>

<g id="Layer0_0_MEMBER_0_MEMBER_7_MEMBER_2_FILL">
<path fill="#A97C62" stroke="none" d="
M 247.7 182.35
Q 247.3 182.35 247.15 182.65
L 199.3 210.25 228.55 200.35 258.3 246.35 306.1 218.7
Q 306.45 218.7 306.65 218.4 306.9 218 306.75 217.3 306.6 216.6 306.1 216.05
L 277.5 171.15
Q 276.9 170.45 276.3 170.45
L 247.7 182.35 Z"/>
</g>

<g id="Layer0_0_MEMBER_0_MEMBER_7_MEMBER_3_FILL">
<path fill="#976B51" stroke="none" d="
M 306.75 217.3
Q 306.6 216.6 306.1 216.05
L 277.95 171.85 229.15 199.1 228.8 200.75 258.3 246.35 306.1 218.7
Q 306.45 218.7 306.65 218.4 306.9 218 306.75 217.3 Z"/>
</g>

<g id="Layer0_0_MEMBER_0_MEMBER_7_MEMBER_4_MEMBER_0_MEMBER_0_FILL">
<path fill="#F0DFC3" stroke="none" d="
M 250 212.65
L 255.2 220.85 255.2 210.65 250 207.6 250 212.65 Z"/>
</g>

<g id="Layer0_0_MEMBER_0_MEMBER_7_MEMBER_4_MEMBER_0_MEMBER_1_FILL">
<path fill="#DAC5A3" stroke="none" d="
M 260.45 217.85
L 260.45 207.6 255.2 210.65 255.2 220.85 260.45 217.85 Z"/>
</g>

<g id="Layer0_0_MEMBER_0_MEMBER_7_MEMBER_4_MEMBER_1_MEMBER_0_FILL">
<path fill="#DAC5A3" stroke="none" d="
M 255.2 212.05
L 255.2 208.7 248.7 204.95 248.7 208.25 255.2 212.05 Z"/>
</g>

<g id="Layer0_0_MEMBER_0_MEMBER_7_MEMBER_4_MEMBER_1_MEMBER_1_FILL">
<path fill="#C5AB85" stroke="none" d="
M 261.75 208.25
L 261.75 204.95 255.2 208.7 255.2 212.05 261.75 208.25 Z"/>
</g>

<g id="Layer0_0_MEMBER_0_MEMBER_7_MEMBER_4_MEMBER_1_MEMBER_2_FILL">
<path fill="#F0DFC3" stroke="none" d="
M 255.2 208.7
L 261.75 204.95 255.2 201.2 248.7 204.95 255.2 208.7 Z"/>
</g>

<g id="Layer0_0_MEMBER_0_MEMBER_7_MEMBER_4_MEMBER_1_MEMBER_3_FILL">
<path fill="#C5AB85" stroke="none" d="
M 255.2 207.35
L 259.35 204.95 255.2 202.55 251.1 204.95 255.2 207.35 Z"/>
</g>

<g id="Layer0_0_MEMBER_0_MEMBER_7_MEMBER_4_MEMBER_1_MEMBER_4_FILL">
<path fill="#DAC5A3" stroke="none" d="
M 255.2 202.55
L 255.2 207.35 259.35 204.95 255.2 202.55 Z"/>
</g>

<g id="Layer0_0_MEMBER_0_MEMBER_7_MEMBER_5_MEMBER_0_FILL">
<path fill="#714E3B" stroke="none" d="
M 256.5 245.95
Q 256.75 246.25 257.15 246.5 257.9 246.9 258.3 246.35 258.55 245.95 258.4 245.25 258.25 244.55 257.75 244
L 229.15 199.1
Q 228.45 198.35 227.9 198.4
L 199.3 210.25
Q 198.85 210.3 198.7 210.8 198.55 211.3 198.8 212 199.05 212.7 199.55 213.15 200.05 213.65 200.55 213.65
L 228.55 201.8 256.5 245.95 Z"/>
</g>

<g id="Layer0_0_MEMBER_0_MEMBER_7_MEMBER_6_MEMBER_0_FILL">
<path fill="#C5AB85" stroke="none" d="
M 235.65 231.65
L 221.45 223.45 221.45 256.8 235.65 265 235.65 231.65 Z"/>
</g>

<g id="Layer0_0_MEMBER_0_MEMBER_7_MEMBER_6_MEMBER_1_MEMBER_0_FILL">
<path fill="#C5AB85" stroke="none" d="
M 221.45 223.45
L 221.45 239.85 235.6 248.05 235.6 231.65 221.45 223.45 Z"/>
</g>

<g id="Layer0_0_MEMBER_0_MEMBER_7_MEMBER_6_MEMBER_1_MEMBER_1_FILL">
<path fill="#68B5DC" stroke="none" d="
M 222.8 225.85
L 222.8 239.05 234.25 245.65 234.25 232.45 222.8 225.85 Z"/>
</g>

<g id="Layer0_0_MEMBER_0_MEMBER_7_MEMBER_6_MEMBER_1_MEMBER_2_FILL">
<path fill="#C5AB85" stroke="none" d="
M 227.8 227.15
L 227.8 243.5 229.25 244.35 229.25 228 227.8 227.15 Z"/>
</g>

<g id="Layer0_0_MEMBER_0_MEMBER_7_MEMBER_6_MEMBER_1_MEMBER_3_FILL">
<path fill="#C5AB85" stroke="none" d="
M 221.45 232.5
L 235.6 240.7 235.6 239 221.45 230.8 221.45 232.5 Z"/>
</g>

<g id="Layer0_0_MEMBER_0_MEMBER_7_MEMBER_6_MEMBER_2_MEMBER_0_FILL">
<path fill="#D6BF9D" stroke="none" d="
M 221.45 219.7
L 235.65 227.9 235.65 218.2 228.55 207 221.45 210 221.45 219.7 Z"/>
</g>

<g id="Layer0_0_MEMBER_0_MEMBER_7_MEMBER_6_MEMBER_2_MEMBER_1_FILL">
<path fill="#68B5DC" stroke="none" d="
M 223.25 218.8
L 233.8 224.9 233.8 217.7 228.55 209.3 223.25 211.6 223.25 218.8 Z"/>
</g>

<g id="Layer0_0_MEMBER_0_MEMBER_7_MEMBER_6_MEMBER_2_MEMBER_2_FILL">
<path fill="#D6BF9D" stroke="none" d="
M 229.25 224.2
L 229.25 208.15 228.55 207 227.8 207.3 227.8 223.35 229.25 224.2 Z"/>
</g>

<g id="Layer0_0_MEMBER_0_MEMBER_7_MEMBER_6_MEMBER_2_MEMBER_3_FILL">
<path fill="#D6BF9D" stroke="none" d="
M 235.65 222
L 235.65 220.3 221.45 212.1 221.45 213.8 235.65 222 Z"/>
</g>

<g id="Layer0_0_MEMBER_0_MEMBER_7_MEMBER_7_MEMBER_0_FILL">
<path fill="#D6BF9D" stroke="none" d="
M 251.3 261.1
L 251.3 247.1 239.15 240.1 239.15 254.1 251.3 261.1 Z"/>
</g>

<g id="Layer0_0_MEMBER_0_MEMBER_7_MEMBER_7_MEMBER_1_FILL">
<path fill="#68B5DC" stroke="none" d="
M 250.1 259.05
L 250.1 247.75 240.35 242.15 240.35 253.4 250.1 259.05 Z"/>
</g>

<g id="Layer0_0_MEMBER_0_MEMBER_7_MEMBER_7_MEMBER_2_FILL">
<path fill="#D6BF9D" stroke="none" d="
M 245.85 243.95
L 244.6 243.2 244.6 257.25 245.85 257.95 245.85 243.95 Z"/>
</g>

<g id="Layer0_0_MEMBER_0_MEMBER_7_MEMBER_7_MEMBER_3_FILL">
<path fill="#D6BF9D" stroke="none" d="
M 251.3 254.85
L 251.3 253.35 239.15 246.35 239.15 247.8 251.3 254.85 Z"/>
</g>

<g id="Layer0_0_MEMBER_0_MEMBER_7_MEMBER_8_MEMBER_0_FILL">
<path fill="#B19E83" stroke="none" d="
M 279.2 239.1
L 267.05 246.15 267.05 260.15 279.2 253.15 279.2 239.1 Z"/>
</g>

<g id="Layer0_0_MEMBER_0_MEMBER_7_MEMBER_8_MEMBER_1_FILL">
<path fill="#68B5DC" stroke="none" d="
M 278 241.15
L 268.25 246.8 268.25 258.1 278 252.45 278 241.15 Z"/>
</g>

<g id="Layer0_0_MEMBER_0_MEMBER_7_MEMBER_8_MEMBER_2_FILL">
<path fill="#B19E83" stroke="none" d="
M 273.75 242.25
L 272.5 243 272.5 257 273.75 256.25 273.75 242.25 Z"/>
</g>

<g id="Layer0_0_MEMBER_0_MEMBER_7_MEMBER_8_MEMBER_3_FILL">
<path fill="#B19E83" stroke="none" d="
M 279.2 246.85
L 279.2 245.4 267.05 252.4 267.05 253.85 279.2 246.85 Z"/>
</g>

<g id="Layer0_0_MEMBER_0_MEMBER_7_MEMBER_9_MEMBER_0_FILL">
<path fill="#B19E83" stroke="none" d="
M 299.15 242.1
L 299.15 228.1 287.05 235.1 287.05 249.1 299.15 242.1 Z"/>
</g>

<g id="Layer0_0_MEMBER_0_MEMBER_7_MEMBER_9_MEMBER_1_FILL">
<path fill="#68B5DC" stroke="none" d="
M 298 241.4
L 298 230.15 288.2 235.75 288.2 247.05 298 241.4 Z"/>
</g>

<g id="Layer0_0_MEMBER_0_MEMBER_7_MEMBER_9_MEMBER_2_FILL">
<path fill="#B19E83" stroke="none" d="
M 293.75 245.25
L 293.75 231.2 292.45 231.95 292.45 245.95 293.75 245.25 Z"/>
</g>

<g id="Layer0_0_MEMBER_0_MEMBER_7_MEMBER_9_MEMBER_3_FILL">
<path fill="#B19E83" stroke="none" d="
M 287.05 242.8
L 299.15 235.8 299.15 234.35 287.05 241.35 287.05 242.8 Z"/>
</g>

<g id="Layer0_0_MEMBER_0_MEMBER_7_MEMBER_10_MEMBER_0_FILL">
<path fill="#D6BF9D" stroke="none" d="
M 205.75 220.8
L 205.75 234.8 217.9 241.8 217.9 227.8 205.75 220.8 Z"/>
</g>

<g id="Layer0_0_MEMBER_0_MEMBER_7_MEMBER_10_MEMBER_1_FILL">
<path fill="#68B5DC" stroke="none" d="
M 206.95 222.85
L 206.95 234.15 216.7 239.75 216.7 228.5 206.95 222.85 Z"/>
</g>

<g id="Layer0_0_MEMBER_0_MEMBER_7_MEMBER_10_MEMBER_2_FILL">
<path fill="#D6BF9D" stroke="none" d="
M 211.2 223.95
L 211.2 237.95 212.45 238.7 212.45 224.65 211.2 223.95 Z"/>
</g>

<g id="Layer0_0_MEMBER_0_MEMBER_7_MEMBER_10_MEMBER_3_FILL">
<path fill="#D6BF9D" stroke="none" d="
M 205.75 228.55
L 217.9 235.55 217.9 234.1 205.75 227.05 205.75 228.55 Z"/>
</g>

<g id="Layer0_0_MEMBER_0_MEMBER_8_FILL">
<path fill="#000000" fill-opacity="0.14901960784313725" stroke="none" d="
M 48.35 8
L 48.35 0 0 27.9 0 35.9 48.35 8 Z"/>
</g>

<g id="Layer0_0_MEMBER_1_MEMBER_0_FILL">
<path fill="#000000" fill-opacity="0.14901960784313725" stroke="none" d="
M 7.45 8.55
Q 10.5 8.55 12.65 7.3 14.85 6.05 14.85 4.25 14.85 2.5 12.65 1.25 10.5 0 7.45 0 4.4 0 2.2 1.25 0.05 2.5 0.05 4.25 0.05 6.05 2.2 7.3 4.4 8.55 7.45 8.55 Z"/>
</g>

<g id="Layer0_0_MEMBER_1_MEMBER_1_FILL">
<path fill="#A57668" stroke="none" d="
M 189.85 229.85
Q 189.85 229 189.25 228.45 188.65 227.85 187.8 227.85 187 227.85 186.4 228.45 185.8 229.05 185.8 229.85
L 185.8 243.65
Q 185.8 244.5 186.4 245.05 187 245.65 187.8 245.65 188.65 245.65 189.25 245.05 189.85 244.5 189.85 243.65
L 189.85 229.85 Z"/>
</g>

<g id="Layer0_0_MEMBER_1_MEMBER_2_FILL">
<path fill="#8C644F" stroke="none" d="
M 186.4 243.45
Q 185.81875 242.9171875 185.8 242.1
L 185.8 243.65
Q 185.8 244.5 186.4 245.05 187 245.65 187.8 245.65 188.65 245.65 189.25 245.05 189.85 244.5 189.85 243.65
L 189.85 242.1
Q 189.83125 242.9171875 189.25 243.45 188.65 244.05 187.8 244.05 187 244.05 186.4 243.45 Z"/>
</g>

<g id="Layer0_0_MEMBER_1_MEMBER_3_FILL">
<path fill="#8C644F" stroke="none" d="
M 189.25 228.45
Q 188.65 227.85 187.8 227.85 187 227.85 186.4 228.45 185.8 229.05 185.8 229.85
L 185.8 235.6
Q 187.1 235.8 187.8 235.8 188.55 235.8 189.85 235.6
L 189.85 229.85
Q 189.85 229 189.25 228.45 Z"/>
</g>

<g id="Layer0_0_MEMBER_1_MEMBER_4_FILL">
<path fill="#6C9C38" stroke="none" d="
M 197.65 223.55
Q 197.65 219.5 194.75 216.65 191.9 213.75 187.8 213.75 183.75 213.75 180.9 216.65 178 219.5 178 223.55 178 227.65 180.9 230.5 183.75 233.35 187.8 233.35 191.9 233.35 194.75 230.5 197.65 227.65 197.65 223.55 Z"/>
</g>

<g id="Layer0_0_MEMBER_1_MEMBER_5_FILL">
<path fill="#80B844" stroke="none" d="
M 189 220.85
Q 189 219.25 187.85 218.1 186.7 216.95 185.1 216.95 183.5 216.95 182.35 218.1 181.25 219.25 181.25 220.85 181.25 222.45 182.35 223.6 183.5 224.75 185.1 224.75 186.7 224.75 187.85 223.6 189 222.45 189 220.85 Z"/>
</g>
</defs>

<g transform="matrix( 5, 0, 0, 5, -737.85,-681.35) ">
<use xlink:href="#Layer0_0_MEMBER_0_MEMBER_0_FILL"/>
</g>

<g transform="matrix( 5, 0, 0, 5, -737.85,-681.35) ">
<use xlink:href="#Layer0_0_MEMBER_0_MEMBER_1_FILL"/>
</g>

<g transform="matrix( 5, 0, 0, 5, -737.85,-681.35) ">
<use xlink:href="#Layer0_0_MEMBER_0_MEMBER_2_FILL"/>
</g>

<g transform="matrix( 5, 0, 0, 5, -737.85,-681.35) ">
<use xlink:href="#Layer0_0_MEMBER_0_MEMBER_3_FILL"/>
</g>

<g transform="matrix( 5, 0, 0, 5, -737.85,-681.35) ">
<use xlink:href="#Layer0_0_MEMBER_0_MEMBER_4_FILL"/>
</g>

<g transform="matrix( 5, 0, 0, 5, 543.15,563.15) ">
<use xlink:href="#Layer0_0_MEMBER_0_MEMBER_5_FILL"/>
</g>

<g transform="matrix( 5, 0, 0, 5, -737.85,-681.35) ">
<use xlink:href="#Layer0_0_MEMBER_0_MEMBER_6_MEMBER_0_MEMBER_0_FILL"/>
</g>

<g transform="matrix( 5, 0, 0, 5, -737.85,-681.35) ">
<use xlink:href="#Layer0_0_MEMBER_0_MEMBER_6_MEMBER_0_MEMBER_1_FILL"/>
</g>

<g transform="matrix( 5, 0, 0, 5, -737.85,-681.35) ">
<use xlink:href="#Layer0_0_MEMBER_0_MEMBER_6_MEMBER_0_MEMBER_2_FILL"/>
</g>

<g transform="matrix( 5, 0, 0, 5, -737.85,-681.35) ">
<use xlink:href="#Layer0_0_MEMBER_0_MEMBER_6_MEMBER_1_MEMBER_0_FILL"/>
</g>

<g transform="matrix( 5, 0, 0, 5, -737.85,-681.35) ">
<use xlink:href="#Layer0_0_MEMBER_0_MEMBER_6_MEMBER_1_MEMBER_1_FILL"/>
</g>

<g transform="matrix( 5, 0, 0, 5, -737.85,-681.35) ">
<use xlink:href="#Layer0_0_MEMBER_0_MEMBER_6_MEMBER_1_MEMBER_2_FILL"/>
</g>

<g transform="matrix( 5, 0, 0, 5, -737.85,-681.35) ">
<use xlink:href="#Layer0_0_MEMBER_0_MEMBER_6_MEMBER_2_MEMBER_0_FILL"/>
</g>

<g transform="matrix( 5, 0, 0, 5, -737.85,-681.35) ">
<use xlink:href="#Layer0_0_MEMBER_0_MEMBER_6_MEMBER_2_MEMBER_1_FILL"/>
</g>

<g transform="matrix( 5, 0, 0, 5, -737.85,-681.35) ">
<use xlink:href="#Layer0_0_MEMBER_0_MEMBER_6_MEMBER_2_MEMBER_2_FILL"/>
</g>

<g transform="matrix( 5, 0, 0, 5, -737.85,-681.35) ">
<use xlink:href="#Layer0_0_MEMBER_0_MEMBER_6_MEMBER_3_MEMBER_0_FILL"/>
</g>

<g transform="matrix( 5, 0, 0, 5, -737.85,-681.35) ">
<use xlink:href="#Layer0_0_MEMBER_0_MEMBER_6_MEMBER_3_MEMBER_1_FILL"/>
</g>

<g transform="matrix( 5, 0, 0, 5, -737.85,-681.35) ">
<use xlink:href="#Layer0_0_MEMBER_0_MEMBER_6_MEMBER_3_MEMBER_2_FILL"/>
</g>

<g transform="matrix( 5, 0, 0, 5, -737.85,-681.35) ">
<use xlink:href="#Layer0_0_MEMBER_0_MEMBER_6_MEMBER_4_MEMBER_0_FILL"/>
</g>

<g transform="matrix( 5, 0, 0, 5, -737.85,-681.35) ">
<use xlink:href="#Layer0_0_MEMBER_0_MEMBER_6_MEMBER_4_MEMBER_1_FILL"/>
</g>

<g transform="matrix( 5, 0, 0, 5, -737.85,-681.35) ">
<use xlink:href="#Layer0_0_MEMBER_0_MEMBER_6_MEMBER_4_MEMBER_2_FILL"/>
</g>

<g transform="matrix( 5, 0, 0, 5, -737.85,-681.35) ">
<use xlink:href="#Layer0_0_MEMBER_0_MEMBER_6_MEMBER_5_MEMBER_0_FILL"/>
</g>

<g transform="matrix( 5, 0, 0, 5, -737.85,-681.35) ">
<use xlink:href="#Layer0_0_MEMBER_0_MEMBER_6_MEMBER_5_MEMBER_1_FILL"/>
</g>

<g transform="matrix( 5, 0, 0, 5, -737.85,-681.35) ">
<use xlink:href="#Layer0_0_MEMBER_0_MEMBER_6_MEMBER_5_MEMBER_2_FILL"/>
</g>

<g transform="matrix( 5, 0, 0, 5, -737.85,-681.35) ">
<use xlink:href="#Layer0_0_MEMBER_0_MEMBER_6_MEMBER_6_MEMBER_0_FILL"/>
</g>

<g transform="matrix( 5, 0, 0, 5, -737.85,-681.35) ">
<use xlink:href="#Layer0_0_MEMBER_0_MEMBER_6_MEMBER_6_MEMBER_1_FILL"/>
</g>

<g transform="matrix( 5, 0, 0, 5, -737.85,-681.35) ">
<use xlink:href="#Layer0_0_MEMBER_0_MEMBER_6_MEMBER_6_MEMBER_2_FILL"/>
</g>

<g transform="matrix( 5, 0, 0, 5, -737.85,-681.35) ">
<use xlink:href="#Layer0_0_MEMBER_0_MEMBER_6_MEMBER_7_MEMBER_0_FILL"/>
</g>

<g transform="matrix( 5, 0, 0, 5, -737.85,-681.35) ">
<use xlink:href="#Layer0_0_MEMBER_0_MEMBER_6_MEMBER_7_MEMBER_1_FILL"/>
</g>

<g transform="matrix( 5, 0, 0, 5, -737.85,-681.35) ">
<use xlink:href="#Layer0_0_MEMBER_0_MEMBER_6_MEMBER_7_MEMBER_2_FILL"/>
</g>

<g transform="matrix( 5, 0, 0, 5, -737.85,-681.35) ">
<use xlink:href="#Layer0_0_MEMBER_0_MEMBER_6_MEMBER_8_MEMBER_0_FILL"/>
</g>

<g transform="matrix( 5, 0, 0, 5, -737.85,-681.35) ">
<use xlink:href="#Layer0_0_MEMBER_0_MEMBER_6_MEMBER_8_MEMBER_1_FILL"/>
</g>

<g transform="matrix( 5, 0, 0, 5, -737.85,-681.35) ">
<use xlink:href="#Layer0_0_MEMBER_0_MEMBER_6_MEMBER_8_MEMBER_2_FILL"/>
</g>

<g transform="matrix( 5, 0, 0, 5, -737.85,-681.35) ">
<use xlink:href="#Layer0_0_MEMBER_0_MEMBER_6_MEMBER_9_MEMBER_0_FILL"/>
</g>

<g transform="matrix( 5, 0, 0, 5, -737.85,-681.35) ">
<use xlink:href="#Layer0_0_MEMBER_0_MEMBER_6_MEMBER_9_MEMBER_1_FILL"/>
</g>

<g transform="matrix( 5, 0, 0, 5, -737.85,-681.35) ">
<use xlink:href="#Layer0_0_MEMBER_0_MEMBER_6_MEMBER_9_MEMBER_2_FILL"/>
</g>

<g transform="matrix( 5, 0, 0, 5, -737.85,-681.35) ">
<use xlink:href="#Layer0_0_MEMBER_0_MEMBER_6_MEMBER_10_MEMBER_0_FILL"/>
</g>

<g transform="matrix( 5, 0, 0, 5, -737.85,-681.35) ">
<use xlink:href="#Layer0_0_MEMBER_0_MEMBER_6_MEMBER_10_MEMBER_1_FILL"/>
</g>

<g transform="matrix( 5, 0, 0, 5, -737.85,-681.35) ">
<use xlink:href="#Layer0_0_MEMBER_0_MEMBER_6_MEMBER_10_MEMBER_2_FILL"/>
</g>

<g transform="matrix( 5, 0, 0, 5, -737.85,-681.35) ">
<use xlink:href="#Layer0_0_MEMBER_0_MEMBER_6_MEMBER_11_MEMBER_0_FILL"/>
</g>

<g transform="matrix( 5, 0, 0, 5, -737.85,-681.35) ">
<use xlink:href="#Layer0_0_MEMBER_0_MEMBER_6_MEMBER_11_MEMBER_1_FILL"/>
</g>

<g transform="matrix( 5, 0, 0, 5, -737.85,-681.35) ">
<use xlink:href="#Layer0_0_MEMBER_0_MEMBER_6_MEMBER_11_MEMBER_2_FILL"/>
</g>

<g transform="matrix( 5, 0, 0, 5, -737.85,-681.35) ">
<use xlink:href="#Layer0_0_MEMBER_0_MEMBER_7_MEMBER_0_FILL"/>
</g>

<g transform="matrix( 5, 0, 0, 5, -737.85,-681.35) ">
<use xlink:href="#Layer0_0_MEMBER_0_MEMBER_7_MEMBER_1_FILL"/>
</g>

<g transform="matrix( 5, 0, 0, 5, -737.85,-681.35) ">
<use xlink:href="#Layer0_0_MEMBER_0_MEMBER_7_MEMBER_2_FILL"/>
</g>

<g transform="matrix( 5, 0, 0, 5, -737.85,-681.35) ">
<use xlink:href="#Layer0_0_MEMBER_0_MEMBER_7_MEMBER_3_FILL"/>
</g>

<g transform="matrix( 5, 0, 0, 5, -737.85,-681.35) ">
<use xlink:href="#Layer0_0_MEMBER_0_MEMBER_7_MEMBER_4_MEMBER_0_MEMBER_0_FILL"/>
</g>

<g transform="matrix( 5, 0, 0, 5, -737.85,-681.35) ">
<use xlink:href="#Layer0_0_MEMBER_0_MEMBER_7_MEMBER_4_MEMBER_0_MEMBER_1_FILL"/>
</g>

<g transform="matrix( 5, 0, 0, 5, -737.85,-681.35) ">
<use xlink:href="#Layer0_0_MEMBER_0_MEMBER_7_MEMBER_4_MEMBER_1_MEMBER_0_FILL"/>
</g>

<g transform="matrix( 5, 0, 0, 5, -737.85,-681.35) ">
<use xlink:href="#Layer0_0_MEMBER_0_MEMBER_7_MEMBER_4_MEMBER_1_MEMBER_1_FILL"/>
</g>

<g transform="matrix( 5, 0, 0, 5, -737.85,-681.35) ">
<use xlink:href="#Layer0_0_MEMBER_0_MEMBER_7_MEMBER_4_MEMBER_1_MEMBER_2_FILL"/>
</g>

<g transform="matrix( 5, 0, 0, 5, -737.85,-681.35) ">
<use xlink:href="#Layer0_0_MEMBER_0_MEMBER_7_MEMBER_4_MEMBER_1_MEMBER_3_FILL"/>
</g>

<g transform="matrix( 5, 0, 0, 5, -737.85,-681.35) ">
<use xlink:href="#Layer0_0_MEMBER_0_MEMBER_7_MEMBER_4_MEMBER_1_MEMBER_4_FILL"/>
</g>

<g transform="matrix( 5, 0, 0, 5, -737.85,-681.35) ">
<use xlink:href="#Layer0_0_MEMBER_0_MEMBER_7_MEMBER_5_MEMBER_0_FILL"/>
</g>

<g transform="matrix( 5, 0, 0, 5, -737.85,-681.35) ">
<use xlink:href="#Layer0_0_MEMBER_0_MEMBER_7_MEMBER_6_MEMBER_0_FILL"/>
</g>

<g transform="matrix( 5, 0, 0, 5, -737.85,-681.35) ">
<use xlink:href="#Layer0_0_MEMBER_0_MEMBER_7_MEMBER_6_MEMBER_1_MEMBER_0_FILL"/>
</g>

<g transform="matrix( 5, 0, 0, 5, -737.85,-681.35) ">
<use xlink:href="#Layer0_0_MEMBER_0_MEMBER_7_MEMBER_6_MEMBER_1_MEMBER_1_FILL"/>
</g>

<g transform="matrix( 5, 0, 0, 5, -737.85,-681.35) ">
<use xlink:href="#Layer0_0_MEMBER_0_MEMBER_7_MEMBER_6_MEMBER_1_MEMBER_2_FILL"/>
</g>

<g transform="matrix( 5, 0, 0, 5, -737.85,-681.35) ">
<use xlink:href="#Layer0_0_MEMBER_0_MEMBER_7_MEMBER_6_MEMBER_1_MEMBER_3_FILL"/>
</g>

<g transform="matrix( 5, 0, 0, 5, -737.85,-681.35) ">
<use xlink:href="#Layer0_0_MEMBER_0_MEMBER_7_MEMBER_6_MEMBER_2_MEMBER_0_FILL"/>
</g>

<g transform="matrix( 5, 0, 0, 5, -737.85,-681.35) ">
<use xlink:href="#Layer0_0_MEMBER_0_MEMBER_7_MEMBER_6_MEMBER_2_MEMBER_1_FILL"/>
</g>

<g transform="matrix( 5, 0, 0, 5, -737.85,-681.35) ">
<use xlink:href="#Layer0_0_MEMBER_0_MEMBER_7_MEMBER_6_MEMBER_2_MEMBER_2_FILL"/>
</g>

<g transform="matrix( 5, 0, 0, 5, -737.85,-681.35) ">
<use xlink:href="#Layer0_0_MEMBER_0_MEMBER_7_MEMBER_6_MEMBER_2_MEMBER_3_FILL"/>
</g>

<g transform="matrix( 5, 0, 0, 5, -737.85,-681.35) ">
<use xlink:href="#Layer0_0_MEMBER_0_MEMBER_7_MEMBER_7_MEMBER_0_FILL"/>
</g>

<g transform="matrix( 5, 0, 0, 5, -737.85,-681.35) ">
<use xlink:href="#Layer0_0_MEMBER_0_MEMBER_7_MEMBER_7_MEMBER_1_FILL"/>
</g>

<g transform="matrix( 5, 0, 0, 5, -737.85,-681.35) ">
<use xlink:href="#Layer0_0_MEMBER_0_MEMBER_7_MEMBER_7_MEMBER_2_FILL"/>
</g>

<g transform="matrix( 5, 0, 0, 5, -737.85,-681.35) ">
<use xlink:href="#Layer0_0_MEMBER_0_MEMBER_7_MEMBER_7_MEMBER_3_FILL"/>
</g>

<g transform="matrix( 5, 0, 0, 5, -737.85,-681.35) ">
<use xlink:href="#Layer0_0_MEMBER_0_MEMBER_7_MEMBER_8_MEMBER_0_FILL"/>
</g>

<g transform="matrix( 5, 0, 0, 5, -737.85,-681.35) ">
<use xlink:href="#Layer0_0_MEMBER_0_MEMBER_7_MEMBER_8_MEMBER_1_FILL"/>
</g>

<g transform="matrix( 5, 0, 0, 5, -737.85,-681.35) ">
<use xlink:href="#Layer0_0_MEMBER_0_MEMBER_7_MEMBER_8_MEMBER_2_FILL"/>
</g>

<g transform="matrix( 5, 0, 0, 5, -737.85,-681.35) ">
<use xlink:href="#Layer0_0_MEMBER_0_MEMBER_7_MEMBER_8_MEMBER_3_FILL"/>
</g>

<g transform="matrix( 5, 0, 0, 5, -737.85,-681.35) ">
<use xlink:href="#Layer0_0_MEMBER_0_MEMBER_7_MEMBER_9_MEMBER_0_FILL"/>
</g>

<g transform="matrix( 5, 0, 0, 5, -737.85,-681.35) ">
<use xlink:href="#Layer0_0_MEMBER_0_MEMBER_7_MEMBER_9_MEMBER_1_FILL"/>
</g>

<g transform="matrix( 5, 0, 0, 5, -737.85,-681.35) ">
<use xlink:href="#Layer0_0_MEMBER_0_MEMBER_7_MEMBER_9_MEMBER_2_FILL"/>
</g>

<g transform="matrix( 5, 0, 0, 5, -737.85,-681.35) ">
<use xlink:href="#Layer0_0_MEMBER_0_MEMBER_7_MEMBER_9_MEMBER_3_FILL"/>
</g>

<g transform="matrix( 5, 0, 0, 5, -737.85,-681.35) ">
<use xlink:href="#Layer0_0_MEMBER_0_MEMBER_7_MEMBER_10_MEMBER_0_FILL"/>
</g>

<g transform="matrix( 5, 0, 0, 5, -737.85,-681.35) ">
<use xlink:href="#Layer0_0_MEMBER_0_MEMBER_7_MEMBER_10_MEMBER_1_FILL"/>
</g>

<g transform="matrix( 5, 0, 0, 5, -737.85,-681.35) ">
<use xlink:href="#Layer0_0_MEMBER_0_MEMBER_7_MEMBER_10_MEMBER_2_FILL"/>
</g>

<g transform="matrix( 5, 0, 0, 5, -737.85,-681.35) ">
<use xlink:href="#Layer0_0_MEMBER_0_MEMBER_7_MEMBER_10_MEMBER_3_FILL"/>
</g>

<g transform="matrix( 5, 0, 0, 5, 623.15,609.4) ">
<use xlink:href="#Layer0_0_MEMBER_0_MEMBER_8_FILL"/>
</g>

<g transform="matrix( 5, 0, 0, 5, 164.15,525.65) ">
<use xlink:href="#Layer0_0_MEMBER_1_MEMBER_0_FILL"/>
</g>

<g transform="matrix( 5, 0, 0, 5, -737.85,-681.35) ">
<use xlink:href="#Layer0_0_MEMBER_1_MEMBER_1_FILL"/>
</g>

<g transform="matrix( 5, 0, 0, 5, -737.85,-681.35) ">
<use xlink:href="#Layer0_0_MEMBER_1_MEMBER_2_FILL"/>
</g>

<g transform="matrix( 5, 0, 0, 5, -737.85,-681.35) ">
<use xlink:href="#Layer0_0_MEMBER_1_MEMBER_3_FILL"/>
</g>

<g transform="matrix( 5, 0, 0, 5, -737.85,-681.35) ">
<use xlink:href="#Layer0_0_MEMBER_1_MEMBER_4_FILL"/>
</g>

<g transform="matrix( 5, 0, 0, 5, -737.85,-681.35) ">
<use xlink:href="#Layer0_0_MEMBER_1_MEMBER_5_FILL"/>
</g>
</svg>
