
<svg xmlns="http://www.w3.org/2000/svg" version="1.1" xmlns:xlink="http://www.w3.org/1999/xlink" preserveAspectRatio="none" x="0px" y="0px" width="1024px" height="1024px" viewBox="0 0 1024 1024">
<defs>
<g id="Layer0_0_MEMBER_0_FILL">
<path fill="#E75C5B" stroke="none" d="
M 24.2 42.95
L 24.2 38.5 23.3 38.5
Q 22.8 38.5 22.5 38.85 22.15 39.25 22.2 39.75
L 22.4 41.95
Q 22.45 42.35 22.75 42.65 23.1 42.95 23.5 42.95
L 24.2 42.95 Z"/>
</g>

<g id="Layer0_0_MEMBER_1_FILL">
<path fill="#F9B659" stroke="none" d="
M 110.4 39.4
Q 109.95 40.05 109.8 41 109.65 41.95 109.9 42.7 110.1 43.45 110.6 43.55 111.1 43.65 111.55 43 112 42.35 112.15 41.4 112.3 40.4 112.05 39.7 111.85 38.95 111.35 38.85 110.85 38.8 110.4 39.4 Z"/>
</g>

<g id="Layer0_0_MEMBER_2_FILL">
<path fill="#A7CB64" stroke="none" d="
M 95.1 35.75
Q 90.9 35.45 83.3 35.55
L 76.4 29.5
Q 75.45 28.65 74.1 28.65
L 61.9 28.65
Q 54.55 28.65 50.5 30.6 48 31.8 45.1 35.05 43.25 34.9 36.85 35.25 28.9 35.6 24.2 36.45 23.5 36.6 23.1 37.2 22.7 37.8 22.8 38.5
L 23.9 45.15 27 47.65
Q 28.75 49.1 31.05 49.1
L 105.7 49.1
Q 107.2 49.1 108.2 47.95
L 110.55 45.3 111.5 39.2
Q 111.6 38.55 111.2 38.05 110.8 37.55 110.15 37.45 99.4 36.05 95.1 35.75 Z"/>
</g>

<g id="Layer0_0_MEMBER_3_FILL">
<path fill="#FFFFFF" fill-opacity="0.4980392156862745" stroke="none" d="
M 0.05 2.95
L 0.85 7.75 1.15 3.45
Q 1.25 2.45 2.15 2.3 6.5 1.35 20.45 0 16.75 0 11.95 0.25 5.25 0.65 1.15 1.35 0.6 1.45 0.25 1.95 -0.05 2.4 0.05 2.95 Z"/>
</g>

<g id="Layer0_0_MEMBER_4_FILL">
<path fill="#403430" stroke="none" d="
M 61.9 29.55
Q 57.15 29.55 53.6 32.4
L 51.05 35.25 57.6 35.7 81.95 35.75 75.95 30.3
Q 75.15 29.55 73.95 29.55
L 61.9 29.55 Z"/>
</g>

<g id="Layer0_0_MEMBER_5_FILL">
<path fill="#88A84C" stroke="none" d="
M 83.65 48.2
Q 85.9 44.5 84.8 40.5 83.95 37.5 81.95 35.75
L 57.6 35.7
Q 58.95 40.2 58.05 45.05 57.8 46.3 58.6 47.25 59.4 48.2 60.6 48.2
L 83.65 48.2 Z"/>
</g>

<g id="Layer0_0_MEMBER_6_FILL">
<path fill="#A7CB64" stroke="none" d="
M 60.85 29.3
L 60.85 35.7 61.7 35.7 61.7 29.3 60.85 29.3 Z"/>
</g>

<g id="Layer0_0_MEMBER_7_FILL">
<path fill="#FFFFFF" stroke="none" d="
M 60.1 37.85
Q 59.5 37.85 59.5 38.5 59.5 39.15 60.1 39.15
L 62.5 39.15
Q 63.15 39.15 63.15 38.5 63.15 37.85 62.5 37.85
L 60.1 37.85 Z"/>
</g>

<g id="Layer0_0_MEMBER_8_FILL">
<path fill="#DAD1D1" stroke="none" d="
M 22.1 46.9
Q 22.25 47.35 22.8 47.35
L 28.4 47.35
Q 28.8 47.35 29.05 47 29.25 46.7 29.1 46.3
L 28.65 45.25
Q 28.5 44.75 27.95 44.75
L 22.35 44.75
Q 21.95 44.75 21.7 45.1 21.45 45.45 21.65 45.8
L 22.1 46.9 Z"/>
</g>

<g id="Layer0_0_MEMBER_9_FILL">
<path fill="#FFFFFF" fill-opacity="0.4980392156862745" stroke="none" d="
M 50.1 2.65
Q 50.7 2.75 50.8 3.35 42.2 2.3 38.9 2.15 34.55 1.9 26.6 2.25 34.85 2.55 40 3.25 41.5 3.45 50.55 5
L 49.7 9.6 51.4 8.75 52.25 3.3
Q 52.35 2.8 52.05 2.4 51.7 2 51.2 1.9 42.5 0.55 34.65 0.15 29.2 -0.1 25.4 0.1
L 6.1 0.4
Q 23.1017578125 0.59375 29.25 0.85 39.3 1.25 50.1 2.65 Z"/>
</g>

<g id="Layer0_0_MEMBER_10_FILL">
<path fill="#1D1D1B" fill-opacity="0.09803921568627451" stroke="none" d="
M 44.45 2.7
Q 62.9 2.7 75.95 2.3 88.95 1.9 88.95 1.35 88.95 0.8 75.95 0.4 62.9 0 44.45 0 26 0 13 0.4 0 0.8 0 1.35 0 1.9 13 2.3 26 2.7 44.45 2.7 Z"/>
</g>

<g id="Layer0_0_MEMBER_11_FILL">
<path fill="#88A84C" stroke="none" d="
M 81.9 37
Q 82.4 36.45 82.2 35.75
L 82 34.8
Q 81.85 34.05 81.1 33.95
L 80.95 33.95 80.45 37.45 80.65 37.45
Q 81.35 37.55 81.9 37 Z"/>
</g>

<g id="Layer0_0_MEMBER_12_MEMBER_0_FILL">
<path fill="#FFFFFF" fill-opacity="0.4980392156862745" stroke="none" d="
M 10.4 5.55
L 4.6 0 0 0 5.8 5.55 10.4 5.55 Z"/>
</g>

<g id="Layer0_0_MEMBER_12_MEMBER_1_FILL">
<path fill="#FFFFFF" fill-opacity="0.4980392156862745" stroke="none" d="
M 12.4 5.55
L 6.7 0 5.2 0 10.95 5.55 12.4 5.55 Z"/>
</g>

<g id="Layer0_0_MEMBER_13_FILL">
<path fill="#DAD1D1" stroke="none" d="
M 105.6 47
Q 105.85 47.35 106.25 47.35
L 111.85 47.35
Q 112.4 47.35 112.55 46.9
L 113.05 45.8
Q 113.2 45.45 112.95 45.1 112.7 44.75 112.3 44.75
L 106.7 44.75
Q 106.25 44.75 106 45.25
L 105.55 46.3
Q 105.4 46.7 105.6 47 Z"/>
</g>

<g id="Layer0_0_MEMBER_14_FILL">
<path fill="#1D1715" stroke="none" d="
M 46.75 42.7
L 40.9 42.7
Q 39.35 42.7 38.05 43.6 36.8 44.55 36.3 46 36.15 46.35 36.05 47.1
L 35.85 49.05 51.8 49.05 51.6 47.1
Q 51.6 46.7 51.4 46 50.9 44.55 49.65 43.6 48.35 42.7 46.75 42.7 Z"/>
</g>

<g id="Layer0_0_MEMBER_15_MEMBER_0_MEMBER_0_MEMBER_0_FILL">
<path fill="#1D1715" stroke="none" d="
M 13.2 3
L 13.3 2.7 13.3 2.65 13.35 2.65 12.9 2.1 12.9 2.15 12.85 2.2 12.8 2.35 12.5 2.65 12.25 2.4 12.5 2.15 12.55 1.85 12.55 1.75 12 1.35 12 1.6 11.75 1.9 11.45 1.7 11.65 1.45 11.65 1.05 11.05 0.7 11.05 1 10.85 1.35 10.55 1.2 10.7 0.9 10.65 0.8 10.65 0.55 10.6 0.55 9.95 0.3 10 0.35 10.05 0.55 9.9 0.95 9.6 0.85 9.65 0.55 9.55 0.25 9.55 0.15 8.85 0.05 8.9 0.15 8.95 0.3 8.9 0.7 8.55 0.65 8.55 0.35 8.4 0.1 8.4 0 7.7 0 7.75 0.1 7.85 0.25 7.85 0.65 7.5 0.65 7.5 0.35 7.3 0.1 7.25 0.1 7.25 0.05 6.55 0.2 6.6 0.25 6.75 0.35 6.8 0.8 6.5 0.85 6.4 0.55 6.3 0.5 6.1 0.3 5.45 0.55 5.5 0.6 5.65 0.7 5.85 1.1 5.5 1.2 5.35 0.95 5.1 0.8 5.1 0.75 5.05 0.75 4.45 1.1 4.5 1.1 4.55 1.15 4.65 1.2 4.9 1.55 4.6 1.75 4.4 1.5 4.15 1.4 4.1 1.35 4.05 1.35 3.55 1.8 3.6 1.8 3.8 1.85 4.05 2.2 3.8 2.4 3.6 2.2 3.3 2.15 3.2 2.15 2.75 2.65 2.85 2.65 3 2.7 3.35 2.95 3.15 3.2 2.9 3.05 2.5 3.05 2.15 3.65 2.25 3.65 2.4 3.6 2.8 3.8 2.65 4.1 2.35 4 2.25 4 2.05 4.05 1.95 4.05 1.7 4.7 1.8 4.7 1.95 4.65 2.4 4.75 2.3 5.1 1.95 5.05 1.7 5.1 1.65 5.15 1.6 5.15 1.5 5.85 1.55 5.8 1.7 5.7 2.15 5.8 2.1 6.15 1.8 6.1 1.5 6.25 1.45 6.3 1.45 7 1.5 6.95 1.65 6.85 2.1 6.8 2.1 7.2 1.8 7.2 1.55 7.4 1.5 7.45 1.6 8.05 1.6 8.15 1.65 8.05 1.8 7.95 2.2 7.85 2.3 8.2 2.05 8.25 2 8.3 1.9 8.35 1.8 8.5 1.75 8.55 1.75 8.6 1.95 9.25 2 9.15 2.1 9 2.5 8.85 2.65 9.2 2.35 9.3 2.2 9.55 2.2 9.6 2.15 9.65 2.5 10.25 2.55 10.15 2.55 10.1 2.6 10 3 9.8 3.2 10.1 2.9 10.25 2.8 10.55 2.8 10.6
Q 3.15 11.1 3.25 11.15
L 3.25 11.05 3.3 10.9 3.6 10.6 3.85 10.85 3.65 11.1 3.55 11.4 3.55 11.5 4.1 11.9 4.1 11.65 4.35 11.35 4.65 11.55 4.45 11.8 4.45 12.2 5.05 12.55 5.05 12.25 5.25 11.9 5.55 12.05 5.45 12.35 5.45 12.45 5.5 12.65 5.5 12.7 6.15 12.95 6.1 12.9 6.05 12.7 6.2 12.3 6.55 12.4 6.45 12.7 6.55 13 6.55 13.05 6.6 13.05 7.25 13.2 7.25 13.1 7.15 12.95 7.2 12.55 7.55 12.6 7.55 12.9 7.7 13.15 7.7 13.2 7.75 13.25 8.4 13.25 8.35 13.15 8.25 13 8.25 12.6 8.6 12.55 8.65 12.9 8.85 13.1 8.85 13.15 8.9 13.2 9.55 13.05 9.4 12.9 9.3 12.45 9.65 12.4 9.7 12.7 9.8 12.75 10 12.95 10.65 12.7 10.6 12.65 10.45 12.55 10.3 12.15 10.6 12.05 10.75 12.3 11 12.45 11.05 12.5 11.1 12.5 11.65 12.15 11.6 12.15 11.55 12.1 11.45 12.05 11.2 11.7 11.5 11.5 11.7 11.75 12 11.85 12 11.9 12.05 11.9 12.6 11.45 12.5 11.45 12.35 11.4 12.05 11.05 12.3 10.85 12.55 11.05 12.85 11.1 12.9 11.1 13.35 10.6 13.25 10.6 13.1 10.55 12.75 10.3 12.95 10 13.25 10.2 13.6 10.2 13.95 9.6 13.9 9.6 13.7 9.65 13.35 9.45 13.5 9.1 13.8 9.25 13.9 9.25 14.05 9.2 14.15 9.2 14.4 8.55 14.3 8.55 14.15 8.6 13.75 8.5 13.85 8.15 14.15 8.2 14.45 8.1 14.5 8.1 14.65 7.4 14.55 7.45 14.4 7.5 13.95 7.45 14 7.1 14.3 7.15 14.6 7 14.6 6.95 14.65 6.95 14.65 6.25 14.6 6.3 14.45 6.4 14.05 6.4 14 6.05 14.3 6.05 14.55 5.85 14.6 5.85 14.6 5.8 14.5 5.1 14.3 5.3 13.9 5.4 13.8 5.05 14.15 4.95 14.35 4.75 14.35 4.7 14.4 4.65 14.15 4 14.1 4.1 14 4.25 13.6 4.4 13.45 4.05 13.75 3.95 13.9 3.65 13.95 3.6 13.6 3 13.55 3.1 13.5 3.25 13.15 3.45 12.95 3.15 13.2 3 Z"/>
</g>

<g id="Layer0_0_MEMBER_15_MEMBER_0_MEMBER_0_MEMBER_1_FILL">
<path fill="#3E312C" stroke="none" d="
M 12.95 3.15
L 13.15 3.45 13.5 3.25 13.55 3.1 13.3 2.7 13.2 3 12.95 3.15 Z"/>
</g>

<g id="Layer0_0_MEMBER_15_MEMBER_0_MEMBER_0_MEMBER_2_FILL">
<path fill="#3E312C" stroke="none" d="
M 4.45 2.85
Q 2.9 4.3 2.8 6.5 2.75 8.7 4.25 10.25 5.8 11.8 7.95 11.85 10.1 11.95 11.7 10.45 13.25 8.9 13.3 6.75 13.35 4.55 11.85 3 10.35 1.45 8.2 1.4 6.05 1.35 4.45 2.85 Z"/>
</g>

<g id="Layer0_0_MEMBER_15_MEMBER_0_MEMBER_0_MEMBER_3_FILL">
<path fill="#3E312C" stroke="none" d="
M 12.05 11.05
L 12.35 11.4 12.5 11.45 12.85 11.1 12.55 11.05 12.3 10.85 12.05 11.05 Z"/>
</g>

<g id="Layer0_0_MEMBER_15_MEMBER_0_MEMBER_0_MEMBER_4_FILL">
<path fill="#3E312C" stroke="none" d="
M 12.75 10.3
L 13.1 10.55 13.25 10.6 13.55 10.2 13.25 10.2 12.95 10 12.75 10.3 Z"/>
</g>

<g id="Layer0_0_MEMBER_15_MEMBER_0_MEMBER_0_MEMBER_5_FILL">
<path fill="#3E312C" stroke="none" d="
M 10.6 12.05
L 10.3 12.15 10.45 12.55 10.6 12.65 11 12.45 10.75 12.3 10.6 12.05 Z"/>
</g>

<g id="Layer0_0_MEMBER_15_MEMBER_0_MEMBER_0_MEMBER_6_FILL">
<path fill="#3E312C" stroke="none" d="
M 11.2 11.7
L 11.45 12.05 11.55 12.1 11.6 12.15 12 11.85 11.7 11.75 11.5 11.5 11.2 11.7 Z"/>
</g>

<g id="Layer0_0_MEMBER_15_MEMBER_0_MEMBER_0_MEMBER_7_FILL">
<path fill="#3E312C" stroke="none" d="
M 13.35 9.45
L 13.7 9.65 13.9 9.6 14.05 9.2 13.9 9.25 13.8 9.25 13.5 9.1 13.35 9.45 Z"/>
</g>

<g id="Layer0_0_MEMBER_15_MEMBER_0_MEMBER_0_MEMBER_8_FILL">
<path fill="#3E312C" stroke="none" d="
M 14 6.05
L 14.05 6.4 14.45 6.4 14.6 6.3 14.55 5.85 14.3 6.05 14 6.05 Z"/>
</g>

<g id="Layer0_0_MEMBER_15_MEMBER_0_MEMBER_0_MEMBER_9_FILL">
<path fill="#3E312C" stroke="none" d="
M 9.65 12.4
L 9.3 12.45 9.4 12.9 9.5 13 9.95 12.9 9.8 12.75 9.7 12.7 9.65 12.4 Z"/>
</g>

<g id="Layer0_0_MEMBER_15_MEMBER_0_MEMBER_0_MEMBER_10_FILL">
<path fill="#3E312C" stroke="none" d="
M 13.75 8.5
L 14.15 8.6 14.3 8.55 14.45 8.1 14.15 8.2 13.85 8.15 13.75 8.5 Z"/>
</g>

<g id="Layer0_0_MEMBER_15_MEMBER_0_MEMBER_0_MEMBER_11_FILL">
<path fill="#3E312C" stroke="none" d="
M 13.8 5.05
L 13.9 5.4 14.3 5.3 14.45 5.15 14.35 4.75 14.15 4.95 13.8 5.05 Z"/>
</g>

<g id="Layer0_0_MEMBER_15_MEMBER_0_MEMBER_0_MEMBER_12_FILL">
<path fill="#3E312C" stroke="none" d="
M 13.45 4.05
L 13.6 4.4 14 4.25 14.1 4.1 13.9 3.65 13.75 3.95 13.45 4.05 Z"/>
</g>

<g id="Layer0_0_MEMBER_15_MEMBER_0_MEMBER_0_MEMBER_13_FILL">
<path fill="#3E312C" stroke="none" d="
M 13.95 7.45
L 14.4 7.5 14.55 7.45 14.6 7 14.3 7.15 14 7.1 13.95 7.45 Z"/>
</g>

<g id="Layer0_0_MEMBER_15_MEMBER_0_MEMBER_0_MEMBER_14_FILL">
<path fill="#3E312C" stroke="none" d="
M 3 9.8
L 2.6 10 2.55 10.1 2.55 10.15 2.8 10.55 2.9 10.25 3.2 10.1 3 9.8 Z"/>
</g>

<g id="Layer0_0_MEMBER_15_MEMBER_0_MEMBER_0_MEMBER_15_FILL">
<path fill="#3E312C" stroke="none" d="
M 2.65 9.2
L 2.5 8.85 2.1 9 2 9.15 2.2 9.55 2.35 9.3 2.65 9.2 Z"/>
</g>

<g id="Layer0_0_MEMBER_15_MEMBER_0_MEMBER_0_MEMBER_16_FILL">
<path fill="#3E312C" stroke="none" d="
M 8.6 12.55
L 8.25 12.6 8.25 13 8.35 13.15 8.85 13.1 8.65 12.9 8.6 12.55 Z"/>
</g>

<g id="Layer0_0_MEMBER_15_MEMBER_0_MEMBER_0_MEMBER_17_FILL">
<path fill="#3E312C" stroke="none" d="
M 3.85 10.85
L 3.6 10.6 3.3 10.9 3.25 11.05 3.55 11.4 3.65 11.1 3.85 10.85 Z"/>
</g>

<g id="Layer0_0_MEMBER_15_MEMBER_0_MEMBER_0_MEMBER_18_FILL">
<path fill="#3E312C" stroke="none" d="
M 2.1 6.8
L 1.65 6.85 1.5 6.95 1.55 7.4 1.8 7.2 2.1 7.15 2.1 6.8 Z"/>
</g>

<g id="Layer0_0_MEMBER_15_MEMBER_0_MEMBER_0_MEMBER_19_FILL">
<path fill="#3E312C" stroke="none" d="
M 2.3 8.2
L 2.2 7.85 1.8 7.95 1.65 8.05 1.8 8.5 1.9 8.35 2 8.3 2.3 8.2 Z"/>
</g>

<g id="Layer0_0_MEMBER_15_MEMBER_0_MEMBER_0_MEMBER_20_FILL">
<path fill="#3E312C" stroke="none" d="
M 6.55 12.4
L 6.2 12.3 6.05 12.7 6.1 12.9 6.55 13 6.45 12.7 6.55 12.4 Z"/>
</g>

<g id="Layer0_0_MEMBER_15_MEMBER_0_MEMBER_0_MEMBER_21_FILL">
<path fill="#3E312C" stroke="none" d="
M 7.55 12.6
L 7.2 12.55 7.15 12.95 7.25 13.1 7.7 13.15 7.55 12.9 7.55 12.6 Z"/>
</g>

<g id="Layer0_0_MEMBER_15_MEMBER_0_MEMBER_0_MEMBER_22_FILL">
<path fill="#3E312C" stroke="none" d="
M 5.55 12.05
L 5.25 11.9 5.05 12.25 5.05 12.45 5.45 12.65 5.45 12.35 5.55 12.05 Z"/>
</g>

<g id="Layer0_0_MEMBER_15_MEMBER_0_MEMBER_0_MEMBER_23_FILL">
<path fill="#3E312C" stroke="none" d="
M 4.65 11.55
L 4.35 11.35 4.1 11.65 4.1 11.85 4.45 12.1 4.45 11.8 4.65 11.55 Z"/>
</g>

<g id="Layer0_0_MEMBER_15_MEMBER_0_MEMBER_0_MEMBER_24_FILL">
<path fill="#3E312C" stroke="none" d="
M 4.15 1.4
L 4.4 1.5 4.6 1.75 4.9 1.55 4.65 1.2 4.55 1.15 4.5 1.1 4.15 1.4 Z"/>
</g>

<g id="Layer0_0_MEMBER_15_MEMBER_0_MEMBER_0_MEMBER_25_FILL">
<path fill="#3E312C" stroke="none" d="
M 8.55 0.35
L 8.55 0.65 8.9 0.7 8.95 0.3 8.9 0.15 8.4 0.1 8.55 0.35 Z"/>
</g>

<g id="Layer0_0_MEMBER_15_MEMBER_0_MEMBER_0_MEMBER_26_FILL">
<path fill="#3E312C" stroke="none" d="
M 10.55 1.2
L 10.85 1.35 11.05 1 11.05 0.8 10.65 0.6 10.65 0.8 10.7 0.9 10.55 1.2 Z"/>
</g>

<g id="Layer0_0_MEMBER_15_MEMBER_0_MEMBER_0_MEMBER_27_FILL">
<path fill="#3E312C" stroke="none" d="
M 9.65 0.55
L 9.6 0.85 9.9 0.95 10.05 0.55 10 0.35 9.55 0.25 9.65 0.55 Z"/>
</g>

<g id="Layer0_0_MEMBER_15_MEMBER_0_MEMBER_0_MEMBER_28_FILL">
<path fill="#3E312C" stroke="none" d="
M 6.15 0.35
L 6.3 0.5 6.4 0.55 6.5 0.85 6.8 0.8 6.75 0.35 6.6 0.25 6.15 0.35 Z"/>
</g>

<g id="Layer0_0_MEMBER_15_MEMBER_0_MEMBER_0_MEMBER_29_FILL">
<path fill="#3E312C" stroke="none" d="
M 3.15 3.2
L 3.35 2.95 3 2.7 2.85 2.65 2.6 3.05 2.9 3.05 3.15 3.2 Z"/>
</g>

<g id="Layer0_0_MEMBER_15_MEMBER_0_MEMBER_0_MEMBER_30_FILL">
<path fill="#3E312C" stroke="none" d="
M 2.3 5.1
L 2.4 4.75 1.95 4.65 1.8 4.7 1.7 5.1 1.95 5.05 2.3 5.1 Z"/>
</g>

<g id="Layer0_0_MEMBER_15_MEMBER_0_MEMBER_0_MEMBER_31_FILL">
<path fill="#3E312C" stroke="none" d="
M 7.3 0.1
L 7.5 0.35 7.5 0.65 7.85 0.65 7.85 0.25 7.75 0.1 7.3 0.1 Z"/>
</g>

<g id="Layer0_0_MEMBER_15_MEMBER_0_MEMBER_0_MEMBER_32_FILL">
<path fill="#3E312C" stroke="none" d="
M 5.1 0.8
L 5.35 0.95 5.5 1.2 5.85 1.1 5.65 0.7 5.5 0.6 5.1 0.8 Z"/>
</g>

<g id="Layer0_0_MEMBER_15_MEMBER_0_MEMBER_0_MEMBER_33_FILL">
<path fill="#3E312C" stroke="none" d="
M 2.65 4.1
L 2.8 3.8 2.4 3.6 2.25 3.65 2.05 4.05 2.25 4 2.35 4 2.65 4.1 Z"/>
</g>

<g id="Layer0_0_MEMBER_15_MEMBER_0_MEMBER_0_MEMBER_34_FILL">
<path fill="#3E312C" stroke="none" d="
M 2.1 6.15
L 2.15 5.8 1.7 5.7 1.55 5.8 1.5 6.25 1.8 6.1 2.1 6.15 Z"/>
</g>

<g id="Layer0_0_MEMBER_15_MEMBER_0_MEMBER_0_MEMBER_35_FILL">
<path fill="#3E312C" stroke="none" d="
M 11.45 1.7
L 11.75 1.9 12 1.6 12 1.4 11.65 1.15 11.65 1.45 11.45 1.7 Z"/>
</g>

<g id="Layer0_0_MEMBER_15_MEMBER_0_MEMBER_0_MEMBER_36_FILL">
<path fill="#3E312C" stroke="none" d="
M 3.8 2.4
L 4.05 2.2 3.8 1.85 3.6 1.8 3.3 2.15 3.6 2.2 3.8 2.4 Z"/>
</g>

<g id="Layer0_0_MEMBER_15_MEMBER_0_MEMBER_0_MEMBER_37_FILL">
<path fill="#3E312C" stroke="none" d="
M 12.25 2.4
L 12.5 2.65 12.8 2.35 12.85 2.2 12.55 1.85 12.5 2.15 12.25 2.4 Z"/>
</g>

<g id="Layer0_0_MEMBER_15_MEMBER_1_FILL">
<path fill="#DAD1D1" stroke="none" d="
M 3.1 6.6
Q 3.1 8.65 4.55 10.1 6 11.55 8.05 11.55 10.1 11.55 11.55 10.1 13 8.65 13 6.6 13 4.55 11.55 3.15 10.1 1.7 8.05 1.7 6 1.7 4.55 3.15 3.1 4.6 3.1 6.6 Z"/>
</g>

<g id="Layer0_0_MEMBER_15_MEMBER_2_FILL">
<path fill="#3E312C" stroke="none" d="
M 4 6.6
Q 4 8.3 5.2 9.5 6.35 10.7 8.05 10.7 9.75 10.7 10.95 9.5 12.15 8.3 12.15 6.6 12.15 4.9 10.95 3.75 9.75 2.55 8.05 2.55 6.35 2.55 5.2 3.75 4 4.9 4 6.6 Z"/>
</g>

<g id="Layer0_0_MEMBER_15_MEMBER_3_MEMBER_0_MEMBER_0_MEMBER_0_FILL">
<path fill="#DAD1D1" stroke="none" d="
M 8.7 7.7
L 7.45 5.55
Q 6.25 6.9 4.3 7.9 3.95 8 4.15 8.4
L 4.6 9.15
Q 4.8 9.45 5.1 9.25 7.05 8 8.7 7.7 Z"/>
</g>

<g id="Layer0_0_MEMBER_15_MEMBER_3_MEMBER_0_MEMBER_1_MEMBER_0_FILL">
<path fill="#DAD1D1" stroke="none" d="
M 8.7 5.55
L 7.45 7.7
Q 9.15 8.05 11 9.25 11.35 9.4 11.5 9.15
L 11.95 8.4
Q 12.15 8 11.8 7.9 9.8 6.85 8.7 5.55 Z"/>
</g>

<g id="Layer0_0_MEMBER_15_MEMBER_3_MEMBER_0_MEMBER_2_MEMBER_0_FILL">
<path fill="#DAD1D1" stroke="none" d="
M 6.8 6.65
L 9.3 6.65
Q 8.75 5.1 8.85 2.75 8.85 2.4 8.5 2.4
L 7.6 2.4
Q 7.25 2.4 7.25 2.75 7.35 5.1 6.8 6.65 Z"/>
</g>

<g id="Layer0_0_MEMBER_15_MEMBER_3_MEMBER_1_FILL">
<path fill="#FDFDFD" stroke="none" d="
M 6.55 6.65
Q 6.55 7.3 7 7.7 7.4 8.15 8.05 8.15 8.7 8.15 9.15 7.7 9.6 7.3 9.6 6.65 9.6 6 9.15 5.55 8.7 5.1 8.05 5.1 7.4 5.1 7 5.55 6.55 6 6.55 6.65 Z"/>
</g>

<g id="Layer0_0_MEMBER_16_FILL">
<path fill="#A7CB64" stroke="none" d="
M 250 524.5
Q 261.088671875 517.4 274.15 517.4
L 326.8 517.4
Q 326.925 517.4 327.05 517.4 339.5447265625 517.46171875 350 523.65
L 350 490 250 490 250 524.5 Z"/>
</g>

<g id="Layer0_0_MEMBER_17_FILL">
<path fill="#000000" fill-opacity="0.09803921568627451" stroke="none" d="
M 879.85 564.65
L 884.8 559.25 912.7 559.25
Q 917.65 559.25 919 555.2
L 921.7 549.8 107.2 503.9 107.65 510.65
Q 108.1 514.25 110.8 516.95 113.95 519.65 117.55 519.65
L 118 519.65 120.7 535.85 107.2 535.85
Q 103.6 535.85 101.35 539 99.1 542.15 100.9 545.3
L 104.95 555.2
Q 106.3 559.25 111.25 559.25
L 145.9 559.25 149.05 561.95
Q 164.8 575 185.5 575
L 857.35 575
Q 870.85 575 879.85 564.65 Z"/>
</g>

<g id="Layer0_0_MEMBER_18_FILL">
<path fill="#FFFFFF" stroke="none" d="
M 46.75 42.55
L 40.9 42.55
Q 38.95 42.55 37.5 43.85 36.1 45.15 35.9 47.05
L 35.7 49.05 36 49.05 36.05 48.9 36.2 47.1
Q 36.4 45.25 37.75 44.05 39.05 42.85 40.9 42.85
L 46.75 42.85
Q 48.6 42.85 49.95 44.05 51.3 45.25 51.45 47.1
L 51.65 48.9 51.65 49.05 51.95 49.05 51.75 47.05
Q 51.55 45.15 50.15 43.85 48.7 42.55 46.75 42.55 Z"/>
</g>

<g id="Layer0_0_MEMBER_19_MEMBER_0_MEMBER_0_FILL">
<path fill="#1D1715" stroke="none" d="
M 88.5 47.1
L 88.35 49.05 104.3 49.05 104.1 47.1 103.85 46
Q 103.35 44.55 102.1 43.6 100.8 42.7 99.2 42.7
L 93.4 42.7
Q 91.8 42.7 90.5 43.6 89.25 44.55 88.75 46
L 88.5 47.1 Z"/>
</g>

<g id="Layer0_0_MEMBER_19_MEMBER_0_MEMBER_1_MEMBER_0_MEMBER_0_MEMBER_0_FILL">
<path fill="#1D1715" stroke="none" d="
M 13.15 3
L 13.25 2.7 13.3 2.65 12.85 2.1 12.85 2.2 12.8 2.35 12.45 2.65 12.25 2.4 12.45 2.15 12.5 1.85 12.5 1.75 12 1.35 12 1.4 11.95 1.6 11.7 1.9 11.45 1.7 11.6 1.45 11.6 1.05 11 0.7 11 0.8 11.05 1 10.85 1.35 10.5 1.2 10.65 0.9 10.65 0.8 10.6 0.6 10.6 0.55 9.95 0.3 9.95 0.35 10 0.55 9.9 0.95 9.55 0.85 9.6 0.55 9.5 0.25 9.5 0.15 8.8 0.05 8.85 0.15 8.95 0.3 8.85 0.7 8.5 0.65 8.55 0.35 8.4 0.1 8.4 0.05 8.35 0 7.65 0 7.7 0.1 7.8 0.25 7.8 0.65 7.45 0.65 7.45 0.35 7.25 0.1 7.2 0.05 6.5 0.2 6.6 0.25 6.7 0.35 6.8 0.8 6.45 0.85 6.35 0.55 6.15 0.35 6.1 0.35 6.05 0.3 5.4 0.55 5.5 0.6 5.65 0.7 5.8 1.1 5.45 1.2 5.35 0.95 5.1 0.8 5.05 0.75 5 0.75 4.4 1.1 4.5 1.1 4.55 1.15 4.65 1.2 4.85 1.55 4.55 1.75 4.4 1.5 4.1 1.4 4.05 1.35 3.55 1.75 3.5 1.8 3.6 1.8 3.75 1.85 4.05 2.2 3.8 2.4 3.55 2.2 3.25 2.15 3.15 2.15 2.75 2.65 2.8 2.65 3 2.7 3.3 2.95 3.1 3.2 2.85 3.05 2.45 3.05 2.1 3.65 2.2 3.65 2.4 3.6 2.75 3.8 2.6 4.1 2.3 4 2.2 4 2 4.05 1.95 4.05 1.7 4.7 1.75 4.7 1.95 4.65 2.35 4.75 2.25 5.1 1.95 5.05 1.65 5.1 1.6 5.15 1.55 5.15 1.45 5.85 1.55 5.8 1.7 5.7 2.1 5.8 2.05 6.15 1.75 6.1 1.5 6.25 1.45 6.25 1.4 6.3 1.4 7 1.5 6.95 1.65 6.85 2.05 6.8 2.1 7.2 1.75 7.2 1.5 7.4 1.45 7.45 1.55 8.05 1.6 8.15 1.65 8.05 1.75 7.95 2.2 7.85 2.25 8.2 2 8.25 1.75 8.5 1.75 8.55 1.7 8.6 1.95 9.25 2 9.15 2.1 9 2.5 8.85 2.6 9.2 2.35 9.3 2.2 9.55 2.15 9.6 2.15 9.65 2.5 10.25 2.5 10.15 2.55 10.1 2.6 10 2.95 9.8 3.15 10.1 2.9 10.25 2.8 10.55 2.75 10.55 2.75 10.6 3.2 11.15 3.2 11.05 3.25 10.9 3.6 10.6 3.8 10.85 3.6 11.1 3.55 11.4 3.55 11.5 4.05 11.9 4.05 11.85 4.1 11.65 4.35 11.35 4.6 11.55 4.45 11.8 4.45 12.2 5.05 12.55 5.05 12.45 5 12.25 5.2 11.9 5.55 12.05 5.4 12.35 5.4 12.45 5.45 12.65 5.45 12.7 6.1 12.95 6.1 12.9 6.05 12.7 6.15 12.3 6.5 12.4 6.45 12.7 6.55 13 6.55 13.05 7.25 13.2 7.2 13.1 7.1 12.95 7.2 12.55 7.55 12.6 7.5 12.9 7.65 13.15 7.65 13.2 7.7 13.25 8.4 13.25 8.35 13.15 8.25 13 8.25 12.6 8.6 12.55 8.6 12.9 8.8 13.1 8.8 13.15 8.85 13.2 9.55 13.05 9.45 13 9.35 12.9 9.25 12.45 9.6 12.4 9.7 12.7 9.9 12.9 9.95 12.9 10 12.95 10.65 12.7 10.55 12.65 10.4 12.55 10.25 12.15 10.6 12.05 10.7 12.3 10.95 12.45 11 12.5 11.05 12.5 11.65 12.15 11.55 12.15 11.5 12.1 11.4 12.05 11.2 11.7 11.5 11.5 11.65 11.75 11.95 11.85 12 11.9 12.55 11.45 12.45 11.45 12.3 11.4 12 11.05 12.25 10.85 12.5 11.05 12.8 11.1 12.9 11.1 13.3 10.6 13.25 10.6 13.05 10.55 12.75 10.3 12.95 10 13.2 10.2 13.6 10.2 13.95 9.6 13.85 9.6 13.65 9.65 13.3 9.45 13.45 9.1 13.75 9.25 13.85 9.25 14.05 9.2 14.1 9.2 14.35 8.55 14.3 8.55 14.1 8.6 13.7 8.5 13.8 8.15 14.1 8.2 14.4 8.1 14.5 8.1 14.6 7.4 14.5 7.45 14.35 7.5 13.95 7.45 14 7.1 14.3 7.15 14.55 7 14.6 6.95 14.65 6.95 14.65 6.25 14.55 6.3 14.4 6.4 14 6.4 13.95 6.05 14.3 6.05 14.55 5.85 14.6 5.8 14.45 5.1 14.4 5.15 14.3 5.3 13.85 5.4 13.8 5.05 14.1 4.95 14.3 4.75 14.3 4.7 14.35 4.65 14.1 4 14.05 4.1 13.95 4.25 13.55 4.4 13.45 4.05 13.7 3.95 13.85 3.65 13.9 3.65 13.9 3.6 13.55 3 13.55 3.1 13.5 3.1 13.45 3.25 13.1 3.45 12.9 3.15 13.15 3 Z"/>
</g>

<g id="Layer0_0_MEMBER_19_MEMBER_0_MEMBER_1_MEMBER_0_MEMBER_0_MEMBER_1_FILL">
<path fill="#3E312C" stroke="none" d="
M 12.9 3.15
L 13.1 3.45 13.45 3.25 13.5 3.1 13.55 3.1 13.25 2.7 13.15 3 12.9 3.15 Z"/>
</g>

<g id="Layer0_0_MEMBER_19_MEMBER_0_MEMBER_1_MEMBER_0_MEMBER_0_MEMBER_2_FILL">
<path fill="#3E312C" stroke="none" d="
M 4.4 2.85
Q 2.85 4.3 2.8 6.5 2.75 8.65 4.25 10.25 5.7 11.8 7.9 11.85 10.05 11.95 11.65 10.45 13.2 8.95 13.25 6.75 13.35 4.6 11.85 3 10.35 1.45 8.15 1.4 6 1.35 4.4 2.85 Z"/>
</g>

<g id="Layer0_0_MEMBER_19_MEMBER_0_MEMBER_1_MEMBER_0_MEMBER_0_MEMBER_3_FILL">
<path fill="#3E312C" stroke="none" d="
M 12 11.05
L 12.3 11.4 12.45 11.45 12.8 11.1 12.5 11.05 12.25 10.85 12 11.05 Z"/>
</g>

<g id="Layer0_0_MEMBER_19_MEMBER_0_MEMBER_1_MEMBER_0_MEMBER_0_MEMBER_4_FILL">
<path fill="#3E312C" stroke="none" d="
M 12.75 10.3
L 13.05 10.55 13.25 10.6 13.5 10.2 13.2 10.2 12.95 10 12.75 10.3 Z"/>
</g>

<g id="Layer0_0_MEMBER_19_MEMBER_0_MEMBER_1_MEMBER_0_MEMBER_0_MEMBER_5_FILL">
<path fill="#3E312C" stroke="none" d="
M 10.6 12.05
L 10.25 12.15 10.4 12.55 10.55 12.65 10.95 12.45 10.7 12.3 10.6 12.05 Z"/>
</g>

<g id="Layer0_0_MEMBER_19_MEMBER_0_MEMBER_1_MEMBER_0_MEMBER_0_MEMBER_6_FILL">
<path fill="#3E312C" stroke="none" d="
M 11.2 11.7
L 11.4 12.05 11.5 12.1 11.55 12.15 11.95 11.85 11.65 11.75 11.5 11.5 11.2 11.7 Z"/>
</g>

<g id="Layer0_0_MEMBER_19_MEMBER_0_MEMBER_1_MEMBER_0_MEMBER_0_MEMBER_7_FILL">
<path fill="#3E312C" stroke="none" d="
M 13.3 9.45
L 13.65 9.65 13.85 9.6 14.05 9.2 13.85 9.25 13.75 9.25 13.45 9.1 13.3 9.45 Z"/>
</g>

<g id="Layer0_0_MEMBER_19_MEMBER_0_MEMBER_1_MEMBER_0_MEMBER_0_MEMBER_8_FILL">
<path fill="#3E312C" stroke="none" d="
M 13.95 6.05
L 14 6.4 14.4 6.4 14.55 6.3 14.55 5.85 14.3 6.05 13.95 6.05 Z"/>
</g>

<g id="Layer0_0_MEMBER_19_MEMBER_0_MEMBER_1_MEMBER_0_MEMBER_0_MEMBER_9_FILL">
<path fill="#3E312C" stroke="none" d="
M 9.6 12.4
L 9.25 12.45 9.35 12.9 9.45 13 9.9 12.9 9.7 12.7 9.6 12.4 Z"/>
</g>

<g id="Layer0_0_MEMBER_19_MEMBER_0_MEMBER_1_MEMBER_0_MEMBER_0_MEMBER_10_FILL">
<path fill="#3E312C" stroke="none" d="
M 13.7 8.5
L 14.1 8.6 14.3 8.55 14.4 8.1 14.1 8.2 13.8 8.15 13.7 8.5 Z"/>
</g>

<g id="Layer0_0_MEMBER_19_MEMBER_0_MEMBER_1_MEMBER_0_MEMBER_0_MEMBER_11_FILL">
<path fill="#3E312C" stroke="none" d="
M 13.8 5.05
L 13.85 5.4 14.3 5.3 14.4 5.15 14.3 4.75 14.1 4.95 13.8 5.05 Z"/>
</g>

<g id="Layer0_0_MEMBER_19_MEMBER_0_MEMBER_1_MEMBER_0_MEMBER_0_MEMBER_12_FILL">
<path fill="#3E312C" stroke="none" d="
M 13.45 4.05
L 13.55 4.4 13.95 4.25 14.05 4.1 13.85 3.65 13.7 3.95 13.45 4.05 Z"/>
</g>

<g id="Layer0_0_MEMBER_19_MEMBER_0_MEMBER_1_MEMBER_0_MEMBER_0_MEMBER_13_FILL">
<path fill="#3E312C" stroke="none" d="
M 13.95 7.45
L 14.35 7.5 14.5 7.45 14.55 7 14.3 7.15 14 7.1 13.95 7.45 Z"/>
</g>

<g id="Layer0_0_MEMBER_19_MEMBER_0_MEMBER_1_MEMBER_0_MEMBER_0_MEMBER_14_FILL">
<path fill="#3E312C" stroke="none" d="
M 2.95 9.8
L 2.6 10 2.55 10.1 2.5 10.15 2.8 10.55 2.9 10.25 3.15 10.1 2.95 9.8 Z"/>
</g>

<g id="Layer0_0_MEMBER_19_MEMBER_0_MEMBER_1_MEMBER_0_MEMBER_0_MEMBER_15_FILL">
<path fill="#3E312C" stroke="none" d="
M 2.6 9.2
L 2.5 8.85 2.1 9 2 9.15 2.2 9.55 2.35 9.3 2.6 9.2 Z"/>
</g>

<g id="Layer0_0_MEMBER_19_MEMBER_0_MEMBER_1_MEMBER_0_MEMBER_0_MEMBER_16_FILL">
<path fill="#3E312C" stroke="none" d="
M 8.6 12.55
L 8.25 12.6 8.25 13 8.35 13.15 8.8 13.1 8.6 12.9 8.6 12.55 Z"/>
</g>

<g id="Layer0_0_MEMBER_19_MEMBER_0_MEMBER_1_MEMBER_0_MEMBER_0_MEMBER_17_FILL">
<path fill="#3E312C" stroke="none" d="
M 3.8 10.85
L 3.6 10.6 3.25 10.9 3.2 11.05 3.55 11.4 3.6 11.1 3.8 10.85 Z"/>
</g>

<g id="Layer0_0_MEMBER_19_MEMBER_0_MEMBER_1_MEMBER_0_MEMBER_0_MEMBER_18_FILL">
<path fill="#3E312C" stroke="none" d="
M 2.05 6.8
L 1.65 6.85 1.5 6.95 1.5 7.4 1.75 7.2 2.1 7.15 2.05 6.8 Z"/>
</g>

<g id="Layer0_0_MEMBER_19_MEMBER_0_MEMBER_1_MEMBER_0_MEMBER_0_MEMBER_19_FILL">
<path fill="#3E312C" stroke="none" d="
M 2.25 8.2
L 2.2 7.85 1.75 7.95 1.65 8.05 1.75 8.5 1.95 8.3 2.25 8.2 Z"/>
</g>

<g id="Layer0_0_MEMBER_19_MEMBER_0_MEMBER_1_MEMBER_0_MEMBER_0_MEMBER_20_FILL">
<path fill="#3E312C" stroke="none" d="
M 6.5 12.4
L 6.15 12.3 6.05 12.7 6.1 12.9 6.55 13 6.45 12.7 6.5 12.4 Z"/>
</g>

<g id="Layer0_0_MEMBER_19_MEMBER_0_MEMBER_1_MEMBER_0_MEMBER_0_MEMBER_21_FILL">
<path fill="#3E312C" stroke="none" d="
M 7.55 12.6
L 7.2 12.55 7.1 12.95 7.2 13.1 7.65 13.15 7.5 12.9 7.55 12.6 Z"/>
</g>

<g id="Layer0_0_MEMBER_19_MEMBER_0_MEMBER_1_MEMBER_0_MEMBER_0_MEMBER_22_FILL">
<path fill="#3E312C" stroke="none" d="
M 5.55 12.05
L 5.2 11.9 5 12.25 5.05 12.45 5.45 12.65 5.4 12.45 5.4 12.35 5.55 12.05 Z"/>
</g>

<g id="Layer0_0_MEMBER_19_MEMBER_0_MEMBER_1_MEMBER_0_MEMBER_0_MEMBER_23_FILL">
<path fill="#3E312C" stroke="none" d="
M 4.6 11.55
L 4.35 11.35 4.1 11.65 4.05 11.85 4.45 12.1 4.45 11.8 4.6 11.55 Z"/>
</g>

<g id="Layer0_0_MEMBER_19_MEMBER_0_MEMBER_1_MEMBER_0_MEMBER_0_MEMBER_24_FILL">
<path fill="#3E312C" stroke="none" d="
M 4.1 1.4
L 4.4 1.5 4.55 1.75 4.85 1.55 4.65 1.2 4.55 1.15 4.5 1.1 4.1 1.4 Z"/>
</g>

<g id="Layer0_0_MEMBER_19_MEMBER_0_MEMBER_1_MEMBER_0_MEMBER_0_MEMBER_25_FILL">
<path fill="#3E312C" stroke="none" d="
M 8.55 0.35
L 8.5 0.65 8.85 0.7 8.95 0.3 8.85 0.15 8.4 0.1 8.55 0.35 Z"/>
</g>

<g id="Layer0_0_MEMBER_19_MEMBER_0_MEMBER_1_MEMBER_0_MEMBER_0_MEMBER_26_FILL">
<path fill="#3E312C" stroke="none" d="
M 10.5 1.2
L 10.85 1.35 11.05 1 11 0.8 10.6 0.6 10.65 0.8 10.65 0.9 10.5 1.2 Z"/>
</g>

<g id="Layer0_0_MEMBER_19_MEMBER_0_MEMBER_1_MEMBER_0_MEMBER_0_MEMBER_27_FILL">
<path fill="#3E312C" stroke="none" d="
M 9.6 0.55
L 9.55 0.85 9.9 0.95 10 0.55 9.95 0.35 9.5 0.25 9.6 0.55 Z"/>
</g>

<g id="Layer0_0_MEMBER_19_MEMBER_0_MEMBER_1_MEMBER_0_MEMBER_0_MEMBER_28_FILL">
<path fill="#3E312C" stroke="none" d="
M 6.15 0.35
L 6.35 0.55 6.45 0.85 6.8 0.8 6.7 0.35 6.6 0.25 6.15 0.35 Z"/>
</g>

<g id="Layer0_0_MEMBER_19_MEMBER_0_MEMBER_1_MEMBER_0_MEMBER_0_MEMBER_29_FILL">
<path fill="#3E312C" stroke="none" d="
M 3.1 3.2
L 3.3 2.95 3 2.7 2.8 2.65 2.55 3.05 2.85 3.05 3.1 3.2 Z"/>
</g>

<g id="Layer0_0_MEMBER_19_MEMBER_0_MEMBER_1_MEMBER_0_MEMBER_0_MEMBER_30_FILL">
<path fill="#3E312C" stroke="none" d="
M 2.25 5.1
L 2.35 4.75 1.95 4.65 1.75 4.7 1.65 5.1 1.95 5.05 2.25 5.1 Z"/>
</g>

<g id="Layer0_0_MEMBER_19_MEMBER_0_MEMBER_1_MEMBER_0_MEMBER_0_MEMBER_31_FILL">
<path fill="#3E312C" stroke="none" d="
M 7.25 0.1
L 7.45 0.35 7.45 0.65 7.8 0.65 7.8 0.25 7.7 0.1 7.25 0.1 Z"/>
</g>

<g id="Layer0_0_MEMBER_19_MEMBER_0_MEMBER_1_MEMBER_0_MEMBER_0_MEMBER_32_FILL">
<path fill="#3E312C" stroke="none" d="
M 5.1 0.8
L 5.35 0.95 5.45 1.2 5.8 1.1 5.65 0.7 5.5 0.6 5.1 0.8 Z"/>
</g>

<g id="Layer0_0_MEMBER_19_MEMBER_0_MEMBER_1_MEMBER_0_MEMBER_0_MEMBER_33_FILL">
<path fill="#3E312C" stroke="none" d="
M 2.6 4.1
L 2.75 3.8 2.4 3.6 2.2 3.65 2 4.05 2.2 4 2.3 4 2.6 4.1 Z"/>
</g>

<g id="Layer0_0_MEMBER_19_MEMBER_0_MEMBER_1_MEMBER_0_MEMBER_0_MEMBER_34_FILL">
<path fill="#3E312C" stroke="none" d="
M 2.05 6.15
L 2.1 5.8 1.7 5.7 1.55 5.8 1.5 6.25 1.75 6.1 2.05 6.15 Z"/>
</g>

<g id="Layer0_0_MEMBER_19_MEMBER_0_MEMBER_1_MEMBER_0_MEMBER_0_MEMBER_35_FILL">
<path fill="#3E312C" stroke="none" d="
M 11.45 1.7
L 11.7 1.9 11.95 1.6 12 1.4 11.6 1.15 11.6 1.45 11.45 1.7 Z"/>
</g>

<g id="Layer0_0_MEMBER_19_MEMBER_0_MEMBER_1_MEMBER_0_MEMBER_0_MEMBER_36_FILL">
<path fill="#3E312C" stroke="none" d="
M 3.8 2.4
L 4.05 2.2 3.75 1.85 3.6 1.8 3.25 2.15 3.55 2.2 3.8 2.4 Z"/>
</g>

<g id="Layer0_0_MEMBER_19_MEMBER_0_MEMBER_1_MEMBER_0_MEMBER_0_MEMBER_37_FILL">
<path fill="#3E312C" stroke="none" d="
M 12.25 2.4
L 12.45 2.65 12.8 2.35 12.85 2.2 12.5 1.85 12.45 2.15 12.25 2.4 Z"/>
</g>

<g id="Layer0_0_MEMBER_19_MEMBER_0_MEMBER_1_MEMBER_1_FILL">
<path fill="#DAD1D1" stroke="none" d="
M 3.1 6.6
Q 3.1 8.65 4.55 10.1 5.95 11.55 8 11.55 10.05 11.55 11.5 10.1 12.95 8.65 12.95 6.6 12.95 4.55 11.5 3.15 10.05 1.7 8 1.7 6 1.7 4.55 3.15 3.1 4.6 3.1 6.6 Z"/>
</g>

<g id="Layer0_0_MEMBER_19_MEMBER_0_MEMBER_1_MEMBER_2_FILL">
<path fill="#3E312C" stroke="none" d="
M 3.95 6.6
Q 3.95 8.3 5.15 9.5 6.35 10.7 8 10.7 9.7 10.7 10.9 9.5 12.1 8.3 12.1 6.6 12.1 4.9 10.9 3.75 9.7 2.55 8 2.55 6.35 2.55 5.15 3.75 3.95 4.9 3.95 6.6 Z"/>
</g>

<g id="Layer0_0_MEMBER_19_MEMBER_0_MEMBER_1_MEMBER_3_MEMBER_0_MEMBER_0_MEMBER_0_FILL">
<path fill="#DAD1D1" stroke="none" d="
M 8.65 7.7
L 7.4 5.55
Q 6.3 6.8 4.25 7.9 3.9 8 4.1 8.4
L 4.55 9.15
Q 4.75 9.45 5.05 9.25 7 8 8.65 7.7 Z"/>
</g>

<g id="Layer0_0_MEMBER_19_MEMBER_0_MEMBER_1_MEMBER_3_MEMBER_0_MEMBER_1_MEMBER_0_FILL">
<path fill="#DAD1D1" stroke="none" d="
M 8.65 5.55
L 7.4 7.7
Q 9.05 8 11 9.25 11.3 9.45 11.5 9.15
L 11.95 8.4
Q 12.15 8 11.8 7.9 9.75 6.8 8.65 5.55 Z"/>
</g>

<g id="Layer0_0_MEMBER_19_MEMBER_0_MEMBER_1_MEMBER_3_MEMBER_0_MEMBER_2_MEMBER_0_FILL">
<path fill="#DAD1D1" stroke="none" d="
M 6.75 6.65
L 9.3 6.65
Q 8.7 4.95 8.8 2.75 8.9 2.4 8.45 2.4
L 7.6 2.4
Q 7.15 2.4 7.25 2.75 7.35 4.95 6.75 6.65 Z"/>
</g>

<g id="Layer0_0_MEMBER_19_MEMBER_0_MEMBER_1_MEMBER_3_MEMBER_1_FILL">
<path fill="#FDFDFD" stroke="none" d="
M 6.5 6.65
Q 6.5 7.3 6.95 7.7 7.4 8.15 8 8.15 8.65 8.15 9.1 7.7 9.55 7.3 9.55 6.65 9.55 6 9.1 5.55 8.65 5.1 8 5.1 7.4 5.1 6.95 5.55 6.5 6 6.5 6.65 Z"/>
</g>

<g id="Layer0_0_MEMBER_19_MEMBER_0_MEMBER_2_FILL">
<path fill="#A7CB64" stroke="none" d="
M 824.85 525.4
L 824.85 507.8 782.65 490 746.05 490 720 510 720 525.9
Q 720.2728515625 525.710546875 720.55 525.5 732.25 517.4 746.65 517.4
L 798.85 517.4
Q 813.1884765625 517.4 824.85 525.4 Z"/>
</g>

<g id="Layer0_0_MEMBER_19_MEMBER_1_FILL">
<path fill="#FFFFFF" stroke="none" d="
M 88.35 47.05
L 88.15 49.05 88.5 49.05 88.5 48.9 88.65 47.1
Q 88.85 45.25 90.2 44.05 91.55 42.85 93.4 42.85
L 99.2 42.85
Q 101.05 42.85 102.4 44.05 103.75 45.25 103.95 47.1
L 104.1 48.9 104.1 49.05 104.45 49.05 104.25 47.05
Q 104.05 45.15 102.65 43.85 101.2 42.55 99.2 42.55
L 93.4 42.55
Q 91.45 42.55 90 43.85 88.55 45.15 88.35 47.05 Z"/>
</g>
</defs>

<g transform="matrix( 9, 0, 0, 9, -93.95,133.1) ">
<use xlink:href="#Layer0_0_MEMBER_0_FILL"/>
</g>

<g transform="matrix( 9, 0, 0, 9, -93.95,133.1) ">
<use xlink:href="#Layer0_0_MEMBER_1_FILL"/>
</g>

<g transform="matrix( 9, 0, 0, 9, -93.95,133.1) ">
<use xlink:href="#Layer0_0_MEMBER_2_FILL"/>
</g>

<g transform="matrix( 9, 0, 0, 9, 117.1,454.4) ">
<use xlink:href="#Layer0_0_MEMBER_3_FILL"/>
</g>

<g transform="matrix( 9, 0, 0, 9, -93.95,133.1) ">
<use xlink:href="#Layer0_0_MEMBER_4_FILL"/>
</g>

<g transform="matrix( 9, 0, 0, 9, -93.95,133.1) ">
<use xlink:href="#Layer0_0_MEMBER_5_FILL"/>
</g>

<g transform="matrix( 9, 0, 0, 9, -93.95,133.1) ">
<use xlink:href="#Layer0_0_MEMBER_6_FILL"/>
</g>

<g transform="matrix( 9, 0, 0, 9, -93.95,133.1) ">
<use xlink:href="#Layer0_0_MEMBER_7_FILL"/>
</g>

<g transform="matrix( 9, 0, 0, 9, -93.95,133.1) ">
<use xlink:href="#Layer0_0_MEMBER_8_FILL"/>
</g>

<g transform="matrix( 9, 0, 0, 9, 433,458) ">
<use xlink:href="#Layer0_0_MEMBER_9_FILL"/>
</g>

<g transform="matrix( 9, 0, 0, 9, 111.7,608.75) ">
<use xlink:href="#Layer0_0_MEMBER_10_FILL"/>
</g>

<g transform="matrix( 9, 0, 0, 9, -93.95,133.1) ">
<use xlink:href="#Layer0_0_MEMBER_11_FILL"/>
</g>

<g transform="matrix( 9, 0, 0, 9, 474.85,401.75) ">
<use xlink:href="#Layer0_0_MEMBER_12_MEMBER_0_FILL"/>
</g>

<g transform="matrix( 9, 0, 0, 9, 474.85,401.75) ">
<use xlink:href="#Layer0_0_MEMBER_12_MEMBER_1_FILL"/>
</g>

<g transform="matrix( 9, 0, 0, 9, -93.95,133.1) ">
<use xlink:href="#Layer0_0_MEMBER_13_FILL"/>
</g>

<g transform="matrix( 9, 0, 0, 9, -93.95,133.1) ">
<use xlink:href="#Layer0_0_MEMBER_14_FILL"/>
</g>

<g transform="matrix( 9, 0, 0, 9, 228.7,499.85) ">
<use xlink:href="#Layer0_0_MEMBER_15_MEMBER_0_MEMBER_0_MEMBER_0_FILL"/>
</g>

<g transform="matrix( 9, 0, 0, 9, 228.7,499.85) ">
<use xlink:href="#Layer0_0_MEMBER_15_MEMBER_0_MEMBER_0_MEMBER_1_FILL"/>
</g>

<g transform="matrix( 9, 0, 0, 9, 228.7,499.85) ">
<use xlink:href="#Layer0_0_MEMBER_15_MEMBER_0_MEMBER_0_MEMBER_2_FILL"/>
</g>

<g transform="matrix( 9, 0, 0, 9, 228.7,499.85) ">
<use xlink:href="#Layer0_0_MEMBER_15_MEMBER_0_MEMBER_0_MEMBER_3_FILL"/>
</g>

<g transform="matrix( 9, 0, 0, 9, 228.7,499.85) ">
<use xlink:href="#Layer0_0_MEMBER_15_MEMBER_0_MEMBER_0_MEMBER_4_FILL"/>
</g>

<g transform="matrix( 9, 0, 0, 9, 228.7,499.85) ">
<use xlink:href="#Layer0_0_MEMBER_15_MEMBER_0_MEMBER_0_MEMBER_5_FILL"/>
</g>

<g transform="matrix( 9, 0, 0, 9, 228.7,499.85) ">
<use xlink:href="#Layer0_0_MEMBER_15_MEMBER_0_MEMBER_0_MEMBER_6_FILL"/>
</g>

<g transform="matrix( 9, 0, 0, 9, 228.7,499.85) ">
<use xlink:href="#Layer0_0_MEMBER_15_MEMBER_0_MEMBER_0_MEMBER_7_FILL"/>
</g>

<g transform="matrix( 9, 0, 0, 9, 228.7,499.85) ">
<use xlink:href="#Layer0_0_MEMBER_15_MEMBER_0_MEMBER_0_MEMBER_8_FILL"/>
</g>

<g transform="matrix( 9, 0, 0, 9, 228.7,499.85) ">
<use xlink:href="#Layer0_0_MEMBER_15_MEMBER_0_MEMBER_0_MEMBER_9_FILL"/>
</g>

<g transform="matrix( 9, 0, 0, 9, 228.7,499.85) ">
<use xlink:href="#Layer0_0_MEMBER_15_MEMBER_0_MEMBER_0_MEMBER_10_FILL"/>
</g>

<g transform="matrix( 9, 0, 0, 9, 228.7,499.85) ">
<use xlink:href="#Layer0_0_MEMBER_15_MEMBER_0_MEMBER_0_MEMBER_11_FILL"/>
</g>

<g transform="matrix( 9, 0, 0, 9, 228.7,499.85) ">
<use xlink:href="#Layer0_0_MEMBER_15_MEMBER_0_MEMBER_0_MEMBER_12_FILL"/>
</g>

<g transform="matrix( 9, 0, 0, 9, 228.7,499.85) ">
<use xlink:href="#Layer0_0_MEMBER_15_MEMBER_0_MEMBER_0_MEMBER_13_FILL"/>
</g>

<g transform="matrix( 9, 0, 0, 9, 228.7,499.85) ">
<use xlink:href="#Layer0_0_MEMBER_15_MEMBER_0_MEMBER_0_MEMBER_14_FILL"/>
</g>

<g transform="matrix( 9, 0, 0, 9, 228.7,499.85) ">
<use xlink:href="#Layer0_0_MEMBER_15_MEMBER_0_MEMBER_0_MEMBER_15_FILL"/>
</g>

<g transform="matrix( 9, 0, 0, 9, 228.7,499.85) ">
<use xlink:href="#Layer0_0_MEMBER_15_MEMBER_0_MEMBER_0_MEMBER_16_FILL"/>
</g>

<g transform="matrix( 9, 0, 0, 9, 228.7,499.85) ">
<use xlink:href="#Layer0_0_MEMBER_15_MEMBER_0_MEMBER_0_MEMBER_17_FILL"/>
</g>

<g transform="matrix( 9, 0, 0, 9, 228.7,499.85) ">
<use xlink:href="#Layer0_0_MEMBER_15_MEMBER_0_MEMBER_0_MEMBER_18_FILL"/>
</g>

<g transform="matrix( 9, 0, 0, 9, 228.7,499.85) ">
<use xlink:href="#Layer0_0_MEMBER_15_MEMBER_0_MEMBER_0_MEMBER_19_FILL"/>
</g>

<g transform="matrix( 9, 0, 0, 9, 228.7,499.85) ">
<use xlink:href="#Layer0_0_MEMBER_15_MEMBER_0_MEMBER_0_MEMBER_20_FILL"/>
</g>

<g transform="matrix( 9, 0, 0, 9, 228.7,499.85) ">
<use xlink:href="#Layer0_0_MEMBER_15_MEMBER_0_MEMBER_0_MEMBER_21_FILL"/>
</g>

<g transform="matrix( 9, 0, 0, 9, 228.7,499.85) ">
<use xlink:href="#Layer0_0_MEMBER_15_MEMBER_0_MEMBER_0_MEMBER_22_FILL"/>
</g>

<g transform="matrix( 9, 0, 0, 9, 228.7,499.85) ">
<use xlink:href="#Layer0_0_MEMBER_15_MEMBER_0_MEMBER_0_MEMBER_23_FILL"/>
</g>

<g transform="matrix( 9, 0, 0, 9, 228.7,499.85) ">
<use xlink:href="#Layer0_0_MEMBER_15_MEMBER_0_MEMBER_0_MEMBER_24_FILL"/>
</g>

<g transform="matrix( 9, 0, 0, 9, 228.7,499.85) ">
<use xlink:href="#Layer0_0_MEMBER_15_MEMBER_0_MEMBER_0_MEMBER_25_FILL"/>
</g>

<g transform="matrix( 9, 0, 0, 9, 228.7,499.85) ">
<use xlink:href="#Layer0_0_MEMBER_15_MEMBER_0_MEMBER_0_MEMBER_26_FILL"/>
</g>

<g transform="matrix( 9, 0, 0, 9, 228.7,499.85) ">
<use xlink:href="#Layer0_0_MEMBER_15_MEMBER_0_MEMBER_0_MEMBER_27_FILL"/>
</g>

<g transform="matrix( 9, 0, 0, 9, 228.7,499.85) ">
<use xlink:href="#Layer0_0_MEMBER_15_MEMBER_0_MEMBER_0_MEMBER_28_FILL"/>
</g>

<g transform="matrix( 9, 0, 0, 9, 228.7,499.85) ">
<use xlink:href="#Layer0_0_MEMBER_15_MEMBER_0_MEMBER_0_MEMBER_29_FILL"/>
</g>

<g transform="matrix( 9, 0, 0, 9, 228.7,499.85) ">
<use xlink:href="#Layer0_0_MEMBER_15_MEMBER_0_MEMBER_0_MEMBER_30_FILL"/>
</g>

<g transform="matrix( 9, 0, 0, 9, 228.7,499.85) ">
<use xlink:href="#Layer0_0_MEMBER_15_MEMBER_0_MEMBER_0_MEMBER_31_FILL"/>
</g>

<g transform="matrix( 9, 0, 0, 9, 228.7,499.85) ">
<use xlink:href="#Layer0_0_MEMBER_15_MEMBER_0_MEMBER_0_MEMBER_32_FILL"/>
</g>

<g transform="matrix( 9, 0, 0, 9, 228.7,499.85) ">
<use xlink:href="#Layer0_0_MEMBER_15_MEMBER_0_MEMBER_0_MEMBER_33_FILL"/>
</g>

<g transform="matrix( 9, 0, 0, 9, 228.7,499.85) ">
<use xlink:href="#Layer0_0_MEMBER_15_MEMBER_0_MEMBER_0_MEMBER_34_FILL"/>
</g>

<g transform="matrix( 9, 0, 0, 9, 228.7,499.85) ">
<use xlink:href="#Layer0_0_MEMBER_15_MEMBER_0_MEMBER_0_MEMBER_35_FILL"/>
</g>

<g transform="matrix( 9, 0, 0, 9, 228.7,499.85) ">
<use xlink:href="#Layer0_0_MEMBER_15_MEMBER_0_MEMBER_0_MEMBER_36_FILL"/>
</g>

<g transform="matrix( 9, 0, 0, 9, 228.7,499.85) ">
<use xlink:href="#Layer0_0_MEMBER_15_MEMBER_0_MEMBER_0_MEMBER_37_FILL"/>
</g>

<g transform="matrix( 9, 0, 0, 9, 228.7,499.85) ">
<use xlink:href="#Layer0_0_MEMBER_15_MEMBER_1_FILL"/>
</g>

<g transform="matrix( 9, 0, 0, 9, 228.7,499.85) ">
<use xlink:href="#Layer0_0_MEMBER_15_MEMBER_2_FILL"/>
</g>

<g transform="matrix( 9, 0, 0, 9, 228.7,499.85) ">
<use xlink:href="#Layer0_0_MEMBER_15_MEMBER_3_MEMBER_0_MEMBER_0_MEMBER_0_FILL"/>
</g>

<g transform="matrix( 9, 0, 0, 9, 228.7,499.85) ">
<use xlink:href="#Layer0_0_MEMBER_15_MEMBER_3_MEMBER_0_MEMBER_1_MEMBER_0_FILL"/>
</g>

<g transform="matrix( 9, 0, 0, 9, 228.7,499.85) ">
<use xlink:href="#Layer0_0_MEMBER_15_MEMBER_3_MEMBER_0_MEMBER_2_MEMBER_0_FILL"/>
</g>

<g transform="matrix( 9, 0, 0, 9, 228.7,499.85) ">
<use xlink:href="#Layer0_0_MEMBER_15_MEMBER_3_MEMBER_1_FILL"/>
</g>

<g transform="matrix( 1, 0, 0, 1, 0,0) ">
<use xlink:href="#Layer0_0_MEMBER_16_FILL"/>
</g>

<g transform="matrix( 1, 0, 0, 1, 0,0) ">
<use xlink:href="#Layer0_0_MEMBER_17_FILL"/>
</g>

<g transform="matrix( 9, 0, 0, 9, -93.95,133.1) ">
<use xlink:href="#Layer0_0_MEMBER_18_FILL"/>
</g>

<g transform="matrix( 9, 0, 0, 9, -93.95,133.1) ">
<use xlink:href="#Layer0_0_MEMBER_19_MEMBER_0_MEMBER_0_FILL"/>
</g>

<g transform="matrix( 9, 0, 0, 9, 701.2,499.85) ">
<use xlink:href="#Layer0_0_MEMBER_19_MEMBER_0_MEMBER_1_MEMBER_0_MEMBER_0_MEMBER_0_FILL"/>
</g>

<g transform="matrix( 9, 0, 0, 9, 701.2,499.85) ">
<use xlink:href="#Layer0_0_MEMBER_19_MEMBER_0_MEMBER_1_MEMBER_0_MEMBER_0_MEMBER_1_FILL"/>
</g>

<g transform="matrix( 9, 0, 0, 9, 701.2,499.85) ">
<use xlink:href="#Layer0_0_MEMBER_19_MEMBER_0_MEMBER_1_MEMBER_0_MEMBER_0_MEMBER_2_FILL"/>
</g>

<g transform="matrix( 9, 0, 0, 9, 701.2,499.85) ">
<use xlink:href="#Layer0_0_MEMBER_19_MEMBER_0_MEMBER_1_MEMBER_0_MEMBER_0_MEMBER_3_FILL"/>
</g>

<g transform="matrix( 9, 0, 0, 9, 701.2,499.85) ">
<use xlink:href="#Layer0_0_MEMBER_19_MEMBER_0_MEMBER_1_MEMBER_0_MEMBER_0_MEMBER_4_FILL"/>
</g>

<g transform="matrix( 9, 0, 0, 9, 701.2,499.85) ">
<use xlink:href="#Layer0_0_MEMBER_19_MEMBER_0_MEMBER_1_MEMBER_0_MEMBER_0_MEMBER_5_FILL"/>
</g>

<g transform="matrix( 9, 0, 0, 9, 701.2,499.85) ">
<use xlink:href="#Layer0_0_MEMBER_19_MEMBER_0_MEMBER_1_MEMBER_0_MEMBER_0_MEMBER_6_FILL"/>
</g>

<g transform="matrix( 9, 0, 0, 9, 701.2,499.85) ">
<use xlink:href="#Layer0_0_MEMBER_19_MEMBER_0_MEMBER_1_MEMBER_0_MEMBER_0_MEMBER_7_FILL"/>
</g>

<g transform="matrix( 9, 0, 0, 9, 701.2,499.85) ">
<use xlink:href="#Layer0_0_MEMBER_19_MEMBER_0_MEMBER_1_MEMBER_0_MEMBER_0_MEMBER_8_FILL"/>
</g>

<g transform="matrix( 9, 0, 0, 9, 701.2,499.85) ">
<use xlink:href="#Layer0_0_MEMBER_19_MEMBER_0_MEMBER_1_MEMBER_0_MEMBER_0_MEMBER_9_FILL"/>
</g>

<g transform="matrix( 9, 0, 0, 9, 701.2,499.85) ">
<use xlink:href="#Layer0_0_MEMBER_19_MEMBER_0_MEMBER_1_MEMBER_0_MEMBER_0_MEMBER_10_FILL"/>
</g>

<g transform="matrix( 9, 0, 0, 9, 701.2,499.85) ">
<use xlink:href="#Layer0_0_MEMBER_19_MEMBER_0_MEMBER_1_MEMBER_0_MEMBER_0_MEMBER_11_FILL"/>
</g>

<g transform="matrix( 9, 0, 0, 9, 701.2,499.85) ">
<use xlink:href="#Layer0_0_MEMBER_19_MEMBER_0_MEMBER_1_MEMBER_0_MEMBER_0_MEMBER_12_FILL"/>
</g>

<g transform="matrix( 9, 0, 0, 9, 701.2,499.85) ">
<use xlink:href="#Layer0_0_MEMBER_19_MEMBER_0_MEMBER_1_MEMBER_0_MEMBER_0_MEMBER_13_FILL"/>
</g>

<g transform="matrix( 9, 0, 0, 9, 701.2,499.85) ">
<use xlink:href="#Layer0_0_MEMBER_19_MEMBER_0_MEMBER_1_MEMBER_0_MEMBER_0_MEMBER_14_FILL"/>
</g>

<g transform="matrix( 9, 0, 0, 9, 701.2,499.85) ">
<use xlink:href="#Layer0_0_MEMBER_19_MEMBER_0_MEMBER_1_MEMBER_0_MEMBER_0_MEMBER_15_FILL"/>
</g>

<g transform="matrix( 9, 0, 0, 9, 701.2,499.85) ">
<use xlink:href="#Layer0_0_MEMBER_19_MEMBER_0_MEMBER_1_MEMBER_0_MEMBER_0_MEMBER_16_FILL"/>
</g>

<g transform="matrix( 9, 0, 0, 9, 701.2,499.85) ">
<use xlink:href="#Layer0_0_MEMBER_19_MEMBER_0_MEMBER_1_MEMBER_0_MEMBER_0_MEMBER_17_FILL"/>
</g>

<g transform="matrix( 9, 0, 0, 9, 701.2,499.85) ">
<use xlink:href="#Layer0_0_MEMBER_19_MEMBER_0_MEMBER_1_MEMBER_0_MEMBER_0_MEMBER_18_FILL"/>
</g>

<g transform="matrix( 9, 0, 0, 9, 701.2,499.85) ">
<use xlink:href="#Layer0_0_MEMBER_19_MEMBER_0_MEMBER_1_MEMBER_0_MEMBER_0_MEMBER_19_FILL"/>
</g>

<g transform="matrix( 9, 0, 0, 9, 701.2,499.85) ">
<use xlink:href="#Layer0_0_MEMBER_19_MEMBER_0_MEMBER_1_MEMBER_0_MEMBER_0_MEMBER_20_FILL"/>
</g>

<g transform="matrix( 9, 0, 0, 9, 701.2,499.85) ">
<use xlink:href="#Layer0_0_MEMBER_19_MEMBER_0_MEMBER_1_MEMBER_0_MEMBER_0_MEMBER_21_FILL"/>
</g>

<g transform="matrix( 9, 0, 0, 9, 701.2,499.85) ">
<use xlink:href="#Layer0_0_MEMBER_19_MEMBER_0_MEMBER_1_MEMBER_0_MEMBER_0_MEMBER_22_FILL"/>
</g>

<g transform="matrix( 9, 0, 0, 9, 701.2,499.85) ">
<use xlink:href="#Layer0_0_MEMBER_19_MEMBER_0_MEMBER_1_MEMBER_0_MEMBER_0_MEMBER_23_FILL"/>
</g>

<g transform="matrix( 9, 0, 0, 9, 701.2,499.85) ">
<use xlink:href="#Layer0_0_MEMBER_19_MEMBER_0_MEMBER_1_MEMBER_0_MEMBER_0_MEMBER_24_FILL"/>
</g>

<g transform="matrix( 9, 0, 0, 9, 701.2,499.85) ">
<use xlink:href="#Layer0_0_MEMBER_19_MEMBER_0_MEMBER_1_MEMBER_0_MEMBER_0_MEMBER_25_FILL"/>
</g>

<g transform="matrix( 9, 0, 0, 9, 701.2,499.85) ">
<use xlink:href="#Layer0_0_MEMBER_19_MEMBER_0_MEMBER_1_MEMBER_0_MEMBER_0_MEMBER_26_FILL"/>
</g>

<g transform="matrix( 9, 0, 0, 9, 701.2,499.85) ">
<use xlink:href="#Layer0_0_MEMBER_19_MEMBER_0_MEMBER_1_MEMBER_0_MEMBER_0_MEMBER_27_FILL"/>
</g>

<g transform="matrix( 9, 0, 0, 9, 701.2,499.85) ">
<use xlink:href="#Layer0_0_MEMBER_19_MEMBER_0_MEMBER_1_MEMBER_0_MEMBER_0_MEMBER_28_FILL"/>
</g>

<g transform="matrix( 9, 0, 0, 9, 701.2,499.85) ">
<use xlink:href="#Layer0_0_MEMBER_19_MEMBER_0_MEMBER_1_MEMBER_0_MEMBER_0_MEMBER_29_FILL"/>
</g>

<g transform="matrix( 9, 0, 0, 9, 701.2,499.85) ">
<use xlink:href="#Layer0_0_MEMBER_19_MEMBER_0_MEMBER_1_MEMBER_0_MEMBER_0_MEMBER_30_FILL"/>
</g>

<g transform="matrix( 9, 0, 0, 9, 701.2,499.85) ">
<use xlink:href="#Layer0_0_MEMBER_19_MEMBER_0_MEMBER_1_MEMBER_0_MEMBER_0_MEMBER_31_FILL"/>
</g>

<g transform="matrix( 9, 0, 0, 9, 701.2,499.85) ">
<use xlink:href="#Layer0_0_MEMBER_19_MEMBER_0_MEMBER_1_MEMBER_0_MEMBER_0_MEMBER_32_FILL"/>
</g>

<g transform="matrix( 9, 0, 0, 9, 701.2,499.85) ">
<use xlink:href="#Layer0_0_MEMBER_19_MEMBER_0_MEMBER_1_MEMBER_0_MEMBER_0_MEMBER_33_FILL"/>
</g>

<g transform="matrix( 9, 0, 0, 9, 701.2,499.85) ">
<use xlink:href="#Layer0_0_MEMBER_19_MEMBER_0_MEMBER_1_MEMBER_0_MEMBER_0_MEMBER_34_FILL"/>
</g>

<g transform="matrix( 9, 0, 0, 9, 701.2,499.85) ">
<use xlink:href="#Layer0_0_MEMBER_19_MEMBER_0_MEMBER_1_MEMBER_0_MEMBER_0_MEMBER_35_FILL"/>
</g>

<g transform="matrix( 9, 0, 0, 9, 701.2,499.85) ">
<use xlink:href="#Layer0_0_MEMBER_19_MEMBER_0_MEMBER_1_MEMBER_0_MEMBER_0_MEMBER_36_FILL"/>
</g>

<g transform="matrix( 9, 0, 0, 9, 701.2,499.85) ">
<use xlink:href="#Layer0_0_MEMBER_19_MEMBER_0_MEMBER_1_MEMBER_0_MEMBER_0_MEMBER_37_FILL"/>
</g>

<g transform="matrix( 9, 0, 0, 9, 701.2,499.85) ">
<use xlink:href="#Layer0_0_MEMBER_19_MEMBER_0_MEMBER_1_MEMBER_1_FILL"/>
</g>

<g transform="matrix( 9, 0, 0, 9, 701.2,499.85) ">
<use xlink:href="#Layer0_0_MEMBER_19_MEMBER_0_MEMBER_1_MEMBER_2_FILL"/>
</g>

<g transform="matrix( 9, 0, 0, 9, 701.2,499.85) ">
<use xlink:href="#Layer0_0_MEMBER_19_MEMBER_0_MEMBER_1_MEMBER_3_MEMBER_0_MEMBER_0_MEMBER_0_FILL"/>
</g>

<g transform="matrix( 9, 0, 0, 9, 701.2,499.85) ">
<use xlink:href="#Layer0_0_MEMBER_19_MEMBER_0_MEMBER_1_MEMBER_3_MEMBER_0_MEMBER_1_MEMBER_0_FILL"/>
</g>

<g transform="matrix( 9, 0, 0, 9, 701.2,499.85) ">
<use xlink:href="#Layer0_0_MEMBER_19_MEMBER_0_MEMBER_1_MEMBER_3_MEMBER_0_MEMBER_2_MEMBER_0_FILL"/>
</g>

<g transform="matrix( 9, 0, 0, 9, 701.2,499.85) ">
<use xlink:href="#Layer0_0_MEMBER_19_MEMBER_0_MEMBER_1_MEMBER_3_MEMBER_1_FILL"/>
</g>

<g transform="matrix( 1, 0, 0, 1, 0,0) ">
<use xlink:href="#Layer0_0_MEMBER_19_MEMBER_0_MEMBER_2_FILL"/>
</g>

<g transform="matrix( 9, 0, 0, 9, -93.95,133.1) ">
<use xlink:href="#Layer0_0_MEMBER_19_MEMBER_1_FILL"/>
</g>
</svg>
