<svg width="532" height="129" viewBox="0 0 532 129" fill="none" xmlns="http://www.w3.org/2000/svg">
<path d="M55.47 103.55L90.22 118.19L454.05 118.08L421.01 46.1201L72.32 50.0101L55.47 103.55Z" fill="#050505"/>
<path d="M105.92 128.11C126.531 128.11 143.24 111.401 143.24 90.7899C143.24 70.1787 126.531 53.47 105.92 53.47C85.3087 53.47 68.6 70.1787 68.6 90.7899C68.6 111.401 85.3087 128.11 105.92 128.11Z" fill="#1E1E1E"/>
<path d="M105.92 120.11C122.113 120.11 135.24 106.983 135.24 90.7899C135.24 74.597 122.113 61.47 105.92 61.47C89.727 61.47 76.6 74.597 76.6 90.7899C76.6 106.983 89.727 120.11 105.92 120.11Z" fill="black"/>
<path d="M105.92 121.39C99.8679 121.39 93.9517 119.595 88.9195 116.233C83.8874 112.871 79.9653 108.091 77.6492 102.5C75.3332 96.9086 74.7272 90.756 75.9079 84.8202C77.0886 78.8844 80.003 73.432 84.2825 69.1525C88.562 64.873 94.0144 61.9586 99.9502 60.7779C105.886 59.5972 112.039 60.2032 117.63 62.5193C123.221 64.8353 128.001 68.7574 131.363 73.7895C134.725 78.8217 136.52 84.7378 136.52 90.7899C136.509 98.9023 133.282 106.679 127.546 112.416C121.809 118.152 114.032 121.379 105.92 121.39ZM105.92 62.75C100.382 62.75 94.9686 64.3921 90.364 67.4688C85.7594 70.5455 82.1706 74.9185 80.0513 80.0348C77.9321 85.1511 77.3776 90.781 78.458 96.2125C79.5384 101.644 82.2051 106.633 86.121 110.549C90.0368 114.465 95.026 117.132 100.457 118.212C105.889 119.292 111.519 118.738 116.635 116.619C121.751 114.499 126.124 110.911 129.201 106.306C132.278 101.701 133.92 96.2878 133.92 90.75C133.901 83.3296 130.946 76.2184 125.699 70.9714C120.452 65.7244 113.34 62.7684 105.92 62.75Z" fill="#232323"/>
<path d="M105.92 94.79C108.129 94.79 109.92 92.9992 109.92 90.79C109.92 88.5809 108.129 86.79 105.92 86.79C103.711 86.79 101.92 88.5809 101.92 90.79C101.92 92.9992 103.711 94.79 105.92 94.79Z" fill="#CCCCCC"/>
<g opacity="0.2">
<path opacity="0.2" d="M105.92 98.81C110.349 98.81 113.94 95.2193 113.94 90.79C113.94 86.3607 110.349 82.77 105.92 82.77C101.491 82.77 97.9 86.3607 97.9 90.79C97.9 95.2193 101.491 98.81 105.92 98.81Z" fill="#CCCCCC"/>
</g>
<path d="M105.8 84.0299C105.201 84.0463 104.603 83.9858 104.02 83.8499C99.8399 82.4099 95.5699 69.7999 95.5499 64.6799C95.5499 62.8099 96.0899 61.6799 97.1699 61.2799C101.02 59.9199 112.74 60.0399 115.35 61.4699C115.727 61.7174 116.036 62.0561 116.247 62.4546C116.459 62.8532 116.566 63.2987 116.56 63.7499C116.95 68.0899 113.01 80.0199 108.86 83.3799C107.923 83.8844 106.861 84.11 105.8 84.0299ZM104.8 81.4199C105.637 81.5106 106.483 81.4769 107.31 81.3199C111.11 78.1099 114.66 65.7599 113.93 63.6299C111.74 62.7099 101.64 62.5399 98.1799 63.6299C97.8199 64.5799 98.2699 68.4199 100.09 73.4199C101.85 78.1799 103.79 81.0399 104.83 81.4199H104.8Z" fill="#686766"/>
<path d="M86.1299 93.5301C83.35 93.5935 80.5743 93.2773 77.8799 92.5901C76.0999 92.0101 75.1799 91.14 75.1499 89.99C75.0499 85.91 78.7799 74.8 80.9399 72.76C81.2933 72.4774 81.7124 72.2888 82.1583 72.2119C82.6042 72.1349 83.0623 72.1721 83.4899 72.32C87.7399 73.32 97.8699 80.72 99.7799 85.7C100.25 86.92 99.1999 89.83 98.7799 90.45C97.0899 92.63 91.3999 93.5301 86.1299 93.5301ZM77.7099 89.74C78.4999 90.37 82.2799 91.1201 87.5999 90.9401C92.6699 90.7701 95.9899 89.8001 96.6699 88.9401C97.0175 88.1758 97.2467 87.3632 97.3499 86.5301C95.4699 81.9301 84.8799 74.76 82.5999 74.76C81.0199 76.55 77.7399 86.11 77.7099 89.74Z" fill="#686766"/>
<path d="M96.2399 119.9C96.0431 119.9 95.8474 119.87 95.6599 119.81C91.7399 118.64 82.3299 111.66 81.0499 108.97C80.8915 108.547 80.8424 108.09 80.9071 107.643C80.9717 107.195 81.1481 106.771 81.42 106.41C83.66 102.67 93.8499 95.34 99.1799 95.05C100.49 94.99 102.93 96.89 103.38 97.52C105.92 101.14 101.95 113.86 98.9599 118.01C98.0599 119.27 97.1499 119.9 96.2399 119.9ZM83.4599 108.03C84.6899 110.03 92.7699 116.14 96.2099 117.3C97.0599 116.74 98.95 113.37 100.42 108.3C101.81 103.44 101.92 99.98 101.31 99.06C100.685 98.4975 99.9805 98.0292 99.2199 97.67C94.2399 97.99 84.1099 105.88 83.4599 108.03Z" fill="#686766"/>
<path d="M115.28 120.07C114.872 120.038 114.475 119.918 114.118 119.717C113.76 119.517 113.45 119.242 113.21 118.91C110.34 115.63 106.51 103.67 107.89 98.52C108.23 97.25 110.8 95.52 111.54 95.29C115.78 94 126.63 101.69 129.66 105.82C130.77 107.33 131 108.57 130.34 109.52C128.03 112.88 118.47 119.68 115.53 120.06L115.28 120.07ZM110.34 99.27C109.15 104.11 113.53 116.19 115.34 117.48C117.65 116.93 125.92 111.13 128.08 108.22C127.82 107.22 125.2 104.4 120.79 101.42C116.59 98.59 113.32 97.42 112.27 97.72C111.552 98.1368 110.902 98.6593 110.34 99.27Z" fill="#686766"/>
<path d="M126.38 93.6899C121.65 93.6899 116.44 92.9599 113.88 91.2999C112.78 90.5899 111.88 87.6099 111.94 86.8399C112.01 82.4199 122.68 74.4599 127.55 72.8399C129.33 72.2499 130.55 72.4099 131.28 73.3299C133.76 76.5699 137.28 87.7599 136.72 90.6799C136.603 91.1161 136.375 91.5151 136.06 91.8389C135.745 92.1627 135.353 92.4006 134.92 92.5299C133.2 93.2699 129.93 93.6899 126.38 93.6899ZM115.38 89.2099C119.62 91.8299 132.46 91.3999 134.25 90.0499C134.45 87.6799 131.49 78.0499 129.38 75.0499C128.31 75.0499 124.86 76.6199 120.67 79.8899C116.67 83.0099 114.56 85.7399 114.51 86.8899C114.683 87.6994 114.969 88.4804 115.36 89.2099H115.38Z" fill="#686766"/>
<path d="M397.92 127.81C416.996 127.81 432.46 112.346 432.46 93.27C432.46 74.1941 416.996 58.73 397.92 58.73C378.844 58.73 363.38 74.1941 363.38 93.27C363.38 112.346 378.844 127.81 397.92 127.81Z" fill="#1E1E1E"/>
<path d="M397.92 120.41C412.909 120.41 425.06 108.259 425.06 93.2699C425.06 78.2809 412.909 66.1299 397.92 66.1299C382.931 66.1299 370.78 78.2809 370.78 93.2699C370.78 108.259 382.931 120.41 397.92 120.41Z" fill="black"/>
<path d="M397.92 121.69C392.299 121.69 386.804 120.023 382.131 116.9C377.457 113.778 373.814 109.339 371.663 104.146C369.512 98.9529 368.949 93.2386 370.046 87.7257C371.143 82.2127 373.849 77.1488 377.824 73.1741C381.799 69.1995 386.863 66.4928 392.376 65.3962C397.888 64.2996 403.603 64.8624 408.796 67.0135C413.989 69.1645 418.428 72.8072 421.55 77.4808C424.673 82.1545 426.34 87.6492 426.34 93.2701C426.332 100.805 423.335 108.029 418.007 113.357C412.679 118.685 405.455 121.682 397.92 121.69ZM397.92 67.4101C392.805 67.4101 387.806 68.9268 383.553 71.7683C379.3 74.6099 375.986 78.6486 374.029 83.3739C372.071 88.0992 371.559 93.2988 372.557 98.3152C373.555 103.332 376.018 107.939 379.634 111.556C383.251 115.172 387.859 117.635 392.875 118.633C397.891 119.631 403.091 119.119 407.816 117.162C412.542 115.204 416.58 111.89 419.422 107.637C422.263 103.384 423.78 98.3847 423.78 93.2701C423.772 86.4141 421.045 79.8411 416.197 74.9931C411.349 70.1451 404.776 67.4181 397.92 67.4101Z" fill="#232323"/>
<path d="M397.92 96.9701C399.963 96.9701 401.62 95.3135 401.62 93.2701C401.62 91.2266 399.963 89.5701 397.92 89.5701C395.877 89.5701 394.22 91.2266 394.22 93.2701C394.22 95.3135 395.877 96.9701 397.92 96.9701Z" fill="#CCCCCC"/>
<g opacity="0.2">
<path opacity="0.2" d="M397.92 100.7C402.023 100.7 405.35 97.3736 405.35 93.2701C405.35 89.1666 402.023 85.8401 397.92 85.8401C393.817 85.8401 390.49 89.1666 390.49 93.2701C390.49 97.3736 393.817 100.7 397.92 100.7Z" fill="#CCCCCC"/>
</g>
<path d="M397.85 87.11C397.271 87.1285 396.692 87.0679 396.13 86.93C392.23 85.6 388.25 73.86 388.23 69.1C388.23 67.32 388.74 66.23 389.79 65.87C393.37 64.6 404.27 64.72 406.7 66.04C407.062 66.2799 407.359 66.6072 407.561 66.9917C407.764 67.3761 407.867 67.8054 407.86 68.24C408.23 72.24 404.56 83.36 400.71 86.49C399.836 86.9667 398.843 87.1819 397.85 87.11ZM396.94 84.5C397.69 84.5824 398.448 84.5555 399.19 84.42C402.59 81.51 405.87 70.27 405.29 68.21C403.29 67.44 394.29 67.16 390.86 68.21C390.57 69.14 390.98 72.86 392.86 77.85C394.46 81.98 396.1 84.19 396.94 84.5Z" fill="#686766"/>
<path d="M379.57 95.8999C376.998 95.9634 374.43 95.6672 371.94 95.0199C370.25 94.4799 369.37 93.6499 369.34 92.5399C369.25 88.7399 372.73 78.4099 374.74 76.5399C375.077 76.2667 375.477 76.0839 375.904 76.0087C376.331 75.9334 376.77 75.9683 377.18 76.1099C381.13 77.0099 390.55 83.9199 392.33 88.5599C392.79 89.7599 391.76 92.4799 391.33 93.0499C389.81 95.0599 384.46 95.8999 379.57 95.8999ZM371.9 92.2699C372.77 92.8899 376.78 93.5599 381.71 93.2699C386.13 93.0399 388.71 92.1899 389.28 91.4899C389.588 90.7995 389.797 90.0689 389.9 89.3199C388.18 85.1899 378.5 78.5899 376.36 78.5099C375.03 80.1499 371.95 88.6899 371.9 92.2699Z" fill="#686766"/>
<path d="M388.96 120.27C388.767 120.273 388.575 120.246 388.39 120.19C384.75 119.11 376 112.61 374.82 110.11C374.665 109.704 374.615 109.265 374.677 108.835C374.738 108.404 374.908 107.997 375.17 107.65C377.24 104.17 386.72 97.3501 391.68 97.0901C393 97.0201 395.24 98.8501 395.68 99.4201C398.05 102.8 394.37 114.63 391.59 118.49C391.326 118.976 390.95 119.391 390.492 119.701C390.034 120.01 389.509 120.206 388.96 120.27ZM377.23 109.27C378.37 111.04 385.54 116.6 388.9 117.75C389.68 117.16 391.54 113.91 392.9 108.75C394.05 104.48 394.04 101.75 393.54 101C392.983 100.497 392.356 100.076 391.68 99.7501C387.24 100.04 377.97 107.21 377.23 109.27Z" fill="#686766"/>
<path d="M406.59 120.47C406.197 120.442 405.815 120.329 405.469 120.139C405.124 119.949 404.824 119.687 404.59 119.37C401.93 116.32 398.37 105.19 399.66 100.37C399.99 99.12 402.42 97.5201 403.09 97.3101C407.09 96.1001 417.16 103.26 419.97 107.1C420.97 108.53 421.24 109.72 420.61 110.63C418.45 113.76 409.61 120.07 406.83 120.43L406.59 120.47ZM402.1 101.17C401.1 105.53 405.01 116.56 406.7 117.88C408.7 117.34 416.24 112.24 418.37 109.39C418.05 108.47 415.54 105.7 411.05 102.79C407.33 100.38 404.74 99.55 403.87 99.79C403.216 100.162 402.62 100.627 402.1 101.17Z" fill="#686766"/>
<path d="M416.87 96.05C412.46 96.05 407.62 95.37 405.23 93.82C404.15 93.12 403.38 90.31 403.39 89.61C403.46 85.48 413.39 78.07 417.91 76.61C419.6 76.05 420.8 76.21 421.47 77.1C423.78 80.1 427.04 90.52 426.53 93.23C426.415 93.6497 426.196 94.0337 425.894 94.3465C425.592 94.6593 425.216 94.891 424.8 95.02C422.235 95.8164 419.553 96.1648 416.87 96.05ZM406.73 91.74C410.54 94.08 422.26 93.74 424.03 92.53C424.15 90.43 421.62 81.71 419.57 78.81C418.57 78.81 415.19 80.36 411.04 83.72C407.59 86.51 405.99 88.72 405.95 89.63C406.107 90.3673 406.37 91.078 406.73 91.74Z" fill="#686766"/>
<path d="M479.44 82.6499L524.28 84.7499L514.21 98.3999H475.03L479.44 82.6499Z" fill="#5B5B5B"/>
<path d="M17.06 53.8L0.780029 80.6501L23.08 109.52H37.99L28.77 59.54L17.06 53.8Z" fill="#3D3D3D"/>
<path d="M38.76 110.16H22.76L0 80.69L16.81 52.97L29.34 59.11L29.39 59.42L38.76 110.16ZM23.4 108.88H37.22L28.22 59.97L17.32 54.6299L1.58 80.6299L23.4 108.88Z" fill="#020202"/>
<path d="M6.07007 78.7099L18.8101 54.1399L25.5101 55.1899L13.6901 79.0099L6.07007 78.7099Z" fill="#161616"/>
<path d="M2.40002 81.1499C4.66002 83.4099 18.73 87.5499 18.73 87.5499L16.33 81.1499H2.40002Z" fill="#0F0F0F"/>
<path d="M25.14 53.8L8.85999 80.6501L31.16 110.67H46.07L36.85 59.54L25.14 53.8Z" fill="#2B2B2B"/>
<path d="M46.84 111.32H30.84L30.65 111.06L8.08997 80.68L24.9 52.97L37.46 59.11L46.84 111.32ZM31.46 110.04H45.29L36.29 59.97L25.39 54.6299L9.63995 80.6299L31.46 110.04Z" fill="#070707"/>
<path d="M14.15 78.7099L26.89 54.1399L33.59 55.1899L21.77 79.0099L14.15 78.7099Z" fill="#161616"/>
<path d="M10.5601 81.1499C12.8201 83.4099 26.89 87.5499 26.89 87.5499L24.4901 81.1499H10.5601Z" fill="#0F0F0F"/>
<path d="M70.64 114.6L39.34 111.95L17.99 79.6099L37.92 45.4099L104.65 46.2299L95.25 51.8199C95.25 51.8199 70.25 56.4699 66 89.6099C65.09 96.6899 70.64 114.6 70.64 114.6Z" fill="#232323"/>
<path d="M71.53 115.32L38.97 112.56L38.8 112.3L17.24 79.63L37.55 44.76H37.92L106.92 45.6L95.35 52.44C95.11 52.49 70.8 57.44 66.63 89.69C65.74 96.54 71.18 114.23 71.24 114.4L71.53 115.32ZM39.7 111.32L69.7 113.87C68.58 110.09 64.51 95.8 65.32 89.51C67.56 72.18 75.51 62.68 81.79 57.77C85.6722 54.6687 90.1835 52.4506 95.01 51.27L102.37 46.89L38.28 46.1L18.74 79.64L39.7 111.32Z" fill="#070707"/>
<path d="M18.47 79.86L36.84 75.12L47.55 54.82L44.8 47.01H35.55L18.47 79.86Z" fill="#1C1C1B"/>
<path d="M17.24 80.8401L35.16 46.3701H45.25L48.25 54.8701L37.25 75.6701L17.24 80.8401ZM35.94 47.6501L19.7 78.8801L36.4 74.5701L46.86 54.7701L44.35 47.6501H35.94Z" fill="#070707"/>
<path d="M206.35 31.5399L203.21 5.46997H217.82L234.11 38.56L206.35 31.5399Z" fill="#070707"/>
<path d="M1.25003 48.4399L13.97 39.9099L43.1 44.7499L47.83 54.2999L42.87 60.5899L3.61003 55.0099L0.410034 52.8399L1.25003 48.4399Z" fill="#2D0B05"/>
<path d="M481.36 87.13L519.78 89.71L522.8 86.23L486.92 83L482.94 84.87L481.36 87.13Z" fill="#3A3A3A"/>
<path d="M497.91 84.9099L491.99 86.3599L487.95 90.2799L488.98 92.5799L489.83 93.8999L497.91 84.9099Z" fill="#898989"/>
<path d="M508.9 85.6201L503.2 86.7801L496.84 91.9301L499.22 93.4001L500.45 93.9001L508.9 85.6201Z" fill="#898989"/>
<path d="M517.56 86.78L512.75 88.36L510.33 90.52L512.81 92.42L508.89 97.09L517.56 86.78Z" fill="#898989"/>
<g opacity="0.8">
<path opacity="0.8" d="M167.05 17.8599L181.91 5.4899L197.54 0.909912L195.85 9.38989H214.43L217.82 35.5299L167.05 17.8599Z" fill="#302F2F"/>
<path opacity="0.8" d="M218.59 36.47L165.77 18.1L181.77 4.87997L198.41 0L196.67 8.75H215.03L218.59 36.47ZM168.33 17.63L217.05 34.58L213.87 10.03H195.07L196.71 1.81998L182.22 6.06998L168.33 17.63Z" fill="#070707"/>
</g>
<g opacity="0.8">
<path opacity="0.8" d="M215.08 12.6699L302.19 13.5199L380.9 37.6999L301.83 53.2199L217.71 39.0899L215.08 12.6699Z" fill="#302F2F"/>
<path opacity="0.8" d="M301.84 53.8701H301.72L217.12 39.6601L214.37 12.04L302.37 12.9301L383.51 37.86L301.84 53.8701ZM218.3 38.54L301.82 52.54L378.27 37.54L302.09 14.14L215.79 13.3L218.3 38.54Z" fill="#0C0C0C"/>
</g>
<path d="M511.13 105.11L517.58 97.2199C517.932 96.7912 518.155 96.2713 518.224 95.7207C518.292 95.1701 518.203 94.6114 517.966 94.1096C517.729 93.6079 517.355 93.1836 516.886 92.8863C516.418 92.5889 515.875 92.4306 515.32 92.4299H509.92C509.472 92.4271 509.03 92.5277 508.628 92.7237C508.225 92.9196 507.874 93.2058 507.6 93.5599C507.319 93.9129 506.961 94.1979 506.554 94.3936C506.147 94.5892 505.701 94.6905 505.25 94.6899L482.8 94.4099C481.05 94.4099 480.25 92.2799 480.27 91.9499L480.54 89.8699C480.88 87.1799 482.99 82.6699 488.24 82.9899L523.46 85.5399C523.46 85.5399 530.32 85.1699 530.15 81.8799C529.8 75.2199 415.03 29.6899 382.97 34.8799C375.14 36.1399 348.58 41.7199 336.62 41.7199C325.05 41.7199 225.62 30.2399 219.62 29.7199C219.413 29.7011 219.209 29.6609 219.01 29.5999L175.01 15.8799C174.413 15.6942 173.891 15.3222 173.52 14.8184C173.149 14.3146 172.949 13.7054 172.95 13.0799V8.4299C172.95 13.4299 174.29 4.4299 169.38 5.5599L5.45995 39.8099C4.91313 39.929 4.42744 40.2409 4.09168 40.6886C3.75592 41.1363 3.59252 41.6899 3.63135 42.2482C3.67019 42.8065 3.90868 43.3322 4.3032 43.7291C4.69772 44.126 5.22192 44.3677 5.77996 44.4099H5.94996C33.28 45.7699 99.6899 49.8699 106.11 49.5399C118.59 48.8799 149.94 60.7999 145.45 102.67C145.405 103.08 145.447 103.496 145.573 103.889C145.699 104.282 145.907 104.644 146.183 104.951C146.458 105.259 146.795 105.505 147.172 105.674C147.549 105.842 147.957 105.93 148.37 105.93L354.85 105.31C355.241 105.311 355.628 105.234 355.988 105.083C356.348 104.932 356.674 104.71 356.947 104.43C357.219 104.15 357.432 103.818 357.574 103.453C357.715 103.089 357.782 102.7 357.77 102.31C357.24 73.1699 371.77 52.5899 394.26 51.8499C417.69 51.0699 437.07 65.8499 437.26 102.14C437.265 102.905 437.569 103.638 438.107 104.181C438.646 104.725 439.375 105.037 440.14 105.05L508.9 106.13C509.323 106.131 509.742 106.04 510.127 105.864C510.512 105.688 510.854 105.431 511.13 105.11Z" fill="#C1C1C1"/>
<path d="M508.86 107.46H508.79L440.03 106.38C438.933 106.354 437.889 105.904 437.117 105.125C436.345 104.345 435.905 103.297 435.89 102.2C435.83 84.7 431.33 71.53 422.54 63.05C415.44 56.21 405.67 52.79 394.26 53.17C372.66 53.89 358.49 73.65 359.01 102.34C359.018 102.896 358.915 103.448 358.709 103.963C358.502 104.479 358.194 104.949 357.805 105.345C357.415 105.741 356.951 106.056 356.438 106.272C355.926 106.487 355.376 106.599 354.82 106.6L148.33 107.21C147.742 107.21 147.161 107.088 146.624 106.85C146.087 106.613 145.605 106.265 145.21 105.83C144.813 105.386 144.514 104.864 144.331 104.297C144.149 103.731 144.087 103.132 144.15 102.54C145.91 86.12 142.1 72.44 133.15 62.98C124.73 54.09 113.24 50.46 106.15 50.82C101.78 51.05 71.74 49.36 42.67 47.71C28.44 46.91 14.99 46.15 5.85997 45.71H5.66998C4.80474 45.6674 3.98562 45.3071 3.36938 44.6983C2.75314 44.0894 2.38306 43.2747 2.32997 42.4101C2.24733 41.5367 2.48915 40.6635 3.00929 39.9571C3.52943 39.2506 4.29147 38.7604 5.14998 38.58L169.08 4.27004C169.895 4.03746 170.764 4.08327 171.55 4.40023C172.336 4.71718 172.994 5.28718 173.42 6.02004C174.226 7.33588 174.501 8.90879 174.19 10.42V13.04C174.187 13.3932 174.299 13.7377 174.508 14.0224C174.717 14.3071 175.012 14.5167 175.35 14.62L219.35 28.34L219.68 28.4C221.21 28.54 228.76 29.4 239.2 30.54C270.2 33.98 328.01 40.4101 336.59 40.4101C345.74 40.4101 364.03 37.01 374.95 34.98C378.31 34.35 380.95 33.86 382.74 33.58C400.67 30.68 440.53 42.97 462.74 50.58C492.82 60.87 522.82 73.71 529.63 79.2C530.84 80.2 531.4 80.98 531.44 81.8C531.68 86.24 524.38 86.8 523.55 86.8H523.39L488.15 84.27C482.67 83.92 481.84 89.79 481.81 90.04L481.57 91.92C481.68 92.23 482.13 93.14 482.82 93.15L505.26 93.42C505.515 93.4202 505.768 93.3627 505.998 93.2519C506.228 93.1411 506.431 92.9798 506.59 92.78C506.984 92.2759 507.488 91.8681 508.063 91.5874C508.638 91.3068 509.27 91.1606 509.91 91.16H515.31C516.106 91.1629 516.885 91.3914 517.557 91.8191C518.228 92.2468 518.765 92.8561 519.104 93.5763C519.443 94.2966 519.571 95.0983 519.473 95.8884C519.375 96.6784 519.055 97.4245 518.55 98.04L512.1 105.93C511.706 106.408 511.211 106.792 510.651 107.057C510.091 107.321 509.479 107.459 508.86 107.46ZM395.97 50.59C407.31 50.59 417.08 54.24 424.31 61.21C433.62 70.21 438.38 83.97 438.45 102.21C438.458 102.638 438.63 103.047 438.932 103.351C439.234 103.654 439.642 103.83 440.07 103.84L508.83 104.92C509.079 104.926 509.327 104.875 509.554 104.771C509.781 104.667 509.981 104.513 510.14 104.32L516.59 96.43C516.785 96.187 516.908 95.8938 516.945 95.5841C516.981 95.2744 516.93 94.9607 516.796 94.6789C516.663 94.3971 516.452 94.1586 516.189 93.9908C515.927 93.823 515.622 93.7326 515.31 93.73H509.92C509.669 93.7363 509.423 93.7957 509.197 93.9043C508.971 94.0129 508.771 94.1683 508.61 94.36C508.21 94.874 507.697 95.2886 507.111 95.5714C506.525 95.8542 505.881 95.9975 505.23 95.99L482.79 95.71C482.299 95.7014 481.814 95.5901 481.368 95.3835C480.922 95.1769 480.524 94.8793 480.2 94.51C479.512 93.8024 479.086 92.8821 478.99 91.9L479.27 89.72C479.65 86.8 482.01 81.35 488.32 81.72L523.46 84.27C525.38 84.15 528.77 83.39 528.86 82.05C525.06 75.05 414.42 31.11 383.17 36.15C381.42 36.43 378.65 36.95 375.44 37.54C363.72 39.72 346 43.01 336.61 43.01C327.89 43.01 270.03 36.58 238.94 33.13C228.51 31.97 220.94 31.13 219.49 31C219.191 30.9765 218.896 30.9195 218.61 30.83L174.61 17.11C173.746 16.8543 172.988 16.327 172.448 15.6066C171.908 14.8861 171.614 14.0106 171.61 13.11V8.46004C171.516 7.93879 171.273 7.45596 170.91 7.07003C170.727 6.91925 170.509 6.81874 170.276 6.7784C170.042 6.73806 169.803 6.75932 169.58 6.84005L5.67998 41.06C5.42476 41.1065 5.19761 41.2504 5.04648 41.4612C4.89534 41.6721 4.83205 41.9334 4.86998 42.1901C4.88529 42.4447 4.99735 42.6839 5.18326 42.8587C5.36916 43.0334 5.61484 43.1305 5.86998 43.13L5.95997 44.42L6.01997 43.14C15.17 43.6 28.62 44.36 42.86 45.14C70.5 46.7 101.86 48.48 106.05 48.25C113.74 47.85 126.05 51.73 135.05 61.2C141.66 68.2 149.05 81.07 146.73 102.79C146.704 103.024 146.728 103.261 146.8 103.485C146.872 103.709 146.992 103.916 147.15 104.09C147.303 104.262 147.491 104.4 147.701 104.495C147.912 104.59 148.139 104.639 148.37 104.64L354.85 104.03C355.293 104.023 355.716 103.843 356.03 103.53C356.332 103.216 356.497 102.795 356.49 102.36C355.95 72.17 371.11 51.36 394.22 50.6L395.97 50.59Z" fill="#070707"/>
<path d="M144.82 105.91L143.31 120.54H360.09L357.72 99.6101H341.91L339.18 105.37L199.67 106.2L191.49 96.9701L167.85 94.6201L157.85 106.2L144.82 105.91Z" fill="#070707"/>
<path d="M437.14 105.05L444.72 105.18L451.78 95.9299H462.2L467.47 103.28L511.7 105.08L515.21 100.7L516.47 99.6199L528.53 118.08L527.8 120.53H434.84L437.14 105.05Z" fill="#2D2D2D"/>
<g opacity="0.8">
<path opacity="0.8" d="M150.3 36.75L351.59 52.64L340.27 42.44L218.96 29.6L172.91 15.24L150.3 36.75Z" fill="#A0A0A0"/>
</g>
<g opacity="0.4">
<path opacity="0.4" d="M168.24 20.1399L160.3 35.6799L210.48 74.3099L324.71 80.2899H209.25L150.3 36.7499L168.24 20.1399Z" fill="#282828"/>
</g>
<path d="M324.98 80.93H209.04L208.87 80.8L149.3 36.82L172.47 14.77L173.35 15.7L151.29 36.69L209.46 79.65H324.44L351.14 52.2L352.05 53.09L324.98 80.93Z" fill="#070707"/>
<path d="M223.62 89.81L219.45 79.65H223.29L208.68 40.53L218.78 29.27L219.73 30.12L210.15 40.81L225.13 80.93H221.36L224.8 89.33L223.62 89.81Z" fill="#070707"/>
<path d="M158.524 86.6033L158.487 87.8828L358.384 93.641L358.421 92.3616L158.524 86.6033Z" fill="#070707"/>
<path d="M153.27 100.97L152.11 100.43L159.58 84.3899L148.6 66.5899L149.69 65.9199L161.03 84.2999L153.27 100.97Z" fill="#070707"/>
<path d="M449.63 73.04H439.86V71.76H446.78C443.84 68.56 434.78 59.17 428.66 57.76L428.96 56.51C436.7 58.36 448.22 71.46 448.71 72.02L449.63 73.04Z" fill="#070707"/>
<path d="M441.37 97.3999L440.43 96.5399C445.107 91.3757 447.975 84.8289 448.6 77.8899H440.37V76.6099H449.91V77.2699C449.485 84.7675 446.466 91.8841 441.37 97.3999Z" fill="#070707"/>
<path d="M434.84 44.78L443.53 47.08L476.72 57.08C476.72 57.08 455.56 58.51 448.2 56.65C446.391 56.1486 444.694 55.3069 443.2 54.17C442.137 53.3934 441.134 52.5376 440.2 51.61C438.169 49.5361 436.372 47.2458 434.84 44.78Z" fill="#999998"/>
<path d="M461.25 58.27C456.15 58.27 451.02 58.04 448.04 57.27C446.16 56.748 444.398 55.8687 442.85 54.68C441.785 53.8836 440.782 53.0078 439.85 52.06C437.751 49.9401 435.897 47.5922 434.32 45.06L433.51 43.72L443.72 46.42L480.29 57.47L476.8 57.71C476.25 57.78 468.77 58.27 461.25 58.27ZM436.25 45.81C437.564 47.725 439.047 49.5188 440.68 51.17C441.576 52.0739 442.539 52.9095 443.56 53.67C444.978 54.7571 446.59 55.5648 448.31 56.05C453.67 57.4 466.68 56.98 473.03 56.67L443.3 47.67L436.25 45.81Z" fill="#070707"/>
<path d="M199.67 106.2L209.41 118.84H334.61L339.18 105.37L199.67 106.2Z" fill="#2B2B2B"/>
<path d="M467.47 103.28L474.69 113.49H519.13L511.7 103.9L467.47 103.28Z" fill="black"/>
<path d="M480.67 101.19L477.97 106.19L488.98 115.8L480.67 101.19Z" fill="#282828"/>
<path d="M489.94 101.19L487.25 106.19L498.25 115.8L489.94 101.19Z" fill="#282828"/>
<path d="M498.93 101.19L496.23 106.19L507.24 115.8L498.93 101.19Z" fill="#282828"/>
<path d="M507.72 101.19L505.03 106.19L516.04 115.8L507.72 101.19Z" fill="#282828"/>
<path d="M448.04 54.96L449.89 54.73L449.44 52.05L452.44 52.78L456.44 54.78L459.22 51.78L443.54 47.03L434.82 44.73C434.82 44.73 442.82 54.33 444.07 54.91C445.32 55.49 448.04 54.96 448.04 54.96Z" fill="#EDEDED"/>
<path d="M445.7 55.8599C445.058 55.8845 444.418 55.7756 443.82 55.5399C442.53 54.9399 436.24 47.4599 434.35 45.1899L433.06 43.6499L443.72 46.4599L460.46 51.5199L456.65 55.5699L452.24 53.3899L450.24 52.8999L450.64 55.2899L448.16 55.5899C447.35 55.7562 446.527 55.8466 445.7 55.8599ZM436.62 45.9099C440.12 50.0499 443.7 54.0499 444.36 54.3799C445.53 54.6476 446.748 54.6304 447.91 54.3299H447.97L449.14 54.1899L448.65 51.1899L452.65 52.1899L456.27 53.9799L458.02 52.1299L443.33 47.6699L436.62 45.9099Z" fill="#070707"/>
<path d="M18.46 79.8601C30.71 88.7401 65.99 94.9101 65.99 94.9101L68.52 81.3601L36.83 75.1201L18.46 79.8601Z" fill="#0A0A0A"/>
<path d="M66.51 95.65L65.89 95.5399C64.44 95.2899 30.32 89.2399 18.09 80.3799L16.99 79.58L36.82 74.46H36.96L69.27 80.83L66.51 95.65ZM20 80.1299C31.93 87.7699 60.87 93.3199 65.49 94.1299L67.78 81.83L36.86 75.7299L20 80.1299Z" fill="#070707"/>
<path d="M1.91006 48.74L32.6801 49.76L44.8001 47.01L46.0201 50.46L36.5001 52.84L46.0201 57.23L43.8801 60.59L30.4301 54.25L1.07007 51.68L1.91006 48.74Z" fill="#FF1E00"/>
<path d="M8.85999 41.1999L169.97 7.6499L144.1 35.4299L8.85999 41.1999Z" fill="#AAAAAA"/>
<g opacity="0.8">
<path opacity="0.8" d="M297.62 13.5199L300.02 10.4299L382.93 34.8799L374.27 36.3099L297.62 13.5199Z" fill="#050505"/>
</g>
<g opacity="0.8">
<path opacity="0.8" d="M300.04 10.4601L305.81 9.05005L390.51 34.2801L381.61 35.1L300.04 10.4601Z" fill="#636363"/>
</g>
<g opacity="0.15">
<path opacity="0.15" d="M340.27 42.4399L351.59 52.6399C351.59 52.6399 378.85 41.5399 393.22 42.0699C407.59 42.5999 431.65 43.5899 431.65 43.5899C431.65 43.5899 395.47 34.5899 382.93 34.8799C370.39 35.1699 340.27 42.4399 340.27 42.4399Z" fill="#070707"/>
</g>
<g opacity="0.15">
<path opacity="0.15" d="M154.74 87.2C153.5 77.79 152.13 71.53 152.13 71.53L160.33 84.82L153.12 99.77L154.74 87.2Z" fill="#070707"/>
</g>
<g opacity="0.14">
<path opacity="0.14" d="M433.05 59.2101C432.62 58.0201 448.22 72.4001 448.22 72.4001L442.46 72.8101C442.46 72.8101 433.86 61.4301 433.05 59.2101Z" fill="#0A0A0A"/>
</g>
<g opacity="0.15">
<path opacity="0.15" d="M441.46 77.53C441.46 77.53 446.74 80.85 446.74 81.13C446.74 81.41 443.83 92.58 443.83 92.58L449.46 81.82V77.27L441.46 77.53Z" fill="#0A0A0A"/>
</g>
<path d="M332.476 23.527L331.238 23.8518L335.965 41.872L337.203 41.5472L332.476 23.527Z" fill="#070707"/>
<path d="M241.29 49.5101L219.8 48.3801L217.66 43.1001L239.46 45.6301L241.29 49.5101ZM220.68 47.1501L239.22 48.1501L238.6 46.8501L219.66 44.6401L220.68 47.1501Z" fill="#070707"/>
<path d="M203.87 45.8299L192.6 44.8299L191.46 40.3899L202.98 41.4799L203.87 45.8299ZM193.62 43.6799L202.28 44.4099L201.93 42.6599L193.16 41.8299L193.62 43.6799Z" fill="#070707"/>
</svg>
