
<svg xmlns="http://www.w3.org/2000/svg" version="1.1" xmlns:xlink="http://www.w3.org/1999/xlink" preserveAspectRatio="none" x="0px" y="0px" width="1024px" height="1024px" viewBox="0 0 1024 1024">
<defs>
<g id="Layer0_0_MEMBER_0_MEMBER_0_MEMBER_0_MEMBER_0_FILL">
<path fill="#E2E4E6" stroke="none" d="
M 181.6 90.3
Q 188.25 88.5 189.15 84.35 189.85 81 189 75.15
L 188 69.95
Q 163.75 71.4 135.1 72.4 77.8 74.45 55.7 72.25 51.05 81.15 54.35 85.8 56.7 89.1 65.25 91.8 71.1 93.65 107.2 93.15 126.6 92.9 158.45 92.25 174.45 92.25 181.6 90.3 Z"/>
</g>

<g id="Layer0_0_MEMBER_0_MEMBER_0_MEMBER_0_MEMBER_1_FILL">
<path fill="#FCE179" stroke="none" d="
M 182.9 32.2
Q 180.6 32.65 177.6 35.5 174.65 38.7 173.65 39.55 161.2 49.95 147.6 40.1 144.5 37.85 139.1 32.45 135.35 28.75 134.5 29.25 112.65 43.45 98.95 51.55 89.55 57.15 77.65 61.5 67.3 65.35 63.15 65.55 56.25 65.85 54.75 74.15 57.2 77.8 72.35 79.3 81.25 80.15 97.55 80.4 105.7 80.55 121.7 78.05 141.55 74.9 144.75 74.6 183.55 71.05 188.05 70.25 188.25 50.7 187.3 42 186.1 31.55 182.9 32.2 Z"/>
</g>

<g id="Layer0_0_MEMBER_0_MEMBER_0_MEMBER_0_MEMBER_2_FILL">
<path fill="#92C266" stroke="none" d="
M 188.05 70.25
Q 188.15 63.65 188.05 58.05 186.05 54.4 183.4 53.1 182.45 52.65 178.8 51.85 176.05 51.25 174.5 49.6 172.3 47.25 170.7 41.7 162.2 47.15 153.25 43.3 147.75 40.95 140.6 33.95
L 135.5 38.05
Q 143.25 48.15 146 57.55 148.25 65 147.8 74.3 183.55 71.05 188.05 70.25 Z"/>
</g>

<g id="Layer0_0_MEMBER_0_MEMBER_0_MEMBER_0_MEMBER_3_FILL">
<path fill="#92C266" stroke="none" d="
M 97.55 80.4
Q 104.1 80.55 114.8 79.05 117.3 78.75 133.05 76.2 133 71.95 130 68.8 128.3 67 123.5 63.95 119 61.1 117.4 59.1 114.85 55.95 115.5 51.65 111.45 54.5 107.6 56
L 104.5 56.9
Q 106.95 64.05 102.55 67.2 93.55 73.75 59.15 66.65 55.75 68.65 54.75 74.15 57.2 77.8 72.35 79.3 81.25 80.15 97.55 80.4 Z"/>
</g>

<g id="Layer0_0_MEMBER_0_MEMBER_0_MEMBER_0_MEMBER_4_FILL">
<path fill="#FFFFFF" stroke="none" d="
M 88 72.25
Q 101.9 72.25 105.9 66.5 108.2 63.3 107 58.55
L 106.15 58.95
Q 107.1 63.1 105.1 65.95 101.45 71.25 88 71.25 75.55 71.25 58.5 67.1
L 57.65 67.85
Q 65.1 69.9 73.7 71.1 81.75 72.25 88 72.25 Z"/>
</g>

<g id="Layer0_0_MEMBER_0_MEMBER_0_MEMBER_0_MEMBER_5_MEMBER_0_FILL">
<path fill="#92C266" stroke="none" d="
M 143.55 36.75
Q 142.05 35.4 140.1 33.4 138.3 31.6 137.55 30.95 134.2 33.4 123.25 39.9 111.2 47 107.45 49.25 105.1 50.65 103.25 51.05 101.3 51.45 100.6 50.6
L 98.95 51.55
Q 95.15 53.8 90.9 55.9 94.7 60.25 99.15 60.75 103.3 61.2 108.25 58.2 113.55 54.95 143.55 36.75 Z"/>
</g>

<g id="Layer0_0_MEMBER_0_MEMBER_0_MEMBER_0_MEMBER_6_MEMBER_0_MEMBER_0_FILL">
<path fill="#FFFFFF" stroke="none" d="
M 142.85 36.1
L 142.1 35.45 107.25 56.55
Q 103.45 58.85 100.25 58.85 98.6 58.85 96.5 57.9 94.15 56.8 92.65 55
L 91.7 55.5
Q 95.45 59.85 100.25 59.85 103.65 59.85 107.75 57.35
L 142.85 36.1 Z"/>
</g>

<g id="Layer0_0_MEMBER_0_MEMBER_0_MEMBER_0_MEMBER_6_MEMBER_1_MEMBER_0_FILL">
<path fill="#FFFFFF" stroke="none" d="
M 139.05 32.35
L 138.35 31.65
Q 131.5 36.2 115.1 45.85
L 107.9 50.05
Q 104.5 52.15 102.15 52.15 100.95 52.15 99.95 51
L 99 51.55
Q 100.3 53.1 102.15 53.1 104.7 53.1 108.4 50.9
L 115.55 46.65
Q 131.2 37.6 139.05 32.35 Z"/>
</g>

<g id="Layer0_0_MEMBER_0_MEMBER_0_MEMBER_0_MEMBER_7_MEMBER_0_FILL">
<path fill="#F9F9F9" stroke="none" d="
M 132.75 29.65
Q 132.55 29.3 132.15 29.25 131.75 29.15 131.45 29.4
L 129.45 30.7
Q 129.1 30.95 129.05 31.3 129 31.7 129.2 32.05
L 133.4 38.25
Q 133.6 38.6 134 38.65 134.4 38.75 134.7 38.5
L 136.7 37.15
Q 137.05 36.95 137.1 36.6 137.2 36.2 137 35.85
L 132.75 29.65 Z"/>
</g>

<g id="Layer0_0_MEMBER_0_MEMBER_0_MEMBER_0_MEMBER_7_MEMBER_1_FILL">
<path fill="#F9F9F9" stroke="none" d="
M 126 32.9
L 124 34.2
Q 123.65 34.45 123.6 34.8 123.55 35.2 123.75 35.55
L 127.95 41.75
Q 128.2 42.05 128.55 42.15 128.95 42.2 129.3 42
L 131.25 40.65
Q 131.6 40.45 131.7 40.05 131.8 39.65 131.55 39.35
L 127.3 33.15
Q 127.1 32.8 126.75 32.75 126.35 32.65 126 32.9 Z"/>
</g>

<g id="Layer0_0_MEMBER_0_MEMBER_0_MEMBER_0_MEMBER_7_MEMBER_2_FILL">
<path fill="#F9F9F9" stroke="none" d="
M 122.1 36.45
Q 121.85 36.15 121.5 36.05 121.1 36 120.8 36.2
L 118.8 37.55
Q 118.45 37.75 118.4 38.15 118.3 38.55 118.55 38.85
L 122.75 45.05
Q 122.95 45.4 123.35 45.45 123.75 45.55 124.05 45.3
L 126.05 44
Q 126.8 43.5 126.35 42.65
L 122.1 36.45 Z"/>
</g>

<g id="Layer0_0_MEMBER_0_MEMBER_0_MEMBER_0_MEMBER_7_MEMBER_3_FILL">
<path fill="#F9F9F9" stroke="none" d="
M 115.35 39.7
L 113.35 41.05
Q 113 41.25 112.95 41.65 112.85 42 113.1 42.35
L 117.3 48.55
Q 117.55 48.9 117.9 48.95 118.3 49.05 118.65 48.8
L 120.6 47.5
Q 120.95 47.25 121.05 46.9 121.1 46.5 120.9 46.15
L 116.65 39.95
Q 116.45 39.6 116.1 39.55 115.7 39.45 115.35 39.7 Z"/>
</g>

<g id="Layer0_0_MEMBER_0_MEMBER_0_MEMBER_0_MEMBER_7_MEMBER_4_FILL">
<path fill="#F9F9F9" stroke="none" d="
M 110.15 43.05
L 108.15 44.35
Q 107.8 44.6 107.75 44.95 107.7 45.35 107.9 45.7
L 112.1 51.85
Q 112.35 52.2 112.7 52.3 113.1 52.35 113.45 52.15
L 115.4 50.8
Q 115.75 50.6 115.85 50.2 115.95 49.8 115.7 49.5
L 111.45 43.3
Q 110.95 42.55 110.15 43.05 Z"/>
</g>

<g id="Layer0_0_MEMBER_0_MEMBER_0_MEMBER_0_MEMBER_7_MEMBER_5_FILL">
<path fill="#F9F9F9" stroke="none" d="
M 104.7 46.5
L 102.7 47.85
Q 102.35 48.05 102.3 48.45 102.2 48.85 102.45 49.15
L 106.65 55.35
Q 107.15 56.1 108 55.65
L 110 54.3
Q 110.3 54.05 110.4 53.7 110.45 53.3 110.25 52.95
L 106.05 46.8
Q 105.8 46.45 105.45 46.35 105.05 46.3 104.7 46.5 Z"/>
</g>

<g id="Layer0_0_MEMBER_0_MEMBER_0_MEMBER_1_FILL">
<path fill="#DE5C47" stroke="none" d="
M 188.65 72.95
L 188.4 71.65
Q 185.2 72.25 169.35 73.8 151.05 75.5 144.75 76.1 141.55 76.4 121.7 79.55 105.7 82.05 97.55 81.9 82.65 81.65 72.4 80.45 57.15 78.75 54.3 75.25 53.9 76.3 53.9 76.4 58 82.55 97.55 83.25 105.7 83.35 121.7 80.85 141.75 77.7 144.75 77.4 184.15 73.8 188.65 72.95 Z"/>
</g>

<g id="Layer0_0_MEMBER_0_MEMBER_0_MEMBER_2_FILL">
<path fill="#FFFFFF" stroke="none" d="
M 170.45 44
L 169.6 44.6
Q 171.5 49.9 174.35 52.05 176.05 53.3 179.45 53.9 185.55 55.15 188.1 60.65
L 188.1 58.9
Q 185.85 55.45 183.4 54.1 182.2 53.45 179.6 53 176.35 52.35 174.8 51.15 172.2 49.15 170.45 44 Z"/>
</g>

<g id="Layer0_0_MEMBER_0_MEMBER_0_MEMBER_3_FILL">
<path fill="#5D5D5D" stroke="none" d="
M 165.25 46.95
Q 172.4 45.6 178.7 38.95 180.35 37.25 183 37.2 184.45 37.2 186.55 37.35 185.3 31.75 182.9 32.2 180.6 32.65 177.6 35.5 174.65 38.7 173.65 39.55 165.45 46.35 156.85 44.5 150.7 43.15 143.9 37.05 154.1 49.1 165.25 46.95 Z"/>
</g>

<g id="Layer0_0_MEMBER_0_MEMBER_1_FILL">
<path fill="#5D5D5D" stroke="none" d="
M 181.6 90.3
Q 188.25 88.5 189.15 84.35 189.6 82.25 189.45 79.6 189.35 81.3 189.15 82.05 188.25 86.2 181.6 88 174.45 89.95 158.45 89.95 126.6 90.6 107.2 90.85 71.1 91.35 65.25 89.5 59.6 87.75 56.95 86 53.45 83.6 53 80.05 52.5 84.75 56.1 87.65 58.75 89.75 65.25 91.8 71.1 93.65 107.2 93.15 126.6 92.9 158.45 92.25 174.45 92.25 181.6 90.3 Z"/>
</g>

<g id="Layer0_0_MEMBER_1_MEMBER_0_FILL">
<path fill="#FFFFFF" stroke="none" d="
M 113.5 54.9
Q 114.15 58.7 117.05 61.55 118.6 63.05 122.8 65.75 126.9 68.35 128.35 69.85 131.15 72.65 131.5 76.45
L 132.45 76.3
Q 131.65 71.7 128.9 68.9 127.7 67.7 123.35 64.95 119.2 62.35 117.5 60.6 114.7 57.75 114.35 54.25
L 113.5 54.9 Z"/>
</g>

<g id="Layer0_0_MEMBER_1_MEMBER_1_FILL">
<path fill="#FFFFFF" stroke="none" d="
M 138.65 39.15
L 137.95 39.75
Q 144.35 48.65 146.95 57.3 149.25 65.05 148.9 74.2
L 149.85 74.15
Q 150.15 64.5 147.85 56.9 145.25 48.35 138.65 39.15 Z"/>
</g>

<g id="Layer0_0_MEMBER_2_FILL">
<path fill="#DE5C47" stroke="none" d="
M 172.3 54.55
Q 173.25 54.35 173.8 53.55 174.3 52.75 174.2 51.75 174.1 50.8 173.35 50.15 172.65 49.5 171.7 49.45
L 135.25 48.4 134.05 48.45
Q 130.75 48.85 128.65 51.5 126.6 54.15 127 57.45 127.4 60.8 130.05 62.85 132.65 64.9 136 64.5
L 172.3 54.55 Z"/>
</g>

<g id="Layer0_0_MEMBER_3_MEMBER_0_FILL">
<path fill="#5D5D5D" stroke="none" d="
M 172.75 50.85
Q 172.3 50.45 171.65 50.45
L 134.95 49.35 134.2 49.4
Q 131.3 49.75 129.45 52.1 127.6 54.4 127.95 57.35 128.3 60 130.3 61.8 132.3 63.6 135 63.6 135.6 63.6 135.9 63.55
L 136.95 63.35 172.05 53.65
Q 172.65 53.5 173 53 173.35 52.45 173.25 51.85 173.2 51.25 172.75 50.85
M 172.2 52.45
Q 172.05 52.65 171.8 52.7
L 135.75 62.6 135 62.65
Q 132.7 62.65 130.95 61.1 129.2 59.55 128.9 57.2 128.6 54.7 130.2 52.65 131.75 50.65 134.3 50.35
L 134.95 50.3 171.65 51.4
Q 172.2 51.4 172.3 52 172.35 52.25 172.2 52.45 Z"/>
</g>
</defs>

<g transform="matrix( 6.79998779296875, 0, 0, 6.79998779296875, -312.25,95.7) ">
<use xlink:href="#Layer0_0_MEMBER_0_MEMBER_0_MEMBER_0_MEMBER_0_FILL"/>
</g>

<g transform="matrix( 6.79998779296875, 0, 0, 6.79998779296875, -312.25,95.7) ">
<use xlink:href="#Layer0_0_MEMBER_0_MEMBER_0_MEMBER_0_MEMBER_1_FILL"/>
</g>

<g transform="matrix( 6.79998779296875, 0, 0, 6.79998779296875, -312.25,95.7) ">
<use xlink:href="#Layer0_0_MEMBER_0_MEMBER_0_MEMBER_0_MEMBER_2_FILL"/>
</g>

<g transform="matrix( 6.79998779296875, 0, 0, 6.79998779296875, -312.25,95.7) ">
<use xlink:href="#Layer0_0_MEMBER_0_MEMBER_0_MEMBER_0_MEMBER_3_FILL"/>
</g>

<g transform="matrix( 6.79998779296875, 0, 0, 6.79998779296875, -312.25,95.7) ">
<use xlink:href="#Layer0_0_MEMBER_0_MEMBER_0_MEMBER_0_MEMBER_4_FILL"/>
</g>

<g transform="matrix( 6.79998779296875, 0, 0, 6.79998779296875, -312.25,95.7) ">
<use xlink:href="#Layer0_0_MEMBER_0_MEMBER_0_MEMBER_0_MEMBER_5_MEMBER_0_FILL"/>
</g>

<g transform="matrix( 6.79998779296875, 0, 0, 6.79998779296875, -312.25,95.7) ">
<use xlink:href="#Layer0_0_MEMBER_0_MEMBER_0_MEMBER_0_MEMBER_6_MEMBER_0_MEMBER_0_FILL"/>
</g>

<g transform="matrix( 6.79998779296875, 0, 0, 6.79998779296875, -312.25,95.7) ">
<use xlink:href="#Layer0_0_MEMBER_0_MEMBER_0_MEMBER_0_MEMBER_6_MEMBER_1_MEMBER_0_FILL"/>
</g>

<g transform="matrix( 6.79998779296875, 0, 0, 6.79998779296875, -312.25,95.7) ">
<use xlink:href="#Layer0_0_MEMBER_0_MEMBER_0_MEMBER_0_MEMBER_7_MEMBER_0_FILL"/>
</g>

<g transform="matrix( 6.79998779296875, 0, 0, 6.79998779296875, -312.25,95.7) ">
<use xlink:href="#Layer0_0_MEMBER_0_MEMBER_0_MEMBER_0_MEMBER_7_MEMBER_1_FILL"/>
</g>

<g transform="matrix( 6.79998779296875, 0, 0, 6.79998779296875, -312.25,95.7) ">
<use xlink:href="#Layer0_0_MEMBER_0_MEMBER_0_MEMBER_0_MEMBER_7_MEMBER_2_FILL"/>
</g>

<g transform="matrix( 6.79998779296875, 0, 0, 6.79998779296875, -312.25,95.7) ">
<use xlink:href="#Layer0_0_MEMBER_0_MEMBER_0_MEMBER_0_MEMBER_7_MEMBER_3_FILL"/>
</g>

<g transform="matrix( 6.79998779296875, 0, 0, 6.79998779296875, -312.25,95.7) ">
<use xlink:href="#Layer0_0_MEMBER_0_MEMBER_0_MEMBER_0_MEMBER_7_MEMBER_4_FILL"/>
</g>

<g transform="matrix( 6.79998779296875, 0, 0, 6.79998779296875, -312.25,95.7) ">
<use xlink:href="#Layer0_0_MEMBER_0_MEMBER_0_MEMBER_0_MEMBER_7_MEMBER_5_FILL"/>
</g>

<g transform="matrix( 6.79998779296875, 0, 0, 6.79998779296875, -312.25,95.7) ">
<use xlink:href="#Layer0_0_MEMBER_0_MEMBER_0_MEMBER_1_FILL"/>
</g>

<g transform="matrix( 6.79998779296875, 0, 0, 6.79998779296875, -312.25,95.7) ">
<use xlink:href="#Layer0_0_MEMBER_0_MEMBER_0_MEMBER_2_FILL"/>
</g>

<g transform="matrix( 6.79998779296875, 0, 0, 6.79998779296875, -312.25,95.7) ">
<use xlink:href="#Layer0_0_MEMBER_0_MEMBER_0_MEMBER_3_FILL"/>
</g>

<g transform="matrix( 6.79998779296875, 0, 0, 6.79998779296875, -312.25,95.7) ">
<use xlink:href="#Layer0_0_MEMBER_0_MEMBER_1_FILL"/>
</g>

<g transform="matrix( 6.79998779296875, 0, 0, 6.79998779296875, -312.25,95.7) ">
<use xlink:href="#Layer0_0_MEMBER_1_MEMBER_0_FILL"/>
</g>

<g transform="matrix( 6.79998779296875, 0, 0, 6.79998779296875, -312.25,95.7) ">
<use xlink:href="#Layer0_0_MEMBER_1_MEMBER_1_FILL"/>
</g>

<g transform="matrix( 6.79998779296875, 0, 0, 6.79998779296875, -312.25,95.7) ">
<use xlink:href="#Layer0_0_MEMBER_2_FILL"/>
</g>

<g transform="matrix( 6.79998779296875, 0, 0, 6.79998779296875, -312.25,95.7) ">
<use xlink:href="#Layer0_0_MEMBER_3_MEMBER_0_FILL"/>
</g>
</svg>
