<svg width="481" height="140" viewBox="0 0 481 140" fill="none" xmlns="http://www.w3.org/2000/svg">
<path d="M27.6741 70.0787C26.508 87.715 26.8745 117.718 27.6741 119.5L51.1636 128L311.047 125.215L417 128V78.9897C402.007 68.9648 371.72 49.138 370.521 50.0291C369.321 50.9202 341.034 57.8261 327.04 61.1678C321.376 76.5763 310.248 107.95 311.047 110.178C311.847 112.406 203.977 98.6856 152 98.5L80.6505 52.8137L27.6741 70.0787Z" fill="#3D3D3D"/>
<path d="M21.5349 123C20.9023 123 17.5814 114.333 16 110H50V123H21.5349Z" fill="#363636" stroke="black" stroke-width="2"/>
<path d="M74.32 139.64C94.9313 139.64 111.64 122.931 111.64 102.32C111.64 81.7087 94.9313 65 74.32 65C53.7087 65 37 81.7087 37 102.32C37 122.931 53.7087 139.64 74.32 139.64Z" fill="#1E1E1E"/>
<path d="M74.32 131.64C90.513 131.64 103.64 118.513 103.64 102.32C103.64 86.127 90.513 73 74.32 73C58.127 73 45 86.127 45 102.32C45 118.513 58.127 131.64 74.32 131.64Z" fill="black"/>
<path d="M74.32 132.92C68.2679 132.92 62.3517 131.125 57.3195 127.763C52.2874 124.401 48.3653 119.622 46.0493 114.03C43.7332 108.439 43.1272 102.286 44.308 96.3502C45.4887 90.4144 48.403 84.962 52.6825 80.6825C56.962 76.403 62.4144 73.4887 68.3502 72.308C74.286 71.1272 80.4387 71.7332 86.0301 74.0493C91.6215 76.3653 96.4006 80.2874 99.763 85.3195C103.125 90.3517 104.92 96.2679 104.92 102.32C104.909 110.432 101.682 118.209 95.9458 123.946C90.2094 129.682 82.4324 132.909 74.32 132.92ZM74.32 74.28C68.7821 74.28 63.3686 75.9222 58.764 78.9988C54.1594 82.0755 50.5706 86.4485 48.4514 91.5648C46.3321 96.6812 45.7776 102.311 46.858 107.743C47.9384 113.174 50.6051 118.163 54.521 122.079C58.4369 125.995 63.426 128.662 68.8575 129.742C74.2889 130.822 79.9188 130.268 85.0351 128.149C90.1515 126.029 94.5245 122.441 97.6011 117.836C100.678 113.231 102.32 107.818 102.32 102.28C102.301 94.8596 99.3456 87.7484 94.0986 82.5014C88.8516 77.2544 81.7404 74.2985 74.32 74.28Z" fill="#232323"/>
<path d="M74.3201 106.32C76.5292 106.32 78.3201 104.529 78.3201 102.32C78.3201 100.111 76.5292 98.3201 74.3201 98.3201C72.1109 98.3201 70.3201 100.111 70.3201 102.32C70.3201 104.529 72.1109 106.32 74.3201 106.32Z" fill="#CCCCCC"/>
<g opacity="0.2">
<path opacity="0.2" d="M74.3201 110.34C78.7494 110.34 82.3401 106.749 82.3401 102.32C82.3401 97.8907 78.7494 94.3 74.3201 94.3C69.8907 94.3 66.3 97.8907 66.3 102.32C66.3 106.749 69.8907 110.34 74.3201 110.34Z" fill="#CCCCCC"/>
</g>
<path d="M74.2 95.5599C73.6014 95.5763 73.0031 95.5158 72.42 95.3799C68.24 93.9399 63.97 81.3299 63.95 76.2099C63.95 74.3399 64.49 73.2099 65.57 72.8099C69.42 71.4499 81.14 71.5699 83.75 72.9999C84.1273 73.2474 84.436 73.5861 84.6475 73.9847C84.859 74.3832 84.9665 74.8288 84.96 75.2799C85.35 79.6199 81.4099 91.5499 77.2599 94.9099C76.323 95.4144 75.2611 95.64 74.2 95.5599ZM73.2 92.9499C74.037 93.0406 74.8828 93.0069 75.71 92.8499C79.51 89.6399 83.06 77.2899 82.33 75.1599C80.14 74.2399 70.04 74.0699 66.58 75.1599C66.22 76.1099 66.67 79.9499 68.49 84.9499C70.25 89.7099 72.1899 92.5699 73.2299 92.9499H73.2Z" fill="#686766"/>
<path d="M54.5301 105.06C51.7501 105.124 48.9745 104.807 46.2801 104.12C44.5001 103.54 43.5801 102.67 43.5501 101.52C43.4501 97.4401 47.1801 86.3301 49.3401 84.2901C49.6934 84.0074 50.1126 83.8188 50.5584 83.7419C51.0043 83.665 51.4624 83.7022 51.8901 83.8501C56.1401 84.8501 66.2701 92.2501 68.1801 97.2301C68.6501 98.4501 67.6001 101.36 67.1801 101.98C65.4901 104.16 59.8001 105.06 54.5301 105.06ZM46.1101 101.27C46.9001 101.9 50.6801 102.65 56.0001 102.47C61.0701 102.3 64.3901 101.33 65.0701 100.47C65.4176 99.7059 65.6469 98.8932 65.7501 98.0601C63.8701 93.4601 53.2801 86.2901 51.0001 86.2901C49.4201 88.0801 46.1401 97.6401 46.1101 101.27Z" fill="#686766"/>
<path d="M64.6401 131.43C64.4433 131.43 64.2476 131.4 64.0601 131.34C60.1401 130.17 50.7301 123.19 49.4501 120.5C49.2917 120.077 49.2425 119.62 49.3072 119.173C49.3719 118.725 49.5483 118.301 49.8201 117.94C52.0601 114.2 62.2501 106.87 67.5801 106.58C68.8901 106.52 71.3301 108.42 71.7801 109.05C74.3201 112.67 70.3501 125.39 67.3601 129.54C66.4601 130.8 65.5501 131.43 64.6401 131.43ZM51.8601 119.56C53.0901 121.56 61.1701 127.67 64.6101 128.83C65.4601 128.27 67.3501 124.9 68.8201 119.83C70.2101 114.97 70.3201 111.51 69.7101 110.59C69.0847 110.028 68.3806 109.559 67.6201 109.2C62.6401 109.52 52.5101 117.41 51.8601 119.56Z" fill="#686766"/>
<path d="M83.68 131.6C83.2716 131.568 82.875 131.448 82.5176 131.247C82.1602 131.047 81.8505 130.772 81.61 130.44C78.74 127.16 74.91 115.2 76.29 110.05C76.63 108.78 79.2 107.05 79.94 106.82C84.18 105.53 95.03 113.22 98.06 117.35C99.17 118.86 99.4 120.1 98.74 121.05C96.43 124.41 86.87 131.21 83.93 131.59L83.68 131.6ZM78.74 110.8C77.55 115.64 81.93 127.72 83.74 129.01C86.05 128.46 94.32 122.66 96.48 119.75C96.22 118.75 93.6 115.93 89.19 112.95C84.99 110.12 81.72 108.95 80.67 109.25C79.9525 109.667 79.3018 110.189 78.74 110.8Z" fill="#686766"/>
<path d="M94.78 105.22C90.05 105.22 84.84 104.49 82.28 102.83C81.18 102.12 80.28 99.14 80.34 98.37C80.41 93.95 91.08 85.99 95.95 84.37C97.73 83.78 98.95 83.9399 99.68 84.8599C102.16 88.0999 105.68 99.29 105.12 102.21C105.003 102.646 104.775 103.045 104.46 103.369C104.145 103.693 103.753 103.931 103.32 104.06C101.6 104.8 98.33 105.22 94.78 105.22ZM83.78 100.74C88.02 103.36 100.86 102.93 102.65 101.58C102.85 99.21 99.89 89.5799 97.78 86.5799C96.71 86.5799 93.26 88.1499 89.07 91.4199C85.07 94.5399 82.96 97.2699 82.91 98.4199C83.0828 99.2294 83.3689 100.01 83.76 100.74H83.78Z" fill="#686766"/>
<path d="M366.32 139.64C386.931 139.64 403.64 122.931 403.64 102.32C403.64 81.7087 386.931 65 366.32 65C345.709 65 329 81.7087 329 102.32C329 122.931 345.709 139.64 366.32 139.64Z" fill="#1E1E1E"/>
<path d="M366.32 131.64C382.513 131.64 395.64 118.513 395.64 102.32C395.64 86.127 382.513 73 366.32 73C350.127 73 337 86.127 337 102.32C337 118.513 350.127 131.64 366.32 131.64Z" fill="black"/>
<path d="M366.32 132.92C360.268 132.92 354.352 131.125 349.32 127.763C344.287 124.401 340.365 119.622 338.049 114.03C335.733 108.439 335.127 102.286 336.308 96.3502C337.489 90.4144 340.403 84.962 344.683 80.6825C348.962 76.403 354.414 73.4887 360.35 72.308C366.286 71.1272 372.439 71.7332 378.03 74.0493C383.622 76.3653 388.401 80.2874 391.763 85.3195C395.125 90.3517 396.92 96.2679 396.92 102.32C396.909 110.432 393.682 118.209 387.946 123.946C382.209 129.682 374.432 132.909 366.32 132.92ZM366.32 74.28C360.782 74.28 355.369 75.9222 350.764 78.9988C346.159 82.0755 342.571 86.4485 340.451 91.5648C338.332 96.6812 337.778 102.311 338.858 107.743C339.938 113.174 342.605 118.163 346.521 122.079C350.437 125.995 355.426 128.662 360.857 129.742C366.289 130.822 371.919 130.268 377.035 128.149C382.151 126.029 386.524 122.441 389.601 117.836C392.678 113.231 394.32 107.818 394.32 102.28C394.301 94.8596 391.346 87.7484 386.099 82.5014C380.852 77.2544 373.74 74.2985 366.32 74.28Z" fill="#232323"/>
<path d="M366.32 106.32C368.529 106.32 370.32 104.529 370.32 102.32C370.32 100.111 368.529 98.3201 366.32 98.3201C364.111 98.3201 362.32 100.111 362.32 102.32C362.32 104.529 364.111 106.32 366.32 106.32Z" fill="#CCCCCC"/>
<g opacity="0.2">
<path opacity="0.2" d="M366.32 110.34C370.749 110.34 374.34 106.749 374.34 102.32C374.34 97.8907 370.749 94.3 366.32 94.3C361.891 94.3 358.3 97.8907 358.3 102.32C358.3 106.749 361.891 110.34 366.32 110.34Z" fill="#CCCCCC"/>
</g>
<path d="M366.2 95.5599C365.601 95.5763 365.003 95.5158 364.42 95.3799C360.24 93.9399 355.97 81.3299 355.95 76.2099C355.95 74.3399 356.49 73.2099 357.57 72.8099C361.42 71.4499 373.14 71.5699 375.75 72.9999C376.127 73.2474 376.436 73.5861 376.648 73.9847C376.859 74.3832 376.967 74.8288 376.96 75.2799C377.35 79.6199 373.41 91.5499 369.26 94.9099C368.323 95.4144 367.261 95.64 366.2 95.5599ZM365.2 92.9499C366.037 93.0406 366.883 93.0069 367.71 92.8499C371.51 89.6399 375.06 77.2899 374.33 75.1599C372.14 74.2399 362.04 74.0699 358.58 75.1599C358.22 76.1099 358.67 79.9499 360.49 84.9499C362.25 89.7099 364.19 92.5699 365.23 92.9499H365.2Z" fill="#686766"/>
<path d="M346.53 105.06C343.75 105.124 340.974 104.807 338.28 104.12C336.5 103.54 335.58 102.67 335.55 101.52C335.45 97.4401 339.18 86.3301 341.34 84.2901C341.693 84.0074 342.113 83.8188 342.558 83.7419C343.004 83.665 343.462 83.7022 343.89 83.8501C348.14 84.8501 358.27 92.2501 360.18 97.2301C360.65 98.4501 359.6 101.36 359.18 101.98C357.49 104.16 351.8 105.06 346.53 105.06ZM338.11 101.27C338.9 101.9 342.68 102.65 348 102.47C353.07 102.3 356.39 101.33 357.07 100.47C357.418 99.7059 357.647 98.8932 357.75 98.0601C355.87 93.4601 345.28 86.2901 343 86.2901C341.42 88.0801 338.14 97.6401 338.11 101.27Z" fill="#686766"/>
<path d="M356.64 131.43C356.443 131.43 356.248 131.4 356.06 131.34C352.14 130.17 342.73 123.19 341.45 120.5C341.292 120.077 341.243 119.62 341.307 119.173C341.372 118.725 341.548 118.301 341.82 117.94C344.06 114.2 354.25 106.87 359.58 106.58C360.89 106.52 363.33 108.42 363.78 109.05C366.32 112.67 362.35 125.39 359.36 129.54C358.46 130.8 357.55 131.43 356.64 131.43ZM343.86 119.56C345.09 121.56 353.17 127.67 356.61 128.83C357.46 128.27 359.35 124.9 360.82 119.83C362.21 114.97 362.32 111.51 361.71 110.59C361.085 110.028 360.381 109.559 359.62 109.2C354.64 109.52 344.51 117.41 343.86 119.56Z" fill="#686766"/>
<path d="M375.68 131.6C375.272 131.568 374.875 131.448 374.518 131.247C374.16 131.047 373.851 130.772 373.61 130.44C370.74 127.16 366.91 115.2 368.29 110.05C368.63 108.78 371.2 107.05 371.94 106.82C376.18 105.53 387.03 113.22 390.06 117.35C391.17 118.86 391.4 120.1 390.74 121.05C388.43 124.41 378.87 131.21 375.93 131.59L375.68 131.6ZM370.74 110.8C369.55 115.64 373.93 127.72 375.74 129.01C378.05 128.46 386.32 122.66 388.48 119.75C388.22 118.75 385.6 115.93 381.19 112.95C376.99 110.12 373.72 108.95 372.67 109.25C371.952 109.667 371.302 110.189 370.74 110.8Z" fill="#686766"/>
<path d="M386.78 105.22C382.05 105.22 376.84 104.49 374.28 102.83C373.18 102.12 372.28 99.14 372.34 98.37C372.41 93.95 383.08 85.99 387.95 84.37C389.73 83.78 390.95 83.9399 391.68 84.8599C394.16 88.0999 397.68 99.29 397.12 102.21C397.003 102.646 396.775 103.045 396.46 103.369C396.145 103.693 395.753 103.931 395.32 104.06C393.6 104.8 390.33 105.22 386.78 105.22ZM375.78 100.74C380.02 103.36 392.86 102.93 394.65 101.58C394.85 99.21 391.89 89.5799 389.78 86.5799C388.71 86.5799 385.26 88.1499 381.07 91.4199C377.07 94.5399 374.96 97.2699 374.91 98.4199C375.083 99.2294 375.369 100.01 375.76 100.74H375.78Z" fill="#686766"/>
<rect x="119" y="117" width="205" height="14" fill="#1E1E1E"/>
<path d="M412 130V114.877L471.85 107.028L477.932 109.743C477.42 114.518 476.57 117.967 475.092 120.988C473.584 124.068 471.39 126.771 468.093 130H412Z" fill="#343434" stroke="black" stroke-width="2"/>
<path d="M205.706 33.7383C204.864 31.1534 206.791 28.5 209.509 28.5H215.744C217.144 28.5 218.443 29.2321 219.167 30.4303L227.33 43.9303C228.942 46.5962 227.022 50 223.907 50H213.904C212.172 50 210.637 48.8853 210.101 47.2383L205.706 33.7383Z" fill="black"/>
<path opacity="0.8" d="M203 4.3052C200.5 2.3052 163 12.8052 155.5 25.8052H160L206 14.8052C205.833 11.9718 205 5.9052 203 4.3052Z" fill="#373131" stroke="black" stroke-width="2"/>
<path opacity="0.7" d="M253.5 8.50012C287 9.50012 315.5 28 350.5 43.5L329.5 53.5H231.5L112 39.0001C146.167 28.8334 226.7 7.70012 253.5 8.50012Z" fill="#171313" stroke="black" stroke-width="2"/>
<path d="M258 16.5001C284.5 20.1138 322 39.0001 334 46.0001L323.5 56.0001L261 55.0001C218.667 51.6668 133.8 45.0001 133 45.0001C132.2 45.0001 132 39.6668 132 37.0001C167.667 29.1668 240.4 14.1001 258 16.5001Z" fill="#C4C4C4" fill-opacity="0.21" stroke="black" stroke-width="2"/>
<path d="M52 27H74.9538L81.7071 53H52V27Z" fill="#DCDCE0" stroke="black" stroke-width="2"/>
<path d="M478 109.5C473.5 116 464 116 451 116L451.5 108L471 106.5L478 109.5Z" fill="#59595E"/>
<path d="M4.75253 66H18.7525L15.2525 80.5H4.75253C1.73924 75.8212 0.479406 73.0577 4.75253 66Z" fill="#F7F7F8" stroke="black" stroke-width="2"/>
<path d="M2.62051 72H18.6205V77H2.62051C1.90826 75.3015 1.68548 73.9291 2.62051 72Z" fill="#FF4200"/>
<path d="M2 88C2.83333 86.1667 5.7 81.4 10.5 77L32 94L33.5 122C27.8333 119.333 15.9 113.5 13.5 111.5C11.1 109.5 8.16667 102.333 7 99L3 97.5L2 88Z" fill="#1E1E1E" stroke="#1E1E1E" stroke-width="2"/>
<path d="M11.1521 80.0845C7.65206 77.5845 8.15206 72.5845 14.6521 62.0845C26.4854 55.9178 56.4521 42.9845 81.6521 40.5845C113.152 37.5845 169.652 39.5845 175.152 40.5845C180.652 41.5845 193.152 43.5845 200.152 43.5845C207.152 43.5845 317.152 50.5845 318.652 50.5845C320.152 50.5845 339.152 42.0845 373.152 43.5845C407.152 45.0845 479.152 79.0845 479.152 82.5845C479.152 85.3845 473.5 102.667 471.5 110H456L453 116C439.167 117.167 414.752 117.484 413.152 117.084C411.152 116.584 411.152 118.584 411.152 114.085C408.152 75.0845 387.652 60.5845 364.652 60.5845C341.652 60.5845 322.152 80.5845 324.152 117.084C258.652 118.918 124.252 119.585 122.652 119.585C120.652 119.585 119.652 120.585 118.152 114.085C117.152 92.0845 111 60.5845 76.6521 60.5845C42.3041 60.5845 33 84 31.6521 95.0845C31.453 96.7217 23.6521 91.5845 20.6521 90.0845V87.0845C18.6521 85.5845 13.9521 82.0845 11.1521 80.0845Z" fill="#F7F7F8" stroke="black" stroke-width="3"/>
<path opacity="0.3" d="M320 60C271.167 58.1667 173 54.6 169 53C169 49.8 173.667 44.6667 176 42.5L185.5 44L318 52L320 60Z" fill="#BFBFC2"/>
<path d="M318.5 51C321 59 321.5 66 318.5 70C316.1 73.2 295.833 103.333 286 118" stroke="black" stroke-width="2"/>
<path d="M297 63H319.5" stroke="#BFBFC2" stroke-width="2"/>
<path d="M226.013 61.0543C248.94 61.3728 286.993 62.0345 298.011 62.7014C299.972 62.8201 301.645 63.8248 302.856 65.3715L309.104 73.3548C309.638 74.0376 309.672 74.9869 309.187 75.7057L296.131 95.0639C295.74 95.6449 295.072 95.9784 294.372 95.943L264.911 94.4551C252.941 93.8505 241.872 87.9097 234.752 78.2678L224.393 64.2409C223.411 62.9109 224.36 61.0313 226.013 61.0543Z" fill="#3D3D3D" stroke="#3D3D3D" stroke-width="2"/>
<path d="M203 44C196 49 193 54 194 58C194.8 61.2 200.667 84.6667 204 97.5L217.5 119" stroke="black" stroke-width="2"/>
<path d="M176.5 57C176 55.5 179.5 50.5 183.5 43.5L175.5 42C172.5 44.8333 166.9 52.3 168.5 59.5C170.1 66.7 188.167 86.8333 197 96C190.334 83.5 176.9 58.2 176.5 57Z" fill="#BFC0C2"/>
<path d="M176 41C170.188 46.3707 168.387 49.8117 167 56.5C176.299 74.1487 183.371 83.0276 198.5 97.5L296 102.5" stroke="black" stroke-width="2"/>
<path d="M292.5 107.5L200.138 103.123C191.604 102.718 183.165 105.057 176.056 109.796L161.5 119.5" stroke="black" stroke-width="2"/>
<path d="M206.5 14.5C203.5 18.5 202.5 21.5 202.5 24.5C202.5 26.9 204.167 37.5 205 42.5" stroke="black" stroke-width="2"/>
<path d="M203.5 31.4998C218 30.9998 239.5 28.9998 251 31.4998C260.2 33.4998 277.5 43.3332 285 47.9999" stroke="black" stroke-width="2"/>
<path d="M28.6421 1.71079L50.1654 6.1203L52.4067 10.7769L49.3087 22.285L29.8774 18.8675L24.6948 10.515L28.6421 1.71079Z" fill="#F7F7F8" stroke="black" stroke-width="3"/>
<path d="M42.5 18.1849C42.4986 15.8368 42.8881 13.5441 43.7321 9.71201L77.3546 15.2886L78.3701 27.5H43.8018C42.9168 23.133 42.5014 20.6026 42.5 18.1849Z" fill="#F7F7F8" stroke="black" stroke-width="3"/>
<path d="M427 116.5L428.5 100.5L414 74L399 70.5" stroke="black" stroke-width="2"/>
<path d="M418.5 83H403.5C406.7 91.4 412.167 109.667 412 117L427 116.5L429 101L418.5 83Z" fill="#3F3F45" stroke="black" stroke-width="2"/>
<path d="M451.5 85C445 84 442 79.5 429.5 62.5L473.5 85C468.333 85.3333 456.7 85.8 451.5 85Z" stroke="black" stroke-width="2"/>
<path d="M442.5 70.5C439.5 68.5 442.5 75.5 450 84C449.833 84.3334 448.5 84 446 82.5C443.5 81 435 70.5 431 63.5L464 80C458 80 444.9 72.1 442.5 70.5Z" fill="#242424"/>
<path d="M446 81C451.6 82.6 462.667 82.6667 467.5 82.5" stroke="black" stroke-width="2"/>
<path d="M427 109.5C419.333 111.5 412.4 116.5 412 116.5L422 117L426 116.5L427 109.5Z" fill="#18181B"/>
<path d="M3 91H14.5V95H3.5L3 91Z" fill="#FF4200"/>
<path d="M27 7L43 10.5" stroke="black" stroke-width="2"/>
<path d="M455.5 110.5C455.803 108.985 457.367 105.368 458.543 102.688C459.135 101.341 458.929 99.7818 458.013 98.6302L442 78.5" stroke="black" stroke-width="2"/>
<path opacity="0.6" d="M262 18.9974C252 18.4974 253.5 14.9974 203 24.9974L207.5 27.4974C247.481 19.6943 271.419 24.2465 315.5 40.4974H319.5C303.667 33.4974 270 19.3974 262 18.9974Z" fill="white"/>
<path d="M201.5 7C198.167 7.66667 190.2 9.9 185 13.5L201.5 11.5V7Z" fill="#C7C6C6"/>
</svg>
