
<svg xmlns="http://www.w3.org/2000/svg" version="1.1" xmlns:xlink="http://www.w3.org/1999/xlink" preserveAspectRatio="none" x="0px" y="0px" width="1024px" height="1024px" viewBox="0 0 1024 1024">
<defs>
<g id="Layer0_0_MEMBER_0_MEMBER_0_FILL">
<path fill="#79A139" stroke="none" d="
M 341.9 103.3
L 341.9 95.3 250 42.2 158.05 95.3 158.05 103.3 249.95 156.35 341.9 103.3 Z"/>
</g>

<g id="Layer0_0_MEMBER_0_MEMBER_1_FILL">
<path fill="#719634" stroke="none" d="
M 341.9 103.3
L 341.9 95.3 249.95 148.35 249.95 156.35 341.9 103.3 Z"/>
</g>

<g id="Layer0_0_MEMBER_0_MEMBER_2_FILL">
<path fill="#9CC459" stroke="none" d="
M 250 42.2
L 158.05 95.3 249.95 148.35 341.9 95.3 250 42.2 Z"/>
</g>

<g id="Layer0_0_MEMBER_0_MEMBER_3_FILL">
<path fill="#B7E76A" stroke="none" d="
M 250 49.05
L 169.9 95.3 249.95 141.55 330.05 95.3 250 49.05 Z"/>
</g>

<g id="Layer0_0_MEMBER_0_MEMBER_4_FILL">
<path fill="#9CC459" stroke="none" d="
M 239.3 48.4
L 235.85 50.35 261.75 65.35 183.95 110.25 196.1 117.25 277.2 70.45 239.3 48.4 Z"/>
</g>

<g id="Layer0_0_MEMBER_1_FILL">
<path fill="#000000" fill-opacity="0.14901960784313725" stroke="none" d="
M 75.7 14.65
L 50.3 0 0 29.05 25.35 43.7 75.7 14.65 Z"/>
</g>

<g id="Layer0_0_MEMBER_2_FILL">
<path fill="#000000" fill-opacity="0.14901960784313725" stroke="none" d="
M 38.55 0
L 0 18.6 24.4 32.65 59.75 12.25 38.55 0 Z"/>
</g>

<g id="Layer0_0_MEMBER_3_MEMBER_0_FILL">
<path fill="#D4CDAF" stroke="none" d="
M 296.55 92.2
L 296.55 52.2 246.2 81.3 246.2 121.25 296.55 92.2 Z"/>
</g>

<g id="Layer0_0_MEMBER_3_MEMBER_1_FILL">
<path fill="#BDB692" stroke="none" d="
M 296.55 92.2
L 296.55 83.7 246.2 112.75 246.2 121.25 296.55 92.2 Z"/>
</g>

<g id="Layer0_0_MEMBER_3_MEMBER_2_MEMBER_0_FILL">
<path fill="#CAC2A5" stroke="none" d="
M 301.15 84.5
L 283.5 76.95 265.85 104.9 265.85 125.75 301.15 105.35 301.15 84.5 Z"/>
</g>

<g id="Layer0_0_MEMBER_3_MEMBER_2_MEMBER_1_FILL">
<path fill="#BDB692" stroke="none" d="
M 265.85 116.75
L 265.85 125.75 301.15 105.35 301.15 96.35 265.85 116.75 Z"/>
</g>

<g id="Layer0_0_MEMBER_3_MEMBER_2_MEMBER_2_FILL">
<path fill="#E9E4D2" stroke="none" d="
M 252.2 118.2
L 265.85 125.75 265.85 104.85 252.2 97.35 252.2 118.2 Z"/>
</g>

<g id="Layer0_0_MEMBER_3_MEMBER_2_MEMBER_3_FILL">
<path fill="#DDD9C4" stroke="none" d="
M 265.85 116.75
L 252.2 109.2 252.2 118.2 265.85 125.75 265.85 116.75 Z"/>
</g>

<g id="Layer0_0_MEMBER_3_MEMBER_2_MEMBER_4_FILL">
<path fill="#D6A463" stroke="none" d="
M 251.25 97.25
Q 250.55 98.15 250.9 98.75 250.95 98.95 251.25 98.95
L 264.5 106.3 283.5 76.95 302.15 83.25 288.85 75.9
Q 288.75 75.7 288.5 75.7
L 270.35 67.95
Q 270.05 67.95 269.5 68.6
L 251.25 97.25 Z"/>
</g>

<g id="Layer0_0_MEMBER_3_MEMBER_2_MEMBER_5_MEMBER_0_FILL">
<path fill="#C4965D" stroke="none" d="
M 283.5 77.85
L 301.35 85.4
Q 302.05 85.5 302.5 84.35 302.65 83.9 302.55 83.6 302.45 83.25 302.15 83.25
L 283.9 75.7
Q 283.55 75.65 283.1 76.15
L 264.85 104.8
Q 264.55 105.15 264.45 105.6 264.35 106.05 264.5 106.3 264.7 106.65 265.25 106.4
L 265.65 106.05 283.5 77.85 Z"/>
</g>

<g id="Layer0_0_MEMBER_3_MEMBER_2_MEMBER_6_MEMBER_0_FILL">
<path fill="#FFFFFF" stroke="none" d="
M 289.95 98.95
L 289.95 84 277.05 91.5 277.05 106.4 289.95 98.95 Z"/>
</g>

<g id="Layer0_0_MEMBER_3_MEMBER_2_MEMBER_6_MEMBER_1_FILL">
<path fill="#68B5DC" stroke="none" d="
M 288.7 98.2
L 288.7 86.2 278.3 92.2 278.3 104.2 288.7 98.2 Z"/>
</g>

<g id="Layer0_0_MEMBER_3_MEMBER_2_MEMBER_6_MEMBER_2_FILL">
<path fill="#FFFFFF" stroke="none" d="
M 284.15 87.35
L 282.8 88.15 282.8 103.05 284.15 102.3 284.15 87.35 Z"/>
</g>

<g id="Layer0_0_MEMBER_3_MEMBER_2_MEMBER_6_MEMBER_3_FILL">
<path fill="#FFFFFF" stroke="none" d="
M 289.95 92.25
L 289.95 90.7 277.05 98.15 277.05 99.7 289.95 92.25 Z"/>
</g>

<g id="Layer0_0_MEMBER_3_MEMBER_3_FILL">
<path fill="#E9E4D2" stroke="none" d="
M 195.9 52.25
L 195.9 92.2 246.2 121.25 246.2 81.3
Q 235.75 63.2 221.05 54.7 206.3 46.2 195.9 52.25 Z"/>
</g>

<g id="Layer0_0_MEMBER_3_MEMBER_4_FILL">
<path fill="#DDD9C4" stroke="none" d="
M 195.9 83.7
L 195.9 92.2 246.2 121.25 246.2 112.75 195.9 83.7 Z"/>
</g>

<g id="Layer0_0_MEMBER_3_MEMBER_5_FILL">
<path fill="#FFFFFF" stroke="none" d="
M 220.15 78.95
L 203.1 69.1 203.1 96.4 220.15 106.2 220.15 78.95 Z"/>
</g>

<g id="Layer0_0_MEMBER_3_MEMBER_6_FILL">
<path fill="#D4CDAF" stroke="none" d="
M 205.55 73.25
L 205.55 97.8 217.7 104.8 217.7 80.25 205.55 73.25 Z"/>
</g>

<g id="Layer0_0_MEMBER_3_MEMBER_7_FILL">
<path fill="#F7C687" stroke="none" d="
M 262.6 19.8
Q 252.75 17.15 245.3 21.45
L 195 50.65 204.75 50.05 211.65 50.75 222.4 54.8 232.75 63.75 247.9 81.95 297.45 53.65
Q 298.1 53.25 298.3 52.55 298.45 51.8 298.1 51.15 291.2 39.2 281.65 30.75 272.15 22.35 262.6 19.8 Z"/>
</g>

<g id="Layer0_0_MEMBER_3_MEMBER_8_FILL">
<path fill="#EBB775" stroke="none" d="
M 258.05 22.85
Q 267.95 25.5 278.05 33.95 288.15 42.35 295.95 54.5
L 297.45 53.65
Q 298.65 52.85 298.25 51.55
L 295.7 47.25
Q 288.9 36.75 280.15 29.45 271.3 22.1 262.6 19.8 252.75 17.15 245.3 21.45
L 242.85 22.85
Q 249.85 20.6 258.05 22.85 Z"/>
</g>

<g id="Layer0_0_MEMBER_3_MEMBER_9_FILL">
<path fill="#EBB775" stroke="none" d="
M 271.3 36.55
Q 261 27.6 250.8 24.85 245.65 23.5 241.15 23.85
L 235.7 27.05
Q 240.8 26.65 246.3 28.15 256.55 30.9 267.05 39.45 277.45 47.95 285.8 60.25
L 289.25 58.3
Q 281.55 45.5 271.3 36.55 Z"/>
</g>

<g id="Layer0_0_MEMBER_3_MEMBER_10_FILL">
<path fill="#EBB775" stroke="none" d="
M 274.85 66.55
L 278.25 64.6
Q 270.65 51.9 260.45 43 250.2 34.1 240.1 31.35 234.7 29.9 229.85 30.45
L 224.45 33.55
Q 229.8 33.1 235.65 34.65 245.8 37.4 256.2 45.9 266.55 54.3 274.85 66.55 Z"/>
</g>

<g id="Layer0_0_MEMBER_3_MEMBER_11_FILL">
<path fill="#EBB775" stroke="none" d="
M 263.9 72.8
L 267.3 70.85
Q 259.7 58.25 249.6 49.45 239.5 40.6 229.45 37.9 223.65 36.3 218.5 37
L 213.1 40.15
Q 218.8 39.45 225 41.15 235.1 43.9 245.4 52.3 255.65 60.65 263.9 72.8 Z"/>
</g>

<g id="Layer0_0_MEMBER_3_MEMBER_12_FILL">
<path fill="#EBB775" stroke="none" d="
M 252.95 79.05
L 256.4 77.1
Q 248.85 64.6 238.85 55.85 228.8 47.1 218.85 44.35 212.6 42.7 207.15 43.6
L 201.8 46.7
Q 207.75 45.8 214.35 47.65 224.35 50.4 234.6 58.7 244.75 67 252.95 79.05 Z"/>
</g>

<g id="Layer0_0_MEMBER_3_MEMBER_13_MEMBER_0_FILL">
<path fill="#C4965D" stroke="none" d="
M 246.2 83.1
Q 246.6 83.1 247.1 82.85 247.75 82.5 247.95 81.75 248.15 81.05 247.75 80.4 240.9 68.45 231.35 60 221.8 51.55 212.25 49 202.3 46.4 195 50.65 194.35 51 194.15 51.75 193.9 52.5 194.3 53.15 194.7 53.8 195.4 54 196.15 54.2 196.8 53.8 202.9 50.3 211.3 52.5 220.2 54.9 229.15 62.85 238.1 70.85 244.65 82.2 245.15 83.1 246.2 83.1 Z"/>
</g>

<g id="Layer0_0_MEMBER_3_MEMBER_14_MEMBER_0_FILL">
<path fill="#FFFFFF" stroke="none" d="
M 207.35 55.25
Q 205.55 56.25 205.55 59.15 205.55 62.05 207.35 65.1 209.15 68.2 211.65 69.65 214.15 71.1 215.95 70.1 217.7 69.05 217.7 66.15 217.7 63.25 215.95 60.2 214.15 57.1 211.65 55.65 209.15 54.2 207.35 55.25 Z"/>
</g>

<g id="Layer0_0_MEMBER_3_MEMBER_14_MEMBER_1_FILL">
<path fill="#68B5DC" stroke="none" d="
M 208.5 57.25
Q 207.2 58 207.2 60.1 207.2 62.2 208.5 64.45 209.8 66.7 211.65 67.75 213.45 68.85 214.75 68.1 216.05 67.35 216.05 65.2 216.05 63.1 214.75 60.85 213.45 58.6 211.65 57.55 209.8 56.5 208.5 57.25 Z"/>
</g>

<g id="Layer0_0_MEMBER_3_MEMBER_15_MEMBER_0_FILL">
<path fill="#FFFFFF" stroke="none" d="
M 226.3 82.5
L 226.3 97.45 239.2 104.9 239.2 90 226.3 82.5 Z"/>
</g>

<g id="Layer0_0_MEMBER_3_MEMBER_15_MEMBER_1_FILL">
<path fill="#68B5DC" stroke="none" d="
M 227.55 84.7
L 227.55 96.7 237.95 102.7 237.95 90.7 227.55 84.7 Z"/>
</g>

<g id="Layer0_0_MEMBER_3_MEMBER_15_MEMBER_2_FILL">
<path fill="#FFFFFF" stroke="none" d="
M 233.45 86.65
L 232.1 85.85 232.1 100.8 233.45 101.55 233.45 86.65 Z"/>
</g>

<g id="Layer0_0_MEMBER_3_MEMBER_15_MEMBER_3_FILL">
<path fill="#FFFFFF" stroke="none" d="
M 226.3 90.75
L 239.2 98.2 239.2 96.65 226.3 89.2 226.3 90.75 Z"/>
</g>

<g id="Layer0_0_MEMBER_4_MEMBER_0_FILL">
<path fill="#000000" fill-opacity="0.14901960784313725" stroke="none" d="
M 7.45 8.6
Q 10.55 8.6 12.7 7.3 14.85 6.05 14.85 4.3 14.85 2.55 12.7 1.25 10.55 0 7.45 0 4.4 0 2.2 1.25 0.05 2.55 0.05 4.3 0.05 6.05 2.2 7.3 4.4 8.6 7.45 8.6 Z"/>
</g>

<g id="Layer0_0_MEMBER_4_MEMBER_1_FILL">
<path fill="#A57668" stroke="none" d="
M 186.3 79.1
Q 186.3 78.25 185.7 77.65 185.15 77.05 184.3 77.05 183.45 77.05 182.85 77.65 182.25 78.25 182.25 79.1
L 182.25 92.85
Q 182.25 93.7 182.85 94.3 183.45 94.9 184.3 94.9 185.15 94.9 185.7 94.3 186.3 93.7 186.3 92.85
L 186.3 79.1 Z"/>
</g>

<g id="Layer0_0_MEMBER_4_MEMBER_2_FILL">
<path fill="#8C644F" stroke="none" d="
M 182.85 92.7
Q 182.2677734375 92.1177734375 182.25 91.3
L 182.25 92.85
Q 182.25 93.7 182.85 94.3 183.45 94.9 184.3 94.9 185.15 94.9 185.7 94.3 186.3 93.7 186.3 92.85
L 186.3 91.3
Q 186.2822265625 92.1177734375 185.7 92.7 185.15 93.3 184.3 93.3 183.45 93.3 182.85 92.7 Z"/>
</g>

<g id="Layer0_0_MEMBER_4_MEMBER_3_FILL">
<path fill="#8C644F" stroke="none" d="
M 185.7 77.65
Q 185.15 77.05 184.3 77.05 183.45 77.05 182.85 77.65 182.25 78.25 182.25 79.1
L 182.25 84.8
Q 183.1 85 184.3 85 185.45 85 186.3 84.8
L 186.3 79.1
Q 186.3 78.25 185.7 77.65 Z"/>
</g>

<g id="Layer0_0_MEMBER_4_MEMBER_4_FILL">
<path fill="#6C9C38" stroke="none" d="
M 194.1 72.8
Q 194.1 68.75 191.25 65.9 188.35 63 184.3 63 180.2 63 177.35 65.9 174.5 68.75 174.5 72.8 174.5 76.85 177.35 79.75 180.2 82.6 184.3 82.6 188.35 82.6 191.25 79.75 194.1 76.85 194.1 72.8 Z"/>
</g>

<g id="Layer0_0_MEMBER_4_MEMBER_5_FILL">
<path fill="#80B844" stroke="none" d="
M 185.45 70.1
Q 185.45 68.5 184.3 67.35 183.15 66.2 181.55 66.2 179.95 66.2 178.85 67.35 177.7 68.5 177.7 70.1 177.7 71.7 178.85 72.8 180 73.95 181.55 73.95 183.15 73.95 184.3 72.8 185.45 71.7 185.45 70.1 Z"/>
</g>

<g id="Layer0_0_MEMBER_5_MEMBER_0_FILL">
<path fill="#000000" fill-opacity="0.14901960784313725" stroke="none" d="
M 7.4 8.55
Q 10.5 8.55 12.65 7.3 14.85 6.05 14.85 4.3 14.85 2.5 12.65 1.25 10.5 0 7.4 0 4.35 0 2.15 1.25 0 2.5 0 4.3 0 6.05 2.15 7.3 4.35 8.55 7.4 8.55 Z"/>
</g>

<g id="Layer0_0_MEMBER_5_MEMBER_1_FILL">
<path fill="#A57668" stroke="none" d="
M 249.9 113.5
Q 249.3 114.1 249.3 114.9
L 249.3 128.7
Q 249.3 129.5 249.9 130.1 250.5 130.7 251.35 130.7 252.2 130.7 252.75 130.1 253.35 129.55 253.35 128.7
L 253.35 114.9
Q 253.35 114.1 252.75 113.5 252.2 112.9 251.35 112.9 250.5 112.9 249.9 113.5 Z"/>
</g>

<g id="Layer0_0_MEMBER_5_MEMBER_2_FILL">
<path fill="#8C644F" stroke="none" d="
M 253.35 128.7
L 253.35 127.15
Q 253.3322265625 127.9677734375 252.75 128.55 252.15 129.15 251.35 129.15 250.55 129.15 249.9 128.55 249.3177734375 127.9677734375 249.3 127.15
L 249.3 128.7
Q 249.3 129.5 249.9 130.1 250.5 130.7 251.35 130.7 252.2 130.7 252.75 130.1 253.35 129.55 253.35 128.7 Z"/>
</g>

<g id="Layer0_0_MEMBER_5_MEMBER_3_FILL">
<path fill="#8C644F" stroke="none" d="
M 252.75 113.5
Q 252.2 112.9 251.35 112.9 250.5 112.9 249.9 113.5 249.3 114.1 249.3 114.9
L 249.3 120.65
Q 250.15 120.85 251.35 120.85 252.5 120.85 253.35 120.65
L 253.35 114.9
Q 253.35 114.1 252.75 113.5 Z"/>
</g>

<g id="Layer0_0_MEMBER_5_MEMBER_4_FILL">
<path fill="#6C9C38" stroke="none" d="
M 261.15 108.65
Q 261.15 104.55 258.3 101.7 255.4 98.85 251.35 98.85 247.3 98.85 244.45 101.7 241.55 104.55 241.55 108.65 241.55 112.7 244.45 115.6 247.3 118.45 251.35 118.45 255.4 118.45 258.3 115.6 261.15 112.7 261.15 108.65 Z"/>
</g>

<g id="Layer0_0_MEMBER_5_MEMBER_5_FILL">
<path fill="#80B844" stroke="none" d="
M 252.5 105.9
Q 252.5 104.3 251.35 103.15 250.2 102.05 248.6 102.05 247 102.05 245.9 103.15 244.75 104.3 244.75 105.9 244.75 107.5 245.9 108.65 247 109.8 248.6 109.8 250.2 109.8 251.35 108.65 252.5 107.5 252.5 105.9 Z"/>
</g>

<g id="Layer0_0_MEMBER_6_MEMBER_0_FILL">
<path fill="#000000" fill-opacity="0.14901960784313725" stroke="none" d="
M 7.45 8.6
Q 10.5 8.6 12.65 7.35 14.85 6.1 14.85 4.3 14.85 2.55 12.65 1.25 10.5 0 7.45 0 4.4 0 2.2 1.25 0.05 2.55 0.05 4.3 0.05 6.1 2.2 7.35 4.4 8.6 7.45 8.6 Z"/>
</g>

<g id="Layer0_0_MEMBER_6_MEMBER_1_FILL">
<path fill="#A57668" stroke="none" d="
M 317.45 79.05
Q 317.45 78.25 316.85 77.65 316.3 77.05 315.45 77.05 314.6 77.05 314 77.65 313.4 78.2 313.4 79.05
L 313.4 92.85
Q 313.4 93.7 314 94.25 314.6 94.85 315.45 94.85 316.3 94.85 316.85 94.25 317.45 93.7 317.45 92.85
L 317.45 79.05 Z"/>
</g>

<g id="Layer0_0_MEMBER_6_MEMBER_2_FILL">
<path fill="#8C644F" stroke="none" d="
M 313.4 91.3
L 313.4 92.85
Q 313.4 93.7 314 94.25 314.6 94.85 315.45 94.85 316.3 94.85 316.85 94.25 317.45 93.7 317.45 92.85
L 317.45 91.3
Q 317.43125 92.1171875 316.85 92.65 316.3 93.25 315.45 93.25 314.6 93.25 314 92.65 313.41875 92.1171875 313.4 91.3 Z"/>
</g>

<g id="Layer0_0_MEMBER_6_MEMBER_3_FILL">
<path fill="#8C644F" stroke="none" d="
M 316.85 77.65
Q 316.3 77.05 315.45 77.05 314.6 77.05 314 77.65 313.4 78.2 313.4 79.05
L 313.4 84.8
Q 314.7 85 315.45 85 316.15 85 317.45 84.8
L 317.45 79.05
Q 317.45 78.25 316.85 77.65 Z"/>
</g>

<g id="Layer0_0_MEMBER_6_MEMBER_4_FILL">
<path fill="#6C9C38" stroke="none" d="
M 322.4 65.85
Q 319.5 62.95 315.45 62.95 311.35 62.95 308.5 65.85 305.65 68.7 305.65 72.75 305.65 76.8 308.5 79.7 311.35 82.55 315.45 82.55 319.5 82.55 322.4 79.7 325.25 76.8 325.25 72.75 325.25 68.7 322.4 65.85 Z"/>
</g>

<g id="Layer0_0_MEMBER_6_MEMBER_5_FILL">
<path fill="#80B844" stroke="none" d="
M 316.6 70.05
Q 316.6 68.45 315.45 67.3 314.3 66.15 312.7 66.15 311.1 66.15 309.95 67.3 308.85 68.45 308.85 70.05 308.85 71.65 309.95 72.8 311.1 73.9 312.7 73.9 314.3 73.9 315.45 72.8 316.6 71.65 316.6 70.05 Z"/>
</g>

<g id="Layer0_0_MEMBER_7_FILL">
<path fill="#000000" fill-opacity="0.14901960784313725" stroke="none" d="
M 50.35 8
L 50.35 0 0 29.05 0 37.05 50.35 8 Z"/>
</g>

<g id="Layer0_0_MEMBER_8_FILL">
<path fill="#000000" fill-opacity="0.14901960784313725" stroke="none" d="
M 35.35 8
L 35.35 0 0 20.4 0 28.4 35.35 8 Z"/>
</g>
</defs>

<g transform="matrix( 5, 0, 0, 5, -737.85,74.15) ">
<use xlink:href="#Layer0_0_MEMBER_0_MEMBER_0_FILL"/>
</g>

<g transform="matrix( 5, 0, 0, 5, -737.85,74.15) ">
<use xlink:href="#Layer0_0_MEMBER_0_MEMBER_1_FILL"/>
</g>

<g transform="matrix( 5, 0, 0, 5, -737.85,74.15) ">
<use xlink:href="#Layer0_0_MEMBER_0_MEMBER_2_FILL"/>
</g>

<g transform="matrix( 5, 0, 0, 5, -737.85,74.15) ">
<use xlink:href="#Layer0_0_MEMBER_0_MEMBER_3_FILL"/>
</g>

<g transform="matrix( 5, 0, 0, 5, -737.85,74.15) ">
<use xlink:href="#Layer0_0_MEMBER_0_MEMBER_4_FILL"/>
</g>

<g transform="matrix( 5, 0, 0, 5, 493.15,535.15) ">
<use xlink:href="#Layer0_0_MEMBER_1_FILL"/>
</g>

<g transform="matrix( 5, 0, 0, 5, 527.4,573.4) ">
<use xlink:href="#Layer0_0_MEMBER_2_FILL"/>
</g>

<g transform="matrix( 5, 0, 0, 5, -737.85,74.15) ">
<use xlink:href="#Layer0_0_MEMBER_3_MEMBER_0_FILL"/>
</g>

<g transform="matrix( 5, 0, 0, 5, -737.85,74.15) ">
<use xlink:href="#Layer0_0_MEMBER_3_MEMBER_1_FILL"/>
</g>

<g transform="matrix( 5, 0, 0, 5, -737.85,74.15) ">
<use xlink:href="#Layer0_0_MEMBER_3_MEMBER_2_MEMBER_0_FILL"/>
</g>

<g transform="matrix( 5, 0, 0, 5, -737.85,74.15) ">
<use xlink:href="#Layer0_0_MEMBER_3_MEMBER_2_MEMBER_1_FILL"/>
</g>

<g transform="matrix( 5, 0, 0, 5, -737.85,74.15) ">
<use xlink:href="#Layer0_0_MEMBER_3_MEMBER_2_MEMBER_2_FILL"/>
</g>

<g transform="matrix( 5, 0, 0, 5, -737.85,74.15) ">
<use xlink:href="#Layer0_0_MEMBER_3_MEMBER_2_MEMBER_3_FILL"/>
</g>

<g transform="matrix( 5, 0, 0, 5, -737.85,74.15) ">
<use xlink:href="#Layer0_0_MEMBER_3_MEMBER_2_MEMBER_4_FILL"/>
</g>

<g transform="matrix( 5, 0, 0, 5, -737.85,74.15) ">
<use xlink:href="#Layer0_0_MEMBER_3_MEMBER_2_MEMBER_5_MEMBER_0_FILL"/>
</g>

<g transform="matrix( 5, 0, 0, 5, -737.85,74.15) ">
<use xlink:href="#Layer0_0_MEMBER_3_MEMBER_2_MEMBER_6_MEMBER_0_FILL"/>
</g>

<g transform="matrix( 5, 0, 0, 5, -737.85,74.15) ">
<use xlink:href="#Layer0_0_MEMBER_3_MEMBER_2_MEMBER_6_MEMBER_1_FILL"/>
</g>

<g transform="matrix( 5, 0, 0, 5, -737.85,74.15) ">
<use xlink:href="#Layer0_0_MEMBER_3_MEMBER_2_MEMBER_6_MEMBER_2_FILL"/>
</g>

<g transform="matrix( 5, 0, 0, 5, -737.85,74.15) ">
<use xlink:href="#Layer0_0_MEMBER_3_MEMBER_2_MEMBER_6_MEMBER_3_FILL"/>
</g>

<g transform="matrix( 5, 0, 0, 5, -737.85,74.15) ">
<use xlink:href="#Layer0_0_MEMBER_3_MEMBER_3_FILL"/>
</g>

<g transform="matrix( 5, 0, 0, 5, -737.85,74.15) ">
<use xlink:href="#Layer0_0_MEMBER_3_MEMBER_4_FILL"/>
</g>

<g transform="matrix( 5, 0, 0, 5, -737.85,74.15) ">
<use xlink:href="#Layer0_0_MEMBER_3_MEMBER_5_FILL"/>
</g>

<g transform="matrix( 5, 0, 0, 5, -737.85,74.15) ">
<use xlink:href="#Layer0_0_MEMBER_3_MEMBER_6_FILL"/>
</g>

<g transform="matrix( 5, 0, 0, 5, -737.85,74.15) ">
<use xlink:href="#Layer0_0_MEMBER_3_MEMBER_7_FILL"/>
</g>

<g transform="matrix( 5, 0, 0, 5, -737.85,74.15) ">
<use xlink:href="#Layer0_0_MEMBER_3_MEMBER_8_FILL"/>
</g>

<g transform="matrix( 5, 0, 0, 5, -737.85,74.15) ">
<use xlink:href="#Layer0_0_MEMBER_3_MEMBER_9_FILL"/>
</g>

<g transform="matrix( 5, 0, 0, 5, -737.85,74.15) ">
<use xlink:href="#Layer0_0_MEMBER_3_MEMBER_10_FILL"/>
</g>

<g transform="matrix( 5, 0, 0, 5, -737.85,74.15) ">
<use xlink:href="#Layer0_0_MEMBER_3_MEMBER_11_FILL"/>
</g>

<g transform="matrix( 5, 0, 0, 5, -737.85,74.15) ">
<use xlink:href="#Layer0_0_MEMBER_3_MEMBER_12_FILL"/>
</g>

<g transform="matrix( 5, 0, 0, 5, -737.85,74.15) ">
<use xlink:href="#Layer0_0_MEMBER_3_MEMBER_13_MEMBER_0_FILL"/>
</g>

<g transform="matrix( 5, 0, 0, 5, -737.85,74.15) ">
<use xlink:href="#Layer0_0_MEMBER_3_MEMBER_14_MEMBER_0_FILL"/>
</g>

<g transform="matrix( 5, 0, 0, 5, -737.85,74.15) ">
<use xlink:href="#Layer0_0_MEMBER_3_MEMBER_14_MEMBER_1_FILL"/>
</g>

<g transform="matrix( 5, 0, 0, 5, -737.85,74.15) ">
<use xlink:href="#Layer0_0_MEMBER_3_MEMBER_15_MEMBER_0_FILL"/>
</g>

<g transform="matrix( 5, 0, 0, 5, -737.85,74.15) ">
<use xlink:href="#Layer0_0_MEMBER_3_MEMBER_15_MEMBER_1_FILL"/>
</g>

<g transform="matrix( 5, 0, 0, 5, -737.85,74.15) ">
<use xlink:href="#Layer0_0_MEMBER_3_MEMBER_15_MEMBER_2_FILL"/>
</g>

<g transform="matrix( 5, 0, 0, 5, -737.85,74.15) ">
<use xlink:href="#Layer0_0_MEMBER_3_MEMBER_15_MEMBER_3_FILL"/>
</g>

<g transform="matrix( 5, 0, 0, 5, 146.4,527.15) ">
<use xlink:href="#Layer0_0_MEMBER_4_MEMBER_0_FILL"/>
</g>

<g transform="matrix( 5, 0, 0, 5, -737.85,74.15) ">
<use xlink:href="#Layer0_0_MEMBER_4_MEMBER_1_FILL"/>
</g>

<g transform="matrix( 5, 0, 0, 5, -737.85,74.15) ">
<use xlink:href="#Layer0_0_MEMBER_4_MEMBER_2_FILL"/>
</g>

<g transform="matrix( 5, 0, 0, 5, -737.85,74.15) ">
<use xlink:href="#Layer0_0_MEMBER_4_MEMBER_3_FILL"/>
</g>

<g transform="matrix( 5, 0, 0, 5, -737.85,74.15) ">
<use xlink:href="#Layer0_0_MEMBER_4_MEMBER_4_FILL"/>
</g>

<g transform="matrix( 5, 0, 0, 5, -737.85,74.15) ">
<use xlink:href="#Layer0_0_MEMBER_4_MEMBER_5_FILL"/>
</g>

<g transform="matrix( 5, 0, 0, 5, 481.9,706.4) ">
<use xlink:href="#Layer0_0_MEMBER_5_MEMBER_0_FILL"/>
</g>

<g transform="matrix( 5, 0, 0, 5, -737.85,74.15) ">
<use xlink:href="#Layer0_0_MEMBER_5_MEMBER_1_FILL"/>
</g>

<g transform="matrix( 5, 0, 0, 5, -737.85,74.15) ">
<use xlink:href="#Layer0_0_MEMBER_5_MEMBER_2_FILL"/>
</g>

<g transform="matrix( 5, 0, 0, 5, -737.85,74.15) ">
<use xlink:href="#Layer0_0_MEMBER_5_MEMBER_3_FILL"/>
</g>

<g transform="matrix( 5, 0, 0, 5, -737.85,74.15) ">
<use xlink:href="#Layer0_0_MEMBER_5_MEMBER_4_FILL"/>
</g>

<g transform="matrix( 5, 0, 0, 5, -737.85,74.15) ">
<use xlink:href="#Layer0_0_MEMBER_5_MEMBER_5_FILL"/>
</g>

<g transform="matrix( 5, 0, 0, 5, 802.15,526.9) ">
<use xlink:href="#Layer0_0_MEMBER_6_MEMBER_0_FILL"/>
</g>

<g transform="matrix( 5, 0, 0, 5, -737.85,74.15) ">
<use xlink:href="#Layer0_0_MEMBER_6_MEMBER_1_FILL"/>
</g>

<g transform="matrix( 5, 0, 0, 5, -737.85,74.15) ">
<use xlink:href="#Layer0_0_MEMBER_6_MEMBER_2_FILL"/>
</g>

<g transform="matrix( 5, 0, 0, 5, -737.85,74.15) ">
<use xlink:href="#Layer0_0_MEMBER_6_MEMBER_3_FILL"/>
</g>

<g transform="matrix( 5, 0, 0, 5, -737.85,74.15) ">
<use xlink:href="#Layer0_0_MEMBER_6_MEMBER_4_FILL"/>
</g>

<g transform="matrix( 5, 0, 0, 5, -737.85,74.15) ">
<use xlink:href="#Layer0_0_MEMBER_6_MEMBER_5_FILL"/>
</g>

<g transform="matrix( 5, 0, 0, 5, 619.9,608.4) ">
<use xlink:href="#Layer0_0_MEMBER_7_FILL"/>
</g>

<g transform="matrix( 5, 0, 0, 5, 649.4,634.65) ">
<use xlink:href="#Layer0_0_MEMBER_8_FILL"/>
</g>
</svg>
