<svg xmlns="http://www.w3.org/2000/svg" xmlns:xlink="http://www.w3.org/1999/xlink" viewBox="0 0 786.47 691.15"><defs><style>.cls-1,.cls-17{fill:#68a4c3;}.cls-1,.cls-10,.cls-11,.cls-12,.cls-13,.cls-15,.cls-16,.cls-2,.cls-22,.cls-28,.cls-29,.cls-3,.cls-4,.cls-5,.cls-6,.cls-7,.cls-8,.cls-9{stroke:#493437;}.cls-1,.cls-10,.cls-11,.cls-12,.cls-13,.cls-16,.cls-2,.cls-22,.cls-29,.cls-3,.cls-33,.cls-4,.cls-6,.cls-7,.cls-8,.cls-9{stroke-linecap:round;stroke-linejoin:round;}.cls-1,.cls-10,.cls-12,.cls-13,.cls-15,.cls-2,.cls-22,.cls-28,.cls-29,.cls-3,.cls-33,.cls-4,.cls-5,.cls-6,.cls-7,.cls-8,.cls-9{stroke-width:2px;}.cls-2,.cls-23{fill:#f65b2b;}.cls-3,.cls-30,.cls-33{fill:#a9a3c2;}.cls-4{fill:#404652;}.cls-10,.cls-5{fill:#e8c2b7;}.cls-15,.cls-28,.cls-5{stroke-miterlimit:10;}.cls-6{fill:#4a7a94;}.cls-11,.cls-20,.cls-22,.cls-7{fill:none;}.cls-7{stroke-dasharray:8;}.cls-8,.cls-9{fill:#576b8f;}.cls-9{stroke-dasharray:3;}.cls-11{stroke-width:20px;}.cls-12{fill:#265a7a;}.cls-13{fill:#132d3d;}.cls-14{fill:#493437;}.cls-15,.cls-16,.cls-29{fill:#ffdbd1;}.cls-18{clip-path:url(#clip-path);}.cls-19{fill:#4e819c;}.cls-21{fill:#5688a1;}.cls-24{clip-path:url(#clip-path-2);}.cls-25{fill:#cc4b24;}.cls-26{clip-path:url(#clip-path-3);}.cls-27{clip-path:url(#clip-path-4);}.cls-28{fill:#291e1e;}.cls-31{clip-path:url(#clip-path-5);}.cls-32{fill:#797296;}.cls-33{stroke:#291e1e;}.cls-34{clip-path:url(#clip-path-6);}.cls-35{fill:#8882a1;}.cls-36{clip-path:url(#clip-path-7);}</style><clipPath id="clip-path" transform="translate(18.31 -196.35)"><path class="cls-1" d="M550.41,452s10.9,45.27-11.91,67.06-142.39,41.74-142.39,41.74-6.31,2.73-9.38,3.07-7.21-1.58-7.21-1.58,25.19,14.3,34.38,23.15c0,0,19.41,2.05,22.47,2.05s1,4.42,1,4.42-5.45,10.89-8.17,11.58-11.91-3.75-11.91-3.75l7.14,10.21s-10.21,23.15-26.89,27.92c0,0-9.62-11.7-15.66-19.07,0,0-52.42-32.68-61.62-42.89s-10.55-23.83-1-41.53S454.41,469,454.41,469Z"/></clipPath><clipPath id="clip-path-2" transform="translate(18.31 -196.35)"><path class="cls-2" d="M315.29,310S300.76,345.51,346,345.51s.65-38.65.65-38.65Z"/></clipPath><clipPath id="clip-path-3" transform="translate(18.31 -196.35)"><path class="cls-2" d="M361.82,303.55s-25.19,18.72-22.13,32,10.21,19.75,13.62,20.77,19.74-9.54,19.74-9.54l-2.38-29.61Z"/></clipPath><clipPath id="clip-path-4" transform="translate(18.31 -196.35)"><path class="cls-2" d="M366.75,291.55s-15.57,29.36,0,44.68c16.85-2.55,42.64-15.32,46.47-25.79S366.75,291.55,366.75,291.55Z"/></clipPath><clipPath id="clip-path-5" transform="translate(18.31 -196.35)"><path class="cls-3" d="M331.49,344.13c-7.25,5.25-19.69,18.51-21.64,35.92a1.82,1.82,0,0,1-1.18,1.52c-4.8,1.82-21,16.31-23.49,41.87a2.81,2.81,0,0,1-1.06,1.59c-5.83,6-12.13,10.75-15.88,18.07-5.41,10.58-6.57,23.39-7,26.28-.89,1.15-5.11,8-6.33,9.84l-.27.42a1.88,1.88,0,0,0,.09,2.19,17.6,17.6,0,0,0,8.62,6.23,95.93,95.93,0,0,0,8.59-11.57l-8.51,11.66a1.9,1.9,0,0,0-.14,2,33.77,33.77,0,0,0,19.59,16,1.88,1.88,0,0,0,1.75-.38L296,496.21a1.9,1.9,0,0,1,2.4,0l1.48,1.19a1.89,1.89,0,0,0,1.64.35c4.45-1.15,24-7.69,37.51-36.45a1.93,1.93,0,0,1,1.16-1c4.45-1.36,26.61-9.6,43.05-42.18a1.9,1.9,0,0,1,1.31-1l.17,0a1.87,1.87,0,0,1,2.25,1.81c.07,5.35,1.84,19,16.89,29.45a1.88,1.88,0,0,1,.82,1.65c-.26,5.05-.13,27,21.53,30.28C450.58,484,509.84,495.47,552,455.79a1.93,1.93,0,0,0,.57-1c.87-4.27,5.15-30.21-14.71-51.07l-.12-.14-6-7.89a1.91,1.91,0,0,1-.38-1.17c.11-4.2-.84-28.47-36.56-44.91a1.87,1.87,0,0,1-1.07-1.38c-1.06-6.09-6.78-30.24-33-37.34-16.85-5.45-42,2.21-49.28-.94-17.36,22.47-28.92,18.59-43.4,25-12,5.88-16.09,16.6-18.13,18.39-2.42-.07-4.36-5.8-7.26-7.61C337.55,345.41,331.64,344,331.49,344.13Z"/></clipPath><clipPath id="clip-path-6" transform="translate(18.31 -196.35)"><path class="cls-3" d="M438.07,448.23s19.75,2.38,31.32-3.4c0,0,1.7,16.68,12.26,22.47,0,0-15.66,7.82-33,4.08C448.63,471.38,439.09,470,438.07,448.23Z"/></clipPath><clipPath id="clip-path-7" transform="translate(18.31 -196.35)"><path class="cls-2" d="M407.09,403.64s83.41,15.66,140.6-15.32c0,0,4.42-1.71,5.45,0s-.34,11.91,4.08,16.34,8.85,13.27,8.51,19.06-.68,9.87-.68,11.58-4.77,3.06-4.77,3.06-36.25,18.89-97.36,8.85c-55.66-9.36-72.9-32.88-72.9-32.88Z"/></clipPath></defs><title>骑自行车的女孩</title><g id="图层_2" data-name="图层 2"><path class="cls-4" d="M340.33,804.61l.89,3.28s56.81,4.21,86.94-6.51l-.47-7.45Z" transform="translate(18.31 -196.35)"/><polygon class="cls-5" points="423.7 496.98 434.6 554.86 402.94 540.9 397.83 497.66 423.7 496.98"/><path class="cls-6" d="M494.41,540.49s-47.13,40.4-86.68,61.85a12.1,12.1,0,0,0-6.18,12.8l8.84,48.43a12.1,12.1,0,0,0,.92,2.9l6.22,13.42a12.05,12.05,0,0,1-.91,11.75h0c-1.55,2.33-4,3.7-6.53,4.85a122,122,0,0,1-47.42,11c-9.57.23-9.67-2.3-9.12-3.45a12.76,12.76,0,0,0,.91-3c1.26-6.28,4.63-23.27,4.63-25.75,0-3.07-8.17-40.86-14.81-84.77-5.71-37.82,17.36-52.54,23.87-55.9a12.15,12.15,0,0,1,3.05-1.07l98.63-20.37a12,12,0,0,1,13,6l11.56,21.26Z" transform="translate(18.31 -196.35)"/><path class="cls-7" d="M455.6,546.61,382.07,590l-10.72,14.3s13.28,47,14.3,68.93,2,27.07,2,27.07" transform="translate(18.31 -196.35)"/><path class="cls-8" d="M385,731.47s-4.43.68-5.11,1.7-1,24.17,1,29.27c0,0-4.94.17-6.85,6.17,0,0-14.94,3.45-27.45,9.83s-6.25,26.17-6.25,26.17,52.59,2.17,87.7-7.53c0,0-.89-40.72-4.6-53.23S385,731.47,385,731.47Z" transform="translate(18.31 -196.35)"/><path class="cls-9" d="M380.88,762.44c2.13,2.64,6.43,4.26,6.43,4.26s13,6.64,38.68-.17" transform="translate(18.31 -196.35)"/><path class="cls-10" d="M383.09,771.68s-6-.64-9.06-3.07" transform="translate(18.31 -196.35)"/><ellipse class="cls-11" cx="634.13" cy="540.86" rx="142.34" ry="140.3"/><line class="cls-12" x1="634.13" y1="420.39" x2="634.13" y2="659.03"/><line class="cls-12" x1="574.47" y1="436.37" x2="693.79" y2="643.04"/><line class="cls-12" x1="530.79" y1="480.05" x2="737.46" y2="599.37"/><line class="cls-12" x1="530.79" y1="599.37" x2="737.46" y2="480.05"/><line class="cls-12" x1="574.47" y1="643.04" x2="693.79" y2="436.37"/><line class="cls-12" x1="514.81" y1="539.71" x2="753.45" y2="539.71"/><rect class="cls-12" x="453.12" y="531.85" width="11.74" height="207.66" transform="translate(246.78 -310.09) rotate(18.73)"/><rect class="cls-13" x="410.65" y="685.97" width="6.77" height="138.1" transform="translate(495.44 -300.11) rotate(32.94)"/><rect class="cls-13" x="378.43" y="612.22" width="39.32" height="9.45"/><rect class="cls-13" x="428.8" y="695.72" width="39.32" height="9.45" transform="translate(-289.04 156.97) rotate(-32.7)"/><circle class="cls-12" cx="437.83" cy="548.05" r="18.38"/><ellipse class="cls-11" cx="152.34" cy="540.86" rx="142.34" ry="140.3"/><line class="cls-12" x1="152.34" y1="420.39" x2="152.34" y2="659.03"/><line class="cls-12" x1="92.68" y1="436.37" x2="212" y2="643.04"/><line class="cls-12" x1="49.01" y1="480.05" x2="255.67" y2="599.37"/><line class="cls-12" x1="49.01" y1="599.37" x2="255.67" y2="480.05"/><line class="cls-12" x1="92.68" y1="643.04" x2="212" y2="436.37"/><line class="cls-12" x1="33.02" y1="539.71" x2="271.66" y2="539.71"/><rect class="cls-12" x="346.41" y="430.61" width="11.74" height="262.13" transform="translate(932.27 13.04) rotate(90)"/><rect class="cls-12" x="539.45" y="543.5" width="11.74" height="200.38" transform="translate(-259.68 263.33) rotate(-37.13)"/><rect class="cls-12" x="305.29" y="527.36" width="11.74" height="255.4" transform="translate(-371.82 274.02) rotate(-49.84)"/><rect class="cls-12" x="507.43" y="651.55" width="11.74" height="185.87" transform="translate(1276.1 34.83) rotate(90)"/><polygon class="cls-12" points="262.12 319.37 251.15 315.17 185.57 486.79 153.17 526.89 162.3 534.27 195.88 492.72 262.12 319.37"/><circle class="cls-12" cx="152.34" cy="540.86" r="22.09"/><path class="cls-14" d="M457.14,540.83s55.49,2.38,61.61,2,21.79-6.81,24.85-20.77-4.76-21.1-4.76-21.1L452,537.08Z" transform="translate(18.31 -196.35)"/><circle class="cls-12" cx="634.13" cy="540.86" r="22.09"/><path class="cls-15" d="M260.37,479.55s-13.62,11.92-14.3,18.38c.51,10.39-.68,12.09.68,13.28s9.19,5.45,20.26,6.3,15-23.15,15-23.15Z" transform="translate(18.31 -196.35)"/><path class="cls-12" d="M233.22,524.91h10v-.08h6.49a1.61,1.61,0,0,1-.34-1.1,35.25,35.25,0,0,1,2.84-10.82H247l-1.36.13a.63.63,0,0,0,0-.13h-2.46v-1.4h16.1v-10H233.11Z" transform="translate(18.31 -196.35)"/><path class="cls-12" d="M284.3,512.91c.23,1.5.42,3,.5,4.34.11,1.91-1.81,4.82-4.13,7.58H293.6V512.91Z" transform="translate(18.31 -196.35)"/><path class="cls-15" d="M282.5,504a90.83,90.83,0,0,1,2.3,13.27c.25,4.34-10,13.79-11.49,15.07s-12.54.29-23.3-7.16a1.61,1.61,0,0,1-.68-1.43,35.78,35.78,0,0,1,3-11.33l-6.77.64s2.68-10.34,19.54-24.64C279.46,476.25,282.5,504,282.5,504Z" transform="translate(18.31 -196.35)"/><path class="cls-16" d="M258.75,510.87A67.21,67.21,0,0,1,280.07,518" transform="translate(18.31 -196.35)"/><path class="cls-15" d="M396.63,620.15l44.68,23.15,16-18.22s-29.11-28.42-41.88-31S396.63,620.15,396.63,620.15Z" transform="translate(18.31 -196.35)"/><path class="cls-17" d="M550.41,452s10.9,45.27-11.91,67.06-142.39,41.74-142.39,41.74-6.31,2.73-9.38,3.07-7.21-1.58-7.21-1.58,25.19,14.3,34.38,23.15c0,0,19.41,2.05,22.47,2.05s1,4.42,1,4.42-5.45,10.89-8.17,11.58-11.91-3.75-11.91-3.75l7.14,10.21s-10.21,23.15-26.89,27.92c0,0-9.62-11.7-15.66-19.07,0,0-52.42-32.68-61.62-42.89s-10.55-23.83-1-41.53S454.41,469,454.41,469Z" transform="translate(18.31 -196.35)"/><g class="cls-18"><path class="cls-19" d="M553.71,492.26c-7.84,8.72-41.77,36.19-171.85,62.5a1.09,1.09,0,0,1-.26,0c-1.31.11-12.4,1.07-19.18,3.2-1.77.56-.72,2.9,1.14,2.92,11.49.13,22,3.78,31.15,8.94,10.29,5.79,30,13.28,31.33,12.57l.25-.11,143.45-54.63a2.18,2.18,0,0,0,1.23-2.89l-13.64-31.93A2.17,2.17,0,0,0,553.71,492.26Z" transform="translate(18.31 -196.35)"/><path class="cls-20" d="M327.6,581.51s55.49,33.7,93.11,52.59c20.55,10.32-43.57,13.62-43.57,13.62l-54.81-45.28,8.85-17h0" transform="translate(18.31 -196.35)"/><path class="cls-21" d="M433,482.16s64.5,21.82,130.11-19.29c63.54-39.8-61.42-9.39-61.42-9.39l-66.49,24.15Z" transform="translate(18.31 -196.35)"/></g><path class="cls-22" d="M550.41,452s10.9,45.27-11.91,67.06-142.39,41.74-142.39,41.74-6.31,2.73-9.38,3.07-7.21-1.58-7.21-1.58,25.19,14.3,34.38,23.15c0,0,19.41,2.05,22.47,2.05s1,4.42,1,4.42-5.45,10.89-8.17,11.58-11.91-3.75-11.91-3.75l7.14,10.21s-10.21,23.15-26.89,27.92c0,0-9.62-11.7-15.66-19.07,0,0-52.42-32.68-61.62-42.89s-10.55-23.83-1-41.53S454.41,469,454.41,469Z" transform="translate(18.31 -196.35)"/><path class="cls-22" d="M370.84,567.3s-12-6.64-4.09-6.64a44.34,44.34,0,0,1,12.77,1.61" transform="translate(18.31 -196.35)"/><path class="cls-1" d="M460.2,484.57s34.21,6.38,47.74,7.92-2-5.62-2-5.62" transform="translate(18.31 -196.35)"/><path class="cls-7" d="M488.54,480s2.3,16.08-36.77,26-96,38.3-100.34,41.62-5.61,12.51,3.07,16.34c5.65,2.49,49.27,28.59,58.21,40.34" transform="translate(18.31 -196.35)"/><path class="cls-22" d="M552.63,487.12s-12,8.18-24.77,7.41c0,0,2,17.11-9.7,35.23" transform="translate(18.31 -196.35)"/><path class="cls-4" d="M418.07,706.44s1.92,2.43,3.19,2.94,47.32-24,74.9-52.34a27.75,27.75,0,0,0-3.41-4.72C490.78,650.17,418.07,706.44,418.07,706.44Z" transform="translate(18.31 -196.35)"/><path class="cls-8" d="M427.69,642.44c-.74,3.24,8.89,11.15,8.89,11.15s-4.3,3-4.47,8.09c0,0-19.74,10.21-22.8,20.93-2.22,7.66,0,17,8.76,23.83,41.75-18.25,75.07-54.12,75.07-54.12s-17.28-24-38.73-35.41C441.9,622.78,429.05,636.49,427.69,642.44Z" transform="translate(18.31 -196.35)"/><line class="cls-8" x1="462.11" y1="462.98" x2="454.89" y2="457.56"/><path class="cls-8" d="M432.63,668.27a26.83,26.83,0,0,1-.52-6.59" transform="translate(18.31 -196.35)"/><path class="cls-9" d="M445.22,657.59s18.6-8.76,27.41-23.32" transform="translate(18.31 -196.35)"/><path class="cls-23" d="M315.29,310S300.76,345.51,346,345.51s.65-38.65.65-38.65Z" transform="translate(18.31 -196.35)"/><g class="cls-24"><path class="cls-25" d="M308.83,323.56a51.31,51.31,0,0,0,33.57,14.22c21.31.93,3.55,13.46,3.55,13.46L312.7,355l-11.62-18.87Z" transform="translate(18.31 -196.35)"/></g><path class="cls-22" d="M315.29,310S300.76,345.51,346,345.51s.65-38.65.65-38.65Z" transform="translate(18.31 -196.35)"/><path class="cls-15" d="M302.41,231.38S283.71,259.73,306,303c18.38,35.74,60.25,9,66.89.17s13.79-61.11,13.79-61.11Z" transform="translate(18.31 -196.35)"/><path class="cls-23" d="M361.82,303.55s-25.19,18.72-22.13,32,10.21,19.75,13.62,20.77,19.74-9.54,19.74-9.54l-2.38-29.61Z" transform="translate(18.31 -196.35)"/><g class="cls-26"><path class="cls-25" d="M334.58,339.64S347,345.42,371,328.74s-1.7,36.94-1.7,36.94l-49-2.38Z" transform="translate(18.31 -196.35)"/></g><path class="cls-22" d="M361.82,303.55s-25.19,18.72-22.13,32,10.21,19.75,13.62,20.77,19.74-9.54,19.74-9.54l-2.38-29.61Z" transform="translate(18.31 -196.35)"/><path class="cls-23" d="M366.75,291.55s-15.57,29.36,0,44.68c16.85-2.55,42.64-15.32,46.47-25.79S366.75,291.55,366.75,291.55Z" transform="translate(18.31 -196.35)"/><g class="cls-27"><path class="cls-25" d="M362.33,304.4s-.34,23.15,11.91,22.81,42.56-17,42.56-17l-24,42.89-44.43-7.83-4.43-41.53,18.39.68Z" transform="translate(18.31 -196.35)"/></g><path class="cls-22" d="M366.75,291.55s-15.57,29.36,0,44.68c16.85-2.55,42.64-15.32,46.47-25.79S366.75,291.55,366.75,291.55Z" transform="translate(18.31 -196.35)"/><path class="cls-28" d="M301.56,232.74s.46,16.9,25.26,28.65c5.12,2.43,11.88,10.61,17.21,12.54,8.42,3.07,15.59,10.2,22.72,17.62,12.77,13.28,12.77,22.21,61.45,18.13S482.67,323,484.37,323s11.91-63,11.91-64.68-1-26.55-44.93-27.23-43.58-5.11-66.38-21.79-60.26-15.66-75.58,2.05-25.53,32.34-20.08,49.36,11.91-1.36,11.91-1.36l.34-26.56" transform="translate(18.31 -196.35)"/><path class="cls-15" d="M302.41,231.38S283.71,259.73,306,303" transform="translate(18.31 -196.35)"/><path class="cls-29" d="M314.67,262.7s7.15-1.87,15.15,4.25" transform="translate(18.31 -196.35)"/><path class="cls-29" d="M300,266.27s-4.26,1.37-4.94,5.45" transform="translate(18.31 -196.35)"/><path class="cls-29" d="M315.52,272.57s4.25-1.36,12.76,5.11" transform="translate(18.31 -196.35)"/><path class="cls-29" d="M301.22,273.55s-4.42,1.15-6.3,4.43" transform="translate(18.31 -196.35)"/><ellipse class="cls-14" cx="337.83" cy="80.64" rx="2.81" ry="4"/><ellipse class="cls-14" cx="299.79" cy="278.32" rx="2.6" ry="3.66" transform="translate(-1.34 -173.56) rotate(-4.22)"/><path class="cls-29" d="M307.39,290.15s-2.42,11,6.51,9.32" transform="translate(18.31 -196.35)"/><path class="cls-29" d="M318.11,307.64a6.31,6.31,0,0,0,5.88-1.15c3.19-2.3,4.08-3.71,5.36-3.71s2.5,7.18,1.4,10.47c-1.66,5-9.7-.51-9.7-.51" transform="translate(18.31 -196.35)"/><path class="cls-30" d="M331.49,344.13c-7.25,5.25-19.69,18.51-21.64,35.92a1.82,1.82,0,0,1-1.18,1.52c-4.8,1.82-21,16.31-23.49,41.87a2.81,2.81,0,0,1-1.06,1.59c-5.83,6-12.13,10.75-15.88,18.07-5.41,10.58-6.57,23.39-7,26.28-.89,1.15-5.11,8-6.33,9.84l-.27.42a1.88,1.88,0,0,0,.09,2.19,17.6,17.6,0,0,0,8.62,6.23,95.93,95.93,0,0,0,8.59-11.57l-8.51,11.66a1.9,1.9,0,0,0-.14,2,33.77,33.77,0,0,0,19.59,16,1.88,1.88,0,0,0,1.75-.38L296,496.21a1.9,1.9,0,0,1,2.4,0l1.48,1.19a1.89,1.89,0,0,0,1.64.35c4.45-1.15,24-7.69,37.51-36.45a1.93,1.93,0,0,1,1.16-1c4.45-1.36,26.61-9.6,43.05-42.18a1.9,1.9,0,0,1,1.31-1l.17,0a1.87,1.87,0,0,1,2.25,1.81c.07,5.35,1.84,19,16.89,29.45a1.88,1.88,0,0,1,.82,1.65c-.26,5.05-.13,27,21.53,30.28C450.58,484,509.84,495.47,552,455.79a1.93,1.93,0,0,0,.57-1c.87-4.27,5.15-30.21-14.71-51.07l-.12-.14-6-7.89a1.91,1.91,0,0,1-.38-1.17c.11-4.2-.84-28.47-36.56-44.91a1.87,1.87,0,0,1-1.07-1.38c-1.06-6.09-6.78-30.24-33-37.34-16.85-5.45-42,2.21-49.28-.94-17.36,22.47-28.92,18.59-43.4,25-12,5.88-16.09,16.6-18.13,18.39-2.42-.07-4.36-5.8-7.26-7.61C337.55,345.41,331.64,344,331.49,344.13Z" transform="translate(18.31 -196.35)"/><g class="cls-31"><path class="cls-32" d="M275.35,506.78l18.72-18.72s31.32-8.85,38.47-31.32c0,0,32.34-18.38,44.94-48,0,0,17.36-7.83,22.12-13.27s23.15,3.74,37.11,6.8,25.19,5.45,25.19,5.45L410.16,424.4a49.84,49.84,0,0,0,13.95,24.17s-7.14,17,10.56,35.07-43.92-6.47-43.92-6.47L285.9,513.59Z" transform="translate(18.31 -196.35)"/><path class="cls-32" d="M428.54,436.66s39.49,33,86.13,25.19S564,444.49,564,444.49l-24.85-26.9Z" transform="translate(18.31 -196.35)"/><path class="cls-32" d="M442.16,309.34s33,10.55,43.91,43.57c0,0,38.13,12.26,43.92,46.64s65.7-38.47,65.7-38.47L500.37,264.4l-58.21,44.94h0" transform="translate(18.31 -196.35)"/></g><path class="cls-22" d="M331.49,344.13c-7.25,5.25-19.69,18.51-21.64,35.92a1.82,1.82,0,0,1-1.18,1.52c-4.8,1.82-21,16.31-23.49,41.87a2.81,2.81,0,0,1-1.06,1.59c-5.83,6-12.13,10.75-15.88,18.07-5.41,10.58-6.57,23.39-7,26.28-.89,1.15-5.11,8-6.33,9.84l-.27.42a1.88,1.88,0,0,0,.09,2.19,17.6,17.6,0,0,0,8.62,6.23,95.93,95.93,0,0,0,8.59-11.57l-8.51,11.66a1.9,1.9,0,0,0-.14,2,33.77,33.77,0,0,0,19.59,16,1.88,1.88,0,0,0,1.75-.38L296,496.21a1.9,1.9,0,0,1,2.4,0l1.48,1.19a1.89,1.89,0,0,0,1.64.35c4.45-1.15,24-7.69,37.51-36.45a1.93,1.93,0,0,1,1.16-1c4.45-1.36,26.61-9.6,43.05-42.18a1.9,1.9,0,0,1,1.31-1l.17,0a1.87,1.87,0,0,1,2.25,1.81c.07,5.35,1.84,19,16.89,29.45a1.88,1.88,0,0,1,.82,1.65c-.26,5.05-.13,27,21.53,30.28C450.58,484,509.84,495.47,552,455.79a1.93,1.93,0,0,0,.57-1c.87-4.27,5.15-30.21-14.71-51.07l-.12-.14-6-7.89a1.91,1.91,0,0,1-.38-1.17c.11-4.2-.84-28.47-36.56-44.91a1.87,1.87,0,0,1-1.07-1.38c-1.06-6.09-6.78-30.24-33-37.34-16.85-5.45-42,2.21-49.28-.94-17.36,22.47-28.92,18.59-43.4,25-12,5.88-16.09,16.6-18.13,18.39-2.42-.07-4.36-5.8-7.26-7.61C337.55,345.41,331.64,344,331.49,344.13Z" transform="translate(18.31 -196.35)"/><path class="cls-22" d="M320.41,388.21a9.42,9.42,0,0,1,2.81-4.85" transform="translate(18.31 -196.35)"/><path class="cls-22" d="M316.84,377.23s-1,4.6.76,7.92" transform="translate(18.31 -196.35)"/><path class="cls-22" d="M290.51,420.94s-1,4.34.51,7.15" transform="translate(18.31 -196.35)"/><path class="cls-22" d="M295.39,430.21s-.12-2,1.67-5.86" transform="translate(18.31 -196.35)"/><path class="cls-3" d="M262.33,471.25a63.21,63.21,0,0,0,7.59,6.58" transform="translate(18.31 -196.35)"/><line class="cls-3" x1="292.26" y1="285.54" x2="285.49" y2="293.71"/><line class="cls-3" x1="296.09" y1="289.37" x2="289.32" y2="297.79"/><line class="cls-33" x1="306.43" y1="298.17" x2="299.53" y2="305.32"/><line class="cls-3" x1="301.57" y1="293.32" x2="294.43" y2="302"/><line class="cls-3" x1="280.64" y1="279.22" x2="276.74" y2="284.64"/><line class="cls-3" x1="283.68" y1="281.77" x2="279.74" y2="287.71"/><line class="cls-3" x1="289.49" y1="281.24" x2="285.02" y2="287.24"/><path class="cls-3" d="M275.9,480.53" transform="translate(18.31 -196.35)"/><path class="cls-22" d="M349.9,353.34s-7,11.69-6.23,21.08a1.36,1.36,0,0,1-.75,1.35c-5.17,2.45-32.19,16.59-36.5,46.6a1.32,1.32,0,0,1-.67,1c-4.57,2.49-34.72,20.19-33.82,52.57a1.37,1.37,0,0,0,.42.95c2.56,2.42,16.75,15.59,26,19.31" transform="translate(18.31 -196.35)"/><path class="cls-3" d="M357.39,381.85s-1.7,4.76.68,7.49" transform="translate(18.31 -196.35)"/><path class="cls-3" d="M365.9,394.78a34.7,34.7,0,0,0,12.94.69" transform="translate(18.31 -196.35)"/><path class="cls-3" d="M321,422.7s-2.39,6.47-.69,10.21" transform="translate(18.31 -196.35)"/><path class="cls-3" d="M328.45,438.36s6.13,0,7.83-.68" transform="translate(18.31 -196.35)"/><path class="cls-7" d="M412.54,325.68S432.84,333,446,358.35a17.81,17.81,0,0,0,6.78,7.2c8.23,4.86,25.38,17,31,36.82a17.74,17.74,0,0,0,2.11,4.65L503.24,434a17.79,17.79,0,0,1,1.56,3c2.34,5.83,9.79,25.78,7.48,38.17" transform="translate(18.31 -196.35)"/><path class="cls-3" d="M410.5,422.36s1,14,11.23,23.83c0,0-3.74,18.38,9.87,30.3" transform="translate(18.31 -196.35)"/><path class="cls-30" d="M438.07,448.23s19.75,2.38,31.32-3.4c0,0,1.7,16.68,12.26,22.47,0,0-15.66,7.82-33,4.08C448.63,471.38,439.09,470,438.07,448.23Z" transform="translate(18.31 -196.35)"/><g class="cls-34"><path class="cls-35" d="M445.52,447.3s23.49,12.89,35.36,13.91,9.32-26.43,9.32-26.43Z" transform="translate(18.31 -196.35)"/></g><path class="cls-22" d="M438.07,448.23s19.75,2.38,31.32-3.4c0,0,1.7,16.68,12.26,22.47,0,0-15.66,7.82-33,4.08C448.63,471.38,439.09,470,438.07,448.23Z" transform="translate(18.31 -196.35)"/><path class="cls-33" d="M383.19,418.08s15.39-8,23.9-14.44" transform="translate(18.31 -196.35)"/><path class="cls-22" d="M567.69,404.4s-7.92,5.87-12.51,4.6" transform="translate(18.31 -196.35)"/><path class="cls-22" d="M579.18,438.61s-13-6.63-21.45-4.34" transform="translate(18.31 -196.35)"/><path class="cls-22" d="M574.58,425.08s-12-3.57-15.57-1" transform="translate(18.31 -196.35)"/><line class="cls-22" x1="589.32" y1="216.47" x2="576.3" y2="219.79"/><path class="cls-22" d="M560,380.4s-3.32,6.38-8.68,10" transform="translate(18.31 -196.35)"/><path class="cls-22" d="M563.09,388.06s-10,11.49-12.51,13" transform="translate(18.31 -196.35)"/><path class="cls-22" d="M566.29,396.66a102.94,102.94,0,0,1-10.2,6.27" transform="translate(18.31 -196.35)"/><path class="cls-23" d="M407.09,403.64s83.41,15.66,140.6-15.32c0,0,4.42-1.71,5.45,0s-.34,11.91,4.08,16.34,8.85,13.27,8.51,19.06-.68,9.87-.68,11.58-4.77,3.06-4.77,3.06-36.25,18.89-97.36,8.85c-55.66-9.36-72.9-32.88-72.9-32.88Z" transform="translate(18.31 -196.35)"/><g class="cls-36"><path class="cls-25" d="M383.6,411.55S458.18,451.6,518.41,437c59-14.3,62.3-25.88,62.3-25.88l.51,41.28S451.26,481,445.14,481s-61-61-61-61Z" transform="translate(18.31 -196.35)"/></g><path class="cls-22" d="M407.09,403.64s83.41,15.66,140.6-15.32c0,0,4.42-1.71,5.45,0s-.34,11.91,4.08,16.34,8.85,13.27,8.51,19.06-.68,9.87-.68,11.58-4.77,3.06-4.77,3.06-36.25,18.89-97.36,8.85c-55.66-9.36-72.9-32.88-72.9-32.88Z" transform="translate(18.31 -196.35)"/></g></svg>