<svg id="图层_1" data-name="图层 1" xmlns="http://www.w3.org/2000/svg" viewBox="0 0 361 361"><defs><style>.cls-1{fill:#5e5252;}.cls-2{fill:#dbd2c6;}.cls-3{fill:#fff;}.cls-4,.cls-6{fill:none;}.cls-4,.cls-5,.cls-6{stroke:#5e5252;}.cls-4,.cls-5{stroke-linecap:round;stroke-linejoin:round;stroke-width:4.05px;}.cls-5{fill:#fcf3e2;}.cls-6{stroke-miterlimit:10;stroke-width:1.35px;}</style></defs><title>我想要的2021终稿</title><rect class="cls-1" x="122.54" y="120.81" width="103.27" height="159.32" rx="17.71" ry="17.71"/><rect class="cls-2" x="130.5" y="133.08" width="87.37" height="134.78"/><polygon class="cls-3" points="172.14 262.79 84.77 262.79 130.5 133.08 217.87 133.08 172.14 262.79"/><polyline class="cls-4" points="157.89 126.34 174.18 95.76 189 126.34"/><ellipse class="cls-5" cx="173.89" cy="102.73" rx="5.86" ry="5.85"/><line class="cls-6" x1="136.24" y1="141.86" x2="205.24" y2="141.86"/><line class="cls-6" x1="133.53" y1="149.27" x2="202.53" y2="149.27"/><line class="cls-6" x1="130.83" y1="156.69" x2="199.83" y2="156.69"/><line class="cls-6" x1="128.12" y1="164.11" x2="197.12" y2="164.11"/><line class="cls-6" x1="125.41" y1="171.53" x2="194.41" y2="171.53"/><line class="cls-6" x1="122.71" y1="178.95" x2="191.71" y2="178.95"/><line class="cls-6" x1="120" y1="186.37" x2="189" y2="186.37"/><line class="cls-6" x1="117.3" y1="193.79" x2="186.3" y2="193.79"/><line class="cls-6" x1="114.59" y1="201.21" x2="183.59" y2="201.21"/><line class="cls-6" x1="111.89" y1="208.63" x2="180.89" y2="208.63"/><line class="cls-6" x1="109.18" y1="216.05" x2="178.18" y2="216.05"/><line class="cls-6" x1="106.47" y1="223.47" x2="175.47" y2="223.47"/><line class="cls-6" x1="103.77" y1="230.89" x2="172.77" y2="230.89"/><line class="cls-6" x1="101.06" y1="238.31" x2="170.06" y2="238.31"/><line class="cls-6" x1="98.36" y1="245.73" x2="167.36" y2="245.73"/><line class="cls-6" x1="95.65" y1="253.15" x2="164.65" y2="253.15"/></svg>