
<svg xmlns="http://www.w3.org/2000/svg" version="1.1" xmlns:xlink="http://www.w3.org/1999/xlink" preserveAspectRatio="none" x="0px" y="0px" width="1024px" height="1024px" viewBox="0 0 1024 1024">
<defs>
<g id="Layer0_0_MEMBER_0_MEMBER_0_MEMBER_0_FILL">
<path fill="#464452" stroke="none" d="
M 148.4 44.15
L 148.45 41.35 71.05 86.45 71.05 89.2 148.4 44.15 Z"/>
</g>

<g id="Layer0_0_MEMBER_0_MEMBER_1_MEMBER_0_FILL">
<path fill="#383446" stroke="none" d="
M 0 45.05
L 0 47.8 71.05 89.2 71.05 86.45 0 45.05 Z"/>
</g>

<g id="Layer0_0_MEMBER_0_MEMBER_2_MEMBER_0_FILL">
<path fill="#4F4E59" stroke="none" d="
M 0 45.05
L 71.05 86.45 148.45 41.35 77.4 0 0 45.05 Z"/>
</g>

<g id="Layer0_0_MEMBER_0_MEMBER_3_FILL">
<path fill="#818181" stroke="none" d="
M 133.85 35.7
L 133.85 32.9 56.45 78 56.45 80.75 133.85 35.7 Z"/>
</g>

<g id="Layer0_0_MEMBER_0_MEMBER_4_FILL">
<path fill="#666666" stroke="none" d="
M 0 45.1
L 0 47.85 56.45 80.75 56.45 78 0 45.1 Z"/>
</g>

<g id="Layer0_0_MEMBER_0_MEMBER_5_FILL">
<path fill="#CACACA" stroke="none" d="
M 0 45.1
L 56.45 78 133.85 32.9 77.4 0 0 45.1 Z"/>
</g>

<g id="Layer0_0_MEMBER_0_MEMBER_6_MEMBER_0_FILL">
<path fill="#FFC411" stroke="none" d="
M 485.4 294.8
L 484.15 294.1 406.75 339.15 408.05 339.9 485.4 294.8 Z"/>
</g>

<g id="Layer0_0_MEMBER_0_MEMBER_7_FILL">
<path fill="#EFEEEC" stroke="none" d="
M 484.15 291.3
L 468.7 282.4 391.4 327.4 406.75 336.4 484.15 291.3 Z"/>
</g>

<g id="Layer0_0_MEMBER_0_MEMBER_8_FILL">
<path fill="#FFFFFF" stroke="none" d="
M 442 327.4
L 441.15 326.9 435.85 329.95 436.7 330.5 442 327.4 Z"/>
</g>

<g id="Layer0_0_MEMBER_0_MEMBER_9_FILL">
<path fill="#FFFFFF" stroke="none" d="
M 433.25 332.45
L 432.35 331.95 427.1 335 427.95 335.5 433.25 332.45 Z"/>
</g>

<g id="Layer0_0_MEMBER_0_MEMBER_10_FILL">
<path fill="#FFFFFF" stroke="none" d="
M 424.5 337.5
L 423.6 337 418.35 340.05 419.2 340.55 424.5 337.5 Z"/>
</g>

<g id="Layer0_0_MEMBER_0_MEMBER_11_FILL">
<path fill="#FFFFFF" stroke="none" d="
M 450.7 322.6
L 449.8 322.1 444.5 325.15 445.4 325.65 450.7 322.6 Z"/>
</g>

<g id="Layer0_0_MEMBER_0_MEMBER_12_FILL">
<path fill="#FFFFFF" stroke="none" d="
M 459.35 317.75
L 458.45 317.25 453.2 320.3 454.05 320.8 459.35 317.75 Z"/>
</g>

<g id="Layer0_0_MEMBER_0_MEMBER_13_FILL">
<path fill="#FFFFFF" stroke="none" d="
M 468 312.9
L 467.15 312.4 461.85 315.45 462.75 315.95 468 312.9 Z"/>
</g>

<g id="Layer0_0_MEMBER_0_MEMBER_14_FILL">
<path fill="#FFFFFF" stroke="none" d="
M 476.7 308.1
L 475.8 307.55 470.5 310.65 471.4 311.15 476.7 308.1 Z"/>
</g>

<g id="Layer0_0_MEMBER_0_MEMBER_15_FILL">
<path fill="#FFFFFF" stroke="none" d="
M 485.45 303.1
L 484.6 302.6 479.3 305.65 480.15 306.15 485.45 303.1 Z"/>
</g>

<g id="Layer0_0_MEMBER_1_MEMBER_0_MEMBER_0_MEMBER_0_MEMBER_0_FILL">
<path fill="#DFBFA2" stroke="none" d="
M 0 28.9
L 32.55 47.75 32.55 21.1 0.05 2.25 0 28.9 Z"/>
</g>

<g id="Layer0_0_MEMBER_1_MEMBER_0_MEMBER_0_MEMBER_1_MEMBER_0_FILL">
<path fill="#FADDC4" stroke="none" d="
M 56.5 5.95
L 44.5 1.9 32.55 21.1 32.55 47.75 56.45 34 56.5 5.95 Z"/>
</g>

<g id="Layer0_0_MEMBER_1_MEMBER_0_MEMBER_0_MEMBER_2_MEMBER_0_FILL">
<path fill="#FF696C" stroke="none" d="
M 59.5 5.65
L 44.5 0.5 29.5 22.95 31.15 23.2 44.95 2.7 58.35 7.25 59.5 5.65 Z"/>
</g>

<g id="Layer0_0_MEMBER_1_MEMBER_0_MEMBER_0_MEMBER_3_MEMBER_0_FILL">
<path fill="#FF4D4E" stroke="none" d="
M 59.8 5.25
L 44.45 0 29.15 22.9 29.5 22.95 44.5 0.5 59.5 5.65 59.8 5.25 Z"/>
</g>

<g id="Layer0_0_MEMBER_1_MEMBER_0_MEMBER_0_MEMBER_4_MEMBER_0_FILL">
<path fill="#C63C3F" stroke="none" d="
M 512.65 251.65
L 436.15 225.4 598.65 319.65 675.4 345.9 512.65 251.65 Z"/>
</g>

<g id="Layer0_0_MEMBER_1_MEMBER_0_MEMBER_0_MEMBER_5_MEMBER_0_FILL">
<path fill="#E2494B" stroke="none" d="
M 425.15 277.45
L 440.45 254.55 407.95 235.7 392.6 258.6 425.15 277.45 Z"/>
</g>

<g id="Layer0_0_MEMBER_1_MEMBER_0_MEMBER_1_MEMBER_0_MEMBER_0_MEMBER_0_FILL">
<path fill="#3EC9D7" stroke="none" d="
M 439.15 289.35
L 439.15 271.65 430.35 276.6 430.35 294.3 439.15 289.35 Z"/>
</g>

<g id="Layer0_0_MEMBER_1_MEMBER_0_MEMBER_1_MEMBER_0_MEMBER_1_MEMBER_0_FILL">
<path fill="#0096A5" stroke="none" d="
M 439.15 271.65
L 430.35 276.6 430.35 284.7 437.4 288.55 439.15 271.65 Z"/>
</g>

<g id="Layer0_0_MEMBER_1_MEMBER_0_MEMBER_1_MEMBER_0_MEMBER_2_MEMBER_0_MEMBER_0_FILL">
<path fill="#2B2C2C" stroke="none" d="
M 437.5 283.6
L 430.35 287.75 430.35 288.2 437.5 284.1 437.5 283.6 Z"/>
</g>

<g id="Layer0_0_MEMBER_1_MEMBER_0_MEMBER_1_MEMBER_0_MEMBER_2_MEMBER_0_MEMBER_1_FILL">
<path fill="#2B2C2C" stroke="none" d="
M 437.5 277.35
L 430.35 281.45 430.35 281.9 437.5 277.8 437.5 277.35 Z"/>
</g>

<g id="Layer0_0_MEMBER_1_MEMBER_0_MEMBER_1_MEMBER_0_MEMBER_2_MEMBER_0_MEMBER_2_FILL">
<path fill="#2B2C2C" stroke="none" d="
M 437.5 288
L 430.35 292.15 430.35 292.6 437.5 288.5 437.5 288 Z"/>
</g>

<g id="Layer0_0_MEMBER_1_MEMBER_0_MEMBER_1_MEMBER_0_MEMBER_2_MEMBER_1_FILL">
<path fill="#2B2C2C" stroke="none" d="
M 434.1 274.45
L 433.75 274.65 433.75 291.3 434.1 291.1 434.1 274.45 Z"/>
</g>

<g id="Layer0_0_MEMBER_1_MEMBER_0_MEMBER_1_MEMBER_0_MEMBER_2_MEMBER_2_FILL">
<path fill="#2B2C2C" stroke="none" d="
M 437.4 272.65
L 437.05 272.85 437.05 289.2 437.4 289 437.4 272.65 Z"/>
</g>

<g id="Layer0_0_MEMBER_1_MEMBER_0_MEMBER_1_MEMBER_0_MEMBER_3_MEMBER_0_FILL">
<path fill="#D9E1F4" stroke="none" d="
M 437.4 288.55
L 439.15 289.35 439.15 271.65 437.4 272.65 437.4 288.55 Z"/>
</g>

<g id="Layer0_0_MEMBER_1_MEMBER_0_MEMBER_1_MEMBER_0_MEMBER_3_MEMBER_1_FILL">
<path fill="#F2F5FE" stroke="none" d="
M 439.15 289.35
L 437.4 288.55 430.35 292.5 430.35 294.3 439.15 289.35 Z"/>
</g>

<g id="Layer0_0_MEMBER_1_MEMBER_0_MEMBER_1_MEMBER_1_MEMBER_0_MEMBER_0_FILL">
<path fill="#3EC9D7" stroke="none" d="
M 442.9 269.4
L 442.9 287.1 451.65 282.15 451.65 264.45 442.9 269.4 Z"/>
</g>

<g id="Layer0_0_MEMBER_1_MEMBER_0_MEMBER_1_MEMBER_1_MEMBER_1_MEMBER_0_FILL">
<path fill="#0096A5" stroke="none" d="
M 442.9 269.4
L 442.9 277.5 449.9 281.35 451.7 264.45 442.9 269.4 Z"/>
</g>

<g id="Layer0_0_MEMBER_1_MEMBER_0_MEMBER_1_MEMBER_1_MEMBER_2_MEMBER_0_MEMBER_0_FILL">
<path fill="#2B2C2C" stroke="none" d="
M 442.9 280.55
L 442.9 281 450 276.85 450 276.4 442.9 280.55 Z"/>
</g>

<g id="Layer0_0_MEMBER_1_MEMBER_0_MEMBER_1_MEMBER_1_MEMBER_2_MEMBER_0_MEMBER_1_FILL">
<path fill="#2B2C2C" stroke="none" d="
M 442.9 274.25
L 442.9 274.7 450 270.6 450 270.1 442.9 274.25 Z"/>
</g>

<g id="Layer0_0_MEMBER_1_MEMBER_0_MEMBER_1_MEMBER_1_MEMBER_2_MEMBER_0_MEMBER_2_FILL">
<path fill="#2B2C2C" stroke="none" d="
M 442.9 284.9
L 442.9 285.4 450 281.25 450 280.8 442.9 284.9 Z"/>
</g>

<g id="Layer0_0_MEMBER_1_MEMBER_0_MEMBER_1_MEMBER_1_MEMBER_2_MEMBER_1_FILL">
<path fill="#2B2C2C" stroke="none" d="
M 446.6 267.25
L 446.25 267.45 446.25 284.05 446.6 283.85 446.6 267.25 Z"/>
</g>

<g id="Layer0_0_MEMBER_1_MEMBER_0_MEMBER_1_MEMBER_1_MEMBER_2_MEMBER_2_FILL">
<path fill="#2B2C2C" stroke="none" d="
M 449.9 265.45
L 449.55 265.65 449.55 282 449.9 281.8 449.9 265.45 Z"/>
</g>

<g id="Layer0_0_MEMBER_1_MEMBER_0_MEMBER_1_MEMBER_1_MEMBER_3_MEMBER_0_FILL">
<path fill="#D9E1F4" stroke="none" d="
M 449.9 281.35
L 451.65 282.15 451.65 264.45 449.9 265.45 449.9 281.35 Z"/>
</g>

<g id="Layer0_0_MEMBER_1_MEMBER_0_MEMBER_1_MEMBER_1_MEMBER_3_MEMBER_1_FILL">
<path fill="#F2F5FE" stroke="none" d="
M 442.9 285.3
L 442.9 287.1 451.65 282.15 449.9 281.35 442.9 285.3 Z"/>
</g>

<g id="Layer0_0_MEMBER_1_MEMBER_0_MEMBER_2_MEMBER_0_FILL">
<path fill="#FF696C" stroke="none" d="
M 452.45 288.55
L 452.45 283.9 428.55 297.35 428.55 302.3 452.45 288.55 Z"/>
</g>

<g id="Layer0_0_MEMBER_1_MEMBER_0_MEMBER_3_MEMBER_0_FILL">
<path fill="#E2494B" stroke="none" d="
M 397.55 279.6
L 397.55 284.25 428.55 302.3 428.55 297.35 397.55 279.6 Z"/>
</g>

<g id="Layer0_0_MEMBER_1_MEMBER_1_MEMBER_0_FILL">
<path fill="#DFBFA2" stroke="none" d="
M 17.9 31.35
L 0 20.95 0.05 40.75 17.95 51.15 17.9 31.35 Z"/>
</g>

<g id="Layer0_0_MEMBER_1_MEMBER_1_MEMBER_1_FILL">
<path fill="#FFEBD8" stroke="none" d="
M 36.25 0
L 0 20.95 17.9 31.35 54.2 10.4 36.25 0 Z"/>
</g>

<g id="Layer0_0_MEMBER_1_MEMBER_1_MEMBER_2_FILL">
<path fill="#FADDC4" stroke="none" d="
M 54.25 30.2
L 54.2 10.4 17.9 31.35 17.95 51.15 54.25 30.2 Z"/>
</g>

<g id="Layer0_0_MEMBER_1_MEMBER_2_MEMBER_0_MEMBER_0_FILL">
<path fill="#FFFFFF" stroke="none" d="
M 414.9 296.25
L 414.9 295.1 402.9 302.1 402.9 303.2 414.9 296.25 Z"/>
</g>

<g id="Layer0_0_MEMBER_1_MEMBER_2_MEMBER_0_MEMBER_1_FILL">
<path fill="#E7E7E7" stroke="none" d="
M 402.9 303.2
L 402.9 304.35 414.95 297.35 414.9 296.25 402.9 303.2 Z"/>
</g>

<g id="Layer0_0_MEMBER_1_MEMBER_2_MEMBER_0_MEMBER_2_FILL">
<path fill="#E7E7E7" stroke="none" d="
M 414.9 295.1
L 414.9 294 402.9 300.95 402.9 302.1 414.9 295.1 Z"/>
</g>

<g id="Layer0_0_MEMBER_1_MEMBER_2_MEMBER_0_MEMBER_3_FILL">
<path fill="#FFFFFF" stroke="none" d="
M 414.9 294
L 414.9 292.85 402.9 299.8 402.9 300.95 414.9 294 Z"/>
</g>

<g id="Layer0_0_MEMBER_1_MEMBER_2_MEMBER_0_MEMBER_4_FILL">
<path fill="#E7E7E7" stroke="none" d="
M 414.9 292.85
L 414.9 291.75 402.9 298.7 402.9 299.8 414.9 292.85 Z"/>
</g>

<g id="Layer0_0_MEMBER_1_MEMBER_2_MEMBER_0_MEMBER_5_FILL">
<path fill="#FFFFFF" stroke="none" d="
M 414.9 291.75
L 414.9 290.6 402.85 297.55 402.9 298.7 414.9 291.75 Z"/>
</g>

<g id="Layer0_0_MEMBER_1_MEMBER_2_MEMBER_0_MEMBER_6_FILL">
<path fill="#E7E7E7" stroke="none" d="
M 414.9 290.6
L 414.9 289.5 402.85 296.45 402.85 297.55 414.9 290.6 Z"/>
</g>

<g id="Layer0_0_MEMBER_1_MEMBER_2_MEMBER_0_MEMBER_7_FILL">
<path fill="#FFFFFF" stroke="none" d="
M 414.9 289.5
L 414.85 288.35 402.85 295.3 402.85 296.45 414.9 289.5 Z"/>
</g>

<g id="Layer0_0_MEMBER_1_MEMBER_2_MEMBER_0_MEMBER_8_FILL">
<path fill="#E7E7E7" stroke="none" d="
M 414.85 288.35
L 414.85 287.25 402.85 294.2 402.85 295.3 414.85 288.35 Z"/>
</g>

<g id="Layer0_0_MEMBER_1_MEMBER_2_MEMBER_0_MEMBER_9_FILL">
<path fill="#FFFFFF" stroke="none" d="
M 414.85 287.25
L 414.85 286.1 402.85 293.05 402.85 294.2 414.85 287.25 Z"/>
</g>

<g id="Layer0_0_MEMBER_1_MEMBER_2_MEMBER_0_MEMBER_10_FILL">
<path fill="#E7E7E7" stroke="none" d="
M 414.85 286.1
L 414.85 285 402.85 291.95 402.85 293.05 414.85 286.1 Z"/>
</g>

<g id="Layer0_0_MEMBER_1_MEMBER_2_MEMBER_0_MEMBER_11_MEMBER_0_FILL">
<path fill="#FFFFFF" stroke="none" d="
M 414.85 285
L 414.85 283.85 402.85 290.85 402.85 291.95 414.85 285 Z"/>
</g>

<g id="Layer0_0_MEMBER_1_MEMBER_2_MEMBER_0_MEMBER_12_MEMBER_0_FILL">
<path fill="#E7E7E7" stroke="none" d="
M 414.85 283.85
L 414.85 282.75 402.85 289.7 402.85 290.85 414.85 283.85 Z"/>
</g>

<g id="Layer0_0_MEMBER_1_MEMBER_2_MEMBER_0_MEMBER_13_MEMBER_0_FILL">
<path fill="#FFFFFF" stroke="none" d="
M 414.85 282.75
L 414.85 281.6 402.85 288.55 402.85 289.7 414.85 282.75 Z"/>
</g>

<g id="Layer0_0_MEMBER_1_MEMBER_2_MEMBER_0_MEMBER_14_MEMBER_0_FILL">
<path fill="#FFFFFF" stroke="none" d="
M 414.85 281.6
L 414.85 280.5 402.85 287.45 402.85 288.6 414.85 281.6 Z"/>
</g>

<g id="Layer0_0_MEMBER_1_MEMBER_2_MEMBER_0_MEMBER_15_FILL">
<path fill="#E7E7E7" stroke="none" d="
M 415.9 280.75
L 415.9 279.4 401.55 287.7 401.55 289.05 415.9 280.75 Z"/>
</g>

<g id="Layer0_0_MEMBER_1_MEMBER_3_MEMBER_0_FILL">
<path fill="#FFFFFF" stroke="none" d="
M 396.55 305.7
L 384.5 312.65 384.5 313.8 396.55 306.8 396.55 305.7 Z"/>
</g>

<g id="Layer0_0_MEMBER_1_MEMBER_3_MEMBER_1_FILL">
<path fill="#E7E7E7" stroke="none" d="
M 396.55 306.8
L 384.55 313.8 384.55 314.9 396.55 307.95 396.55 306.8 Z"/>
</g>

<g id="Layer0_0_MEMBER_1_MEMBER_3_MEMBER_2_FILL">
<path fill="#E7E7E7" stroke="none" d="
M 396.55 304.55
L 384.5 311.55 384.5 312.65 396.55 305.7 396.55 304.55 Z"/>
</g>

<g id="Layer0_0_MEMBER_1_MEMBER_3_MEMBER_3_FILL">
<path fill="#FFFFFF" stroke="none" d="
M 396.5 303.45
L 384.5 310.4 384.5 311.55 396.55 304.55 396.5 303.45 Z"/>
</g>

<g id="Layer0_0_MEMBER_1_MEMBER_3_MEMBER_4_FILL">
<path fill="#E7E7E7" stroke="none" d="
M 396.5 302.3
L 384.5 309.3 384.5 310.4 396.5 303.45 396.5 302.3 Z"/>
</g>

<g id="Layer0_0_MEMBER_1_MEMBER_3_MEMBER_5_FILL">
<path fill="#FFFFFF" stroke="none" d="
M 396.5 301.2
L 384.5 308.15 384.5 309.3 396.5 302.3 396.5 301.2 Z"/>
</g>

<g id="Layer0_0_MEMBER_1_MEMBER_3_MEMBER_6_FILL">
<path fill="#E7E7E7" stroke="none" d="
M 396.5 300.05
L 384.5 307.05 384.5 308.15 396.5 301.2 396.5 300.05 Z"/>
</g>

<g id="Layer0_0_MEMBER_1_MEMBER_3_MEMBER_7_FILL">
<path fill="#FFFFFF" stroke="none" d="
M 396.5 298.95
L 384.5 305.9 384.5 307.05 396.5 300.05 396.5 298.95 Z"/>
</g>

<g id="Layer0_0_MEMBER_1_MEMBER_3_MEMBER_8_FILL">
<path fill="#E7E7E7" stroke="none" d="
M 396.5 297.8
L 384.5 304.8 384.5 305.9 396.5 298.95 396.5 297.8 Z"/>
</g>

<g id="Layer0_0_MEMBER_1_MEMBER_3_MEMBER_9_FILL">
<path fill="#FFFFFF" stroke="none" d="
M 384.5 304.8
L 396.5 297.8 396.5 296.7 384.5 303.65 384.5 304.8 Z"/>
</g>

<g id="Layer0_0_MEMBER_1_MEMBER_3_MEMBER_10_FILL">
<path fill="#E7E7E7" stroke="none" d="
M 396.5 296.7
L 396.5 295.55 384.45 302.55 384.5 303.65 396.5 296.7 Z"/>
</g>

<g id="Layer0_0_MEMBER_1_MEMBER_3_MEMBER_11_MEMBER_0_FILL">
<path fill="#FFFFFF" stroke="none" d="
M 396.5 295.6
L 396.45 294.45 384.45 301.4 384.45 302.55 396.5 295.6 Z"/>
</g>

<g id="Layer0_0_MEMBER_1_MEMBER_3_MEMBER_12_MEMBER_0_FILL">
<path fill="#E7E7E7" stroke="none" d="
M 396.45 294.45
L 396.45 293.3 384.45 300.3 384.45 301.4 396.45 294.45 Z"/>
</g>

<g id="Layer0_0_MEMBER_1_MEMBER_3_MEMBER_13_MEMBER_0_FILL">
<path fill="#FFFFFF" stroke="none" d="
M 396.45 293.3
L 396.45 292.2 384.45 299.15 384.45 300.3 396.45 293.3 Z"/>
</g>

<g id="Layer0_0_MEMBER_1_MEMBER_3_MEMBER_14_MEMBER_0_FILL">
<path fill="#FFFFFF" stroke="none" d="
M 396.45 292.2
L 396.45 291.05 384.45 298.05 384.45 299.15 396.45 292.2 Z"/>
</g>

<g id="Layer0_0_MEMBER_1_MEMBER_3_MEMBER_15_FILL">
<path fill="#E7E7E7" stroke="none" d="
M 397.55 291.35
L 397.55 290 383.2 298.3 383.2 299.65 397.55 291.35 Z"/>
</g>

<g id="Layer0_0_MEMBER_2_MEMBER_0_FILL">
<path fill="#4F4E59" stroke="none" d="
M 397.1 307.75
L 384.25 315.2 414.2 332.1 426.65 324.8 397.1 307.75 Z"/>
</g>

<g id="Layer0_0_MEMBER_2_MEMBER_1_MEMBER_0_FILL">
<path fill="#FFFFFF" stroke="none" d="
M 400 315.45
L 399.2 315.9 393.6 312.6 393 312.95 398.6 316.25 397.8 316.75 400.8 317.2 400 315.45 Z"/>
</g>

<g id="Layer0_0_MEMBER_2_MEMBER_2_MEMBER_0_FILL">
<path fill="#FFFFFF" stroke="none" d="
M 415.45 324.45
L 414.65 324.9 409.05 321.55 408.45 321.95 414.05 325.25 413.25 325.7 416.25 326.2 415.45 324.45 Z"/>
</g>

<g id="Layer0_0_MEMBER_3_MEMBER_0_FILL">
<path fill="#4F4E59" stroke="none" d="
M 444.45 314.4
L 415 297.4 402.1 304.85 431.6 321.9 444.45 314.4 Z"/>
</g>

<g id="Layer0_0_MEMBER_3_MEMBER_1_MEMBER_0_FILL">
<path fill="#FFFFFF" stroke="none" d="
M 417.85 305.1
L 417.1 305.55 411.5 302.25 410.9 302.6 416.45 305.95 415.7 306.4 418.65 306.85 417.85 305.1 Z"/>
</g>

<g id="Layer0_0_MEMBER_3_MEMBER_2_MEMBER_0_FILL">
<path fill="#FFFFFF" stroke="none" d="
M 433.3 314.1
L 432.55 314.55 426.95 311.25 426.35 311.6 431.95 314.9 431.15 315.4 434.1 315.85 433.3 314.1 Z"/>
</g>

<g id="Layer0_0_MEMBER_4_MEMBER_0_MEMBER_0_FILL">
<path fill="#E2494B" stroke="none" d="
M 400.55 330.35
L 383.6 320.55 383.6 321.4 400.55 331.2 400.55 330.35 Z"/>
</g>

<g id="Layer0_0_MEMBER_4_MEMBER_0_MEMBER_1_FILL">
<path fill="#FF9992" stroke="none" d="
M 400.55 330.35
L 402.4 329.3 385.45 319.45 383.6 320.55 400.55 330.35 Z"/>
</g>

<g id="Layer0_0_MEMBER_4_MEMBER_0_MEMBER_2_FILL">
<path fill="#D8564F" stroke="none" d="
M 400.55 330.35
L 400.55 331.2 402.4 330.15 402.4 329.3 400.55 330.35 Z"/>
</g>

<g id="Layer0_0_MEMBER_4_MEMBER_0_MEMBER_3_FILL">
<path fill="#FADDC4" stroke="none" d="
M 400.55 325.5
L 383.9 315.85 383.9 320.5 400.55 330.15 400.55 325.5 Z"/>
</g>

<g id="Layer0_0_MEMBER_4_MEMBER_0_MEMBER_4_FILL">
<path fill="#FFEBD8" stroke="none" d="
M 400.55 325.5
L 402.15 324.55 385.55 314.9 383.9 315.85 400.55 325.5 Z"/>
</g>

<g id="Layer0_0_MEMBER_4_MEMBER_0_MEMBER_5_FILL">
<path fill="#DFBFA2" stroke="none" d="
M 400.55 325.5
L 400.55 330.15 402.15 329.2 402.15 324.55 400.55 325.5 Z"/>
</g>

<g id="Layer0_0_MEMBER_4_MEMBER_1_MEMBER_0_FILL">
<path fill="#59626B" stroke="none" d="
M 385.1 318.2
L 385.8 318.65 385.8 318.3 384.75 317.7 384.75 319.8 385.1 320 385.1 319.1 385.75 319.5 385.75 319.2 385.1 318.8 385.1 318.2 Z"/>
</g>

<g id="Layer0_0_MEMBER_4_MEMBER_1_MEMBER_1_FILL">
<path fill="#59626B" stroke="none" d="
M 386.45 318.7
L 386.15 318.5 386.15 320.6 386.45 320.8 386.45 318.7 Z"/>
</g>

<g id="Layer0_0_MEMBER_4_MEMBER_1_MEMBER_2_FILL">
<path fill="#59626B" stroke="none" d="
M 386.85 318.95
L 386.85 321.05 387.2 321.2 387.2 320.35 387.35 320.45
Q 387.6 320.55 387.65 321
L 387.8 321.6 388.15 321.8 388 321.1
Q 387.95 320.85 387.75 320.55 388.05 320.55 388.05 320.2 388.05 319.95 387.9 319.7 387.8 319.45 387.35 319.2
L 386.85 318.95
M 387.2 320.05
L 387.2 319.4 387.4 319.5
Q 387.75 319.75 387.75 320.05 387.75 320.4 387.4 320.2
L 387.2 320.05 Z"/>
</g>

<g id="Layer0_0_MEMBER_4_MEMBER_1_MEMBER_3_FILL">
<path fill="#59626B" stroke="none" d="
M 389.4 321.55
L 389.4 321.25 388.7 320.85 388.7 320.3 389.45 320.75 389.45 320.4 388.4 319.8 388.4 321.9 389.5 322.55 389.5 322.25 388.7 321.8 388.7 321.2 389.4 321.55 Z"/>
</g>

<g id="Layer0_0_MEMBER_4_MEMBER_1_MEMBER_4_FILL">
<path fill="#59626B" stroke="none" d="
M 390.4 320.95
Q 389.75 320.55 389.75 321.15 389.75 321.55 390.25 322.05 390.55 322.45 390.55 322.6 390.55 322.85 390.2 322.7
L 389.8 322.3 389.7 322.6
Q 390 322.9 390.2 323 390.9 323.4 390.9 322.75 390.9 322.35 390.4 321.85 390.05 321.4 390.05 321.3 390.05 321.05 390.35 321.25
L 390.75 321.55 390.8 321.3
Q 390.65 321.1 390.4 320.95 Z"/>
</g>

<g id="Layer0_0_MEMBER_4_MEMBER_1_MEMBER_5_FILL">
<path fill="#59626B" stroke="none" d="
M 391.55 321.95
L 391.55 323.75 391.85 323.95 391.85 322.15 392.4 322.45 392.4 322.15 391 321.35 391 321.65 391.55 321.95 Z"/>
</g>

<g id="Layer0_0_MEMBER_4_MEMBER_1_MEMBER_6_FILL">
<path fill="#59626B" stroke="none" d="
M 392.8 323.85
L 393.35 324.2 393.55 324.9 393.9 325.1 393.3 322.65 392.85 322.4 392.3 324.15 392.65 324.35 392.8 323.85
M 393.3 323.85
L 392.85 323.6 393 323.15 393.05 322.8 393.3 323.85 Z"/>
</g>

<g id="Layer0_0_MEMBER_4_MEMBER_1_MEMBER_7_FILL">
<path fill="#59626B" stroke="none" d="
M 394.25 323.55
L 394.25 325.3 394.6 325.5 394.6 323.7 395.15 324 395.15 323.7 393.75 322.9 393.75 323.25 394.25 323.55 Z"/>
</g>

<g id="Layer0_0_MEMBER_4_MEMBER_1_MEMBER_8_FILL">
<path fill="#59626B" stroke="none" d="
M 395.7 324
L 395.35 323.85 395.35 325.95 395.7 326.15 395.7 324 Z"/>
</g>

<g id="Layer0_0_MEMBER_4_MEMBER_1_MEMBER_9_FILL">
<path fill="#59626B" stroke="none" d="
M 395.95 325.25
Q 395.95 326.3 396.8 326.8 397.2 327.05 397.45 326.9 397.7 326.7 397.7 326.2 397.7 325.15 396.85 324.65 395.95 324.15 395.95 325.25
M 396.3 325.45
Q 396.3 324.6 396.8 324.95 397.35 325.25 397.35 326 397.35 326.8 396.8 326.5 396.3 326.25 396.3 325.45 Z"/>
</g>

<g id="Layer0_0_MEMBER_4_MEMBER_1_MEMBER_10_FILL">
<path fill="#59626B" stroke="none" d="
M 397.95 327.45
L 398.25 327.65 398.25 325.95 399.05 328.1 399.4 328.3 399.4 326.2 399.1 326 399.15 327.6 398.35 325.55 397.95 325.35 397.95 327.45 Z"/>
</g>

<g id="Layer0_0_MEMBER_5_MEMBER_0_MEMBER_0_MEMBER_0_FILL">
<path fill="#59626B" stroke="none" d="
M 2.45 0.25
L 2.1 0.5 6.1 2.75 6.4 2.55 2.45 0.25 Z"/>
</g>

<g id="Layer0_0_MEMBER_5_MEMBER_0_MEMBER_1_FILL">
<path fill="#59626B" stroke="none" d="
M 6.85 3.15
Q 6.85 2.8 6.4 2.55
L 6.1 2.75
Q 6.7 3.2 6.1 3.55 5.4 4 4.7 3.55
L 0.75 1.3 0.6 1.2 0.6 1.15 0.55 1.05 0.5 1.05 0.5 0.75 0.55 0.7 0.55 0.65 0.65 0.55 0.75 0.5 0.9 0.4 0.95 0.4 1.1 0.35 1.85 0.35 1.85 0.4 2.1 0.5 2.45 0.25 2.15 0.1 2 0.05 1.9 0.05 1.75 0 1.2 0 1.05 0.05 0.9 0.05 0.4 0.25 0.25 0.35 0.1 0.5 0.1 0.55 0.05 0.65 0 0.7 0 1 0.2 1.3 0.25 1.3 0.4 1.45 4.35 3.7
Q 4.8 3.95 5.4 3.95 6 3.95 6.4 3.7 6.85 3.5 6.85 3.15 Z"/>
</g>

<g id="Layer0_0_MEMBER_5_MEMBER_0_MEMBER_2_FILL">
<path fill="#282E33" stroke="none" d="
M 6.35 2.95
L 6.3 3 6.25 3.1 6.1 3.25 5.9 3.35 5.8 3.35 5.65 3.4 5.1 3.4 4.95 3.35 4.9 3.3 4.7 3.25 0.75 0.95
Q 0.456640625 0.8033203125 0.45 0.55
L 0.45 0.9
Q 0.45 1.1 0.75 1.3
L 4.9 3.65 4.95 3.65 5.1 3.7 5.3 3.7 5.4 3.75 5.6 3.7 5.65 3.7 5.8 3.65 5.9 3.65 6.2 3.5 6.2 3.45 6.35 3.3 6.35 2.95 Z"/>
</g>

<g id="Layer0_0_MEMBER_5_MEMBER_0_MEMBER_3_FILL">
<path fill="#747D84" stroke="none" d="
M 6.1 2.45
L 2.1 0.15
Q 1.85 0 1.45 0 1.05 0 0.75 0.15 0.15 0.6 0.75 0.95
L 4.7 3.25
Q 5.4 3.6 6.1 3.25 6.35 3.1 6.35 2.85 6.35 2.6 6.1 2.45 Z"/>
</g>

<g id="Layer0_0_MEMBER_5_MEMBER_0_MEMBER_4_FILL">
<path fill="#282E33" stroke="none" d="
M 6.8 3.7
L 6.85 3.55 6.85 3.15 6.8 3.25 6.8 3.3 6.75 3.45 6.6 3.6 6.1 3.85 6.05 3.85 5.75 3.95 5.05 3.95 4.95 3.9 4.75 3.85 4.65 3.85 0.4 1.45
Q 0.009375 1.15703125 0 0.85
L 0 1.3
Q 0 1.6 0.4 1.85
L 4.65 4.3 4.75 4.3 4.95 4.35 5.05 4.4 5.75 4.4 6.05 4.3 6.1 4.3 6.6 4.05 6.7 3.95 6.7 3.9 6.75 3.85 6.8 3.75 6.8 3.7 Z"/>
</g>

<g id="Layer0_0_MEMBER_5_MEMBER_1_MEMBER_0_MEMBER_0_FILL">
<path fill="#59626B" stroke="none" d="
M 2.5 0.25
L 2.15 0.5 6.1 2.75 6.45 2.5 2.5 0.25 Z"/>
</g>

<g id="Layer0_0_MEMBER_5_MEMBER_1_MEMBER_1_FILL">
<path fill="#59626B" stroke="none" d="
M 6.85 3.1
Q 6.85 2.75 6.45 2.5
L 6.1 2.75
Q 6.4 2.95 6.4 3.15 6.4 3.4 6.1 3.55 5.45 3.95 4.75 3.55
L 0.65 1.15 0.6 1.15 0.55 1.05 0.55 1 0.5 0.95 0.5 0.75 0.55 0.75 0.55 0.7 0.65 0.6 0.65 0.55 0.8 0.5 0.95 0.4 1 0.4 1.15 0.35 1.2 0.35 1.3 0.3 1.6 0.3 1.85 0.35 1.9 0.4 2.15 0.5 2.5 0.25 2.2 0.1 2.05 0.05 1.95 0.05 1.8 0 1.25 0 1.05 0.05 0.95 0.05 0.75 0.1 0.7 0.1 0.25 0.35 0.25 0.4 0.1 0.55 0.05 0.65 0.05 0.7 0 0.8 0 0.85 0.1 1.15 0.15 1.15 0.25 1.3 0.3 1.3 0.45 1.45 4.4 3.7
Q 4.8 3.95 5.45 3.95 6.05 3.95 6.45 3.7 6.85 3.5 6.85 3.1 Z"/>
</g>

<g id="Layer0_0_MEMBER_5_MEMBER_1_MEMBER_2_FILL">
<path fill="#282E33" stroke="none" d="
M 6.4 2.85
L 6.35 2.95 6.35 3 6.3 3.1 6.25 3.15 6.1 3.25 5.9 3.3 5.85 3.35 5.65 3.4 5.2 3.4 5.15 3.35 5 3.35 4.9 3.3 4.75 3.25 0.8 0.95
Q 0.5056640625 0.8029296875 0.5 0.55
L 0.5 0.85
Q 0.5 1.1 0.8 1.25
L 4.9 3.65 5 3.65 5.1 3.7 5.65 3.7 5.85 3.65 5.9 3.65 6.2 3.5 6.3 3.4 6.35 3.3 6.4 3.15 6.4 2.85 Z"/>
</g>

<g id="Layer0_0_MEMBER_5_MEMBER_1_MEMBER_3_FILL">
<path fill="#747D84" stroke="none" d="
M 6.1 3.25
Q 6.4 3.05 6.4 2.85 6.4 2.6 6.1 2.45
L 2.15 0.15
Q 1.9 0 1.5 0 1.05 0 0.8 0.15 0.5 0.35 0.5 0.55 0.5 0.8 0.8 0.95
L 4.75 3.25
Q 5.45 3.65 6.1 3.25 Z"/>
</g>

<g id="Layer0_0_MEMBER_5_MEMBER_1_MEMBER_4_FILL">
<path fill="#282E33" stroke="none" d="
M 6.85 3.25
L 6.85 3.3 6.8 3.4 6.6 3.6 6.45 3.7 6.15 3.85 6.05 3.85 5.75 3.95 5.1 3.95 5 3.9 4.75 3.85 4.65 3.85 0.45 1.45
Q 0.009375 1.15625 0 0.85
L 0 1.25
Q 0 1.65 0.45 1.85
L 4.4 4.15 4.75 4.3 4.95 4.35 5.1 4.35 5.3 4.4 5.75 4.4 5.75 4.35 6.05 4.3 6.15 4.3 6.45 4.15 6.6 4.05 6.8 3.85 6.85 3.75 6.85 3.7 6.9 3.55 6.9 3.1 6.85 3.25 Z"/>
</g>

<g id="Layer0_0_MEMBER_5_MEMBER_2_MEMBER_0_FILL">
<path fill="#59626B" stroke="none" d="
M 479.1 292.1
Q 479.1 291.75 478.7 291.55 478.3 291.3 477.75 291.3 476.35 291.3 476.35 292.1 476.35 292.95 477.75 292.95 479.1 292.95 479.1 292.1 Z"/>
</g>

<g id="Layer0_0_MEMBER_5_MEMBER_2_MEMBER_1_MEMBER_0_MEMBER_0_FILL">
<path fill="#59626B" stroke="none" d="
M 479.1 292.15
L 479.1 291.7 476.35 291.7 476.35 292.15 479.1 292.15 Z"/>
</g>

<g id="Layer0_0_MEMBER_5_MEMBER_2_MEMBER_1_MEMBER_0_MEMBER_1_FILL">
<path fill="#272F3D" stroke="none" d="
M 479.1 291.65
Q 479.1 291.3 478.7 291.1 478.3 290.85 477.75 290.85 476.35 290.85 476.35 291.65 476.35 292 476.75 292.25 477.15 292.5 477.75 292.5 478.3 292.5 478.7 292.25 479.1 292 479.1 291.65 Z"/>
</g>

<g id="Layer0_0_MEMBER_5_MEMBER_2_MEMBER_1_MEMBER_1_MEMBER_0_FILL">
<path fill="#59626B" stroke="none" d="
M 478.65 259.15
Q 478.65 258.5 477.95 258.5
L 477.5 258.5
Q 476.85 258.5 476.85 259.15
L 476.85 291.6
Q 476.85 291.95 477.75 291.95 478.65 291.95 478.65 291.6
L 478.65 259.15 Z"/>
</g>

<g id="Layer0_0_MEMBER_5_MEMBER_2_MEMBER_1_MEMBER_1_MEMBER_1_MEMBER_0_FILL">
<path fill="#ABC0D2" stroke="none" d="
M 478.65 291.7
Q 478.65 291.35 477.75 291.35 476.8 291.35 476.8 291.7 476.8 292.05 477.75 292.05 478.65 292.05 478.65 291.7 Z"/>
</g>

<g id="Layer0_0_MEMBER_5_MEMBER_2_MEMBER_1_MEMBER_1_MEMBER_2_MEMBER_0_FILL">
<path fill="#59626B" stroke="none" d="
M 478.65 291.6
Q 478.65 291.3 477.75 291.3 476.85 291.3 476.85 291.6 476.85 291.95 477.75 291.95 478.65 291.95 478.65 291.6 Z"/>
</g>

<g id="Layer0_0_MEMBER_5_MEMBER_3_MEMBER_0_FILL">
<path fill="#99A3AC" stroke="none" d="
M 2 0.55
L 1.95 0.6 1.95 0.7 1.85 0.8 1.8 0.8 1.8 0.85 1.75 0.85 1.7 0.9 1.6 0.95 1.55 0.95 1.5 1 1.3 1 1.25 1.05 0.95 1.05 0.9 1 0.75 1 0.65 0.95 0.6 0.95 0.45 0.9
Q 0.2 0.75 0.2 0.5
L 0 1.15
Q 0 1.45 0.3 1.6
L 0.45 1.7 0.5 1.7 0.6 1.75 0.7 1.75 0.8 1.8 1.3 1.8 1.4 1.75 1.55 1.75 1.65 1.7 1.7 1.7 1.85 1.6 1.9 1.6 1.95 1.55 2 1.55 2 1.5 2.05 1.5 2.1 1.45 2.1 1.4 2.15 1.35 2.15 1.3 2.2 1.25 2.2 1.15 2 0.5 2 0.55 Z"/>
</g>

<g id="Layer0_0_MEMBER_5_MEMBER_3_MEMBER_1_FILL">
<path fill="#ABC0D2" stroke="none" d="
M 1.7 0.15
Q 1.45 0 1.1 0 0.7 0 0.45 0.15 0.2 0.3 0.2 0.55 0.2 0.75 0.45 0.9 1.1 1.3 1.7 0.9 1.95 0.75 1.95 0.55 1.95 0.3 1.7 0.15 Z"/>
</g>

<g id="Layer0_0_MEMBER_5_MEMBER_4_MEMBER_0_FILL">
<path fill="#59626B" stroke="none" d="
M 5.55 2.95
L 5.2 2.15 5.15 2.1 4.65 1.35 4.05 0.75 3.55 0.35 2.95 0.1 2.75 0.05 2.3 0 2.1 0 1.55 0.05 0.65 0.35 0 0.7 0.75 0.45 0.9 0.45 1.45 0.4 1.65 0.4 2.1 0.45 2.3 0.5 2.9 0.75 3.4 1.1
Q 3.8 1.4 4 1.75
L 4.1 1.85 4.75 2.9 4.8 3.1 4.9 3.3 5 3.6 5.05 3.7 5.05 3.8
Q 5.129296875 4.0380859375 5.05 4.1
L 5.65 3.75
Q 5.75 3.7 5.7 3.4
L 5.7 3.3 5.65 3.25 5.6 3.05 5.55 2.95 Z"/>
</g>

<g id="Layer0_0_MEMBER_5_MEMBER_5_MEMBER_0_FILL">
<path fill="#282E33" stroke="none" d="
M 5.3 3.6
L 5.2 3.8 5.1 3.9 5.75 3.5 6.3 2.9 5.65 3.3
Q 5.45 3.4 5.3 3.6 Z"/>
</g>

<g id="Layer0_0_MEMBER_5_MEMBER_5_MEMBER_1_FILL">
<path fill="#59626B" stroke="none" d="
M 10.3 5.6
L 10.3 5.55
Q 8.65 3 7.4 2.25
L 6.85 2 6.5 1.95 6.2 1.95 6.1 2 5.8 2.1 5.15 2.5 5.45 2.35 5.85 2.35 6.2 2.4 6.75 2.6
Q 8 3.3 9.6 5.95
L 9.65 6 9.75 6.25 9.75 6.3 9.65 6.5 10.3 6.1 10.4 5.9 10.3 5.6 Z"/>
</g>

<g id="Layer0_0_MEMBER_5_MEMBER_5_MEMBER_2_FILL">
<path fill="#282E33" stroke="none" d="
M 5.2 3.8
L 5.5 3.4
Q 5.85 3.05 6.4 3.2
L 6.75 3.4
Q 7.8 4.05 9.2 6.25
L 9.4 6.45
Q 9.6 6.55 9.65 6.5 9.85 6.3 9.6 5.95 8 3.3 6.75 2.6
L 6.2 2.4
Q 5.45 2.15 4.9 2.7 4.35 1.45 3.5 0.75
L 3 0.4
Q 1.75 -0.35 0.1 0.35 -0.15 0.5 0.1 0.9
L 0.3 1.15 0.55 1.2
Q 1.9 0.5 3 1.15
L 3.35 1.4
Q 4.2 2.1 4.55 3.35
L 4.55 3.4 4.75 3.75 4.9 3.85
Q 5.1 4.05 5.2 3.8 Z"/>
</g>

<g id="Layer0_0_MEMBER_6_MEMBER_0_MEMBER_0_MEMBER_0_FILL">
<path fill="#59626B" stroke="none" d="
M 2.1 0.5
L 6.1 2.75 6.4 2.55 2.45 0.25 2.1 0.5 Z"/>
</g>

<g id="Layer0_0_MEMBER_6_MEMBER_0_MEMBER_1_FILL">
<path fill="#59626B" stroke="none" d="
M 6.85 3.15
Q 6.85 2.8 6.4 2.55
L 6.1 2.75
Q 6.7 3.2 6.1 3.55 5.4 4 4.7 3.55
L 0.75 1.3 0.6 1.2 0.6 1.15 0.55 1.05 0.5 1.05 0.5 0.75 0.55 0.7 0.55 0.65 0.65 0.55 0.75 0.5 0.9 0.4 0.95 0.4 1.1 0.35 1.85 0.35 1.85 0.4 2.1 0.5 2.45 0.25 2.15 0.1 2 0.05 1.9 0.05 1.75 0 1.2 0 1.05 0.05 0.9 0.05 0.4 0.25 0.25 0.35 0.1 0.5 0.1 0.55 0.05 0.65 0 0.7 0 1 0.2 1.3 0.25 1.3 0.4 1.45 4.35 3.7
Q 4.8 3.95 5.4 3.95 6 3.95 6.4 3.7 6.85 3.5 6.85 3.15 Z"/>
</g>

<g id="Layer0_0_MEMBER_6_MEMBER_0_MEMBER_2_FILL">
<path fill="#282E33" stroke="none" d="
M 6.35 2.95
L 6.3 3 6.25 3.1 6.1 3.25 5.9 3.35 5.8 3.35 5.65 3.4 5.1 3.4 4.95 3.35 4.9 3.3 4.7 3.25 0.75 0.95
Q 0.456640625 0.8033203125 0.45 0.55
L 0.45 0.9
Q 0.45 1.1 0.75 1.3
L 4.9 3.65 4.95 3.65 5.1 3.7 5.3 3.7 5.4 3.75 5.6 3.7 5.65 3.7 5.8 3.65 5.9 3.65 6.2 3.5 6.2 3.45 6.35 3.3 6.35 2.95 Z"/>
</g>

<g id="Layer0_0_MEMBER_6_MEMBER_0_MEMBER_3_FILL">
<path fill="#747D84" stroke="none" d="
M 6.35 2.85
Q 6.35 2.6 6.1 2.45
L 2.1 0.15
Q 1.85 0 1.45 0 1.05 0 0.75 0.15 0.15 0.6 0.75 0.95
L 4.7 3.25
Q 5.4 3.6 6.1 3.25 6.35 3.1 6.35 2.85 Z"/>
</g>

<g id="Layer0_0_MEMBER_6_MEMBER_0_MEMBER_4_FILL">
<path fill="#282E33" stroke="none" d="
M 6.85 3.15
L 6.8 3.25 6.8 3.3 6.75 3.45 6.6 3.6 6.1 3.85 6.05 3.85 5.75 3.95 5.05 3.95 4.95 3.9 4.75 3.85 4.65 3.85 0.4 1.45
Q 0.009375 1.15703125 0 0.85
L 0 1.3
Q 0 1.6 0.4 1.85
L 4.65 4.3 4.75 4.3 4.95 4.35 5.05 4.4 5.75 4.4 6.05 4.3 6.1 4.3 6.6 4.05 6.7 3.95 6.7 3.9 6.75 3.85 6.8 3.75 6.8 3.7 6.85 3.55 6.85 3.15 Z"/>
</g>

<g id="Layer0_0_MEMBER_6_MEMBER_1_MEMBER_0_MEMBER_0_FILL">
<path fill="#59626B" stroke="none" d="
M 2.15 0.5
L 6.1 2.75 6.45 2.5 2.5 0.25 2.15 0.5 Z"/>
</g>

<g id="Layer0_0_MEMBER_6_MEMBER_1_MEMBER_1_FILL">
<path fill="#59626B" stroke="none" d="
M 6.85 3.1
Q 6.85 2.75 6.45 2.5
L 6.1 2.75
Q 6.4 2.95 6.4 3.15 6.4 3.4 6.1 3.55 5.45 3.95 4.75 3.55
L 0.65 1.15 0.6 1.15 0.55 1.05 0.55 1 0.5 0.95 0.5 0.75 0.55 0.75 0.55 0.7 0.65 0.6 0.65 0.55 0.8 0.5 0.95 0.4 1 0.4 1.15 0.35 1.2 0.35 1.3 0.3 1.6 0.3 1.85 0.35 1.9 0.4 2.15 0.5 2.5 0.25 2.2 0.1 2.05 0.05 1.95 0.05 1.8 0 1.25 0 1.05 0.05 0.95 0.05 0.75 0.1 0.7 0.1 0.25 0.35 0.25 0.4 0.1 0.55 0.05 0.65 0.05 0.7 0 0.8 0 0.85 0.1 1.15 0.15 1.15 0.25 1.3 0.3 1.3 0.45 1.45 4.4 3.7
Q 4.8 3.95 5.45 3.95 6.05 3.95 6.45 3.7 6.85 3.5 6.85 3.1 Z"/>
</g>

<g id="Layer0_0_MEMBER_6_MEMBER_1_MEMBER_2_FILL">
<path fill="#282E33" stroke="none" d="
M 6.35 2.95
L 6.35 3 6.3 3.1 6.25 3.15 6.1 3.25 5.9 3.3 5.85 3.35 5.65 3.4 5.2 3.4 5.15 3.35 5 3.35 4.9 3.3 4.75 3.25 0.8 0.95
Q 0.5056640625 0.8029296875 0.5 0.55
L 0.5 0.85
Q 0.5 1.1 0.8 1.25
L 4.9 3.65 5 3.65 5.1 3.7 5.65 3.7 5.85 3.65 5.9 3.65 6.2 3.5 6.3 3.4 6.35 3.3 6.4 3.15 6.4 2.85 6.35 2.95 Z"/>
</g>

<g id="Layer0_0_MEMBER_6_MEMBER_1_MEMBER_3_FILL">
<path fill="#747D84" stroke="none" d="
M 6.1 3.25
Q 6.4 3.05 6.4 2.85 6.4 2.6 6.1 2.45
L 2.15 0.15
Q 1.9 0 1.5 0 1.05 0 0.8 0.15 0.5 0.35 0.5 0.55 0.5 0.8 0.8 0.95
L 4.75 3.25
Q 5.45 3.65 6.1 3.25 Z"/>
</g>

<g id="Layer0_0_MEMBER_6_MEMBER_1_MEMBER_4_FILL">
<path fill="#282E33" stroke="none" d="
M 6.85 3.25
L 6.85 3.3 6.8 3.4 6.6 3.6 6.45 3.7 6.15 3.85 6.05 3.85 5.75 3.95 5.1 3.95 5 3.9 4.75 3.85 4.65 3.85 0.45 1.45
Q 0.009375 1.15625 0 0.85
L 0 1.25
Q 0 1.65 0.45 1.85
L 4.4 4.15 4.75 4.3 4.95 4.35 5.1 4.35 5.3 4.4 5.75 4.4 5.75 4.35 6.05 4.3 6.15 4.3 6.45 4.15 6.6 4.05 6.8 3.85 6.85 3.75 6.85 3.7 6.9 3.55 6.9 3.1 6.85 3.25 Z"/>
</g>

<g id="Layer0_0_MEMBER_6_MEMBER_2_MEMBER_0_FILL">
<path fill="#59626B" stroke="none" d="
M 479.1 292.1
Q 479.1 291.75 478.7 291.55 478.3 291.3 477.75 291.3 476.35 291.3 476.35 292.1 476.35 292.95 477.75 292.95 479.1 292.95 479.1 292.1 Z"/>
</g>

<g id="Layer0_0_MEMBER_6_MEMBER_2_MEMBER_1_MEMBER_0_MEMBER_0_FILL">
<path fill="#59626B" stroke="none" d="
M 479.1 292.15
L 479.1 291.7 476.35 291.7 476.35 292.15 479.1 292.15 Z"/>
</g>

<g id="Layer0_0_MEMBER_6_MEMBER_2_MEMBER_1_MEMBER_0_MEMBER_1_FILL">
<path fill="#272F3D" stroke="none" d="
M 479.1 291.65
Q 479.1 291.3 478.7 291.1 478.3 290.85 477.75 290.85 476.35 290.85 476.35 291.65 476.35 292 476.75 292.25 477.15 292.5 477.75 292.5 478.3 292.5 478.7 292.25 479.1 292 479.1 291.65 Z"/>
</g>

<g id="Layer0_0_MEMBER_6_MEMBER_2_MEMBER_1_MEMBER_1_MEMBER_0_FILL">
<path fill="#59626B" stroke="none" d="
M 478.65 259.15
Q 478.65 258.5 477.95 258.5
L 477.5 258.5
Q 476.85 258.5 476.85 259.15
L 476.85 291.6
Q 476.85 291.95 477.75 291.95 478.65 291.95 478.65 291.6
L 478.65 259.15 Z"/>
</g>

<g id="Layer0_0_MEMBER_6_MEMBER_2_MEMBER_1_MEMBER_1_MEMBER_1_MEMBER_0_FILL">
<path fill="#ABC0D2" stroke="none" d="
M 478.65 291.7
Q 478.65 291.35 477.75 291.35 476.8 291.35 476.8 291.7 476.8 292.05 477.75 292.05 478.65 292.05 478.65 291.7 Z"/>
</g>

<g id="Layer0_0_MEMBER_6_MEMBER_2_MEMBER_1_MEMBER_1_MEMBER_2_MEMBER_0_FILL">
<path fill="#59626B" stroke="none" d="
M 478.65 291.6
Q 478.65 291.3 477.75 291.3 476.85 291.3 476.85 291.6 476.85 291.95 477.75 291.95 478.65 291.95 478.65 291.6 Z"/>
</g>

<g id="Layer0_0_MEMBER_6_MEMBER_3_MEMBER_0_FILL">
<path fill="#99A3AC" stroke="none" d="
M 2 0.5
L 2 0.55 1.95 0.6 1.95 0.7 1.85 0.8 1.8 0.8 1.8 0.85 1.75 0.85 1.7 0.9 1.6 0.95 1.55 0.95 1.5 1 1.3 1 1.25 1.05 0.95 1.05 0.9 1 0.75 1 0.65 0.95 0.6 0.95 0.45 0.9
Q 0.2 0.75 0.2 0.5
L 0 1.15
Q 0 1.45 0.3 1.6
L 0.45 1.7 0.5 1.7 0.6 1.75 0.7 1.75 0.8 1.8 1.3 1.8 1.4 1.75 1.55 1.75 1.65 1.7 1.7 1.7 1.85 1.6 1.9 1.6 1.95 1.55 2 1.55 2 1.5 2.05 1.5 2.1 1.45 2.1 1.4 2.15 1.35 2.15 1.3 2.2 1.25 2.2 1.15 2 0.5 Z"/>
</g>

<g id="Layer0_0_MEMBER_6_MEMBER_3_MEMBER_1_FILL">
<path fill="#ABC0D2" stroke="none" d="
M 1.95 0.55
Q 1.95 0.3 1.7 0.15 1.45 0 1.1 0 0.7 0 0.45 0.15 0.2 0.3 0.2 0.55 0.2 0.75 0.45 0.9 1.1 1.3 1.7 0.9 1.95 0.75 1.95 0.55 Z"/>
</g>

<g id="Layer0_0_MEMBER_6_MEMBER_4_MEMBER_0_FILL">
<path fill="#59626B" stroke="none" d="
M 5.65 3.75
Q 5.75 3.7 5.7 3.4
L 5.7 3.3 5.65 3.25 5.6 3.05 5.55 2.95 5.2 2.15 5.15 2.1 4.65 1.35 4.05 0.75 3.55 0.35 2.95 0.1 2.75 0.05 2.3 0 2.1 0 1.55 0.05 0.65 0.35 0 0.7 0.75 0.45 0.9 0.45 1.45 0.4 1.65 0.4 2.1 0.45 2.3 0.5 2.9 0.75 3.4 1.1
Q 3.8 1.4 4 1.75
L 4.1 1.85 4.75 2.9 4.8 3.1 4.9 3.3 5 3.6 5.05 3.7 5.05 3.8
Q 5.129296875 4.0380859375 5.05 4.1
L 5.65 3.75 Z"/>
</g>

<g id="Layer0_0_MEMBER_6_MEMBER_5_MEMBER_0_FILL">
<path fill="#282E33" stroke="none" d="
M 5.2 3.8
L 5.1 3.9 5.75 3.5 6.3 2.9 5.65 3.3
Q 5.45 3.4 5.3 3.6
L 5.2 3.8 Z"/>
</g>

<g id="Layer0_0_MEMBER_6_MEMBER_5_MEMBER_1_FILL">
<path fill="#59626B" stroke="none" d="
M 10.3 6.1
L 10.4 5.9 10.3 5.6 10.3 5.55
Q 8.65 3 7.4 2.25
L 6.85 2 6.5 1.95 6.2 1.95 6.1 2 5.8 2.1 5.15 2.5 5.45 2.35 5.85 2.35 6.2 2.4 6.75 2.6
Q 8 3.3 9.6 5.95
L 9.65 6 9.75 6.25 9.75 6.3 9.65 6.5 10.3 6.1 Z"/>
</g>

<g id="Layer0_0_MEMBER_6_MEMBER_5_MEMBER_2_FILL">
<path fill="#282E33" stroke="none" d="
M 5.2 3.8
L 5.5 3.4
Q 5.85 3.05 6.4 3.2
L 6.75 3.4
Q 7.8 4.05 9.2 6.25
L 9.4 6.45
Q 9.6 6.55 9.65 6.5 9.85 6.3 9.6 5.95 8 3.3 6.75 2.6
L 6.2 2.4
Q 5.45 2.15 4.9 2.7 4.35 1.45 3.5 0.75
L 3 0.4
Q 1.75 -0.35 0.1 0.35 -0.15 0.5 0.1 0.9
L 0.3 1.15 0.55 1.2
Q 1.9 0.5 3 1.15
L 3.35 1.4
Q 4.2 2.1 4.55 3.35
L 4.55 3.4 4.75 3.75 4.9 3.85
Q 5.1 4.05 5.2 3.8 Z"/>
</g>

<g id="Layer0_0_MEMBER_7_MEMBER_0_MEMBER_0_MEMBER_0_FILL">
<path fill="#59626B" stroke="none" d="
M 2.1 0.5
L 6.1 2.75 6.4 2.55 2.45 0.25 2.1 0.5 Z"/>
</g>

<g id="Layer0_0_MEMBER_7_MEMBER_0_MEMBER_1_FILL">
<path fill="#59626B" stroke="none" d="
M 6.85 3.15
Q 6.85 2.8 6.4 2.55
L 6.1 2.75
Q 6.7 3.2 6.1 3.55 5.4 4 4.7 3.55
L 0.75 1.3 0.6 1.2 0.6 1.15 0.55 1.05 0.5 1.05 0.5 0.75 0.55 0.7 0.55 0.65 0.65 0.55 0.75 0.5 0.9 0.4 0.95 0.4 1.1 0.35 1.85 0.35 1.85 0.4 2.1 0.5 2.45 0.25 2.15 0.1 2 0.05 1.9 0.05 1.75 0 1.2 0 1.05 0.05 0.9 0.05 0.4 0.25 0.25 0.35 0.1 0.5 0.1 0.55 0.05 0.65 0 0.7 0 1 0.2 1.3 0.25 1.3 0.4 1.45 4.35 3.7
Q 4.8 3.95 5.4 3.95 6 3.95 6.4 3.7 6.85 3.5 6.85 3.15 Z"/>
</g>

<g id="Layer0_0_MEMBER_7_MEMBER_0_MEMBER_2_FILL">
<path fill="#282E33" stroke="none" d="
M 6.35 2.95
L 6.3 3 6.25 3.1 6.1 3.25 5.9 3.35 5.8 3.35 5.65 3.4 5.1 3.4 4.95 3.35 4.9 3.3 4.7 3.25 0.75 0.95
Q 0.456640625 0.8033203125 0.45 0.55
L 0.45 0.9
Q 0.45 1.1 0.75 1.3
L 4.9 3.65 4.95 3.65 5.1 3.7 5.3 3.7 5.4 3.75 5.6 3.7 5.65 3.7 5.8 3.65 5.9 3.65 6.2 3.5 6.2 3.45 6.35 3.3 6.35 2.95 Z"/>
</g>

<g id="Layer0_0_MEMBER_7_MEMBER_0_MEMBER_3_FILL">
<path fill="#747D84" stroke="none" d="
M 6.35 2.85
Q 6.35 2.6 6.1 2.45
L 2.1 0.15
Q 1.85 0 1.45 0 1.05 0 0.75 0.15 0.15 0.6 0.75 0.95
L 4.7 3.25
Q 5.4 3.6 6.1 3.25 6.35 3.1 6.35 2.85 Z"/>
</g>

<g id="Layer0_0_MEMBER_7_MEMBER_0_MEMBER_4_FILL">
<path fill="#282E33" stroke="none" d="
M 6.85 3.15
L 6.8 3.25 6.8 3.3 6.75 3.45 6.6 3.6 6.1 3.85 6.05 3.85 5.75 3.95 5.05 3.95 4.95 3.9 4.75 3.85 4.65 3.85 0.4 1.45
Q 0.009375 1.15703125 0 0.85
L 0 1.3
Q 0 1.6 0.4 1.85
L 4.65 4.3 4.75 4.3 4.95 4.35 5.05 4.4 5.75 4.4 6.05 4.3 6.1 4.3 6.6 4.05 6.7 3.95 6.7 3.9 6.75 3.85 6.8 3.75 6.8 3.7 6.85 3.55 6.85 3.15 Z"/>
</g>

<g id="Layer0_0_MEMBER_7_MEMBER_1_MEMBER_0_MEMBER_0_FILL">
<path fill="#59626B" stroke="none" d="
M 2.15 0.5
L 6.1 2.75 6.45 2.5 2.5 0.25 2.15 0.5 Z"/>
</g>

<g id="Layer0_0_MEMBER_7_MEMBER_1_MEMBER_1_FILL">
<path fill="#59626B" stroke="none" d="
M 6.85 3.1
Q 6.85 2.75 6.45 2.5
L 6.1 2.75
Q 6.4 2.95 6.4 3.15 6.4 3.4 6.1 3.55 5.45 3.95 4.75 3.55
L 0.65 1.15 0.6 1.15 0.55 1.05 0.55 1 0.5 0.95 0.5 0.75 0.55 0.75 0.55 0.7 0.65 0.6 0.65 0.55 0.8 0.5 0.95 0.4 1 0.4 1.15 0.35 1.2 0.35 1.3 0.3 1.6 0.3 1.85 0.35 1.9 0.4 2.15 0.5 2.5 0.25 2.2 0.1 2.05 0.05 1.95 0.05 1.8 0 1.25 0 1.05 0.05 0.95 0.05 0.75 0.1 0.7 0.1 0.25 0.35 0.25 0.4 0.1 0.55 0.05 0.65 0.05 0.7 0 0.8 0 0.85 0.1 1.15 0.15 1.15 0.25 1.3 0.3 1.3 0.45 1.45 4.4 3.7
Q 4.8 3.95 5.45 3.95 6.05 3.95 6.45 3.7 6.85 3.5 6.85 3.1 Z"/>
</g>

<g id="Layer0_0_MEMBER_7_MEMBER_1_MEMBER_2_FILL">
<path fill="#282E33" stroke="none" d="
M 6.35 2.95
L 6.35 3 6.3 3.1 6.25 3.15 6.1 3.25 5.9 3.3 5.85 3.35 5.65 3.4 5.2 3.4 5.15 3.35 5 3.35 4.9 3.3 4.75 3.25 0.8 0.95
Q 0.5056640625 0.8029296875 0.5 0.55
L 0.5 0.85
Q 0.5 1.1 0.8 1.25
L 4.9 3.65 5 3.65 5.1 3.7 5.65 3.7 5.85 3.65 5.9 3.65 6.2 3.5 6.3 3.4 6.35 3.3 6.4 3.15 6.4 2.85 6.35 2.95 Z"/>
</g>

<g id="Layer0_0_MEMBER_7_MEMBER_1_MEMBER_3_FILL">
<path fill="#747D84" stroke="none" d="
M 6.1 3.25
Q 6.4 3.05 6.4 2.85 6.4 2.6 6.1 2.45
L 2.15 0.15
Q 1.9 0 1.5 0 1.05 0 0.8 0.15 0.5 0.35 0.5 0.55 0.5 0.8 0.8 0.95
L 4.75 3.25
Q 5.45 3.65 6.1 3.25 Z"/>
</g>

<g id="Layer0_0_MEMBER_7_MEMBER_1_MEMBER_4_FILL">
<path fill="#282E33" stroke="none" d="
M 6.85 3.25
L 6.85 3.3 6.8 3.4 6.6 3.6 6.45 3.7 6.15 3.85 6.05 3.85 5.75 3.95 5.1 3.95 5 3.9 4.75 3.85 4.65 3.85 0.45 1.45
Q 0.009375 1.15625 0 0.85
L 0 1.25
Q 0 1.65 0.45 1.85
L 4.4 4.15 4.75 4.3 4.95 4.35 5.1 4.35 5.3 4.4 5.75 4.4 5.75 4.35 6.05 4.3 6.15 4.3 6.45 4.15 6.6 4.05 6.8 3.85 6.85 3.75 6.85 3.7 6.9 3.55 6.9 3.1 6.85 3.25 Z"/>
</g>

<g id="Layer0_0_MEMBER_7_MEMBER_2_MEMBER_0_FILL">
<path fill="#59626B" stroke="none" d="
M 479.1 292.1
Q 479.1 291.75 478.7 291.55 478.3 291.3 477.75 291.3 476.35 291.3 476.35 292.1 476.35 292.95 477.75 292.95 479.1 292.95 479.1 292.1 Z"/>
</g>

<g id="Layer0_0_MEMBER_7_MEMBER_2_MEMBER_1_MEMBER_0_MEMBER_0_FILL">
<path fill="#59626B" stroke="none" d="
M 479.1 292.15
L 479.1 291.7 476.35 291.7 476.35 292.15 479.1 292.15 Z"/>
</g>

<g id="Layer0_0_MEMBER_7_MEMBER_2_MEMBER_1_MEMBER_0_MEMBER_1_FILL">
<path fill="#272F3D" stroke="none" d="
M 479.1 291.65
Q 479.1 291.3 478.7 291.1 478.3 290.85 477.75 290.85 476.35 290.85 476.35 291.65 476.35 292 476.75 292.25 477.15 292.5 477.75 292.5 478.3 292.5 478.7 292.25 479.1 292 479.1 291.65 Z"/>
</g>

<g id="Layer0_0_MEMBER_7_MEMBER_2_MEMBER_1_MEMBER_1_MEMBER_0_FILL">
<path fill="#59626B" stroke="none" d="
M 478.65 259.15
Q 478.65 258.5 477.95 258.5
L 477.5 258.5
Q 476.85 258.5 476.85 259.15
L 476.85 291.6
Q 476.85 291.95 477.75 291.95 478.65 291.95 478.65 291.6
L 478.65 259.15 Z"/>
</g>

<g id="Layer0_0_MEMBER_7_MEMBER_2_MEMBER_1_MEMBER_1_MEMBER_1_MEMBER_0_FILL">
<path fill="#ABC0D2" stroke="none" d="
M 478.65 291.7
Q 478.65 291.35 477.75 291.35 476.8 291.35 476.8 291.7 476.8 292.05 477.75 292.05 478.65 292.05 478.65 291.7 Z"/>
</g>

<g id="Layer0_0_MEMBER_7_MEMBER_2_MEMBER_1_MEMBER_1_MEMBER_2_MEMBER_0_FILL">
<path fill="#59626B" stroke="none" d="
M 478.65 291.6
Q 478.65 291.3 477.75 291.3 476.85 291.3 476.85 291.6 476.85 291.95 477.75 291.95 478.65 291.95 478.65 291.6 Z"/>
</g>

<g id="Layer0_0_MEMBER_7_MEMBER_3_MEMBER_0_FILL">
<path fill="#99A3AC" stroke="none" d="
M 2 0.5
L 2 0.55 1.95 0.6 1.95 0.7 1.85 0.8 1.8 0.8 1.8 0.85 1.75 0.85 1.7 0.9 1.6 0.95 1.55 0.95 1.5 1 1.3 1 1.25 1.05 0.95 1.05 0.9 1 0.75 1 0.65 0.95 0.6 0.95 0.45 0.9
Q 0.2 0.75 0.2 0.5
L 0 1.15
Q 0 1.45 0.3 1.6
L 0.45 1.7 0.5 1.7 0.6 1.75 0.7 1.75 0.8 1.8 1.3 1.8 1.4 1.75 1.55 1.75 1.65 1.7 1.7 1.7 1.85 1.6 1.9 1.6 1.95 1.55 2 1.55 2 1.5 2.05 1.5 2.1 1.45 2.1 1.4 2.15 1.35 2.15 1.3 2.2 1.25 2.2 1.15 2 0.5 Z"/>
</g>

<g id="Layer0_0_MEMBER_7_MEMBER_3_MEMBER_1_FILL">
<path fill="#ABC0D2" stroke="none" d="
M 1.95 0.55
Q 1.95 0.3 1.7 0.15 1.45 0 1.1 0 0.7 0 0.45 0.15 0.2 0.3 0.2 0.55 0.2 0.75 0.45 0.9 1.1 1.3 1.7 0.9 1.95 0.75 1.95 0.55 Z"/>
</g>

<g id="Layer0_0_MEMBER_7_MEMBER_4_MEMBER_0_FILL">
<path fill="#59626B" stroke="none" d="
M 5.65 3.75
Q 5.75 3.7 5.7 3.4
L 5.7 3.3 5.65 3.25 5.6 3.05 5.55 2.95 5.2 2.15 5.15 2.1 4.65 1.35 4.05 0.75 3.55 0.35 2.95 0.1 2.75 0.05 2.3 0 2.1 0 1.55 0.05 0.65 0.35 0 0.7 0.75 0.45 0.9 0.45 1.45 0.4 1.65 0.4 2.1 0.45 2.3 0.5 2.9 0.75 3.4 1.1
Q 3.8 1.4 4 1.75
L 4.1 1.85 4.75 2.9 4.8 3.1 4.9 3.3 5 3.6 5.05 3.7 5.05 3.8
Q 5.129296875 4.0380859375 5.05 4.1
L 5.65 3.75 Z"/>
</g>

<g id="Layer0_0_MEMBER_7_MEMBER_5_MEMBER_0_FILL">
<path fill="#282E33" stroke="none" d="
M 5.2 3.8
L 5.1 3.9 5.75 3.5 6.3 2.9 5.65 3.3
Q 5.45 3.4 5.3 3.6
L 5.2 3.8 Z"/>
</g>

<g id="Layer0_0_MEMBER_7_MEMBER_5_MEMBER_1_FILL">
<path fill="#59626B" stroke="none" d="
M 10.3 6.1
L 10.4 5.9 10.3 5.6 10.3 5.55
Q 8.65 3 7.4 2.25
L 6.85 2 6.5 1.95 6.2 1.95 6.1 2 5.8 2.1 5.15 2.5 5.45 2.35 5.85 2.35 6.2 2.4 6.75 2.6
Q 8 3.3 9.6 5.95
L 9.65 6 9.75 6.25 9.75 6.3 9.65 6.5 10.3 6.1 Z"/>
</g>

<g id="Layer0_0_MEMBER_7_MEMBER_5_MEMBER_2_FILL">
<path fill="#282E33" stroke="none" d="
M 5.2 3.8
L 5.5 3.4
Q 5.85 3.05 6.4 3.2
L 6.75 3.4
Q 7.8 4.05 9.2 6.25
L 9.4 6.45
Q 9.6 6.55 9.65 6.5 9.85 6.3 9.6 5.95 8 3.3 6.75 2.6
L 6.2 2.4
Q 5.45 2.15 4.9 2.7 4.35 1.45 3.5 0.75
L 3 0.4
Q 1.75 -0.35 0.1 0.35 -0.15 0.5 0.1 0.9
L 0.3 1.15 0.55 1.2
Q 1.9 0.5 3 1.15
L 3.35 1.4
Q 4.2 2.1 4.55 3.35
L 4.55 3.4 4.75 3.75 4.9 3.85
Q 5.1 4.05 5.2 3.8 Z"/>
</g>
</defs>

<g transform="matrix( 5, 0, 0, 5, 147.9,352.65) ">
<use xlink:href="#Layer0_0_MEMBER_0_MEMBER_0_MEMBER_0_FILL"/>
</g>

<g transform="matrix( 5, 0, 0, 5, 147.9,352.65) ">
<use xlink:href="#Layer0_0_MEMBER_0_MEMBER_1_MEMBER_0_FILL"/>
</g>

<g transform="matrix( 5, 0, 0, 5, 147.9,352.65) ">
<use xlink:href="#Layer0_0_MEMBER_0_MEMBER_2_MEMBER_0_FILL"/>
</g>

<g transform="matrix( 5, 0, 0, 5, 147.9,338.9) ">
<use xlink:href="#Layer0_0_MEMBER_0_MEMBER_3_FILL"/>
</g>

<g transform="matrix( 5, 0, 0, 5, 147.9,338.9) ">
<use xlink:href="#Layer0_0_MEMBER_0_MEMBER_4_FILL"/>
</g>

<g transform="matrix( 5, 0, 0, 5, 147.9,338.9) ">
<use xlink:href="#Layer0_0_MEMBER_0_MEMBER_5_FILL"/>
</g>

<g transform="matrix( 5, 0, 0, 5, -1603.6,-953.1) ">
<use xlink:href="#Layer0_0_MEMBER_0_MEMBER_6_MEMBER_0_FILL"/>
</g>

<g transform="matrix( 5, 0, 0, 5, -1603.6,-953.1) ">
<use xlink:href="#Layer0_0_MEMBER_0_MEMBER_7_FILL"/>
</g>

<g transform="matrix( 5, 0, 0, 5, -1603.6,-953.1) ">
<use xlink:href="#Layer0_0_MEMBER_0_MEMBER_8_FILL"/>
</g>

<g transform="matrix( 5, 0, 0, 5, -1603.6,-953.1) ">
<use xlink:href="#Layer0_0_MEMBER_0_MEMBER_9_FILL"/>
</g>

<g transform="matrix( 5, 0, 0, 5, -1603.6,-953.1) ">
<use xlink:href="#Layer0_0_MEMBER_0_MEMBER_10_FILL"/>
</g>

<g transform="matrix( 5, 0, 0, 5, -1603.6,-953.1) ">
<use xlink:href="#Layer0_0_MEMBER_0_MEMBER_11_FILL"/>
</g>

<g transform="matrix( 5, 0, 0, 5, -1603.6,-953.1) ">
<use xlink:href="#Layer0_0_MEMBER_0_MEMBER_12_FILL"/>
</g>

<g transform="matrix( 5, 0, 0, 5, -1603.6,-953.1) ">
<use xlink:href="#Layer0_0_MEMBER_0_MEMBER_13_FILL"/>
</g>

<g transform="matrix( 5, 0, 0, 5, -1603.6,-953.1) ">
<use xlink:href="#Layer0_0_MEMBER_0_MEMBER_14_FILL"/>
</g>

<g transform="matrix( 5, 0, 0, 5, -1603.6,-953.1) ">
<use xlink:href="#Layer0_0_MEMBER_0_MEMBER_15_FILL"/>
</g>

<g transform="matrix( 5, 0, 0, 5, 376.4,319.65) ">
<use xlink:href="#Layer0_0_MEMBER_1_MEMBER_0_MEMBER_0_MEMBER_0_MEMBER_0_FILL"/>
</g>

<g transform="matrix( 5, 0, 0, 5, 376.4,319.65) ">
<use xlink:href="#Layer0_0_MEMBER_1_MEMBER_0_MEMBER_0_MEMBER_1_MEMBER_0_FILL"/>
</g>

<g transform="matrix( 5, 0, 0, 5, 376.4,319.65) ">
<use xlink:href="#Layer0_0_MEMBER_1_MEMBER_0_MEMBER_0_MEMBER_2_MEMBER_0_FILL"/>
</g>

<g transform="matrix( 5, 0, 0, 5, 376.4,319.65) ">
<use xlink:href="#Layer0_0_MEMBER_1_MEMBER_0_MEMBER_0_MEMBER_3_MEMBER_0_FILL"/>
</g>

<g transform="matrix( 1, 0, 0, 1, 0,0) ">
<use xlink:href="#Layer0_0_MEMBER_1_MEMBER_0_MEMBER_0_MEMBER_4_MEMBER_0_FILL"/>
</g>

<g transform="matrix( 5, 0, 0, 5, -1603.6,-953.1) ">
<use xlink:href="#Layer0_0_MEMBER_1_MEMBER_0_MEMBER_0_MEMBER_5_MEMBER_0_FILL"/>
</g>

<g transform="matrix( 5, 0, 0, 5, -1603.6,-953.1) ">
<use xlink:href="#Layer0_0_MEMBER_1_MEMBER_0_MEMBER_1_MEMBER_0_MEMBER_0_MEMBER_0_FILL"/>
</g>

<g transform="matrix( 5, 0, 0, 5, -1603.6,-953.1) ">
<use xlink:href="#Layer0_0_MEMBER_1_MEMBER_0_MEMBER_1_MEMBER_0_MEMBER_1_MEMBER_0_FILL"/>
</g>

<g transform="matrix( 5, 0, 0, 5, -1603.6,-953.1) ">
<use xlink:href="#Layer0_0_MEMBER_1_MEMBER_0_MEMBER_1_MEMBER_0_MEMBER_2_MEMBER_0_MEMBER_0_FILL"/>
</g>

<g transform="matrix( 5, 0, 0, 5, -1603.6,-953.1) ">
<use xlink:href="#Layer0_0_MEMBER_1_MEMBER_0_MEMBER_1_MEMBER_0_MEMBER_2_MEMBER_0_MEMBER_1_FILL"/>
</g>

<g transform="matrix( 5, 0, 0, 5, -1603.6,-953.1) ">
<use xlink:href="#Layer0_0_MEMBER_1_MEMBER_0_MEMBER_1_MEMBER_0_MEMBER_2_MEMBER_0_MEMBER_2_FILL"/>
</g>

<g transform="matrix( 5, 0, 0, 5, -1603.6,-953.1) ">
<use xlink:href="#Layer0_0_MEMBER_1_MEMBER_0_MEMBER_1_MEMBER_0_MEMBER_2_MEMBER_1_FILL"/>
</g>

<g transform="matrix( 5, 0, 0, 5, -1603.6,-953.1) ">
<use xlink:href="#Layer0_0_MEMBER_1_MEMBER_0_MEMBER_1_MEMBER_0_MEMBER_2_MEMBER_2_FILL"/>
</g>

<g transform="matrix( 5, 0, 0, 5, -1603.6,-953.1) ">
<use xlink:href="#Layer0_0_MEMBER_1_MEMBER_0_MEMBER_1_MEMBER_0_MEMBER_3_MEMBER_0_FILL"/>
</g>

<g transform="matrix( 5, 0, 0, 5, -1603.6,-953.1) ">
<use xlink:href="#Layer0_0_MEMBER_1_MEMBER_0_MEMBER_1_MEMBER_0_MEMBER_3_MEMBER_1_FILL"/>
</g>

<g transform="matrix( 5, 0, 0, 5, -1603.6,-953.1) ">
<use xlink:href="#Layer0_0_MEMBER_1_MEMBER_0_MEMBER_1_MEMBER_1_MEMBER_0_MEMBER_0_FILL"/>
</g>

<g transform="matrix( 5, 0, 0, 5, -1603.6,-953.1) ">
<use xlink:href="#Layer0_0_MEMBER_1_MEMBER_0_MEMBER_1_MEMBER_1_MEMBER_1_MEMBER_0_FILL"/>
</g>

<g transform="matrix( 5, 0, 0, 5, -1603.6,-953.1) ">
<use xlink:href="#Layer0_0_MEMBER_1_MEMBER_0_MEMBER_1_MEMBER_1_MEMBER_2_MEMBER_0_MEMBER_0_FILL"/>
</g>

<g transform="matrix( 5, 0, 0, 5, -1603.6,-953.1) ">
<use xlink:href="#Layer0_0_MEMBER_1_MEMBER_0_MEMBER_1_MEMBER_1_MEMBER_2_MEMBER_0_MEMBER_1_FILL"/>
</g>

<g transform="matrix( 5, 0, 0, 5, -1603.6,-953.1) ">
<use xlink:href="#Layer0_0_MEMBER_1_MEMBER_0_MEMBER_1_MEMBER_1_MEMBER_2_MEMBER_0_MEMBER_2_FILL"/>
</g>

<g transform="matrix( 5, 0, 0, 5, -1603.6,-953.1) ">
<use xlink:href="#Layer0_0_MEMBER_1_MEMBER_0_MEMBER_1_MEMBER_1_MEMBER_2_MEMBER_1_FILL"/>
</g>

<g transform="matrix( 5, 0, 0, 5, -1603.6,-953.1) ">
<use xlink:href="#Layer0_0_MEMBER_1_MEMBER_0_MEMBER_1_MEMBER_1_MEMBER_2_MEMBER_2_FILL"/>
</g>

<g transform="matrix( 5, 0, 0, 5, -1603.6,-953.1) ">
<use xlink:href="#Layer0_0_MEMBER_1_MEMBER_0_MEMBER_1_MEMBER_1_MEMBER_3_MEMBER_0_FILL"/>
</g>

<g transform="matrix( 5, 0, 0, 5, -1603.6,-953.1) ">
<use xlink:href="#Layer0_0_MEMBER_1_MEMBER_0_MEMBER_1_MEMBER_1_MEMBER_3_MEMBER_1_FILL"/>
</g>

<g transform="matrix( 5, 0, 0, 5, -1603.6,-953.1) ">
<use xlink:href="#Layer0_0_MEMBER_1_MEMBER_0_MEMBER_2_MEMBER_0_FILL"/>
</g>

<g transform="matrix( 5, 0, 0, 5, -1603.6,-953.1) ">
<use xlink:href="#Layer0_0_MEMBER_1_MEMBER_0_MEMBER_3_MEMBER_0_FILL"/>
</g>

<g transform="matrix( 5, 0, 0, 5, 212.15,375.9) ">
<use xlink:href="#Layer0_0_MEMBER_1_MEMBER_1_MEMBER_0_FILL"/>
</g>

<g transform="matrix( 5, 0, 0, 5, 212.15,375.9) ">
<use xlink:href="#Layer0_0_MEMBER_1_MEMBER_1_MEMBER_1_FILL"/>
</g>

<g transform="matrix( 5, 0, 0, 5, 212.15,375.9) ">
<use xlink:href="#Layer0_0_MEMBER_1_MEMBER_1_MEMBER_2_FILL"/>
</g>

<g transform="matrix( 5, 0, 0, 5, -1603.6,-953.1) ">
<use xlink:href="#Layer0_0_MEMBER_1_MEMBER_2_MEMBER_0_MEMBER_0_FILL"/>
</g>

<g transform="matrix( 5, 0, 0, 5, -1603.6,-953.1) ">
<use xlink:href="#Layer0_0_MEMBER_1_MEMBER_2_MEMBER_0_MEMBER_1_FILL"/>
</g>

<g transform="matrix( 5, 0, 0, 5, -1603.6,-953.1) ">
<use xlink:href="#Layer0_0_MEMBER_1_MEMBER_2_MEMBER_0_MEMBER_2_FILL"/>
</g>

<g transform="matrix( 5, 0, 0, 5, -1603.6,-953.1) ">
<use xlink:href="#Layer0_0_MEMBER_1_MEMBER_2_MEMBER_0_MEMBER_3_FILL"/>
</g>

<g transform="matrix( 5, 0, 0, 5, -1603.6,-953.1) ">
<use xlink:href="#Layer0_0_MEMBER_1_MEMBER_2_MEMBER_0_MEMBER_4_FILL"/>
</g>

<g transform="matrix( 5, 0, 0, 5, -1603.6,-953.1) ">
<use xlink:href="#Layer0_0_MEMBER_1_MEMBER_2_MEMBER_0_MEMBER_5_FILL"/>
</g>

<g transform="matrix( 5, 0, 0, 5, -1603.6,-953.1) ">
<use xlink:href="#Layer0_0_MEMBER_1_MEMBER_2_MEMBER_0_MEMBER_6_FILL"/>
</g>

<g transform="matrix( 5, 0, 0, 5, -1603.6,-953.1) ">
<use xlink:href="#Layer0_0_MEMBER_1_MEMBER_2_MEMBER_0_MEMBER_7_FILL"/>
</g>

<g transform="matrix( 5, 0, 0, 5, -1603.6,-953.1) ">
<use xlink:href="#Layer0_0_MEMBER_1_MEMBER_2_MEMBER_0_MEMBER_8_FILL"/>
</g>

<g transform="matrix( 5, 0, 0, 5, -1603.6,-953.1) ">
<use xlink:href="#Layer0_0_MEMBER_1_MEMBER_2_MEMBER_0_MEMBER_9_FILL"/>
</g>

<g transform="matrix( 5, 0, 0, 5, -1603.6,-953.1) ">
<use xlink:href="#Layer0_0_MEMBER_1_MEMBER_2_MEMBER_0_MEMBER_10_FILL"/>
</g>

<g transform="matrix( 5, 0, 0, 5, -1603.6,-953.1) ">
<use xlink:href="#Layer0_0_MEMBER_1_MEMBER_2_MEMBER_0_MEMBER_11_MEMBER_0_FILL"/>
</g>

<g transform="matrix( 5, 0, 0, 5, -1603.6,-953.1) ">
<use xlink:href="#Layer0_0_MEMBER_1_MEMBER_2_MEMBER_0_MEMBER_12_MEMBER_0_FILL"/>
</g>

<g transform="matrix( 5, 0, 0, 5, -1603.6,-953.1) ">
<use xlink:href="#Layer0_0_MEMBER_1_MEMBER_2_MEMBER_0_MEMBER_13_MEMBER_0_FILL"/>
</g>

<g transform="matrix( 5, 0, 0, 5, -1603.6,-953.1) ">
<use xlink:href="#Layer0_0_MEMBER_1_MEMBER_2_MEMBER_0_MEMBER_14_MEMBER_0_FILL"/>
</g>

<g transform="matrix( 5, 0, 0, 5, -1603.6,-953.1) ">
<use xlink:href="#Layer0_0_MEMBER_1_MEMBER_2_MEMBER_0_MEMBER_15_FILL"/>
</g>

<g transform="matrix( 5, 0, 0, 5, -1603.6,-953.1) ">
<use xlink:href="#Layer0_0_MEMBER_1_MEMBER_3_MEMBER_0_FILL"/>
</g>

<g transform="matrix( 5, 0, 0, 5, -1603.6,-953.1) ">
<use xlink:href="#Layer0_0_MEMBER_1_MEMBER_3_MEMBER_1_FILL"/>
</g>

<g transform="matrix( 5, 0, 0, 5, -1603.6,-953.1) ">
<use xlink:href="#Layer0_0_MEMBER_1_MEMBER_3_MEMBER_2_FILL"/>
</g>

<g transform="matrix( 5, 0, 0, 5, -1603.6,-953.1) ">
<use xlink:href="#Layer0_0_MEMBER_1_MEMBER_3_MEMBER_3_FILL"/>
</g>

<g transform="matrix( 5, 0, 0, 5, -1603.6,-953.1) ">
<use xlink:href="#Layer0_0_MEMBER_1_MEMBER_3_MEMBER_4_FILL"/>
</g>

<g transform="matrix( 5, 0, 0, 5, -1603.6,-953.1) ">
<use xlink:href="#Layer0_0_MEMBER_1_MEMBER_3_MEMBER_5_FILL"/>
</g>

<g transform="matrix( 5, 0, 0, 5, -1603.6,-953.1) ">
<use xlink:href="#Layer0_0_MEMBER_1_MEMBER_3_MEMBER_6_FILL"/>
</g>

<g transform="matrix( 5, 0, 0, 5, -1603.6,-953.1) ">
<use xlink:href="#Layer0_0_MEMBER_1_MEMBER_3_MEMBER_7_FILL"/>
</g>

<g transform="matrix( 5, 0, 0, 5, -1603.6,-953.1) ">
<use xlink:href="#Layer0_0_MEMBER_1_MEMBER_3_MEMBER_8_FILL"/>
</g>

<g transform="matrix( 5, 0, 0, 5, -1603.6,-953.1) ">
<use xlink:href="#Layer0_0_MEMBER_1_MEMBER_3_MEMBER_9_FILL"/>
</g>

<g transform="matrix( 5, 0, 0, 5, -1603.6,-953.1) ">
<use xlink:href="#Layer0_0_MEMBER_1_MEMBER_3_MEMBER_10_FILL"/>
</g>

<g transform="matrix( 5, 0, 0, 5, -1603.6,-953.1) ">
<use xlink:href="#Layer0_0_MEMBER_1_MEMBER_3_MEMBER_11_MEMBER_0_FILL"/>
</g>

<g transform="matrix( 5, 0, 0, 5, -1603.6,-953.1) ">
<use xlink:href="#Layer0_0_MEMBER_1_MEMBER_3_MEMBER_12_MEMBER_0_FILL"/>
</g>

<g transform="matrix( 5, 0, 0, 5, -1603.6,-953.1) ">
<use xlink:href="#Layer0_0_MEMBER_1_MEMBER_3_MEMBER_13_MEMBER_0_FILL"/>
</g>

<g transform="matrix( 5, 0, 0, 5, -1603.6,-953.1) ">
<use xlink:href="#Layer0_0_MEMBER_1_MEMBER_3_MEMBER_14_MEMBER_0_FILL"/>
</g>

<g transform="matrix( 5, 0, 0, 5, -1603.6,-953.1) ">
<use xlink:href="#Layer0_0_MEMBER_1_MEMBER_3_MEMBER_15_FILL"/>
</g>

<g transform="matrix( 5, 0, 0, 5, -1603.6,-953.1) ">
<use xlink:href="#Layer0_0_MEMBER_2_MEMBER_0_FILL"/>
</g>

<g transform="matrix( 5, 0, 0, 5, -1603.6,-953.1) ">
<use xlink:href="#Layer0_0_MEMBER_2_MEMBER_1_MEMBER_0_FILL"/>
</g>

<g transform="matrix( 5, 0, 0, 5, -1603.6,-953.1) ">
<use xlink:href="#Layer0_0_MEMBER_2_MEMBER_2_MEMBER_0_FILL"/>
</g>

<g transform="matrix( 5, 0, 0, 5, -1603.6,-953.1) ">
<use xlink:href="#Layer0_0_MEMBER_3_MEMBER_0_FILL"/>
</g>

<g transform="matrix( 5, 0, 0, 5, -1603.6,-953.1) ">
<use xlink:href="#Layer0_0_MEMBER_3_MEMBER_1_MEMBER_0_FILL"/>
</g>

<g transform="matrix( 5, 0, 0, 5, -1603.6,-953.1) ">
<use xlink:href="#Layer0_0_MEMBER_3_MEMBER_2_MEMBER_0_FILL"/>
</g>

<g transform="matrix( 5, 0, 0, 5, -1603.6,-953.1) ">
<use xlink:href="#Layer0_0_MEMBER_4_MEMBER_0_MEMBER_0_FILL"/>
</g>

<g transform="matrix( 5, 0, 0, 5, -1603.6,-953.1) ">
<use xlink:href="#Layer0_0_MEMBER_4_MEMBER_0_MEMBER_1_FILL"/>
</g>

<g transform="matrix( 5, 0, 0, 5, -1603.6,-953.1) ">
<use xlink:href="#Layer0_0_MEMBER_4_MEMBER_0_MEMBER_2_FILL"/>
</g>

<g transform="matrix( 5, 0, 0, 5, -1603.6,-953.1) ">
<use xlink:href="#Layer0_0_MEMBER_4_MEMBER_0_MEMBER_3_FILL"/>
</g>

<g transform="matrix( 5, 0, 0, 5, -1603.6,-953.1) ">
<use xlink:href="#Layer0_0_MEMBER_4_MEMBER_0_MEMBER_4_FILL"/>
</g>

<g transform="matrix( 5, 0, 0, 5, -1603.6,-953.1) ">
<use xlink:href="#Layer0_0_MEMBER_4_MEMBER_0_MEMBER_5_FILL"/>
</g>

<g transform="matrix( 5, 0, 0, 5, -1603.6,-953.1) ">
<use xlink:href="#Layer0_0_MEMBER_4_MEMBER_1_MEMBER_0_FILL"/>
</g>

<g transform="matrix( 5, 0, 0, 5, -1603.6,-953.1) ">
<use xlink:href="#Layer0_0_MEMBER_4_MEMBER_1_MEMBER_1_FILL"/>
</g>

<g transform="matrix( 5, 0, 0, 5, -1603.6,-953.1) ">
<use xlink:href="#Layer0_0_MEMBER_4_MEMBER_1_MEMBER_2_FILL"/>
</g>

<g transform="matrix( 5, 0, 0, 5, -1603.6,-953.1) ">
<use xlink:href="#Layer0_0_MEMBER_4_MEMBER_1_MEMBER_3_FILL"/>
</g>

<g transform="matrix( 5, 0, 0, 5, -1603.6,-953.1) ">
<use xlink:href="#Layer0_0_MEMBER_4_MEMBER_1_MEMBER_4_FILL"/>
</g>

<g transform="matrix( 5, 0, 0, 5, -1603.6,-953.1) ">
<use xlink:href="#Layer0_0_MEMBER_4_MEMBER_1_MEMBER_5_FILL"/>
</g>

<g transform="matrix( 5, 0, 0, 5, -1603.6,-953.1) ">
<use xlink:href="#Layer0_0_MEMBER_4_MEMBER_1_MEMBER_6_FILL"/>
</g>

<g transform="matrix( 5, 0, 0, 5, -1603.6,-953.1) ">
<use xlink:href="#Layer0_0_MEMBER_4_MEMBER_1_MEMBER_7_FILL"/>
</g>

<g transform="matrix( 5, 0, 0, 5, -1603.6,-953.1) ">
<use xlink:href="#Layer0_0_MEMBER_4_MEMBER_1_MEMBER_8_FILL"/>
</g>

<g transform="matrix( 5, 0, 0, 5, -1603.6,-953.1) ">
<use xlink:href="#Layer0_0_MEMBER_4_MEMBER_1_MEMBER_9_FILL"/>
</g>

<g transform="matrix( 5, 0, 0, 5, -1603.6,-953.1) ">
<use xlink:href="#Layer0_0_MEMBER_4_MEMBER_1_MEMBER_10_FILL"/>
</g>

<g transform="matrix( 5, 0, 0, 5, 798.4,352.15) ">
<use xlink:href="#Layer0_0_MEMBER_5_MEMBER_0_MEMBER_0_MEMBER_0_FILL"/>
</g>

<g transform="matrix( 5, 0, 0, 5, 798.4,352.15) ">
<use xlink:href="#Layer0_0_MEMBER_5_MEMBER_0_MEMBER_1_FILL"/>
</g>

<g transform="matrix( 5, 0, 0, 5, 798.4,352.15) ">
<use xlink:href="#Layer0_0_MEMBER_5_MEMBER_0_MEMBER_2_FILL"/>
</g>

<g transform="matrix( 5, 0, 0, 5, 798.4,352.15) ">
<use xlink:href="#Layer0_0_MEMBER_5_MEMBER_0_MEMBER_3_FILL"/>
</g>

<g transform="matrix( 5, 0, 0, 5, 798.4,352.15) ">
<use xlink:href="#Layer0_0_MEMBER_5_MEMBER_0_MEMBER_4_FILL"/>
</g>

<g transform="matrix( 5, 0, 0, 5, 736.4,315.15) ">
<use xlink:href="#Layer0_0_MEMBER_5_MEMBER_1_MEMBER_0_MEMBER_0_FILL"/>
</g>

<g transform="matrix( 5, 0, 0, 5, 736.4,315.15) ">
<use xlink:href="#Layer0_0_MEMBER_5_MEMBER_1_MEMBER_1_FILL"/>
</g>

<g transform="matrix( 5, 0, 0, 5, 736.4,315.15) ">
<use xlink:href="#Layer0_0_MEMBER_5_MEMBER_1_MEMBER_2_FILL"/>
</g>

<g transform="matrix( 5, 0, 0, 5, 736.4,315.15) ">
<use xlink:href="#Layer0_0_MEMBER_5_MEMBER_1_MEMBER_3_FILL"/>
</g>

<g transform="matrix( 5, 0, 0, 5, 736.4,315.15) ">
<use xlink:href="#Layer0_0_MEMBER_5_MEMBER_1_MEMBER_4_FILL"/>
</g>

<g transform="matrix( 5, 0, 0, 5, -1603.6,-953.1) ">
<use xlink:href="#Layer0_0_MEMBER_5_MEMBER_2_MEMBER_0_FILL"/>
</g>

<g transform="matrix( 5, 0, 0, 5, -1603.6,-953.1) ">
<use xlink:href="#Layer0_0_MEMBER_5_MEMBER_2_MEMBER_1_MEMBER_0_MEMBER_0_FILL"/>
</g>

<g transform="matrix( 5, 0, 0, 5, -1603.6,-953.1) ">
<use xlink:href="#Layer0_0_MEMBER_5_MEMBER_2_MEMBER_1_MEMBER_0_MEMBER_1_FILL"/>
</g>

<g transform="matrix( 5, 0, 0, 5, -1603.6,-953.1) ">
<use xlink:href="#Layer0_0_MEMBER_5_MEMBER_2_MEMBER_1_MEMBER_1_MEMBER_0_FILL"/>
</g>

<g transform="matrix( 5, 0, 0, 5, -1603.6,-953.1) ">
<use xlink:href="#Layer0_0_MEMBER_5_MEMBER_2_MEMBER_1_MEMBER_1_MEMBER_1_MEMBER_0_FILL"/>
</g>

<g transform="matrix( 5, 0, 0, 5, -1603.6,-953.1) ">
<use xlink:href="#Layer0_0_MEMBER_5_MEMBER_2_MEMBER_1_MEMBER_1_MEMBER_2_MEMBER_0_FILL"/>
</g>

<g transform="matrix( 5, 0, 0, 5, 779.65,339.4) ">
<use xlink:href="#Layer0_0_MEMBER_5_MEMBER_3_MEMBER_0_FILL"/>
</g>

<g transform="matrix( 5, 0, 0, 5, 779.65,339.4) ">
<use xlink:href="#Layer0_0_MEMBER_5_MEMBER_3_MEMBER_1_FILL"/>
</g>

<g transform="matrix( 5, 0, 0, 5, 760.15,322.4) ">
<use xlink:href="#Layer0_0_MEMBER_5_MEMBER_4_MEMBER_0_FILL"/>
</g>

<g transform="matrix( 5, 0, 0, 5, 759.65,324.15) ">
<use xlink:href="#Layer0_0_MEMBER_5_MEMBER_5_MEMBER_0_FILL"/>
</g>

<g transform="matrix( 5, 0, 0, 5, 759.65,324.15) ">
<use xlink:href="#Layer0_0_MEMBER_5_MEMBER_5_MEMBER_1_FILL"/>
</g>

<g transform="matrix( 5, 0, 0, 5, 759.65,324.15) ">
<use xlink:href="#Layer0_0_MEMBER_5_MEMBER_5_MEMBER_2_FILL"/>
</g>

<g transform="matrix( 5, 0, 0, 5, 195.65,410.65) ">
<use xlink:href="#Layer0_0_MEMBER_6_MEMBER_0_MEMBER_0_MEMBER_0_FILL"/>
</g>

<g transform="matrix( 5, 0, 0, 5, 195.65,410.65) ">
<use xlink:href="#Layer0_0_MEMBER_6_MEMBER_0_MEMBER_1_FILL"/>
</g>

<g transform="matrix( 5, 0, 0, 5, 195.65,410.65) ">
<use xlink:href="#Layer0_0_MEMBER_6_MEMBER_0_MEMBER_2_FILL"/>
</g>

<g transform="matrix( 5, 0, 0, 5, 195.65,410.65) ">
<use xlink:href="#Layer0_0_MEMBER_6_MEMBER_0_MEMBER_3_FILL"/>
</g>

<g transform="matrix( 5, 0, 0, 5, 195.65,410.65) ">
<use xlink:href="#Layer0_0_MEMBER_6_MEMBER_0_MEMBER_4_FILL"/>
</g>

<g transform="matrix( 5, 0, 0, 5, 133.65,373.65) ">
<use xlink:href="#Layer0_0_MEMBER_6_MEMBER_1_MEMBER_0_MEMBER_0_FILL"/>
</g>

<g transform="matrix( 5, 0, 0, 5, 133.65,373.65) ">
<use xlink:href="#Layer0_0_MEMBER_6_MEMBER_1_MEMBER_1_FILL"/>
</g>

<g transform="matrix( 5, 0, 0, 5, 133.65,373.65) ">
<use xlink:href="#Layer0_0_MEMBER_6_MEMBER_1_MEMBER_2_FILL"/>
</g>

<g transform="matrix( 5, 0, 0, 5, 133.65,373.65) ">
<use xlink:href="#Layer0_0_MEMBER_6_MEMBER_1_MEMBER_3_FILL"/>
</g>

<g transform="matrix( 5, 0, 0, 5, 133.65,373.65) ">
<use xlink:href="#Layer0_0_MEMBER_6_MEMBER_1_MEMBER_4_FILL"/>
</g>

<g transform="matrix( 5, 0, 0, 5, -2206.35,-894.6) ">
<use xlink:href="#Layer0_0_MEMBER_6_MEMBER_2_MEMBER_0_FILL"/>
</g>

<g transform="matrix( 5, 0, 0, 5, -2206.35,-894.6) ">
<use xlink:href="#Layer0_0_MEMBER_6_MEMBER_2_MEMBER_1_MEMBER_0_MEMBER_0_FILL"/>
</g>

<g transform="matrix( 5, 0, 0, 5, -2206.35,-894.6) ">
<use xlink:href="#Layer0_0_MEMBER_6_MEMBER_2_MEMBER_1_MEMBER_0_MEMBER_1_FILL"/>
</g>

<g transform="matrix( 5, 0, 0, 5, -2206.35,-894.6) ">
<use xlink:href="#Layer0_0_MEMBER_6_MEMBER_2_MEMBER_1_MEMBER_1_MEMBER_0_FILL"/>
</g>

<g transform="matrix( 5, 0, 0, 5, -2206.35,-894.6) ">
<use xlink:href="#Layer0_0_MEMBER_6_MEMBER_2_MEMBER_1_MEMBER_1_MEMBER_1_MEMBER_0_FILL"/>
</g>

<g transform="matrix( 5, 0, 0, 5, -2206.35,-894.6) ">
<use xlink:href="#Layer0_0_MEMBER_6_MEMBER_2_MEMBER_1_MEMBER_1_MEMBER_2_MEMBER_0_FILL"/>
</g>

<g transform="matrix( 5, 0, 0, 5, 176.9,397.9) ">
<use xlink:href="#Layer0_0_MEMBER_6_MEMBER_3_MEMBER_0_FILL"/>
</g>

<g transform="matrix( 5, 0, 0, 5, 176.9,397.9) ">
<use xlink:href="#Layer0_0_MEMBER_6_MEMBER_3_MEMBER_1_FILL"/>
</g>

<g transform="matrix( 5, 0, 0, 5, 157.4,380.9) ">
<use xlink:href="#Layer0_0_MEMBER_6_MEMBER_4_MEMBER_0_FILL"/>
</g>

<g transform="matrix( 5, 0, 0, 5, 156.9,382.65) ">
<use xlink:href="#Layer0_0_MEMBER_6_MEMBER_5_MEMBER_0_FILL"/>
</g>

<g transform="matrix( 5, 0, 0, 5, 156.9,382.65) ">
<use xlink:href="#Layer0_0_MEMBER_6_MEMBER_5_MEMBER_1_FILL"/>
</g>

<g transform="matrix( 5, 0, 0, 5, 156.9,382.65) ">
<use xlink:href="#Layer0_0_MEMBER_6_MEMBER_5_MEMBER_2_FILL"/>
</g>

<g transform="matrix( 5, 0, 0, 5, 442.4,560.15) ">
<use xlink:href="#Layer0_0_MEMBER_7_MEMBER_0_MEMBER_0_MEMBER_0_FILL"/>
</g>

<g transform="matrix( 5, 0, 0, 5, 442.4,560.15) ">
<use xlink:href="#Layer0_0_MEMBER_7_MEMBER_0_MEMBER_1_FILL"/>
</g>

<g transform="matrix( 5, 0, 0, 5, 442.4,560.15) ">
<use xlink:href="#Layer0_0_MEMBER_7_MEMBER_0_MEMBER_2_FILL"/>
</g>

<g transform="matrix( 5, 0, 0, 5, 442.4,560.15) ">
<use xlink:href="#Layer0_0_MEMBER_7_MEMBER_0_MEMBER_3_FILL"/>
</g>

<g transform="matrix( 5, 0, 0, 5, 442.4,560.15) ">
<use xlink:href="#Layer0_0_MEMBER_7_MEMBER_0_MEMBER_4_FILL"/>
</g>

<g transform="matrix( 5, 0, 0, 5, 380.4,523.15) ">
<use xlink:href="#Layer0_0_MEMBER_7_MEMBER_1_MEMBER_0_MEMBER_0_FILL"/>
</g>

<g transform="matrix( 5, 0, 0, 5, 380.4,523.15) ">
<use xlink:href="#Layer0_0_MEMBER_7_MEMBER_1_MEMBER_1_FILL"/>
</g>

<g transform="matrix( 5, 0, 0, 5, 380.4,523.15) ">
<use xlink:href="#Layer0_0_MEMBER_7_MEMBER_1_MEMBER_2_FILL"/>
</g>

<g transform="matrix( 5, 0, 0, 5, 380.4,523.15) ">
<use xlink:href="#Layer0_0_MEMBER_7_MEMBER_1_MEMBER_3_FILL"/>
</g>

<g transform="matrix( 5, 0, 0, 5, 380.4,523.15) ">
<use xlink:href="#Layer0_0_MEMBER_7_MEMBER_1_MEMBER_4_FILL"/>
</g>

<g transform="matrix( 5, 0, 0, 5, -1959.6,-745.1) ">
<use xlink:href="#Layer0_0_MEMBER_7_MEMBER_2_MEMBER_0_FILL"/>
</g>

<g transform="matrix( 5, 0, 0, 5, -1959.6,-745.1) ">
<use xlink:href="#Layer0_0_MEMBER_7_MEMBER_2_MEMBER_1_MEMBER_0_MEMBER_0_FILL"/>
</g>

<g transform="matrix( 5, 0, 0, 5, -1959.6,-745.1) ">
<use xlink:href="#Layer0_0_MEMBER_7_MEMBER_2_MEMBER_1_MEMBER_0_MEMBER_1_FILL"/>
</g>

<g transform="matrix( 5, 0, 0, 5, -1959.6,-745.1) ">
<use xlink:href="#Layer0_0_MEMBER_7_MEMBER_2_MEMBER_1_MEMBER_1_MEMBER_0_FILL"/>
</g>

<g transform="matrix( 5, 0, 0, 5, -1959.6,-745.1) ">
<use xlink:href="#Layer0_0_MEMBER_7_MEMBER_2_MEMBER_1_MEMBER_1_MEMBER_1_MEMBER_0_FILL"/>
</g>

<g transform="matrix( 5, 0, 0, 5, -1959.6,-745.1) ">
<use xlink:href="#Layer0_0_MEMBER_7_MEMBER_2_MEMBER_1_MEMBER_1_MEMBER_2_MEMBER_0_FILL"/>
</g>

<g transform="matrix( 5, 0, 0, 5, 423.65,547.4) ">
<use xlink:href="#Layer0_0_MEMBER_7_MEMBER_3_MEMBER_0_FILL"/>
</g>

<g transform="matrix( 5, 0, 0, 5, 423.65,547.4) ">
<use xlink:href="#Layer0_0_MEMBER_7_MEMBER_3_MEMBER_1_FILL"/>
</g>

<g transform="matrix( 5, 0, 0, 5, 404.15,530.4) ">
<use xlink:href="#Layer0_0_MEMBER_7_MEMBER_4_MEMBER_0_FILL"/>
</g>

<g transform="matrix( 5, 0, 0, 5, 403.65,532.15) ">
<use xlink:href="#Layer0_0_MEMBER_7_MEMBER_5_MEMBER_0_FILL"/>
</g>

<g transform="matrix( 5, 0, 0, 5, 403.65,532.15) ">
<use xlink:href="#Layer0_0_MEMBER_7_MEMBER_5_MEMBER_1_FILL"/>
</g>

<g transform="matrix( 5, 0, 0, 5, 403.65,532.15) ">
<use xlink:href="#Layer0_0_MEMBER_7_MEMBER_5_MEMBER_2_FILL"/>
</g>
</svg>
