<?xml version="1.0" encoding="UTF-8"?>
<svg width="480px" height="480px" viewBox="0 0 480 480" version="1.1" xmlns="http://www.w3.org/2000/svg" xmlns:xlink="http://www.w3.org/1999/xlink">
    <title>未找到相应结果</title>
    <defs>
        <linearGradient x1="50.0088292%" y1="100.123066%" x2="50.0088292%" y2="-0.0589547199%" id="linearGradient-1">
            <stop stop-color="#FFFFFF" stop-opacity="0.1" offset="0%"></stop>
            <stop stop-color="#D9E9FF" offset="100%"></stop>
        </linearGradient>
        <linearGradient x1="50.1217567%" y1="99.8071763%" x2="50.1217567%" y2="-0.191196564%" id="linearGradient-2">
            <stop stop-color="#FFFFFF" stop-opacity="0.1" offset="0%"></stop>
            <stop stop-color="#F8FBFF" stop-opacity="0.27" offset="14%"></stop>
            <stop stop-color="#EDF5FF" stop-opacity="0.52" offset="37%"></stop>
            <stop stop-color="#E4F0FF" stop-opacity="0.73" offset="58%"></stop>
            <stop stop-color="#DEECFF" stop-opacity="0.88" offset="76%"></stop>
            <stop stop-color="#DAEAFF" stop-opacity="0.97" offset="91%"></stop>
            <stop stop-color="#D9E9FF" offset="100%"></stop>
        </linearGradient>
        <linearGradient x1="49.8834069%" y1="100.068736%" x2="49.8834069%" y2="-0.035080011%" id="linearGradient-3">
            <stop stop-color="#FFFFFF" stop-opacity="0.1" offset="0%"></stop>
            <stop stop-color="#FEFEFF" stop-opacity="0.13" offset="9%"></stop>
            <stop stop-color="#FBFCFF" stop-opacity="0.21" offset="23%"></stop>
            <stop stop-color="#F5F9FF" stop-opacity="0.33" offset="40%"></stop>
            <stop stop-color="#EEF5FF" stop-opacity="0.51" offset="59%"></stop>
            <stop stop-color="#E4EFFF" stop-opacity="0.74" offset="79%"></stop>
            <stop stop-color="#D9E9FF" offset="100%"></stop>
        </linearGradient>
        <linearGradient x1="50%" y1="100%" x2="50%" y2="0%" id="linearGradient-4">
            <stop stop-color="#FFFFFF" stop-opacity="0.1" offset="0%"></stop>
            <stop stop-color="#FBFDFF" stop-opacity="0.19" offset="13%"></stop>
            <stop stop-color="#F1F7FF" stop-opacity="0.43" offset="41%"></stop>
            <stop stop-color="#E1EEFF" stop-opacity="0.82" offset="81%"></stop>
            <stop stop-color="#D9E9FF" offset="100%"></stop>
        </linearGradient>
        <linearGradient x1="73.6260772%" y1="101.554532%" x2="26.3804512%" y2="-1.54630696%" id="linearGradient-5">
            <stop stop-color="#D4E7FF" stop-opacity="0.9" offset="0%"></stop>
            <stop stop-color="#B5D6FC" stop-opacity="0.93" offset="36%"></stop>
            <stop stop-color="#75B2F6" offset="100%"></stop>
        </linearGradient>
        <linearGradient x1="11.502355%" y1="67.6509294%" x2="88.4845883%" y2="32.3490706%" id="linearGradient-6">
            <stop stop-color="#D4E7FF" stop-opacity="0.9" offset="0%"></stop>
            <stop stop-color="#DAEAFF" stop-opacity="0.98" offset="85%"></stop>
            <stop stop-color="#DBEBFF" offset="100%"></stop>
        </linearGradient>
        <linearGradient x1="18.7120533%" y1="66.1207779%" x2="81.2879467%" y2="33.8792221%" id="linearGradient-7">
            <stop stop-color="#F8FEFF" stop-opacity="0.9" offset="0%"></stop>
            <stop stop-color="#F0F8FF" stop-opacity="0.99" offset="93%"></stop>
            <stop stop-color="#EFF8FF" offset="100%"></stop>
        </linearGradient>
        <linearGradient x1="42.682656%" y1="58.3740556%" x2="57.2951366%" y2="41.6185074%" id="linearGradient-8">
            <stop stop-color="#D4E7FF" stop-opacity="0.9" offset="0%"></stop>
            <stop stop-color="#B4D3FC" stop-opacity="0.94" offset="43%"></stop>
            <stop stop-color="#81B4F6" offset="100%"></stop>
        </linearGradient>
        <linearGradient x1="64.7498302%" y1="54.5906566%" x2="35.2501698%" y2="45.4093434%" id="linearGradient-9">
            <stop stop-color="#FFFFFF" offset="0%"></stop>
            <stop stop-color="#F0F6FF" offset="27%"></stop>
            <stop stop-color="#DFECFF" offset="69%"></stop>
            <stop stop-color="#D9E9FF" offset="100%"></stop>
        </linearGradient>
        <linearGradient x1="65.6073002%" y1="56.7610036%" x2="34.3612335%" y2="43.2389964%" id="linearGradient-10">
            <stop stop-color="#FFFFFF" offset="0%"></stop>
            <stop stop-color="#F0F6FF" offset="27%"></stop>
            <stop stop-color="#DFECFF" offset="69%"></stop>
            <stop stop-color="#D9E9FF" offset="100%"></stop>
        </linearGradient>
        <linearGradient x1="0.0153643547%" y1="49.980448%" x2="69.0538492%" y2="49.980448%" id="linearGradient-11">
            <stop stop-color="#143E81" offset="0%"></stop>
            <stop stop-color="#143E81" offset="100%"></stop>
        </linearGradient>
        <linearGradient x1="83.827377%" y1="50.0056394%" x2="43.6227623%" y2="60.1035765%" id="linearGradient-12">
            <stop stop-color="#40A9FF" offset="0%"></stop>
            <stop stop-color="#40A9FF" offset="100%"></stop>
        </linearGradient>
    </defs>
    <g id="组件设计" stroke="none" stroke-width="1" fill="none" fill-rule="evenodd">
        <g id="基础-缺省图" transform="translate(-837.000000, -3044.000000)">
            <g id="未找到相应结果" transform="translate(837.000000, 3044.000000)">
                <rect id="矩形" fill="#D8D8D8" opacity="0" x="0" y="0" width="480" height="480"></rect>
                <polygon id="路径" fill="#E4EFFF" fill-rule="nonzero" points="93.8637363 277.933545 95.9604396 300.33794 82.8263736 298.84783"></polygon>
                <polygon id="路径" fill="#F3F8FF" fill-rule="nonzero" points="93.8637363 277.933545 107.70989 295.617061 95.9604396 300.33794"></polygon>
                <polygon id="路径" fill="#E4EFFF" fill-rule="nonzero" points="46.8131868 283.709369 49.5032967 312.390687 32.9406593 310.465413"></polygon>
                <polygon id="路径" fill="#F3F8FF" fill-rule="nonzero" points="46.8131868 283.709369 64.2857143 306.377501 49.5032967 312.390687"></polygon>
                <polygon id="路径" fill="#E4EFFF" fill-rule="nonzero" points="69.2307692 263.889588 73.6615385 311.309369 43.8725275 308.355523"></polygon>
                <polygon id="路径" fill="#F3F8FF" fill-rule="nonzero" points="69.2307692 263.889588 100.391209 301.155523 73.6615385 311.309369"></polygon>
                <path d="M78.356044,159.924753 C76.5920939,150.622137 68.3857193,143.941235 58.9186813,144.100578 C53.8515331,144.07711 48.9608371,145.959957 45.2175824,149.375303 C43.1200323,148.429854 40.8458344,147.939957 38.5450549,147.93794 C31.2534304,147.818018 24.8685127,152.807265 23.221978,159.911567 C17.6167731,161.145983 13.5747141,166.042151 13.4241758,171.779698 C13.6325153,178.752255 19.4260589,184.251411 26.4,184.096182 L75.0989011,184.096182 C82.0802254,184.258874 87.8856742,178.759595 88.1010989,171.779698 C87.9504346,166.062836 83.9356876,161.178861 78.356044,159.924753 Z" id="路径" fill="url(#linearGradient-1)" fill-rule="nonzero"></path>
                <path d="M360.61978,95.7445335 C352.833265,91.1934119 344.917928,86.8663612 336.883516,82.7687094 C332.928696,82.7343434 329.126494,84.2932465 326.334066,87.0939841 C325.055299,86.6843541 323.720795,86.4752819 322.378022,86.4742039 C316.167033,86.4742039 311.024176,90.773105 310.50989,96.206072 C305.780475,97.3396035 302.377894,101.474385 302.175824,106.333545 C302.175824,112.175303 307.542857,116.962116 314.043956,116.962116 L359.630769,116.962116 C366.224176,116.962116 371.498901,112.175303 371.498901,106.333545 C371.630769,100.702775 366.751648,96.1005775 360.61978,95.7445335 Z" id="路径" fill="url(#linearGradient-2)" fill-rule="nonzero"></path>
                <path d="M445.186813,80.395083 C440.72442,71.1719149 431.39317,65.300854 421.147253,65.2698083 C415.442478,65.2802067 409.893136,67.1299873 405.323077,70.5445335 C399.88992,59.9229612 388.070233,54.1941227 376.366603,56.5097323 C364.662974,58.8253418 355.915365,68.6235013 354.936264,80.5137643 C342.495539,84.5920255 334.836414,97.0774145 336.838473,110.015559 C338.840532,122.953704 349.915084,132.540228 363.006593,132.667659 L437.432967,132.667659 C450.701287,132.692797 461.979709,122.981172 463.924646,109.856152 C465.869584,96.7311313 457.892242,84.1660814 445.186813,80.3423357 L445.186813,80.395083 Z" id="路径" fill="url(#linearGradient-3)" fill-rule="nonzero"></path>
                <ellipse id="椭圆形" fill="url(#linearGradient-4)" fill-rule="nonzero" cx="240" cy="347.006072" rx="240" ry="75.8241758"></ellipse>
                <polygon id="路径" fill="#E4EFFF" fill-rule="nonzero" points="424.18022 283.564314 421.925275 313.287391 405.098901 308.40827"></polygon>
                <polygon id="路径" fill="#F3F8FF" fill-rule="nonzero" points="424.18022 283.564314 438.303297 309.753325 421.925275 313.287391"></polygon>
                <rect id="矩形" fill="url(#linearGradient-5)" fill-rule="nonzero" x="174.608791" y="149.823654" width="127.252747" height="160.325275" rx="24"></rect>
                <rect id="矩形" fill="url(#linearGradient-6)" fill-rule="nonzero" x="181.202198" y="149.823654" width="127.252747" height="160.325275" rx="24"></rect>
                <rect id="矩形" fill="url(#linearGradient-7)" fill-rule="nonzero" x="194.771429" y="150.33794" width="100.101099" height="141.718681" rx="24"></rect>
                <rect id="矩形" fill="url(#linearGradient-8)" fill-rule="nonzero" x="215.131868" y="141.344534" width="59.3802198" height="19.8857143" rx="9.94285714"></rect>
                <rect id="矩形" fill="url(#linearGradient-9)" fill-rule="nonzero" x="208.630769" y="187.313764" width="58.2461538" height="10.4703297" rx="5.23516484"></rect>
                <rect id="矩形" fill="url(#linearGradient-10)" fill-rule="nonzero" x="208.630769" y="210.034643" width="41.9076923" height="10.4703297" rx="5.23516484"></rect>
                <rect id="矩形" fill="url(#linearGradient-10)" fill-rule="nonzero" x="208.630769" y="232.755523" width="41.9076923" height="10.4703297" rx="5.23516484"></rect>
                <ellipse id="椭圆形" stroke="#78B3F6" stroke-width="8" fill="#FFFFFF" fill-rule="nonzero" cx="302.547253" cy="253.78849" rx="33.6263736" ry="33.8637363"></ellipse>
                <path d="M329.421978,273.304973 C330.569231,271.590687 342.846154,273.661017 350.652747,278.052226 C358.459341,282.443435 360.635165,286.26761 358.657143,289.920358 C356.679121,293.573105 352.41978,293.441237 344.6,289.063215 C336.78022,284.685193 328.301099,275.085193 329.421978,273.304973 Z" id="路径" fill="#78B3F6" fill-rule="nonzero"></path>
                <ellipse id="椭圆形" fill="#DBEBFF" fill-rule="nonzero" transform="translate(297.911869, 243.999402) rotate(-51.840000) translate(-297.911869, -243.999402) " cx="297.911869" cy="243.999402" rx="9.67912088" ry="5.52527473"></ellipse>
                <ellipse id="椭圆形" fill="#DDEBFF" fill-rule="nonzero" transform="translate(302.129792, 264.719433) rotate(-51.840000) translate(-302.129792, -264.719433) " cx="302.129792" cy="264.719433" rx="4.8" ry="2.71648352"></ellipse>
                <path d="M115.650909,297.465455 C115.650909,297.465455 113.330909,298.243636 110.821818,296.461818 C110.378182,299.021818 112.901818,301.523636 112.901818,301.523636 L116.952727,301.989091 L115.650909,297.465455 Z" id="路径" fill="#FECCA9" fill-rule="nonzero"></path>
                <polygon id="路径" fill="#FFBE92" fill-rule="nonzero" points="132.967273 294.432727 130.130909 299.08 135.192727 299.567273 137.374545 297.109091"></polygon>
                <path d="M137.294545,300.069091 L123.250909,299.094545 C123.250909,299.094545 122.698182,294.949091 128.225455,295.501818 C133.752727,296.054545 136.938182,296.505455 136.938182,296.505455 L137.294545,300.069091 Z" id="路径" fill="#F8B62D" fill-rule="nonzero"></path>
                <polygon id="路径" fill="#E6E8E8" fill-rule="nonzero" points="137.541818 300.985455 131.330909 301.087273 131.149091 299.974545 123.185455 299.923636 123.061818 298.985455 137.36 298.941818"></polygon>
                <path d="M112.225455,304.236364 L105.018182,293.101818 C105.018182,293.101818 107.898182,290.614545 110.603636,295.08 C111.149091,295.981818 112.596364,296.141818 113.04,296.890909 C112.654545,299.429091 114.770909,301.974545 114.770909,301.974545 L112.225455,304.236364 Z" id="路径" fill="#003A8C" fill-rule="nonzero"></path>
                <polygon id="路径" fill="#001529" fill-rule="nonzero" points="111.658182 304.883636 108.065455 300.229091 108.814545 299.538182 104.349091 293.472727 104.996364 292.912727 113.127273 303.72"></polygon>
                <path d="M162.654545,285.087273 L162.443636,284.963636 L149.883636,277.421818 C146.72,275.523636 142.698182,276.192727 140.349091,279.138182 C139.505455,280.2 138.647273,281.545455 137.847273,283.254545 C134.167273,291.08 131.52,296.803636 131.52,296.803636 L136.516364,298.294545 L145.003636,286.745455 C145.003636,286.745455 145.701818,286.476364 146.545455,287.494545 C147.389091,288.512727 151.469091,292.396364 152.050909,293.116364 C152.64,293.836364 154.385455,299.930909 164.654545,297.101818 C163.112727,286.992727 162.654545,285.087273 162.654545,285.087273 Z" id="路径" fill="url(#linearGradient-11)" fill-rule="nonzero"></path>
                <path d="M161.941818,286.861818 C161.941818,286.861818 146.290909,288.330909 143.963636,288.738182 C141.636364,289.145455 140.530909,288.825455 137.396364,290.621818 C133.687273,292.738182 114.109091,297.007273 114.109091,297.007273 L115.330909,302.389091 C115.330909,302.389091 134.436364,301.450909 140.225455,298.614545 C141.003636,298.236364 141.861818,298.083636 142.705455,298.2 C143.854545,298.352727 145.418182,298.578182 146.581818,298.818182 C150.916364,299.727273 156.749091,300.767273 163.170909,301.465455 C166.298182,301.865455 173.287273,302.92 173.287273,294.374545 C172.247273,287.327273 161.941818,286.861818 161.941818,286.861818 Z" id="路径" fill="#3E65A3" fill-rule="nonzero"></path>
                <path d="M166.101818,254.723636 C166.101818,254.723636 163.345455,257.08 163.992727,261.938182 C164.218182,262.890909 164.676364,264.556364 166.989091,263.894545 C167.178182,263.894545 167.243636,264.178182 167.243636,264.432727 C167.243636,264.68 166.989091,268.970909 166.989091,268.970909 L172.989091,270.338182 C172.989091,270.338182 172.24,259.414545 172.683636,257.4 C172.909091,256.367273 172.145455,254.294545 169.934545,253.698182 C167.723636,253.101818 166.101818,254.723636 166.101818,254.723636 Z" id="路径" fill="#FECCA9" fill-rule="nonzero"></path>
                <path d="M168.210909,250.687273 C168.210909,250.687273 167.825455,249.421818 165.978182,249.872727 C164.130909,250.323636 164.654545,251.967273 164.64,252.345455 C164.625455,252.723636 164.341818,252.956364 163.883636,252.643636 C163.425455,252.330909 162.567273,251.996364 161.738182,252.978182 C160.909091,253.96 161.621818,257.196364 163.643636,257.341818 C165.665455,257.487273 166.843636,256.709091 167.694545,256.163636 C168.545455,255.618182 170.072727,255.08 170.109091,255.952727 C170.145455,256.832727 169.963636,258.803636 170.189091,258.396364 C170.414545,257.989091 170.741818,256.396364 171.832727,256.636364 C172.923636,256.876364 172.538182,258.403636 171.658182,259.08 C171.28,259.363636 171.316364,259.305455 171.352727,259.690909 C171.389091,260.076364 171.629091,260.236364 171.716364,260.854545 C171.796364,261.472727 172.050909,261.625455 172.501818,261.072727 C172.952727,260.52 173.796364,259.465455 173.970909,256.869091 C173.978182,256.127273 174.210909,256.134545 174.661818,255.821818 C175.112727,255.501818 175.774545,255 175.410909,253.967273 C175.047273,252.941818 174.501818,252.934545 173.810909,252.810909 C173.127273,252.687273 173.2,252.454545 173.272727,252.047273 C173.345455,251.647273 173.149091,249.996364 171.796364,249.727273 C170.443636,249.458182 169.716364,250.076364 169.250909,250.636364 C168.770909,251.210909 168.385455,250.949091 168.210909,250.687273 Z" id="路径" fill="#003A8C" fill-rule="nonzero"></path>
                <path d="M175.003636,274.970909 C175.003636,274.970909 175.745455,264.512727 171.956364,264.774545 C168.167273,265.036364 164.56,265.254545 162.290909,274.258182 C161.527273,277.661818 161.665455,282.905455 161.105455,285.596364 C160.545455,288.287273 159.316364,293.167273 160.814545,294.287273 C162.32,295.407273 170.218182,298.432727 172.589091,298.287273 C174.967273,298.141818 175.483636,296.949091 175.505455,293.996364 C175.527273,291.043636 174.8,280.570909 175.003636,274.970909 Z" id="路径" fill="#53A4FC" fill-rule="nonzero"></path>
                <path d="M152.938182,269 C152.865455,268.810909 150.938182,262.018182 150.989091,261.989091 C151.04,261.952727 152.196364,261.581818 152.196364,261.581818 L154.109091,268.512727 L154.189091,269.283636 L152.938182,269 Z" id="路径" fill="#171C61" fill-rule="nonzero"></path>
                <path d="M164.981818,271.4 C164.981818,271.4 162.596364,274.607273 162.058182,275.530909 C161.52,276.454545 160.741818,276.076364 160.334545,275.625455 C159.774545,275.007273 156.4,271.778182 155.992727,271.370909 C155.592727,270.963636 155.541818,270.927273 155.490909,270.367273 C155.432727,269.807273 154.872727,268.185455 154.450909,267.305455 C154.029091,266.425455 154.021818,265.647273 153.665455,266.221818 C153.309091,266.796364 153.665455,267.829091 153.650909,268.127273 C153.636364,268.425455 152.923636,268.403636 152.676364,267.807273 C152.429091,267.210909 152.429091,267.261818 152.465455,266.672727 C152.501818,266.090909 152.24,265.385455 151.701818,265.930909 C151.163636,266.476364 150.712727,269.072727 151.250909,270.207273 C151.789091,271.341818 152.341818,271.603636 152.909091,271.865455 C153.483636,272.127273 153.774545,272.709091 154.298182,273.625455 C154.821818,274.541818 158.625455,280.229091 159.105455,280.796364 C159.650909,281.436364 160.218182,281.698182 161.658182,281.094545 C162.96,280.549091 165.854545,278.956364 168.450909,275.625455 C167.083636,273.734545 164.981818,271.4 164.981818,271.4 Z" id="路径" fill="#FECCA9" fill-rule="nonzero"></path>
                <path d="M163.534545,272.156364 L167.854545,277.923636 C167.854545,277.923636 174.632727,272.476364 171.032727,268.636364 C167.432727,264.796364 163.534545,272.156364 163.534545,272.156364 Z" id="路径" fill="url(#linearGradient-12)" fill-rule="nonzero"></path>
            </g>
        </g>
    </g>
</svg>