<?xml version="1.0" ?><!DOCTYPE svg  PUBLIC '-//W3C//DTD SVG 1.1//EN'  'http://www.w3.org/Graphics/SVG/1.1/DTD/svg11.dtd'><svg enable-background="new 0 0 126 126" id="Layer_1" version="1.1" viewBox="0 0 126 126" xml:space="preserve" xmlns="http://www.w3.org/2000/svg" xmlns:xlink="http://www.w3.org/1999/xlink"><g><path d="M106.7532,57.1228c-1.413,0.2057-14.8281-4.1895-16.25-10.1994   c-1.422-6.0182-12.1541-12.2824-16.724-10.7352c-4.5699,1.5471-10.5618-0.1074-10.5618-0.1074l-3.774-1.8244l-0.8586-0.4113   h-0.0089L1,67.088l64.0335,37.22l55.9482-32.3041c1.565-0.903,2.8707-2.2445,3.5504-3.917   C128.3061,58.8577,108.0499,56.9438,106.7532,57.1228z" fill="#F3F6FD"/><path d="M83.6841,58.0204v1.5932c0,0.2415-0.1556,0.4828-0.4721,0.6706L52.8797,77.7893   c-0.6331,0.3649-1.6524,0.3649-2.2854,0l-10.075-5.8528l-12.6554,7.457c-0.3487,0.2093-0.5365-0.0752-0.4185-0.6224l3.3262-15.7026   c0.059-0.2682,0.1824-0.5632,0.3326-0.81l0.5311-0.8692c-0.0054,0.0107-0.0107,0.0215-0.0107,0.027   c0.1502-0.263,0.3434-0.483,0.5258-0.5849l16.7863-9.8978c0.3541-0.2148,0.5418,0.0697,0.4238,0.6276l-3.3315,15.6971   c-0.059,0.2845-0.1931,0.5902-0.3541,0.8424c-0.0161,0.0267-0.0322,0.0589-0.0483,0.0804l-0.4614,0.7562   c-0.1502,0.2468-0.338,0.4616-0.515,0.5635l-2.7736,1.6309l8.7124,5.0643c0.6277,0.3701,1.6524,0.3701,2.2854,0l30.3269-17.5106   C83.5231,58.5032,83.6841,58.2617,83.6841,58.0204z" fill="#DEE7F8"/><g><g><g enable-background="new    "><path d="M95.3953,57.6801c-0.059,0.4616-0.4614,0.9818-0.8959,1.1589      c-0.2361,0.0967-0.4345,0.0697-0.5526-0.0537c-0.0107,0-0.0215-0.0107-0.0268-0.0215l-5.5525-4.9517      c-1.9152,0.762-4.56,0.6491-6.266-0.3379c-0.9764-0.558-1.4592-1.2982-1.4592-2.0333l0.0053-1.1267      c-0.0053-0.7295,0.4721-1.4646,1.4324-2.0225c1.9206-1.1156,5.0482-1.1156,6.9795,0c1.0891,0.6279,1.5665,1.4808,1.4324,2.307      c0.0161-0.0859,0.0268-0.1771,0.0268-0.2682l-0.0054,1.1374c0,0.6169-0.3434,1.2338-1.03,1.7435l5.7242,3.9484      c0.0054,0,0.0054,0.0052,0.0054,0.0052C95.3578,57.2456,95.4329,57.4281,95.3953,57.6801z" fill="#E1E9F4"/></g></g></g><path d="M76.8877,74.2648c-0.2522-1.5997-2.1865-0.713-2.1865-0.713l-1.3888,0.3408l-0.143,1.035l-1.5293-0.5876   c-1.0729,0.9174-1.6202,0.6276-2.9882,0.6813c-1.3519,0.0804-0.9335,0.6007-0.9335,0.6007   c0.4024,0.4668,1.647,0.9336,2.1781,1.0625c0.2039,0.0427,0.4077,0.0589,0.6116,0.0589c-0.4667,1.5183-1.2017,3.868-1.6899,4.5386   c-0.2414,0.3327-0.5365,0.6599-0.9066,0.9818c-1.7395,1.5164-2.7353,2.8435-3.2604,3.6744l-0.0013,0.0005   c-0.2414,0.3109-0.9013,1.3731-1.5987,2.5053c-2.0869-0.0485-5.1629-0.1887-5.1629-0.1887   c0.0295,0.0377,0.0426,0.0765,0.0509,0.1155c-0.0153-0.0063-0.0372-0.0081-0.0508-0.0155   c-0.4147-0.2253-1.3782-0.2316-1.8778-0.1826c-0.1406,0.016-0.2169,0.0343-0.256,0.0516   c-0.0928,0.0506,0.0773,0.1181,0.1458,0.1462c-0.0537-0.0055-0.2301-0.0055-0.6938,0.0558   c-0.1301,0.0128-0.1931,0.0325-0.232,0.0498c-0.0749,0.0398,0.1119,0.0747,0.2358,0.0906   c-0.2288-0.0217-0.2975-0.0118-0.2975-0.0118c-0.1212,0.0267-0.1842,0.0461-0.2199,0.0681   c-0.1889,0.0967,0.4941,0.1202,0.5209,0.1229c-0.3975,0.0081-0.5786,0.0587-0.6536,0.0982   c-0.0643,0.0361-0.0602,0.0623-0.0602,0.0623c0.0164,0.0058,0.3359,0.109,1.1508,0.0644c0.5384-0.0338,0.6042,0.0427,0.5853,0.0998   c-0.0097,0.0293-0.0687,0.0555-0.1253,0.0587c-0.4546,0.0267-0.7287,0.1231-0.8773,0.2051   c-0.0582,0.0283-0.1004,0.0558-0.1306,0.0788c-0.0396,0.0301-0.0141,0.0608,0.0476,0.0553   c0.169-0.0149,0.5412-0.0561,1.2088-0.1656c0.7939-0.1257,1.0443-0.2722,1.2004-0.3515c-0.0726,0.0534-0.1275,0.087-0.1275,0.087   c0.4935,0.043,2.7112,0.5641,4.0041,0.5696c0.3809,0.0052,0.5526,0.1878,0.3595,0.3861c-0.8959,0.9014-2.8594,3.117-1.132,3.7124   h0.0054l1.5075,0.778h0.0054c0.0268,0.1396-0.0322,0.2523-0.2843,0.3434c-0.3112,0.1181-0.3863,0.0107-0.735,0.1181   c-1.0193,0.3164-1.4646,1.0942-1.6577,1.6469c-0.3755,0.1126-0.8155,0.2627-0.9764,0.4665   c-0.1341,0.1771,0.0751,0.3219,0.3916,0.3489c0.338,0.0322,0.6599,0.0964,1.3787,0.2305c1.4968,0.2845,3.8251,0.1289,4.5493-1.25   c0.5526-1.062,0.4721-1.1156,0.5204-1.3517c0.9978-0.0485,2.6663-0.3809,3.0687-2.0225c0.4875-1.961,3.4248-5.0502,3.1441-5.4056   c0.453-0.4228,0.8588-0.9933,0.8179-1.6851c-0.0401-0.6813,0.2328-1.4764,0.511-2.0938c0.2291-0.5084,1.4045-3.3158,1.8282-3.8213   c0.7225-0.8621,1.3034-2.5315,1.6785-3.8499h0.0004C76.4175,76.1589,77.1399,75.8647,76.8877,74.2648z M71.2666,82.0947   c-0.1804,0.2473-0.4016,0.4906-0.6474,0.7314c0.2565-0.761,0.537-1.4672,0.6831-1.7428c0.2468-0.4668,0.9496-2.3872,1.4378-3.7338   c0.2248,0.0199,0.4445,0.0207,0.6231-0.0086C72.6145,79.2413,71.6757,81.5344,71.2666,82.0947z M73.8408,76.1175   c-0.0007-0.0076-0.0004-0.0155-0.0011-0.0228l0.0081,0.0047C73.8453,76.1057,73.8431,76.1112,73.8408,76.1175z" fill="#DEE7F8"/><path d="M64.1193,81.1366l-0.7081-0.3434c0.0268,0.0107,0.0429,0.0322,0.059,0.043   c-0.1556-0.1019-0.3916-0.1449-0.692-0.1126l0.4144-1.738c0.1663-0.4238-0.3875,0.6544-1.0474,0.3324   c-1.3251-0.6491-3.9002-0.6491-5.751,0c-0.9281,0.3274-0.8504-2.2475-1.0167-1.8185l-2.5616,7.929   c-0.1663,0.4238,0.059,0.8477,0.7242,1.1696c1.3251,0.6491,3.9002,0.6491,5.751,0c0.9871-0.3489,1.5611-0.8102,1.6845-1.2608   c-0.0054,0.0267-0.0107,0.0537-0.0215,0.0804l0.4775-1.2338c0.0858-0.0215,0.1717-0.0377,0.2629-0.0697   c1.1427-0.4024,2.3229-1.3734,2.6287-2.1729C64.4787,81.5497,64.3875,81.2707,64.1193,81.1366z M63.2233,81.7375   c-0.1824,0.4668-0.7403,1.0085-1.3841,1.4001l0.5955-1.529c0.0912-0.0375,0.1824-0.0749,0.2736-0.1071   c0.2092-0.0752,0.397-0.1126,0.5633-0.1289C63.2877,81.4745,63.277,81.5927,63.2233,81.7375z" fill="#DEE7F8"/><polygon fill="#FDFEFF" points="114.3776,75.8171 77.9325,54.918 69.2113,59.9533 105.6567,80.8523 105.1331,81.1545    68.6877,60.2555 41.4864,75.96 77.933,96.86 77.4095,97.1621 40.9629,76.2622 32.2464,81.2949 68.6933,102.1948 68.1698,102.497    3.8887,65.4203 4.4122,65.1177 31.8341,81.0551 40.5505,76.0229 13.1285,60.0854 13.652,59.7828 41.0741,75.7207 49.8707,70.6418    22.4485,54.7043 22.8211,54.489 50.2434,70.4265 59.1155,65.3043 31.693,49.3664 32.061,49.1542 59.4834,65.0921 68.2753,60.0157    40.8527,44.0778 41.3762,43.7757 68.7989,59.7135 77.5201,54.6782 50.0972,38.7404 50.6208,38.4382 114.9011,75.5149  "/><path d="M49.2834,62.7654c-0.0073,0.0115-0.0112,0.0191-0.0181,0.0273c-0.015,0.0265-0.0331,0.0537-0.0504,0.0743   c0.0139-0.0164,0.0285-0.0396,0.0393-0.0552L49.2834,62.7654z" fill="#DEE7F8"/><path d="M49.2542,62.8117c-0.0108,0.0156-0.0254,0.0388-0.0393,0.0552c0.0173-0.0205,0.0354-0.0478,0.0504-0.0743   C49.2615,62.8001,49.258,62.8042,49.2542,62.8117z" fill="#DEE7F8"/><g><g><g><g><g><path d="M31.9821,39.3622l30.3317-17.5141c0.3202-0.1845,0.6113-0.199,0.815-0.0777l0.7221,0.4134        c-0.2086-0.1166-0.4949-0.1019-0.8151,0.0824l-0.5967,0.3397l0.6016,0.9703l0.0582,20.6237L32.7624,61.7141        c0,0-1.014,1.2759-0.8102,1.3922l-0.7173-0.4179c-0.2037-0.1166-0.3347-0.3738-0.3347-0.7327l-0.0582-20.619        C30.842,40.614,31.3514,39.7261,31.9821,39.3622z" fill="#B6CBEA"/><g><g enable-background="new    "><g><path d="M63.0348,22.2663c0.635-0.3666,1.1478-0.0708,1.1498,0.6553l0.0584,20.6155           c0.0021,0.7297-0.5074,1.612-1.1423,1.9787L32.7696,63.0274c-0.6319,0.3648-1.1477,0.0745-1.1498-0.6553l-0.0584-20.6155           c-0.0021-0.7261,0.5105-1.6138,1.1423-1.9787L63.0348,22.2663z" fill="#83A1CC"/></g></g></g><g><polygon fill="#4C4A8B" points="32.7044,41.0932 32.7628,61.7158 63.1001,44.2006 63.0416,23.578        "/></g></g><g><g><g enable-background="new    "><g><path d="M32.2942,63.6921l0.0049,1.5979c0,0.2378,0.1552,0.4707,0.4706,0.655L50.5941,76.303           c0.6307,0.3639,1.6543,0.3639,2.285,0l30.3317-17.5091c0.3202-0.1845,0.4754-0.4271,0.4754-0.6697l-0.0049-1.5929           c0-0.2378-0.1601-0.4804-0.4706-0.66L65.3815,45.5133c-0.6259-0.3686-1.6495-0.3639-2.2802,0L32.7696,63.0274           C32.4542,63.2117,32.2942,63.4495,32.2942,63.6921z" fill="#83A1CC"/></g></g></g><g><g><g enable-background="new    "><g><path d="M32.2942,63.6921l0.0049,1.5959c0,0.2378,0.1552,0.4705,0.4706,0.655L50.5941,76.301            c0.6307,0.3639,1.6543,0.3639,2.285,0l30.3317-17.5093c0.3202-0.1843,0.4754-0.4269,0.4754-0.6695l-0.0049-1.5909            c0,0.2376-0.1601,0.4802-0.4803,0.6645L52.8743,74.7052c-0.6355,0.3686-1.6592,0.3686-2.285,0L32.7599,64.3471            C32.4494,64.1675,32.2942,63.9299,32.2942,63.6921z" fill="#83A1CC"/></g><g><g><polygon fill="#3A3A77" points="45.364,72.0719 45.3616,72.9492 43.1308,71.6613 43.1333,70.784            "/></g><g><polygon fill="#3A3A77" points="48.9743,74.1563 48.9718,75.0336 46.7428,73.7467 46.7453,72.8694            "/></g></g><path d="M33.8129,65.2425c-0.2576-0.1486-0.4666-0.0273-0.4674,0.2689           c-0.0009,0.2959,0.2067,0.6554,0.4643,0.8043c0.2576,0.1486,0.4665,0.0295,0.4674-0.2664           C34.2781,65.7533,34.0705,65.3913,33.8129,65.2425z" fill="#3A3A77"/><g><path d="M32.7705,63.0252c-0.6319,0.3648-0.6384,0.9568-0.0106,1.3216L50.5873,74.707            c0.6278,0.3648,1.6529,0.3649,2.2848,0l30.331-17.5116c0.6319-0.3648,0.6352-0.9586,0.0074-1.3234L65.3831,45.5118            c-0.6278-0.3648-1.6497-0.363-2.2816,0.0018L32.7705,63.0252z" fill="#B6CBEA"/></g></g></g><path d="M71.4149,61.7789l-5.1635-3.0006c-0.22-0.1276-0.5784-0.1256-0.8,0.002l-10.6017,6.121         c-0.2215,0.128-0.2226,0.3334-0.0026,0.4613l5.1634,3.0006c0.2203,0.128,0.5751,0.128,0.7966,0l10.6016-6.121         C71.6304,62.1147,71.6351,61.9069,71.4149,61.7789z" fill="#83A1CC"/></g></g></g><g><polygon fill="#83A1CC" points="38.4427,62.9551 44.5858,66.5254 41.9558,68.0435 35.8128,64.4732      "/><polygon fill="#83A1CC" points="72.0085,50.6118 69.3784,52.1301 63.2354,48.5599 65.8654,47.0418      "/></g><g><g><polygon fill="#3A3A77" points="46.4112,63.1732 43.9872,64.5819 42.7909,63.8911 45.2149,62.4825       "/></g><g enable-background="new    "><g><polygon fill="#3A3A77" points="45.3279,60.3212 44.0744,61.0497 42.8806,60.3605 44.1342,59.632        "/></g><g><polygon fill="#3A3A77" points="43.7831,61.2189 42.5296,61.9474 41.3359,61.2582 42.5894,60.5297        "/></g><g><polygon fill="#3A3A77" points="46.0763,61.627 44.8228,62.3555 43.6264,61.6648 44.88,60.9363        "/></g><g><polygon fill="#3A3A77" points="44.5314,62.5248 42.4846,63.7143 41.2883,63.0236 43.3351,61.8341        "/></g></g><g><polygon fill="#3A3A77" points="42.2357,62.1182 40.982,62.8468 39.7883,62.1576 41.042,61.429       "/></g><g enable-background="new    "><g><polygon fill="#3A3A77" points="46.9255,57.6611 45.672,58.3896 45.0018,58.0027 46.2554,57.2742        "/></g><g><polygon fill="#3A3A77" points="45.3806,58.5589 44.1271,59.2874 43.4569,58.9005 44.7104,58.172        "/></g></g><g><polygon fill="#3A3A77" points="50.7162,58.9307 49.4626,59.6591 48.2663,58.9684 49.5198,58.2399       "/></g><g><polygon fill="#3A3A77" points="51.7441,63.5525 50.4906,64.281 49.2942,63.5903 50.5478,62.8618       "/></g><g><polygon fill="#3A3A77" points="53.2916,62.6533 52.038,63.3817 50.8417,62.691 52.0952,61.9625       "/></g><g enable-background="new    "><g><polygon fill="#3A3A77" points="46.8754,59.4219 45.6218,60.1504 44.4281,59.4612 45.6816,58.7327        "/></g><g><polygon fill="#3A3A77" points="49.1687,59.8299 47.915,60.5585 46.7187,59.8678 47.9724,59.1392        "/></g><g><polygon fill="#3A3A77" points="51.0484,60.4784 49.7948,61.2069 48.5985,60.5161 49.852,59.7877        "/></g><g><polygon fill="#3A3A77" points="47.6238,60.7277 46.3703,61.4562 45.1739,60.7655 46.4275,60.037        "/></g><g><polygon fill="#3A3A77" points="49.5036,61.3761 48.25,62.1046 47.0537,61.4139 48.3072,60.6854        "/></g><g><polygon fill="#3A3A77" points="51.7916,61.7872 50.538,62.5157 49.3417,61.825 50.5952,61.0965        "/></g></g><g><polygon fill="#3A3A77" points="51.5127,56.727 50.259,57.4556 49.0653,56.7664 50.3189,56.0378       "/></g><g><polygon fill="#3A3A77" points="54.6049,54.93 53.3513,55.6585 52.1576,54.9693 53.4112,54.2408       "/></g><g><polygon fill="#3A3A77" points="53.1102,54.067 51.8566,54.7955 51.1864,54.4086 52.44,53.6801       "/></g><g><polygon fill="#3A3A77" points="51.5654,54.9648 50.3117,55.6933 49.6415,55.3064 50.8952,54.5778       "/></g><g><polygon fill="#3A3A77" points="50.0179,55.864 48.7642,56.5926 48.0941,56.2057 49.3477,55.4771       "/></g><g><polygon fill="#3A3A77" points="48.473,56.7618 47.2195,57.4903 46.5493,57.1034 47.8028,56.3749       "/></g><g><polygon fill="#3A3A77" points="55.6882,57.782 54.4346,58.5105 53.2383,57.8198 54.4918,57.0913       "/></g><g><polygon fill="#3A3A77" points="54.8365,61.7554 53.5829,62.4839 52.3866,61.7932 53.6401,61.0647       "/></g><g><polygon fill="#3A3A77" points="53.3365,60.8894 52.0829,61.6179 50.8866,60.9272 52.1401,60.1987       "/></g><g><polygon fill="#3A3A77" points="56.3839,60.8562 55.1304,61.5846 53.934,60.8939 55.1876,60.1655       "/></g><g><polygon fill="#3A3A77" points="54.8839,59.9901 53.6304,60.7186 52.4341,60.0279 53.6876,59.2994       "/></g><g><polygon fill="#3A3A77" points="52.5958,59.5791 51.3423,60.3076 50.1459,59.6169 51.3995,58.8884       "/></g><g><polygon fill="#3A3A77" points="57.9287,59.9584 56.6752,60.6869 55.4788,59.9962 56.7324,59.2677       "/></g><g><polygon fill="#3A3A77" points="56.4287,59.0924 55.1752,59.8209 53.9788,59.1302 55.2324,58.4017       "/></g><g><polygon fill="#3A3A77" points="54.1407,58.6813 52.8872,59.4098 51.6908,58.7191 52.9444,57.9906       "/></g><g><polygon fill="#3A3A77" points="52.2609,58.0329 51.0074,58.7614 49.8111,58.0707 51.0646,57.3422       "/></g><g><polygon fill="#3A3A77" points="49.9677,57.6248 48.7142,58.3533 47.5205,57.6641 48.774,56.9356       "/></g><g><polygon fill="#3A3A77" points="48.4203,58.5241 47.1667,59.2526 45.973,58.5634 47.2266,57.8349       "/></g><g><polygon fill="#3A3A77" points="55.3533,56.2358 54.0998,56.9643 52.9034,56.2736 54.157,55.5451       "/></g><g><polygon fill="#3A3A77" points="53.8084,57.1336 52.5549,57.8621 51.3585,57.1714 52.6121,56.4429       "/></g><g><polygon fill="#3A3A77" points="53.0601,55.8277 51.8064,56.5563 50.6127,55.8671 51.8664,55.1385       "/></g><g><polygon fill="#3A3A77" points="56.2025,52.2699 54.949,52.9984 54.2788,52.6115 55.5324,51.883       "/></g><g enable-background="new    "><g><polygon fill="#3A3A77" points="59.2447,52.2336 57.9912,52.9621 56.7975,52.2729 58.051,51.5444        "/></g><g><polygon fill="#3A3A77" points="57.6973,53.1329 56.4437,53.8614 55.25,53.1722 56.5036,52.4437        "/></g></g><g><polygon fill="#3A3A77" points="61.0211,58.1613 59.7675,58.8898 58.5712,58.1991 59.8247,57.4706       "/></g><g><polygon fill="#3A3A77" points="59.5211,57.2953 58.2676,58.0238 57.0712,57.3331 58.3248,56.6046       "/></g><g><polygon fill="#3A3A77" points="62.5685,57.2621 61.315,57.9905 60.1187,57.2998 61.3722,56.5713       "/></g><g enable-background="new    "><g><polygon fill="#3A3A77" points="60.3253,55.0872 59.0718,55.8157 57.8755,55.125 59.129,54.3965        "/></g><g><polygon fill="#3A3A77" points="62.6135,55.4982 61.3599,56.2267 60.1636,55.536 61.4171,54.8075        "/></g><g><polygon fill="#3A3A77" points="61.0686,56.396 59.815,57.1245 58.6187,56.4338 59.8722,55.7053        "/></g></g><g><polygon fill="#3A3A77" points="57.9763,58.193 56.7226,58.9216 55.5263,58.2309 56.78,57.5023       "/></g><g><polygon fill="#3A3A77" points="57.2331,56.8842 55.9794,57.6128 54.7831,56.922 56.0368,56.1935       "/></g><g><polygon fill="#3A3A77" points="58.7806,55.9849 57.5269,56.7135 56.3305,56.0228 57.5842,55.2942       "/></g><g enable-background="new    "><g><polygon fill="#3A3A77" points="56.1524,54.0307 54.8988,54.7592 53.7051,54.07 54.9586,53.3415        "/></g><g><polygon fill="#3A3A77" points="58.4482,54.4373 57.1947,55.1657 55.9984,54.475 57.2519,53.7466        "/></g><g><polygon fill="#3A3A77" points="56.9008,55.3366 55.6472,56.065 54.4509,55.3743 55.7044,54.6458        "/></g></g><g><polygon fill="#3A3A77" points="64.6329,50.8432 63.3793,51.5716 62.183,50.8809 63.4365,50.1525       "/></g><g><polygon fill="#3A3A77" points="63.0854,51.7425 61.8319,52.4709 60.6355,51.7802 61.8891,51.0517       "/></g><g><polygon fill="#3A3A77" points="59.9932,53.5395 58.7395,54.268 57.5431,53.5773 58.7968,52.8488       "/></g><g><polygon fill="#3A3A77" points="64.1609,54.5989 62.9074,55.3274 61.711,54.6367 62.9646,53.9082       "/></g><g><polygon fill="#3A3A77" points="61.8728,54.1879 60.6193,54.9164 59.4229,54.2257 60.6765,53.4972       "/></g><g><polygon fill="#3A3A77" points="66.0927,55.214 64.7819,55.9758 64.2766,55.6841 65.5874,54.9223       "/></g><g enable-background="new    "><g><polygon fill="#3A3A77" points="69.1485,53.4382 67.8377,54.2 67.3324,53.9083 68.6433,53.1465        "/></g><g><polygon fill="#3A3A77" points="67.6381,52.5782 64.4522,54.4297 63.2558,53.739 66.4417,51.8875        "/></g><g><polygon fill="#3A3A77" points="66.9309,53.9263 65.62,54.6881 65.1148,54.3964 66.4256,53.6346        "/></g><g><polygon fill="#3A3A77" points="67.6219,54.3253 66.3111,55.0871 65.8059,54.7954 67.1167,54.0336        "/></g></g><g><polygon fill="#3A3A77" points="63.4177,53.2901 62.1642,54.0186 60.9678,53.3279 62.2214,52.5994       "/></g><g><polygon fill="#3A3A77" points="66.1355,51.7107 63.7116,53.1193 62.5153,52.4286 64.9391,51.02       "/></g><g><polygon fill="#3A3A77" points="63.1302,49.9756 61.0834,51.1651 59.8897,50.4759 61.9365,49.2864       "/></g><g><polygon fill="#3A3A77" points="60.7896,51.3358 59.536,52.0644 58.3422,51.3752 59.5959,50.6466       "/></g><g><polygon fill="#3A3A77" points="40.7409,61.2552 39.4872,61.9838 38.8171,61.5969 40.0708,60.8683       "/></g><g><polygon fill="#3A3A77" points="42.2884,60.356 41.0348,61.0844 40.3647,60.6975 41.6182,59.969       "/></g><g><polygon fill="#3A3A77" points="43.8332,59.4582 42.5796,60.1867 41.9094,59.7998 43.163,59.0713       "/></g><g><polygon fill="#3A3A77" points="54.6576,53.1677 53.4041,53.8962 52.7339,53.5093 53.9874,52.7808       "/></g><g><polygon fill="#3A3A77" points="59.2949,50.4728 58.0412,51.2014 57.371,50.8145 58.6247,50.0859       "/></g><g><polygon fill="#3A3A77" points="57.75,51.3707 56.4964,52.0991 55.8263,51.7122 57.0798,50.9837       "/></g><g><polygon fill="#3A3A77" points="61.6355,49.1126 59.5887,50.3021 58.9185,49.9152 60.9653,48.7257       "/></g><g><polygon fill="#3A3A77" points="61.5406,52.6402 60.2871,53.3687 59.0907,52.6779 60.3443,51.9495       "/></g><g enable-background="new    "><g><polygon fill="#3A3A77" points="47.9561,62.2754 46.7024,63.0039 45.5061,62.3132 46.7598,61.5847        "/></g><g><polygon fill="#3A3A77" points="50.2441,62.6865 48.9906,63.415 47.7942,62.7243 49.0478,61.9958        "/></g><g><polygon fill="#3A3A77" points="48.6993,63.5842 45.4898,65.4494 44.2935,64.7587 47.503,62.8935        "/></g></g><g><polygon fill="#3A3A77" points="64.5087,56.1346 62.8599,57.0927 61.6636,56.402 63.3123,55.4439       "/></g><g><polygon fill="#3A3A77" points="59.4763,59.0591 58.2226,59.7876 57.0263,59.0969 58.28,58.3684       "/></g><g><polygon fill="#3A3A77" points="50.1993,64.4503 48.9456,65.1788 47.7493,64.4881 49.003,63.7596       "/></g><g><polygon fill="#3A3A77" points="48.6519,65.3495 46.9898,66.3154 45.7935,65.6247 47.4555,64.6588       "/></g></g></g></g><g><g><g enable-background="new    "><g><path d="M67.2949,51.7052l-15.1478,8.8025l-8.1841-4.7255c-1.1821-0.683-2.1398-2.3427-2.1374-3.6992        l0.031-10.947c0.0048-1.4663-1.0293-3.2574-2.3069-3.9953L54.7,28.393c1.2752,0.7379,2.3093,2.4741,2.3069,3.9405        l-0.031,10.9447c-0.0048,1.3588,0.9529,3.0185,2.135,3.7016L67.2949,51.7052z" fill="#FFFFFF"/></g><g><polygon fill="#83A1CC" points="52.1465,60.5072 67.2947,51.704 67.2941,51.8985 52.146,60.7017       "/></g></g></g><g><path d="M54.6662,29.6299l-12.5494,7.2918c0.1339,0.1629,0.2589,0.3331,0.376,0.5125l12.5492-7.2918      C54.9248,29.9629,54.8,29.7927,54.6662,29.6299z" fill="#B6CBEA"/><path d="M51.9631,32.9069l-9.0576,5.2627c0.0453,0.0971,0.0865,0.194,0.126,0.2924l9.0576-5.263      C52.0496,33.1006,52.0085,33.0037,51.9631,32.9069z" fill="#B6CBEA"/><path d="M52.289,33.7911l-9.058,5.263c0.0291,0.1077,0.0535,0.2151,0.0745,0.3221l9.0582-5.2633      C52.3427,34.0059,52.3182,33.8988,52.289,33.7911z" fill="#B6CBEA"/><path d="M52.4485,34.8653c0-0.0291-0.0066-0.0598-0.0073-0.0889l-9.0591,5.2637      c0.0007,0.0291,0.0072,0.0598,0.0071,0.0885l-0.0008,0.2733l9.0593-5.264L52.4485,34.8653z" fill="#B6CBEA"/><polygon fill="#B6CBEA" points="52.4458,35.8473 43.3865,41.1113 43.3854,41.4774 52.4447,36.2134     "/><polygon fill="#B6CBEA" points="55.9301,36.3732 43.3792,43.666 43.3772,44.3978 55.928,37.1054     "/><polygon fill="#B6CBEA" points="43.3734,45.741 52.4326,40.4773 52.4337,40.1112 43.3744,45.3752     "/><polygon fill="#B6CBEA" points="43.3703,46.8164 52.4296,41.5524 52.4306,41.1867 43.3713,46.4507     "/><polygon fill="#B6CBEA" points="43.3672,47.8919 52.4265,42.6279 52.4275,42.2622 43.3683,47.5258     "/><polygon fill="#B6CBEA" points="43.3642,48.9674 52.4235,43.7034 52.4245,43.3376 43.3653,48.6013     "/><path d="M43.3562,51.7894c0,0.0304,0.0069,0.0631,0.0077,0.0942l12.5508-7.2928      c-0.0008-0.0317-0.0079-0.0648-0.0077-0.0961l0.0018-0.6311L43.358,51.156L43.3562,51.7894z" fill="#B6CBEA"/><path d="M43.5988,53.088l9.058-5.2633c-0.0355-0.1034-0.068-0.2058-0.0959-0.3096l-9.0582,5.2633      C43.5307,52.8821,43.5631,52.9845,43.5988,53.088z" fill="#B6CBEA"/><path d="M43.9774,53.9417l9.0574-5.263c-0.0513-0.0925-0.097-0.1877-0.1427-0.2825l-9.0576,5.263      C43.8803,53.7541,43.9261,53.8489,43.9774,53.9417z" fill="#B6CBEA"/><path d="M44.4983,54.7126l9.0573-5.263c-0.0665-0.0826-0.1326-0.1645-0.1947-0.2521l-9.0573,5.2627      C44.3657,54.5477,44.4318,54.6296,44.4983,54.7126z" fill="#B6CBEA"/><path d="M45.1624,55.4005l9.0573-5.263c-0.0833-0.0684-0.1611-0.149-0.2408-0.2253l-9.0574,5.2627      C45.0012,55.2515,45.079,55.3321,45.1624,55.4005z" fill="#B6CBEA"/><polygon fill="#B6CBEA" points="47.6297,56.8827 60.1788,49.5909 59.5479,49.2268 46.9989,56.5183     "/><polygon fill="#B6CBEA" points="48.7872,57.5508 57.8446,52.2881 57.5293,52.1061 48.4718,57.3687     "/><polygon fill="#B6CBEA" points="49.714,58.0861 58.7714,52.8231 58.4561,52.641 49.3986,57.904     "/><polygon fill="#B6CBEA" points="50.6408,58.6213 59.6982,53.3583 59.3829,53.1763 50.3254,58.4393     "/><polygon fill="#B6CBEA" points="51.5676,59.1563 60.625,53.8936 60.3097,53.7112 51.2522,58.9742     "/></g></g><path d="M52.1463,60.5068v0.1951l-8.1833-4.7231c-1.276-0.7399-2.3128-2.5298-2.3083-3.9964l0.031-10.9436    c0.0044-1.3601-0.9526-3.0216-2.1355-3.7039l-0.1644-0.0992l0.1644-0.0958c1.276,0.7399,2.3128,2.5298,2.3083,3.9964    l-0.031,10.948c-0.0044,1.3558,0.9526,3.0173,2.1355,3.6996L52.1463,60.5068z" fill="#83A1CC"/><g><path d="M76.6356,72.6649l-1.8974-0.7268c-1.0763,0.9184-1.6228,0.6254-2.992,0.6818     c-1.3523,0.0787-0.9314,0.5996-0.9314,0.5996c0.4,0.4677,1.6439,0.9354,2.1792,1.0594c0.2536,0.0564,0.5128,0.0674,0.772,0.0674     c0.2197,0,0.7774,0.0415,0.9971,0.0696c-0.0056,0.0281-0.0169,0.2704-0.0226,0.3098c-0.0111,0.0564,1.7751,0.4716,2.0625,0.049     c0.062-0.0902,0.1184-0.4845,0.1297-0.7211c0.0112-0.0622,0.0112-0.1128,0.0112-0.1466     C76.9494,73.2757,76.6356,72.6649,76.6356,72.6649z" fill="#2A2A5E"/><g><g><path d="M62.2673,52.9421c-0.2417,0.042-0.3045,0.0225-0.3045,0.0225c-0.1055-0.0508-0.1571-0.088-0.18-0.1299       c-0.132-0.1848,0.5647-0.2296,0.5931-0.2349c-0.3927-0.0155-0.5441-0.1121-0.596-0.1875       c-0.0429-0.0696-0.0235-0.1192-0.0235-0.1192c0.0198-0.0112,0.3999-0.2084,1.1888-0.1235       c0.5184,0.0649,0.6293-0.0815,0.6439-0.1907c0.0075-0.056-0.0362-0.1057-0.0909-0.1121       c-0.4389-0.0509-0.6564-0.2351-0.7567-0.392c-0.0415-0.0541-0.0677-0.1063-0.0843-0.1505       c-0.0218-0.0576,0.0216-0.116,0.0802-0.1058c0.1601,0.0288,0.5082,0.1073,1.1115,0.3164       c0.8903,0.2971,0.9323,0.6586,1.0696,0.7578c0.1373,0.0988,0.4586,0.0886,0.4815,0.0926l0.1195,0.8629l-0.1586-0.0335       c-0.1929-0.0404-0.3872,0.011-0.5399,0.1313c-0.5473,0.4309-1.5143,0.4424-1.9851,0.3488       c-0.1313-0.0303-0.1968-0.0653-0.2257-0.0985c-0.0631-0.0966,0.1467-0.2258,0.2316-0.279       c-0.0569,0.0102-0.2333,0.0104-0.6609-0.1068c-0.1225-0.0248-0.1741-0.062-0.2027-0.0953       C61.9267,53.0395,62.134,52.9729,62.2673,52.9421z" fill="#ECB4BF"/></g></g><g><g><g><g><g><g><g><g><g><g><g><g><g><g><path d="M71.4886,37.1487c0,0,3.8822,0.9589,3.9054,1.1765                   c0.0005,0.0785,0.3384,4.0265,0.3097,4.9268c-0.0356,1.4669-3.9144,0.9248-3.4086-0.0837                   c0.3261-0.6621,0.7082-1.134,0.3339-1.4749c-0.2446-0.2228-0.3826-0.0148-0.6713-0.2198                   C70.5968,40.4883,71.4886,37.1487,71.4886,37.1487z" fill="#ECB4BF"/></g></g></g></g></g></g></g></g></g></g></g></g></g><g><path d="M77.8942,58.7114c0.8675-2.5625-0.2072-4.2641-0.4437-4.6976l-4.3374,1.3797       c0,0-0.3611,3.8777,1.069,8.7551c0.1799,0.6137,0.2809,1.243,0.3284,1.8806c0.1364,1.8328,0.0483,5.2128-0.0245,6.0748       c0.3643,0.6177,1.3967,0.9037,2.2507,0.7319c0,0,0.9496-4.2431,0.5602-7.2156c-0.1265-0.9661-0.1923-1.9358-0.1225-2.9072       C77.2591,61.5331,77.4535,60.0139,77.8942,58.7114z" fill="#3A3A77"/></g><g><path d="M73.7084,74.2785l-1.8974-0.7268c-1.0763,0.9184-1.6228,0.6254-2.992,0.6818       c-1.3523,0.0787-0.9314,0.5996-0.9314,0.5996c0.4,0.4677,1.6439,0.9354,2.1792,1.0594       c0.2536,0.0564,0.5128,0.0674,0.772,0.0674c0.2197,0,0.7774,0.0415,0.9971,0.0696c-0.0056,0.0281-0.0169,0.2704-0.0226,0.3098       c-0.0111,0.0564,1.7751,0.4716,2.0625,0.049c0.062-0.0902,0.1184-0.4845,0.1297-0.7211       c0.0112-0.0622,0.0112-0.1128,0.0112-0.1466C74.0222,74.8893,73.7084,74.2785,73.7084,74.2785z" fill="#2A2A5E"/><path d="M75.1703,60.0375c1.0144-2.4041,0.3346-4.8419,0.0981-5.2751l-5.0821,2.1891       c0,0-0.3611,3.8777,1.069,8.7558c0.1798,0.6133,0.2808,1.2427,0.3283,1.8803c0.1364,1.8328,0.0483,5.2128-0.0245,6.0744       c0.3643,0.6177,1.3967,0.9041,2.2506,0.7322c0,0,0.9271-4.1427,0.5736-7.1094C74.2576,66.23,74.6386,61.2975,75.1703,60.0375z" fill="#4C4A8B"/></g><path d="M78.0978,45.1646c0.817-4.5641-2.6596-3.8372-2.6596-3.8372c-0.1127,0.9919-1.6644,1.3055-2.7293,1.0238      l-2.0544,1.5527c-0.1529,0.1151-0.2884,0.2501-0.3941,0.4097c-0.1635,0.2468-0.2816,0.6562-0.3666,1.1025      c-0.1839,0.9655-0.186,1.9546-0.0826,2.9322c0.2292,2.1653,0.2196,9.1411,0.3405,10.3351c0,0,3.4112,2.9011,7.9159-3.1916      C78.5571,54.8299,77.4329,48.9116,78.0978,45.1646z" fill="#3887E5"/><path d="M72.6802,36.3222c-0.7996,0.2621-1.1585,0.383-1.5145,0.4418      c-0.3305,0.0544-0.6261,0.3312-0.5953,0.6645c0.0428,0.4644,0.5248,0.7689,0.8544,1.008      c0.9342,0.6779,0.8102,1.3478,0.8467,1.6516l0.2904,0.0661c0,0-0.0142-0.9406,0.3658-1.0628      c0.6753-0.2176,0.4547,1.221,0.381,2.8477c-0.0563,1.241,1.9777,0.2905,2.5343-0.0082c0.1641-0.088,0.3043-0.2059,0.3316-0.3904      c0.105-0.7091,0.2413-0.4917,0.3192-2.8283C76.5815,36.0827,74.3461,35.776,72.6802,36.3222z" fill="#4C4A8B"/><g><path d="M70.7339,43.8359c-2.0814,1.1449-1.4191,5.3792-1.0521,7.0964       c0.0807,0.3776-0.2003,0.7327-0.5864,0.7367c-1.2959,0.0125-3.812,0.2875-4.3304,0.3709c0,0,0.4793,0.8273-0.0024,1.4941       c0,0,5.979,0.8525,6.9937-0.0186C72.7709,52.644,73.3641,42.3893,70.7339,43.8359z" fill="#6B9EF9"/></g></g></g></g><g><g><g enable-background="new    "><g><path d="M62.6748,71.7477l-0.02,6.9886c0-0.5227-0.345-1.0454-1.0349-1.444       c-0.8582-0.4953-2.0477-0.6814-3.152-0.5574c-0.0557,0.0063-0.1115,0.0137-0.1672,0.0211       c-0.163,0.0231-0.3239,0.0536-0.4817,0.0904c-0.1967,0.0463-0.3881,0.1031-0.5711,0.1714       c-0.0126,0.0042-0.0252,0.0095-0.0379,0.0137c-0.1935,0.0747-0.3786,0.1619-0.549,0.2608       c-0.6773,0.3934-1.0159,0.9087-1.018,1.4251l0.021-6.9907c0.001-0.5163,0.3397-1.0317,1.018-1.425       c0.1704-0.0999,0.3544-0.1862,0.5479-0.2608c0.0126-0.0042,0.0252-0.0095,0.0379-0.0137       c0.183-0.0684,0.3744-0.1262,0.5711-0.1725c0.1578-0.0368,0.3187-0.0662,0.4817-0.0894       c0.0557-0.0084,0.1115-0.0158,0.1683-0.0221c1.1043-0.123,2.2927,0.0631,3.1509,0.5585       C62.3309,70.7002,62.6769,71.2239,62.6748,71.7477z" fill="#9EB5DF"/></g><g><path d="M61.6399,71.9663c1.3738,0.7932,1.3811,2.0787,0.0162,2.8719       c-1.3642,0.7928-3.5836,0.7928-4.9574-0.0004c-1.3732-0.7928-1.3811-2.0787-0.0169-2.8715       C58.0467,71.1731,60.2668,71.1735,61.6399,71.9663z" fill="#3A3A77"/></g><g><path d="M63.2361,71.7487l-0.0204,6.991c-0.0017,0.5991-0.3954,1.1972-1.1818,1.6543       c-1.583,0.92-4.1585,0.92-5.7519,0c-0.8018-0.4629-1.2023-1.0707-1.2006-1.6775l0.0204-6.9911       c-0.0017,0.6068,0.3987,1.2145,1.2006,1.6775c1.5934,0.92,4.1688,0.92,5.7519,0       C62.8407,72.946,63.2344,72.3478,63.2361,71.7487z" fill="#9EB5DF"/></g><g><g enable-background="new    "><g><path d="M64.4811,77.4013l-0.8422,0.4894c-0.263,0.1528-0.6272,0.1315-1.0284-0.1001         c-0.148-0.0854-0.2975-0.1999-0.4438-0.3388l0.8422-0.4894c0.1463,0.139,0.2958,0.2534,0.4438,0.3388         C63.854,77.5328,64.2181,77.5541,64.4811,77.4013z" fill="#B6CBEA"/></g><g><path d="M65.2408,76.6716c0,0.5615-0.2007,0.9583-0.521,1.1448l-0.8412,0.4874         c0.3202-0.1864,0.5186-0.5807,0.521-1.1423c0.0024-1.1304-0.7935-2.5118-1.7781-3.0782         c-0.1482-0.0861-0.2987-0.1505-0.4445-0.1913l0.8412-0.4899c0.1482,0.0406,0.2963,0.1051,0.4445,0.1911         C64.4474,74.1622,65.2456,75.5411,65.2408,76.6716z" fill="#B6CBEA"/></g><g><path d="M62.6211,74.0822c0.9842,0.5682,1.7812,1.9486,1.778,3.0795         c-0.0032,1.1291-0.8054,1.5881-1.7896,1.0198c-0.148-0.0854-0.2975-0.1946-0.4438-0.3229l0.0012-0.4069         c0.1463,0.139,0.2958,0.2534,0.4438,0.3388c0.7965,0.4599,1.4471,0.0908,1.4497-0.8244         c0.0026-0.9153-0.6438-2.0348-1.4403-2.4947c-0.148-0.0855-0.2976-0.142-0.4443-0.1722l0.0012-0.4069         C62.3234,73.9333,62.4731,73.9968,62.6211,74.0822z" fill="#83A1CC"/></g></g></g><g><path d="M62.0356,70.0713c1.5934,0.92,1.6018,2.4118,0.0187,3.3317s-4.1585,0.92-5.7519,0       c-1.5934-0.92-1.6018-2.4117-0.0188-3.3317S60.4421,69.1513,62.0356,70.0713z M56.6987,73.1727       c1.3738,0.7932,3.5932,0.7932,4.9574,0.0004c1.3649-0.7932,1.3577-2.0787-0.0162-2.8719c-1.3732-0.7928-3.5932-0.7932-4.9581,0       C55.3176,71.094,55.3255,72.3799,56.6987,73.1727" fill="#DEE7F8"/></g></g></g></g><g><g><g><path d="M89.6973,48.8543l-0.0034,1.1664c0-0.6134-0.4055-1.2267-1.2164-1.6935      c-0.8041-0.4634-1.8604-0.6984-2.9133-0.6984c-0.1363,0-0.276,0.0068-0.4157,0.0136c-0.385,0.0238-0.7667,0.0784-1.1313,0.1636      c-0.2828,0.0647-0.552,0.1499-0.8075,0.2556c-0.1942,0.0784-0.3782,0.1669-0.5486,0.2657h-0.0034      c-0.7939,0.4634-1.1926,1.07-1.1926,1.6764v-1.1731c0.0034-0.6066,0.4021-1.2131,1.196-1.6731      c0.1738-0.1022,0.3578-0.1908,0.552-0.2692c0.2556-0.1022,0.5247-0.1873,0.8076-0.2556      c0.3646-0.0852,0.7428-0.1398,1.1312-0.1635c0.1363-0.0068,0.276-0.0102,0.4157-0.0102c1.0529,0,2.1092,0.2316,2.9133,0.6984      C89.2918,47.6243,89.6973,48.2411,89.6973,48.8543z" fill="#4C4A8B"/><path d="M88.4815,47.8116c1.612,0.9307,1.6206,2.4404,0.0191,3.3712      c-1.6016,0.9307-4.2081,0.9308-5.8201,0c-1.6121-0.9307-1.6205-2.4405-0.019-3.3712      C84.2631,46.8809,86.8695,46.8809,88.4815,47.8116z" fill="#6B9EF9" opacity="0.7"/><path d="M90.5164,48.8563l-0.0023,1.139c-0.0021,0.7269-0.4798,1.4528-1.434,2.0074      c-1.921,1.1164-5.0463,1.1164-6.9799,0.0001c-0.973-0.5618-1.4589-1.2992-1.4569-2.0356l0.0023-1.139      c-0.0021,0.7364,0.4839,1.4738,1.4569,2.0356c1.9335,1.1163,5.0589,1.1163,6.9799-0.0001      C90.0366,50.3091,90.5143,49.5833,90.5164,48.8563z" fill="#4C4A8B"/><path d="M89.0596,46.8207c1.9335,1.1163,1.9437,2.9266,0.0228,4.043c-1.921,1.1164-5.0464,1.1164-6.9799,0.0001      c-1.9336-1.1163-1.9438-2.9266-0.0227-4.043C84.0007,45.7044,87.126,45.7044,89.0596,46.8207z M82.6805,50.5279      c1.612,0.9307,4.2185,0.9307,5.8201,0c1.6016-0.9307,1.593-2.4404-0.019-3.3711c-1.6121-0.9307-4.2184-0.9308-5.82,0      C81.06,48.0874,81.0684,49.5971,82.6805,50.5279L82.6805,50.5279z" fill="#6262AA"/></g></g><g><g enable-background="new    "><path d="M88.1334,51.9118c-0.0271,0.1209-0.0024,0.2152,0.0585,0.272l5.7546,5.1296      c-0.109-0.1031,1.1344-1.6991,1.2644-1.6217l-6.2679-4.3225l-0.0005,0.0024c-0.0609-0.0568-0.1588-0.0736-0.2792-0.0346      C88.4258,51.4108,88.1875,51.6699,88.1334,51.9118z" fill="#6262AA"/><path d="M94.7252,55.6932c0.4335-0.177,0.7346,0.0539,0.6727,0.5157c-0.0619,0.4618-0.4633,0.9793-0.8968,1.1561      c-0.4335,0.177-0.7346-0.054-0.6727-0.5157C93.8903,56.3876,94.2917,55.8701,94.7252,55.6932z" fill="#3A3A77"/></g></g></g></g></svg>