<svg id="图层_1" data-name="图层 1" xmlns="http://www.w3.org/2000/svg" viewBox="0 0 551 551"><defs><style>.cls-1{fill:#781f24;}.cls-2{fill:#d75566;}.cls-18,.cls-3{fill:#f7d189;}.cls-4{fill:#872b39;}.cls-16,.cls-17,.cls-25,.cls-5{fill:none;}.cls-5{stroke:#d75566;stroke-miterlimit:10;stroke-width:0.96px;}.cls-6{fill:#f9c7c6;}.cls-7{fill:#369999;}.cls-8{fill:#48acaf;}.cls-9{fill:#443332;}.cls-10{fill:#634c49;}.cls-11{fill:#4db5b5;}.cls-12{fill:#e07261;}.cls-13{fill:#f2826a;}.cls-14{fill:#c64a5f;}.cls-15{fill:#e2473b;}.cls-16,.cls-17{stroke:#fff;}.cls-16,.cls-17,.cls-25{stroke-linecap:round;stroke-linejoin:round;}.cls-16{stroke-width:0.5px;}.cls-17{stroke-width:0.56px;}.cls-18{font-size:18.43px;font-family:SimHei, SimHei;}.cls-19{fill:#eab5b5;}.cls-20{fill:#534747;}.cls-21{fill:#382828;}.cls-22{fill:#918d88;}.cls-23{fill:#e6b964;}.cls-24{fill:#d8a960;}.cls-25{stroke:#634c49;stroke-width:0.48px;}.cls-26{fill:#fff;}.cls-27{fill:#5fc1be;}.cls-28{fill:#d65859;}.cls-29{fill:#c14f56;}</style></defs><title>我想要的2021终稿</title><path class="cls-1" d="M218.09,419.87a79,79,0,0,0-1.6-10.69c-1.92-7.58-1.76-18.09-1.76-18.09L230.78,388l-1.92,6.17-1.25,6.65a52.34,52.34,0,0,0-.81,8.09c.1,2.94,2.22,4.79,1,11"/><path class="cls-1" d="M240.42,417.62c-2.59-4.09-6-6.39-7.62-9.75-2.19-4.48-2.49-12.34-2.49-12.34l9.66-3.25,2.69,3.25s-.59,6.37,1.1,10.05c0,0,2.47,1.83,3.76,7.11l-7.1,4.93"/><path class="cls-2" d="M217.5,418.81s5.67-3.2,10.45.9c0,0-1.4,13-1.48,14.91s.52,7.75,0,9.22-6.28,1-6.28,1-.68,2.48-4.15,2.61a29.61,29.61,0,0,1-6.34-.46,3.67,3.67,0,0,1,.32-4.48c1.88-2.5,3.72-1.37,5.81-4.51S217.5,418.81,217.5,418.81Z"/><path class="cls-2" d="M239.41,416.75s1.63-3.74,7.73-5.39a1.24,1.24,0,0,1,1.56,1.05,61.6,61.6,0,0,0,1.53,8.37c.81,2.3,2.77,4.73,2.77,8.79v6.3a2.5,2.5,0,0,1-1.76.84c-1,0-1.69,0-1.69,0s1.42,4.5-2.91,5.31-5.95.27-5.95.27-2-2.7,1.35-4.6a15.7,15.7,0,0,0,.88-8c-.74-4.13.21-4.4-.27-5.95S239.41,416.75,239.41,416.75Z"/><path class="cls-1" d="M160.46,368.38l-17.77-12.29-13.08-2.24s.67,12.72,3.22,16.8a51,51,0,0,0,5.52,7.21l13.75,17.65L168,427.38a31.35,31.35,0,0,0,12.47-2.08c-8.22-34.36-20-56.92-20-56.92"/><path class="cls-3" d="M116.11,348.88l4-145.82,32.74,6.63L140.24,350.4l-7.41,7.13s-15.86-2-16.72-7.13"/><path class="cls-4" d="M140.24,428.79,130.05,424c2.06-11.3,10.6-58.28,10.6-60l20.64,1.08s-20.88,63.59-21,63.72"/><path class="cls-2" d="M121.51,178.81s-3,0-2.76,2.71,1.34,6.58,4,6.56l5.87-2.06s-2.49-3.05-2.52-3.18S121.51,178.81,121.51,178.81Z"/><path class="cls-5" d="M88,323.36s-4.35,9.05-1.59,24.35"/><path class="cls-6" d="M96.66,316.13c-.58,3.6-5.61,5.55-5.61,5.55s-3,8.72-3.82,1.68,5.6-10.93,5.6-10.93l7.44,1.46L98.42,327H95.68l-5.09-2.45-1.28-2"/><path class="cls-6" d="M97.31,326.91s-1.18,4.43-2.2.67c0,0-.92,2.31-2.19,1.24,0,0-1.33,1.32-1.87-.08a27.48,27.48,0,0,1-.91-4.87"/><path class="cls-6" d="M97.5,323.41s-2.13-3.65-2.51.33c0,0-2.3-3.25-2.22,1,0,0-1.72-2.61-1.72.4A9.68,9.68,0,0,0,91.2,327"/><path class="cls-7" d="M107.36,245.05c2,13,4.58,66.75,3.31,69s-19.36,2.07-19.62-4.8,6.37-51.73,7.14-74.66,8.5-23.52,8.5-23.52,3.07-12.31,11.19-15,5.53,15,5.53,15-2,77.41-3.7,82.18c-1.52,4.4-3.37,47.12-3.65,59.2a1.42,1.42,0,0,1-2.12,1.2L96.4,343.59l1.53-28.24"/><path class="cls-8" d="M114,220.24l3.46,9.7-7.62,8.31,8.41,68.27s8.33-78.79,5.79-103.25l-5.32-8.85-7.15,9.19Z"/><path class="cls-9" d="M119.18,184a24.11,24.11,0,0,1-4.09,4.68c-3.84,3.49-6.79,11-8.15,20.45-.33,2.31-4.63,3.52-4.77,6-.1,2,2.74,2.53,2.74,2.53s-3.84,2-1.2,6.49c.77,1.3.51,2,.74,3.88,0,0,6.6,7.11,6.55-7.94,0,0-1.11,5.61,1.79,6.94,0,0,6.92.82.51-22.67,0,0-1.65,5.92,1.7,5.6,0,0,2.34-1.05.53-8.13a2.86,2.86,0,0,1-.09-1.05c.11-1.07.54-3.32,2.29-4.34l5.93-4.48.65-6"/><path class="cls-7" d="M170.39,221.07l-29-16.14-2,95.57s-6,49.77-6.49,58.68S176,364.24,176,364.24V294.05Z"/><polygon class="cls-10" points="212.37 323.72 217.01 336.21 247.08 337.41 247.52 323.72 212.37 323.72"/><path class="cls-2" d="M268.14,301,245,333.26a3.8,3.8,0,0,0-3.74.71l-9.19,3.93-10.65-.65-2.73-4-50.12-15.08c-.47.07-10.08.86-.42,10.77s39.27,16,42,19.42a104.21,104.21,0,0,1,2.11,19.77c.1,7.21-2.17,19.54-3,22.93a3.29,3.29,0,0,0,2.43,3.95c8.49,2.06,31.05,6.86,38,1.53a140,140,0,0,1-3-26.67,78.35,78.35,0,0,1,3.23-22.75c5.49-9.57,17.47-22.57,23.72-33.5C279.33,303.62,270.05,302.18,268.14,301Z"/><path class="cls-6" d="M266.59,287.42s-.64,3.25-2.68,10.38a11.88,11.88,0,0,0,2.68,11.59s1.53,1.4,2.29,0"/><path class="cls-6" d="M266.14,303.36a49.35,49.35,0,0,0,3.25,6.65c1.15,1.55,2.68,0,2.68,0l-3-6.65"/><path class="cls-6" d="M272.07,302.77s2.93,5.35,2.67,6.37-1.27,1.75-2.67.87"/><path class="cls-6" d="M275.89,301.49s2.4,5.53,1.63,6.8-1.5,1.23-2.78.85"/><path class="cls-6" d="M277.85,307.46a8.35,8.35,0,0,0,2.65-1.88"/><path class="cls-6" d="M277.75,288.78a19.32,19.32,0,0,0,1.23,4.79c.93,2.16,2.77,9.26,2.13,11a3.24,3.24,0,0,1-.61,1"/><path class="cls-6" d="M276.4,302.77s1.29-2.8,3.06-1.28-1.79,4.46-1.79,4.46"/><rect class="cls-11" x="149.8" y="306.7" width="8.24" height="24.69" rx="3.29" ry="3.29" transform="translate(-176.09 190.29) rotate(-42.93)"/><path class="cls-11" d="M100.57,313.28l.28.26a3.64,3.64,0,0,0,4.69.29l9.93-8.33a2.72,2.72,0,0,0-.08-4.17l-.27-.26a3.63,3.63,0,0,0-4.69-.29l-9.93,8.33A2.72,2.72,0,0,0,100.57,313.28Z"/><polygon class="cls-6" points="166.59 315.44 164.63 312.57 156.57 315.44 156 319.81 159.25 328.6 162.27 330.15 163.8 329.75 164.63 329.3 166.09 329.05 168.55 324.52 166.09 316.05 166.59 315.44"/><path class="cls-8" d="M173.43,248.61c-.85,10.37-6.29,16.82-13.07,38s-5.05,30.07-5.05,30.07a77.31,77.31,0,0,0,17-4.24s6.12-22,6.63-53.25-7.65-45-7.65-45c-3.05-7.46-10-12.8-10-12.8l-11.64,6.12,8.82,22.1,3.74,26-.59,11.72,1.36.92-3.65,18.33,1.4,1.91,14.65-37Z"/><path class="cls-8" d="M170.39,244.71s-7.81,16.47-10.2,31.93c0,0-3.13,8.14-.3,11.46"/><path class="cls-8" d="M157.4,224.16s4.18,20.21,4.81,30.52"/><path class="cls-8" d="M168.55,239.42S163,251,160.73,260.17s1.22,8.05,1.22,8.05"/><polygon class="cls-8" points="157.4 235.13 159.53 246.39 139.32 300.5 145.44 245.99 157.4 235.13"/><path class="cls-12" d="M147.93,260.17a69.22,69.22,0,0,0,7.38-8.75c4.21-5.78,4.19-19.54,1.73-28.71S154,211.08,154,211.08l0-5.13-5.73,4.54-5.48,39.7Z"/><path class="cls-13" d="M122.15,192c-4.74,1.27-4.94,7.05-4.94,7.05-1,15.2,21.65,14.95,21.65,14.95s13.45,2.37,20.9-9.69S155.31,192,155.31,192"/><path class="cls-12" d="M151.61,186.65s6.11.31,2.63,8.72-12.91,7.56-12.91,7.56c-2.89,1.18-17.41-2.13-18.94-9.69s4.35-7.93,4.35-7.93"/><path class="cls-13" d="M151.38,212s-4.41,30-3.26,56.2-2.8,40.18-2.8,40.18-5.86-11-13.63-12.1a50,50,0,0,0-12-.64,137.32,137.32,0,0,0,7.14-38.41c.63-20.7,13.63-42.91,13.63-42.91"/><path class="cls-6" d="M152.89,179.38c-1.06,8.19-4.11,18.41-13.2,18-8.44-.36-11.92-7.86-13.39-15.07l8.11-21.63h7.32l11.16,18.67"/><path class="cls-9" d="M127,166.11c-3.21,5.16-2.37,17-2.37,17,11.84-5,13.51-19.4,13.51-19.4s6.79,16,17.15,16c0,0,2.21-10.19-1.18-16s-8.16-13.42-21.57-9.34S119.25,170.14,121,175.91c0,0,1.29-2.22,3.83.34"/><path class="cls-6" d="M124.67,175.42c-1-.88-2.49-1.74-3.61-.18-1.78,2.51,1.36,5.18,1.4,5.69s1.54,4.7,4.44,3.34"/><path class="cls-10" d="M142.45,180.89a10.13,10.13,0,0,0,2.17,4.83h0l0,0a.38.38,0,0,1,0,.52,1.61,1.61,0,0,1-.68.39,2.82,2.82,0,0,1-.62.12,4.8,4.8,0,0,1-1.2,0,5,5,0,0,0,1.06-.43,2.17,2.17,0,0,0,.42-.31c.12-.09.26-.27.23-.3v.56h0a9,9,0,0,1-1.07-2.65A12.23,12.23,0,0,1,142.45,180.89Z"/><path class="cls-2" d="M136.91,190l8.85-.31S141.37,197.34,136.91,190Z"/><path class="cls-14" d="M114.49,407.93c.85-2.89,5.22-3,5.22-3l-2.08-52.29-.11-4.35L113,349"/><polyline class="cls-15" points="113 348.97 114.49 409.88 68.44 409.88 68.44 347.21 102.71 347.21"/><path class="cls-13" d="M181.9,422.29a.86.86,0,0,1,.91.9c-.05,1.1-.15,3.17-.35,6.19-.29,4.53,2.09,6.08,1.47,12.92a3.12,3.12,0,0,1-3,2.84,20.34,20.34,0,0,0-4.25.54,24.37,24.37,0,0,1-16,9.79c-11.09,1.9-10-1.76-10-1.76l-.3-3.73s-.84-2.32,12.86-9.88a5,5,0,0,0,3-6.37L164,427.57a1,1,0,0,1,.48-1.24C166.33,425.32,171.82,422.9,181.9,422.29Z"/><path class="cls-13" d="M132.43,461.25c-.27-8.06-10.49-11.91-10.49-11.91-3.59-6-15.26-13.55-15.77-13.72s-6.46-2.55-3.74,9.34,15.12,9.51,15.12,9.51c7,12.06,12.84,8.94,14,7.9,2.42-2.17,1.78-7.39,1.78-7.39,1.36-.85,2-4.76,2.38-11.38s5.78-4.45,5.78-4.45a11.81,11.81,0,0,0-.85-9.54c-2.55-6.18-14.44-6.05-15.29-4.73s-.85,5.34-.85,5.34.5,5.9-4.08,6.58"/><path class="cls-13" d="M123.83,436.12s-1,1.7-6.28,0-9.35-3.48-13.68-.72l-.29,4.17,23.65,16.82,3.65-1Z"/><rect class="cls-16" x="79.97" y="364.41" width="24.37" height="24.37" transform="translate(-239.3 175.47) rotate(-45)"/><rect class="cls-17" x="78.34" y="362.77" width="27.64" height="27.64" transform="translate(-239.3 175.47) rotate(-45)"/><text class="cls-18" transform="translate(82.59 383.74)">福</text><path class="cls-19" d="M328.62,158.87s-.5,7.42-3,12.73-6.88,4.22-6.88,4.22-.21.83-6.6-4.58-3.77-8-3.77-8c3.09-2.92-.13-12.86-.13-12.86L325,134.11S325.05,152.63,328.62,158.87Z"/><path class="cls-6" d="M325.35,124.47c0,8-.13,23.51-14.62,25.8-11,1.74-14.49-16.88-14.49-24.89a10.38,10.38,0,0,1,.16-2.24"/><path class="cls-10" d="M137.89,176a4.14,4.14,0,0,0-2.35-.59,3.08,3.08,0,0,0-2,1v0a.5.5,0,0,1-.69,0,.49.49,0,0,1,0-.68.24.24,0,0,1,.08-.06,4.35,4.35,0,0,1,1.27-.6,3.47,3.47,0,0,1,1.36-.1A4.44,4.44,0,0,1,137.89,176Z"/><path class="cls-10" d="M144.24,175.59l.94-1.21a.5.5,0,0,1,.7-.09.51.51,0,0,1,.09.71.5.5,0,0,1-.26.17Z"/><path class="cls-6" d="M296.4,123.66l4.54-8.92,19.62-4.33,4.79,14.06s4.17-3.83,5,1.52-3.41,10-5.15,9.42l-1,.05"/><path class="cls-8" d="M296.72,187,298,166.24l-13.7,10.91s-2.79.47-4.35,27.3c-.23,3.91-.33,7.53-.35,10.89v-.13s-1.35,4.66-2.3,10h0s-15.18,45-14,61.35c0,0,14,3.66,20.37,1.5V257.21s2.89.24,2.21-5.54a12,12,0,0,0,1.42-1.51l.09.15A193.19,193.19,0,0,0,287,275.1l-1.4,5.74s4,3,4.68,1.87l9.1-24.49,2.82-81.48Zm-16.36,45.72,0-.47c0,.2.05.4.07.6Z"/><path class="cls-20" d="M362.39,412.87c4.24-4.82.85-18.27.85-18.27l-4-5.37-8.13,15.23,7.07,5.67,3.48,4.14Z"/><path class="cls-20" d="M298,301.1s-4.77,45.6,0,52.22,32.63,40.87,42.18,50.3"/><path class="cls-20" d="M342.3,370.08l-2.42-6.45-2-11.71-3.55-27.48,18.54,63.65,9.75,24.39L342,424.14l-1-16.25-1.56-2.17-33.65-59.45,27.74-26.1c-.42,6.45-4.21,15.09-5.57,16.62s-1.59,17.75-1.59,17.75c6.73,2,15.94,15.54,15.94,15.54"/><polygon class="cls-20" points="298 301.1 298.86 282.96 324.31 278.35 333.52 320.17 331.53 321.14 312.49 346.37 298 301.1"/><path class="cls-20" d="M332.36,320.17a28.68,28.68,0,0,1-16.09,16.6"/><path class="cls-21" d="M365.43,402s6.88-2.13,8.53,7.42c0,0,.14,5.74-6.1,11.47,0,0,1.69,12.74-4.89,20.25s-13.8,4.31-13.8,4.31l-4.88-6"/><path class="cls-9" d="M340.9,459c5.44.43,8.21-2,8.21-2,2.78-7-1.37-15.63-1.37-15.63l2.75-9.61s-6.72,5.44-17.55,1.19a27.82,27.82,0,0,1-14.89,18.61C305.4,457.7,311,465,311,465s6.65,6.45,22.52.68c0,0,7.25-3.44,8.69-9.05"/><path class="cls-20" d="M330.35,314.46s9.5,27.21,9.87,31.91,2.64,15.77,4.09,18.48c0,0-1.26,15.15-8,55.91,0,0-.18,4.59,8,3.14"/><path class="cls-20" d="M356.61,415.15c15.74-33.58,9.73-56.91,9.73-56.91,4.48-17.55,2-75.62,2-75.62l.46-11.42-11.07-16.65L319,273.72"/><path class="cls-20" d="M336.54,419.59s-8.15,4.13-2.36,14.08c0,0,10.5,6.15,12.17,1.2"/><path class="cls-20" d="M332.4,429.41s-6.9,9.78,3.32,13.12,24.87-18.35,24.87-18.35,5.43-8.86-1.67-14.25"/><path class="cls-13" d="M308.23,166.56s7.72,10.88,12.42,9.17c0,0,4.2.47,5.86-6.34s13.71-10.66,13.71-10.66l-.35,121S331,285.21,325.55,283c0,0-21.09.27-23.38-3s2.29-113.29,2.29-113.29Z"/><path class="cls-11" d="M365.82,181.87c0,15.54,4.08,25.6,3.7,30.69s3.56,3.95,3.56,3.95c.64,6.5,4,3.7,4,3.7l19.6,24.46c-.38-9.56,19.87-15.93,19.87-15.93L386.08,193.2c0-3.69-7.65-12.61-7.65-12.61-6.75-18.6-14.77-27.77-14.77-27.77H337.57l-.84,3.87,2.21,2.68,9,23.06,24.55,31.67-1.4-38.34"/><path class="cls-22" d="M443.44,428.72,445,441.55a1.35,1.35,0,0,1-1.44,1.48h0a1.81,1.81,0,0,1-1.79-1.48l-1.52-12.71"/><path class="cls-22" d="M453,428.81l1.52,12.74a1.35,1.35,0,0,1-1.43,1.48h0a1.8,1.8,0,0,1-1.79-1.48l-1.54-12.83"/><path class="cls-9" d="M448.73,447.23h0a3.64,3.64,0,0,1-3.61-3l-.9-7.54a2.73,2.73,0,0,1,2.89-3h0a3.64,3.64,0,0,1,3.61,3l.9,7.54A2.73,2.73,0,0,1,448.73,447.23Z"/><path class="cls-22" d="M469.66,425.19l.22,3.46a1.35,1.35,0,0,1-1.43,1.48h0a1.8,1.8,0,0,1-1.79-1.48l-.06-1.6"/><path class="cls-22" d="M478.15,419.32l1.29,9.33a1.36,1.36,0,0,1-1.44,1.48h0a1.8,1.8,0,0,1-1.79-1.48l-1.07-7.29"/><path class="cls-9" d="M475.25,421.63c.52,1.85,1.28,9.71,1.28,9.71a2.72,2.72,0,0,1-2.89,3h0a3.64,3.64,0,0,1-3.58-3.56l-.4-5.58"/><path class="cls-22" d="M419.05,428.74l.06.56a1.35,1.35,0,0,1-1.43,1.48h0a1.8,1.8,0,0,1-1.79-1.48l-.07-.56"/><path class="cls-22" d="M428.6,428.74l.07.56a1.36,1.36,0,0,1-1.44,1.48h0a1.8,1.8,0,0,1-1.79-1.48l-.09-.75"/><path class="cls-9" d="M425.38,428.81l.38,3.18a2.72,2.72,0,0,1-2.89,3h0a3.64,3.64,0,0,1-3.61-3l-.38-3.25"/><path class="cls-6" d="M166.71,329.24a1.51,1.51,0,0,0,1.83-.85s2.08-4.08,1.83-6.39-4.5-7.47-4.5-7.47"/><path class="cls-6" d="M168.55,323.36s-1.56,5.7-2.2,5.94-1.53.34-1.72,0"/><path class="cls-6" d="M166.1,324.06s-.77,4.23-1.85,5.46c0,0-1.15.7-1.53.34"/><path class="cls-6" d="M163.42,324.52s-.06,5-1.15,5.63-2.61.42-2.74,0"/><path class="cls-6" d="M160.36,324.52a6.53,6.53,0,0,0-.07,2.67"/><path class="cls-6" d="M156.54,316.67s-2.16,4.84-1.27,7.39,2.21,5.81,4.92,6.09c0,0,1.73-.87-1-4.94"/><path class="cls-8" d="M91.05,309.26c.11,2.81,3.19,4.5,6.89,5.36l3.6-98.27a29,29,0,0,0-3.23,12.49c-.29,7.46-1,19.53-1,19.53C95.31,272.1,90.84,303.59,91.05,309.26Z"/><path class="cls-6" d="M266.59,287.42l11.16,1.36s.92,4.66,1.75,10.14,1.33,3.85,1.33,3.85,1.84,3.35-4.43,5.83S271,310,271,310s-5-7-4.82-7.24S266.59,287.42,266.59,287.42Z"/><path class="cls-10" d="M136,178.09c-.91,0-1.67.84-1.92,2l2.19.81-2.27.29c.11,1.41,1,2.52,2,2.52s2-1.26,2-2.81S137.1,178.09,136,178.09Z"/><path class="cls-10" d="M146.84,177.64c-.91,0-1.67.85-1.93,2l2.2.82-2.27.29c.1,1.41.95,2.51,2,2.51s2-1.25,2-2.8S148,177.64,146.84,177.64Z"/><path class="cls-23" d="M221.05,332a2.16,2.16,0,0,0-2,1.1,3,3,0,0,0-.88,2.42,3.55,3.55,0,0,0,2,3.07c2.69,1.6,12.27,2.53,17.55,1.18,5.85-1.5,3-6.37,3-6.37"/><path class="cls-23" d="M221.4,338.67a76.93,76.93,0,0,0-2.77,13c-.61,4.83-1,9.6-1,9.6s1.31-1.68,4.49-.81a21,21,0,0,0,1-6.84c.06-3.68,1.29-13.85,1.29-13.85"/><path class="cls-23" d="M238.35,339.09s4.84,4.06,2.58,26.53C239.47,380.15,249.7,385,249.7,385s-6.82.56-9.53,3a89.08,89.08,0,0,0-3.36-9.17c-1.48-3.1-2.84-10.53-.47-17.28s-.21-18.79-2-21.54"/><path class="cls-24" d="M239.58,330.06s3,3.41-.74,5.86-10.79,2.19-13.85,1.21-6.69-3.6-3.69-6.24"/><path class="cls-6" d="M215.14,316.87l2.83-7.74,24.55-.51,2.46,6.76v4.68s-3,13.08-15.32,13.19c-12.48.12-14.14-13.8-14.14-13.8Z"/><path class="cls-25" d="M228.05,282a1.25,1.25,0,1,1,2.49,0"/><path class="cls-25" d="M233.91,324.57a4.62,4.62,0,1,1-9.23,0"/><path class="cls-10" d="M220,314.2a4.81,4.81,0,0,1,1.36-1,3.32,3.32,0,0,1,1.63-.39,3.23,3.23,0,0,1,1.58.49,6.26,6.26,0,0,1,.66.49l.57.58c-.21-.18-.4-.37-.61-.54a4.79,4.79,0,0,0-.68-.42A2.92,2.92,0,0,0,223,313a3.73,3.73,0,0,0-2.61,1.47h0a.24.24,0,1,1-.37-.3Z"/><path class="cls-10" d="M233.73,314.35a4,4,0,0,1,2.8-1.56,3.19,3.19,0,0,1,1.63.39,4.83,4.83,0,0,1,.72.45l.63.56a.24.24,0,0,1,0,.34.26.26,0,0,1-.34,0v0l0,0-.55-.56a5.52,5.52,0,0,0-.62-.46,2.89,2.89,0,0,0-1.46-.46A3.85,3.85,0,0,0,233.73,314.35Z"/><path class="cls-9" d="M223.14,315.82a1.76,1.76,0,0,0-1.48.94l1.29,1h-1.63c0,.11,0,.22,0,.34a1.89,1.89,0,1,0,1.84-2.3Z"/><path class="cls-9" d="M236.53,315.82a1.73,1.73,0,0,0-1.35.73l1.35,1.31-1.8-.24a2.65,2.65,0,0,0,0,.5,1.89,1.89,0,1,0,1.85-2.3Z"/><path class="cls-9" d="M242,308.62H218.69l-.37,1.5c-1.62,9.14-.67,19.18,3.46,24.75a18.55,18.55,0,0,1-5.9-5.78s1.72,8.24,6.39,11.55c0,0-4.72-1.27-6-3.74l1,11.47s-7.17-9.75-7.17-20.13a64.21,64.21,0,0,1,2.39-17.83,17.94,17.94,0,0,1,17.94-17.94h.79c9.9,0,18.92,8,18.92,17.94a96.35,96.35,0,0,1,1.61,15.12c.45,18.42-7.39,22.46-7.39,22.46,2.17-2.71,3.71-8.22,3.71-8.22a5.77,5.77,0,0,1-7.15,2.42c7-4.78,4.42-15.48,4.42-15.48-2,2.6-6.47,8-6.47,8s-.49-4.31,1.87-10.54c1.3-3.42,2.63-5.22,1.7-14.12Z"/><path class="cls-9" d="M230.06,307.84s-1.64,3.31-.5,5.56c0,0-4-2.46-3.44-4.5A15.56,15.56,0,0,0,225,312a4.65,4.65,0,0,1-1.85-3.14c-.07-1.87-1,2.76-1,3.14s-.94-1.28-.83-2.93-.84,1.19-1.15,2.55-.57-2.76-.57-3.78-1,3.38-.72,5.07-2.08-.74-2.12-3,1.26-4.29,3.41-4.29,15.75-1.27,18.23.39,3.88-.05,4.6,2.56a12,12,0,0,1,.51,4.29c0,.15-.6-2.88-2.09-3.57s1.2,1.26.22,3.21c0,0-1.87-3.81-3.1-4.3a5.47,5.47,0,0,1,.81,3.5s-1.32-2.42-2.17-2.59c0,0,.9,2.68,0,3.22,0,0-1.27-2.86-2.16-3,0,0,.35,2.07-.68,2.92,0,0-.38-2.81-.89-3.15,0,0,.59,3.15-.77,4C232.66,313.1,231.74,308.48,230.06,307.84Z"/><circle class="cls-26" cx="233.73" cy="276.94" r="3.87"/><path class="cls-13" d="M212.37,310.79c0-9.85,10.61-31,20.94-31s16.93,21.4,16.93,31.25c0,0-7.79-9.6-19.47-9A27.33,27.33,0,0,0,212.37,310.79Z"/><path class="cls-23" d="M338.82,156.39c-1.91-7.39-6.63-12.8-12.88-8l-2.21,20c-4.87,9.09-7.26,23.86-7.84,32.82-.64,9.81-12,36.05-7.77,73s5.35,44.07,5.35,44.07,7.77,5.08,8.91-8.92c.06-.73.11-1.52.14-2.35h0c7.27-.06,3.56-16.51,1.9-34.47s2.29-43.69,2.29-43.69-.17-20.64,2.21-37.45S340.73,163.78,338.82,156.39Z"/><path class="cls-9" d="M325.18,124.31s-1.44-3.76-2.54-4.44-.58.63-2.63-3.14c-1.61-3-1-4.93-1-4.93s-1.82,2.78-10.76,3.13c0,0,.48,3.58-3.94,1.71,0,0-.91,2.55-4.74,2.55,0,0-2,4.84-4.68,4.1,0,0-3.89-5.54-3.06-7.67s-1-6.45,13.76-10,15.37,1.87,15.37,1.87,5.6-3.43,8.58,3.42.75,14.59.75,14.59-1.19-3.08-4-1.56c0,0-.95.49-1,.62Z"/><path class="cls-10" d="M309.3,124.89a4.54,4.54,0,0,1,1.22-2.66,4.72,4.72,0,0,1,2.69-1.33,8.47,8.47,0,0,1,1.51-.12c.5,0,1,0,1.51.14s1,.17,1.48.3l1.44.41a.48.48,0,1,1-.26.92h-.07l-1.35-.5c-.45-.17-.92-.27-1.38-.4s-.93-.16-1.4-.25a7.49,7.49,0,0,0-1.42,0,4.31,4.31,0,0,0-2.58,1A4.41,4.41,0,0,0,309.3,124.89Z"/><path class="cls-10" d="M306.42,130.64a5.71,5.71,0,0,1-.17,1.11,9.19,9.19,0,0,1-.29,1.06,13.55,13.55,0,0,1-.84,2l-.11-.5a9,9,0,0,1,1.41,1.86,8.46,8.46,0,0,1-2-1.21.37.37,0,0,1-.13-.43l0-.06a12.18,12.18,0,0,1,.86-2,9,9,0,0,1,.55-.95A6.44,6.44,0,0,1,306.42,130.64Z"/><path class="cls-2" d="M302.85,140.42l10.7-2.29s.85,7.56-4.24,7.56S302.85,140.42,302.85,140.42Z"/><path class="cls-10" d="M302.85,125.48a1.66,1.66,0,0,0-1.37-1,5.09,5.09,0,0,0-1.74.1,15.37,15.37,0,0,0-3.32,1.21h0a.48.48,0,0,1-.4-.87l.06,0a17,17,0,0,1,3.61-.8,5.5,5.5,0,0,1,1.85.15A1.76,1.76,0,0,1,302.85,125.48Z"/><path class="cls-9" d="M300.73,128a2.13,2.13,0,0,0-2.13,2.13,2.24,2.24,0,0,0,.32,1.11l1.81-.93-.88,1.75a2.12,2.12,0,1,0,.88-4.06Z"/><path class="cls-9" d="M312.86,127.17a2.13,2.13,0,0,0-2.13,2.13,2.1,2.1,0,0,0,.33,1.11l1.62-.83-.8,1.59a2,2,0,0,0,1,.25,2.13,2.13,0,0,0,0-4.25Z"/><path class="cls-8" d="M339,159.58s-6.05,90-2.74,104.19,5.09,23.06,5.09,23.06,21.79.51,34-6.88l6.24-3.44-2.81-6.24s-.12-16.25-2.54-49.57"/><path class="cls-27" d="M299.31,166.32s-15.47,9-6.23,21.25a11.9,11.9,0,0,0,4.61,1.38s-7.62,3-5.77,7.16S297.46,228,297.46,228Z"/><path class="cls-23" d="M307.18,262.39,309.39,296s-1.4,1-6.24,3.95-14.14-.69-14.14-.69,7.9-103.76,8.15-124.53,11.68-22.2,11.68-22.2.49,2,.54,2.75a21,21,0,0,1,.31,2.92,82.57,82.57,0,0,1-1.46,12.07c-1.52,7.75.29,67.49.29,67.49Z"/><path class="cls-28" d="M467.27,426.75l12.81-8.22-.24.1a7,7,0,0,0,4.38-7.17l-8.46-97.9a8.61,8.61,0,0,0-8.49-7.69H402.93a7.28,7.28,0,0,0-4.73,1.67L385,316"/><path class="cls-22" d="M408.48,428.81l1.27,10.64a1.35,1.35,0,0,1-1.44,1.48h0a1.8,1.8,0,0,1-1.79-1.48l-1.28-10.71"/><path class="cls-9" d="M404,445.13h0a3.62,3.62,0,0,1-3.6-3l-.9-7.54a2.72,2.72,0,0,1,2.89-3h0a3.63,3.63,0,0,1,3.6,3l.9,7.54A2.72,2.72,0,0,1,404,445.13Z"/><path class="cls-22" d="M398.92,428.74l1.28,10.71a1.35,1.35,0,0,1-1.44,1.48h0a1.8,1.8,0,0,1-1.79-1.48l-1.35-11.31"/><path class="cls-29" d="M462.44,428.51H398.1a8.62,8.62,0,0,1-8.49-7.69l-8.46-97.9a7,7,0,0,1,7.16-7.69h64.35a8.63,8.63,0,0,1,8.49,7.69l8.45,97.9A7,7,0,0,1,462.44,428.51Z"/><path class="cls-10" d="M405.1,246.62l5.52,63.91a1.8,1.8,0,0,0,2.15,1.57h0a1.46,1.46,0,0,0,1.13-1.57l-5.31-61.44"/><path class="cls-10" d="M408.92,244.06l9.41-.36c3.56-.12,3.5,2.92,3.5,2.92l5.54,64.1a1.62,1.62,0,0,0,1.94,1.42l.31-.07a1.32,1.32,0,0,0,1-1.42l-5.32-61.56-.48-5.64s-.17-3.75-3.61-3.75-3,.12-3,.12-1.12-2.7-9.19-.58"/><path class="cls-6" d="M402.11,235.92s-.75,6.58,2.39,10.83c2.39,3.21,6.28,3.31,8,3.17a3,3,0,0,0,1.52-.58l1.25-.94a3,3,0,0,0,1.22-2.43l.06-2.2s-5.05.5-6.08-.89a3.6,3.6,0,0,1-.65-3.35,16.68,16.68,0,0,1,8.41.14,8.51,8.51,0,0,0,3,0c-.08-7.6-9.82-9-9.82-9A27.9,27.9,0,0,0,402.11,235.92Z"/><path class="cls-27" d="M338.82,156.39s11.59,4.84,11.59,13.12c0,0-1.4,8.28-7.77,10.32,0,0,4.07.25,4.84,2.93S338,219.57,335.59,227.6"/><path class="cls-27" d="M345.55,245.61h22.51a0,0,0,0,1,0,0V264a7.62,7.62,0,0,1-7.62,7.62h-7.27a7.62,7.62,0,0,1-7.62-7.62V245.61a0,0,0,0,1,0,0Z" transform="translate(-34.33 55.63) rotate(-8.51)"/></svg>