<?xml version="1.0" encoding="UTF-8"?>
<svg width="500px" height="500px" viewBox="0 0 500 500" version="1.1" xmlns="http://www.w3.org/2000/svg" xmlns:xlink="http://www.w3.org/1999/xlink">
    <title>工作人员/查看手机消息</title>
    <g id="工作人员/查看手机消息" stroke="none" stroke-width="1" fill="none" fill-rule="evenodd">
        <g id="编组" transform="translate(181.000000, 105.000000)" fill-rule="nonzero">
            <path d="M16.63,95.57 C16.93,95.91 18.91,101.94 20.15,103.33 C21.52,104.86 26.68,105.4 27.02,105.37 C29.07,105.19 31.26,103.72 31.26,103.72 L32.49,94.98 L20.28,93.5 L16.63,95.57 Z" id="路径" fill="#FFCCA6"></path>
            <path d="M97.34,271.04 C97.34,271.04 94.13,282.8 94.64,285.75 C95.15,288.7 102.28,289.2 108.06,288.86 C113.84,288.52 115.19,287.36 115.53,285.73 C115.87,284.1 111.11,277.14 110.93,268.65 L97.34,271.04 Z" id="路径" fill="#122028"></path>
            <path d="M44.92,266.85 C44.92,266.85 36.61,275.52 27.44,276.55 C18.27,277.58 18.11,281.65 19.98,283.52 C21.85,285.39 53.97,286.73 59.55,285.01 C61.76,284.33 57.79,280.82 58.83,269.5 L44.92,266.85 Z" id="路径" fill="#122028"></path>
            <path d="M113.62,244.82 C113.51,260.7 112.98,271.83 111.92,272.81 C108.15,276.26 102.1,276.27 96.05,274.23 C95.19,273.94 94.26,271.07 93.31,266.43 C92.19,261.04 91.04,253.26 89.91,244.37 C86.85,220.24 83.99,187.89 82.73,172.81 C82.29,167.57 82.04,164.42 82.04,164.42 C82.04,164.42 59.99,269.38 58.97,272.09 C57.96,274.81 38.21,270.37 38.54,264.6 C38.62,263.31 39.73,255.51 41.42,244.16 C42.55,236.5 43.95,227.23 45.43,217.25 C49.8,188.02 55.05,152.74 57.4,134.27 C57.81,131.02 58.13,128.29 58.34,126.21 C59.93,126.67 61.99,126.99 64.39,127.23 C64.93,127.29 65.48,127.34 66.05,127.39 C70.8,127.79 76.62,127.98 82.66,128.43 C92.73,129.16 104.03,126.38 108.64,123.43 C110.29,133.13 111.7,156.95 112.59,182.81 C113.33,204.42 113.73,227.45 113.62,244.82 Z" id="路径" fill="#2A829A"></path>
            <path d="M45.27,95.68 C38.03,102.76 31.5,106.35 30.86,104.45 C29.5,100.37 27.62,88.32 27.62,88.32 C28.16,87.26 28.81,86.09 29.57,84.86 C33.69,78.1 38.51,74.43 44.05,67.01 C44.28,66.71 46.19,63.07 47.08,62.02 C50.5,57.99 52.82,55.29 52.82,55.29 L56.87,72.76 C58.7,80.62 53.54,87.58 45.27,95.68 Z" id="路径" fill="#2A829A"></path>
            <path d="M45.27,95.68 C45.56,94.39 46.19,92.94 47.28,91.39 C52.19,84.39 45.98,76.63 46.23,67.33 C46.28,65.24 46.61,63.48 47.1,62 C50.5,57.95 52.84,55.27 52.84,55.27 L56.89,72.74 C58.7,80.62 53.54,87.58 45.27,95.68 Z" id="路径" fill="#000000" opacity="0.25"></path>
            <path d="M112.22,67.23 C111.69,71.48 111.09,76.13 110.9,81.01 C110.32,95.79 108.56,116.67 110.6,120.23 C111.16,121.2 110.36,122.32 108.64,123.42 C104.03,126.36 92.73,129.14 82.66,128.42 C76.62,127.97 70.8,127.78 66.05,127.38 C62.94,127.12 60.3,126.77 58.35,126.21 C56.46,125.66 55.21,124.92 54.85,123.86 C53.55,120.04 64.49,111.12 61.16,99.66 C60.92,98.85 60.66,97.96 60.36,97.02 C56.5,84.64 48.19,61.94 51.35,57.04 C52.35,55.48 54.1,53.97 56.6,52.5 C58.55,51.34 60.96,50.2 63.82,49.07 C69.64,46.75 77.34,44.48 86.91,42.14 C86.91,42.14 96.18,42.38 103.46,44.36 C106.61,45.22 109.37,46.41 110.87,48.05 C114.16,51.7 113.31,58.62 112.22,67.23 Z" id="路径" fill="#2A829A"></path>
            <path d="M103.45,44.38 C92.29,46.27 88.31,61.17 86.46,61.94 C84.3,62.83 78.05,60.05 77.54,61.31 C77.03,62.58 79.32,107.61 78.31,112.19 C77.3,116.78 79.91,120.91 77.86,119.26 C75.82,117.61 77.7,87.55 76.87,76.38 C76.05,65.22 74.85,62.79 73.39,61.31 C71.93,59.84 70.87,64.5 69.59,63.41 C68.31,62.33 67.36,57.37 66.29,52.49 C65.82,50.34 64.8,49.42 63.81,49.07 C69.63,46.75 77.33,44.48 86.9,42.14 C86.91,42.15 96.18,42.39 103.45,44.38 Z" id="路径" fill="#000000" opacity="0.25"></path>
            <path d="M83.88,42.4 C83.6,42.75 83.27,43.2 82.87,43.71 C80.31,46.98 77.16,65.52 73.45,54.18 C73.39,54.01 73.15,54.36 73.03,54.41 C72.35,54.68 71.77,55.11 71.31,55.59 C71.31,55.46 71.3,55.33 71.28,55.18 C71.21,54.65 71.21,54.07 71.26,53.4 C71.38,51.67 71.86,49.28 72.6,45.15 C72.6,45.14 72.61,45.14 72.6,45.13 C72.84,44.12 73.02,43.13 73.1,42.2 C73.23,40.56 73.07,39.13 72.42,38.16 C71.93,37.44 71.74,36.65 71.71,35.89 L71.71,35.82 C71.69,35.54 71.7,35.27 71.72,35.01 C71.84,33.75 72.29,32.76 72.29,32.76 L81.09,28.43 L82.41,27.77 C82.41,27.77 82.41,28.17 82.42,28.83 C82.48,31.72 82.73,39.65 83.83,42.23 C83.84,42.29 83.86,42.34 83.88,42.4 Z" id="路径" fill="#FFCCA6"></path>
            <path d="M81.52,30.24 C81.52,30.24 81.52,30.24 81.52,30.24 C80.86,31.07 80.14,32.04 79.41,33.19 C79.1,33.68 78.77,34.17 78.44,34.65 C77.44,36.11 76.38,37.51 75.28,38.67 C74.56,39.43 73.83,40.09 73.1,40.61 C70.38,42.53 67.59,42.47 65.18,38.05 C63.62,35.18 62.76,32.12 62.3,29.39 C62.03,27.84 61.9,26.39 61.85,25.13 C61.83,24.57 61.82,24.04 61.81,23.56 C64.43,24.51 67.31,24.02 69.26,22.94 C73.46,20.6 74.39,29.27 76.31,28 C78.23,26.72 81.01,23.81 81.67,26.11 C81.97,27.13 81.71,28.74 81.52,30.24 Z" id="路径" fill="#FFCCA6"></path>
            <path d="M82.42,29.13 C82.14,29.47 81.84,29.84 81.52,30.25 C81.71,28.74 81.97,27.14 81.68,26.12 C81.02,23.82 78.24,26.73 76.32,28.01 C74.41,29.28 73.47,20.61 69.27,22.95 C67.32,24.03 64.45,24.52 61.82,23.57 C61.82,21.72 61.95,20.56 61.95,20.56 L72.01,17.1 C72.27,17.15 78.72,19.35 82.88,22.71 C85.94,25.18 84.88,26.17 82.42,29.13 Z" id="路径" fill="#FFCCA6"></path>
            <path d="M86.36,28.5 C81.24,34.6 83.4,34.43 82.38,34.16 C81.16,33.84 81.28,32.11 81.51,30.25 C81.51,30.24 81.51,30.24 81.51,30.24 C81.7,28.73 81.96,27.13 81.67,26.11 C81.01,23.81 78.23,26.72 76.31,28 C74.4,29.27 73.46,20.6 69.26,22.94 C67.31,24.02 64.44,24.51 61.81,23.56 C59.32,22.66 57.04,20.46 55.97,16.26 C55.73,15.33 55.56,14.3 55.45,13.17 C54.33,1.5 73.76,-1.35 82.82,1.91 C91.88,5.17 86.99,10.77 86.99,10.77 C91.99,12.39 92.93,15.59 91.95,19.14 C91.09,22.27 88.75,25.65 86.36,28.5 Z" id="路径" fill="#020F21"></path>
            <path d="M112.59,182.8 C104.32,156.26 86.54,135.08 75.33,133.77 C66.17,132.7 64.46,129.38 64.39,127.22 C64.93,127.28 65.48,127.33 66.05,127.38 C70.8,127.78 76.62,127.97 82.66,128.42 C92.73,129.15 104.03,126.37 108.64,123.42 C110.28,133.12 111.69,156.95 112.59,182.8 Z" id="路径" fill="#000000" opacity="0.25"></path>
            <path d="M86.95,57.45 C86.69,58.35 86.47,58.98 86.33,59.2 C85.51,60.48 84.74,59.14 81.29,56.08 C77.86,53.03 77.09,59.71 76.71,60.23 C76.58,60.4 76.42,60.12 76.32,59.58 C76.21,58.96 76.2,58 76.47,57.02 C76.64,56.37 76.94,55.71 77.4,55.15 C77.49,55.05 77.57,54.9 77.66,54.75 C78.49,53.23 79.36,49.32 80.04,45.69 C80.5,43.17 80.45,43.46 80.66,42.08 C80.78,41.33 80.84,40.88 80.84,40.88 C80.84,40.88 84.71,36.72 87.7,39.78 C90.19,42.31 88.18,53.09 86.95,57.45 Z" id="路径" fill="#2A829A"></path>
            <path d="M76.48,57.02 C76.42,56.91 76.35,56.8 76.26,56.68 C75.94,56.24 75.66,55.75 75.38,55.14 C75.38,55.14 72.41,52.09 73.43,46.18 C73.57,45.37 72.98,44.21 72.54,43.76 C72.54,43.76 68.86,44.91 68.27,49.83 C67.82,53.56 68.36,56.58 69.25,58.63 C69.53,59.29 69.86,59.84 70.21,60.29 C71.65,62.13 70.83,55.11 76.33,59.59 C76.33,59.58 77.41,58.6 76.48,57.02 Z" id="路径" fill="#2A829A"></path>
            <path d="M110.89,81.01 C110.31,95.79 108.55,116.67 110.59,120.23 C112.63,123.79 96.48,129.41 82.65,128.41 C76.61,127.96 70.79,127.77 66.04,127.37 C68.82,124.11 75.02,122.49 80.92,121.53 C90.34,119.99 96.82,99.69 101.48,82.67 C104.13,73 103.01,55.21 103.01,55.21 L112.22,67.21 C111.68,71.48 111.09,76.13 110.89,81.01 Z" id="路径" fill="#000000" opacity="0.25"></path>
            <path d="M124.08,94.81 C124.08,94.81 122.59,93.13 122.38,93.61 C116.83,106.23 103.34,112 103.34,112 C100.25,114.64 94.3,111.15 91.97,111.52 C91.4,111.6 91.02,111.8 90.92,112.2 C90.39,114.24 96.57,116.16 96.74,117.23 C96.91,118.3 90.48,122.6 89.45,126.8 C88.42,131 88.93,132.18 89.54,132.73 C90.15,133.28 92.17,131.99 93.51,132.37 C94.86,132.75 96.69,130.08 98.96,129.52 C99.81,129.31 100.45,128.38 101.11,127.14 C102.21,125.07 103.34,122.11 105.55,120.2 C105.55,120.2 132.42,109.02 132.380045,100.73 C132.380045,98.16 124.08,94.81 124.08,94.81 Z" id="路径" fill="#FFCCA6"></path>
            <path d="M134.85,92.87 L118.89,94.59 C118.89,94.59 118.8,94.16 118.6,93.42 C118.39,92.65 118.08,91.54 117.63,90.2 C117.2,88.92 116.65,87.42 115.97,85.81 C114.36,82.04 112,77.64 108.67,73.88 C103.94,68.53 101.1,60.74 101.52,54.42 C101.76,50.51 103.25,47.17 106.29,45.3 C106.29,45.3 116.24,51.48 124.38,62.52 C127.24,66.39 129.87,70.87 131.77,75.89 C134.41,82.85 134.8,89.21 134.85,91.73 C134.86,92.47 134.85,92.87 134.85,92.87 Z" id="路径" fill="#2A829A"></path>
            <path d="M82.04,164.42 C82.04,164.42 59.99,269.38 58.97,272.09 C57.96,274.81 38.21,270.37 38.54,264.6 C38.62,263.31 39.73,255.51 41.42,244.16 C57.99,233.71 65.69,198.77 70.17,182.84 C75.49,163.9 82.04,164.42 82.04,164.42 Z" id="路径" fill="#000000" opacity="0.25"></path>
            <path d="M113.62,244.82 C113.51,260.7 112.98,271.83 111.92,272.81 C108.15,276.26 102.1,276.27 96.05,274.23 C95.19,273.94 94.26,271.07 93.31,266.43 C104.54,261.86 110.51,252.42 113.62,244.82 Z" id="路径" fill="#000000" opacity="0.25"></path>
            <path d="M115.13,115.64 C112.74,110.94 114.44,106.39 116.3,102.54 C117.66,101.39 119.84,97.89 120.75,97.11 L124.26,96.79 L132.24,101.87 C131.2,105.78 123.2,111.74 115.13,115.64 Z" id="路径" fill="#000000" opacity="0.25"></path>
            <path d="M134.61,101.71 C132.53,102.22 116.86,101.39 116.71,99.18 C116.56,96.98 115.08,94.02 117.75,93.58 C117.75,93.58 118.06,93.52 118.61,93.43 C121.46,92.94 130.71,91.45 134.85,91.74 C135.93,91.81 136.66,92.01 136.85,92.37 C137.88,94.4 136.7,101.19 134.61,101.71 Z" id="路径" fill="#BF8C31"></path>
            <path d="M98.97,129.51 C96.69,130.07 94.86,132.74 93.52,132.36 C92.17,131.98 90.16,133.27 89.55,132.72 C88.94,132.18 88.43,131 89.46,126.79 C90.49,122.59 96.92,118.29 96.75,117.22 C96.58,116.15 90.4,114.23 90.93,112.19 C91.03,111.79 91.41,111.59 91.98,111.51 C92.56,112.26 93.65,113.27 95.67,114.06 C99.38,115.53 102.04,116.1 100.44,119.15 C99.11,121.7 98.95,124.98 101.12,127.12 C100.46,128.37 99.82,129.3 98.97,129.51 Z" id="路径" fill="#000000" opacity="0.25"></path>
            <path d="M134.61,101.71 C132.53,102.22 116.86,101.39 116.71,99.18 C116.56,96.98 115.08,94.02 117.75,93.58 C117.75,93.58 118.06,93.52 118.61,93.43 C118.4,92.66 118.09,91.55 117.64,90.21 C125.45,88.1 127.91,77.47 125.96,70.95 C124.8,67.08 124.45,64.3 124.38,62.54 C127.24,66.41 129.87,70.89 131.77,75.91 C134.41,82.87 134.8,89.23 134.85,91.75 C135.93,91.82 136.66,92.02 136.85,92.38 C137.88,94.4 136.7,101.19 134.61,101.71 Z" id="路径" fill="#0A4856"></path>
            <path d="M51.61,85.87 C46.18,89.97 40.02,101.12 37.81,97.64 C36.22,89.52 30.49,85.58 30.49,85.58 C29.14,83.23 28.39,86.5 26.37,87.41 C24.35,88.32 29.03,103.3 30.23,105.07 C30.23,105.07 36.19,109.09 37.61,102.11 C41.55,100 51.96,90.51 55.68,82.5 C54.24,83.9 54.83,83.43 51.61,85.87 Z" id="路径" fill="#0A4856"></path>
            <path d="M115.97,85.81 C114.36,82.04 112,77.64 108.67,73.88 C103.94,68.53 101.1,60.74 101.52,54.42 C102.31,55.12 103.11,56.16 103.65,57.67 C105.1,61.74 106.01,65.53 110.03,69.95 C114.54,74.9 118.85,82.25 115.97,85.81 Z" id="路径" fill="#FFFFFF" opacity="0.25"></path>
            <path d="M60.36,97.02 C56.5,84.64 48.19,61.94 51.35,57.04 C52.35,55.48 54.1,53.97 56.6,52.5 C55.03,54.33 53.14,56.79 53.22,59.06 C53.68,70.82 61.64,87.43 60.36,97.02 Z" id="路径" fill="#000000" opacity="0.25"></path>
            <path d="M80.86,40.85 C80.73,41.36 80.78,41.94 80.49,43.1 C77.43,41.29 75.39,41.98 73.09,42.19 C73.13,41.63 73.15,41.11 73.11,40.61 C75.35,39.04 77.53,36.13 79.42,33.19 C80.52,31.48 81.57,30.17 82.43,29.12 C82.51,32.22 82.79,36.2 83.12,39.18 C83.07,39.22 81.86,39.82 80.86,40.85 Z" id="路径" fill="#000000" opacity="0.25"></path>
            <path d="M86.95,57.45 C85.91,53.28 87.01,44.9 84.27,43.92 C82.67,43.35 81.16,44.41 80.04,45.69 C80.5,43.17 80.45,43.46 80.66,42.08 C80.78,41.33 80.84,40.88 80.84,40.88 C80.84,40.88 84.71,36.72 87.7,39.78 C90.19,42.31 88.18,53.09 86.95,57.45 Z" id="路径" fill="#000000" opacity="0.25"></path>
            <path d="M72.55,43.73 C72.55,43.73 69.35,44.37 68.4,49.01 C67.64,52.69 68.21,55.8 69.1,57.85 C69.06,56.69 70.08,55.09 70.09,53.47 C70.13,49 72.44,47.51 73.29,46.39 C73.96,45.53 72.55,43.73 72.55,43.73 Z" id="路径" fill="#000000" opacity="0.25"></path>
            <path d="M44.9,65.54 C43.98,67.68 44.4,67.42 42.98,72.59 C40.42,81.84 41.79,92.69 38.79,93.6 L35.56,77.05 C38.53,73.34 41.46,71.21 44.9,65.54 Z" id="路径" fill="#FFFFFF" opacity="0.25"></path>
            <path d="M81.52,30.24 C81.52,30.24 81.52,30.24 81.52,30.24 C80.86,31.07 80.14,32.04 79.41,33.19 C79.1,33.68 78.77,34.17 78.44,34.65 C79.29,31.94 79.45,29.61 78.97,29.41 C77.73,28.93 75.66,31.03 73.77,28.57 C71.87,26.12 69.77,27.29 64.99,26.29 C63.77,26.03 62.73,25.61 61.86,25.12 C61.84,24.56 61.83,24.03 61.82,23.55 C64.44,24.5 67.32,24.01 69.27,22.93 C73.47,20.59 74.4,29.26 76.32,27.99 C78.24,26.71 81.02,23.8 81.68,26.1 C81.97,27.13 81.71,28.74 81.52,30.24 Z" id="路径" fill="#000000" opacity="0.25"></path>
            <path d="M75.29,38.68 C74.57,39.44 73.84,40.1 73.11,40.62 C70.39,42.54 67.6,42.48 65.19,38.06 C63.63,35.19 62.77,32.13 62.31,29.4 C64.63,32.9 69.05,38.04 75.29,38.68 Z" id="路径" fill="#FFFFFF" opacity="0.25"></path>
            <path d="M86.36,28.5 C81.24,34.6 83.4,34.43 82.38,34.16 C81.16,33.84 81.28,32.11 81.51,30.25 C81.51,30.24 81.51,30.24 81.51,30.24 C81.7,28.73 81.96,27.13 81.67,26.11 C81.01,23.81 78.23,26.72 76.31,28 C74.4,29.27 73.46,20.6 69.26,22.94 C67.31,24.02 64.44,24.51 61.81,23.56 C59.32,22.66 57.04,20.46 55.97,16.26 C57.3,17.38 58.98,18.31 61.07,18.61 C67.82,19.58 73.89,13.18 77.13,17.01 C79.4,19.69 86.62,17.68 91.94,19.15 C91.09,22.27 88.75,25.65 86.36,28.5 Z" id="路径" fill="#000000" opacity="0.25"></path>
            <ellipse id="椭圆形" fill="#000000" opacity="0.25" cx="79.07" cy="68.77" rx="1" ry="1"></ellipse>
            <ellipse id="椭圆形" fill="#000000" opacity="0.25" cx="79.84" cy="78.71" rx="1" ry="1"></ellipse>
            <ellipse id="椭圆形" fill="#000000" opacity="0.25" cx="80.6" cy="87.51" rx="1" ry="1"></ellipse>
            <ellipse id="椭圆形" fill="#000000" opacity="0.25" cx="80.99" cy="95.93" rx="1" ry="1"></ellipse>
            <ellipse id="椭圆形" fill="#000000" opacity="0.25" transform="translate(80.638416, 104.679780) rotate(-11.489712) translate(-80.638416, -104.679780) " cx="80.638416" cy="104.67978" rx="1" ry="1"></ellipse>
            <ellipse id="椭圆形" fill="#000000" opacity="0.25" transform="translate(79.878196, 112.329072) rotate(-11.489712) translate(-79.878196, -112.329072) " cx="79.878196" cy="112.329072" rx="1" ry="1"></ellipse>
            <ellipse id="椭圆形" fill="#000000" opacity="0.25" transform="translate(79.878076, 119.979372) rotate(-11.489712) translate(-79.878076, -119.979372) " cx="79.878076" cy="119.979372" rx="1" ry="1"></ellipse>
            <g transform="translate(0.000000, 41.000000)">
                <path d="M19.14,56.74 L27.85,55.81 C28.95,55.52 31.32,54.6 30.25,51.72 L24.48,29.49 C24.19,28.39 23.07,27.72 21.97,28.01 L12.34,30.51 C9.63,31.19 9.36,33.32 9.65,34.43 L16.63,55.25 C16.9,56.36 18.02,57.02 19.14,56.74 C19.13,56.74 19.13,56.74 19.14,56.74 Z" id="路径" fill="#DDDDDD"></path>
                <path d="M21.61,29.45 L10.36,32.37 C9.7,32.54 9.31,33.21 9.48,33.86 L15.67,57.72 C15.84,58.38 16.51,58.77 17.16,58.6 L28.41,55.68 C29.07,55.51 29.46,54.84 29.29,54.19 L23.1,30.33 C22.94,29.68 22.27,29.28 21.61,29.45 Z" id="路径" fill="#000000"></path>
                <g>
                    <path d="M21.68,14.69 L19.52,14.69 L19.19,17.93 L16.28,14.69 L7.38,14.69 C3.39,14.69 0.15,11.45 0.15,7.46 L0.15,7.46 C0.15,3.47 3.39,0.23 7.38,0.23 L21.68,0.23 C25.67,0.23 28.9100231,3.47 28.9100231,7.46 L28.9100231,7.46 C28.92,11.45 25.68,14.69 21.68,14.69 Z" id="路径" fill="#F1654C"></path>
                    <circle id="椭圆形" fill="#FFFFFF" cx="7.8" cy="7.5" r="1.61"></circle>
                    <circle id="椭圆形" fill="#FFFFFF" cx="14.01" cy="7.5" r="1.61"></circle>
                    <circle id="椭圆形" fill="#FFFFFF" cx="20.23" cy="7.5" r="1.61"></circle>
                </g>
            </g>
            <path d="M18.21,79.85 C18.85,81.51 18.34,82.14 17.57,84.3 C16.81,86.47 17.71,86.34 17.07,87.87 C16.44,89.4 13.81,91.49 13.81,91.49 C13.81,91.49 13.22,91.13 12.46,90.44 C11.25,89.34 9.61,87.41 9.3,84.83 C8.79,80.62 10.82,78.29 10.82,78.29 C10.82,78.29 12.41,75.59 14.84,74.55 C14.98,74.49 15.13,74.43 15.27,74.38 C17.95,73.48 18.46,74.5 18.84,75.65 C19.23,76.79 17.58,78.19 18.21,79.85 Z" id="路径" fill="#FFCCA6"></path>
            <path d="M18.21,79.85 C18.85,81.51 18.34,82.14 17.57,84.3 C16.81,86.47 17.71,86.34 17.07,87.87 C16.44,89.4 13.81,91.49 13.81,91.49 C13.81,91.49 13.22,91.13 12.46,90.44 C11.84,84.18 17.15,82.85 16.39,82.76 C15.59,82.66 12.95,85.42 12.53,85.08 C11.02,83.87 17.11,80.57 16.32,79.73 C15.53,78.88 13.37,81.09 13.21,80.38 C13.03,79.67 16.85,77.27 16.26,75.74 C16.05,75.18 15.48,74.8 14.86,74.55 C15,74.49 15.15,74.43 15.29,74.38 C17.97,73.48 18.48,74.5 18.86,75.65 C19.23,76.79 17.58,78.19 18.21,79.85 Z" id="路径" fill="#000000" opacity="0.25"></path>
            <g transform="translate(87.000000, 66.000000)" fill="#C1272D" id="形状">
                <path d="M0.98,1.58 C0.97,1.6 0.95,1.61 0.91,1.61 C0.91,2.05 0.91,2.27 0.91,2.71 C0.91,2.72 0.85,2.75 0.79,2.74 C0.78,2.74 0.77,2.74 0.76,2.73 C0.76,2.3 0.76,2.09 0.76,1.66 C0.66,1.76 0.54,1.84 0.43,1.89 C0.42,1.88 0.41,1.87 0.4,1.85 C0.61,1.7 0.83,1.4 0.97,1.05 C1.06,1.1 1.1,1.13 1.19,1.18 C1.18,1.2 1.15,1.22 1.1,1.2 C1.04,1.31 0.97,1.42 0.89,1.51 C0.92,1.54 0.94,1.55 0.98,1.58 Z M0.43,0.92 C0.42,0.89 0.42,0.87 0.41,0.84 C1.12,1.03 1.48,1.07 2.19,1.08 C2.24,1.02 2.26,0.99 2.31,0.93 C2.31,0.93 2.44,1.03 2.52,1.11 C2.52,1.14 2.49,1.15 2.46,1.15 C1.64,1.16 1.24,1.14 0.43,0.92 Z M2.39,1.54 C2.37,1.56 2.35,1.57 2.3,1.57 C2.2,1.87 2.06,2.13 1.85,2.35 C2.04,2.51 2.28,2.63 2.57,2.7 C2.57,2.71 2.57,2.71 2.57,2.72 C2.5,2.74 2.45,2.79 2.43,2.86 C2.14,2.76 1.93,2.62 1.76,2.43 C1.56,2.6 1.31,2.72 0.99,2.77 C0.98,2.75 0.98,2.75 0.97,2.73 C1.26,2.66 1.5,2.52 1.68,2.34 C1.55,2.18 1.45,1.98 1.38,1.77 C1.3,1.89 1.21,2 1.11,2.08 C1.1,2.07 1.09,2.06 1.08,2.05 C1.25,1.84 1.41,1.49 1.5,1.12 C1.59,1.16 1.64,1.18 1.73,1.21 C1.72,1.24 1.69,1.25 1.64,1.25 C1.62,1.31 1.59,1.38 1.57,1.44 C1.8,1.46 1.92,1.47 2.15,1.47 C2.19,1.43 2.21,1.41 2.25,1.38 C2.29,1.45 2.32,1.48 2.39,1.54 Z M1.25,0.65 C1.72,0.82 1.61,1.13 1.45,1 C1.42,0.89 1.32,0.74 1.22,0.66 C1.23,0.66 1.24,0.65 1.25,0.65 Z M1.52,1.51 C1.48,1.59 1.44,1.66 1.4,1.73 C1.49,1.93 1.6,2.11 1.75,2.26 C1.93,2.06 2.05,1.81 2.13,1.54 C1.88,1.54 1.76,1.54 1.52,1.51 Z M1.56,1.62 C2,1.83 1.88,2.09 1.75,1.98 C1.72,1.87 1.62,1.73 1.53,1.64 C1.55,1.63 1.55,1.63 1.56,1.62 Z"></path>
                <path d="M4.83,1.02 C4.81,1.04 4.79,1.05 4.74,1.06 C4.69,1.15 4.59,1.28 4.52,1.36 C4.51,1.35 4.5,1.35 4.49,1.35 C4.51,1.27 4.54,1.15 4.56,1.06 C4.26,1.1 4.12,1.12 3.82,1.15 C3.82,1.39 3.82,1.51 3.82,1.76 C3.82,1.77 3.77,1.81 3.69,1.82 C3.68,1.82 3.68,1.82 3.67,1.82 C3.67,1.56 3.67,1.43 3.67,1.17 C3.4,1.2 3.26,1.21 2.98,1.23 C2.99,1.38 2.93,1.48 2.87,1.52 C2.81,1.56 2.74,1.57 2.71,1.52 C2.69,1.47 2.72,1.42 2.77,1.39 C2.86,1.34 2.92,1.2 2.9,1.06 C2.92,1.06 2.92,1.06 2.94,1.06 C2.95,1.09 2.96,1.13 2.97,1.16 C3.25,1.14 3.39,1.13 3.67,1.1 C3.67,1.01 3.67,0.97 3.67,0.88 C3.39,0.91 3.25,0.92 2.96,0.94 C2.95,0.91 2.95,0.9 2.94,0.87 C3.48,0.84 3.74,0.81 4.28,0.74 C4.32,0.68 4.35,0.65 4.39,0.59 C4.39,0.59 4.51,0.67 4.6,0.73 C4.59,0.76 4.57,0.77 4.54,0.78 C4.25,0.82 4.11,0.84 3.82,0.87 C3.82,0.96 3.82,1 3.82,1.09 C4.11,1.06 4.26,1.04 4.55,1 C4.59,0.95 4.61,0.93 4.65,0.89 C4.73,0.93 4.76,0.96 4.83,1.02 Z M4.39,1.73 C4.46,1.78 4.5,1.8 4.57,1.85 C4.56,1.87 4.52,1.9 4.47,1.91 C4.47,2.2 4.47,2.34 4.47,2.63 C4.47,2.64 4.39,2.69 4.34,2.7 C4.33,2.7 4.33,2.7 4.32,2.7 C4.32,2.64 4.32,2.62 4.32,2.56 C3.77,2.63 3.5,2.66 2.95,2.7 C2.94,2.67 2.94,2.66 2.93,2.63 C3.48,2.6 3.76,2.56 4.32,2.49 C4.32,2.38 4.32,2.33 4.32,2.22 C3.81,2.29 3.56,2.32 3.06,2.35 C3.05,2.32 3.05,2.31 3.04,2.28 C3.55,2.25 3.81,2.21 4.33,2.15 C4.33,2.05 4.33,1.99 4.33,1.89 C3.81,1.96 3.55,1.99 3.02,2.02 C3.01,1.99 3.01,1.98 3,1.95 C3.52,1.92 3.78,1.89 4.3,1.82 C4.34,1.79 4.36,1.77 4.39,1.73 Z M3.02,1.68 C3.22,1.67 3.32,1.66 3.52,1.64 C3.52,1.67 3.52,1.68 3.52,1.71 C3.32,1.73 3.22,1.74 3.02,1.75 C3.02,1.73 3.02,1.71 3.02,1.68 Z M3.52,1.38 C3.52,1.41 3.52,1.42 3.52,1.45 C3.35,1.47 3.26,1.47 3.09,1.49 C3.09,1.46 3.09,1.45 3.09,1.42 C3.26,1.41 3.35,1.4 3.52,1.38 Z M4.38,1.29 C4.38,1.32 4.38,1.33 4.38,1.36 C4.21,1.38 4.12,1.39 3.95,1.41 C3.95,1.38 3.95,1.37 3.95,1.34 C4.12,1.32 4.2,1.31 4.38,1.29 Z M3.95,1.6 C4.14,1.58 4.24,1.57 4.43,1.54 C4.43,1.57 4.43,1.58 4.43,1.61 C4.24,1.64 4.14,1.65 3.95,1.67 C3.95,1.64 3.95,1.63 3.95,1.6 Z"></path>
                <path d="M6.03,1.31 C6.01,1.33 5.98,1.35 5.94,1.33 C5.88,1.4 5.8,1.47 5.73,1.53 C6.1,1.64 6.02,1.9 5.88,1.83 C5.83,1.73 5.69,1.62 5.57,1.54 C5.57,1.92 5.57,2.11 5.57,2.49 C5.57,2.5 5.52,2.56 5.45,2.56 C5.44,2.56 5.43,2.56 5.42,2.56 C5.42,2.17 5.42,1.98 5.42,1.59 C5.3,1.73 5.16,1.86 5.02,1.96 C5.01,1.95 5,1.95 4.99,1.94 C5.28,1.67 5.57,1.24 5.7,0.9 C5.43,0.93 5.3,0.95 5.03,0.99 C5.02,0.96 5.02,0.95 5.01,0.92 C5.28,0.88 5.42,0.86 5.7,0.83 C5.74,0.79 5.76,0.76 5.8,0.72 C5.87,0.78 5.9,0.81 5.97,0.87 C5.95,0.89 5.92,0.9 5.87,0.91 C5.8,1.07 5.69,1.24 5.56,1.41 C5.56,1.44 5.56,1.45 5.56,1.48 C5.6,1.48 5.63,1.49 5.66,1.5 C5.73,1.42 5.81,1.3 5.87,1.18 C5.93,1.25 5.97,1.27 6.03,1.31 Z M5.29,0.45 C5.77,0.53 5.65,0.88 5.49,0.79 C5.46,0.68 5.35,0.54 5.27,0.47 C5.28,0.46 5.28,0.45 5.29,0.45 Z M7.17,0.59 C7.16,0.61 7.13,0.62 7.07,0.63 C7.05,1.58 7.01,2.14 6.9,2.29 C6.84,2.38 6.74,2.42 6.63,2.43 C6.63,2.38 6.62,2.33 6.59,2.31 C6.56,2.28 6.46,2.27 6.37,2.26 C6.37,2.24 6.37,2.23 6.37,2.22 C6.47,2.22 6.63,2.22 6.68,2.22 C6.73,2.22 6.75,2.21 6.77,2.18 C6.86,2.08 6.9,1.5 6.91,0.62 C6.74,0.63 6.66,0.64 6.49,0.65 C6.44,1.56 6.33,2.15 5.71,2.53 C5.7,2.52 5.69,2.51 5.68,2.5 C6.2,2.12 6.29,1.48 6.33,0.66 C6.16,0.68 6.08,0.69 5.91,0.71 C5.9,0.68 5.9,0.67 5.89,0.64 C6.29,0.59 6.49,0.57 6.9,0.55 C6.94,0.51 6.96,0.49 6.99,0.44 C7.06,0.5 7.1,0.53 7.17,0.59 Z"></path>
                <path d="M7.6,0.68 C7.6,0.79 7.55,0.87 7.49,0.9 C7.44,0.93 7.37,0.93 7.35,0.88 C7.33,0.84 7.37,0.79 7.41,0.76 C7.48,0.73 7.54,0.63 7.53,0.53 C7.55,0.53 7.55,0.53 7.57,0.53 C7.58,0.56 7.59,0.58 7.59,0.61 C7.88,0.61 8.03,0.62 8.32,0.64 C8.32,0.58 8.32,0.55 8.32,0.5 C8.04,0.47 7.89,0.47 7.61,0.47 C7.6,0.44 7.6,0.43 7.59,0.4 C8.13,0.4 8.39,0.42 8.93,0.51 C8.97,0.47 8.99,0.45 9.04,0.4 C9.04,0.4 9.16,0.51 9.24,0.6 C9.23,0.62 9.21,0.63 9.18,0.62 C8.9,0.56 8.76,0.54 8.47,0.51 C8.47,0.57 8.47,0.6 8.47,0.65 C8.77,0.68 8.92,0.71 9.21,0.77 C9.25,0.74 9.26,0.73 9.3,0.7 C9.37,0.78 9.4,0.82 9.47,0.91 C9.45,0.92 9.43,0.92 9.38,0.91 C9.33,0.96 9.25,1.03 9.18,1.06 C9.17,1.05 9.16,1.05 9.15,1.04 C9.17,0.99 9.2,0.92 9.22,0.85 C8.92,0.78 8.77,0.76 8.47,0.73 C8.47,0.87 8.47,0.93 8.47,1.07 C8.47,1.08 8.42,1.11 8.35,1.1 C8.34,1.1 8.34,1.1 8.33,1.1 C8.33,0.95 8.33,0.87 8.33,0.72 C8.03,0.68 7.89,0.68 7.6,0.68 Z M9.06,1.5 C8.93,1.59 8.76,1.66 8.57,1.71 C8.84,1.8 9.15,1.87 9.48,1.97 C9.48,1.98 9.48,1.99 9.48,2 C9.42,2 9.38,2.03 9.36,2.1 C8.99,1.98 8.65,1.89 8.37,1.77 C8.06,1.84 7.7,1.88 7.35,1.92 C7.34,1.9 7.34,1.9 7.34,1.88 C7.66,1.83 7.97,1.77 8.23,1.7 C8.05,1.61 7.9,1.5 7.79,1.37 C7.63,1.37 7.55,1.37 7.39,1.37 C7.38,1.34 7.38,1.33 7.37,1.3 C8.05,1.29 8.39,1.3 9.07,1.44 C9.12,1.39 9.14,1.37 9.18,1.32 C9.18,1.32 9.31,1.45 9.39,1.54 C9.38,1.56 9.36,1.57 9.33,1.56 C9.24,1.53 9.18,1.52 9.06,1.5 Z M7.92,1.87 C8.01,1.88 8.05,1.89 8.14,1.91 C8.14,1.94 8.12,1.96 8.06,1.96 C8.06,1.99 8.06,2 8.06,2.03 C8.05,2.18 7.95,2.33 7.42,2.41 C7.41,2.4 7.41,2.39 7.4,2.38 C7.82,2.29 7.91,2.16 7.91,2.02 C7.92,1.96 7.92,1.93 7.92,1.87 Z M7.63,0.97 C7.85,0.97 7.96,0.98 8.18,0.99 C8.18,1.02 8.18,1.03 8.18,1.06 C7.96,1.04 7.85,1.04 7.63,1.04 C7.63,1.01 7.63,1 7.63,0.97 Z M8.19,0.88 C8.01,0.87 7.91,0.86 7.73,0.86 C7.73,0.83 7.73,0.82 7.73,0.79 C7.92,0.79 8.01,0.8 8.19,0.81 C8.19,0.84 8.19,0.85 8.19,0.88 Z M7.86,1.36 C7.99,1.48 8.18,1.57 8.39,1.64 C8.56,1.59 8.71,1.52 8.82,1.45 C8.44,1.39 8.25,1.38 7.86,1.36 Z M8.23,1.08 C8.62,1.12 8.52,1.4 8.38,1.3 C8.36,1.23 8.28,1.15 8.22,1.1 C8.22,1.09 8.22,1.08 8.23,1.08 Z M8.58,1.03 C8.79,1.06 8.9,1.07 9.11,1.12 C9.11,1.15 9.11,1.16 9.11,1.19 C8.9,1.15 8.79,1.13 8.58,1.1 C8.58,1.07 8.58,1.06 8.58,1.03 Z M9.02,0.93 C9.02,0.96 9.02,0.97 9.02,1 C8.84,0.97 8.75,0.95 8.58,0.93 C8.58,0.9 8.58,0.89 8.58,0.86 C8.76,0.88 8.85,0.89 9.02,0.93 Z M8.74,1.95 C8.83,1.97 8.88,1.99 8.97,2.01 C8.97,2.04 8.94,2.06 8.88,2.06 C8.88,2.22 8.88,2.3 8.88,2.46 C8.88,2.48 8.82,2.49 8.77,2.49 C8.76,2.49 8.75,2.49 8.74,2.49 C8.74,2.27 8.74,2.16 8.74,1.95 Z"></path>
            </g>
        </g>
    </g>
</svg>