<?xml version="1.0" encoding="utf-8"?>
<!-- Generator: Adobe Illustrator 22.0.0, SVG Export Plug-In . SVG Version: 6.00 Build 0)  -->
<svg version="1.1" id="图层_1" xmlns="http://www.w3.org/2000/svg" xmlns:xlink="http://www.w3.org/1999/xlink" x="0px" y="0px"
	 viewBox="0 0 750 1125" style="enable-background:new 0 0 750 1125;" xml:space="preserve">
<style type="text/css">
	.st0{fill:#E91884;}
	.st1{fill:#40215A;}
	.st2{fill:#FF95E7;}
	.st3{fill:#40175A;}
	.st4{fill:#FFFFFF;}
	.st5{fill:#FFCD20;}
	.st6{fill:#C9C5C4;}
	.st7{fill:#A4AAA6;}
	.st8{fill:#FCDA43;}
	.st9{fill:#402159;}
	.st10{fill-rule:evenodd;clip-rule:evenodd;fill:#FFFFFF;}
	.st11{fill:#FBD4C1;}
	.st12{fill-rule:evenodd;clip-rule:evenodd;fill:#402159;}
	.st13{fill:#FE3561;}
	.st14{clip-path:url(#SVGID_2_);}
	.st15{fill:#F1C984;}
	.st16{fill:none;}
	.st17{fill:#19D7E7;}
	.st18{clip-path:url(#SVGID_4_);}
	.st19{fill:#FFD236;}
	.st20{clip-path:url(#SVGID_6_);}
	.st21{clip-path:url(#SVGID_8_);}
	.st22{fill:#0082FF;}
	.st23{fill:#FF771D;}
	.st24{clip-path:url(#SVGID_10_);}
	.st25{fill:#3E185B;}
	.st26{fill:#40175B;}
	.st27{fill:#446493;}
	.st28{clip-path:url(#SVGID_12_);}
	.st29{clip-path:url(#SVGID_14_);}
	.st30{clip-path:url(#SVGID_16_);}
	.st31{clip-path:url(#SVGID_18_);}
	.st32{clip-path:url(#SVGID_20_);}
	.st33{clip-path:url(#SVGID_22_);}
	.st34{clip-path:url(#SVGID_24_);}
	.st35{clip-path:url(#SVGID_26_);}
	.st36{fill:#14E3C5;}
	.st37{fill:#FF7193;}
	.st38{clip-path:url(#SVGID_28_);}
	.st39{fill:#FF781E;}
	.st40{clip-path:url(#SVGID_30_);}
	.st41{clip-path:url(#SVGID_32_);}
	.st42{fill:#FFFF47;}
	.st43{fill-rule:evenodd;clip-rule:evenodd;fill:#A19F9E;}
	.st44{fill:#A19F9E;}
	.st45{fill-rule:evenodd;clip-rule:evenodd;fill:#FFFF47;}
	.st46{clip-path:url(#SVGID_34_);}
	.st47{clip-path:url(#SVGID_36_);}
	.st48{clip-path:url(#SVGID_38_);}
	.st49{clip-path:url(#SVGID_40_);}
	.st50{fill:#0081FF;}
	.st51{clip-path:url(#SVGID_42_);}
	.st52{clip-path:url(#SVGID_44_);}
	.st53{clip-path:url(#SVGID_46_);}
	.st54{clip-path:url(#SVGID_48_);}
	.st55{clip-path:url(#SVGID_50_);}
	.st56{clip-path:url(#SVGID_52_);}
	.st57{clip-path:url(#SVGID_54_);}
	.st58{clip-path:url(#SVGID_56_);}
	.st59{clip-path:url(#SVGID_58_);}
	.st60{clip-path:url(#SVGID_60_);}
	.st61{clip-path:url(#SVGID_62_);}
	.st62{clip-path:url(#SVGID_64_);}
	.st63{clip-path:url(#SVGID_66_);}
	.st64{fill-rule:evenodd;clip-rule:evenodd;fill:#FFD236;}
	.st65{clip-path:url(#SVGID_68_);}
	.st66{clip-path:url(#SVGID_70_);}
	.st67{clip-path:url(#SVGID_72_);}
	.st68{clip-path:url(#SVGID_74_);}
	.st69{fill:#FF6D33;}
	.st70{clip-path:url(#SVGID_76_);}
	.st71{clip-path:url(#SVGID_78_);}
	.st72{clip-path:url(#SVGID_80_);}
	.st73{clip-path:url(#SVGID_82_);}
	.st74{clip-path:url(#SVGID_84_);}
	.st75{clip-path:url(#SVGID_86_);}
	.st76{clip-path:url(#SVGID_88_);}
	.st77{clip-path:url(#SVGID_90_);}
	.st78{clip-path:url(#SVGID_92_);}
	.st79{clip-path:url(#SVGID_94_);}
	.st80{clip-path:url(#SVGID_96_);}
	.st81{clip-path:url(#SVGID_98_);}
	.st82{clip-path:url(#SVGID_100_);}
	.st83{clip-path:url(#SVGID_102_);}
	.st84{clip-path:url(#SVGID_104_);}
	.st85{clip-path:url(#SVGID_106_);}
	.st86{clip-path:url(#SVGID_108_);}
	.st87{fill:#E91884;stroke:#40175A;stroke-width:5;stroke-linecap:round;stroke-linejoin:round;stroke-miterlimit:10;}
	.st88{fill:#BAFF00;}
	.st89{clip-path:url(#SVGID_110_);}
	.st90{clip-path:url(#SVGID_112_);}
	.st91{fill:#FF8500;}
	.st92{fill:#1CBDFF;}
	.st93{clip-path:url(#SVGID_116_);}
	.st94{clip-path:url(#SVGID_118_);}
</style>
<g>
	<g>
		<g>
			<rect x="328" y="507.4" class="st22" width="14.3" height="45.2"/>
		</g>
		<g>
			<path class="st9" d="M328,552.6l0-45.2l14.3,0v45.2L328,552.6 M321.5,556.7c0.3,0.5,0.7,0.9,1.1,1.4c1.4,1.4,3.4,2.3,5.4,2.3
				l14.3,0c4.2,0,7.7-3.4,7.7-7.7v-45.2c0-1.5-0.4-2.9-1.2-4.1c-0.3-0.5-0.7-0.9-1.1-1.4c-1.4-1.4-3.4-2.3-5.4-2.3l-14.3,0
				c-4.2,0-7.7,3.4-7.7,7.7l0,45.2C320.3,554.1,320.8,555.5,321.5,556.7L321.5,556.7z"/>
		</g>
	</g>
	<g>
		<g>
			<rect x="342.3" y="437.2" class="st4" width="65.4" height="277"/>
		</g>
		<g>
			<path class="st9" d="M342.3,714.2l0-277l65.4,0l0,277L342.3,714.2 M335.8,718.3c1.4,2.2,3.8,3.6,6.5,3.6l65.4,0
				c2,0,4-0.8,5.4-2.3c1.4-1.4,2.3-3.4,2.3-5.4l0-277c0-1.5-0.4-2.9-1.2-4.1c-1.4-2.2-3.8-3.6-6.5-3.6l-65.4,0c-2,0-4,0.8-5.4,2.3
				c-1.4,1.4-2.3,3.4-2.3,5.4l0,277C334.6,715.7,335,717.1,335.8,718.3L335.8,718.3z"/>
		</g>
	</g>
	<g>
		<g>
			<path class="st22" d="M389.7,744h-29.3c-10,0-18-8.1-18-18v-11.8h65.4V726C407.7,736,399.6,744,389.7,744z"/>
		</g>
		<g>
			<path class="st9" d="M345,735.6c-1.7-2.8-2.7-6-2.7-9.6l0-11.8l65.4,0l0,11.8c0,10-8.1,18-18,18h-29.3
				C353.9,744,348.2,740.6,345,735.6 M338.5,739.6L338.5,739.6c4.7,7.6,12.9,12.1,21.8,12.1l29.3,0c14.2,0,25.7-11.5,25.7-25.7
				l0-11.8c0-1.5-0.4-2.9-1.2-4.1c-0.3-0.5-0.7-0.9-1.1-1.4c-1.4-1.4-3.4-2.3-5.4-2.3l-65.4,0c-2,0-4,0.8-5.4,2.3
				c-1.4,1.4-2.3,3.4-2.3,5.4l0,11.8C334.6,730.8,336,735.5,338.5,739.6L338.5,739.6z"/>
		</g>
	</g>
	<g>
		<g>
			<path class="st22" d="M387.8,468h-25.6c-26.1,0-47.3-21.2-47.3-47.3v-25.8h120.2l0,25.8C435.1,446.8,413.9,468,387.8,468z"/>
		</g>
		<g>
			<path class="st9" d="M322.1,445.8c-4.5-7.3-7.2-15.9-7.2-25.1l0-25.8l120.2,0l0,25.8c0,26.1-21.2,47.3-47.3,47.3l-25.6,0
				C345.3,468,330.4,459.1,322.1,445.8 M315.5,449.9L315.5,449.9c10.1,16.2,27.6,25.8,46.6,25.8l25.6,0c14.7,0,28.5-5.7,38.9-16.1
				c10.4-10.4,16.1-24.2,16.1-38.9l0-25.8c0-1.5-0.4-2.9-1.2-4.1c-0.3-0.5-0.7-0.9-1.1-1.4c-1.4-1.4-3.4-2.3-5.4-2.3l-120.2,0
				c-4.2,0-7.7,3.4-7.7,7.7l0,25.8C307.2,431.1,310.1,441.1,315.5,449.9L315.5,449.9z"/>
		</g>
	</g>
	<g>
		<g>
			<ellipse class="st9" cx="375" cy="394.9" rx="60.1" ry="13.9"/>
		</g>
		<g>
			<path class="st9" d="M315.5,396.9c-0.4-0.7-0.6-1.3-0.6-2c0-7.7,26.9-13.9,60.1-13.9c30.2,0,55.3,5.2,59.5,11.9
				c0.4,0.7,0.6,1.3,0.6,2c0,7.7-26.9,13.9-60.1,13.9C344.8,408.9,319.7,403.7,315.5,396.9 M309,401C309,401,309,401,309,401
				c9.3,14.8,56.6,15.5,66,15.5c16.6,0,32.3-1.5,44.2-4.3c10.1-2.3,23.6-6.7,23.6-17.4c0-2.1-0.6-4.2-1.8-6.1
				c-9.3-14.8-56.6-15.5-66-15.5c-16.6,0-32.3,1.5-44.2,4.3c-10.1,2.3-23.6,6.7-23.6,17.4C307.2,397,307.8,399.1,309,401L309,401z"
				/>
		</g>
	</g>
	<g>
		<defs>
			<ellipse id="SVGID_25_" cx="375" cy="394.9" rx="60.1" ry="13.9"/>
		</defs>
		<clipPath id="SVGID_2_">
			<use xlink:href="#SVGID_25_"  style="overflow:visible;"/>
		</clipPath>
		<g class="st14">
			<path class="st4" d="M375,397.4c-9,0-16.3,5.7-16.3,12.8h32.7C391.3,403.1,384,397.4,375,397.4z"/>
		</g>
	</g>
</g>
</svg>
