<svg id="图层_1" data-name="图层 1" xmlns="http://www.w3.org/2000/svg" viewBox="0 0 692.27 1033.55"><title>10</title><rect x="239.83" y="363.26" width="160.93" height="305.22" rx="11.72" ry="11.72" transform="translate(242.11 -86.29) rotate(24.44)" fill="#204780"/><rect x="295.18" y="375.39" width="65.02" height="65.02" rx="8.73" ry="8.73" transform="translate(198.1 -99.02) rotate(24.44)" fill="#de5b6a"/><circle cx="319.94" cy="390.9" r="10.36" fill="#204780"/><circle cx="343.48" cy="401.6" r="10.36" fill="#204780"/><circle cx="332.73" cy="425.27" r="10.36" fill="#204780"/><circle cx="309.18" cy="414.57" r="10.36" fill="#204780"/><path d="M337.16,518.17a27.44,27.44,0,0,1-13.62-36.33,28.16,28.16,0,0,1,1.63-3,27.42,27.42,0,1,0,24.25,41.77A27.4,27.4,0,0,1,337.16,518.17Z" fill="#de5b6a"/></svg>