<svg xmlns="http://www.w3.org/2000/svg" xmlns:xlink="http://www.w3.org/1999/xlink" viewBox="0 0 437.05 330.79"><defs><style>.cls-1{fill:#d6d3d1;}.cls-2,.cls-4{fill:#727171;}.cls-12,.cls-14,.cls-15,.cls-2,.cls-26,.cls-5,.cls-6,.cls-7{stroke:#231815;stroke-width:5px;}.cls-12,.cls-14,.cls-15,.cls-2{stroke-linecap:round;stroke-linejoin:round;}.cls-12,.cls-3,.cls-6{fill:#898989;}.cls-22,.cls-5{fill:#a9acaa;}.cls-26,.cls-5,.cls-6,.cls-7{stroke-miterlimit:10;}.cls-14,.cls-28,.cls-7{fill:#9fa0a0;}.cls-8{fill:#231815;}.cls-9{clip-path:url(#clip-path);}.cls-10{fill:#b7b6b6;}.cls-11{fill:#fff;opacity:0.3;}.cls-13{clip-path:url(#clip-path-2);}.cls-15,.cls-26{fill:none;}.cls-16{clip-path:url(#clip-path-3);}.cls-17{clip-path:url(#clip-path-4);}.cls-18{fill:#5f5f5f;}.cls-19{clip-path:url(#clip-path-5);}.cls-20{fill:#585959;}.cls-21{fill:#6d6c6c;}.cls-23{clip-path:url(#clip-path-6);}.cls-24{fill:#727271;}.cls-25{clip-path:url(#clip-path-7);}.cls-27{fill:#d6d3d5;}.cls-29{clip-path:url(#clip-path-8);}.cls-30{fill:#6d6d6c;}.cls-31{clip-path:url(#clip-path-9);}</style><clipPath id="clip-path"><polygon class="cls-1" points="342.4 177.71 22.98 294.11 68.37 136.12 371.2 28.05 342.4 177.71"/></clipPath><clipPath id="clip-path-2"><path class="cls-2" d="M156.05,141.44l-13.84-4.57a1.52,1.52,0,0,1-.87-1.8l1.51-6.71a1.21,1.21,0,0,1,1.5-1l13.84,4.57a1.53,1.53,0,0,1,.87,1.8l-1.51,6.71A1.21,1.21,0,0,1,156.05,141.44Z"/></clipPath><clipPath id="clip-path-3"><path class="cls-2" d="M310.23,83.49l-13.85-4.57a1.51,1.51,0,0,1-.86-1.79L297,70.41a1.2,1.2,0,0,1,1.5-1L312.37,74a1.52,1.52,0,0,1,.86,1.8l-1.51,6.71A1.2,1.2,0,0,1,310.23,83.49Z"/></clipPath><clipPath id="clip-path-4"><polygon class="cls-3" points="23.59 300.93 27.1 308.64 347.76 193.84 342.34 185.18 23.59 300.93"/></clipPath><clipPath id="clip-path-5"><polygon class="cls-4" points="371.5 30.5 345.65 181.17 350.41 190 375.12 44.13 371.5 30.5"/></clipPath><clipPath id="clip-path-6"><ellipse class="cls-5" cx="107.33" cy="192.53" rx="70.54" ry="49.34" transform="translate(-49.03 37.16) rotate(-16.04)"/></clipPath><clipPath id="clip-path-7"><path class="cls-6" d="M118.78,232.49c-35.65,10.24-70.39-.62-80.11-24.29a33.43,33.43,0,0,0,.86,3.79c7.5,26.2,44,38.72,81.39,28s61.72-40.7,54.22-66.89a35.54,35.54,0,0,0-1.28-3.68C178.14,194.62,154.44,222.26,118.78,232.49Z"/></clipPath><clipPath id="clip-path-8"><ellipse class="cls-7" cx="262.03" cy="136.8" rx="70.54" ry="49.34" transform="translate(-27.6 77.74) rotate(-16.04)"/></clipPath><clipPath id="clip-path-9"><path class="cls-6" d="M273.48,176.77c-35.65,10.23-70.39-.63-80.11-24.29a33.93,33.93,0,0,0,.86,3.79c7.5,26.19,44,38.71,81.39,28s61.72-40.7,54.22-66.89a35.36,35.36,0,0,0-1.28-3.67C332.84,138.9,309.13,166.53,273.48,176.77Z"/></clipPath></defs><title>资源 3</title><g id="图层_2" data-name="图层 2"><g id="图层_1-2" data-name="图层 1"><path class="cls-3" d="M27.76,308.64a2.5,2.5,0,0,1-2.26-1.44l-4.84-10.38a2.5,2.5,0,0,1,1.42-3.41L341.49,178.85a2.54,2.54,0,0,1,.85-.15,2.49,2.49,0,0,1,2.13,1.2l6.09,10a2.5,2.5,0,0,1-1.29,3.65L28.61,308.49A2.5,2.5,0,0,1,27.76,308.64Z"/><path class="cls-8" d="M342.34,181.2l6.09,10L27.76,306.14l-4.83-10.38L342.34,181.2m0-5a4.94,4.94,0,0,0-1.69.3L21.24,291.05a5,5,0,0,0-2.85,6.82l4.84,10.38a5,5,0,0,0,4.54,2.89,4.91,4.91,0,0,0,1.68-.29L350.11,195.91a5,5,0,0,0,2.59-7.31l-6.09-10a5,5,0,0,0-4.27-2.4Z"/><path class="cls-1" d="M23.94,297.09a2.49,2.49,0,0,1-2.4-3.19l45.38-158a2.48,2.48,0,0,1,1.56-1.67L371.31,26.18a2.48,2.48,0,0,1,.84-.15,2.5,2.5,0,0,1,2.46,3L345.8,178.66a2.48,2.48,0,0,1-1.59,1.87L24.79,296.94A2.45,2.45,0,0,1,23.94,297.09Z"/><path class="cls-8" d="M372.15,28.53l-28.8,149.65L23.94,294.59l45.38-158L372.15,28.53m0-5a5.16,5.16,0,0,0-1.68.29L67.64,131.89a5,5,0,0,0-3.12,3.33l-45.39,158a5,5,0,0,0,4.81,6.38,5.09,5.09,0,0,0,1.71-.3L345.06,182.88a5,5,0,0,0,3.2-3.75l28.8-149.65a5,5,0,0,0-4.91-5.95Zm0,10h0Z"/><polygon class="cls-1" points="342.4 177.71 22.98 294.11 68.37 136.12 371.2 28.05 342.4 177.71"/><g class="cls-9"><polygon class="cls-10" points="372.16 5.69 324.72 176.26 157.59 245.31 385.42 208.71 372.16 5.69"/><polygon class="cls-11" points="19.21 267.7 76.92 147.59 190.15 82.89 51.26 122.67 19.21 267.7"/></g><path class="cls-4" d="M350.41,192.5a2.49,2.49,0,0,1-2.2-1.31l-4.76-8.83a2.5,2.5,0,0,1-.27-1.61L369,30.08A2.5,2.5,0,0,1,371.39,28h.12a2.5,2.5,0,0,1,2.41,1.86l3.61,13.63a2.37,2.37,0,0,1,.05,1.06l-24.7,145.87a2.51,2.51,0,0,1-2.06,2.05A2.83,2.83,0,0,1,350.41,192.5Z"/><path class="cls-8" d="M371.5,30.5l3.62,13.63L350.41,190l-4.76-8.83L371.5,30.5m0-5h-.23a5,5,0,0,0-4.7,4.15L340.72,180.33a5,5,0,0,0,.53,3.22l4.76,8.83a5,5,0,0,0,4.4,2.62,5.76,5.76,0,0,0,.82-.06,5,5,0,0,0,4.11-4.1L380.05,45a5.05,5.05,0,0,0-.1-2.12l-3.61-13.63a5,5,0,0,0-4.83-3.72Z"/><path class="cls-12" d="M189.9,167c-4.4-17.06-17.47-29.06-34.52-34.16-1.47-.44-2.92.79-3.07,2.59l0,.48a3.07,3.07,0,0,0,1.83,3.19c14.47,4.9,26.09,15.45,29.9,30.21,5.13,19.9-5.37,40.46-22.71,56.7a4,4,0,0,0-.4,5.11h0a2.49,2.49,0,0,0,3.54.61C185,214.65,195.7,189.48,189.9,167Z"/><path class="cls-4" d="M156.05,141.44l-13.84-4.57a1.52,1.52,0,0,1-.87-1.8l1.51-6.71a1.21,1.21,0,0,1,1.5-1l13.84,4.57a1.53,1.53,0,0,1,.87,1.8l-1.51,6.71A1.21,1.21,0,0,1,156.05,141.44Z"/><g class="cls-13"><polygon class="cls-14" points="165.34 147.75 147.38 141.83 150.89 126.25 168.84 132.18 165.34 147.75"/></g><path class="cls-15" d="M156.05,141.44l-13.84-4.57a1.52,1.52,0,0,1-.87-1.8l1.51-6.71a1.21,1.21,0,0,1,1.5-1l13.84,4.57a1.53,1.53,0,0,1,.87,1.8l-1.51,6.71A1.21,1.21,0,0,1,156.05,141.44Z"/><path class="cls-12" d="M344.08,109C339.68,92,326.6,80,309.56,74.88c-1.48-.44-2.92.79-3.07,2.59l0,.48a3,3,0,0,0,1.83,3.19c14.46,4.9,26.09,15.45,29.89,30.22,5.14,19.89-5.37,40.45-22.71,56.69a4,4,0,0,0-.39,5.11h0a2.48,2.48,0,0,0,3.54.61C339.21,156.7,349.88,131.53,344.08,109Z"/><path class="cls-4" d="M310.23,83.49l-13.85-4.57a1.51,1.51,0,0,1-.86-1.79L297,70.41a1.2,1.2,0,0,1,1.5-1L312.37,74a1.52,1.52,0,0,1,.86,1.8l-1.51,6.71A1.2,1.2,0,0,1,310.23,83.49Z"/><g class="cls-16"><polygon class="cls-14" points="319.52 89.8 301.56 83.88 305.06 68.3 323.02 74.23 319.52 89.8"/></g><path class="cls-15" d="M310.23,83.49l-13.85-4.57a1.51,1.51,0,0,1-.86-1.79L297,70.41a1.2,1.2,0,0,1,1.5-1L312.37,74a1.52,1.52,0,0,1,.86,1.8l-1.51,6.71A1.2,1.2,0,0,1,310.23,83.49Z"/><polygon class="cls-3" points="23.59 300.93 27.1 308.64 347.76 193.84 342.34 185.18 23.59 300.93"/><g class="cls-17"><path class="cls-18" d="M267.6,175.53s12.48,50.76-37,93.24l142.14-47.25L334.18,158Z"/><polygon class="cls-11" points="66.24 258.63 32.55 326.42 0 330.79 10.6 277.62 66.24 258.63"/></g><polygon class="cls-4" points="371.5 30.5 345.65 181.17 350.41 190 375.12 44.13 371.5 30.5"/><g class="cls-19"><path class="cls-20" d="M332.56,69.25s39-3.75,38.83,49.38,65.66-61.31,65.66-61.31L361,0Z"/></g><path class="cls-21" d="M45.71,224.49s11.92,29.83,50.34,27.18,59.39-17.9,72.09-43.76Z"/><ellipse class="cls-22" cx="107.33" cy="192.53" rx="70.54" ry="49.34" transform="translate(-49.03 37.16) rotate(-16.04)"/><g class="cls-23"><path class="cls-24" d="M158.71,145s42.17,70.43-79.95,95.59l138.91-31.23Z"/><path class="cls-3" d="M118.78,232.49c-35.65,10.24-70.39-.62-80.11-24.29a33.43,33.43,0,0,0,.86,3.79c7.5,26.2,44,38.72,81.39,28s61.72-40.7,54.22-66.89a35.54,35.54,0,0,0-1.28-3.68C178.14,194.62,154.44,222.26,118.78,232.49Z"/><g class="cls-25"><path class="cls-20" d="M152.52,196.64s7.76,20.48-11,42.07l50.17-25.83-4.47-40.77-16.43-3.86Z"/><path class="cls-11" d="M59.23,199.05S57,229.89,62.94,239.41s-28.49-2.2-28.49-2.2v-37Z"/></g><path class="cls-26" d="M118.78,232.49c-35.65,10.24-70.39-.62-80.11-24.29a33.43,33.43,0,0,0,.86,3.79c7.5,26.2,44,38.72,81.39,28s61.72-40.7,54.22-66.89a35.54,35.54,0,0,0-1.28-3.68C178.14,194.62,154.44,222.26,118.78,232.49Z"/><path class="cls-11" d="M36.1,217.86s3.39-53.71,71.91-76.08l-36.8-.3-39,11Z"/></g><ellipse class="cls-26" cx="107.33" cy="192.53" rx="70.54" ry="49.34" transform="translate(-49.03 37.16) rotate(-16.04)"/><path class="cls-27" d="M99.08,195.73c-6.14,0-10.43-2.19-11.49-5.87-1.56-5.47,4.79-11.76,14.79-14.62a32.25,32.25,0,0,1,8.79-1.31c6.14,0,10.44,2.19,11.49,5.87,1.57,5.46-4.79,11.75-14.78,14.62A32.37,32.37,0,0,1,99.08,195.73Z"/><path class="cls-8" d="M111.17,176.43c4.75,0,8.34,1.44,9.09,4.06,1.13,4-4.72,9.13-13.07,11.53a29.82,29.82,0,0,1-8.11,1.21c-4.75,0-8.34-1.45-9.08-4.06-1.14-4,4.71-9.13,13.07-11.53a29.75,29.75,0,0,1,8.1-1.21m0-5h0a34.89,34.89,0,0,0-9.48,1.4c-11.55,3.32-18.49,10.77-16.5,17.72,1.38,4.81,6.57,7.68,13.89,7.68a35,35,0,0,0,9.49-1.41c11.55-3.31,18.48-10.76,16.49-17.71-1.38-4.81-6.57-7.68-13.89-7.68Z"/><polygon class="cls-8" points="89.59 184.96 55.18 170 91.28 180.25 89.59 184.96"/><polygon class="cls-8" points="97.42 178.45 88.73 149.58 102.08 176.61 97.42 178.45"/><polygon class="cls-8" points="109.72 192.69 118.94 229.09 104.97 194.24 109.72 192.69"/><polygon class="cls-8" points="118.56 186.41 145.19 200.52 116.6 191.01 118.56 186.41"/><ellipse class="cls-8" cx="105.13" cy="184.83" rx="8.14" ry="3.87" transform="translate(-46.94 36.2) rotate(-16.02)"/><path class="cls-21" d="M202.71,172.3s13,29.36,51.34,25.24,58.67-20.14,70.38-46.47Z"/><ellipse class="cls-28" cx="262.03" cy="136.8" rx="70.54" ry="49.34" transform="translate(-27.6 77.74) rotate(-16.04)"/><g class="cls-29"><path class="cls-30" d="M308.21,91.32c4.65-.38,52.31,69.89-74.13,95.4L373,155.49Z"/><path class="cls-3" d="M273.48,176.77c-35.65,10.23-70.39-.63-80.11-24.29a33.93,33.93,0,0,0,.86,3.79c7.5,26.19,44,38.71,81.39,28s61.72-40.7,54.22-66.89a35.36,35.36,0,0,0-1.28-3.67C332.84,138.9,309.13,166.53,273.48,176.77Z"/><g class="cls-31"><path class="cls-20" d="M308.85,137.63s7.76,20.49-11,42.07l50.17-25.82-4.47-40.78-16.44-3.86Z"/><path class="cls-11" d="M215.56,140s-2.25,30.84,3.71,40.36-28.5-2.2-28.5-2.2l0-37Z"/></g><path class="cls-26" d="M273.48,176.77c-35.65,10.23-70.39-.63-80.11-24.29a33.93,33.93,0,0,0,.86,3.79c7.5,26.19,44,38.71,81.39,28s61.72-40.7,54.22-66.89a35.36,35.36,0,0,0-1.28-3.67C332.84,138.9,309.13,166.53,273.48,176.77Z"/><path class="cls-11" d="M197.55,160s-9.78-48.81,62.23-72.64l-36.69-7.65L185.24,94Z"/></g><ellipse class="cls-26" cx="262.03" cy="136.8" rx="70.54" ry="49.34" transform="translate(-27.6 77.74) rotate(-16.04)"/><path class="cls-27" d="M253.42,139.77c-6.26,0-10.65-2.26-11.74-6.06-1.6-5.6,4.73-12,14.72-14.85a31.6,31.6,0,0,1,8.62-1.28c6.26,0,10.64,2.27,11.73,6.07,1.6,5.59-4.72,12-14.72,14.85A32,32,0,0,1,253.42,139.77Z"/><path class="cls-8" d="M265,120.08c4.85,0,8.54,1.52,9.33,4.25,1.17,4.1-4.65,9.36-13,11.76a29,29,0,0,1-7.93,1.18c-4.85,0-8.54-1.52-9.32-4.25-1.18-4.09,4.64-9.36,13-11.76a29.1,29.1,0,0,1,7.93-1.18m0-5h0a34.26,34.26,0,0,0-9.31,1.38c-11.55,3.31-18.46,10.86-16.43,17.94,1.41,4.93,6.7,7.87,14.13,7.87a34.24,34.24,0,0,0,9.31-1.37c11.55-3.32,18.46-10.86,16.43-17.94-1.41-4.93-6.69-7.88-14.13-7.88Z"/><polygon class="cls-8" points="245.19 127.99 210.78 113.03 246.88 123.28 245.19 127.99"/><polygon class="cls-8" points="252.12 122.72 243.43 93.85 256.78 120.89 252.12 122.72"/><polygon class="cls-8" points="263.18 135.86 272.4 172.25 258.42 137.41 263.18 135.86"/><polygon class="cls-8" points="273.43 129.36 300.05 143.47 271.46 133.96 273.43 129.36"/><ellipse class="cls-8" cx="259.11" cy="128.31" rx="8.14" ry="3.87" transform="translate(-25.35 76.51) rotate(-16.02)"/></g></g></svg>