<svg id="图层_1" data-name="图层 1" xmlns="http://www.w3.org/2000/svg" xmlns:xlink="http://www.w3.org/1999/xlink" viewBox="0 0 200 200"><defs><style>.cls-1{fill:#ccb9be;}.cls-1,.cls-10,.cls-11,.cls-12,.cls-13,.cls-14,.cls-2,.cls-3,.cls-4,.cls-5,.cls-6,.cls-7,.cls-8,.cls-9{fill-rule:evenodd;}.cls-2{fill:#f0e7e8;}.cls-3{fill:#868082;}.cls-4{fill:#c1b8bb;}.cls-5{fill:#333;}.cls-6{fill:#fc0;}.cls-7{fill:url(#linear-gradient);}.cls-8{fill:url(#linear-gradient-2);}.cls-9{fill:#999;}.cls-10{fill:#666;}.cls-11{fill:#d6f700;}.cls-12{fill:#75df04;}.cls-13{fill:#d2d2d2;}.cls-14{fill:#ffe798;}</style><linearGradient id="linear-gradient" x1="89.98" y1="139.68" x2="109.32" y2="106.18" gradientUnits="userSpaceOnUse"><stop offset="0" stop-color="#f3ff00"/><stop offset="1" stop-color="#00c200"/></linearGradient><linearGradient id="linear-gradient-2" x1="61.49" y1="140.27" x2="61.53" y2="101.49" xlink:href="#linear-gradient"/></defs><title>工厂3</title><polygon class="cls-1" points="110.7 75.45 200 127.01 110.19 178.97 89.53 178.97 0.23 127.36 90.04 75.45 110.7 75.45"/><polygon class="cls-2" points="89.3 170.53 0 118.92 89.81 66.96 179.11 118.57 89.3 170.53"/><polygon class="cls-3" points="179.11 118.67 179.11 127.14 89.25 179 89.25 170.53 179.11 118.67"/><polygon class="cls-4" points="89.3 179 0.05 127.39 0.05 118.92 89.3 170.48 89.3 179"/><path class="cls-4" d="M90.78,160.94a1.87,1.87,0,0,1-1.73.82,14.86,14.86,0,0,1-3.11-.36v-2.75a3.17,3.17,0,0,1,3.21-1.38c1.49.07,2.24.65,2.24,1.74A2.73,2.73,0,0,1,90.78,160.94Z"/><path class="cls-4" d="M77,153.55a2,2,0,0,1,2.19,0,2.18,2.18,0,0,0,.51,1.17,1.61,1.61,0,0,1-.2.87c-.17.24-.55.36-1.12.36l-1.84-.21h-.1q-.15,0-.15-.81A1.67,1.67,0,0,1,77,153.55Z"/><path class="cls-4" d="M90,151.51l-.15.61c-.07.1,0,.22,0,.36s-.29.15-.86.15a3.1,3.1,0,0,1-2.35-.76l-.15-.61.15-.82,3.06-.1Z"/><path class="cls-4" d="M102.1,83.64l-1.07.15a23.2,23.2,0,0,1-4.13-.41c-.1.1-.15-.3-.15-1.22,0-1.26.93-1.94,2.8-2s2.81.56,2.81,2A2.64,2.64,0,0,1,102.1,83.64Z"/><path class="cls-4" d="M91.65,75.73l-.26,1.18a9.5,9.5,0,0,1-2.45.25l-.2-.25a2.35,2.35,0,0,1-.2-1.13q0-1,.81-1a13.71,13.71,0,0,1,2-.05Z"/><path class="cls-4" d="M83.18,81.6V81a4,4,0,0,1,2.86.36l-.1.66-1.33.31C83.79,82.11,83.32,81.87,83.18,81.6Z"/><path class="cls-4" d="M111.28,87l-1,1.12a2.3,2.3,0,0,1-1.48.56,2.91,2.91,0,0,1-1.07-.1l-.1-.15a6.08,6.08,0,0,1-.25-2.4,3.79,3.79,0,0,0,.86-.1,22,22,0,0,1,2.76-.15Z"/><path class="cls-5" d="M145.54,126.84v-4.41l3.7,2.21v.06Zm-3.71-6.63V129l-3.71,2.13V118Zm-11.12-6.65,3.7,2.21v17.45l-3.7,2.13Zm-22.26,34.57V100.26l3.71,2.22V146ZM101,152.4V95.82l3.7,2.22v52.23Zm22.24-12.78V109.13l3.72,2.21v26.14Zm-7.41,4.25V104.68l3.7,2.23v34.84ZM97.33,93.61v57l-3.71-2.21v-57Zm-7.41-4.43v57L86.21,144V87ZM82.5,84.74v57l-3.71-2.21v-57h0Zm-7.41-.08v52.69l-3.71-2.22V86.79Zm-7.43,4.26v44L64,130.7V91.06ZM45.41,119.61l-3.7-2.22V103.84l3.7-2.13ZM60.25,93.18v35.3l-3.71-2.22V95.31Zm-11.13,6.4,3.71-2.13v26.6l-3.71-2.23ZM34.29,113v-4.87L38,106v9.21Z"/><path class="cls-6" d="M141.83,129v-8.75l3.71,2.22v4.41Zm-7.42,4.26V115.77l3.71,2.22v13.1ZM101,152.4l-.39.22-3.32-2v-57L101,95.82Zm7.41-52.14v47.87l-3.71,2.14V98Zm22.26,13.3v21.79L127,137.48V111.34Zm-11.14,28.19V106.91l3.71,2.22v30.49Zm-37.07-57L86.21,87v57l-3.71-2.22ZM112.16,146V102.48l3.71,2.2v39.19Zm-22.24.2v-57l3.7,2.21v57Zm-11.13-6.64-3.7-2.22V84.66l3.7-2.13ZM71.38,86.79v48.34l-3.72-2.22v-44ZM60.25,93.18,64,91.06V130.7l-3.7-2.22ZM45.41,119.61v-17.9l3.71-2.13v22.24Zm11.13-24.3v31l-3.71-2.21V97.45ZM34.29,113l-3.71-2.21v-.52l3.71-2.14Zm7.42-9.12v13.55L38,115.18V106Z"/><path class="cls-7" d="M135.87,126.78,100.73,147l-22-13.17a7.51,7.51,0,0,0,0-6.29,4.78,4.78,0,0,1,0-4.72,3,3,0,0,0,0-4,1.32,1.32,0,0,1-.06-1.84c.57-.61.7-1.11.39-1.51a1.29,1.29,0,0,1-.33-1.24V92.63Z"/><path class="cls-8" d="M43.57,112.88,78.7,92.63v21.63A1.29,1.29,0,0,0,79,115.5c.31.4.18.9-.39,1.51a1.32,1.32,0,0,0,.06,1.84,3,3,0,0,1,0,4,4.78,4.78,0,0,0,0,4.72,7.51,7.51,0,0,1,0,6.29Z"/><polygon class="cls-9" points="78.7 88.3 139.6 124.75 135.87 126.78 78.7 92.63 78.7 88.3"/><polygon class="cls-10" points="78.7 92.63 43.57 112.88 39.83 110.65 78.7 88.3 78.7 92.63"/><path class="cls-11" d="M108.11,113a1.46,1.46,0,0,1-.59.2.62.62,0,0,1-.12-.19,1.2,1.2,0,0,1-.12-.55,3.16,3.16,0,0,1,.43,0,.86.86,0,0,1,.55.39A.5.5,0,0,1,108.11,113Zm.1.68a1.07,1.07,0,0,0,.21-.15l.22,0a2,2,0,0,1,.52.14l.16.49a1.29,1.29,0,0,1-.16.35.92.92,0,0,1-.41.29,3,3,0,0,1-.82-.4l-.08-.36A.87.87,0,0,1,108.21,113.65Zm.39,1.67.48-.2a1,1,0,0,1,.45.42,4.14,4.14,0,0,1,.2.48,1.07,1.07,0,0,1-.65.65,1.06,1.06,0,0,0-.28-.06.64.64,0,0,1-.2,0q-.18-.06-.18-.57A1,1,0,0,1,108.6,115.32Zm0,3.67a1.1,1.1,0,0,1-.32.43,1.28,1.28,0,0,1-.32.23,1,1,0,0,1,.47.56,1,1,0,0,1-.4.42,1,1,0,0,1-.57.24,2,2,0,0,1-.65-.41,3,3,0,0,1,.59-.71l.14-.11-.34-.12c-.16-.11-.24-.34-.24-.7a.9.9,0,0,1,.3-.76,1.56,1.56,0,0,1,.52-.21,1.18,1.18,0,0,1,.53.45A1.62,1.62,0,0,1,108.59,119Zm.16-1a2.32,2.32,0,0,1-.65-.38,1.72,1.72,0,0,1,.58-.57,2.1,2.1,0,0,1,.48-.16l.24.45a.78.78,0,0,1-.2.37A1.35,1.35,0,0,1,108.75,117.94Zm0,3.33c.16.17.37.36.63.6s.27.25.27.29a1.38,1.38,0,0,1,0,.5s0,.1,0,.24a.69.69,0,0,0-.32.14,5.44,5.44,0,0,1-.5.27,8.29,8.29,0,0,1-.61-.58.87.87,0,0,1-.29-.57,1.52,1.52,0,0,1,.08-.55A.69.69,0,0,1,108.75,121.27ZM86,98.24a1.09,1.09,0,0,1-.33.27.68.68,0,0,1-.18-.13.62.62,0,0,1-.18-.44h.25a1.18,1.18,0,0,1,.52.17A.7.7,0,0,1,86,98.24Zm-.45,1.62a.92.92,0,0,1-.17.13,1.74,1.74,0,0,1-.57.19.78.78,0,0,1-.12-.19,1.24,1.24,0,0,1-.13-.55,1.9,1.9,0,0,1,.44,0A.86.86,0,0,1,85.57,99.86Zm.2,1.78-.11.41-.57.08-.51-.24c0-.14.1-.26.3-.37a1,1,0,0,1,.69-.12Zm1.14,2.13a2.69,2.69,0,0,1-.22.29.74.74,0,0,1-.35.19l-.41-.17c0,.08-.05.13-.08.13s-.08-.15-.08-.49.1-.56.31-.65a1.17,1.17,0,0,1,.43,0,2.26,2.26,0,0,1,.26.37A1.46,1.46,0,0,1,86.91,103.77Zm.09,2.6a.82.82,0,0,1-.44-.42,1,1,0,0,1-.14-.48.72.72,0,0,1,.4-.27.83.83,0,0,1,.58,0l.17.49a1.26,1.26,0,0,1-.17.35A.88.88,0,0,1,87,106.37Zm-.35,1.79a1.11,1.11,0,0,1-.63.28,6.72,6.72,0,0,0-.69-.65c-.12-.1-.17-.16-.17-.21a1.86,1.86,0,0,1,0-.48.48.48,0,0,0,.15-.25l.51,0a3.29,3.29,0,0,1,1.16.27l.16.48A3.7,3.7,0,0,1,86.65,108.16Zm-.76,1.07a1.84,1.84,0,0,1,0,1.25,0,0,0,0,1-.05,0l0,0-.28.14a2.19,2.19,0,0,1-.54.19l-.75-.66q-.18-.16-.18-.24a1.12,1.12,0,0,1,.26-.77c.28-.33.75-.37,1.41-.13A.53.53,0,0,0,85.89,109.23Zm-.24,2.11a1.71,1.71,0,0,1,.61.77,1,1,0,0,1-.18.51,1.15,1.15,0,0,1-1,.47l-.75-.67c-.12-.1-.18-.18-.18-.23a1.13,1.13,0,0,1,.25-.75.89.89,0,0,1,.59-.3A1.06,1.06,0,0,1,85.65,111.34Zm-17.56-2-.16.53a.91.91,0,0,1-.41.16,1.06,1.06,0,0,1-.42-.14,1.08,1.08,0,0,1-.11-.63,2.21,2.21,0,0,1,0-.52s.06,0,.1-.09c.27,0,.41,0,.41-.08A.86.86,0,0,1,68,109,.85.85,0,0,1,68.09,109.38ZM67,108a.56.56,0,0,1-.11-.19,1.13,1.13,0,0,1-.13-.54,1.74,1.74,0,0,1,.42,0,.72.72,0,0,1,.51.39.35.35,0,0,1-.14.12A1.37,1.37,0,0,1,67,108Zm.94,3a1.31,1.31,0,0,1,.08.59,4.18,4.18,0,0,1,0,.67c0,.05,0,.07,0,.06a1.42,1.42,0,0,0-.28.13,2.67,2.67,0,0,1-.46.2c-.51-.52-.76-.86-.76-1a.77.77,0,0,1,.37-.77,1.64,1.64,0,0,1,1,0A.26.26,0,0,0,67.93,111Zm-.74,2.55a3.22,3.22,0,0,1,.59.49,2.54,2.54,0,0,1,.39.4,3.78,3.78,0,0,1-.46.57,2.23,2.23,0,0,1-.52.32c-.2-.2-.42-.42-.67-.65s-.19-.2-.19-.24.15-.08.43-.13A.72.72,0,0,0,67.19,113.5Zm2.17,2.89a1.34,1.34,0,0,1,.11.65c0,.34,0,.53-.07.58h-.08l-.29.13a2.54,2.54,0,0,1-.53.2l-.8-.67c-.12-.11-.18-.18-.18-.23a1.08,1.08,0,0,1,.25-.73c.3-.33.79-.37,1.46-.13A.6.6,0,0,0,69.36,116.39Zm-1,2.29c.12-.29.4-.41.81-.35a5,5,0,0,1,.89.9,4.45,4.45,0,0,1-.89.9l-.7-.64c-.13-.12-.2-.2-.2-.26A1.3,1.3,0,0,1,68.34,118.68Zm.89,3.11-.16.87a.69.69,0,0,0-.23.12,1.35,1.35,0,0,1-.67.12,1,1,0,0,1-1-.52,1.89,1.89,0,0,1-.08-.62.88.88,0,0,1,.4-.73A1.58,1.58,0,0,1,69,121a1.73,1.73,0,0,0,.12.47A2.91,2.91,0,0,1,69.23,121.79Z"/><path class="cls-12" d="M88.87,121.52a.8.8,0,0,1-.29.52,2.06,2.06,0,0,1-.6.3,8.91,8.91,0,0,1-.64-.69.65.65,0,0,1-.18-.34.78.78,0,0,1,.39-.77,1.6,1.6,0,0,1,1.07,0A4,4,0,0,0,88.87,121.52Zm14.95,11.6a1.3,1.3,0,0,1-.29.43,1.49,1.49,0,0,1-.6.38,1.64,1.64,0,0,1-.55-.14c-.13-.07-.19-.28-.19-.62s0-.51,0-.5,0,.05,0,.13a.67.67,0,0,1,.44-.17,2.06,2.06,0,0,1,.7,0Zm-.53,3a1.9,1.9,0,0,1-.28-.55,1.26,1.26,0,0,1,.6-.34,2.47,2.47,0,0,1,1.07-.11,1,1,0,0,0,.09.35,1.93,1.93,0,0,1,.15.38,3.32,3.32,0,0,1-.49.46,5.78,5.78,0,0,1-.52.4A2.72,2.72,0,0,1,103.29,136.08Zm1.71,1.8a1.31,1.31,0,0,0,.25.74l-.17.73a1.1,1.1,0,0,0-.34.14,2.79,2.79,0,0,1-.5.19l-.82-.67c-.11-.11-.16-.18-.16-.23a1.09,1.09,0,0,1,.24-.75Q103.94,137.55,105,137.88Zm-2.43,2.89a1.12,1.12,0,0,1,.42-.52c.48-.29,1,.06,1.69,1.05l-.17.74a.18.18,0,0,0-.1.06.67.67,0,0,1-.12.14,1,1,0,0,1-.71.21,1.21,1.21,0,0,1-.65-.12,1.58,1.58,0,0,0-.41-.29s0,0,0-.06a3.34,3.34,0,0,1,0-.68A1.36,1.36,0,0,1,102.57,140.77ZM87.49,123.7l.49-.15a1.23,1.23,0,0,1,.48.42,1.54,1.54,0,0,1,.24.48,1.16,1.16,0,0,1-.27.43.89.89,0,0,1-.45.29,1.89,1.89,0,0,1-.56-.13q-.18-.11-.18-.63A.81.81,0,0,1,87.49,123.7Zm.83,2.43h.07s.08.19.08.51a3.09,3.09,0,0,1,0,.62s0,0-.06,0l-.2.12a1.39,1.39,0,0,1-.68.12,1.33,1.33,0,0,1-.67-.11,1.48,1.48,0,0,0-.23-.3c0,.06,0,.09,0,.08s0-.19,0-.53.17-.49.53-.63a1.64,1.64,0,0,1,1.26.06S88.31,126.13,88.32,126.13ZM87.53,128a1.21,1.21,0,0,1,.12.65,1.27,1.27,0,0,1-.08.6s0,0-.06,0l0,0-.29.13a1.71,1.71,0,0,1-.53.19l-.8-.65c-.12-.11-.18-.19-.18-.23A1.17,1.17,0,0,1,86,128c.29-.33.77-.37,1.45-.12A.7.7,0,0,0,87.53,128Zm-2.19,2.79q-.18-.18-.18-.24s.14-.08.44-.12a.73.73,0,0,0,.42-.76,4.27,4.27,0,0,1,.89.88c-.09.12-.2.24-.31.36a3,3,0,0,1-.58.54C85.82,131.29,85.6,131.07,85.34,130.83Zm1.86,1.45a1.17,1.17,0,0,1,.12.64c0,.34,0,.54-.08.6a0,0,0,0,1-.06,0l0,0-.29.14a2.28,2.28,0,0,1-.53.19l-.79-.65c-.13-.11-.19-.19-.19-.24a1.08,1.08,0,0,1,.27-.77c.28-.31.77-.35,1.45-.13A.53.53,0,0,0,87.2,132.28Zm.61,2.14a1,1,0,0,0,.09.37,3.38,3.38,0,0,1,.15.37,3,3,0,0,1-.48.43q-.34.27-.57.42c-.22-.21-.45-.42-.7-.63s-.2-.18-.2-.22a1.92,1.92,0,0,1,0-.49.61.61,0,0,0,.14-.25l.53-.06A3.5,3.5,0,0,1,87.81,134.42Z"/><path class="cls-13" d="M9.88,103.9v11.67l2.29-1.31V102.53Zm0-3.14v2.16L35,88.37V86.14Zm-.79-.27v-.19l.19-.2,25.9-15a.24.24,0,0,1,.19-.07h.14l.19.2a.24.24,0,0,1,.07.2v16.06H35.7v.06h-.06a.19.19,0,0,1-.07.13l-5.31,3.08H30.2l-2.95,1.71v.06l-2.89,1.71H24.3l-3.22,1.9H21L16,113l-.07.07-3,1.7H13l-.14.13h-.06l-3.08,1.84h-.4l-.19-.2V100.49Zm21.37-8.32v11.47l2-1.11V91.05Zm-6.75,15.4V96.1l-2.43,1.44V109Zm-5.9-8.06-1.9,1.11V112.1l1.9-1ZM20.43,98l-1.84,1v11.47l1.84-1Zm-5.31,3.08L13,102.33V113.8l2.16-1.25Zm14.49-8.45-2.1,1.24v11.47l2.1-1.24Zm-2.95,1.7-2.17,1.25v11.53l2.17-1.31Zm8.32-5-1.77,1v11.8L35,101Z"/><path class="cls-13" d="M52.35,79.19l-2.16,1.24V91.91l2.16-1.25Zm3-1.77L53.2,78.66V90.2L55.37,89Zm5.31-3.34-1.77,1v11.8l1.77-1ZM49.4,80.89,47,82.34V93.81l2.42-1.45Zm-8.58,5-2.1,1.18V98.59l2.1-1.18Zm5.37-3.15-1.9,1V95.38l1.9-1.11ZM43.5,84.37l-1.83,1V96.89l1.83-1ZM60.87,69.88a.68.68,0,0,1,.2-.07.21.21,0,0,1,.13.07h.07a.37.37,0,0,1,.19.2.24.24,0,0,1,.07.19V86.14s0,.06-.07.06v.07a.05.05,0,0,1-.06.06v.07a.19.19,0,0,0-.13.06L56,89.55v.06h-.07l-9.11,5.31a.21.21,0,0,1-.13.07l-4.92,2.88h-.06l-3,1.71-.07.06-.13.07h-.06l-3.09,1.83a.24.24,0,0,1-.19.07s-.07,0-.07-.07H35l-.13-.13a.63.63,0,0,1-.07-.26V85.22a.07.07,0,0,1,.07-.07A.2.2,0,0,1,35,85ZM56.15,77V88.5l2-1.18V75.85ZM35.57,88.69v11.74l2.3-1.38V87.32ZM60.68,73.16V70.93L35.57,85.55v2.16Z"/><g id="Layer_3" data-name="Layer 3"><path class="cls-9" d="M9.75,104.89a2.14,2.14,0,0,1,.53,1.52v12.08a2.38,2.38,0,0,1-.53,1.56,1.52,1.52,0,0,1-1.23.58,1.66,1.66,0,0,1-1.28-.58,2.52,2.52,0,0,1-.49-1.56V106.41a2.26,2.26,0,0,1,.49-1.52,1.63,1.63,0,0,1,1.28-.62A1.5,1.5,0,0,1,9.75,104.89Z"/></g><path class="cls-14" d="M11,72a3.74,3.74,0,0,1,2.91-1.7,1,1,0,0,1,.92,1.62,3.36,3.36,0,0,1-1.25,1.2,3.35,3.35,0,0,1-1.65.5,1.11,1.11,0,0,1-1.07-.46A1.13,1.13,0,0,1,11,72Z"/><path class="cls-10" d="M9.4,105.78a.86.86,0,0,1-.27.63.84.84,0,0,1-1.23,0,.86.86,0,0,1-.27-.63V76.27c0-2.58.73-4.2,2.17-4.86a4.85,4.85,0,0,1,3.7-3.21c1.38.15,2,.74,1.94,1.78q-.7,2.05-4.81,3s0,0,0,0c-.79.47-1.19,1.56-1.19,3.25Z"/><g id="Layer_3-2" data-name="Layer 3"><path class="cls-9" d="M38.86,89.16a2.18,2.18,0,0,1,.53,1.52v12.08a2.47,2.47,0,0,1-.53,1.56,1.58,1.58,0,0,1-1.24.58,1.69,1.69,0,0,1-1.28-.58,2.62,2.62,0,0,1-.48-1.56V90.68a2.31,2.31,0,0,1,.48-1.52,1.6,1.6,0,0,1,1.28-.62A1.5,1.5,0,0,1,38.86,89.16Z"/></g><path class="cls-14" d="M40.09,56.22A3.73,3.73,0,0,1,43,54.53a1.14,1.14,0,0,1,1.08.45,1.15,1.15,0,0,1-.15,1.17,3.71,3.71,0,0,1-2.9,1.7,1,1,0,0,1-.93-1.63Z"/><path class="cls-10" d="M38.5,90.05a.85.85,0,0,1-.26.63.83.83,0,0,1-.62.26.85.85,0,0,1-.62-.26.89.89,0,0,1-.26-.63V60.54q0-3.88,2.16-4.86a4.87,4.87,0,0,1,3.71-3.21c1.38.15,2,.74,1.94,1.78-.47,1.37-2.08,2.37-4.81,3,0,0,0,0-.05,0-.79.48-1.19,1.56-1.19,3.26Z"/><path class="cls-13" d="M82.05,61.16,80,62.41V73.88l2.1-1.25Zm5.37-3.34-1.77,1V70.6l1.77-1Zm.72-4.07a.26.26,0,0,1,.07.2V70h-.07v.07h-.06a.19.19,0,0,1-.07.13L82.7,73.29h-.06l-3,1.7v.07l-2.89,1.7h-.06l-3.21,1.9h-.14l-4.91,2.89-.07.06-3,1.71H65.4l-.13.13H65.2l-3.08,1.84h-.39l-.2-.2V68.83l.2-.2,25.89-15a.28.28,0,0,1,.2-.06H88Zm-3.27,5.84-2,1.11V72.17l2-1.11Zm2.55-2.69V54.67L62.32,69.29v2.16ZM64.61,82.79V71.06l-2.29,1.38V84.1ZM76.15,64.64l-2.43,1.44v11.4l2.43-1.37ZM70.25,68l-1.9,1.12V80.63l1.9-1Zm2.62-1.5-1.84,1V79.06l1.84-1Zm-5.31,3.08L65.4,70.86V82.34l2.16-1.25ZM79.1,62.87l-2.17,1.24V75.65l2.17-1.31Z"/><g id="Layer_3-3" data-name="Layer 3"><path class="cls-9" d="M62.19,73.43a2.11,2.11,0,0,1,.53,1.51V87a2.42,2.42,0,0,1-.53,1.56,1.54,1.54,0,0,1-1.23.58,1.69,1.69,0,0,1-1.28-.58A2.63,2.63,0,0,1,59.19,87V74.94a2.28,2.28,0,0,1,.49-1.51A1.61,1.61,0,0,1,61,72.8,1.48,1.48,0,0,1,62.19,73.43Z"/></g><path class="cls-14" d="M63.43,40.49a3.73,3.73,0,0,1,2.9-1.69,1.09,1.09,0,0,1,1.07.45,1.15,1.15,0,0,1-.14,1.17A3.37,3.37,0,0,1,66,41.61a3.25,3.25,0,0,1-1.65.5,1.09,1.09,0,0,1-1.07-.45A1.13,1.13,0,0,1,63.43,40.49Z"/><path class="cls-10" d="M61.84,74.32a.91.91,0,0,1-.88.89.84.84,0,0,1-.62-.27.82.82,0,0,1-.26-.62V44.81q0-3.89,2.16-4.86a4.83,4.83,0,0,1,3.7-3.21c1.39.15,2,.74,1.94,1.78-.47,1.37-2.07,2.36-4.8,3,0,0,0,0,0,0-.79.48-1.19,1.56-1.19,3.26Z"/><g id="Layer_3-4" data-name="Layer 3"><path class="cls-9" d="M91.3,57.7a2.16,2.16,0,0,1,.53,1.51V71.29a2.43,2.43,0,0,1-.53,1.56,1.53,1.53,0,0,1-1.24.58,1.67,1.67,0,0,1-1.28-.58,2.58,2.58,0,0,1-.48-1.56V59.21a2.28,2.28,0,0,1,.48-1.51,1.63,1.63,0,0,1,1.28-.63A1.5,1.5,0,0,1,91.3,57.7Z"/></g><path class="cls-14" d="M92.53,24.76a3.4,3.4,0,0,1,1.26-1.2,3.29,3.29,0,0,1,1.64-.49,1.12,1.12,0,0,1,1.08.45,1.13,1.13,0,0,1-.15,1.17,3.73,3.73,0,0,1-2.9,1.69,1.12,1.12,0,0,1-1.08-.45A1.17,1.17,0,0,1,92.53,24.76Z"/><path class="cls-10" d="M91,58.59a.86.86,0,0,1-.27.62.84.84,0,0,1-.62.27.82.82,0,0,1-.61-.27.86.86,0,0,1-.27-.62V29.07q0-3.87,2.16-4.86A4.88,4.88,0,0,1,95.05,21c1.38.15,2,.75,1.94,1.79-.47,1.36-2.07,2.36-4.81,3,0,0,0,.05,0,.05-.8.47-1.19,1.56-1.19,3.25Z"/><path class="cls-13" d="M144.52,85.09l25.89,15,.2.2v16.25c-.09.09-.15.16-.2.2H170l-3.08-1.84h-.07l-.13-.13h-.07l-2.94-1.7-.07-.07-4.92-2.88h-.13l-3.21-1.9h-.07l-2.88-1.71v-.06l-2.95-1.71h-.07l-5.31-3.08a.18.18,0,0,1-.06-.13H144v-.06h-.06V85.42a.28.28,0,0,1,.06-.2l.2-.2h.13A.26.26,0,0,1,144.52,85.09Zm20.06,16v11.47l2.16,1.25V102.33ZM159.27,98v11.47l1.83,1V99.05Zm2.62,1.51v11.54l1.9,1V100.62Zm-11.8-6.88V104.1l2.1,1.24V93.87Zm2.95,1.7V105.8l2.16,1.31V95.58Zm-8.33-5V101l1.77,1V90.27Zm4.53,2.89-2-1.12v11.48l2,1.11Zm6.75,15.4,2.43,1.38V97.54L156,96.1Zm11.54,6.69,2.29,1.31V103.9l-2.29-1.37ZM144.71,88.37l25.11,14.55v-2.16L144.71,86.14Z"/><path class="cls-13" d="M144.12,85.55,119,70.93v2.23l25.1,14.55Zm.73-.4s.06,0,.06.07v15.93a.62.62,0,0,1-.06.26l-.14.13h-.13s0,.07-.06.07a.26.26,0,0,1-.2-.07l-3.08-1.83h-.07l-.13-.07-.06-.06L138,97.87H138L133.05,95a.19.19,0,0,1-.13-.07l-9.12-5.31h-.06v-.06l-5.31-3.09a.19.19,0,0,0-.13-.06v-.07s-.07,0-.07-.06V86.2a.05.05,0,0,1-.06-.06V70.27a.27.27,0,0,1,.06-.19.43.43,0,0,1,.2-.2h.06a.24.24,0,0,1,.13-.07.59.59,0,0,1,.2.07L144.71,85A.21.21,0,0,1,144.85,85.15Zm-20.52-7.73V89l2.16,1.24V78.66ZM119,74.08V85.81l1.77,1V75.06Zm2.55,1.77V87.32l2,1.18V77Zm17.31,10.09V97.41l2.1,1.18V87.12Zm-2.69-1.57V95.84l1.84,1V85.42Zm-2.68-1.58V94.27l1.9,1.11V83.84Zm-3.22-1.9V92.36l2.43,1.45V82.34Zm-2.95-1.7V90.66l2.17,1.25V80.43Zm16.78,9.5-2.29-1.37V99.05l2.29,1.38Z"/><g id="Layer_3-5" data-name="Layer 3"><path class="cls-9" d="M171.18,104.27a1.63,1.63,0,0,1,1.28.62,2.31,2.31,0,0,1,.48,1.52v12.08a2.58,2.58,0,0,1-.48,1.56,1.66,1.66,0,0,1-1.28.58,1.55,1.55,0,0,1-1.24-.58,2.43,2.43,0,0,1-.53-1.56V106.41a2.18,2.18,0,0,1,.53-1.52A1.53,1.53,0,0,1,171.18,104.27Z"/></g><path class="cls-14" d="M168.86,73.12a1.13,1.13,0,0,1-1.08.46,3.38,3.38,0,0,1-1.65-.5,3.44,3.44,0,0,1-1.25-1.2,1.16,1.16,0,0,1-.15-1.16,1.14,1.14,0,0,1,1.08-.46,3.45,3.45,0,0,1,1.65.5,3.36,3.36,0,0,1,1.25,1.2A1.11,1.11,0,0,1,168.86,73.12Z"/><path class="cls-10" d="M170.3,76.27c0-1.69-.4-2.78-1.19-3.25a0,0,0,0,1-.05,0c-2.73-.62-4.34-1.62-4.81-3-.09-1,.56-1.63,1.94-1.78a4.87,4.87,0,0,1,3.71,3.21q2.16,1,2.16,4.86v29.51a.89.89,0,0,1-.26.63.86.86,0,0,1-.62.27.84.84,0,0,1-.62-.27.89.89,0,0,1-.26-.63Z"/><g id="Layer_3-6" data-name="Layer 3"><path class="cls-9" d="M142.07,88.54a1.6,1.6,0,0,1,1.28.62,2.26,2.26,0,0,1,.49,1.52v12.08a2.56,2.56,0,0,1-.49,1.56,1.69,1.69,0,0,1-1.28.58,1.54,1.54,0,0,1-1.23-.58,2.42,2.42,0,0,1-.53-1.56V90.68a2.14,2.14,0,0,1,.53-1.52A1.47,1.47,0,0,1,142.07,88.54Z"/></g><path class="cls-14" d="M139.75,57.39a1.11,1.11,0,0,1-1.07.46,3.45,3.45,0,0,1-1.65-.5,3.36,3.36,0,0,1-1.25-1.2,1.13,1.13,0,0,1-.15-1.17,1.11,1.11,0,0,1,1.07-.45,3.35,3.35,0,0,1,1.65.5,3.45,3.45,0,0,1,1.26,1.19A1.15,1.15,0,0,1,139.75,57.39Z"/><path class="cls-10" d="M141.19,60.54c0-1.7-.4-2.78-1.19-3.26,0,0,0,0,0,0q-4.11-.93-4.81-3c-.09-1,.56-1.63,1.94-1.78a4.85,4.85,0,0,1,3.7,3.21c1.44.65,2.17,2.27,2.17,4.86V90.05a.86.86,0,0,1-.27.63.86.86,0,0,1-1.23,0,.86.86,0,0,1-.27-.63Z"/><path class="cls-13" d="M91.75,53.56h.13a.3.3,0,0,1,.2.06l25.89,15c.09.09.15.16.2.2V85.09c-.09.09-.16.15-.2.2h-.39l-3.08-1.84h-.07l-.13-.13h-.07l-3-1.71-.06-.06-4.92-2.89h-.13L103,76.76h-.07L100,75.06V75l-3-1.7H97l-5.31-3.08a.22.22,0,0,1-.06-.13h-.07V70h-.06V54a.3.3,0,0,1,.06-.2Zm20.39,16.06V81.09l2.16,1.25V70.86Zm-5.31-3.08V78l1.83,1V67.59Zm2.62,1.5V79.58l1.9,1V69.16Zm-5.9-3.4V76.11L106,77.48V66.08Zm-5.9-3.48V72.63l2.1,1.25V62.41Zm-5.38-3.34V69.55l1.77,1V58.8Zm2.56,1.77V71.06l2,1.11V60.7Zm5.77,3.28V74.34l2.16,1.31V64.11Zm14.49,19.92,2.29,1.31V72.44l-2.29-1.38Zm2.29-13.5L92.27,54.67V56.9l25.11,14.55Z"/><g id="Layer_3-7" data-name="Layer 3"><path class="cls-9" d="M118.74,72.8a1.63,1.63,0,0,1,1.28.63,2.28,2.28,0,0,1,.48,1.51V87a2.62,2.62,0,0,1-.48,1.56,1.71,1.71,0,0,1-1.28.58,1.58,1.58,0,0,1-1.24-.58A2.47,2.47,0,0,1,117,87V74.94a2.16,2.16,0,0,1,.53-1.51A1.51,1.51,0,0,1,118.74,72.8Z"/></g><path class="cls-14" d="M116.42,41.66a1.12,1.12,0,0,1-1.08.45,3.73,3.73,0,0,1-2.9-1.69,1.13,1.13,0,0,1-.15-1.17,1.12,1.12,0,0,1,1.08-.45,3.73,3.73,0,0,1,2.9,1.69A1.15,1.15,0,0,1,116.42,41.66Z"/><path class="cls-10" d="M117.86,44.81c0-1.7-.4-2.78-1.2-3.26a0,0,0,0,1,0,0c-2.73-.63-4.34-1.62-4.81-3-.09-1,.56-1.63,1.94-1.78,1.62.23,2.85,1.3,3.71,3.21q2.16,1,2.16,4.86V74.32a.92.92,0,0,1-.88.89.84.84,0,0,1-.62-.27.82.82,0,0,1-.26-.62Z"/><path class="cls-13" d="M61.2,135.17l.2-.2h.13a.3.3,0,0,1,.2.07l25.89,15,.2.2V166.5l-.2.2h-.39l-3.09-1.84h-.06l-.13-.13h-.07L80.93,163l-.06-.07L76,160.08h-.13l-3.21-1.9h-.07l-2.88-1.71v-.06l-3-1.71h-.07l-5.31-3.08a.18.18,0,0,1-.06-.13H61.2v-.06h-.06V135.37A.28.28,0,0,1,61.2,135.17Zm.72,15.8L63.69,152v-11.8l-1.77-1Zm0-12.65L87,152.87v-2.16L61.92,136.09Zm8.33,6v11.47l2.16,1.31V145.53Zm-3.8-2.16-2-1.12v11.48l2,1.11Zm6.75,3.93v11.47l2.42,1.38V147.49Zm-5.9-3.47v11.47l2.1,1.24V143.82ZM81.79,151v11.48L84,163.75V152.28ZM76.48,148v11.47l1.83,1.05V149Zm2.62,1.51V161l1.9,1.05V150.57ZM87,165.52V153.85l-2.3-1.37v11.73Z"/><path class="cls-13" d="M35.64,119.83h.06a.22.22,0,0,1,.13-.06.53.53,0,0,1,.2.06l25.89,15.08a.2.2,0,0,1,.13.19.06.06,0,0,1,.07.07V151.1a.51.51,0,0,1-.07.26l-.13.13h-.13s0,.07-.06.07a.24.24,0,0,1-.2-.07l-3.08-1.83h-.07l-.13-.07-.06-.06-2.95-1.71h-.07l-4.92-2.88a.24.24,0,0,1-.13-.07L41,139.56H41v-.06l-5.31-3.08a.19.19,0,0,0-.13-.07v-.07s-.07,0-.07-.06v-.07s-.07,0-.07-.06V120.22a.27.27,0,0,1,.07-.19A.39.39,0,0,1,35.64,119.83ZM53.4,134.32v11.47l1.84,1.05V135.37Zm-2.69-1.58v11.48l1.9,1.11V133.79Zm-6.16-3.6v11.47l2.16,1.25V130.38ZM38,125l-1.77-1v11.73L38,136.81Zm2.75,1.9-2-1.11v11.47l2,1.18Zm.79.46v11.54l2.16,1.24V128.61Zm17.5,9.9V149l2.29,1.38V138.64Zm-.85-.2-2.1-1.18v11.47l2.1,1.18ZM47.5,142.32l2.43,1.44V132.29l-2.43-1.45Zm13.83-6.82-25.1-14.62v2.23l25.1,14.55Z"/><path class="cls-13" d="M9.09,103.51a.27.27,0,0,1,.19.06l25.9,15,.19.19V135l-.19.2h-.4L31.7,133.4h-.06l-.13-.13h-.07l-3-1.71-.06-.06-4.92-2.89h-.13l-3.21-1.9H20.1L17.22,125v-.07l-2.95-1.7H14.2l-5.31-3.08a.22.22,0,0,1-.06-.13H8.76V120H8.69V103.9a.3.3,0,0,1,.07-.2l.2-.19Zm.39,3.34L34.59,121.4v-2.16L9.48,104.62Zm0,12.65,1.77,1v-11.8l-1.77-1ZM14,110.65l-2-1.11V121l2,1.11Zm3.81,2.17v11.47L20,125.6V114.06Zm-2.95-1.71v11.47L17,123.83V112.36Zm5.9,3.48v11.47l2.42,1.37V116Zm3.27,1.9V128l1.84,1V117.54ZM26.66,118v11.53l1.9,1.05V119.11Zm5.63,3v11.73l2.3,1.32V122.39Zm-.78-.2-2.17-1.24V131l2.17,1.25Z"/><path class="cls-13" d="M111,143.1l-2.1,1.25v11.47l2.1-1.25Zm-9.18,5.38-1.84,1.05V161l1.84-1.05Zm-5.31,3.08-2.16,1.24v11.48L96.47,163ZM99.16,150l-1.9,1.12v11.47l1.9-1Zm17.17-11.14v-2.23L91.22,151.23v2.16Zm0,12.65V139.76l-1.77,1v11.8Zm.53-16c.08.09.15.15.19.19a.26.26,0,0,1,.07.2V152h-.07V152H117a.24.24,0,0,1-.07.13l-5.31,3.08h-.06l-3,1.7V157l-2.89,1.7h-.06l-3.22,1.9h-.13l-4.91,2.89-.07.06-2.95,1.71h-.06l-.14.13h-.06L91,167.23h-.4l-.19-.2V150.77l.19-.2,25.9-15a.27.27,0,0,1,.19-.06Zm-5,7.14v11.47l2-1.11V141.53ZM91.22,166l2.3-1.31V153l-2.3,1.38Zm13.84-19.46L102.63,148v11.4l2.43-1.37Zm3-1.77-2.17,1.24v11.54l2.17-1.31Z"/><path class="cls-13" d="M133.7,129.66l-2.16,1.25v11.47l2.16-1.25Zm8.33,6.62V124.55l-1.77,1v11.8Zm.52-15.92h.07a.39.39,0,0,1,.19.19.26.26,0,0,1,.07.2v15.86s0,.07-.07.07v.06s0,.07-.06.07v.06a.19.19,0,0,0-.13.07L137.31,140v.07h-.07l-9.11,5.31a.19.19,0,0,1-.13.06l-4.92,2.89H123l-3,1.7-.07.07-.13.06h-.06L116.72,152a.27.27,0,0,1-.19.06s-.07,0-.07-.06h-.13a1.59,1.59,0,0,0-.13-.13.68.68,0,0,1-.07-.27V135.69s0-.06.07-.06a.21.21,0,0,1,.13-.2l25.89-15.07a.47.47,0,0,1,.2-.07A.17.17,0,0,1,142.55,120.36Zm-5.05,7.07V139l2-1.18V126.32Zm-6.75,15.41V131.37l-2.42,1.44v11.47Zm-10.68,6.23,2.09-1.18V136.42l-2.09,1.18Zm-.86-11.28-2.29,1.38V150.9l2.29-1.37Zm8.33-4.52-1.9,1v11.53l1.9-1.11Zm-2.69,1.57-1.83,1v11.47l1.83-1.05ZM142,123.63V121.4L116.92,136v2.17Zm-5.31,4.26-2.17,1.25v11.54l2.17-1.25Z"/><path class="cls-13" d="M151.6,118.52l-1.9,1.11v11.48l1.9-1.05Zm2.62-1.51-1.84,1v11.47l1.84-1.05ZM169,104.1a.24.24,0,0,1,.2-.07h.13l.19.2a.24.24,0,0,1,.07.2v16.06h-.07v.06h-.06a.16.16,0,0,1-.07.13l-5.31,3.08H164l-3,1.71v.06l-2.89,1.71h-.06l-3.21,1.9h-.14L149.83,132l-.07.07-2.95,1.7h-.06l-.13.13h-.07l-3.08,1.84h-.39c-.05,0-.11-.11-.2-.2V119.31s.11-.11.2-.2Zm-4.72,7.08v11.47l2-1.11V110.06Zm-17.5,21.63,2.16-1.25V120.09l-2.16,1.25ZM146,121.54l-2.29,1.37v11.67l2.29-1.31Zm11.54-6.43-2.43,1.44V128l2.43-1.38ZM168.77,120V108.29l-1.77,1v11.8Zm0-12.65v-2.23l-25.1,14.62v2.16Zm-5.37,4.26-2.1,1.24v11.47l2.1-1.24Zm-3,1.7-2.17,1.25v11.53l2.17-1.31Z"/></svg>