<?xml version="1.0" encoding="utf-8"?>
<!-- Generator: Adobe Illustrator 16.0.0, SVG Export Plug-In . SVG Version: 6.00 Build 0)  -->
<!DOCTYPE svg PUBLIC "-//W3C//DTD SVG 1.1//EN" "http://www.w3.org/Graphics/SVG/1.1/DTD/svg11.dtd">
<svg version="1.1" xmlns="http://www.w3.org/2000/svg" xmlns:xlink="http://www.w3.org/1999/xlink" x="0px" y="0px" width="960px"
	 height="540px" viewBox="0 0 960 540" enable-background="new 0 0 960 540" xml:space="preserve">
<g id="图层_2">
	<g id="组_766">
		<path id="路径_1806" opacity="0.2" fill="#69BAF9" enable-background="new    " d="M820,509.85c0-187.776-152.223-340-340-340
			c-187.777,0-340,152.223-340,340"/>
		<path id="路径_1807" opacity="0.5" fill="#69BAF9" enable-background="new    " d="M727.618,509.85
			c0-136.812-110.908-247.72-247.719-247.72c-136.812,0-247.72,110.908-247.72,247.72"/>
		<path id="路径_1808" opacity="0.7" fill="#69BAF9" enable-background="new    " d="M635.6,509.85
			c0.219-85.755-69.122-155.45-154.878-155.668c-85.755-0.219-155.45,69.122-155.669,154.878c0,0.263,0,0.526,0,0.79"/>
	</g>
</g>
<g id="图层_1">
	<g id="组_764" transform="translate(-72.295)">
		
			<line id="直线_15" fill="none" stroke="#3D3D63" stroke-width="10" stroke-linecap="round" x1="807.295" y1="505" x2="543.295" y2="505"/>
		
			<line id="直线_16" fill="none" stroke="#3D3D63" stroke-width="10" stroke-linecap="round" x1="886.295" y1="505" x2="828.295" y2="505"/>
		
			<line id="直线_18" fill="none" stroke="#3D3D63" stroke-width="10" stroke-linecap="round" x1="491.295" y1="505" x2="431.295" y2="505"/>
		
			<line id="直线_259" fill="none" stroke="#3D3D63" stroke-width="10" stroke-linecap="round" x1="396.295" y1="505" x2="218.295" y2="505"/>
		<ellipse id="椭圆_336" fill="#3D3D63" cx="514.295" cy="505" rx="5" ry="4"/>
	</g>
	<g id="矩形_1377" transform="translate(300 131)">
		<path fill="#FFAC6C" d="M50,0h166c27.614,0,50,22.386,50,50v202c0,27.614-22.386,50-50,50H50c-27.614,0-50-22.386-50-50V50
			C0,22.386,22.386,0,50,0z"/>
		<path fill="none" stroke="#3D3D63" stroke-width="20" d="M50,10h166c22.092,0,40,17.909,40,40v202c0,22.092-17.908,40-40,40H50
			c-22.092,0-40-17.908-40-40V50C10,27.909,27.908,10,50,10z"/>
	</g>
	<path fill="#FFAC6C" d="M585,432h-24.875l-1.87-0.043L555.469,432H309.531l-1.87-0.043L304.876,432H280c-22.057,0-40-17.943-40-40
		V258c0-22.056,17.944-40,40-40h24.875c22.056,0,39.999,17.943,39.999,40v71.969v10h10h155.25h10v-10V258c0-22.056,17.944-40,40-40
		H585c22.056,0,40,17.943,40,40v134C625,414.057,607.056,432,585,432z"/>
	<path fill="#3D3D63" d="M585,422c16.542,0,30-13.458,30-30V258c0-16.542-13.458-30-30-30h-24.875c-16.542,0-30,13.458-30,30v71.969
		v20h-20h-155.25h-20v-20V258c0-16.542-13.458-30-29.999-30H280c-16.542,0-30,13.458-30,30v134c0,16.542,13.458,30,30,30h24.875
		l1.412-0.032l0.915-0.042l0.916,0.042l1.412,0.032h245.938l1.411-0.032l0.917-0.042l0.918,0.042l1.41,0.032H585 M585,442h-24.875
		c-0.78,0-1.557-0.018-2.328-0.054c-0.771,0.036-1.548,0.054-2.328,0.054H309.531c-0.78,0-1.557-0.018-2.328-0.054
		c-0.771,0.036-1.547,0.054-2.327,0.054H280c-27.614,0-50-22.386-50-50V258c0-27.614,22.387-50,50-50h24.875
		c27.613,0,49.999,22.386,49.999,50v71.969h155.25V258c0-27.614,22.386-50,50-50H585c27.614,0,50,22.386,50,50v134
		C635,419.614,612.614,442,585,442z"/>
	<path fill="#736574" d="M305,422h39c5.522,0,10,4.478,10,10v40c0,5.522-4.478,10-10,10h-39c-5.522,0-10-4.478-10-10v-40
		C295,426.478,299.478,422,305,422z"/>
	<rect x="305" y="432" fill="none" stroke="#3D3D63" stroke-width="20" width="39" height="40"/>
	<path fill="#736574" d="M521,422h39c5.522,0,10,4.478,10,10v40c0,5.522-4.478,10-10,10h-39c-5.522,0-10-4.478-10-10v-40
		C511,426.478,515.478,422,521,422z"/>
	<rect x="521" y="432" fill="none" stroke="#3D3D63" stroke-width="20" width="39" height="40"/>
	<path fill="#FFAC6C" d="M390.265,261.22h85.47c25.108,0,45.462,20.354,45.462,45.463v39.098l0,0H344.802l0,0v-39.098
		C344.802,281.574,365.157,261.22,390.265,261.22z"/>
	<path fill="none" stroke="#3D3D63" stroke-width="20" d="M386,267h94c22.092,0,40,17.908,40,40v23c0,5.523-4.478,10-10,10H356
		c-5.522,0-10-4.477-10-10v-23C346,284.908,363.908,267,386,267z"/>
	<rect id="矩形_1384" x="356" y="313" fill="#E39A6D" width="154" height="17"/>
	<path id="矩形_1385" fill="#E39A6D" d="M250,387h365l0,0v5c0,16.568-13.432,30-30,30H280c-16.568,0-30-13.432-30-30V387L250,387z
		"/>
	<path id="多边形_13" fill="#736574" stroke="#3D3D63" stroke-width="20" stroke-linecap="round" stroke-linejoin="round" d="
		M669,432l51,40H618L669,432z"/>
	
		<line id="直线_352" fill="none" stroke="#3D3D63" stroke-width="20" stroke-linecap="round" x1="669" y1="430.5" x2="669" y2="113.5"/>
	
		<line id="直线_353" fill="none" stroke="#3D3D63" stroke-width="20" stroke-linecap="round" x1="457.5" y1="59.5" x2="730.5" y2="183.5"/>
	<g id="椭圆_485" transform="translate(639 121)">
		<circle fill="#736574" cx="30" cy="30" r="30"/>
		<circle fill="none" stroke="#3D3D63" stroke-width="20" cx="30" cy="30" r="20"/>
	</g>
	<g id="椭圆_486" transform="translate(455 90)">
		<circle fill="#8682F8" cx="25" cy="25" r="25"/>
		<circle fill="none" stroke="#3D3D63" stroke-width="16" cx="25" cy="25" r="17"/>
	</g>
	<line id="直线_354" fill="none" stroke="#3D3D63" stroke-width="20" stroke-linecap="round" x1="480" y1="73" x2="480" y2="94"/>
	<path id="路径_2277" fill="#8682F8" stroke="#3D3D63" stroke-width="20" stroke-linejoin="round" d="M533.577,177.366
		c0-29.59-23.987-53.577-53.577-53.577s-53.577,23.987-53.577,53.577C439.39,177.329,533.577,177.366,533.577,177.366z"/>
	<g id="组_1052" transform="translate(177 50)">
		<g id="组_781" transform="translate(93.213 0)">
			
				<line id="直线_271" fill="none" stroke="#8682F8" stroke-width="8" stroke-linecap="round" x1="32.692" y1="16.346" x2="0" y2="16.346"/>
			
				<line id="直线_272" fill="none" stroke="#8682F8" stroke-width="8" stroke-linecap="round" x1="16.346" y1="0" x2="16.346" y2="32.692"/>
		</g>
		<g id="组_782" transform="translate(117.96 127.696)">
			<g id="组_775" transform="translate(0 0)">
				<g id="组_770" transform="translate(20.007)">
					
						<line id="直线_269" fill="none" stroke="#8682F8" stroke-width="8" stroke-linecap="round" x1="0" y1="32.692" x2="0" y2="40.014"/>
					
						<line id="直线_270" fill="none" stroke="#8682F8" stroke-width="8" stroke-linecap="round" x1="0" y1="0" x2="0" y2="7.322"/>
				</g>
				<g id="组_771" transform="translate(40.014 20.007) rotate(90)">
					
						<line id="直线_269-2" fill="none" stroke="#8682F8" stroke-width="8" stroke-linecap="round" x1="0" y1="7.322" x2="0" y2="0"/>
					
						<line id="直线_270-2" fill="none" stroke="#8682F8" stroke-width="8" stroke-linecap="round" x1="0" y1="40.014" x2="0" y2="32.692"/>
				</g>
				<g id="组_772" transform="translate(34.154 34.154) rotate(135)">
					
						<line id="直线_269-3" fill="none" stroke="#8682F8" stroke-width="8" stroke-linecap="round" x1="0" y1="7.322" x2="0" y2="0"/>
					
						<line id="直线_270-3" fill="none" stroke="#8682F8" stroke-width="8" stroke-linecap="round" x1="0" y1="40.014" x2="0" y2="32.692"/>
				</g>
				<g id="组_773" transform="translate(34.154 5.86) rotate(45)">
					
						<line id="直线_269-4" fill="none" stroke="#8682F8" stroke-width="8" stroke-linecap="round" x1="0" y1="32.692" x2="0" y2="40.014"/>
					
						<line id="直线_270-4" fill="none" stroke="#8682F8" stroke-width="8" stroke-linecap="round" x1="0" y1="0" x2="0" y2="7.322"/>
				</g>
			</g>
		</g>
		<g id="路径_1815" transform="translate(0 206.772)">
			<path fill="none" d="M16.95,0C7.589,0,0,7.589,0,16.951C0,26.311,7.589,33.9,16.95,33.9c9.361,0,16.95-7.589,16.95-16.949
				C33.9,7.589,26.311,0,16.95,0z"/>
			<path fill="#8682F8" d="M16.95,8C12.015,8,8,12.015,8,16.95c0,4.935,4.015,8.95,8.95,8.95s8.95-4.016,8.95-8.95
				C25.899,12.015,21.885,8,16.95,8 M16.95,0c9.361,0,16.95,7.589,16.95,16.95c0,9.36-7.589,16.95-16.95,16.95S0,26.31,0,16.95
				C0,7.589,7.589,0,16.95,0z"/>
		</g>
		<g id="路径_1816" transform="translate(96.455 368.293)">
			<path fill="none" d="M14.127,0C6.325,0,0,6.325,0,14.127s6.325,14.127,14.127,14.127s14.127-6.325,14.127-14.127
				S21.929,0,14.127,0z"/>
			<path fill="#8682F8" d="M14.127,8C10.749,8,8,10.749,8,14.127c0,3.379,2.749,6.127,6.127,6.127s6.127-2.748,6.127-6.127
				C20.254,10.749,17.505,8,14.127,8 M14.127,0c7.802,0,14.127,6.325,14.127,14.127s-6.325,14.127-14.127,14.127S0,21.929,0,14.127
				S6.325,0,14.127,0z"/>
		</g>
		<g id="路径_1817" transform="translate(521.238 93.692)">
			<path fill="none" d="M20.356,0C9.114,0,0,9.114,0,20.356c0,11.243,9.113,20.356,20.355,20.356s20.356-9.113,20.356-20.356
				C40.712,9.114,31.598,0,20.356,0z"/>
			<path fill="#8682F8" d="M20.356,8C13.543,8,8,13.543,8,20.356s5.543,12.356,12.355,12.356c6.813,0,12.355-5.543,12.355-12.356
				S27.169,8,20.356,8 M20.356,0c11.242,0,20.355,9.114,20.355,20.356s-9.113,20.356-20.355,20.356S0,31.598,0,20.356
				S9.114,0,20.356,0z"/>
		</g>
		<g id="组_783" transform="translate(581.172 322.474)">
			
				<line id="直线_273" fill="none" stroke="#8682F8" stroke-width="8" stroke-linecap="round" x1="24.703" y1="13.301" x2="0" y2="13.301"/>
			
				<line id="直线_274" fill="none" stroke="#8682F8" stroke-width="8" stroke-linecap="round" x1="12.352" y1="0.001" x2="12.352" y2="24.703"/>
		</g>
	</g>
	
		<line id="直线_351" fill="none" stroke="#3D3D63" stroke-width="20" stroke-linecap="round" x1="330.5" y1="340" x2="534.5" y2="340"/>
</g>
</svg>
