<?xml version="1.0" encoding="UTF-8"?>
<svg width="244px" height="208px" viewBox="0 0 244 208" version="1.1" xmlns="http://www.w3.org/2000/svg" xmlns:xlink="http://www.w3.org/1999/xlink">
    <!-- Generator: Sketch 55 (78076) - https://sketchapp.com -->
    <title>服务器异常、设备异常</title>
    <desc>Created with Sketch.</desc>
    <g id="Page-1" stroke="none" stroke-width="1" fill="none" fill-rule="evenodd">
        <g id="亮背景时使用" transform="translate(-292.000000, -1120.000000)">
            <g id="服务器异常、设备异常" transform="translate(292.000000, 1120.000000)">
                <g id="背景/彩">
                    <g id="-">
                        <g id="编组" transform="translate(28.400000, 18.400000)">
                            <polyline id="路径" stroke="#DEF5FF" stroke-width="40" stroke-linecap="round" stroke-linejoin="round" points="121.6 27.4476562 49.6 71.0238281 121.6 66.6 129.6 66.6 72.167827 114.6"></polyline>
                            <path d="M1.6,146.2 C0.7163444,146.2 -5.68434189e-14,145.483656 -5.68434189e-14,144.6 C-5.68434189e-14,143.716344 0.7163444,143 1.6,143 L141.6,143 C142.483656,143 143.2,143.716344 143.2,144.6 C143.2,145.483656 142.483656,146.2 141.6,146.2 L1.6,146.2 Z M149.6,146.2 C148.716344,146.2 148,145.483656 148,144.6 C148,143.716344 148.716344,143 149.6,143 L154.6,143 C155.483656,143 156.2,143.716344 156.2,144.6 C156.2,145.483656 155.483656,146.2 154.6,146.2 L149.6,146.2 Z M167.6,146.2 C166.716344,146.2 166,145.483656 166,144.6 C166,143.716344 166.716344,143 167.6,143 L185.6,143 C186.483656,143 187.2,143.716344 187.2,144.6 C187.2,145.483656 186.483656,146.2 185.6,146.2 L167.6,146.2 Z M47.6,161.2 C46.7163444,161.2 46,160.483656 46,159.6 C46,158.716344 46.7163444,158 47.6,158 L61.6,158 C62.4836556,158 63.2,158.716344 63.2,159.6 C63.2,160.483656 62.4836556,161.2 61.6,161.2 L47.6,161.2 Z M70.6,161.2 C69.7163444,161.2 69,160.483656 69,159.6 C69,158.716344 69.7163444,158 70.6,158 L131.6,158 C132.483656,158 133.2,158.716344 133.2,159.6 C133.2,160.483656 132.483656,161.2 131.6,161.2 L70.6,161.2 Z M160,105.6 C160,103.466667 163.2,103.466667 163.2,105.6 L163.2,111.6 C163.2,112.483656 162.483656,113.2 161.6,113.2 L155.6,113.2 C153.466667,113.2 153.466667,110 155.6,110 L160,110 L160,105.6 Z M163.2,117.6 C163.2,119.733333 160,119.733333 160,117.6 L160,111.6 C160,110.716344 160.716344,110 161.6,110 L167.6,110 C169.733333,110 169.733333,113.2 167.6,113.2 L163.2,113.2 L163.2,117.6 Z M8,57.6 C8,55.4666667 11.2,55.4666667 11.2,57.6 L11.2,63.6 C11.2,64.4836556 10.4836556,65.2 9.6,65.2 L3.6,65.2 C1.46666667,65.2 1.46666667,62 3.6,62 L8,62 L8,57.6 Z M156.2,7 L161.6,7 C163.733333,7 163.733333,10.2 161.6,10.2 L156.2,10.2 L156.2,15.6 C156.2,17.7333333 153,17.7333333 153,15.6 L153,10.2 L147.6,10.2 C145.466667,10.2 145.466667,7 147.6,7 L153,7 L153,1.6 C153,-0.533333333 156.2,-0.533333333 156.2,1.6 L156.2,7 Z M11.2,69.6 C11.2,71.7333333 8,71.7333333 8,69.6 L8,63.6 C8,62.7163444 8.7163444,62 9.6,62 L15.6,62 C17.7333333,62 17.7333333,65.2 15.6,65.2 L11.2,65.2 L11.2,69.6 Z" id="Path-2" fill="#333745" fill-rule="nonzero"></path>
                            <path d="M28.1857864,122.286292 C29.1285955,121.343482 30.542809,122.757696 29.6,123.700505 L27.4786797,125.821825 C27.0881554,126.21235 26.4549904,126.21235 26.0644661,125.821825 L23.9431458,123.700505 C23.0003367,122.757696 24.4145503,121.343482 25.3573593,122.286292 L26.7715729,123.700505 L28.1857864,122.286292 Z M25.3573593,127.943146 C24.4145503,128.885955 23.0003367,127.471741 23.9431458,126.528932 L26.0644661,124.407612 C26.4549904,124.017088 27.0881554,124.017088 27.4786797,124.407612 L29.6,126.528932 C30.542809,127.471741 29.1285955,128.885955 28.1857864,127.943146 L26.7715729,126.528932 L25.3573593,127.943146 Z M45.8426407,17.6 C46.7854497,16.657191 48.1996633,18.0714045 47.2568542,19.0142136 L45.1355339,21.1355339 C44.7450096,21.5260582 44.1118446,21.5260582 43.7213203,21.1355339 L41.6,19.0142136 C40.657191,18.0714045 42.0714045,16.657191 43.0142136,17.6 L44.4284271,19.0142136 L45.8426407,17.6 Z M43.0142136,23.2568542 C42.0714045,24.1996633 40.657191,22.7854497 41.6,21.8426407 L43.7213203,19.7213203 C44.1118446,19.3307961 44.7450096,19.3307961 45.1355339,19.7213203 L47.2568542,21.8426407 C48.1996633,22.7854497 46.7854497,24.1996633 45.8426407,23.2568542 L44.4284271,21.8426407 L43.0142136,23.2568542 Z" id="Path复制" fill="#657180" fill-rule="nonzero"></path>
                        </g>
                    </g>
                </g>
                <g id="分组" transform="translate(72.000000, 50.000000)">
                    <g id="分组-4" transform="translate(0.000000, 34.000000)">
                        <path d="M18,0 L78,0 C81.3137085,-6.08718376e-16 84,2.6862915 84,6 L84,52 C84,55.3137085 81.3137085,58 78,58 L18,58 C14.6862915,58 12,55.3137085 12,52 L12,6 C12,2.6862915 14.6862915,6.08718376e-16 18,0 Z" id="矩形" stroke="#333745" stroke-width="3.2" fill="#9EA7B4"></path>
                        <path d="M6,0 L90,0 C93.3137085,-6.08718376e-16 96,2.6862915 96,6 L96,20 C96,23.3137085 93.3137085,26 90,26 L6,26 C2.6862915,26 -9.55174571e-14,23.3137085 -9.59232693e-14,20 L-9.59232693e-14,6 C-9.63290816e-14,2.6862915 2.6862915,6.08718376e-16 6,0 Z M6,34 L90,34 C93.3137085,34 96,36.6862915 96,40 L96,54 C96,57.3137085 93.3137085,60 90,60 L6,60 C2.6862915,60 -4.57794656e-14,57.3137085 -4.61852778e-14,54 L-4.61852778e-14,40 C-4.65910901e-14,36.6862915 2.6862915,34 6,34 Z" id="矩形-copy-2" stroke="#333745" stroke-width="3.2" fill="#D0E639"></path>
                        <path d="M31,18 C28.2385763,18 26,15.7614237 26,13 C26,10.2385763 28.2385763,8 31,8 C33.7614237,8 36,10.2385763 36,13 C36,15.7614237 33.7614237,18 31,18 Z M15,18 C12.2385763,18 10,15.7614237 10,13 C10,10.2385763 12.2385763,8 15,8 C17.7614237,8 20,10.2385763 20,13 C20,15.7614237 17.7614237,18 15,18 Z M31,52 C28.2385763,52 26,49.7614237 26,47 C26,44.2385763 28.2385763,42 31,42 C33.7614237,42 36,44.2385763 36,47 C36,49.7614237 33.7614237,52 31,52 Z M15,52 C12.2385763,52 10,49.7614237 10,47 C10,44.2385763 12.2385763,42 15,42 C17.7614237,42 20,44.2385763 20,47 C20,49.7614237 17.7614237,52 15,52 Z" id="椭圆形-2" stroke="#D0E639" stroke-width="2" fill="#FCFFE7"></path>
                    </g>
                    <g id="分组-3" transform="translate(52.000000, 0.000000)">
                        <path d="M18.2966765,12.9162193 L59.9117264,20.7078674 C63.1688366,21.3177011 65.3148783,24.4524784 64.7050447,27.7095886 C64.4824165,28.8986418 63.9055634,29.9926301 63.0501656,30.8480279 L29.2267639,64.6714296 C26.8836181,67.0145753 23.0846283,67.0145753 20.7414825,64.6714296 C19.8860847,63.8160318 19.3092316,62.7220435 19.0866034,61.5329904 L11.2949553,19.9179405 C10.6851217,16.6608303 12.8311634,13.526053 16.0882736,12.9162193 C16.8180672,12.779579 17.566883,12.779579 18.2966765,12.9162193 Z" id="矩形" stroke="#333745" stroke-width="3.2" fill="#FFDB00" transform="translate(38.000000, 39.621264) rotate(-315.000000) translate(-38.000000, -39.621264) "></path>
                        <path d="M42.646707,22.151997 L40.9798538,33.5581076 C40.8362851,34.540534 39.9937351,35.2689056 39.0008737,35.2689056 L37.8885001,35.2689056 C36.8956387,35.2689056 36.0530887,34.540534 35.90952,33.5581076 L34.2426667,22.151997 C33.9232231,19.966076 35.436302,17.9350766 37.622223,17.6156329 C37.8137532,17.5876433 38.0070624,17.5735931 38.2006269,17.5735931 L38.6887468,17.5735931 C40.8978858,17.5735931 42.6887468,19.3644541 42.6887468,21.5735931 C42.6887468,21.7671576 42.6746967,21.9604669 42.646707,22.151997 Z M38.6204681,42.8860931 L38.3860931,42.8860931 C36.8975131,42.8860931 35.6907806,41.6793606 35.6907806,40.1907806 L35.6907806,40.1907806 C35.6907806,38.7022006 36.8975131,37.4954681 38.3860931,37.4954681 L38.6204681,37.4954681 C40.1090481,37.4954681 41.3157806,38.7022006 41.3157806,40.1907806 L41.3157806,40.1907806 C41.3157806,41.6793606 40.1090481,42.8860931 38.6204681,42.8860931 Z" id="！" fill="#333745" fill-rule="nonzero"></path>
                    </g>
                </g>
            </g>
        </g>
    </g>
</svg>