
<svg xmlns="http://www.w3.org/2000/svg" version="1.1" xmlns:xlink="http://www.w3.org/1999/xlink" preserveAspectRatio="none" x="0px" y="0px" width="1024px" height="1024px" viewBox="0 0 1024 1024">
<defs>
<g id="Layer0_0_MEMBER_0_MEMBER_0_FILL">
<path fill="#AA7B61" stroke="none" d="
M 402.65 357.7
L 338.95 394.5
Q 337.15 395.55 337.15 397.65
L 337.15 405.9
Q 337.15 408 338.95 409.05
L 402.65 445.85
Q 404.5 446.8 406.3 445.85
L 470 409.05
Q 471.8 408 471.8 405.9
L 471.8 397.65
Q 471.8 395.55 470 394.5
L 406.3 357.7
Q 404.5 356.65 402.65 357.7 Z"/>
</g>

<g id="Layer0_0_MEMBER_0_MEMBER_1_FILL">
<path fill="#8C644F" stroke="none" d="
M 402.65 358.75
L 338.95 395.55
Q 337.15 396.6 337.15 398.7
L 337.15 401.55
Q 337.15 403.65 338.95 404.7
L 402.65 441.5
Q 404.5 442.55 406.3 441.5
L 470 404.7
Q 471.8 403.65 471.8 401.55
L 471.8 398.7
Q 471.8 396.6 470 395.55
L 406.3 358.75
Q 404.5 357.7 402.65 358.75 Z"/>
</g>

<g id="Layer0_0_MEMBER_0_MEMBER_2_FILL">
<path fill="#96AD41" stroke="none" d="
M 402.65 357.7
L 338.95 394.5
Q 337.15 395.55 337.15 397.65
L 337.15 400.55
Q 337.15 402.6 338.95 403.65
L 402.65 440.45
Q 404.5 441.5 406.3 440.45
L 470 403.65
Q 471.8 402.6 471.8 400.55
L 471.8 397.65
Q 471.8 395.55 470 394.5
L 406.3 357.7
Q 404.5 356.65 402.65 357.7 Z"/>
</g>

<g id="Layer0_0_MEMBER_0_MEMBER_3_FILL">
<path fill="#829637" stroke="none" d="
M 402.65 357.7
L 338.95 394.5
Q 337.15 395.55 337.15 397.65
L 337.15 398.35
Q 337.15 400.45 338.95 401.5
L 402.65 438.3
Q 404.5 439.25 406.3 438.3
L 470 401.5
Q 471.8 400.45 471.8 398.35
L 471.8 397.65
Q 471.8 395.55 470 394.5
L 406.3 357.7
Q 404.5 356.65 402.65 357.7 Z"/>
</g>

<g id="Layer0_0_MEMBER_0_MEMBER_4_FILL">
<path fill="#000000" fill-opacity="0.2" stroke="none" d="
M 0 13.65
L 1.05 14.3
Q 2.9 15.25 4.7 14.3
L 5.75 13.65 5.75 0 0 0 0 13.65 Z"/>
</g>

<g id="Layer0_0_MEMBER_0_MEMBER_5_FILL">
<path fill="#B4CC59" stroke="none" d="
M 403.1 357.7
L 339.35 394.5
Q 337.55 395.55 337.55 397.65 337.55 399.75 339.35 400.75
L 403.1 437.55
Q 403.95 438.05 404.9 438.05 405.9 438.05 406.7 437.55
L 470.45 400.75
Q 472.25 399.75 472.25 397.65 472.25 395.55 470.45 394.5
L 406.7 357.7
Q 404.9 356.65 403.1 357.7 Z"/>
</g>

<g id="Layer0_0_MEMBER_0_MEMBER_6_FILL">
<path fill="#DDE6C0" stroke="none" d="
M 373.8 420.9
L 384.6 427.15 411.75 411.45 403.85 403.55 373.8 420.9 Z"/>
</g>

<g id="Layer0_0_MEMBER_1_MEMBER_0_FILL">
<path fill="#EBAA56" stroke="none" d="
M 446.95 368.8
L 403.9 393.6 403.9 424.35 446.95 399.5 446.95 368.8 Z"/>
</g>

<g id="Layer0_0_MEMBER_1_MEMBER_1_FILL">
<path fill="#FFCD7A" stroke="none" d="
M 403.9 394
L 382.4 368.45 360.9 369.15 360.9 399.85 385.5 414.1 386.3 413.55 397.15 419.8 396.4 420.4 403.9 424.7 403.9 394 Z"/>
</g>

<g id="Layer0_0_MEMBER_1_MEMBER_2_FILL">
<path fill="#FF788A" stroke="none" d="
M 402.7 342.45
Q 402.5 342.45 402.1 342.75
L 359.3 367.85 383.1 368.45 405.55 395.7 448.15 370.75
Q 448.4 370.75 448.55 370.5 448.75 370.2 448.65 369.65 448.55 369.1 448.15 368.65
L 425.9 342.25
Q 425.45 341.7 424.95 341.7
L 402.7 342.45 Z"/>
</g>

<g id="Layer0_0_MEMBER_1_MEMBER_3_FILL">
<path fill="#FF5D73" stroke="none" d="
M 381.85 368.45
L 383.1 368.45 405.55 395.7 448.15 370.75
Q 448.4 370.75 448.55 370.5 448.75 370.2 448.65 369.65 448.55 369.1 448.15 368.65
L 425.95 342.3 381.85 368.45 Z"/>
</g>

<g id="Layer0_0_MEMBER_1_MEMBER_4_MEMBER_0_FILL">
<path fill="#FF5D73" stroke="none" d="
M 410.85 397.95
L 410.85 408.1 411.65 408.7 411.65 398.5 410.85 397.95 Z"/>
</g>

<g id="Layer0_0_MEMBER_1_MEMBER_4_MEMBER_1_FILL">
<path fill="#FF788A" stroke="none" d="
M 417.9 394.9
L 417.1 394.3 410.85 397.95 411.65 398.5 417.9 394.9 Z"/>
</g>

<g id="Layer0_0_MEMBER_1_MEMBER_4_MEMBER_2_FILL">
<path fill="#85CDD2" stroke="none" d="
M 411.65 398.5
L 411.65 408.7 417.9 405.05 417.9 394.9 411.65 398.5 Z"/>
</g>

<g id="Layer0_0_MEMBER_1_MEMBER_4_MEMBER_3_FILL">
<path fill="#C94556" stroke="none" d="
M 411.65 408.7
L 417.9 405.05 417.9 394.9 411.65 398.5 411.65 408.7
M 412.45 407.3
L 412.45 398.95 417.1 396.25 417.1 404.6 412.45 407.3 Z"/>
</g>

<g id="Layer0_0_MEMBER_1_MEMBER_4_MEMBER_4_FILL">
<path fill="#C94556" stroke="none" d="
M 411.65 403.15
L 411.65 404 417.9 400.4 417.9 399.55 411.65 403.15 Z"/>
</g>

<g id="Layer0_0_MEMBER_1_MEMBER_5_MEMBER_0_FILL">
<path fill="#FF5D73" stroke="none" d="
M 422.7 392.9
L 421.9 392.35 421.9 402.55 422.7 403.1 422.7 392.9 Z"/>
</g>

<g id="Layer0_0_MEMBER_1_MEMBER_5_MEMBER_1_FILL">
<path fill="#FF788A" stroke="none" d="
M 422.7 392.95
L 441.7 382.2 440.9 381.65 421.9 392.35 422.7 392.95 Z"/>
</g>

<g id="Layer0_0_MEMBER_1_MEMBER_5_MEMBER_2_FILL">
<path fill="#85CDD2" stroke="none" d="
M 441.7 382.2
L 422.7 392.95 422.7 403.1 441.7 392.4 441.7 382.2 Z"/>
</g>

<g id="Layer0_0_MEMBER_1_MEMBER_5_MEMBER_3_FILL">
<path fill="#C94556" stroke="none" d="
M 441.7 382.2
L 422.7 392.95 422.7 403.1 441.7 392.4 441.7 382.2
M 440.9 383.6
L 440.9 391.95 423.5 401.75 423.5 393.4 440.9 383.6 Z"/>
</g>

<g id="Layer0_0_MEMBER_1_MEMBER_5_MEMBER_4_FILL">
<path fill="#C94556" stroke="none" d="
M 441.7 387.75
L 441.7 386.85 422.7 397.6 422.7 398.45 441.7 387.75 Z"/>
</g>

<g id="Layer0_0_MEMBER_1_MEMBER_6_MEMBER_0_FILL">
<path fill="#C94556" stroke="none" d="
M 383.3 390
L 382.55 390.55 382.55 400.2 383.3 399.65 383.3 390 Z"/>
</g>

<g id="Layer0_0_MEMBER_1_MEMBER_6_MEMBER_1_FILL">
<path fill="#FF788A" stroke="none" d="
M 364.15 379.25
L 363.4 379.8 382.55 390.55 383.3 390 364.15 379.25 Z"/>
</g>

<g id="Layer0_0_MEMBER_1_MEMBER_6_MEMBER_2_FILL">
<path fill="#FF5D73" stroke="none" d="
M 363.4 379.8
L 363.4 389.45 382.55 400.2 382.55 390.55 363.4 379.8 Z"/>
</g>

<g id="Layer0_0_MEMBER_1_MEMBER_6_MEMBER_3_FILL">
<path fill="#85CDD2" stroke="none" d="
M 364.2 381.2
L 364.2 388.95 381.75 398.8 381.75 391 364.2 381.2 Z"/>
</g>

<g id="Layer0_0_MEMBER_1_MEMBER_6_MEMBER_4_FILL">
<path fill="#FF5D73" stroke="none" d="
M 363.4 384.1
L 363.4 385.1 382.55 395.9 382.55 394.9 363.4 384.1 Z"/>
</g>

<g id="Layer0_0_MEMBER_1_MEMBER_7_FILL">
<path fill="#C94556" stroke="none" d="
M 397.15 419.8
L 397.15 397.45 386.3 391.15 386.3 413.55 397.15 419.8 Z"/>
</g>

<g id="Layer0_0_MEMBER_1_MEMBER_8_FILL">
<path fill="#EBAA56" stroke="none" d="
M 386.3 391.15
L 385.5 391.75 385.5 414.1 386.3 413.55 386.3 391.15 Z"/>
</g>

<g id="Layer0_0_MEMBER_1_MEMBER_9_FILL">
<path fill="#FFCD7A" stroke="none" d="
M 386.3 391.15
L 385.5 391.75 396.4 398 396.4 420.4 397.15 419.8 397.15 397.45 386.3 391.15 Z"/>
</g>

<g id="Layer0_0_MEMBER_1_MEMBER_10_MEMBER_0_FILL">
<path fill="#C94556" stroke="none" d="
M 360.15 370.1
L 360.65 370.25 382.4 369.55 404.15 395.4
Q 405.05 396.4 405.55 395.7 406 394.9 405.1 393.85
L 382.85 367.45
Q 382.45 366.9 381.9 366.9
L 359.7 367.6
Q 359.35 367.65 359.2 368.05 359.05 368.45 359.25 368.95 359.6 369.8 360.15 370.1 Z"/>
</g>

<g id="Layer0_0_MEMBER_1_MEMBER_11_MEMBER_0_FILL">
<path fill="#EBAA56" stroke="none" d="
M 415.8 367.85
L 409.25 383.75 409.25 389.3 422.35 381.7 422.35 376.2 415.8 367.85 Z"/>
</g>

<g id="Layer0_0_MEMBER_1_MEMBER_11_MEMBER_1_FILL">
<path fill="#FFCD7A" stroke="none" d="
M 401.85 379.5
L 401.85 385 409.25 389.3 409.25 383.75 401.85 379.5 Z"/>
</g>

<g id="Layer0_0_MEMBER_1_MEMBER_11_MEMBER_2_MEMBER_0_FILL">
<path fill="#FF5D73" stroke="none" d="
M 415.8 382.9
L 416.65 382.4
Q 417.8 381.75 418.65 380.15 419.45 378.6 419.45 377.05 419.45 375.55 418.75 374.95 418.5 374.65 418.1 374.5
L 417.7 374.4
Q 417 374.2 416.15 374.65
L 415.25 375.15
Q 414.1 375.85 413.25 377.4 412.45 379 412.45 380.55 412.45 382.35 413.5 382.85 413.9 383.2 414.3 383.2
L 414.35 383.2
Q 414.95 383.35 415.8 382.9 Z"/>
</g>

<g id="Layer0_0_MEMBER_1_MEMBER_11_MEMBER_2_MEMBER_1_FILL">
<path fill="#C94556" stroke="none" d="
M 416.65 374.9
L 415.8 375.4
Q 414.65 376.1 413.8 377.65 412.95 379.25 412.95 380.8 412.95 382.35 413.8 382.95 414.65 383.6 415.8 382.9
L 416.65 382.4
Q 417.8 381.75 418.65 380.15 419.45 378.6 419.45 377.05 419.45 375.5 418.65 374.85 417.8 374.25 416.65 374.9 Z"/>
</g>

<g id="Layer0_0_MEMBER_1_MEMBER_11_MEMBER_2_MEMBER_2_FILL">
<path fill="#85CDD2" stroke="none" d="
M 416.55 375.7
L 415.85 376.1
Q 414.9 376.6 414.25 377.9 413.6 379.15 413.6 380.4 413.6 381.7 414.25 382.15 414.9 382.65 415.85 382.1
L 416.55 381.7
Q 417.5 381.2 418.15 379.9 418.85 378.65 418.85 377.4 418.85 376.15 418.15 375.65 417.5 375.15 416.55 375.7 Z"/>
</g>

<g id="Layer0_0_MEMBER_1_MEMBER_11_MEMBER_2_MEMBER_3_FILL">
<path fill="#C94556" stroke="none" d="
M 415.9 375.35
L 415.9 382.85 416.55 382.45 416.55 374.95 415.9 375.35 Z"/>
</g>

<g id="Layer0_0_MEMBER_1_MEMBER_11_MEMBER_2_MEMBER_4_FILL">
<path fill="#C94556" stroke="none" d="
M 412.95 381.15
L 419.45 377.4 419.45 376.65 412.95 380.4 412.95 381.15 Z"/>
</g>

<g id="Layer0_0_MEMBER_1_MEMBER_11_MEMBER_3_FILL">
<path fill="#C94556" stroke="none" d="
M 401.4 379.25
Q 401.2 379.75 401.65 379.9
L 408.95 384.15 409.05 384.2 409.25 384.25
Q 409.55 384.25 409.7 383.95
L 415.95 368.8 422 376.5
Q 422.3 376.9 422.65 376.55 423.05 376.25 422.75 375.9
L 416.15 367.6
Q 416.05 367.4 415.85 367.4
L 403 359.9
Q 402.85 359.75 402.65 359.8 402.35 359.8 402.25 360.1
L 401.4 379.25 Z"/>
</g>

<g id="Layer0_0_MEMBER_1_MEMBER_11_MEMBER_4_MEMBER_0_FILL">
<path fill="#9E3442" stroke="none" d="
M 416.15 367.6
Q 416 367.4 415.75 367.4 415.55 367.4 415.35 367.7
L 408.8 383.6
Q 408.6 384 409.05 384.2
L 409.25 384.25
Q 409.55 384.25 409.7 383.95
L 415.95 368.8 422 376.5
Q 422.3 376.9 422.65 376.55 423.05 376.25 422.75 375.9
L 416.15 367.6 Z"/>
</g>

<g id="Layer0_0_MEMBER_1_MEMBER_12_MEMBER_0_FILL">
<path fill="#EBAA56" stroke="none" d="
M 437.25 354.25
L 430.7 370.1 430.7 375.65 443.8 368.05 443.8 362.55 437.25 354.25 Z"/>
</g>

<g id="Layer0_0_MEMBER_1_MEMBER_12_MEMBER_1_FILL">
<path fill="#FFCD7A" stroke="none" d="
M 430.7 370.1
L 423.3 365.85 423.3 371.35 430.7 375.65 430.7 370.1 Z"/>
</g>

<g id="Layer0_0_MEMBER_1_MEMBER_12_MEMBER_2_MEMBER_0_FILL">
<path fill="#FF5D73" stroke="none" d="
M 434.7 363.8
Q 433.9 365.35 433.9 366.9 433.9 368.7 434.95 369.2 435.35 369.55 435.75 369.55
L 435.8 369.55
Q 436.4 369.7 437.25 369.25
L 438.1 368.75
Q 439.25 368.1 440.1 366.5 440.9 364.95 440.9 363.4 440.9 362 440.2 361.3 439.95 361 439.55 360.85
L 439.15 360.75
Q 438.45 360.5 437.6 361.05
L 436.7 361.55
Q 435.55 362.2 434.7 363.8 Z"/>
</g>

<g id="Layer0_0_MEMBER_1_MEMBER_12_MEMBER_2_MEMBER_1_FILL">
<path fill="#C94556" stroke="none" d="
M 434.45 367.15
Q 434.45 368.7 435.25 369.3 436.1 369.95 437.25 369.25
L 438.1 368.75
Q 439.25 368.1 440.1 366.5 440.9 364.95 440.9 363.4 440.9 361.85 440.1 361.2 439.25 360.6 438.1 361.25
L 437.25 361.75
Q 436.1 362.45 435.25 364 434.45 365.6 434.45 367.15 Z"/>
</g>

<g id="Layer0_0_MEMBER_1_MEMBER_12_MEMBER_2_MEMBER_2_FILL">
<path fill="#85CDD2" stroke="none" d="
M 435.7 368.55
Q 436.35 369.05 437.3 368.5
L 438 368.1
Q 438.95 367.55 439.6 366.25 440.3 365 440.3 363.75 440.3 362.5 439.6 362 438.95 361.5 438 362.05
L 437.3 362.45
Q 436.35 362.95 435.7 364.25 435.05 365.5 435.05 366.75 435.05 368 435.7 368.55 Z"/>
</g>

<g id="Layer0_0_MEMBER_1_MEMBER_12_MEMBER_2_MEMBER_3_FILL">
<path fill="#C94556" stroke="none" d="
M 437.35 361.7
L 437.35 369.2 438 368.8 438 361.3 437.35 361.7 Z"/>
</g>

<g id="Layer0_0_MEMBER_1_MEMBER_12_MEMBER_2_MEMBER_4_FILL">
<path fill="#C94556" stroke="none" d="
M 434.45 367.55
L 440.9 363.8 440.9 363 434.45 366.75 434.45 367.55 Z"/>
</g>

<g id="Layer0_0_MEMBER_1_MEMBER_12_MEMBER_3_FILL">
<path fill="#C94556" stroke="none" d="
M 424.5 346.3
Q 424.3 346.15 424.1 346.15 423.8 346.15 423.7 346.45
L 422.85 365.6
Q 422.65 366.1 423.1 366.25
L 430.4 370.5 430.5 370.55 430.7 370.6
Q 431 370.6 431.15 370.3
L 437.4 355.15 443.45 362.85
Q 443.75 363.25 444.1 362.9 444.5 362.6 444.2 362.25
L 437.65 353.95 424.5 346.3 Z"/>
</g>

<g id="Layer0_0_MEMBER_1_MEMBER_12_MEMBER_4_MEMBER_0_FILL">
<path fill="#9E3442" stroke="none" d="
M 437.2 353.75
Q 436.95 353.8 436.8 354.05
L 430.25 369.95
Q 430.1 370.35 430.5 370.55
L 430.7 370.6
Q 431 370.6 431.15 370.3
L 437.4 355.15 443.45 362.85
Q 443.75 363.25 444.1 362.9 444.5 362.6 444.2 362.25
L 437.65 353.95
Q 437.45 353.75 437.2 353.75 Z"/>
</g>

<g id="Layer0_0_MEMBER_1_MEMBER_13_MEMBER_0_FILL">
<path fill="#C94556" stroke="none" d="
M 383.4 375.85
L 382.35 375.2
Q 381.3 374.6 380.45 374.9 379.65 375 379.15 375.6 378.3 376.3 378.3 378.1 378.3 380 379.3 381.9 380.3 383.85 381.7 384.65
L 382.75 385.25
Q 383.65 385.8 384.55 385.65 385.15 385.5 385.55 385.2 386.85 384.65 386.85 382.4 386.85 380.5 385.85 378.55 384.85 376.65 383.4 375.85 Z"/>
</g>

<g id="Layer0_0_MEMBER_1_MEMBER_13_MEMBER_1_FILL">
<path fill="#FF5D73" stroke="none" d="
M 381.7 384.65
L 382.75 385.25
Q 384.2 386.1 385.2 385.3 386.2 384.55 386.2 382.65 386.2 380.8 385.2 378.85 384.2 376.95 382.75 376.1
L 381.7 375.5
Q 380.3 374.7 379.3 375.45 378.3 376.2 378.3 378.1 378.3 380 379.3 381.9 380.3 383.85 381.7 384.65 Z"/>
</g>

<g id="Layer0_0_MEMBER_1_MEMBER_13_MEMBER_2_FILL">
<path fill="#85CDD2" stroke="none" d="
M 382.65 384.3
Q 383.8 384.95 384.65 384.35 385.45 383.75 385.45 382.25 385.45 380.7 384.65 379.15 383.8 377.65 382.65 376.95
L 381.8 376.45
Q 380.65 375.8 379.85 376.4 379.05 377 379.05 378.55 379.05 380.1 379.85 381.65 380.65 383.15 381.8 383.8
L 382.65 384.3 Z"/>
</g>

<g id="Layer0_0_MEMBER_1_MEMBER_13_MEMBER_3_FILL">
<path fill="#FF5D73" stroke="none" d="
M 382.65 385.2
L 382.65 376.05 381.85 375.6 381.85 384.7 382.65 385.2 Z"/>
</g>

<g id="Layer0_0_MEMBER_1_MEMBER_13_MEMBER_4_FILL">
<path fill="#FF5D73" stroke="none" d="
M 378.3 378.6
L 386.2 383.15 386.2 382.2 378.3 377.6 378.3 378.6 Z"/>
</g>
</defs>

<g transform="matrix( 7, 0, 0, 7, -2320.9,-2246.05) ">
<use xlink:href="#Layer0_0_MEMBER_0_MEMBER_0_FILL"/>
</g>

<g transform="matrix( 7, 0, 0, 7, -2320.9,-2246.05) ">
<use xlink:href="#Layer0_0_MEMBER_0_MEMBER_1_FILL"/>
</g>

<g transform="matrix( 7, 0, 0, 7, -2320.9,-2246.05) ">
<use xlink:href="#Layer0_0_MEMBER_0_MEMBER_2_FILL"/>
</g>

<g transform="matrix( 7, 0, 0, 7, -2320.9,-2246.05) ">
<use xlink:href="#Layer0_0_MEMBER_0_MEMBER_3_FILL"/>
</g>

<g transform="matrix( 7, 0, 0, 7, 490.3,774.8) ">
<use xlink:href="#Layer0_0_MEMBER_0_MEMBER_4_FILL"/>
</g>

<g transform="matrix( 7, 0, 0, 7, -2320.9,-2246.05) ">
<use xlink:href="#Layer0_0_MEMBER_0_MEMBER_5_FILL"/>
</g>

<g transform="matrix( 7, 0, 0, 7, -2320.9,-2246.05) ">
<use xlink:href="#Layer0_0_MEMBER_0_MEMBER_6_FILL"/>
</g>

<g transform="matrix( 7, 0, 0, 7, -2320.9,-2246.05) ">
<use xlink:href="#Layer0_0_MEMBER_1_MEMBER_0_FILL"/>
</g>

<g transform="matrix( 7, 0, 0, 7, -2320.9,-2246.05) ">
<use xlink:href="#Layer0_0_MEMBER_1_MEMBER_1_FILL"/>
</g>

<g transform="matrix( 7, 0, 0, 7, -2320.9,-2246.05) ">
<use xlink:href="#Layer0_0_MEMBER_1_MEMBER_2_FILL"/>
</g>

<g transform="matrix( 7, 0, 0, 7, -2320.9,-2246.05) ">
<use xlink:href="#Layer0_0_MEMBER_1_MEMBER_3_FILL"/>
</g>

<g transform="matrix( 7, 0, 0, 7, -2320.9,-2246.05) ">
<use xlink:href="#Layer0_0_MEMBER_1_MEMBER_4_MEMBER_0_FILL"/>
</g>

<g transform="matrix( 7, 0, 0, 7, -2320.9,-2246.05) ">
<use xlink:href="#Layer0_0_MEMBER_1_MEMBER_4_MEMBER_1_FILL"/>
</g>

<g transform="matrix( 7, 0, 0, 7, -2320.9,-2246.05) ">
<use xlink:href="#Layer0_0_MEMBER_1_MEMBER_4_MEMBER_2_FILL"/>
</g>

<g transform="matrix( 7, 0, 0, 7, -2320.9,-2246.05) ">
<use xlink:href="#Layer0_0_MEMBER_1_MEMBER_4_MEMBER_3_FILL"/>
</g>

<g transform="matrix( 7, 0, 0, 7, -2320.9,-2246.05) ">
<use xlink:href="#Layer0_0_MEMBER_1_MEMBER_4_MEMBER_4_FILL"/>
</g>

<g transform="matrix( 7, 0, 0, 7, -2320.9,-2246.05) ">
<use xlink:href="#Layer0_0_MEMBER_1_MEMBER_5_MEMBER_0_FILL"/>
</g>

<g transform="matrix( 7, 0, 0, 7, -2320.9,-2246.05) ">
<use xlink:href="#Layer0_0_MEMBER_1_MEMBER_5_MEMBER_1_FILL"/>
</g>

<g transform="matrix( 7, 0, 0, 7, -2320.9,-2246.05) ">
<use xlink:href="#Layer0_0_MEMBER_1_MEMBER_5_MEMBER_2_FILL"/>
</g>

<g transform="matrix( 7, 0, 0, 7, -2320.9,-2246.05) ">
<use xlink:href="#Layer0_0_MEMBER_1_MEMBER_5_MEMBER_3_FILL"/>
</g>

<g transform="matrix( 7, 0, 0, 7, -2320.9,-2246.05) ">
<use xlink:href="#Layer0_0_MEMBER_1_MEMBER_5_MEMBER_4_FILL"/>
</g>

<g transform="matrix( 7, 0, 0, 7, -2320.9,-2246.05) ">
<use xlink:href="#Layer0_0_MEMBER_1_MEMBER_6_MEMBER_0_FILL"/>
</g>

<g transform="matrix( 7, 0, 0, 7, -2320.9,-2246.05) ">
<use xlink:href="#Layer0_0_MEMBER_1_MEMBER_6_MEMBER_1_FILL"/>
</g>

<g transform="matrix( 7, 0, 0, 7, -2320.9,-2246.05) ">
<use xlink:href="#Layer0_0_MEMBER_1_MEMBER_6_MEMBER_2_FILL"/>
</g>

<g transform="matrix( 7, 0, 0, 7, -2320.9,-2246.05) ">
<use xlink:href="#Layer0_0_MEMBER_1_MEMBER_6_MEMBER_3_FILL"/>
</g>

<g transform="matrix( 7, 0, 0, 7, -2320.9,-2246.05) ">
<use xlink:href="#Layer0_0_MEMBER_1_MEMBER_6_MEMBER_4_FILL"/>
</g>

<g transform="matrix( 7, 0, 0, 7, -2320.9,-2246.05) ">
<use xlink:href="#Layer0_0_MEMBER_1_MEMBER_7_FILL"/>
</g>

<g transform="matrix( 7, 0, 0, 7, -2320.9,-2246.05) ">
<use xlink:href="#Layer0_0_MEMBER_1_MEMBER_8_FILL"/>
</g>

<g transform="matrix( 7, 0, 0, 7, -2320.9,-2246.05) ">
<use xlink:href="#Layer0_0_MEMBER_1_MEMBER_9_FILL"/>
</g>

<g transform="matrix( 7, 0, 0, 7, -2320.9,-2246.05) ">
<use xlink:href="#Layer0_0_MEMBER_1_MEMBER_10_MEMBER_0_FILL"/>
</g>

<g transform="matrix( 7, 0, 0, 7, -2320.9,-2246.05) ">
<use xlink:href="#Layer0_0_MEMBER_1_MEMBER_11_MEMBER_0_FILL"/>
</g>

<g transform="matrix( 7, 0, 0, 7, -2320.9,-2246.05) ">
<use xlink:href="#Layer0_0_MEMBER_1_MEMBER_11_MEMBER_1_FILL"/>
</g>

<g transform="matrix( 7, 0, 0, 7, -2320.9,-2246.05) ">
<use xlink:href="#Layer0_0_MEMBER_1_MEMBER_11_MEMBER_2_MEMBER_0_FILL"/>
</g>

<g transform="matrix( 7, 0, 0, 7, -2320.9,-2246.05) ">
<use xlink:href="#Layer0_0_MEMBER_1_MEMBER_11_MEMBER_2_MEMBER_1_FILL"/>
</g>

<g transform="matrix( 7, 0, 0, 7, -2320.9,-2246.05) ">
<use xlink:href="#Layer0_0_MEMBER_1_MEMBER_11_MEMBER_2_MEMBER_2_FILL"/>
</g>

<g transform="matrix( 7, 0, 0, 7, -2320.9,-2246.05) ">
<use xlink:href="#Layer0_0_MEMBER_1_MEMBER_11_MEMBER_2_MEMBER_3_FILL"/>
</g>

<g transform="matrix( 7, 0, 0, 7, -2320.9,-2246.05) ">
<use xlink:href="#Layer0_0_MEMBER_1_MEMBER_11_MEMBER_2_MEMBER_4_FILL"/>
</g>

<g transform="matrix( 7, 0, 0, 7, -2320.9,-2246.05) ">
<use xlink:href="#Layer0_0_MEMBER_1_MEMBER_11_MEMBER_3_FILL"/>
</g>

<g transform="matrix( 7, 0, 0, 7, -2320.9,-2246.05) ">
<use xlink:href="#Layer0_0_MEMBER_1_MEMBER_11_MEMBER_4_MEMBER_0_FILL"/>
</g>

<g transform="matrix( 7, 0, 0, 7, -2320.9,-2246.05) ">
<use xlink:href="#Layer0_0_MEMBER_1_MEMBER_12_MEMBER_0_FILL"/>
</g>

<g transform="matrix( 7, 0, 0, 7, -2320.9,-2246.05) ">
<use xlink:href="#Layer0_0_MEMBER_1_MEMBER_12_MEMBER_1_FILL"/>
</g>

<g transform="matrix( 7, 0, 0, 7, -2320.9,-2246.05) ">
<use xlink:href="#Layer0_0_MEMBER_1_MEMBER_12_MEMBER_2_MEMBER_0_FILL"/>
</g>

<g transform="matrix( 7, 0, 0, 7, -2320.9,-2246.05) ">
<use xlink:href="#Layer0_0_MEMBER_1_MEMBER_12_MEMBER_2_MEMBER_1_FILL"/>
</g>

<g transform="matrix( 7, 0, 0, 7, -2320.9,-2246.05) ">
<use xlink:href="#Layer0_0_MEMBER_1_MEMBER_12_MEMBER_2_MEMBER_2_FILL"/>
</g>

<g transform="matrix( 7, 0, 0, 7, -2320.9,-2246.05) ">
<use xlink:href="#Layer0_0_MEMBER_1_MEMBER_12_MEMBER_2_MEMBER_3_FILL"/>
</g>

<g transform="matrix( 7, 0, 0, 7, -2320.9,-2246.05) ">
<use xlink:href="#Layer0_0_MEMBER_1_MEMBER_12_MEMBER_2_MEMBER_4_FILL"/>
</g>

<g transform="matrix( 7, 0, 0, 7, -2320.9,-2246.05) ">
<use xlink:href="#Layer0_0_MEMBER_1_MEMBER_12_MEMBER_3_FILL"/>
</g>

<g transform="matrix( 7, 0, 0, 7, -2320.9,-2246.05) ">
<use xlink:href="#Layer0_0_MEMBER_1_MEMBER_12_MEMBER_4_MEMBER_0_FILL"/>
</g>

<g transform="matrix( 7, 0, 0, 7, -2320.9,-2246.05) ">
<use xlink:href="#Layer0_0_MEMBER_1_MEMBER_13_MEMBER_0_FILL"/>
</g>

<g transform="matrix( 7, 0, 0, 7, -2320.9,-2246.05) ">
<use xlink:href="#Layer0_0_MEMBER_1_MEMBER_13_MEMBER_1_FILL"/>
</g>

<g transform="matrix( 7, 0, 0, 7, -2320.9,-2246.05) ">
<use xlink:href="#Layer0_0_MEMBER_1_MEMBER_13_MEMBER_2_FILL"/>
</g>

<g transform="matrix( 7, 0, 0, 7, -2320.9,-2246.05) ">
<use xlink:href="#Layer0_0_MEMBER_1_MEMBER_13_MEMBER_3_FILL"/>
</g>

<g transform="matrix( 7, 0, 0, 7, -2320.9,-2246.05) ">
<use xlink:href="#Layer0_0_MEMBER_1_MEMBER_13_MEMBER_4_FILL"/>
</g>
</svg>
