<?xml version="1.0" encoding="utf-8"?>
<!-- Generator: Adobe Illustrator 23.0.2, SVG Export Plug-In . SVG Version: 6.00 Build 0)  -->
<svg version="1.1" id="图层_1" xmlns="http://www.w3.org/2000/svg" xmlns:xlink="http://www.w3.org/1999/xlink" x="0px" y="0px"
	 viewBox="0 0 800 800" style="enable-background:new 0 0 800 800;" xml:space="preserve">
<style type="text/css">
	.st0{fill:#5EAC24;}
	.st1{fill:#FFFFFF;}
	.st2{fill:none;stroke:#000000;stroke-width:4;stroke-linecap:round;stroke-miterlimit:10;}
	.st3{fill:none;stroke:#FFFFFF;stroke-width:7;stroke-linecap:round;stroke-miterlimit:10;}
	.st4{fill:#91DC5B;}
	.st5{fill:none;stroke:#3E5235;stroke-width:6;stroke-linecap:round;stroke-linejoin:round;stroke-miterlimit:10;}
	.st6{fill:#FFCE00;}
	.st7{fill:#B6EF89;}
</style>
<g>
	<g>
		<polygon class="st0" points="450.9,46.3 223,423.5 450.9,423.5 678.7,423.5 		"/>
		<polygon class="st1" points="450.9,46.3 383,158.7 427.3,137.5 448.3,164.9 473.2,137.5 507.3,164.9 514.6,151.8 		"/>
		<polyline class="st2" points="583.4,423.5 678.7,423.5 450.9,46.3 322.5,258.8 		"/>
		<polyline class="st2" points="299.2,297.4 223,423.5 450.9,423.5 516.8,423.5 		"/>
		<line class="st2" x1="315.1" y1="271.1" x2="305.5" y2="286.9"/>
		<polygon class="st2" points="450.9,46.3 383,158.7 427.3,137.5 448.3,164.9 473.2,137.5 507.3,164.9 514.6,151.8 		"/>
		<line class="st3" x1="358.3" y1="229.8" x2="319.5" y2="292.4"/>
	</g>
	<path class="st2" d="M242.6,425.1"/>
	<line class="st2" x1="616.2" y1="425.8" x2="646.2" y2="425.8"/>
	<g>
		<polygon class="st4" points="596.1,164.2 438.1,425.8 596.1,425.8 754.1,425.8 		"/>
		<polygon class="st1" points="596.1,164.2 549,242.1 579.8,227.4 594.3,246.5 611.6,227.4 635.2,246.5 640.3,237.4 		"/>
		<polyline class="st2" points="688,425.8 754.1,425.8 596.1,164.2 507.1,311.5 		"/>
		<polyline class="st2" points="490.9,338.3 438.1,425.8 596.1,425.8 641.8,425.8 		"/>
		<line class="st2" x1="502" y1="320.1" x2="495.3" y2="331"/>
		<polygon class="st2" points="596.1,164.2 549,242.1 579.8,227.4 594.3,246.5 611.6,227.4 635.2,246.5 640.3,237.4 		"/>
	</g>
	<line class="st2" x1="193.1" y1="425.8" x2="223" y2="425.8"/>
	<line class="st2" x1="750.7" y1="425.8" x2="780.7" y2="425.8"/>
</g>
<g>
	<path class="st4" d="M259.2,662.8L259.2,662.8c-19.7,0-35.8-16-35.8-35.8v-63c0-19.7,16-35.8,35.8-35.8h0c19.7,0,35.8,16,35.8,35.8
		v63C295,646.8,279,662.8,259.2,662.8z"/>
	<path class="st5" d="M259.2,662.8L259.2,662.8c-19.7,0-35.8-16-35.8-35.8v-63c0-19.7,16-35.8,35.8-35.8h0c19.7,0,35.8,16,35.8,35.8
		v63C295,646.8,279,662.8,259.2,662.8z"/>
	<line class="st5" x1="259.2" y1="561.2" x2="259.2" y2="730.6"/>
	<line class="st5" x1="259.2" y1="591.1" x2="236.3" y2="573"/>
	<line class="st5" x1="259.2" y1="611.8" x2="282.1" y2="593.7"/>
	<line class="st5" x1="259.2" y1="641.4" x2="236.3" y2="623.3"/>
	<path class="st5" d="M276.5,597.7"/>
</g>
<g>
	<path class="st0" d="M142.7,664.6H55.1c-2.3,0-3.9-2.2-3.2-4.3l41.3-134.3c1.7-5.6,9.7-5.6,11.5,0l41.3,134.3
		C146.6,662.4,145,664.6,142.7,664.6z"/>
	<path class="st5" d="M142.7,664.6H55.1c-2.3,0-3.9-2.2-3.2-4.3l41.3-134.3c1.7-5.6,9.7-5.6,11.5,0l41.3,134.3
		C146.6,662.4,145,664.6,142.7,664.6z"/>
	<g>
		<line class="st5" x1="98.9" y1="560.1" x2="98.9" y2="720.1"/>
		<line class="st5" x1="98.9" y1="602.3" x2="118.3" y2="587"/>
		<line class="st5" x1="98.9" y1="619.8" x2="79.6" y2="604.5"/>
		<line class="st5" x1="98.9" y1="644.7" x2="118.3" y2="629.5"/>
		<path class="st5" d="M84.4,607.9"/>
	</g>
</g>
<g>
	<path class="st6" d="M174.7,704.5c-30.9,0-56,25.1-56,56h111.9C230.7,729.6,205.6,704.5,174.7,704.5z"/>
	<path class="st5" d="M174.7,704.5c-30.9,0-56,25.1-56,56h111.9C230.7,729.6,205.6,704.5,174.7,704.5z"/>
</g>
<g>
	<path class="st7" d="M98.9,715.9c-24.6,0-44.6,20-44.6,44.6h89.2C143.6,735.9,123.6,715.9,98.9,715.9z"/>
	<path class="st5" d="M98.9,715.9c-24.6,0-44.6,20-44.6,44.6h89.2C143.6,735.9,123.6,715.9,98.9,715.9z"/>
</g>
<g>
	<path class="st7" d="M263.9,720.1c-22.3,0-40.4,18.1-40.4,40.4h80.8C304.3,738.2,286.2,720.1,263.9,720.1z"/>
	<path class="st5" d="M263.9,720.1c-22.3,0-40.4,18.1-40.4,40.4h80.8C304.3,738.2,286.2,720.1,263.9,720.1z"/>
</g>
</svg>
