<svg id="图层_1" data-name="图层 1" xmlns="http://www.w3.org/2000/svg" xmlns:xlink="http://www.w3.org/1999/xlink" viewBox="0 0 200 200"><defs><style>.cls-1{fill:none;clip-rule:evenodd;}.cls-2{fill:#ccb9be;}.cls-10,.cls-100,.cls-101,.cls-102,.cls-103,.cls-104,.cls-105,.cls-106,.cls-107,.cls-108,.cls-109,.cls-11,.cls-110,.cls-111,.cls-112,.cls-113,.cls-114,.cls-115,.cls-116,.cls-117,.cls-118,.cls-12,.cls-120,.cls-121,.cls-122,.cls-123,.cls-124,.cls-125,.cls-126,.cls-127,.cls-128,.cls-13,.cls-130,.cls-131,.cls-132,.cls-133,.cls-135,.cls-136,.cls-137,.cls-138,.cls-139,.cls-14,.cls-140,.cls-141,.cls-142,.cls-143,.cls-144,.cls-145,.cls-146,.cls-147,.cls-148,.cls-15,.cls-16,.cls-17,.cls-18,.cls-19,.cls-2,.cls-20,.cls-21,.cls-22,.cls-24,.cls-25,.cls-26,.cls-27,.cls-28,.cls-29,.cls-3,.cls-30,.cls-31,.cls-32,.cls-35,.cls-36,.cls-37,.cls-38,.cls-39,.cls-4,.cls-40,.cls-41,.cls-42,.cls-43,.cls-44,.cls-45,.cls-46,.cls-47,.cls-48,.cls-49,.cls-5,.cls-50,.cls-51,.cls-52,.cls-53,.cls-54,.cls-55,.cls-56,.cls-57,.cls-58,.cls-59,.cls-60,.cls-61,.cls-62,.cls-63,.cls-64,.cls-65,.cls-66,.cls-67,.cls-68,.cls-69,.cls-7,.cls-70,.cls-71,.cls-72,.cls-73,.cls-74,.cls-75,.cls-76,.cls-77,.cls-78,.cls-79,.cls-8,.cls-80,.cls-81,.cls-82,.cls-83,.cls-84,.cls-85,.cls-86,.cls-87,.cls-88,.cls-89,.cls-9,.cls-90,.cls-91,.cls-92,.cls-93,.cls-94,.cls-95,.cls-96,.cls-97,.cls-98,.cls-99{fill-rule:evenodd;}.cls-3{fill:#f0e7e8;}.cls-4{fill:#868082;}.cls-5{fill:#c1b8bb;}.cls-6{fill:#c9c9c9;}.cls-7{fill:#fff7ee;}.cls-8{fill:#c3b5b4;}.cls-9{fill:#a28c8e;}.cls-10{fill:#706753;}.cls-11{fill:#836d70;}.cls-12{fill:#c0b5a1;}.cls-13{fill:#3c292b;}.cls-14{fill:#8e8e8e;}.cls-15{fill:url(#linear-gradient);}.cls-16{fill:url(#linear-gradient-2);}.cls-17{fill:#666;}.cls-18{fill:#999;}.cls-19{fill:#fff;}.cls-20{fill:#acacac;}.cls-21{fill:#cacaca;}.cls-22{fill:url(#linear-gradient-3);}.cls-23{fill:url(#linear-gradient-4);}.cls-24{fill:url(#linear-gradient-5);}.cls-25{fill:url(#linear-gradient-6);}.cls-26{fill:url(#linear-gradient-7);}.cls-27{fill:#b5b5b5;}.cls-28{fill:url(#linear-gradient-8);}.cls-29{fill:url(#linear-gradient-9);}.cls-30{fill:url(#linear-gradient-10);}.cls-31{fill:url(#linear-gradient-11);}.cls-32{fill:url(#linear-gradient-12);}.cls-33{clip-path:url(#clip-path);}.cls-34,.cls-35{fill:#ef4923;}.cls-36{fill:#ee4823;}.cls-37{fill:#ed4822;}.cls-38{fill:#ec4722;}.cls-39{fill:#eb4721;}.cls-40{fill:#ea4621;}.cls-41{fill:#e94620;}.cls-42{fill:#e84520;}.cls-43{fill:#e7441f;}.cls-44{fill:#e6441f;}.cls-45{fill:#e5431e;}.cls-46{fill:#e4431e;}.cls-47{fill:#e3421d;}.cls-48{fill:#e2421d;}.cls-49{fill:#e1411c;}.cls-50{fill:#e0401c;}.cls-51{fill:#df401c;}.cls-52{fill:#de3f1b;}.cls-53{fill:#dd3f1b;}.cls-54{fill:#dc3e1a;}.cls-55{fill:#db3e1a;}.cls-56{fill:#da3d19;}.cls-57{fill:#d93c19;}.cls-58{fill:#d83c18;}.cls-59{fill:#d73b18;}.cls-60{fill:#d63b17;}.cls-61{fill:#d53a17;}.cls-62{fill:#d43a16;}.cls-63{fill:#d33916;}.cls-64{fill:#d23815;}.cls-65{fill:#d13815;}.cls-66{fill:#d03715;}.cls-67{fill:#cf3714;}.cls-68{fill:#ce3614;}.cls-69{fill:#cd3613;}.cls-70{fill:#cc3513;}.cls-71{fill:#cb3412;}.cls-72{fill:#ca3412;}.cls-73{fill:#c83311;}.cls-74{fill:#c73311;}.cls-75{fill:#c63210;}.cls-76{fill:#c53110;}.cls-77{fill:#c4310f;}.cls-78{fill:#c3300f;}.cls-79{fill:#c2300e;}.cls-80{fill:#c12f0e;}.cls-81{fill:#c02f0e;}.cls-82{fill:#bf2e0d;}.cls-83{fill:#be2d0d;}.cls-84{fill:#bd2d0c;}.cls-85{fill:#bc2c0c;}.cls-86{fill:#bb2c0b;}.cls-87{fill:#ba2b0b;}.cls-88{fill:#b92b0a;}.cls-89{fill:#b82a0a;}.cls-90{fill:#b72909;}.cls-91{fill:#b62909;}.cls-92{fill:#b52808;}.cls-93{fill:#b42808;}.cls-94{fill:#b32707;}.cls-95{fill:#b22707;}.cls-96{fill:#b12607;}.cls-97{fill:#b02506;}.cls-98{fill:#af2506;}.cls-99{fill:#ae2405;}.cls-100{fill:#ad2405;}.cls-101{fill:#ac2304;}.cls-102{fill:#ab2304;}.cls-103{fill:#aa2203;}.cls-104{fill:#a92103;}.cls-105{fill:#a82102;}.cls-106{fill:#a72002;}.cls-107{fill:#a62001;}.cls-108{fill:#a51f01;}.cls-109{fill:#a41f00;}.cls-110{fill:#a31e00;}.cls-111{fill:url(#linear-gradient-13);}.cls-112{fill:url(#linear-gradient-14);}.cls-113{fill:#727272;}.cls-114{fill:url(#radial-gradient);}.cls-115{fill:url(#linear-gradient-15);}.cls-116{fill:url(#linear-gradient-16);}.cls-117{fill:url(#linear-gradient-17);}.cls-118{fill:url(#linear-gradient-18);}.cls-119{clip-path:url(#clip-path-2);}.cls-120{fill:url(#linear-gradient-19);}.cls-121{fill:url(#linear-gradient-20);}.cls-122{fill:url(#linear-gradient-21);}.cls-123{fill:url(#linear-gradient-22);}.cls-124{fill:url(#linear-gradient-23);}.cls-125{fill:url(#linear-gradient-24);}.cls-126{fill:url(#linear-gradient-25);}.cls-127{fill:url(#radial-gradient-2);}.cls-128{fill:url(#linear-gradient-26);}.cls-129{clip-path:url(#clip-path-3);}.cls-130{fill:url(#linear-gradient-27);}.cls-131{fill:url(#linear-gradient-28);}.cls-132{fill:url(#linear-gradient-29);}.cls-133{fill:url(#linear-gradient-30);}.cls-134{clip-path:url(#clip-path-4);}.cls-135{fill:url(#linear-gradient-31);}.cls-136{fill:url(#linear-gradient-32);}.cls-137{fill:url(#linear-gradient-33);}.cls-138{fill:url(#linear-gradient-34);}.cls-139{fill:url(#linear-gradient-35);}.cls-140{fill:url(#radial-gradient-3);}.cls-141{fill:url(#linear-gradient-36);}.cls-142{fill:url(#linear-gradient-37);}.cls-143{fill:url(#linear-gradient-38);}.cls-144{fill:url(#radial-gradient-4);}.cls-145{fill:url(#linear-gradient-39);}.cls-146{fill:url(#linear-gradient-40);}.cls-147{fill:url(#linear-gradient-41);}.cls-148{fill:url(#linear-gradient-42);}.cls-149{fill:#fc0;}</style><linearGradient id="linear-gradient" x1="-777.41" y1="2392.6" x2="-676.61" y2="2392.6" gradientTransform="matrix(0.17, 0.1, 0, 0.19, 227.25, -287.86)" gradientUnits="userSpaceOnUse"><stop offset="0" stop-color="#d9d9d9"/><stop offset="1" stop-color="#afafaf"/></linearGradient><linearGradient id="linear-gradient-2" x1="1895.94" y1="7595.23" x2="1895.94" y2="7714.46" gradientTransform="matrix(0.15, 0.09, -0.05, 0.03, 209.29, -312.03)" gradientUnits="userSpaceOnUse"><stop offset="0" stop-color="#f0f0f0"/><stop offset="1" stop-color="#e0e0e0"/></linearGradient><linearGradient id="linear-gradient-3" x1="1380.89" y1="3030.7" x2="1380.89" y2="3149.99" gradientTransform="matrix(0.19, 0.12, -0.12, 0.07, 204.7, -298.34)" xlink:href="#linear-gradient-2"/><linearGradient id="linear-gradient-4" x1="2973.3" y1="-711.52" x2="3044.51" y2="-711.52" gradientTransform="matrix(0, 0.1, 0.39, 0, 363.55, -230.23)" gradientUnits="userSpaceOnUse"><stop offset="0" stop-color="#e1e1e1"/><stop offset="1" stop-color="#8e8e8e"/></linearGradient><linearGradient id="linear-gradient-5" x1="2956.54" y1="-4238.25" x2="3027.35" y2="-4238.25" gradientTransform="matrix(0.05, 0.09, 0.06, -0.03, 176.61, -330.79)" xlink:href="#linear-gradient-4"/><linearGradient id="linear-gradient-6" x1="-804.63" y1="2423.89" x2="-703.82" y2="2423.89" gradientTransform="matrix(0.17, 0.1, 0, 0.19, 212.05, -278.01)" xlink:href="#linear-gradient"/><linearGradient id="linear-gradient-7" x1="1897.72" y1="7695.16" x2="1897.72" y2="7814.41" gradientTransform="matrix(0.15, 0.09, -0.05, 0.03, 194.09, -302.18)" xlink:href="#linear-gradient-2"/><linearGradient id="linear-gradient-8" x1="359.9" y1="1922.49" x2="460.69" y2="1922.49" gradientTransform="matrix(-0.11, 0.07, 0, 0.19, 157.4, -286.26)" xlink:href="#linear-gradient"/><linearGradient id="linear-gradient-9" x1="3981.88" y1="6090.18" x2="3981.88" y2="6209.38" gradientTransform="matrix(-0.09, 0.06, 0.05, 0.03, 169.93, -307.05)" xlink:href="#linear-gradient-2"/><linearGradient id="linear-gradient-10" x1="-1052" y1="-207.61" x2="-1050.75" y2="-207.61" gradientTransform="matrix(-0.5, -0.87, 0.87, -0.49, -251.19, -943.88)" gradientUnits="userSpaceOnUse"><stop offset="0" stop-color="#e26666"/><stop offset="1" stop-color="#6b0000"/></linearGradient><linearGradient id="linear-gradient-11" x1="93.33" y1="49.84" x2="92.48" y2="55.38" gradientUnits="userSpaceOnUse"><stop offset="0" stop-color="#a31e00"/><stop offset="0.29" stop-color="#ef4923"/></linearGradient><linearGradient id="linear-gradient-12" x1="92.3" y1="55.88" x2="91.64" y2="61.09" xlink:href="#linear-gradient-11"/><clipPath id="clip-path"><path class="cls-1" d="M94,50.08,94,50.6a1.27,1.27,0,0,1-1.44-.26l.06-.46.2-1.44a.79.79,0,0,1,.33-.52.44.44,0,0,1,.45-.14.67.67,0,0,1,.59.27.69.69,0,0,1,.14.59Z"/></clipPath><linearGradient id="linear-gradient-13" x1="91.29" y1="62.04" x2="90.45" y2="69.22" xlink:href="#linear-gradient-11"/><linearGradient id="linear-gradient-14" x1="90.73" y1="72.55" x2="89.19" y2="72.33" gradientUnits="userSpaceOnUse"><stop offset="0" stop-color="#7e7e7e"/><stop offset="1" stop-color="#d6d6d6"/></linearGradient><radialGradient id="radial-gradient" cx="-160.25" cy="153.37" r="2.06" gradientTransform="matrix(0.91, -0.41, 0.42, 0.91, 154.94, -152.26)" gradientUnits="userSpaceOnUse"><stop offset="0.18" stop-color="#a31e00"/><stop offset="0.94" stop-color="#ef4923"/></radialGradient><linearGradient id="linear-gradient-15" x1="74.04" y1="54.89" x2="76.36" y2="60" xlink:href="#linear-gradient-11"/><linearGradient id="linear-gradient-16" x1="76.51" y1="60.63" x2="78.8" y2="65.35" xlink:href="#linear-gradient-11"/><linearGradient id="linear-gradient-17" x1="79.01" y1="66.21" x2="82.2" y2="72.69" xlink:href="#linear-gradient-11"/><linearGradient id="linear-gradient-18" x1="84.24" y1="75.39" x2="82.83" y2="76.04" xlink:href="#linear-gradient-14"/><clipPath id="clip-path-2"><path class="cls-1" d="M101.06,53.29l-.07.52a1.38,1.38,0,0,1-1.51-.26l.07-.52.2-1.44a1.16,1.16,0,0,1,.32-.53.82.82,0,0,1,.46-.13.85.85,0,0,1,.59.33.9.9,0,0,1,.07.59Z"/></clipPath><linearGradient id="linear-gradient-19" x1="100.3" y1="53.05" x2="99.45" y2="58.59" xlink:href="#linear-gradient-11"/><linearGradient id="linear-gradient-20" x1="99.25" y1="59.1" x2="98.59" y2="64.31" xlink:href="#linear-gradient-11"/><linearGradient id="linear-gradient-21" x1="98.25" y1="65.19" x2="97.41" y2="72.37" xlink:href="#linear-gradient-11"/><linearGradient id="linear-gradient-22" x1="97.68" y1="75.73" x2="96.14" y2="75.5" xlink:href="#linear-gradient-14"/><linearGradient id="linear-gradient-23" x1="82.53" y1="64.24" x2="84.82" y2="68.97" xlink:href="#linear-gradient-11"/><linearGradient id="linear-gradient-24" x1="85.04" y1="69.88" x2="88.24" y2="76.36" xlink:href="#linear-gradient-11"/><linearGradient id="linear-gradient-25" x1="90.25" y1="79.01" x2="88.84" y2="79.66" xlink:href="#linear-gradient-14"/><radialGradient id="radial-gradient-2" cx="-156.25" cy="159.16" r="2.06" xlink:href="#radial-gradient"/><linearGradient id="linear-gradient-26" x1="80.08" y1="58.55" x2="82.41" y2="63.67" xlink:href="#linear-gradient-11"/><clipPath id="clip-path-3"><path class="cls-1" d="M112.2,59.91l-.06.53a1.29,1.29,0,0,1-1.45-.27l.07-.46.19-1.5a.87.87,0,0,1,.33-.46.45.45,0,0,1,.46-.13.76.76,0,0,1,.53.26.53.53,0,0,1,.13.59Z"/></clipPath><linearGradient id="linear-gradient-27" x1="111.49" y1="59.67" x2="110.64" y2="65.21" xlink:href="#linear-gradient-11"/><linearGradient id="linear-gradient-28" x1="110.46" y1="65.72" x2="109.8" y2="70.93" xlink:href="#linear-gradient-11"/><linearGradient id="linear-gradient-29" x1="109.46" y1="71.81" x2="108.61" y2="78.99" xlink:href="#linear-gradient-11"/><linearGradient id="linear-gradient-30" x1="108.89" y1="82.35" x2="107.35" y2="82.13" xlink:href="#linear-gradient-14"/><clipPath id="clip-path-4"><path class="cls-1" d="M106.89,56.7l-.06.52a1.29,1.29,0,0,1-1.51-.19l.06-.53.2-1.44a.79.79,0,0,1,.79-.66,1.12,1.12,0,0,1,.59.27.91.91,0,0,1,.13.65Z"/></clipPath><linearGradient id="linear-gradient-31" x1="106.15" y1="56.45" x2="105.3" y2="61.99" xlink:href="#linear-gradient-11"/><linearGradient id="linear-gradient-32" x1="105.09" y1="62.51" x2="104.43" y2="67.72" xlink:href="#linear-gradient-11"/><linearGradient id="linear-gradient-33" x1="104.08" y1="68.67" x2="103.24" y2="75.84" xlink:href="#linear-gradient-11"/><linearGradient id="linear-gradient-34" x1="103.51" y1="79.17" x2="101.97" y2="78.95" xlink:href="#linear-gradient-14"/><linearGradient id="linear-gradient-35" x1="85.93" y1="61.96" x2="88.26" y2="67.07" xlink:href="#linear-gradient-11"/><radialGradient id="radial-gradient-3" cx="-152.44" cy="164.58" r="2.06" xlink:href="#radial-gradient"/><linearGradient id="linear-gradient-36" x1="88.38" y1="67.71" x2="90.67" y2="72.43" xlink:href="#linear-gradient-11"/><linearGradient id="linear-gradient-37" x1="90.9" y1="73.37" x2="94.1" y2="79.85" xlink:href="#linear-gradient-11"/><linearGradient id="linear-gradient-38" x1="96.12" y1="82.48" x2="94.7" y2="83.14" xlink:href="#linear-gradient-14"/><radialGradient id="radial-gradient-4" cx="-148.54" cy="169.96" r="2.06" xlink:href="#radial-gradient"/><linearGradient id="linear-gradient-39" x1="91.71" y1="65.32" x2="94.04" y2="70.44" xlink:href="#linear-gradient-11"/><linearGradient id="linear-gradient-40" x1="94.2" y1="71.03" x2="96.49" y2="75.75" xlink:href="#linear-gradient-11"/><linearGradient id="linear-gradient-41" x1="96.7" y1="76.64" x2="99.89" y2="83.12" xlink:href="#linear-gradient-11"/><linearGradient id="linear-gradient-42" x1="101.94" y1="85.8" x2="100.53" y2="86.45" xlink:href="#linear-gradient-14"/></defs><title>工厂4</title><polygon class="cls-2" points="110.7 58.86 200 110.42 110.19 162.38 89.53 162.38 0.23 110.77 90.04 58.86 110.7 58.86"/><polygon class="cls-3" points="89.3 153.87 0 102.27 89.81 50.3 179.11 101.91 89.3 153.87"/><polygon class="cls-4" points="179.11 102.01 179.11 110.48 89.25 162.34 89.25 153.87 179.11 102.01"/><polygon class="cls-5" points="89.3 162.34 0.05 110.73 0.05 102.27 89.3 153.82 89.3 162.34"/><path class="cls-5" d="M90.78,144.29a1.89,1.89,0,0,1-1.73.81,15.51,15.51,0,0,1-3.11-.35V142a3.15,3.15,0,0,1,3.21-1.37c1.49.06,2.24.64,2.24,1.73A2.75,2.75,0,0,1,90.78,144.29Z"/><path class="cls-5" d="M77,136.89a2,2,0,0,1,2.19,0,2.24,2.24,0,0,0,.51,1.18,1.6,1.6,0,0,1-.2.86c-.17.24-.55.36-1.12.36l-1.84-.2h-.1c-.1,0-.15-.28-.15-.82A1.7,1.7,0,0,1,77,136.89Z"/><path class="cls-5" d="M90,134.85l-.16.62a.28.28,0,0,0,0,.35c0,.11-.29.16-.86.16a3.1,3.1,0,0,1-2.35-.77l-.15-.61.15-.82,3.06-.1Z"/><path class="cls-5" d="M102.1,67l-1.07.15a23.57,23.57,0,0,1-4.13-.4q-.15.15-.15-1.23c0-1.26.93-1.94,2.8-2s2.81.56,2.81,2A2.64,2.64,0,0,1,102.1,67Z"/><path class="cls-5" d="M91.65,59.08l-.26,1.17a9.5,9.5,0,0,1-2.45.25l-.2-.25a2.31,2.31,0,0,1-.2-1.12q0-1,.81-1a11.35,11.35,0,0,1,2,0Z"/><path class="cls-5" d="M83.18,64.94v-.61a3.93,3.93,0,0,1,2.86.36l-.1.66-1.33.3C83.79,65.45,83.32,65.21,83.18,64.94Z"/><path class="cls-5" d="M111.28,70.3l-1,1.12a2.38,2.38,0,0,1-1.48.56,3.22,3.22,0,0,1-1.07-.1l-.1-.16a6,6,0,0,1-.25-2.39,3.83,3.83,0,0,0,.86-.11,22,22,0,0,1,2.76-.15Z"/><polygon class="cls-2" points="67.86 76.27 85.34 86.69 59.36 101.8 41.88 91.37 67.86 76.27"/><path class="cls-6" d="M139.15,111.09a1.31,1.31,0,0,1-1.14-.67,1.3,1.3,0,0,1,.49-1.78c2-1.15,2.17-1.9,2.17-2.1s-.16-1-2.18-2.12L79.81,70.77a9.38,9.38,0,0,0-10,0,1.31,1.31,0,1,1-1.3-2.27,11.94,11.94,0,0,1,12.62,0l58.68,33.65c2.35,1.36,3.49,2.79,3.49,4.4s-1.15,3-3.49,4.36A1.3,1.3,0,0,1,139.15,111.09Z"/><path class="cls-6" d="M139.15,116.79a1.31,1.31,0,0,1-.65-2.45c2-1.15,2.17-1.89,2.17-2.1s-.16-.95-2.18-2.12L79.81,76.47a9.36,9.36,0,0,0-10,0,1.31,1.31,0,1,1-1.3-2.28,12,12,0,0,1,12.62,0l58.68,33.65c2.35,1.36,3.49,2.8,3.49,4.4s-1.15,3-3.49,4.37A1.4,1.4,0,0,1,139.15,116.79Z"/><polygon class="cls-7" points="61.16 63.56 71.39 69.65 51.33 81.29 41.1 75.2 61.16 63.56"/><polygon class="cls-8" points="41 75.24 51.31 81.39 51.31 97.16 41 91.01 41 75.24"/><polygon class="cls-9" points="71.38 69.61 51.33 81.23 51.33 97.1 71.38 85.49 71.38 69.61"/><polygon class="cls-10" points="61.27 64.82 69.2 69.54 51.25 79.97 43.31 75.25 61.27 64.82"/><path class="cls-11" d="M49.59,85.79v5.83L47.23,90.2V84.4Zm-4.74,3-2.36-1.41v-5.8L44.85,83Z"/><polygon class="cls-12" points="61.29 67.46 66.94 70.82 51.32 79.88 45.68 76.52 61.29 67.46"/><path class="cls-13" d="M53,85.78V91.6l2.36-1.41v-5.8ZM62.59,80v5.83L65,84.44V78.63Zm4.82-2.77v5.8l2.36-1.39V75.83Zm-7.3,4.29L57.75,83v5.8l2.36-1.41Z"/><polygon class="cls-2" points="101.93 93.21 78.99 106.88 107.16 123.26 130.09 109.59 101.93 93.21"/><polygon class="cls-14" points="115.63 79.53 109.65 83.02 109.65 102 115.63 98.52 115.63 79.53"/><polygon class="cls-15" points="92.22 72.56 109.72 83.04 109.72 102.04 92.22 91.55 92.22 72.56"/><polygon class="cls-16" points="98.17 69.07 115.68 79.54 109.69 83.03 92.18 72.56 98.17 69.07"/><polygon class="cls-17" points="107.74 81.77 108.56 82.26 108.56 101.25 107.74 100.77 107.74 81.77"/><polygon class="cls-18" points="113.68 78.41 114.5 78.89 108.51 82.39 107.69 81.9 113.68 78.41"/><polygon class="cls-19" points="113.67 79.32 113.67 78.34 114.48 78.84 113.67 79.32"/><polygon class="cls-17" points="105.97 80.92 106.79 81.41 106.79 100.4 105.97 99.91 105.97 80.92"/><polygon class="cls-18" points="111.91 77.36 112.72 77.85 106.74 81.34 105.92 80.85 111.91 77.36"/><polygon class="cls-19" points="112.05 78.3 112.05 77.31 112.88 77.81 112.05 78.3"/><polygon class="cls-17" points="104.53 79.81 105.35 80.3 105.35 99.29 104.53 98.8 104.53 79.81"/><polygon class="cls-18" points="110.47 76.44 111.28 76.93 105.3 80.42 104.48 79.93 110.47 76.44"/><polygon class="cls-19" points="110.52 77.35 110.52 76.38 111.34 76.87 110.52 77.35"/><polygon class="cls-17" points="102.89 78.89 103.71 79.38 103.71 98.37 102.89 97.88 102.89 78.89"/><polygon class="cls-18" points="108.76 75.46 109.58 75.94 103.59 79.44 102.78 78.95 108.76 75.46"/><polygon class="cls-19" points="108.82 76.37 108.82 75.4 109.63 75.89 108.82 76.37"/><polygon class="cls-17" points="101.19 77.97 102.01 78.46 102.01 97.45 101.19 96.96 101.19 77.97"/><polygon class="cls-18" points="107.19 74.54 108 75.03 102.02 78.52 101.2 78.03 107.19 74.54"/><polygon class="cls-19" points="107.31 75.38 107.31 74.41 108.13 74.91 107.31 75.38"/><polygon class="cls-17" points="99.61 77.05 100.43 77.54 100.43 96.53 99.61 96.05 99.61 77.05"/><polygon class="cls-18" points="105.61 73.42 106.43 73.91 100.44 77.4 99.63 76.92 105.61 73.42"/><polygon class="cls-19" points="105.6 74.4 105.6 73.43 106.42 73.92 105.6 74.4"/><polygon class="cls-17" points="97.98 76.07 98.79 76.56 98.79 95.55 97.98 95.06 97.98 76.07"/><polygon class="cls-18" points="103.98 72.57 104.79 73.06 98.81 76.55 97.99 76.06 103.98 72.57"/><polygon class="cls-19" points="104.03 73.55 104.03 72.58 104.85 73.07 104.03 73.55"/><polygon class="cls-17" points="96.4 75.02 97.22 75.51 97.22 94.5 96.4 94.01 96.4 75.02"/><polygon class="cls-18" points="102.34 71.59 103.15 72.08 97.17 75.57 96.35 75.08 102.34 71.59"/><polygon class="cls-19" points="102.46 72.5 102.46 71.53 103.28 72.02 102.46 72.5"/><polygon class="cls-17" points="94.76 74.1 95.58 74.59 95.58 93.58 94.76 93.1 94.76 74.1"/><polygon class="cls-18" points="100.7 70.61 101.52 71.09 95.53 74.58 94.71 74.1 100.7 70.61"/><polygon class="cls-19" points="100.75 71.52 100.75 70.55 101.57 71.04 100.75 71.52"/><polygon class="cls-17" points="93.13 73.12 93.94 73.61 93.94 92.6 93.13 92.11 93.13 73.12"/><polygon class="cls-18" points="99.13 69.56 99.94 70.05 93.95 73.54 93.14 73.05 99.13 69.56"/><polygon class="cls-19" points="99.11 70.53 99.11 69.56 99.93 70.05 99.11 70.53"/><polygon class="cls-20" points="113.45 82.29 98.86 90.78 98.86 113.4 113.45 104.91 113.45 82.29"/><polygon class="cls-21" points="75.79 77.06 98.86 90.88 98.86 113.49 75.79 99.67 75.79 77.06"/><polygon class="cls-22" points="90.35 68.54 113.45 82.36 98.85 90.87 75.75 77.06 90.35 68.54"/><rect class="cls-23" x="76.01" y="67.74" width="14.23" height="7.14" transform="translate(-24.51 51.12) rotate(-30)"/><path class="cls-24" d="M87.23,68.87a4.55,4.55,0,0,0,1.84,1.85,1.78,1.78,0,0,0,2.81-1.62,4.49,4.49,0,0,0-.68-2.52,4.55,4.55,0,0,0-1.84-1.85,1.78,1.78,0,0,0-2.81,1.62A4.49,4.49,0,0,0,87.23,68.87Z"/><path class="cls-14" d="M75.3,75.89a4.61,4.61,0,0,0,1.84,1.85A1.78,1.78,0,0,0,80,76.11a4.53,4.53,0,0,0-.68-2.52,4.61,4.61,0,0,0-1.84-1.85,1.78,1.78,0,0,0-2.81,1.62A4.54,4.54,0,0,0,75.3,75.89Z"/><polygon class="cls-14" points="95.71 92.51 89.72 96 89.72 114.98 95.71 111.49 95.71 92.51"/><polygon class="cls-25" points="72.29 85.47 89.8 95.96 89.8 114.95 72.29 104.46 72.29 85.47"/><polygon class="cls-26" points="78.24 81.98 95.75 92.45 89.77 95.94 72.26 85.47 78.24 81.98"/><polygon class="cls-17" points="87.69 94.82 88.5 95.31 88.5 114.3 87.69 113.81 87.69 94.82"/><polygon class="cls-18" points="93.82 91.32 94.63 91.81 88.65 95.3 87.83 94.81 93.82 91.32"/><polygon class="cls-27" points="93.8 92.23 93.8 91.26 94.62 91.75 93.8 92.23"/><polygon class="cls-17" points="86.18 93.83 86.99 94.32 86.99 113.32 86.18 112.83 86.18 93.83"/><polygon class="cls-18" points="92.11 90.34 92.93 90.83 86.94 94.32 86.13 93.83 92.11 90.34"/><polygon class="cls-27" points="92.1 91.18 92.1 90.21 92.92 90.7 92.1 91.18"/><polygon class="cls-17" points="84.6 92.85 85.42 93.34 85.42 112.33 84.6 111.84 84.6 92.85"/><polygon class="cls-18" points="90.6 89.29 91.42 89.78 85.43 93.27 84.62 92.78 90.6 89.29"/><polygon class="cls-27" points="90.59 90.26 90.59 89.29 91.41 89.78 90.59 90.26"/><polygon class="cls-17" points="82.97 91.87 83.78 92.36 83.78 111.35 82.97 110.86 82.97 91.87"/><polygon class="cls-18" points="88.9 88.44 89.72 88.92 83.73 92.42 82.91 91.93 88.9 88.44"/><polygon class="cls-27" points="88.89 89.34 88.89 88.38 89.71 88.87 88.89 89.34"/><polygon class="cls-17" points="81.33 91.02 82.14 91.51 82.14 110.5 81.33 110.01 81.33 91.02"/><polygon class="cls-18" points="87.33 87.45 88.14 87.94 82.16 91.43 81.34 90.94 87.33 87.45"/><polygon class="cls-27" points="87.25 88.36 87.25 87.39 88.07 87.88 87.25 88.36"/><polygon class="cls-17" points="79.69 89.9 80.5 90.39 80.5 109.38 79.69 108.89 79.69 89.9"/><polygon class="cls-18" points="85.69 86.47 86.5 86.96 80.52 90.45 79.7 89.96 85.69 86.47"/><polygon class="cls-27" points="85.68 87.38 85.68 86.41 86.5 86.9 85.68 87.38"/><polygon class="cls-17" points="78.11 89.05 78.93 89.54 78.93 108.53 78.11 108.04 78.11 89.05"/><polygon class="cls-18" points="84.18 85.55 85 86.04 79.01 89.53 78.19 89.04 84.18 85.55"/><polygon class="cls-27" points="84.1 86.46 84.1 85.49 84.92 85.98 84.1 86.46"/><polygon class="cls-17" points="76.47 88 77.29 88.49 77.29 107.48 76.47 106.99 76.47 88"/><polygon class="cls-18" points="82.41 84.5 83.23 84.99 77.24 88.48 76.42 87.99 82.41 84.5"/><polygon class="cls-27" points="82.4 85.54 82.4 84.57 83.22 85.06 82.4 85.54"/><polygon class="cls-17" points="74.84 87.02 75.65 87.51 75.65 106.5 74.84 106.01 74.84 87.02"/><polygon class="cls-18" points="80.77 83.52 81.59 84.01 75.6 87.5 74.78 87.01 80.77 83.52"/><polygon class="cls-27" points="80.76 84.5 80.76 83.52 81.58 84.02 80.76 84.5"/><polygon class="cls-17" points="73.13 86.03 73.95 86.52 73.95 105.52 73.13 105.03 73.13 86.03"/><polygon class="cls-18" points="79.2 82.53 80.01 83.02 74.03 86.52 73.21 86.03 79.2 82.53"/><polygon class="cls-27" points="79.19 83.51 79.19 82.54 80 83.03 79.19 83.51"/><polygon class="cls-14" points="100.77 93.23 106.76 96.72 106.76 115.7 100.77 112.22 100.77 93.23"/><polygon class="cls-28" points="117.85 90.12 106.77 96.76 106.77 115.75 117.85 109.11 117.85 90.12"/><polygon class="cls-29" points="111.82 86.65 100.74 93.28 106.73 96.77 117.8 90.14 111.82 86.65"/><polygon class="cls-17" points="108.73 95.61 107.91 96.09 107.91 115.09 108.73 114.6 108.73 95.61"/><polygon class="cls-18" points="102.86 92.17 102.04 92.66 108.03 96.15 108.84 95.66 102.86 92.17"/><polygon class="cls-27" points="102.74 93.08 102.74 92.11 101.92 92.6 102.74 93.08"/><polygon class="cls-17" points="110.36 94.56 109.55 95.05 109.55 114.04 110.36 113.55 110.36 94.56"/><polygon class="cls-18" points="104.43 91.12 103.61 91.61 109.6 95.1 110.42 94.61 104.43 91.12"/><polygon class="cls-27" points="104.44 92.03 104.44 91.06 103.62 91.56 104.44 92.03"/><polygon class="cls-17" points="111.87 93.57 111.06 94.06 111.06 113.05 111.87 112.56 111.87 93.57"/><polygon class="cls-18" points="105.94 90.2 105.12 90.69 111.11 94.19 111.92 93.7 105.94 90.2"/><polygon class="cls-27" points="106.02 91.11 106.02 90.14 105.2 90.64 106.02 91.11"/><polygon class="cls-17" points="113.64 92.66 112.83 93.14 112.83 112.14 113.64 111.65 113.64 92.66"/><polygon class="cls-18" points="107.64 89.22 106.83 89.71 112.81 93.2 113.63 92.71 107.64 89.22"/><polygon class="cls-27" points="107.59 90.13 107.59 89.16 106.77 89.65 107.59 90.13"/><polygon class="cls-17" points="115.15 91.67 114.33 92.16 114.33 111.15 115.15 110.67 115.15 91.67"/><polygon class="cls-18" points="109.15 88.17 108.33 88.66 114.32 92.15 115.14 91.66 109.15 88.17"/><polygon class="cls-27" points="109.23 89.28 109.23 88.31 108.41 88.8 109.23 89.28"/><polygon class="cls-17" points="116.79 90.69 115.97 91.18 115.97 110.17 116.79 109.68 116.79 90.69"/><polygon class="cls-18" points="110.72 87.19 109.91 87.68 115.89 91.17 116.71 90.68 110.72 87.19"/><polygon class="cls-27" points="110.8 88.17 110.8 87.19 109.98 87.69 110.8 88.17"/><path class="cls-30" d="M92.4,67.71h.07a1.28,1.28,0,0,0-.13.59,1,1,0,0,0,.2.66.94.94,0,0,0,.45.26l-.06.06a.72.72,0,0,1-.53.33.48.48,0,0,1-.46-.33.76.76,0,0,1-.26-.65,1.09,1.09,0,0,1,.26-.66A.49.49,0,0,1,92.4,67.71Z"/><polygon class="cls-17" points="90.91 72.4 109.15 83.31 101.4 87.83 83.16 76.92 90.91 72.4"/><path class="cls-31" d="M92.6,49.88l-.06.46A1.27,1.27,0,0,0,94,50.6l.06-.52a1.26,1.26,0,0,1,.33.26,1.67,1.67,0,0,1,.26,1.18l-.32,2a1.05,1.05,0,0,0,.13.59.64.64,0,0,1,.26.53,1.78,1.78,0,0,1-.66.85l-.06.06a.06.06,0,0,0-.07.07,2.9,2.9,0,0,1-1.51.26,2.22,2.22,0,0,1-1.31-.72H91s-.07-.09-.2-.13a1.36,1.36,0,0,1-.26-1,2,2,0,0,1,.46-.46c.17,0,.28-.2.33-.59l.32-2a1.26,1.26,0,0,1,.59-1A.37.37,0,0,1,92.6,49.88Z"/><path class="cls-32" d="M93.13,61.55a3.44,3.44,0,0,1-1.71.26,2.66,2.66,0,0,1-1.31-.65.66.66,0,0,1-.33-.33h-.06s0-.07-.07-.07l-.2-.19a2.05,2.05,0,0,1-.26-1.25.68.68,0,0,1,.53-.59c.3,0,.61-.35.91-1l.4-2.49h.06a2.22,2.22,0,0,0,1.31.72,2.9,2.9,0,0,0,1.51-.26.06.06,0,0,1,.07-.07l-.33,2.5A1.91,1.91,0,0,0,94,59.39a.8.8,0,0,1,.4.72,1.58,1.58,0,0,1-.79,1.11.3.3,0,0,0-.07.2c-.08-.05-.15-.05-.19,0Z"/><g class="cls-33"><rect class="cls-34" x="92.54" y="47.74" width="1.81" height="3.08"/><path class="cls-35" d="M95.58,47.87a2,2,0,1,1-1.65-2.21A2,2,0,0,1,95.58,47.87Z"/><path class="cls-36" d="M95.56,47.87a1.93,1.93,0,1,1-1.63-2.19A1.94,1.94,0,0,1,95.56,47.87Z"/><path class="cls-37" d="M95.54,47.87a1.91,1.91,0,1,1-1.61-2.17A1.92,1.92,0,0,1,95.54,47.87Z"/><path class="cls-38" d="M95.52,47.86a1.89,1.89,0,1,1-1.6-2.14A1.9,1.9,0,0,1,95.52,47.86Z"/><path class="cls-39" d="M95.5,47.86a1.87,1.87,0,1,1-1.58-2.12A1.86,1.86,0,0,1,95.5,47.86Z"/><path class="cls-40" d="M95.48,47.86a1.85,1.85,0,1,1-1.56-2.1A1.84,1.84,0,0,1,95.48,47.86Z"/><path class="cls-41" d="M95.46,47.86a1.83,1.83,0,1,1-1.54-2.08A1.83,1.83,0,0,1,95.46,47.86Z"/><path class="cls-42" d="M95.44,47.85a1.8,1.8,0,1,1-1.53-2.05A1.8,1.8,0,0,1,95.44,47.85Z"/><path class="cls-43" d="M95.41,47.85a1.78,1.78,0,1,1-1.5-2A1.78,1.78,0,0,1,95.41,47.85Z"/><path class="cls-44" d="M95.39,47.85a1.76,1.76,0,0,1-3.48-.52,1.76,1.76,0,1,1,3.48.52Z"/><path class="cls-45" d="M95.37,47.84a1.74,1.74,0,1,1-1.47-2A1.73,1.73,0,0,1,95.37,47.84Z"/><path class="cls-46" d="M95.35,47.84a1.72,1.72,0,1,1-1.45-2A1.72,1.72,0,0,1,95.35,47.84Z"/><path class="cls-47" d="M95.33,47.84a1.7,1.7,0,1,1-1.43-1.93A1.7,1.7,0,0,1,95.33,47.84Z"/><path class="cls-48" d="M95.32,47.83a1.7,1.7,0,0,1-1.92,1.42A1.68,1.68,0,0,1,92,47.34a1.68,1.68,0,0,1,3.33.49Z"/><path class="cls-49" d="M95.3,47.83A1.66,1.66,0,0,1,92,47.35a1.66,1.66,0,0,1,3.29.48Z"/><path class="cls-50" d="M95.28,47.83A1.64,1.64,0,0,1,92,47.35,1.62,1.62,0,0,1,93.89,46,1.65,1.65,0,0,1,95.28,47.83Z"/><path class="cls-51" d="M95.26,47.83a1.62,1.62,0,0,1-3.21-.48A1.61,1.61,0,0,1,93.89,46,1.63,1.63,0,0,1,95.26,47.83Z"/><path class="cls-52" d="M95.24,47.82a1.61,1.61,0,0,1-1.82,1.35,1.6,1.6,0,1,1,1.82-1.35Z"/><path class="cls-53" d="M95.21,47.82A1.58,1.58,0,1,1,93.88,46,1.58,1.58,0,0,1,95.21,47.82Z"/><path class="cls-54" d="M95.19,47.82a1.56,1.56,0,1,1-1.31-1.77A1.56,1.56,0,0,1,95.19,47.82Z"/><path class="cls-55" d="M95.17,47.81a1.54,1.54,0,1,1-3-.45,1.54,1.54,0,0,1,3,.45Z"/><path class="cls-56" d="M95.15,47.81a1.52,1.52,0,1,1-1.28-1.72A1.51,1.51,0,0,1,95.15,47.81Z"/><path class="cls-57" d="M95.13,47.81a1.5,1.5,0,1,1-1.26-1.7A1.49,1.49,0,0,1,95.13,47.81Z"/><path class="cls-58" d="M95.11,47.8a1.48,1.48,0,1,1-1.24-1.67A1.49,1.49,0,0,1,95.11,47.8Z"/><path class="cls-59" d="M95.09,47.8a1.46,1.46,0,1,1-1.23-1.65A1.46,1.46,0,0,1,95.09,47.8Z"/><path class="cls-60" d="M95.07,47.8a1.44,1.44,0,1,1-1.21-1.63A1.43,1.43,0,0,1,95.07,47.8Z"/><path class="cls-61" d="M95.05,47.8a1.42,1.42,0,1,1-1.19-1.61A1.41,1.41,0,0,1,95.05,47.8Z"/><path class="cls-62" d="M95,47.79a1.39,1.39,0,1,1-1.18-1.58A1.38,1.38,0,0,1,95,47.79Z"/><path class="cls-63" d="M95,47.79a1.37,1.37,0,1,1-1.16-1.56A1.38,1.38,0,0,1,95,47.79Z"/><path class="cls-64" d="M95,47.79a1.36,1.36,0,0,1-1.54,1.13,1.35,1.35,0,0,1,.4-2.67A1.36,1.36,0,0,1,95,47.79Z"/><path class="cls-65" d="M95,47.78a1.33,1.33,0,0,1-1.52,1.12,1.33,1.33,0,0,1,.39-2.63A1.34,1.34,0,0,1,95,47.78Z"/><path class="cls-66" d="M95,47.78a1.31,1.31,0,1,1-1.11-1.49A1.31,1.31,0,0,1,95,47.78Z"/><path class="cls-67" d="M94.93,47.78a1.29,1.29,0,1,1-1.09-1.47A1.3,1.3,0,0,1,94.93,47.78Z"/><path class="cls-68" d="M94.91,47.78a1.27,1.27,0,1,1-1.07-1.45A1.27,1.27,0,0,1,94.91,47.78Z"/><path class="cls-69" d="M94.89,47.77a1.25,1.25,0,1,1-1.06-1.42A1.26,1.26,0,0,1,94.89,47.77Z"/><path class="cls-70" d="M94.87,47.77a1.23,1.23,0,0,1-2.44-.36,1.23,1.23,0,1,1,2.44.36Z"/><path class="cls-71" d="M94.85,47.77a1.21,1.21,0,1,1-1-1.38A1.22,1.22,0,0,1,94.85,47.77Z"/><path class="cls-72" d="M94.83,47.76a1.2,1.2,0,0,1-1.36,1,1.19,1.19,0,0,1,.35-2.35A1.2,1.2,0,0,1,94.83,47.76Z"/><path class="cls-73" d="M94.81,47.76a1.17,1.17,0,1,1-1-1.33A1.18,1.18,0,0,1,94.81,47.76Z"/><path class="cls-74" d="M94.78,47.76a1.14,1.14,0,1,1-1-1.31A1.14,1.14,0,0,1,94.78,47.76Z"/><path class="cls-75" d="M94.76,47.75a1.12,1.12,0,1,1-1-1.28A1.13,1.13,0,0,1,94.76,47.75Z"/><path class="cls-76" d="M94.74,47.75a1.1,1.1,0,1,1-.93-1.25A1.1,1.1,0,0,1,94.74,47.75Z"/><path class="cls-77" d="M94.72,47.74a1.08,1.08,0,1,1-.91-1.22A1.07,1.07,0,0,1,94.72,47.74Z"/><path class="cls-78" d="M94.7,47.74a1.06,1.06,0,1,1-.89-1.2A1.05,1.05,0,0,1,94.7,47.74Z"/><path class="cls-79" d="M94.68,47.74a1,1,0,0,1-1.18.88,1.05,1.05,0,0,1-.88-1.18,1,1,0,0,1,2.06.3Z"/><path class="cls-80" d="M94.66,47.73a1,1,0,1,1-.86-1.15A1,1,0,0,1,94.66,47.73Z"/><path class="cls-81" d="M94.64,47.73a1,1,0,1,1-.84-1.13A1,1,0,0,1,94.64,47.73Z"/><path class="cls-82" d="M94.62,47.73a1,1,0,0,1-1.94-.29,1,1,0,0,1,1.94.29Z"/><path class="cls-83" d="M94.6,47.73a1,1,0,0,1-1.9-.28,1,1,0,0,1,1.9.28Z"/><path class="cls-84" d="M94.58,47.72a.94.94,0,1,1-.79-1.06A.93.93,0,0,1,94.58,47.72Z"/><path class="cls-85" d="M94.56,47.72a.92.92,0,0,1-1.82-.27.93.93,0,0,1,1.05-.77A.92.92,0,0,1,94.56,47.72Z"/><path class="cls-86" d="M94.54,47.72a.89.89,0,0,1-1,.75.89.89,0,1,1,1-.75Z"/><path class="cls-87" d="M94.52,47.71a.88.88,0,1,1-.74-1A.87.87,0,0,1,94.52,47.71Z"/><path class="cls-88" d="M94.5,47.71a.85.85,0,0,1-1,.72.85.85,0,1,1,1-.72Z"/><path class="cls-89" d="M94.48,47.71a.84.84,0,1,1-.71-1A.84.84,0,0,1,94.48,47.71Z"/><path class="cls-90" d="M94.46,47.7a.82.82,0,0,1-1.62-.23.83.83,0,0,1,.93-.69A.82.82,0,0,1,94.46,47.7Z"/><path class="cls-91" d="M94.44,47.7a.79.79,0,0,1-.9.67.8.8,0,0,1-.68-.9.81.81,0,0,1,.91-.67A.8.8,0,0,1,94.44,47.7Z"/><path class="cls-92" d="M94.42,47.7a.78.78,0,1,1-.66-.88A.78.78,0,0,1,94.42,47.7Z"/><path class="cls-93" d="M94.4,47.7a.76.76,0,0,1-.86.63.74.74,0,0,1-.63-.85.75.75,0,0,1,.85-.64A.76.76,0,0,1,94.4,47.7Z"/><path class="cls-94" d="M94.37,47.69a.73.73,0,1,1-.61-.83A.73.73,0,0,1,94.37,47.69Z"/><path class="cls-95" d="M94.35,47.69a.7.7,0,0,1-.8.6.71.71,0,1,1,.8-.6Z"/><path class="cls-96" d="M94.33,47.69a.69.69,0,1,1-.58-.78A.68.68,0,0,1,94.33,47.69Z"/><path class="cls-97" d="M94.31,47.68a.67.67,0,0,1-.76.57.67.67,0,1,1,.76-.57Z"/><path class="cls-98" d="M94.29,47.68a.64.64,0,0,1-.73.55.65.65,0,0,1-.55-.74.65.65,0,0,1,1.28.19Z"/><path class="cls-99" d="M94.27,47.68A.63.63,0,1,1,93,47.49a.63.63,0,0,1,1.24.19Z"/><path class="cls-100" d="M94.25,47.68a.61.61,0,1,1-.51-.69A.61.61,0,0,1,94.25,47.68Z"/><path class="cls-101" d="M94.23,47.67a.58.58,0,0,1-.66.5.59.59,0,0,1-.5-.67.59.59,0,0,1,1.16.17Z"/><path class="cls-102" d="M94.21,47.67a.56.56,0,0,1-.64.48.57.57,0,0,1-.48-.65.57.57,0,0,1,1.12.17Z"/><path class="cls-103" d="M94.19,47.67a.55.55,0,1,1-.46-.62A.54.54,0,0,1,94.19,47.67Z"/><path class="cls-104" d="M94.17,47.66a.53.53,0,1,1-1-.15.53.53,0,0,1,1,.15Z"/><path class="cls-105" d="M94.15,47.66a.51.51,0,1,1-.43-.57A.51.51,0,0,1,94.15,47.66Z"/><path class="cls-106" d="M94.13,47.66a.5.5,0,0,1-.55.41.49.49,0,0,1-.41-.56.49.49,0,0,1,1,.15Z"/><path class="cls-107" d="M94.11,47.65a.46.46,0,1,1-.92-.13.46.46,0,0,1,.92.13Z"/><path class="cls-108" d="M94.09,47.65a.44.44,0,1,1-.88-.13.44.44,0,0,1,.5-.37A.45.45,0,0,1,94.09,47.65Z"/><path class="cls-109" d="M94.07,47.65a.43.43,0,0,1-.48.36.44.44,0,0,1-.36-.49.43.43,0,0,1,.84.13Z"/><path class="cls-110" d="M94.05,47.65a.41.41,0,0,1-.46.34.41.41,0,0,1-.34-.46.4.4,0,0,1,.8.12Z"/></g><path class="cls-111" d="M91.09,69.94a5.3,5.3,0,0,1-.85-.07,2.09,2.09,0,0,1-.65-.19l-.73-.2a3.24,3.24,0,0,0-.52-.33l-.52-.52s-.07,0-.07-.13a2.29,2.29,0,0,1-.65-2,1.16,1.16,0,0,1,.65-.79c.92-.17,1.62-1.09,2.1-2.75l.26-1.83a2.66,2.66,0,0,0,1.31.65,3.44,3.44,0,0,0,1.71-.26l-.2,1.7c0,1.84.24,2.91.72,3.22a1.31,1.31,0,0,1,.66,1.18,2.73,2.73,0,0,1-1.12,1.57.05.05,0,0,1-.06.06.43.43,0,0,1-.2.2,1.73,1.73,0,0,0-.39.13,1.47,1.47,0,0,1-.6.26A5.12,5.12,0,0,1,91.09,69.94Z"/><path class="cls-112" d="M89.39,70.79a2.5,2.5,0,0,1,.72.13A5.51,5.51,0,0,1,91,71l-.39,2.23a.58.58,0,0,1-.33.52.61.61,0,0,1-.52.26,1.1,1.1,0,0,1-.53-.39,1.38,1.38,0,0,1-.13-.59Z"/><path class="cls-113" d="M89.59,69.68a2.09,2.09,0,0,0,.65.19,5.3,5.3,0,0,0,.85.07L91,71a5.51,5.51,0,0,0-.85-.07,2.5,2.5,0,0,0-.72-.13Z"/><path class="cls-114" d="M74.84,54.73l.19.46a1.1,1.1,0,0,1-1.31.59l-.26-.46L72.87,54a.9.9,0,0,1-.07-.59,1.07,1.07,0,0,1,.33-.39,1.22,1.22,0,0,1,.66-.07.77.77,0,0,1,.39.46Z"/><path class="cls-115" d="M77.72,59.39v.13A2.73,2.73,0,0,1,75.1,60.7H75a.24.24,0,0,0-.19-.07,1.2,1.2,0,0,1-.72-.65,1.08,1.08,0,0,1,.06-.66c.13-.09.13-.28,0-.59l-.85-1.9a1.14,1.14,0,0,1,0-1.18c0-.09,0-.2.13-.33l.26.46A1.1,1.1,0,0,0,75,55.19l-.19-.46h.32a1.94,1.94,0,0,1,.92.85l.85,2a.6.6,0,0,0,.4.33.6.6,0,0,1,.46.33,1.46,1.46,0,0,1,0,1v.06C77.74,59.32,77.72,59.34,77.72,59.39Z"/><path class="cls-116" d="M80.28,64.89A3.74,3.74,0,0,1,79,66a2.94,2.94,0,0,1-1.38.19,1.54,1.54,0,0,1-.59-.13v.07a.08.08,0,0,0-.13,0L76.74,66a1.93,1.93,0,0,1-1-.85.73.73,0,0,1,.13-.73A2,2,0,0,0,76.15,63L75,60.7h.07a2.73,2.73,0,0,0,2.62-1.18v-.13l1.11,2.23a2.45,2.45,0,0,0,1,1,.84.84,0,0,1,.73.39,1.71,1.71,0,0,1-.07,1.38v.13a.19.19,0,0,0-.13.06A3.26,3.26,0,0,1,80.28,64.89Z"/><path class="cls-117" d="M83.16,73q-.39.2-.72.39a2.81,2.81,0,0,1-.72.27c-.26,0-.5.08-.72.13h-.66a2.39,2.39,0,0,0-.65-.07l-.07-.06a.09.09,0,0,1-.13,0A2,2,0,0,1,78,72.3a.79.79,0,0,1,.07-.92c.65-.7.74-1.88.26-3.54l-.72-1.64A2.94,2.94,0,0,0,79,66a3.74,3.74,0,0,0,1.31-1.12L81,66.4c1,1.53,1.79,2.32,2.36,2.36a1.3,1.3,0,0,1,1.24.59,2.79,2.79,0,0,1-.06,2,.19.19,0,0,1-.07.13.19.19,0,0,1-.06.13,1.26,1.26,0,0,0-.26.33,1.17,1.17,0,0,1-.4.59A5,5,0,0,1,83.16,73Z"/><path class="cls-118" d="M82.18,74.66a5.69,5.69,0,0,1,.65-.33l.73-.33,1,2a.69.69,0,0,1-.07.65.61.61,0,0,1-.32.46.58.58,0,0,1-.59-.06.8.8,0,0,1-.46-.4Z"/><path class="cls-113" d="M83.56,74l-.73.33a5.69,5.69,0,0,0-.65.33l-.46-1a2.81,2.81,0,0,0,.72-.27q.33-.19.72-.39Z"/><g class="cls-119"><rect class="cls-34" x="99.49" y="50.93" width="1.75" height="3.1"/><path class="cls-35" d="M102.53,51.08a2,2,0,1,1-1.65-2.21A2,2,0,0,1,102.53,51.08Z"/><path class="cls-36" d="M102.51,51.08a1.93,1.93,0,1,1-1.63-2.19A1.94,1.94,0,0,1,102.51,51.08Z"/><path class="cls-37" d="M102.49,51.08a1.91,1.91,0,1,1-1.61-2.17A1.92,1.92,0,0,1,102.49,51.08Z"/><path class="cls-38" d="M102.47,51.07a1.89,1.89,0,1,1-1.6-2.14A1.9,1.9,0,0,1,102.47,51.07Z"/><path class="cls-39" d="M102.45,51.07A1.87,1.87,0,1,1,100.87,49,1.89,1.89,0,0,1,102.45,51.07Z"/><path class="cls-40" d="M102.43,51.07a1.85,1.85,0,1,1-1.56-2.1A1.86,1.86,0,0,1,102.43,51.07Z"/><path class="cls-41" d="M102.41,51.07A1.83,1.83,0,1,1,100.87,49,1.83,1.83,0,0,1,102.41,51.07Z"/><path class="cls-42" d="M102.38,51.06a1.8,1.8,0,0,1-3.57-.52,1.8,1.8,0,1,1,3.57.52Z"/><path class="cls-43" d="M102.36,51.06a1.78,1.78,0,1,1-1.5-2A1.77,1.77,0,0,1,102.36,51.06Z"/><path class="cls-44" d="M102.34,51.06a1.76,1.76,0,1,1-1.48-2A1.75,1.75,0,0,1,102.34,51.06Z"/><path class="cls-45" d="M102.32,51.05a1.74,1.74,0,1,1-1.47-2A1.73,1.73,0,0,1,102.32,51.05Z"/><path class="cls-46" d="M102.3,51.05a1.72,1.72,0,1,1-1.45-1.95A1.72,1.72,0,0,1,102.3,51.05Z"/><path class="cls-47" d="M102.28,51.05a1.7,1.7,0,1,1-1.43-1.93A1.7,1.7,0,0,1,102.28,51.05Z"/><path class="cls-48" d="M102.26,51a1.68,1.68,0,1,1-1.42-1.9A1.68,1.68,0,0,1,102.26,51Z"/><path class="cls-49" d="M102.24,51a1.66,1.66,0,1,1-1.4-1.88A1.66,1.66,0,0,1,102.24,51Z"/><path class="cls-50" d="M102.22,51a1.64,1.64,0,1,1-1.38-1.86A1.64,1.64,0,0,1,102.22,51Z"/><path class="cls-51" d="M102.2,51a1.62,1.62,0,1,1-1.36-1.84A1.62,1.62,0,0,1,102.2,51Z"/><path class="cls-52" d="M102.18,51a1.6,1.6,0,1,1-1.35-1.81A1.6,1.6,0,0,1,102.18,51Z"/><path class="cls-53" d="M102.16,51a1.58,1.58,0,1,1-1.33-1.79A1.58,1.58,0,0,1,102.16,51Z"/><path class="cls-54" d="M102.14,51a1.56,1.56,0,1,1-1.31-1.77A1.55,1.55,0,0,1,102.14,51Z"/><path class="cls-55" d="M102.12,51a1.54,1.54,0,1,1-1.3-1.74A1.55,1.55,0,0,1,102.12,51Z"/><path class="cls-56" d="M102.1,51a1.52,1.52,0,1,1-1.28-1.72A1.52,1.52,0,0,1,102.1,51Z"/><path class="cls-57" d="M102.08,51a1.5,1.5,0,1,1-1.26-1.7A1.49,1.49,0,0,1,102.08,51Z"/><path class="cls-58" d="M102.06,51a1.48,1.48,0,1,1-1.24-1.67A1.49,1.49,0,0,1,102.06,51Z"/><path class="cls-59" d="M102,51a1.46,1.46,0,1,1-1.23-1.65A1.46,1.46,0,0,1,102,51Z"/><path class="cls-60" d="M102,51a1.44,1.44,0,1,1-1.21-1.63A1.45,1.45,0,0,1,102,51Z"/><path class="cls-61" d="M102,51a1.42,1.42,0,1,1-1.19-1.61A1.42,1.42,0,0,1,102,51Z"/><path class="cls-62" d="M102,51a1.39,1.39,0,0,1-2.75-.41A1.39,1.39,0,0,1,102,51Z"/><path class="cls-63" d="M102,51a1.35,1.35,0,0,1-1.55,1.15,1.36,1.36,0,1,1,.4-2.7A1.35,1.35,0,0,1,102,51Z"/><path class="cls-64" d="M101.93,51a1.35,1.35,0,1,1-1.13-1.53A1.34,1.34,0,0,1,101.93,51Z"/><path class="cls-65" d="M101.91,51a1.33,1.33,0,1,1-1.12-1.5A1.32,1.32,0,0,1,101.91,51Z"/><path class="cls-66" d="M101.89,51a1.29,1.29,0,0,1-1.48,1.1,1.3,1.3,0,1,1,1.48-1.1Z"/><path class="cls-67" d="M101.87,51a1.28,1.28,0,0,1-1.46,1.08,1.28,1.28,0,1,1,.38-2.54A1.27,1.27,0,0,1,101.87,51Z"/><path class="cls-68" d="M101.85,51a1.27,1.27,0,1,1-1.06-1.44A1.27,1.27,0,0,1,101.85,51Z"/><path class="cls-69" d="M101.83,51a1.25,1.25,0,0,1-2.47-.36,1.26,1.26,0,0,1,1.42-1A1.24,1.24,0,0,1,101.83,51Z"/><path class="cls-70" d="M101.81,51a1.22,1.22,0,0,1-1.39,1,1.22,1.22,0,1,1,.36-2.42A1.22,1.22,0,0,1,101.81,51Z"/><path class="cls-71" d="M101.79,51a1.19,1.19,0,0,1-1.37,1,1.2,1.2,0,1,1,.36-2.38A1.2,1.2,0,0,1,101.79,51Z"/><path class="cls-72" d="M101.77,51a1.18,1.18,0,0,1-1.35,1,1.19,1.19,0,1,1,1.35-1Z"/><path class="cls-73" d="M101.75,51a1.16,1.16,0,0,1-1.32,1,1.17,1.17,0,1,1,1.32-1Z"/><path class="cls-74" d="M101.73,51a1.14,1.14,0,1,1-1-1.3A1.14,1.14,0,0,1,101.73,51Z"/><path class="cls-75" d="M101.71,51a1.12,1.12,0,1,1-.95-1.27A1.12,1.12,0,0,1,101.71,51Z"/><path class="cls-76" d="M101.69,51a1.1,1.1,0,1,1-.93-1.25A1.1,1.1,0,0,1,101.69,51Z"/><path class="cls-77" d="M101.67,51a1.08,1.08,0,1,1-2.14-.32,1.08,1.08,0,1,1,2.14.32Z"/><path class="cls-78" d="M101.65,51a1.06,1.06,0,1,1-2.1-.32,1.05,1.05,0,0,1,1.21-.89A1.07,1.07,0,0,1,101.65,51Z"/><path class="cls-79" d="M101.63,51a1,1,0,1,1-.88-1.18A1,1,0,0,1,101.63,51Z"/><path class="cls-80" d="M101.61,51a1,1,0,0,1-2-.3,1,1,0,1,1,2,.3Z"/><path class="cls-81" d="M101.59,51a1,1,0,1,1-.84-1.14A1,1,0,0,1,101.59,51Z"/><path class="cls-82" d="M101.57,50.94a1,1,0,1,1-.83-1.11A1,1,0,0,1,101.57,50.94Z"/><path class="cls-83" d="M101.54,50.94a1,1,0,0,1-1.08.81,1,1,0,0,1,.28-1.9A1,1,0,0,1,101.54,50.94Z"/><path class="cls-84" d="M101.53,50.94a1,1,0,0,1-1.07.79.94.94,0,1,1,1.07-.79Z"/><path class="cls-85" d="M101.51,50.94a.93.93,0,0,1-1.05.77.92.92,0,1,1,1.05-.77Z"/><path class="cls-86" d="M101.49,50.93a.9.9,0,1,1-.76-1A.91.91,0,0,1,101.49,50.93Z"/><path class="cls-87" d="M101.47,50.93a.88.88,0,1,1-.74-1A.88.88,0,0,1,101.47,50.93Z"/><path class="cls-88" d="M101.45,50.93a.86.86,0,1,1-.72-1A.87.87,0,0,1,101.45,50.93Z"/><path class="cls-89" d="M101.43,50.92a.85.85,0,0,1-1,.71.84.84,0,1,1,1-.71Z"/><path class="cls-90" d="M101.41,50.92a.82.82,0,1,1-1.62-.24.82.82,0,0,1,1.62.24Z"/><path class="cls-91" d="M101.39,50.91a.8.8,0,1,1-.67-.9A.8.8,0,0,1,101.39,50.91Z"/><path class="cls-92" d="M101.37,50.91a.78.78,0,1,1-1.54-.23.78.78,0,0,1,1.54.23Z"/><path class="cls-93" d="M101.34,50.91a.75.75,0,0,1-1.49-.22.77.77,0,0,1,.86-.64A.75.75,0,0,1,101.34,50.91Z"/><path class="cls-94" d="M101.32,50.9a.73.73,0,0,1-.83.62.73.73,0,0,1,.21-1.44A.73.73,0,0,1,101.32,50.9Z"/><path class="cls-95" d="M101.3,50.9a.71.71,0,1,1-.6-.8A.71.71,0,0,1,101.3,50.9Z"/><path class="cls-96" d="M101.28,50.9a.69.69,0,1,1-.58-.78A.68.68,0,0,1,101.28,50.9Z"/><path class="cls-97" d="M101.26,50.9a.67.67,0,0,1-.76.56.67.67,0,0,1,.19-1.32A.66.66,0,0,1,101.26,50.9Z"/><path class="cls-98" d="M101.24,50.89a.65.65,0,1,1-.55-.73A.64.64,0,0,1,101.24,50.89Z"/><path class="cls-99" d="M101.22,50.89a.63.63,0,1,1-.53-.71A.63.63,0,0,1,101.22,50.89Z"/><path class="cls-100" d="M101.2,50.89a.61.61,0,1,1-.51-.69A.61.61,0,0,1,101.2,50.89Z"/><path class="cls-101" d="M101.18,50.88a.59.59,0,1,1-1.16-.16.59.59,0,0,1,1.16.16Z"/><path class="cls-102" d="M101.16,50.88a.56.56,0,0,1-.64.48.57.57,0,1,1,.64-.48Z"/><path class="cls-103" d="M101.14,50.88a.55.55,0,0,1-.62.46.55.55,0,1,1,.62-.46Z"/><path class="cls-104" d="M101.12,50.87a.53.53,0,0,1-.6.45.53.53,0,0,1,.15-1A.53.53,0,0,1,101.12,50.87Z"/><path class="cls-105" d="M101.1,50.87a.5.5,0,1,1-.43-.57A.51.51,0,0,1,101.1,50.87Z"/><path class="cls-106" d="M101.08,50.87a.49.49,0,1,1-1-.14.48.48,0,0,1,.55-.41A.49.49,0,0,1,101.08,50.87Z"/><path class="cls-107" d="M101.06,50.87a.47.47,0,0,1-.53.39.46.46,0,0,1,.13-.92A.47.47,0,0,1,101.06,50.87Z"/><path class="cls-108" d="M101,50.86a.46.46,0,0,1-.51.38.44.44,0,0,1,.13-.88A.45.45,0,0,1,101,50.86Z"/><path class="cls-109" d="M101,50.86a.42.42,0,0,1-.84-.12.42.42,0,1,1,.84.12Z"/><path class="cls-110" d="M101,50.86a.4.4,0,1,1-.34-.46A.41.41,0,0,1,101,50.86Z"/></g><path class="cls-120" d="M101,58.8c-.09,0-.13,0-.13.06a3.05,3.05,0,0,1-1.57.26A1.86,1.86,0,0,1,98,58.4H98s-.07-.11-.2-.19a1,1,0,0,1-.2-.92.84.84,0,0,1,.4-.46c.17,0,.28-.2.32-.59l.27-2a1.41,1.41,0,0,1,.65-1c0-.13.11-.19.33-.19l-.07.52a1.38,1.38,0,0,0,1.51.26l.07-.52.19.2a1.57,1.57,0,0,1,.33,1.18l-.33,2.09a.51.51,0,0,0,.2.53.7.7,0,0,1,.2.52,2,2,0,0,1-.59.92S101,58.75,101,58.8Z"/><path class="cls-121" d="M100.07,64.7a2.81,2.81,0,0,1-1.7.26,2.27,2.27,0,0,1-1.31-.59,1.79,1.79,0,0,1-.39-.39h-.14a.53.53,0,0,0-.06-.2,1.9,1.9,0,0,1-.33-1.25.67.67,0,0,1,.46-.59q.53-.06,1.05-1.11L98,58.4H98a1.86,1.86,0,0,0,1.25.72,3.05,3.05,0,0,0,1.57-.26s0-.06.13-.06l-.39,2.42A2.21,2.21,0,0,0,101,62.6a.73.73,0,0,1,.39.72,2.15,2.15,0,0,1-.78,1.11c-.09,0-.13.09-.13.13h-.13A.4.4,0,0,1,100.07,64.7Z"/><path class="cls-122" d="M98,73.09h-.85a4.15,4.15,0,0,1-.66-.2l-.72-.2-.52-.39a4.35,4.35,0,0,1-.53-.46v-.06a.24.24,0,0,1-.13-.07,2.41,2.41,0,0,1-.59-2A1,1,0,0,1,94.7,69q1.38-.27,2.16-2.76l.2-1.83a2.27,2.27,0,0,0,1.31.59,2.81,2.81,0,0,0,1.7-.26l-.19,1.77q0,2.69.72,3.21a1.48,1.48,0,0,1,.65,1.18,2.45,2.45,0,0,1-1,1.57s0,.07-.14.07a1.22,1.22,0,0,1-.19.13.88.88,0,0,0-.4.19,3.43,3.43,0,0,1-.59.2A6.63,6.63,0,0,1,98,73.09Z"/><path class="cls-113" d="M97.84,74.2l-.78-.13a4.85,4.85,0,0,0-.72-.07l.19-1.11a4.15,4.15,0,0,0,.66.2H98Z"/><path class="cls-123" d="M96.34,74a4.85,4.85,0,0,1,.72.07l.78.13-.26,2.23a.75.75,0,0,1-.39.52.68.68,0,0,1-.52.2.81.81,0,0,1-.53-.33.91.91,0,0,1-.13-.65Z"/><path class="cls-124" d="M81.06,64.3h.07a2.06,2.06,0,0,0,1.44-.13,2.36,2.36,0,0,0,1.18-1,.17.17,0,0,1,.07-.13l1.05,2.23a2.31,2.31,0,0,0,1,.91.83.83,0,0,1,.73.4A2.1,2.1,0,0,1,86.57,68v.2a.17.17,0,0,0-.13.07,1,1,0,0,1-.13.26,3.56,3.56,0,0,1-1.38,1.11,2.57,2.57,0,0,1-1.31.2.74.74,0,0,1-.52-.07l-.07.07a.09.09,0,0,0-.13,0l-.13-.13a1.93,1.93,0,0,1-1-.85.84.84,0,0,1,.14-.79,2.06,2.06,0,0,0,.26-1.44Z"/><path class="cls-125" d="M89.13,76.69a2.59,2.59,0,0,0-.66.4,6.48,6.48,0,0,1-.72.19c-.26.09-.48.16-.65.2h-.66a4,4,0,0,0-.72-.07v-.06a.14.14,0,0,1-.2-.07A2.15,2.15,0,0,1,84,76a.89.89,0,0,1,.07-1q1-1,.33-3.48l-.79-1.7a2.57,2.57,0,0,0,1.31-.2,3.56,3.56,0,0,0,1.38-1.11l.79,1.57c1,1.53,1.72,2.3,2.29,2.3a1.24,1.24,0,0,1,1.24.65,2.59,2.59,0,0,1-.06,1.9.16.16,0,0,1-.07.13.53.53,0,0,1-.06.2,1.26,1.26,0,0,0-.26.33.85.85,0,0,1-.4.52A8.47,8.47,0,0,1,89.13,76.69Z"/><path class="cls-113" d="M87.75,77.28a6.48,6.48,0,0,0,.72-.19,2.59,2.59,0,0,1,.66-.4l.46.92c-.22.13-.46.26-.73.39l-.65.27Z"/><path class="cls-126" d="M88.21,78.27l.65-.27c.27-.13.51-.26.73-.39l1,2.1a1,1,0,0,1-.07.59.61.61,0,0,1-.32.46.75.75,0,0,1-.59,0,.77.77,0,0,1-.46-.46Z"/><path class="cls-127" d="M80.87,58.4l.19.4a1,1,0,0,1-1.31.59l-.26-.4-.59-1.31a1,1,0,0,1-.07-.59.89.89,0,0,1,.4-.39,1,1,0,0,1,.59-.07.58.58,0,0,1,.39.4Z"/><path class="cls-128" d="M83.82,63.06a.17.17,0,0,0-.07.13,2.36,2.36,0,0,1-1.18,1,2.06,2.06,0,0,1-1.44.13h-.07a.27.27,0,0,0-.19-.06,1,1,0,0,1-.72-.66.89.89,0,0,1,.06-.59c.13-.13.13-.35,0-.65l-.85-1.84a1.14,1.14,0,0,1,0-1.18c0-.09,0-.2.13-.33l.26.4a1,1,0,0,0,1.31-.59l-.19-.4h.39a1.62,1.62,0,0,1,.85.86l.85,2a.88.88,0,0,0,.4.33c.26,0,.41.15.46.33a1.46,1.46,0,0,1,0,1Z"/><g class="cls-129"><rect class="cls-34" x="110.69" y="57.57" width="1.79" height="3.08"/><path class="cls-35" d="M113.67,57.71A2,2,0,1,1,112,55.49,2,2,0,0,1,113.67,57.71Z"/><path class="cls-36" d="M113.65,57.7A1.93,1.93,0,1,1,112,55.51,1.93,1.93,0,0,1,113.65,57.7Z"/><path class="cls-37" d="M113.63,57.7A1.91,1.91,0,1,1,112,55.53,1.92,1.92,0,0,1,113.63,57.7Z"/><path class="cls-38" d="M113.61,57.7A1.89,1.89,0,1,1,112,55.55,1.9,1.9,0,0,1,113.61,57.7Z"/><path class="cls-39" d="M113.59,57.7A1.87,1.87,0,1,1,112,55.58,1.87,1.87,0,0,1,113.59,57.7Z"/><path class="cls-40" d="M113.57,57.69A1.85,1.85,0,1,1,112,55.6,1.85,1.85,0,0,1,113.57,57.69Z"/><path class="cls-41" d="M113.55,57.69a1.83,1.83,0,0,1-3.62-.54,1.83,1.83,0,0,1,3.62.54Z"/><path class="cls-42" d="M113.53,57.69a1.81,1.81,0,1,1-1.52-2A1.8,1.8,0,0,1,113.53,57.69Z"/><path class="cls-43" d="M113.51,57.68a1.79,1.79,0,1,1-1.51-2A1.8,1.8,0,0,1,113.51,57.68Z"/><path class="cls-44" d="M113.49,57.68a1.77,1.77,0,1,1-1.49-2A1.78,1.78,0,0,1,113.49,57.68Z"/><path class="cls-45" d="M113.47,57.67a1.74,1.74,0,1,1-1.47-2A1.75,1.75,0,0,1,113.47,57.67Z"/><path class="cls-46" d="M113.45,57.67a1.72,1.72,0,1,1-1.46-2A1.73,1.73,0,0,1,113.45,57.67Z"/><path class="cls-47" d="M113.43,57.67A1.7,1.7,0,1,1,112,55.74,1.7,1.7,0,0,1,113.43,57.67Z"/><path class="cls-48" d="M113.41,57.66a1.68,1.68,0,1,1-1.42-1.9A1.68,1.68,0,0,1,113.41,57.66Z"/><path class="cls-49" d="M113.38,57.66A1.66,1.66,0,1,1,112,55.78,1.65,1.65,0,0,1,113.38,57.66Z"/><path class="cls-50" d="M113.36,57.66a1.64,1.64,0,0,1-3.24-.48A1.64,1.64,0,0,1,112,55.8,1.62,1.62,0,0,1,113.36,57.66Z"/><path class="cls-51" d="M113.34,57.66A1.62,1.62,0,1,1,112,55.82,1.61,1.61,0,0,1,113.34,57.66Z"/><path class="cls-52" d="M113.32,57.65A1.6,1.6,0,1,1,112,55.84,1.59,1.59,0,0,1,113.32,57.65Z"/><path class="cls-53" d="M113.3,57.65A1.58,1.58,0,1,1,112,55.86,1.57,1.57,0,0,1,113.3,57.65Z"/><path class="cls-54" d="M113.28,57.65A1.56,1.56,0,1,1,112,55.88,1.55,1.55,0,0,1,113.28,57.65Z"/><path class="cls-55" d="M113.26,57.64A1.54,1.54,0,1,1,112,55.9,1.54,1.54,0,0,1,113.26,57.64Z"/><path class="cls-56" d="M113.24,57.64A1.52,1.52,0,1,1,112,55.92,1.51,1.51,0,0,1,113.24,57.64Z"/><path class="cls-57" d="M113.22,57.64a1.5,1.5,0,1,1-1.26-1.7A1.49,1.49,0,0,1,113.22,57.64Z"/><path class="cls-58" d="M113.2,57.63A1.48,1.48,0,1,1,112,56,1.48,1.48,0,0,1,113.2,57.63Z"/><path class="cls-59" d="M113.18,57.63a1.46,1.46,0,0,1-2.88-.42A1.47,1.47,0,0,1,112,56,1.45,1.45,0,0,1,113.18,57.63Z"/><path class="cls-60" d="M113.16,57.63A1.44,1.44,0,1,1,112,56,1.43,1.43,0,0,1,113.16,57.63Z"/><path class="cls-61" d="M113.14,57.63a1.42,1.42,0,0,1-2.8-.42,1.42,1.42,0,0,1,2.8.42Z"/><path class="cls-62" d="M113.12,57.62a1.39,1.39,0,0,1-1.58,1.18,1.4,1.4,0,1,1,1.58-1.18Z"/><path class="cls-63" d="M113.1,57.62a1.37,1.37,0,1,1-1.16-1.56A1.38,1.38,0,0,1,113.1,57.62Z"/><path class="cls-64" d="M113.08,57.62a1.35,1.35,0,1,1-1.14-1.54A1.36,1.36,0,0,1,113.08,57.62Z"/><path class="cls-65" d="M113.06,57.61a1.33,1.33,0,0,1-2.64-.39,1.33,1.33,0,0,1,2.64.39Z"/><path class="cls-66" d="M113,57.61a1.31,1.31,0,1,1-1.1-1.49A1.32,1.32,0,0,1,113,57.61Z"/><path class="cls-67" d="M113,57.61a1.29,1.29,0,1,1-1.09-1.47A1.3,1.3,0,0,1,113,57.61Z"/><path class="cls-68" d="M113,57.61a1.27,1.27,0,1,1-1.07-1.45A1.28,1.28,0,0,1,113,57.61Z"/><path class="cls-69" d="M113,57.6a1.25,1.25,0,1,1-1-1.42A1.26,1.26,0,0,1,113,57.6Z"/><path class="cls-70" d="M113,57.6a1.22,1.22,0,1,1-1-1.39A1.22,1.22,0,0,1,113,57.6Z"/><path class="cls-71" d="M112.93,57.6a1.19,1.19,0,0,1-1.36,1,1.2,1.2,0,1,1,.35-2.38A1.19,1.19,0,0,1,112.93,57.6Z"/><path class="cls-72" d="M112.91,57.59a1.18,1.18,0,1,1-1-1.34A1.17,1.17,0,0,1,112.91,57.59Z"/><path class="cls-73" d="M112.89,57.59a1.15,1.15,0,0,1-1.32,1,1.17,1.17,0,0,1-1-1.32,1.16,1.16,0,1,1,2.3.34Z"/><path class="cls-74" d="M112.87,57.59a1.14,1.14,0,1,1-1-1.3A1.14,1.14,0,0,1,112.87,57.59Z"/><path class="cls-75" d="M112.85,57.58a1.12,1.12,0,1,1-.95-1.27A1.11,1.11,0,0,1,112.85,57.58Z"/><path class="cls-76" d="M112.83,57.58a1.1,1.1,0,1,1-.93-1.25A1.1,1.1,0,0,1,112.83,57.58Z"/><path class="cls-77" d="M112.81,57.58a1.08,1.08,0,1,1-.91-1.23A1.07,1.07,0,0,1,112.81,57.58Z"/><path class="cls-78" d="M112.79,57.58a1,1,0,0,1-1.2.89,1.06,1.06,0,1,1,1.2-.89Z"/><path class="cls-79" d="M112.77,57.57a1,1,0,0,1-1.18.88,1,1,0,1,1,1.18-.88Z"/><path class="cls-80" d="M112.75,57.57a1,1,0,1,1-.86-1.16A1,1,0,0,1,112.75,57.57Z"/><path class="cls-81" d="M112.73,57.57a1,1,0,1,1-.84-1.14A1,1,0,0,1,112.73,57.57Z"/><path class="cls-82" d="M112.71,57.56a1,1,0,0,1-1.11.83,1,1,0,1,1,1.11-.83Z"/><path class="cls-83" d="M112.69,57.56a1,1,0,0,1-1.09.81,1,1,0,0,1,.28-1.9A1,1,0,0,1,112.69,57.56Z"/><path class="cls-84" d="M112.67,57.56a.94.94,0,1,1-.79-1.07A.95.95,0,0,1,112.67,57.56Z"/><path class="cls-85" d="M112.65,57.56a.92.92,0,1,1-.77-1.05A.92.92,0,0,1,112.65,57.56Z"/><path class="cls-86" d="M112.63,57.55a.89.89,0,0,1-1,.75.88.88,0,0,1-.75-1,.89.89,0,1,1,1.77.26Z"/><path class="cls-87" d="M112.61,57.55a.87.87,0,1,1-.74-1A.89.89,0,0,1,112.61,57.55Z"/><path class="cls-88" d="M112.59,57.55a.85.85,0,0,1-1,.71.83.83,0,0,1-.72-1,.85.85,0,0,1,1-.73A.86.86,0,0,1,112.59,57.55Z"/><path class="cls-89" d="M112.57,57.54a.83.83,0,0,1-.95.7.81.81,0,0,1-.7-.94.83.83,0,1,1,1.65.24Z"/><path class="cls-90" d="M112.55,57.54a.81.81,0,0,1-.93.68.8.8,0,0,1-.68-.92.81.81,0,1,1,1.61.24Z"/><path class="cls-91" d="M112.53,57.54a.79.79,0,0,1-.91.66.79.79,0,1,1,.24-1.56A.79.79,0,0,1,112.53,57.54Z"/><path class="cls-92" d="M112.51,57.53a.77.77,0,1,1-1.53-.22.77.77,0,0,1,1.53.22Z"/><path class="cls-93" d="M112.49,57.53a.77.77,0,0,1-.86.64.76.76,0,0,1-.63-.86.74.74,0,0,1,.85-.63A.75.75,0,0,1,112.49,57.53Z"/><path class="cls-94" d="M112.47,57.53a.75.75,0,0,1-.84.62.74.74,0,0,1-.61-.84.73.73,0,0,1,.83-.61A.74.74,0,0,1,112.47,57.53Z"/><path class="cls-95" d="M112.45,57.53a.71.71,0,0,1-1.41-.21.71.71,0,1,1,1.41.21Z"/><path class="cls-96" d="M112.43,57.52a.71.71,0,0,1-.79.59.69.69,0,0,1-.58-.79.68.68,0,0,1,.78-.58A.69.69,0,0,1,112.43,57.52Z"/><path class="cls-97" d="M112.41,57.52a.68.68,0,0,1-.77.56.67.67,0,0,1,.2-1.32A.67.67,0,0,1,112.41,57.52Z"/><path class="cls-98" d="M112.39,57.52a.65.65,0,0,1-.74.54.65.65,0,1,1,.19-1.28A.65.65,0,0,1,112.39,57.52Z"/><path class="cls-99" d="M112.37,57.51a.64.64,0,0,1-.72.53.63.63,0,0,1-.53-.71.62.62,0,0,1,.71-.53A.63.63,0,0,1,112.37,57.51Z"/><path class="cls-100" d="M112.35,57.51a.62.62,0,0,1-.7.51.61.61,0,1,1,.18-1.2A.62.62,0,0,1,112.35,57.51Z"/><path class="cls-101" d="M112.32,57.51a.58.58,0,0,1-.67.49.59.59,0,1,1,.18-1.16A.58.58,0,0,1,112.32,57.51Z"/><path class="cls-102" d="M112.3,57.51a.56.56,0,0,1-.64.47.57.57,0,1,1,.64-.47Z"/><path class="cls-103" d="M112.28,57.5a.55.55,0,1,1-.46-.62A.54.54,0,0,1,112.28,57.5Z"/><path class="cls-104" d="M112.26,57.5a.53.53,0,1,1-.44-.6A.53.53,0,0,1,112.26,57.5Z"/><path class="cls-105" d="M112.24,57.5a.5.5,0,0,1-.57.42.51.51,0,0,1-.43-.57.51.51,0,0,1,.58-.43A.51.51,0,0,1,112.24,57.5Z"/><path class="cls-106" d="M112.22,57.49a.48.48,0,0,1-.55.41.49.49,0,1,1,.14-1A.48.48,0,0,1,112.22,57.49Z"/><path class="cls-107" d="M112.2,57.49a.46.46,0,0,1-.53.39.47.47,0,0,1,.14-.92A.46.46,0,0,1,112.2,57.49Z"/><path class="cls-108" d="M112.18,57.49a.44.44,0,0,1-.51.37.43.43,0,0,1-.36-.5.44.44,0,0,1,.5-.38A.44.44,0,0,1,112.18,57.49Z"/><path class="cls-109" d="M112.16,57.48a.43.43,0,0,1-.48.36.42.42,0,1,1,.48-.36Z"/><path class="cls-110" d="M112.14,57.48a.41.41,0,0,1-.46.34.4.4,0,0,1,.12-.8A.41.41,0,0,1,112.14,57.48Z"/></g><path class="cls-130" d="M112.14,65.42s-.07,0-.07.06a2.9,2.9,0,0,1-1.51.26,1.91,1.91,0,0,1-1.31-.72h-.13s0-.08-.13-.13a1.3,1.3,0,0,1-.26-1,.78.78,0,0,1,.39-.46c.22,0,.35-.17.39-.52l.27-2.1a1.44,1.44,0,0,1,.59-1c0-.09.17-.14.39-.14l-.07.46a1.29,1.29,0,0,0,1.45.27l.06-.53a1.54,1.54,0,0,0,.33.2,1.83,1.83,0,0,1,.26,1.18l-.33,2.1c0,.26,0,.43.13.52a.79.79,0,0,1,.27.59,1.78,1.78,0,0,1-.66.85Z"/><path class="cls-131" d="M111.28,71.38a3,3,0,0,1-1.7.2,2.21,2.21,0,0,1-1.31-.59.59.59,0,0,1-.33-.33h-.13s0-.06-.07-.06a1.4,1.4,0,0,1-.13-.2,2,2,0,0,1-.26-1.25.67.67,0,0,1,.46-.59c.35,0,.68-.39,1-1l.33-2.49h.13a1.91,1.91,0,0,0,1.31.72,2.9,2.9,0,0,0,1.51-.26s0-.06.07-.06l-.33,2.49a2.09,2.09,0,0,0,.39,1.31.81.81,0,0,1,.39.72,1.79,1.79,0,0,1-.85,1.11.22.22,0,0,0-.06.14h-.13C111.46,71.32,111.37,71.38,111.28,71.38Z"/><path class="cls-132" d="M109.25,79.77a6.65,6.65,0,0,1-.85-.06,3.79,3.79,0,0,1-.72-.2c-.26-.09-.48-.15-.66-.2a2.23,2.23,0,0,0-.59-.32,4.35,4.35,0,0,0-.46-.53V78.4a.24.24,0,0,1-.13-.07,2.14,2.14,0,0,1-.59-2,1,1,0,0,1,.66-.78c.92-.18,1.61-1.09,2.1-2.76l.26-1.83a2.21,2.21,0,0,0,1.31.59,3,3,0,0,0,1.7-.2L111,73.09q0,2.68.72,3.21a1.26,1.26,0,0,1,.72,1.18,2.67,2.67,0,0,1-1.11,1.57s0,.07-.07.07a.38.38,0,0,1-.26.19,2.73,2.73,0,0,0-.33.14,5.48,5.48,0,0,0-.59.26A6.52,6.52,0,0,1,109.25,79.77Z"/><path class="cls-113" d="M109.05,80.82l-.78-.13a4.85,4.85,0,0,0-.72-.07l.13-1.11a3.79,3.79,0,0,0,.72.2,6.65,6.65,0,0,0,.85.06Z"/><path class="cls-133" d="M107.55,80.62a4.85,4.85,0,0,1,.72.07l.78.13-.32,2.23a.58.58,0,0,1-.33.52.48.48,0,0,1-.53.2.59.59,0,0,1-.52-.33.72.72,0,0,1-.13-.59Z"/><g class="cls-134"><rect class="cls-34" x="105.32" y="54.4" width="1.81" height="3.08"/><path class="cls-35" d="M108.36,54.49a2,2,0,1,1-1.64-2.21A1.94,1.94,0,0,1,108.36,54.49Z"/><path class="cls-36" d="M108.34,54.49a1.93,1.93,0,1,1-1.62-2.19A1.92,1.92,0,0,1,108.34,54.49Z"/><path class="cls-37" d="M108.32,54.49a1.91,1.91,0,1,1-1.61-2.17A1.9,1.9,0,0,1,108.32,54.49Z"/><path class="cls-38" d="M108.3,54.48a1.89,1.89,0,1,1-1.59-2.14A1.88,1.88,0,0,1,108.3,54.48Z"/><path class="cls-39" d="M108.28,54.48a1.86,1.86,0,1,1-1.57-2.12A1.86,1.86,0,0,1,108.28,54.48Z"/><path class="cls-40" d="M108.26,54.48a1.84,1.84,0,1,1-1.56-2.1A1.84,1.84,0,0,1,108.26,54.48Z"/><path class="cls-41" d="M108.24,54.47a1.82,1.82,0,1,1-3.61-.53,1.82,1.82,0,0,1,3.61.53Z"/><path class="cls-42" d="M108.22,54.47a1.8,1.8,0,1,1-1.52-2A1.8,1.8,0,0,1,108.22,54.47Z"/><path class="cls-43" d="M108.2,54.47a1.78,1.78,0,1,1-1.5-2A1.78,1.78,0,0,1,108.2,54.47Z"/><path class="cls-44" d="M108.18,54.46a1.76,1.76,0,1,1-1.49-2A1.77,1.77,0,0,1,108.18,54.46Z"/><path class="cls-45" d="M108.16,54.46a1.74,1.74,0,1,1-1.47-2A1.74,1.74,0,0,1,108.16,54.46Z"/><path class="cls-46" d="M108.14,54.46a1.72,1.72,0,0,1-3.41-.5,1.71,1.71,0,0,1,2-1.45A1.72,1.72,0,0,1,108.14,54.46Z"/><path class="cls-47" d="M108.12,54.46a1.7,1.7,0,1,1-1.44-1.93A1.7,1.7,0,0,1,108.12,54.46Z"/><path class="cls-48" d="M108.1,54.45a1.68,1.68,0,1,1-1.42-1.9A1.69,1.69,0,0,1,108.1,54.45Z"/><path class="cls-49" d="M108.08,54.45a1.66,1.66,0,1,1-3.29-.49,1.66,1.66,0,0,1,3.29.49Z"/><path class="cls-50" d="M108.06,54.45a1.64,1.64,0,1,1-1.39-1.86A1.65,1.65,0,0,1,108.06,54.45Z"/><path class="cls-51" d="M108,54.44a1.62,1.62,0,1,1-1.37-1.83A1.63,1.63,0,0,1,108,54.44Z"/><path class="cls-52" d="M108,54.44a1.6,1.6,0,1,1-1.35-1.81A1.61,1.61,0,0,1,108,54.44Z"/><path class="cls-53" d="M108,54.44a1.58,1.58,0,1,1-1.33-1.79A1.58,1.58,0,0,1,108,54.44Z"/><path class="cls-54" d="M108,54.43a1.56,1.56,0,1,1-1.32-1.76A1.56,1.56,0,0,1,108,54.43Z"/><path class="cls-55" d="M108,54.43a1.54,1.54,0,1,1-3-.45,1.54,1.54,0,0,1,3,.45Z"/><path class="cls-56" d="M107.94,54.43a1.52,1.52,0,1,1-1.28-1.72A1.53,1.53,0,0,1,107.94,54.43Z"/><path class="cls-57" d="M107.92,54.43a1.51,1.51,0,0,1-1.7,1.26,1.5,1.5,0,0,1,.43-3A1.51,1.51,0,0,1,107.92,54.43Z"/><path class="cls-58" d="M107.89,54.42a1.47,1.47,0,1,1-1.24-1.67A1.48,1.48,0,0,1,107.89,54.42Z"/><path class="cls-59" d="M107.87,54.42A1.45,1.45,0,1,1,105,54a1.45,1.45,0,1,1,2.87.43Z"/><path class="cls-60" d="M107.85,54.42a1.43,1.43,0,1,1-1.2-1.63A1.44,1.44,0,0,1,107.85,54.42Z"/><path class="cls-61" d="M107.83,54.41a1.41,1.41,0,1,1-1.19-1.6A1.41,1.41,0,0,1,107.83,54.41Z"/><path class="cls-62" d="M107.81,54.41a1.39,1.39,0,1,1-1.17-1.58A1.38,1.38,0,0,1,107.81,54.41Z"/><path class="cls-63" d="M107.79,54.41a1.37,1.37,0,1,1-1.15-1.56A1.38,1.38,0,0,1,107.79,54.41Z"/><path class="cls-64" d="M107.77,54.41a1.35,1.35,0,1,1-1.14-1.54A1.35,1.35,0,0,1,107.77,54.41Z"/><path class="cls-65" d="M107.75,54.4a1.33,1.33,0,1,1-1.13-1.51A1.34,1.34,0,0,1,107.75,54.4Z"/><path class="cls-66" d="M107.73,54.4a1.31,1.31,0,1,1-1.11-1.49A1.31,1.31,0,0,1,107.73,54.4Z"/><path class="cls-67" d="M107.71,54.4a1.29,1.29,0,1,1-1.09-1.47A1.28,1.28,0,0,1,107.71,54.4Z"/><path class="cls-68" d="M107.69,54.39A1.27,1.27,0,1,1,106.62,53,1.28,1.28,0,0,1,107.69,54.39Z"/><path class="cls-69" d="M107.67,54.39A1.25,1.25,0,1,1,106.61,53,1.25,1.25,0,0,1,107.67,54.39Z"/><path class="cls-70" d="M107.65,54.39a1.23,1.23,0,1,1-1-1.4A1.23,1.23,0,0,1,107.65,54.39Z"/><path class="cls-71" d="M107.63,54.38a1.21,1.21,0,1,1-1-1.37A1.21,1.21,0,0,1,107.63,54.38Z"/><path class="cls-72" d="M107.61,54.38a1.19,1.19,0,1,1-1-1.34A1.19,1.19,0,0,1,107.61,54.38Z"/><path class="cls-73" d="M107.59,54.38a1.17,1.17,0,1,1-1-1.32A1.17,1.17,0,0,1,107.59,54.38Z"/><path class="cls-74" d="M107.57,54.38A1.15,1.15,0,0,1,105.3,54a1.13,1.13,0,0,1,1.3-1A1.14,1.14,0,0,1,107.57,54.38Z"/><path class="cls-75" d="M107.55,54.37a1.13,1.13,0,1,1-2.23-.33,1.11,1.11,0,0,1,1.27-.94A1.13,1.13,0,0,1,107.55,54.37Z"/><path class="cls-76" d="M107.53,54.37a1.11,1.11,0,0,1-2.19-.33,1.11,1.11,0,0,1,2.19.33Z"/><path class="cls-77" d="M107.51,54.37a1.09,1.09,0,1,1-.92-1.23A1.08,1.08,0,0,1,107.51,54.37Z"/><path class="cls-78" d="M107.49,54.36a1.07,1.07,0,1,1-.9-1.2A1.07,1.07,0,0,1,107.49,54.36Z"/><path class="cls-79" d="M107.46,54.36a1,1,0,1,1-.88-1.18A1,1,0,0,1,107.46,54.36Z"/><path class="cls-80" d="M107.44,54.36a1,1,0,1,1-.86-1.16A1,1,0,0,1,107.44,54.36Z"/><path class="cls-81" d="M107.42,54.36a1,1,0,1,1-.84-1.14A1,1,0,0,1,107.42,54.36Z"/><path class="cls-82" d="M107.4,54.35a1,1,0,1,1-.83-1.11A1,1,0,0,1,107.4,54.35Z"/><path class="cls-83" d="M107.38,54.35a1,1,0,0,1-1.09.81,1,1,0,0,1-.81-1.09,1,1,0,0,1,1.9.28Z"/><path class="cls-84" d="M107.36,54.35a.92.92,0,0,1-1.06.78.93.93,0,1,1,.27-1.85A.93.93,0,0,1,107.36,54.35Z"/><path class="cls-85" d="M107.34,54.34a.92.92,0,0,1-1.82-.27.92.92,0,0,1,1.82.27Z"/><path class="cls-86" d="M107.32,54.34a.89.89,0,0,1-1,.75.9.9,0,0,1-.76-1,.91.91,0,0,1,1-.75A.89.89,0,0,1,107.32,54.34Z"/><path class="cls-87" d="M107.3,54.34a.88.88,0,0,1-1.74-.26.88.88,0,1,1,1.74.26Z"/><path class="cls-88" d="M107.28,54.33a.85.85,0,1,1-.72-1A.85.85,0,0,1,107.28,54.33Z"/><path class="cls-89" d="M107.26,54.33a.83.83,0,1,1-.71-.95A.83.83,0,0,1,107.26,54.33Z"/><path class="cls-90" d="M107.24,54.33a.81.81,0,0,1-.93.68.8.8,0,0,1-.68-.92.81.81,0,1,1,1.61.24Z"/><path class="cls-91" d="M107.22,54.33a.79.79,0,0,1-1.57-.24.79.79,0,0,1,.9-.67A.81.81,0,0,1,107.22,54.33Z"/><path class="cls-92" d="M107.2,54.32a.77.77,0,1,1-.66-.88A.78.78,0,0,1,107.2,54.32Z"/><path class="cls-93" d="M107.18,54.32a.76.76,0,0,1-.86.63.75.75,0,1,1,.86-.63Z"/><path class="cls-94" d="M107.16,54.32a.73.73,0,0,1-1.45-.22.71.71,0,0,1,.83-.61A.73.73,0,0,1,107.16,54.32Z"/><path class="cls-95" d="M107.14,54.31a.71.71,0,0,1-1.41-.2.71.71,0,0,1,1.41.2Z"/><path class="cls-96" d="M107.12,54.31a.69.69,0,0,1-1.37-.2.68.68,0,0,1,.78-.58A.69.69,0,0,1,107.12,54.31Z"/><path class="cls-97" d="M107.1,54.31a.68.68,0,0,1-.77.56.67.67,0,0,1-.56-.76.66.66,0,0,1,.76-.56A.67.67,0,0,1,107.1,54.31Z"/><path class="cls-98" d="M107.08,54.31a.66.66,0,0,1-.74.54.65.65,0,0,1-.55-.74.65.65,0,0,1,.74-.55A.67.67,0,0,1,107.08,54.31Z"/><path class="cls-99" d="M107.06,54.3a.64.64,0,0,1-.72.53.63.63,0,0,1-.53-.71.63.63,0,1,1,1.25.18Z"/><path class="cls-100" d="M107,54.29a.61.61,0,1,1-1.2-.17.62.62,0,0,1,.69-.52A.59.59,0,0,1,107,54.29Z"/><path class="cls-101" d="M107,54.29a.57.57,0,0,1-.66.5.59.59,0,0,1,.17-1.17A.59.59,0,0,1,107,54.29Z"/><path class="cls-102" d="M107,54.29a.57.57,0,0,1-.64.48.57.57,0,1,1,.64-.48Z"/><path class="cls-103" d="M107,54.29a.55.55,0,1,1-1.08-.16.56.56,0,0,1,.62-.47A.55.55,0,0,1,107,54.29Z"/><path class="cls-104" d="M107,54.28a.52.52,0,0,1-.59.45.54.54,0,0,1-.45-.6.53.53,0,0,1,1,.15Z"/><path class="cls-105" d="M106.93,54.28a.5.5,0,0,1-.57.43.51.51,0,1,1,.57-.43Z"/><path class="cls-106" d="M106.91,54.28a.48.48,0,0,1-.55.41.49.49,0,0,1-.41-.55.48.48,0,0,1,.55-.41A.48.48,0,0,1,106.91,54.28Z"/><path class="cls-107" d="M106.89,54.27a.47.47,0,0,1-.53.4.48.48,0,0,1-.39-.53.47.47,0,0,1,.53-.39A.46.46,0,0,1,106.89,54.27Z"/><path class="cls-108" d="M106.87,54.27a.45.45,0,0,1-.5.38.44.44,0,1,1,.5-.38Z"/><path class="cls-109" d="M106.85,54.27a.43.43,0,0,1-.48.36.42.42,0,0,1-.35-.48.42.42,0,0,1,.47-.36A.41.41,0,0,1,106.85,54.27Z"/><path class="cls-110" d="M106.83,54.27a.41.41,0,0,1-.46.34.4.4,0,0,1,.12-.8A.41.41,0,0,1,106.83,54.27Z"/></g><path class="cls-135" d="M106.83,62.27a.19.19,0,0,0-.14.07,2.57,2.57,0,0,1-1.5.19,2.27,2.27,0,0,1-1.31-.65l-.07-.07s0-.09-.13-.13a1.31,1.31,0,0,1-.26-1,.84.84,0,0,1,.39-.4c.17,0,.28-.19.33-.59l.33-2a1.45,1.45,0,0,1,.59-1c0-.08.11-.13.32-.13l-.06.53a1.29,1.29,0,0,0,1.51.19l.06-.52a.71.71,0,0,0,.26.26,1.51,1.51,0,0,1,.33,1.18l-.39,2.1a.69.69,0,0,0,.19.52.55.55,0,0,1,.2.53,1.61,1.61,0,0,1-.59.85v.07A.05.05,0,0,0,106.83,62.27Z"/><path class="cls-136" d="M106,68.17a3.76,3.76,0,0,1-1.77.26,2.3,2.3,0,0,1-1.24-.65.6.6,0,0,1-.39-.27h-.07s0-.06-.13-.06a.48.48,0,0,0-.07-.26A1.67,1.67,0,0,1,102,66a1,1,0,0,1,.53-.66c.31,0,.63-.35,1-1l.33-2.49.07.07a2.27,2.27,0,0,0,1.31.65,2.57,2.57,0,0,0,1.5-.19.19.19,0,0,1,.14-.07l-.4,2.43a1.94,1.94,0,0,0,.4,1.31.87.87,0,0,1,.39.78,1.59,1.59,0,0,1-.79,1.12.19.19,0,0,0-.06.13c-.05,0-.11,0-.2,0S106,68.17,106,68.17Z"/><path class="cls-137" d="M103.88,76.56a6.67,6.67,0,0,1-.86-.06l-.65-.14a6.89,6.89,0,0,0-.72-.26l-.53-.33a5.21,5.21,0,0,1-.52-.45v-.07a.17.17,0,0,1-.13-.07,2.45,2.45,0,0,1-.59-2,1.14,1.14,0,0,1,.65-.85c.92-.14,1.64-1.05,2.17-2.76l.26-1.83a2.3,2.3,0,0,0,1.24.65,3.76,3.76,0,0,0,1.77-.26l-.26,1.7c0,1.84.24,2.91.72,3.22a1.31,1.31,0,0,1,.66,1.18,2.47,2.47,0,0,1-1,1.64s0,.06-.13.06a.86.86,0,0,1-.2.13,1.8,1.8,0,0,0-.39.2,5.9,5.9,0,0,1-.59.2A6.65,6.65,0,0,1,103.88,76.56Z"/><path class="cls-113" d="M102.37,76.36l.65.14a6.67,6.67,0,0,0,.86.06l-.14,1a5.51,5.51,0,0,0-.85-.07,5.29,5.29,0,0,1-.65-.13Z"/><path class="cls-138" d="M102.24,77.41a5.29,5.29,0,0,0,.65.13,5.51,5.51,0,0,1,.85.07l-.32,2.29a.79.79,0,0,1-.4.46.6.6,0,0,1-.52.26,1,1,0,0,1-.53-.39,1.38,1.38,0,0,1-.13-.59Z"/><path class="cls-139" d="M89.65,66.53v.07a3.62,3.62,0,0,1-1.18,1.05,2.12,2.12,0,0,1-1.44.13H86.9a.26.26,0,0,0-.2-.07,1,1,0,0,1-.72-.65.9.9,0,0,1,.07-.59c.13-.14.13-.35,0-.66l-.86-1.9a1.14,1.14,0,0,1,0-1.18c0-.09,0-.2.13-.33l.27.53a1.22,1.22,0,0,0,1.31-.66l-.2-.46a.84.84,0,0,0,.4.07,1.67,1.67,0,0,1,.85.78l.85,2a.8.8,0,0,0,.39.39.54.54,0,0,1,.53.27,2.6,2.6,0,0,1,0,1.11A.17.17,0,0,0,89.65,66.53Z"/><path class="cls-140" d="M86.7,61.81l.2.46a1.22,1.22,0,0,1-1.31.66l-.27-.53-.59-1.31a2.61,2.61,0,0,1-.06-.59,1.79,1.79,0,0,1,.39-.39,1,1,0,0,1,.59-.07.82.82,0,0,1,.4.46Z"/><path class="cls-141" d="M92.14,72a3.65,3.65,0,0,1-1.31,1.12,2.94,2.94,0,0,1-1.38.19.69.69,0,0,1-.52-.06h-.2s-.08,0-.13-.13a1.59,1.59,0,0,1-1-.86.73.73,0,0,1,.13-.72c.26-.22.35-.7.26-1.44L86.9,67.78H87a2.12,2.12,0,0,0,1.44-.13,3.62,3.62,0,0,0,1.18-1.05v-.07l1,2.16a2.32,2.32,0,0,0,1,1,.73.73,0,0,1,.72.39,1.67,1.67,0,0,1-.07,1.38v.13s-.06,0-.06.13A1.13,1.13,0,0,1,92.14,72Z"/><path class="cls-142" d="M95,80.1a3.28,3.28,0,0,0-.72.46,7.51,7.51,0,0,1-.73.2l-.65.19a1.82,1.82,0,0,0-.66,0l-.65-.13-.07-.06s-.11,0-.19,0a2.18,2.18,0,0,1-1.51-1.31,1.29,1.29,0,0,1,.06-1c.7-.62.79-1.77.27-3.48l-.73-1.64a2.94,2.94,0,0,0,1.38-.19A3.65,3.65,0,0,0,92.14,72l.79,1.51c1,1.53,1.75,2.32,2.36,2.36a1.24,1.24,0,0,1,1.18.59,2.38,2.38,0,0,1-.07,2l-.06.06a.48.48,0,0,1-.07.26.52.52,0,0,0-.19.33,3.16,3.16,0,0,1-.4.53A4.11,4.11,0,0,1,95,80.1Z"/><path class="cls-143" d="M94,81.74a5.08,5.08,0,0,0,.66-.33,3.38,3.38,0,0,0,.72-.33l1,2.1a.58.58,0,0,1-.06.59.55.55,0,0,1-.92.4.84.84,0,0,1-.46-.4Z"/><path class="cls-113" d="M95.42,81.08a3.38,3.38,0,0,1-.72.33,5.08,5.08,0,0,1-.66.33l-.46-1a7.51,7.51,0,0,0,.73-.2A3.28,3.28,0,0,1,95,80.1Z"/><path class="cls-144" d="M92.54,65.16l.19.45a1.15,1.15,0,0,1-1.37.59l-.2-.46-.59-1.31a.9.9,0,0,1-.07-.59.63.63,0,0,1,.33-.39,1.12,1.12,0,0,1,.66-.06.75.75,0,0,1,.39.45Z"/><path class="cls-145" d="M95.42,69.87v.07a2.76,2.76,0,0,1-1.18,1,2.06,2.06,0,0,1-1.44.13h-.07a.38.38,0,0,0-.26-.07,1.12,1.12,0,0,1-.72-.65,1.25,1.25,0,0,1,.13-.59q.2-.19,0-.66L91,67.25a1.43,1.43,0,0,1,0-1.18.6.6,0,0,1,.2-.33l.2.46a1.15,1.15,0,0,0,1.37-.59l-.19-.45a.73.73,0,0,0,.32.06,1.58,1.58,0,0,1,.92.79l.85,2a.61.61,0,0,0,.4.4.47.47,0,0,1,.46.26,1.46,1.46,0,0,1,0,1.05v.06A.19.19,0,0,0,95.42,69.87Z"/><path class="cls-146" d="M98,75.32a3.75,3.75,0,0,1-1.38,1.11,2.86,2.86,0,0,1-1.31.2.8.8,0,0,1-.59-.13v.06a.09.09,0,0,0-.13,0,.86.86,0,0,0-.2-.13,1.94,1.94,0,0,1-.92-.85.58.58,0,0,1,.13-.72,2,2,0,0,0,.27-1.45l-1.12-2.29h.07A2.06,2.06,0,0,0,94.24,71a2.76,2.76,0,0,0,1.18-1v-.07l1.11,2.23a2.41,2.41,0,0,0,1,.92.81.81,0,0,1,.72.39,2.19,2.19,0,0,1-.06,1.38c0,.09,0,.13,0,.13a.16.16,0,0,0-.13.07C98.06,75.12,98,75.23,98,75.32Z"/><path class="cls-147" d="M100.79,83.44l-.72.46a3,3,0,0,1-.65.2,2.16,2.16,0,0,0-.72.2,1.47,1.47,0,0,0-.66,0,1.39,1.39,0,0,0-.65-.13l-.07-.07a.09.09,0,0,1-.13,0,2,2,0,0,1-1.51-1.31,1,1,0,0,1,.07-1.05c.65-.66.74-1.81.26-3.47l-.72-1.64a2.86,2.86,0,0,0,1.31-.2A3.75,3.75,0,0,0,98,75.32l.72,1.5c1,1.53,1.79,2.32,2.36,2.36a1.38,1.38,0,0,1,1.24.59,2.79,2.79,0,0,1-.06,2l-.07.13a.58.58,0,0,1-.06.2.58.58,0,0,0-.27.33,2.93,2.93,0,0,1-.39.52A3.33,3.33,0,0,1,100.79,83.44Z"/><path class="cls-113" d="M101.19,84.43a7,7,0,0,0-.72.32c-.18.09-.37.2-.59.33l-.46-1a3,3,0,0,0,.65-.2l.72-.46Z"/><path class="cls-148" d="M99.88,85.08c.22-.13.41-.24.59-.33a7,7,0,0,1,.72-.32l1,2a1.12,1.12,0,0,1-.07.65.58.58,0,0,1-.33.46.7.7,0,0,1-.65-.06.86.86,0,0,1-.4-.4Z"/><path class="cls-6" d="M104.29,135.19a12.52,12.52,0,0,1-6.3-1.81L39.31,99.73c-2.35-1.36-3.49-2.8-3.5-4.41s1.13-3,3.45-4.39l5.67-3.24A1.31,1.31,0,1,1,46.23,90L40.57,93.2c-2,1.16-2.14,1.92-2.14,2.12s.16,1,2.19,2.14L99.3,131.11a9.25,9.25,0,0,0,10,0l29.24-16.77a1.31,1.31,0,1,1,1.3,2.27l-29.23,16.77A12.36,12.36,0,0,1,104.29,135.19Z"/><path class="cls-6" d="M104.29,129.49a12.52,12.52,0,0,1-6.3-1.81L39.31,94c-2.35-1.36-3.49-2.8-3.5-4.41s1.13-3,3.45-4.39L44.93,82a1.31,1.31,0,0,1,1.3,2.28L40.57,87.5c-2,1.16-2.14,1.91-2.14,2.12s.16,1,2.19,2.13L99.3,125.41a9.25,9.25,0,0,0,10,0l29.24-16.77a1.31,1.31,0,1,1,1.3,2.27l-29.23,16.77A12.36,12.36,0,0,1,104.29,129.49Z"/><path class="cls-6" d="M50.21,110.76a1.31,1.31,0,0,1-1.31-1.31V98.94a1.31,1.31,0,0,1,2.62,0v10.51A1.31,1.31,0,0,1,50.21,110.76Z"/><path class="cls-6" d="M37.1,101.25a1.3,1.3,0,0,1-1.31-1.31V89.43a1.31,1.31,0,1,1,2.62,0V99.94A1.31,1.31,0,0,1,37.1,101.25Z"/><path class="cls-6" d="M65,119.08a1.31,1.31,0,0,1-1.32-1.31V107.26a1.32,1.32,0,0,1,2.63,0v10.51A1.31,1.31,0,0,1,65,119.08Z"/><path class="cls-6" d="M84.62,131.41a1.31,1.31,0,0,1-1.31-1.31V119.59a1.32,1.32,0,1,1,2.63,0V130.1A1.32,1.32,0,0,1,84.62,131.41Z"/><path class="cls-6" d="M103.24,140a1.31,1.31,0,0,1-1.31-1.31V128.17a1.31,1.31,0,0,1,2.62,0v10.51A1.3,1.3,0,0,1,103.24,140Z"/><path class="cls-6" d="M117.86,134.09a1.3,1.3,0,0,1-1.31-1.31V122.27a1.31,1.31,0,0,1,2.62,0v10.51A1.31,1.31,0,0,1,117.86,134.09Z"/><path class="cls-6" d="M130.25,126.75a1.3,1.3,0,0,1-1.31-1.31V114.93a1.31,1.31,0,0,1,2.62,0v10.51A1.31,1.31,0,0,1,130.25,126.75Z"/><path class="cls-6" d="M130.25,110.76a1.31,1.31,0,0,1-1.31-1.31V98.94a1.31,1.31,0,0,1,2.62,0v10.51A1.31,1.31,0,0,1,130.25,110.76Z"/><path class="cls-6" d="M74.92,79.82a1.31,1.31,0,0,1-1.31-1.31V68a1.31,1.31,0,0,1,2.62,0V78.51A1.31,1.31,0,0,1,74.92,79.82Z"/><path class="cls-149" d="M72.4,54.18a1.34,1.34,0,0,1-.51-.11,1.3,1.3,0,0,1-.7-1.71c3.94-9.41,8.1-14.22,12.73-14.7,3.78-.39,7.6,2.2,11.39,7.71a1.31,1.31,0,0,1-2.17,1.48c-3.19-4.65-6.22-6.87-9-6.58-3.49.36-7.15,4.89-10.58,13.1A1.32,1.32,0,0,1,72.4,54.18Z"/><path class="cls-149" d="M79.88,57.93a1.38,1.38,0,0,1-.56-.12,1.31,1.31,0,0,1-.63-1.75c4.87-10.35,9.37-15.39,13.75-15.39h0c3.23,0,6,2.59,8.54,7.92a1.31,1.31,0,0,1-2.37,1.12c-1.38-2.93-3.58-6.42-6.17-6.42h0c-2.21,0-6,2.41-11.38,13.89A1.3,1.3,0,0,1,79.88,57.93Z"/><path class="cls-149" d="M85.76,62.18a1.3,1.3,0,0,1-1.17-1.89C90,49.43,94.79,44.21,99.27,44.37c3.25.1,6,2.82,8.27,8.33a1.31,1.31,0,0,1-2.41,1c-1.28-3-3.34-6.65-5.94-6.73h-.1c-2.28,0-6.23,2.55-12.16,14.46A1.29,1.29,0,0,1,85.76,62.18Z"/><path class="cls-149" d="M91.61,64.31a1.21,1.21,0,0,1-.61-.16,1.3,1.3,0,0,1-.55-1.77c5.18-9.82,9.82-14.6,14.16-14.6h.2c3.26.12,6,2.76,8.34,8.08a1.31,1.31,0,0,1-2.4,1.06c-1.88-4.25-3.91-6.44-6-6.52h-.12c-2.25,0-6.11,2.34-11.84,13.21A1.33,1.33,0,0,1,91.61,64.31Z"/></svg>