<?xml version="1.0" encoding="utf-8"?>
<!-- Generator: Adobe Illustrator 23.0.0, SVG Export Plug-In . SVG Version: 6.00 Build 0)  -->
<svg version="1.1" id="图层_1" xmlns="http://www.w3.org/2000/svg" xmlns:xlink="http://www.w3.org/1999/xlink" x="0px" y="0px"
	 viewBox="0 0 300 300" style="enable-background:new 0 0 300 300;" xml:space="preserve">
<style type="text/css">
	.st0{clip-path:url(#SVGID_2_);fill:url(#SVGID_3_);}
	.st1{clip-path:url(#SVGID_2_);fill:#E4ECF9;}
	.st2{fill:url(#SVGID_4_);}
	.st3{fill:#1B4885;}
	.st4{fill:#2828CE;}
	.st5{fill:#ACC5EA;}
	.st6{fill:#FFFFFF;}
	.st7{fill:#9E7F1D;}
	.st8{fill:#C68620;}
	.st9{fill:#FFCD2E;}
	.st10{opacity:0.3;fill:url(#SVGID_5_);}
	.st11{fill:url(#SVGID_6_);}
	.st12{fill:url(#SVGID_7_);}
	.st13{fill:url(#SVGID_8_);}
	.st14{opacity:0.5;fill:url(#SVGID_9_);}
	.st15{opacity:0.5;fill:url(#SVGID_10_);}
</style>
<g>
	<g>
		<g>
			<defs>
				<rect id="SVGID_1_" x="18" y="47.5" width="263" height="204.6"/>
			</defs>
			<clipPath id="SVGID_2_">
				<use xlink:href="#SVGID_1_"  style="overflow:visible;"/>
			</clipPath>
			<linearGradient id="SVGID_3_" gradientUnits="userSpaceOnUse" x1="17.9495" y1="208.0523" x2="280.9827" y2="208.0523">
				<stop  offset="0" style="stop-color:#3282ED"/>
				<stop  offset="1" style="stop-color:#60A2F0"/>
			</linearGradient>
			<path class="st0" d="M280.98,165.07c-0.37,3.67-3.73,5.5-6.6,7.17c-2.67,1.53-5.33,3.1-7.97,4.64c-4.27,2.47-8.51,4.94-12.77,7.4
				c-5.34,3.1-10.64,6.2-15.98,9.27c-5.87,3.4-11.74,6.84-17.64,10.24c-5.9,3.44-11.81,6.87-17.74,10.31
				c-5.44,3.17-10.84,6.3-16.28,9.47c-4.43,2.57-8.84,5.14-13.27,7.7c-2.9,1.67-5.8,3.37-8.7,5.04c-2.2,1.27-4.27,2.54-6.77,3.27
				c-6.5,1.87-13.71,1.23-19.58-2.17c-2.1-1.23-4.24-2.43-6.34-3.67c-3.87-2.23-7.7-4.44-11.57-6.67
				c-5.07-2.93-10.14-5.87-15.21-8.77c-5.77-3.34-11.57-6.67-17.34-10.01c-5.97-3.43-11.94-6.9-17.91-10.34
				c-5.64-3.27-11.27-6.5-16.94-9.77l-14.41-8.31c-3.44-2-6.9-3.97-10.34-5.97c-1.57-0.9-3.13-1.8-4.7-2.73
				c-2.47-1.43-4.9-3.7-4.9-6.77c0,2.8,0,5.6-0.03,8.44c0,1-0.07,2.03,0,3.07c0.2,2.7,2.34,4.8,4.57,6.14
				c1.37,0.83,2.77,1.6,4.17,2.4c3.6,2.07,7.2,4.17,10.8,6.24c5.2,3,10.37,6,15.58,9c6.17,3.57,12.37,7.14,18.54,10.71
				c6.44,3.74,12.87,7.44,19.34,11.17c6.14,3.54,12.24,7.07,18.38,10.61c5.1,2.93,10.17,5.87,15.27,8.8c3.44,2,6.9,3.97,10.34,5.97
				c2,1.14,3.97,2.43,6.14,3.24c6.77,2.47,14.71,1.93,20.94-1.7c2.37-1.37,4.74-2.77,7.1-4.13c4.37-2.54,8.74-5.07,13.07-7.6
				c5.7-3.3,11.37-6.61,17.08-9.94c6.37-3.7,12.74-7.4,19.08-11.1l19.11-11.11c5.7-3.34,11.41-6.64,17.14-9.97
				c4.44-2.57,8.87-5.14,13.31-7.74c2.43-1.43,4.9-2.84,7.34-4.27c0.73-0.43,1.5-0.87,2.2-1.37c1.87-1.4,3.34-3.34,3.37-5.77
				c0.03-1.23,0-2.43,0-3.67c0-2.43,0-4.9,0.03-7.34C281.01,164.74,280.98,164.91,280.98,165.07
				C280.95,165.17,280.98,165.01,280.98,165.07L280.98,165.07z M280.98,165.07"/>
			<path class="st1" d="M276.21,157.9c6.34,3.67,6.37,9.64,0.07,13.31l-114.83,66.73c-6.3,3.67-16.61,3.67-22.94,0L22.85,171.21
				c-6.34-3.67-6.37-9.64-0.07-13.31l114.86-66.73c6.3-3.67,16.61-3.67,22.95,0L276.21,157.9z M276.21,157.9"/>
		</g>
		<linearGradient id="SVGID_4_" gradientUnits="userSpaceOnUse" x1="82.3464" y1="115.7332" x2="170.7571" y2="115.7332">
			<stop  offset="0" style="stop-color:#3282ED"/>
			<stop  offset="1" style="stop-color:#60A2F0"/>
		</linearGradient>
		<path class="st2" d="M126.37,58.39c0.53-0.3,1.07-0.43,1.5-0.3l1.17,0.33c0.33,0.07,6.9,1.5,17.21,0.33
			c10.04-1.3,19.58-6.5,20.08-6.77l1.8-1.03c1.4-0.8,2.5-0.17,2.5,1.43l0.13,47.52c0.07,25.38-28.51,68.87-43.99,77.81
			c-15.47,8.94-44.19-1.5-44.29-26.85l-0.13-47.86c0-1.6,1.1-3.54,2.5-4.34l1.8-1.03c0.5-0.3,10.04-5.8,20.04-16.41
			c10.3-10.77,16.81-19.74,17.17-20.21l1.1-1.47C125.43,59.09,125.9,58.65,126.37,58.39L126.37,58.39z M126.37,58.39"/>
		<path class="st3" d="M164.55,47.68C164.55,47.68,164.52,47.68,164.55,47.68c-0.07-0.03-0.1-0.07-0.13-0.07
			c-0.03-0.03-0.1-0.03-0.13-0.03c-0.03,0-0.07,0-0.1-0.03h-0.07c-0.03,0-0.1,0-0.17-0.03h-0.37c-0.07,0-0.13,0.03-0.23,0.03
			c-0.03,0-0.07,0.03-0.1,0.03c-0.03,0-0.07,0.03-0.1,0.03c-0.03,0-0.07,0.03-0.1,0.03c-0.1,0.03-0.23,0.1-0.37,0.17l-1.8,1.03
			c-0.03,0.03-0.1,0.07-0.2,0.1c0,0-0.03,0-0.03,0.03c-0.03,0.03-0.07,0.03-0.13,0.07c-0.03,0-0.07,0.03-0.07,0.03
			c-0.03,0.03-0.1,0.03-0.13,0.07c-0.03,0-0.07,0.03-0.1,0.07c-0.07,0.03-0.1,0.07-0.17,0.07c-0.03,0.03-0.07,0.03-0.13,0.07
			c-0.07,0.03-0.1,0.07-0.17,0.1c-0.03,0.03-0.1,0.07-0.17,0.07l-0.2,0.1c-0.07,0.03-0.1,0.07-0.17,0.1l-0.2,0.1l-0.2,0.1
			c-0.07,0.03-0.17,0.07-0.23,0.1l-0.2,0.1c-0.07,0.03-0.17,0.07-0.23,0.13c-0.07,0.03-0.17,0.07-0.23,0.1
			c-0.1,0.03-0.17,0.07-0.27,0.13c-0.07,0.03-0.17,0.07-0.23,0.1c-0.1,0.03-0.2,0.1-0.3,0.13c-0.1,0.03-0.17,0.07-0.27,0.1
			c-0.1,0.03-0.2,0.1-0.3,0.13c-0.1,0.03-0.17,0.07-0.27,0.13c-0.1,0.03-0.23,0.1-0.33,0.13c-0.1,0.03-0.17,0.07-0.27,0.13
			c-0.1,0.03-0.23,0.1-0.37,0.13c-0.1,0.03-0.2,0.07-0.3,0.13c-0.07,0.03-0.13,0.07-0.23,0.1c-0.2,0.07-0.37,0.17-0.57,0.23
			c-0.1,0.03-0.17,0.07-0.27,0.1c-0.2,0.07-0.37,0.13-0.57,0.23c-0.1,0.03-0.2,0.07-0.27,0.1c-0.23,0.1-0.5,0.2-0.73,0.27
			c-0.03,0-0.07,0.03-0.13,0.03c-0.3,0.1-0.6,0.2-0.9,0.33c-0.1,0.03-0.17,0.07-0.27,0.1c-0.23,0.07-0.43,0.17-0.67,0.23
			c-0.1,0.03-0.2,0.07-0.33,0.1c-0.23,0.07-0.43,0.13-0.67,0.2l-0.3,0.1c-0.3,0.1-0.6,0.17-0.87,0.27c-0.03,0-0.07,0.03-0.1,0.03
			c-0.33,0.1-0.67,0.2-1,0.27c-0.07,0.03-0.17,0.03-0.23,0.07c-0.3,0.1-0.63,0.17-0.94,0.23c-0.1,0.03-0.2,0.03-0.3,0.07
			c-0.4,0.1-0.77,0.2-1.17,0.27c-0.07,0-0.1,0.03-0.17,0.03c-0.33,0.07-0.7,0.13-1.03,0.2c-0.1,0.03-0.2,0.03-0.33,0.07l-1.2,0.2
			c-0.3,0.03-0.63,0.1-0.93,0.13c-0.57,0.07-1.14,0.1-1.7,0.17c-0.13,0-0.27,0.03-0.4,0.03c-0.53,0.03-1.03,0.07-1.57,0.1h-0.03
			c-0.53,0.03-1.03,0.07-1.53,0.07h-0.3c-0.47,0-0.93,0.03-1.4,0.03h-1.63c-0.43,0-0.83,0-1.23-0.03h-0.23
			c-0.4,0-0.77-0.03-1.1-0.03h-0.17c-0.3-0.03-0.6-0.03-0.9-0.07c-0.1,0-0.17,0-0.27-0.03c-0.33-0.03-0.63-0.07-0.93-0.07h-0.17
			c-0.23-0.03-0.47-0.03-0.7-0.07c-0.07,0-0.17-0.03-0.23-0.03c-0.23-0.03-0.43-0.07-0.63-0.07h-0.1c-0.23-0.03-0.43-0.07-0.6-0.1
			c-0.07,0-0.1,0-0.17-0.03c-0.13-0.03-0.27-0.03-0.4-0.07c-0.03,0-0.07,0-0.1-0.03c-0.13-0.03-0.27-0.03-0.37-0.07h-0.07
			c-0.07,0-0.17-0.03-0.2-0.03h-0.03c-0.07,0-0.1-0.03-0.1-0.03l-1.17-0.33c-0.03,0-0.1-0.03-0.13-0.03c-0.03,0-0.1,0-0.17-0.03
			h-0.17c-0.07,0-0.13,0-0.2,0.03h-0.13c-0.03,0-0.07,0-0.1,0.03c-0.07,0.03-0.13,0.03-0.2,0.07c-0.03,0-0.07,0-0.07,0.03h-0.03
			c-0.13,0.03-0.23,0.1-0.37,0.17c-0.13,0.07-0.27,0.17-0.4,0.27c-0.03,0.03-0.07,0.07-0.13,0.1c-0.1,0.07-0.17,0.13-0.27,0.23
			l-0.07,0.07l-0.13,0.13l-0.1,0.1l-0.03,0.03c-0.07,0.07-0.13,0.17-0.2,0.23c0,0.03-0.03,0.03-0.03,0.07l-1.1,1.47
			c0,0.03-0.03,0.03-0.07,0.1v0.03c-0.03,0.03-0.07,0.07-0.1,0.13c0,0.03-0.03,0.03-0.03,0.07c-0.03,0.03-0.07,0.1-0.1,0.13
			c-0.03,0.03-0.03,0.07-0.07,0.1c-0.07,0.1-0.13,0.17-0.2,0.27l-0.03,0.03c-0.07,0.1-0.13,0.2-0.23,0.3
			c-0.03,0.03-0.07,0.1-0.1,0.13c-0.07,0.1-0.13,0.17-0.2,0.27c-0.03,0.07-0.07,0.1-0.13,0.17c-0.07,0.1-0.17,0.2-0.23,0.33
			c-0.03,0.07-0.07,0.1-0.13,0.17c-0.13,0.17-0.27,0.33-0.4,0.53l-0.03,0.03c-0.17,0.23-0.37,0.47-0.57,0.73
			c-0.03,0.03-0.07,0.1-0.13,0.13c-0.2,0.27-0.43,0.53-0.63,0.83c-0.03,0.07-0.1,0.13-0.13,0.2c-0.23,0.3-0.47,0.6-0.73,0.93
			l-0.07,0.07c-0.23,0.3-0.5,0.63-0.77,0.97c-0.07,0.07-0.1,0.13-0.17,0.2c-0.27,0.33-0.57,0.7-0.87,1.03
			c-0.07,0.07-0.13,0.13-0.17,0.23c-0.3,0.37-0.63,0.77-0.97,1.17c0,0.03-0.03,0.03-0.03,0.07c-0.33,0.37-0.67,0.77-1,1.17
			c-0.07,0.07-0.13,0.13-0.2,0.23c-0.33,0.4-0.7,0.8-1.07,1.23c-0.07,0.07-0.13,0.13-0.17,0.2c-0.5,0.57-1,1.14-1.5,1.73l-0.2,0.2
			c-0.53,0.6-1.07,1.2-1.63,1.8c-0.07,0.07-0.1,0.13-0.17,0.2c-0.57,0.63-1.17,1.27-1.77,1.93c-0.03,0.03-0.07,0.1-0.13,0.13
			c-0.63,0.7-1.3,1.4-2,2.1c-0.37,0.4-0.77,0.8-1.13,1.17l-0.33,0.33c-0.27,0.27-0.53,0.57-0.83,0.83l-0.37,0.37
			c-0.13,0.13-0.27,0.23-0.37,0.37l-0.5,0.5c-0.13,0.13-0.27,0.23-0.37,0.37c-0.17,0.17-0.33,0.33-0.5,0.47
			c-0.13,0.13-0.23,0.23-0.37,0.33c-0.17,0.17-0.33,0.3-0.5,0.47c-0.13,0.1-0.23,0.23-0.37,0.33c-0.17,0.17-0.33,0.3-0.5,0.43
			c-0.13,0.1-0.23,0.2-0.37,0.33c-0.17,0.17-0.33,0.3-0.5,0.47c-0.1,0.1-0.23,0.2-0.33,0.3c-0.2,0.17-0.37,0.33-0.57,0.47
			c-0.1,0.07-0.17,0.17-0.27,0.23c-0.53,0.47-1.07,0.9-1.6,1.33c-0.1,0.07-0.17,0.13-0.27,0.23l-0.5,0.4
			c-0.1,0.07-0.2,0.17-0.3,0.23c-0.17,0.13-0.3,0.23-0.43,0.37c-0.1,0.07-0.2,0.17-0.3,0.23c-0.13,0.1-0.27,0.23-0.43,0.33
			c-0.1,0.07-0.2,0.17-0.3,0.23l-0.4,0.3c-0.1,0.07-0.2,0.17-0.3,0.23c-0.13,0.1-0.27,0.2-0.37,0.27c-0.1,0.07-0.2,0.13-0.3,0.23
			c-0.13,0.1-0.23,0.2-0.37,0.27c-0.1,0.07-0.17,0.13-0.27,0.2c-0.13,0.1-0.23,0.17-0.37,0.27c-0.1,0.07-0.17,0.13-0.27,0.17
			c-0.13,0.1-0.27,0.17-0.37,0.27c-0.07,0.03-0.13,0.1-0.2,0.13l-0.4,0.3c-0.03,0.03-0.1,0.07-0.17,0.1
			c-0.17,0.13-0.33,0.23-0.5,0.33c-0.03,0-0.03,0.03-0.07,0.03c-0.17,0.1-0.3,0.2-0.47,0.3c-0.07,0.03-0.1,0.07-0.17,0.1l-0.3,0.2
			c-0.07,0.03-0.13,0.07-0.2,0.13c-0.07,0.07-0.17,0.1-0.23,0.17c-0.07,0.03-0.1,0.07-0.17,0.1c-0.07,0.03-0.17,0.1-0.23,0.13
			c-0.07,0.03-0.1,0.07-0.17,0.1c-0.07,0.03-0.13,0.1-0.2,0.13c-0.03,0.03-0.1,0.07-0.13,0.1c-0.07,0.03-0.1,0.07-0.17,0.1
			c-0.03,0.03-0.1,0.07-0.13,0.1c-0.03,0.03-0.1,0.07-0.13,0.1c-0.03,0.03-0.07,0.03-0.1,0.07c-0.03,0.03-0.1,0.07-0.13,0.07
			c-0.03,0.03-0.07,0.03-0.1,0.07c-0.03,0.03-0.07,0.03-0.1,0.07c-0.03,0-0.07,0.03-0.07,0.03c-0.03,0-0.03,0.03-0.03,0.03
			c-0.07,0.03-0.1,0.07-0.13,0.07l-1.8,1.03c-0.17,0.1-0.33,0.2-0.47,0.33l-0.13,0.13c-0.07,0.07-0.13,0.13-0.23,0.2l-0.1,0.1
			c-0.03,0.03-0.07,0.07-0.07,0.1l-0.1,0.1c-0.07,0.07-0.13,0.17-0.2,0.23c-0.03,0.03-0.03,0.07-0.07,0.1l-0.03,0.03
			c-0.03,0.03-0.03,0.07-0.07,0.1c-0.03,0.07-0.1,0.13-0.13,0.23c-0.03,0.07-0.1,0.13-0.13,0.2v0.07c-0.03,0.07-0.07,0.13-0.1,0.17
			l-0.1,0.2l-0.1,0.2c-0.03,0.07-0.07,0.13-0.1,0.23c-0.03,0.07-0.07,0.17-0.1,0.23c0,0.03-0.03,0.07-0.03,0.13v0.07
			c0,0.03-0.03,0.07-0.03,0.1c-0.03,0.1-0.07,0.2-0.07,0.3c0,0.07-0.03,0.1-0.03,0.17v0.2c-0.03,0.17-0.03,0.33-0.03,0.5l0.13,47.86
			c0.03,11.94,6.4,20.58,14.77,25.41l5.4,3.13c-8.37-4.87-14.74-13.47-14.77-25.41l-0.13-47.86c0-0.2,0.03-0.37,0.03-0.57v-0.1
			c0.03-0.17,0.07-0.37,0.13-0.53v-0.07c0.07-0.2,0.13-0.4,0.23-0.6c0.1-0.2,0.2-0.4,0.3-0.57v-0.03c0.1-0.2,0.23-0.37,0.33-0.53
			l0.03-0.03c0.1-0.17,0.23-0.3,0.37-0.43c0.03-0.03,0.07-0.07,0.07-0.1l0.3-0.3l0.13-0.13c0.17-0.13,0.3-0.23,0.47-0.33l1.8-1.03
			c0.03,0,0.07-0.03,0.13-0.07c0.03,0,0.03-0.03,0.07-0.03c0.03,0,0.03-0.03,0.07-0.03c0.03-0.03,0.07-0.03,0.1-0.07
			c0.03,0,0.07-0.03,0.07-0.03c0.03-0.03,0.1-0.07,0.13-0.07c0.03-0.03,0.07-0.03,0.1-0.07c0.03-0.03,0.1-0.07,0.13-0.1
			c0.03-0.03,0.1-0.07,0.13-0.07c0.07-0.03,0.1-0.07,0.17-0.1c0.03-0.03,0.1-0.07,0.13-0.07c0.07-0.03,0.13-0.1,0.2-0.13
			c0.03-0.03,0.1-0.07,0.13-0.1c0.07-0.03,0.17-0.1,0.23-0.17c0.07-0.03,0.1-0.07,0.17-0.1c0.1-0.07,0.17-0.1,0.27-0.17
			c0.07-0.03,0.1-0.07,0.17-0.1c0.1-0.07,0.2-0.13,0.33-0.2c0.03-0.03,0.1-0.07,0.13-0.1c0.13-0.1,0.3-0.2,0.47-0.3
			c0.03,0,0.03-0.03,0.07-0.03c0.17-0.1,0.33-0.23,0.5-0.33c0.03-0.03,0.1-0.07,0.17-0.1l0.4-0.3c0.07-0.03,0.13-0.1,0.2-0.13
			c0.13-0.1,0.23-0.17,0.37-0.27c0.1-0.07,0.17-0.13,0.27-0.17c0.13-0.1,0.23-0.17,0.37-0.27c0.1-0.07,0.17-0.13,0.27-0.2
			c0.13-0.1,0.23-0.17,0.37-0.27c0.1-0.07,0.2-0.13,0.3-0.23c0.13-0.1,0.27-0.2,0.37-0.3c0.1-0.07,0.2-0.17,0.3-0.23l0.4-0.3
			c0.1-0.07,0.2-0.17,0.33-0.23c0.13-0.1,0.27-0.2,0.4-0.33c0.1-0.07,0.2-0.17,0.3-0.23c0.13-0.13,0.3-0.23,0.47-0.37
			c0.1-0.07,0.2-0.17,0.3-0.23l0.5-0.4c0.1-0.07,0.17-0.13,0.27-0.2c0.27-0.2,0.5-0.43,0.77-0.63h0.03c0.27-0.23,0.53-0.43,0.8-0.67
			c0.1-0.07,0.17-0.17,0.27-0.23c0.17-0.17,0.37-0.3,0.57-0.47c0.1-0.1,0.23-0.2,0.33-0.3c0.17-0.13,0.33-0.3,0.5-0.43
			c0.13-0.1,0.23-0.2,0.37-0.33c0.17-0.13,0.33-0.3,0.5-0.43c0.13-0.1,0.23-0.23,0.37-0.33c0.17-0.13,0.33-0.3,0.5-0.47
			c0.13-0.13,0.27-0.23,0.37-0.37c0.17-0.17,0.33-0.3,0.5-0.47c0.13-0.13,0.27-0.23,0.4-0.37l0.5-0.5c0.13-0.13,0.27-0.27,0.4-0.37
			l0.17-0.17l0.2-0.2c0.27-0.27,0.57-0.53,0.83-0.83l0.33-0.33c0.37-0.4,0.73-0.77,1.14-1.17l2-2.1c0.03-0.03,0.07-0.1,0.13-0.13
			c0.6-0.63,1.2-1.3,1.77-1.93c0.07-0.07,0.1-0.13,0.17-0.2c0.57-0.6,1.1-1.2,1.64-1.8l0.2-0.2c0.53-0.6,1.03-1.17,1.5-1.73l0.1-0.1
			l0.1-0.1c0.37-0.43,0.73-0.83,1.07-1.23c0.07-0.07,0.13-0.13,0.2-0.23l1-1.2l0.03-0.03c0.33-0.4,0.67-0.8,0.97-1.17
			c0.07-0.07,0.1-0.13,0.17-0.2c0.3-0.37,0.6-0.7,0.87-1.07c0.03-0.07,0.1-0.13,0.13-0.17c0.27-0.33,0.53-0.67,0.8-0.97
			c0-0.03,0.03-0.03,0.03-0.07c0.27-0.33,0.5-0.63,0.73-0.93c0.03-0.07,0.1-0.13,0.13-0.17c0.23-0.3,0.43-0.57,0.67-0.83
			c0.03-0.03,0.07-0.1,0.1-0.13c0.2-0.27,0.4-0.5,0.57-0.73c0,0,0-0.03,0.03-0.03c0.13-0.17,0.27-0.37,0.4-0.53
			c0.03-0.07,0.1-0.1,0.13-0.17c0.1-0.1,0.17-0.23,0.23-0.33c0.03-0.07,0.07-0.1,0.1-0.13c0.07-0.1,0.17-0.2,0.23-0.3
			c0.03-0.03,0.03-0.07,0.07-0.1c0.2-0.27,0.37-0.47,0.47-0.64c0.03-0.03,0.03-0.07,0.07-0.1c0.03-0.07,0.07-0.1,0.1-0.17
			c0-0.03,0.03-0.03,0.03-0.07c0.03-0.07,0.07-0.1,0.1-0.13v-0.03c0.03-0.03,0.07-0.07,0.07-0.1l1.1-1.47
			c0.1-0.13,0.2-0.23,0.3-0.37l0.3-0.3c0.1-0.07,0.17-0.17,0.27-0.23c0.03-0.03,0.07-0.07,0.13-0.1c0.13-0.1,0.27-0.2,0.4-0.27
			c0.13-0.07,0.27-0.13,0.37-0.2c0.03,0,0.07-0.03,0.07-0.03l0.3-0.1h0.07c0.1-0.03,0.23-0.03,0.33-0.03h0.03
			c0.1,0,0.23,0.03,0.33,0.07l1.17,0.33c0.03,0,0.07,0,0.1,0.03h0.03c0.07,0,0.13,0.03,0.2,0.03h0.07c0.1,0.03,0.2,0.03,0.3,0.07
			h0.07c0.03,0,0.07,0,0.1,0.03c0.13,0.03,0.23,0.03,0.4,0.07c0.03,0,0.1,0,0.13,0.03l0.6,0.1h0.1c0.2,0.03,0.4,0.07,0.63,0.07
			c0.07,0,0.13,0.03,0.23,0.03c0.23,0.03,0.47,0.07,0.7,0.07h0.13c0.3,0.03,0.6,0.07,0.93,0.07c0.07,0,0.17,0,0.27,0.03
			c0.13,0,0.27,0.03,0.43,0.03c0.17,0,0.3,0.03,0.47,0.03h0.17c0.37,0.03,0.73,0.03,1.1,0.03h0.23c0.4,0,0.8,0.03,1.23,0.03h1.6
			c0.47,0,0.9-0.03,1.4-0.03h0.67c0.37,0,0.77-0.03,1.17-0.07h0.07c0.5-0.03,1.03-0.07,1.53-0.1c0.13,0,0.27-0.03,0.4-0.03
			c0.57-0.03,1.1-0.1,1.7-0.17c0.73-0.1,1.43-0.2,2.13-0.33c0.1-0.03,0.2-0.03,0.33-0.07c0.33-0.07,0.7-0.13,1.03-0.2
			c0.07,0,0.1-0.03,0.17-0.03c0.4-0.1,0.77-0.17,1.17-0.27c0.1-0.03,0.2-0.03,0.3-0.07c0.3-0.07,0.63-0.17,0.93-0.23
			c0.07,0,0.1-0.03,0.17-0.03c0.03,0,0.07,0,0.1-0.03c0.33-0.1,0.67-0.2,1-0.27c0.03,0,0.07-0.03,0.1-0.03
			c0.3-0.1,0.6-0.17,0.87-0.27l0.3-0.1c0.23-0.07,0.43-0.13,0.67-0.2c0.1-0.03,0.2-0.07,0.33-0.1c0.23-0.07,0.43-0.17,0.67-0.23
			c0.1-0.03,0.17-0.07,0.27-0.1c0.3-0.1,0.6-0.2,0.9-0.33c0.03,0,0.1-0.03,0.13-0.03c0.23-0.1,0.5-0.2,0.73-0.27
			c0.1-0.03,0.2-0.07,0.27-0.1c0.2-0.07,0.37-0.13,0.57-0.23c0.1-0.03,0.2-0.07,0.27-0.1c0.2-0.07,0.4-0.17,0.57-0.23
			c0.07-0.03,0.1-0.03,0.17-0.07c0.03,0,0.03-0.03,0.07-0.03c0.1-0.03,0.2-0.07,0.3-0.13c0.13-0.03,0.23-0.1,0.37-0.13
			c0.1-0.03,0.17-0.07,0.27-0.13c0.1-0.03,0.23-0.1,0.33-0.13c0.1-0.03,0.17-0.07,0.27-0.13c0.1-0.03,0.2-0.1,0.3-0.13
			c0.1-0.03,0.17-0.07,0.27-0.1c0.1-0.03,0.2-0.1,0.3-0.13c0.07-0.03,0.17-0.07,0.23-0.1c0.1-0.03,0.17-0.07,0.27-0.13
			c0.07-0.03,0.17-0.07,0.23-0.1c0.1-0.03,0.17-0.07,0.23-0.1l0.2-0.1c0.07-0.03,0.17-0.07,0.23-0.1l0.2-0.1l0.2-0.1
			c0.07-0.03,0.1-0.07,0.17-0.1l0.2-0.1c0.07-0.03,0.1-0.07,0.17-0.07c0.07-0.03,0.1-0.07,0.17-0.1c0.03-0.03,0.1-0.03,0.13-0.07
			c0.07-0.03,0.1-0.07,0.17-0.07c0.03-0.03,0.07-0.03,0.1-0.07c0.03-0.03,0.07-0.03,0.1-0.07c0.03-0.03,0.07-0.03,0.1-0.07
			c0.03-0.03,0.07-0.03,0.1-0.07c0.03,0,0.03-0.03,0.07-0.03c0.1-0.07,0.17-0.1,0.2-0.1l1.8-1.03c0.17-0.1,0.3-0.17,0.47-0.2
			c0.03,0,0.07-0.03,0.1-0.03l0.4-0.1h0.03c0.13,0,0.27,0,0.4,0.03h0.03c0.13,0.03,0.27,0.07,0.37,0.13L164.55,47.68z M164.55,47.68
			"/>
		<path class="st4" d="M127.6,85.43c1-0.57,1.7,0.2,1.33,1.47l-5.14,18.18l8.97-5.17c1.13-0.67,1.84,0.4,1.2,1.87l-20.54,46.72
			c-0.1,0.27-0.27,0.43-0.43,0.53c-0.3,0.17-0.6,0.03-0.53-0.43l6.5-29.35l-7.07,4.1c-1,0.6-1.7-0.2-1.33-1.5l8.8-30.58
			c0.2-0.77,0.73-1.47,1.34-1.8L127.6,85.43z M127.6,85.43"/>
		<path class="st5" d="M117.86,152.9c-0.03-0.07-0.03-0.17-0.03-0.27v-0.07l-3.93-2.27v0.07c0,0.1,0,0.2,0.03,0.27
			c0.03,0.07,0.07,0.13,0.1,0.13l3.93,2.27C117.93,153.03,117.9,152.97,117.86,152.9L117.86,152.9z M124.33,123.25l-3.9-2.3
			l-6.5,29.35l3.94,2.27L124.33,123.25z M138.51,103.78c0.07-0.03,0.17-0.03,0.23-0.07h0.27c0.07,0,0.13,0.03,0.2,0.07l-3.94-2.27
			c-0.03,0-0.03-0.03-0.07-0.03c-0.03,0-0.03-0.03-0.07-0.03h-0.4c-0.03,0-0.07,0-0.13,0.03c-0.03,0-0.03,0-0.07,0.03
			c0,0-0.03,0-0.03,0.03c-0.03,0-0.03,0-0.07,0.03l-0.2,0.1l-8.97,5.17l3.94,2.27l8.97-5.17c0.1-0.07,0.17-0.1,0.27-0.13
			C138.47,103.78,138.47,103.78,138.51,103.78L138.51,103.78z M138.51,103.78"/>
		<path class="st6" d="M133,89.43c1-0.57,1.7,0.2,1.33,1.47l-5.14,18.18l8.97-5.17c1.13-0.67,1.84,0.4,1.2,1.87L118.8,152.5
			c-0.1,0.27-0.27,0.43-0.43,0.53c-0.3,0.17-0.6,0.03-0.53-0.43l6.5-29.35l-7.07,4.1c-1,0.6-1.7-0.2-1.33-1.5l8.8-30.58
			c0.2-0.77,0.73-1.47,1.33-1.8L133,89.43z M133,89.43"/>
		<path class="st5" d="M115.96,127.12c-0.03-0.07-0.07-0.13-0.1-0.23c0-0.03-0.03-0.1-0.03-0.13c0-0.1-0.03-0.17-0.03-0.27v-0.17
			c0-0.17,0.03-0.3,0.1-0.47l-3.93-2.27v0.03c0,0.07-0.03,0.1-0.03,0.17s-0.03,0.13-0.03,0.2v0.23c0,0.1,0,0.2,0.03,0.27
			c0,0.03,0,0.1,0.03,0.13c0.03,0.1,0.07,0.17,0.1,0.23c0.03,0.03,0.03,0.07,0.03,0.1c0.07,0.1,0.13,0.17,0.23,0.2l3.94,2.27
			c-0.1-0.07-0.17-0.13-0.23-0.2C116,127.19,116,127.15,115.96,127.12L115.96,127.12z M130.1,87.03
			C130.1,87.03,130.07,87.03,130.1,87.03C130.07,87,130.04,87,130.04,87c-0.03,0-0.03-0.03-0.07-0.03h-0.4c-0.03,0-0.07,0-0.13,0.03
			c-0.03,0-0.03,0-0.07,0.03c0,0-0.03,0-0.07,0.03c-0.03,0-0.03,0-0.07,0.03l-0.2,0.1l-6.9,3.97c-0.13,0.07-0.27,0.17-0.4,0.3
			c-0.03,0-0.03,0.03-0.07,0.03l-0.2,0.2c-0.03,0.03-0.07,0.1-0.1,0.13c0,0.03-0.03,0.03-0.03,0.07v0.03c0,0.03-0.03,0.03-0.03,0.07
			c-0.03,0.03-0.07,0.07-0.07,0.13c-0.03,0.03-0.03,0.07-0.07,0.13c-0.03,0.03-0.03,0.07-0.07,0.13c0,0.03-0.03,0.03-0.03,0.07
			c0,0,0,0.03-0.03,0.03c-0.03,0.03-0.03,0.07-0.07,0.13c-0.03,0.03-0.03,0.1-0.07,0.13c-0.03,0.03-0.03,0.1-0.03,0.13
			c0,0.03-0.03,0.07-0.03,0.13l-8.8,30.58l3.93,2.27l8.8-30.58c0.07-0.2,0.13-0.37,0.2-0.53l0.3-0.5v-0.03
			c0.1-0.13,0.23-0.27,0.37-0.4c0.03,0,0.03-0.03,0.07-0.03l0.4-0.3l6.94-4c0.1-0.07,0.17-0.1,0.27-0.13c0.03,0,0.03,0,0.03-0.03
			c0.07-0.03,0.17-0.03,0.23-0.07h0.27c0.07,0,0.13,0.03,0.2,0.07L130.1,87.03z M130.1,87.03"/>
		<path class="st7" d="M193.13,163.01l-5.3-3.1l12.41,7.07l5.27,3.1L193.13,163.01z M193.13,163.01"/>
		<path class="st8" d="M156.85,185.62c-0.1-0.1-0.2-0.17-0.3-0.27l-0.5-0.5l-0.27-0.27l-0.5-0.6c-0.07-0.07-0.13-0.17-0.2-0.23
			c-0.2-0.3-0.43-0.57-0.6-0.9c-0.03-0.07-0.07-0.1-0.1-0.17c-0.17-0.27-0.3-0.53-0.43-0.8c-0.07-0.1-0.1-0.23-0.17-0.33l-0.3-0.7
			c-0.07-0.13-0.1-0.27-0.17-0.4c-0.1-0.23-0.17-0.47-0.27-0.73c-0.03-0.13-0.1-0.27-0.13-0.4c-0.1-0.3-0.17-0.6-0.27-0.9
			c-0.03-0.1-0.03-0.17-0.07-0.27c-0.1-0.4-0.2-0.8-0.27-1.2c-0.03-0.1-0.03-0.2-0.07-0.33c-0.07-0.3-0.1-0.63-0.13-0.93
			c-0.03-0.17-0.03-0.3-0.07-0.47c-0.03-0.3-0.07-0.57-0.07-0.87c0-0.17-0.03-0.33-0.03-0.5c-0.03-0.3-0.03-0.6-0.03-0.93v-1.87
			c0.03-0.47,0.03-0.97,0.1-1.43c0-0.13,0.03-0.3,0.03-0.43c0.03-0.33,0.07-0.7,0.1-1.03c0.03-0.2,0.03-0.37,0.07-0.57
			c0.03-0.3,0.1-0.6,0.13-0.9c0.03-0.2,0.07-0.37,0.1-0.57c0.07-0.3,0.13-0.63,0.17-0.97c0.03-0.2,0.07-0.37,0.13-0.57
			c0.03-0.2,0.1-0.4,0.13-0.57c0.07-0.27,0.13-0.5,0.17-0.77c0.07-0.2,0.1-0.4,0.17-0.6c0.07-0.2,0.1-0.43,0.17-0.63l0.6-2
			c0.03-0.13,0.1-0.27,0.13-0.4c0.17-0.53,0.37-1.03,0.57-1.57c0.07-0.13,0.1-0.3,0.17-0.43c0.23-0.6,0.47-1.17,0.73-1.77
			c0.03-0.1,0.1-0.2,0.13-0.3c0.2-0.47,0.43-0.97,0.67-1.43c0.1-0.17,0.17-0.37,0.27-0.53c0.2-0.43,0.43-0.9,0.67-1.33
			c0.07-0.13,0.13-0.3,0.23-0.43c0.27-0.53,0.57-1.07,0.87-1.57c0.1-0.17,0.2-0.33,0.3-0.47c0.27-0.47,0.57-0.93,0.83-1.4
			c0.1-0.17,0.2-0.33,0.3-0.47c0.37-0.6,0.77-1.17,1.17-1.73c0.43-0.6,0.87-1.2,1.33-1.8c0.13-0.17,0.23-0.3,0.37-0.47l0.4-0.5
			c0.17-0.2,0.33-0.43,0.53-0.63c0.13-0.17,0.27-0.33,0.43-0.5c0.17-0.17,0.3-0.37,0.47-0.53c0.23-0.27,0.5-0.53,0.73-0.8
			c0.13-0.13,0.27-0.3,0.4-0.43c0.27-0.3,0.57-0.57,0.83-0.87l0.3-0.3l0.33-0.33c0.2-0.2,0.43-0.4,0.63-0.6
			c0.13-0.13,0.27-0.23,0.4-0.37c0.2-0.17,0.4-0.37,0.6-0.53c0.13-0.13,0.27-0.23,0.4-0.37l0.6-0.5c0.13-0.1,0.27-0.23,0.43-0.33
			c0.2-0.17,0.4-0.3,0.6-0.47c0.13-0.1,0.27-0.2,0.43-0.3c0.2-0.17,0.4-0.3,0.63-0.43c0.13-0.1,0.27-0.2,0.4-0.27
			c0.23-0.17,0.47-0.3,0.7-0.47c0.1-0.07,0.23-0.13,0.33-0.23c0.33-0.2,0.67-0.43,1.03-0.64c0.47-0.27,0.93-0.53,1.4-0.77
			c0.13-0.07,0.23-0.13,0.37-0.17c0.43-0.2,0.87-0.43,1.34-0.6c0.03,0,0.07-0.03,0.1-0.03c0.4-0.17,0.8-0.33,1.2-0.47
			c0.13-0.03,0.23-0.07,0.37-0.1c0.3-0.1,0.57-0.2,0.87-0.27c0.17-0.03,0.33-0.1,0.5-0.13c0.17-0.03,0.33-0.07,0.47-0.1
			c0.17-0.03,0.37-0.07,0.53-0.1c0.17-0.03,0.3-0.07,0.47-0.1c0.2-0.03,0.43-0.07,0.63-0.1c0.1,0,0.2-0.03,0.3-0.03
			c0.3-0.03,0.6-0.07,0.9-0.07h1.2c0.17,0,0.33,0.03,0.5,0.03c0.37,0.03,0.7,0.07,1.03,0.13c0.07,0,0.1,0,0.17,0.03
			c0.37,0.07,0.73,0.17,1.1,0.27l0.3,0.1c0.27,0.1,0.53,0.17,0.8,0.27c0.1,0.03,0.2,0.1,0.33,0.13c0.3,0.13,0.6,0.27,0.9,0.43
			c0.03,0.03,0.1,0.03,0.13,0.07l-5.3-3.07l-0.03-0.03c-0.03-0.03-0.07-0.03-0.1-0.03c-0.3-0.17-0.6-0.3-0.9-0.43
			c-0.03-0.03-0.1-0.03-0.13-0.07c-0.07-0.03-0.13-0.03-0.2-0.07c-0.27-0.1-0.53-0.2-0.8-0.27c-0.07-0.03-0.13-0.03-0.2-0.07
			c-0.03,0-0.07,0-0.1-0.03c-0.37-0.1-0.73-0.2-1.1-0.27h-0.17c-0.33-0.07-0.7-0.1-1.03-0.13c-0.07,0-0.1,0-0.17-0.03h-1.54
			c-0.3,0-0.6,0.03-0.9,0.07c-0.1,0-0.2,0.03-0.3,0.03c-0.13,0.03-0.3,0.03-0.43,0.07c-0.07,0-0.13,0.03-0.2,0.03
			c-0.17,0.03-0.3,0.07-0.47,0.1c-0.17,0.03-0.37,0.07-0.53,0.1c-0.17,0.03-0.3,0.07-0.47,0.1c-0.1,0.03-0.2,0.03-0.3,0.07
			c-0.07,0.03-0.13,0.03-0.2,0.07c-0.3,0.07-0.57,0.17-0.87,0.27c-0.13,0.03-0.23,0.07-0.37,0.1c-0.4,0.13-0.8,0.3-1.2,0.47h-0.03
			c-0.03,0-0.07,0.03-0.07,0.03c-0.43,0.17-0.87,0.4-1.3,0.6c-0.13,0.07-0.23,0.13-0.37,0.17c-0.47,0.23-0.93,0.5-1.4,0.77
			c-0.33,0.2-0.67,0.4-1.03,0.63c-0.1,0.07-0.23,0.13-0.33,0.23c-0.23,0.13-0.47,0.3-0.7,0.47c-0.13,0.1-0.27,0.2-0.4,0.27
			c-0.2,0.13-0.43,0.3-0.64,0.43l-0.4,0.3c-0.2,0.17-0.4,0.3-0.6,0.47c-0.13,0.1-0.27,0.23-0.43,0.33l-0.6,0.5
			c-0.13,0.1-0.27,0.23-0.4,0.37c-0.2,0.17-0.4,0.37-0.6,0.53c-0.13,0.13-0.27,0.23-0.4,0.37c-0.2,0.2-0.43,0.4-0.63,0.6
			c-0.1,0.1-0.23,0.2-0.33,0.33l-0.07,0.07c-0.07,0.07-0.17,0.17-0.23,0.27c-0.27,0.27-0.57,0.57-0.83,0.87
			c-0.13,0.13-0.27,0.3-0.4,0.43c-0.23,0.27-0.5,0.53-0.73,0.8c-0.07,0.1-0.17,0.17-0.23,0.23c-0.07,0.1-0.17,0.2-0.23,0.27
			l-0.4,0.5c-0.17,0.2-0.33,0.43-0.53,0.63l-0.4,0.5c-0.07,0.1-0.13,0.17-0.2,0.27c-0.07,0.07-0.1,0.13-0.17,0.2
			c-0.43,0.6-0.9,1.17-1.33,1.8c-0.4,0.57-0.77,1.13-1.13,1.7c-0.03,0.07-0.1,0.13-0.13,0.2c-0.07,0.1-0.1,0.17-0.17,0.27
			c-0.3,0.47-0.57,0.94-0.83,1.4c-0.07,0.1-0.1,0.17-0.17,0.27c-0.03,0.07-0.1,0.13-0.13,0.2c-0.3,0.53-0.6,1.03-0.87,1.57
			c-0.03,0.03-0.03,0.07-0.07,0.13c-0.07,0.1-0.1,0.2-0.17,0.3c-0.23,0.43-0.47,0.9-0.67,1.33c-0.03,0.1-0.1,0.2-0.13,0.27
			c-0.03,0.1-0.07,0.17-0.13,0.27c-0.23,0.47-0.43,0.97-0.67,1.43c-0.03,0.07-0.07,0.17-0.1,0.23c0,0.03-0.03,0.03-0.03,0.07
			c-0.27,0.6-0.5,1.2-0.73,1.77c-0.03,0.07-0.03,0.1-0.07,0.17c-0.03,0.1-0.07,0.2-0.1,0.27c-0.2,0.53-0.4,1.03-0.57,1.57
			c-0.03,0.1-0.07,0.17-0.1,0.27c0,0.03-0.03,0.07-0.03,0.1c-0.23,0.67-0.43,1.34-0.6,2c-0.03,0.07-0.03,0.13-0.07,0.17
			c-0.03,0.17-0.07,0.3-0.13,0.47c-0.07,0.2-0.1,0.4-0.17,0.6c-0.07,0.27-0.13,0.5-0.17,0.77c-0.03,0.2-0.1,0.4-0.13,0.6
			c0,0.07-0.03,0.13-0.03,0.2c-0.03,0.13-0.03,0.27-0.07,0.37c-0.07,0.33-0.13,0.63-0.17,0.97c-0.03,0.2-0.07,0.37-0.1,0.57
			c-0.03,0.3-0.1,0.6-0.13,0.9c0,0.1-0.03,0.23-0.03,0.33c0,0.07,0,0.13-0.03,0.23c-0.03,0.33-0.07,0.7-0.1,1.03
			c0,0.13-0.03,0.3-0.03,0.43c-0.03,0.47-0.07,0.97-0.1,1.43v0.13c0,0.43-0.03,0.83,0,1.27v0.43c0,0.3,0.03,0.63,0.03,0.93
			c0,0.17,0.03,0.33,0.03,0.5c0.03,0.3,0.03,0.57,0.07,0.87c0.03,0.17,0.03,0.3,0.07,0.47c0.03,0.33,0.1,0.63,0.13,0.93
			c0.03,0.1,0.03,0.23,0.07,0.33c0.07,0.4,0.17,0.8,0.27,1.2c0.03,0.1,0.03,0.17,0.07,0.27c0.07,0.3,0.17,0.6,0.27,0.9
			c0.03,0.13,0.1,0.27,0.13,0.4c0.1,0.23,0.17,0.5,0.27,0.73c0.07,0.13,0.1,0.27,0.17,0.4l0.3,0.7c0.07,0.1,0.1,0.23,0.17,0.33
			c0.13,0.27,0.3,0.53,0.43,0.8c0.03,0.07,0.07,0.1,0.1,0.17l0.6,0.9c0.07,0.07,0.13,0.17,0.2,0.23l0.5,0.6
			c0.1,0.1,0.17,0.2,0.27,0.27l0.5,0.5c0.1,0.1,0.2,0.17,0.3,0.27c0.17,0.17,0.37,0.3,0.57,0.47c0.1,0.07,0.17,0.13,0.27,0.2
			c0.3,0.2,0.57,0.4,0.9,0.57l5.3,3.07c-0.3-0.17-0.6-0.37-0.9-0.57c-0.1-0.07-0.17-0.13-0.27-0.2
			C157.22,185.92,157.05,185.78,156.85,185.62L156.85,185.62z M156.85,185.62"/>
		<path class="st9" d="M174.32,133.59c5.74-3.34,11.51-4.14,15.91-1.6c7.74,4.4,8.71,17.58,2.87,31.02l12.41,7.07
			c1.7,0.97,1.7,4.17,0.03,7.1c-0.83,1.47-1.97,2.6-3.07,3.24c-1.14,0.63-2.24,0.8-3.1,0.33l-12.41-7.07
			c-3.77,5.07-8.14,9.07-12.51,11.57c-5.74,3.34-11.5,4.1-15.91,1.6c-8.8-5-8.84-21.38-0.1-36.52
			C162.85,142.76,168.59,136.93,174.32,133.59L174.32,133.59z M174.32,133.59"/>
		<path class="st6" d="M174.43,140.69c4.27-2.47,8.57-3.07,11.84-1.2c6.57,3.74,6.6,15.91,0.07,27.18
			c-3.27,5.64-7.54,10.01-11.81,12.47c-4.27,2.47-8.57,3.07-11.84,1.2c-6.57-3.74-6.6-15.91-0.07-27.18
			C165.86,147.5,170.12,143.16,174.43,140.69L174.43,140.69z M174.43,140.69"/>
		<path class="st9" d="M176.56,141.73c0.53-0.3,1.07-0.4,1.47-0.17c0.83,0.47,0.83,2,0,3.4c-0.4,0.7-0.93,1.27-1.47,1.57
			c-0.53,0.3-1.07,0.4-1.47,0.17c-0.83-0.47-0.83-2,0-3.4C175.49,142.56,176.03,142.03,176.56,141.73L176.56,141.73z M176.56,141.73
			"/>
		<path class="st7" d="M193.13,163.01l-5.3-3.1l12.41,7.07l5.27,3.1L193.13,163.01z M193.13,163.01"/>
		<path class="st8" d="M156.85,185.62c-0.1-0.1-0.2-0.17-0.3-0.27l-0.5-0.5l-0.27-0.27l-0.5-0.6c-0.07-0.07-0.13-0.17-0.2-0.23
			c-0.2-0.3-0.43-0.57-0.6-0.9c-0.03-0.07-0.07-0.1-0.1-0.17c-0.17-0.27-0.3-0.53-0.43-0.8c-0.07-0.1-0.1-0.23-0.17-0.33l-0.3-0.7
			c-0.07-0.13-0.1-0.27-0.17-0.4c-0.1-0.23-0.17-0.47-0.27-0.73c-0.03-0.13-0.1-0.27-0.13-0.4c-0.1-0.3-0.17-0.6-0.27-0.9
			c-0.03-0.1-0.03-0.17-0.07-0.27c-0.1-0.4-0.2-0.8-0.27-1.2c-0.03-0.1-0.03-0.2-0.07-0.33c-0.07-0.3-0.1-0.63-0.13-0.93
			c-0.03-0.17-0.03-0.3-0.07-0.47c-0.03-0.3-0.07-0.57-0.07-0.87c0-0.17-0.03-0.33-0.03-0.5c-0.03-0.3-0.03-0.6-0.03-0.93v-1.87
			c0.03-0.47,0.03-0.97,0.1-1.43c0-0.13,0.03-0.3,0.03-0.43c0.03-0.33,0.07-0.7,0.1-1.03c0.03-0.2,0.03-0.37,0.07-0.57
			c0.03-0.3,0.1-0.6,0.13-0.9c0.03-0.2,0.07-0.37,0.1-0.57c0.07-0.3,0.13-0.63,0.17-0.97c0.03-0.2,0.07-0.37,0.13-0.57
			c0.03-0.2,0.1-0.4,0.13-0.57c0.07-0.27,0.13-0.5,0.17-0.77c0.07-0.2,0.1-0.4,0.17-0.6c0.07-0.2,0.1-0.43,0.17-0.63l0.6-2
			c0.03-0.13,0.1-0.27,0.13-0.4c0.17-0.53,0.37-1.03,0.57-1.57c0.07-0.13,0.1-0.3,0.17-0.43c0.23-0.6,0.47-1.17,0.73-1.77
			c0.03-0.1,0.1-0.2,0.13-0.3c0.2-0.47,0.43-0.97,0.67-1.43c0.1-0.17,0.17-0.37,0.27-0.53c0.2-0.43,0.43-0.9,0.67-1.33
			c0.07-0.13,0.13-0.3,0.23-0.43c0.27-0.53,0.57-1.07,0.87-1.57c0.1-0.17,0.2-0.33,0.3-0.47c0.27-0.47,0.57-0.93,0.83-1.4
			c0.1-0.17,0.2-0.33,0.3-0.47c0.37-0.6,0.77-1.17,1.17-1.73c0.43-0.6,0.87-1.2,1.33-1.8c0.13-0.17,0.23-0.3,0.37-0.47l0.4-0.5
			c0.17-0.2,0.33-0.43,0.53-0.63c0.13-0.17,0.27-0.33,0.43-0.5c0.17-0.17,0.3-0.37,0.47-0.53c0.23-0.27,0.5-0.53,0.73-0.8
			c0.13-0.13,0.27-0.3,0.4-0.43c0.27-0.3,0.57-0.57,0.83-0.87l0.3-0.3l0.33-0.33c0.2-0.2,0.43-0.4,0.63-0.6
			c0.13-0.13,0.27-0.23,0.4-0.37c0.2-0.17,0.4-0.37,0.6-0.53c0.13-0.13,0.27-0.23,0.4-0.37l0.6-0.5c0.13-0.1,0.27-0.23,0.43-0.33
			c0.2-0.17,0.4-0.3,0.6-0.47c0.13-0.1,0.27-0.2,0.43-0.3c0.2-0.17,0.4-0.3,0.63-0.43c0.13-0.1,0.27-0.2,0.4-0.27
			c0.23-0.17,0.47-0.3,0.7-0.47c0.1-0.07,0.23-0.13,0.33-0.23c0.33-0.2,0.67-0.43,1.03-0.64c0.47-0.27,0.93-0.53,1.4-0.77
			c0.13-0.07,0.23-0.13,0.37-0.17c0.43-0.2,0.87-0.43,1.34-0.6c0.03,0,0.07-0.03,0.1-0.03c0.4-0.17,0.8-0.33,1.2-0.47
			c0.13-0.03,0.23-0.07,0.37-0.1c0.3-0.1,0.57-0.2,0.87-0.27c0.17-0.03,0.33-0.1,0.5-0.13c0.17-0.03,0.33-0.07,0.47-0.1
			c0.17-0.03,0.37-0.07,0.53-0.1c0.17-0.03,0.3-0.07,0.47-0.1c0.2-0.03,0.43-0.07,0.63-0.1c0.1,0,0.2-0.03,0.3-0.03
			c0.3-0.03,0.6-0.07,0.9-0.07h1.2c0.17,0,0.33,0.03,0.5,0.03c0.37,0.03,0.7,0.07,1.03,0.13c0.07,0,0.1,0,0.17,0.03
			c0.37,0.07,0.73,0.17,1.1,0.27l0.3,0.1c0.27,0.1,0.53,0.17,0.8,0.27c0.1,0.03,0.2,0.1,0.33,0.13c0.3,0.13,0.6,0.27,0.9,0.43
			c0.03,0.03,0.1,0.03,0.13,0.07l-5.3-3.07l-0.03-0.03c-0.03-0.03-0.07-0.03-0.1-0.03c-0.3-0.17-0.6-0.3-0.9-0.43
			c-0.03-0.03-0.1-0.03-0.13-0.07c-0.07-0.03-0.13-0.03-0.2-0.07c-0.27-0.1-0.53-0.2-0.8-0.27c-0.07-0.03-0.13-0.03-0.2-0.07
			c-0.03,0-0.07,0-0.1-0.03c-0.37-0.1-0.73-0.2-1.1-0.27h-0.17c-0.33-0.07-0.7-0.1-1.03-0.13c-0.07,0-0.1,0-0.17-0.03h-1.54
			c-0.3,0-0.6,0.03-0.9,0.07c-0.1,0-0.2,0.03-0.3,0.03c-0.13,0.03-0.3,0.03-0.43,0.07c-0.07,0-0.13,0.03-0.2,0.03
			c-0.17,0.03-0.3,0.07-0.47,0.1c-0.17,0.03-0.37,0.07-0.53,0.1c-0.17,0.03-0.3,0.07-0.47,0.1c-0.1,0.03-0.2,0.03-0.3,0.07
			c-0.07,0.03-0.13,0.03-0.2,0.07c-0.3,0.07-0.57,0.17-0.87,0.27c-0.13,0.03-0.23,0.07-0.37,0.1c-0.4,0.13-0.8,0.3-1.2,0.47h-0.03
			c-0.03,0-0.07,0.03-0.07,0.03c-0.43,0.17-0.87,0.4-1.3,0.6c-0.13,0.07-0.23,0.13-0.37,0.17c-0.47,0.23-0.93,0.5-1.4,0.77
			c-0.33,0.2-0.67,0.4-1.03,0.63c-0.1,0.07-0.23,0.13-0.33,0.23c-0.23,0.13-0.47,0.3-0.7,0.47c-0.13,0.1-0.27,0.2-0.4,0.27
			c-0.2,0.13-0.43,0.3-0.64,0.43l-0.4,0.3c-0.2,0.17-0.4,0.3-0.6,0.47c-0.13,0.1-0.27,0.23-0.43,0.33l-0.6,0.5
			c-0.13,0.1-0.27,0.23-0.4,0.37c-0.2,0.17-0.4,0.37-0.6,0.53c-0.13,0.13-0.27,0.23-0.4,0.37c-0.2,0.2-0.43,0.4-0.63,0.6
			c-0.1,0.1-0.23,0.2-0.33,0.33l-0.07,0.07c-0.07,0.07-0.17,0.17-0.23,0.27c-0.27,0.27-0.57,0.57-0.83,0.87
			c-0.13,0.13-0.27,0.3-0.4,0.43c-0.23,0.27-0.5,0.53-0.73,0.8c-0.07,0.1-0.17,0.17-0.23,0.23c-0.07,0.1-0.17,0.2-0.23,0.27
			l-0.4,0.5c-0.17,0.2-0.33,0.43-0.53,0.63l-0.4,0.5c-0.07,0.1-0.13,0.17-0.2,0.27c-0.07,0.07-0.1,0.13-0.17,0.2
			c-0.43,0.6-0.9,1.17-1.33,1.8c-0.4,0.57-0.77,1.13-1.13,1.7c-0.03,0.07-0.1,0.13-0.13,0.2c-0.07,0.1-0.1,0.17-0.17,0.27
			c-0.3,0.47-0.57,0.94-0.83,1.4c-0.07,0.1-0.1,0.17-0.17,0.27c-0.03,0.07-0.1,0.13-0.13,0.2c-0.3,0.53-0.6,1.03-0.87,1.57
			c-0.03,0.03-0.03,0.07-0.07,0.13c-0.07,0.1-0.1,0.2-0.17,0.3c-0.23,0.43-0.47,0.9-0.67,1.33c-0.03,0.1-0.1,0.2-0.13,0.27
			c-0.03,0.1-0.07,0.17-0.13,0.27c-0.23,0.47-0.43,0.97-0.67,1.43c-0.03,0.07-0.07,0.17-0.1,0.23c0,0.03-0.03,0.03-0.03,0.07
			c-0.27,0.6-0.5,1.2-0.73,1.77c-0.03,0.07-0.03,0.1-0.07,0.17c-0.03,0.1-0.07,0.2-0.1,0.27c-0.2,0.53-0.4,1.03-0.57,1.57
			c-0.03,0.1-0.07,0.17-0.1,0.27c0,0.03-0.03,0.07-0.03,0.1c-0.23,0.67-0.43,1.34-0.6,2c-0.03,0.07-0.03,0.13-0.07,0.17
			c-0.03,0.17-0.07,0.3-0.13,0.47c-0.07,0.2-0.1,0.4-0.17,0.6c-0.07,0.27-0.13,0.5-0.17,0.77c-0.03,0.2-0.1,0.4-0.13,0.6
			c0,0.07-0.03,0.13-0.03,0.2c-0.03,0.13-0.03,0.27-0.07,0.37c-0.07,0.33-0.13,0.63-0.17,0.97c-0.03,0.2-0.07,0.37-0.1,0.57
			c-0.03,0.3-0.1,0.6-0.13,0.9c0,0.1-0.03,0.23-0.03,0.33c0,0.07,0,0.13-0.03,0.23c-0.03,0.33-0.07,0.7-0.1,1.03
			c0,0.13-0.03,0.3-0.03,0.43c-0.03,0.47-0.07,0.97-0.1,1.43v0.13c0,0.43-0.03,0.83,0,1.27v0.43c0,0.3,0.03,0.63,0.03,0.93
			c0,0.17,0.03,0.33,0.03,0.5c0.03,0.3,0.03,0.57,0.07,0.87c0.03,0.17,0.03,0.3,0.07,0.47c0.03,0.33,0.1,0.63,0.13,0.93
			c0.03,0.1,0.03,0.23,0.07,0.33c0.07,0.4,0.17,0.8,0.27,1.2c0.03,0.1,0.03,0.17,0.07,0.27c0.07,0.3,0.17,0.6,0.27,0.9
			c0.03,0.13,0.1,0.27,0.13,0.4c0.1,0.23,0.17,0.5,0.27,0.73c0.07,0.13,0.1,0.27,0.17,0.4l0.3,0.7c0.07,0.1,0.1,0.23,0.17,0.33
			c0.13,0.27,0.3,0.53,0.43,0.8c0.03,0.07,0.07,0.1,0.1,0.17l0.6,0.9c0.07,0.07,0.13,0.17,0.2,0.23l0.5,0.6
			c0.1,0.1,0.17,0.2,0.27,0.27l0.5,0.5c0.1,0.1,0.2,0.17,0.3,0.27c0.17,0.17,0.37,0.3,0.57,0.47c0.1,0.07,0.17,0.13,0.27,0.2
			c0.3,0.2,0.57,0.4,0.9,0.57l5.3,3.07c-0.3-0.17-0.6-0.37-0.9-0.57c-0.1-0.07-0.17-0.13-0.27-0.2
			C157.22,185.92,157.05,185.78,156.85,185.62L156.85,185.62z M156.85,185.62"/>
		<path class="st9" d="M174.32,133.59c5.74-3.34,11.51-4.14,15.91-1.6c7.74,4.4,8.71,17.58,2.87,31.02l12.41,7.07
			c1.7,0.97,1.7,4.17,0.03,7.1c-0.83,1.47-1.97,2.6-3.07,3.24c-1.14,0.63-2.24,0.8-3.1,0.33l-12.41-7.07
			c-3.77,5.07-8.14,9.07-12.51,11.57c-5.74,3.34-11.5,4.1-15.91,1.6c-8.8-5-8.84-21.38-0.1-36.52
			C162.85,142.76,168.59,136.93,174.32,133.59L174.32,133.59z M174.32,133.59"/>
		<path class="st6" d="M174.43,140.69c4.27-2.47,8.57-3.07,11.84-1.2c6.57,3.74,6.6,15.91,0.07,27.18
			c-3.27,5.64-7.54,10.01-11.81,12.47c-4.27,2.47-8.57,3.07-11.84,1.2c-6.57-3.74-6.6-15.91-0.07-27.18
			C165.86,147.5,170.12,143.16,174.43,140.69L174.43,140.69z M174.43,140.69"/>
		<path class="st9" d="M176.56,141.73c0.53-0.3,1.07-0.4,1.47-0.17c0.83,0.47,0.83,2,0,3.4c-0.4,0.7-0.93,1.27-1.47,1.57
			c-0.53,0.3-1.07,0.4-1.47,0.17c-0.83-0.47-0.83-2,0-3.4C175.49,142.56,176.03,142.03,176.56,141.73L176.56,141.73z M176.56,141.73
			"/>
	</g>
	<g id="data_cube_5_">
		<g>
			<linearGradient id="SVGID_5_" gradientUnits="userSpaceOnUse" x1="247.4538" y1="165.7544" x2="238.8756" y2="169.6403">
				<stop  offset="5.025130e-03" style="stop-color:#5298EF"/>
				<stop  offset="1" style="stop-color:#73B0F1;stop-opacity:0"/>
			</linearGradient>
			<polygon class="st10" points="234.91,168.24 243.09,163.92 251.03,167.52 242.73,171.71 			"/>
			<linearGradient id="SVGID_6_" gradientUnits="userSpaceOnUse" x1="242.899" y1="160.2599" x2="258.8011" y2="160.2599">
				<stop  offset="0" style="stop-color:#6DACEF"/>
				<stop  offset="1" style="stop-color:#97C9FE"/>
			</linearGradient>
			<polygon class="st11" points="258.8,157.85 251.05,167.54 242.98,164.01 242.9,152.98 258.8,154.92 			"/>
			<linearGradient id="SVGID_7_" gradientUnits="userSpaceOnUse" x1="250.9822" y1="163.6474" x2="258.5722" y2="157.3365">
				<stop  offset="3.378380e-03" style="stop-color:#8EBEF4"/>
				<stop  offset="1" style="stop-color:#B4D8FA"/>
			</linearGradient>
			<polygon class="st12" points="251.05,167.54 251.05,157.03 258.48,153.18 258.98,153.22 259,163.54 			"/>
			<linearGradient id="SVGID_8_" gradientUnits="userSpaceOnUse" x1="242.8662" y1="153.115" x2="258.9843" y2="153.115">
				<stop  offset="0" style="stop-color:#97C3F4"/>
				<stop  offset="1" style="stop-color:#E8F1FA"/>
			</linearGradient>
			<polygon class="st13" points="242.87,152.96 250.74,149 258.98,153.22 251.05,157.23 			"/>
		</g>
		
			<linearGradient id="SVGID_9_" gradientUnits="userSpaceOnUse" x1="-1347.3693" y1="566.2649" x2="-1347.3693" y2="585.7445" gradientTransform="matrix(0.5 0.866 -0.866 0.5 1402.085 1041.4088)">
			<stop  offset="3.378380e-03" style="stop-color:#75B2FF"/>
			<stop  offset="1" style="stop-color:#75B2FF;stop-opacity:0"/>
		</linearGradient>
		<path class="st14" d="M219.42,168.46L219.42,168.46c-0.19-0.34-0.08-0.77,0.26-0.96l19.56-11.29c0.34-0.19,0.77-0.08,0.96,0.26
			l0,0c0.19,0.34,0.08,0.77-0.26,0.96l-19.56,11.29C220.05,168.91,219.61,168.79,219.42,168.46z"/>
		
			<linearGradient id="SVGID_10_" gradientUnits="userSpaceOnUse" x1="-1395.2572" y1="321.7065" x2="-1395.2572" y2="330.1284" gradientTransform="matrix(0.4772 0.8265 -0.7164 0.4136 1135.6169 1183.2845)">
			<stop  offset="3.378380e-03" style="stop-color:#75B2FF"/>
			<stop  offset="1" style="stop-color:#75B2FF;stop-opacity:0"/>
		</linearGradient>
		<path class="st15" d="M232.77,167.16l-0.09-0.16c-0.16-0.28-0.07-0.64,0.21-0.8l6.33-3.87c0.28-0.16,0.64-0.07,0.8,0.21l0.09,0.16
			c0.16,0.28,0.07,0.64-0.21,0.8l-6.33,3.87C233.29,167.53,232.93,167.44,232.77,167.16z"/>
	</g>
</g>
</svg>
