
<svg xmlns="http://www.w3.org/2000/svg" version="1.1" xmlns:xlink="http://www.w3.org/1999/xlink" preserveAspectRatio="none" x="0px" y="0px" width="1024px" height="1024px" viewBox="0 0 1024 1024">
<defs>
<g id="Layer0_0_MEMBER_0_MEMBER_0_FILL">
<path fill="#AA7B61" stroke="none" d="
M 404.5 73.65
Q 403.5 73.65 402.65 74.1
L 338.95 110.9
Q 337.15 111.95 337.15 114.05
L 337.15 122.3
Q 337.15 124.4 338.95 125.45
L 402.65 162.25
Q 404.5 163.3 406.3 162.25
L 470 125.45
Q 471.8 124.4 471.8 122.3
L 471.8 114.05
Q 471.8 111.95 470 110.9
L 406.3 74.1
Q 405.45 73.65 404.5 73.65 Z"/>
</g>

<g id="Layer0_0_MEMBER_0_MEMBER_1_FILL">
<path fill="#8C644F" stroke="none" d="
M 337.15 117.95
Q 337.15 120.05 338.95 121.1
L 402.65 157.9
Q 404.5 158.95 406.3 157.9
L 470 121.1
Q 471.8 120.05 471.8 117.95
L 471.8 115.1
Q 471.8 113 470 111.95
L 406.3 75.15
Q 404.5 74.1 402.65 75.15
L 338.95 111.95
Q 337.15 113 337.15 115.1
L 337.15 117.95 Z"/>
</g>

<g id="Layer0_0_MEMBER_0_MEMBER_2_FILL">
<path fill="#5A852F" stroke="none" d="
M 404.5 73.65
Q 403.5 73.65 402.65 74.1
L 338.95 110.9
Q 337.15 111.95 337.15 114.05
L 337.15 116.95
Q 337.15 119 338.95 120.05
L 402.65 156.85
Q 404.5 157.9 406.3 156.85
L 470 120.05
Q 471.8 119 471.8 116.95
L 471.8 114.05
Q 471.8 111.95 470 110.9
L 406.3 74.1
Q 405.45 73.65 404.5 73.65 Z"/>
</g>

<g id="Layer0_0_MEMBER_0_MEMBER_3_FILL">
<path fill="#496E25" stroke="none" d="
M 404.5 73.65
Q 403.5 73.65 402.65 74.1
L 338.95 110.9
Q 337.15 111.95 337.15 114.05
L 337.15 114.75
Q 337.15 116.85 338.95 117.9
L 402.65 154.7
Q 404.5 155.75 406.3 154.7
L 470 117.9
Q 471.8 116.85 471.8 114.75
L 471.8 114.05
Q 471.8 111.95 470 110.9
L 406.3 74.1
Q 405.45 73.65 404.5 73.65 Z"/>
</g>

<g id="Layer0_0_MEMBER_0_MEMBER_4_FILL">
<path fill="#000000" fill-opacity="0.2" stroke="none" d="
M 0 13.65
L 1.05 14.3
Q 2.9 15.35 4.7 14.3
L 5.75 13.65 5.75 0 0 0 0 13.65 Z"/>
</g>

<g id="Layer0_0_MEMBER_0_MEMBER_5_FILL">
<path fill="#6C9C38" stroke="none" d="
M 404.5 73.65
Q 403.5 73.65 402.65 74.1
L 338.95 110.9
Q 337.1 111.95 337.1 114.05 337.1 116.15 338.95 117.2
L 402.65 154
Q 404.5 154.95 406.3 154
L 470 117.2
Q 471.85 116.15 471.85 114.05 471.85 111.95 470 110.9
L 406.3 74.1
Q 405.45 73.65 404.5 73.65 Z"/>
</g>

<g id="Layer0_0_MEMBER_0_MEMBER_6_FILL">
<path fill="#DADFD4" stroke="none" d="
M 403.4 117.25
L 394.35 110.8 361.1 130 371.25 135.85 403.4 117.25 Z"/>
</g>

<g id="Layer0_0_MEMBER_1_MEMBER_0_FILL">
<path fill="#CAE6D6" stroke="none" d="
M 403.9 86.25
L 382.7 61.8 361.5 61.8 361.5 115.05 403.9 139.55 403.9 86.25 Z"/>
</g>

<g id="Layer0_0_MEMBER_1_MEMBER_1_FILL">
<path fill="#A9C0B3" stroke="none" d="
M 403.9 139.55
L 403.9 124 361.5 99.5 361.5 115.05 403.9 139.55 Z"/>
</g>

<g id="Layer0_0_MEMBER_1_MEMBER_2_FILL">
<path fill="#90CAAB" stroke="none" d="
M 446.3 61.8
L 403.9 86.25 403.9 139.55 446.3 115.05 446.3 61.8 Z"/>
</g>

<g id="Layer0_0_MEMBER_1_MEMBER_3_FILL">
<path fill="#8A9D92" stroke="none" d="
M 403.9 124
L 403.9 139.55 446.3 115.05 446.3 99.5 403.9 124 Z"/>
</g>

<g id="Layer0_0_MEMBER_1_MEMBER_4_MEMBER_0_FILL">
<path fill="#AC5440" stroke="none" d="
M 375.4 97.85
L 375.4 87.1 374.55 87.7 374.55 98.45 375.4 97.85 Z"/>
</g>

<g id="Layer0_0_MEMBER_1_MEMBER_4_MEMBER_1_FILL">
<path fill="#EA9080" stroke="none" d="
M 365.2 82.3
L 374.55 87.7 375.4 87.1 366.05 81.7 365.2 82.3 Z"/>
</g>

<g id="Layer0_0_MEMBER_1_MEMBER_4_MEMBER_2_FILL">
<path fill="#D96B55" stroke="none" d="
M 374.55 98.45
L 374.55 87.7 365.2 82.3 365.2 93.1 374.55 98.45 Z"/>
</g>

<g id="Layer0_0_MEMBER_1_MEMBER_4_MEMBER_3_FILL">
<path fill="#7DB4C0" stroke="none" d="
M 373.65 96.9
L 373.65 88.25 366.15 83.9 366.15 92.55 373.65 96.9 Z"/>
</g>

<g id="Layer0_0_MEMBER_1_MEMBER_4_MEMBER_4_FILL">
<path fill="#D96B55" stroke="none" d="
M 370.35 96.05
L 370.35 85.3 369.4 84.75 369.4 95.5 370.35 96.05 Z"/>
</g>

<g id="Layer0_0_MEMBER_1_MEMBER_4_MEMBER_5_FILL">
<path fill="#D96B55" stroke="none" d="
M 365.2 88.25
L 374.55 93.65 374.55 92.55 365.2 87.15 365.2 88.25 Z"/>
</g>

<g id="Layer0_0_MEMBER_1_MEMBER_5_MEMBER_0_FILL">
<path fill="#D96B55" stroke="none" d="
M 409.85 90.7
L 409.05 90.1 409.05 100.85 409.85 101.45 409.85 90.7 Z"/>
</g>

<g id="Layer0_0_MEMBER_1_MEMBER_5_MEMBER_1_FILL">
<path fill="#EA9080" stroke="none" d="
M 409.85 90.7
L 419.2 85.3 418.35 84.7 409.05 90.1 409.85 90.7 Z"/>
</g>

<g id="Layer0_0_MEMBER_1_MEMBER_5_MEMBER_2_FILL">
<path fill="#AC5440" stroke="none" d="
M 419.2 85.3
L 409.85 90.7 409.85 101.45 419.2 96.1 419.2 85.3 Z"/>
</g>

<g id="Layer0_0_MEMBER_1_MEMBER_5_MEMBER_3_FILL">
<path fill="#7DB4C0" stroke="none" d="
M 418.3 86.9
L 410.8 91.2 410.8 99.9 418.3 95.55 418.3 86.9 Z"/>
</g>

<g id="Layer0_0_MEMBER_1_MEMBER_5_MEMBER_4_FILL">
<path fill="#AC5440" stroke="none" d="
M 415 87.75
L 414.05 88.3 414.05 99.05 415 98.5 415 87.75 Z"/>
</g>

<g id="Layer0_0_MEMBER_1_MEMBER_5_MEMBER_5_FILL">
<path fill="#AC5440" stroke="none" d="
M 409.85 96.65
L 419.2 91.25 419.2 90.15 409.85 95.5 409.85 96.65 Z"/>
</g>

<g id="Layer0_0_MEMBER_1_MEMBER_6_MEMBER_0_FILL">
<path fill="#D96B55" stroke="none" d="
M 421.1 83.3
L 421.1 94.05 421.95 94.65 421.95 83.9 421.1 83.3 Z"/>
</g>

<g id="Layer0_0_MEMBER_1_MEMBER_6_MEMBER_1_FILL">
<path fill="#EA9080" stroke="none" d="
M 421.95 83.9
L 431.25 78.5 430.4 77.9 421.1 83.3 421.95 83.9 Z"/>
</g>

<g id="Layer0_0_MEMBER_1_MEMBER_6_MEMBER_2_FILL">
<path fill="#AC5440" stroke="none" d="
M 421.95 83.9
L 421.95 94.65 431.25 89.3 431.25 78.5 421.95 83.9 Z"/>
</g>

<g id="Layer0_0_MEMBER_1_MEMBER_6_MEMBER_3_FILL">
<path fill="#7DB4C0" stroke="none" d="
M 422.85 84.45
L 422.85 93.1 430.35 88.75 430.35 80.1 422.85 84.45 Z"/>
</g>

<g id="Layer0_0_MEMBER_1_MEMBER_6_MEMBER_4_FILL">
<path fill="#AC5440" stroke="none" d="
M 426.1 81.5
L 426.1 92.25 427.1 91.7 427.1 80.95 426.1 81.5 Z"/>
</g>

<g id="Layer0_0_MEMBER_1_MEMBER_6_MEMBER_5_FILL">
<path fill="#AC5440" stroke="none" d="
M 421.95 89.85
L 431.25 84.45 431.25 83.35 421.95 88.75 421.95 89.85 Z"/>
</g>

<g id="Layer0_0_MEMBER_1_MEMBER_7_MEMBER_0_FILL">
<path fill="#D96B55" stroke="none" d="
M 433.15 76.5
L 433.15 87.25 434 87.9 434 77.1 433.15 76.5 Z"/>
</g>

<g id="Layer0_0_MEMBER_1_MEMBER_7_MEMBER_1_FILL">
<path fill="#EA9080" stroke="none" d="
M 434 77.1
L 443.3 71.7 442.5 71.1 433.15 76.5 434 77.1 Z"/>
</g>

<g id="Layer0_0_MEMBER_1_MEMBER_7_MEMBER_2_FILL">
<path fill="#AC5440" stroke="none" d="
M 434 77.1
L 434 87.9 443.3 82.5 443.3 71.7 434 77.1 Z"/>
</g>

<g id="Layer0_0_MEMBER_1_MEMBER_7_MEMBER_3_FILL">
<path fill="#7DB4C0" stroke="none" d="
M 434.9 77.65
L 434.9 86.3 442.4 81.95 442.4 73.3 434.9 77.65 Z"/>
</g>

<g id="Layer0_0_MEMBER_1_MEMBER_7_MEMBER_4_FILL">
<path fill="#AC5440" stroke="none" d="
M 438.15 74.7
L 438.15 85.45 439.15 84.9 439.15 74.15 438.15 74.7 Z"/>
</g>

<g id="Layer0_0_MEMBER_1_MEMBER_7_MEMBER_5_FILL">
<path fill="#AC5440" stroke="none" d="
M 434 83.05
L 443.3 77.65 443.3 76.55 434 81.95 434 83.05 Z"/>
</g>

<g id="Layer0_0_MEMBER_1_MEMBER_8_MEMBER_0_FILL">
<path fill="#D96B55" stroke="none" d="
M 409.05 106.05
L 409.05 116.85 409.85 117.45 409.85 106.7 409.05 106.05 Z"/>
</g>

<g id="Layer0_0_MEMBER_1_MEMBER_8_MEMBER_1_FILL">
<path fill="#EA9080" stroke="none" d="
M 409.85 106.7
L 419.2 101.3 418.35 100.7 409.05 106.05 409.85 106.7 Z"/>
</g>

<g id="Layer0_0_MEMBER_1_MEMBER_8_MEMBER_2_FILL">
<path fill="#AC5440" stroke="none" d="
M 409.85 106.7
L 409.85 117.45 419.2 112.05 419.2 101.3 409.85 106.7 Z"/>
</g>

<g id="Layer0_0_MEMBER_1_MEMBER_8_MEMBER_3_FILL">
<path fill="#7DB4C0" stroke="none" d="
M 410.8 107.2
L 410.8 115.85 418.3 111.55 418.3 102.85 410.8 107.2 Z"/>
</g>

<g id="Layer0_0_MEMBER_1_MEMBER_8_MEMBER_4_FILL">
<path fill="#AC5440" stroke="none" d="
M 414.05 104.25
L 414.05 115.05 415 114.45 415 103.7 414.05 104.25 Z"/>
</g>

<g id="Layer0_0_MEMBER_1_MEMBER_8_MEMBER_5_FILL">
<path fill="#AC5440" stroke="none" d="
M 409.85 112.6
L 419.2 107.25 419.2 106.1 409.85 111.5 409.85 112.6 Z"/>
</g>

<g id="Layer0_0_MEMBER_1_MEMBER_9_MEMBER_0_FILL">
<path fill="#D96B55" stroke="none" d="
M 421.1 99.3
L 421.1 110.05 421.95 110.65 421.95 99.9 421.1 99.3 Z"/>
</g>

<g id="Layer0_0_MEMBER_1_MEMBER_9_MEMBER_1_FILL">
<path fill="#EA9080" stroke="none" d="
M 431.25 94.5
L 430.4 93.9 421.1 99.3 421.95 99.9 431.25 94.5 Z"/>
</g>

<g id="Layer0_0_MEMBER_1_MEMBER_9_MEMBER_2_FILL">
<path fill="#AC5440" stroke="none" d="
M 421.95 99.9
L 421.95 110.65 431.25 105.25 431.25 94.5 421.95 99.9 Z"/>
</g>

<g id="Layer0_0_MEMBER_1_MEMBER_9_MEMBER_3_FILL">
<path fill="#7DB4C0" stroke="none" d="
M 422.85 100.4
L 422.85 109.1 430.35 104.75 430.35 96.05 422.85 100.4 Z"/>
</g>

<g id="Layer0_0_MEMBER_1_MEMBER_9_MEMBER_4_FILL">
<path fill="#AC5440" stroke="none" d="
M 427.1 96.9
L 426.1 97.45 426.1 108.25 427.1 107.7 427.1 96.9 Z"/>
</g>

<g id="Layer0_0_MEMBER_1_MEMBER_9_MEMBER_5_FILL">
<path fill="#AC5440" stroke="none" d="
M 421.95 105.85
L 431.25 100.45 431.25 99.3 421.95 104.7 421.95 105.85 Z"/>
</g>

<g id="Layer0_0_MEMBER_1_MEMBER_10_MEMBER_0_FILL">
<path fill="#D96B55" stroke="none" d="
M 434 93.1
L 433.15 92.5 433.15 103.25 434 103.85 434 93.1 Z"/>
</g>

<g id="Layer0_0_MEMBER_1_MEMBER_10_MEMBER_1_FILL">
<path fill="#EA9080" stroke="none" d="
M 434 93.1
L 443.3 87.7 442.5 87.1 433.15 92.5 434 93.1 Z"/>
</g>

<g id="Layer0_0_MEMBER_1_MEMBER_10_MEMBER_2_FILL">
<path fill="#AC5440" stroke="none" d="
M 443.3 87.7
L 434 93.1 434 103.85 443.3 98.45 443.3 87.7 Z"/>
</g>

<g id="Layer0_0_MEMBER_1_MEMBER_10_MEMBER_3_FILL">
<path fill="#7DB4C0" stroke="none" d="
M 442.4 89.3
L 434.9 93.6 434.9 102.3 442.4 97.95 442.4 89.3 Z"/>
</g>

<g id="Layer0_0_MEMBER_1_MEMBER_10_MEMBER_4_FILL">
<path fill="#AC5440" stroke="none" d="
M 439.15 90.1
L 438.15 90.7 438.15 101.45 439.15 100.9 439.15 90.1 Z"/>
</g>

<g id="Layer0_0_MEMBER_1_MEMBER_10_MEMBER_5_FILL">
<path fill="#AC5440" stroke="none" d="
M 443.3 92.55
L 434 97.9 434 99.05 443.3 93.65 443.3 92.55 Z"/>
</g>

<g id="Layer0_0_MEMBER_1_MEMBER_11_MEMBER_0_FILL">
<path fill="#AC5440" stroke="none" d="
M 375.4 82.4
L 375.4 71.65 374.55 72.25 374.55 83 375.4 82.4 Z"/>
</g>

<g id="Layer0_0_MEMBER_1_MEMBER_11_MEMBER_1_FILL">
<path fill="#EA9080" stroke="none" d="
M 365.2 66.85
L 374.55 72.25 375.4 71.65 366.05 66.25 365.2 66.85 Z"/>
</g>

<g id="Layer0_0_MEMBER_1_MEMBER_11_MEMBER_2_FILL">
<path fill="#D96B55" stroke="none" d="
M 374.55 83
L 374.55 72.25 365.2 66.85 365.2 77.6 374.55 83 Z"/>
</g>

<g id="Layer0_0_MEMBER_1_MEMBER_11_MEMBER_3_FILL">
<path fill="#7DB4C0" stroke="none" d="
M 373.65 81.45
L 373.65 72.75 366.15 68.45 366.15 77.1 373.65 81.45 Z"/>
</g>

<g id="Layer0_0_MEMBER_1_MEMBER_11_MEMBER_4_FILL">
<path fill="#D96B55" stroke="none" d="
M 370.35 80.6
L 370.35 69.8 369.4 69.25 369.4 80.05 370.35 80.6 Z"/>
</g>

<g id="Layer0_0_MEMBER_1_MEMBER_11_MEMBER_5_FILL">
<path fill="#D96B55" stroke="none" d="
M 365.2 72.8
L 374.55 78.2 374.55 77.05 365.2 71.7 365.2 72.8 Z"/>
</g>

<g id="Layer0_0_MEMBER_1_MEMBER_12_MEMBER_0_FILL">
<path fill="#AC5440" stroke="none" d="
M 394.95 99
L 394.95 109.75 395.75 109.15 395.75 98.4 394.95 99 Z"/>
</g>

<g id="Layer0_0_MEMBER_1_MEMBER_12_MEMBER_1_FILL">
<path fill="#EA9080" stroke="none" d="
M 395.75 98.4
L 386.45 93 385.6 93.6 394.95 99 395.75 98.4 Z"/>
</g>

<g id="Layer0_0_MEMBER_1_MEMBER_12_MEMBER_2_FILL">
<path fill="#D96B55" stroke="none" d="
M 394.95 109.75
L 394.95 99 385.6 93.6 385.6 104.4 394.95 109.75 Z"/>
</g>

<g id="Layer0_0_MEMBER_1_MEMBER_12_MEMBER_3_FILL">
<path fill="#7DB4C0" stroke="none" d="
M 394.05 108.2
L 394.05 99.5 386.5 95.2 386.5 103.85 394.05 108.2 Z"/>
</g>

<g id="Layer0_0_MEMBER_1_MEMBER_12_MEMBER_4_FILL">
<path fill="#D96B55" stroke="none" d="
M 390.75 96.6
L 389.8 96 389.8 106.8 390.75 107.35 390.75 96.6 Z"/>
</g>

<g id="Layer0_0_MEMBER_1_MEMBER_12_MEMBER_5_FILL">
<path fill="#D96B55" stroke="none" d="
M 385.6 99.55
L 394.95 104.95 394.95 103.8 385.6 98.45 385.6 99.55 Z"/>
</g>

<g id="Layer0_0_MEMBER_1_MEMBER_13_MEMBER_0_FILL">
<path fill="#AC5440" stroke="none" d="
M 395.75 93.7
L 395.75 82.9 394.95 83.55 394.95 94.3 395.75 93.7 Z"/>
</g>

<g id="Layer0_0_MEMBER_1_MEMBER_13_MEMBER_1_FILL">
<path fill="#EA9080" stroke="none" d="
M 385.6 78.15
L 394.95 83.55 395.75 82.9 386.45 77.55 385.6 78.15 Z"/>
</g>

<g id="Layer0_0_MEMBER_1_MEMBER_13_MEMBER_2_FILL">
<path fill="#D96B55" stroke="none" d="
M 394.95 94.3
L 394.95 83.55 385.6 78.15 385.6 88.9 394.95 94.3 Z"/>
</g>

<g id="Layer0_0_MEMBER_1_MEMBER_13_MEMBER_3_FILL">
<path fill="#7DB4C0" stroke="none" d="
M 394.05 92.7
L 394.05 84.05 386.5 79.7 386.5 88.4 394.05 92.7 Z"/>
</g>

<g id="Layer0_0_MEMBER_1_MEMBER_13_MEMBER_4_FILL">
<path fill="#D96B55" stroke="none" d="
M 390.75 91.9
L 390.75 81.1 389.8 80.55 389.8 91.3 390.75 91.9 Z"/>
</g>

<g id="Layer0_0_MEMBER_1_MEMBER_13_MEMBER_5_FILL">
<path fill="#D96B55" stroke="none" d="
M 385.6 84.1
L 394.95 89.45 394.95 88.35 385.6 82.95 385.6 84.1 Z"/>
</g>

<g id="Layer0_0_MEMBER_1_MEMBER_14_MEMBER_0_FILL">
<path fill="#AC5440" stroke="none" d="
M 383.7 70.5
Q 383 69.2 382 68.6
L 381.3 68.2
Q 380.6 67.8 379.95 67.95 379.4 68.05 379.05 68.45 378.45 69.05 378.45 70.2 378.45 71.5 379.15 72.85 379.85 74.2 380.85 74.75
L 381.55 75.15
Q 382.25 75.55 382.8 75.4 383.15 75.4 383.5 75.1 384.4 74.7 384.4 73.15 384.4 71.85 383.7 70.5 Z"/>
</g>

<g id="Layer0_0_MEMBER_1_MEMBER_14_MEMBER_1_FILL">
<path fill="#D96B55" stroke="none" d="
M 378.45 70.2
Q 378.45 71.5 379.15 72.85 379.85 74.2 380.85 74.75
L 381.55 75.15
Q 382.55 75.7 383.25 75.2 383.95 74.65 383.95 73.35 383.95 72.05 383.25 70.7 382.55 69.4 381.55 68.8
L 380.85 68.4
Q 379.85 67.85 379.15 68.35 378.45 68.9 378.45 70.2 Z"/>
</g>

<g id="Layer0_0_MEMBER_1_MEMBER_14_MEMBER_2_FILL">
<path fill="#7DB4C0" stroke="none" d="
M 379.55 72.65
Q 380.1 73.7 380.9 74.15
L 381.5 74.5
Q 382.3 74.95 382.85 74.55 383.4 74.1 383.4 73.05 383.4 72 382.85 70.95 382.3 69.85 381.5 69.4
L 380.9 69.05
Q 380.1 68.6 379.55 69.05 379 69.45 379 70.5 379 71.55 379.55 72.65 Z"/>
</g>

<g id="Layer0_0_MEMBER_1_MEMBER_14_MEMBER_3_FILL">
<path fill="#D96B55" stroke="none" d="
M 381.5 75.1
L 381.5 68.75 380.9 68.45 380.9 74.8 381.5 75.1 Z"/>
</g>

<g id="Layer0_0_MEMBER_1_MEMBER_14_MEMBER_4_FILL">
<path fill="#D96B55" stroke="none" d="
M 378.45 70.5
L 383.95 73.7 383.95 73.05 378.45 69.85 378.45 70.5 Z"/>
</g>

<g id="Layer0_0_MEMBER_1_MEMBER_15_MEMBER_0_FILL">
<path fill="#FFFFFF" stroke="none" d="
M 373.95 101.2
L 373.95 122.25 384.25 128.2 384.25 107.15 373.95 101.2 Z"/>
</g>

<g id="Layer0_0_MEMBER_1_MEMBER_15_MEMBER_1_FILL">
<path fill="#D96B55" stroke="none" d="
M 382.2 108.65
Q 381.15 106.6 379.65 105.75
L 378.5 105.1
Q 377 104.25 375.95 105.05 374.9 105.85 374.9 107.85 374.9 109.85 375.95 111.85 377 113.9 378.5 114.75
L 379.65 115.4
Q 381.15 116.25 382.2 115.45 383.25 114.65 383.25 112.65 383.25 110.65 382.2 108.65 Z"/>
</g>

<g id="Layer0_0_MEMBER_1_MEMBER_15_MEMBER_2_FILL">
<path fill="#7DB4C0" stroke="none" d="
M 381.6 108.95
Q 380.75 107.35 379.55 106.65
L 378.65 106.1
Q 377.4 105.45 376.55 106.05 375.7 106.7 375.7 108.3 375.7 109.9 376.55 111.55 377.4 113.2 378.65 113.9
L 379.55 114.4
Q 380.75 115.1 381.6 114.45 382.45 113.8 382.45 112.2 382.45 110.6 381.6 108.95 Z"/>
</g>

<g id="Layer0_0_MEMBER_1_MEMBER_15_MEMBER_3_FILL">
<path fill="#D96B55" stroke="none" d="
M 379.5 115.35
L 379.5 105.7 378.65 105.2 378.65 114.85 379.5 115.35 Z"/>
</g>

<g id="Layer0_0_MEMBER_1_MEMBER_15_MEMBER_4_FILL">
<path fill="#D96B55" stroke="none" d="
M 374.9 108.35
L 383.25 113.15 383.25 112.15 374.9 107.35 374.9 108.35 Z"/>
</g>

<g id="Layer0_0_MEMBER_1_MEMBER_16_FILL">
<path fill="#E57E67" stroke="none" d="
M 426.1 36.5
Q 425.75 36.05 425.1 36.05
L 403.9 36.05
Q 403.25 36.05 402.85 36.6
L 361.35 60.5
Q 360.8 60.6 360.5 61 360.2 61.3 360.2 61.8 360.2 62.35 360.6 62.7 361 63.1 361.5 63.1
L 382.1 63.1 402.95 87.1
Q 403.35 87.55 403.9 87.55 404.4 87.55 404.75 87.25
L 446.75 63.05
Q 447.05 62.95 447.2 62.8 447.6 62.45 447.65 61.9 447.65 61.35 447.3 60.95
L 426.1 36.5 Z"/>
</g>

<g id="Layer0_0_MEMBER_1_MEMBER_17_FILL">
<path fill="#D96B55" stroke="none" d="
M 425.1 36.05
L 424.75 36.05 382.7 60.45 383.15 64.25 402.95 87.1
Q 403.35 87.55 403.9 87.55 404.4 87.55 404.75 87.25
L 446.75 63.05
Q 447.05 62.95 447.2 62.8 447.6 62.45 447.65 61.9 447.65 61.35 447.3 60.95
L 426.1 36.5
Q 425.75 36.05 425.1 36.05 Z"/>
</g>

<g id="Layer0_0_MEMBER_1_MEMBER_18_MEMBER_0_FILL">
<path fill="#C9624C" stroke="none" d="
M 361.5 60.45
Q 360.95 60.45 360.6 60.85 360.2 61.25 360.2 61.8 360.2 62.35 360.6 62.7 361 63.1 361.5 63.1
L 382.1 63.1 402.95 87.1
Q 403.35 87.55 403.9 87.55 404.4 87.55 404.75 87.25 405.15 86.9 405.2 86.35 405.25 85.8 404.9 85.4
L 383.7 60.95
Q 383.3 60.45 382.7 60.45
L 361.5 60.45 Z"/>
</g>

<g id="Layer0_0_MEMBER_1_MEMBER_19_MEMBER_0_FILL">
<path fill="#CAE6D6" stroke="none" d="
M 417.3 58
L 422.85 64.75 422.85 51.9 417.3 48.7 417.3 58 Z"/>
</g>

<g id="Layer0_0_MEMBER_1_MEMBER_19_MEMBER_1_FILL">
<path fill="#90CAAB" stroke="none" d="
M 417.3 50.65
L 417.3 52.15 420.35 53.95 420.35 52.4 417.3 50.65 Z"/>
</g>

<g id="Layer0_0_MEMBER_1_MEMBER_19_MEMBER_2_FILL">
<path fill="#90CAAB" stroke="none" d="
M 422.85 58.25
L 422.85 56.75 420.1 55.2 420.1 56.7 422.85 58.25 Z"/>
</g>

<g id="Layer0_0_MEMBER_1_MEMBER_19_MEMBER_3_FILL">
<path fill="#90CAAB" stroke="none" d="
M 418.7 57.4
L 418.7 55.9 417.3 55.1 417.3 56.6 418.7 57.4 Z"/>
</g>

<g id="Layer0_0_MEMBER_1_MEMBER_19_MEMBER_4_FILL">
<path fill="#90CAAB" stroke="none" d="
M 422.85 51.9
L 422.85 64.8 428.35 61.6 428.35 48.7 422.85 51.9 Z"/>
</g>

<g id="Layer0_0_MEMBER_1_MEMBER_19_MEMBER_5_FILL">
<path fill="#7BAC92" stroke="none" d="
M 422.85 55.65
L 422.85 57.15 425.05 55.85 425.05 54.35 422.85 55.65 Z"/>
</g>

<g id="Layer0_0_MEMBER_1_MEMBER_19_MEMBER_6_FILL">
<path fill="#7BAC92" stroke="none" d="
M 428.35 57.15
L 428.35 55.6 424.55 57.8 424.55 59.3 428.35 57.15 Z"/>
</g>

<g id="Layer0_0_MEMBER_1_MEMBER_19_MEMBER_7_FILL">
<path fill="#7BAC92" stroke="none" d="
M 428.35 60.3
L 428.35 58.8 426.85 59.65 426.85 61.15 428.35 60.3 Z"/>
</g>

<g id="Layer0_0_MEMBER_1_MEMBER_19_MEMBER_8_FILL">
<path fill="#E9F2EC" stroke="none" d="
M 422.85 45.55
L 417.3 48.7 422.85 51.9 428.35 48.7 422.85 45.55 Z"/>
</g>

<g id="Layer0_0_MEMBER_1_MEMBER_19_MEMBER_9_FILL">
<path fill="#90CAAB" stroke="none" d="
M 422.85 46.7
L 419.35 48.7 422.85 50.75 426.35 48.7 422.85 46.7 Z"/>
</g>

<g id="Layer0_0_MEMBER_1_MEMBER_19_MEMBER_10_FILL">
<path fill="#CAE6D6" stroke="none" d="
M 426.35 48.7
L 422.85 46.7 422.85 50.75 426.35 48.7 Z"/>
</g>
</defs>

<g transform="matrix( 7, 0, 0, 7, -2319.3,-183.85) ">
<use xlink:href="#Layer0_0_MEMBER_0_MEMBER_0_FILL"/>
</g>

<g transform="matrix( 7, 0, 0, 7, -2319.3,-183.85) ">
<use xlink:href="#Layer0_0_MEMBER_0_MEMBER_1_FILL"/>
</g>

<g transform="matrix( 7, 0, 0, 7, -2319.3,-183.85) ">
<use xlink:href="#Layer0_0_MEMBER_0_MEMBER_2_FILL"/>
</g>

<g transform="matrix( 7, 0, 0, 7, -2319.3,-183.85) ">
<use xlink:href="#Layer0_0_MEMBER_0_MEMBER_3_FILL"/>
</g>

<g transform="matrix( 7, 0, 0, 7, 491.9,851.8) ">
<use xlink:href="#Layer0_0_MEMBER_0_MEMBER_4_FILL"/>
</g>

<g transform="matrix( 7, 0, 0, 7, -2319.3,-183.85) ">
<use xlink:href="#Layer0_0_MEMBER_0_MEMBER_5_FILL"/>
</g>

<g transform="matrix( 7, 0, 0, 7, -2319.3,-183.85) ">
<use xlink:href="#Layer0_0_MEMBER_0_MEMBER_6_FILL"/>
</g>

<g transform="matrix( 7, 0, 0, 7, -2319.3,-183.85) ">
<use xlink:href="#Layer0_0_MEMBER_1_MEMBER_0_FILL"/>
</g>

<g transform="matrix( 7, 0, 0, 7, -2319.3,-183.85) ">
<use xlink:href="#Layer0_0_MEMBER_1_MEMBER_1_FILL"/>
</g>

<g transform="matrix( 7, 0, 0, 7, -2319.3,-183.85) ">
<use xlink:href="#Layer0_0_MEMBER_1_MEMBER_2_FILL"/>
</g>

<g transform="matrix( 7, 0, 0, 7, -2319.3,-183.85) ">
<use xlink:href="#Layer0_0_MEMBER_1_MEMBER_3_FILL"/>
</g>

<g transform="matrix( 7, 0, 0, 7, -2319.3,-183.85) ">
<use xlink:href="#Layer0_0_MEMBER_1_MEMBER_4_MEMBER_0_FILL"/>
</g>

<g transform="matrix( 7, 0, 0, 7, -2319.3,-183.85) ">
<use xlink:href="#Layer0_0_MEMBER_1_MEMBER_4_MEMBER_1_FILL"/>
</g>

<g transform="matrix( 7, 0, 0, 7, -2319.3,-183.85) ">
<use xlink:href="#Layer0_0_MEMBER_1_MEMBER_4_MEMBER_2_FILL"/>
</g>

<g transform="matrix( 7, 0, 0, 7, -2319.3,-183.85) ">
<use xlink:href="#Layer0_0_MEMBER_1_MEMBER_4_MEMBER_3_FILL"/>
</g>

<g transform="matrix( 7, 0, 0, 7, -2319.3,-183.85) ">
<use xlink:href="#Layer0_0_MEMBER_1_MEMBER_4_MEMBER_4_FILL"/>
</g>

<g transform="matrix( 7, 0, 0, 7, -2319.3,-183.85) ">
<use xlink:href="#Layer0_0_MEMBER_1_MEMBER_4_MEMBER_5_FILL"/>
</g>

<g transform="matrix( 7, 0, 0, 7, -2319.3,-183.85) ">
<use xlink:href="#Layer0_0_MEMBER_1_MEMBER_5_MEMBER_0_FILL"/>
</g>

<g transform="matrix( 7, 0, 0, 7, -2319.3,-183.85) ">
<use xlink:href="#Layer0_0_MEMBER_1_MEMBER_5_MEMBER_1_FILL"/>
</g>

<g transform="matrix( 7, 0, 0, 7, -2319.3,-183.85) ">
<use xlink:href="#Layer0_0_MEMBER_1_MEMBER_5_MEMBER_2_FILL"/>
</g>

<g transform="matrix( 7, 0, 0, 7, -2319.3,-183.85) ">
<use xlink:href="#Layer0_0_MEMBER_1_MEMBER_5_MEMBER_3_FILL"/>
</g>

<g transform="matrix( 7, 0, 0, 7, -2319.3,-183.85) ">
<use xlink:href="#Layer0_0_MEMBER_1_MEMBER_5_MEMBER_4_FILL"/>
</g>

<g transform="matrix( 7, 0, 0, 7, -2319.3,-183.85) ">
<use xlink:href="#Layer0_0_MEMBER_1_MEMBER_5_MEMBER_5_FILL"/>
</g>

<g transform="matrix( 7, 0, 0, 7, -2319.3,-183.85) ">
<use xlink:href="#Layer0_0_MEMBER_1_MEMBER_6_MEMBER_0_FILL"/>
</g>

<g transform="matrix( 7, 0, 0, 7, -2319.3,-183.85) ">
<use xlink:href="#Layer0_0_MEMBER_1_MEMBER_6_MEMBER_1_FILL"/>
</g>

<g transform="matrix( 7, 0, 0, 7, -2319.3,-183.85) ">
<use xlink:href="#Layer0_0_MEMBER_1_MEMBER_6_MEMBER_2_FILL"/>
</g>

<g transform="matrix( 7, 0, 0, 7, -2319.3,-183.85) ">
<use xlink:href="#Layer0_0_MEMBER_1_MEMBER_6_MEMBER_3_FILL"/>
</g>

<g transform="matrix( 7, 0, 0, 7, -2319.3,-183.85) ">
<use xlink:href="#Layer0_0_MEMBER_1_MEMBER_6_MEMBER_4_FILL"/>
</g>

<g transform="matrix( 7, 0, 0, 7, -2319.3,-183.85) ">
<use xlink:href="#Layer0_0_MEMBER_1_MEMBER_6_MEMBER_5_FILL"/>
</g>

<g transform="matrix( 7, 0, 0, 7, -2319.3,-183.85) ">
<use xlink:href="#Layer0_0_MEMBER_1_MEMBER_7_MEMBER_0_FILL"/>
</g>

<g transform="matrix( 7, 0, 0, 7, -2319.3,-183.85) ">
<use xlink:href="#Layer0_0_MEMBER_1_MEMBER_7_MEMBER_1_FILL"/>
</g>

<g transform="matrix( 7, 0, 0, 7, -2319.3,-183.85) ">
<use xlink:href="#Layer0_0_MEMBER_1_MEMBER_7_MEMBER_2_FILL"/>
</g>

<g transform="matrix( 7, 0, 0, 7, -2319.3,-183.85) ">
<use xlink:href="#Layer0_0_MEMBER_1_MEMBER_7_MEMBER_3_FILL"/>
</g>

<g transform="matrix( 7, 0, 0, 7, -2319.3,-183.85) ">
<use xlink:href="#Layer0_0_MEMBER_1_MEMBER_7_MEMBER_4_FILL"/>
</g>

<g transform="matrix( 7, 0, 0, 7, -2319.3,-183.85) ">
<use xlink:href="#Layer0_0_MEMBER_1_MEMBER_7_MEMBER_5_FILL"/>
</g>

<g transform="matrix( 7, 0, 0, 7, -2319.3,-183.85) ">
<use xlink:href="#Layer0_0_MEMBER_1_MEMBER_8_MEMBER_0_FILL"/>
</g>

<g transform="matrix( 7, 0, 0, 7, -2319.3,-183.85) ">
<use xlink:href="#Layer0_0_MEMBER_1_MEMBER_8_MEMBER_1_FILL"/>
</g>

<g transform="matrix( 7, 0, 0, 7, -2319.3,-183.85) ">
<use xlink:href="#Layer0_0_MEMBER_1_MEMBER_8_MEMBER_2_FILL"/>
</g>

<g transform="matrix( 7, 0, 0, 7, -2319.3,-183.85) ">
<use xlink:href="#Layer0_0_MEMBER_1_MEMBER_8_MEMBER_3_FILL"/>
</g>

<g transform="matrix( 7, 0, 0, 7, -2319.3,-183.85) ">
<use xlink:href="#Layer0_0_MEMBER_1_MEMBER_8_MEMBER_4_FILL"/>
</g>

<g transform="matrix( 7, 0, 0, 7, -2319.3,-183.85) ">
<use xlink:href="#Layer0_0_MEMBER_1_MEMBER_8_MEMBER_5_FILL"/>
</g>

<g transform="matrix( 7, 0, 0, 7, -2319.3,-183.85) ">
<use xlink:href="#Layer0_0_MEMBER_1_MEMBER_9_MEMBER_0_FILL"/>
</g>

<g transform="matrix( 7, 0, 0, 7, -2319.3,-183.85) ">
<use xlink:href="#Layer0_0_MEMBER_1_MEMBER_9_MEMBER_1_FILL"/>
</g>

<g transform="matrix( 7, 0, 0, 7, -2319.3,-183.85) ">
<use xlink:href="#Layer0_0_MEMBER_1_MEMBER_9_MEMBER_2_FILL"/>
</g>

<g transform="matrix( 7, 0, 0, 7, -2319.3,-183.85) ">
<use xlink:href="#Layer0_0_MEMBER_1_MEMBER_9_MEMBER_3_FILL"/>
</g>

<g transform="matrix( 7, 0, 0, 7, -2319.3,-183.85) ">
<use xlink:href="#Layer0_0_MEMBER_1_MEMBER_9_MEMBER_4_FILL"/>
</g>

<g transform="matrix( 7, 0, 0, 7, -2319.3,-183.85) ">
<use xlink:href="#Layer0_0_MEMBER_1_MEMBER_9_MEMBER_5_FILL"/>
</g>

<g transform="matrix( 7, 0, 0, 7, -2319.3,-183.85) ">
<use xlink:href="#Layer0_0_MEMBER_1_MEMBER_10_MEMBER_0_FILL"/>
</g>

<g transform="matrix( 7, 0, 0, 7, -2319.3,-183.85) ">
<use xlink:href="#Layer0_0_MEMBER_1_MEMBER_10_MEMBER_1_FILL"/>
</g>

<g transform="matrix( 7, 0, 0, 7, -2319.3,-183.85) ">
<use xlink:href="#Layer0_0_MEMBER_1_MEMBER_10_MEMBER_2_FILL"/>
</g>

<g transform="matrix( 7, 0, 0, 7, -2319.3,-183.85) ">
<use xlink:href="#Layer0_0_MEMBER_1_MEMBER_10_MEMBER_3_FILL"/>
</g>

<g transform="matrix( 7, 0, 0, 7, -2319.3,-183.85) ">
<use xlink:href="#Layer0_0_MEMBER_1_MEMBER_10_MEMBER_4_FILL"/>
</g>

<g transform="matrix( 7, 0, 0, 7, -2319.3,-183.85) ">
<use xlink:href="#Layer0_0_MEMBER_1_MEMBER_10_MEMBER_5_FILL"/>
</g>

<g transform="matrix( 7, 0, 0, 7, -2319.3,-183.85) ">
<use xlink:href="#Layer0_0_MEMBER_1_MEMBER_11_MEMBER_0_FILL"/>
</g>

<g transform="matrix( 7, 0, 0, 7, -2319.3,-183.85) ">
<use xlink:href="#Layer0_0_MEMBER_1_MEMBER_11_MEMBER_1_FILL"/>
</g>

<g transform="matrix( 7, 0, 0, 7, -2319.3,-183.85) ">
<use xlink:href="#Layer0_0_MEMBER_1_MEMBER_11_MEMBER_2_FILL"/>
</g>

<g transform="matrix( 7, 0, 0, 7, -2319.3,-183.85) ">
<use xlink:href="#Layer0_0_MEMBER_1_MEMBER_11_MEMBER_3_FILL"/>
</g>

<g transform="matrix( 7, 0, 0, 7, -2319.3,-183.85) ">
<use xlink:href="#Layer0_0_MEMBER_1_MEMBER_11_MEMBER_4_FILL"/>
</g>

<g transform="matrix( 7, 0, 0, 7, -2319.3,-183.85) ">
<use xlink:href="#Layer0_0_MEMBER_1_MEMBER_11_MEMBER_5_FILL"/>
</g>

<g transform="matrix( 7, 0, 0, 7, -2319.3,-183.85) ">
<use xlink:href="#Layer0_0_MEMBER_1_MEMBER_12_MEMBER_0_FILL"/>
</g>

<g transform="matrix( 7, 0, 0, 7, -2319.3,-183.85) ">
<use xlink:href="#Layer0_0_MEMBER_1_MEMBER_12_MEMBER_1_FILL"/>
</g>

<g transform="matrix( 7, 0, 0, 7, -2319.3,-183.85) ">
<use xlink:href="#Layer0_0_MEMBER_1_MEMBER_12_MEMBER_2_FILL"/>
</g>

<g transform="matrix( 7, 0, 0, 7, -2319.3,-183.85) ">
<use xlink:href="#Layer0_0_MEMBER_1_MEMBER_12_MEMBER_3_FILL"/>
</g>

<g transform="matrix( 7, 0, 0, 7, -2319.3,-183.85) ">
<use xlink:href="#Layer0_0_MEMBER_1_MEMBER_12_MEMBER_4_FILL"/>
</g>

<g transform="matrix( 7, 0, 0, 7, -2319.3,-183.85) ">
<use xlink:href="#Layer0_0_MEMBER_1_MEMBER_12_MEMBER_5_FILL"/>
</g>

<g transform="matrix( 7, 0, 0, 7, -2319.3,-183.85) ">
<use xlink:href="#Layer0_0_MEMBER_1_MEMBER_13_MEMBER_0_FILL"/>
</g>

<g transform="matrix( 7, 0, 0, 7, -2319.3,-183.85) ">
<use xlink:href="#Layer0_0_MEMBER_1_MEMBER_13_MEMBER_1_FILL"/>
</g>

<g transform="matrix( 7, 0, 0, 7, -2319.3,-183.85) ">
<use xlink:href="#Layer0_0_MEMBER_1_MEMBER_13_MEMBER_2_FILL"/>
</g>

<g transform="matrix( 7, 0, 0, 7, -2319.3,-183.85) ">
<use xlink:href="#Layer0_0_MEMBER_1_MEMBER_13_MEMBER_3_FILL"/>
</g>

<g transform="matrix( 7, 0, 0, 7, -2319.3,-183.85) ">
<use xlink:href="#Layer0_0_MEMBER_1_MEMBER_13_MEMBER_4_FILL"/>
</g>

<g transform="matrix( 7, 0, 0, 7, -2319.3,-183.85) ">
<use xlink:href="#Layer0_0_MEMBER_1_MEMBER_13_MEMBER_5_FILL"/>
</g>

<g transform="matrix( 7, 0, 0, 7, -2319.3,-183.85) ">
<use xlink:href="#Layer0_0_MEMBER_1_MEMBER_14_MEMBER_0_FILL"/>
</g>

<g transform="matrix( 7, 0, 0, 7, -2319.3,-183.85) ">
<use xlink:href="#Layer0_0_MEMBER_1_MEMBER_14_MEMBER_1_FILL"/>
</g>

<g transform="matrix( 7, 0, 0, 7, -2319.3,-183.85) ">
<use xlink:href="#Layer0_0_MEMBER_1_MEMBER_14_MEMBER_2_FILL"/>
</g>

<g transform="matrix( 7, 0, 0, 7, -2319.3,-183.85) ">
<use xlink:href="#Layer0_0_MEMBER_1_MEMBER_14_MEMBER_3_FILL"/>
</g>

<g transform="matrix( 7, 0, 0, 7, -2319.3,-183.85) ">
<use xlink:href="#Layer0_0_MEMBER_1_MEMBER_14_MEMBER_4_FILL"/>
</g>

<g transform="matrix( 7, 0, 0, 7, -2319.3,-183.85) ">
<use xlink:href="#Layer0_0_MEMBER_1_MEMBER_15_MEMBER_0_FILL"/>
</g>

<g transform="matrix( 7, 0, 0, 7, -2319.3,-183.85) ">
<use xlink:href="#Layer0_0_MEMBER_1_MEMBER_15_MEMBER_1_FILL"/>
</g>

<g transform="matrix( 7, 0, 0, 7, -2319.3,-183.85) ">
<use xlink:href="#Layer0_0_MEMBER_1_MEMBER_15_MEMBER_2_FILL"/>
</g>

<g transform="matrix( 7, 0, 0, 7, -2319.3,-183.85) ">
<use xlink:href="#Layer0_0_MEMBER_1_MEMBER_15_MEMBER_3_FILL"/>
</g>

<g transform="matrix( 7, 0, 0, 7, -2319.3,-183.85) ">
<use xlink:href="#Layer0_0_MEMBER_1_MEMBER_15_MEMBER_4_FILL"/>
</g>

<g transform="matrix( 7, 0, 0, 7, -2319.3,-183.85) ">
<use xlink:href="#Layer0_0_MEMBER_1_MEMBER_16_FILL"/>
</g>

<g transform="matrix( 7, 0, 0, 7, -2319.3,-183.85) ">
<use xlink:href="#Layer0_0_MEMBER_1_MEMBER_17_FILL"/>
</g>

<g transform="matrix( 7, 0, 0, 7, -2319.3,-183.85) ">
<use xlink:href="#Layer0_0_MEMBER_1_MEMBER_18_MEMBER_0_FILL"/>
</g>

<g transform="matrix( 7, 0, 0, 7, -2319.3,-183.85) ">
<use xlink:href="#Layer0_0_MEMBER_1_MEMBER_19_MEMBER_0_FILL"/>
</g>

<g transform="matrix( 7, 0, 0, 7, -2319.3,-183.85) ">
<use xlink:href="#Layer0_0_MEMBER_1_MEMBER_19_MEMBER_1_FILL"/>
</g>

<g transform="matrix( 7, 0, 0, 7, -2319.3,-183.85) ">
<use xlink:href="#Layer0_0_MEMBER_1_MEMBER_19_MEMBER_2_FILL"/>
</g>

<g transform="matrix( 7, 0, 0, 7, -2319.3,-183.85) ">
<use xlink:href="#Layer0_0_MEMBER_1_MEMBER_19_MEMBER_3_FILL"/>
</g>

<g transform="matrix( 7, 0, 0, 7, -2319.3,-183.85) ">
<use xlink:href="#Layer0_0_MEMBER_1_MEMBER_19_MEMBER_4_FILL"/>
</g>

<g transform="matrix( 7, 0, 0, 7, -2319.3,-183.85) ">
<use xlink:href="#Layer0_0_MEMBER_1_MEMBER_19_MEMBER_5_FILL"/>
</g>

<g transform="matrix( 7, 0, 0, 7, -2319.3,-183.85) ">
<use xlink:href="#Layer0_0_MEMBER_1_MEMBER_19_MEMBER_6_FILL"/>
</g>

<g transform="matrix( 7, 0, 0, 7, -2319.3,-183.85) ">
<use xlink:href="#Layer0_0_MEMBER_1_MEMBER_19_MEMBER_7_FILL"/>
</g>

<g transform="matrix( 7, 0, 0, 7, -2319.3,-183.85) ">
<use xlink:href="#Layer0_0_MEMBER_1_MEMBER_19_MEMBER_8_FILL"/>
</g>

<g transform="matrix( 7, 0, 0, 7, -2319.3,-183.85) ">
<use xlink:href="#Layer0_0_MEMBER_1_MEMBER_19_MEMBER_9_FILL"/>
</g>

<g transform="matrix( 7, 0, 0, 7, -2319.3,-183.85) ">
<use xlink:href="#Layer0_0_MEMBER_1_MEMBER_19_MEMBER_10_FILL"/>
</g>
</svg>
