<?xml version="1.0" encoding="utf-8"?>
<!-- Generator: Adobe Illustrator 22.1.0, SVG Export Plug-In . SVG Version: 6.00 Build 0)  -->
<svg version="1.1" id="图层_1" xmlns="http://www.w3.org/2000/svg" xmlns:xlink="http://www.w3.org/1999/xlink" x="0px" y="0px"
	 viewBox="0 0 1024 1024" style="enable-background:new 0 0 1024 1024;" xml:space="preserve">
<style type="text/css">
	.st0{fill:#E24D1A;stroke:#930712;stroke-width:0.5;stroke-miterlimit:10;}
	.st1{fill:#333333;}
	.st2{fill:#E24D1A;}
	.st3{fill:#932A05;}
	.st4{fill:#5894C4;}
	.st5{fill:#9FD8FF;}
	.st6{fill:#828282;}
	.st7{fill:#FFFFFF;}
	.st8{fill:#919191;}
	.st9{fill:#930712;}
	.st10{fill:#FFFFFF;stroke:#930712;stroke-width:0.75;stroke-miterlimit:10;}
	.st11{fill:#AAAAAA;}
	.st12{fill:#CCCCCC;stroke:#930712;stroke-width:0.25;stroke-miterlimit:10;}
	.st13{fill:#181919;}
	.st14{fill:none;stroke:#930712;stroke-width:0.5;stroke-miterlimit:10;}
	.st15{fill:#FFFFFF;stroke:#930712;stroke-width:0.5;stroke-miterlimit:10;}
	.st16{fill:none;stroke:#930712;stroke-miterlimit:10;}
	.st17{fill:#B53D1D;}
	.st18{fill:#A01203;}
	.st19{fill:none;stroke:#070707;stroke-width:0.5;stroke-miterlimit:10;}
	.st20{fill:#FF8666;}
	.st21{fill:#3D3D3D;}
</style>
<g>
	<g>
		<g>
			<path class="st0" d="M619.2,341c3.5-1.6,7.6,0.3,8.5,4.1c2,8.2,4.2,22.1-0.9,30.1c-7.5,11.7-15.9-11.6-17.2-22
				C608.8,347.1,614.4,343.2,619.2,341z"/>
			<path class="st0" d="M621.6,359.1l30.3,19.9l-23.4,4.4l-12.3-18.8c-1.4-2.1-0.4-5,1.9-5.8l0,0
				C619.3,358.3,620.6,358.4,621.6,359.1z"/>
			<path class="st1" d="M165.9,762.5c0,0,33.2-3.5,55-27.2c20.7-22.4-0.4-69.9-9.3-82.2s-48.8-14.9-72.8-8.1
				C114.8,651.8,165.9,762.5,165.9,762.5z"/>
			<path class="st1" d="M600.7,709.1c0,0,43.7-10.2,73.7-39.5c30-29.3-0.6-96.1-12.9-113c-12.3-16.9-67.1-20.5-100.1-11.2
				S600.7,709.1,600.7,709.1z"/>
			<path class="st2" d="M931.9,406.1c-9.9-19.5-26.1-41.3-32.3-49.3c-1.6-2-3.8-3.4-6.3-3.8c-28.8-4.3-66.2-3.3-102.7,0.8
				c-69.1,4.5-144.6,26.1-144.6,26.1l-169.4-87.6c-11.8-6.1-25.3-8.1-38.4-5.8C269.4,315.9,165.7,400.2,130,433.8
				c-9,8.4-14.8,19.6-16.5,31.8l-14.3,98.7l-9.5,19.4c-3.9,7.9-5.1,16.9-3.6,25.6l12.6,73.4c-0.7-19.6,15-25,15-25
				c56.3-12.7,63.9,21.2,77.4,52c13.5,30.7,27.5,22,27.5,22l312-56.4c0,0-70-85.6,9-113.7c79.1-28.2,109.5,77.6,140,83.8
				c30.5,6.3,152.7-43.6,208.6-82.7c20.8-14.5,38.7-40.1,49.2-57.1c6.5-10.5,9.4-22.9,8.4-35.2C943.2,438.3,941.7,425.9,931.9,406.1
				z"/>
			<path class="st3" d="M670.4,625.7c0,0-22-88.9-88.9-94.4c-67-5.5-106.5,52.2-96.5,109.1c0,0,5.7,19,10.7,27.3l-259.6,43
				c0,0,7.8-98.4-87.1-107.1c0,0-33.9-2.8-59.2,26.7l8.8,51.4c-0.7-19.6,15-25,15-25c56.3-12.7,63.9,21.2,77.4,52
				c13.5,30.7,27.5,22,27.5,22l312-56.4c0,0-70-85.6,9-113.7c79.1-28.2,109.5,77.6,140,83.8c30.5,6.3,152.7-43.6,208.6-82.7
				c20.8-14.5,38.7-40.1,49.2-57.1c6.5-10.5,9.4-22.9,8.4-35.2c0,0-31.6,47.9-63.4,69.1C850.7,559.6,729.7,626.3,670.4,625.7z"/>
			<path class="st4" d="M118.8,564.4c0,0,125.1,8.4,249.5-42.3L264,379.7c-4.3-5.9-12.4-7.4-18.5-3.4l-8.8,4.1
				c-36.1,16.9-69.5,39-99.2,65.5l0,0c-5.6,3.6-9.2,9.6-9.8,16.3L118.8,564.4z"/>
			<path class="st4" d="M270.3,373.3l119.9,139.6c0,0,212.5-62.8,255.8-133.1l-158.3-81.5c-15.7-8.1-34-9.7-50.8-4.4
				c-41.7,13.1-123.5,38.1-164.4,64.1C267.3,361.4,266.2,368.6,270.3,373.3z"/>
			<path class="st5" d="M315.3,336.4l7.3,98.1l28.1,32.8l-24.3-135.5C322.7,333.3,319,334.9,315.3,336.4z"/>
			<path class="st5" d="M337.4,327.5l24.5,152.7L390,513c0,0,1.3-0.4,3.6-1.1l-41.3-190C347.3,323.8,342.3,325.6,337.4,327.5z"/>
			<path class="st5" d="M377.5,313.1c-4.6,1.5-9.2,3.1-13.8,4.8c9.1,43.7,29.3,145.5,38.4,191.4c6.4-2,15.1-4.9,25.4-8.4
				L377.5,313.1z"/>
			
				<ellipse transform="matrix(0.8581 -0.5135 0.5135 0.8581 -241.2517 384.8666)" class="st6" cx="575.8" cy="629" rx="72.1" ry="85.1"/>
			
				<ellipse transform="matrix(0.8581 -0.5135 0.5135 0.8581 -241.2517 384.8666)" class="st7" cx="575.8" cy="629" rx="37" ry="43.7"/>
			
				<ellipse transform="matrix(0.8581 -0.5135 0.5135 0.8581 -241.2517 384.8666)" class="st8" cx="575.8" cy="629" rx="17.1" ry="20.2"/>
			<g>
				<path class="st2" d="M452.1,503.2c0,0,127.8-35.9,193.3-29.6"/>
				<path class="st9" d="M452.1,503.2c15.8-4.4,31.6-8.3,47.6-12c15.9-3.7,32-7,48.1-9.9c8.1-1.4,16.1-2.8,24.2-4
					c8.1-1.2,16.2-2.2,24.4-3c8.1-0.8,16.3-1.4,24.5-1.7c8.2-0.3,16.4-0.2,24.6,0.6l-0.1,0.7c-8.1-0.8-16.3-0.9-24.5-0.7
					c-8.2,0.2-16.3,0.8-24.5,1.6c-8.1,0.8-16.3,1.8-24.3,2.9c-8.1,1.2-16.2,2.5-24.2,3.9c-16.1,2.8-32.1,6.1-48.1,9.7
					C483.8,495,467.9,498.9,452.1,503.2z"/>
			</g>
			
				<ellipse transform="matrix(0.4708 -0.8822 0.8822 0.4708 143.0038 985.8908)" class="st10" cx="893.4" cy="373.7" rx="19.8" ry="26.3"/>
			
				<ellipse transform="matrix(0.4708 -0.8822 0.8822 0.4708 135.7339 986.9726)" class="st11" cx="890.6" cy="380.3" rx="10.5" ry="14"/>
			<g>
				<path class="st2" d="M650.3,386.6c0,0,141.8-16.1,197.1,0.3c7.2,2.1,9,11.6,3,16.1c-27.5,20.9-99,71.2-178,94"/>
				<path class="st9" d="M650.3,386.6c34.8-3.8,69.8-6.4,104.9-7.1c8.8-0.2,17.5-0.2,26.3-0.1c8.8,0.1,17.5,0.4,26.3,1.1
					c8.7,0.6,17.5,1.5,26.1,3c4.3,0.7,8.6,1.7,12.9,2.9l0.8,0.2l0.8,0.3c0.5,0.2,1,0.5,1.5,0.7c0.5,0.3,0.9,0.7,1.4,1
					c0.4,0.4,0.8,0.8,1.2,1.3c0.7,0.9,1.2,1.9,1.6,3c0.3,1.1,0.5,2.2,0.4,3.4c-0.1,2.3-1.1,4.5-2.7,6.1c-0.4,0.4-0.8,0.8-1.3,1.1
					l-1.3,1l-2.6,2c-1.7,1.3-3.5,2.6-5.3,3.9c-1.8,1.3-3.5,2.6-5.3,3.8c-7.1,5.1-14.4,10-21.7,14.9c-14.6,9.6-29.7,18.7-45,27.1
					c-15.4,8.4-31.1,16.2-47.2,23.1c-16.1,6.9-32.6,12.9-49.5,17.8c16.8-5,33.2-11.1,49.3-18.1c16.1-7,31.8-14.7,47.1-23.2
					c15.3-8.5,30.3-17.6,44.9-27.2c7.3-4.9,14.5-9.8,21.6-14.9c1.8-1.3,3.6-2.6,5.3-3.9c1.8-1.3,3.5-2.6,5.3-3.9l2.6-2l1.3-1
					c0.4-0.3,0.8-0.7,1.2-1c1.4-1.5,2.4-3.5,2.5-5.7c0.1-1.1-0.1-2.1-0.4-3.1c-0.3-1-0.8-2-1.4-2.8c-0.3-0.4-0.7-0.8-1.1-1.2
					c-0.4-0.3-0.8-0.7-1.3-0.9c-0.5-0.2-0.9-0.5-1.4-0.7l-0.7-0.3l-0.8-0.2c-4.2-1.2-8.5-2.1-12.8-2.9c-8.6-1.5-17.3-2.4-26.1-3.1
					c-8.7-0.7-17.5-0.9-26.2-1.1c-8.8-0.2-17.5-0.1-26.3,0c-17.5,0.3-35,1.1-52.5,2.3C685.2,383.4,667.8,384.8,650.3,386.6z"/>
			</g>
			<path class="st0" d="M307,530.8c-2.1-7.3,1.2-15.1,7.8-18.9c14.4-8.3,41.5-21.8,59.8-18.7c25.9,4.5,24.1,32.1,19.8,37.8
				c-4.4,5.7-65.1,19.4-77.1,14.1C311.7,542.7,308.6,536.6,307,530.8z"/>
			<path class="st0" d="M414.8,523.2l-36.7-6.5c-3.5-0.6-6.8,1.7-7.4,5.2l0,0c-0.4,2.6,0.8,5.3,3.2,6.6l25.6,14.2"/>
			
				<ellipse transform="matrix(0.4708 -0.8822 0.8822 0.4708 -100.6914 830.8768)" class="st10" cx="642.3" cy="499.4" rx="26.2" ry="33.4"/>
			
				<ellipse transform="matrix(0.4708 -0.8822 0.8822 0.4708 -107.2302 830.4279)" class="st11" cx="638.6" cy="504.6" rx="15.4" ry="19.6"/>
			<path class="st12" d="M656.9,590.5c0,0,212.9-51,283.1-164c0,0,5.8,0.4,6.3,9.3c0.5,8.8-91.9,131.7-284.9,164.5L656.9,590.5z"/>
			<path class="st13" d="M623.5,382.7c0,0-75.3,73.8-171.2,98.3c0,0,85-12.2,175.6-93.2L623.5,382.7z"/>
			<path class="st14" d="M118.8,564.4l-11.6,23c-1.9,3.7-1.9,8,0,11.7l5.5,11"/>
			<line class="st15" x1="380" y1="538.5" x2="449.3" y2="674.9"/>
			<polyline class="st14" points="300.6,698.1 240.4,585 242.6,557.3 			"/>
			<path class="st16" d="M645.4,572.2c0,0,220-59.9,285.2-167.3"/>
			<path d="M743.1,527.1l-4.7-31.7c-0.9-6,2.2-12,7.7-14.7c22.6-11.2,81.2-41.8,110-71.9c4-4.1,9.9-5.6,15.3-3.6
				c5,1.9,11.7,3.9,18.5,4.6c8.4,0.9,15.7,5.9,19.9,13.2c0.2,0.3,0.3,0.6,0.5,0.8c4.2,7.4,3.6,16.7-1.6,23.4
				c-15.9,20.5-60,67.3-145,92.9C754.2,543,744.5,536.8,743.1,527.1z"/>
			<path class="st12" d="M679.7,550.1c10.2-2.7,30-8,41.3-11.5c3.6-1.1,7.3,0.9,8.4,4.5v0c0.9,3.2-0.7,6.5-3.7,7.9
				c-8.6,3.8-26.3,11.3-41,16c-3.6,1.2-7.4-0.9-8.4-4.5l-1.2-4.2C674.1,554.8,676.2,551,679.7,550.1z"/>
			<path class="st12" d="M925,405.1l-5.8,9.5c-0.6,1-0.7,2.3-0.1,3.4l2,3.6c1,1.7,3.2,2.2,4.8,1.1l7.5-5.1c1.2-0.8,1.8-2.4,1.3-3.8
				c-0.7-2.3-2.1-5.7-4.1-8.9C929.3,402.9,926.3,403,925,405.1z"/>
			<path class="st17" d="M112.8,594.7c-0.5-1,0.1-2.1,1.2-2.1c22.3-0.1,194.7-3.1,385.4-69.8c0,0,67.3-22.8,101.4-8.1
				c1.4,0.6,1,2.7-0.6,2.8c-15.6,0.1-58.3,2.2-80.2,20.6c-27,22.5-63.4,55.8-34.4,126.6c0.4,0.9-0.2,1.8-1.1,2l-238.9,35.9
				c-0.9,0.1-1.6-0.5-1.6-1.4c-0.1-10.3-2.3-66.1-37.9-85.2c-38.7-20.8-62.2-19.6-87.9-13.9c-0.6,0.1-1.2-0.1-1.6-0.7L112.8,594.7z"
				/>
			<path class="st18" d="M89.9,630.2c0,0-15,30.2-4.7,63.1c10.2,32.9,26.2,30.3,26.2,30.3s1.8-83.8,33.4-74.8
				c31.6,9.1,56.6,49.5,56,64.1s5.7,22.4,11.7,20.6c6-1.8,26.4-3.1,24.5-30.2c-1.9-27-17.8-91.4-71.7-97.8
				C111.4,599,89.9,630.2,89.9,630.2z"/>
			
				<ellipse transform="matrix(0.8581 -0.5135 0.5135 0.8581 -335.9099 176.2329)" class="st6" cx="150.9" cy="695.9" rx="58.9" ry="69.5"/>
			
				<ellipse transform="matrix(0.8581 -0.5135 0.5135 0.8581 -335.9099 176.2329)" class="st7" cx="150.9" cy="695.9" rx="37.5" ry="44.3"/>
			
				<ellipse transform="matrix(0.8581 -0.5135 0.5135 0.8581 -335.9099 176.2329)" class="st8" cx="150.9" cy="695.9" rx="12.9" ry="15.2"/>
			<path class="st19" d="M172.7,418.2c0,0,57.2,132.6,72.6,138.5"/>
			<path class="st20" d="M672.7,392.7c0,0,162.9-6.5,169.2,2.6s-90.4,58.1-90.4,58.1s64.4-42.3,51.9-49
				C791,397.7,672.7,392.7,672.7,392.7z"/>
			<path class="st7" d="M121.5,586l17.3,0.8c0.7,0,1.3-0.4,1.5-1l1.1-2.8l-19.5-1.7c-0.8-0.1-1.6,0.6-1.6,1.4l-0.1,1.7
				C120,585.2,120.7,586,121.5,586z"/>
			<path class="st7" d="M252.2,578.5l16.9-3.4c0.6-0.1,1.1-0.7,1.2-1.3l0.4-3l-19.3,3.1c-0.8,0.1-1.4,0.9-1.3,1.8l0.3,1.7
				C250.6,578.1,251.4,578.7,252.2,578.5z"/>
			<path d="M725,615l-5.2,19.1c0,0,41.7-11.9,46.5-17.2s4.8-19.4,4.8-19.4S730.1,614.2,725,615z"/>
			<path d="M943.1,474.3L941,493c0,0-7.8,15.5-10.3,16.8c-2.5,1.3-3-16.2-3-16.2L943.1,474.3z"/>
		</g>
		<path class="st21" d="M107.2,726.9c-19.3-32.2-12.8-71.5,14.5-87.8c12.6-7.5,27.3-8.8,41.5-4.9c-16.5-7-34.5-6.8-49.5,2.1
			c-27.3,16.3-33.7,55.6-14.5,87.8c10.4,17.3,26.1,29.1,42.7,33.7C128.3,752,115.9,741.4,107.2,726.9z"/>
		<path class="st21" d="M522.5,667.9c-24-40.1-15.9-89,18-109.3c15.6-9.4,34-11,51.7-6.1c-20.5-8.7-43-8.5-61.6,2.6
			c-33.9,20.3-42,69.2-18,109.3c12.9,21.6,32.5,36.2,53.1,41.9C548.8,699.1,533.3,686,522.5,667.9z"/>
		<path class="st17" d="M411,513.7c0,0,34.9-3.7,46.2-5.9l1,3.7c0,0-43.8,6.2-46.6,4.7C408.8,514.8,411,513.7,411,513.7z"/>
	</g>
</g>
</svg>
