
<svg xmlns="http://www.w3.org/2000/svg" version="1.1" xmlns:xlink="http://www.w3.org/1999/xlink" preserveAspectRatio="none" x="0px" y="0px" width="1024px" height="1024px" viewBox="0 0 1024 1024">
<defs>
<g id="Layer0_0_MEMBER_0_FILL">
<path fill="#22323F" stroke="none" d="
M 55.4 315
Q 51.8 324.3 59.5 329.65 65.6 333.85 77.6 334.95 89.35 336.05 121.6 335.8 151.65 335.6 163.15 334.65 172.75 333.9 173.3 333.85 180.15 333.15 186.25 331.85 187.05 331.6 187.1 326.35 187.2 320.8 186 318.2 156.9 318.55 126.05 318.35 64.3 317.9 55.4 315 Z"/>
</g>

<g id="Layer0_0_MEMBER_1_FILL">
<path fill="#C9E28E" stroke="none" d="
M 140.15 283.2
Q 134.65 279.9 129.2 282.85 125 285.15 108.65 294.9 93 303.9 86.75 305.75 83.7 306.65 77.5 307.35 67.7 308.4 67.2 308.5 55.3 310.2 55.1 315.1 54.85 321.45 56.85 323.65 59.05 326.1 66.25 326.55 76.2 327.15 133.4 325.65
L 186.7 319.9
Q 189.3 314.45 187.4 302.45 185.55 290.85 181.6 285 178.15 279.95 174.3 282.4 171.25 284.3 169.25 289.5 167.35 294.45 163.25 295.85 158.1 297.65 151.8 292.5 151.35 292.15 145.5 287.2 142.2 284.4 140.15 283.2 Z"/>
</g>

<g id="Layer0_0_MEMBER_2_MEMBER_0_MEMBER_0_FILL">
<path fill="#FFFFFF" stroke="none" d="
M 147.6 321.55
L 152.95 318.35 125.75 294.65
Q 123.2 296.8 120.95 298.3
L 147.6 321.55 Z"/>
</g>

<g id="Layer0_0_MEMBER_2_MEMBER_1_MEMBER_0_FILL">
<path fill="#FFFFFF" stroke="none" d="
M 133.65 288.1
Q 131.2 289.7 128.85 291.8
L 156.6 316 161.7 312.55 133.65 288.1 Z"/>
</g>

<g id="Layer0_0_MEMBER_2_MEMBER_2_MEMBER_0_FILL">
<path fill="#FFFFFF" stroke="none" d="
M 121.85 325.95
L 130.6 325.7 106.7 304.85
Q 102.65 306.6 100.6 307.4
L 121.85 325.95 Z"/>
</g>

<g id="Layer0_0_MEMBER_2_MEMBER_3_MEMBER_0_FILL">
<path fill="#FFFFFF" stroke="none" d="
M 136.15 325
Q 138.05 324.2 141.65 321.95
L 117.1 300.55
Q 116.15 301.05 114.05 301.95
L 111.1 303.2 136.15 325 Z"/>
</g>

<g id="Layer0_0_MEMBER_3_FILL">
<path fill="#F2654E" stroke="none" d="
M 150.85 315.5
Q 145.35 319.5 133.3 325.65 150.1 325 170.1 322.4 180.1 321.1 186.7 319.9 189.3 314.45 187.4 302.45 185.55 290.85 181.6 285
L 181.45 284.8
Q 178.3 283.4 175.35 286.6 173.85 288.25 172.3 290.95 171.4 292.55 169.75 295.7 164.15 305.85 150.85 315.5 Z"/>
</g>

<g id="Layer0_0_MEMBER_4_FILL">
<path fill="#C9E28E" stroke="none" d="
M 184.1 289.9
Q 181.95 286 180.75 288.8 179.95 290.65 178.05 298.7 172.75 318.2 160.05 323.6 175.4 321.9 186.7 319.9 188.85 315.45 187.9 306 187 297.15 184.1 289.9 Z"/>
</g>

<g id="Layer0_0_MEMBER_5_FILL">
<path fill="#F2654E" stroke="none" d="
M 144.75 286.55
Q 140 282.7 137.1 281.8 103.4 303 100.25 303.85 98 304.45 94.65 302.45 90.65 304.45 87.8 305.4 90.35 307.9 96.6 310.7 100.55 312.5 119.3 302.3 134.75 293.85 144.75 286.55 Z"/>
</g>

<g id="Layer0_0_MEMBER_6_FILL">
<path fill="#474747" stroke="none" d="
M 133.75 287.35
Q 133.25 288.15 133.6 288.75 133.95 289.35 134.9 289.4 135.85 289.4 136.8 288.85 137.8 288.3 138.3 287.45 138.75 286.65 138.4 286.05 138.05 285.45 137.1 285.4 136.2 285.4 135.2 285.95 134.2 286.5 133.75 287.35 Z"/>
</g>

<g id="Layer0_0_MEMBER_7_FILL">
<path fill="#474747" stroke="none" d="
M 126.15 291.95
Q 125.75 292.65 126.05 293.15 126.3 293.65 127.15 293.7 127.95 293.75 128.8 293.3 129.65 292.85 130.1 292.15 130.5 291.45 130.2 290.95 129.95 290.45 129.15 290.4 128.3 290.35 127.45 290.8 126.6 291.25 126.15 291.95 Z"/>
</g>

<g id="Layer0_0_MEMBER_8_FILL">
<path fill="#474747" stroke="none" d="
M 120.35 295.1
Q 119.5 295.55 119.05 296.25 118.65 296.95 118.95 297.45 119.2 298 120.05 298.05 120.85 298.1 121.7 297.65 122.55 297.15 122.95 296.45 123.35 295.8 123.1 295.25 122.85 294.75 122.05 294.7 121.2 294.65 120.35 295.1 Z"/>
</g>

<g id="Layer0_0_MEMBER_9_FILL">
<path fill="#474747" stroke="none" d="
M 111.7 300.4
Q 111.3 301.05 111.55 301.6 111.8 302.1 112.65 302.15 113.45 302.2 114.3 301.75 115.15 301.3 115.6 300.6 116 299.95 115.75 299.4 115.45 298.9 114.65 298.85 113.85 298.8 113 299.25 112.1 299.7 111.7 300.4 Z"/>
</g>

<g id="Layer0_0_MEMBER_10_FILL">
<path fill="#474747" stroke="none" d="
M 103.7 304.4
Q 103.25 305.1 103.5 305.6 103.75 306.15 104.55 306.25 105.35 306.35 106.25 305.95 107.1 305.55 107.55 304.9 108 304.2 107.8 303.65 107.55 303.1 106.75 303.05 105.95 302.95 105.05 303.35 104.15 303.75 103.7 304.4 Z"/>
</g>

<g id="Layer0_0_MEMBER_11_FILL">
<path fill="#5D5D5D" stroke="none" d="
M 123.7 283.45
Q 123.35 283.6 122.45 284.2 121.6 284.8 121.5 284.95 121.2 285.35 121.55 285.95
L 126 292.3
Q 126.4 292.95 127.2 293.1 127.95 293.25 128.6 292.85 129.25 292.4 129.4 291.6 129.55 290.85 129.1 290.2
L 124.7 283.8
Q 124.35 283.25 123.7 283.45 Z"/>
</g>

<g id="Layer0_0_MEMBER_12_FILL">
<path fill="#5D5D5D" stroke="none" d="
M 131.5 278.7
Q 131.2 278.8 130.25 279.45 129.4 280.05 129.3 280.2 129 280.6 129.4 281.2
L 133.8 287.55
Q 134.25 288.2 135 288.35 135.75 288.5 136.45 288.1 137.1 287.65 137.25 286.85 137.4 286.1 136.95 285.45
L 132.55 279.05
Q 132.15 278.5 131.5 278.7 Z"/>
</g>

<g id="Layer0_0_MEMBER_13_FILL">
<path fill="#5D5D5D" stroke="none" d="
M 116.8 287.6
Q 116.5 287.7 115.5 288.3 114.65 288.85 114.5 289 114.2 289.4 114.55 290
L 118.7 296.55
Q 119.1 297.2 119.85 297.4 120.6 297.55 121.3 297.15 121.95 296.75 122.15 296 122.35 295.25 121.95 294.55
L 117.75 288
Q 117.4 287.4 116.8 287.6 Z"/>
</g>

<g id="Layer0_0_MEMBER_14_FILL">
<path fill="#5D5D5D" stroke="none" d="
M 109.85 291.95
Q 109.55 292.05 108.55 292.65 107.7 293.2 107.55 293.35 107.25 293.75 107.6 294.35
L 111.3 300.6
Q 111.7 301.25 112.5 301.45 113.25 301.6 113.9 301.2 114.6 300.8 114.75 300.05 114.95 299.25 114.55 298.6
L 110.85 292.35
Q 110.5 291.75 109.85 291.95 Z"/>
</g>

<g id="Layer0_0_MEMBER_15_FILL">
<path fill="#5D5D5D" stroke="none" d="
M 106.55 302.85
L 103.2 297
Q 102.85 296.4 102.2 296.6 101.9 296.7 100.9 297.3 100.05 297.85 99.9 298 99.6 298.4 99.95 299
L 103.3 304.8
Q 103.7 305.5 104.5 305.65 105.25 305.85 105.9 305.45 106.6 305.05 106.75 304.25 106.95 303.5 106.55 302.85 Z"/>
</g>
</defs>

<g transform="matrix( 6.79998779296875, 0, 0, 6.79998779296875, -312.3,-1577.25) ">
<use xlink:href="#Layer0_0_MEMBER_0_FILL"/>
</g>

<g transform="matrix( 6.79998779296875, 0, 0, 6.79998779296875, -312.3,-1577.25) ">
<use xlink:href="#Layer0_0_MEMBER_1_FILL"/>
</g>

<g transform="matrix( 6.79998779296875, 0, 0, 6.79998779296875, -312.3,-1577.25) ">
<use xlink:href="#Layer0_0_MEMBER_2_MEMBER_0_MEMBER_0_FILL"/>
</g>

<g transform="matrix( 6.79998779296875, 0, 0, 6.79998779296875, -312.3,-1577.25) ">
<use xlink:href="#Layer0_0_MEMBER_2_MEMBER_1_MEMBER_0_FILL"/>
</g>

<g transform="matrix( 6.79998779296875, 0, 0, 6.79998779296875, -312.3,-1577.25) ">
<use xlink:href="#Layer0_0_MEMBER_2_MEMBER_2_MEMBER_0_FILL"/>
</g>

<g transform="matrix( 6.79998779296875, 0, 0, 6.79998779296875, -312.3,-1577.25) ">
<use xlink:href="#Layer0_0_MEMBER_2_MEMBER_3_MEMBER_0_FILL"/>
</g>

<g transform="matrix( 6.79998779296875, 0, 0, 6.79998779296875, -312.3,-1577.25) ">
<use xlink:href="#Layer0_0_MEMBER_3_FILL"/>
</g>

<g transform="matrix( 6.79998779296875, 0, 0, 6.79998779296875, -312.3,-1577.25) ">
<use xlink:href="#Layer0_0_MEMBER_4_FILL"/>
</g>

<g transform="matrix( 6.79998779296875, 0, 0, 6.79998779296875, -312.3,-1577.25) ">
<use xlink:href="#Layer0_0_MEMBER_5_FILL"/>
</g>

<g transform="matrix( 6.79998779296875, 0, 0, 6.79998779296875, -312.3,-1577.25) ">
<use xlink:href="#Layer0_0_MEMBER_6_FILL"/>
</g>

<g transform="matrix( 6.79998779296875, 0, 0, 6.79998779296875, -312.3,-1577.25) ">
<use xlink:href="#Layer0_0_MEMBER_7_FILL"/>
</g>

<g transform="matrix( 6.79998779296875, 0, 0, 6.79998779296875, -312.3,-1577.25) ">
<use xlink:href="#Layer0_0_MEMBER_8_FILL"/>
</g>

<g transform="matrix( 6.79998779296875, 0, 0, 6.79998779296875, -312.3,-1577.25) ">
<use xlink:href="#Layer0_0_MEMBER_9_FILL"/>
</g>

<g transform="matrix( 6.79998779296875, 0, 0, 6.79998779296875, -312.3,-1577.25) ">
<use xlink:href="#Layer0_0_MEMBER_10_FILL"/>
</g>

<g transform="matrix( 6.79998779296875, 0, 0, 6.79998779296875, -312.3,-1577.25) ">
<use xlink:href="#Layer0_0_MEMBER_11_FILL"/>
</g>

<g transform="matrix( 6.79998779296875, 0, 0, 6.79998779296875, -312.3,-1577.25) ">
<use xlink:href="#Layer0_0_MEMBER_12_FILL"/>
</g>

<g transform="matrix( 6.79998779296875, 0, 0, 6.79998779296875, -312.3,-1577.25) ">
<use xlink:href="#Layer0_0_MEMBER_13_FILL"/>
</g>

<g transform="matrix( 6.79998779296875, 0, 0, 6.79998779296875, -312.3,-1577.25) ">
<use xlink:href="#Layer0_0_MEMBER_14_FILL"/>
</g>

<g transform="matrix( 6.79998779296875, 0, 0, 6.79998779296875, -312.3,-1577.25) ">
<use xlink:href="#Layer0_0_MEMBER_15_FILL"/>
</g>
</svg>
