<?xml version="1.0" encoding="utf-8"?>
<!-- Generator: Adobe Illustrator 22.0.0, SVG Export Plug-In . SVG Version: 6.00 Build 0)  -->
<svg version="1.1" id="图层_1" xmlns="http://www.w3.org/2000/svg" xmlns:xlink="http://www.w3.org/1999/xlink" x="0px" y="0px"
	 viewBox="0 0 750 1125" style="enable-background:new 0 0 750 1125;" xml:space="preserve">
<style type="text/css">
	.st0{fill:#E91884;}
	.st1{fill:#40215A;}
	.st2{fill:#FF95E7;}
	.st3{fill:#40175A;}
	.st4{fill:#FFFFFF;}
	.st5{fill:#FFCD20;}
	.st6{fill:#C9C5C4;}
	.st7{fill:#A4AAA6;}
	.st8{fill:#FCDA43;}
	.st9{fill:#402159;}
	.st10{fill-rule:evenodd;clip-rule:evenodd;fill:#FFFFFF;}
	.st11{fill:#FBD4C1;}
	.st12{fill-rule:evenodd;clip-rule:evenodd;fill:#402159;}
	.st13{fill:#FE3561;}
	.st14{clip-path:url(#SVGID_2_);}
	.st15{fill:#F1C984;}
	.st16{fill:none;}
	.st17{fill:#19D7E7;}
	.st18{clip-path:url(#SVGID_4_);}
	.st19{fill:#FFD236;}
	.st20{clip-path:url(#SVGID_6_);}
	.st21{clip-path:url(#SVGID_8_);}
	.st22{fill:#0082FF;}
	.st23{fill:#FF771D;}
	.st24{clip-path:url(#SVGID_10_);}
	.st25{fill:#3E185B;}
	.st26{fill:#40175B;}
	.st27{fill:#446493;}
	.st28{clip-path:url(#SVGID_12_);}
	.st29{clip-path:url(#SVGID_14_);}
	.st30{clip-path:url(#SVGID_16_);}
	.st31{clip-path:url(#SVGID_18_);}
	.st32{clip-path:url(#SVGID_20_);}
	.st33{clip-path:url(#SVGID_22_);}
	.st34{clip-path:url(#SVGID_24_);}
	.st35{clip-path:url(#SVGID_26_);}
	.st36{fill:#14E3C5;}
	.st37{fill:#FF7193;}
	.st38{clip-path:url(#SVGID_28_);}
	.st39{fill:#FF781E;}
	.st40{clip-path:url(#SVGID_30_);}
	.st41{clip-path:url(#SVGID_32_);}
	.st42{fill:#FFFF47;}
	.st43{fill-rule:evenodd;clip-rule:evenodd;fill:#A19F9E;}
	.st44{fill:#A19F9E;}
	.st45{fill-rule:evenodd;clip-rule:evenodd;fill:#FFFF47;}
	.st46{clip-path:url(#SVGID_34_);}
	.st47{clip-path:url(#SVGID_36_);}
	.st48{clip-path:url(#SVGID_38_);}
	.st49{clip-path:url(#SVGID_40_);}
	.st50{fill:#0081FF;}
	.st51{clip-path:url(#SVGID_42_);}
	.st52{clip-path:url(#SVGID_44_);}
	.st53{clip-path:url(#SVGID_46_);}
	.st54{clip-path:url(#SVGID_48_);}
	.st55{clip-path:url(#SVGID_50_);}
	.st56{clip-path:url(#SVGID_52_);}
	.st57{clip-path:url(#SVGID_54_);}
	.st58{clip-path:url(#SVGID_56_);}
	.st59{clip-path:url(#SVGID_58_);}
	.st60{clip-path:url(#SVGID_60_);}
	.st61{clip-path:url(#SVGID_62_);}
	.st62{clip-path:url(#SVGID_64_);}
	.st63{clip-path:url(#SVGID_66_);}
	.st64{fill-rule:evenodd;clip-rule:evenodd;fill:#FFD236;}
	.st65{clip-path:url(#SVGID_68_);}
	.st66{clip-path:url(#SVGID_70_);}
	.st67{clip-path:url(#SVGID_72_);}
	.st68{clip-path:url(#SVGID_74_);}
	.st69{fill:#FF6D33;}
	.st70{clip-path:url(#SVGID_76_);}
	.st71{clip-path:url(#SVGID_78_);}
	.st72{clip-path:url(#SVGID_80_);}
	.st73{clip-path:url(#SVGID_82_);}
	.st74{clip-path:url(#SVGID_84_);}
	.st75{clip-path:url(#SVGID_86_);}
	.st76{clip-path:url(#SVGID_88_);}
	.st77{clip-path:url(#SVGID_90_);}
	.st78{clip-path:url(#SVGID_92_);}
	.st79{clip-path:url(#SVGID_94_);}
	.st80{clip-path:url(#SVGID_96_);}
	.st81{clip-path:url(#SVGID_98_);}
	.st82{clip-path:url(#SVGID_100_);}
	.st83{clip-path:url(#SVGID_102_);}
	.st84{clip-path:url(#SVGID_104_);}
	.st85{clip-path:url(#SVGID_106_);}
	.st86{clip-path:url(#SVGID_108_);}
	.st87{fill:#E91884;stroke:#40175A;stroke-width:5;stroke-linecap:round;stroke-linejoin:round;stroke-miterlimit:10;}
	.st88{fill:#BAFF00;}
	.st89{clip-path:url(#SVGID_110_);}
	.st90{clip-path:url(#SVGID_112_);}
	.st91{fill:#FF8500;}
	.st92{fill:#1CBDFF;}
	.st93{clip-path:url(#SVGID_116_);}
	.st94{clip-path:url(#SVGID_118_);}
</style>
<g>
	<g>
		<path class="st9" d="M488.8,487.3c-4.1-6.9-9.7-13-17.6-17.2c-3.9-8.2-9.4-15.7-16.7-21c-7.7-5.5-20.3-10.4-37.9-4.2
			c-0.8-1.1-1.7-2.8-2-5.2c-1-6.9,1.4-27.5,44.3-70.1l6.7-6.7L321.3,251.5l-5.1,4c-21.7,16.9-59.5,60.9-63.2,118.8
			c-3.2,50.6,19.1,101.4,66.3,151.1c-11.3,11.6-22.9,24.5-35.2,39.2c-20.5,24.5-43.8,52.3-53.9,84.5c-3.5,11.1-4.4,24.5-2.8,39.9
			l-0.1,0c-9.4,32.5-6.1,66.2,8.7,93.4l-0.1,0c18.8,58.6,58.7,91.1,110.8,91.1c4.9,0,10-0.3,15.1-0.9
			c56.1-6.4,99.9-39.1,144.3-181.7C548.6,554.4,521.8,504.5,488.8,487.3z M258.6,786.6c-11.4-14.7-18.1-32.9-19.6-52.2
			c11.2,22.2,30.3,35.4,55.1,37.5c3.8,16.1,16.6,37.6,46.8,37.6c0.5,0,1.1,0,1.6,0c17.6-0.4,30.4-6.2,38.3-17
			c8.2-11.4,10.1-27.4,5.4-46.5c15.1-12.5,59.8-56.2,51.6-129.9c7-15.4,39-86.2,40.9-107.7c0.1-0.7,0.1-1.4,0.1-2.1
			c2.9,9.9,3.8,21.6,4.3,33.4c3.6,86.9-36.6,172.4-60.8,215.7c-26.2,46.8-61,58.8-85.6,60.6C302.5,818.6,271.5,803.2,258.6,786.6z
			 M246.1,654c9.1-29,31.3-55.5,50.8-78.8c14.1-16.8,27.2-31.2,40-43.9l5.9-5.9l-5.9-5.9c-47.7-48-70.3-96.6-67.3-144.2
			c3.5-53.9,38.8-90.6,52-102.6l118.8,91.7c-31.5,32.7-45.7,59.2-42.2,78.6c2.4,13.5,12.3,18.4,13.4,18.9l3.4,1.6l3.4-1.5
			c10.5-4.7,19.1-4.5,26.3,0.6c12.9,9.2,18.5,32.1,17.4,44.4c-1.3,15.1-24.9,70.6-40.4,104.3l-1,2.2l0.3,2.4
			c9.7,77.9-46.7,118.6-49.1,120.2l-4.9,3.4l1.7,5.8c4.9,16.2,4.4,29.5-1.4,37.5c-4.6,6.4-13.1,9.8-25.2,10.1c-0.4,0-0.8,0-1.1,0
			c-28.1,0-31.2-26.6-31.4-29.6l-0.6-7.7h-7.7c-37.6,0-49.8-29.4-53.8-47C242.3,685.9,241.8,667.5,246.1,654z M490.2,685.9
			C444,834.6,402.2,851.2,360,856c-36.9,4.2-67.1-8.9-87.9-37.5C287.5,827,307.2,833,329,833c3,0,6-0.1,9-0.3
			c28.6-2.2,69-15.9,98.9-69.1c25.1-44.8,66.7-133.5,63-224.5c-0.3-6.4-0.6-14-1.7-21.9C518.5,546,515.9,603.4,490.2,685.9z"/>
	</g>
	<g>
		<path class="st4" d="M258.3,786.6c-11.4-14.7-18.1-32.9-19.6-52.2c11.2,22.2,30.3,35.4,55.1,37.5c3.8,16.1,16.6,37.6,46.8,37.6
			c0.5,0,1.1,0,1.6,0c17.6-0.4,30.4-6.2,38.3-17c8.2-11.4,10.1-27.4,5.4-46.5c15.1-12.5,59.8-56.2,51.6-129.9
			c7-15.4,39-86.2,40.9-107.7c0.1-0.7,0.1-1.4,0.1-2.1c2.9,9.9,3.8,21.6,4.3,33.4c3.6,86.9-36.6,172.4-60.8,215.7
			c-26.2,46.8-61,58.8-85.6,60.6C302.2,818.6,271.2,803.2,258.3,786.6z"/>
	</g>
	<g>
		<path class="st11" d="M245.7,654c9.1-29,31.3-55.5,50.8-78.8c14.1-16.8,27.2-31.2,40-43.9l5.9-5.9l-5.9-5.9
			c-47.7-48-70.3-96.6-67.3-144.2c3.5-53.9,38.8-90.6,52-102.6l118.8,91.7c-31.5,32.7-45.7,59.2-42.2,78.6
			c2.4,13.5,12.3,18.4,13.4,18.9l3.4,1.6l3.4-1.5c10.5-4.7,19.1-4.5,26.3,0.6c12.9,9.2,18.5,32.1,17.4,44.4
			c-1.3,15.1-24.9,70.6-40.4,104.3l-1,2.2l0.3,2.4c9.7,77.9-46.7,118.6-49.1,120.2l-4.9,3.4l1.7,5.8c4.9,16.2,4.4,29.5-1.4,37.5
			c-4.6,6.4-13.1,9.8-25.2,10.1c-0.4,0-0.8,0-1.1,0c-28.1,0-31.2-26.6-31.4-29.6l-0.6-7.7h-7.7c-37.6,0-49.8-29.4-53.8-47
			C242,685.9,241.5,667.5,245.7,654z"/>
	</g>
	<g>
		<path class="st44" d="M489.9,685.9c-46.3,148.6-88,165.3-130.3,170.1c-36.9,4.2-67.1-8.9-87.9-37.5c15.5,8.5,35.1,14.5,56.9,14.5
			c3,0,6-0.1,9-0.3c28.6-2.2,69-15.9,98.9-69.1c25.1-44.8,66.7-133.5,63-224.5c-0.3-6.4-0.6-14-1.7-21.9
			C518.1,546,515.6,603.4,489.9,685.9z"/>
	</g>
	<g>
		<g>
			<path class="st9" d="M337.4,722.7c-0.8,0-1.6-0.1-2.3-0.2c-23.5-3.8-51.4-70.9-53.8-90.8c-0.5-3.9-1.6-8.7-2.9-14.3
				c-5.8-25.1-15.6-67.2,26.7-90.8c4.9-2.7,10.6-2.2,14.9,1.2c4.3,3.4,6.1,9.1,4.6,14.4c-8.7,30.4,2.1,61,12.6,90.6l1,2.8
				c0.4,1,0.9,1.9,1.4,2.6l0,0c0.6,0.7,0.8,0.7,0.9,0.7c0.9,0,3.3-2.5,4.1-3.3c21.8-22.3,53.4-35.2,91.6-37.3
				c14.4-0.8,29.5-0.2,44.7,1.9c0.5,0.1,2.3,0.4,8.5,1.5l1.6,0.3c3.6,0.7,6.6,2.8,8.4,6c1.8,3.2,2.1,6.9,0.8,10.3l-18,48.3l-4.5-0.7
				c-38.7-6.2-91,0.4-122.3,5.6c3.4,14.4,2.2,27.9-3.7,40.2C347.5,720.8,341.5,722.7,337.4,722.7z M311.7,535.9
				c-0.4,0-0.7,0.1-1.2,0.3c-35,19.5-27.1,53.6-21.3,78.6c1.3,5.7,2.5,11,3.1,15.5c2.7,21.9,30.5,79,44.6,81.2
				c0.7,0.1,2.5,0.4,4.8-4.5c5.4-11.5,5.9-24.3,1.4-38.2l-1.9-6.1l6.3-1.1c29.8-5.3,85.1-13,127.5-7.4l14.9-39.8
				c0.2-0.4,0-0.7-0.1-1c-0.1-0.2-0.3-0.5-0.8-0.6l-1.6-0.3c-3.8-0.7-7.4-1.4-8-1.5c-14.5-2-28.8-2.6-42.5-1.9
				c-35.3,2-64.4,13.7-84.2,34c-2.6,2.7-7,7.2-13.1,6.6c-3.2-0.3-6.1-1.9-8.3-4.6c-1.4-1.6-2.5-3.7-3.3-6l-1-2.8
				c-11.1-31.2-22.5-63.5-12.8-97.4c0.4-1.5-0.5-2.4-0.8-2.7C312.8,536.2,312.3,535.9,311.7,535.9z"/>
		</g>
		<g>
			<path class="st42" d="M311.7,535.9c-0.4,0-0.7,0.1-1.2,0.3c-35,19.5-27.1,53.6-21.3,78.6c1.3,5.7,2.5,11,3.1,15.5
				c2.7,21.9,30.5,79,44.6,81.2c0.7,0.1,2.5,0.4,4.8-4.5c5.4-11.5,5.9-24.3,1.4-38.2l-1.9-6.1l6.3-1.1c29.8-5.3,85.1-13,127.5-7.4
				l14.9-39.8c0.2-0.4,0-0.7-0.1-1c-0.1-0.2-0.3-0.5-0.8-0.6l-1.6-0.3c-3.8-0.7-7.4-1.4-8-1.5c-14.5-2-28.8-2.6-42.5-1.9
				c-35.3,2-64.4,13.7-84.2,34c-2.6,2.7-7,7.2-13.1,6.6c-3.2-0.3-6.1-1.9-8.3-4.6c-1.4-1.6-2.5-3.7-3.3-6l-1-2.8
				c-11.1-31.2-22.5-63.5-12.8-97.4c0.4-1.5-0.5-2.4-0.8-2.7C312.9,536.2,312.4,535.9,311.7,535.9z"/>
		</g>
	</g>
</g>
</svg>
