
<svg xmlns="http://www.w3.org/2000/svg" version="1.1" xmlns:xlink="http://www.w3.org/1999/xlink" preserveAspectRatio="none" x="0px" y="0px" width="1024px" height="1024px" viewBox="0 0 1024 1024">
<defs>
<linearGradient id="Gradient_1" gradientUnits="userSpaceOnUse" x1="407.325" y1="398.9" x2="498.97499999999997" y2="398.9" spreadMethod="pad">
<stop  offset="0%" stop-color="#C4C8D7"/>

<stop  offset="0.39215686274509803%" stop-color="#C0C5D5"/>

<stop  offset="0.7843137254901961%" stop-color="#B4B9CD"/>

<stop  offset="1.5686274509803921%" stop-color="#A1A7BF"/>

<stop  offset="1.5686274509803921%" stop-color="#A0A6BF"/>

<stop  offset="24.705882352941178%" stop-color="#A0A6BF"/>

<stop  offset="25.49019607843137%" stop-color="#ACB1C6"/>

<stop  offset="27.45098039215686%" stop-color="#BDC1D1"/>

<stop  offset="29.019607843137255%" stop-color="#C8CAD7"/>

<stop  offset="31.372549019607842%" stop-color="#CBCDD9"/>

<stop  offset="42.35294117647059%" stop-color="#D0D2DD"/>

<stop  offset="42.745098039215684%" stop-color="#D3D4DE"/>

<stop  offset="44.705882352941174%" stop-color="#E2E2E8"/>

<stop  offset="44.705882352941174%" stop-color="#E2E2E8" stop-opacity="0"/>

<stop  offset="100%" stop-color="#000000" stop-opacity="0"/>
</linearGradient>

<linearGradient id="Gradient_2" gradientUnits="userSpaceOnUse" x1="407.325" y1="398.9" x2="498.97499999999997" y2="398.9" spreadMethod="pad">
<stop  offset="0%" stop-color="#000000" stop-opacity="0"/>

<stop  offset="44.705882352941174%" stop-color="#E2E2E8" stop-opacity="0"/>

<stop  offset="44.705882352941174%" stop-color="#E2E2E8"/>

<stop  offset="46.27450980392157%" stop-color="#E8E7EC"/>

<stop  offset="94.11764705882354%" stop-color="#E8E7EC"/>

<stop  offset="98.03921568627452%" stop-color="#E8E7EC"/>

<stop  offset="99.2156862745098%" stop-color="#DDDEE6"/>

<stop  offset="100%" stop-color="#D0D3DF"/>
</linearGradient>

<g id="Layer0_0_MEMBER_0_FILL">
<path fill="#F5F2E8" stroke="none" d="
M 454.8 380
Q 450.65 379.85 447.9 381.4
L 397.5 410.5
Q 394.75 412.1 395.05 414.5 395.35 416.9 398.5 418.75
L 417.85 429.9 438.9 432.55
Q 446.45 433.45 450.2 431.3
L 483.05 412.2
Q 484.8 411.2 485.75 409.4 486.7 407.65 486.55 405.6
L 482.4 393.7 462.15 382
Q 459 380.2 454.8 380 Z"/>
</g>

<g id="Layer0_0_MEMBER_1_MEMBER_0_FILL">
<path fill="#F5F2E8" stroke="none" d="
M 504.4 418.25
Q 499.25 415.9 493.1 409.85 487.45 404.35 486.45 404.1
L 456.05 421.65 456.05 427.25
Q 458.05 430.25 462.45 432.65 465.1 434.1 471.5 437.25
L 504.4 418.25 Z"/>
</g>

<g id="Layer0_0_MEMBER_1_MEMBER_1_FILL">
<path fill="#41464F" stroke="none" d="
M 418.1 394.85
L 407.3 390.1 407.3 411.65
Q 407.2 414.4 410.75 416.45
L 426.75 425.7
Q 430.95 427.6 437.85 429 441.35 429.7 443.95 430 447.8 430.4 451 428.5
L 456.85 425.15 456.85 422.45 490.5 403.05 492.8 404.4 495.45 402.85
Q 497.05 401.9 498 400.3 498.95 398.65 498.95 396.8
L 498.95 382.1 494.65 373.1 485.8 380.55 470.55 371.7
Q 467.75 370.1 465.15 370.85 463.95 371.2 460.15 373.35
L 418.1 394.85 Z"/>
</g>

<g id="Layer0_0_MEMBER_1_MEMBER_2_MEMBER_0_FILL">
<path fill="url(#Gradient_1)" stroke="none" d="
M 418.1 393.4
L 407.3 388.7 407.3 410.45
Q 407.4 413.1 410.75 415.05
L 426.75 424.25
Q 430.95 426.15 437.85 427.55 441.35 428.25 443.95 428.6 447.8 429 451 427.1
L 456.85 423.7 456.85 422.45 490.5 403.05 491.6 403.65 495.45 401.45
Q 498.3 399.8 498.85 396.6
L 498.95 395.35 498.95 380.65 494.65 371.65 485.8 379.1 470.55 370.3
Q 467.75 368.7 465.15 369.45 464 369.75 460.15 371.9
L 418.1 393.4 Z"/>
</g>

<g id="Layer0_0_MEMBER_1_MEMBER_2_MEMBER_1_FILL">
<path fill="url(#Gradient_2)" stroke="none" d="
M 418.1 393.4
L 407.3 388.7 407.3 410.45
Q 407.4 413.1 410.75 415.05
L 426.75 424.25
Q 430.95 426.15 437.85 427.55 441.35 428.25 443.95 428.6 447.8 429 451 427.1
L 456.85 423.7 456.85 422.45 490.5 403.05 491.6 403.65 495.45 401.45
Q 498.3 399.8 498.85 396.6
L 498.95 395.35 498.95 380.65 494.65 371.65 485.8 379.1 470.55 370.3
Q 467.75 368.7 465.15 369.45 464 369.75 460.15 371.9
L 418.1 393.4 Z"/>
</g>

<g id="Layer0_0_MEMBER_1_MEMBER_3_FILL">
<path fill="#F1F1F3" stroke="none" d="
M 407.3 389.5
Q 407.6 391.9 410.75 393.75
L 431 405.4 494.65 368.7 474.4 357
Q 471.25 355.2 467.05 355 462.9 354.85 460.15 356.4
L 409.75 385.5
Q 407 387.1 407.3 389.5 Z"/>
</g>

<g id="Layer0_0_MEMBER_1_MEMBER_4_FILL">
<path fill="#494F59" stroke="none" d="
M 410.2 386.3
Q 408.2 387.5 408.2 389.1 408.2 391.2 411.2 392.95
L 431 404.35 492.8 368.7 473.95 357.8
Q 470.65 355.9 466.35 355.9 462.8 355.9 460.65 357.2
L 410.2 386.3 Z"/>
</g>

<g id="Layer0_0_MEMBER_1_MEMBER_5_FILL">
<path fill="#323741" stroke="none" d="
M 412.7 385.75
L 421.45 390.8 471 362.2 462.25 357.15 412.7 385.75 Z"/>
</g>

<g id="Layer0_0_MEMBER_1_MEMBER_6_FILL">
<path fill="#41464F" stroke="none" d="
M 416.5 375.35
Q 416.8 374.55 417.55 374.1
L 450.55 355.05
Q 451.95 354.25 453.45 354.85 454.95 355.4 455.45 356.9
L 459.5 368.85 465.1 365.6 460.55 352.15
Q 459.45 348.8 456.15 347.6 452.9 346.35 449.85 348.1
L 414.35 368.6
Q 411.65 370.15 410.55 373.15 409.45 376.1 410.4 379.05
L 412.55 385.4 412.7 385.75 421.05 390.6 416.45 377
Q 416.2 376.2 416.5 375.35 Z"/>
</g>

<g id="Layer0_0_MEMBER_1_MEMBER_7_FILL">
<path fill="#71757C" stroke="none" d="
M 417.3 375.85
Q 417.6 375 418.35 374.6
L 451.35 355.55
Q 452.75 354.75 454.25 355.3 455.75 355.85 456.25 357.4
L 460.05 368.55 465.65 365.3 461.4 352.6
Q 460.3 349.3 457 348.05 453.7 346.85 450.65 348.6
L 415.2 369.05
Q 412.45 370.65 411.35 373.6 410.25 376.55 411.25 379.55
L 413.25 385.45 413.5 386.25 421.45 390.8 421.75 390.65 417.25 377.5
Q 417 376.65 417.3 375.85 Z"/>
</g>

<g id="Layer0_0_MEMBER_1_MEMBER_8_MEMBER_0_FILL">
<path fill="#41464F" stroke="none" d="
M 421.45 390.8
L 421.75 390.65 420.4 386.7 417.4 388.45 421.45 390.8 Z"/>
</g>

<g id="Layer0_0_MEMBER_1_MEMBER_8_MEMBER_1_FILL">
<path fill="#41464F" stroke="none" d="
M 458.7 364.6
L 460.05 368.55 465.65 365.3 464.35 361.35 458.7 364.6 Z"/>
</g>

<g id="Layer0_0_MEMBER_1_MEMBER_9_FILL">
<path fill="#F1F1F3" stroke="none" d="
M 495.3 387.2
Q 497.05 386.2 498 384.4 498.95 382.65 498.8 380.6
L 494.65 368.7 431 405.4 444.1 412.35
Q 446.45 413.1 448.9 412.85 451.35 412.6 453.45 411.35
L 495.3 387.2 Z"/>
</g>

<g id="Layer0_0_MEMBER_1_MEMBER_10_FILL">
<path fill="#41464F" stroke="none" d="
M 494.85 386.4
Q 496.3 385.55 497.15 384 498 382.5 497.9 380.8
L 494.15 370.05 432.9 405.4 444.45 411.5
Q 445.95 412 447.65 412 450.55 412 453 410.55
L 494.85 386.4 Z"/>
</g>

<g id="Layer0_0_MEMBER_1_MEMBER_11_FILL">
<path fill="#71757C" stroke="none" d="
M 468.9 391.4
Q 468.75 390.75 468.15 390.4 467.5 390.05 466.75 390.15 466.05 390.25 465.65 390.8 465.25 391.35 465.45 392 465.65 392.65 466.25 393 466.9 393.35 467.6 393.25 468.3 393.15 468.7 392.6 469.1 392.05 468.9 391.4 Z"/>
</g>

<g id="Layer0_0_MEMBER_1_MEMBER_12_FILL">
<path fill="#41464F" stroke="none" d="
M 468.4 391.5
Q 468.25 391.05 467.8 390.8 467.4 390.55 466.9 390.65 466.4 390.75 466.15 391.1 465.85 391.45 466 391.9 466.1 392.35 466.55 392.6 466.95 392.85 467.45 392.75 467.95 392.7 468.25 392.3 468.5 391.95 468.4 391.5 Z"/>
</g>

<g id="Layer0_0_MEMBER_1_MEMBER_13_FILL">
<path fill="#595E66" stroke="none" d="
M 490.5 403.05
L 492.8 404.4 492.8 394.5 456.85 415.3 456.85 422.45 490.5 403.05 Z"/>
</g>

<g id="Layer0_0_MEMBER_1_MEMBER_14_FILL">
<path fill="#41464F" stroke="none" d="
M 492.8 394.5
L 491.65 395.2 490.5 403.05 492.8 404.4 492.8 394.5 Z"/>
</g>

<g id="Layer0_0_MEMBER_1_MEMBER_15_FILL">
<path fill="#494F59" stroke="none" d="
M 493.6 369.3
L 492.8 368.7 431 404.35 432.9 405.4 494.15 370.05 493.6 369.3 Z"/>
</g>

<g id="Layer0_0_MEMBER_1_MEMBER_16_FILL">
<path fill="#F6F6F8" stroke="none" d="
M 418.85 374.95
Q 422.25 382.15 425.85 388.3
L 458.7 369.35
Q 455.1 363.2 451.75 355.95 445 341.5 446.3 336.1 442.75 338.45 436.85 342 425.05 349.1 413.45 355.1 412.15 360.5 418.85 374.95 Z"/>
</g>

<g id="Layer0_0_MEMBER_1_MEMBER_17_FILL">
<path fill="#CFD1DC" stroke="none" d="
M 424.35 385.75
L 425.85 388.3 458.7 369.35 457.25 366.75 424.35 385.75 Z"/>
</g>

<g id="Layer0_0_MEMBER_1_MEMBER_18_FILL">
<path fill="#F6F6F8" stroke="none" d="
M 505.15 415.85
Q 498.9 414.55 493.55 408.8 490 405 487.25 399.75
L 456.85 417.3 456.85 422.95
Q 463.55 432.95 472.25 434.85
L 505.15 415.85 Z"/>
</g>

<g id="Layer0_0_MEMBER_1_MEMBER_19_FILL">
<path fill="#CFD1DC" stroke="none" d="
M 488.5 401.95
L 487.25 399.75 456.85 417.3 456.85 420.05 488.5 401.95 Z"/>
</g>

<g id="Layer0_0_MEMBER_1_MEMBER_20_MEMBER_0_FILL">
<path fill="#3B3F47" stroke="none" d="
M 482.35 370.25
Q 482.35 370.6 482.75 370.8
L 483.65 371.35
Q 484 371.55 484.55 371.55 485.05 371.55 485.4 371.35
L 487.45 370.2
Q 487.85 369.95 487.85 369.6 487.85 369.3 487.45 369.05
L 486.5 368.5
Q 485.65 367.95 484.75 368.5
L 482.75 369.65
Q 482.35 369.85 482.35 370.25
M 483.8 371.15
L 482.85 370.6
Q 482.6 370.45 482.6 370.25 482.6 370.05 482.85 369.9
L 484.9 368.7
Q 485.2 368.55 485.65 368.55 486.1 368.55 486.4 368.7
L 487.3 369.25
Q 487.6 369.4 487.6 369.6 487.6 369.8 487.3 369.95
L 485.3 371.15
Q 484.55 371.6 483.8 371.15 Z"/>
</g>

<g id="Layer0_0_MEMBER_1_MEMBER_21_MEMBER_0_FILL">
<path fill="#3B3F47" stroke="none" d="
M 477.7 367.6
Q 477.7 367.9 478.1 368.15
L 479.05 368.7
Q 479.4 368.9 479.9 368.9 480.45 368.9 480.8 368.7
L 482.85 367.5
Q 483.2 367.3 483.2 366.95 483.2 366.55 482.8 366.35
L 481.9 365.85
Q 481.05 365.35 480.15 365.85
L 478.1 367
Q 477.7 367.25 477.7 367.6
M 478.25 367.95
Q 477.95 367.8 477.95 367.6 477.95 367.35 478.25 367.2
L 480.25 366.05
Q 480.65 365.85 481 365.85 481.35 365.85 481.75 366.05
L 482.7 366.6
Q 482.95 366.75 482.95 366.95 482.95 367.2 482.7 367.3
L 480.65 368.5
Q 479.9 368.9 479.15 368.5
L 478.25 367.95 Z"/>
</g>

<g id="Layer0_0_MEMBER_1_MEMBER_22_MEMBER_0_FILL">
<path fill="#62924B" stroke="none" d="
M 473.5 364.35
Q 473.1 364.6 473.1 364.9 473.1 365.25 473.5 365.5
L 474.45 366.05
Q 474.85 366.25 475.3 366.25 475.7 366.25 476.2 366.05
L 478.2 364.85
Q 478.6 364.6 478.6 364.3 478.6 363.95 478.2 363.7
L 477.3 363.15
Q 476.4 362.7 475.55 363.15
L 473.5 364.35
M 473.6 364.55
L 475.65 363.4
Q 475.9 363.2 476.4 363.2 476.9 363.2 477.15 363.4
L 478.1 363.9
Q 478.35 364.05 478.35 364.3 478.35 364.5 478.1 364.65
L 476.05 365.8
Q 475.3 366.25 474.55 365.8
L 473.65 365.3
Q 473.35 365.15 473.35 364.9 473.35 364.7 473.6 364.55 Z"/>
</g>

<g id="Layer0_0_MEMBER_1_MEMBER_23_MEMBER_0_FILL">
<path fill="#3B3F47" stroke="none" d="
M 436.7 399.9
Q 437.05 399.7 437.05 399.35 437.05 398.95 436.65 398.75
L 435.75 398.2
Q 435.4 398 434.9 398 434.4 398 434 398.2
L 431.95 399.4
Q 431.55 399.65 431.55 399.95 431.55 400.3 431.95 400.55
L 432.9 401.1
Q 433.4 401.3 433.75 401.3 434.15 401.3 434.65 401.1
L 436.7 399.9
M 435.6 398.45
L 436.55 398.95
Q 436.8 399.1 436.8 399.35 436.8 399.6 436.55 399.7
L 434.5 400.85
Q 433.75 401.3 433 400.85
L 432.1 400.35
Q 431.8 400.2 431.8 399.95 431.8 399.75 432.1 399.6
L 434.1 398.45
Q 434.35 398.25 434.85 398.25 435.35 398.25 435.6 398.45 Z"/>
</g>

<g id="Layer0_0_MEMBER_1_MEMBER_24_MEMBER_0_FILL">
<path fill="#3B3F47" stroke="none" d="
M 431.15 395.55
Q 430.25 395.1 429.4 395.55
L 427.35 396.75
Q 426.95 397 426.95 397.3 426.95 397.65 427.35 397.9
L 428.25 398.4
Q 428.65 398.65 429.15 398.65 429.65 398.65 430.05 398.4
L 432.05 397.25
Q 432.45 397 432.45 396.65 432.45 396.35 432.05 396.1
L 431.15 395.55
M 430.25 395.6
Q 430.7 395.6 431 395.75
L 431.95 396.3
Q 432.2 396.45 432.2 396.65 432.2 396.9 431.95 397.05
L 429.9 398.2
Q 429.15 398.65 428.4 398.2
L 427.5 397.65
Q 427.2 397.5 427.2 397.3 427.2 397.1 427.45 396.95
L 429.5 395.75
Q 429.8 395.6 430.25 395.6 Z"/>
</g>

<g id="Layer0_0_MEMBER_1_MEMBER_25_MEMBER_0_FILL">
<path fill="#3B3F47" stroke="none" d="
M 423.65 395.75
Q 424 395.95 424.55 395.95 425.15 395.95 425.4 395.75
L 427.45 394.6
Q 427.85 394.35 427.85 394 427.85 393.7 427.45 393.45
L 426.5 392.9
Q 425.65 392.35 424.75 392.9
L 422.75 394.05
Q 422.35 394.3 422.35 394.65 422.35 394.95 422.75 395.2
L 423.65 395.75
M 423.8 395.55
L 422.85 395
Q 422.6 394.85 422.6 394.65 422.6 394.45 422.85 394.3
L 424.9 393.1
Q 425.2 392.95 425.65 392.95 426.1 392.95 426.4 393.1
L 427.3 393.65
Q 427.6 393.8 427.6 394 427.6 394.2 427.35 394.35
L 425.3 395.55
Q 424.65 395.95 423.8 395.55 Z"/>
</g>

<g id="Layer0_0_MEMBER_1_MEMBER_26_FILL">
<path fill="#494F59" stroke="none" d="
M 496.95 380.95
L 496.55 379.9 494.15 371.75 495.25 379.1
Q 495.45 380.65 494.8 382.05 494.1 383.4 492.8 384.2
L 452.2 407.95
Q 448.75 410 444.85 409.15 442.95 408.75 442.35 408.5
L 436.65 406.25 443.9 410.15
Q 444.9 410.6 446.45 410.8 448.95 411.1 451.8 410.05 494.6 385.75 496.15 383.6 497.1 382.3 496.95 380.95 Z"/>
</g>
</defs>

<g transform="matrix( 7, 0, 0, 7, -2638.6,-2194.7) ">
<use xlink:href="#Layer0_0_MEMBER_0_FILL"/>
</g>

<g transform="matrix( 7, 0, 0, 7, -2638.6,-2194.7) ">
<use xlink:href="#Layer0_0_MEMBER_1_MEMBER_0_FILL"/>
</g>

<g transform="matrix( 7, 0, 0, 7, -2638.6,-2194.7) ">
<use xlink:href="#Layer0_0_MEMBER_1_MEMBER_1_FILL"/>
</g>

<g transform="matrix( 7, 0, 0, 7, -2638.6,-2194.7) ">
<use xlink:href="#Layer0_0_MEMBER_1_MEMBER_2_MEMBER_0_FILL"/>
</g>

<g transform="matrix( 7, 0, 0, 7, -2638.6,-2194.7) ">
<use xlink:href="#Layer0_0_MEMBER_1_MEMBER_2_MEMBER_1_FILL"/>
</g>

<g transform="matrix( 7, 0, 0, 7, -2638.6,-2194.7) ">
<use xlink:href="#Layer0_0_MEMBER_1_MEMBER_3_FILL"/>
</g>

<g transform="matrix( 7, 0, 0, 7, -2638.6,-2194.7) ">
<use xlink:href="#Layer0_0_MEMBER_1_MEMBER_4_FILL"/>
</g>

<g transform="matrix( 7, 0, 0, 7, -2638.6,-2194.7) ">
<use xlink:href="#Layer0_0_MEMBER_1_MEMBER_5_FILL"/>
</g>

<g transform="matrix( 7, 0, 0, 7, -2638.6,-2194.7) ">
<use xlink:href="#Layer0_0_MEMBER_1_MEMBER_6_FILL"/>
</g>

<g transform="matrix( 7, 0, 0, 7, -2638.6,-2194.7) ">
<use xlink:href="#Layer0_0_MEMBER_1_MEMBER_7_FILL"/>
</g>

<g transform="matrix( 7, 0, 0, 7, -2638.6,-2194.7) ">
<use xlink:href="#Layer0_0_MEMBER_1_MEMBER_8_MEMBER_0_FILL"/>
</g>

<g transform="matrix( 7, 0, 0, 7, -2638.6,-2194.7) ">
<use xlink:href="#Layer0_0_MEMBER_1_MEMBER_8_MEMBER_1_FILL"/>
</g>

<g transform="matrix( 7, 0, 0, 7, -2638.6,-2194.7) ">
<use xlink:href="#Layer0_0_MEMBER_1_MEMBER_9_FILL"/>
</g>

<g transform="matrix( 7, 0, 0, 7, -2638.6,-2194.7) ">
<use xlink:href="#Layer0_0_MEMBER_1_MEMBER_10_FILL"/>
</g>

<g transform="matrix( 7, 0, 0, 7, -2638.6,-2194.7) ">
<use xlink:href="#Layer0_0_MEMBER_1_MEMBER_11_FILL"/>
</g>

<g transform="matrix( 7, 0, 0, 7, -2638.6,-2194.7) ">
<use xlink:href="#Layer0_0_MEMBER_1_MEMBER_12_FILL"/>
</g>

<g transform="matrix( 7, 0, 0, 7, -2638.6,-2194.7) ">
<use xlink:href="#Layer0_0_MEMBER_1_MEMBER_13_FILL"/>
</g>

<g transform="matrix( 7, 0, 0, 7, -2638.6,-2194.7) ">
<use xlink:href="#Layer0_0_MEMBER_1_MEMBER_14_FILL"/>
</g>

<g transform="matrix( 7, 0, 0, 7, -2638.6,-2194.7) ">
<use xlink:href="#Layer0_0_MEMBER_1_MEMBER_15_FILL"/>
</g>

<g transform="matrix( 7, 0, 0, 7, -2638.6,-2194.7) ">
<use xlink:href="#Layer0_0_MEMBER_1_MEMBER_16_FILL"/>
</g>

<g transform="matrix( 7, 0, 0, 7, -2638.6,-2194.7) ">
<use xlink:href="#Layer0_0_MEMBER_1_MEMBER_17_FILL"/>
</g>

<g transform="matrix( 7, 0, 0, 7, -2638.6,-2194.7) ">
<use xlink:href="#Layer0_0_MEMBER_1_MEMBER_18_FILL"/>
</g>

<g transform="matrix( 7, 0, 0, 7, -2638.6,-2194.7) ">
<use xlink:href="#Layer0_0_MEMBER_1_MEMBER_19_FILL"/>
</g>

<g transform="matrix( 7, 0, 0, 7, -2638.6,-2194.7) ">
<use xlink:href="#Layer0_0_MEMBER_1_MEMBER_20_MEMBER_0_FILL"/>
</g>

<g transform="matrix( 7, 0, 0, 7, -2638.6,-2194.7) ">
<use xlink:href="#Layer0_0_MEMBER_1_MEMBER_21_MEMBER_0_FILL"/>
</g>

<g transform="matrix( 7, 0, 0, 7, -2638.6,-2194.7) ">
<use xlink:href="#Layer0_0_MEMBER_1_MEMBER_22_MEMBER_0_FILL"/>
</g>

<g transform="matrix( 7, 0, 0, 7, -2638.6,-2194.7) ">
<use xlink:href="#Layer0_0_MEMBER_1_MEMBER_23_MEMBER_0_FILL"/>
</g>

<g transform="matrix( 7, 0, 0, 7, -2638.6,-2194.7) ">
<use xlink:href="#Layer0_0_MEMBER_1_MEMBER_24_MEMBER_0_FILL"/>
</g>

<g transform="matrix( 7, 0, 0, 7, -2638.6,-2194.7) ">
<use xlink:href="#Layer0_0_MEMBER_1_MEMBER_25_MEMBER_0_FILL"/>
</g>

<g transform="matrix( 7, 0, 0, 7, -2638.6,-2194.7) ">
<use xlink:href="#Layer0_0_MEMBER_1_MEMBER_26_FILL"/>
</g>
</svg>
