<svg xmlns="http://www.w3.org/2000/svg" xmlns:xlink="http://www.w3.org/1999/xlink" viewBox="0 0 358.5 308.67"><defs><style>.cls-1{fill:#f1e7c7;}.cls-2{fill:#5f9571;}.cls-3{fill:#231815;}.cls-4{clip-path:url(#clip-path);}.cls-5{fill:#c7d1ad;}.cls-6{fill:#b7c2b5;}.cls-7{fill:#b1d2d2;}.cls-8{fill:#c6d4b2;}.cls-9{fill:#5d8b6c;}.cls-10{clip-path:url(#clip-path-2);}.cls-11{fill:#7ec2ad;}.cls-12{fill:#8abec7;}.cls-13{fill:#8faf8b;}</style><clipPath id="clip-path"><path class="cls-1" d="M328.55,16.33l-146.2,62.1q7.88,106.71,15.77,213.42l127.55-71.49Z"/></clipPath><clipPath id="clip-path-2"><polygon class="cls-2" points="177.59 79.5 198.04 292.01 54.83 241.84 19.91 52.26 177.59 79.5"/></clipPath></defs><title>资源 7</title><g id="图层_2" data-name="图层 2"><g id="图层_1-2" data-name="图层 1"><path class="cls-1" d="M198.12,294.35a2.51,2.51,0,0,1-2.49-2.31L179.85,78.62a2.5,2.5,0,0,1,1.52-2.49L327.58,14a2.48,2.48,0,0,1,2.37.23,2.47,2.47,0,0,1,1.1,2.11l-2.88,204a2.49,2.49,0,0,1-1.28,2.15L199.35,294A2.46,2.46,0,0,1,198.12,294.35Z"/><path class="cls-3" d="M328.55,16.33h0m0,0-2.88,204L198.12,291.85q-7.89-106.71-15.77-213.42l146.2-62.1m0-5h-.13a5.14,5.14,0,0,0-1.92.44L180.39,73.83a5,5,0,0,0-3,5l15.78,213.42a5,5,0,0,0,2.62,4,5.06,5.06,0,0,0,2.36.59,5,5,0,0,0,2.45-.64l127.55-71.49a5,5,0,0,0,2.55-4.29l2.88-203.87c0-.07,0-.15,0-.23a5,5,0,0,0-5-5Zm0,10h0Z"/><path class="cls-1" d="M328.55,16.33l-146.2,62.1q7.88,106.71,15.77,213.42l127.55-71.49Z"/><g class="cls-4"><path class="cls-5" d="M205.26,306.17a2.25,2.25,0,0,1-.44,0l-40.27-7.19a2.5,2.5,0,0,1-2-2l-4.74-26.65a2.54,2.54,0,0,1,.08-1.19l9.23-29a2.49,2.49,0,0,1,1.67-1.64l27.87-8.24a2.44,2.44,0,0,1,.71-.1h.28c.05,0,5.28.58,9.84.58,4,0,5.15-.44,5.35-.53l1.17-.58c3.15-1.57,8.43-4.2,14.45-4.2a18.13,18.13,0,0,1,7.75,1.69,43.32,43.32,0,0,0,17.47,3.51,23.6,23.6,0,0,0,5.07-.44c1.08-.26,3.81-2.11,6.22-3.74,5.47-3.69,12.27-8.28,18-8.34h.26c11,0,25.21,6.52,29.15,24.88a2.51,2.51,0,0,1-1.2,2.7L206.51,305.84A2.49,2.49,0,0,1,205.26,306.17Z"/><path class="cls-3" d="M283.25,220.54c8,0,22.73,4.38,26.71,22.91l-104.7,60.22L165,296.48l-4.73-26.64,9.22-29,27.87-8.24s5.36.59,10.12.59c2.67,0,5.15-.18,6.4-.77,2.58-1.2,8.28-4.54,14.57-4.54a15.54,15.54,0,0,1,6.69,1.46c5.94,2.78,13.23,3.74,18.53,3.74a25.91,25.91,0,0,0,5.66-.51c4.12-1,15.76-11.92,23.7-12h.23m0-5H283c-6.53.07-13.67,4.9-19.42,8.77a44.34,44.34,0,0,1-5.45,3.39,21.45,21.45,0,0,1-4.44.36,40.92,40.92,0,0,1-16.41-3.27,20.54,20.54,0,0,0-8.81-1.93c-6.61,0-12.44,2.91-15.57,4.47-.39.19-.74.37-1.05.51a17.13,17.13,0,0,1-4.35.33c-4.44,0-9.51-.55-9.57-.56a4.93,4.93,0,0,0-.55,0,5.29,5.29,0,0,0-1.42.2L168.06,236a5,5,0,0,0-3.35,3.28l-9.22,29a5.09,5.09,0,0,0-.16,2.39l4.74,26.64a5,5,0,0,0,4,4l40.27,7.2a5.3,5.3,0,0,0,.88.07,5,5,0,0,0,2.5-.66l104.69-60.23a5,5,0,0,0,2.4-5.38c-2-9.39-6.85-16.83-14-21.53a32.9,32.9,0,0,0-17.61-5.33Z"/><path class="cls-6" d="M223.36,210.29a17,17,0,0,1-7.59-2c-7.28-3.69-6-15.69-4.23-20.07,2.07-5.15,2-8.93,1.56-11.2a18.14,18.14,0,0,1,.76-10c2.8-7.26,7.06-8.78,10.13-8.78a10.35,10.35,0,0,1,3,.47,8.28,8.28,0,0,0,2.3.38c4.18,0,4.55-5.79,4.57-6a2.5,2.5,0,0,1,.46-1.32,13.48,13.48,0,0,1,10.33-5.26,14.5,14.5,0,0,1,6.64,1.72,65,65,0,0,0,9.19,3.86c2.77,1,4.78,1.67,6.37,3.44,3.09,3.43,2.67,8.93,2.35,11.13-.24,1.57-1.24,6.83-4.41,8.75-2.71,1.64-3.35,2.37-3.41,2.7h0a1.42,1.42,0,0,0,.2.39,4.18,4.18,0,0,1,.41,4.22c-1.87,4-9.86,5.09-11.44,5.25a8,8,0,0,0-4.05,1.87,7.37,7.37,0,0,1-4.37,1.86h0a5.23,5.23,0,0,1-1.85-.35c-1.39.9-4,5.86-4.48,8.16C235.23,202.25,231.73,210.29,223.36,210.29Z"/><path class="cls-3" d="M244.65,148.93a11.89,11.89,0,0,1,5.5,1.45c8.62,4.43,12.61,4.27,14.84,6.75,3.62,4,1.59,14.2-1.49,16.06s-5.92,3.8-4,6.64-4.24,5-9.24,5.58c-4.3.45-5.86,3.71-8.15,3.71a2.7,2.7,0,0,1-1.18-.28,1.63,1.63,0,0,0-.67-.15c-2.93,0-6.44,7.81-6.93,10.24-.42,2.07-3.23,8.86-10,8.86A14.37,14.37,0,0,1,216.9,206c-5.71-2.88-4.42-13.46-3-16.9,2.3-5.72,2.19-10,1.69-12.6a15.64,15.64,0,0,1,.64-8.65c1.34-3.46,3.72-7.18,7.8-7.18a7.75,7.75,0,0,1,2.28.36,10.5,10.5,0,0,0,3,.49c6.66,0,7.06-8.41,7.06-8.41a10.94,10.94,0,0,1,8.3-4.21m0-5a15.85,15.85,0,0,0-12.36,6.3,5,5,0,0,0-.93,2.67,8.1,8.1,0,0,1-.68,2.56c-.52,1.09-.92,1.09-1.39,1.09a5.54,5.54,0,0,1-1.57-.28,13,13,0,0,0-3.73-.57c-3.16,0-9,1.35-12.47,10.38a20.78,20.78,0,0,0-.88,11.39c.37,1.94.43,5.21-1.42,9.8-2.31,5.75-3.14,18.89,5.42,23.23a19.41,19.41,0,0,0,8.72,2.29c9,0,13.89-7.89,14.89-12.87a21.51,21.51,0,0,1,2.83-5.87,7.41,7.41,0,0,0,1,.07,9.66,9.66,0,0,0,5.85-2.34,5.54,5.54,0,0,1,2.83-1.4c3.27-.35,11.14-1.7,13.45-6.69a6.55,6.55,0,0,0,.18-5.17c.42-.29,1-.64,1.64-1.05,4-2.41,5.24-8.17,5.59-10.53.8-5.39-.28-10.19-3-13.16-2-2.24-4.52-3.12-7.41-4.13a62.8,62.8,0,0,1-8.87-3.72,16.86,16.86,0,0,0-7.78-2Z"/><path class="cls-7" d="M295.65,142.19c-8,0-12.95-.91-14.79-2.72s-10.38-4.28-15-5.65c-6.47-1.91-9.26-8-11.29-12.44-.3-.64-.58-1.27-.87-1.85-.37-.77-.68-1.4-.83-1.68-.65-.45-1.84-1.32-5.09-5.11a9.58,9.58,0,0,0-8.23-3.84c-1,0-2,.07-3.08.14s-2.42.16-3.73.16h0a25,25,0,0,1-3-.16C221,108,215,95.23,213.57,86.5c-.8-4.88-9.86-13-15.39-16.91a2.5,2.5,0,0,1,.51-4.35l19.22-7.83a2.62,2.62,0,0,1,1-.18,2.48,2.48,0,0,1,2,1c.54.69,13.22,17.16,14.84,27.31.79,5,5.71,6.3,13.67,8a71.21,71.21,0,0,1,8.89,2.3c6.56,2.32,9.7,6.89,12.46,10.92,1.79,2.61,3.49,5.08,6,6.84,5.27,3.74,24.91,6.54,32,7.31a2.49,2.49,0,0,1,1.72,4L298,141.21a2.5,2.5,0,0,1-2,1Z"/><path class="cls-3" d="M218.86,59.73s12.81,16.54,14.34,26.18,14.39,8.78,24.2,12.25,10.86,12.51,17.82,17.44,33.21,7.75,33.21,7.75L296,139.69h-.33c-1.86,0-11.09-.1-13-2-2.17-2.12-9.82-4.42-16-6.26s-8.43-8.49-10.62-13,0,0-6.28-7.32a12.06,12.06,0,0,0-10.13-4.71c-2.17,0-4.41.3-6.8.3a22.12,22.12,0,0,1-2.66-.15c-7.39-.87-12.76-12.73-14-20.46s-16.4-18.53-16.4-18.53l19.22-7.83m0-5a5,5,0,0,0-1.89.37l-19.22,7.84a5,5,0,0,0-1,8.7c6.49,4.64,13.82,11.89,14.38,15.27,1.46,8.85,7.74,23.36,18.39,24.62a27.76,27.76,0,0,0,3.24.18c1.39,0,2.66-.08,3.89-.16,1-.07,2-.14,2.91-.14a7.16,7.16,0,0,1,6.34,3,34.66,34.66,0,0,0,5,5.15l.54,1.11c.28.57.56,1.18.85,1.8,2.11,4.61,5.29,11.56,12.86,13.8,3.67,1.09,12.25,3.63,14,5.07,1.06,1,3.57,3.4,16.51,3.4H296a5,5,0,0,0,3.92-2l12.46-16.34a5,5,0,0,0-3.44-8c-10.37-1.11-26.79-4-30.86-6.86-2.12-1.5-3.62-3.68-5.36-6.21-2.83-4.13-6.36-9.27-13.68-11.86a71.35,71.35,0,0,0-9.21-2.39c-7.76-1.65-11.21-2.71-11.72-5.94-1.69-10.59-13.94-26.66-15.33-28.46a5,5,0,0,0-3.95-1.94Z"/><path class="cls-8" d="M327,78.39a23.37,23.37,0,0,1-11.6-3,20.68,20.68,0,0,0-10.27-2.67c-6.66-.07-11.3-2-15-3.62C287.32,68,285.14,67,282.8,67a30.41,30.41,0,0,0-5.77.83A40.54,40.54,0,0,1,268.31,69h0A31.09,31.09,0,0,1,258,67.14c-12.44-4.29-17.39-19.85-17.6-20.51a2.5,2.5,0,0,1,1.45-3.06L343.19,2.68a2.53,2.53,0,0,1,.94-.18,2.5,2.5,0,0,1,2.47,2.16L356,72a2.51,2.51,0,0,1-2,2.79c-.65.14-16.19,3.48-26.73,3.6Z"/><path class="cls-3" d="M344.13,5l9.37,67.34s-15.82,3.44-26.23,3.55H327c-10.11,0-10.91-5.53-21.84-5.65s-15.83-5.72-22.33-5.72h-.12c-4.45,0-8.61,2-14.37,2a28.62,28.62,0,0,1-9.51-1.7c-11.38-3.93-16-18.9-16-18.9L344.13,5m0-5a5,5,0,0,0-1.87.36L240.91,41.25A5,5,0,0,0,238,47.36c.22.71,5.55,17.44,19.17,22.15a33.89,33.89,0,0,0,11.14,2,43,43,0,0,0,9.24-1.18,27.75,27.75,0,0,1,5.18-.78h.07c1.83,0,3.8.84,6.29,1.9,3.93,1.67,8.82,3.74,16,3.82a18.13,18.13,0,0,1,9.19,2.41A25.57,25.57,0,0,0,327,80.89h.36c10.78-.12,26.57-3.51,27.23-3.66a5,5,0,0,0,3.9-5.57L349.08,4.31A5,5,0,0,0,346.63.67a5.06,5.06,0,0,0-2.5-.67Z"/></g><path class="cls-9" d="M196.13,294.77a2.63,2.63,0,0,1-.83-.14L54,244.38a2.51,2.51,0,0,1-1.62-1.9L17.45,52.71a2.5,2.5,0,0,1,2.46-3,2,2,0,0,1,.42,0L178,77.06a2.49,2.49,0,0,1,2.06,2.24l18.54,212.75a2.47,2.47,0,0,1-1,2.2A2.5,2.5,0,0,1,196.13,294.77Z"/><path class="cls-3" d="M19.91,52.26,177.59,79.52l18.54,212.75L54.83,242,19.91,52.26m0-5A5,5,0,0,0,15,53.17L49.91,242.93a5,5,0,0,0,3.24,3.8L194.46,297a4.81,4.81,0,0,0,1.67.29,5,5,0,0,0,3.06-1,5,5,0,0,0,1.92-4.39L182.57,79.09a5,5,0,0,0-4.13-4.5L20.76,47.33a4.88,4.88,0,0,0-.85-.07Z"/><polygon class="cls-2" points="177.59 79.5 198.04 292.01 54.83 241.84 19.91 52.26 177.59 79.5"/><g class="cls-10"><path class="cls-11" d="M21.37,139.92a2.49,2.49,0,0,1-2.47-2.11L2.53,33.44A2.51,2.51,0,0,1,5,30.55l.32,0L106.5,43.44a2.51,2.51,0,0,1,2.18,2.7c-.9,10.49-.38,23,1.8,24.85,6.67,5.71,3.41,15.53,3.27,16a2.49,2.49,0,0,1-.7,1l-4.58,4.11q.09.89.18,1.65c.59,5.49.58,8.51-6.36,11.85h0a3.81,3.81,0,0,1-1.69.39,4,4,0,0,1-1.41-.26,8.17,8.17,0,0,0-2.73-.58,1.83,1.83,0,0,0-1.22.34c-1.89,1.85-5.74,10.18-2.35,15.13a5.63,5.63,0,0,1,1,5.39c-.81,2.07-2.9,3.47-6.41,4.28a10.65,10.65,0,0,1-2.52.29,12.39,12.39,0,0,1-7.77-2.85,2.67,2.67,0,0,0-1.47-.71c-.6,0-1.26.78-1.59,1.25-4.63,6.43-41.3,10.53-52.43,11.63Z"/><path class="cls-3" d="M5,33.05,106.19,45.92s-2,23,2.67,27c5.45,4.67,2.52,13.24,2.52,13.24l-5.5,4.94c.54,7.19,2,9.06-4.7,12.29h0a1.5,1.5,0,0,1-.61.14,1.34,1.34,0,0,1-.52-.1,11.05,11.05,0,0,0-3.62-.74,4.1,4.1,0,0,0-3,1c-2.36,2.31-7,12-2.66,18.33,2.35,3.44-.68,5.07-4,5.83a8.64,8.64,0,0,1-2,.22,9.92,9.92,0,0,1-6.2-2.29,5,5,0,0,0-3-1.27c-1.17,0-2.41.6-3.62,2.29-4.33,6-50.65,10.6-50.65,10.6L5,33.05m0-5A5,5,0,0,0,.06,33.83L16.43,138.2a5,5,0,0,0,4.94,4.22,4,4,0,0,0,.49,0c.12,0,11.86-1.18,24-3.08,23.54-3.69,28.07-6.75,30.05-9.34a14.91,14.91,0,0,0,9,3.11,13.79,13.79,0,0,0,3.08-.35c4.32-1,7.07-3,8.18-5.82a8.09,8.09,0,0,0-1.22-7.71c-2.34-3.41.29-9.58,1.72-11.54a6.76,6.76,0,0,1,1.64.41,6.37,6.37,0,0,0,2.29.42,6.54,6.54,0,0,0,2.75-.62l0,0c8.26-4,8.44-8.27,7.78-14.38,0-.12,0-.24,0-.37l3.63-3.26a4.88,4.88,0,0,0,1.39-2.1c1.49-4.34,2.32-13.08-3.84-18.52-1.43-2.29-2-12.89-1.1-22.88A5,5,0,0,0,106.82,41L5.63,28.09c-.21,0-.42,0-.63,0Z"/><path class="cls-12" d="M82,257.32a2.44,2.44,0,0,1-.8-.13L49.64,246.55a2.49,2.49,0,0,1-1.49-1.37c-3.81-8.68-3.8-17.48,0-25.45,4.46-9.33,13-15.18,16.41-16.1C78.13,199.94,78.2,195.8,78.31,189v-.5c.15-8.77,3.76-20.29,20.09-25.42,9.16-2.87,14.72-10.24,17-22.52,1.89-10.24,10.84-24.56,22.53-30.8,7.46-4,7.13-7.42,6.47-14.27-.18-1.92-.39-4.09-.41-6.45-.13-11.6,22.4-26,25-27.57a2.46,2.46,0,0,1,1.32-.38,2.53,2.53,0,0,1,1.94.91l23.42,28.58a2.49,2.49,0,0,1,.12,3c-.7,1-17.27,24.76-32.3,30.52-6.77,2.6-13.94,11.3-13.41,19.63.65,10.36-11.45,28.46-24.24,32.09-10.23,2.9-13.88,13.05-13.79,18.77.11,6.29-3.64,18.81-18.37,25.81-9.22,4.39-9.73,26.23-9.15,34.28A2.49,2.49,0,0,1,82,257.32Z"/><path class="cls-3" d="M170.28,63.54l23.43,28.57S177,116.18,162.57,121.73c-8.17,3.13-15.59,13-15,22.12s-10.68,26.2-22.42,29.52-15.71,14.81-15.6,21.22-4.15,17.43-17,23.51S82,254.82,82,254.82L50.44,244.18c-9.78-22.32,10.23-36.9,14.78-38.14,15.74-4.28,15.47-10.23,15.6-17.55.3-16.93,13.61-21.59,18.34-23.07,12.83-4,17-15.28,18.69-24.45s9.88-23,21.26-29.06,7.49-12.43,7.38-23,23.79-25.42,23.79-25.42m0-5a5,5,0,0,0-2.64.76,118.49,118.49,0,0,0-12.52,9.18C145.88,76.29,141.42,83,141.49,89c0,2.47.24,4.7.42,6.67.64,6.63.83,8.63-5.16,11.82-12.82,6.85-21.84,21.88-23.81,32.56-2.12,11.44-7,18-15.27,20.59C79.91,166.22,76,178.82,75.82,188.4v.51c0,3.35-.13,5.33-1.19,6.86-1.42,2.07-5,3.9-10.71,5.45-3.88,1.05-13.14,7.25-18,17.44-4.13,8.64-4.15,18.16,0,27.52a5,5,0,0,0,3,2.74l31.57,10.64a5.15,5.15,0,0,0,1.6.26,5,5,0,0,0,5-5.36c-.63-8.89.42-28.36,7.73-31.84,13.9-6.6,20-18.88,19.8-28.12,0-3.33,2-13.49,12-16.32,14-4,26.77-23.19,26.05-34.64-.44-7,5.87-14.86,11.82-17.14,15.73-6,32.74-30.41,33.46-31.44a5,5,0,0,0-.25-6L174.15,60.37a5,5,0,0,0-3.87-1.83Z"/><path class="cls-13" d="M195.85,294.54a3,3,0,0,1-.42,0l-40.28-6.89a2.5,2.5,0,0,1-2-2L148.4,260a2.48,2.48,0,0,1,.08-1.24l9.24-27.86a2.51,2.51,0,0,1,1.69-1.62l27.87-7.92a2.74,2.74,0,0,1,.69-.1l.26,0s1.43.15,3.43.29a2.5,2.5,0,0,1,2.31,2.3l5.4,67.37a2.51,2.51,0,0,1-1.29,2.39l-1,.56A2.49,2.49,0,0,1,195.85,294.54Z"/><path class="cls-3" d="M188,223.79s1.45.16,3.51.31l5.39,67.37-1,.57-40.27-6.89-4.73-25.58,9.24-27.85L188,223.79m0-5a5.33,5.33,0,0,0-1.37.19l-27.88,7.93a5,5,0,0,0-3.38,3.23L146.11,258a4.86,4.86,0,0,0-.17,2.48l4.72,25.57a5,5,0,0,0,4.07,4L195,297a4.89,4.89,0,0,0,.85.08,5,5,0,0,0,2.42-.63l1-.57a5,5,0,0,0,2.57-4.77l-5.39-67.37a5,5,0,0,0-4.63-4.59c-1.94-.14-3.33-.29-3.35-.29a4.53,4.53,0,0,0-.52,0Z"/><path class="cls-11" d="M155.51,281.24a2.55,2.55,0,0,1-.9-.16l-36.33-13.95a2.51,2.51,0,0,1-1.13-.88c-10-14,0-29.21,8.07-41.43,3.49-5.31,6.79-10.32,7.76-14.18,3.52-14.14,20.51-28.25,29.81-30.5,5.32-1.28,22.84-15.83,32.64-24.69a2.5,2.5,0,0,1,4.17,1.75l3,71.85a2.5,2.5,0,0,1-.85,2,2.47,2.47,0,0,1-1.65.62l-.42,0a42.13,42.13,0,0,0-6.5-.51c-5.24,0-8.87,1.08-10.21,3-4,5.88-10.31,8.65-17,11.58l-3.1,1.38c-3.6,1.64-5.44,17.64-4.9,31.55a2.52,2.52,0,0,1-2.5,2.6Z"/><path class="cls-3" d="M197.11,157.3l3,71.85a45.3,45.3,0,0,0-6.92-.54c-4.51,0-10,.77-12.27,4.11-4.22,6.14-11.5,8.66-19,12.09s-6.36,33.93-6.36,33.93l-36.33-13.95C106,246.33,132.05,224.7,135.4,211.24s20-26.75,28-28.67,33.73-25.27,33.73-25.27m0-5a5,5,0,0,0-3.36,1.29c-12,10.83-27.42,23.13-31.55,24.12-9.88,2.39-27.92,17.34-31.65,32.32-.86,3.45-4,8.29-7.42,13.41-8,12.19-19,28.87-8,44.26a5,5,0,0,0,2.28,1.76l36.33,14a5,5,0,0,0,6.78-4.86c0-.07-.25-6.82.27-14.09.85-12,3-14.79,3.32-15.16,1-.45,2-.88,2.92-1.3,6.68-2.95,13.58-6,18-12.45.5-.72,2.77-1.94,8.15-1.94a41.69,41.69,0,0,1,6.08.47,4.57,4.57,0,0,0,.83.07,5,5,0,0,0,5-5.2l-3-71.86a5,5,0,0,0-5-4.79Z"/></g></g></g></svg>