<svg width="471" height="120" viewBox="0 0 471 120" fill="none" xmlns="http://www.w3.org/2000/svg">
<path d="M28.33 104.798L98.83 111.088L323.01 112.178H408.12L414.86 98.9882L388.91 49.5882L55.17 46.1682L30.85 58.4882L28.33 104.798Z" fill="#353535"/>
<path d="M273.7 2.44824C273.7 2.44824 343.77 22.7883 361.65 37.3083C372.21 45.8983 354.71 38.7182 354.71 38.7182L264.78 10.6582L273.7 2.44824Z" fill="#BCBCBC"/>
<path d="M69.21 119.888C88.7001 119.888 104.5 104.088 104.5 84.5981C104.5 65.108 88.7001 49.3081 69.21 49.3081C49.7199 49.3081 33.92 65.108 33.92 84.5981C33.92 104.088 49.7199 119.888 69.21 119.888Z" fill="black"/>
<path d="M69.21 112.328C84.5248 112.328 96.94 99.913 96.94 84.5981C96.94 69.2833 84.5248 56.8682 69.21 56.8682C53.8951 56.8682 41.48 69.2833 41.48 84.5981C41.48 99.913 53.8951 112.328 69.21 112.328Z" fill="black"/>
<path d="M69.21 113.608C63.4743 113.608 57.8675 111.907 53.0984 108.721C48.3294 105.534 44.6124 101.005 42.4175 95.706C40.2225 90.4069 39.6482 84.576 40.7672 78.9506C41.8862 73.3251 44.6482 68.1578 48.7039 64.1021C52.7596 60.0463 57.9269 57.2844 63.5524 56.1654C69.1778 55.0464 75.0087 55.6207 80.3078 57.8157C85.6069 60.0106 90.136 63.7276 93.3226 68.4966C96.5092 73.2657 98.21 78.8725 98.21 84.6082C98.21 92.2994 95.1546 99.6757 89.7161 105.114C84.2775 110.553 76.9013 113.608 69.21 113.608ZM69.21 58.1482C63.9695 58.1482 58.8467 59.7026 54.4898 62.6146C50.1329 65.5267 46.7376 69.6657 44.7336 74.5078C42.7295 79.35 42.2066 84.6778 43.2312 89.8172C44.2557 94.9565 46.7817 99.6766 50.4894 103.38C54.197 107.084 58.9199 109.604 64.0604 110.623C69.201 111.642 74.5282 111.113 79.3681 109.103C84.208 107.094 88.343 103.694 91.2502 99.3334C94.1573 94.9732 95.7059 89.8487 95.7 84.6082C95.6947 77.5833 92.9024 70.8475 87.936 65.8792C82.9696 60.911 76.2349 58.1161 69.21 58.1082V58.1482Z" fill="#232323"/>
<path d="M69.21 88.3781C71.2976 88.3781 72.99 86.6858 72.99 84.5981C72.99 82.5105 71.2976 80.8181 69.21 80.8181C67.1224 80.8181 65.43 82.5105 65.43 84.5981C65.43 86.6858 67.1224 88.3781 69.21 88.3781Z" fill="#CCCCCC"/>
<g opacity="0.2">
<path opacity="0.2" d="M69.21 92.188C73.4018 92.188 76.8 88.7899 76.8 84.5981C76.8 80.4062 73.4018 77.0081 69.21 77.0081C65.0182 77.0081 61.62 80.4062 61.62 84.5981C61.62 88.7899 65.0182 92.188 69.21 92.188Z" fill="#CCCCCC"/>
</g>
<path d="M69.09 78.238C68.5212 78.2543 67.9527 78.1937 67.4 78.058C63.4 76.708 59.4 64.758 59.4 59.908C59.4 58.118 59.91 57.028 60.95 56.668C64.6 55.378 75.7 55.488 78.17 56.838C78.5316 57.0764 78.8275 57.4019 79.0302 57.7846C79.2329 58.1674 79.336 58.595 79.33 59.028C79.7 63.138 75.97 74.428 72.04 77.618C71.1357 78.1011 70.1123 78.3161 69.09 78.238ZM68.18 75.708C68.9632 75.8025 69.7564 75.7721 70.53 75.618C74.09 72.618 77.45 60.978 76.79 58.938C74.7 58.068 65.21 57.938 61.93 58.938C61.64 59.808 62 63.438 63.83 68.398C65.44 72.748 67.23 75.358 68.18 75.708Z" fill="#686766"/>
<path d="M50.48 87.2181C47.8515 87.2786 45.2272 86.9792 42.68 86.3282C40.98 85.7882 40.11 84.9482 40.08 83.8482C39.98 79.9782 43.52 69.4582 45.57 67.5282C45.9055 67.2567 46.305 67.0756 46.7303 67.0021C47.1556 66.9285 47.5927 66.9651 48 67.1082C52 68.0182 61.62 75.0582 63.43 79.7782C63.88 80.9382 62.87 83.7082 62.43 84.2982C60.87 86.3682 55.47 87.2181 50.48 87.2181ZM42.56 83.6082C43.29 84.1582 46.85 84.9382 52.13 84.7282C56.77 84.5382 59.81 83.6382 60.44 82.8482C60.7633 82.1304 60.979 81.3689 61.08 80.5882C59.31 76.2682 49.29 69.4782 47.15 69.4782C45.68 71.1782 42.6 80.1482 42.56 83.6082Z" fill="#686766"/>
<path d="M60.05 112.158C59.8598 112.158 59.6708 112.127 59.49 112.068C55.78 110.968 46.87 104.348 45.66 101.808C45.5097 101.402 45.464 100.965 45.5269 100.537C45.5898 100.109 45.7594 99.7036 46.02 99.3582C48.13 95.8182 57.78 88.8682 62.83 88.6082H62.9C64.16 88.6082 66.41 90.3681 66.83 90.9681C69.24 94.3881 65.49 106.438 62.65 110.368C61.79 111.608 60.92 112.158 60.05 112.158ZM47.99 100.908C49.17 102.838 56.76 108.538 59.99 109.638C60.74 109.108 62.59 105.958 63.99 100.868C65.24 96.4082 65.33 93.2382 64.77 92.3982C64.1742 91.8618 63.4997 91.42 62.77 91.0882C58.2 91.4382 48.65 98.8681 47.99 100.908Z" fill="#686766"/>
<path d="M78.06 112.328C77.6657 112.301 77.2822 112.187 76.9366 111.995C76.5911 111.803 76.2918 111.538 76.06 111.218C73.34 108.108 69.72 96.778 71.06 91.898C71.38 90.698 73.82 89.048 74.52 88.828C78.52 87.608 88.82 94.888 91.69 98.828C92.75 100.268 92.97 101.458 92.34 102.358C90.15 105.548 81.1 111.978 78.34 112.358L78.06 112.328ZM73.38 92.608C72.28 97.138 76.38 108.518 78.13 109.778C80.33 109.248 88.13 103.778 90.13 101.048C89.86 100.168 87.44 97.438 83.04 94.508C79.18 91.938 76.19 90.878 75.22 91.148C74.5398 91.5438 73.9201 92.0355 73.38 92.608Z" fill="#686766"/>
<path d="M88.5599 87.378C84.0699 87.378 79.14 86.688 76.72 85.108C75.72 84.428 74.86 81.598 74.87 80.858C74.93 76.668 85.0499 69.138 89.6499 67.618C91.3499 67.058 92.5499 67.218 93.2199 68.088C95.57 71.158 98.8899 81.758 98.3699 84.518C98.2562 84.9371 98.0378 85.3203 97.7351 85.6317C97.4325 85.9431 97.0556 86.1724 96.64 86.298C94.0285 87.1189 91.2953 87.4842 88.5599 87.378ZM78.16 83.088C82.16 85.538 94.2199 85.148 95.9599 83.878C96.1299 81.608 93.38 72.608 91.38 69.758C90.44 69.758 87.11 71.218 82.98 74.478C79.34 77.358 77.41 79.868 77.37 80.878C77.5199 81.6504 77.7862 82.3956 78.16 83.088Z" fill="#686766"/>
<path d="M356.94 119.678C375.011 119.678 389.66 105.029 389.66 86.9583C389.66 68.8875 375.011 54.2383 356.94 54.2383C338.869 54.2383 324.22 68.8875 324.22 86.9583C324.22 105.029 338.869 119.678 356.94 119.678Z" fill="black"/>
<path d="M356.94 112.668C371.139 112.668 382.65 101.158 382.65 86.9583C382.65 72.759 371.139 61.2483 356.94 61.2483C342.741 61.2483 331.23 72.759 331.23 86.9583C331.23 101.158 342.741 112.668 356.94 112.668Z" fill="black"/>
<path d="M356.94 113.908C351.612 113.898 346.406 112.309 341.981 109.342C337.556 106.375 334.109 102.162 332.077 97.237C330.045 92.3117 329.518 86.8945 330.564 81.67C331.609 76.4455 334.18 71.6482 337.951 67.8841C341.722 64.1201 346.524 61.5583 351.751 60.5225C356.977 59.4867 362.393 60.0233 367.315 62.0645C372.236 64.1058 376.442 67.56 379.402 71.9909C382.361 76.4217 383.94 81.6302 383.94 86.9583C383.927 94.1104 381.076 100.965 376.014 106.018C370.952 111.071 364.092 113.908 356.94 113.908ZM356.94 62.4983C352.099 62.4923 347.364 63.9227 343.336 66.6083C339.308 69.2939 336.167 73.1141 334.31 77.5855C332.454 82.0569 331.966 86.9784 332.907 91.7274C333.849 96.4763 336.178 100.839 339.6 104.264C343.022 107.689 347.383 110.022 352.131 110.967C356.879 111.913 361.801 111.428 366.274 109.576C370.747 107.723 374.57 104.585 377.259 100.559C379.948 96.5329 381.382 91.7997 381.38 86.9583C381.375 80.4762 378.799 74.2608 374.217 69.6753C369.635 65.0899 363.422 62.5089 356.94 62.4983Z" fill="#232323"/>
<path d="M356.94 90.4682C358.878 90.4682 360.45 88.8968 360.45 86.9583C360.45 85.0197 358.878 83.4482 356.94 83.4482C355.001 83.4482 353.43 85.0197 353.43 86.9583C353.43 88.8968 355.001 90.4682 356.94 90.4682Z" fill="#CCCCCC"/>
<g opacity="0.2">
<path opacity="0.2" d="M356.94 93.9982C360.828 93.9982 363.98 90.8463 363.98 86.9582C363.98 83.0701 360.828 79.9182 356.94 79.9182C353.052 79.9182 349.9 83.0701 349.9 86.9582C349.9 90.8463 353.052 93.9982 356.94 93.9982Z" fill="#CCCCCC"/>
</g>
<path d="M356.87 81.1482C356.322 81.1656 355.774 81.1118 355.24 80.9882C351.53 79.7082 347.75 68.5782 347.73 64.0682C347.73 62.3682 348.23 61.3282 349.23 60.9782C352.63 59.7782 362.97 59.8882 365.23 61.1482C365.579 61.374 365.865 61.6856 366.059 62.0533C366.253 62.421 366.35 62.8324 366.34 63.2482C366.69 67.0682 363.22 77.5882 359.56 80.5582C358.737 81.0059 357.804 81.2105 356.87 81.1482ZM356.02 78.6282C356.723 78.7055 357.434 78.6785 358.13 78.5482C361.43 75.7282 364.45 65.2382 363.9 63.2382C362.02 62.5282 353.49 62.2382 350.27 63.2382C349.97 64.2382 350.56 68.1082 352.27 72.5182C353.76 76.3182 355.25 78.3382 356.02 78.6082V78.6282Z" fill="#686766"/>
<path d="M339.55 89.4684C337.132 89.5097 334.72 89.2204 332.38 88.6084C330.76 88.0884 329.93 87.2884 329.9 86.2284C329.81 82.6284 333.11 72.8284 335.02 71.0284C335.343 70.7672 335.727 70.5918 336.136 70.5183C336.545 70.4449 336.966 70.4759 337.36 70.6084C341.1 71.4684 350.03 78.0184 351.72 82.4184C352.16 83.5684 351.18 86.1684 350.78 86.6984C349.28 88.6784 344.22 89.4684 339.55 89.4684ZM332.38 85.9784C333.24 86.5684 337.11 87.2084 341.83 86.9784C345.89 86.7384 348.27 85.9784 348.83 85.3084C349.112 84.6706 349.307 83.998 349.41 83.3084C347.74 79.3084 338.7 73.1784 336.62 73.0884C335.27 74.6084 332.38 82.6084 332.38 85.9784Z" fill="#686766"/>
<path d="M348.46 112.608C348.273 112.608 348.087 112.577 347.91 112.518C344.46 111.518 336.16 105.328 335.04 102.958C334.89 102.57 334.842 102.15 334.902 101.739C334.962 101.327 335.126 100.938 335.38 100.608C337.38 97.3083 346.38 90.8383 351.04 90.6083C352.31 90.5183 354.44 92.2783 354.82 92.8283C357.07 96.0283 353.59 107.258 350.95 110.928C350.697 111.385 350.34 111.776 349.907 112.068C349.474 112.36 348.978 112.545 348.46 112.608ZM337.38 102.068C338.47 103.738 345.22 108.978 348.38 110.068C349.21 109.438 351.01 105.948 352.21 101.378C353.21 97.4383 353.21 94.9283 352.78 94.2383C352.253 93.7649 351.66 93.3707 351.02 93.0683C346.71 93.4083 338.1 100.118 337.38 102.068Z" fill="#686766"/>
<path d="M365.15 112.748C364.775 112.721 364.41 112.613 364.08 112.432C363.75 112.251 363.464 112.001 363.24 111.698C360.72 108.808 357.34 98.2482 358.56 93.6982C358.88 92.5082 361.2 90.9882 361.83 90.7882C365.57 89.6382 375.17 96.4282 377.83 100.068C378.83 101.438 379.04 102.568 378.43 103.448C376.43 106.448 367.96 112.448 365.36 112.738L365.15 112.748ZM360.92 94.4582C359.92 98.6782 363.63 108.948 365.26 110.238C367.2 109.708 374.26 104.918 376.26 102.238C375.91 101.238 373.16 98.4582 369.18 95.9082C365.76 93.7082 363.37 92.9082 362.57 93.1682C361.963 93.5192 361.407 93.9534 360.92 94.4582Z" fill="#686766"/>
<path d="M374.89 89.6082C370.71 89.6082 366.12 88.9682 363.89 87.4982C362.89 86.8282 362.12 84.1482 362.13 83.4982C362.19 79.5882 371.61 72.5482 375.9 71.1382C377.51 70.6082 378.65 70.7582 379.3 71.6082C381.49 74.4682 384.58 84.3382 384.09 86.9082C383.978 87.3159 383.761 87.6871 383.461 87.9853C383.161 88.2834 382.788 88.4982 382.38 88.6082C379.96 89.3711 377.426 89.7094 374.89 89.6082ZM365.3 85.4782C369.01 87.7482 379.92 87.3782 381.65 86.2282C381.75 84.2282 379.37 76.0382 377.44 73.2782C376.44 73.2782 372.89 75.0582 369.23 78.0582C366.08 80.6382 364.62 82.6782 364.58 83.4982C364.722 84.1931 364.964 84.8635 365.3 85.4882V85.4782Z" fill="#686766"/>
<path d="M1.51001 74.2781V84.8681L22.32 106.568H34.47L25.56 52.3281H11.8L6.85001 71.1581L1.51001 74.2781Z" fill="#050505"/>
<path d="M204.98 17.9182H207.6C208.271 17.9184 208.929 18.1057 209.499 18.459C210.07 18.8122 210.531 19.3176 210.83 19.9182L222.16 38.0282C222.45 38.6119 222.577 39.2632 222.526 39.913C222.476 40.5628 222.251 41.1869 221.875 41.7191C221.498 42.2512 220.985 42.6716 220.389 42.9355C219.793 43.1995 219.137 43.2971 218.49 43.2182L206.65 41.8082C205.803 41.7056 205.02 41.3073 204.438 40.6834C203.856 40.0595 203.513 39.2502 203.47 38.3982L201.38 21.7082C201.357 21.2204 201.433 20.733 201.603 20.2753C201.774 19.8176 202.035 19.3992 202.371 19.0451C202.708 18.691 203.112 18.4087 203.56 18.215C204.009 18.0213 204.492 17.9204 204.98 17.9182Z" fill="#444131"/>
<g opacity="0.8">
<path opacity="0.8" d="M118.74 13.7083L240.99 2.83829L265.99 1.21826C265.99 1.21826 333.7 23.3483 362.28 39.0983C390.86 54.8483 290.28 54.0383 290.28 54.0383L118.74 30.9583V13.7083Z" fill="#444131"/>
</g>
<path d="M467.3 79.1682C467.3 79.1682 410.03 38.9182 351.3 34.7582C320.97 22.9282 287.03 8.97818 264.56 4.11818C263.56 3.90818 274.56 2.97818 273.56 2.77818C267.78 1.61818 251.94 1.50817 246.56 1.32817C195.78 -0.381831 12.01 27.7182 12.01 27.7182L6.08 54.3282H14.25L13.37 60.4682H4.42L1.5 71.2782L10.62 75.2782L11 85.6882L30.49 86.9682C30.49 65.5882 47.82 47.0782 69.2 47.0782C90.58 47.0782 106.73 65.5882 106.73 86.9682C106.73 97.1982 102.16 113.418 102.16 113.418H324.69C324.69 113.418 320.3 98.5782 320.3 89.3482C320.3 69.2482 336.59 51.7782 356.69 51.7782C376.79 51.7782 393.09 69.2482 393.09 89.3482C393.09 98.5782 389.88 113.418 389.88 113.418H461.56L469.47 106.548L462.59 86.6782L467.3 79.1682ZM311.7 42.6082L131.7 28.6082L134.44 20.3882C134.44 20.3882 211.38 8.60818 246.57 9.08818C281.76 9.56818 335.87 37.8782 335.87 37.8782L311.7 42.6082Z" fill="#F9D500"/>
<path d="M462.03 114.608H388.38L388.7 113.108C388.7 112.958 391.89 98.2882 391.89 89.2982C391.89 69.6082 375.79 52.9682 356.73 52.9682C337.67 52.9682 321.54 69.6082 321.54 89.3382C321.54 98.2882 325.83 112.908 325.88 113.058L326.38 114.608H100.54L100.98 113.028C100.98 112.868 105.5 96.8582 105.5 86.9182C105.5 65.6082 89.22 48.2682 69.21 48.2682C48.9 48.2682 31.74 65.9682 31.74 86.9182V91.4682H29.26V88.0782L9.81 86.7982L9.38 76.0882L0 71.9682L3.45001 59.2282H12.27L12.79 55.5682H4.51001L10.99 26.6082L11.83 26.4782C13.67 26.1982 196.31 -1.66177 246.61 0.0782303C247.61 0.0782303 249.1 0.148236 250.78 0.178236C258.07 0.348236 269.09 0.598241 273.86 1.55824L274.86 1.76823V2.85823C274.86 3.85823 274.66 4.02822 271.19 4.43822C290.19 9.43822 315.25 19.2682 339.54 28.8082C343.54 30.3982 347.61 31.9882 351.54 33.5282C409.82 37.7382 467.36 77.7382 467.94 78.1382L468.94 78.8182L463.94 86.8182L470.94 106.918L462.03 114.608ZM391.38 112.168H461.08L468.01 106.168L461.2 86.5282L465.6 79.5282C457.82 74.2882 404.76 39.7982 351.23 36.0082L350.87 35.9282L338.66 31.1382C311.66 20.5182 283.71 9.53822 264.32 5.34822L263.32 5.11824V4.03822C263.32 3.58822 263.38 3.30822 263.73 3.09822C259.25 2.87822 254.35 2.75824 250.73 2.67824C249.04 2.67824 247.59 2.60822 246.54 2.56822C198.22 0.988221 26.61 26.7682 13.05 28.8182L7.65001 53.0982H15.65L14.43 61.7082H5.38L2.99001 70.6082L11.84 74.4982L12.2 84.5682L29.28 85.6082C29.99 63.8982 47.98 45.7982 69.21 45.7982C90.44 45.7982 107.97 64.2482 107.97 86.9282C107.97 95.4482 104.97 107.788 103.79 112.138H323.05C321.91 108.028 319.05 96.9282 319.05 89.3082C319.05 68.3082 336.28 50.4982 356.68 50.4982C377.08 50.4982 394.31 68.2682 394.31 89.3082C394.32 96.9682 392.21 108.138 391.38 112.168ZM311.78 43.8782H311.61L130.03 29.7782L133.51 19.3282L134.26 19.2182C135.03 19.0982 211.72 7.38822 246.58 7.84822C281.65 8.30822 335.9 36.4882 336.45 36.7782L339.57 38.4082L311.78 43.8782ZM133.38 27.5482L311.62 41.3882L332.08 37.3882C319.96 31.3882 276.15 10.7482 246.54 10.3882C213.7 9.95823 143.42 20.3882 135.38 21.6082L133.38 27.5482Z" fill="#050505"/>
<path d="M446.58 86.6082C434.29 59.8882 373.97 43.9482 356.49 42.5382C336.18 40.9082 313.49 48.0382 313.25 48.1082H313.13H313.01C311.38 47.9782 150.92 34.2682 132.38 33.3682C124.68 33.0082 117.38 32.6082 110.38 32.2182C70.82 30.0282 42.24 28.4582 16.92 36.1482L16.56 34.9582C42.09 27.2082 70.76 28.7882 110.45 30.9582C117.45 31.3382 124.74 31.7482 132.38 32.1182C150.78 33.0082 307.76 46.4082 312.99 46.8482C314.81 46.2882 336.81 39.6682 356.58 41.2682C374.23 42.6882 435.19 58.8782 447.7 86.0482L446.58 86.6082Z" fill="#050505"/>
<path d="M9.61998 37.6082L15.57 43.8082L13.35 53.2382H6.84998L9.61998 37.6082Z" fill="#F72900"/>
<path d="M13.84 53.8583H6.10999L9.21999 36.2983L16.22 43.6183L13.84 53.8583ZM7.59 52.6083H12.86L14.86 43.9883L9.98999 38.9083L7.59 52.6083Z" fill="#0A0A0A"/>
<path d="M14.0074 52.6601L13.7628 53.8757L42.5946 59.6788L42.8392 58.4631L14.0074 52.6601Z" fill="#050505"/>
<path d="M321.97 101.818H104.99V103.058H321.97V101.818Z" fill="#050505"/>
<path d="M313 102.448L311.76 102.428L312.44 49.9582L311.12 46.3782L303.57 25.3482L304.74 24.9282L313.68 49.7482V49.8682L313 102.448Z" fill="#050505"/>
<path d="M198.26 102.678L176.33 49.4282L184.4 37.1582L190.46 32.0882L192.7 13.4082L193.93 13.5582L191.63 32.7182L185.27 38.0482L177.73 49.5582L199.4 102.208L198.26 102.678Z" fill="#050505"/>
<path d="M119.38 32.9281L115.89 25.8681C110.23 25.6181 40.77 22.8681 11.07 32.4181L10.69 31.2381C41.69 21.2381 115.58 24.6081 116.32 24.6481H116.68L120.49 32.3581L119.38 32.9281Z" fill="#050505"/>
<path d="M230.32 97.9982L155.25 93.1982L129.19 48.4082L209.77 53.7082L209.69 54.9482L131.43 49.7982L155.99 92.0082L230.4 96.7582L230.32 97.9982Z" fill="#050505"/>
<path d="M203.85 54.0382L177.44 52.1282L176.33 49.4282L179.14 45.1482L201.38 46.7582L203.85 54.0382ZM178.29 50.9482L202.08 52.6682L200.48 47.9382L179.78 46.4282L177.78 49.5582L178.29 50.9482Z" fill="#050505"/>
<path d="M459.05 74.7882L438.58 74.3383L384.37 65.9382L384.56 64.7083L438.69 73.1082L459.08 73.5482L459.05 74.7882Z" fill="#050505"/>
<path d="M403.29 103.108L402.05 103.028C402.2 100.738 403.3 80.4182 397.93 72.8982L398.93 72.1782C404.44 79.8882 403.53 99.2982 403.29 103.108Z" fill="#050505"/>
<path d="M447.14 86.3281L462.59 86.6681L469.47 106.538L439.77 105.748L447.14 86.3281Z" fill="#F9D500"/>
<path d="M470.38 107.178L438.91 106.338L446.75 85.6982L463.06 86.0583L470.38 107.178ZM440.69 105.178L468.62 105.918L462.17 87.3083L447.6 86.9883L440.69 105.178Z" fill="#050505"/>
<path d="M445.16 92.2283L453.18 92.5583L450.45 105.748H439.77L445.16 92.2283Z" fill="#050505"/>
<path d="M411.81 57.9983L422.38 59.9283C422.38 59.9283 444.38 64.4983 451.64 73.7183H438.59C438.59 73.7183 423.75 63.4583 411.81 57.9983Z" fill="#D8D2D2"/>
<path d="M452.92 74.3383H438.38L438.22 74.2283C438.07 74.1283 423.29 63.9383 411.54 58.5583L407.02 56.4983L422.48 59.3183C423.4 59.5083 444.85 64.0383 452.12 73.3183L452.92 74.3383ZM438.78 73.0983H450.3C442.55 64.8183 422.47 60.5783 422.3 60.5383L416.19 59.4183C423.968 63.556 431.509 68.123 438.78 73.0983Z" fill="#050505"/>
<path d="M462.236 86.0981L451.045 93.7012L451.741 94.7269L462.933 87.1238L462.236 86.0981Z" fill="#050505"/>
<path d="M426.94 66.2383C426.94 66.2383 436.71 66.9083 438.59 68.7683C439.994 70.2791 441.228 71.9389 442.27 73.7183H438.59L426.94 66.2383Z" fill="#B5B5B5"/>
<path d="M443.38 74.3383H438.38L424.54 65.4482L426.95 65.6183C427.95 65.6883 437.01 66.3582 438.95 68.3282C440.393 69.8771 441.661 71.5808 442.73 73.4082L443.38 74.3383ZM438.8 73.0982H441.19C440.321 71.7059 439.316 70.4029 438.19 69.2083C437.19 68.2083 432.97 67.4782 429.44 67.0782L438.8 73.0982Z" fill="#050505"/>
<path d="M30.88 24.3281H29.64V27.9581H30.88V24.3281Z" fill="#050505"/>
<g opacity="0.3">
<path opacity="0.3" d="M195.64 94.6881L159.7 87.6581L143.12 53.3581L208.9 54.8581L131.09 49.5681L156.39 93.0681L195.64 94.6881Z" fill="#050505"/>
</g>
<path d="M117.575 27.1505L117.499 28.3882L131.653 29.2539L131.728 28.0162L117.575 27.1505Z" fill="#050505"/>
<path d="M356.07 42.3081L351.09 36.5981L335.95 38.4881L335.8 37.2581L351.59 35.2881L357 41.4981L356.07 42.3081Z" fill="#050505"/>
<path d="M13.65 54.8383L12.43 54.6083L16.04 35.9383L10.4 33.6983L10.86 32.5483L17.45 35.1683L13.65 54.8383Z" fill="#0A0A0A"/>
</svg>
