
<svg xmlns="http://www.w3.org/2000/svg" version="1.1" xmlns:xlink="http://www.w3.org/1999/xlink" preserveAspectRatio="none" x="0px" y="0px" width="1024px" height="1024px" viewBox="0 0 1024 1024">
<defs>
<g id="Layer0_0_MEMBER_0_MEMBER_0_FILL">
<path fill="#79A139" stroke="none" d="
M 473.85 330.35
L 473.85 322.35 381.9 269.3 289.95 322.35 289.95 330.35 381.9 383.45 473.85 330.35 Z"/>
</g>

<g id="Layer0_0_MEMBER_0_MEMBER_1_FILL">
<path fill="#719634" stroke="none" d="
M 381.9 375.45
L 381.9 383.45 473.85 330.35 473.85 322.35 381.9 375.45 Z"/>
</g>

<g id="Layer0_0_MEMBER_0_MEMBER_2_FILL">
<path fill="#9CC459" stroke="none" d="
M 381.9 375.45
L 473.85 322.35 381.9 269.3 289.95 322.35 381.9 375.45 Z"/>
</g>

<g id="Layer0_0_MEMBER_0_MEMBER_3_FILL">
<path fill="#B7E76A" stroke="none" d="
M 381.9 368.6
L 462 322.35 381.9 276.1 301.8 322.35 381.9 368.6 Z"/>
</g>

<g id="Layer0_0_MEMBER_1_FILL">
<path fill="#000000" fill-opacity="0.14901960784313725" stroke="none" d="
M 75.75 16.45
L 47.2 0 0 26.45 29.25 43.3 75.75 16.45 Z"/>
</g>

<g id="Layer0_0_MEMBER_2_FILL">
<path fill="#000000" fill-opacity="0.14901960784313725" stroke="none" d="
M 21.45 0
L 0 11.8 14.2 20 35.15 7.9 21.45 0 Z"/>
</g>

<g id="Layer0_0_MEMBER_3_FILL">
<path fill="#000000" fill-opacity="0.14901960784313725" stroke="none" d="
M 46.5 8
L 46.5 0 0 26.85 0 34.85 46.5 8 Z"/>
</g>

<g id="Layer0_0_MEMBER_4_FILL">
<path fill="#000000" fill-opacity="0.14901960784313725" stroke="none" d="
M 0 20.1
L 20.95 8 20.95 0 0 12.1 0 20.1 Z"/>
</g>

<g id="Layer0_0_MEMBER_5_FILL">
<path fill="#9CC459" stroke="none" d="
M 363.35 338.25
L 339.4 324.45 316.15 337.45 340.1 351.3 363.35 338.25 Z"/>
</g>

<g id="Layer0_0_MEMBER_6_MEMBER_0_MEMBER_0_FILL">
<path fill="#D2B289" stroke="none" d="
M 415.05 282.85
L 415.05 284.7 462 311.8 462 309.95 415.05 282.85 Z"/>
</g>

<g id="Layer0_0_MEMBER_6_MEMBER_0_MEMBER_1_FILL">
<path fill="#E4C39A" stroke="none" d="
M 415.45 282.85
L 415.05 282.85 462 309.95 462.35 309.95 415.45 282.85 Z"/>
</g>

<g id="Layer0_0_MEMBER_6_MEMBER_0_MEMBER_2_FILL">
<path fill="#E4C39A" stroke="none" d="
M 462 309.95
L 462 311.8 462.35 311.8 462.35 309.95 462 309.95 Z"/>
</g>

<g id="Layer0_0_MEMBER_6_MEMBER_1_MEMBER_0_FILL">
<path fill="#E4C39A" stroke="none" d="
M 419.25 280.75
L 418.4 281.25 418.4 298.15 419.25 297.65 419.25 280.75 Z"/>
</g>

<g id="Layer0_0_MEMBER_6_MEMBER_1_MEMBER_1_FILL">
<path fill="#FFE8CD" stroke="none" d="
M 419.25 280.75
L 417.95 278.45 417.15 278.95 418.4 281.25 419.25 280.75 Z"/>
</g>

<g id="Layer0_0_MEMBER_6_MEMBER_1_MEMBER_2_FILL">
<path fill="#F2D7B4" stroke="none" d="
M 418.4 281.25
L 417.15 278.95 416.2 279.95 416.2 296.85 418.4 298.15 418.4 281.25 Z"/>
</g>

<g id="Layer0_0_MEMBER_6_MEMBER_2_MEMBER_0_FILL">
<path fill="#E4C39A" stroke="none" d="
M 423.1 283
L 422.3 283.5 422.3 300.4 423.1 299.9 423.1 283 Z"/>
</g>

<g id="Layer0_0_MEMBER_6_MEMBER_2_MEMBER_1_FILL">
<path fill="#FFE8CD" stroke="none" d="
M 423.1 283
L 421.85 280.7 421.05 281.2 422.3 283.5 423.1 283 Z"/>
</g>

<g id="Layer0_0_MEMBER_6_MEMBER_2_MEMBER_2_FILL">
<path fill="#F2D7B4" stroke="none" d="
M 422.3 283.5
L 421.05 281.2 420.1 282.2 420.1 299.1 422.3 300.4 422.3 283.5 Z"/>
</g>

<g id="Layer0_0_MEMBER_6_MEMBER_3_MEMBER_0_FILL">
<path fill="#E4C39A" stroke="none" d="
M 427 285.25
L 426.2 285.75 426.2 302.65 427 302.15 427 285.25 Z"/>
</g>

<g id="Layer0_0_MEMBER_6_MEMBER_3_MEMBER_1_FILL">
<path fill="#FFE8CD" stroke="none" d="
M 427 285.25
L 425.75 282.95 424.9 283.4 426.2 285.75 427 285.25 Z"/>
</g>

<g id="Layer0_0_MEMBER_6_MEMBER_3_MEMBER_2_FILL">
<path fill="#F2D7B4" stroke="none" d="
M 426.2 285.75
L 424.9 283.4 424 284.45 424 301.35 426.2 302.65 426.2 285.75 Z"/>
</g>

<g id="Layer0_0_MEMBER_6_MEMBER_4_MEMBER_0_FILL">
<path fill="#E4C39A" stroke="none" d="
M 430.9 287.5
L 430.1 288 430.1 304.85 430.9 304.4 430.9 287.5 Z"/>
</g>

<g id="Layer0_0_MEMBER_6_MEMBER_4_MEMBER_1_FILL">
<path fill="#FFE8CD" stroke="none" d="
M 430.9 287.5
L 429.6 285.2 428.8 285.65 430.1 288 430.9 287.5 Z"/>
</g>

<g id="Layer0_0_MEMBER_6_MEMBER_4_MEMBER_2_FILL">
<path fill="#F2D7B4" stroke="none" d="
M 430.1 288
L 428.8 285.65 427.85 286.7 427.85 303.6 430.1 304.85 430.1 288 Z"/>
</g>

<g id="Layer0_0_MEMBER_6_MEMBER_5_MEMBER_0_FILL">
<path fill="#E4C39A" stroke="none" d="
M 434.8 289.75
L 433.95 290.2 433.95 307.1 434.8 306.65 434.8 289.75 Z"/>
</g>

<g id="Layer0_0_MEMBER_6_MEMBER_5_MEMBER_1_FILL">
<path fill="#FFE8CD" stroke="none" d="
M 434.8 289.75
L 433.5 287.45 432.7 287.9 433.95 290.2 434.8 289.75 Z"/>
</g>

<g id="Layer0_0_MEMBER_6_MEMBER_5_MEMBER_2_FILL">
<path fill="#F2D7B4" stroke="none" d="
M 433.95 290.2
L 432.7 287.9 431.75 288.95 431.75 305.85 433.95 307.1 433.95 290.2 Z"/>
</g>

<g id="Layer0_0_MEMBER_6_MEMBER_6_MEMBER_0_FILL">
<path fill="#E4C39A" stroke="none" d="
M 438.65 292
L 437.85 292.45 437.85 309.35 438.65 308.9 438.65 292 Z"/>
</g>

<g id="Layer0_0_MEMBER_6_MEMBER_6_MEMBER_1_FILL">
<path fill="#FFE8CD" stroke="none" d="
M 438.65 292
L 437.4 289.7 436.6 290.15 437.85 292.45 438.65 292 Z"/>
</g>

<g id="Layer0_0_MEMBER_6_MEMBER_6_MEMBER_2_FILL">
<path fill="#F2D7B4" stroke="none" d="
M 437.85 292.45
L 436.6 290.15 435.65 291.2 435.65 308.1 437.85 309.35 437.85 292.45 Z"/>
</g>

<g id="Layer0_0_MEMBER_6_MEMBER_7_MEMBER_0_FILL">
<path fill="#E4C39A" stroke="none" d="
M 442.55 294.25
L 441.75 294.7 441.75 311.6 442.55 311.15 442.55 294.25 Z"/>
</g>

<g id="Layer0_0_MEMBER_6_MEMBER_7_MEMBER_1_FILL">
<path fill="#FFE8CD" stroke="none" d="
M 442.55 294.25
L 441.3 291.95 440.45 292.4 441.75 294.7 442.55 294.25 Z"/>
</g>

<g id="Layer0_0_MEMBER_6_MEMBER_7_MEMBER_2_FILL">
<path fill="#F2D7B4" stroke="none" d="
M 441.75 294.7
L 440.45 292.4 439.55 293.45 439.55 310.35 441.75 311.6 441.75 294.7 Z"/>
</g>

<g id="Layer0_0_MEMBER_6_MEMBER_8_MEMBER_0_FILL">
<path fill="#E4C39A" stroke="none" d="
M 446.45 296.5
L 445.65 296.95 445.65 313.85 446.45 313.4 446.45 296.5 Z"/>
</g>

<g id="Layer0_0_MEMBER_6_MEMBER_8_MEMBER_1_FILL">
<path fill="#FFE8CD" stroke="none" d="
M 445.15 294.2
L 444.35 294.65 445.65 296.95 446.45 296.5 445.15 294.2 Z"/>
</g>

<g id="Layer0_0_MEMBER_6_MEMBER_8_MEMBER_2_FILL">
<path fill="#F2D7B4" stroke="none" d="
M 444.35 294.65
L 443.4 295.7 443.4 312.55 445.65 313.85 445.65 296.95 444.35 294.65 Z"/>
</g>

<g id="Layer0_0_MEMBER_6_MEMBER_9_MEMBER_0_FILL">
<path fill="#E4C39A" stroke="none" d="
M 449.5 299.2
L 449.5 316.1 450.35 315.65 450.35 298.75 449.5 299.2 Z"/>
</g>

<g id="Layer0_0_MEMBER_6_MEMBER_9_MEMBER_1_FILL">
<path fill="#FFE8CD" stroke="none" d="
M 449.05 296.4
L 448.25 296.9 449.5 299.2 450.35 298.75 449.05 296.4 Z"/>
</g>

<g id="Layer0_0_MEMBER_6_MEMBER_9_MEMBER_2_FILL">
<path fill="#F2D7B4" stroke="none" d="
M 449.5 316.1
L 449.5 299.2 448.25 296.9 447.3 297.95 447.3 314.8 449.5 316.1 Z"/>
</g>

<g id="Layer0_0_MEMBER_6_MEMBER_10_MEMBER_0_FILL">
<path fill="#E4C39A" stroke="none" d="
M 453.4 301.45
L 453.4 318.35 454.2 317.85 454.2 301 453.4 301.45 Z"/>
</g>

<g id="Layer0_0_MEMBER_6_MEMBER_10_MEMBER_1_FILL">
<path fill="#FFE8CD" stroke="none" d="
M 454.2 301
L 452.95 298.65 452.15 299.15 453.4 301.45 454.2 301 Z"/>
</g>

<g id="Layer0_0_MEMBER_6_MEMBER_10_MEMBER_2_FILL">
<path fill="#F2D7B4" stroke="none" d="
M 453.4 301.45
L 452.15 299.15 451.2 300.15 451.2 317.05 453.4 318.35 453.4 301.45 Z"/>
</g>

<g id="Layer0_0_MEMBER_6_MEMBER_11_MEMBER_0_FILL">
<path fill="#E4C39A" stroke="none" d="
M 457.3 303.7
L 457.3 320.6 458.1 320.1 458.1 303.2 457.3 303.7 Z"/>
</g>

<g id="Layer0_0_MEMBER_6_MEMBER_11_MEMBER_1_FILL">
<path fill="#FFE8CD" stroke="none" d="
M 458.1 303.2
L 456.85 300.9 456 301.4 457.3 303.7 458.1 303.2 Z"/>
</g>

<g id="Layer0_0_MEMBER_6_MEMBER_11_MEMBER_2_FILL">
<path fill="#F2D7B4" stroke="none" d="
M 457.3 303.7
L 456 301.4 455.1 302.4 455.1 319.3 457.3 320.6 457.3 303.7 Z"/>
</g>

<g id="Layer0_0_MEMBER_6_MEMBER_12_MEMBER_0_FILL">
<path fill="#E4C39A" stroke="none" d="
M 461.15 305.95
L 461.15 322.85 462 322.35 462 305.45 461.15 305.95 Z"/>
</g>

<g id="Layer0_0_MEMBER_6_MEMBER_12_MEMBER_1_FILL">
<path fill="#FFE8CD" stroke="none" d="
M 462 305.45
L 460.7 303.15 459.9 303.65 461.15 305.95 462 305.45 Z"/>
</g>

<g id="Layer0_0_MEMBER_6_MEMBER_12_MEMBER_2_FILL">
<path fill="#F2D7B4" stroke="none" d="
M 461.15 305.95
L 459.9 303.65 458.95 304.65 458.95 321.55 461.15 322.85 461.15 305.95 Z"/>
</g>

<g id="Layer0_0_MEMBER_7_MEMBER_0_MEMBER_0_FILL">
<path fill="#D2B289" stroke="none" d="
M 348.75 284.7
L 348.75 282.85 301.8 309.95 301.8 311.8 348.75 284.7 Z"/>
</g>

<g id="Layer0_0_MEMBER_7_MEMBER_0_MEMBER_1_FILL">
<path fill="#E4C39A" stroke="none" d="
M 348.75 282.85
L 348.35 282.85 301.45 309.95 301.8 309.95 348.75 282.85 Z"/>
</g>

<g id="Layer0_0_MEMBER_7_MEMBER_0_MEMBER_2_FILL">
<path fill="#E4C39A" stroke="none" d="
M 301.8 311.8
L 301.8 309.95 301.45 309.95 301.45 311.8 301.8 311.8 Z"/>
</g>

<g id="Layer0_0_MEMBER_7_MEMBER_1_MEMBER_0_FILL">
<path fill="#E4C39A" stroke="none" d="
M 345.4 281.25
L 344.55 280.75 344.55 297.65 345.4 298.15 345.4 281.25 Z"/>
</g>

<g id="Layer0_0_MEMBER_7_MEMBER_1_MEMBER_1_FILL">
<path fill="#FFE8CD" stroke="none" d="
M 345.85 278.45
L 344.55 280.75 345.4 281.25 346.65 278.95 345.85 278.45 Z"/>
</g>

<g id="Layer0_0_MEMBER_7_MEMBER_1_MEMBER_2_FILL">
<path fill="#F2D7B4" stroke="none" d="
M 346.65 278.95
L 345.4 281.25 345.4 298.15 347.6 296.85 347.6 279.95 346.65 278.95 Z"/>
</g>

<g id="Layer0_0_MEMBER_7_MEMBER_2_MEMBER_0_FILL">
<path fill="#E4C39A" stroke="none" d="
M 341.5 283.5
L 340.7 283 340.7 299.9 341.5 300.4 341.5 283.5 Z"/>
</g>

<g id="Layer0_0_MEMBER_7_MEMBER_2_MEMBER_1_FILL">
<path fill="#FFE8CD" stroke="none" d="
M 341.95 280.7
L 340.7 283 341.5 283.5 342.75 281.2 341.95 280.7 Z"/>
</g>

<g id="Layer0_0_MEMBER_7_MEMBER_2_MEMBER_2_FILL">
<path fill="#F2D7B4" stroke="none" d="
M 342.75 281.2
L 341.5 283.5 341.5 300.4 343.7 299.1 343.7 282.2 342.75 281.2 Z"/>
</g>

<g id="Layer0_0_MEMBER_7_MEMBER_3_MEMBER_0_FILL">
<path fill="#E4C39A" stroke="none" d="
M 337.6 285.75
L 336.8 285.25 336.8 302.15 337.6 302.65 337.6 285.75 Z"/>
</g>

<g id="Layer0_0_MEMBER_7_MEMBER_3_MEMBER_1_FILL">
<path fill="#FFE8CD" stroke="none" d="
M 338.05 282.95
L 336.8 285.25 337.6 285.75 338.9 283.4 338.05 282.95 Z"/>
</g>

<g id="Layer0_0_MEMBER_7_MEMBER_3_MEMBER_2_FILL">
<path fill="#F2D7B4" stroke="none" d="
M 338.9 283.4
L 337.6 285.75 337.6 302.65 339.8 301.35 339.8 284.45 338.9 283.4 Z"/>
</g>

<g id="Layer0_0_MEMBER_7_MEMBER_4_MEMBER_0_FILL">
<path fill="#E4C39A" stroke="none" d="
M 333.7 288
L 332.9 287.5 332.9 304.4 333.7 304.85 333.7 288 Z"/>
</g>

<g id="Layer0_0_MEMBER_7_MEMBER_4_MEMBER_1_FILL">
<path fill="#FFE8CD" stroke="none" d="
M 334.2 285.2
L 332.9 287.5 333.7 288 335 285.65 334.2 285.2 Z"/>
</g>

<g id="Layer0_0_MEMBER_7_MEMBER_4_MEMBER_2_FILL">
<path fill="#F2D7B4" stroke="none" d="
M 335 285.65
L 333.7 288 333.7 304.85 335.95 303.6 335.95 286.7 335 285.65 Z"/>
</g>

<g id="Layer0_0_MEMBER_7_MEMBER_5_MEMBER_0_FILL">
<path fill="#E4C39A" stroke="none" d="
M 329.85 290.2
L 329 289.75 329 306.65 329.85 307.1 329.85 290.2 Z"/>
</g>

<g id="Layer0_0_MEMBER_7_MEMBER_5_MEMBER_1_FILL">
<path fill="#FFE8CD" stroke="none" d="
M 330.3 287.45
L 329 289.75 329.85 290.2 331.1 287.9 330.3 287.45 Z"/>
</g>

<g id="Layer0_0_MEMBER_7_MEMBER_5_MEMBER_2_FILL">
<path fill="#F2D7B4" stroke="none" d="
M 331.1 287.9
L 329.85 290.2 329.85 307.1 332.05 305.85 332.05 288.95 331.1 287.9 Z"/>
</g>

<g id="Layer0_0_MEMBER_7_MEMBER_6_MEMBER_0_FILL">
<path fill="#E4C39A" stroke="none" d="
M 325.95 292.45
L 325.15 292 325.15 308.9 325.95 309.35 325.95 292.45 Z"/>
</g>

<g id="Layer0_0_MEMBER_7_MEMBER_6_MEMBER_1_FILL">
<path fill="#FFE8CD" stroke="none" d="
M 326.4 289.7
L 325.15 292 325.95 292.45 327.2 290.15 326.4 289.7 Z"/>
</g>

<g id="Layer0_0_MEMBER_7_MEMBER_6_MEMBER_2_FILL">
<path fill="#F2D7B4" stroke="none" d="
M 327.2 290.15
L 325.95 292.45 325.95 309.35 328.15 308.1 328.15 291.2 327.2 290.15 Z"/>
</g>

<g id="Layer0_0_MEMBER_7_MEMBER_7_MEMBER_0_FILL">
<path fill="#E4C39A" stroke="none" d="
M 322.05 294.7
L 321.25 294.25 321.25 311.15 322.05 311.6 322.05 294.7 Z"/>
</g>

<g id="Layer0_0_MEMBER_7_MEMBER_7_MEMBER_1_FILL">
<path fill="#FFE8CD" stroke="none" d="
M 322.5 291.95
L 321.25 294.25 322.05 294.7 323.35 292.4 322.5 291.95 Z"/>
</g>

<g id="Layer0_0_MEMBER_7_MEMBER_7_MEMBER_2_FILL">
<path fill="#F2D7B4" stroke="none" d="
M 324.25 310.35
L 324.25 293.45 323.35 292.4 322.05 294.7 322.05 311.6 324.25 310.35 Z"/>
</g>

<g id="Layer0_0_MEMBER_7_MEMBER_8_MEMBER_0_FILL">
<path fill="#E4C39A" stroke="none" d="
M 318.2 296.95
L 317.35 296.5 317.35 313.4 318.2 313.85 318.2 296.95 Z"/>
</g>

<g id="Layer0_0_MEMBER_7_MEMBER_8_MEMBER_1_FILL">
<path fill="#FFE8CD" stroke="none" d="
M 318.65 294.2
L 317.35 296.5 318.2 296.95 319.45 294.65 318.65 294.2 Z"/>
</g>

<g id="Layer0_0_MEMBER_7_MEMBER_8_MEMBER_2_FILL">
<path fill="#F2D7B4" stroke="none" d="
M 319.45 294.65
L 318.2 296.95 318.2 313.85 320.4 312.55 320.4 295.7 319.45 294.65 Z"/>
</g>

<g id="Layer0_0_MEMBER_7_MEMBER_9_MEMBER_0_FILL">
<path fill="#E4C39A" stroke="none" d="
M 314.3 316.1
L 314.3 299.2 313.5 298.75 313.5 315.65 314.3 316.1 Z"/>
</g>

<g id="Layer0_0_MEMBER_7_MEMBER_9_MEMBER_1_FILL">
<path fill="#FFE8CD" stroke="none" d="
M 315.55 296.9
L 314.75 296.4 313.5 298.75 314.3 299.2 315.55 296.9 Z"/>
</g>

<g id="Layer0_0_MEMBER_7_MEMBER_9_MEMBER_2_FILL">
<path fill="#F2D7B4" stroke="none" d="
M 314.3 299.2
L 314.3 316.1 316.5 314.8 316.5 297.95 315.55 296.9 314.3 299.2 Z"/>
</g>

<g id="Layer0_0_MEMBER_7_MEMBER_10_MEMBER_0_FILL">
<path fill="#E4C39A" stroke="none" d="
M 310.4 318.35
L 310.4 301.45 309.6 301 309.6 317.85 310.4 318.35 Z"/>
</g>

<g id="Layer0_0_MEMBER_7_MEMBER_10_MEMBER_1_FILL">
<path fill="#FFE8CD" stroke="none" d="
M 310.85 298.65
L 309.6 301 310.4 301.45 311.65 299.15 310.85 298.65 Z"/>
</g>

<g id="Layer0_0_MEMBER_7_MEMBER_10_MEMBER_2_FILL">
<path fill="#F2D7B4" stroke="none" d="
M 311.65 299.15
L 310.4 301.45 310.4 318.35 312.6 317.05 312.6 300.15 311.65 299.15 Z"/>
</g>

<g id="Layer0_0_MEMBER_7_MEMBER_11_MEMBER_0_FILL">
<path fill="#E4C39A" stroke="none" d="
M 306.5 320.6
L 306.5 303.7 305.7 303.2 305.7 320.1 306.5 320.6 Z"/>
</g>

<g id="Layer0_0_MEMBER_7_MEMBER_11_MEMBER_1_FILL">
<path fill="#FFE8CD" stroke="none" d="
M 306.95 300.9
L 305.7 303.2 306.5 303.7 307.8 301.4 306.95 300.9 Z"/>
</g>

<g id="Layer0_0_MEMBER_7_MEMBER_11_MEMBER_2_FILL">
<path fill="#F2D7B4" stroke="none" d="
M 307.8 301.4
L 306.5 303.7 306.5 320.6 308.75 319.3 308.75 302.4 307.8 301.4 Z"/>
</g>

<g id="Layer0_0_MEMBER_7_MEMBER_12_MEMBER_0_FILL">
<path fill="#E4C39A" stroke="none" d="
M 302.65 322.85
L 302.65 305.95 301.8 305.45 301.8 322.35 302.65 322.85 Z"/>
</g>

<g id="Layer0_0_MEMBER_7_MEMBER_12_MEMBER_1_FILL">
<path fill="#FFE8CD" stroke="none" d="
M 303.1 303.15
L 301.8 305.45 302.65 305.95 303.9 303.65 303.1 303.15 Z"/>
</g>

<g id="Layer0_0_MEMBER_7_MEMBER_12_MEMBER_2_FILL">
<path fill="#F2D7B4" stroke="none" d="
M 303.9 303.65
L 302.65 305.95 302.65 322.85 304.85 321.55 304.85 304.65 303.9 303.65 Z"/>
</g>

<g id="Layer0_0_MEMBER_8_MEMBER_0_MEMBER_0_FILL">
<path fill="#F7C687" stroke="none" d="
M 352.7 276
L 329.8 285.8 329.8 318.9 375.6 345.35 375.6 312.25 352.7 276 Z"/>
</g>

<g id="Layer0_0_MEMBER_8_MEMBER_0_MEMBER_1_FILL">
<path fill="#756349" stroke="none" d="
M 363.35 338.25
L 363.35 306.95 339.4 293.1 339.4 324.45 363.35 338.25 Z"/>
</g>

<g id="Layer0_0_MEMBER_8_MEMBER_0_MEMBER_2_FILL">
<path fill="#9B8362" stroke="none" d="
M 361.8 337.35
L 361.8 307.95 340.95 295.9 340.95 325.35 361.8 337.35 Z"/>
</g>

<g id="Layer0_0_MEMBER_8_MEMBER_0_MEMBER_3_FILL">
<path fill="#756349" stroke="none" d="
M 361.8 311.1
L 361.8 307.95 340.95 295.9 340.95 299.05 361.8 311.1 Z"/>
</g>

<g id="Layer0_0_MEMBER_8_MEMBER_0_MEMBER_4_FILL">
<path fill="#756349" stroke="none" d="
M 361.8 314.5
L 340.95 302.5 340.95 305.6 361.8 317.65 361.8 314.5 Z"/>
</g>

<g id="Layer0_0_MEMBER_8_MEMBER_0_MEMBER_5_FILL">
<path fill="#756349" stroke="none" d="
M 361.8 321.1
L 340.95 309.05 340.95 312.2 361.8 324.2 361.8 321.1 Z"/>
</g>

<g id="Layer0_0_MEMBER_8_MEMBER_0_MEMBER_6_FILL">
<path fill="#756349" stroke="none" d="
M 361.8 327.65
L 340.95 315.6 340.95 318.75 361.8 330.8 361.8 327.65 Z"/>
</g>

<g id="Layer0_0_MEMBER_8_MEMBER_0_MEMBER_7_FILL">
<path fill="#756349" stroke="none" d="
M 340.95 322.2
L 340.95 325.35 361.8 337.35 361.8 334.2 340.95 322.2 Z"/>
</g>

<g id="Layer0_0_MEMBER_8_MEMBER_0_MEMBER_8_FILL">
<path fill="#E1AC67" stroke="none" d="
M 375.6 312.2
L 375.6 345.35 422.8 318.9 422.8 285.75 375.6 312.2 Z"/>
</g>

<g id="Layer0_0_MEMBER_8_MEMBER_0_MEMBER_9_FILL">
<path fill="#F7C687" stroke="none" d="
M 392.1 302.9
L 392.1 336 407.15 344.45 407.15 318.75 392.1 302.9 Z"/>
</g>

<g id="Layer0_0_MEMBER_8_MEMBER_0_MEMBER_10_FILL">
<path fill="#9B8362" stroke="none" d="
M 393.85 312.35
L 393.85 337 405.4 343.45 405.4 324.2 393.85 312.35 Z"/>
</g>

<g id="Layer0_0_MEMBER_8_MEMBER_0_MEMBER_11_FILL">
<path fill="#E1AC67" stroke="none" d="
M 407.15 318.75
L 407.15 344.45 428.6 332.65 428.6 306.95 407.15 318.75 Z"/>
</g>

<g id="Layer0_0_MEMBER_8_MEMBER_0_MEMBER_12_MEMBER_0_FILL">
<path fill="#9B8362" stroke="none" d="
M 424.3 327.15
L 424.3 314.75 413.55 320.95 413.55 333.35 424.3 327.15 Z"/>
</g>

<g id="Layer0_0_MEMBER_8_MEMBER_0_MEMBER_12_MEMBER_1_FILL">
<path fill="#68B5DC" stroke="none" d="
M 423.25 326.55
L 423.25 316.55 414.6 321.55 414.6 331.55 423.25 326.55 Z"/>
</g>

<g id="Layer0_0_MEMBER_8_MEMBER_0_MEMBER_12_MEMBER_2_FILL">
<path fill="#9B8362" stroke="none" d="
M 419.45 329.95
L 419.45 317.55 418.35 318.2 418.35 330.6 419.45 329.95 Z"/>
</g>

<g id="Layer0_0_MEMBER_8_MEMBER_0_MEMBER_12_MEMBER_3_FILL">
<path fill="#9B8362" stroke="none" d="
M 413.55 327.8
L 424.3 321.6 424.3 320.3 413.55 326.5 413.55 327.8 Z"/>
</g>

<g id="Layer0_0_MEMBER_8_MEMBER_0_MEMBER_13_FILL">
<path fill="#FFE8CD" stroke="none" d="
M 413.8 290.1
Q 412.9 289.95 412.05 290.4
L 393 300.9
Q 391.8 301.6 391.6 302.95 391.35 304.3 392.3 305.25
L 405.3 318.9
Q 405.95 319.6 406.9 319.75 407.8 319.9 408.65 319.45
L 427.7 308.95
Q 428.9 308.3 429.1 306.95 429.35 305.6 428.4 304.6
L 415.4 290.9
Q 414.75 290.25 413.8 290.1 Z"/>
</g>

<g id="Layer0_0_MEMBER_8_MEMBER_0_MEMBER_14_FILL">
<path fill="#D2B187" stroke="none" d="
M 414.45 290.25
Q 413.2 289.8 412.05 290.4
L 393 300.9
Q 391.8 301.6 391.6 302.95 391.35 304.3 392.3 305.25
L 405.3 318.9
Q 405.9 319.55 406.75 319.7 407.55 319.9 408.35 319.55 407.9 319.45 407.35 318.9
L 394.35 305.25
Q 393.4 304.3 393.65 302.95 393.85 301.6 395.05 300.9
L 414.1 290.4 414.45 290.25 Z"/>
</g>

<g id="Layer0_0_MEMBER_8_MEMBER_0_MEMBER_15_FILL">
<path fill="#FFE8CD" stroke="none" d="
M 424.55 287.6
Q 425 286.8 424.1 285.65
L 400.4 248.5
Q 399.95 247.9 399.4 247.9
L 375.7 257.75
Q 375.4 257.75 375.25 258
L 328.5 284.2 352.7 276 377.35 314.05 424.1 287.85
Q 424.45 287.85 424.55 287.6 Z"/>
</g>

<g id="Layer0_0_MEMBER_8_MEMBER_0_MEMBER_16_MEMBER_0_FILL">
<path fill="#F7C687" stroke="none" d="
M 352.8 253.05
L 352.55 272.75 365.3 267.45
Q 365.7 267.45 366.2 267.95
L 380.35 290.2 380.6 290.35 380.9 269.15 352.8 253.05 Z"/>
</g>

<g id="Layer0_0_MEMBER_8_MEMBER_0_MEMBER_16_MEMBER_1_FILL">
<path fill="#E1AC67" stroke="none" d="
M 380.6 290.35
L 403.35 277.5 403.65 256.3 392.35 251.4 380.9 269.15 380.6 290.35 Z"/>
</g>

<g id="Layer0_0_MEMBER_8_MEMBER_0_MEMBER_16_MEMBER_2_MEMBER_0_FILL">
<path fill="#9B8362" stroke="none" d="
M 399.15 272.8
L 399.15 260 388.05 266.4 388.05 279.2 399.15 272.8 Z"/>
</g>

<g id="Layer0_0_MEMBER_8_MEMBER_0_MEMBER_16_MEMBER_2_MEMBER_1_FILL">
<path fill="#C1A987" stroke="none" d="
M 399.15 260
L 397.75 259.25 386.7 265.6 388.05 266.4 399.15 260 Z"/>
</g>

<g id="Layer0_0_MEMBER_8_MEMBER_0_MEMBER_16_MEMBER_2_MEMBER_2_FILL">
<path fill="#756349" stroke="none" d="
M 386.7 265.6
L 386.7 278.4 388.05 279.2 388.05 266.4 386.7 265.6 Z"/>
</g>

<g id="Layer0_0_MEMBER_8_MEMBER_0_MEMBER_16_MEMBER_2_MEMBER_3_FILL">
<path fill="#68B5DC" stroke="none" d="
M 398.05 272.15
L 398.05 261.9 389.15 267.05 389.15 277.3 398.05 272.15 Z"/>
</g>

<g id="Layer0_0_MEMBER_8_MEMBER_0_MEMBER_16_MEMBER_2_MEMBER_4_FILL">
<path fill="#9B8362" stroke="none" d="
M 397.25 273.9
L 397.25 261.1 396.1 261.8 396.1 274.55 397.25 273.9 Z"/>
</g>

<g id="Layer0_0_MEMBER_8_MEMBER_0_MEMBER_16_MEMBER_2_MEMBER_5_FILL">
<path fill="#9B8362" stroke="none" d="
M 395.25 275.05
L 395.25 262.25 394.1 262.95 394.1 275.7 395.25 275.05 Z"/>
</g>

<g id="Layer0_0_MEMBER_8_MEMBER_0_MEMBER_16_MEMBER_2_MEMBER_6_FILL">
<path fill="#9B8362" stroke="none" d="
M 393.25 276.2
L 393.25 263.45 392.1 264.1 392.1 276.85 393.25 276.2 Z"/>
</g>

<g id="Layer0_0_MEMBER_8_MEMBER_0_MEMBER_16_MEMBER_2_MEMBER_7_FILL">
<path fill="#9B8362" stroke="none" d="
M 391.2 277.35
L 391.2 264.6 390.05 265.25 390.05 278.05 391.2 277.35 Z"/>
</g>

<g id="Layer0_0_MEMBER_8_MEMBER_0_MEMBER_16_MEMBER_3_FILL">
<path fill="#FFE8CD" stroke="none" d="
M 376.4 239.55
L 364.55 234.45
Q 364.3 234.45 364.05 234.75
L 352.2 253
Q 351.65 253.55 351.95 253.95 352.05 254.1 352.15 254.1
L 380.05 270.05 392.35 251.4 404.25 255.55 376.4 239.55 Z"/>
</g>

<g id="Layer0_0_MEMBER_8_MEMBER_0_MEMBER_16_MEMBER_4_MEMBER_0_FILL">
<path fill="#D2B187" stroke="none" d="
M 392.65 250.6
Q 392.45 250.55 392.15 250.85
L 380.3 269.1
Q 379.85 269.8 380.05 270.05 380.25 270.3 380.55 270.15
L 380.8 269.9 392.35 251.95 403.75 256.9
Q 404.25 257 404.5 256.3 404.75 255.75 404.25 255.55
L 392.65 250.6 Z"/>
</g>

<g id="Layer0_0_MEMBER_8_MEMBER_0_MEMBER_17_MEMBER_0_FILL">
<path fill="#D2B187" stroke="none" d="
M 329.55 287
L 352.7 277.15 375.9 313.75
Q 376.15 314.05 376.4 314.2 377.05 314.5 377.35 314.05 377.6 313.7 377.45 313.15 377.3 312.6 376.9 312.1
L 353.2 274.95
Q 352.75 274.35 352.2 274.35
L 328.5 284.2
Q 328.15 284.2 328 284.6 327.85 285.05 328.05 285.6 328.3 286.2 328.7 286.6 329.15 287 329.55 287 Z"/>
</g>

<g id="Layer0_0_MEMBER_9_MEMBER_0_FILL">
<path fill="#000000" fill-opacity="0.14901960784313725" stroke="none" d="
M 6.5 7.55
Q 9.2 7.55 11.1 6.45 13 5.35 13 3.75 13 2.2 11.1 1.1 9.2 0 6.5 0 3.8 0 1.9 1.1 0 2.2 0 3.75 0 5.35 1.9 6.45 3.8 7.55 6.5 7.55 Z"/>
</g>

<g id="Layer0_0_MEMBER_9_MEMBER_1_FILL">
<path fill="#A57668" stroke="none" d="
M 383.7 344.9
Q 383.7 344.2 383.2 343.65 382.65 343.15 381.9 343.15 381.2 343.15 380.65 343.65 380.15 344.2 380.15 344.9
L 380.15 357.05
Q 380.15 357.75 380.65 358.3 381.2 358.8 381.9 358.8 382.65 358.8 383.2 358.3 383.7 357.75 383.7 357.05
L 383.7 344.9 Z"/>
</g>

<g id="Layer0_0_MEMBER_9_MEMBER_2_FILL">
<path fill="#000000" fill-opacity="0.14901960784313725" stroke="none" d="
M 3.05 2.65
Q 3.55 2.1 3.55 1.4
L 3.55 0.05
Q 3.534375 0.7171875 3.05 1.25 2.5 1.75 1.75 1.75 1.05 1.75 0.5 1.25 0.015625 0.7171875 0 0.05
L 0 1.4
Q 0 2.1 0.5 2.65 1.05 3.15 1.75 3.15 2.5 3.15 3.05 2.65 Z"/>
</g>

<g id="Layer0_0_MEMBER_9_MEMBER_3_FILL">
<path fill="#000000" fill-opacity="0.14901960784313725" stroke="none" d="
M 1.75 0
Q 1.05 0 0.5 0.5 0 1.05 0 1.75
L 0 6.8
Q 1.1 7 1.75 7 2.35 7 3.55 6.8
L 3.55 1.75
Q 3.55 1.05 3.05 0.5 2.5 0 1.75 0 Z"/>
</g>

<g id="Layer0_0_MEMBER_9_MEMBER_4_FILL">
<path fill="#6C9C38" stroke="none" d="
M 390.55 339.35
Q 390.55 335 388 329 385.1 322.2 381.9 322.2 378.7 322.2 375.8 329 373.3 334.95 373.3 339.35 373.3 342.95 375.8 345.5 378.35 348 381.9 348 385.45 348 388 345.5 390.55 342.95 390.55 339.35 Z"/>
</g>

<g id="Layer0_0_MEMBER_9_MEMBER_5_FILL">
<path fill="#80B844" stroke="none" d="
M 380.05 332.05
Q 380.55 330.15 380.5 328.65 380.4 327.2 379.75 327.05 379.1 326.85 378.35 328.1 377.55 329.35 377.05 331.25 376.55 333.15 376.6 334.6 376.7 336.05 377.35 336.25 378 336.4 378.8 335.2 379.55 333.95 380.05 332.05 Z"/>
</g>

<g id="Layer0_0_MEMBER_10_MEMBER_0_FILL">
<path fill="#000000" fill-opacity="0.14901960784313725" stroke="none" d="
M 6.65 7.7
Q 9.4 7.7 11.35 6.55 13.3 5.45 13.3 3.85 13.3 2.25 11.35 1.1 9.4 0 6.65 0 3.9 0 1.95 1.1 0 2.25 0 3.85 0 5.45 1.95 6.55 3.9 7.7 6.65 7.7 Z"/>
</g>

<g id="Layer0_0_MEMBER_10_MEMBER_1_FILL">
<path fill="#6C9C38" stroke="none" d="
M 328.65 317.35
Q 328.65 313.7 326.1 311.1 323.55 308.55 319.9 308.55 316.25 308.55 313.7 311.1 311.1 313.7 311.1 317.35 311.1 321 313.7 323.55 316.25 326.1 319.9 326.1 323.55 326.1 326.1 323.55 328.65 321 328.65 317.35 Z"/>
</g>

<g id="Layer0_0_MEMBER_10_MEMBER_2_FILL">
<path fill="#80B844" stroke="none" d="
M 320.95 314.9
Q 320.95 313.45 319.9 312.4 318.9 311.4 317.45 311.4 316 311.4 315 312.4 313.95 313.45 313.95 314.9 313.95 316.3 315 317.35 316 318.35 317.45 318.35 318.9 318.35 319.9 317.35 320.95 316.3 320.95 314.9 Z"/>
</g>

<g id="Layer0_0_MEMBER_11_MEMBER_0_FILL">
<path fill="#000000" fill-opacity="0.14901960784313725" stroke="none" d="
M 6.65 7.7
Q 9.4 7.7 11.35 6.55 13.3 5.45 13.3 3.85 13.3 2.3 11.35 1.15 9.4 0.05 6.65 0.05 3.9 0.05 1.95 1.15 0 2.3 0 3.85 0 5.45 1.95 6.55 3.9 7.7 6.65 7.7 Z"/>
</g>

<g id="Layer0_0_MEMBER_11_MEMBER_1_FILL">
<path fill="#6C9C38" stroke="none" d="
M 454.3 316.75
Q 454.3 313.1 451.7 310.55 449.15 307.95 445.5 307.95 441.85 307.95 439.3 310.55 436.7 313.1 436.7 316.75 436.7 320.4 439.3 322.95 441.85 325.55 445.5 325.55 449.15 325.55 451.7 322.95 454.3 320.4 454.3 316.75 Z"/>
</g>

<g id="Layer0_0_MEMBER_11_MEMBER_2_FILL">
<path fill="#80B844" stroke="none" d="
M 446.55 314.3
Q 446.55 312.85 445.55 311.85 444.5 310.85 443.05 310.85 441.65 310.85 440.6 311.85 439.6 312.9 439.6 314.3 439.6 315.75 440.6 316.8 441.6 317.8 443.05 317.8 444.5 317.8 445.55 316.8 446.55 315.75 446.55 314.3 Z"/>
</g>
</defs>

<g transform="matrix( 5, 0, 0, 5, -1397.5,-1032.75) ">
<use xlink:href="#Layer0_0_MEMBER_0_MEMBER_0_FILL"/>
</g>

<g transform="matrix( 5, 0, 0, 5, -1397.5,-1032.75) ">
<use xlink:href="#Layer0_0_MEMBER_0_MEMBER_1_FILL"/>
</g>

<g transform="matrix( 5, 0, 0, 5, -1397.5,-1032.75) ">
<use xlink:href="#Layer0_0_MEMBER_0_MEMBER_2_FILL"/>
</g>

<g transform="matrix( 5, 0, 0, 5, -1397.5,-1032.75) ">
<use xlink:href="#Layer0_0_MEMBER_0_MEMBER_3_FILL"/>
</g>

<g transform="matrix( 5, 0, 0, 5, 480.5,561.75) ">
<use xlink:href="#Layer0_0_MEMBER_1_FILL"/>
</g>

<g transform="matrix( 5, 0, 0, 5, 638.25,630.5) ">
<use xlink:href="#Layer0_0_MEMBER_2_FILL"/>
</g>

<g transform="matrix( 5, 0, 0, 5, 626.75,644) ">
<use xlink:href="#Layer0_0_MEMBER_3_FILL"/>
</g>

<g transform="matrix( 5, 0, 0, 5, 709.25,670) ">
<use xlink:href="#Layer0_0_MEMBER_4_FILL"/>
</g>

<g transform="matrix( 5, 0, 0, 5, -1397.5,-1032.75) ">
<use xlink:href="#Layer0_0_MEMBER_5_FILL"/>
</g>

<g transform="matrix( 5, 0, 0, 5, -1397.5,-1032.75) ">
<use xlink:href="#Layer0_0_MEMBER_6_MEMBER_0_MEMBER_0_FILL"/>
</g>

<g transform="matrix( 5, 0, 0, 5, -1397.5,-1032.75) ">
<use xlink:href="#Layer0_0_MEMBER_6_MEMBER_0_MEMBER_1_FILL"/>
</g>

<g transform="matrix( 5, 0, 0, 5, -1397.5,-1032.75) ">
<use xlink:href="#Layer0_0_MEMBER_6_MEMBER_0_MEMBER_2_FILL"/>
</g>

<g transform="matrix( 5, 0, 0, 5, -1397.5,-1032.75) ">
<use xlink:href="#Layer0_0_MEMBER_6_MEMBER_1_MEMBER_0_FILL"/>
</g>

<g transform="matrix( 5, 0, 0, 5, -1397.5,-1032.75) ">
<use xlink:href="#Layer0_0_MEMBER_6_MEMBER_1_MEMBER_1_FILL"/>
</g>

<g transform="matrix( 5, 0, 0, 5, -1397.5,-1032.75) ">
<use xlink:href="#Layer0_0_MEMBER_6_MEMBER_1_MEMBER_2_FILL"/>
</g>

<g transform="matrix( 5, 0, 0, 5, -1397.5,-1032.75) ">
<use xlink:href="#Layer0_0_MEMBER_6_MEMBER_2_MEMBER_0_FILL"/>
</g>

<g transform="matrix( 5, 0, 0, 5, -1397.5,-1032.75) ">
<use xlink:href="#Layer0_0_MEMBER_6_MEMBER_2_MEMBER_1_FILL"/>
</g>

<g transform="matrix( 5, 0, 0, 5, -1397.5,-1032.75) ">
<use xlink:href="#Layer0_0_MEMBER_6_MEMBER_2_MEMBER_2_FILL"/>
</g>

<g transform="matrix( 5, 0, 0, 5, -1397.5,-1032.75) ">
<use xlink:href="#Layer0_0_MEMBER_6_MEMBER_3_MEMBER_0_FILL"/>
</g>

<g transform="matrix( 5, 0, 0, 5, -1397.5,-1032.75) ">
<use xlink:href="#Layer0_0_MEMBER_6_MEMBER_3_MEMBER_1_FILL"/>
</g>

<g transform="matrix( 5, 0, 0, 5, -1397.5,-1032.75) ">
<use xlink:href="#Layer0_0_MEMBER_6_MEMBER_3_MEMBER_2_FILL"/>
</g>

<g transform="matrix( 5, 0, 0, 5, -1397.5,-1032.75) ">
<use xlink:href="#Layer0_0_MEMBER_6_MEMBER_4_MEMBER_0_FILL"/>
</g>

<g transform="matrix( 5, 0, 0, 5, -1397.5,-1032.75) ">
<use xlink:href="#Layer0_0_MEMBER_6_MEMBER_4_MEMBER_1_FILL"/>
</g>

<g transform="matrix( 5, 0, 0, 5, -1397.5,-1032.75) ">
<use xlink:href="#Layer0_0_MEMBER_6_MEMBER_4_MEMBER_2_FILL"/>
</g>

<g transform="matrix( 5, 0, 0, 5, -1397.5,-1032.75) ">
<use xlink:href="#Layer0_0_MEMBER_6_MEMBER_5_MEMBER_0_FILL"/>
</g>

<g transform="matrix( 5, 0, 0, 5, -1397.5,-1032.75) ">
<use xlink:href="#Layer0_0_MEMBER_6_MEMBER_5_MEMBER_1_FILL"/>
</g>

<g transform="matrix( 5, 0, 0, 5, -1397.5,-1032.75) ">
<use xlink:href="#Layer0_0_MEMBER_6_MEMBER_5_MEMBER_2_FILL"/>
</g>

<g transform="matrix( 5, 0, 0, 5, -1397.5,-1032.75) ">
<use xlink:href="#Layer0_0_MEMBER_6_MEMBER_6_MEMBER_0_FILL"/>
</g>

<g transform="matrix( 5, 0, 0, 5, -1397.5,-1032.75) ">
<use xlink:href="#Layer0_0_MEMBER_6_MEMBER_6_MEMBER_1_FILL"/>
</g>

<g transform="matrix( 5, 0, 0, 5, -1397.5,-1032.75) ">
<use xlink:href="#Layer0_0_MEMBER_6_MEMBER_6_MEMBER_2_FILL"/>
</g>

<g transform="matrix( 5, 0, 0, 5, -1397.5,-1032.75) ">
<use xlink:href="#Layer0_0_MEMBER_6_MEMBER_7_MEMBER_0_FILL"/>
</g>

<g transform="matrix( 5, 0, 0, 5, -1397.5,-1032.75) ">
<use xlink:href="#Layer0_0_MEMBER_6_MEMBER_7_MEMBER_1_FILL"/>
</g>

<g transform="matrix( 5, 0, 0, 5, -1397.5,-1032.75) ">
<use xlink:href="#Layer0_0_MEMBER_6_MEMBER_7_MEMBER_2_FILL"/>
</g>

<g transform="matrix( 5, 0, 0, 5, -1397.5,-1032.75) ">
<use xlink:href="#Layer0_0_MEMBER_6_MEMBER_8_MEMBER_0_FILL"/>
</g>

<g transform="matrix( 5, 0, 0, 5, -1397.5,-1032.75) ">
<use xlink:href="#Layer0_0_MEMBER_6_MEMBER_8_MEMBER_1_FILL"/>
</g>

<g transform="matrix( 5, 0, 0, 5, -1397.5,-1032.75) ">
<use xlink:href="#Layer0_0_MEMBER_6_MEMBER_8_MEMBER_2_FILL"/>
</g>

<g transform="matrix( 5, 0, 0, 5, -1397.5,-1032.75) ">
<use xlink:href="#Layer0_0_MEMBER_6_MEMBER_9_MEMBER_0_FILL"/>
</g>

<g transform="matrix( 5, 0, 0, 5, -1397.5,-1032.75) ">
<use xlink:href="#Layer0_0_MEMBER_6_MEMBER_9_MEMBER_1_FILL"/>
</g>

<g transform="matrix( 5, 0, 0, 5, -1397.5,-1032.75) ">
<use xlink:href="#Layer0_0_MEMBER_6_MEMBER_9_MEMBER_2_FILL"/>
</g>

<g transform="matrix( 5, 0, 0, 5, -1397.5,-1032.75) ">
<use xlink:href="#Layer0_0_MEMBER_6_MEMBER_10_MEMBER_0_FILL"/>
</g>

<g transform="matrix( 5, 0, 0, 5, -1397.5,-1032.75) ">
<use xlink:href="#Layer0_0_MEMBER_6_MEMBER_10_MEMBER_1_FILL"/>
</g>

<g transform="matrix( 5, 0, 0, 5, -1397.5,-1032.75) ">
<use xlink:href="#Layer0_0_MEMBER_6_MEMBER_10_MEMBER_2_FILL"/>
</g>

<g transform="matrix( 5, 0, 0, 5, -1397.5,-1032.75) ">
<use xlink:href="#Layer0_0_MEMBER_6_MEMBER_11_MEMBER_0_FILL"/>
</g>

<g transform="matrix( 5, 0, 0, 5, -1397.5,-1032.75) ">
<use xlink:href="#Layer0_0_MEMBER_6_MEMBER_11_MEMBER_1_FILL"/>
</g>

<g transform="matrix( 5, 0, 0, 5, -1397.5,-1032.75) ">
<use xlink:href="#Layer0_0_MEMBER_6_MEMBER_11_MEMBER_2_FILL"/>
</g>

<g transform="matrix( 5, 0, 0, 5, -1397.5,-1032.75) ">
<use xlink:href="#Layer0_0_MEMBER_6_MEMBER_12_MEMBER_0_FILL"/>
</g>

<g transform="matrix( 5, 0, 0, 5, -1397.5,-1032.75) ">
<use xlink:href="#Layer0_0_MEMBER_6_MEMBER_12_MEMBER_1_FILL"/>
</g>

<g transform="matrix( 5, 0, 0, 5, -1397.5,-1032.75) ">
<use xlink:href="#Layer0_0_MEMBER_6_MEMBER_12_MEMBER_2_FILL"/>
</g>

<g transform="matrix( 5, 0, 0, 5, -1397.5,-1032.75) ">
<use xlink:href="#Layer0_0_MEMBER_7_MEMBER_0_MEMBER_0_FILL"/>
</g>

<g transform="matrix( 5, 0, 0, 5, -1397.5,-1032.75) ">
<use xlink:href="#Layer0_0_MEMBER_7_MEMBER_0_MEMBER_1_FILL"/>
</g>

<g transform="matrix( 5, 0, 0, 5, -1397.5,-1032.75) ">
<use xlink:href="#Layer0_0_MEMBER_7_MEMBER_0_MEMBER_2_FILL"/>
</g>

<g transform="matrix( 5, 0, 0, 5, -1397.5,-1032.75) ">
<use xlink:href="#Layer0_0_MEMBER_7_MEMBER_1_MEMBER_0_FILL"/>
</g>

<g transform="matrix( 5, 0, 0, 5, -1397.5,-1032.75) ">
<use xlink:href="#Layer0_0_MEMBER_7_MEMBER_1_MEMBER_1_FILL"/>
</g>

<g transform="matrix( 5, 0, 0, 5, -1397.5,-1032.75) ">
<use xlink:href="#Layer0_0_MEMBER_7_MEMBER_1_MEMBER_2_FILL"/>
</g>

<g transform="matrix( 5, 0, 0, 5, -1397.5,-1032.75) ">
<use xlink:href="#Layer0_0_MEMBER_7_MEMBER_2_MEMBER_0_FILL"/>
</g>

<g transform="matrix( 5, 0, 0, 5, -1397.5,-1032.75) ">
<use xlink:href="#Layer0_0_MEMBER_7_MEMBER_2_MEMBER_1_FILL"/>
</g>

<g transform="matrix( 5, 0, 0, 5, -1397.5,-1032.75) ">
<use xlink:href="#Layer0_0_MEMBER_7_MEMBER_2_MEMBER_2_FILL"/>
</g>

<g transform="matrix( 5, 0, 0, 5, -1397.5,-1032.75) ">
<use xlink:href="#Layer0_0_MEMBER_7_MEMBER_3_MEMBER_0_FILL"/>
</g>

<g transform="matrix( 5, 0, 0, 5, -1397.5,-1032.75) ">
<use xlink:href="#Layer0_0_MEMBER_7_MEMBER_3_MEMBER_1_FILL"/>
</g>

<g transform="matrix( 5, 0, 0, 5, -1397.5,-1032.75) ">
<use xlink:href="#Layer0_0_MEMBER_7_MEMBER_3_MEMBER_2_FILL"/>
</g>

<g transform="matrix( 5, 0, 0, 5, -1397.5,-1032.75) ">
<use xlink:href="#Layer0_0_MEMBER_7_MEMBER_4_MEMBER_0_FILL"/>
</g>

<g transform="matrix( 5, 0, 0, 5, -1397.5,-1032.75) ">
<use xlink:href="#Layer0_0_MEMBER_7_MEMBER_4_MEMBER_1_FILL"/>
</g>

<g transform="matrix( 5, 0, 0, 5, -1397.5,-1032.75) ">
<use xlink:href="#Layer0_0_MEMBER_7_MEMBER_4_MEMBER_2_FILL"/>
</g>

<g transform="matrix( 5, 0, 0, 5, -1397.5,-1032.75) ">
<use xlink:href="#Layer0_0_MEMBER_7_MEMBER_5_MEMBER_0_FILL"/>
</g>

<g transform="matrix( 5, 0, 0, 5, -1397.5,-1032.75) ">
<use xlink:href="#Layer0_0_MEMBER_7_MEMBER_5_MEMBER_1_FILL"/>
</g>

<g transform="matrix( 5, 0, 0, 5, -1397.5,-1032.75) ">
<use xlink:href="#Layer0_0_MEMBER_7_MEMBER_5_MEMBER_2_FILL"/>
</g>

<g transform="matrix( 5, 0, 0, 5, -1397.5,-1032.75) ">
<use xlink:href="#Layer0_0_MEMBER_7_MEMBER_6_MEMBER_0_FILL"/>
</g>

<g transform="matrix( 5, 0, 0, 5, -1397.5,-1032.75) ">
<use xlink:href="#Layer0_0_MEMBER_7_MEMBER_6_MEMBER_1_FILL"/>
</g>

<g transform="matrix( 5, 0, 0, 5, -1397.5,-1032.75) ">
<use xlink:href="#Layer0_0_MEMBER_7_MEMBER_6_MEMBER_2_FILL"/>
</g>

<g transform="matrix( 5, 0, 0, 5, -1397.5,-1032.75) ">
<use xlink:href="#Layer0_0_MEMBER_7_MEMBER_7_MEMBER_0_FILL"/>
</g>

<g transform="matrix( 5, 0, 0, 5, -1397.5,-1032.75) ">
<use xlink:href="#Layer0_0_MEMBER_7_MEMBER_7_MEMBER_1_FILL"/>
</g>

<g transform="matrix( 5, 0, 0, 5, -1397.5,-1032.75) ">
<use xlink:href="#Layer0_0_MEMBER_7_MEMBER_7_MEMBER_2_FILL"/>
</g>

<g transform="matrix( 5, 0, 0, 5, -1397.5,-1032.75) ">
<use xlink:href="#Layer0_0_MEMBER_7_MEMBER_8_MEMBER_0_FILL"/>
</g>

<g transform="matrix( 5, 0, 0, 5, -1397.5,-1032.75) ">
<use xlink:href="#Layer0_0_MEMBER_7_MEMBER_8_MEMBER_1_FILL"/>
</g>

<g transform="matrix( 5, 0, 0, 5, -1397.5,-1032.75) ">
<use xlink:href="#Layer0_0_MEMBER_7_MEMBER_8_MEMBER_2_FILL"/>
</g>

<g transform="matrix( 5, 0, 0, 5, -1397.5,-1032.75) ">
<use xlink:href="#Layer0_0_MEMBER_7_MEMBER_9_MEMBER_0_FILL"/>
</g>

<g transform="matrix( 5, 0, 0, 5, -1397.5,-1032.75) ">
<use xlink:href="#Layer0_0_MEMBER_7_MEMBER_9_MEMBER_1_FILL"/>
</g>

<g transform="matrix( 5, 0, 0, 5, -1397.5,-1032.75) ">
<use xlink:href="#Layer0_0_MEMBER_7_MEMBER_9_MEMBER_2_FILL"/>
</g>

<g transform="matrix( 5, 0, 0, 5, -1397.5,-1032.75) ">
<use xlink:href="#Layer0_0_MEMBER_7_MEMBER_10_MEMBER_0_FILL"/>
</g>

<g transform="matrix( 5, 0, 0, 5, -1397.5,-1032.75) ">
<use xlink:href="#Layer0_0_MEMBER_7_MEMBER_10_MEMBER_1_FILL"/>
</g>

<g transform="matrix( 5, 0, 0, 5, -1397.5,-1032.75) ">
<use xlink:href="#Layer0_0_MEMBER_7_MEMBER_10_MEMBER_2_FILL"/>
</g>

<g transform="matrix( 5, 0, 0, 5, -1397.5,-1032.75) ">
<use xlink:href="#Layer0_0_MEMBER_7_MEMBER_11_MEMBER_0_FILL"/>
</g>

<g transform="matrix( 5, 0, 0, 5, -1397.5,-1032.75) ">
<use xlink:href="#Layer0_0_MEMBER_7_MEMBER_11_MEMBER_1_FILL"/>
</g>

<g transform="matrix( 5, 0, 0, 5, -1397.5,-1032.75) ">
<use xlink:href="#Layer0_0_MEMBER_7_MEMBER_11_MEMBER_2_FILL"/>
</g>

<g transform="matrix( 5, 0, 0, 5, -1397.5,-1032.75) ">
<use xlink:href="#Layer0_0_MEMBER_7_MEMBER_12_MEMBER_0_FILL"/>
</g>

<g transform="matrix( 5, 0, 0, 5, -1397.5,-1032.75) ">
<use xlink:href="#Layer0_0_MEMBER_7_MEMBER_12_MEMBER_1_FILL"/>
</g>

<g transform="matrix( 5, 0, 0, 5, -1397.5,-1032.75) ">
<use xlink:href="#Layer0_0_MEMBER_7_MEMBER_12_MEMBER_2_FILL"/>
</g>

<g transform="matrix( 5, 0, 0, 5, -1397.5,-1032.75) ">
<use xlink:href="#Layer0_0_MEMBER_8_MEMBER_0_MEMBER_0_FILL"/>
</g>

<g transform="matrix( 5, 0, 0, 5, -1397.5,-1032.75) ">
<use xlink:href="#Layer0_0_MEMBER_8_MEMBER_0_MEMBER_1_FILL"/>
</g>

<g transform="matrix( 5, 0, 0, 5, -1397.5,-1032.75) ">
<use xlink:href="#Layer0_0_MEMBER_8_MEMBER_0_MEMBER_2_FILL"/>
</g>

<g transform="matrix( 5, 0, 0, 5, -1397.5,-1032.75) ">
<use xlink:href="#Layer0_0_MEMBER_8_MEMBER_0_MEMBER_3_FILL"/>
</g>

<g transform="matrix( 5, 0, 0, 5, -1397.5,-1032.75) ">
<use xlink:href="#Layer0_0_MEMBER_8_MEMBER_0_MEMBER_4_FILL"/>
</g>

<g transform="matrix( 5, 0, 0, 5, -1397.5,-1032.75) ">
<use xlink:href="#Layer0_0_MEMBER_8_MEMBER_0_MEMBER_5_FILL"/>
</g>

<g transform="matrix( 5, 0, 0, 5, -1397.5,-1032.75) ">
<use xlink:href="#Layer0_0_MEMBER_8_MEMBER_0_MEMBER_6_FILL"/>
</g>

<g transform="matrix( 5, 0, 0, 5, -1397.5,-1032.75) ">
<use xlink:href="#Layer0_0_MEMBER_8_MEMBER_0_MEMBER_7_FILL"/>
</g>

<g transform="matrix( 5, 0, 0, 5, -1397.5,-1032.75) ">
<use xlink:href="#Layer0_0_MEMBER_8_MEMBER_0_MEMBER_8_FILL"/>
</g>

<g transform="matrix( 5, 0, 0, 5, -1397.5,-1032.75) ">
<use xlink:href="#Layer0_0_MEMBER_8_MEMBER_0_MEMBER_9_FILL"/>
</g>

<g transform="matrix( 5, 0, 0, 5, -1397.5,-1032.75) ">
<use xlink:href="#Layer0_0_MEMBER_8_MEMBER_0_MEMBER_10_FILL"/>
</g>

<g transform="matrix( 5, 0, 0, 5, -1397.5,-1032.75) ">
<use xlink:href="#Layer0_0_MEMBER_8_MEMBER_0_MEMBER_11_FILL"/>
</g>

<g transform="matrix( 5, 0, 0, 5, -1397.5,-1032.75) ">
<use xlink:href="#Layer0_0_MEMBER_8_MEMBER_0_MEMBER_12_MEMBER_0_FILL"/>
</g>

<g transform="matrix( 5, 0, 0, 5, -1397.5,-1032.75) ">
<use xlink:href="#Layer0_0_MEMBER_8_MEMBER_0_MEMBER_12_MEMBER_1_FILL"/>
</g>

<g transform="matrix( 5, 0, 0, 5, -1397.5,-1032.75) ">
<use xlink:href="#Layer0_0_MEMBER_8_MEMBER_0_MEMBER_12_MEMBER_2_FILL"/>
</g>

<g transform="matrix( 5, 0, 0, 5, -1397.5,-1032.75) ">
<use xlink:href="#Layer0_0_MEMBER_8_MEMBER_0_MEMBER_12_MEMBER_3_FILL"/>
</g>

<g transform="matrix( 5, 0, 0, 5, -1397.5,-1032.75) ">
<use xlink:href="#Layer0_0_MEMBER_8_MEMBER_0_MEMBER_13_FILL"/>
</g>

<g transform="matrix( 5, 0, 0, 5, -1397.5,-1032.75) ">
<use xlink:href="#Layer0_0_MEMBER_8_MEMBER_0_MEMBER_14_FILL"/>
</g>

<g transform="matrix( 5, 0, 0, 5, -1397.5,-1032.75) ">
<use xlink:href="#Layer0_0_MEMBER_8_MEMBER_0_MEMBER_15_FILL"/>
</g>

<g transform="matrix( 5, 0, 0, 5, -1397.5,-1032.75) ">
<use xlink:href="#Layer0_0_MEMBER_8_MEMBER_0_MEMBER_16_MEMBER_0_FILL"/>
</g>

<g transform="matrix( 5, 0, 0, 5, -1397.5,-1032.75) ">
<use xlink:href="#Layer0_0_MEMBER_8_MEMBER_0_MEMBER_16_MEMBER_1_FILL"/>
</g>

<g transform="matrix( 5, 0, 0, 5, -1397.5,-1032.75) ">
<use xlink:href="#Layer0_0_MEMBER_8_MEMBER_0_MEMBER_16_MEMBER_2_MEMBER_0_FILL"/>
</g>

<g transform="matrix( 5, 0, 0, 5, -1397.5,-1032.75) ">
<use xlink:href="#Layer0_0_MEMBER_8_MEMBER_0_MEMBER_16_MEMBER_2_MEMBER_1_FILL"/>
</g>

<g transform="matrix( 5, 0, 0, 5, -1397.5,-1032.75) ">
<use xlink:href="#Layer0_0_MEMBER_8_MEMBER_0_MEMBER_16_MEMBER_2_MEMBER_2_FILL"/>
</g>

<g transform="matrix( 5, 0, 0, 5, -1397.5,-1032.75) ">
<use xlink:href="#Layer0_0_MEMBER_8_MEMBER_0_MEMBER_16_MEMBER_2_MEMBER_3_FILL"/>
</g>

<g transform="matrix( 5, 0, 0, 5, -1397.5,-1032.75) ">
<use xlink:href="#Layer0_0_MEMBER_8_MEMBER_0_MEMBER_16_MEMBER_2_MEMBER_4_FILL"/>
</g>

<g transform="matrix( 5, 0, 0, 5, -1397.5,-1032.75) ">
<use xlink:href="#Layer0_0_MEMBER_8_MEMBER_0_MEMBER_16_MEMBER_2_MEMBER_5_FILL"/>
</g>

<g transform="matrix( 5, 0, 0, 5, -1397.5,-1032.75) ">
<use xlink:href="#Layer0_0_MEMBER_8_MEMBER_0_MEMBER_16_MEMBER_2_MEMBER_6_FILL"/>
</g>

<g transform="matrix( 5, 0, 0, 5, -1397.5,-1032.75) ">
<use xlink:href="#Layer0_0_MEMBER_8_MEMBER_0_MEMBER_16_MEMBER_2_MEMBER_7_FILL"/>
</g>

<g transform="matrix( 5, 0, 0, 5, -1397.5,-1032.75) ">
<use xlink:href="#Layer0_0_MEMBER_8_MEMBER_0_MEMBER_16_MEMBER_3_FILL"/>
</g>

<g transform="matrix( 5, 0, 0, 5, -1397.5,-1032.75) ">
<use xlink:href="#Layer0_0_MEMBER_8_MEMBER_0_MEMBER_16_MEMBER_4_MEMBER_0_FILL"/>
</g>

<g transform="matrix( 5, 0, 0, 5, -1397.5,-1032.75) ">
<use xlink:href="#Layer0_0_MEMBER_8_MEMBER_0_MEMBER_17_MEMBER_0_FILL"/>
</g>

<g transform="matrix( 5, 0, 0, 5, 479.5,742.5) ">
<use xlink:href="#Layer0_0_MEMBER_9_MEMBER_0_FILL"/>
</g>

<g transform="matrix( 5, 0, 0, 5, -1397.5,-1032.75) ">
<use xlink:href="#Layer0_0_MEMBER_9_MEMBER_1_FILL"/>
</g>

<g transform="matrix( 5, 0, 0, 5, 503.25,745.5) ">
<use xlink:href="#Layer0_0_MEMBER_9_MEMBER_2_FILL"/>
</g>

<g transform="matrix( 5, 0, 0, 5, 503.25,683) ">
<use xlink:href="#Layer0_0_MEMBER_9_MEMBER_3_FILL"/>
</g>

<g transform="matrix( 5, 0, 0, 5, -1397.5,-1032.75) ">
<use xlink:href="#Layer0_0_MEMBER_9_MEMBER_4_FILL"/>
</g>

<g transform="matrix( 5, 0, 0, 5, -1397.5,-1032.75) ">
<use xlink:href="#Layer0_0_MEMBER_9_MEMBER_5_FILL"/>
</g>

<g transform="matrix( 5, 0, 0, 5, 168.75,568.5) ">
<use xlink:href="#Layer0_0_MEMBER_10_MEMBER_0_FILL"/>
</g>

<g transform="matrix( 5, 0, 0, 5, -1397.5,-1032.75) ">
<use xlink:href="#Layer0_0_MEMBER_10_MEMBER_1_FILL"/>
</g>

<g transform="matrix( 5, 0, 0, 5, -1397.5,-1032.75) ">
<use xlink:href="#Layer0_0_MEMBER_10_MEMBER_2_FILL"/>
</g>

<g transform="matrix( 5, 0, 0, 5, 796.75,565.5) ">
<use xlink:href="#Layer0_0_MEMBER_11_MEMBER_0_FILL"/>
</g>

<g transform="matrix( 5, 0, 0, 5, -1397.5,-1032.75) ">
<use xlink:href="#Layer0_0_MEMBER_11_MEMBER_1_FILL"/>
</g>

<g transform="matrix( 5, 0, 0, 5, -1397.5,-1032.75) ">
<use xlink:href="#Layer0_0_MEMBER_11_MEMBER_2_FILL"/>
</g>
</svg>
