<svg id="图层_1" data-name="图层 1" xmlns="http://www.w3.org/2000/svg" viewBox="0 0 1080 1920"><defs><style>.cls-1{fill:#f2a87b;}.cls-1,.cls-2,.cls-3,.cls-4,.cls-5,.cls-6,.cls-7,.cls-8,.cls-9{stroke:#231815;stroke-miterlimit:10;stroke-width:1.4px;}.cls-2{fill:#e77691;}.cls-3{fill:#e2d9bf;}.cls-4{fill:#cea24c;}.cls-5{fill:#00a8ac;}.cls-6{fill:#6fc6a5;}.cls-7{fill:#40603e;}.cls-8{fill:#016a00;}.cls-9{fill:#a8c192;}</style></defs><title>元素_09</title><path class="cls-1" d="M334.77,1056.37l255.84-24.55,347.24,109-322.1,80s-105.66-57.62-140.49-78C439.84,1122.08,334.77,1056.37,334.77,1056.37Z"/><path class="cls-2" d="M334.77,1056.37v11.17s46.31,27.19,83.55,58.77c44.88,38.06,197.43,108.23,197.43,108.23v-13.73s-156.24-84.44-186.49-108.17C401.53,1090.89,355.62,1060,334.77,1056.37Z"/><path class="cls-2" d="M615.75,1220.81v13.73s321.7-79.19,323.3-80.39l-.15-13.82Z"/><polygon class="cls-3" points="578.32 1177.93 838.81 1117.18 876.93 1129.19 608.08 1193.52 578.32 1177.93"/><polygon class="cls-3" points="266.12 933.43 517.57 913.48 831.35 1069.3 555.89 1114.64 266.12 933.43"/><path class="cls-4" d="M266.12,933.44v35.12s68.94,51.35,114.65,72.84c40.11,18.86,139.44,84.91,175.12,113.95v-40.71s-110.16-75.84-149.08-97.79C372,997.24,277.29,940.42,266.12,933.44Z"/><polygon class="cls-4" points="831.35 1105.86 555.89 1155.35 555.89 1114.64 831.35 1069.3 831.35 1105.86"/><polygon class="cls-5" points="825.21 1031.77 573.71 1071.13 573.55 1083.91 824.55 1042.9 825.21 1031.77"/><polygon class="cls-5" points="573.71 1071.13 307.72 895.35 306.83 908.04 573.55 1083.91 573.71 1071.13"/><polygon class="cls-6" points="308.43 895.92 573.32 1070.93 823.06 1031.03 516.79 878.23 308.43 895.92"/><polygon class="cls-7" points="837.97 988.51 564.03 1018.88 564.03 1031.03 838.57 1000.49 837.97 988.51"/><path class="cls-8" d="M564,1031S431.85,952.64,387.79,923.39C359.72,904.74,276.21,840,276.21,840l.46-15.61s74.46,67,127.8,96c42.39,23,159.56,99,159.56,99Z"/><path class="cls-9" d="M278.89,826.47s34.89,25.72,255.44,0c0,0,37.64,27.53,110.16,66.45s192.18,95.79,192.18,95.79l-272.47,30S311.62,874.36,278.89,826.47Z"/><path class="cls-8" d="M479.94,935.86,571.76,992l194.71-17.37L649.16,923.16S594.33,934,564,936.55A468.7,468.7,0,0,1,479.94,935.86Z"/></svg>