
<svg xmlns="http://www.w3.org/2000/svg" version="1.1" xmlns:xlink="http://www.w3.org/1999/xlink" preserveAspectRatio="none" x="0px" y="0px" width="1024px" height="1024px" viewBox="0 0 1024 1024">
<defs>
<g id="Layer0_0_MEMBER_0_MEMBER_0_FILL">
<path fill="#94AF20" stroke="none" d="
M 314.1 45.75
L 313.05 44.7 303.3 54.5 306.8 53.25 314.1 45.75 Z"/>
</g>

<g id="Layer0_0_MEMBER_1_MEMBER_0_FILL">
<path fill="#ABC820" stroke="none" d="
M 313.05 44.7
L 311.8 43.5 304.45 51.05 303.35 54.45 313.05 44.7 Z"/>
</g>

<g id="Layer0_0_MEMBER_2_MEMBER_0_FILL">
<path fill="#DEF05E" stroke="none" d="
M 307.75 41.1
L 304.75 40.1 300.35 53.3 302.4 55.05 302.6 55.2 303.35 54.45 307.75 41.1 Z"/>
</g>

<g id="Layer0_0_MEMBER_3_MEMBER_0_FILL">
<path fill="#ACCF1B" stroke="none" d="
M 317.75 52.65
L 316.7 49.65 303.3 54.5 302.6 55.2 302.6 55.25 304.5 57.5 317.75 52.65 Z"/>
</g>

<g id="Layer0_0_MEMBER_4_MEMBER_0_FILL">
<path fill="#FF9933" stroke="none" d="
M 302.6 55.2
L 302.4 55.05 300.35 53.3
Q 296.3 50.3 292.1 50.6 287.6 50.85 284.55 54.8
L 251.1 98.5
Q 249.2 101.6 248.3 104.5 247.15 108.15 248.4 109.4
L 248.45 109.5 248.5 109.5 302.6 55.2 Z"/>
</g>

<g id="Layer0_0_MEMBER_5_MEMBER_0_FILL">
<path fill="#FF6903" stroke="none" d="
M 307.05 65.7
Q 307.4 61.55 304.5 57.5
L 302.95 55.6 302.6 55.25 302.6 55.2 248.5 109.5
Q 250 110.95 254.7 109.05 258.45 107.55 261 105.6
L 302.85 73.15
Q 306.75 70.15 307.05 65.7 Z"/>
</g>

<g id="Layer0_0_MEMBER_6_MEMBER_0_MEMBER_0_FILL">
<path fill="#FFD7B3" stroke="none" d="
M 293.1 60.75
Q 293.45 60.4 293.3 60.25
L 290.05 57
Q 289.9 56.85 289.55 57.15
L 293.1 60.75 Z"/>
</g>

<g id="Layer0_0_MEMBER_6_MEMBER_1_MEMBER_0_MEMBER_0_FILL">
<path fill="#F78721" stroke="none" d="
M 292.6 60.95
Q 292.7 61.15 293.1 60.75
L 289.55 57.15
Q 289.2 57.55 289.35 57.7
L 292.6 60.95 Z"/>
</g>

<g id="Layer0_0_MEMBER_7_MEMBER_0_MEMBER_0_FILL">
<path fill="#FFD7B3" stroke="none" d="
M 283.45 60.55
Q 283.35 60.35 282.95 60.75
L 286 63.8
Q 286.35 63.45 286.2 63.3
L 283.45 60.55 Z"/>
</g>

<g id="Layer0_0_MEMBER_7_MEMBER_1_MEMBER_0_MEMBER_0_FILL">
<path fill="#F78721" stroke="none" d="
M 282.95 60.75
Q 282.6 61.15 282.75 61.3
L 285.5 64.05
Q 285.65 64.2 286 63.8
L 282.95 60.75 Z"/>
</g>

<g id="Layer0_0_MEMBER_8_MEMBER_0_MEMBER_0_FILL">
<path fill="#FFD7B3" stroke="none" d="
M 277.3 75.9
Q 277.65 75.55 277.5 75.4
L 274.95 72.8
Q 274.8 72.7 274.45 73.05
L 277.3 75.9 Z"/>
</g>

<g id="Layer0_0_MEMBER_8_MEMBER_1_MEMBER_0_MEMBER_0_FILL">
<path fill="#F78721" stroke="none" d="
M 276.8 76.15
Q 276.95 76.3 277.3 75.9
L 274.45 73.05
Q 274.1 73.4 274.2 73.55
L 276.8 76.15 Z"/>
</g>

<g id="Layer0_0_MEMBER_9_MEMBER_0_MEMBER_0_FILL">
<path fill="#FFD7B3" stroke="none" d="
M 289.1 78.15
Q 289.5 77.8 289.3 77.6
L 285.7 74.05
Q 285.55 73.8 285.15 74.2
L 289.1 78.15 Z"/>
</g>

<g id="Layer0_0_MEMBER_9_MEMBER_1_MEMBER_0_MEMBER_0_FILL">
<path fill="#F78721" stroke="none" d="
M 288.55 78.35
Q 288.75 78.55 289.1 78.15
L 285.15 74.2
Q 284.8 74.6 284.95 74.75
L 288.55 78.35 Z"/>
</g>

<g id="Layer0_0_MEMBER_10_MEMBER_0_MEMBER_0_FILL">
<path fill="#FFD7B3" stroke="none" d="
M 297.85 71.85
Q 298.2 71.5 298.1 71.35
L 295.7 68.95
Q 295.6 68.85 295.2 69.2
L 297.85 71.85 Z"/>
</g>

<g id="Layer0_0_MEMBER_10_MEMBER_1_MEMBER_0_MEMBER_0_FILL">
<path fill="#F78721" stroke="none" d="
M 297.35 72.1
Q 297.5 72.2 297.85 71.85
L 295.2 69.2
Q 294.85 69.55 294.95 69.7
L 297.35 72.1 Z"/>
</g>

<g id="Layer0_0_MEMBER_11_MEMBER_0_MEMBER_0_FILL">
<path fill="#FFD7B3" stroke="none" d="
M 301.2 65.65
Q 301.55 65.35 301.45 65.15
L 298.4 62.1
Q 298.25 61.95 297.85 62.3
L 301.2 65.65 Z"/>
</g>

<g id="Layer0_0_MEMBER_11_MEMBER_1_MEMBER_0_MEMBER_0_FILL">
<path fill="#F78721" stroke="none" d="
M 300.7 65.9
Q 300.85 66 301.2 65.65
L 297.85 62.3
Q 297.45 62.7 297.65 62.8
L 300.7 65.9 Z"/>
</g>

<g id="Layer0_0_MEMBER_12_MEMBER_0_MEMBER_0_FILL">
<path fill="#FFD7B3" stroke="none" d="
M 268.65 87.35
Q 269.05 87 268.85 86.8
L 265.75 83.7
Q 265.6 83.55 265.2 83.85
L 268.65 87.35 Z"/>
</g>

<g id="Layer0_0_MEMBER_12_MEMBER_1_MEMBER_0_MEMBER_0_FILL">
<path fill="#F78721" stroke="none" d="
M 268.15 87.5
Q 268.35 87.7 268.65 87.35
L 265.2 83.85
Q 264.9 84.25 265.05 84.4
L 268.15 87.5 Z"/>
</g>

<g id="Layer0_0_MEMBER_13_MEMBER_0_MEMBER_0_FILL">
<path fill="#FFD7B3" stroke="none" d="
M 280.15 87.95
Q 280.5 87.65 280.3 87.45
L 277.2 84.3
Q 277.05 84.15 276.7 84.5
L 280.15 87.95 Z"/>
</g>

<g id="Layer0_0_MEMBER_13_MEMBER_1_MEMBER_0_MEMBER_0_FILL">
<path fill="#F78721" stroke="none" d="
M 279.65 88.15
Q 279.8 88.3 280.15 87.95
L 276.7 84.5
Q 276.35 84.85 276.5 85
L 279.65 88.15 Z"/>
</g>

<g id="Layer0_0_MEMBER_14_MEMBER_0_MEMBER_0_FILL">
<path fill="#FFD7B3" stroke="none" d="
M 268.8 96.75
Q 269.1 96.45 269 96.35
L 266.95 94.3
Q 266.8 94.15 266.55 94.5
L 268.8 96.75 Z"/>
</g>

<g id="Layer0_0_MEMBER_14_MEMBER_1_MEMBER_0_MEMBER_0_FILL">
<path fill="#F78721" stroke="none" d="
M 268.4 96.95
Q 268.5 97.15 268.8 96.75
L 266.55 94.5
Q 266.15 94.8 266.35 94.9
L 268.4 96.95 Z"/>
</g>

<g id="Layer0_0_MEMBER_15_MEMBER_0_MEMBER_0_FILL">
<path fill="#FFD7B3" stroke="none" d="
M 257.8 97.3
Q 258.05 97.05 257.95 96.95
L 256.55 95.5
Q 256.4 95.5 256.2 95.7
L 257.8 97.3 Z"/>
</g>

<g id="Layer0_0_MEMBER_15_MEMBER_1_MEMBER_0_MEMBER_0_FILL">
<path fill="#F78721" stroke="none" d="
M 257.45 97.45
Q 257.5 97.5 257.8 97.3
L 256.2 95.7
Q 255.95 95.95 256.05 96.05
L 257.45 97.45 Z"/>
</g>

<g id="Layer0_0_MEMBER_16_MEMBER_0_MEMBER_0_FILL">
<path fill="#FFD7B3" stroke="none" d="
M 258.6 104.45
L 258.8 104.15 257.5 102.85
Q 257.45 102.8 257.2 103
L 258.6 104.45 Z"/>
</g>

<g id="Layer0_0_MEMBER_16_MEMBER_1_MEMBER_0_MEMBER_0_FILL">
<path fill="#F78721" stroke="none" d="
M 258.3 104.6
Q 258.4 104.7 258.6 104.45
L 257.2 103
Q 257 103.25 257.05 103.3
L 258.3 104.6 Z"/>
</g>

<g id="Layer0_0_MEMBER_17_MEMBER_0_MEMBER_0_FILL">
<path fill="#FFD7B3" stroke="none" d="
M 251.2 104.1
L 251.45 103.75 250.5 102.8 250.15 103.05 251.2 104.1 Z"/>
</g>

<g id="Layer0_0_MEMBER_17_MEMBER_1_MEMBER_0_MEMBER_0_FILL">
<path fill="#F78721" stroke="none" d="
M 250.8 104.35
L 251.2 104.1 250.15 103.05 249.9 103.4 250.8 104.35 Z"/>
</g>
</defs>

<g transform="matrix( 10, 0, 0, 10, -2315.5,-239.15) ">
<use xlink:href="#Layer0_0_MEMBER_0_MEMBER_0_FILL"/>
</g>

<g transform="matrix( 10, 0, 0, 10, -2315.5,-239.15) ">
<use xlink:href="#Layer0_0_MEMBER_1_MEMBER_0_FILL"/>
</g>

<g transform="matrix( 10, 0, 0, 10, -2315.5,-239.15) ">
<use xlink:href="#Layer0_0_MEMBER_2_MEMBER_0_FILL"/>
</g>

<g transform="matrix( 10, 0, 0, 10, -2315.5,-239.15) ">
<use xlink:href="#Layer0_0_MEMBER_3_MEMBER_0_FILL"/>
</g>

<g transform="matrix( 10, 0, 0, 10, -2315.5,-239.15) ">
<use xlink:href="#Layer0_0_MEMBER_4_MEMBER_0_FILL"/>
</g>

<g transform="matrix( 10, 0, 0, 10, -2315.5,-239.15) ">
<use xlink:href="#Layer0_0_MEMBER_5_MEMBER_0_FILL"/>
</g>

<g transform="matrix( 10, 0, 0, 10, -2315.5,-239.15) ">
<use xlink:href="#Layer0_0_MEMBER_6_MEMBER_0_MEMBER_0_FILL"/>
</g>

<g transform="matrix( 10, 0, 0, 10, -2315.5,-239.15) ">
<use xlink:href="#Layer0_0_MEMBER_6_MEMBER_1_MEMBER_0_MEMBER_0_FILL"/>
</g>

<g transform="matrix( 10, 0, 0, 10, -2315.5,-239.15) ">
<use xlink:href="#Layer0_0_MEMBER_7_MEMBER_0_MEMBER_0_FILL"/>
</g>

<g transform="matrix( 10, 0, 0, 10, -2315.5,-239.15) ">
<use xlink:href="#Layer0_0_MEMBER_7_MEMBER_1_MEMBER_0_MEMBER_0_FILL"/>
</g>

<g transform="matrix( 10, 0, 0, 10, -2315.5,-239.15) ">
<use xlink:href="#Layer0_0_MEMBER_8_MEMBER_0_MEMBER_0_FILL"/>
</g>

<g transform="matrix( 10, 0, 0, 10, -2315.5,-239.15) ">
<use xlink:href="#Layer0_0_MEMBER_8_MEMBER_1_MEMBER_0_MEMBER_0_FILL"/>
</g>

<g transform="matrix( 10, 0, 0, 10, -2315.5,-239.15) ">
<use xlink:href="#Layer0_0_MEMBER_9_MEMBER_0_MEMBER_0_FILL"/>
</g>

<g transform="matrix( 10, 0, 0, 10, -2315.5,-239.15) ">
<use xlink:href="#Layer0_0_MEMBER_9_MEMBER_1_MEMBER_0_MEMBER_0_FILL"/>
</g>

<g transform="matrix( 10, 0, 0, 10, -2315.5,-239.15) ">
<use xlink:href="#Layer0_0_MEMBER_10_MEMBER_0_MEMBER_0_FILL"/>
</g>

<g transform="matrix( 10, 0, 0, 10, -2315.5,-239.15) ">
<use xlink:href="#Layer0_0_MEMBER_10_MEMBER_1_MEMBER_0_MEMBER_0_FILL"/>
</g>

<g transform="matrix( 10, 0, 0, 10, -2315.5,-239.15) ">
<use xlink:href="#Layer0_0_MEMBER_11_MEMBER_0_MEMBER_0_FILL"/>
</g>

<g transform="matrix( 10, 0, 0, 10, -2315.5,-239.15) ">
<use xlink:href="#Layer0_0_MEMBER_11_MEMBER_1_MEMBER_0_MEMBER_0_FILL"/>
</g>

<g transform="matrix( 10, 0, 0, 10, -2315.5,-239.15) ">
<use xlink:href="#Layer0_0_MEMBER_12_MEMBER_0_MEMBER_0_FILL"/>
</g>

<g transform="matrix( 10, 0, 0, 10, -2315.5,-239.15) ">
<use xlink:href="#Layer0_0_MEMBER_12_MEMBER_1_MEMBER_0_MEMBER_0_FILL"/>
</g>

<g transform="matrix( 10, 0, 0, 10, -2315.5,-239.15) ">
<use xlink:href="#Layer0_0_MEMBER_13_MEMBER_0_MEMBER_0_FILL"/>
</g>

<g transform="matrix( 10, 0, 0, 10, -2315.5,-239.15) ">
<use xlink:href="#Layer0_0_MEMBER_13_MEMBER_1_MEMBER_0_MEMBER_0_FILL"/>
</g>

<g transform="matrix( 10, 0, 0, 10, -2315.5,-239.15) ">
<use xlink:href="#Layer0_0_MEMBER_14_MEMBER_0_MEMBER_0_FILL"/>
</g>

<g transform="matrix( 10, 0, 0, 10, -2315.5,-239.15) ">
<use xlink:href="#Layer0_0_MEMBER_14_MEMBER_1_MEMBER_0_MEMBER_0_FILL"/>
</g>

<g transform="matrix( 10, 0, 0, 10, -2315.5,-239.15) ">
<use xlink:href="#Layer0_0_MEMBER_15_MEMBER_0_MEMBER_0_FILL"/>
</g>

<g transform="matrix( 10, 0, 0, 10, -2315.5,-239.15) ">
<use xlink:href="#Layer0_0_MEMBER_15_MEMBER_1_MEMBER_0_MEMBER_0_FILL"/>
</g>

<g transform="matrix( 10, 0, 0, 10, -2315.5,-239.15) ">
<use xlink:href="#Layer0_0_MEMBER_16_MEMBER_0_MEMBER_0_FILL"/>
</g>

<g transform="matrix( 10, 0, 0, 10, -2315.5,-239.15) ">
<use xlink:href="#Layer0_0_MEMBER_16_MEMBER_1_MEMBER_0_MEMBER_0_FILL"/>
</g>

<g transform="matrix( 10, 0, 0, 10, -2315.5,-239.15) ">
<use xlink:href="#Layer0_0_MEMBER_17_MEMBER_0_MEMBER_0_FILL"/>
</g>

<g transform="matrix( 10, 0, 0, 10, -2315.5,-239.15) ">
<use xlink:href="#Layer0_0_MEMBER_17_MEMBER_1_MEMBER_0_MEMBER_0_FILL"/>
</g>
</svg>
