<svg xmlns="http://www.w3.org/2000/svg" xmlns:xlink="http://www.w3.org/1999/xlink" viewBox="0 0 154.6 317.64"><defs><style>.cls-1,.cls-12,.cls-2{opacity:0.1;}.cls-2{fill:#919191;}.cls-3{fill:url(#未命名的渐变_15);}.cls-4{fill:url(#未命名的渐变_15-2);}.cls-5{fill:#fba059;}.cls-6{fill:#f9894e;}.cls-7{fill:#d35c26;}.cls-8{fill:#4e3745;}.cls-9{fill:#383d3c;}.cls-10,.cls-13,.cls-51{fill:#232615;}.cls-10,.cls-39,.cls-54{opacity:0.4;}.cls-11{fill:#5e6051;}.cls-12,.cls-19,.cls-52{fill:#fff;}.cls-13,.cls-19,.cls-38{opacity:0.2;}.cls-14{fill:#38261f;}.cls-15{fill:#4f4f44;}.cls-16{fill:#603720;}.cls-17{fill:#46453d;}.cls-18{fill:#333539;}.cls-20{fill:#b8afaa;}.cls-21{fill:#47363b;}.cls-22{fill:#505043;opacity:0.8;}.cls-23{fill:url(#未命名的渐变_139);}.cls-24,.cls-55{fill:#dd5501;}.cls-25{fill:url(#未命名的渐变_23);}.cls-26{fill:url(#未命名的渐变_23-2);}.cls-27{fill:#6d4029;}.cls-28{fill:#602d16;}.cls-29{opacity:0.7;}.cls-30{fill:#383632;}.cls-31{fill:#e44a04;stroke:#38261f;stroke-miterlimit:10;}.cls-32{fill:#312a2d;}.cls-33{fill:#665f55;}.cls-34{fill:#2b2527;}.cls-35{fill:#ac8c95;}.cls-36{fill:#c1c2af;}.cls-37{opacity:0.6;}.cls-38{fill:#515151;}.cls-39{fill:url(#未命名的渐变_153);}.cls-40{fill:url(#未命名的渐变_26);}.cls-41{fill:#d06629;}.cls-42{fill:#f6af65;}.cls-43{fill:#f5ab69;}.cls-44{fill:#5c3b27;}.cls-45{fill:#8f846b;}.cls-46{fill:#ee8d40;}.cls-47{fill:#fbc7b0;}.cls-48{fill:#aaaca1;}.cls-49{fill:url(#未命名的渐变_155);}.cls-50{fill:url(#未命名的渐变_155-2);}.cls-53{fill:#83847e;}.cls-55{font-size:9.58px;font-family:HYx1gf, HYGanLanF;}</style><linearGradient id="未命名的渐变_15" x1="108.69" y1="262.18" x2="108.69" y2="255.69" gradientUnits="userSpaceOnUse"><stop offset="0" stop-color="#797e7f"/><stop offset="1" stop-color="#979a9b"/></linearGradient><linearGradient id="未命名的渐变_15-2" x1="37.98" y1="262.18" x2="37.98" y2="255.69" xlink:href="#未命名的渐变_15"/><linearGradient id="未命名的渐变_139" x1="45.03" y1="138.97" x2="102.11" y2="138.97" gradientUnits="userSpaceOnUse"><stop offset="0" stop-color="#e6d8d8"/><stop offset="0.01" stop-color="#ddcfcf"/><stop offset="0.04" stop-color="#c2b5b4"/><stop offset="0.08" stop-color="#aca09e"/><stop offset="0.13" stop-color="#9b908d"/><stop offset="0.19" stop-color="#908482"/><stop offset="0.27" stop-color="#897e7b"/><stop offset="0.49" stop-color="#877c79"/><stop offset="0.72" stop-color="#897e7b"/><stop offset="0.81" stop-color="#908482"/><stop offset="0.87" stop-color="#9b908d"/><stop offset="0.91" stop-color="#aca09e"/><stop offset="0.95" stop-color="#c2b5b4"/><stop offset="0.99" stop-color="#ddcfcf"/><stop offset="1" stop-color="#e6d8d8"/></linearGradient><linearGradient id="未命名的渐变_23" x1="47.91" y1="219.85" x2="58.68" y2="219.85" gradientUnits="userSpaceOnUse"><stop offset="0" stop-color="#7c8182"/><stop offset="0.5" stop-color="#bec5c6"/><stop offset="1" stop-color="#505759"/></linearGradient><linearGradient id="未命名的渐变_23-2" x1="87.5" y1="219.85" x2="98.27" y2="219.85" xlink:href="#未命名的渐变_23"/><linearGradient id="未命名的渐变_153" x1="79.17" y1="150.15" x2="79.82" y2="139.68" gradientUnits="userSpaceOnUse"><stop offset="0" stop-color="#fff" stop-opacity="0.2"/><stop offset="0.14" stop-color="#fff" stop-opacity="0.22"/><stop offset="0.29" stop-color="#fff" stop-opacity="0.27"/><stop offset="0.45" stop-color="#fff" stop-opacity="0.35"/><stop offset="0.6" stop-color="#fff" stop-opacity="0.47"/><stop offset="0.76" stop-color="#fff" stop-opacity="0.62"/><stop offset="0.92" stop-color="#fff" stop-opacity="0.8"/><stop offset="0.92" stop-color="#fff" stop-opacity="0.8"/></linearGradient><linearGradient id="未命名的渐变_26" x1="45.4" y1="178.47" x2="100.55" y2="178.47" gradientUnits="userSpaceOnUse"><stop offset="0" stop-color="#979a9b"/><stop offset="0.5" stop-color="#bec5c6"/><stop offset="1" stop-color="#797e7f"/></linearGradient><linearGradient id="未命名的渐变_155" x1="31.05" y1="152.54" x2="39.26" y2="144.47" gradientUnits="userSpaceOnUse"><stop offset="0.33" stop-color="#fff" stop-opacity="0.2"/><stop offset="0.46" stop-color="#fff" stop-opacity="0.22"/><stop offset="0.6" stop-color="#fff" stop-opacity="0.27"/><stop offset="0.74" stop-color="#fff" stop-opacity="0.35"/><stop offset="0.88" stop-color="#fff" stop-opacity="0.47"/><stop offset="0.92" stop-color="#fff" stop-opacity="0.5"/></linearGradient><linearGradient id="未命名的渐变_155-2" x1="111" y1="152.54" x2="119.22" y2="144.47" xlink:href="#未命名的渐变_155"/></defs><g id="图层_2" data-name="图层 2"><g id="图层_1-2" data-name="图层 1"><ellipse class="cls-1" cx="71.96" cy="314.02" rx="21.93" ry="3.62"/><ellipse class="cls-2" cx="108.56" cy="276.53" rx="21.93" ry="3.62"/><ellipse class="cls-2" cx="38.02" cy="276.53" rx="21.93" ry="3.62"/><path class="cls-3" d="M129.23,255.69H86.56v6.49h39.37a4.89,4.89,0,0,0,4.89-4.89A1.6,1.6,0,0,0,129.23,255.69Z"/><path class="cls-4" d="M15.85,257.29a4.9,4.9,0,0,0,4.9,4.89H60.11v-6.49H17.45A1.6,1.6,0,0,0,15.85,257.29Z"/><path class="cls-5" d="M48.75,250.09a9.27,9.27,0,0,1-2.1,4.08,3.38,3.38,0,0,1-.31.35,10.51,10.51,0,0,1-1,.88l-.38.29-.31.21-.28.2-.31.19-.5.29c-.17.09-.35.19-.53.27-.35.17-.72.34-1.11.5l-.17.06-.52.19-.61.21-.2.06-.53.15c-.44.13-.9.23-1.38.33a5.59,5.59,0,0,1-.59.11,32.54,32.54,0,0,1-4.07.48l-1.16.05c-3.82.17-9.19.07-12.23-2.53a6.27,6.27,0,0,1-1.57-2,7.83,7.83,0,0,1-.36-5.6,20.84,20.84,0,0,1,2.33-5.25,55.54,55.54,0,0,1,5.71-7.93,5.07,5.07,0,0,1,1.26-1.27c.9-.46,0-4.71,0-4.71l15-1.69A5.1,5.1,0,0,0,44,234a7.27,7.27,0,0,1,1.27,1.6A34.9,34.9,0,0,1,49,247.39,11.06,11.06,0,0,1,48.75,250.09Z"/><path class="cls-6" d="M48.75,250.1c-.74,3.2-3.54,8-14,8.78-.19-.79.68-2,3.2-3.73,12.38-8.56,6.41-20.81,6.41-20.81l.89,1.22A35,35,0,0,1,49,247.39,11.72,11.72,0,0,1,48.75,250.1Z"/><path class="cls-7" d="M48.75,250.09a9.27,9.27,0,0,1-2.1,4.08,3.38,3.38,0,0,1-.31.35,10.51,10.51,0,0,1-1,.88l-.38.29-.31.21-.28.2-.31.19-.5.29c-.17.09-.35.19-.53.27-.35.18-.72.34-1.11.5l-.17.06-.52.19-.61.21-.2.06-.53.15c-.44.13-.9.23-1.38.33a5.59,5.59,0,0,1-.59.11,32.54,32.54,0,0,1-4.07.48l-1.16.05c-5.81.16-9.7-1-12.23-2.53a6.27,6.27,0,0,1-1.57-2,7.83,7.83,0,0,1-.36-5.6,7.47,7.47,0,0,0,5.76-1.14s4,.68,9.68,4.43C37.57,254.52,44.26,252.17,48.75,250.09Z"/><path class="cls-8" d="M63.76,139.67s-12.61,25-14.19,25c-.82,0-2,2.3-2.85,5.16-.08.27-.17.55-.24.84-.23.78-.42,1.59-.59,2.39h0a22.68,22.68,0,0,0-.57,4.53c0,.18,0,.37,0,.56.19,4.8,2.57,14.52,2.34,21-.23,6.78-.77,16.71,0,20.67a25,25,0,0,1,.16,7.34c-.24,2-.73,3.55-1.41,4-1.28.82-18.69,3.15-22.9-1.45a3.36,3.36,0,0,1-.9-2.8c.95-8.2-1.09-12.46-6.61-25.69a38.5,38.5,0,0,1-3.26-13.61,60.79,60.79,0,0,1,.39-6.27.73.73,0,0,0-.12-.45,3.72,3.72,0,0,1-.35-.53c-.93-1.59-2.49-5.43-2.49-5.43-2.84-12.42.32-17.36,13.39-24.86s17.9-16,17.9-16Z"/><path class="cls-9" d="M154.6,61a20.93,20.93,0,0,1-.21,2.74A61.59,61.59,0,0,1,152.16,74c-1.88,6.55-6.2,12.58-7.87,13.41s-2.88,4.55-2.88,4.55l-11.88-8.42c.16-1.29.28-2.6.32-3.91a9.37,9.37,0,0,0-.28-2.84,5.92,5.92,0,0,1-.35-2.9s0,0,0-.06a6.42,6.42,0,0,1,.45-1.2c.24-.52.52-1,.76-1.53a10.88,10.88,0,0,0,1-3c.6-4,1.13-8.66,1.28-10.92.05-.81.19-3.89,1.2-4.93h0a1.11,1.11,0,0,1,1.42-.16,3.28,3.28,0,0,1,1.83,2.45,16.88,16.88,0,0,1,.16,2.54,76.13,76.13,0,0,1-.48,9.66c2.27-3.41,6.36-.2,6.36-.2,1.5-2.28,5.21.07,6.14.71.34.24.55-.36.63-.59a16.6,16.6,0,0,0,.84-3,11,11,0,0,1,.91-3.49c.38-.63,1.13-1.41,1.95-1.19S154.6,60.24,154.6,61Z"/><path class="cls-10" d="M138.58,68.46a5.62,5.62,0,0,1,1.19,5.17S139.75,69.75,138.58,68.46Z"/><path class="cls-10" d="M144.54,68.46a4.21,4.21,0,0,1,1.32,4.76S146,69.63,144.54,68.46Z"/><path class="cls-10" d="M149,68.66s2.22.85,1.21,4C150.19,72.61,150.4,69.83,149,68.66Z"/><path class="cls-10" d="M131.5,73s6.24-.68,7.58,3.27C139.08,76.31,137.61,74,131.5,73Z"/><path class="cls-11" d="M144.5,99.77c-1.08,7-3.93,16.27-11.4,21-8.67,5.48-14.23,3-17-1h0l-.23-.34-.06-.09c-.64-.69-1.32-1.48-2-2.34l0,.23c-.07.52-.15,1-.22,1.56-1.78,12.41-3.72,22.19-5.55,23.31-1.35.84-5.69,1.86-11.58,2.66-13.76,1.87-36.05,2.54-48.66-3.2a18.59,18.59,0,0,1-7.1-5.23,3,3,0,0,1-.6-1.71c0-2.28-.12-8.63.11-15.34a7.51,7.51,0,0,1-1.46,1.82,9.93,9.93,0,0,1-2.22,1.44c-5.39,2.58-13,.68-17.52-1.44-3-1.41-3.85-8.57-4-13.55-.07-3.61.28-6.08.52-4.33.19,1.36,1.33-1.5,1.42-1.75,1.35-3.44,2.38-7,3.39-10.59l.36-1.29.18-.62c.07-.27.15-.54.22-.81l.36-1.27q.66-2.4,1.31-4.79c.47-1.75.92-3.5,1.37-5.25.91-3.55,1.31-7.19,3.17-10.41A39.24,39.24,0,0,1,33.42,59c4.22-4.37,9.15-8.36,14.84-10.62a24.26,24.26,0,0,1,3.92-1.15,38.51,38.51,0,0,1,6-.7c4-.18,8.14.09,11.89.19,9.82.25,20,.9,29.56,3.51a65,65,0,0,1,7.93,2.7l1.09.47A17.6,17.6,0,0,1,111.43,55h0s17.09,10.2,17.09,25.94c0,1.8-.09,3.76-.25,5.82,3.72,1.44,12,4.4,16.85,4A51.35,51.35,0,0,1,144.5,99.77Z"/><path class="cls-1" d="M99.66,50.24c-3,6-8.65,12.57-19.62,13.4C61,65.08,53,51.18,51.35,47.43a49.86,49.86,0,0,1,6.86-.89c4-.18,8.14.09,11.89.19C79.92,47,90.07,47.63,99.66,50.24Z"/><path class="cls-12" d="M105.81,53.81a7.47,7.47,0,0,1,2.21.95A27.85,27.85,0,0,1,114,59.35a56.31,56.31,0,0,1,4.46,4.81,7.6,7.6,0,0,1,1.82,3c.21,1.2-.33,1.18-1.08.56-1.75-1.46-3.5-6.12-4.69-6s-4.2,1.11-4.81-1.93-2.22-2.63-2.52-3.59S103.54,53.43,105.81,53.81Z"/><path class="cls-13" d="M56.23,132.22l-8.55,9.34a18.59,18.59,0,0,1-7.1-5.23,3,3,0,0,1-.6-1.71c0-2.28-.12-8.63.11-15.34a7.51,7.51,0,0,1-1.46,1.82,9.93,9.93,0,0,1-2.22,1.44l1.18-7.07,7-6.68s-1.85,18.59,0,20.23S56.23,132.22,56.23,132.22Z"/><path class="cls-13" d="M115.82,119.43l-.06-.09c-.64-.69-1.32-1.48-2-2.34l0,.23c-.07.52-.15,1-.22,1.56-1.78,12.41-3.72,22.19-5.55,23.31-1.35.84-5.69,1.86-11.58,2.66l-.44-6.64s5.3,1.54,9.26-.61,5.28-29.23,5.28-29.23l5.25-3.43Z"/><path class="cls-10" d="M113.69,117.23c-.07.52-.15,1-.22,1.56-4.85-4.89-4.71-13.11-4.71-13.11A34.93,34.93,0,0,0,113.69,117.23Z"/><path class="cls-5" d="M127,257.06c-.68,1.71-5.57,4.66-13.88,4.21S99.42,259.7,99.53,250.2v-.31c.23-9.79,3.64-12.29,4.1-13.08s0-4.32,0-4.32l16.49-1.37-.79,7.17A29.33,29.33,0,0,1,126.84,252,10.64,10.64,0,0,1,127,257.06Z"/><path class="cls-7" d="M127,257.06c-.68,1.71-5.57,4.66-13.88,4.21S99.42,259.7,99.53,250.2a7.63,7.63,0,0,0,8.08,4.24c8.08-.91,10.69-3.89,10.69-3.89a27.9,27.9,0,0,0,8.54,1.43A10.64,10.64,0,0,1,127,257.06Z"/><path class="cls-12" d="M13.41,172.18s-3.13-8.34,7-15.86S30,152.16,30,152.16s-7.12,2.9-10.46,8.82S13.85,175.94,13.41,172.18Z"/><path class="cls-8" d="M135.74,183.83a12,12,0,0,1-1.51,8.6,22.85,22.85,0,0,0-1.92,4.95c-1.67,5.76-2.69,13.5-3.2,16.56-.68,4.09-5.23,18.66-6,19.91s-11.15,4.21-19.11,1a7.4,7.4,0,0,1-3.13-2.27,2.17,2.17,0,0,1-.24-.29c-3.44-4.64-1.18-12.46-1.18-12.46s1.7-6.82,1.13-12.17a15.5,15.5,0,0,1-.08-1.68c0-.31,0-.63,0-.95h0c0-.25,0-.51.05-.78,0-.12,0-.25,0-.38l.06-.64c0-.1,0-.2,0-.3,0-.27.07-.54.11-.81.58-4,1.79-8.09,2-10.78a.09.09,0,0,0,0,0,17.21,17.21,0,0,0-1.14-7.42c-.14-1.29,0-5.14-.19-7.88,0-.28,0-.55-.08-.81h0a3.74,3.74,0,0,0-.6-2,.52.52,0,0,0-.27-.13c-1.48-.14-.9-2.59-1.36-4.56v0a.83.83,0,0,0-.24-.33c-2.19-2-17.42-5.34-17.42-5.34s0-23.14,17.78-21.67c11.92,1,25.18,8.55,33,16.4.51.51,1,1,1.46,1.53,3,3.34,5,6.64,5.35,9.45,1.17,8.4-2.21,13.23-3.24,14.47a2.71,2.71,0,0,1-.28.32S135.66,183.49,135.74,183.83Z"/><path class="cls-10" d="M45,69.2a132,132,0,0,1-.39,20.35c-.29-7.82-1.75-10.61-1.75-10.61,1,2.87,1.19,12.69,1.24,16.14-.61,5.85-1.24,10-1.24,10l1.27,1.19C48.46,80.14,45,69.2,45,69.2Z"/><path class="cls-10" d="M106,65.15a130.19,130.19,0,0,0-.6,20.34c.67-7.79,2.26-10.51,2.26-10.51-1.12,2.82-1.8,12.62-2,16.06.32,5.88.74,10.09.74,10.09l-1.32,1.13C102,75.91,106,65.15,106,65.15Z"/><path class="cls-14" d="M119.19,144.17H107.81a2.23,2.23,0,0,0-2.23,2.23v1.18H41.47V146.4a2.23,2.23,0,0,0-2.23-2.23H27.86a2.23,2.23,0,0,0-2.23,2.23v7.35A2.23,2.23,0,0,0,27.86,156H39.24a2.23,2.23,0,0,0,2.23-2.23v-1.49h64.11v1.49a2.23,2.23,0,0,0,2.23,2.23h11.38a2.23,2.23,0,0,0,2.23-2.23V146.4A2.23,2.23,0,0,0,119.19,144.17Z"/><path class="cls-15" d="M43.62,109c-1.11,5.09-2.72,10.11-5,12.08-5.29,4.57-14.59,2.43-19.74,0-3-1.41-3.85-8.57-4-13.55a13.79,13.79,0,0,1,10.69-4.17C36.54,104.15,41.5,107.11,43.62,109Z"/><rect class="cls-16" x="52.05" y="184.53" width="42.99" height="26.83"/><path class="cls-17" d="M129.53,85.44a2,2,0,0,0-.32.41c-.12.21-.45.65-.67.94a.28.28,0,0,0,.12.43,52.94,52.94,0,0,0,7,2.35,69.14,69.14,0,0,0,9.57,1.7.3.3,0,0,0,.29-.18,1.5,1.5,0,0,0-.09-1.29c-.22-.36-4.41-.5-8.57-1.39A25.81,25.81,0,0,1,129.53,85.44Z"/><path class="cls-12" d="M141.66,95.53s1.2,10.9-5.88,19.28-13.89,4.86-15.89,2.6c0,0,8.47,4,13.79-2.89S141.66,95.53,141.66,95.53Z"/><path class="cls-10" d="M129.42,85h0Z"/><path class="cls-10" d="M116.72,96.58c4.36-10,12-11.48,12.7-11.6-9.69,1.32-13.15,10.14-14.14,13.59-.37.57-.56.92-.56.92l.27.21,0,.25h.54c.15-.51.32-1,.49-1.48,2.48-4,8.28-7.71,8.28-7.71C121,91.84,118.39,94.49,116.72,96.58Z"/><path class="cls-18" d="M11.54,111.72s-8.78,2.65-9.72,2.74c-.48,0-1-1.47-1.33-3.08-.09-.41-.17-.83-.24-1.22-.11-.67-.2-1.29-.23-1.74a2.28,2.28,0,0,1,0-.66c.2-.66,6.19-1.83,6.19-1.83l.58.63.12.13L11,111.11Z"/><path class="cls-1" d="M11.54,111.72s-8.78,2.65-9.72,2.74c-.48,0-1-1.47-1.33-3.08.54.82,1.44,1.92,2.39,1.87a74.29,74.29,0,0,0,8.1-2.14Z"/><path class="cls-19" d="M6.79,106.56a24.22,24.22,0,0,0-5.34,1.84,2.75,2.75,0,0,0-1.2,1.76c-.11-.67-.2-1.29-.23-1.74a2.28,2.28,0,0,1,0-.66c.2-.66,6.19-1.83,6.19-1.83Z"/><path class="cls-20" d="M120.75,98.94l-.13.45-2.22,7.68c-4.84-.23-9.54,1.13-12.74,4.91a22.42,22.42,0,0,0-3,4.89l-.69,1.45a95.43,95.43,0,0,0-4,9.89q-.89,2.58-1.62,5.19c-.24.87-.48,1.75-.71,2.63a13.61,13.61,0,0,1-.6,2.44l-4.21.82-1.94.38s1-16.36,9-30S120.75,98.94,120.75,98.94Z"/><path class="cls-1" d="M120.62,99.39l-2.22,7.68c-4.84-.23-9.54,1.13-12.74,4.91a22.42,22.42,0,0,0-3,4.89l-.69,1.45a95.43,95.43,0,0,0-4,9.89q-.89,2.58-1.62,5.19c-.24.87-.48,1.75-.71,2.63a13.61,13.61,0,0,1-.6,2.44l-4.21.82c0-.24.06-.51.09-.83l3.31-.64a14.51,14.51,0,0,0,.6-2.44c.23-.89.47-1.76.71-2.63q.74-2.61,1.61-5.18a95.76,95.76,0,0,1,4.05-9.91c.23-.48.47-1,.69-1.44a22.47,22.47,0,0,1,3-4.89c3.2-3.78,7.9-5.14,12.74-4.91l2-7.06C120,99.36,120.32,99.38,120.62,99.39Z"/><path class="cls-12" d="M120.75,98.94l-.21.75c-4-.33-15-.11-21.41,10.89-6.66,11.44-8.48,24.79-8.89,28.81l-1.43.28s1-16.36,9-30S120.75,98.94,120.75,98.94Z"/><path class="cls-18" d="M146.82,107.46a27.78,27.78,0,0,1-1,6.1c-.38,1.31-.8,2.25-1.19,2.19a1.75,1.75,0,0,1-1.34-.68c-.28-.53-.36-1-1-1.17s-1.53-.35-2.28-.55l-2.11-.59-5.67-1.63-6.34-1.86-5.48-1.63c-1-.32-2.08-.62-3.11-1l-.25-.08a3.84,3.84,0,0,1,.25-1.53c.37-1.5,1-3.73,1.42-5,.18-.56.29-.92.29-.92s22.84,7,24.15,6.76,2.86-.4,3.51.41A2.23,2.23,0,0,1,146.82,107.46Z"/><path class="cls-1" d="M145.82,113.56c-.38,1.31-.8,2.25-1.19,2.19a1.75,1.75,0,0,1-1.34-.68c-.28-.53-.36-1-1-1.17s-1.53-.35-2.28-.55l-2.11-.59-5.67-1.63-6.34-1.86-5.48-1.63c-1-.32-2.08-.62-3.11-1l-.25-.08a3.84,3.84,0,0,1,.25-1.53c5.31,1.61,23.17,7,24.44,7.15,1.49.16,1.84,1.45,2.79,1.1A1.6,1.6,0,0,1,145.82,113.56Z"/><path class="cls-12" d="M146.82,107.46c-.58-.65-2.45-.67-3.66-.61-1,.06-19.32-5.25-24.44-6.74.18-.56.29-.92.29-.92s22.84,7,24.15,6.76,2.86-.4,3.51.41A2.23,2.23,0,0,1,146.82,107.46Z"/><path class="cls-12" d="M145.61,107.82a31.18,31.18,0,0,1-.78,4.3.32.32,0,0,0,.23.39l.32.08a.33.33,0,0,0,.39-.25,25,25,0,0,0,.65-4.47C146.24,107.3,145.61,107.82,145.61,107.82Z"/><path class="cls-20" d="M26.72,98.94s15-3,22.93,10.7,9,30,9,30l-6.16-1.2s-2.66-11.3-5.36-16.55-4.83-15.49-18.07-14.85Z"/><path class="cls-1" d="M58.66,139.67l-6.16-1.2s-2.66-11.3-5.36-16.56-4.83-15.48-18.07-14.84l-2.36-8.13s.24,0,.69-.1l2.2,7.62C42.85,105.82,45,116,47.67,121.3S53,137.85,53,137.85l5.57,1.09C58.64,139.41,58.66,139.67,58.66,139.67Z"/><path class="cls-20" d="M58.6,138.94,53,137.85s-2.66-11.3-5.36-16.55-4.82-15.48-18.07-14.84l-2.2-7.62c3-.39,15.31-1.12,22.25,10.81S58.29,135.61,58.6,138.94Z"/><path class="cls-20" d="M59.19,139.05l-.59-.11c-.31-3.33-2-17.34-9-29.29S30.42,98.45,27.4,98.84l-.15-.52s15-2.95,22.93,10.71S59.19,139.05,59.19,139.05Z"/><path class="cls-12" d="M58.66,139.67l-.51-.1c-.46-4.31-2.33-17.34-8.86-28.56-6.91-11.85-19.11-11.2-22.21-10.81l-.37-1.26s15-3,22.94,10.71S58.66,139.67,58.66,139.67Z"/><path class="cls-21" d="M42.32,101.41a.6.6,0,0,1,0,.19h0c0,.14,0,.29,0,.44a15.6,15.6,0,0,1-1.88,6.13,7.38,7.38,0,0,1-1.22,1.56,1.6,1.6,0,0,1-1.91.21,11.8,11.8,0,0,0-7.74-1.22,1.59,1.59,0,0,1-1.77-1.23l-.5-2.19-1.16-5.09a1.76,1.76,0,0,1,0-.31,1.62,1.62,0,0,1,1.35-1.64c2.82-.45,8.72-.92,14,1.74A1.6,1.6,0,0,1,42.32,101.41Z"/><path class="cls-12" d="M42.32,101.41c-6.61-3.24-13.49-2-16.27-1.5a1.62,1.62,0,0,1,1.35-1.64c2.82-.45,8.72-.92,14,1.74A1.6,1.6,0,0,1,42.32,101.41Z"/><path class="cls-1" d="M40.39,108.18a7.38,7.38,0,0,1-1.22,1.56,1.6,1.6,0,0,1-1.91.21,11.8,11.8,0,0,0-7.74-1.22,1.59,1.59,0,0,1-1.77-1.23l-.5-2.19A14.79,14.79,0,0,1,40.39,108.18Z"/><path class="cls-22" d="M95.9,137.62,53,138.39l-2.07,0-.86-3.72c.48-6.8,1.38-14.57,4.6-20.69a11.12,11.12,0,0,1,.59-1c5.45-8.2,20-7.3,28.32-5.41,3,.71,5.84,2,7.51,4.78s2.16,6,2.71,9.09c.91,5.11,1.54,10.27,2,15.43Z"/><path class="cls-12" d="M51.67,133.9s2.07-23.74,10.54-24c0,0-6.13,3.33-7.81,24.82"/><path class="cls-12" d="M81,109.28s12,6.29,2.06,27.22l9.61.37S98,113.48,81,109.28Z"/><path class="cls-23" d="M49.4,132.16H97.74a4.38,4.38,0,0,1,4.38,4.38v2.58a6.66,6.66,0,0,1-6.66,6.66H51.69A6.66,6.66,0,0,1,45,139.11v-2.58a4.38,4.38,0,0,1,4.38-4.38Z"/><rect class="cls-24" x="106.73" y="145.03" width="13.54" height="10.1" rx="3.18"/><rect class="cls-25" x="47.91" y="174.94" width="10.77" height="89.81" rx="5.39"/><rect class="cls-26" x="87.5" y="174.94" width="10.77" height="89.81" rx="5.39"/><path class="cls-27" d="M91,233.33v69.6a11.51,11.51,0,0,1-7.77,10.89,6,6,0,0,1-.6.2,11.84,11.84,0,0,1-3.17.44H66.66a11.15,11.15,0,0,1-2.6-.3c-.21,0-.41-.1-.6-.15a11.53,11.53,0,0,1-8.34-11.08v-69.6A11.54,11.54,0,0,1,66.66,221.8H79.41A11.54,11.54,0,0,1,91,233.33Z"/><path class="cls-28" d="M72.17,221.8c.45,1.11,1,2.18,1.33,3.28a6.74,6.74,0,0,1,.29,1.11,2.81,2.81,0,0,1-.1,1.06,17.54,17.54,0,0,1-.84,2.24c-.32.75-.66,1.51-1,2.29A11.06,11.06,0,0,0,71.5,233a3.29,3.29,0,0,0-.06,1.4,11.54,11.54,0,0,0,.8,2.43c.32.77.66,1.52,1,2.26a6.9,6.9,0,0,1,.57,2.19,8.11,8.11,0,0,1-.64,2.2l-1,2.27a10.74,10.74,0,0,0-.78,2.46,3.4,3.4,0,0,0,.12,1.4,11.79,11.79,0,0,0,.4,1.23c.3.78.64,1.53,1,2.28a15,15,0,0,1,.79,2.24,2.4,2.4,0,0,1,0,1,6.74,6.74,0,0,1-.31,1.1c-.54,1.5-1.33,2.95-1.83,4.61a4.22,4.22,0,0,0-.21,1.36,5.49,5.49,0,0,0,.27,1.34c.27.82.6,1.58.93,2.34s.66,1.5.92,2.24a6.58,6.58,0,0,1,.28,1.1,2.72,2.72,0,0,1-.11,1c-.4,1.5-1.2,3-1.77,4.54a9.58,9.58,0,0,0-.38,1.25,3.25,3.25,0,0,0,0,1.39,12.18,12.18,0,0,0,.82,2.43c.32.76.67,1.51,1,2.26a6.53,6.53,0,0,1,.57,2.19,7.83,7.83,0,0,1-.65,2.22l-1,2.27a10.25,10.25,0,0,0-.76,2.46,3.8,3.8,0,0,0,.14,1.36,10.73,10.73,0,0,0,.41,1.21,43.21,43.21,0,0,1,1.78,4.53,2.63,2.63,0,0,1,0,1.08,6.73,6.73,0,0,1-.32,1.12c-.27.76-.6,1.5-.92,2.26a21.15,21.15,0,0,0-.89,2.35,4.08,4.08,0,0,0-.19,1.33,4.77,4.77,0,0,0,.28,1.29c.53,1.61,1.32,3.06,1.84,4.58.09.27.17.55.23.81h.68a6.75,6.75,0,0,0-.26-1c-.54-1.6-1.32-3.06-1.82-4.58a4.48,4.48,0,0,1-.23-1.11,3.3,3.3,0,0,1,.17-1.09,18.28,18.28,0,0,1,.87-2.25c.33-.76.67-1.51,1-2.3a7.45,7.45,0,0,0,.35-1.25,3.16,3.16,0,0,0,0-1.37,38.68,38.68,0,0,0-1.78-4.65,5.25,5.25,0,0,1-.48-2.2,9.66,9.66,0,0,1,.71-2.24l1-2.26a8.46,8.46,0,0,0,.72-2.5,4.49,4.49,0,0,0-.2-1.35c-.12-.42-.27-.82-.42-1.21-.31-.78-.65-1.53-1-2.28a11,11,0,0,1-.75-2.23,4.17,4.17,0,0,1,.39-2.16c.55-1.52,1.36-2.95,1.83-4.63a3.55,3.55,0,0,0,.14-1.39,7.49,7.49,0,0,0-.32-1.3c-.27-.81-.61-1.56-.93-2.32a23.33,23.33,0,0,1-.89-2.25,4.3,4.3,0,0,1-.21-1.07,3.38,3.38,0,0,1,.17-1.05c.46-1.5,1.25-3,1.82-4.55a8,8,0,0,0,.34-1.28,3.35,3.35,0,0,0,0-1.41,13.61,13.61,0,0,0-.86-2.4c-.32-.76-.67-1.51-1-2.25a5,5,0,0,1-.48-2.16,10.13,10.13,0,0,1,.7-2.22l1-2.27a8,8,0,0,0,.7-2.53,7,7,0,0,0-.65-2.55c-.31-.78-.65-1.53-1-2.28a11,11,0,0,1-.75-2.23,4.24,4.24,0,0,1,.39-2.17c.28-.75.61-1.5.94-2.26a17.17,17.17,0,0,0,.87-2.38,3.88,3.88,0,0,0,.11-1.37,8.26,8.26,0,0,0-.33-1.28c-.37-1-.83-2-1.25-3Z"/><g class="cls-29"><path class="cls-28" d="M83.18,223.45v90.37a6,6,0,0,1-.6.2V223.45Z"/></g><g class="cls-29"><path class="cls-28" d="M64.06,223.45v90.71c-.21,0-.41-.1-.6-.15V223.45Z"/></g><path class="cls-30" d="M95,218v6.34a5.24,5.24,0,0,1-.8,2.81,5.33,5.33,0,0,1-4.55,2.53H56.78a5.86,5.86,0,0,1-.94-.08,5.34,5.34,0,0,1-3.56-2.38,5.26,5.26,0,0,1-.85-2.88V218A21.81,21.81,0,0,1,95,218Z"/><path class="cls-12" d="M88.42,218.58v7.26c0,2.14-1.26,3.87-2.82,3.87H60.87c-1.56,0-2.82-1.73-2.82-3.87v-7.26A25.32,25.32,0,0,1,62.44,204a16.26,16.26,0,0,1,3.38-3.48,12.93,12.93,0,0,1,1.54-1c6.12-3.42,13.63-1.13,17.89,6.37A26.15,26.15,0,0,1,88.42,218.58Z"/><path class="cls-31" d="M72.53,219.14H74a6.79,6.79,0,0,1,6.79,6.79v0a1.83,1.83,0,0,1-1.83,1.83H67.56a1.83,1.83,0,0,1-1.83-1.83v0A6.79,6.79,0,0,1,72.53,219.14Z"/><path class="cls-9" d="M24.25,96.47s-6.75-.61-8.79,1.33-5.83,2.66-6.64,4-5.21,1.53-5.21,4.9,1.43,10.73,5,11.65,4.91-1.43,4.91-2c0,0,3.88.2,4.9-1.64,0,0,3.17,0,4.5-2.14,0,0,3.17-.11,3.68-1.64a2.83,2.83,0,0,0,1.95,1.5,1.9,1.9,0,0,0,2-1.92C30.63,106.71,30.26,95.8,24.25,96.47Z"/><path class="cls-19" d="M26.79,97a5.39,5.39,0,0,0-1.06,0s-7.61-.69-9.93,1.5-6.58,3-7.5,4.5c-.61,1-3,1.44-4.57,2.75.72-2.51,4.35-2.79,5.09-4s4.59-2,6.64-4,8.79-1.33,8.79-1.33A3.87,3.87,0,0,1,26.79,97Z"/><path class="cls-32" d="M100.28,145.29v18.25a5.37,5.37,0,0,1-2,4.21A5.18,5.18,0,0,1,95,168.9H53a5.32,5.32,0,0,1-5.28-5.36V145.29a19.42,19.42,0,0,1,19.27-19.57H81A19.42,19.42,0,0,1,100.28,145.29Z"/><path class="cls-12" d="M100.28,145v18a5.28,5.28,0,0,1-2,4.15c.23-4.9,2.36-19.67-1.17-28.8-2.79-7.18-13.25-11.63-18.81-12.59H81A19.26,19.26,0,0,1,100.28,145Z"/><path class="cls-33" d="M95.91,144.61v16.81a.66.66,0,0,1,0,.14A4.55,4.55,0,0,1,91.35,166H56.61a4.56,4.56,0,0,1-4.56-4.56V144.61A16.63,16.63,0,0,1,68.68,128H79.27a3.62,3.62,0,0,1,.47,0A16.63,16.63,0,0,1,95.91,144.61Z"/><path class="cls-12" d="M95.91,144.61v16.81a.66.66,0,0,1,0,.14,110.79,110.79,0,0,0-2.17-20c-2-9-9.73-12.37-14-13.57A16.63,16.63,0,0,1,95.91,144.61Z"/><circle class="cls-34" cx="73.24" cy="151.88" r="17.68"/><circle class="cls-35" cx="73.24" cy="150.08" r="17.68"/><circle class="cls-36" cx="73.24" cy="150.08" r="16.13"/><g class="cls-37"><path class="cls-38" d="M89.26,151.82a16.12,16.12,0,0,1-32.05,0,28.95,28.95,0,0,1,32.05,0Z"/></g><path class="cls-19" d="M89.36,150.08c0,.16,0,.33,0,.49a16.12,16.12,0,0,0-32.23,0c0-.16,0-.33,0-.49a16.13,16.13,0,1,1,32.25,0Z"/><path class="cls-39" d="M78.14,139.47a11.78,11.78,0,0,1,6.36,5.7.74.74,0,0,1-.35,1l-9,4.18a.73.73,0,0,1-1-.89l3.06-9.52A.73.73,0,0,1,78.14,139.47Z"/><path class="cls-40" d="M51.13,173.06H94.82a5.73,5.73,0,0,1,5.73,5.73v2a3.11,3.11,0,0,1-3.11,3.11H48.51a3.11,3.11,0,0,1-3.11-3.11v-2A5.73,5.73,0,0,1,51.13,173.06Z"/><rect class="cls-41" x="49.57" y="168.5" width="48.07" height="19.89" rx="3.44"/><rect class="cls-42" x="50.96" y="169.41" width="45.31" height="18.06" rx="3.18"/><path class="cls-43" d="M105,21.44c0,4.21-1.2,19.22-6,27-.32.51-.65,1-1,1.48a28.7,28.7,0,0,1-7.11,6.75l-.41.27c-.45.29-.9.56-1.37.83l-.16.09L88.9,58a25.48,25.48,0,0,1-3.38,1.61h0a24.44,24.44,0,0,1-4.67,1.34,20.45,20.45,0,0,1-11.46-1.37c-.28-.11-.56-.23-.83-.36h0a26.33,26.33,0,0,1-2.63-1.37,32.8,32.8,0,0,1-3.61-2.51l-1.05-.89c-.22-.2-.45-.4-.67-.62a26.32,26.32,0,0,1-2.29-2.43,23,23,0,0,1-2-2.73c-4.8-7.8-6-22.82-6-27S52,17.7,52,17.7A24.75,24.75,0,0,1,56.31,9a22.32,22.32,0,0,1,3.92-3.91c4.26-3.3,9.72-4.76,15-5C80.88-.21,86.79.38,91.86,3A21.31,21.31,0,0,1,99,8.83a24.71,24.71,0,0,1,4.27,8.72S105,17.24,105,21.44Z"/><path class="cls-44" d="M101.15,25.61a33.06,33.06,0,0,1-.27,3.85,30.11,30.11,0,0,1-.84,4.31,24.7,24.7,0,0,1-1.67,4.41,20.12,20.12,0,0,1-2.73,4.15A19.46,19.46,0,0,1,87,48.12a30.84,30.84,0,0,1-10.89,1.7,24.53,24.53,0,0,1-2.57-.23,24,24,0,0,1-10-3.67,19.21,19.21,0,0,1-3.84-3.42l-.26-.32A19.94,19.94,0,0,1,57,38.51a24.74,24.74,0,0,1-1.55-3.9c0-.11-.07-.22-.1-.33a37.07,37.07,0,0,1-1-12.15A1,1,0,0,1,56,21.35l.37.22A32.61,32.61,0,0,0,61,23.86a44.81,44.81,0,0,0,16,2.87s12.44.66,22.45-5.59a1,1,0,0,1,1.54.74c0,.27,0,.51.06.68C101.14,23.58,101.17,24.59,101.15,25.61Z"/><path class="cls-44" d="M98.61,37.68l-.24.5a20.12,20.12,0,0,1-2.73,4.15,18.92,18.92,0,0,1-4,3.55,18.68,18.68,0,0,1-1.71,1,132.26,132.26,0,0,0-.32-16.63c-.08-.93-.16-1.81-.24-2.67a36.76,36.76,0,0,0,8.81-3.41A113,113,0,0,1,98.61,37.68Z"/><path class="cls-44" d="M61.88,44.66a18.62,18.62,0,0,1-2.19-2.16l-.26-.32a19.47,19.47,0,0,1-1.7-2.42c-.21-5.75-.34-12.11-.15-16.51,1,.51,2,1,3,1.37.47.19,1,.36,1.41.52C61.84,31,61.78,38.29,61.88,44.66Z"/><path class="cls-45" d="M61.87,43.8a.38.38,0,0,1-.65.28,17.58,17.58,0,0,1-1.53-1.58l-.26-.32c-.37-.45-.72-.92-1-1.4a4,4,0,0,1-.68-2.13c-.18-5.25-.29-10.85-.14-14.94a.3.3,0,0,1,.44-.25c.86.43,1.74.81,2.62,1.16.27.11.53.21.8.3a.89.89,0,0,1,.59.86C61.85,31.27,61.79,37.88,61.87,43.8Z"/><path class="cls-46" d="M67.47,22.5a.78.78,0,0,1-.61,1.43,17.81,17.81,0,0,1-6.1-2.62c-2.6-2.1,4-10.77,7.35-14.17a.47.47,0,0,1,.75.54c-.86,1.69-1.68,3.4-2.43,5.14a22.19,22.19,0,0,0-2,5.92,5.37,5.37,0,0,0,0,.7C64.41,20.87,66.4,21.85,67.47,22.5Z"/><path class="cls-47" d="M68.77,5.82a.49.49,0,0,1,.55.79c-2.57,2.59-6.79,7.86-7.14,14.84l0,.78c-.39-.13-.76-.28-1.15-.43q-1.32-.51-2.64-1.17a.91.91,0,0,1-.49-.94c0-.28.08-.59.11-.76C59,13.18,61.89,8.82,68.77,5.82Z"/><path class="cls-45" d="M98.61,37.68l-.24.5a20.12,20.12,0,0,1-2.73,4.15,18.92,18.92,0,0,1-4,3.55l-.44.29A.78.78,0,0,1,90,45.5a134.63,134.63,0,0,0-.38-15.24c-.06-.69-.12-1.35-.18-2a.79.79,0,0,1,.58-.84,36.28,36.28,0,0,0,7.15-2.7.79.79,0,0,1,1.14.63A120.51,120.51,0,0,1,98.61,37.68Z"/><path class="cls-46" d="M85.82,8a.27.27,0,0,0-.29.29c0,.23,0,.59.06,1a45.89,45.89,0,0,0,1,5.44,18.86,18.86,0,0,1,.24,5.56,4.31,4.31,0,0,1-.8,2.25A6.19,6.19,0,0,1,84.18,24a.26.26,0,0,0,.17.49c1.75-.33,4.08-.83,6.06-1.41a40.29,40.29,0,0,0,9-3.82.27.27,0,0,0-.1-.5,2.29,2.29,0,0,1-1.38-.6c-1.24-1.12-2.59-7.42-9.71-10.05h-.08Z"/><path class="cls-47" d="M88.79,22.91C87.47,13.16,85.61,9.13,84.4,7.47A.52.52,0,0,1,85,6.66c3.24.81,10,3.63,12.47,13.23a.54.54,0,0,1-.27.61,37.44,37.44,0,0,1-7.72,2.85A.52.52,0,0,1,88.79,22.91Z"/><path class="cls-46" d="M63.77,53.84a3.07,3.07,0,0,1-.53-2.12c.07-.59.16-1.4.7-1.76.71-.47,1.78.11,2.51.23l2.25.33a.28.28,0,0,0,.14-.53,24,24,0,0,1-8.19-4.76c-2.43-2.34-1.18,1.24.19,4.44l-.05.17-.23,3.94c.22.22.45.42.67.62l1.05.89a32.8,32.8,0,0,0,3.61,2.51,26.33,26.33,0,0,0,2.63,1.37h0a2,2,0,0,0,.79.33c-.8-.9-1.84-1.64-2.7-2.49A18.37,18.37,0,0,1,63.77,53.84Z"/><path class="cls-47" d="M62.11,52.55s0-.07,0-.1c-.11-1.87-.14-3.74-.19-5.6a1.14,1.14,0,0,0-.43-.88,18.87,18.87,0,0,1-2.25-2.22c-.07-.08-.64-.81-1.07-1.39a.18.18,0,0,0-.32.12c.14,3.42.29,6.46.41,8.49a1.2,1.2,0,0,0,.27.68,28.13,28.13,0,0,0,3.76,3.64,32.8,32.8,0,0,0,3.61,2.51,26.33,26.33,0,0,0,2.63,1.37A25.56,25.56,0,0,1,65.66,57a16.19,16.19,0,0,1-2.79-2.5A3.78,3.78,0,0,1,62.11,52.55Z"/><path class="cls-46" d="M89.15,57.79c.46-.26.92-.54,1.36-.82l-.1-1.62-.86.26c.13-.72.26-1.44.37-2.16a30.56,30.56,0,0,0,.49-4.86,3.05,3.05,0,0,0-.08-.74c0-.14-.12-.29-.27-.3a.36.36,0,0,0-.2.06,37.19,37.19,0,0,1-9.09,3c-.08,0-.2.08-.17.17s.11.08.19.07c1.2,0,2.41-.1,3.62-.19,1-.08,2.07-.14,3.11-.3.87-.14,1,.94,1.06,1.58a15.9,15.9,0,0,1-.35,5,4.84,4.84,0,0,1-2.71,2.6A25.48,25.48,0,0,0,88.9,58l.08-.06.09,0,.07,0Z"/><path class="cls-47" d="M98.6,38.39c-.09,4-.31,8-.57,11.56a28.7,28.7,0,0,1-7.11,6.75c-.66.44-1.33.86-2,1.24.4-2.91.77-6.39,1-10.35.59-.31,1.17-.66,1.74-1a18.92,18.92,0,0,0,4-3.55,20.12,20.12,0,0,0,2.73-4.15Z"/><path class="cls-12" d="M45.58,55.5a.9.9,0,0,0-1.28-.72C41.47,56.13,34.24,60,32,65,29.25,71.38,26,80.9,26,81.89s3.88-2.67,3.25-4,1.11-3.7,2-4,.19-5,1.52-6.1,3.18-.3,3.23-2,3.22-1.86,3.52-3.12,1.33-1.62,1.63-2.36,4.63-3.65,4.51-4.89Z"/><path class="cls-10" d="M34.05,93.7c-.47-.34-6.57-4.54-14.67.74l.36-1.29C22.93,91.36,29.53,89,34.05,93.7Z"/><path class="cls-48" d="M25.16,81.31l-1.87-7.2a.93.93,0,0,0-1.15-.67L2.39,78.67a.93.93,0,0,0-.67,1.14l2,7.73a.94.94,0,0,0,1.15.68l12.87-3.4a.88.88,0,0,1,.62.05L27.59,89a1,1,0,0,1,.56.79l1,12.63a.94.94,0,0,0,.94.86h.51a.94.94,0,0,0,.93-1L30.1,88.73a.94.94,0,0,0-.52-.74l-6.65-3.32a.94.94,0,0,1,.13-1.74l1.48-.49A.94.94,0,0,0,25.16,81.31Z"/><path class="cls-12" d="M23,120.44s10.77,3.8,17.29-3.53A14,14,0,0,1,31.1,120,28.78,28.78,0,0,0,23,120.44Z"/><path class="cls-10" d="M107,97s-2.26-7.16,3.93-20.64C111,76.31,107.65,84.38,107,97Z"/><path class="cls-10" d="M8.08,105.93a11.56,11.56,0,0,0,4,9.54S8.19,111.36,8.08,105.93Z"/><path class="cls-10" d="M13.86,104a11.54,11.54,0,0,0,4,9.53S14,109.46,13.86,104Z"/><path class="cls-10" d="M18.87,101.92a11.56,11.56,0,0,0,4,9.54S19,107.35,18.87,101.92Z"/><path class="cls-10" d="M26.05,103a16.06,16.06,0,0,1,.48,6.86A65.81,65.81,0,0,0,26.05,103Z"/><rect class="cls-24" x="26.78" y="145.03" width="13.54" height="10.1" rx="3.18"/><path class="cls-49" d="M40.19,154l-.11-2-.2-3.39c-.05-.91,0-1.89-.74-2.55a2.54,2.54,0,0,0-1.73-.5l-2.4-.09-3.24-.13-2.78-.1-1,0,.73-.15h9.73a1.9,1.9,0,0,1,1.91,1.91v6.28Z"/><path class="cls-50" d="M120.14,154l-.11-2-.19-3.39c-.06-.91,0-1.89-.75-2.55a2.54,2.54,0,0,0-1.73-.5l-2.4-.09-3.24-.13-2.78-.1-1,0,.74-.15h9.72a1.9,1.9,0,0,1,1.91,1.91v6.28Z"/><path class="cls-10" d="M32.68,173.45c-4.7,3.41-15.7,6.78-19.54,7.9a.73.73,0,0,0-.12-.45,3.72,3.72,0,0,1-.35-.53C17.57,179.67,32.2,173.64,32.68,173.45Z"/><path class="cls-51" d="M43.74,155.26a.84.84,0,0,0-.12-.13S43.65,155.07,43.74,155.26Z"/><path class="cls-10" d="M42.12,158.84h0c1.66.49,2.89,5.51,3.61,9.36A56.06,56.06,0,0,0,45,160a27.7,27.7,0,0,0-1.27-4.67c.69.8,3.53,4.75,2.72,15.39-.08.25-.14.51-.2.76s-.16.61-.23.91h0c0,.24-.11.47-.16.71,0-.66,0-1.46-.07-2.35-1.55-10.29-3.57-11.78-3.69-11.87Z"/><path class="cls-10" d="M135.6,183.29s.06.2.14.54a50.62,50.62,0,0,1-13.5-5.38A46.32,46.32,0,0,0,135.88,183,2.71,2.71,0,0,1,135.6,183.29Z"/><path class="cls-10" d="M105.87,160.42s-3,4.67-4.45,14.76a3.74,3.74,0,0,0-.6-2C101.53,170,103.58,161.79,105.87,160.42Z"/><path class="cls-10" d="M102.11,160.8s-2,4.71-2.93,7.66a.83.83,0,0,0-.24-.33C99.38,166.75,101,161.88,102.11,160.8Z"/><path class="cls-10" d="M133.77,159.05A24.85,24.85,0,0,0,122.26,158a18.57,18.57,0,0,1,10-.46C132.82,158,133.3,158.54,133.77,159.05Z"/><path class="cls-21" d="M120.89,100.28l-1.44,6.32-.25,1.1a1.53,1.53,0,0,1-1.71,1.19,11.68,11.68,0,0,0-7.82,1.24,1.51,1.51,0,0,1-1.81-.18,6.4,6.4,0,0,1-1-1.22,15,15,0,0,1-2.12-6.41c0-.19,0-.36-.06-.53a.38.38,0,0,0,0-.1.54.54,0,0,1,0-.18,1.53,1.53,0,0,1,.84-1.32c5.39-2.72,11.39-2.2,14.18-1.75a1.47,1.47,0,0,1,.59.24,1.45,1.45,0,0,1,.63.88.32.32,0,0,1,0,.09A1.49,1.49,0,0,1,120.89,100.28Z"/><path class="cls-12" d="M120.87,99.56a24.55,24.55,0,0,0-16.23,2.23.38.38,0,0,0,0-.1.54.54,0,0,1,0-.18,1.53,1.53,0,0,1,.84-1.32c5.39-2.72,11.39-2.2,14.18-1.75a1.47,1.47,0,0,1,.59.24A1.45,1.45,0,0,1,120.87,99.56Z"/><path class="cls-1" d="M119.45,106.6l-.25,1.1a1.53,1.53,0,0,1-1.71,1.19,11.68,11.68,0,0,0-7.82,1.24,1.51,1.51,0,0,1-1.81-.18,6.4,6.4,0,0,1-1-1.22C109.45,107.32,114.3,105.37,119.45,106.6Z"/><path class="cls-13" d="M23.52,229.72a3.36,3.36,0,0,1-.9-2.8c.95-8.2-1.09-12.46-6.61-25.69a38.5,38.5,0,0,1-3.26-13.61c1.28,3.85,3.19,11.63,4.76,14a34,34,0,0,1,6,15C24.59,224.45,24.7,229.44,23.52,229.72Z"/><path class="cls-13" d="M47.83,227.19a15.3,15.3,0,0,1-2.43-3.74c-2.25-5,.53-21.86-.37-24.28s-1.82-21.77-1.82-21.77l2.12.75c.19,4.8,2.57,14.52,2.34,21-.23,6.78-.77,16.71,0,20.67A25,25,0,0,1,47.83,227.19Z"/><path class="cls-13" d="M132.31,197.38c-1.67,5.76-2.69,13.5-3.2,16.56-.68,4.09-5.23,18.66-6,19.91s-11.15,4.21-19.11,1a7.4,7.4,0,0,1-3.13-2.27c10.33,4.1,19.13.79,21.42-1.48,2.82-2.8,3.06-12.54,3.47-15.7C126.09,212.68,129.06,201.93,132.31,197.38Z"/><path class="cls-52" d="M60.84,111.46h0Z"/><path class="cls-13" d="M110.44,181.14c-.24,1.05-4.4,8.84-7,14.65a20.25,20.25,0,0,1-.06,5.9c-1,3.92-3.08,17.13-.5,14.2s1.7.8-.74,5.91c-1.56,3.28-1.65,7.75-1.51,10.51-3.44-4.64-1.18-12.46-1.18-12.46s1.7-6.82,1.13-12.17a15.5,15.5,0,0,1-.08-1.68c0-.31,0-.63,0-.95h0c0-.25,0-.51.05-.78,0-.12,0-.25,0-.38l.06-.64c0-.1,0-.2,0-.3,0-.27.07-.54.11-.81.58-4,1.79-8.09,2-10.78a.09.09,0,0,0,0,0,17.21,17.21,0,0,0-1.14-7.42c-.14-1.29,0-5.14-.19-7.88a17.14,17.14,0,0,1,4,.72C109.29,177.93,111.11,178.31,110.44,181.14Z"/><path class="cls-12" d="M55.84,229.63a5.34,5.34,0,0,1-3.56-2.38c.58-20.94,9-24.83,9.24-24.95C55.39,209.35,55.46,224.78,55.84,229.63Z"/><path class="cls-12" d="M94.24,227.18a5.34,5.34,0,0,1-3.56,2.44c.38-4.85.45-20.27-5.68-27.32C85.25,202.42,93.64,206.3,94.24,227.18Z"/><path class="cls-19" d="M72.15,200.52c2.26,1.23,6.9,4.27,8.31,8.94a1.29,1.29,0,0,0,1.8.79l.19-.09a2.17,2.17,0,0,0,1-2.8c-1.22-2.81-4.32-7.67-11.14-7.56A.39.39,0,0,0,72.15,200.52Z"/><path class="cls-48" d="M124.85,83.93l2.09-7.34a.54.54,0,0,1,.67-.37l19.65,5.85a.52.52,0,0,1,.36.65l-2.08,7.75a.54.54,0,0,1-.67.38l-12.4-3.59a.53.53,0,0,0-.35,0l-9.79,4.1a.52.52,0,0,0-.33.44l-1.06,10.9a.52.52,0,0,1-.55.49l-1.79,0a.54.54,0,0,1-.52-.6l1.7-11.43a.53.53,0,0,1,.31-.41l8.59-3.9a.53.53,0,0,0,0-1l-3.45-1.25A.54.54,0,0,1,124.85,83.93Z"/><polygon class="cls-53" points="121.7 102.17 120.08 100.55 117.83 101.18 117.2 103.43 118.82 105.05 121.07 104.42 121.7 102.17"/><polygon class="cls-48" points="121.14 102.33 119.92 101.11 118.23 101.58 117.76 103.27 118.98 104.49 120.67 104.02 121.14 102.33"/><polygon class="cls-53" points="32.83 102.72 31.21 101.1 28.97 101.73 28.34 103.97 29.96 105.59 32.21 104.96 32.83 102.72"/><polygon class="cls-48" points="32.28 102.87 31.06 101.65 29.37 102.12 28.89 103.82 30.11 105.04 31.81 104.57 32.28 102.87"/><g class="cls-54"><path class="cls-51" d="M75,89.9l-5.84-.16a2.59,2.59,0,0,1-1.6-.54c-.41-.34-.62-.54-.62-.61s.08-.15.25-.27a3.22,3.22,0,0,1,2-.69l7.19.21a5.54,5.54,0,0,1,.3-.53,3.24,3.24,0,0,1,.52-.6c.24-.21.4-.32.48-.31a1.27,1.27,0,0,1,.51.38,2.11,2.11,0,0,1,.5.69l.18.44,7.17.2a2.71,2.71,0,0,1,1.62.5c.4.32.6.52.6.59s-.08.18-.28.33a3.28,3.28,0,0,1-2,.68L79.9,90l.83.29a5.29,5.29,0,0,1,.67.34l1.14.82a10.62,10.62,0,0,0,2,1l1.46.57a5.47,5.47,0,0,1,1,.53,3.67,3.67,0,0,1,.65.72c.22.31.33.5.31.56s-.16.18-.44.33a2.26,2.26,0,0,1-1.13.21,5.7,5.7,0,0,1-1.43-.2,11.7,11.7,0,0,1-2.7-1.3,12.31,12.31,0,0,1-2.48-1.8A3.05,3.05,0,0,1,79.06,91l-.25-.86-.1,3.57a3.16,3.16,0,0,1-.19,1,2.85,2.85,0,0,1-.58.92c-.27.28-.44.43-.51.43s-.17-.07-.3-.21a2.89,2.89,0,0,1-.76-1.14,3.26,3.26,0,0,1-.15-1.07l.1-3.54a6.73,6.73,0,0,1-.84,1.56,9.44,9.44,0,0,1-2.82,1.87A21.45,21.45,0,0,1,69.52,95a5,5,0,0,1-1.46.21,2.41,2.41,0,0,1-1.15-.26c-.3-.16-.46-.28-.47-.36a.6.6,0,0,1,.16-.36,4,4,0,0,1,.88-.91,6.17,6.17,0,0,1,1.07-.63l2.29-.94a17.9,17.9,0,0,0,1.66-.82c.63-.35,1-.55,1.23-.63S74.33,90.09,75,89.9ZM71.14,79.77l.46-.8a8.41,8.41,0,0,1,.48-.8,2.31,2.31,0,0,1,.54-.54,2.62,2.62,0,0,1,.73-.36c.27-.09.44-.12.5-.08a1.09,1.09,0,0,1,.19.5,2.49,2.49,0,0,1,0,.8,4.22,4.22,0,0,1-.92,1.93c-.53.7-1,1.3-1.34,1.8s-.66.87-.88,1.11A13.89,13.89,0,0,1,69,84.82a7,7,0,0,1,1.86-.92,2.37,2.37,0,0,1,1.61.43,8.93,8.93,0,0,1-.13-1.18,2.25,2.25,0,0,1,.13-.84c.09-.26.17-.4.23-.43a.63.63,0,0,1,.39.13,3.61,3.61,0,0,1,.81.71,2.42,2.42,0,0,1,.44.86,4.17,4.17,0,0,1,.17,1.11,2.87,2.87,0,0,1-.1,1c-.09.25-.17.39-.24.41s-.18,0-.34-.09a2,2,0,0,1-.88-.69l-.37-.51a3,3,0,0,1-1,.78,5.93,5.93,0,0,1-1.55.37,6.59,6.59,0,0,1-1.43.1,3.43,3.43,0,0,1-.94-.24c-.33-.14-.51-.25-.53-.33a.61.61,0,0,1,.09-.41,5.49,5.49,0,0,1,.61-1L68.79,83l.86-1.07,1-1.15a3.1,3.1,0,0,1-1.42.52A2.76,2.76,0,0,1,67.9,81c-.39-.19-.61-.34-.64-.44a.88.88,0,0,1,.06-.47l.14-.54a2.37,2.37,0,0,1,.17-.48,8.17,8.17,0,0,1,.5-.79,10.58,10.58,0,0,0,.56-.91c.1-.2.25-.51.43-.91a10.52,10.52,0,0,1,.53-1,3.19,3.19,0,0,1,.61-.71,2.18,2.18,0,0,1,.78-.44.92.92,0,0,1,.53-.06c.08,0,.14.21.19.51a2.91,2.91,0,0,1,0,.88,4.21,4.21,0,0,1-.16.69,6.6,6.6,0,0,1-.56,1.15,7.15,7.15,0,0,1-.84,1.2,6,6,0,0,1-1.31,1,2.43,2.43,0,0,1,1.28-.42A1.74,1.74,0,0,1,71.14,79.77Zm6.15-2.63a5.8,5.8,0,0,1-.39-.72,1.4,1.4,0,0,1-.08-.74,1.33,1.33,0,0,1,.26-.67,2.24,2.24,0,0,1,.67-.53,1.2,1.2,0,0,1,.57-.21,1.77,1.77,0,0,1,.47.59,1.4,1.4,0,0,1,.28,1,1.54,1.54,0,0,1-.77,1,6.64,6.64,0,0,1,1.83.24c.56.17.83.72.8,1.66l-.14,4.92a3.63,3.63,0,0,1-.16.93,2.78,2.78,0,0,1-.49.91c-.23.27-.38.41-.46.4s-.33-.25-.6-.73c-.61.56-1.09.82-1.45.79a2.26,2.26,0,0,1-1.27-.86c-.31.49-.54.73-.68.72s-.21-.12-.4-.35a3,3,0,0,1-.45-.9,2.9,2.9,0,0,1-.18-1l.14-4.71A2.31,2.31,0,0,1,75,78a2.87,2.87,0,0,1,.51-.83c.19-.21.33-.31.41-.32s.18.11.33.32l.3.44A2.22,2.22,0,0,1,77.29,77.14Zm1.38,4.6a1.73,1.73,0,0,1-.87.44,1.49,1.49,0,0,1-1-.54l-.06,2a1.46,1.46,0,0,1-.09.56l-.16.42a2.28,2.28,0,0,1,1.25-.67c.31,0,.69.28,1.15.81-.09-.19-.16-.37-.23-.55a1.3,1.3,0,0,1-.09-.55Zm-1.79-1.07a1.72,1.72,0,0,1,.94-.48,1.54,1.54,0,0,1,.88.5l0-.79a2,2,0,0,1,.19-.73,2.5,2.5,0,0,1,.35-.62l.49-.57a5.52,5.52,0,0,1-.93.56,1.92,1.92,0,0,1-.89.13,2.25,2.25,0,0,1-1.21-.61,1.72,1.72,0,0,1,.21.82Zm8-.51.47-.77A10.55,10.55,0,0,1,86,78.5a1.83,1.83,0,0,1,.94-.63c.41-.14.64-.18.7-.14a1,1,0,0,1,.14.5,2.57,2.57,0,0,1,0,.83,2.84,2.84,0,0,1-.26.82A4.82,4.82,0,0,1,86.78,81l-.69.86-1.17,1.48a4.34,4.34,0,0,1-.6.61l-.7.44-.69.46a7,7,0,0,1,1.72-.77,2.55,2.55,0,0,1,1.6.42,8,8,0,0,1-.13-1.1,2.32,2.32,0,0,1,.13-.8q.14-.37.24-.42c.06,0,.19,0,.38.13a4.34,4.34,0,0,1,1,.86,2.2,2.2,0,0,1,.46,1.4,3.39,3.39,0,0,1-.11,1.22c-.08.23-.16.36-.23.38a.45.45,0,0,1-.34-.08,2.38,2.38,0,0,1-.89-.66l-.36-.49a2.93,2.93,0,0,1-1,.75,6.49,6.49,0,0,1-1.57.34,8.37,8.37,0,0,1-1.42.1,3.67,3.67,0,0,1-.94-.23c-.34-.13-.52-.23-.54-.32a.54.54,0,0,1,.1-.38,4.89,4.89,0,0,1,.61-1l.92-1,.85-1,1-1.08a3.06,3.06,0,0,1-1.42.48,2.65,2.65,0,0,1-1.36-.23c-.41-.19-.62-.33-.65-.42a.77.77,0,0,1,.06-.44c.17-.57.28-.91.32-1s.21-.32.49-.71a8.52,8.52,0,0,0,.57-.88c.11-.2.25-.49.44-.86a8.72,8.72,0,0,1,.67-1.15,1.8,1.8,0,0,1,1-.77,1.56,1.56,0,0,1,.73-.12c.08,0,.14.19.2.46a3,3,0,0,1,0,.84,3.51,3.51,0,0,1-.16.66,5.51,5.51,0,0,1-.57,1.09A6.83,6.83,0,0,1,84,79.17a6.41,6.41,0,0,1-1.32,1,2.85,2.85,0,0,1,1.29-.4A1.85,1.85,0,0,1,84.9,80.16Z"/></g><text class="cls-55" transform="translate(54.25 181.14)">及时行乐</text></g></g></svg>