<?xml version="1.0" encoding="utf-8"?>
<!-- Generator: Adobe Illustrator 23.0.2, SVG Export Plug-In . SVG Version: 6.00 Build 0)  -->
<svg version="1.1" id="图层_1" xmlns="http://www.w3.org/2000/svg" xmlns:xlink="http://www.w3.org/1999/xlink" x="0px" y="0px"
	 viewBox="0 0 800 800" style="enable-background:new 0 0 800 800;" xml:space="preserve">
<style type="text/css">
	.st0{fill:#CECECE;}
	.st1{fill:#A8A8A8;}
	.st2{fill:#943E7B;}
	.st3{fill:#1C1D1D;stroke:#14203E;stroke-width:3.1655;stroke-miterlimit:10;}
	.st4{fill:#F4DBD1;stroke:#000000;stroke-miterlimit:10;}
	.st5{fill:#B1DDDD;}
	.st6{fill:#9699C7;}
	.st7{fill:#412D35;}
	.st8{opacity:0.43;}
	.st9{fill:#FFFFFF;}
	.st10{fill:#040000;}
	.st11{fill:#6D2932;}
	.st12{fill:#431234;}
	.st13{fill:#C99C5D;}
	.st14{fill:#149793;}
	.st15{fill:none;stroke:#3A0C05;stroke-width:10;stroke-miterlimit:10;}
	.st16{fill:none;stroke:#C99C5D;stroke-width:5.5408;stroke-miterlimit:10;}
	.st17{fill:none;stroke:#3A0C05;stroke-width:10.8417;stroke-miterlimit:10;}
	.st18{fill:none;stroke:#C99C5D;stroke-width:6.0712;stroke-miterlimit:10;}
	.st19{fill:#300A03;}
	.st20{fill:#0A0203;}
	.st21{fill:#BF2220;}
	.st22{fill:#EC662F;}
	.st23{fill:#323333;}
	.st24{fill:#FFFFFF;stroke:#323333;stroke-width:2.4376;stroke-miterlimit:10;}
	.st25{fill:#F6C9B3;stroke:#323333;stroke-width:2.4376;stroke-miterlimit:10;}
	.st26{fill:#F6C9B3;stroke:#323333;stroke-width:2.541;stroke-miterlimit:10;}
	.st27{fill:none;stroke:#323333;stroke-width:4.1908;stroke-linecap:round;stroke-miterlimit:10;}
	.st28{fill:none;stroke:#323333;stroke-width:3;stroke-linecap:round;stroke-miterlimit:10;}
	.st29{fill:#F6C9B3;stroke:#323333;stroke-width:1.3747;stroke-miterlimit:10;}
	.st30{fill:#5F7E99;}
	.st31{fill:none;stroke:#323333;stroke-width:2.6814;stroke-linecap:round;stroke-miterlimit:10;}
	.st32{fill:#F6C9B3;stroke:#323333;stroke-width:2.2432;stroke-miterlimit:10;}
	.st33{fill:#9598C6;stroke:#323333;stroke-width:2.4376;stroke-miterlimit:10;}
	.st34{fill:#A4427C;stroke:#313333;stroke-width:2.3955;stroke-miterlimit:10;}
	.st35{fill:#FFFFFF;stroke:#323333;stroke-width:4.1907;stroke-miterlimit:10;}
	.st36{fill:none;stroke:#323333;stroke-width:4.1907;stroke-miterlimit:10;}
	.st37{fill:none;stroke:#323333;stroke-width:2.6322;stroke-linecap:round;stroke-miterlimit:10;}
	.st38{fill:#FFFFFF;stroke:#323333;stroke-width:1.8282;stroke-linecap:round;stroke-miterlimit:10;}
	.st39{fill:#FFFFFF;stroke:#323333;stroke-width:2.2669;stroke-linecap:round;stroke-miterlimit:10;}
	.st40{fill:#FFFFFF;stroke:#323333;stroke-width:1.6729;stroke-linecap:round;stroke-miterlimit:10;}
	.st41{fill:#FFFFFF;stroke:#323333;stroke-width:1.3755;stroke-linecap:round;stroke-miterlimit:10;}
	.st42{fill:#172D57;stroke:#323333;stroke-width:2.4376;stroke-linecap:round;stroke-miterlimit:10;}
	.st43{fill:none;stroke:#323333;stroke-width:2.3107;stroke-linecap:round;stroke-miterlimit:10;}
	.st44{fill:#040000;stroke:#323333;stroke-width:2.8975;stroke-miterlimit:10;}
	.st45{fill:none;stroke:#323333;stroke-width:1.6358;stroke-linecap:round;stroke-miterlimit:10;}
	.st46{fill:#ADADAD;stroke:#323333;stroke-width:2.8975;stroke-miterlimit:10;}
	.st47{fill:#495E6B;}
	.st48{fill:#FDF0D8;stroke:#2F3030;stroke-width:2.6751;stroke-miterlimit:10;}
	.st49{fill:#474747;stroke:#2F3030;stroke-width:1.3446;stroke-miterlimit:10;}
	.st50{fill:#FFFFFF;stroke:#2F3030;stroke-width:2.6751;stroke-miterlimit:10;}
	.st51{fill:#4A6EA8;stroke:#2F3030;stroke-width:2.1585;stroke-miterlimit:10;}
	.st52{fill:#4A6EA8;stroke:#2F3030;stroke-width:2.6751;stroke-miterlimit:10;}
	.st53{fill:#2F3030;stroke:#2F3030;stroke-width:2.6751;stroke-miterlimit:10;}
	.st54{fill:#FFFFFF;stroke:#2F3030;stroke-width:2.1109;stroke-miterlimit:10;}
	.st55{fill:#FFFFFF;stroke:#2F3030;stroke-width:1.3376;stroke-miterlimit:10;}
	.st56{fill:#1F2E39;stroke:#2F3030;stroke-miterlimit:10;}
	.st57{fill:#E8BED8;stroke:#2F3030;stroke-width:2.9553;stroke-miterlimit:10;}
	.st58{fill:#D774AA;stroke:#2F3030;stroke-width:2.9553;stroke-miterlimit:10;}
	.st59{fill:#E0A0C6;stroke:#2F3030;stroke-width:2.9553;stroke-miterlimit:10;}
	.st60{fill:#FDF0D8;stroke:#2F3030;stroke-width:2.9553;stroke-miterlimit:10;}
	.st61{fill:#1F2E39;stroke:#2F3030;stroke-width:2.9553;stroke-miterlimit:10;}
	.st62{fill:none;stroke:#2F3030;stroke-width:2.9553;stroke-miterlimit:10;}
	.st63{fill:none;stroke:#2F3030;stroke-width:2.9553;stroke-linecap:round;stroke-miterlimit:10;}
	.st64{fill:#2F3030;stroke:#2F3030;stroke-width:2.9553;stroke-linecap:round;stroke-miterlimit:10;}
	.st65{fill:#FFFFFF;stroke:#2F3030;stroke-width:2.9553;stroke-miterlimit:10;}
	.st66{fill:#D2599C;stroke:#2F3030;stroke-width:2.9553;stroke-miterlimit:10;}
	.st67{fill:#264B7E;stroke:#2F3030;stroke-width:4;stroke-miterlimit:10;}
	.st68{fill:#073E68;stroke:#2F3030;stroke-width:4;stroke-miterlimit:10;}
	.st69{fill:#F2C9B3;stroke:#2F3030;stroke-width:4;stroke-miterlimit:10;}
	.st70{fill:#F2C9B3;}
	.st71{fill:none;stroke:#2F3030;stroke-width:4;stroke-miterlimit:10;}
	.st72{fill:#F2C9B3;stroke:#2F3030;stroke-width:4;stroke-linecap:round;stroke-miterlimit:10;}
	.st73{fill:#050101;}
	.st74{fill:#533937;stroke:#000000;stroke-width:2.5835;stroke-miterlimit:10;}
	.st75{fill:#FFFFFF;stroke:#2F3030;stroke-width:2.5835;stroke-miterlimit:10;}
	.st76{fill:none;stroke:#040000;stroke-width:2.5835;stroke-linecap:round;stroke-miterlimit:10;}
	.st77{fill:#FFFFFF;stroke:#060404;stroke-width:2.5835;stroke-linecap:round;stroke-miterlimit:10;}
	.st78{fill:#987367;stroke:#000000;stroke-width:4;stroke-miterlimit:10;}
	.st79{fill:#FFFFFF;stroke:#000000;stroke-width:4;stroke-miterlimit:10;}
	.st80{fill:#F4DBD1;stroke:#000000;stroke-width:4;stroke-miterlimit:10;}
	.st81{fill:#F4DBD1;}
	.st82{fill:none;stroke:#000000;stroke-width:4;stroke-miterlimit:10;}
	.st83{fill:none;stroke:#000000;stroke-width:4;stroke-linecap:round;stroke-miterlimit:10;}
	.st84{fill:none;stroke:#DE322F;stroke-width:4;stroke-linecap:round;stroke-miterlimit:10;}
	.st85{fill:#D8A986;stroke:#14203E;stroke-width:3.6591;stroke-miterlimit:10;}
	.st86{fill:#9CA9CD;stroke:#14203E;stroke-width:3.6591;stroke-miterlimit:10;}
	.st87{fill:#D8A986;}
	.st88{fill:#E71F19;stroke:#14203E;stroke-width:3.6591;stroke-miterlimit:10;}
	.st89{fill:#394981;stroke:#14203E;stroke-width:3.6591;stroke-miterlimit:10;}
	.st90{fill:#14203E;}
	.st91{fill:none;stroke:#14203E;stroke-width:2.7443;stroke-linecap:round;stroke-miterlimit:10;}
	.st92{fill:none;stroke:#14203E;stroke-width:2.2123;stroke-linecap:round;stroke-miterlimit:10;}
	.st93{fill:#FFFFFF;stroke:#14203E;stroke-width:2.2123;stroke-linecap:round;stroke-miterlimit:10;}
	.st94{fill:#9CA9CD;}
	.st95{fill:#9CA9CD;stroke:#14203E;stroke-width:3.6591;stroke-linecap:round;stroke-miterlimit:10;}
	.st96{fill:none;stroke:#14203E;stroke-width:2.8957;stroke-miterlimit:10;}
	.st97{fill:#2C3376;stroke:#0B102C;stroke-width:3.2325;stroke-miterlimit:10;}
	.st98{fill:#F9D6C3;}
	.st99{fill:none;stroke:#14203E;stroke-width:3.2325;stroke-miterlimit:10;}
	.st100{fill:#F9D6C3;stroke:#14203E;stroke-width:3.2325;stroke-miterlimit:10;}
	.st101{fill:#E7211C;stroke:#14203E;stroke-width:1.8016;stroke-miterlimit:10;}
	.st102{fill:#FFFFFF;stroke:#14203E;stroke-width:3.2325;stroke-miterlimit:10;}
	.st103{fill:#FFFFFF;stroke:#14203E;stroke-width:3.2325;stroke-linecap:round;stroke-miterlimit:10;}
	.st104{fill:none;stroke:#14203E;stroke-width:3.2325;stroke-linecap:round;stroke-miterlimit:10;}
	.st105{fill:none;stroke:#14203E;stroke-width:4;stroke-linecap:round;stroke-miterlimit:10;}
	.st106{fill:#5B3719;stroke:#14203E;stroke-width:2.8784;stroke-miterlimit:10;}
	.st107{fill:#EAC3A2;stroke:#14203E;stroke-width:2.8784;stroke-miterlimit:10;}
	.st108{fill:#5B3719;}
	.st109{fill:#D65D37;stroke:#14203E;stroke-width:2.8784;stroke-miterlimit:10;}
	.st110{fill:#FFFFFF;stroke:#14203E;stroke-width:2.8784;stroke-miterlimit:10;}
	.st111{fill:none;stroke:#14203E;stroke-width:2.8784;stroke-linecap:round;stroke-miterlimit:10;}
	.st112{fill:#FFFFFF;stroke:#101722;stroke-width:4.779;stroke-miterlimit:10;}
	.st113{fill:#E71F19;stroke:#101722;stroke-width:2.7716;stroke-miterlimit:10;}
	.st114{fill:#252525;}
	.st115{fill:#F3CAAE;stroke:#101722;stroke-width:2.7716;stroke-miterlimit:10;}
	.st116{fill:#FFFFFF;stroke:#101722;stroke-width:3.3114;stroke-miterlimit:10;}
	.st117{fill:none;stroke:#101722;stroke-width:2.7716;stroke-miterlimit:10;}
	.st118{fill:none;stroke:#252525;stroke-width:0.6929;stroke-miterlimit:10;}
	.st119{fill:none;stroke:#2F3030;stroke-width:2.7716;stroke-miterlimit:10;}
</style>
<rect class="st3" width="800.38" height="800.38"/>
<g>
	<circle class="st85" cx="325.7" cy="357.28" r="19.69"/>
	<circle class="st85" cx="517.3" cy="357.28" r="19.69"/>
	<path class="st86" d="M517.3,552.51H325.7v-47.2c0-52.91,42.89-95.8,95.8-95.8h0c52.91,0,95.8,42.89,95.8,95.8V552.51z"/>
	<rect x="353.31" y="277.07" class="st87" width="137.45" height="117.05"/>
	<path class="st86" d="M363.27,468.21c0,0-50.76-15.03-17.47-66.58c27.25-42.2,44.51,26.45,49.87,52.72
		c1.19,5.83,1.79,11.77,1.79,17.72v80.43"/>
	<path class="st86" d="M482.43,469.94c0,0,50.76-15.03,17.47-66.58c-27.25-42.2-44.51,26.45-49.87,52.72
		c-1.19,5.83-1.79,11.77-1.79,17.72v80.43"/>
	<rect x="397.46" y="448.53" class="st88" width="50.79" height="103.98"/>
	<path class="st89" d="M325.7,292.01v67.55c0,52.91,42.89,95.8,95.8,95.8h0c52.91,0,95.8-42.89,95.8-95.8v-67.55
		c0-31.29-25.37-56.65-56.65-56.65h-78.3C351.06,235.36,325.7,260.73,325.7,292.01z M479.73,372.65c0,5.52-4.48,10-10,10h-0.59
		c-5.52,0-10-4.48-10-10v-0.33c0-10.21-8.28-18.49-18.49-18.49h-38.9c-10.21,0-18.49,8.28-18.49,18.49v0
		c0,5.4-4.41,10.23-9.81,10.33c-5.61,0.1-10.19-4.41-10.19-10v-66.72c0-6.7,6.45-11.46,12.88-9.57c9.1,2.68,20.59,4.3,25.92-2.06
		c3.12-3.73,8.65-4.25,12.74-1.6c8.88,5.77,21.85,10.97,30.25,0.03c2.91-3.8,8.02-5.15,12.32-3.03c4.06,2,9.03,3.98,13.54,4.46
		c5.04,0.54,8.82,4.86,8.82,9.92L479.73,372.65z"/>
	<circle class="st90" cx="450.4" cy="325.36" r="5.76"/>
	<circle class="st90" cx="391.69" cy="325.36" r="5.76"/>
	<path class="st91" d="M378.37,319.59c0,0,2.38-7.09,19.09-8.88"/>
	<path class="st91" d="M463.72,319.59c0,0-2.38-7.09-19.09-8.88"/>
	<path class="st92" d="M421.5,348.93L421.5,348.93c-2.97,0-5.37-2.4-5.37-5.37v-5.1c0-0.76,0.62-1.38,1.38-1.38h7.99
		c0.76,0,1.38,0.62,1.38,1.38v5.1C426.87,346.53,424.47,348.93,421.5,348.93z"/>
	<path class="st93" d="M410.35,370.49h22.3c1.14,0,1.71,1.37,0.92,2.18l-3,3.08c-4.97,5.1-13.16,5.1-18.13,0l-3-3.08
		C408.64,371.86,409.21,370.49,410.35,370.49z"/>
	<path class="st94" d="M441.1,434.21h-38.12c-7.46,0-13.51-6.05-13.51-13.51l0,0c0-7.46,6.05-13.51,13.51-13.51h38.12
		c7.46,0,13.51,6.05,13.51,13.51l0,0C454.61,428.16,448.56,434.21,441.1,434.21z"/>
	<circle class="st86" cx="378.37" cy="472.1" r="4.33"/>
	<circle class="st86" cx="465.71" cy="472.1" r="4.33"/>
	<line class="st86" x1="378.37" y1="472.1" x2="378.37" y2="495.3"/>
	<line class="st86" x1="465.71" y1="472.1" x2="465.71" y2="495.3"/>
	<line class="st95" x1="353.31" y1="516.3" x2="353.31" y2="550.66"/>
	<line class="st95" x1="490.76" y1="516.3" x2="490.76" y2="550.66"/>
	<path class="st96" d="M381.64,235.36c0,0-10.86-10.37,8.17-19.09"/>
	<path class="st96" d="M374.04,249.57c0,0-3.54,32.86,42.1,27.49"/>
	<path class="st96" d="M433.16,249.57c0,0-3.54,32.86,42.1,27.49"/>
	<path class="st96" d="M469.75,245.03c0,0-3.54,32.86,42.1,27.49"/>
</g>
</svg>
