<svg xmlns="http://www.w3.org/2000/svg" xmlns:xlink="http://www.w3.org/1999/xlink" viewBox="0 0 271.35 339.77"><defs><style>.cls-1{fill:#6680ba;}.cls-2{fill:#b5b1d8;}.cls-3{fill:#c3d6e0;}.cls-4{fill:#231815;}.cls-5{fill:#fffffe;}.cls-6{fill:#383347;}.cls-7{clip-path:url(#clip-path);}.cls-8{fill:#94abd6;}.cls-9{fill:#504d6d;}.cls-10{clip-path:url(#clip-path-2);}.cls-11{opacity:0.5;}.cls-12{fill:#fff;}</style><clipPath id="clip-path"><rect class="cls-1" x="62.45" y="191.99" width="90.98" height="167.08" rx="5.46" transform="translate(-182.79 330.66) rotate(-79.34)"/></clipPath><clipPath id="clip-path-2"><circle class="cls-2" cx="110.18" cy="270.8" r="28.65"/></clipPath></defs><title>资源 8</title><g id="图层_2" data-name="图层 2"><g id="图层_1-2" data-name="图层 1"><path class="cls-3" d="M145.4,231.16a9.13,9.13,0,0,1-1.73-.16l-50.58-9.52a9.32,9.32,0,0,1-7.43-10.87L90.11,187a9.31,9.31,0,0,1,9.15-7.59,9.1,9.1,0,0,1,1.72.16l50.58,9.51A9.33,9.33,0,0,1,159,199.93l-4.45,23.64A9.31,9.31,0,0,1,145.4,231.16Z"/><path class="cls-4" d="M99.25,181.88a6.83,6.83,0,0,1,1.27.12l50.58,9.51a6.82,6.82,0,0,1,5.43,8l-4.44,23.64a6.8,6.8,0,0,1-8,5.43L93.56,219a6.82,6.82,0,0,1-5.44-8l4.44-23.64a6.82,6.82,0,0,1,6.69-5.55m0-5h0a11.82,11.82,0,0,0-11.61,9.63L83.2,210.14a11.83,11.83,0,0,0,9.43,13.8l50.57,9.52a12.5,12.5,0,0,0,2.2.2A11.82,11.82,0,0,0,157,224l4.45-23.63A11.83,11.83,0,0,0,152,186.6l-50.57-9.52a12.48,12.48,0,0,0-2.19-.2Z"/><path class="cls-5" d="M140.08,215.7a2.4,2.4,0,0,1-.46,0l-17.31-3.25a2.51,2.51,0,0,1-2-2.92l2.26-12a2.46,2.46,0,0,1,2.92-2l17.31,3.25a2.51,2.51,0,0,1,1.6,1,2.49,2.49,0,0,1,.4,1.87l-2.26,12A2.51,2.51,0,0,1,140.08,215.7Z"/><path class="cls-4" d="M125,197.94l17.32,3.26-2.26,12-17.31-3.26,2.25-12m0-5a5,5,0,0,0-4.91,4.08l-2.26,12a5,5,0,0,0,4,5.84l17.32,3.26a4.88,4.88,0,0,0,.93.09,5,5,0,0,0,4.9-4.08l2.26-12a5,5,0,0,0-4-5.84L126,193a4.88,4.88,0,0,0-.93-.09Z"/><path class="cls-6" d="M72.36,238.6a2.54,2.54,0,0,1-1-.21l-12.56-5.54a2.49,2.49,0,0,1-1.48-2.09L40.22,9.06A2.49,2.49,0,0,1,41.9,6.5L53.09,2.64A2.51,2.51,0,0,1,56.4,4.8L74.85,235.9a2.52,2.52,0,0,1-1,2.24A2.55,2.55,0,0,1,72.36,238.6Z"/><path class="cls-4" d="M53.9,5,72.36,236.1,59.8,230.57,42.71,8.86,53.9,5m0-5a5.07,5.07,0,0,0-1.63.27L41.08,4.14a5,5,0,0,0-3.35,5.11L54.81,231a5,5,0,0,0,3,4.19l12.56,5.54a5.08,5.08,0,0,0,2,.42,5,5,0,0,0,5-5.4L58.89,4.6a5,5,0,0,0-5-4.6Z"/><path class="cls-6" d="M159.31,253a2.5,2.5,0,0,1-2.27-3.56l97.9-210.15a2.5,2.5,0,0,1,1.72-1.38,2.57,2.57,0,0,1,.55-.06,2.52,2.52,0,0,1,1.59.57l9.14,7.52a2.5,2.5,0,0,1,.68,3L175.28,250.72a2.51,2.51,0,0,1-2.12,1.45l-13.7.81Z"/><path class="cls-4" d="M257.21,40.33l9.14,7.52L173,249.67l-13.7.81,97.9-210.15m0-5a5.24,5.24,0,0,0-1.11.12,5,5,0,0,0-3.42,2.77l-97.9,210.15a5,5,0,0,0,4.53,7.11h.29l13.7-.81a5,5,0,0,0,4.25-2.89L270.89,50a5,5,0,0,0-1.36-6l-9.14-7.52a5,5,0,0,0-3.18-1.14Z"/><path class="cls-1" d="M177.28,337.27a8.24,8.24,0,0,1-1.48-.14L22.34,308.25A8,8,0,0,1,16,299l14.81-78.68a8,8,0,0,1,7.82-6.49,7.42,7.42,0,0,1,1.48.14L193.55,242.8a8,8,0,0,1,6.35,9.3l-14.8,78.68A8,8,0,0,1,177.28,337.27Z"/><path class="cls-4" d="M38.61,216.29a5.83,5.83,0,0,1,1,.09l153.47,28.88a5.46,5.46,0,0,1,4.35,6.38l-14.8,78.68a5.46,5.46,0,0,1-5.36,4.45,5,5,0,0,1-1-.1L22.8,305.8a5.46,5.46,0,0,1-4.36-6.38l14.81-78.68a5.46,5.46,0,0,1,5.36-4.45m0-5h0a10.46,10.46,0,0,0-10.28,8.52L13.53,298.5a10.47,10.47,0,0,0,8.34,12.21l153.47,28.88a10.46,10.46,0,0,0,12.21-8.35l14.81-78.68A10.48,10.48,0,0,0,194,240.34L40.55,211.47a10.53,10.53,0,0,0-1.94-.18Z"/><rect class="cls-1" x="62.45" y="191.99" width="90.98" height="167.08" rx="5.46" transform="translate(-182.79 330.66) rotate(-79.34)"/><g class="cls-7"><path class="cls-8" d="M229.76,278.48a2.56,2.56,0,0,1-.47,0L4.54,236.15a2.51,2.51,0,0,1-1.6-1.05,2.49,2.49,0,0,1-.4-1.87l6-31.86a2.52,2.52,0,0,1,2.92-2l224.75,42.29a2.5,2.5,0,0,1,2,2.92l-6,31.86A2.49,2.49,0,0,1,229.76,278.48Z"/><path class="cls-4" d="M11,201.83l224.75,42.29-6,31.86L5,233.69l6-31.86m0-5a5,5,0,0,0-4.92,4.07l-6,31.86a5,5,0,0,0,4,5.84l224.75,42.29a4.88,4.88,0,0,0,.93.09,5,5,0,0,0,4.91-4.08l6-31.86a5,5,0,0,0-4-5.84L11.92,196.91a5.82,5.82,0,0,0-.92-.08Z"/></g><path class="cls-9" d="M110.19,318.42a47.62,47.62,0,1,1,45.55-33.81A47.46,47.46,0,0,1,110.19,318.42Z"/><path class="cls-4" d="M110.16,225.67a45.12,45.12,0,1,1-43.16,32,45.12,45.12,0,0,1,43.16-32m0-5v0h0a50.5,50.5,0,0,0-29.57,9.68,50.12,50.12,0,0,0,15,88.41,50.08,50.08,0,0,0,44.13-7.51,50.14,50.14,0,0,0-29.61-90.58Z"/><path class="cls-2" d="M110.19,302.45A31.65,31.65,0,1,1,140.46,280,31.58,31.58,0,0,1,110.19,302.45Z"/><path class="cls-4" d="M110.17,242.14a28.65,28.65,0,1,1-27.41,20.35,28.64,28.64,0,0,1,27.41-20.35m0-6v0h0a35,35,0,0,0-20.45,6.69,34.66,34.66,0,0,0,20.47,62.62,34.85,34.85,0,0,0,20.44-6.69,34.65,34.65,0,0,0-10.4-61.12,34.78,34.78,0,0,0-10.06-1.5Z"/><circle class="cls-2" cx="110.18" cy="270.8" r="28.65"/><g class="cls-10"><g class="cls-11"><rect class="cls-12" x="54.44" y="259.59" width="94.81" height="15.01" transform="translate(-155.1 141.83) rotate(-43.14)"/></g><g class="cls-11"><rect class="cls-12" x="71.36" y="275.79" width="94.81" height="7.06" transform="translate(-158.88 156.69) rotate(-43.14)"/></g></g></g></g></svg>