
<svg xmlns="http://www.w3.org/2000/svg" version="1.1" xmlns:xlink="http://www.w3.org/1999/xlink" preserveAspectRatio="none" x="0px" y="0px" width="1024px" height="1024px" viewBox="0 0 1024 1024">
<defs>
<g id="Layer0_0_MEMBER_0_MEMBER_0_FILL">
<path fill="#79A139" stroke="none" d="
M 26.1 322.35
L 26.1 330.35 118.05 383.45 210 330.35 210 322.35 118.05 269.3 26.1 322.35 Z"/>
</g>

<g id="Layer0_0_MEMBER_0_MEMBER_1_FILL">
<path fill="#719634" stroke="none" d="
M 118.05 375.45
L 118.05 383.45 210 330.35 210 322.35 118.05 375.45 Z"/>
</g>

<g id="Layer0_0_MEMBER_0_MEMBER_2_FILL">
<path fill="#9CC459" stroke="none" d="
M 118.05 269.3
L 26.1 322.35 118.05 375.45 210 322.35 118.05 269.3 Z"/>
</g>

<g id="Layer0_0_MEMBER_0_MEMBER_3_FILL">
<path fill="#B7E76A" stroke="none" d="
M 118.05 276.1
L 37.95 322.35 118.05 368.6 198.15 322.35 118.05 276.1 Z"/>
</g>

<g id="Layer0_0_MEMBER_1_FILL">
<path fill="#000000" fill-opacity="0.14901960784313725" stroke="none" d="
M 67.35 8
L 67.35 0 0 38.85 0 46.85 67.35 8 Z"/>
</g>

<g id="Layer0_0_MEMBER_2_FILL">
<path fill="#000000" fill-opacity="0.14901960784313725" stroke="none" d="
M 42.55 8
L 42.55 0 0 24.55 0 32.55 42.55 8 Z"/>
</g>

<g id="Layer0_0_MEMBER_3_FILL">
<path fill="#000000" fill-opacity="0.14901960784313725" stroke="none" d="
M 28.65 7.9
L 0 36.15 26.85 51.65 94.2 12.8 72.05 0 28.65 7.9 Z"/>
</g>

<g id="Layer0_0_MEMBER_4_FILL">
<path fill="#000000" fill-opacity="0.14901960784313725" stroke="none" d="
M 65.55 12.8
L 43.4 0 0 7.9 0.9 24.55 23 37.35 65.55 12.8 Z"/>
</g>

<g id="Layer0_0_MEMBER_5_MEMBER_0_FILL">
<path fill="#000000" fill-opacity="0.14901960784313725" stroke="none" d="
M 5.6 6.45
Q 7.9 6.45 9.5 5.5 11.15 4.55 11.15 3.25 11.15 1.9 9.5 0.95 7.9 0 5.6 0 3.25 0 1.65 0.95 0 1.9 0 3.25 0 4.55 1.65 5.5 3.25 6.45 5.6 6.45 Z"/>
</g>

<g id="Layer0_0_MEMBER_5_MEMBER_1_FILL">
<path fill="#A57668" stroke="none" d="
M 49.2 310.55
L 49.2 320.9
Q 49.2 321.55 49.65 321.95 50.1 322.4 50.75 322.4 51.35 322.4 51.8 321.95 52.25 321.55 52.25 320.9
L 52.25 310.55
Q 52.25 309.9 51.8 309.5 51.35 309.05 50.75 309.05 50.1 309.05 49.65 309.5 49.2 309.9 49.2 310.55 Z"/>
</g>

<g id="Layer0_0_MEMBER_5_MEMBER_2_FILL">
<path fill="#000000" fill-opacity="0.14901960784313725" stroke="none" d="
M 2.6 2.25
Q 3.05 1.85 3.05 1.2
L 3.05 0.05
Q 3.0369140625 0.6630859375 2.6 1.1 2.15 1.55 1.55 1.55 0.9 1.55 0.45 1.1 0.0130859375 0.6630859375 0 0.05
L 0 1.2
Q 0 1.85 0.45 2.25 0.9 2.7 1.55 2.7 2.15 2.7 2.6 2.25 Z"/>
</g>

<g id="Layer0_0_MEMBER_5_MEMBER_3_FILL">
<path fill="#000000" fill-opacity="0.14901960784313725" stroke="none" d="
M 1.55 0
Q 0.9 0 0.45 0.45 0 0.85 0 1.5
L 0 5.8
Q 0.75 5.95 1.55 5.95 2.3 5.95 3.05 5.8
L 3.05 1.5
Q 3.05 0.85 2.6 0.45 2.15 0 1.55 0 Z"/>
</g>

<g id="Layer0_0_MEMBER_5_MEMBER_4_FILL">
<path fill="#6C9C38" stroke="none" d="
M 55.95 296.95
Q 53.5 291.15 50.75 291.15 47.95 291.15 45.5 296.95 43.35 302.1 43.35 305.85 43.35 308.9 45.5 311.05 47.7 313.2 50.75 313.2 53.8 313.2 55.95 311.05 58.1 308.9 58.1 305.85 58.1 302.1 55.95 296.95 Z"/>
</g>

<g id="Layer0_0_MEMBER_5_MEMBER_5_FILL">
<path fill="#80B844" stroke="none" d="
M 49.5 296.7
Q 49.45 295.45 48.9 295.3 48.4 295.15 47.7 296.2 47 297.25 46.55 298.9 46.15 300.55 46.2 301.8 46.3 303.05 46.85 303.15 47.4 303.3 48.05 302.25 48.75 301.2 49.15 299.6 49.6 297.95 49.5 296.7 Z"/>
</g>

<g id="Layer0_0_MEMBER_6_MEMBER_0_FILL">
<path fill="#000000" fill-opacity="0.14901960784313725" stroke="none" d="
M 5.55 6.45
Q 7.85 6.45 9.5 5.5 11.1 4.55 11.1 3.25 11.1 1.9 9.5 0.95 7.85 0 5.55 0 3.25 0 1.6 0.95 0 1.9 0 3.25 0 4.55 1.6 5.5 3.25 6.45 5.55 6.45 Z"/>
</g>

<g id="Layer0_0_MEMBER_6_MEMBER_1_FILL">
<path fill="#A57668" stroke="none" d="
M 184.8 310.55
L 184.8 320.9
Q 184.8 321.55 185.25 321.95 185.65 322.4 186.3 322.4 186.95 322.4 187.35 321.95 187.8 321.55 187.8 320.9
L 187.8 310.55
Q 187.8 309.9 187.35 309.5 186.95 309.05 186.3 309.05 185.65 309.05 185.25 309.5 184.8 309.9 184.8 310.55 Z"/>
</g>

<g id="Layer0_0_MEMBER_6_MEMBER_2_FILL">
<path fill="#000000" fill-opacity="0.14901960784313725" stroke="none" d="
M 2.55 2.25
Q 3 1.85 3 1.2
L 3 0.05
Q 2.9869140625 0.6630859375 2.55 1.1 2.15 1.55 1.5 1.55 0.85 1.55 0.45 1.1 0.0130859375 0.6630859375 0 0.05
L 0 1.2
Q 0 1.85 0.45 2.25 0.85 2.7 1.5 2.7 2.15 2.7 2.55 2.25 Z"/>
</g>

<g id="Layer0_0_MEMBER_6_MEMBER_3_FILL">
<path fill="#000000" fill-opacity="0.14901960784313725" stroke="none" d="
M 1.5 0
Q 0.85 0 0.45 0.45 0 0.85 0 1.5
L 0 5.8
Q 0.75 5.95 1.5 5.95 2.35 5.95 3 5.8
L 3 1.5
Q 3 0.85 2.55 0.45 2.15 0 1.5 0 Z"/>
</g>

<g id="Layer0_0_MEMBER_6_MEMBER_4_FILL">
<path fill="#6C9C38" stroke="none" d="
M 191.5 296.95
Q 189.05 291.15 186.3 291.15 183.55 291.15 181.1 296.95 178.95 302.1 178.95 305.85 178.95 308.9 181.1 311.05 183.25 313.2 186.3 313.2 189.35 313.2 191.5 311.05 193.65 308.9 193.65 305.85 193.65 302.1 191.5 296.95 Z"/>
</g>

<g id="Layer0_0_MEMBER_6_MEMBER_5_FILL">
<path fill="#80B844" stroke="none" d="
M 185.1 296.7
Q 185 295.45 184.5 295.3 183.95 295.15 183.25 296.2 182.55 297.25 182.15 298.9 181.7 300.5 181.8 301.8 181.85 303.05 182.4 303.15 182.95 303.3 183.65 302.25 184.3 301.25 184.75 299.6 185.15 297.95 185.1 296.7 Z"/>
</g>

<g id="Layer0_0_MEMBER_7_MEMBER_0_MEMBER_0_FILL">
<path fill="#CEA167" stroke="none" d="
M 133.85 322.85
L 133.85 340.75 176.35 316.2 176.35 298.3 155.1 271.3 133.85 322.85 Z"/>
</g>

<g id="Layer0_0_MEMBER_7_MEMBER_0_MEMBER_1_FILL">
<path fill="#A37C4A" stroke="none" d="
M 147.8 306.3
L 147.8 332.7 166.55 321.9 166.55 295.45 147.8 306.3 Z"/>
</g>

<g id="Layer0_0_MEMBER_7_MEMBER_0_MEMBER_2_FILL">
<path fill="#7D5E37" stroke="none" d="
M 147.8 306.3
L 147.8 309.85 166.55 299 166.55 295.45 147.8 306.3 Z"/>
</g>

<g id="Layer0_0_MEMBER_7_MEMBER_0_MEMBER_3_FILL">
<path fill="#7D5E37" stroke="none" d="
M 147.8 312.05
L 147.8 315.6 166.55 304.75 166.55 301.2 147.8 312.05 Z"/>
</g>

<g id="Layer0_0_MEMBER_7_MEMBER_0_MEMBER_4_FILL">
<path fill="#7D5E37" stroke="none" d="
M 147.8 317.8
L 147.8 321.35 166.55 310.5 166.55 307 147.8 317.8 Z"/>
</g>

<g id="Layer0_0_MEMBER_7_MEMBER_0_MEMBER_5_FILL">
<path fill="#7D5E37" stroke="none" d="
M 147.8 323.55
L 147.8 327.1 166.55 316.25 166.55 312.75 147.8 323.55 Z"/>
</g>

<g id="Layer0_0_MEMBER_7_MEMBER_0_MEMBER_6_FILL">
<path fill="#7D5E37" stroke="none" d="
M 147.8 329.3
L 147.8 332.7 166.55 321.9 166.55 318.5 147.8 329.3 Z"/>
</g>

<g id="Layer0_0_MEMBER_7_MEMBER_0_MEMBER_7_FILL">
<path fill="#F7C687" stroke="none" d="
M 133.85 340.75
L 133.85 322.85 81.95 293.2 81.95 311.15 133.85 340.75 Z"/>
</g>

<g id="Layer0_0_MEMBER_7_MEMBER_0_MEMBER_8_MEMBER_0_FILL">
<path fill="#A37C4A" stroke="none" d="
M 159.85 284.45
L 159.3 284.3
Q 158.3 284 157.05 284.7
L 155.75 285.45
Q 154.1 286.45 152.9 288.7 151.7 290.95 151.7 293.2 151.7 295.75 153.25 296.55 153.95 297 154.45 297
L 154.45 297.05
Q 155.5 297.25 156.55 296.6
L 157.8 295.85
Q 159.5 294.9 160.65 292.6 161.85 290.35 161.85 288.1 161.85 286.15 160.85 285.15 160.5 284.7 159.85 284.45 Z"/>
</g>

<g id="Layer0_0_MEMBER_7_MEMBER_0_MEMBER_8_MEMBER_1_FILL">
<path fill="#7D5E37" stroke="none" d="
M 152.5 293.55
Q 152.5 295.75 153.7 296.65 154.85 297.55 156.55 296.6
L 157.8 295.85
Q 159.5 294.9 160.65 292.6 161.85 290.35 161.85 288.1 161.85 285.9 160.65 285 159.5 284.1 157.8 285.05
L 156.55 285.8
Q 154.85 286.75 153.7 289 152.5 291.3 152.5 293.55 Z"/>
</g>

<g id="Layer0_0_MEMBER_7_MEMBER_0_MEMBER_8_MEMBER_2_FILL">
<path fill="#68B5DC" stroke="none" d="
M 160.95 288.65
Q 160.95 286.85 160 286.15 159 285.4 157.65 286.2
L 156.65 286.75
Q 155.3 287.55 154.35 289.35 153.4 291.2 153.4 293 153.4 294.8 154.35 295.5 155.3 296.25 156.65 295.45
L 157.65 294.9
Q 159 294.1 160 292.3 160.95 290.45 160.95 288.65 Z"/>
</g>

<g id="Layer0_0_MEMBER_7_MEMBER_0_MEMBER_8_MEMBER_3_FILL">
<path fill="#7D5E37" stroke="none" d="
M 156.7 285.7
L 156.7 296.5 157.65 295.95 157.65 285.15 156.7 285.7 Z"/>
</g>

<g id="Layer0_0_MEMBER_7_MEMBER_0_MEMBER_8_MEMBER_4_FILL">
<path fill="#7D5E37" stroke="none" d="
M 152.5 294.1
L 161.85 288.7 161.85 287.55 152.5 292.95 152.5 294.1 Z"/>
</g>

<g id="Layer0_0_MEMBER_7_MEMBER_0_MEMBER_9_FILL">
<path fill="#448FB4" stroke="none" d="
M 104.3 240.45
Q 103.75 239.9 103 240 102.1 240.15 101.8 240.95
L 80.55 292.5
Q 80.3 293.1 80.55 293.7 80.8 294.3 81.4 294.5
L 132.95 324.1 133.25 324.3 133.85 324.4
Q 134.85 324.4 135.25 323.45
L 155.5 274.3 175.15 299.25
Q 175.55 299.75 176.2 299.85 176.8 299.9 177.3 299.5 177.8 299.15 177.9 298.5 177.95 297.85 177.55 297.35
L 156.3 270.35
Q 155.9 269.9 155.35 269.8
L 104.3 240.45 Z"/>
</g>

<g id="Layer0_0_MEMBER_7_MEMBER_0_MEMBER_10_MEMBER_0_FILL">
<path fill="#347290" stroke="none" d="
M 154.9 269.8
Q 154.05 269.9 153.7 270.7
L 132.4 322.25
Q 132.15 322.85 132.4 323.45 132.65 324.05 133.25 324.3
L 133.85 324.4
Q 134.85 324.4 135.25 323.45
L 155.5 274.3 175.15 299.25
Q 175.55 299.75 176.2 299.85 176.8 299.9 177.3 299.5 177.8 299.15 177.9 298.5 177.95 297.85 177.55 297.35
L 156.3 270.35
Q 155.75 269.65 154.9 269.8 Z"/>
</g>

<g id="Layer0_0_MEMBER_7_MEMBER_1_MEMBER_0_FILL">
<path fill="#F7C687" stroke="none" d="
M 61.8 309.9
L 61.8 327.8 104.3 352.35 104.3 334.45 83.05 282.9 61.8 309.9 Z"/>
</g>

<g id="Layer0_0_MEMBER_7_MEMBER_1_MEMBER_1_FILL">
<path fill="#CEA167" stroke="none" d="
M 128.95 338.1
L 128.95 320.2 104.3 334.45 104.3 352.35 128.95 338.1 Z"/>
</g>

<g id="Layer0_0_MEMBER_7_MEMBER_1_MEMBER_2_MEMBER_0_FILL">
<path fill="#A37C4A" stroke="none" d="
M 73.15 305.65
L 73.15 334.35 88.8 343.4 88.8 312.65
Q 88.8 311.55 87.95 311.1
L 75.8 304.1
Q 74.95 303.55 74.05 304.1 73.15 304.6 73.15 305.65 Z"/>
</g>

<g id="Layer0_0_MEMBER_7_MEMBER_1_MEMBER_2_MEMBER_1_FILL">
<path fill="#C4965B" stroke="none" d="
M 74.65 305.4
L 74.65 320.05 87.35 327.4 87.35 312.7 74.65 305.4 Z"/>
</g>

<g id="Layer0_0_MEMBER_7_MEMBER_1_MEMBER_2_MEMBER_2_FILL">
<path fill="#68B5DC" stroke="none" d="
M 75.9 307.55
L 75.9 319.35 86.1 325.25 86.1 313.45 75.9 307.55 Z"/>
</g>

<g id="Layer0_0_MEMBER_7_MEMBER_1_MEMBER_2_MEMBER_3_FILL">
<path fill="#C4965B" stroke="none" d="
M 80.35 308.65
L 80.35 323.35 81.65 324.1 81.65 309.45 80.35 308.65 Z"/>
</g>

<g id="Layer0_0_MEMBER_7_MEMBER_1_MEMBER_2_MEMBER_4_FILL">
<path fill="#C4965B" stroke="none" d="
M 74.65 311.95
L 74.65 313.5 87.35 320.8 87.35 319.3 74.65 311.95 Z"/>
</g>

<g id="Layer0_0_MEMBER_7_MEMBER_1_MEMBER_3_FILL">
<path fill="#347290" stroke="none" d="
M 82.85 281.4
Q 82.25 281.5 81.85 281.95
L 60.6 308.95
Q 60.2 309.45 60.3 310.1 60.35 310.7 60.85 311.1 61.35 311.5 62 311.45 62.6 311.35 63 310.85
L 82.65 285.9 102.9 335.05
Q 103.3 336 104.3 336 104.6 336 104.9 335.85 104.95 335.85 105.25 335.7
L 129.55 321.5
Q 130.1 321.25 130.35 320.65 130.6 320.05 130.35 319.45
L 109.1 267.9
Q 108.75 267.1 107.9 267 107.15 266.85 106.6 267.4
L 82.85 281.4 Z"/>
</g>

<g id="Layer0_0_MEMBER_7_MEMBER_1_MEMBER_4_MEMBER_0_FILL">
<path fill="#448FB4" stroke="none" d="
M 84.5 282.3
Q 84.2 281.55 83.3 281.35 82.4 281.25 81.85 281.95
L 60.6 308.95
Q 60.2 309.45 60.3 310.1 60.35 310.7 60.85 311.1 61.35 311.5 62 311.45 62.6 311.35 63 310.85
L 82.65 285.9 102.9 335.05
Q 103.3 336 104.3 336 104.6 336 104.9 335.85 105.5 335.65 105.75 335.05 106 334.45 105.75 333.85
L 84.5 282.3 Z"/>
</g>

<g id="Layer0_0_MEMBER_7_MEMBER_2_MEMBER_0_MEMBER_0_FILL">
<path fill="#F7C687" stroke="none" d="
M 100.75 287.75
L 100.75 288.75 105.3 299.8 105.85 300.7 105.85 290.7 100.75 287.75 Z"/>
</g>

<g id="Layer0_0_MEMBER_7_MEMBER_2_MEMBER_0_MEMBER_1_FILL">
<path fill="#CEA167" stroke="none" d="
M 111 287.75
L 105.85 290.7 105.85 300.7 111 297.75 111 287.75 Z"/>
</g>

<g id="Layer0_0_MEMBER_7_MEMBER_2_MEMBER_1_MEMBER_0_FILL">
<path fill="#CEA167" stroke="none" d="
M 105.85 292.05
L 105.85 288.85 99.5 285.15 99.5 288.4 105.85 292.05 Z"/>
</g>

<g id="Layer0_0_MEMBER_7_MEMBER_2_MEMBER_1_MEMBER_1_FILL">
<path fill="#9B743F" stroke="none" d="
M 112.25 288.4
L 112.25 285.15 105.85 288.85 105.85 292.05 112.25 288.4 Z"/>
</g>

<g id="Layer0_0_MEMBER_7_MEMBER_2_MEMBER_1_MEMBER_2_FILL">
<path fill="#F4D0A2" stroke="none" d="
M 105.85 288.85
L 112.25 285.15 105.85 281.5 99.5 285.15 105.85 288.85 Z"/>
</g>

<g id="Layer0_0_MEMBER_7_MEMBER_2_MEMBER_1_MEMBER_3_FILL">
<path fill="#9B743F" stroke="none" d="
M 105.85 287.5
L 109.9 285.15 105.85 282.85 101.85 285.15 105.85 287.5 Z"/>
</g>

<g id="Layer0_0_MEMBER_7_MEMBER_2_MEMBER_1_MEMBER_4_FILL">
<path fill="#CEA167" stroke="none" d="
M 105.85 282.85
L 105.85 287.5 109.9 285.15 105.85 282.85 Z"/>
</g>

<g id="Layer0_0_MEMBER_8_MEMBER_0_FILL">
<path fill="#000000" fill-opacity="0.14901960784313725" stroke="none" d="
M 6.35 7.35
Q 8.95 7.35 10.8 6.25 12.7 5.2 12.7 3.7 12.7 2.15 10.8 1.1 8.95 0 6.35 0 3.7 0 1.85 1.1 0 2.15 0 3.7 0 5.2 1.85 6.25 3.7 7.35 6.35 7.35 Z"/>
</g>

<g id="Layer0_0_MEMBER_8_MEMBER_1_FILL">
<path fill="#A57668" stroke="none" d="
M 119.75 345.85
Q 119.75 345.15 119.25 344.65 118.7 344.15 118 344.15 117.3 344.15 116.8 344.65 116.3 345.15 116.3 345.85
L 116.3 357.65
Q 116.3 358.35 116.8 358.9 117.3 359.4 118 359.4 118.7 359.4 119.25 358.9 119.75 358.35 119.75 357.65
L 119.75 345.85 Z"/>
</g>

<g id="Layer0_0_MEMBER_8_MEMBER_2_FILL">
<path fill="#000000" fill-opacity="0.14901960784313725" stroke="none" d="
M 2.95 2.6
Q 3.45 2.05 3.45 1.35
L 3.45 0.05
Q 3.434375 0.715625 2.95 1.2 2.4 1.7 1.7 1.7 1 1.7 0.5 1.2 0.015625 0.715625 0 0.05
L 0 1.35
Q 0 2.05 0.5 2.6 1 3.1 1.7 3.1 2.4 3.1 2.95 2.6 Z"/>
</g>

<g id="Layer0_0_MEMBER_8_MEMBER_3_FILL">
<path fill="#000000" fill-opacity="0.14901960784313725" stroke="none" d="
M 1.7 0
Q 1 0 0.5 0.5 0 1 0 1.7
L 0 6.6
Q 0.75 6.8 1.7 6.8 2.7 6.8 3.45 6.6
L 3.45 1.7
Q 3.45 1 2.95 0.5 2.4 0 1.7 0 Z"/>
</g>

<g id="Layer0_0_MEMBER_8_MEMBER_4_FILL">
<path fill="#6C9C38" stroke="none" d="
M 126.4 340.5
Q 126.4 336.2 123.95 330.4 121.15 323.8 118 323.8 114.9 323.8 112.1 330.4 109.65 336.25 109.65 340.5 109.65 343.95 112.1 346.4 114.55 348.85 118 348.85 121.5 348.85 123.95 346.4 126.4 343.95 126.4 340.5 Z"/>
</g>

<g id="Layer0_0_MEMBER_8_MEMBER_5_FILL">
<path fill="#80B844" stroke="none" d="
M 116.25 333.35
Q 116.75 331.5 116.65 330.1 116.55 328.65 115.95 328.5 115.3 328.3 114.55 329.5 113.8 330.7 113.3 332.6 112.8 334.45 112.85 335.85 112.95 337.3 113.6 337.45 114.2 337.6 115 336.4 115.75 335.2 116.25 333.35 Z"/>
</g>

<g id="Layer0_0_MEMBER_9_FILL">
<path fill="#9CC459" stroke="none" d="
M 287.5 625.2
L 222 663.2 300.25 708.45 365.75 670.45 287.5 625.2 Z"/>
</g>
</defs>

<g transform="matrix( 5, 0, 0, 5, -78.25,-1046.55) ">
<use xlink:href="#Layer0_0_MEMBER_0_MEMBER_0_FILL"/>
</g>

<g transform="matrix( 5, 0, 0, 5, -78.25,-1046.55) ">
<use xlink:href="#Layer0_0_MEMBER_0_MEMBER_1_FILL"/>
</g>

<g transform="matrix( 5, 0, 0, 5, -78.25,-1046.55) ">
<use xlink:href="#Layer0_0_MEMBER_0_MEMBER_2_FILL"/>
</g>

<g transform="matrix( 5, 0, 0, 5, -78.25,-1046.55) ">
<use xlink:href="#Layer0_0_MEMBER_0_MEMBER_3_FILL"/>
</g>

<g transform="matrix( 5, 0, 0, 5, 577.5,598.45) ">
<use xlink:href="#Layer0_0_MEMBER_1_FILL"/>
</g>

<g transform="matrix( 5, 0, 0, 5, 701.5,598.45) ">
<use xlink:href="#Layer0_0_MEMBER_2_FILL"/>
</g>

<g transform="matrix( 5, 0, 0, 5, 443.25,534.45) ">
<use xlink:href="#Layer0_0_MEMBER_3_FILL"/>
</g>

<g transform="matrix( 5, 0, 0, 5, 586.5,534.45) ">
<use xlink:href="#Layer0_0_MEMBER_4_FILL"/>
</g>

<g transform="matrix( 5, 0, 0, 5, 147.5,549.45) ">
<use xlink:href="#Layer0_0_MEMBER_5_MEMBER_0_FILL"/>
</g>

<g transform="matrix( 5, 0, 0, 5, -78.25,-1046.55) ">
<use xlink:href="#Layer0_0_MEMBER_5_MEMBER_1_FILL"/>
</g>

<g transform="matrix( 5, 0, 0, 5, 167.75,551.95) ">
<use xlink:href="#Layer0_0_MEMBER_5_MEMBER_2_FILL"/>
</g>

<g transform="matrix( 5, 0, 0, 5, 167.75,498.7) ">
<use xlink:href="#Layer0_0_MEMBER_5_MEMBER_3_FILL"/>
</g>

<g transform="matrix( 5, 0, 0, 5, -78.25,-1046.55) ">
<use xlink:href="#Layer0_0_MEMBER_5_MEMBER_4_FILL"/>
</g>

<g transform="matrix( 5, 0, 0, 5, -78.25,-1046.55) ">
<use xlink:href="#Layer0_0_MEMBER_5_MEMBER_5_FILL"/>
</g>

<g transform="matrix( 5, 0, 0, 5, 825.5,549.45) ">
<use xlink:href="#Layer0_0_MEMBER_6_MEMBER_0_FILL"/>
</g>

<g transform="matrix( 5, 0, 0, 5, -78.25,-1046.55) ">
<use xlink:href="#Layer0_0_MEMBER_6_MEMBER_1_FILL"/>
</g>

<g transform="matrix( 5, 0, 0, 5, 845.75,551.95) ">
<use xlink:href="#Layer0_0_MEMBER_6_MEMBER_2_FILL"/>
</g>

<g transform="matrix( 5, 0, 0, 5, 845.75,498.7) ">
<use xlink:href="#Layer0_0_MEMBER_6_MEMBER_3_FILL"/>
</g>

<g transform="matrix( 5, 0, 0, 5, -78.25,-1046.55) ">
<use xlink:href="#Layer0_0_MEMBER_6_MEMBER_4_FILL"/>
</g>

<g transform="matrix( 5, 0, 0, 5, -78.25,-1046.55) ">
<use xlink:href="#Layer0_0_MEMBER_6_MEMBER_5_FILL"/>
</g>

<g transform="matrix( 5, 0, 0, 5, -78.25,-1046.55) ">
<use xlink:href="#Layer0_0_MEMBER_7_MEMBER_0_MEMBER_0_FILL"/>
</g>

<g transform="matrix( 5, 0, 0, 5, -78.25,-1046.55) ">
<use xlink:href="#Layer0_0_MEMBER_7_MEMBER_0_MEMBER_1_FILL"/>
</g>

<g transform="matrix( 5, 0, 0, 5, -78.25,-1046.55) ">
<use xlink:href="#Layer0_0_MEMBER_7_MEMBER_0_MEMBER_2_FILL"/>
</g>

<g transform="matrix( 5, 0, 0, 5, -78.25,-1046.55) ">
<use xlink:href="#Layer0_0_MEMBER_7_MEMBER_0_MEMBER_3_FILL"/>
</g>

<g transform="matrix( 5, 0, 0, 5, -78.25,-1046.55) ">
<use xlink:href="#Layer0_0_MEMBER_7_MEMBER_0_MEMBER_4_FILL"/>
</g>

<g transform="matrix( 5, 0, 0, 5, -78.25,-1046.55) ">
<use xlink:href="#Layer0_0_MEMBER_7_MEMBER_0_MEMBER_5_FILL"/>
</g>

<g transform="matrix( 5, 0, 0, 5, -78.25,-1046.55) ">
<use xlink:href="#Layer0_0_MEMBER_7_MEMBER_0_MEMBER_6_FILL"/>
</g>

<g transform="matrix( 5, 0, 0, 5, -78.25,-1046.55) ">
<use xlink:href="#Layer0_0_MEMBER_7_MEMBER_0_MEMBER_7_FILL"/>
</g>

<g transform="matrix( 5, 0, 0, 5, -78.25,-1046.55) ">
<use xlink:href="#Layer0_0_MEMBER_7_MEMBER_0_MEMBER_8_MEMBER_0_FILL"/>
</g>

<g transform="matrix( 5, 0, 0, 5, -78.25,-1046.55) ">
<use xlink:href="#Layer0_0_MEMBER_7_MEMBER_0_MEMBER_8_MEMBER_1_FILL"/>
</g>

<g transform="matrix( 5, 0, 0, 5, -78.25,-1046.55) ">
<use xlink:href="#Layer0_0_MEMBER_7_MEMBER_0_MEMBER_8_MEMBER_2_FILL"/>
</g>

<g transform="matrix( 5, 0, 0, 5, -78.25,-1046.55) ">
<use xlink:href="#Layer0_0_MEMBER_7_MEMBER_0_MEMBER_8_MEMBER_3_FILL"/>
</g>

<g transform="matrix( 5, 0, 0, 5, -78.25,-1046.55) ">
<use xlink:href="#Layer0_0_MEMBER_7_MEMBER_0_MEMBER_8_MEMBER_4_FILL"/>
</g>

<g transform="matrix( 5, 0, 0, 5, -78.25,-1046.55) ">
<use xlink:href="#Layer0_0_MEMBER_7_MEMBER_0_MEMBER_9_FILL"/>
</g>

<g transform="matrix( 5, 0, 0, 5, -78.25,-1046.55) ">
<use xlink:href="#Layer0_0_MEMBER_7_MEMBER_0_MEMBER_10_MEMBER_0_FILL"/>
</g>

<g transform="matrix( 5, 0, 0, 5, -78.25,-1046.55) ">
<use xlink:href="#Layer0_0_MEMBER_7_MEMBER_1_MEMBER_0_FILL"/>
</g>

<g transform="matrix( 5, 0, 0, 5, -78.25,-1046.55) ">
<use xlink:href="#Layer0_0_MEMBER_7_MEMBER_1_MEMBER_1_FILL"/>
</g>

<g transform="matrix( 5, 0, 0, 5, -78.25,-1046.55) ">
<use xlink:href="#Layer0_0_MEMBER_7_MEMBER_1_MEMBER_2_MEMBER_0_FILL"/>
</g>

<g transform="matrix( 5, 0, 0, 5, -78.25,-1046.55) ">
<use xlink:href="#Layer0_0_MEMBER_7_MEMBER_1_MEMBER_2_MEMBER_1_FILL"/>
</g>

<g transform="matrix( 5, 0, 0, 5, -78.25,-1046.55) ">
<use xlink:href="#Layer0_0_MEMBER_7_MEMBER_1_MEMBER_2_MEMBER_2_FILL"/>
</g>

<g transform="matrix( 5, 0, 0, 5, -78.25,-1046.55) ">
<use xlink:href="#Layer0_0_MEMBER_7_MEMBER_1_MEMBER_2_MEMBER_3_FILL"/>
</g>

<g transform="matrix( 5, 0, 0, 5, -78.25,-1046.55) ">
<use xlink:href="#Layer0_0_MEMBER_7_MEMBER_1_MEMBER_2_MEMBER_4_FILL"/>
</g>

<g transform="matrix( 5, 0, 0, 5, -78.25,-1046.55) ">
<use xlink:href="#Layer0_0_MEMBER_7_MEMBER_1_MEMBER_3_FILL"/>
</g>

<g transform="matrix( 5, 0, 0, 5, -78.25,-1046.55) ">
<use xlink:href="#Layer0_0_MEMBER_7_MEMBER_1_MEMBER_4_MEMBER_0_FILL"/>
</g>

<g transform="matrix( 5, 0, 0, 5, -78.25,-1046.55) ">
<use xlink:href="#Layer0_0_MEMBER_7_MEMBER_2_MEMBER_0_MEMBER_0_FILL"/>
</g>

<g transform="matrix( 5, 0, 0, 5, -78.25,-1046.55) ">
<use xlink:href="#Layer0_0_MEMBER_7_MEMBER_2_MEMBER_0_MEMBER_1_FILL"/>
</g>

<g transform="matrix( 5, 0, 0, 5, -78.25,-1046.55) ">
<use xlink:href="#Layer0_0_MEMBER_7_MEMBER_2_MEMBER_1_MEMBER_0_FILL"/>
</g>

<g transform="matrix( 5, 0, 0, 5, -78.25,-1046.55) ">
<use xlink:href="#Layer0_0_MEMBER_7_MEMBER_2_MEMBER_1_MEMBER_1_FILL"/>
</g>

<g transform="matrix( 5, 0, 0, 5, -78.25,-1046.55) ">
<use xlink:href="#Layer0_0_MEMBER_7_MEMBER_2_MEMBER_1_MEMBER_2_FILL"/>
</g>

<g transform="matrix( 5, 0, 0, 5, -78.25,-1046.55) ">
<use xlink:href="#Layer0_0_MEMBER_7_MEMBER_2_MEMBER_1_MEMBER_3_FILL"/>
</g>

<g transform="matrix( 5, 0, 0, 5, -78.25,-1046.55) ">
<use xlink:href="#Layer0_0_MEMBER_7_MEMBER_2_MEMBER_1_MEMBER_4_FILL"/>
</g>

<g transform="matrix( 5, 0, 0, 5, 480.25,731.95) ">
<use xlink:href="#Layer0_0_MEMBER_8_MEMBER_0_FILL"/>
</g>

<g transform="matrix( 5, 0, 0, 5, -78.25,-1046.55) ">
<use xlink:href="#Layer0_0_MEMBER_8_MEMBER_1_FILL"/>
</g>

<g transform="matrix( 5, 0, 0, 5, 503.25,734.95) ">
<use xlink:href="#Layer0_0_MEMBER_8_MEMBER_2_FILL"/>
</g>

<g transform="matrix( 5, 0, 0, 5, 503.25,674.2) ">
<use xlink:href="#Layer0_0_MEMBER_8_MEMBER_3_FILL"/>
</g>

<g transform="matrix( 5, 0, 0, 5, -78.25,-1046.55) ">
<use xlink:href="#Layer0_0_MEMBER_8_MEMBER_4_FILL"/>
</g>

<g transform="matrix( 5, 0, 0, 5, -78.25,-1046.55) ">
<use xlink:href="#Layer0_0_MEMBER_8_MEMBER_5_FILL"/>
</g>

<g transform="matrix( 1, 0, 0, 1, 0,0) ">
<use xlink:href="#Layer0_0_MEMBER_9_FILL"/>
</g>
</svg>
