<?xml version="1.0" encoding="utf-8"?>
<!-- Generator: Adobe Illustrator 22.0.0, SVG Export Plug-In . SVG Version: 6.00 Build 0)  -->
<svg version="1.1" id="图层_1" xmlns="http://www.w3.org/2000/svg" xmlns:xlink="http://www.w3.org/1999/xlink" x="0px" y="0px"
	 viewBox="0 0 750 1125" style="enable-background:new 0 0 750 1125;" xml:space="preserve">
<style type="text/css">
	.st0{fill:#E91884;}
	.st1{fill:#40215A;}
	.st2{fill:#FF95E7;}
	.st3{fill:#40175A;}
	.st4{fill:#FFFFFF;}
	.st5{fill:#FFCD20;}
	.st6{fill:#C9C5C4;}
	.st7{fill:#A4AAA6;}
	.st8{fill:#FCDA43;}
	.st9{fill:#402159;}
	.st10{fill-rule:evenodd;clip-rule:evenodd;fill:#FFFFFF;}
	.st11{fill:#FBD4C1;}
	.st12{fill-rule:evenodd;clip-rule:evenodd;fill:#402159;}
	.st13{fill:#FE3561;}
	.st14{clip-path:url(#SVGID_2_);}
	.st15{fill:#F1C984;}
	.st16{fill:none;}
	.st17{fill:#19D7E7;}
	.st18{clip-path:url(#SVGID_4_);}
	.st19{fill:#FFD236;}
	.st20{clip-path:url(#SVGID_6_);}
	.st21{clip-path:url(#SVGID_8_);}
	.st22{fill:#0082FF;}
	.st23{fill:#FF771D;}
	.st24{clip-path:url(#SVGID_10_);}
	.st25{fill:#3E185B;}
	.st26{fill:#40175B;}
	.st27{fill:#446493;}
	.st28{clip-path:url(#SVGID_12_);}
	.st29{clip-path:url(#SVGID_14_);}
	.st30{clip-path:url(#SVGID_16_);}
	.st31{clip-path:url(#SVGID_18_);}
	.st32{clip-path:url(#SVGID_20_);}
	.st33{clip-path:url(#SVGID_22_);}
	.st34{clip-path:url(#SVGID_24_);}
	.st35{clip-path:url(#SVGID_26_);}
	.st36{fill:#14E3C5;}
	.st37{fill:#FF7193;}
	.st38{clip-path:url(#SVGID_28_);}
	.st39{fill:#FF781E;}
	.st40{clip-path:url(#SVGID_30_);}
	.st41{clip-path:url(#SVGID_32_);}
	.st42{fill:#FFFF47;}
	.st43{fill-rule:evenodd;clip-rule:evenodd;fill:#A19F9E;}
	.st44{fill:#A19F9E;}
	.st45{fill-rule:evenodd;clip-rule:evenodd;fill:#FFFF47;}
	.st46{clip-path:url(#SVGID_34_);}
	.st47{clip-path:url(#SVGID_36_);}
	.st48{clip-path:url(#SVGID_38_);}
	.st49{clip-path:url(#SVGID_40_);}
	.st50{fill:#0081FF;}
	.st51{clip-path:url(#SVGID_42_);}
	.st52{clip-path:url(#SVGID_44_);}
	.st53{clip-path:url(#SVGID_46_);}
	.st54{clip-path:url(#SVGID_48_);}
	.st55{clip-path:url(#SVGID_50_);}
	.st56{clip-path:url(#SVGID_52_);}
	.st57{clip-path:url(#SVGID_54_);}
	.st58{clip-path:url(#SVGID_56_);}
	.st59{clip-path:url(#SVGID_58_);}
	.st60{clip-path:url(#SVGID_60_);}
	.st61{clip-path:url(#SVGID_62_);}
	.st62{clip-path:url(#SVGID_64_);}
	.st63{clip-path:url(#SVGID_66_);}
	.st64{fill-rule:evenodd;clip-rule:evenodd;fill:#FFD236;}
	.st65{clip-path:url(#SVGID_68_);}
	.st66{clip-path:url(#SVGID_70_);}
	.st67{clip-path:url(#SVGID_72_);}
	.st68{clip-path:url(#SVGID_74_);}
	.st69{fill:#FF6D33;}
	.st70{clip-path:url(#SVGID_76_);}
	.st71{clip-path:url(#SVGID_78_);}
	.st72{clip-path:url(#SVGID_80_);}
	.st73{clip-path:url(#SVGID_82_);}
	.st74{clip-path:url(#SVGID_84_);}
	.st75{clip-path:url(#SVGID_86_);}
	.st76{clip-path:url(#SVGID_88_);}
	.st77{clip-path:url(#SVGID_90_);}
	.st78{clip-path:url(#SVGID_92_);}
	.st79{clip-path:url(#SVGID_94_);}
	.st80{clip-path:url(#SVGID_96_);}
	.st81{clip-path:url(#SVGID_98_);}
	.st82{clip-path:url(#SVGID_100_);}
	.st83{clip-path:url(#SVGID_102_);}
	.st84{clip-path:url(#SVGID_104_);}
	.st85{clip-path:url(#SVGID_106_);}
	.st86{clip-path:url(#SVGID_108_);}
	.st87{fill:#E91884;stroke:#40175A;stroke-width:5;stroke-linecap:round;stroke-linejoin:round;stroke-miterlimit:10;}
	.st88{fill:#BAFF00;}
	.st89{clip-path:url(#SVGID_110_);}
	.st90{clip-path:url(#SVGID_112_);}
	.st91{fill:#FF8500;}
	.st92{fill:#1CBDFF;}
	.st93{clip-path:url(#SVGID_116_);}
	.st94{clip-path:url(#SVGID_118_);}
</style>
<g>
	<g>
		<g>
			<g>
				<path class="st27" d="M524,588.8c-41-9.3-91.6-14.9-146.5-15c50.5,0.3,96.4,9.8,131.2,25.2c40.1,17.7,65.2,43.3,65.2,71.8
					c0,10.7-3.5,20.9-10.1,30.5c31.3-11,52.5-24.7,59.5-39.8c0,0,0,0,0,0c1.2-4.3,2-8.8,2.3-13.2C623.1,623.9,583.7,602.4,524,588.8
					z"/>
			</g>
			<g>
				<path class="st9" d="M554.8,708.3l6.1-9c6.3-9.2,9.4-18.8,9.4-28.5c0-25.8-23-50.8-63.1-68.5c-35.6-15.7-81.6-24.6-129.7-24.9
					l0-7.2c53.4,0.2,104.4,5.4,147.2,15.1l0,0c63.7,14.5,101.7,37.2,104.4,62.5l0,0.3l0,0.3c-0.3,4.5-1.1,9.1-2.3,13.5v0.3l-0.3,0.7
					c-7.2,15.7-28.4,30.1-61.5,41.7L554.8,708.3z M478.6,584.2c11.2,3.3,21.8,7.1,31.6,11.5c42.8,18.9,67.3,46.3,67.3,75.1
					c0,8.1-1.9,16-5.6,23.7c25.4-10,41.8-21.6,47.8-33.8v0l0.2-0.5c1.1-3.9,1.8-7.9,2.1-11.9c-2.6-21.6-39.5-42.5-98.8-55.9l0,0
					C509.2,589.1,494.2,586.4,478.6,584.2z"/>
			</g>
		</g>
		<g>
			<g>
				<path class="st27" d="M124.4,648.2c0.3,4.5,1.1,8.9,2.3,13.2c0,0,0,0,0,0c6.9,15.1,28.2,28.8,59.5,39.8
					c-6.5-9.6-10.1-19.9-10.1-30.5c0-28.5,25.1-54.1,65.2-71.8c34.7-15.4,80.7-24.9,131.2-25.2c-54.8,0.2-105.4,5.7-146.5,15
					C166.3,602.4,126.9,623.9,124.4,648.2z"/>
			</g>
			<g>
				<path class="st9" d="M195.2,708.3l-10.3-3.6c-33.1-11.6-54.4-26-61.5-41.7l-0.3-0.7l0-0.3c-1.2-4.4-2-9-2.3-13.5l0-0.3l0-0.3
					c2.6-25.2,40.7-48,104.4-62.5c42.9-9.7,93.8-15,147.2-15.1l0,7.2c-48.1,0.3-94.2,9.1-129.7,24.9c-40.1,17.7-63.1,42.7-63.1,68.5
					c0,9.7,3.2,19.3,9.4,28.5L195.2,708.3z M130.2,660.7c6,12.2,22.4,23.8,47.8,33.8c-3.7-7.7-5.6-15.6-5.6-23.7
					c0-28.8,24.5-56.1,67.3-75.1c9.8-4.3,20.4-8.2,31.6-11.5c-15.6,2.2-30.6,4.9-44.6,8.1c-59.4,13.5-96.2,34.4-98.8,55.9
					c0.3,4,1,8,2.1,11.9L130.2,660.7z"/>
			</g>
		</g>
	</g>
	<g>
		<g>
			<path class="st22" d="M517.4,542.5c-40.5-13.8-89.5-21.9-142.4-21.9s-102,8.1-142.4,21.9c-65.5,22.3-108.3,59.5-108.3,101.7
				c0,1.3,0,2.7,0.1,4c2.5-24.3,41.9-45.8,101.6-59.4c41-9.3,91.6-14.9,146.5-15c0.9,0,1.7,0,2.6,0c0.9,0,1.7,0,2.6,0
				c54.8,0.2,105.4,5.7,146.5,15c59.7,13.6,99.1,35,101.6,59.4c0.1-1.3,0.1-2.7,0.1-4C625.8,602,582.9,564.7,517.4,542.5z"/>
		</g>
		<g>
			<path class="st9" d="M622.1,648.6c-2.3-21.7-39.2-42.7-98.8-56.2c-42.4-9.6-92.7-14.8-145.7-15c-0.9,0-1.7,0-2.6,0
				c-0.8,0-1.7,0-2.5,0c-52.9,0.2-103.3,5.3-145.7,15c-59.6,13.5-96.6,34.6-98.8,56.2l-7.1-0.1c-0.1-1.4-0.1-2.8-0.1-4.3
				c0-42.2,41.4-81.5,110.8-105.1c42.3-14.4,92-22.1,143.6-22.1s101.3,7.6,143.6,22.1h0c69.4,23.6,110.8,62.9,110.8,105.1
				c0,1.5,0,2.9-0.1,4.3L622.1,648.6z M375,570.2c0.9,0,1.7,0,2.6,0c53.4,0.2,104.3,5.4,147.2,15.1c47.1,10.7,80.2,25.9,95.3,43.4
				c-9-33.1-46.4-63.3-103.8-82.9h0c-41.6-14.2-90.5-21.7-141.3-21.7c-50.8,0-99.7,7.5-141.3,21.7c-57.5,19.6-94.9,49.8-103.8,82.9
				c15.1-17.4,48.2-32.7,95.3-43.4c42.9-9.7,93.8-15,147.2-15.1C373.3,570.2,374.1,570.2,375,570.2z"/>
		</g>
	</g>
	<g>
		<g>
			<path class="st22" d="M490.2,482.3l27.2,56c-44-14.1-92.4-22-142.4-22s-98.4,7.8-142.4,22l27.2-56c17.5-35.9,62-58.4,106.5-58.4
				h17.5C428.2,423.9,472.7,446.4,490.2,482.3z"/>
		</g>
		<g>
			<path class="st9" d="M383.7,423.9c44.5,0,89,22.5,106.5,58.4l27.2,56c-44-14.1-92.4-22-142.4-22s-98.4,7.8-142.4,22l27.2-56
				c17.5-35.9,62-58.4,106.5-58.4H383.7 M383.7,416.7h-17.5c-23.1,0-46.8,5.9-66.7,16.6c-21.1,11.3-37.1,27.1-46.1,45.8l-27.2,56
				l-7.3,15.1l16-5.1c44.7-14.4,91.9-21.6,140.3-21.6s95.6,7.3,140.3,21.6l16,5.1l-7.3-15.1l-27.2-56c-9.1-18.7-25-34.5-46.1-45.8
				C430.5,422.6,406.8,416.7,383.7,416.7L383.7,416.7z"/>
		</g>
	</g>
	<g>
		<path class="st9" d="M375,492.4c-44.9,0-88.5,6.3-128.8,17.9l-13.6,28c44-14.1,92.4-22,142.4-22s98.4,7.8,142.4,22l-13.6-28
			C463.5,498.8,419.9,492.4,375,492.4z"/>
	</g>
	<g>
		<g>
			<path class="st4" d="M398.9,524.1h-47.8c-10.5,0-19-8.5-19-19v-20.3c0-10.5,8.5-19,19-19h47.8c10.5,0,19,8.5,19,19v20.3
				C418,515.6,409.4,524.1,398.9,524.1z"/>
		</g>
		<g>
			<path class="st9" d="M398.9,527.7h-47.8c-12.5,0-22.6-10.1-22.6-22.6v-20.3c0-12.5,10.1-22.6,22.6-22.6h47.8
				c12.5,0,22.6,10.1,22.6,22.6v20.3C421.5,517.6,411.4,527.7,398.9,527.7z M351.1,469.3c-8.5,0-15.4,6.9-15.4,15.4v20.3
				c0,8.5,6.9,15.4,15.4,15.4h47.8c8.5,0,15.4-6.9,15.4-15.4v-20.3c0-8.5-6.9-15.4-15.4-15.4H351.1z"/>
		</g>
	</g>
</g>
</svg>
