<svg width="465" height="141" viewBox="0 0 465 141" fill="none" xmlns="http://www.w3.org/2000/svg">
<path d="M399.25 124.99L135.01 122.43H81.14L56.77 116.01V60.8596H399.25L440.3 90.3596L445.43 128.84L399.25 124.99Z" fill="#3D3D3D"/>
<path d="M106.79 140.39C126.628 140.39 142.71 124.308 142.71 104.47C142.71 84.6316 126.628 68.5497 106.79 68.5497C86.9519 68.5497 70.87 84.6316 70.87 104.47C70.87 124.308 86.9519 140.39 106.79 140.39Z" fill="black"/>
<path d="M106.79 132.69C122.375 132.69 135.01 120.055 135.01 104.47C135.01 88.8843 122.375 76.2498 106.79 76.2498C91.2045 76.2498 78.5699 88.8843 78.5699 104.47C78.5699 120.055 91.2045 132.69 106.79 132.69Z" fill="black"/>
<path d="M106.79 133.97C100.955 133.97 95.252 132.24 90.4007 128.998C85.5495 125.757 81.7684 121.149 79.5356 115.759C77.3028 110.368 76.7186 104.437 77.8569 98.7146C78.9951 92.9921 81.8047 87.7357 85.9304 83.6101C90.056 79.4844 95.3124 76.6748 101.035 75.5366C106.757 74.3983 112.689 74.9825 118.079 77.2153C123.47 79.4481 128.077 83.2291 131.318 88.0804C134.56 92.9317 136.29 98.6352 136.29 104.47C136.282 112.291 133.172 119.79 127.641 125.321C122.11 130.851 114.611 133.962 106.79 133.97ZM106.79 77.5297C101.462 77.5297 96.2533 79.1097 91.823 82.0699C87.3927 85.0301 83.9398 89.2376 81.9007 94.1602C79.8617 99.0829 79.3282 104.5 80.3677 109.725C81.4072 114.951 83.973 119.752 87.7406 123.519C91.5082 127.287 96.3085 129.853 101.534 130.892C106.76 131.932 112.177 131.398 117.1 129.359C122.022 127.32 126.23 123.867 129.19 119.437C132.15 115.007 133.73 109.798 133.73 104.47C133.714 97.3297 130.871 90.4866 125.822 85.4378C120.773 80.389 113.93 77.5456 106.79 77.5297Z" fill="#D9EA00"/>
<path d="M107.27 89.3197C110.1 89.3197 111.89 77.1597 111.89 77.1597H102.06C102.06 77.1597 103.44 89.3197 107.27 89.3197Z" fill="black"/>
<path d="M107.27 90.5996C102.65 90.5996 101.14 80.4197 100.78 77.3097L100.62 75.8796H113.38L113.16 77.3496C111.46 88.8796 108.74 90.5996 107.27 90.5996ZM103.52 78.4396C104.24 83.1696 105.83 87.9197 107.22 88.0297C108.15 87.5297 109.54 83.2596 110.39 78.4396H103.52Z" fill="#E3E800"/>
<path d="M106.79 104.47L106.05 89.2397H108.08L106.79 104.47Z" fill="black"/>
<path d="M108.07 104.58L105.51 104.53L104.7 87.9497H109.48L108.07 104.58Z" fill="#E3E800"/>
<path d="M97.42 92.5597C99.59 90.7397 93.15 80.2697 93.15 80.2697L85.61 86.5996C85.61 86.5996 94.48 95.0197 97.42 92.5597Z" fill="black"/>
<path d="M96.07 94.2797C92.19 94.2797 86.61 89.2797 84.73 87.5297L83.73 86.5297L93.5 78.3197L94.28 79.5897C100.39 89.5197 99.41 92.5897 98.28 93.5297C97.6625 94.0464 96.8744 94.3139 96.07 94.2797ZM87.56 86.6397C91.14 89.7897 95.41 92.4097 96.56 91.6397C96.95 90.6397 95.24 86.4297 92.83 82.2497L87.56 86.6397Z" fill="#E3E800"/>
<path d="M106.79 104.47L96.4299 93.2798L97.9899 91.9697L106.79 104.47Z" fill="black"/>
<path d="M105.85 105.34L94.5701 93.1597L98.23 90.0897L107.84 103.73L105.85 105.34Z" fill="#E3E800"/>
<path d="M91.96 101.37C92.45 98.5797 80.79 94.7097 80.79 94.7097L79.08 104.39C79.08 104.39 91.29 105.11 91.96 101.37Z" fill="black"/>
<path d="M81.8501 105.76C80.6801 105.76 79.6701 105.76 79.0001 105.67L77.5601 105.58L79.7801 93.0197L81.19 93.4897C92.25 97.1697 93.4701 100.14 93.1901 101.59C92.5901 105.16 86.1201 105.76 81.8501 105.76ZM80.5901 103.17C85.3701 103.29 90.3201 102.54 90.6801 101.17C90.3501 100.17 86.3801 98.0496 81.7901 96.3796L80.5901 103.17Z" fill="#E3E800"/>
<path d="M106.79 104.47L91.66 102.56L92.01 100.56L106.79 104.47Z" fill="black"/>
<path d="M106.63 105.74L90.1699 103.66L90.9899 98.9597L107.12 103.23L106.63 105.74Z" fill="#E3E800"/>
<path d="M93.43 111.63C92.02 109.18 80.59 113.71 80.59 113.71L85.5099 122.23C85.5099 122.23 95.35 114.95 93.43 111.63Z" fill="black"/>
<path d="M85.12 124.11L78.74 113.11L80.12 112.56C90.96 108.27 93.81 109.76 94.54 111.04C96.85 115.04 88.8 121.44 86.28 123.31L85.12 124.11ZM82.46 114.37L85.89 120.32C89.62 117.32 92.94 113.58 92.35 112.32C91.46 111.77 86.99 112.72 82.46 114.37Z" fill="#E3E800"/>
<path d="M106.79 104.47L93.97 112.73L92.96 110.97L106.79 104.47Z" fill="black"/>
<path d="M93.54 114.54L91.15 110.41L106.25 103.31L107.49 105.55L93.54 114.54Z" fill="#E3E800"/>
<path d="M101.18 118.54C98.5199 117.54 92.6799 128.39 92.6799 128.39L101.92 131.75C101.92 131.75 104.76 119.85 101.18 118.54Z" fill="black"/>
<path d="M102.82 133.45L90.8201 129.08L91.5201 127.78C97.0701 117.52 100.21 116.83 101.59 117.34C105.93 118.92 103.88 129 103.14 132.05L102.82 133.45ZM94.5201 127.7L100.97 130.04C101.9 125.36 102.03 120.35 100.77 119.77C99.72 119.92 96.9501 123.46 94.5201 127.7Z" fill="#E3E800"/>
<path d="M106.79 104.47L102.28 119.04L100.37 118.34L106.79 104.47Z" fill="black"/>
<path d="M103.11 120.7L98.62 119.07L105.63 103.93L108.02 104.85L103.11 120.7Z" fill="#E3E800"/>
<path d="M111.53 118.87C108.87 119.87 111.34 131.87 111.34 131.87L120.58 128.51C120.58 128.51 115.18 117.56 111.53 118.87Z" fill="black"/>
<path d="M110.38 133.59L110.08 132.13C107.74 120.71 109.71 118.13 111.08 117.66C115.42 116.08 120.32 125.13 121.72 127.94L122.36 129.22L110.38 133.59ZM112.01 120.11C111.32 120.89 111.48 125.46 112.32 130.2L118.77 127.86C116.48 123.62 113.39 119.69 112.01 120.11Z" fill="#E3E800"/>
<path d="M106.79 104.47L112.7 118.53L110.79 119.22L106.79 104.47Z" fill="black"/>
<path d="M109.92 120.91L105.56 104.8L107.98 103.97L114.41 119.27L109.92 120.91Z" fill="#E3E800"/>
<path d="M119.67 112.46C118.26 114.91 127.89 122.54 127.89 122.54L132.81 114.02C132.81 114.02 121.59 109.11 119.67 112.46Z" fill="black"/>
<path d="M128.26 124.47L127.1 123.54C117.96 116.3 117.83 113.09 118.56 111.82C120.87 107.82 130.44 111.59 133.32 112.82L134.64 113.4L128.26 124.47ZM120.81 113.11C120.81 114.11 123.81 117.54 127.54 120.64L130.97 114.7C126.52 112.91 121.61 111.91 120.81 113.11Z" fill="#E3E800"/>
<path d="M106.79 104.47L120.36 111.44L119.34 113.2L106.79 104.47Z" fill="black"/>
<path d="M119.75 115.05L106.06 105.52L107.38 103.33L122.14 110.91L119.75 115.05Z" fill="#E3E800"/>
<path d="M121.8 102.31C122.29 105.09 134.57 104.75 134.57 104.75L132.86 95.1096C132.86 95.1096 121.18 98.5296 121.8 102.31Z" fill="black"/>
<path d="M132.51 106.11C122.69 106.11 120.77 103.94 120.51 102.58C119.71 98.0297 129.51 94.7697 132.51 93.8797L133.89 93.4697L136.1 106.04H134.62L132.51 106.11ZM123.05 102.11C123.71 102.94 128.12 103.57 132.98 103.57H133.05L131.85 96.8098C127.33 98.2598 122.93 100.65 123.05 102.03V102.11Z" fill="#E3E800"/>
<path d="M106.79 104.47L121.66 101.09L122.02 103.09L106.79 104.47Z" fill="black"/>
<path d="M106.91 105.75L106.51 103.22L122.69 99.5397L123.52 104.24L106.91 105.75Z" fill="#E3E800"/>
<path d="M116.9 93.1697C119.06 94.9897 128.25 86.8297 128.25 86.8297L120.72 80.4998C120.72 80.4998 113.96 90.7097 116.9 93.1697Z" fill="black"/>
<path d="M117.66 94.6596C117.086 94.6891 116.52 94.5077 116.07 94.1496C112.53 91.1496 117.91 82.4096 119.65 79.7996L120.44 78.5996L130.21 86.7996L129.1 87.7996C122.92 93.2796 119.52 94.6596 117.66 94.6596ZM117.72 92.1896C118.72 92.3996 122.62 89.9796 126.31 86.8796L121.06 82.4696C118.53 86.5096 116.7 91.1696 117.68 92.1096L117.72 92.1896Z" fill="#E3E800"/>
<path d="M106.79 104.47L116.01 92.3197L117.57 93.6297L106.79 104.47Z" fill="black"/>
<path d="M107.7 105.37L105.77 103.69L115.8 90.4697L119.46 93.5397L107.7 105.37Z" fill="#E3E800"/>
<path d="M106.79 108.32C108.916 108.32 110.64 106.596 110.64 104.47C110.64 102.343 108.916 100.62 106.79 100.62C104.664 100.62 102.94 102.343 102.94 104.47C102.94 106.596 104.664 108.32 106.79 108.32Z" fill="#CCCCCC"/>
<path d="M381.29 140.38C399.709 140.38 414.64 125.448 414.64 107.03C414.64 88.611 399.709 73.6797 381.29 73.6797C362.871 73.6797 347.94 88.611 347.94 107.03C347.94 125.448 362.871 140.38 381.29 140.38Z" fill="black"/>
<path d="M381.29 133.23C395.76 133.23 407.49 121.5 407.49 107.03C407.49 92.5599 395.76 80.8297 381.29 80.8297C366.82 80.8297 355.09 92.5599 355.09 107.03C355.09 121.5 366.82 133.23 381.29 133.23Z" fill="black"/>
<path d="M381.29 134.52C375.853 134.52 370.538 132.907 366.017 129.887C361.497 126.866 357.973 122.573 355.892 117.55C353.812 112.527 353.267 106.999 354.328 101.667C355.389 96.3341 358.007 91.4359 361.852 87.5913C365.696 83.7468 370.594 81.1286 375.927 80.0679C381.259 79.0072 386.787 79.5516 391.81 81.6322C396.833 83.7129 401.126 87.2363 404.147 91.757C407.168 96.2778 408.78 101.593 408.78 107.03C408.772 114.318 405.873 121.306 400.72 126.459C395.566 131.613 388.578 134.512 381.29 134.52ZM381.29 82.1097C376.36 82.1037 371.539 83.5602 367.437 86.2949C363.335 89.0295 360.136 92.9194 358.246 97.4724C356.355 102.025 355.857 107.037 356.815 111.873C357.773 116.709 360.144 121.152 363.628 124.64C367.112 128.128 371.552 130.505 376.387 131.469C381.222 132.433 386.234 131.941 390.79 130.056C395.345 128.17 399.239 124.976 401.978 120.878C404.718 116.779 406.18 111.96 406.18 107.03C406.172 100.428 403.548 94.0987 398.883 89.4279C394.218 84.7571 387.892 82.1255 381.29 82.1097Z" fill="#D9EA00"/>
<path d="M381.74 92.9697C384.36 92.9697 386.03 81.6797 386.03 81.6797H376.89C376.89 81.6797 378.18 92.9697 381.74 92.9697Z" fill="black"/>
<path d="M381.74 94.2497C377.37 94.2497 375.95 84.7396 375.62 81.8196L375.46 80.3896H387.51L387.3 81.8596C386.46 87.5096 384.82 94.2497 381.74 94.2497ZM378.36 82.9597C379.06 87.5197 380.55 91.5097 381.66 91.6797C382.51 91.1297 383.75 87.2697 384.52 82.9597H378.36Z" fill="#E3E800"/>
<path d="M381.29 107.03L380.6 92.8896H382.49L381.29 107.03Z" fill="black"/>
<path d="M382.57 107.14L380.01 107.1L379.25 91.6096H383.88L382.57 107.14Z" fill="#E3E800"/>
<path d="M372.59 95.9697C374.59 94.2797 368.59 84.5697 368.59 84.5697L361.59 90.4397C361.59 90.4397 369.86 98.2597 372.59 95.9697Z" fill="black"/>
<path d="M371.34 97.6596C367.7 97.6596 362.49 93.0296 360.74 91.3696L359.74 90.3696L368.97 82.6196L369.75 83.8796C372.75 88.7496 375.82 94.9596 373.45 96.9496C372.858 97.4385 372.107 97.6914 371.34 97.6596ZM363.57 90.4796C367.04 93.4796 370.75 95.6296 371.71 95.0296C372 94.0296 370.48 90.3196 368.29 86.5196L363.57 90.4796Z" fill="#E3E800"/>
<path d="M381.29 107.03L371.67 96.6397L373.11 95.4297L381.29 107.03Z" fill="black"/>
<path d="M380.35 107.91L369.81 96.5297L373.36 93.5497L382.34 106.3L380.35 107.91Z" fill="#E3E800"/>
<path d="M367.51 104.11C367.97 101.53 357.14 97.9297 357.14 97.9297L355.56 106.93C355.56 106.93 366.9 107.66 367.51 104.11Z" fill="black"/>
<path d="M358.11 108.32C357.03 108.32 356.11 108.32 355.48 108.24L354.04 108.16L356.14 96.2797L357.55 96.7497C362.97 98.5497 369.31 101.34 368.78 104.38C368.18 107.76 362.11 108.32 358.11 108.32ZM357.11 105.74C361.71 105.82 365.92 105.07 366.27 104C365.88 103.07 362.27 101.18 358.18 99.6797L357.11 105.74Z" fill="#E3E800"/>
<path d="M381.29 107.03L367.24 105.26L367.57 103.4L381.29 107.03Z" fill="black"/>
<path d="M381.13 108.31L365.74 106.36L366.55 101.81L381.62 105.79L381.13 108.31Z" fill="#E3E800"/>
<path d="M368.89 113.68C367.57 111.41 356.96 115.61 356.96 115.61L361.53 123.52C361.53 123.52 370.67 116.77 368.89 113.68Z" fill="black"/>
<path d="M361.18 125.41L355.18 114.97L356.56 114.42C361.87 112.32 368.56 110.37 370.07 113.04C372.25 116.82 364.72 122.81 362.36 124.55L361.18 125.41ZM358.87 116.28L361.95 121.61C365.54 118.72 368.26 115.44 367.85 114.39C366.9 113.93 362.95 114.78 358.83 116.28H358.87Z" fill="#E3E800"/>
<path d="M381.29 107.03L369.39 114.71L368.44 113.07L381.29 107.03Z" fill="black"/>
<path d="M368.95 116.51L366.64 112.51L380.75 105.87L381.99 108.11L368.95 116.51Z" fill="#E3E800"/>
<path d="M376.06 120.11C373.6 119.21 368.17 129.25 368.17 129.25L376.75 132.38C376.75 132.38 379.41 121.32 376.06 120.11Z" fill="black"/>
<path d="M377.67 134.11L366.34 129.99L367.04 128.68C369.76 123.68 373.59 117.9 376.5 118.95C380.6 120.44 378.69 129.86 378 132.72L377.67 134.11ZM370.03 128.6L375.81 130.71C376.71 126.19 376.68 121.93 375.69 121.39C374.71 121.56 372.18 124.76 370.03 128.55V128.6Z" fill="#E3E800"/>
<path d="M381.29 107.03L377.11 120.56L375.33 119.92L381.29 107.03Z" fill="black"/>
<path d="M377.93 122.23L373.58 120.65L380.13 106.49L382.52 107.41L377.93 122.23Z" fill="#E3E800"/>
<path d="M385.69 120.41C383.22 121.3 385.52 132.48 385.52 132.48L394.1 129.36C394.1 129.36 389.03 119.19 385.69 120.41Z" fill="black"/>
<path d="M384.56 134.2L384.26 132.74C383.11 127.15 382.35 120.26 385.26 119.2C389.35 117.7 393.95 126.2 395.26 128.78L395.9 130.07L384.56 134.2ZM386.18 121.59C385.58 122.4 385.73 126.44 386.48 130.76L392.27 128.65C390.06 124.61 387.3 121.34 386.18 121.59Z" fill="#E3E800"/>
<path d="M381.29 107.03L386.78 120.09L385.01 120.73L381.29 107.03Z" fill="black"/>
<path d="M384.13 122.42L380.05 107.37L382.47 106.54L388.49 120.83L384.13 122.42Z" fill="#E3E800"/>
<path d="M393.25 114.45C391.94 116.73 400.88 123.81 400.88 123.81L405.45 115.9C405.45 115.9 395.03 111.37 393.25 114.45Z" fill="black"/>
<path d="M401.25 125.74L400.09 124.82C395.61 121.27 390.6 116.48 392.14 113.82C394.33 110.04 403.27 113.57 405.96 114.74L407.28 115.31L401.25 125.74ZM394.4 115.03C394.46 116.03 397.17 119.03 400.53 121.87L403.61 116.53C399.31 114.86 395.11 114.11 394.4 115.03Z" fill="#E3E800"/>
<path d="M381.29 107.03L393.89 113.51L392.94 115.14L381.29 107.03Z" fill="black"/>
<path d="M393.36 116.99L380.56 108.09L381.88 105.89L395.67 112.98L393.36 116.99Z" fill="#E3E800"/>
<path d="M395.18 105.03C395.64 107.61 407.05 107.29 407.05 107.29L405.46 98.2897C405.46 98.2897 394.61 101.52 395.18 105.03Z" fill="black"/>
<path d="M405.18 108.6C399.96 108.6 394.45 107.95 393.97 105.25C393.21 100.95 402.33 97.8997 405.14 97.0697L406.52 96.6597L408.62 108.53L407.13 108.58L405.18 108.6ZM396.49 104.73C397.18 105.47 401.19 106.03 405.57 106.03L404.5 99.9697C400.18 101.45 396.45 103.61 396.48 104.73H396.49Z" fill="#E3E800"/>
<path d="M381.29 107.03L395.1 103.9L395.43 105.75L381.29 107.03Z" fill="black"/>
<path d="M381.41 108.31L381.01 105.78L396.13 102.35L396.93 106.91L381.41 108.31Z" fill="#E3E800"/>
<path d="M390.67 96.5396C392.67 98.2296 401.22 90.6497 401.22 90.6497L394.22 84.7797C394.22 84.7797 387.95 94.2496 390.67 96.5396Z" fill="black"/>
<path d="M391.41 98.0396C390.846 98.0618 390.292 97.8808 389.85 97.5297C386.51 94.7197 391.53 86.5296 393.15 84.0696L393.95 82.8796L403.18 90.6296L402.07 91.6296C398.57 94.7196 394.18 98.0396 391.41 98.0396ZM391.45 95.5096C392.5 95.6296 395.88 93.5096 399.24 90.6696L394.52 86.6696C392.18 90.6496 390.7 94.6596 391.45 95.5096Z" fill="#E3E800"/>
<path d="M381.29 107.03L389.85 95.7498L391.3 96.9697L381.29 107.03Z" fill="black"/>
<path d="M382.2 107.94L380.27 106.26L389.65 93.8997L393.19 96.8796L382.2 107.94Z" fill="#E3E800"/>
<path d="M381.29 110.6C383.262 110.6 384.86 109.001 384.86 107.03C384.86 105.058 383.262 103.46 381.29 103.46C379.318 103.46 377.72 105.058 377.72 107.03C377.72 109.001 379.318 110.6 381.29 110.6Z" fill="#CCCCCC"/>
<path d="M192.57 60.8596L184.68 36.3496C184.521 35.8994 184.471 35.4176 184.536 34.9445C184.6 34.4713 184.777 34.0203 185.051 33.6291C185.324 33.2379 185.688 32.9177 186.11 32.6951C186.533 32.4726 187.002 32.3541 187.48 32.3496L193.03 32.1896C193.736 32.1725 194.433 32.3501 195.045 32.7029C195.658 33.0556 196.161 33.57 196.5 34.1896L212.95 63.4396L192.57 60.8596Z" fill="#050505"/>
<g opacity="0.8">
<path opacity="0.8" d="M68.5601 46.6697L147.23 8.38971L252.24 5.69971L262.16 6.36972L308.7 48.6897L68.5601 46.6697Z" fill="#4C4C4B"/>
</g>
<g opacity="0.8">
<path opacity="0.8" d="M257.3 7.42972C257.3 7.42972 287.09 35.4297 289.38 39.2797C291.67 43.1297 308.7 48.6897 308.7 48.6897L306.56 46.7497L262.18 6.33972L257.3 7.42972Z" fill="#A8A8A8"/>
</g>
<g style="mix-blend-mode:multiply" opacity="0.8">
<g style="mix-blend-mode:multiply" opacity="0.8">
<path d="M102.06 48.6897C102.06 48.6897 95.15 41.3097 102.98 36.2497C110.81 31.1897 145.84 12.5997 145.84 12.5997L138.56 12.3397L77.5 42.9197L102.06 48.6897Z" fill="#4C4C4B"/>
</g>
</g>
<path d="M16.2899 100.62H6.93994L11.6099 109.87L36.09 109.72L16.2899 100.62Z" fill="#050505"/>
<path d="M462.1 94.2098L462.74 79.4598H455.05C455.05 79.4598 429.39 49.9498 368.46 46.7498C322.19 44.3098 286.37 44.1798 286.37 44.1798C286.37 44.1798 265.67 20.5397 254.84 8.53974C254.39 8.03974 263.62 7.42974 263.18 6.97974C260.51 4.18974 249.86 2.53974 246.61 1.84974C237.47 -0.0702627 145.27 3.12974 140.14 5.69974C137.58 6.97974 135.01 46.7498 135.01 46.7498C135.01 46.7498 30.4 34.9298 12.51 34.5598C8.64001 34.4798 1.51001 34.6697 1.51001 34.6697L2.31001 38.6697L23.43 54.4697L16.43 77.2698H6.18001L6.79001 92.9497H13.18V103.22L63.18 117.33C63.18 117.33 66.39 110.27 66.39 106.42C66.39 79.4897 84.83 64.7297 106.79 64.7297C128.75 64.7297 145.59 82.5598 146.56 104.5C146.98 114.12 154.69 123.24 154.69 123.24L343.33 125.48C344.09 125.02 344.09 113.02 344.09 105.78C344.09 95.9137 348.009 86.4517 354.986 79.4754C361.962 72.499 371.424 68.5798 381.29 68.5798C391.156 68.5798 400.618 72.499 407.594 79.4754C414.571 86.4517 418.49 95.9137 418.49 105.78C418.49 113.3 419.77 134 420.1 133.85L426.19 134H456.97L459.54 123.74L455.69 122.46L447.99 103.22L451.84 94.2197L462.1 94.2098ZM165.8 45.4598L164.51 10.8297C164.51 10.8297 242.76 8.26975 245.32 9.54975C247.88 10.8297 274.83 45.4598 274.83 45.4598H165.8Z" fill="#00B240"/>
<path d="M419.99 135.28L419.4 134.9C418.74 134.47 418.58 134.37 417.88 122.57C417.56 117.05 417.21 109.73 417.21 105.75C417.053 96.3282 413.2 87.3458 406.482 80.7387C399.763 74.1316 390.718 70.429 381.295 70.429C371.872 70.429 362.827 74.1316 356.109 80.7387C349.39 87.3458 345.537 96.3282 345.38 105.75C345.38 125.75 344.94 125.98 343.98 126.55L343.67 126.74H343.31L154.09 124.49L153.72 124.04C153.39 123.66 145.72 114.48 145.28 104.54C144.28 82.9297 127.42 65.9997 106.79 65.9997C87.32 65.9997 67.67 78.4897 67.67 106.4C67.67 110.48 64.48 117.54 64.35 117.84L63.89 118.84L11.89 104.17V94.2097H5.53L4.81999 75.9597H15.47L21.94 54.9597L1.17999 39.3697L0 33.4197H1.51999C1.80999 33.4197 8.73 33.2397 12.59 33.3197C29.24 33.6597 121.59 43.9897 133.87 45.3197C134.08 42.2597 134.64 34.4297 135.39 26.5797C137.39 5.66969 138.67 5.02969 139.62 4.57969C144.85 1.96969 237.11 -1.42033 246.92 0.629674L248.69 0.96967C254.93 2.15967 261.78 3.63967 264.16 6.12967L264.71 6.69968L264.46 7.48969C264.11 8.43969 263.46 8.4897 259.35 9.0297C258.73 9.1097 257.96 9.19969 257.27 9.29969C267.42 20.5897 284.27 39.7997 287.01 42.9297C291.82 42.9297 326.01 43.2497 368.58 45.4997C425.27 48.4997 452.1 74.4997 455.66 78.1997H464.13L463.38 95.5197H452.69L449.38 103.23L456.66 121.43L461.07 122.9L457.97 135.28H426.18L420.35 135.14L419.99 135.28ZM421.18 132.57L426.18 132.69H455.93L457.93 124.55L454.64 123.45L446.52 103.17L450.92 92.9197H460.79L461.32 80.7397H454.38L454 80.2997C453.75 80.0097 427.92 51.1597 368.32 48.0297C322.61 45.6197 286.64 45.4697 286.32 45.4597H285.74L285.36 45.0297C285.15 44.7897 264.54 21.2597 253.84 9.39969L253.32 8.81968L253.58 8.03968C253.94 7.03968 254.7 6.96968 258.94 6.44968L259.61 6.36969C255.862 5.08886 252.016 4.11563 248.11 3.45969L246.29 3.10968C237.29 1.22968 147.23 4.3997 140.83 6.7797C139.42 9.2197 137.4 28.8797 136.24 46.8297L136.16 48.1697L134.82 48.0197C133.77 47.8997 30.06 36.2097 12.44 35.8397C9.71999 35.7897 5.31999 35.8397 3.00999 35.9097L3.40999 37.9097L24.86 53.9597L17.29 78.5297H7.42L7.92999 91.6397H14.39V102.22L62.39 115.76C63.39 113.35 65.04 108.9 65.04 106.39C65.04 76.7097 85.98 63.3897 106.73 63.3897C128.73 63.3897 146.73 81.3897 147.78 104.39C148.12 112.29 153.78 120 155.26 121.91L342.33 124.14C342.75 121.14 342.75 110.52 342.75 105.73C342.75 95.5188 346.806 85.7262 354.026 78.5061C361.247 71.2859 371.039 67.2297 381.25 67.2297C391.461 67.2297 401.253 71.2859 408.474 78.5061C415.694 85.7262 419.75 95.5188 419.75 105.73C419.77 112.31 420.73 128.5 421.18 132.57ZM277.45 46.7897H164.56L163.18 9.5897H164.46C188.09 8.8097 243.31 7.14967 245.89 8.43967C248.47 9.72967 269.47 36.5397 275.83 44.7197L277.45 46.7897ZM167.03 44.2197H272.18C262.04 31.2197 246.95 12.3397 244.76 10.7597C241.18 9.97968 196.23 11.1197 165.82 12.1097L167.03 44.2197Z" fill="#050505"/>
<path d="M21.03 62.6697L36.09 62.5797L34.16 76.8897L16.83 76.9097L21.03 62.6697Z" fill="#FF4200"/>
<path d="M15.97 77.5497L20.55 62.0297L36.82 61.9397L34.72 77.5397L15.97 77.5497ZM21.51 63.3097L17.69 76.3097H33.6L35.35 63.3097H21.51Z" fill="#070707"/>
<path d="M163.23 123.11H161.95C161.95 118.43 161.43 101.93 154.79 86.3197C146.02 65.7297 130.51 55.0197 108.7 54.4797H106.7C59.59 54.4797 56.87 95.3197 55.56 115.09V115.47L54.28 115.39V115C55.52 96.4097 58.39 53.1997 106.75 53.1997C107.42 53.1997 108.09 53.1997 108.75 53.1997C131.11 53.7497 147 64.7197 155.99 85.8197C162.71 101.62 163.23 118.32 163.23 123.11Z" fill="#050505"/>
<path d="M457.3 123.74H456.3C451.079 123.581 445.889 122.887 440.81 121.67C434.04 119.8 428.93 104.67 428.72 104.06C428.62 103.72 419.01 72.3297 386.72 69.6397L386.83 68.3597C420.06 71.1297 429.89 103.36 429.99 103.68C429.99 103.8 435.09 118.74 441.2 120.44C445.854 121.562 450.607 122.232 455.39 122.44L454.62 120.54C447.55 103.17 430.98 62.4897 385.87 60.3397C338.79 58.1697 336.09 98.5197 334.95 115.78L334.87 116.9L162.58 114.73V113.45L333.58 115.55C334.76 97.8597 337.58 56.6797 385.84 59.0097C431.77 61.1897 448.55 102.41 455.72 120.01L456.87 122.82L457.3 123.74Z" fill="#050505"/>
<path d="M31.11 93.5696H6.15001L4.76001 76.5197H63.18V77.7997H6.15001L7.33 92.2797H31.11V93.5696Z" fill="#050505"/>
<path d="M429.259 77.918L429.246 79.198L461.906 79.5246L461.919 78.2446L429.259 77.918Z" fill="#050505"/>
<path d="M451.84 93.6196H442.01V94.8996H451.84V93.6196Z" fill="#050505"/>
<path d="M169.65 114.17C169.39 112.02 163.23 61.4597 163.23 55.0797C163.132 51.3654 164.056 47.6954 165.9 44.4697L166.97 45.1797C165.278 48.1998 164.428 51.6189 164.51 55.0797C164.51 61.3897 170.86 113.49 170.92 114.01L169.65 114.17Z" fill="#050505"/>
<path d="M134.976 46.1221L23.3778 53.7693L23.4653 55.0463L135.064 47.3991L134.976 46.1221Z" fill="#070707"/>
<path d="M318.44 49.3097H341.53L306.89 108.32H169.43L168.36 94.2097H292.79L318.44 49.3097Z" fill="#020202"/>
<path d="M205.56 49.3097H322.29L292.79 94.2097H168.88L168.16 88.7497L285.09 89.0797L308.23 53.1597L208.13 50.5897L205.56 49.3097Z" fill="#F3FF00"/>
<g opacity="0.5">
<path opacity="0.5" d="M176.71 53.1597H195.26C195.26 53.1597 196.97 55.7297 185.98 55.7297C175.18 55.7297 176.71 53.1597 176.71 53.1597Z" fill="#050505"/>
</g>
<path d="M303.18 116.3L301.91 116.1C301.96 115.77 307.02 82.8196 307.02 77.7996C307.02 72.7796 295.52 45.3496 295.4 45.1096L296.58 44.6096C297.06 45.7596 308.28 72.6096 308.28 77.8396C308.28 83.0696 303.36 114.94 303.18 116.3Z" fill="#020202"/>
<path d="M246.7 104.56L246.64 105.29H243.49V100.38C243.49 98.9697 243.16 98.6497 241.76 98.6597C241.61 98.6597 241.45 98.6597 241.21 98.7097V105.26H238.18V98.7397H235.94V105.28H232.68V95.7897H242.77C245.57 95.7897 246.63 96.7897 246.68 99.5897V100.11C248.77 98.5997 251.14 99.5997 253.37 99.1797C253.28 98.4197 252.69 98.3797 252.15 98.3697C250.8 98.3697 249.45 98.3697 248.1 98.3697H247.18V95.7697H252.28C252.76 95.7697 253.23 95.7697 253.71 95.7697C254.063 95.7533 254.417 95.8119 254.746 95.9417C255.075 96.0714 255.373 96.2693 255.621 96.5224C255.868 96.7755 256.059 97.078 256.181 97.4102C256.304 97.7423 256.354 98.0966 256.33 98.4497C256.33 99.7397 256.33 101.04 256.33 102.51L259.66 99.8897C261.26 98.6297 262.84 97.3497 264.46 96.1197C264.775 95.8945 265.152 95.7723 265.54 95.7697C267.95 95.7697 270.36 95.7697 272.77 95.7697C275.18 95.7697 276.51 96.9997 276.62 99.4997C276.62 99.6997 276.62 99.9097 276.62 100.24C277.028 99.8558 277.515 99.5671 278.048 99.3942C278.58 99.2213 279.145 99.1685 279.7 99.2397H283.38C283.23 98.2997 282.56 98.3497 282.03 98.3397C280.84 98.3397 279.65 98.3397 278.45 98.3397H277.23V95.7397H279.29C280.75 95.7397 282.21 95.7397 283.66 95.7397C284.027 95.713 284.395 95.7669 284.739 95.8978C285.083 96.0287 285.394 96.2334 285.651 96.4974C285.907 96.7614 286.103 97.0784 286.223 97.4261C286.344 97.7737 286.387 98.1436 286.35 98.5097C286.35 100.51 286.35 102.51 286.35 104.51C286.35 104.74 286.35 104.98 286.35 105.3H283.24C282.12 105.3 281.01 105.3 279.9 105.3C278.25 105.3 276.84 104.97 276.2 103.02C275.47 104.91 274.07 105.28 272.38 105.22C270.38 105.15 268.38 105.22 266.38 105.22V98.3597L262.06 101.81C260.76 102.81 259.47 103.91 258.15 104.93C257.864 105.156 257.514 105.285 257.15 105.3C254.5 105.3 251.85 105.38 249.21 105.3C248.346 105.158 247.503 104.91 246.7 104.56ZM269.48 102.44C270.54 102.44 271.54 102.49 272.54 102.44C272.716 102.412 272.882 102.342 273.025 102.236C273.168 102.129 273.283 101.99 273.36 101.83C273.56 101.107 273.608 100.351 273.5 99.6097C273.399 99.365 273.243 99.1472 273.043 98.9736C272.844 98.8 272.606 98.6754 272.35 98.6097C271.395 98.5342 270.435 98.5342 269.48 98.6097V102.44ZM283.36 101.44C282.21 101.44 281.08 101.44 279.95 101.44C279.76 101.44 279.41 101.85 279.45 101.98C279.49 102.11 279.81 102.55 280.02 102.56C281.12 102.62 282.22 102.56 283.36 102.56V101.44ZM253.36 101.44C252.2 101.44 251.12 101.44 250.04 101.44C249.83 101.44 249.52 101.78 249.46 102.02C249.4 102.26 249.78 102.56 249.98 102.57C251.1 102.62 252.22 102.57 253.36 102.57V101.44Z" fill="#FCFCFC"/>
<path d="M258.66 105.28L261.82 102.68C261.938 102.577 262.084 102.51 262.24 102.49C263.42 102.49 264.6 102.49 265.83 102.49V105.29L258.66 105.28Z" fill="#FCFCFC"/>
<path d="M256.83 95.8397H263.98C262.8 96.8397 261.75 97.6997 260.66 98.5597C260.447 98.657 260.212 98.6917 259.98 98.6597H256.83V95.8397Z" fill="#FCFCFC"/>
<path d="M250.85 59.3097C250.856 58.7717 251.023 58.2478 251.329 57.8057C251.636 57.3636 252.068 57.0236 252.57 56.8297C253.359 56.4969 254.204 56.3137 255.06 56.2896C263.207 56.2496 271.363 56.2496 279.53 56.2896C280.208 56.2935 280.882 56.398 281.53 56.5996C281.933 56.7051 282.311 56.8913 282.64 57.147C282.969 57.4027 283.243 57.7225 283.445 58.0872C283.647 58.4518 283.773 58.8536 283.815 59.2683C283.857 59.683 283.815 60.1019 283.69 60.4997C283.496 61.1804 283.221 61.8351 282.87 62.4496C278.797 69.543 274.71 76.623 270.61 83.6896C270.166 84.4718 269.595 85.1747 268.92 85.7697C268.366 86.2654 267.643 86.531 266.9 86.5125C266.157 86.4939 265.449 86.1924 264.92 85.6696C264.396 85.1911 263.944 84.6386 263.58 84.0297C262.51 82.2697 261.52 80.4696 260.47 78.6896C260.375 78.5549 260.324 78.3943 260.324 78.2296C260.324 78.065 260.375 77.9044 260.47 77.7697C263.037 73.3497 265.59 68.923 268.13 64.4897C268.494 63.8725 268.745 63.1952 268.87 62.4897C268.992 61.8672 268.866 61.2216 268.518 60.691C268.171 60.1603 267.629 59.7866 267.01 59.6497C266.393 59.4676 265.753 59.3799 265.11 59.3896C260.67 59.3896 256.23 59.3896 251.78 59.3896L250.85 59.3097Z" fill="#FF1D25"/>
<path d="M205.77 76.3597C203.45 76.3597 201.13 76.4197 198.82 76.3597C197.795 76.304 196.783 76.095 195.82 75.7397C194.25 75.1797 193.61 73.9197 194.35 72.4497C195.393 70.2921 196.625 68.2308 198.03 66.2896C199.41 64.4296 201.62 63.7997 203.86 63.4997C205.011 63.3497 206.17 63.2696 207.33 63.2596C210.72 63.2596 214.11 63.2096 217.5 63.2596C218.744 63.2966 219.984 63.4236 221.21 63.6397C221.778 63.7484 222.32 63.962 222.81 64.2697C223.235 64.4849 223.57 64.8449 223.753 65.285C223.937 65.725 223.957 66.2161 223.81 66.6697C223.651 67.2928 223.416 67.894 223.11 68.4597C222.62 69.3897 222.02 70.2597 221.55 71.1997C220.838 72.655 219.743 73.8892 218.383 74.77C217.023 75.6508 215.449 76.145 213.83 76.1997C211.14 76.4297 208.44 76.4397 205.74 76.5497L205.77 76.3597ZM207.43 72.0996C208.51 72.0996 209.59 72.0196 210.65 72.0996C211.707 72.2832 212.795 72.0906 213.725 71.5553C214.655 71.02 215.368 70.1759 215.74 69.1697C216.41 67.7097 216.44 67.5496 214.79 67.5096C212.41 67.4496 210.02 67.5996 207.65 67.4396C206.47 67.275 205.27 67.521 204.251 68.1364C203.231 68.7519 202.454 69.6992 202.05 70.8196C201.6 71.8196 201.61 72.0197 202.73 72.0497C204.3 72.1097 205.87 72.1097 207.43 72.1097V72.0996Z" fill="black"/>
<path d="M243.48 71.8997C244.89 69.4697 246.33 67.1797 247.57 64.7797C247.772 64.23 248.162 63.7693 248.671 63.4785C249.179 63.1877 249.774 63.0854 250.35 63.1897C251.98 63.3297 253.64 63.1897 255.35 63.1897C255.23 63.4297 255.16 63.5997 255.07 63.7497C252.737 67.7497 250.403 71.7497 248.07 75.7497C247.985 75.9278 247.85 76.0769 247.681 76.1783C247.512 76.2797 247.317 76.3289 247.12 76.3197C244.27 76.3197 241.41 76.3197 238.56 76.3197C238.382 76.3376 238.202 76.3026 238.044 76.219C237.886 76.1354 237.756 76.0069 237.67 75.8497C236.01 73.3497 234.32 70.8497 232.67 68.3697L232.18 67.6597C232.01 67.9197 231.87 68.1297 231.75 68.3397C230.31 70.8297 228.86 73.3397 227.43 75.8097C227.37 75.9666 227.263 76.1008 227.123 76.194C226.983 76.2872 226.818 76.3346 226.65 76.3297C224.65 76.3297 222.7 76.3297 220.72 76.3297C220.6 76.3297 220.48 76.3297 220.26 76.3297C220.82 75.3297 221.35 74.4297 221.89 73.5097L227.57 63.7097C227.64 63.5464 227.76 63.4098 227.913 63.3198C228.066 63.2298 228.243 63.1912 228.42 63.2097C231.28 63.2097 234.13 63.2097 236.99 63.2097C237.178 63.1961 237.366 63.2357 237.532 63.3242C237.698 63.4127 237.836 63.5463 237.93 63.7097C239.63 66.2597 241.35 68.7997 243.06 71.3497L243.48 71.8997Z" fill="black"/>
<path d="M193.53 76.3897C191.02 76.3897 188.53 76.3097 186 76.3897C185.358 76.4438 184.711 76.3671 184.099 76.1643C183.487 75.9614 182.923 75.6367 182.44 75.2097C181.04 74.0097 179.51 72.9697 177.97 71.8097C177.24 73.0797 176.47 74.2897 175.81 75.5597C175.695 75.8389 175.489 76.0714 175.227 76.22C174.964 76.3687 174.659 76.4249 174.36 76.3797C172.66 76.3297 170.97 76.3797 169.27 76.3797H168.51C168.562 76.2186 168.625 76.0615 168.7 75.9097C170.49 72.8097 172.34 69.7397 174.07 66.5997C174.597 65.5216 175.433 64.6247 176.471 64.0228C177.509 63.421 178.703 63.1414 179.9 63.2197C180.9 63.2197 181.9 63.2197 182.99 63.2197L180.59 67.3297L182.33 66.6097L189.86 63.4497C190.11 63.3266 190.382 63.2552 190.66 63.2397C193.83 63.2397 197.01 63.2397 200.24 63.3697L185.24 69.7697L193.58 76.2397L193.53 76.3897Z" fill="black"/>
<path d="M249.99 76.3597L251.06 74.4697C253.14 70.8897 255.217 67.313 257.29 63.7397C257.365 63.5678 257.492 63.424 257.654 63.3288C257.816 63.2336 258.003 63.1919 258.19 63.2097C260.01 63.2097 261.83 63.2097 263.75 63.2097C263.673 63.3942 263.586 63.5745 263.49 63.7497C261.81 66.6697 260.08 69.5597 258.44 72.4897C257.839 73.6745 256.916 74.6654 255.777 75.3483C254.637 76.0312 253.328 76.3783 252 76.3497L249.99 76.3597Z" fill="black"/>
<path d="M344.742 77.1772L151.282 77.5486L151.285 78.8286L344.745 78.4572L344.742 77.1772Z" fill="#050505"/>
</svg>
