
<svg xmlns="http://www.w3.org/2000/svg" version="1.1" xmlns:xlink="http://www.w3.org/1999/xlink" preserveAspectRatio="none" x="0px" y="0px" width="1024px" height="1024px" viewBox="0 0 1024 1024">
<defs>
<g id="Layer0_0_MEMBER_0_FILL">
<path fill="#2D4253" stroke="none" d="
M 355.75 184.3
Q 353.35 183.4 342.7 178.45 336.3 175.45 334.95 176.15 331.75 177.75 323.6 191.2 321.15 195.25 315 206.2 314.15 207.8 304.5 211.75 293.4 216.05 290 217.45 284.55 219.7 276.45 222.25 267.75 225 263.55 225.6 258.95 226.25 256.1 229.95 253.05 233.9 252.85 240.25 252.7 245.9 270.05 250.9 282.4 254.4 295.05 255.85 301.8 256.6 333.75 255.7 361.8 254.9 374.5 254.05 383.2 253.5 385.15 247.5 386.15 244.4 385.85 231.25 385.65 221.95 383.1 209.25 381.05 198.95 378.8 192.15 378.55 191.45 371.25 189.3 360.75 186.15 355.75 184.3 Z"/>
</g>

<g id="Layer0_0_MEMBER_1_FILL">
<path fill="#435B71" stroke="none" d="
M 355.75 184.3
Q 351.75 182.75 344 179.05 341.75 181.8 339.3 186.1 336.55 191.15 335.2 193.6 332.75 198.05 332.7 201.5 332.65 203.55 335.2 206.05 336.6 207.4 339.2 209.95 339.45 210.25 339.2 210.6 338.9 210.95 338.55 210.75 335.85 209.25 332.25 208.6 328.25 207.9 325.5 208.85 323.55 209.5 320.9 211.2 317.95 213.25 316.55 214.1 312.25 216.8 308.9 218.35 305.85 219.8 305.05 220.1 302.6 221 300.9 220.75 299.75 220.6 298.05 219.7 296.15 218.65 295.25 218.4 293.3 217.9 290.55 218.9 287.5 220.2 286.05 220.6 284.1 221.15 282.55 220.25 269.75 224.7 263.55 225.6 258.95 226.25 256.1 229.95 253.05 233.9 252.85 240.25 252.7 245.9 270.2 250.55 281.8 253.6 295.3 255.15 302 255.9 333.9 254.75 360.55 253.8 374.6 252.9 383.35 252.35 385.2 246.9 386.15 244.2 385.85 231.25 385.65 221.95 383.1 209.25 381.05 198.95 378.8 192.15 378.55 191.45 371.25 189.3 360.75 186.15 355.75 184.3 Z"/>
</g>

<g id="Layer0_0_MEMBER_2_FILL">
<path fill="#F9F9F9" stroke="none" d="
M 284.9 229.55
Q 287.4 229.45 288.8 229 291.2 228.3 291.65 226.65 292 225.5 291.3 223.9 290.95 223.05 289.95 221.4 289.45 220.45 288.75 219.6 286.5 220.5 286.05 220.6 284.1 221.15 282.55 220.25 269.75 224.7 263.55 225.6
L 262.85 225.75
Q 263.85 227 265.3 227.65 266.7 228.25 268.85 228.5 270.1 228.65 272.5 228.8 272.55 228.8 278.7 229.35 282.4 229.65 284.9 229.55 Z"/>
</g>

<g id="Layer0_0_MEMBER_3_FILL">
<path fill="#38B4D7" stroke="none" d="
M 355.75 184.3
Q 351.75 182.75 344 179.05 341.75 181.8 339.3 186.1 336.55 191.15 335.2 193.6 332.75 198.05 332.7 201.5 332.7 205 335.95 209.4 339.75 211.9 343.1 213.25 346.5 214.6 350.95 215.35 361.6 217.1 370.95 212.55 372.55 211.8 376.35 210.1 379.7 208.55 381.35 207.1
L 382.5 206.1
Q 380.5 197.05 378.8 192.15 378.55 191.45 371.25 189.3 360.75 186.15 355.75 184.3 Z"/>
</g>

<g id="Layer0_0_MEMBER_4_FILL">
<path fill="#57D7ED" stroke="none" d="
M 372.4 212.85
Q 377.75 210.2 381.35 207.1
L 382.5 206.1 382.05 204.2 381 205
Q 377.15 207.9 371.25 210.4 359.8 215.15 349.25 213.15 342.3 211.85 334.6 207.4 334.8 207.75 333.5 207.6 332.25 207.45 332.5 207.75 338.85 211.9 341.2 213.1 347 216.05 352.25 216.4 363.5 217.2 372.4 212.85 Z"/>
</g>

<g id="Layer0_0_MEMBER_5_FILL">
<path fill="#38B4D7" stroke="none" d="
M 300.3 220.65
Q 299.4 220.4 297.8 219.55 296.15 218.65 295.25 218.4 293.1 217.8 289.75 219.2 291.55 221.7 292.4 223.9 293.6 227 291.25 228.8 289.45 230.2 285.95 230.55 283.3 230.85 279.6 230.55 275.35 230.1 273.25 229.9 270.3 229.7 268.8 229.55 266.25 229.2 264.5 228.45 262.8 227.7 261.65 226.05 257.8 227.3 255.5 230.85 253.05 234.6 252.85 240.25 252.7 245.9 270.2 250.55 281.8 253.6 295.3 255.15 300.45 255.75 323.55 255.1
L 321.65 251.95
Q 312.85 236.8 300.3 220.65 Z"/>
</g>

<g id="Layer0_0_MEMBER_6_MEMBER_0_FILL">
<path fill="#57D7ED" stroke="none" d="
M 300.3 220.65
Q 299.35 220.4 298.1 219.7 309.7 234.9 317.85 248.9
L 321.05 255.15 323.55 255.1 321.65 251.95
Q 312.85 236.8 300.3 220.65 Z"/>
</g>

<g id="Layer0_0_MEMBER_7_FILL">
<path fill="#38B4D7" stroke="none" d="
M 385.2 246.9
Q 386.15 244.2 385.85 231.25 385.7 223.8 384.05 214.35 381.65 219.65 376.05 222.75 371.75 225.1 365.25 226.85 363.35 227.35 353.95 229.4 344.95 231.5 340.1 233.85 332.75 237.45 330.25 246.55 329.45 249.45 328.3 254.95 356.45 254.05 374.6 252.9 383.35 252.35 385.2 246.9 Z"/>
</g>

<g id="Layer0_0_MEMBER_8_FILL">
<path fill="#57D7ED" stroke="none" d="
M 376.6 224.6
Q 381.9 221.65 384.45 216.6
L 384.05 214.35
Q 381.65 219.65 376.05 222.75 371.75 225.1 365.25 226.85 363.35 227.35 353.95 229.4 344.95 231.5 340.1 233.85 332.75 237.45 330.25 246.55 329.45 249.45 328.3 254.95
L 328.6 254.9
Q 329.4 251.2 329.9 249.35 332.5 239.85 339.95 236.15 344.95 233.65 354.1 231.55 364.05 229.3 365.65 228.85 372.25 227.05 376.6 224.6 Z"/>
</g>

<g id="Layer0_0_MEMBER_9_FILL">
<path fill="#E2E2E2" stroke="none" d="
M 386 237.6
Q 383.35 239.4 378.05 239.85 362.6 241 336.2 242.3 303.3 243.9 296.5 243.25 285.5 242.2 274.8 239.95 259.15 236.65 254.6 232.4 253 235.85 252.85 240.25 252.7 245.9 270.2 250.55 281.8 253.6 295.3 255.15 302 255.9 333.9 254.75 360.55 253.8 374.6 252.9 382.1 252.4 384.4 248.6 386.15 245.65 386 237.6 Z"/>
</g>

<g id="Layer0_0_MEMBER_10_FILL">
<path fill="#2D4253" stroke="none" d="
M 378.6 247.35
Q 383.3 246.85 385.55 245.55 385.95 243.4 385.9 242.4 383.35 244.2 377.95 244.8 362.55 246.25 336.2 248.05 303.4 250.25 296.65 249.75
L 296.6 249.75 297.15 252.3 297.25 252.3
Q 304.05 252.8 336.85 250.6 363.2 248.8 378.6 247.35 Z"/>
</g>

<g id="Layer0_0_MEMBER_11_FILL">
<path fill="#2D4253" stroke="none" d="
M 280.95 244.05
Q 261.05 240.45 254 234.2 253 237 252.85 240.5 252.7 246.15 270.2 250.8 281.95 253.95 295.3 255.4 298.8 255.8 308.2 255.7 307.05 252.35 305.8 250.55 304.1 248.1 301.3 247.1 291 245.9 280.95 244.05 Z"/>
</g>

<g id="Layer0_0_MEMBER_12_FILL">
<path fill="#F9F9F9" stroke="none" d="
M 332.25 234.6
Q 336.4 232.3 338.85 230 341.45 227.55 340.35 226.7 336.3 223.75 333.65 221.7 328.65 217.95 325.85 215.3
L 310.15 222.65 313.15 228.1
Q 316.6 234.2 318.95 237.15 321.6 240.5 332.25 234.6 Z"/>
</g>

<g id="Layer0_0_MEMBER_13_FILL">
<path fill="#F9F9F9" stroke="none" d="
M 353.6 187.7
Q 350.65 187 347.7 190.95 346.1 193.15 343.85 197.95 342.55 200.7 349.95 204.2 357.05 207.55 363.55 207.9 369.1 208.2 372.15 203.45 374.85 199.3 373.8 196.1 372.6 192.55 353.6 187.7 Z"/>
</g>

<g id="Layer0_0_MEMBER_14_FILL">
<path fill="#474747" stroke="none" d="
M 341.7 185.55
Q 340.75 186.3 340.2 187.6 339.7 188.95 339.95 190.1 340.2 191.25 341.05 191.55 341.85 191.9 342.8 191.2 343.75 190.45 344.25 189.15 344.75 187.8 344.5 186.65 344.3 185.5 343.45 185.15 342.65 184.85 341.7 185.55 Z"/>
</g>

<g id="Layer0_0_MEMBER_15_FILL">
<path fill="#474747" stroke="none" d="
M 337.65 194.95
Q 336.7 195.65 336.15 196.95 335.65 198.3 335.9 199.45 336.15 200.6 337 200.95 337.85 201.25 338.75 200.55 339.7 199.8 340.2 198.5 340.7 197.2 340.45 196 340.2 194.85 339.4 194.55 338.6 194.2 337.65 194.95 Z"/>
</g>

<g id="Layer0_0_MEMBER_16_FILL">
<path fill="#474747" stroke="none" d="
M 331 208.4
Q 330.1 208.7 329.45 209.55 328.75 210.45 328.65 211.35 328.55 212.25 329.1 212.7 329.65 213.1 330.5 212.8 331.4 212.5 332.1 211.65 332.8 210.8 332.9 209.85 333 208.95 332.45 208.5 331.9 208.1 331 208.4 Z"/>
</g>

<g id="Layer0_0_MEMBER_17_FILL">
<path fill="#474747" stroke="none" d="
M 322.55 212.05
Q 321.65 212.05 320.7 212.7 319.8 213.3 319.4 214.15 319.05 215 319.45 215.55 319.85 216.15 320.75 216.1 321.65 216.1 322.6 215.45 323.5 214.85 323.9 214 324.25 213.15 323.85 212.55 323.45 212 322.55 212.05 Z"/>
</g>

<g id="Layer0_0_MEMBER_18_FILL">
<path fill="#474747" stroke="none" d="
M 314.05 216.35
Q 313.15 216.25 312.15 216.7 311.15 217.2 310.65 217.95 310.15 218.7 310.4 219.35 310.7 220 311.6 220.1 312.55 220.25 313.55 219.75 314.55 219.3 315.05 218.5 315.55 217.75 315.25 217.1 314.95 216.45 314.05 216.35 Z"/>
</g>

<g id="Layer0_0_MEMBER_19_FILL">
<path fill="#474747" stroke="none" d="
M 307.25 219.7
Q 306.3 219.6 305.3 220.05 304.3 220.55 303.8 221.3 303.3 222.1 303.6 222.7 303.9 223.35 304.8 223.45 305.75 223.6 306.7 223.1 307.7 222.65 308.25 221.85 308.75 221.1 308.45 220.45 308.15 219.8 307.25 219.7 Z"/>
</g>

<g id="Layer0_0_MEMBER_20_MEMBER_0_FILL">
<path fill="#2D4253" stroke="none" d="
M 355.75 184.3
Q 353.35 183.4 342.7 178.45 336.3 175.45 334.95 176.15 334.25 176.5 333.1 177.65 335.05 178.1 341.05 180.95 348.3 184.45 351.95 185.8 357.1 187.75 367.5 190.8 374.8 192.95 375.05 193.65 375.55 195.2 377.35 197.25 378.65 198.75 381.4 201.35 379.95 195.45 378.8 192.15 378.55 191.45 371.25 189.3 360.75 186.15 355.75 184.3 Z"/>
</g>

<g id="Layer0_0_MEMBER_21_FILL">
<path fill="#F9F9F9" stroke="none" d="
M 328.3 181.05
L 327.4 183.3
Q 327.25 183.65 327.35 184 327.4 184.35 327.7 184.45
L 341.35 190.5
Q 341.6 190.6 341.95 190.45 342.25 190.25 342.4 189.9
L 343.3 187.7
Q 343.65 186.8 343 186.55
L 329.35 180.45
Q 329.1 180.35 328.75 180.55 328.45 180.7 328.3 181.05 Z"/>
</g>

<g id="Layer0_0_MEMBER_22_FILL">
<path fill="#F9F9F9" stroke="none" d="
M 339.35 196.3
L 324.45 188
Q 324.2 187.85 323.85 188 323.55 188.15 323.4 188.5
L 322.25 190.6
Q 321.85 191.45 322.45 191.8
L 337.35 200.15
Q 338.05 200.45 338.45 199.6
L 339.55 197.5
Q 339.75 197.15 339.7 196.8 339.6 196.45 339.35 196.3 Z"/>
</g>

<g id="Layer0_0_MEMBER_23_FILL">
<path fill="#F9F9F9" stroke="none" d="
M 332.1 210.05
Q 332.65 209.3 332.15 208.85
L 319.25 197.7
Q 319 197.5 318.7 197.6 318.3 197.65 318.1 197.95
L 316.55 199.8
Q 315.95 200.55 316.5 201
L 329.4 212.2
Q 329.65 212.4 330 212.3 330.35 212.2 330.55 211.9
L 332.1 210.05 Z"/>
</g>

<g id="Layer0_0_MEMBER_24_FILL">
<path fill="#F9F9F9" stroke="none" d="
M 314.8 204.2
Q 314.45 204.25 314.2 204.55
L 312.45 206.2
Q 311.8 206.8 312.25 207.35
L 319.9 215.55
Q 320.1 215.75 320.45 215.7 320.8 215.65 321.05 215.4
L 322.8 213.75
Q 323.45 213.1 323 212.55
L 315.35 204.4
Q 315.15 204.15 314.8 204.2 Z"/>
</g>

<g id="Layer0_0_MEMBER_25_FILL">
<path fill="#F9F9F9" stroke="none" d="
M 309.1 208.1
L 307 209.25
Q 306.65 209.45 306.5 209.75 306.35 210.1 306.5 210.35
L 311.1 219.2
Q 311.45 219.8 312.3 219.35
L 314.4 218.25
Q 314.75 218.05 314.9 217.75 315.05 217.4 314.9 217.15
L 310.3 208.3
Q 309.95 207.7 309.1 208.1 Z"/>
</g>

<g id="Layer0_0_MEMBER_26_FILL">
<path fill="#F9F9F9" stroke="none" d="
M 307.35 221.8
Q 308.2 221.45 307.95 220.75
L 304.15 211.55
Q 304.05 211.3 303.7 211.2 303.35 211.1 303 211.25
L 300.8 212.2
Q 300.45 212.35 300.25 212.65 300.1 213 300.2 213.25
L 304 222.5
Q 304.25 223.1 305.15 222.75
L 307.35 221.8 Z"/>
</g>

<g id="Layer0_0_MEMBER_27_FILL">
<path fill="#474747" stroke="none" d="
M 299.25 222.9
Q 298.4 222.6 297.3 222.85 296.2 223.1 295.55 223.75 294.9 224.45 295.1 225.1 295.25 225.8 296.15 226.05 297 226.35 298.05 226.1 299.15 225.9 299.8 225.2 300.45 224.55 300.3 223.85 300.1 223.15 299.25 222.9 Z"/>
</g>

<g id="Layer0_0_MEMBER_28_FILL">
<path fill="#F9F9F9" stroke="none" d="
M 295.9 213.85
L 293.6 214.6
Q 293.2 214.7 293.05 215 292.85 215.3 292.95 215.6
L 295.85 225.1
Q 296.1 225.75 297 225.5
L 299.3 224.75
Q 299.65 224.65 299.85 224.35 300.05 224.05 299.95 223.8
L 297 214.25
Q 296.85 213.55 295.9 213.85 Z"/>
</g>
</defs>

<g transform="matrix( 6.79998779296875, 0, 0, 6.79998779296875, -1660.15,-957.5) ">
<use xlink:href="#Layer0_0_MEMBER_0_FILL"/>
</g>

<g transform="matrix( 6.79998779296875, 0, 0, 6.79998779296875, -1660.15,-957.5) ">
<use xlink:href="#Layer0_0_MEMBER_1_FILL"/>
</g>

<g transform="matrix( 6.79998779296875, 0, 0, 6.79998779296875, -1660.15,-957.5) ">
<use xlink:href="#Layer0_0_MEMBER_2_FILL"/>
</g>

<g transform="matrix( 6.79998779296875, 0, 0, 6.79998779296875, -1660.15,-957.5) ">
<use xlink:href="#Layer0_0_MEMBER_3_FILL"/>
</g>

<g transform="matrix( 6.79998779296875, 0, 0, 6.79998779296875, -1660.15,-957.5) ">
<use xlink:href="#Layer0_0_MEMBER_4_FILL"/>
</g>

<g transform="matrix( 6.79998779296875, 0, 0, 6.79998779296875, -1660.15,-957.5) ">
<use xlink:href="#Layer0_0_MEMBER_5_FILL"/>
</g>

<g transform="matrix( 6.79998779296875, 0, 0, 6.79998779296875, -1660.15,-957.5) ">
<use xlink:href="#Layer0_0_MEMBER_6_MEMBER_0_FILL"/>
</g>

<g transform="matrix( 6.79998779296875, 0, 0, 6.79998779296875, -1660.15,-957.5) ">
<use xlink:href="#Layer0_0_MEMBER_7_FILL"/>
</g>

<g transform="matrix( 6.79998779296875, 0, 0, 6.79998779296875, -1660.15,-957.5) ">
<use xlink:href="#Layer0_0_MEMBER_8_FILL"/>
</g>

<g transform="matrix( 6.79998779296875, 0, 0, 6.79998779296875, -1660.15,-957.5) ">
<use xlink:href="#Layer0_0_MEMBER_9_FILL"/>
</g>

<g transform="matrix( 6.79998779296875, 0, 0, 6.79998779296875, -1660.15,-957.5) ">
<use xlink:href="#Layer0_0_MEMBER_10_FILL"/>
</g>

<g transform="matrix( 6.79998779296875, 0, 0, 6.79998779296875, -1660.15,-957.5) ">
<use xlink:href="#Layer0_0_MEMBER_11_FILL"/>
</g>

<g transform="matrix( 6.79998779296875, 0, 0, 6.79998779296875, -1660.15,-957.5) ">
<use xlink:href="#Layer0_0_MEMBER_12_FILL"/>
</g>

<g transform="matrix( 6.79998779296875, 0, 0, 6.79998779296875, -1660.15,-957.5) ">
<use xlink:href="#Layer0_0_MEMBER_13_FILL"/>
</g>

<g transform="matrix( 6.79998779296875, 0, 0, 6.79998779296875, -1660.15,-957.5) ">
<use xlink:href="#Layer0_0_MEMBER_14_FILL"/>
</g>

<g transform="matrix( 6.79998779296875, 0, 0, 6.79998779296875, -1660.15,-957.5) ">
<use xlink:href="#Layer0_0_MEMBER_15_FILL"/>
</g>

<g transform="matrix( 6.79998779296875, 0, 0, 6.79998779296875, -1660.15,-957.5) ">
<use xlink:href="#Layer0_0_MEMBER_16_FILL"/>
</g>

<g transform="matrix( 6.79998779296875, 0, 0, 6.79998779296875, -1660.15,-957.5) ">
<use xlink:href="#Layer0_0_MEMBER_17_FILL"/>
</g>

<g transform="matrix( 6.79998779296875, 0, 0, 6.79998779296875, -1660.15,-957.5) ">
<use xlink:href="#Layer0_0_MEMBER_18_FILL"/>
</g>

<g transform="matrix( 6.79998779296875, 0, 0, 6.79998779296875, -1660.15,-957.5) ">
<use xlink:href="#Layer0_0_MEMBER_19_FILL"/>
</g>

<g transform="matrix( 6.79998779296875, 0, 0, 6.79998779296875, -1660.15,-957.5) ">
<use xlink:href="#Layer0_0_MEMBER_20_MEMBER_0_FILL"/>
</g>

<g transform="matrix( 6.79998779296875, 0, 0, 6.79998779296875, -1660.15,-957.5) ">
<use xlink:href="#Layer0_0_MEMBER_21_FILL"/>
</g>

<g transform="matrix( 6.79998779296875, 0, 0, 6.79998779296875, -1660.15,-957.5) ">
<use xlink:href="#Layer0_0_MEMBER_22_FILL"/>
</g>

<g transform="matrix( 6.79998779296875, 0, 0, 6.79998779296875, -1660.15,-957.5) ">
<use xlink:href="#Layer0_0_MEMBER_23_FILL"/>
</g>

<g transform="matrix( 6.79998779296875, 0, 0, 6.79998779296875, -1660.15,-957.5) ">
<use xlink:href="#Layer0_0_MEMBER_24_FILL"/>
</g>

<g transform="matrix( 6.79998779296875, 0, 0, 6.79998779296875, -1660.15,-957.5) ">
<use xlink:href="#Layer0_0_MEMBER_25_FILL"/>
</g>

<g transform="matrix( 6.79998779296875, 0, 0, 6.79998779296875, -1660.15,-957.5) ">
<use xlink:href="#Layer0_0_MEMBER_26_FILL"/>
</g>

<g transform="matrix( 6.79998779296875, 0, 0, 6.79998779296875, -1660.15,-957.5) ">
<use xlink:href="#Layer0_0_MEMBER_27_FILL"/>
</g>

<g transform="matrix( 6.79998779296875, 0, 0, 6.79998779296875, -1660.15,-957.5) ">
<use xlink:href="#Layer0_0_MEMBER_28_FILL"/>
</g>
</svg>
