
<svg xmlns="http://www.w3.org/2000/svg" version="1.1" xmlns:xlink="http://www.w3.org/1999/xlink" preserveAspectRatio="none" x="0px" y="0px" width="1024px" height="1024px" viewBox="0 0 1024 1024">
<defs>
<g id="Layer0_0_MEMBER_0_MEMBER_0_FILL">
<path fill="#79A139" stroke="none" d="
M 473.85 180
L 473.85 172 381.9 118.9 289.95 172 289.95 180 381.9 233.05 473.85 180 Z"/>
</g>

<g id="Layer0_0_MEMBER_0_MEMBER_1_FILL">
<path fill="#719634" stroke="none" d="
M 473.85 180
L 473.85 172 381.9 225.05 381.9 233.05 473.85 180 Z"/>
</g>

<g id="Layer0_0_MEMBER_0_MEMBER_2_FILL">
<path fill="#9CC459" stroke="none" d="
M 473.85 172
L 381.9 118.9 289.95 172 381.9 225.05 473.85 172 Z"/>
</g>

<g id="Layer0_0_MEMBER_0_MEMBER_3_FILL">
<path fill="#B7E76A" stroke="none" d="
M 462 172
L 381.9 125.75 301.8 172 381.9 218.25 462 172 Z"/>
</g>

<g id="Layer0_0_MEMBER_0_MEMBER_4_FILL">
<path fill="#9CC459" stroke="none" d="
M 394 161.35
L 383.75 145.6 314 185.85 332.75 196.7 394 161.35 Z"/>
</g>

<g id="Layer0_0_MEMBER_1_FILL">
<path fill="#000000" fill-opacity="0.14901960784313725" stroke="none" d="
M 51.5 0
L 0 28.9 36.75 50.1 87.5 20.8 51.5 0 Z"/>
</g>

<g id="Layer0_0_MEMBER_2_FILL">
<path fill="#000000" fill-opacity="0.14901960784313725" stroke="none" d="
M 30.95 0
L 0 17.2 11.5 23.85 41.9 6.3 30.95 0 Z"/>
</g>

<g id="Layer0_0_MEMBER_3_MEMBER_0_MEMBER_0_FILL">
<path fill="#F7C687" stroke="none" d="
M 415.05 132.45
L 415.05 134.3 462 161.4 462 159.55 415.05 132.45 Z"/>
</g>

<g id="Layer0_0_MEMBER_3_MEMBER_0_MEMBER_1_FILL">
<path fill="#FFE0B6" stroke="none" d="
M 415.45 132.45
L 415.05 132.45 462 159.55 462.4 159.55 415.45 132.45 Z"/>
</g>

<g id="Layer0_0_MEMBER_3_MEMBER_0_MEMBER_2_FILL">
<path fill="#C4965D" stroke="none" d="
M 462 159.55
L 462 161.4 462.4 161.4 462.4 159.55 462 159.55 Z"/>
</g>

<g id="Layer0_0_MEMBER_3_MEMBER_1_MEMBER_0_FILL">
<path fill="#C4965D" stroke="none" d="
M 418.45 130.85
L 418.45 147.75 419.25 147.3 419.25 130.4 418.45 130.85 Z"/>
</g>

<g id="Layer0_0_MEMBER_3_MEMBER_1_MEMBER_1_FILL">
<path fill="#F7C687" stroke="none" d="
M 419.25 130.4
L 417.95 128.1 417.15 128.55 418.45 130.85 419.25 130.4 Z"/>
</g>

<g id="Layer0_0_MEMBER_3_MEMBER_1_MEMBER_2_FILL">
<path fill="#FFE0B6" stroke="none" d="
M 418.45 130.85
L 417.15 128.55 416.2 129.6 416.2 146.5 418.45 147.75 418.45 130.85 Z"/>
</g>

<g id="Layer0_0_MEMBER_3_MEMBER_2_MEMBER_0_FILL">
<path fill="#C4965D" stroke="none" d="
M 423.15 132.65
L 422.3 133.1 422.3 150 423.15 149.55 423.15 132.65 Z"/>
</g>

<g id="Layer0_0_MEMBER_3_MEMBER_2_MEMBER_1_FILL">
<path fill="#F7C687" stroke="none" d="
M 423.15 132.65
L 421.85 130.35 421.05 130.8 422.3 133.1 423.15 132.65 Z"/>
</g>

<g id="Layer0_0_MEMBER_3_MEMBER_2_MEMBER_2_FILL">
<path fill="#FFE0B6" stroke="none" d="
M 422.3 133.1
L 421.05 130.8 420.1 131.85 420.1 148.75 422.3 150 422.3 133.1 Z"/>
</g>

<g id="Layer0_0_MEMBER_3_MEMBER_3_MEMBER_0_FILL">
<path fill="#C4965D" stroke="none" d="
M 427 134.9
L 426.2 135.35 426.2 152.25 427 151.8 427 134.9 Z"/>
</g>

<g id="Layer0_0_MEMBER_3_MEMBER_3_MEMBER_1_FILL">
<path fill="#F7C687" stroke="none" d="
M 427 134.9
L 425.75 132.6 424.95 133.05 426.2 135.35 427 134.9 Z"/>
</g>

<g id="Layer0_0_MEMBER_3_MEMBER_3_MEMBER_2_FILL">
<path fill="#FFE0B6" stroke="none" d="
M 426.2 135.35
L 424.95 133.05 424 134.1 424 151 426.2 152.25 426.2 135.35 Z"/>
</g>

<g id="Layer0_0_MEMBER_3_MEMBER_4_MEMBER_0_FILL">
<path fill="#C4965D" stroke="none" d="
M 430.9 137.15
L 430.1 137.6 430.1 154.5 430.9 154.05 430.9 137.15 Z"/>
</g>

<g id="Layer0_0_MEMBER_3_MEMBER_4_MEMBER_1_FILL">
<path fill="#F7C687" stroke="none" d="
M 430.9 137.15
L 429.65 134.85 428.8 135.3 430.1 137.6 430.9 137.15 Z"/>
</g>

<g id="Layer0_0_MEMBER_3_MEMBER_4_MEMBER_2_FILL">
<path fill="#FFE0B6" stroke="none" d="
M 430.1 137.6
L 428.8 135.3 427.9 136.35 427.9 153.25 430.1 154.5 430.1 137.6 Z"/>
</g>

<g id="Layer0_0_MEMBER_3_MEMBER_5_MEMBER_0_FILL">
<path fill="#C4965D" stroke="none" d="
M 434.8 139.4
L 434 139.85 434 156.75 434.8 156.3 434.8 139.4 Z"/>
</g>

<g id="Layer0_0_MEMBER_3_MEMBER_5_MEMBER_1_FILL">
<path fill="#F7C687" stroke="none" d="
M 434.8 139.4
L 433.5 137.05 432.7 137.55 434 139.85 434.8 139.4 Z"/>
</g>

<g id="Layer0_0_MEMBER_3_MEMBER_5_MEMBER_2_FILL">
<path fill="#FFE0B6" stroke="none" d="
M 434 139.85
L 432.7 137.55 431.75 138.6 431.75 155.45 434 156.75 434 139.85 Z"/>
</g>

<g id="Layer0_0_MEMBER_3_MEMBER_6_MEMBER_0_FILL">
<path fill="#C4965D" stroke="none" d="
M 438.65 141.65
L 437.85 142.1 437.85 159 438.65 158.5 438.65 141.65 Z"/>
</g>

<g id="Layer0_0_MEMBER_3_MEMBER_6_MEMBER_1_FILL">
<path fill="#F7C687" stroke="none" d="
M 438.65 141.65
L 437.4 139.3 436.6 139.8 437.85 142.1 438.65 141.65 Z"/>
</g>

<g id="Layer0_0_MEMBER_3_MEMBER_6_MEMBER_2_FILL">
<path fill="#FFE0B6" stroke="none" d="
M 437.85 142.1
L 436.6 139.8 435.65 140.8 435.65 157.7 437.85 159 437.85 142.1 Z"/>
</g>

<g id="Layer0_0_MEMBER_3_MEMBER_7_MEMBER_0_FILL">
<path fill="#C4965D" stroke="none" d="
M 442.55 143.9
L 441.75 144.35 441.75 161.25 442.55 160.75 442.55 143.9 Z"/>
</g>

<g id="Layer0_0_MEMBER_3_MEMBER_7_MEMBER_1_FILL">
<path fill="#F7C687" stroke="none" d="
M 442.55 143.9
L 441.3 141.55 440.5 142.05 441.75 144.35 442.55 143.9 Z"/>
</g>

<g id="Layer0_0_MEMBER_3_MEMBER_7_MEMBER_2_FILL">
<path fill="#FFE0B6" stroke="none" d="
M 441.75 144.35
L 440.5 142.05 439.55 143.05 439.55 159.95 441.75 161.25 441.75 144.35 Z"/>
</g>

<g id="Layer0_0_MEMBER_3_MEMBER_8_MEMBER_0_FILL">
<path fill="#C4965D" stroke="none" d="
M 446.45 146.1
L 445.65 146.6 445.65 163.5 446.45 163 446.45 146.1 Z"/>
</g>

<g id="Layer0_0_MEMBER_3_MEMBER_8_MEMBER_1_FILL">
<path fill="#F7C687" stroke="none" d="
M 445.65 146.6
L 446.45 146.1 445.2 143.8 444.35 144.3 445.65 146.6 Z"/>
</g>

<g id="Layer0_0_MEMBER_3_MEMBER_8_MEMBER_2_FILL">
<path fill="#FFE0B6" stroke="none" d="
M 444.35 144.3
L 443.4 145.3 443.4 162.2 445.65 163.5 445.65 146.6 444.35 144.3 Z"/>
</g>

<g id="Layer0_0_MEMBER_3_MEMBER_9_MEMBER_0_FILL">
<path fill="#C4965D" stroke="none" d="
M 449.5 148.85
L 449.5 165.75 450.35 165.25 450.35 148.35 449.5 148.85 Z"/>
</g>

<g id="Layer0_0_MEMBER_3_MEMBER_9_MEMBER_1_FILL">
<path fill="#F7C687" stroke="none" d="
M 450.35 148.35
L 449.05 146.05 448.25 146.5 449.5 148.85 450.35 148.35 Z"/>
</g>

<g id="Layer0_0_MEMBER_3_MEMBER_9_MEMBER_2_FILL">
<path fill="#FFE0B6" stroke="none" d="
M 448.25 146.5
L 447.3 147.55 447.3 164.45 449.5 165.75 449.5 148.85 448.25 146.5 Z"/>
</g>

<g id="Layer0_0_MEMBER_3_MEMBER_10_MEMBER_0_FILL">
<path fill="#C4965D" stroke="none" d="
M 453.4 151.1
L 453.4 167.95 454.2 167.5 454.2 150.6 453.4 151.1 Z"/>
</g>

<g id="Layer0_0_MEMBER_3_MEMBER_10_MEMBER_1_FILL">
<path fill="#F7C687" stroke="none" d="
M 453.4 151.1
L 454.2 150.6 452.95 148.3 452.15 148.75 453.4 151.1 Z"/>
</g>

<g id="Layer0_0_MEMBER_3_MEMBER_10_MEMBER_2_FILL">
<path fill="#FFE0B6" stroke="none" d="
M 453.4 151.1
L 452.15 148.75 451.2 149.8 451.2 166.7 453.4 167.95 453.4 151.1 Z"/>
</g>

<g id="Layer0_0_MEMBER_3_MEMBER_11_MEMBER_0_FILL">
<path fill="#C4965D" stroke="none" d="
M 457.3 153.35
L 457.3 170.2 458.1 169.75 458.1 152.85 457.3 153.35 Z"/>
</g>

<g id="Layer0_0_MEMBER_3_MEMBER_11_MEMBER_1_FILL">
<path fill="#F7C687" stroke="none" d="
M 458.1 152.85
L 456.85 150.55 456.05 151 457.3 153.35 458.1 152.85 Z"/>
</g>

<g id="Layer0_0_MEMBER_3_MEMBER_11_MEMBER_2_FILL">
<path fill="#FFE0B6" stroke="none" d="
M 457.3 153.35
L 456.05 151 455.1 152.05 455.1 168.95 457.3 170.2 457.3 153.35 Z"/>
</g>

<g id="Layer0_0_MEMBER_3_MEMBER_12_MEMBER_0_FILL">
<path fill="#C4965D" stroke="none" d="
M 461.2 155.55
L 461.2 172.45 462 172 462 155.1 461.2 155.55 Z"/>
</g>

<g id="Layer0_0_MEMBER_3_MEMBER_12_MEMBER_1_FILL">
<path fill="#F7C687" stroke="none" d="
M 462 155.1
L 460.7 152.8 459.9 153.25 461.2 155.55 462 155.1 Z"/>
</g>

<g id="Layer0_0_MEMBER_3_MEMBER_12_MEMBER_2_FILL">
<path fill="#FFE0B6" stroke="none" d="
M 461.2 155.55
L 459.9 153.25 458.95 154.3 458.95 171.2 461.2 172.45 461.2 155.55 Z"/>
</g>

<g id="Layer0_0_MEMBER_4_MEMBER_0_MEMBER_0_FILL">
<path fill="#F18B6C" stroke="none" d="
M 362.25 194.05
L 362.25 156.05 341.6 123.45 321 132.25 321 170.2 362.25 194.05 Z"/>
</g>

<g id="Layer0_0_MEMBER_4_MEMBER_0_MEMBER_1_FILL">
<path fill="#C96D4F" stroke="none" d="
M 362.25 194.05
L 362.25 176.65 321 152.8 321 170.2 362.25 194.05 Z"/>
</g>

<g id="Layer0_0_MEMBER_4_MEMBER_0_MEMBER_2_FILL">
<path fill="#F7C687" stroke="none" d="
M 329.65 148.95
L 329.65 175.2 351.2 187.65 351.2 161.4 329.65 148.95 Z"/>
</g>

<g id="Layer0_0_MEMBER_4_MEMBER_0_MEMBER_3_FILL">
<path fill="#FFE0B6" stroke="none" d="
M 331.05 151.45
L 331.05 176 349.8 186.85 349.8 162.3 331.05 151.45 Z"/>
</g>

<g id="Layer0_0_MEMBER_4_MEMBER_0_MEMBER_4_FILL">
<path fill="#C96D4F" stroke="none" d="
M 362.25 156.05
L 362.25 194.05 413.75 165.1 413.75 127.1 362.25 156.05 Z"/>
</g>

<g id="Layer0_0_MEMBER_4_MEMBER_0_MEMBER_5_FILL">
<path fill="#AE5D43" stroke="none" d="
M 362.25 176.65
L 362.25 194.05 413.75 165.1 413.75 147.7 362.25 176.65 Z"/>
</g>

<g id="Layer0_0_MEMBER_4_MEMBER_0_MEMBER_6_FILL">
<path fill="#F7C687" stroke="none" d="
M 393.6 93.55
Q 393.1 92.95 392.7 93.05
L 371.35 101.9
Q 371.1 101.9 370.95 102.1
L 319.85 130.8 341.6 123.45 363.8 157.7 414.9 129
Q 415.15 129 415.3 128.75 415.75 128.05 414.9 127
L 393.6 93.55 Z"/>
</g>

<g id="Layer0_0_MEMBER_4_MEMBER_0_MEMBER_7_FILL">
<path fill="#EDB976" stroke="none" d="
M 339 124.3
L 341.6 123.45 363.8 157.7 414.9 129
Q 415.15 129 415.3 128.75 415.75 128.05 414.9 127
L 393.7 93.7 339 124.3 Z"/>
</g>

<g id="Layer0_0_MEMBER_4_MEMBER_0_MEMBER_8_MEMBER_0_FILL">
<path fill="#C4965D" stroke="none" d="
M 342.05 122.5
Q 341.65 121.95 341.15 121.95
L 319.85 130.8
Q 319.5 130.8 319.35 131.2 319.25 131.55 319.45 132.1 319.65 132.6 320.05 133 320.4 133.35 320.75 133.35
L 341.6 124.5 362.45 157.4
Q 362.65 157.65 362.95 157.8 363.5 158.15 363.8 157.7 364 157.4 363.85 156.9 363.75 156.35 363.4 155.95
L 342.05 122.5 Z"/>
</g>

<g id="Layer0_0_MEMBER_4_MEMBER_1_MEMBER_0_FILL">
<path fill="#F18B6C" stroke="none" d="
M 376.6 150.05
L 376.6 186.35 401.45 200.7 401.45 164.35 389.05 144.75 376.6 150.05 Z"/>
</g>

<g id="Layer0_0_MEMBER_4_MEMBER_1_MEMBER_1_FILL">
<path fill="#C96D4F" stroke="none" d="
M 432.4 183.3
L 432.4 146.95 401.45 164.35 401.45 200.7 432.4 183.3 Z"/>
</g>

<g id="Layer0_0_MEMBER_4_MEMBER_1_MEMBER_2_FILL">
<path fill="#C96D4F" stroke="none" d="
M 376.6 168.45
L 376.6 186.35 401.45 200.7 401.45 182.75 376.6 168.45 Z"/>
</g>

<g id="Layer0_0_MEMBER_4_MEMBER_1_MEMBER_3_FILL">
<path fill="#AE5D43" stroke="none" d="
M 432.4 183.3
L 432.4 165.4 401.45 182.75 401.45 200.7 432.4 183.3 Z"/>
</g>

<g id="Layer0_0_MEMBER_4_MEMBER_1_MEMBER_4_FILL">
<path fill="#EDB976" stroke="none" d="
M 389.05 144.75
L 402.35 165.35 433.1 148.1
Q 433.3 148.1 433.35 147.95 433.6 147.5 433.1 146.9
L 420.3 126.8
Q 420 126.45 419.75 126.45
L 406.65 131.9 375.95 149.2 389.05 144.75 Z"/>
</g>

<g id="Layer0_0_MEMBER_4_MEMBER_1_MEMBER_5_FILL">
<path fill="#D6A362" stroke="none" d="
M 387.45 145.3
L 389.05 144.75 402.35 165.35 433.1 148.1
Q 433.3 148.1 433.35 147.95 433.6 147.5 433.1 146.9
L 420.35 126.9 387.45 145.3 Z"/>
</g>

<g id="Layer0_0_MEMBER_4_MEMBER_1_MEMBER_6_MEMBER_0_FILL">
<path fill="#C4965D" stroke="none" d="
M 389.3 144.15
Q 389.1 143.85 388.75 143.85
L 375.95 149.2
Q 375.45 149.4 375.65 150.05 375.95 150.8 376.5 150.7
L 389.05 145.4 401.55 165.15 401.8 165.45
Q 402.15 165.65 402.35 165.35 402.55 165 402.1 164.3
L 389.3 144.15 Z"/>
</g>

<g id="Layer0_0_MEMBER_4_MEMBER_2_MEMBER_0_FILL">
<path fill="#F7C687" stroke="none" d="
M 335.25 135.8
Q 335.2 136.35 335.25 137.6 335.25 140.55 337 143.6 338.8 146.7 341.3 148.1 341.85 148.45 342.7 149.05 343.4 149.5 343.9 149.3 347.35 148.15 347.35 144.6 347.35 141.7 345.6 138.65 343.8 135.55 341.3 134.1 339.55 133.1 338.25 133.15 336.9 133.25 335.7 134.45 335.3 134.85 335.25 135.8 Z"/>
</g>

<g id="Layer0_0_MEMBER_4_MEMBER_2_MEMBER_1_FILL">
<path fill="#FFE0B6" stroke="none" d="
M 336.1 134.15
Q 334.35 135.15 334.35 138.05 334.35 140.95 336.1 144.05 337.9 147.15 340.4 148.55 342.9 150 344.7 149 346.5 147.95 346.5 145.05 346.5 142.15 344.7 139.1 342.9 136 340.4 134.55 337.9 133.1 336.1 134.15 Z"/>
</g>

<g id="Layer0_0_MEMBER_4_MEMBER_2_MEMBER_2_FILL">
<path fill="#68B5DC" stroke="none" d="
M 337.3 136.15
Q 336 136.9 336 139 336 141.1 337.3 143.35 338.6 145.6 340.4 146.65 342.25 147.75 343.55 147 344.85 146.25 344.85 144.1 344.85 142 343.55 139.75 342.25 137.5 340.4 136.45 338.6 135.4 337.3 136.15 Z"/>
</g>

<g id="Layer0_0_MEMBER_4_MEMBER_3_FILL">
<path fill="#EDB976" stroke="none" d="
M 411.8 168.75
L 411.8 194.85 423.45 188.3 423.45 162.05 411.8 168.75 Z"/>
</g>

<g id="Layer0_0_MEMBER_4_MEMBER_4_MEMBER_0_FILL">
<path fill="#EDB976" stroke="none" d="
M 423.45 175.5
L 423.45 162.05 411.8 168.75 411.8 182.2 423.45 175.5 Z"/>
</g>

<g id="Layer0_0_MEMBER_4_MEMBER_4_MEMBER_1_FILL">
<path fill="#68B5DC" stroke="none" d="
M 422.3 174.85
L 422.3 164 412.95 169.45 412.95 180.25 422.3 174.85 Z"/>
</g>

<g id="Layer0_0_MEMBER_4_MEMBER_4_MEMBER_2_FILL">
<path fill="#EDB976" stroke="none" d="
M 418.25 178.5
L 418.25 165.05 417 165.75 417 179.2 418.25 178.5 Z"/>
</g>

<g id="Layer0_0_MEMBER_4_MEMBER_4_MEMBER_3_FILL">
<path fill="#EDB976" stroke="none" d="
M 411.8 176.2
L 423.45 169.45 423.45 168.05 411.8 174.8 411.8 176.2 Z"/>
</g>

<g id="Layer0_0_MEMBER_4_MEMBER_5_MEMBER_0_MEMBER_0_FILL">
<path fill="#F18B6C" stroke="none" d="
M 385.85 114.35
L 392.25 124.45 392.25 111.95 385.85 108.25 385.85 114.35 Z"/>
</g>

<g id="Layer0_0_MEMBER_4_MEMBER_5_MEMBER_0_MEMBER_1_FILL">
<path fill="#C96D4F" stroke="none" d="
M 398.65 120.7
L 398.65 108.25 392.25 111.95 392.25 124.45 398.65 120.7 Z"/>
</g>

<g id="Layer0_0_MEMBER_4_MEMBER_5_MEMBER_1_MEMBER_0_FILL">
<path fill="#F18B6C" stroke="none" d="
M 392.25 109.6
L 400.25 105 392.25 100.35 384.25 105 392.25 109.6 Z"/>
</g>

<g id="Layer0_0_MEMBER_4_MEMBER_5_MEMBER_1_MEMBER_1_FILL">
<path fill="#A55840" stroke="none" d="
M 392.25 107.9
L 397.3 105 392.25 102.05 387.2 105 392.25 107.9 Z"/>
</g>

<g id="Layer0_0_MEMBER_4_MEMBER_5_MEMBER_1_MEMBER_2_FILL">
<path fill="#C96D4F" stroke="none" d="
M 392.25 102.05
L 392.25 107.9 397.3 105 392.25 102.05 Z"/>
</g>

<g id="Layer0_0_MEMBER_4_MEMBER_5_MEMBER_1_MEMBER_3_FILL">
<path fill="#C96D4F" stroke="none" d="
M 392.25 113.65
L 392.25 109.6 384.25 105 384.25 109 392.25 113.65 Z"/>
</g>

<g id="Layer0_0_MEMBER_4_MEMBER_5_MEMBER_1_MEMBER_4_FILL">
<path fill="#A55840" stroke="none" d="
M 400.25 109
L 400.25 105 392.25 109.6 392.25 113.65 400.25 109 Z"/>
</g>

<g id="Layer0_0_MEMBER_4_MEMBER_6_MEMBER_0_FILL">
<path fill="#FFE0B6" stroke="none" d="
M 381.45 161.35
L 381.45 175.35 393.6 182.35 393.6 168.35 381.45 161.35 Z"/>
</g>

<g id="Layer0_0_MEMBER_4_MEMBER_6_MEMBER_1_FILL">
<path fill="#F7C687" stroke="none" d="
M 382.95 160.45
L 381.45 161.35 393.6 168.35 395.1 167.5 382.95 160.45 Z"/>
</g>

<g id="Layer0_0_MEMBER_4_MEMBER_6_MEMBER_2_FILL">
<path fill="#C4965D" stroke="none" d="
M 395.1 181.5
L 395.1 167.5 393.6 168.35 393.6 182.35 395.1 181.5 Z"/>
</g>

<g id="Layer0_0_MEMBER_4_MEMBER_6_MEMBER_3_FILL">
<path fill="#68B5DC" stroke="none" d="
M 382.6 163.4
L 382.6 174.65 392.4 180.3 392.4 169.05 382.6 163.4 Z"/>
</g>

<g id="Layer0_0_MEMBER_4_MEMBER_6_MEMBER_4_FILL">
<path fill="#FFE0B6" stroke="none" d="
M 383.5 162.55
L 383.5 176.55 384.8 177.3 384.8 163.25 383.5 162.55 Z"/>
</g>

<g id="Layer0_0_MEMBER_4_MEMBER_6_MEMBER_5_FILL">
<path fill="#FFE0B6" stroke="none" d="
M 385.7 163.8
L 385.7 177.8 387 178.55 387 164.55 385.7 163.8 Z"/>
</g>

<g id="Layer0_0_MEMBER_4_MEMBER_6_MEMBER_6_FILL">
<path fill="#FFE0B6" stroke="none" d="
M 387.9 165.1
L 387.9 179.1 389.2 179.8 389.2 165.8 387.9 165.1 Z"/>
</g>

<g id="Layer0_0_MEMBER_4_MEMBER_6_MEMBER_7_FILL">
<path fill="#FFE0B6" stroke="none" d="
M 390.1 166.35
L 390.1 180.35 391.4 181.1 391.4 167.1 390.1 166.35 Z"/>
</g>

<g id="Layer0_0_MEMBER_5_MEMBER_0_FILL">
<path fill="#000000" fill-opacity="0.14901960784313725" stroke="none" d="
M 6.5 7.55
Q 9.2 7.55 11.1 6.45 13 5.35 13 3.8 13 2.25 11.1 1.1 9.2 0 6.5 0 3.8 0 1.9 1.1 0 2.25 0 3.8 0 5.35 1.9 6.45 3.8 7.55 6.5 7.55 Z"/>
</g>

<g id="Layer0_0_MEMBER_5_MEMBER_1_FILL">
<path fill="#A57668" stroke="none" d="
M 383.7 192.7
Q 383.7 192 383.2 191.45 382.65 190.95 381.9 190.95 381.2 190.95 380.65 191.45 380.15 192 380.15 192.7
L 380.15 204.85
Q 380.15 205.55 380.65 206.1 381.2 206.6 381.9 206.6 382.65 206.6 383.2 206.1 383.7 205.55 383.7 204.85
L 383.7 192.7 Z"/>
</g>

<g id="Layer0_0_MEMBER_5_MEMBER_2_FILL">
<path fill="#000000" fill-opacity="0.14901960784313725" stroke="none" d="
M 3.05 2.65
Q 3.55 2.1 3.55 1.4
L 3.55 0.05
Q 3.534375 0.7171875 3.05 1.25 2.5 1.75 1.75 1.75 1.05 1.75 0.5 1.25 0.015625 0.7171875 0 0.05
L 0 1.4
Q 0 2.1 0.5 2.65 1.05 3.15 1.75 3.15 2.5 3.15 3.05 2.65 Z"/>
</g>

<g id="Layer0_0_MEMBER_5_MEMBER_3_FILL">
<path fill="#000000" fill-opacity="0.14901960784313725" stroke="none" d="
M 1.75 0
Q 1.05 0 0.5 0.5 0 1.05 0 1.75
L 0 6.8
Q 0.75 7 1.75 7 2.75 7 3.55 6.8
L 3.55 1.75
Q 3.55 1.05 3.05 0.5 2.5 0 1.75 0 Z"/>
</g>

<g id="Layer0_0_MEMBER_5_MEMBER_4_FILL">
<path fill="#6C9C38" stroke="none" d="
M 390.55 187.2
Q 390.55 182.8 388 176.8 385.1 170 381.9 170 378.7 170 375.8 176.8 373.3 182.8 373.3 187.2 373.3 190.75 375.8 193.3 378.35 195.8 381.9 195.8 385.45 195.8 388 193.3 390.55 190.75 390.55 187.2 Z"/>
</g>

<g id="Layer0_0_MEMBER_5_MEMBER_5_FILL">
<path fill="#80B844" stroke="none" d="
M 380.05 179.85
Q 380.55 177.95 380.5 176.45 380.4 175 379.75 174.85 379.1 174.65 378.35 175.9 377.55 177.15 377.05 179.05 376.55 180.95 376.6 182.45 376.7 183.9 377.35 184.05 378 184.2 378.8 183 379.55 181.75 380.05 179.85 Z"/>
</g>

<g id="Layer0_0_MEMBER_6_MEMBER_0_FILL">
<path fill="#000000" fill-opacity="0.14901960784313725" stroke="none" d="
M 6.65 7.7
Q 9.4 7.7 11.35 6.55 13.3 5.45 13.3 3.85 13.3 2.3 11.35 1.15 9.4 0.05 6.65 0.05 3.9 0.05 1.95 1.15 0 2.3 0 3.85 0 5.45 1.95 6.55 3.9 7.7 6.65 7.7 Z"/>
</g>

<g id="Layer0_0_MEMBER_6_MEMBER_1_FILL">
<path fill="#6C9C38" stroke="none" d="
M 322.25 164.7
Q 322.25 161.05 319.65 158.5 317.1 155.9 313.45 155.9 309.8 155.9 307.25 158.5 304.65 161.05 304.65 164.7 304.65 168.35 307.25 170.9 309.8 173.5 313.45 173.5 317.1 173.5 319.65 170.9 322.25 168.35 322.25 164.7 Z"/>
</g>

<g id="Layer0_0_MEMBER_6_MEMBER_2_FILL">
<path fill="#80B844" stroke="none" d="
M 314.5 162.25
Q 314.5 160.85 313.5 159.8 312.5 158.8 311.05 158.8 309.6 158.8 308.55 159.8 307.55 160.8 307.55 162.25 307.55 163.7 308.55 164.75 309.6 165.75 311.05 165.75 312.5 165.75 313.5 164.75 314.5 163.7 314.5 162.25 Z"/>
</g>

<g id="Layer0_0_MEMBER_7_MEMBER_0_FILL">
<path fill="#000000" fill-opacity="0.14901960784313725" stroke="none" d="
M 6.65 7.7
Q 9.4 7.7 11.35 6.55 13.3 5.45 13.3 3.85 13.3 2.3 11.35 1.15 9.4 0.05 6.65 0.05 3.9 0.05 1.95 1.15 0 2.3 0 3.85 0 5.45 1.95 6.55 3.9 7.7 6.65 7.7 Z"/>
</g>

<g id="Layer0_0_MEMBER_7_MEMBER_1_FILL">
<path fill="#6C9C38" stroke="none" d="
M 441.1 158.5
Q 438.5 161.05 438.5 164.7 438.5 168.35 441.1 170.9 443.65 173.5 447.3 173.5 450.95 173.5 453.5 170.9 456.1 168.35 456.1 164.7 456.1 161.05 453.5 158.5 450.95 155.9 447.3 155.9 443.65 155.9 441.1 158.5 Z"/>
</g>

<g id="Layer0_0_MEMBER_7_MEMBER_2_FILL">
<path fill="#80B844" stroke="none" d="
M 444.9 158.8
Q 443.45 158.8 442.4 159.8 441.4 160.8 441.4 162.25 441.4 163.7 442.4 164.75 443.45 165.75 444.9 165.75 446.35 165.75 447.35 164.75 448.35 163.7 448.35 162.25 448.35 160.85 447.35 159.8 446.35 158.8 444.9 158.8 Z"/>
</g>

<g id="Layer0_0_MEMBER_8_FILL">
<path fill="#000000" fill-opacity="0.14901960784313725" stroke="none" d="
M 50.75 8
L 50.75 0 0 29.3 0 37.3 50.75 8 Z"/>
</g>

<g id="Layer0_0_MEMBER_9_FILL">
<path fill="#000000" fill-opacity="0.14901960784313725" stroke="none" d="
M 30.4 8
L 30.4 0 0 17.55 0 25.55 30.4 8 Z"/>
</g>
</defs>

<g transform="matrix( 5, 0, 0, 5, -1397.5,-303.2) ">
<use xlink:href="#Layer0_0_MEMBER_0_MEMBER_0_FILL"/>
</g>

<g transform="matrix( 5, 0, 0, 5, -1397.5,-303.2) ">
<use xlink:href="#Layer0_0_MEMBER_0_MEMBER_1_FILL"/>
</g>

<g transform="matrix( 5, 0, 0, 5, -1397.5,-303.2) ">
<use xlink:href="#Layer0_0_MEMBER_0_MEMBER_2_FILL"/>
</g>

<g transform="matrix( 5, 0, 0, 5, -1397.5,-303.2) ">
<use xlink:href="#Layer0_0_MEMBER_0_MEMBER_3_FILL"/>
</g>

<g transform="matrix( 5, 0, 0, 5, -1397.5,-303.2) ">
<use xlink:href="#Layer0_0_MEMBER_0_MEMBER_4_FILL"/>
</g>

<g transform="matrix( 5, 0, 0, 5, 413.75,522.3) ">
<use xlink:href="#Layer0_0_MEMBER_1_FILL"/>
</g>

<g transform="matrix( 5, 0, 0, 5, 609.75,613.3) ">
<use xlink:href="#Layer0_0_MEMBER_2_FILL"/>
</g>

<g transform="matrix( 5, 0, 0, 5, -1397.5,-303.2) ">
<use xlink:href="#Layer0_0_MEMBER_3_MEMBER_0_MEMBER_0_FILL"/>
</g>

<g transform="matrix( 5, 0, 0, 5, -1397.5,-303.2) ">
<use xlink:href="#Layer0_0_MEMBER_3_MEMBER_0_MEMBER_1_FILL"/>
</g>

<g transform="matrix( 5, 0, 0, 5, -1397.5,-303.2) ">
<use xlink:href="#Layer0_0_MEMBER_3_MEMBER_0_MEMBER_2_FILL"/>
</g>

<g transform="matrix( 5, 0, 0, 5, -1397.5,-303.2) ">
<use xlink:href="#Layer0_0_MEMBER_3_MEMBER_1_MEMBER_0_FILL"/>
</g>

<g transform="matrix( 5, 0, 0, 5, -1397.5,-303.2) ">
<use xlink:href="#Layer0_0_MEMBER_3_MEMBER_1_MEMBER_1_FILL"/>
</g>

<g transform="matrix( 5, 0, 0, 5, -1397.5,-303.2) ">
<use xlink:href="#Layer0_0_MEMBER_3_MEMBER_1_MEMBER_2_FILL"/>
</g>

<g transform="matrix( 5, 0, 0, 5, -1397.5,-303.2) ">
<use xlink:href="#Layer0_0_MEMBER_3_MEMBER_2_MEMBER_0_FILL"/>
</g>

<g transform="matrix( 5, 0, 0, 5, -1397.5,-303.2) ">
<use xlink:href="#Layer0_0_MEMBER_3_MEMBER_2_MEMBER_1_FILL"/>
</g>

<g transform="matrix( 5, 0, 0, 5, -1397.5,-303.2) ">
<use xlink:href="#Layer0_0_MEMBER_3_MEMBER_2_MEMBER_2_FILL"/>
</g>

<g transform="matrix( 5, 0, 0, 5, -1397.5,-303.2) ">
<use xlink:href="#Layer0_0_MEMBER_3_MEMBER_3_MEMBER_0_FILL"/>
</g>

<g transform="matrix( 5, 0, 0, 5, -1397.5,-303.2) ">
<use xlink:href="#Layer0_0_MEMBER_3_MEMBER_3_MEMBER_1_FILL"/>
</g>

<g transform="matrix( 5, 0, 0, 5, -1397.5,-303.2) ">
<use xlink:href="#Layer0_0_MEMBER_3_MEMBER_3_MEMBER_2_FILL"/>
</g>

<g transform="matrix( 5, 0, 0, 5, -1397.5,-303.2) ">
<use xlink:href="#Layer0_0_MEMBER_3_MEMBER_4_MEMBER_0_FILL"/>
</g>

<g transform="matrix( 5, 0, 0, 5, -1397.5,-303.2) ">
<use xlink:href="#Layer0_0_MEMBER_3_MEMBER_4_MEMBER_1_FILL"/>
</g>

<g transform="matrix( 5, 0, 0, 5, -1397.5,-303.2) ">
<use xlink:href="#Layer0_0_MEMBER_3_MEMBER_4_MEMBER_2_FILL"/>
</g>

<g transform="matrix( 5, 0, 0, 5, -1397.5,-303.2) ">
<use xlink:href="#Layer0_0_MEMBER_3_MEMBER_5_MEMBER_0_FILL"/>
</g>

<g transform="matrix( 5, 0, 0, 5, -1397.5,-303.2) ">
<use xlink:href="#Layer0_0_MEMBER_3_MEMBER_5_MEMBER_1_FILL"/>
</g>

<g transform="matrix( 5, 0, 0, 5, -1397.5,-303.2) ">
<use xlink:href="#Layer0_0_MEMBER_3_MEMBER_5_MEMBER_2_FILL"/>
</g>

<g transform="matrix( 5, 0, 0, 5, -1397.5,-303.2) ">
<use xlink:href="#Layer0_0_MEMBER_3_MEMBER_6_MEMBER_0_FILL"/>
</g>

<g transform="matrix( 5, 0, 0, 5, -1397.5,-303.2) ">
<use xlink:href="#Layer0_0_MEMBER_3_MEMBER_6_MEMBER_1_FILL"/>
</g>

<g transform="matrix( 5, 0, 0, 5, -1397.5,-303.2) ">
<use xlink:href="#Layer0_0_MEMBER_3_MEMBER_6_MEMBER_2_FILL"/>
</g>

<g transform="matrix( 5, 0, 0, 5, -1397.5,-303.2) ">
<use xlink:href="#Layer0_0_MEMBER_3_MEMBER_7_MEMBER_0_FILL"/>
</g>

<g transform="matrix( 5, 0, 0, 5, -1397.5,-303.2) ">
<use xlink:href="#Layer0_0_MEMBER_3_MEMBER_7_MEMBER_1_FILL"/>
</g>

<g transform="matrix( 5, 0, 0, 5, -1397.5,-303.2) ">
<use xlink:href="#Layer0_0_MEMBER_3_MEMBER_7_MEMBER_2_FILL"/>
</g>

<g transform="matrix( 5, 0, 0, 5, -1397.5,-303.2) ">
<use xlink:href="#Layer0_0_MEMBER_3_MEMBER_8_MEMBER_0_FILL"/>
</g>

<g transform="matrix( 5, 0, 0, 5, -1397.5,-303.2) ">
<use xlink:href="#Layer0_0_MEMBER_3_MEMBER_8_MEMBER_1_FILL"/>
</g>

<g transform="matrix( 5, 0, 0, 5, -1397.5,-303.2) ">
<use xlink:href="#Layer0_0_MEMBER_3_MEMBER_8_MEMBER_2_FILL"/>
</g>

<g transform="matrix( 5, 0, 0, 5, -1397.5,-303.2) ">
<use xlink:href="#Layer0_0_MEMBER_3_MEMBER_9_MEMBER_0_FILL"/>
</g>

<g transform="matrix( 5, 0, 0, 5, -1397.5,-303.2) ">
<use xlink:href="#Layer0_0_MEMBER_3_MEMBER_9_MEMBER_1_FILL"/>
</g>

<g transform="matrix( 5, 0, 0, 5, -1397.5,-303.2) ">
<use xlink:href="#Layer0_0_MEMBER_3_MEMBER_9_MEMBER_2_FILL"/>
</g>

<g transform="matrix( 5, 0, 0, 5, -1397.5,-303.2) ">
<use xlink:href="#Layer0_0_MEMBER_3_MEMBER_10_MEMBER_0_FILL"/>
</g>

<g transform="matrix( 5, 0, 0, 5, -1397.5,-303.2) ">
<use xlink:href="#Layer0_0_MEMBER_3_MEMBER_10_MEMBER_1_FILL"/>
</g>

<g transform="matrix( 5, 0, 0, 5, -1397.5,-303.2) ">
<use xlink:href="#Layer0_0_MEMBER_3_MEMBER_10_MEMBER_2_FILL"/>
</g>

<g transform="matrix( 5, 0, 0, 5, -1397.5,-303.2) ">
<use xlink:href="#Layer0_0_MEMBER_3_MEMBER_11_MEMBER_0_FILL"/>
</g>

<g transform="matrix( 5, 0, 0, 5, -1397.5,-303.2) ">
<use xlink:href="#Layer0_0_MEMBER_3_MEMBER_11_MEMBER_1_FILL"/>
</g>

<g transform="matrix( 5, 0, 0, 5, -1397.5,-303.2) ">
<use xlink:href="#Layer0_0_MEMBER_3_MEMBER_11_MEMBER_2_FILL"/>
</g>

<g transform="matrix( 5, 0, 0, 5, -1397.5,-303.2) ">
<use xlink:href="#Layer0_0_MEMBER_3_MEMBER_12_MEMBER_0_FILL"/>
</g>

<g transform="matrix( 5, 0, 0, 5, -1397.5,-303.2) ">
<use xlink:href="#Layer0_0_MEMBER_3_MEMBER_12_MEMBER_1_FILL"/>
</g>

<g transform="matrix( 5, 0, 0, 5, -1397.5,-303.2) ">
<use xlink:href="#Layer0_0_MEMBER_3_MEMBER_12_MEMBER_2_FILL"/>
</g>

<g transform="matrix( 5, 0, 0, 5, -1397.5,-303.2) ">
<use xlink:href="#Layer0_0_MEMBER_4_MEMBER_0_MEMBER_0_FILL"/>
</g>

<g transform="matrix( 5, 0, 0, 5, -1397.5,-303.2) ">
<use xlink:href="#Layer0_0_MEMBER_4_MEMBER_0_MEMBER_1_FILL"/>
</g>

<g transform="matrix( 5, 0, 0, 5, -1397.5,-303.2) ">
<use xlink:href="#Layer0_0_MEMBER_4_MEMBER_0_MEMBER_2_FILL"/>
</g>

<g transform="matrix( 5, 0, 0, 5, -1397.5,-303.2) ">
<use xlink:href="#Layer0_0_MEMBER_4_MEMBER_0_MEMBER_3_FILL"/>
</g>

<g transform="matrix( 5, 0, 0, 5, -1397.5,-303.2) ">
<use xlink:href="#Layer0_0_MEMBER_4_MEMBER_0_MEMBER_4_FILL"/>
</g>

<g transform="matrix( 5, 0, 0, 5, -1397.5,-303.2) ">
<use xlink:href="#Layer0_0_MEMBER_4_MEMBER_0_MEMBER_5_FILL"/>
</g>

<g transform="matrix( 5, 0, 0, 5, -1397.5,-303.2) ">
<use xlink:href="#Layer0_0_MEMBER_4_MEMBER_0_MEMBER_6_FILL"/>
</g>

<g transform="matrix( 5, 0, 0, 5, -1397.5,-303.2) ">
<use xlink:href="#Layer0_0_MEMBER_4_MEMBER_0_MEMBER_7_FILL"/>
</g>

<g transform="matrix( 5, 0, 0, 5, -1397.5,-303.2) ">
<use xlink:href="#Layer0_0_MEMBER_4_MEMBER_0_MEMBER_8_MEMBER_0_FILL"/>
</g>

<g transform="matrix( 5, 0, 0, 5, -1397.5,-303.2) ">
<use xlink:href="#Layer0_0_MEMBER_4_MEMBER_1_MEMBER_0_FILL"/>
</g>

<g transform="matrix( 5, 0, 0, 5, -1397.5,-303.2) ">
<use xlink:href="#Layer0_0_MEMBER_4_MEMBER_1_MEMBER_1_FILL"/>
</g>

<g transform="matrix( 5, 0, 0, 5, -1397.5,-303.2) ">
<use xlink:href="#Layer0_0_MEMBER_4_MEMBER_1_MEMBER_2_FILL"/>
</g>

<g transform="matrix( 5, 0, 0, 5, -1397.5,-303.2) ">
<use xlink:href="#Layer0_0_MEMBER_4_MEMBER_1_MEMBER_3_FILL"/>
</g>

<g transform="matrix( 5, 0, 0, 5, -1397.5,-303.2) ">
<use xlink:href="#Layer0_0_MEMBER_4_MEMBER_1_MEMBER_4_FILL"/>
</g>

<g transform="matrix( 5, 0, 0, 5, -1397.5,-303.2) ">
<use xlink:href="#Layer0_0_MEMBER_4_MEMBER_1_MEMBER_5_FILL"/>
</g>

<g transform="matrix( 5, 0, 0, 5, -1397.5,-303.2) ">
<use xlink:href="#Layer0_0_MEMBER_4_MEMBER_1_MEMBER_6_MEMBER_0_FILL"/>
</g>

<g transform="matrix( 5, 0, 0, 5, -1397.5,-303.2) ">
<use xlink:href="#Layer0_0_MEMBER_4_MEMBER_2_MEMBER_0_FILL"/>
</g>

<g transform="matrix( 5, 0, 0, 5, -1397.5,-303.2) ">
<use xlink:href="#Layer0_0_MEMBER_4_MEMBER_2_MEMBER_1_FILL"/>
</g>

<g transform="matrix( 5, 0, 0, 5, -1397.5,-303.2) ">
<use xlink:href="#Layer0_0_MEMBER_4_MEMBER_2_MEMBER_2_FILL"/>
</g>

<g transform="matrix( 5, 0, 0, 5, -1397.5,-303.2) ">
<use xlink:href="#Layer0_0_MEMBER_4_MEMBER_3_FILL"/>
</g>

<g transform="matrix( 5, 0, 0, 5, -1397.5,-303.2) ">
<use xlink:href="#Layer0_0_MEMBER_4_MEMBER_4_MEMBER_0_FILL"/>
</g>

<g transform="matrix( 5, 0, 0, 5, -1397.5,-303.2) ">
<use xlink:href="#Layer0_0_MEMBER_4_MEMBER_4_MEMBER_1_FILL"/>
</g>

<g transform="matrix( 5, 0, 0, 5, -1397.5,-303.2) ">
<use xlink:href="#Layer0_0_MEMBER_4_MEMBER_4_MEMBER_2_FILL"/>
</g>

<g transform="matrix( 5, 0, 0, 5, -1397.5,-303.2) ">
<use xlink:href="#Layer0_0_MEMBER_4_MEMBER_4_MEMBER_3_FILL"/>
</g>

<g transform="matrix( 5, 0, 0, 5, -1397.5,-303.2) ">
<use xlink:href="#Layer0_0_MEMBER_4_MEMBER_5_MEMBER_0_MEMBER_0_FILL"/>
</g>

<g transform="matrix( 5, 0, 0, 5, -1397.5,-303.2) ">
<use xlink:href="#Layer0_0_MEMBER_4_MEMBER_5_MEMBER_0_MEMBER_1_FILL"/>
</g>

<g transform="matrix( 5, 0, 0, 5, -1397.5,-303.2) ">
<use xlink:href="#Layer0_0_MEMBER_4_MEMBER_5_MEMBER_1_MEMBER_0_FILL"/>
</g>

<g transform="matrix( 5, 0, 0, 5, -1397.5,-303.2) ">
<use xlink:href="#Layer0_0_MEMBER_4_MEMBER_5_MEMBER_1_MEMBER_1_FILL"/>
</g>

<g transform="matrix( 5, 0, 0, 5, -1397.5,-303.2) ">
<use xlink:href="#Layer0_0_MEMBER_4_MEMBER_5_MEMBER_1_MEMBER_2_FILL"/>
</g>

<g transform="matrix( 5, 0, 0, 5, -1397.5,-303.2) ">
<use xlink:href="#Layer0_0_MEMBER_4_MEMBER_5_MEMBER_1_MEMBER_3_FILL"/>
</g>

<g transform="matrix( 5, 0, 0, 5, -1397.5,-303.2) ">
<use xlink:href="#Layer0_0_MEMBER_4_MEMBER_5_MEMBER_1_MEMBER_4_FILL"/>
</g>

<g transform="matrix( 5, 0, 0, 5, -1397.5,-303.2) ">
<use xlink:href="#Layer0_0_MEMBER_4_MEMBER_6_MEMBER_0_FILL"/>
</g>

<g transform="matrix( 5, 0, 0, 5, -1397.5,-303.2) ">
<use xlink:href="#Layer0_0_MEMBER_4_MEMBER_6_MEMBER_1_FILL"/>
</g>

<g transform="matrix( 5, 0, 0, 5, -1397.5,-303.2) ">
<use xlink:href="#Layer0_0_MEMBER_4_MEMBER_6_MEMBER_2_FILL"/>
</g>

<g transform="matrix( 5, 0, 0, 5, -1397.5,-303.2) ">
<use xlink:href="#Layer0_0_MEMBER_4_MEMBER_6_MEMBER_3_FILL"/>
</g>

<g transform="matrix( 5, 0, 0, 5, -1397.5,-303.2) ">
<use xlink:href="#Layer0_0_MEMBER_4_MEMBER_6_MEMBER_4_FILL"/>
</g>

<g transform="matrix( 5, 0, 0, 5, -1397.5,-303.2) ">
<use xlink:href="#Layer0_0_MEMBER_4_MEMBER_6_MEMBER_5_FILL"/>
</g>

<g transform="matrix( 5, 0, 0, 5, -1397.5,-303.2) ">
<use xlink:href="#Layer0_0_MEMBER_4_MEMBER_6_MEMBER_6_FILL"/>
</g>

<g transform="matrix( 5, 0, 0, 5, -1397.5,-303.2) ">
<use xlink:href="#Layer0_0_MEMBER_4_MEMBER_6_MEMBER_7_FILL"/>
</g>

<g transform="matrix( 5, 0, 0, 5, 479.5,711.05) ">
<use xlink:href="#Layer0_0_MEMBER_5_MEMBER_0_FILL"/>
</g>

<g transform="matrix( 5, 0, 0, 5, -1397.5,-303.2) ">
<use xlink:href="#Layer0_0_MEMBER_5_MEMBER_1_FILL"/>
</g>

<g transform="matrix( 5, 0, 0, 5, 503.25,714.05) ">
<use xlink:href="#Layer0_0_MEMBER_5_MEMBER_2_FILL"/>
</g>

<g transform="matrix( 5, 0, 0, 5, 503.25,651.55) ">
<use xlink:href="#Layer0_0_MEMBER_5_MEMBER_3_FILL"/>
</g>

<g transform="matrix( 5, 0, 0, 5, -1397.5,-303.2) ">
<use xlink:href="#Layer0_0_MEMBER_5_MEMBER_4_FILL"/>
</g>

<g transform="matrix( 5, 0, 0, 5, -1397.5,-303.2) ">
<use xlink:href="#Layer0_0_MEMBER_5_MEMBER_5_FILL"/>
</g>

<g transform="matrix( 5, 0, 0, 5, 136.5,534.8) ">
<use xlink:href="#Layer0_0_MEMBER_6_MEMBER_0_FILL"/>
</g>

<g transform="matrix( 5, 0, 0, 5, -1397.5,-303.2) ">
<use xlink:href="#Layer0_0_MEMBER_6_MEMBER_1_FILL"/>
</g>

<g transform="matrix( 5, 0, 0, 5, -1397.5,-303.2) ">
<use xlink:href="#Layer0_0_MEMBER_6_MEMBER_2_FILL"/>
</g>

<g transform="matrix( 5, 0, 0, 5, 805.75,534.8) ">
<use xlink:href="#Layer0_0_MEMBER_7_MEMBER_0_FILL"/>
</g>

<g transform="matrix( 5, 0, 0, 5, -1397.5,-303.2) ">
<use xlink:href="#Layer0_0_MEMBER_7_MEMBER_1_FILL"/>
</g>

<g transform="matrix( 5, 0, 0, 5, -1397.5,-303.2) ">
<use xlink:href="#Layer0_0_MEMBER_7_MEMBER_2_FILL"/>
</g>

<g transform="matrix( 5, 0, 0, 5, 597.5,626.3) ">
<use xlink:href="#Layer0_0_MEMBER_8_FILL"/>
</g>

<g transform="matrix( 5, 0, 0, 5, 667.25,644.8) ">
<use xlink:href="#Layer0_0_MEMBER_9_FILL"/>
</g>
</svg>
