<svg width="532" height="163" viewBox="0 0 532 163" fill="none" xmlns="http://www.w3.org/2000/svg">
<path d="M432.17 152.2H138.83L79.0302 150.78L51.9702 140.81V73.88H432.17L477.74 106.64L483.43 147.93L432.17 152.2Z" fill="#3D3D3D"/>
<path d="M14.9501 106.63H3.56006L9.79005 127.82C10.0529 128.716 10.5714 129.516 11.2818 130.121C11.9923 130.727 12.8639 131.112 13.7901 131.23L22.0501 132.23L14.9501 106.63Z" fill="#4C4C4C"/>
<path d="M17.0801 117.32V137.25L66.2101 150.07L63.3601 117.32H17.0801Z" fill="black"/>
<path d="M153.82 125.15L149.51 154.34H392.3L389.43 129.82L153.82 125.15Z" fill="black"/>
<path d="M469.91 128.71L470.03 151.49L524.02 144.37L529.71 131.55L469.91 128.71Z" fill="black"/>
<path d="M108.93 162.17C130.95 162.17 148.8 144.32 148.8 122.3C148.8 100.28 130.95 82.4299 108.93 82.4299C86.9105 82.4299 69.0601 100.28 69.0601 122.3C69.0601 144.32 86.9105 162.17 108.93 162.17Z" fill="black"/>
<path d="M108.93 153.63C126.233 153.63 140.26 139.603 140.26 122.3C140.26 104.997 126.233 90.97 108.93 90.97C91.627 90.97 77.6001 104.997 77.6001 122.3C77.6001 139.603 91.627 153.63 108.93 153.63Z" fill="black"/>
<path d="M108.93 155.05C102.451 155.058 96.1153 153.144 90.7243 149.55C85.3334 145.956 81.1295 140.844 78.6446 134.861C76.1597 128.877 75.5054 122.291 76.7646 115.935C78.0237 109.58 81.1397 103.741 85.7183 99.1564C90.2968 94.5722 96.1323 91.4491 102.486 90.1822C108.84 88.9152 115.427 89.5615 121.414 92.0391C127.4 94.5166 132.518 98.7143 136.118 104.101C139.718 109.487 141.64 115.821 141.64 122.3C141.63 130.976 138.181 139.294 132.05 145.432C125.919 151.57 117.606 155.029 108.93 155.05ZM108.93 92.3899C103.014 92.3879 97.2303 94.1405 92.3103 97.4258C87.3903 100.711 83.5551 105.382 81.2898 110.847C79.0244 116.312 78.4307 122.326 79.5837 128.129C80.7366 133.932 83.5845 139.262 87.7671 143.446C91.9497 147.63 97.2791 150.48 103.081 151.634C108.884 152.789 114.898 152.198 120.364 149.934C125.83 147.671 130.502 143.837 133.789 138.918C137.076 133.999 138.83 128.216 138.83 122.3C138.822 114.371 135.67 106.77 130.064 101.163C124.459 95.5554 116.859 92.4005 108.93 92.3899Z" fill="#D38700"/>
<path d="M107.51 130.84C110.75 130.84 114.19 145.61 115.66 152.71C120.887 151.459 125.703 148.879 129.64 145.22C124.14 140.45 113.08 130.34 114.7 127.54C116.32 124.74 131.62 129.38 138.25 131.59C139.885 126.333 140.102 120.738 138.88 115.37C132.31 117.66 117.08 122.6 115.41 119.71C113.74 116.82 126.28 105.22 131.2 100.89C127.351 96.7725 122.463 93.7703 117.05 92.2C115.82 98.75 112.4 115.2 108.98 115.2C105.56 115.2 101.82 98.3 100.55 91.97C95.1079 93.373 90.144 96.2159 86.18 100.2C91.36 104.65 103.53 115.57 101.84 118.5C100.15 121.43 84.5501 116.55 78.0601 114.37C76.6868 119.663 76.7144 125.221 78.1401 130.5C84.9401 128.15 99.5001 123.5 101.14 126.33C102.78 129.16 91.5701 139.62 86.1901 144.4C89.9619 148.184 94.6408 150.939 99.7801 152.4C101.13 145.14 104.32 130.84 107.51 130.84Z" fill="#D19000"/>
<path d="M108.93 126.57C111.288 126.57 113.2 124.658 113.2 122.3C113.2 119.942 111.288 118.03 108.93 118.03C106.572 118.03 104.66 119.942 104.66 122.3C104.66 124.658 106.572 126.57 108.93 126.57Z" fill="#CCCCCC"/>
<path d="M429.32 162.17C449.766 162.17 466.34 145.596 466.34 125.15C466.34 104.704 449.766 88.13 429.32 88.13C408.874 88.13 392.3 104.704 392.3 125.15C392.3 145.596 408.874 162.17 429.32 162.17Z" fill="black"/>
<path d="M429.32 154.24C445.386 154.24 458.41 141.216 458.41 125.15C458.41 109.084 445.386 96.0601 429.32 96.0601C413.254 96.0601 400.23 109.084 400.23 125.15C400.23 141.216 413.254 154.24 429.32 154.24Z" fill="black"/>
<path d="M429.32 155.66C423.283 155.66 417.382 153.87 412.363 150.516C407.344 147.162 403.432 142.395 401.122 136.817C398.813 131.24 398.209 125.103 399.387 119.182C400.566 113.262 403.473 107.823 407.743 103.556C412.012 99.2877 417.451 96.3817 423.372 95.2052C429.293 94.0287 435.43 94.6346 441.006 96.9461C446.583 99.2576 451.349 103.171 454.701 108.191C458.054 113.212 459.842 119.113 459.84 125.15C459.829 133.24 456.61 140.996 450.889 146.716C445.167 152.435 437.41 155.652 429.32 155.66ZM429.32 97.48C423.847 97.48 418.498 99.1028 413.947 102.143C409.397 105.184 405.851 109.505 403.756 114.561C401.662 119.617 401.114 125.181 402.182 130.548C403.249 135.916 405.885 140.846 409.754 144.716C413.624 148.585 418.554 151.221 423.922 152.288C429.289 153.356 434.853 152.808 439.909 150.714C444.965 148.619 449.286 145.073 452.327 140.523C455.367 135.972 456.99 130.623 456.99 125.15C456.982 117.814 454.064 110.781 448.877 105.593C443.69 100.406 436.656 97.4879 429.32 97.48Z" fill="#D38700"/>
<path d="M435.29 122.77C433.69 120 445.38 109.32 449.96 105.3C446.386 101.472 441.842 98.6832 436.81 97.23C435.67 103.31 432.5 118.57 429.32 118.57C426.14 118.57 422.67 102.88 421.5 97C416.445 98.2958 411.832 100.932 408.15 104.63C412.96 108.77 424.26 118.91 422.7 121.63C421.14 124.35 406.64 119.77 400.64 117.77C400.016 120.177 399.7 122.653 399.7 125.14C399.695 127.713 400.031 130.275 400.7 132.76C407.01 130.57 420.53 126.26 422.04 128.88C423.55 131.5 413.16 141.22 408.16 145.66C411.666 149.17 416.01 151.728 420.78 153.09C422.09 146.37 425.05 133.09 428.01 133.09C430.97 133.09 434.22 146.8 435.58 153.39C440.418 152.222 444.875 149.829 448.52 146.44C443.41 142.01 433.14 132.62 434.64 130.03C436.14 127.44 450.36 131.73 456.51 133.79C458.027 128.906 458.23 123.708 457.1 118.72" fill="#D19000"/>
<path d="M429.32 129.12C431.513 129.12 433.29 127.343 433.29 125.15C433.29 122.957 431.513 121.18 429.32 121.18C427.127 121.18 425.35 122.957 425.35 125.15C425.35 127.343 427.127 129.12 429.32 129.12Z" fill="#CCCCCC"/>
<path d="M143.13 44.0749L206.939 24.2741C207.223 24.1861 207.53 24.2143 207.792 24.3527C208.055 24.491 208.252 24.7282 208.34 25.0118L209.277 28.0299L142.947 48.6131L142.129 45.9771C142.069 45.7865 142.047 45.5858 142.064 45.3866C142.082 45.1874 142.139 44.9937 142.232 44.8167C142.325 44.6397 142.453 44.483 142.607 44.3557C142.761 44.2283 142.939 44.1329 143.13 44.0749Z" fill="#9B9B9B"/>
<g opacity="0.6">
<path opacity="0.6" d="M126.02 56.7701C167.31 32.5601 212.88 25.4401 212.88 25.4401C212.88 25.4401 292.11 21.5501 318.25 32.5601C345.31 43.9501 399.42 72.4301 399.42 72.4301L176.57 73.1401L126.02 56.7701Z" fill="#8E8176"/>
</g>
<path d="M311.13 31.1599C319.68 32.5899 382.33 71.0399 382.33 71.0399H375.21C375.21 71.0399 322.3 39.5599 318.21 36.8599C315.687 35.172 313.318 33.2646 311.13 31.1599Z" fill="#8E8176"/>
<path d="M152.02 34.23C162.72 21.32 197.41 1.04004 197.41 1.04004L205.81 23.29L145.73 41.7701L152.02 34.23Z" fill="#D1D1D1"/>
<path d="M143.64 43.2L151.45 33.78C162.11 20.92 195.61 1.25999 197.03 0.429993L197.76 0L206.76 23.74L143.64 43.2ZM197.02 2.07999C192.02 5.07999 162.19 23.08 152.55 34.69L147.79 40.43L204.85 22.83L197.02 2.07999Z" fill="#A8A8A8"/>
<path d="M165.99 28.5401C171.83 20.3401 196.65 2.12012 196.65 2.12012C196.65 2.12012 162.55 24.3601 155.82 30.2301C151.967 33.4769 148.767 37.4271 146.39 41.8701L198.7 26.2801C198.7 26.2801 161.87 34.3501 165.99 28.5401Z" fill="#5B5B5B"/>
<path d="M193.84 3.62012C193.84 3.62012 201.33 17.6201 201.4 20.5201C201.47 23.4201 188.56 28.2801 190.19 27.9201C196.08 26.6401 206.19 24.5601 205.74 23.2501C205.19 21.7601 196.65 2.12012 196.65 2.12012L193.84 3.62012Z" fill="#F2F2F2"/>
<g style="mix-blend-mode:multiply" opacity="0.8">
<g style="mix-blend-mode:multiply" opacity="0.8">
<path d="M161.64 71.04C157.37 65.34 145.97 56.8 161.64 48.25C177.1 39.82 194.39 31.16 194.39 29.74C157.39 38.28 120.34 59.64 120.34 59.64C120.34 59.64 163.33 73.31 161.64 71.04Z" fill="#826F64"/>
</g>
</g>
<g style="mix-blend-mode:multiply" opacity="0.8">
<g style="mix-blend-mode:multiply" opacity="0.8">
<path d="M137.41 62.4901C137.41 62.4901 134.15 57.6801 164.47 42.5601C141.68 46.8301 128.87 61.07 128.87 61.07L137.41 62.4901Z" fill="#3F332D"/>
</g>
</g>
<path d="M143.64 43.2L151.45 33.78C162.11 20.92 195.61 1.25999 197.03 0.429993L197.76 0L206.76 23.74L143.64 43.2ZM197.02 2.07999C192.02 5.07999 162.19 23.08 152.55 34.69L147.79 40.43L204.85 22.83L197.02 2.07999Z" fill="#A8A8A8"/>
<g style="mix-blend-mode:multiply" opacity="0.8">
<g style="mix-blend-mode:multiply" opacity="0.8">
<path d="M301.17 38.28C319.68 53.95 332.49 59.64 332.49 63.92V72.46L368.09 68.19C368.09 68.19 326.37 43.91 318.25 41.13C312.719 39.3837 306.969 38.4243 301.17 38.28Z" fill="#8E8176"/>
</g>
</g>
<path d="M306.15 29.03C280.78 22.26 213.64 24.77 213.64 24.77L172.35 81.77L233.67 76.07L231.67 68.95L225.04 44.74L215.04 43.32L223.58 30.5C223.58 30.5 281.96 29.08 303.32 34.77C313.64 37.53 340.32 53.29 340.32 53.29V76.07H380.19C380.19 76.07 327.51 34.77 306.15 29.03ZM217.86 51.77L220.71 60.32H197.93L205.05 50.32L217.86 51.77ZM347.45 63.92V57.47L356.26 64L347.45 63.92Z" fill="#F4F0ED"/>
<path d="M169.3 83.4201L212.85 23.3601H213.54C216.29 23.2601 281.23 20.9401 306.54 27.6801C327.93 33.3901 378.93 73.2301 381.1 74.9301L384.34 77.4701H338.9V54.0501C334.63 51.5601 312.03 38.5201 302.9 36.1001C283.27 30.8601 231.12 31.7201 224.29 31.8601L217.41 42.1801L226.07 43.4101L235.41 77.2801L169.3 83.4201ZM214.3 26.1601L175.3 80.0101L231.78 74.7701L230.24 69.3001L223.86 45.9801L212.58 44.3701L222.79 29.0601H223.53C225.92 29.0001 282.36 27.7001 303.67 33.3801C314.06 36.1501 339.95 51.3801 341.05 52.0401L341.75 52.4501V74.6301H376.02C364.17 65.5601 323.56 35.1801 305.78 30.4301C282.28 24.1301 221.52 25.9201 214.34 26.1601H214.3ZM360.64 65.5001L346.04 65.3701V54.6801L360.64 65.5001ZM348.89 62.5001H351.89L348.89 60.2601V62.5001ZM222.69 61.7701H195.16L204.38 48.8701L218.93 50.4901L222.69 61.7701ZM200.69 58.9201H218.69L216.75 53.1201L205.67 51.8901L200.69 58.9201Z" fill="#050505"/>
<path d="M525.44 110.91C525.44 110.91 437.16 70.3199 425.76 70.3199C414.36 70.3199 387.32 68.6099 387.32 68.6099L176.32 66.0499L128.05 56.0499L54.1601 60.3299L46.3801 54.6299H22.7801V90.7699L11.3901 98.7699V121.56L63.2801 127.89C63.1401 125.06 63.0701 126.28 63.0701 123.01C63.0702 117.181 64.2011 111.408 66.4001 106.01L29.9001 101.65V76.0199L66.9001 73.1699L79.5601 88.1699C81.306 86.7353 83.158 85.4349 85.1001 84.2799L77.6401 72.4599L106.12 66.7599L111.82 78.1599C113.05 78.2799 115.38 78.4399 116.58 78.6599L116.09 65.3399C121.79 65.3399 145.99 76.7299 155.96 83.8499C165.93 90.9699 180.13 123.77 180.13 123.77H369.52L375.28 129.54H378.2L388.11 129.64C387.83 126.02 387.69 127.64 387.69 123.1C387.858 112.357 392.244 102.11 399.9 94.5724C407.557 87.0345 417.871 82.8096 428.615 82.8096C439.36 82.8096 449.673 87.0345 457.33 94.5724C464.987 102.11 469.372 112.357 469.54 123.1C469.573 125.548 469.416 127.996 469.07 130.42L478.84 130.51L529.71 131.08L525.44 110.91Z" fill="#F4F0ED"/>
<path d="M29.9001 76.02V101.65L66.4001 106.01C69.2441 99.05 73.7732 92.9059 79.5802 88.13L66.9202 73.13L29.9001 76.02Z" fill="#050505"/>
<path d="M76.1802 71.0399L85.1202 84.24C92.1039 80.0714 100.087 77.8735 108.22 77.8799C109.412 77.8921 110.601 77.9857 111.78 78.16L106.08 65.34L76.1802 71.0399Z" fill="#050505"/>
<path d="M180.13 123.77C180.13 123.77 167.31 82.48 157.35 75.36C147.39 68.24 123.17 62.54 113.2 63.97L116.54 78.71C126.89 80.6543 136.235 86.1536 142.96 94.2572C149.685 102.361 153.367 112.559 153.37 123.09C153.385 124.537 153.305 125.983 153.13 127.42L375.28 129.54L369.52 123.77H180.13Z" fill="#00D314"/>
<path d="M531.48 132.5L467.48 131.81L467.61 130.29C467.72 128.92 467.81 128.2 467.89 127.63C468.065 126.12 468.125 124.599 468.07 123.08C468.07 112.604 463.909 102.557 456.501 95.1493C449.093 87.7416 439.046 83.58 428.57 83.58C418.094 83.58 408.047 87.7416 400.639 95.1493C393.232 102.557 389.07 112.604 389.07 123.08C389.01 124.385 389.064 125.694 389.23 126.99C389.3 127.48 389.39 128.12 389.49 129.51L389.61 131.06L151.64 128.77L151.72 127.29C151.736 126.6 151.796 125.912 151.9 125.23C151.979 124.499 151.999 123.764 151.96 123.03C151.96 117.287 150.829 111.601 148.631 106.295C146.434 100.99 143.213 96.1689 139.152 92.1082C135.091 88.0475 130.271 84.8264 124.965 82.6287C119.659 80.4311 113.973 79.3 108.23 79.3C102.488 79.3 96.801 80.4311 91.4955 82.6287C86.1899 84.8264 81.3691 88.0475 77.3084 92.1082C73.2477 96.1689 70.0266 100.99 67.829 106.295C65.6313 111.601 64.5002 117.287 64.5002 123.03C64.4743 123.967 64.4976 124.905 64.5702 125.84C64.5702 126.23 64.6602 126.73 64.7102 127.84L64.8002 129.53L9.98022 122.84V98.06L21.3702 90.06V53.24H46.8102L54.5502 58.9L126.64 54.65L176.39 64.65L387.3 67.21C387.65 67.21 414.52 68.92 425.73 68.92C437.3 68.92 522.39 107.97 526.01 109.63L526.66 109.93L531.48 132.5ZM470.64 128.99L478.86 129.06L527.96 129.61L524.21 111.9C493.56 97.84 434.47 71.77 425.76 71.77C414.46 71.77 387.5 70.07 387.23 70.06L176.12 67.47H175.99L126.47 57.54L53.6402 61.77L45.8302 56.04H24.2102V91.49L12.8102 99.49V120.27L61.7502 126.27C61.7453 126.203 61.7453 126.137 61.7502 126.07C61.6651 125.052 61.6351 124.031 61.6602 123.01C61.6602 110.656 66.5677 98.8084 75.3032 90.073C84.0386 81.3375 95.8865 76.43 108.24 76.43C120.594 76.43 132.442 81.3375 141.177 90.073C149.913 98.8084 154.82 110.656 154.82 123.01C154.869 123.911 154.835 124.815 154.72 125.71C154.72 125.77 154.72 125.83 154.72 125.93L386.61 128.15C386.61 127.81 386.54 127.56 386.51 127.35C386.326 125.925 386.263 124.486 386.32 123.05C386.32 111.818 390.782 101.046 398.724 93.104C406.666 85.1618 417.438 80.7 428.67 80.7C439.902 80.7 450.674 85.1618 458.616 93.104C466.558 101.046 471.02 111.818 471.02 123.05C471.081 124.69 471.011 126.332 470.81 127.96C470.71 128.27 470.64 128.58 470.64 128.99Z" fill="#050505"/>
<path d="M19.9302 29.03L22.7402 54.66H45.9002L39.8702 29.03H19.9302Z" fill="#C4C1BF"/>
<path d="M47.7001 56.0801H21.4601L18.3501 27.6001H41.0001L47.7001 56.0801ZM24.0101 53.2401H44.1101L38.7401 30.4501H21.5201L24.0101 53.2401Z" fill="#050505"/>
<path d="M45.8402 25.0599L49.3702 40.3399C49.4262 40.6868 49.4024 41.0419 49.3006 41.3782C49.1987 41.7145 49.0215 42.0232 48.7823 42.2806C48.5432 42.5381 48.2484 42.7376 47.9205 42.864C47.5926 42.9904 47.2402 43.0403 46.8902 43.0099L3.53017 37.7699C2.95539 37.7177 2.42072 37.4531 2.03056 37.0278C1.64041 36.6025 1.42277 36.0471 1.42017 35.4699V18.8199C1.42076 18.4928 1.49052 18.1695 1.62486 17.8713C1.7592 17.5731 1.9551 17.3066 2.19968 17.0894C2.44426 16.8722 2.732 16.7092 3.04402 16.6111C3.35605 16.5129 3.68529 16.4818 4.01016 16.5199L43.8302 23.1299C44.3296 23.1889 44.7962 23.4094 45.159 23.7577C45.5217 24.106 45.7609 24.5633 45.8402 25.0599Z" fill="#F4F0ED"/>
<path d="M47.1002 44.4401H46.7602L3.36016 39.1901C2.43633 39.1072 1.5776 38.6794 0.954952 37.9919C0.332307 37.3044 -0.00857632 36.4076 0.000164009 35.4801V18.8201C-0.00247436 18.2912 0.10771 17.7678 0.32336 17.2848C0.539011 16.8019 0.855163 16.3704 1.25074 16.0193C1.64632 15.6682 2.11224 15.4055 2.61738 15.2487C3.12253 15.092 3.6553 15.0447 4.18016 15.1101L44.0602 21.7701C44.845 21.8774 45.5753 22.2319 46.1452 22.782C46.7152 23.3322 47.0952 24.0495 47.2302 24.8301L50.7602 40.0701C50.8666 40.6445 50.8371 41.2358 50.6738 41.7967C50.5106 42.3577 50.2182 42.8725 49.8202 43.3001C49.4699 43.6674 49.0475 43.9583 48.5794 44.1545C48.1113 44.3507 47.6077 44.4479 47.1002 44.4401ZM3.70016 17.9201C3.49217 17.9281 3.29375 18.0096 3.14016 18.1501C3.0477 18.2353 2.97412 18.339 2.92418 18.4544C2.87423 18.5698 2.84902 18.6944 2.85017 18.8201V35.4601C2.85151 35.6796 2.93393 35.8909 3.0816 36.0533C3.22927 36.2158 3.43176 36.3179 3.65016 36.3401L47.0602 41.5901C47.1876 41.6004 47.3156 41.5804 47.4338 41.5317C47.552 41.4831 47.657 41.4071 47.7402 41.3101C47.8339 41.2114 47.9034 41.0923 47.9434 40.9622C47.9833 40.832 47.9924 40.6944 47.9702 40.5601L44.4302 25.2801C44.3991 25.0901 44.3073 24.9152 44.1685 24.7818C44.0296 24.6484 43.8513 24.5635 43.6602 24.5401L3.77017 17.9301L3.70016 17.9201Z" fill="#050505"/>
<path d="M375.93 93.11H345.31V120.17H375.93V93.11Z" fill="#F25600"/>
<path d="M380.91 81H343.89V95.24H380.91V81Z" fill="#050505"/>
<path d="M223.69 103.77L238.52 115.77V103.77H244.45V119.77H232.58L217.75 107.77V119.77H211.82V103.77H223.69Z" fill="#D19000"/>
<path d="M250.38 119.77V117.1H274.1V113.77L256.31 112.44C252.31 112.44 250.38 111.55 250.38 109.76V106.42C250.38 104.64 252.38 103.75 256.31 103.75H283V106.42H259.27V109.77L277.07 111.11C281.023 111.11 283 112 283 113.78V117.13C283 118.91 281.023 119.8 277.07 119.8L250.38 119.77Z" fill="#D19000"/>
<path d="M288.93 119.77L300.79 111.77L288.93 103.77H298.72L306.72 109.12L315.35 103.77H321.82L310.19 111.77L322.03 119.77H312.64L304.76 114.24L294.86 119.77H288.93Z" fill="#D19000"/>
<path d="M501.23 113.04L498.39 121.59H521.17L518.32 114.47L501.23 113.04Z" fill="#F4F0ED"/>
<path d="M522.22 122.3H497.4L500.74 112.3L518.82 113.8L522.22 122.3ZM499.37 120.87H520.12L517.82 115.14L501.73 113.77L499.37 120.87Z" fill="#050505"/>
<path d="M367.02 101.38C369.21 101.38 370.3 102.2 370.3 103.86V105.47C370.3 106.903 369.207 108.023 367.02 108.83C360.467 110.45 357.19 111.277 357.19 111.31V113.77H370.3V116.26H352.3V111.26C352.3 110.33 353.39 109.51 355.57 108.78L365.41 106.29V103.81H352.28V101.33L367.02 101.38Z" fill="#F9F8F7"/>
<path d="M376 129.49H374.57C374.57 101.72 390.57 71.14 425.73 69.61L425.79 71.04C391.58 72.52 376 102.38 376 129.49Z" fill="#070707"/>
<path d="M209.32 127.28L212.17 138.67H375.93V128.71L209.32 127.28Z" fill="#333333"/>
<path d="M194.37 72.46L205.76 96.67H275.53L264.6 72.77L194.37 72.46Z" fill="#00D314"/>
<path d="M285.5 96.67H304.02L292.62 72.74L274.11 72.46L285.5 96.67Z" fill="#00D314"/>
<path d="M311.14 96.67H322.53L311.14 72.74L299.74 72.46L311.14 96.67Z" fill="#F25600"/>
<path d="M328.22 96.67H333.92L322.53 72.74L316.83 72.46L328.22 96.67Z" fill="#D19000"/>
<path d="M339.61 96.67H342.46L331.07 72.74L328.22 72.46L339.61 96.67Z" fill="#CCAA00"/>
<path d="M368.81 123.77H178.87L178.73 123.24C178.66 122.97 171.55 96.19 163.18 85.04L162.33 83.9H375.93V85.32H165.14C172.74 96.41 178.93 118.53 179.96 122.32H368.81V123.77Z" fill="#050505"/>
<path d="M207.5 127.77L205.98 123.72H202.83L183.75 83.85H188.51L180.2 66.36L181.48 65.75L190.76 85.27H186.01L203.73 122.3H206.97L208.83 127.27L207.5 127.77Z" fill="#050505"/>
<path d="M483.438 93.3457L477.719 131.429L479.124 131.64L484.842 93.5566L483.438 93.3457Z" fill="#050505"/>
<path d="M376.64 138.67H375.21V87.6299L362.46 68.7299L363.64 67.9399L376.64 87.1899V138.67Z" fill="#050505"/>
</svg>
