<svg width="418" height="146" viewBox="0 0 418 146" fill="none" xmlns="http://www.w3.org/2000/svg">
<path d="M40.34 113.921L85.61 123.431L352.97 127.291L399.72 119.601L376.63 74.0509L308.12 66.8209L38.35 67.5909L40.34 113.921Z" fill="#2D2D2D"/>
<path d="M179.21 57.5009H170.38C169.784 57.5009 169.193 57.3835 168.643 57.1553C168.092 56.9271 167.591 56.5928 167.17 56.1712C166.748 55.7496 166.414 55.2491 166.186 54.6983C165.957 54.1475 165.84 53.5571 165.84 52.9609V32.9609C165.84 32.3647 165.957 31.7743 166.186 31.2235C166.414 30.6727 166.748 30.1722 167.17 29.7506C167.591 29.3291 168.092 28.9946 168.643 28.7665C169.193 28.5383 169.784 28.4209 170.38 28.4209H173.71C174.703 28.4228 175.669 28.7505 176.458 29.3538C177.248 29.9571 177.817 30.8027 178.08 31.7609L183.59 51.7609C183.775 52.4347 183.801 53.1421 183.668 53.8279C183.534 54.5138 183.245 55.1595 182.821 55.715C182.397 56.2704 181.851 56.7206 181.224 57.0303C180.598 57.3401 179.909 57.5011 179.21 57.5009Z" fill="#171819"/>
<path opacity="0.6" d="M93.9 56.2109C93.9 56.2109 108.11 18.2909 115.24 15.9109C122.37 13.5309 228.85 15.9109 228.85 15.9109L207.19 4.15088L96.3 7.60086L50.82 49.1509L93.9 56.2109Z" fill="#171819"/>
<path opacity="0.6" d="M47.12 47.4009L93.9 5.65088L232.05 8.75089L297.79 51.1609L50.82 54.0809L47.12 47.4009Z" fill="#171819"/>
<path d="M83.78 145.751C103.27 145.751 119.07 129.951 119.07 110.461C119.07 90.9708 103.27 75.1709 83.78 75.1709C64.2898 75.1709 48.49 90.9708 48.49 110.461C48.49 129.951 64.2898 145.751 83.78 145.751Z" fill="black"/>
<path d="M83.78 139.001C99.5422 139.001 112.32 126.223 112.32 110.461C112.32 94.6987 99.5422 81.9209 83.78 81.9209C68.0178 81.9209 55.24 94.6987 55.24 110.461C55.24 126.223 68.0178 139.001 83.78 139.001Z" stroke="#FCEE21" stroke-width="2" stroke-miterlimit="10"/>
<path d="M86.83 81.9309H81.36V107.671H86.83V81.9309Z" fill="#FCEE21"/>
<path d="M72.1633 84.2227L67.4261 86.9576L80.2961 109.249L85.0333 106.514L72.1633 84.2227Z" fill="#FCEE21"/>
<path d="M60.6038 93.5539L57.8688 98.291L80.1603 111.161L82.8953 106.424L60.6038 93.5539Z" fill="#FCEE21"/>
<path d="M55.25 107.421V112.891H80.99V107.421H55.25Z" fill="#FCEE21"/>
<path d="M57.5458 122.091L60.2808 126.828L82.5722 113.958L79.8372 109.221L57.5458 122.091Z" fill="#FCEE21"/>
<path d="M66.878 133.649L71.6151 136.384L84.4851 114.092L79.7479 111.357L66.878 133.649Z" fill="#FCEE21"/>
<path d="M80.74 139.001H86.21V113.261H80.74V139.001Z" fill="#FCEE21"/>
<path d="M95.4074 136.697L100.145 133.962L87.2745 111.67L82.5374 114.405L95.4074 136.697Z" fill="#FCEE21"/>
<path d="M106.968 127.37L109.703 122.633L87.4114 109.763L84.6764 114.5L106.968 127.37Z" fill="#FCEE21"/>
<path d="M112.32 113.521V108.051H86.5799V113.521H112.32Z" fill="#FCEE21"/>
<path d="M110.023 98.8332L107.288 94.0961L84.997 106.966L87.732 111.703L110.023 98.8332Z" fill="#FCEE21"/>
<path d="M100.699 87.2761L95.9617 84.5411L83.0917 106.833L87.8289 109.568L100.699 87.2761Z" fill="#FCEE21"/>
<path d="M83.78 114.241C85.8676 114.241 87.56 112.549 87.56 110.461C87.56 108.373 85.8676 106.681 83.78 106.681C81.6924 106.681 80 108.373 80 110.461C80 112.549 81.6924 114.241 83.78 114.241Z" fill="#CCCCCC"/>
<g opacity="0.2">
<path opacity="0.2" d="M83.7799 118.051C87.9718 118.051 91.3699 114.653 91.3699 110.461C91.3699 106.269 87.9718 102.871 83.7799 102.871C79.5881 102.871 76.1899 106.269 76.1899 110.461C76.1899 114.653 79.5881 118.051 83.7799 118.051Z" fill="#CCCCCC"/>
</g>
<path d="M409.28 86.401V70.491L298.49 50.421L280.37 49.991C280.37 49.991 253.56 23.891 227.91 11.271C226.91 10.771 234.86 10.2709 233.85 9.82095C227.7 7.02095 212.68 4.96097 207.19 4.15097C177.78 -0.189034 111.94 3.38095 111.94 3.38095C108.19 3.38095 97.4 4.67097 94.28 6.65097C93.28 7.31097 99.41 7.86094 98.51 8.72094L58.42 44.451H15.42L5.90001 53.211L6.77 83.401L2 86.9709V111.311L46.32 121.311C46.32 121.311 46.1 114.961 46.1 110.461C46.2611 100.573 50.3023 91.1437 57.3521 84.2078C64.4019 77.2719 73.8953 73.3848 83.785 73.3848C93.6747 73.3848 103.168 77.2719 110.218 84.2078C117.268 91.1437 121.309 100.573 121.47 110.461C121.47 115.271 122.92 129.101 122.92 129.101L306.92 131.271C306.92 131.271 306.29 117.341 306.29 112.461C306.29 102.465 310.261 92.8784 317.329 85.8101C324.397 78.7419 333.984 74.771 343.98 74.771C353.976 74.771 363.563 78.7419 370.631 85.8101C377.699 92.8784 381.67 102.465 381.67 112.461C381.67 117.641 380.73 127.071 380.73 127.071L409.33 127.411L414.09 123.291L415.82 88.671L409.28 86.401ZM266.28 48.061L84.17 46.061C84.17 46.061 102.56 11.161 113.7 9.06097C127.03 6.54097 198.59 6.06095 212.92 10.8809C229.55 16.5009 260.28 40.1909 260.28 40.1909L266.28 48.061Z" fill="#C1272D"/>
<path d="M409.28 86.401V70.491L298.49 50.421L280.37 49.991C280.37 49.991 253.56 23.891 227.91 11.271C226.91 10.771 234.86 10.2709 233.85 9.82095C227.7 7.02095 212.68 4.96097 207.19 4.15097C177.78 -0.189034 111.94 3.38095 111.94 3.38095C108.19 3.38095 97.4 4.67097 94.28 6.65097C93.28 7.31097 99.41 7.86094 98.51 8.72094L58.42 44.451H15.42L5.90001 53.211L6.77 83.401L2 86.9709V111.311L46.32 121.311C46.32 121.311 46.1 114.961 46.1 110.461C46.2611 100.573 50.3023 91.1437 57.3521 84.2078C64.4019 77.2719 73.8953 73.3848 83.785 73.3848C93.6747 73.3848 103.168 77.2719 110.218 84.2078C117.268 91.1437 121.309 100.573 121.47 110.461C121.47 115.271 122.92 129.101 122.92 129.101L306.92 131.271C306.92 131.271 306.29 117.341 306.29 112.461C306.29 102.465 310.261 92.8784 317.329 85.8101C324.397 78.7419 333.984 74.771 343.98 74.771C353.976 74.771 363.563 78.7419 370.631 85.8101C377.699 92.8784 381.67 102.465 381.67 112.461C381.67 117.641 380.73 127.071 380.73 127.071L409.33 127.411L414.09 123.291L415.82 88.671L409.28 86.401ZM266.28 48.061L84.17 46.061C84.17 46.061 102.56 11.161 113.7 9.06097C127.03 6.54097 198.59 6.06095 212.92 10.8809C229.55 16.5009 260.28 40.1909 260.28 40.1909L266.28 48.061Z" fill="url(#paint0_linear)"/>
<path d="M409.28 86.401V70.491L298.49 50.421L280.37 49.991C280.37 49.991 253.56 23.891 227.91 11.271C226.91 10.771 234.86 10.2709 233.85 9.82095C227.7 7.02095 212.68 4.96097 207.19 4.15097C177.78 -0.189034 111.94 3.38095 111.94 3.38095C108.19 3.38095 97.4 4.67097 94.28 6.65097C93.28 7.31097 99.41 7.86094 98.51 8.72094L58.42 44.451H15.42L5.90001 53.211L6.77 83.401L2 86.9709V111.311L46.32 121.311C46.32 121.311 46.1 114.961 46.1 110.461C46.2611 100.573 50.3023 91.1437 57.3521 84.2078C64.4019 77.2719 73.8953 73.3848 83.785 73.3848C93.6747 73.3848 103.168 77.2719 110.218 84.2078C117.268 91.1437 121.309 100.573 121.47 110.461C121.47 115.271 122.92 129.101 122.92 129.101L306.92 131.271C306.92 131.271 306.29 117.341 306.29 112.461C306.29 102.465 310.261 92.8784 317.329 85.8101C324.397 78.7419 333.984 74.771 343.98 74.771C353.976 74.771 363.563 78.7419 370.631 85.8101C377.699 92.8784 381.67 102.465 381.67 112.461C381.67 117.641 380.73 127.071 380.73 127.071L409.33 127.411L414.09 123.291L415.82 88.671L409.28 86.401ZM266.28 48.061L84.17 46.061C84.17 46.061 102.56 11.161 113.7 9.06097C127.03 6.54097 198.59 6.06095 212.92 10.8809C229.55 16.5009 260.28 40.1909 260.28 40.1909L266.28 48.061Z" stroke="#050505" stroke-width="2.5" stroke-miterlimit="10"/>
<path d="M5.92004 53.2109L279.43 56.2109L313.23 52.9609" stroke="#050505" stroke-width="1.5" stroke-miterlimit="10"/>
<path d="M6.92004 64.861H16.54C20.94 64.861 29.92 79.311 29.92 79.311H6.92004V64.861Z" fill="#FF400D" stroke="#050505" stroke-width="1.5" stroke-miterlimit="10"/>
<path d="M6.92004 72.5909H15.58L20.94 79.2709H6.92004V72.5909Z" fill="#FF400D" stroke="#050505" stroke-width="1.5" stroke-miterlimit="10"/>
<path d="M7.02002 82.9709L57.16 83.9709" stroke="#050505" stroke-width="1.5" stroke-miterlimit="10"/>
<path d="M113.11 86.851H316.23" stroke="#050505" stroke-width="1.5" stroke-miterlimit="10"/>
<path d="M266.95 48.1609L273.51 55.9309H279.51C279.51 55.9309 288.8 80.4809 283.36 120.431" stroke="#050505" stroke-width="1.5" stroke-miterlimit="10"/>
<path d="M156.68 8.29102L152.1 48.101L145.82 56.681C145.82 56.681 142.88 102.781 153.82 119.491" stroke="#050505" stroke-width="1.5" stroke-miterlimit="10"/>
<path d="M122.06 119.601H306.42" stroke="#050505" stroke-width="1.5" stroke-miterlimit="10"/>
<path d="M371.69 86.0909H409.02V73.4009L395.6 71.5909L386.14 72.6809L389.21 85.5609L409.02 86.0909" fill="#D6D7D8"/>
<path d="M371.69 86.0909H409.02V73.4009L395.6 71.5909L386.14 72.6809L389.21 85.5609L409.02 86.0909" stroke="#050505" stroke-width="1.5" stroke-miterlimit="10"/>
<path d="M390.31 98.0909V93.5709H411.69L408.02 98.0909H390.31Z" fill="#FFB000" stroke="#050505" stroke-miterlimit="10"/>
<path d="M392.18 102.781H407.27V118.711L392.18 102.781Z" fill="#0B2B59" stroke="#050505" stroke-width="1.5" stroke-miterlimit="10"/>
<path d="M330.33 54.9609L333.91 51.9809L348.27 50.9609V54.1509L352.6 55.2109V59.4009L330.33 54.9609Z" fill="#0071BC" stroke="#050505" stroke-width="2.5" stroke-miterlimit="10"/>
<path d="M252.38 34.6409V50.3009C252.38 50.3009 257.81 49.4309 259.54 48.8509C266.54 46.4809 266.41 39.9209 259.54 37.1009C257.79 36.3809 252.38 34.6409 252.38 34.6409Z" fill="url(#paint1_linear)" stroke="#050505" stroke-width="2.5" stroke-miterlimit="10"/>
<path d="M36.49 44.1209L34.54 37.6509L17.42 12.9609H2.03003L13.93 38.2709L14.42 44.1209H36.49Z" fill="url(#paint2_linear)" stroke="#050505" stroke-width="2.5" stroke-miterlimit="10"/>
<path d="M14.49 38.5911H34.85" stroke="#050505" stroke-width="1.5" stroke-miterlimit="10"/>
<path d="M67.12 60.0909H50.82V70.6009H67.12V60.0909Z" stroke="#050505" stroke-width="1.5" stroke-miterlimit="10"/>
<path d="M167.23 66.8209H154.92L152.92 61.5709H169.23L167.23 66.8209Z" stroke="#050505" stroke-width="1.5" stroke-miterlimit="10"/>
<path d="M388.38 78.481L392.62 78.301L390.8 73.4709L387.14 73.831L388.38 78.481Z" fill="#F7F4F2"/>
<path d="M394.55 77.9909L402.65 77.8109L401.96 73.4709L392.18 73.3409L394.55 77.9909Z" fill="#F7F4F2"/>
<path d="M399.72 85.841L395.6 71.591L382.75 65.761" stroke="#0F0F0E" stroke-miterlimit="10"/>
<path d="M344.56 145.531C363.078 145.531 378.09 130.519 378.09 112.001C378.09 93.4829 363.078 78.4709 344.56 78.4709C326.042 78.4709 311.03 93.4829 311.03 112.001C311.03 130.519 326.042 145.531 344.56 145.531Z" fill="black"/>
<path d="M344.56 139.121C359.538 139.121 371.68 126.979 371.68 112.001C371.68 97.023 359.538 84.881 344.56 84.881C329.582 84.881 317.44 97.023 317.44 112.001C317.44 126.979 329.582 139.121 344.56 139.121Z" stroke="#FCEE21" stroke-width="2" stroke-miterlimit="10"/>
<path d="M347.46 84.891H342.26V109.341H347.46V84.891Z" fill="#FCEE21"/>
<path d="M333.505 87.0746L329.001 89.6746L341.226 110.849L345.73 108.249L333.505 87.0746Z" fill="#FCEE21"/>
<path d="M322.533 95.9328L319.933 100.436L341.107 112.661L343.708 108.158L322.533 95.9328Z" fill="#FCEE21"/>
<path d="M317.45 109.101V114.301H341.9V109.101H317.45Z" fill="#FCEE21"/>
<path d="M319.63 123.043L322.23 127.546L343.404 115.321L340.804 110.818L319.63 123.043Z" fill="#FCEE21"/>
<path d="M328.487 134.026L332.99 136.626L345.215 115.452L340.712 112.852L328.487 134.026Z" fill="#FCEE21"/>
<path d="M341.65 139.111H346.85V114.661H341.65V139.111Z" fill="#FCEE21"/>
<path d="M355.601 136.926L360.104 134.326L347.879 113.152L343.376 115.752L355.601 136.926Z" fill="#FCEE21"/>
<path d="M366.58 128.065L369.18 123.562L348.006 111.337L345.406 115.84L366.58 128.065Z" fill="#FCEE21"/>
<path d="M371.66 114.901V109.701H347.21V114.901H371.66Z" fill="#FCEE21"/>
<path d="M369.481 100.957L366.881 96.4532L345.707 108.678L348.307 113.182L369.481 100.957Z" fill="#FCEE21"/>
<path d="M362.906 91.4088L358.382 88.8088L346.157 110.08L350.681 112.68L362.906 91.4088Z" fill="#FCEE21"/>
<path d="M344.56 115.591C346.543 115.591 348.15 113.984 348.15 112.001C348.15 110.018 346.543 108.411 344.56 108.411C342.577 108.411 340.97 110.018 340.97 112.001C340.97 113.984 342.577 115.591 344.56 115.591Z" fill="#CCCCCC"/>
<g opacity="0.2">
<path opacity="0.2" d="M344.56 119.211C348.542 119.211 351.77 115.983 351.77 112.001C351.77 108.019 348.542 104.791 344.56 104.791C340.578 104.791 337.35 108.019 337.35 112.001C337.35 115.983 340.578 119.211 344.56 119.211Z" fill="#CCCCCC"/>
</g>
<defs>
<linearGradient id="paint0_linear" x1="2.02" y1="66.631" x2="415.77" y2="66.631" gradientUnits="userSpaceOnUse">
<stop offset="0.1" stop-color="#1BA0BD"/>
<stop offset="0.61" stop-color="#0075BE"/>
<stop offset="0.99" stop-color="#00537A"/>
</linearGradient>
<linearGradient id="paint1_linear" x1="6065.68" y1="5008.41" x2="6218.72" y2="5008.41" gradientUnits="userSpaceOnUse">
<stop offset="0.1" stop-color="#1BA0BD"/>
<stop offset="0.61" stop-color="#0075BE"/>
<stop offset="0.99" stop-color="#00537A"/>
</linearGradient>
<linearGradient id="paint2_linear" x1="7580.82" y1="9475.63" x2="8768.31" y2="9475.63" gradientUnits="userSpaceOnUse">
<stop offset="0.1" stop-color="#1BA0BD"/>
<stop offset="0.61" stop-color="#0075BE"/>
<stop offset="0.99" stop-color="#00537A"/>
</linearGradient>
</defs>
</svg>
