<?xml version="1.0" encoding="utf-8"?>
<!-- Generator: Adobe Illustrator 23.0.2, SVG Export Plug-In . SVG Version: 6.00 Build 0)  -->
<svg version="1.1" id="图层_1" xmlns="http://www.w3.org/2000/svg" xmlns:xlink="http://www.w3.org/1999/xlink" x="0px" y="0px"
	 viewBox="0 0 800 800" style="enable-background:new 0 0 800 800;" xml:space="preserve">
<style type="text/css">
	.st0{fill:#FFFFFF;}
	.st1{fill:#54931D;}
	.st2{fill:#91DC5B;}
	.st3{fill:none;stroke:#000000;stroke-width:4;stroke-linecap:round;stroke-linejoin:round;stroke-miterlimit:10;}
	.st4{fill:none;stroke:#000000;stroke-width:4;stroke-linecap:round;stroke-miterlimit:10;}
</style>
<g>
	<path class="st0" d="M678.2,366.1c-14.2,0-25.8,11.5-25.8,25.8v50.3h-23.9V286.3c0-24.2-19.6-43.9-43.9-43.9h0
		c-24.2,0-43.9,19.6-43.9,43.9v92.1h-23.6v-50.3c0-14.2-11.5-25.8-25.8-25.8h0c-14.2,0-25.8,11.5-25.8,25.8v76.1l0,0
		c0,14.2,11.5,25.8,25.8,25.8h49.3v128.2h87.7v-64.4h49.7c14.2,0,25.8-11.5,25.8-25.8l0,0v-76.1C704,377.7,692.5,366.1,678.2,366.1z
		"/>
	<rect x="619.1" y="493.8" class="st1" width="20.1" height="64.4"/>
	<path class="st1" d="M507.8,328.1v50.3h20.1v-50.3c0-14.2-11.5-25.8-25.8-25.8h0c-3.6,0-7,0.7-10,2
		C501.3,308.2,507.8,317.4,507.8,328.1z"/>
	<path class="st1" d="M619.1,286.3v155.9h20.1V286.3c0-24.2-19.6-43.9-43.9-43.9h0c-3.5,0-6.8,0.4-10,1.2
		C604.7,248.1,619.1,265.5,619.1,286.3z"/>
	<path class="st1" d="M688.9,366.1c-3.6,0-7,0.7-10,2c9.2,3.9,15.7,13.1,15.7,23.7V468c0,14.2-11.5,25.8-25.8,25.8h20.1
		c14.2,0,25.8-11.5,25.8-25.8v-76.1C714.6,377.7,703.1,366.1,688.9,366.1z"/>
	<path class="st2" d="M694.6,468v-76.1c0-10.7-6.5-19.8-15.7-23.7c-9.2,3.9-15.7,13.1-15.7,23.7v50.3H643h-3.9h-20.1V286.3
		c0-20.8-14.4-38.2-33.8-42.7c-19.4,4.5-33.8,21.9-33.8,42.7v92.1h-20.1h-3.5h-20.1v-50.3c0-10.7-6.5-19.8-15.7-23.7
		c-9.2,3.9-15.7,13.1-15.7,23.7v76.1c0,14.2,11.5,25.8,25.8,25.8h29.3h20.1v128.2h67.7v-64.4h20.1h29.6
		C683,493.8,694.6,482.2,694.6,468z"/>
	<path class="st3" d="M545.3,266.8c-2.9,5.9-4.5,12.5-4.5,19.5v92.1h-23.6v-50.3c0-14.2-11.5-25.8-25.8-25.8h0
		c-14.2,0-25.8,11.5-25.8,25.8v76.1l0,0c0,14.2,11.5,25.8,25.8,25.8h49.3v128.2h87.7v-64.4h49.7c14.2,0,25.8-11.5,25.8-25.8l0,0
		v-76.1c0-14.2-11.5-25.8-25.8-25.8s-25.8,11.5-25.8,25.8v50.3h-23.9V286.3c0-24.2-19.6-43.9-43.9-43.9h0c-12.2,0-23.3,5-31.2,13"/>
	<line class="st3" x1="479.9" y1="331.3" x2="479.9" y2="366.1"/>
	<line class="st3" x1="495.8" y1="350.5" x2="495.8" y2="397.2"/>
	<line class="st3" x1="686.7" y1="400.9" x2="686.7" y2="442.2"/>
	<line class="st3" x1="671.3" y1="424.4" x2="671.3" y2="460.7"/>
	<line class="st3" x1="612.2" y1="358.7" x2="612.2" y2="400.9"/>
	<line class="st3" x1="612.2" y1="479.7" x2="612.2" y2="502.5"/>
	<line class="st3" x1="612.2" y1="523.4" x2="612.2" y2="558.2"/>
	<line class="st3" x1="597" y1="397.2" x2="597" y2="438"/>
	<line class="st3" x1="597" y1="465.6" x2="597" y2="523.4"/>
	<line class="st3" x1="562" y1="337.6" x2="562" y2="362.9"/>
	<line class="st3" x1="568.1" y1="438" x2="568.1" y2="487.1"/>
	<line class="st3" x1="568.1" y1="500" x2="568.1" y2="558.2"/>
	<g>
		<g>
			<circle cx="566.9" cy="284.8" r="4.9"/>
			<circle cx="601.6" cy="284.8" r="4.9"/>
		</g>
		<path class="st4" d="M595.4,297.8c0,6.3-5.1,11.3-11.3,11.3s-11.3-5.1-11.3-11.3"/>
	</g>
</g>
<g>
	<path class="st0" d="M273.4,450.9c-7.8,0-14.2,6.3-14.2,14.2v27.7h-13.1v-85.7c0-13.3-10.8-24.1-24.1-24.1h0
		c-13.3,0-24.1,10.8-24.1,24.1v50.6H185V430c0-7.8-6.3-14.2-14.2-14.2h0c-7.8,0-14.2,6.3-14.2,14.2v41.8l0,0
		c0,7.8,6.3,14.2,14.2,14.2h27.1v70.5h48.2v-35.4h27.3c7.8,0,14.2-6.3,14.2-14.2l0,0v-41.8C287.6,457.3,281.3,450.9,273.4,450.9z"/>
	<rect x="241" y="521.1" class="st1" width="11" height="35.4"/>
	<path class="st1" d="M179.8,430v27.7h11V430c0-7.8-6.3-14.2-14.2-14.2h0c-2,0-3.8,0.4-5.5,1.1C176.2,419.1,179.8,424.2,179.8,430z"
		/>
	<path class="st1" d="M241,407.1v85.7h11v-85.7c0-13.3-10.8-24.1-24.1-24.1h0c-1.9,0-3.7,0.2-5.5,0.6C233,386.1,241,395.7,241,407.1
		z"/>
	<path class="st1" d="M279.3,450.9c-2,0-3.8,0.4-5.5,1.1c5.1,2.1,8.6,7.2,8.6,13v41.8c0,7.8-6.3,14.2-14.2,14.2h11
		c7.8,0,14.2-6.3,14.2-14.2v-41.8C293.4,457.3,287.1,450.9,279.3,450.9z"/>
	<path class="st2" d="M282.4,506.9v-41.8c0-5.9-3.6-10.9-8.6-13c-5.1,2.1-8.6,7.2-8.6,13v27.7h-11H252h-11v-85.7
		c0-11.4-7.9-21-18.6-23.5c-10.7,2.5-18.6,12-18.6,23.5v50.6h-11h-1.9h-11V430c0-5.9-3.6-10.9-8.6-13c-5.1,2.1-8.6,7.2-8.6,13v41.8
		c0,7.8,6.3,14.2,14.2,14.2h16.1h11v70.5H241v-35.4h11h16.3C276.1,521.1,282.4,514.7,282.4,506.9z"/>
	<path class="st3" d="M287.6,483v-17.9c0-7.8-6.3-14.2-14.2-14.2s-14.2,6.3-14.2,14.2v27.7h-13.1v-85.7c0-13.3-10.8-24.1-24.1-24.1
		h0c-6.9,0-13,2.9-17.4,7.4"/>
	<path class="st3" d="M287.6,483"/>
	<path class="st3" d="M200.1,397c-1.4,3.1-2.2,6.5-2.2,10.1v50.6H185V430c0-7.8-6.3-14.2-14.2-14.2h0c-7.8,0-14.2,6.3-14.2,14.2
		v41.8l0,0c0,7.8,6.3,14.2,14.2,14.2h27.1v70.5h48.2v-35.4h27.3c7.8,0,14.2-6.3,14.2-14.2l0,0v-14"/>
	<line class="st3" x1="164.4" y1="431.8" x2="164.4" y2="450.9"/>
	<line class="st3" x1="173.2" y1="442.4" x2="173.2" y2="468"/>
	<line class="st3" x1="278.1" y1="470" x2="278.1" y2="492.8"/>
	<line class="st3" x1="269.7" y1="483" x2="269.7" y2="502.9"/>
	<line class="st3" x1="237.2" y1="446.9" x2="237.2" y2="470"/>
	<line class="st3" x1="237.2" y1="513.4" x2="237.2" y2="525.9"/>
	<line class="st3" x1="237.2" y1="537.3" x2="237.2" y2="556.5"/>
	<line class="st3" x1="228.8" y1="468" x2="228.8" y2="490.4"/>
	<line class="st3" x1="228.8" y1="505.6" x2="228.8" y2="537.3"/>
	<line class="st3" x1="209.6" y1="435.3" x2="209.6" y2="449.2"/>
	<line class="st3" x1="212.9" y1="490.4" x2="212.9" y2="517.4"/>
	<line class="st3" x1="212.9" y1="524.5" x2="212.9" y2="556.5"/>
	<g>
		<g>
			<circle cx="212.3" cy="406.3" r="2.7"/>
			<circle cx="231.3" cy="406.3" r="2.7"/>
		</g>
		<path class="st4" d="M227.9,413.4c0,3.4-2.8,6.2-6.2,6.2s-6.2-2.8-6.2-6.2"/>
	</g>
</g>
</svg>
