
<svg xmlns="http://www.w3.org/2000/svg" version="1.1" xmlns:xlink="http://www.w3.org/1999/xlink" preserveAspectRatio="none" x="0px" y="0px" width="1024px" height="1024px" viewBox="0 0 1024 1024">
<defs>
<linearGradient id="Gradient_1" gradientUnits="userSpaceOnUse" x1="60.112500000000004" y1="313.9625" x2="83.28750000000001" y2="273.8375" spreadMethod="pad">
<stop  offset="0%" stop-color="#BFC1D0"/>

<stop  offset="3.9215686274509802%" stop-color="#A0A6BF"/>

<stop  offset="43.92156862745098%" stop-color="#A0A6BF"/>

<stop  offset="52.549019607843135%" stop-color="#CFCFDA"/>

<stop  offset="56.86274509803921%" stop-color="#CFCFDA"/>

<stop  offset="60%" stop-color="#C4C8D7"/>

<stop  offset="92.94117647058823%" stop-color="#C4C8D7"/>

<stop  offset="96.47058823529412%" stop-color="#BEC3D3"/>

<stop  offset="100%" stop-color="#B3B7CA"/>
</linearGradient>

<linearGradient id="Gradient_2" gradientUnits="userSpaceOnUse" x1="71.58749999999999" y1="282.4" x2="59.012499999999996" y2="260.6" spreadMethod="pad">
<stop  offset="27.45098039215686%" stop-color="#8E8EEF"/>

<stop  offset="34.11764705882353%" stop-color="#989BF1"/>

<stop  offset="35.68627450980392%" stop-color="#9B9FF1"/>

<stop  offset="41.568627450980394%" stop-color="#9A9EF1"/>

<stop  offset="47.05882352941177%" stop-color="#979AF1"/>

<stop  offset="53.333333333333336%" stop-color="#8E8EEF"/>
</linearGradient>

<g id="Layer0_0_MEMBER_0_FILL">
<path fill="#F5F2E8" stroke="none" d="
M 72.6 320.65
L 78.55 316.85
Q 81 315.45 81 312.65 81 309.85 78.55 308.45
L 63.15 299.55
Q 58.45 296.8 53.05 296.8 47.65 296.8 42.9 299.55
L 36.95 303.3
Q 34.5 304.75 34.5 307.55 34.5 310.35 36.95 311.75
L 52.4 320.65
Q 57.1 323.35 62.5 323.35 67.9 323.35 72.6 320.65 Z"/>
</g>

<g id="Layer0_0_MEMBER_1_MEMBER_0_FILL">
<path fill="#F5F2E8" stroke="none" d="
M 76.5 312.65
Q 76.5 309.85 74.05 308.45
L 58.6 299.55
Q 53.9 296.8 48.5 296.8 43.1 296.8 38.4 299.55
L 32.45 303.3
Q 30 304.75 30 307.55 30 310.35 32.45 311.75
L 47.85 320.65
Q 52.7 323.45 59.45 323.8 66.45 324.15 71 321.5
L 73.25 317.35 74.05 316.85
Q 76.5 315.45 76.5 312.65 Z"/>
</g>

<g id="Layer0_0_MEMBER_1_MEMBER_1_FILL">
<path fill="#6969D6" stroke="none" d="
M 47.55 300.85
L 44 300.4 44.25 302.1
Q 44.85 303.9 46.4 304.45 48 304.95 47.95 302.95
L 47.55 300.85 Z"/>
</g>

<g id="Layer0_0_MEMBER_1_MEMBER_2_FILL">
<path fill="#7473EC" stroke="none" d="
M 46.55 269.35
L 44.7 275.45 46.05 301.55 63 291.8 61.95 264.1 46.55 269.35 Z"/>
</g>

<g id="Layer0_0_MEMBER_1_MEMBER_3_MEMBER_0_FILL">
<path fill="#7D7CED" stroke="none" d="
M 65.05 296
L 65.05 274.4 63 273.2 63 294.85
Q 63 298.25 65.1 301.9 67.2 305.5 70.2 307.2
L 76 310.6
Q 78.95 312.3 81.1 311.1 83.2 309.9 83.2 306.5
L 83.2 298.75 81.15 297.6 81.15 305.3
Q 81.15 307.75 79.65 308.6 78.15 309.45 76 308.25
L 70.2 304.85
Q 68.05 303.65 66.55 301.05 65.05 298.45 65.05 296 Z"/>
</g>

<g id="Layer0_0_MEMBER_1_MEMBER_3_MEMBER_1_FILL">
<path fill="#817FEF" stroke="none" d="
M 64.35 296.6
L 64.55 275.4 63 273.2 46.05 283 46.95 306 48.8 311.55 53.85 316.5 62.45 319.85 77.95 309.35
Q 76 308.8 73.75 307.9 69.25 306.05 67.6 304.15 66 302.25 65 299.25
L 64.35 296.6 Z"/>
</g>

<g id="Layer0_0_MEMBER_1_MEMBER_3_MEMBER_2_FILL">
<path fill="#6969D6" stroke="none" d="
M 46.05 283
L 48.1 284.2 57.65 280.75
Q 60.6 279.4 63.6 277.55 69.5 273.9 69.5 271.45 69.5 268.15 65.45 267.45 60.95 266.7 55.4 270.5 50.2 274 47.6 278.85 46.3 281.3 46.05 283 Z"/>
</g>

<g id="Layer0_0_MEMBER_1_MEMBER_3_MEMBER_3_FILL">
<path fill="#817FEF" stroke="none" d="
M 48.1 284.2
L 51.45 285 59.7 281.95
Q 62.65 280.6 65.65 278.75 71.55 275.1 71.55 272.65 71.55 269.35 67.5 268.65 63.05 267.9 57.45 271.65 52.25 275.2 49.65 280.05 48.35 282.5 48.1 284.2 Z"/>
</g>

<g id="Layer0_0_MEMBER_1_MEMBER_3_MEMBER_4_MEMBER_0_FILL">
<path fill="#6969D6" stroke="none" d="
M 47.35 293.4
Q 48.2 293.7 49 293.7 50.25 293.7 51.55 293
L 65.5 284.95
Q 67.45 283.85 68.4 281.6 69.35 279.35 68.8 277.15 68.2 274.8 66.15 273.95 64.15 273.1 61.95 274.35
L 48 282.4
Q 46.05 283.5 45.1 285.8 44.15 288 44.7 290.2 45.35 292.55 47.35 293.4
M 50.1 290.55
Q 49.25 291.05 48.45 290.75 47.75 290.45 47.5 289.45 47.15 288.25 47.75 286.85 48.3 285.5 49.4 284.85
L 63.4 276.8
Q 63.95 276.5 64.5 276.5 64.85 276.5 65.05 276.6 65.75 276.9 66.05 277.9 66.35 279.1 65.75 280.5 65.2 281.85 64.1 282.45
L 50.1 290.55 Z"/>
</g>

<g id="Layer0_0_MEMBER_1_MEMBER_3_MEMBER_5_FILL">
<path fill="#817FEF" stroke="none" d="
M 48.1 289.05
Q 51.8 287.35 55.55 285.2 63.1 280.9 63.55 278.6 64 276.25 61.9 275.15
L 59.75 274.55 54.75 277.55
Q 49.6 280.7 48.95 281.5 47.9 282.85 48.1 289.05 Z"/>
</g>

<g id="Layer0_0_MEMBER_1_MEMBER_3_MEMBER_6_FILL">
<path fill="#7D7CED" stroke="none" d="
M 65.65 308.15
L 63.95 321 81.25 311
Q 82.15 308.7 82.3 306.4
L 82.25 304.6 65.65 308.15 Z"/>
</g>

<g id="Layer0_0_MEMBER_1_MEMBER_4_MEMBER_0_FILL">
<path fill="#6969D6" stroke="none" d="
M 48.1 284.2
L 46.05 283 46.05 304.6
Q 46.05 308 48.15 311.65 50.25 315.3 53.25 317
L 59.05 320.35
Q 62 322.05 64.15 320.9 66.25 319.7 66.25 316.3
L 66.25 308.55 64.2 307.35 64.2 315.1
Q 64.2 317.55 62.7 318.4 61.2 319.25 59.05 318
L 53.25 314.65
Q 51.1 313.4 49.6 310.85 48.1 308.25 48.1 305.8
L 48.1 284.2 Z"/>
</g>

<g id="Layer0_0_MEMBER_1_MEMBER_5_MEMBER_0_FILL">
<path fill="#C4C8D7" stroke="none" d="
M 62 295.75
Q 62.65 292.65 62.9 289.8 63.4 284.1 61.55 285.5 59.35 287.1 58.85 289.8 58.4 292.2 58.4 300.85 58.4 307.8 58.95 311 59.2 312.6 59.45 312.8
L 62 295.75 Z"/>
</g>

<g id="Layer0_0_MEMBER_1_MEMBER_5_MEMBER_1_FILL">
<path fill="#C4C8D7" stroke="none" d="
M 59.8 287.2
Q 64.6 284.85 69.8 281.95 80.25 276.2 82.45 273.75 80.25 273.75 73.5 277.25 67.4 280.5 64.05 283 60.2 285.95 59.8 287.2 Z"/>
</g>

<g id="Layer0_0_MEMBER_1_MEMBER_5_MEMBER_2_FILL">
<path fill="url(#Gradient_1)" stroke="none" d="
M 84.2 282.4
L 87.5 276.5
Q 84 273.8 82.45 273.75 81.7 273.75 80.8 274.2
L 62.65 284.7
Q 61.25 285.55 60.2 287.25 59.2 289 59.2 290.6
L 59.2 311.45
Q 59.2 312.55 59.7 313.2
L 60.75 314.25
Q 62.25 315.4 64.75 316.2 65.3 315.65 68.6 309.95
L 80.8 302.95
Q 82.2 302.15 83.2 300.4 84.2 298.65 84.2 297.05
L 84.2 282.4 Z"/>
</g>

<g id="Layer0_0_MEMBER_1_MEMBER_5_MEMBER_3_MEMBER_0_FILL">
<path fill="#EFF0F5" stroke="none" d="
M 61.55 296.3
Q 61.55 295.3 60.8 294.9 60.5 294.7 60.3 294.9 60.05 295.05 60.05 295.45
L 60.05 302.25
Q 60.05 303.2 60.8 303.65 61.1 303.85 61.35 303.7 61.55 303.5 61.55 303.1
L 61.55 296.3 Z"/>
</g>

<g id="Layer0_0_MEMBER_1_MEMBER_5_MEMBER_3_MEMBER_1_FILL">
<path fill="#C4C8D7" stroke="none" d="
M 61.25 296.5
Q 61.25 295.5 60.5 295.05 60.2 294.9 60 295.05 59.75 295.25 59.75 295.65
L 59.75 302.45
Q 59.75 303.4 60.5 303.85 60.8 304.05 61.05 303.9 61.25 303.7 61.25 303.3
L 61.25 296.5 Z"/>
</g>

<g id="Layer0_0_MEMBER_1_MEMBER_5_MEMBER_3_MEMBER_2_FILL">
<path fill="#3A3F47" stroke="none" d="
M 61.25 307.05
Q 61.25 306.75 61 306.6 60.7 306.4 60.7 306.75 60.7 307.05 61 307.15 61.1 307.25 61.15 307.2 61.25 307.15 61.25 307.05 Z"/>
</g>

<g id="Layer0_0_MEMBER_1_MEMBER_5_MEMBER_3_MEMBER_3_FILL">
<path fill="#3A3F47" stroke="none" d="
M 61.25 308.1
Q 61.25 307.9 61 307.65 60.7 307.55 60.7 307.8 60.7 308.15 61 308.25 61.1 308.35 61.15 308.3 61.25 308.25 61.25 308.1 Z"/>
</g>

<g id="Layer0_0_MEMBER_1_MEMBER_5_MEMBER_3_MEMBER_4_FILL">
<path fill="#3A3F47" stroke="none" d="
M 61.25 309.2
Q 61.25 309 61 308.75 60.7 308.65 60.7 308.9 60.7 309.15 61 309.35 61.1 309.45 61.15 309.35 61.25 309.3 61.25 309.2 Z"/>
</g>

<g id="Layer0_0_MEMBER_1_MEMBER_5_MEMBER_4_MEMBER_0_FILL">
<path fill="#EFF0F5" stroke="none" d="
M 88.35 278.55
Q 88.35 276.95 87.35 276.4 86.4 275.8 84.95 276.6
L 66.75 287.1
Q 65.35 287.95 64.35 289.65 63.35 291.4 63.35 293
L 63.35 313.85
Q 63.35 315.45 64.35 316.05 65.35 316.65 66.75 315.8
L 84.95 305.3
Q 86.35 304.5 87.35 302.8 88.35 301.1 88.35 299.45
L 88.35 278.55 Z"/>
</g>

<g id="Layer0_0_MEMBER_1_MEMBER_5_MEMBER_4_MEMBER_1_FILL">
<path fill="#3A3F47" stroke="none" d="
M 87.35 279.25
Q 87.35 278.1 86.6 277.65 85.85 277.25 84.85 277.85
L 66.9 288.2
Q 65.85 288.8 65.1 290.1 64.35 291.35 64.35 292.55
L 64.35 313.15
Q 64.35 314.35 65.1 314.8 65.85 315.2 66.9 314.6
L 84.85 304.25
Q 85.85 303.65 86.6 302.35 87.35 301.05 87.35 299.85
L 87.35 279.25 Z"/>
</g>

<g id="Layer0_0_MEMBER_1_MEMBER_5_MEMBER_4_MEMBER_2_FILL">
<path fill="#3A3F47" stroke="none" d="
M 87 280.25
Q 87 279.15 86.3 278.75 85.6 278.35 84.6 278.9
L 67.65 288.7
Q 66.65 289.25 65.95 290.45 65.25 291.65 65.25 292.8
L 65.25 312.25
Q 65.25 313.4 65.95 313.8 66.65 314.2 67.65 313.65
L 84.6 303.85
Q 85.6 303.3 86.3 302.1 87 300.85 87 299.75
L 87 280.25 Z"/>
</g>

<g id="Layer0_0_MEMBER_1_MEMBER_5_MEMBER_4_MEMBER_3_FILL">
<path fill="#565A62" stroke="none" d="
M 85.4 280.95
Q 85.85 280.7 86.15 280.15 86.45 279.65 86.45 279.2 86.45 278.7 86.15 278.55 85.85 278.4 85.4 278.6
L 66.8 289.35
Q 65.8 290 65.8 291.1 65.8 291.6 66.1 291.75 66.4 291.95 66.8 291.7
L 85.4 280.95 Z"/>
</g>

<g id="Layer0_0_MEMBER_1_MEMBER_6_FILL">
<path fill="url(#Gradient_2)" stroke="none" d="
M 83.2 275.7
Q 83.2 272.3 81.1 268.65 78.95 265.05 76 263.3
L 68.1 258.75
Q 65.35 257.15 63.35 258.1
L 63.25 258.1 63.05 258.25 45.9 268.1 48 268.3 62.85 277.2 66.25 285.5 83.2 275.7 Z"/>
</g>

<g id="Layer0_0_MEMBER_1_MEMBER_7_MEMBER_0_MEMBER_0_FILL">
<path fill="#FEC2E2" stroke="none" d="
M 78.8 301.25
Q 78.25 301.55 78.25 302.15
L 78.25 303.7
Q 78.25 304.3 78.8 304
L 80.15 303.25
Q 80.65 302.9 80.65 302.3
L 80.65 300.8
Q 80.65 300.15 80.15 300.5
L 78.8 301.25 Z"/>
</g>

<g id="Layer0_0_MEMBER_1_MEMBER_7_MEMBER_1_FILL">
<path fill="#FC4E4F" stroke="none" d="
M 80.35 301.5
Q 80.35 301.25 80.2 301.2 80 301.1 79.8 301.2
L 79.45 301.6
Q 79.3 301.5 79.1 301.65 78.6 301.9 78.6 302.5
L 78.6 302.6
Q 78.6 303.1 79.45 303.3 80.35 302.1 80.35 301.6
L 80.35 301.5 Z"/>
</g>

<g id="Layer0_0_MEMBER_1_MEMBER_8_MEMBER_0_FILL">
<path fill="#6969D6" stroke="none" d="
M 47.55 270.5
Q 49.05 269.65 51.15 270.9
L 59.05 275.45
Q 61.2 276.65 62.7 279.25 64.2 281.85 64.2 284.3
L 66.25 285.5 66.25 285.45
Q 66.25 282.05 64.15 278.45 62 274.8 59.05 273.1
L 51.15 268.55
Q 48.2 266.85 46.1 268.05 44 269.2 44 272.6
L 44 300.4 46.05 301.55 46.05 273.8
Q 46.05 271.35 47.55 270.5 Z"/>
</g>

<g id="Layer0_0_MEMBER_1_MEMBER_9_MEMBER_0_FILL">
<path fill="#23DC92" stroke="none" d="
M 84.85 289.15
L 82.7 290.4
Q 81.85 290.85 81.85 292.05
L 81.85 294.15
Q 81.85 294.65 82.1 294.85 82.35 295.05 82.7 294.85
L 84.85 293.6
Q 85.7 293.05 85.7 291.95
L 85.7 289.8
Q 85.7 289.3 85.45 289.1 85.2 288.95 84.85 289.15 Z"/>
</g>

<g id="Layer0_0_MEMBER_1_MEMBER_9_MEMBER_1_MEMBER_0_MEMBER_0_FILL">
<path fill="#C1C5D4" stroke="none" d="
M 84.75 292.15
L 84.45 292 84.15 292.5 84.45 292.7 84.75 292.15 Z"/>
</g>

<g id="Layer0_0_MEMBER_1_MEMBER_9_MEMBER_1_MEMBER_0_MEMBER_1_FILL">
<path fill="#FDB24A" stroke="none" d="
M 85.3 292.4
L 84.75 292.15 84.45 292.7 84.9 293.05
Q 85.1 293.15 85.3 292.8 85.5 292.5 85.3 292.4 Z"/>
</g>

<g id="Layer0_0_MEMBER_1_MEMBER_9_MEMBER_1_MEMBER_0_MEMBER_2_FILL">
<path fill="#F1F2F6" stroke="none" d="
M 84.35 290.35
Q 84 290.15 83.5 290.45 83 290.75 82.65 291.35 82.3 291.95 82.3 292.5 82.3 293.05 82.65 293.25 83 293.45 83.5 293.15 84 292.9 84.35 292.3 84.7 291.7 84.7 291.1 84.7 290.55 84.35 290.35 Z"/>
</g>

<g id="Layer0_0_MEMBER_1_MEMBER_9_MEMBER_1_MEMBER_0_MEMBER_3_FILL">
<path fill="#84D1ED" stroke="none" d="
M 84.2 290.65
Q 83.55 290.3 82.8 291.4 82.55 291.9 82.55 292.35 82.55 292.8 82.8 292.95 83.5 293.4 84.2 292.2 84.45 291.7 84.45 291.25 84.45 290.8 84.2 290.65 Z"/>
</g>

<g id="Layer0_0_MEMBER_1_MEMBER_9_MEMBER_1_MEMBER_1_FILL">
<path fill="#B9E5F5" stroke="none" d="
M 83.6 291
Q 83.45 290.85 83.1 291.2 82.75 291.6 82.85 291.8 83 292.05 83.35 291.6 83.7 291.25 83.6 291 Z"/>
</g>

<g id="Layer0_0_MEMBER_1_MEMBER_10_MEMBER_0_FILL">
<path fill="#84D1ED" stroke="none" d="
M 77.2 287.05
Q 77 286.85 76.65 287.05
L 74.55 288.25
Q 73.7 288.75 73.7 289.85
L 73.7 291.95
Q 73.7 293.05 74.55 292.6
L 76.65 291.4
Q 77.45 290.85 77.45 289.8
L 77.45 287.7
Q 77.45 287.2 77.2 287.05 Z"/>
</g>

<g id="Layer0_0_MEMBER_1_MEMBER_10_MEMBER_1_FILL">
<path fill="#F43C41" stroke="none" d="
M 75.8 289.9
L 76.6 287.45 75.35 289.85 75.8 289.9 Z"/>
</g>

<g id="Layer0_0_MEMBER_1_MEMBER_10_MEMBER_2_FILL">
<path fill="#F1F2F6" stroke="none" d="
M 75.35 289.85
L 74.55 292.3 75.8 289.9 75.35 289.85 Z"/>
</g>

<g id="Layer0_0_MEMBER_1_MEMBER_10_MEMBER_3_FILL">
<path fill="#F1F2F6" stroke="none" d="
M 75.9 289.55
Q 75.8 289.2 75.5 289.5 75.2 289.75 75.2 290.1 75.3 290.45 75.65 290.2 76 289.95 75.9 289.55 Z"/>
</g>

<g id="Layer0_0_MEMBER_1_MEMBER_10_MEMBER_4_FILL">
<path fill="#F43C41" stroke="none" d="
M 75.75 289.7
Q 75.65 289.55 75.55 289.65 75.35 289.85 75.4 290 75.4 290.2 75.6 290 75.75 289.95 75.75 289.7 Z"/>
</g>

<g id="Layer0_0_MEMBER_1_MEMBER_11_MEMBER_0_FILL">
<path fill="#CC783E" stroke="none" d="
M 72.15 305.3
Q 72.95 304.85 72.95 303.75
L 72.95 301.8
Q 72.95 301.35 72.7 301.2 72.5 301 72.15 301.2
L 70.15 302.35
Q 69.4 302.8 69.4 303.85
L 69.4 305.85
Q 69.4 306.25 69.65 306.45 69.85 306.65 70.15 306.45
L 72.15 305.3 Z"/>
</g>

<g id="Layer0_0_MEMBER_1_MEMBER_11_MEMBER_1_FILL">
<path fill="#FEE24F" stroke="none" d="
M 72.05 301.8
Q 71.9 301.65 71.9 301.9
L 71.8 302.2 71.7 302.25 71.5 302.45
Q 71.35 302.6 71.45 302.6
L 71.6 302.7 71.65 302.75 71.6 303.05
Q 71.6 303.2 71.7 303.1
L 71.9 302.85 72 302.8 72.2 302.8 72.3 302.65 72.25 302.4 72.45 302.05
Q 72.55 301.9 72.4 301.9
L 72.2 302 72.1 302 72.05 301.8 Z"/>
</g>

<g id="Layer0_0_MEMBER_1_MEMBER_11_MEMBER_2_FILL">
<path fill="#FEE24F" stroke="none" d="
M 71.15 303.6
L 70.95 303.3
Q 70.9 303.2 70.85 303.25 70.75 303.3 70.7 303.45
L 70.55 303.95 70.05 304.4
Q 69.95 304.45 69.9 304.6 69.85 304.7 69.95 304.7
L 70.25 304.9 70.25 305 70.2 305.5
Q 70.2 305.75 70.4 305.55
L 70.75 305.15 70.9 305.05 71.25 305.05
Q 71.55 305.05 71.45 304.75
L 71.4 304.35 71.45 304.2 71.75 303.7
Q 71.85 303.35 71.65 303.45
L 71.25 303.6
Q 71.2 303.65 71.15 303.6 Z"/>
</g>

<g id="Layer0_0_MEMBER_1_MEMBER_12_MEMBER_0_FILL">
<path fill="#F1F2F6" stroke="none" d="
M 65.75 305.65
L 65.75 306.95
Q 65.75 307.25 65.9 307.4 66.1 307.5 66.3 307.35
L 67.6 306.6
Q 68.15 306.35 68.15 305.6
L 68.15 304.3
Q 68.15 304 68 303.9 67.8 303.75 67.6 303.9
L 66.3 304.65
Q 65.75 304.95 65.75 305.65 Z"/>
</g>

<g id="Layer0_0_MEMBER_1_MEMBER_12_MEMBER_1_FILL">
<path fill="#F43C41" stroke="none" d="
M 67.95 305.05
Q 67.95 304.6 67.65 304.45 67.35 304.3 66.95 304.5 66.55 304.75 66.25 305.2 65.95 305.7 65.95 306.2 65.95 306.65 66.25 306.8 66.55 307 66.95 306.75 67.95 306.2 67.95 305.05 Z"/>
</g>

<g id="Layer0_0_MEMBER_1_MEMBER_12_MEMBER_2_MEMBER_0_FILL">
<path fill="#F1F2F6" stroke="none" d="
M 67.35 306.15
L 67.45 304.55 66.2 306.25 66.7 306.15 66.85 306.05 66.85 306.1 67.35 306.15 Z"/>
</g>

<g id="Layer0_0_MEMBER_1_MEMBER_12_MEMBER_2_MEMBER_1_FILL">
<path fill="#C4C8D7" stroke="none" d="
M 66.85 306.1
L 67.2 305.15 66.7 306.15 66.8 306.5 66.9 306.1 66.85 306.1 Z"/>
</g>

<g id="Layer0_0_MEMBER_1_MEMBER_13_MEMBER_0_FILL">
<path fill="#F43C41" stroke="none" d="
M 86.1 296.55
L 86.1 294.85
Q 86.1 294.5 85.9 294.35 85.65 294.2 85.4 294.35
L 83.7 295.35
Q 83 295.7 83 296.65
L 83 298.35
Q 83 298.75 83.2 298.9 83.4 299.05 83.7 298.85
L 85.4 297.9
Q 86.1 297.4 86.1 296.55 Z"/>
</g>

<g id="Layer0_0_MEMBER_1_MEMBER_13_MEMBER_1_MEMBER_0_FILL">
<path fill="#F1F2F6" stroke="none" d="
M 85.3 296.8
L 85.3 295 84.15 295.95 84.15 297.6 84.25 297.55 84.25 296.3 85.2 295.55 85.2 296.85 85.3 296.8 Z"/>
</g>

<g id="Layer0_0_MEMBER_1_MEMBER_13_MEMBER_1_MEMBER_1_FILL">
<path fill="#F1F2F6" stroke="none" d="
M 84.25 297.45
Q 84.15 297.25 83.8 297.6 83.5 297.9 83.65 298.15 83.75 298.4 84.05 298 84.35 297.7 84.25 297.45 Z"/>
</g>

<g id="Layer0_0_MEMBER_1_MEMBER_13_MEMBER_1_MEMBER_2_FILL">
<path fill="#F1F2F6" stroke="none" d="
M 85.3 296.7
Q 85.15 296.55 84.85 296.85 84.55 297.25 84.7 297.4 84.8 297.65 85.1 297.25 85.4 296.95 85.3 296.7 Z"/>
</g>

<g id="Layer0_0_MEMBER_1_MEMBER_14_MEMBER_0_FILL">
<path fill="#F43C41" stroke="none" d="
M 80.65 296.45
L 80.65 292.85
Q 80.65 292.05 80.25 291.7 79.8 291.4 79.2 291.75
L 75.6 293.8
Q 75 294.2 74.55 295 74.1 295.8 74.1 296.6
L 74.1 300.2
Q 74.1 301 74.55 301.35 75 301.7 75.6 301.3
L 79.2 299.25
Q 79.8 298.9 80.25 298.05 80.65 297.25 80.65 296.45 Z"/>
</g>

<g id="Layer0_0_MEMBER_1_MEMBER_14_MEMBER_1_FILL">
<path fill="#F1F2F6" stroke="none" d="
M 80.05 294.95
Q 80.05 293.7 79.25 293.25 78.5 292.8 77.4 293.45 76.25 294.1 75.5 295.45 74.7 296.8 74.7 298.1 74.7 299.35 75.5 299.8 76.25 300.25 77.4 299.6 78.5 298.95 79.25 297.6 80.05 296.25 80.05 294.95 Z"/>
</g>

<g id="Layer0_0_MEMBER_1_MEMBER_14_MEMBER_2_FILL">
<path fill="#D9CCDB" stroke="none" d="
M 77.95 296.05
Q 77.9 295.8 77.7 295.75 77.5 295.75 77.25 295.95 76.6 296.4 76.8 297.05 76.9 297.6 77.5 297.15 78.1 296.65 77.95 296.05 Z"/>
</g>

<g id="Layer0_0_MEMBER_1_MEMBER_14_MEMBER_3_FILL">
<path fill="#F43C41" stroke="none" d="
M 77.45 296.45
L 76.4 294.5 76.25 294.6 77.3 296.6 77.45 296.45 Z"/>
</g>

<g id="Layer0_0_MEMBER_1_MEMBER_14_MEMBER_4_FILL">
<path fill="#383838" stroke="none" d="
M 77.45 296.6
L 77.3 296.5 75.5 299.6 75.65 299.7 77.45 296.6 Z"/>
</g>

<g id="Layer0_0_MEMBER_1_MEMBER_14_MEMBER_5_FILL">
<path fill="#383838" stroke="none" d="
M 77.4 296.6
L 79.45 294.35 79.35 294.2 77.35 296.45 77.4 296.6 Z"/>
</g>

<g id="Layer0_0_MEMBER_1_MEMBER_14_MEMBER_6_FILL">
<path fill="#666666" stroke="none" d="
M 77.7 296.3
Q 77.6 296 77.3 296.2 77.05 296.45 77.05 296.8 77.15 297.1 77.45 296.85 77.7 296.6 77.7 296.3 Z"/>
</g>

<g id="Layer0_0_MEMBER_1_MEMBER_15_MEMBER_0_FILL">
<path fill="#F1F2F6" stroke="none" d="
M 70.45 307.95
Q 70.45 307.6 70.25 307.45 70.05 307.3 69.8 307.45
L 68.25 308.4
Q 67.6 308.75 67.6 309.6
L 67.6 311.2
Q 67.6 311.55 67.8 311.7 68 311.85 68.25 311.7
L 69.8 310.75
Q 70.45 310.4 70.45 309.55
L 70.45 307.95 Z"/>
</g>

<g id="Layer0_0_MEMBER_1_MEMBER_15_MEMBER_1_FILL">
<path fill="#FD8F8E" stroke="none" d="
M 68.15 308.85
Q 67.95 308.95 67.95 309.2
L 67.95 309.9
Q 67.95 310.05 68.1 310.05 68.25 310.05 68.35 309.85
L 68.9 308.85
Q 69 308.65 68.95 308.55 68.9 308.45 68.75 308.5
L 68.15 308.85 Z"/>
</g>

<g id="Layer0_0_MEMBER_1_MEMBER_15_MEMBER_2_FILL">
<path fill="#FD8F8E" stroke="none" d="
M 69.85 310.3
Q 70.1 310.2 70.1 309.95
L 70.1 309.3
Q 70.1 309.1 69.95 309.1 69.8 309.1 69.7 309.3
L 69.15 310.3
Q 69.05 310.5 69.1 310.6 69.15 310.75 69.3 310.65
L 69.85 310.3 Z"/>
</g>

<g id="Layer0_0_MEMBER_1_MEMBER_15_MEMBER_3_FILL">
<path fill="#FD8F8E" stroke="none" d="
M 68.15 308.85
Q 67.95 308.95 67.95 309.2
L 67.95 309.9
Q 67.95 310.05 68.1 310.05 68.25 310.05 68.35 309.85
L 68.9 308.85
Q 69 308.65 68.95 308.55 68.9 308.45 68.75 308.5
L 68.15 308.85 Z"/>
</g>

<g id="Layer0_0_MEMBER_1_MEMBER_15_MEMBER_4_FILL">
<path fill="#FD8F8E" stroke="none" d="
M 69.85 310.3
Q 70.1 310.2 70.1 309.95
L 70.1 309.3
Q 70.1 309.1 69.95 309.1 69.8 309.1 69.7 309.3
L 69.15 310.3
Q 69.05 310.5 69.1 310.6 69.15 310.75 69.3 310.65
L 69.85 310.3 Z"/>
</g>

<g id="Layer0_0_MEMBER_1_MEMBER_15_MEMBER_5_FILL">
<path fill="#FDCA58" stroke="none" d="
M 67.95 311.15
Q 67.95 311.4 68.15 311.3
L 68.75 310.95
Q 68.9 310.9 68.95 310.7 69 310.5 68.9 310.45
L 68.35 310.1
Q 68.25 310.05 68.1 310.2 67.95 310.35 67.95 310.5
L 67.95 311.15 Z"/>
</g>

<g id="Layer0_0_MEMBER_1_MEMBER_15_MEMBER_6_FILL">
<path fill="#FDCA58" stroke="none" d="
M 70.1 308
Q 70.1 307.75 69.85 307.85
L 69.3 308.2
Q 69.15 308.3 69.1 308.45 69.05 308.65 69.15 308.7
L 69.7 309.05
Q 69.8 309.1 69.95 308.95 70.1 308.8 70.1 308.65
L 70.1 308 Z"/>
</g>

<g id="Layer0_0_MEMBER_1_MEMBER_16_MEMBER_0_FILL">
<path fill="#84D1ED" stroke="none" d="
M 72.3 295.65
L 72.25 295.35
Q 72.05 294.7 71.3 295.1
L 68.85 296.55
Q 68.45 296.8 68.2 297.25 67.9 297.75 67.9 298.25
L 67.9 301.05
Q 67.9 301.5 68.2 301.65 68.5 301.85 68.85 301.6
L 71.3 300.2
Q 72.3 299.55 72.3 298.5
L 72.3 295.65 Z"/>
</g>

<g id="Layer0_0_MEMBER_1_MEMBER_16_MEMBER_1_FILL">
<path fill="#F1F2F6" stroke="none" d="
M 70.85 299.05
L 67.9 300.65 67.9 301.05
Q 67.9 301.5 68.2 301.65 68.5 301.85 68.85 301.6
L 70.15 300.85 70.85 299.05 Z"/>
</g>

<g id="Layer0_0_MEMBER_1_MEMBER_16_MEMBER_2_FILL">
<path fill="#7FCF57" stroke="none" d="
M 70.7 296.65
Q 72.3 295.45 72.25 295.35 72.05 294.7 71.3 295.1
L 68.85 296.55
Q 68.45 296.8 68.2 297.25 67.9 297.75 67.9 298.25
L 67.9 300.6 70.65 299.05 70.7 296.65 Z"/>
</g>

<g id="Layer0_0_MEMBER_1_MEMBER_16_MEMBER_3_FILL">
<path fill="#7FCF57" stroke="none" d="
M 72.3 295.65
L 72.25 295.35
Q 72.05 294.7 71.3 295.1
L 70.75 295.45 70.75 298.1 72.3 297.15 72.3 295.65 Z"/>
</g>

<g id="Layer0_0_MEMBER_1_MEMBER_16_MEMBER_4_FILL">
<path fill="#FDB24A" stroke="none" d="
M 67.9 300.4
L 67.9 301.05 70.7 299.4 70.7 298.8 67.9 300.4 Z"/>
</g>

<g id="Layer0_0_MEMBER_1_MEMBER_16_MEMBER_5_MEMBER_0_FILL">
<path fill="#FC4E4F" stroke="none" d="
M 69.65 296.55
Q 69.4 296.4 69 296.6 68.15 297.1 68.15 298.15 68.15 298.9 69 299.75 69.9 297.9 69.9 297.1 69.9 296.7 69.65 296.55 Z"/>
</g>

<g id="Layer0_0_MEMBER_1_MEMBER_16_MEMBER_5_MEMBER_1_FILL">
<path fill="#FFFFFF" stroke="none" d="
M 69 297.05
Q 68.5 297.35 68.5 297.9 68.5 298.15 68.65 298.25 68.8 298.35 69 298.2 69.5 297.95 69.5 297.35 69.5 296.8 69 297.05 Z"/>
</g>

<g id="Layer0_0_MEMBER_1_MEMBER_16_MEMBER_6_FILL">
<path fill="#FEE24F" stroke="none" d="
M 70.85 295.4
L 70.15 295.8 70.15 300.85 70.85 300.45 70.85 295.4 Z"/>
</g>

<g id="Layer0_0_MEMBER_1_MEMBER_17_MEMBER_0_FILL">
<path fill="#D5D8E6" stroke="none" d="
M 69.05 293.15
L 69.05 291.65
Q 69.05 291.3 68.85 291.2 68.7 291.05 68.45 291.2
L 66.95 292.05
Q 66.35 292.4 66.35 293.2
L 66.35 294.7
Q 66.35 295.5 66.95 295.15
L 68.45 294.3
Q 69.05 293.9 69.05 293.15 Z"/>
</g>

<g id="Layer0_0_MEMBER_1_MEMBER_17_MEMBER_1_MEMBER_0_MEMBER_0_MEMBER_0_FILL">
<path fill="#70B7F1" stroke="none" d="
M 68.95 292.45
Q 68.95 291.85 68.6 291.65 68.2 291.4 67.7 291.7 67.15 292 66.8 292.65 66.4 293.3 66.4 293.9 66.4 294.5 66.8 294.7 67.15 294.9 67.7 294.6 68.25 294.3 68.6 293.7 68.95 293.05 68.95 292.45 Z"/>
</g>

<g id="Layer0_0_MEMBER_1_MEMBER_17_MEMBER_1_MEMBER_0_MEMBER_0_MEMBER_1_FILL">
<path fill="#84D1ED" stroke="none" d="
M 68.85 292.5
Q 68.85 291.95 68.5 291.75 68.2 291.55 67.7 291.8 67.2 292.1 66.85 292.7 66.5 293.3 66.5 293.85 66.5 294.4 66.85 294.6 67.2 294.8 67.7 294.5 68.2 294.25 68.5 293.65 68.85 293.05 68.85 292.5 Z"/>
</g>

<g id="Layer0_0_MEMBER_1_MEMBER_17_MEMBER_1_MEMBER_0_MEMBER_0_MEMBER_2_FILL">
<path fill="#B5E7FB" stroke="none" d="
M 68.75 292.55
Q 68.75 292.05 68.45 291.85 68.1 291.7 67.7 291.95 67.25 292.2 66.95 292.75 66.6 293.3 66.6 293.8 66.6 294.3 66.95 294.5 67.25 294.65 67.7 294.4 68.75 293.75 68.75 292.55 Z"/>
</g>

<g id="Layer0_0_MEMBER_1_MEMBER_17_MEMBER_2_FILL">
<path fill="#7FCF57" stroke="none" d="
M 68.65 292.6
Q 68.65 292.5 68.75 292.45 68.7 291.9 68.25 291.8
L 68.15 291.9 68.05 291.95 68.05 291.8 68 292 67.8 292.2 67.8 292.35
Q 67.7 292.35 67.65 292.45
L 67.65 292.65 67.7 292.7 67.5 292.95
Q 67.35 293.1 67.35 293.5 67.35 293.75 67.55 293.65 67.8 293.5 67.8 293.7
L 67.8 294.1
Q 67.7 294.35 67.8 294.35 68.2 293.95 68.25 293.85
L 68.3 293.8
Q 68.4 293.5 68.45 293.45 68.5 293.4 68.6 293.2 68.65 293.05 68.6 293.05
L 68.45 293.15 68.4 293
Q 68.2 292.8 68.2 292.7
L 68.3 292.55 68.1 292.55
Q 68.05 292.65 67.95 292.55 67.9 292.5 68 292.4 68.15 292.3 68.2 292.35 68.3 292.4 68.4 292.35
L 68.4 292.45 68.3 292.6 68.45 292.85
Q 68.5 293.1 68.6 293
L 68.7 292.85 68.75 292.6 68.65 292.6 Z"/>
</g>

<g id="Layer0_0_MEMBER_1_MEMBER_17_MEMBER_3_MEMBER_0_FILL">
<path fill="#70B84D" stroke="none" d="
M 67.05 292.8
Q 66.95 292.85 67.05 292.75
L 67.2 292.65 67.3 292.45 67.25 292.4 67.25 292.3
Q 66.75 292.85 66.65 293.5
L 66.75 293.45
Q 66.7 293.75 66.75 293.7
L 66.8 293.5
Q 66.75 293.45 66.8 293.3
L 66.95 293.05 67 292.9 67.1 292.85 67.05 293 67.2 292.8
Q 67.3 292.65 67.25 292.65
L 67.05 292.8 Z"/>
</g>

<g id="Layer0_0_MEMBER_1_MEMBER_17_MEMBER_3_MEMBER_1_FILL">
<path fill="#70B84D" stroke="none" d="
M 66.95 293.6
L 66.8 293.75 66.65 294.05 66.65 294.15
Q 66.8 294.55 67.25 294.55
L 67.2 294.45 67.25 294.25 67.15 294.1 67.1 294.05 67.1 293.8
Q 67.15 293.65 67.1 293.65
L 66.95 293.6 Z"/>
</g>

<g id="Layer0_0_MEMBER_1_MEMBER_18_MEMBER_0_FILL">
<path fill="#7FCF57" stroke="none" d="
M 84.4 302.95
Q 85.05 302.65 85.05 301.7
L 85.05 300.05
Q 85.05 299.25 84.4 299.55
L 82.8 300.5
Q 82.1 300.85 82.1 301.75
L 82.1 303.4
Q 82.1 304.25 82.8 303.9
L 84.4 302.95 Z"/>
</g>

<g id="Layer0_0_MEMBER_1_MEMBER_18_MEMBER_1_FILL">
<path fill="#F1F2F6" stroke="none" d="
M 82.8 303.1
L 82.85 303.1 83.15 302.45 83 303 82.95 303.1 82.8 303.65 83.4 302.8 84.4 302.2
Q 84.75 301.95 84.75 301.6
L 84.75 300.35
Q 84.75 300.2 84.65 300.15 84.5 300.1 84.4 300.15
L 82.8 301.05
Q 82.45 301.3 82.45 301.7
L 82.45 302.9
Q 82.45 303.35 82.8 303.1 Z"/>
</g>

<g id="Layer0_0_MEMBER_1_MEMBER_19_MEMBER_0_FILL">
<path fill="#CC783E" stroke="none" d="
M 70.4 291.7
Q 69.8 291.95 69.8 292.65
L 69.8 294.25
Q 69.8 294.85 70.4 294.6
L 71.75 293.75
Q 72.35 293.5 72.35 292.8
L 72.35 291.2
Q 72.35 290.55 71.75 290.9
L 70.4 291.7 Z"/>
</g>

<g id="Layer0_0_MEMBER_1_MEMBER_19_MEMBER_1_FILL">
<path fill="#FEE477" stroke="none" d="
M 70.45 291.65
L 70.45 294.55 71.75 293.75
Q 72.35 293.5 72.35 292.8
L 72.35 291.2
Q 72.35 290.55 71.75 290.9
L 70.45 291.65 Z"/>
</g>

<g id="Layer0_0_MEMBER_1_MEMBER_19_MEMBER_2_FILL">
<path fill="#FC4E4F" stroke="none" d="
M 71.55 291
L 71 291.3 71 292.3 71.3 291.95 71.55 292 71.55 291 Z"/>
</g>

<g id="Layer0_0_MEMBER_1_MEMBER_20_MEMBER_0_FILL">
<path fill="#F1F2F6" stroke="none" d="
M 83.5 288.4
Q 83.9 288.15 84.15 287.65 84.45 287.1 84.45 286.6
L 84.45 284.2
Q 84.45 283.7 84.15 283.5 83.9 283.25 83.5 283.5
L 81.1 284.85
Q 80.7 285.1 80.45 285.65 80.15 286.2 80.15 286.7
L 80.15 289.05
Q 80.15 289.6 80.45 289.8 80.75 290.05 81.1 289.8
L 83.5 288.4 Z"/>
</g>

<g id="Layer0_0_MEMBER_1_MEMBER_20_MEMBER_1_FILL">
<path fill="#84D1ED" stroke="none" d="
M 84.2 284.25
Q 84.2 283.9 83.95 283.75 83.7 283.6 83.4 283.8
L 82.05 284.55
Q 81.25 285 81.25 285.9
L 81.25 286.9 82.1 286.4
Q 82.45 286.2 82.65 286.35 82.9 286.5 82.9 286.85
L 82.9 286.95 83.4 286.7
Q 84.2 286.2 84.2 285.3
L 84.2 284.25 Z"/>
</g>

<g id="Layer0_0_MEMBER_1_MEMBER_20_MEMBER_2_MEMBER_0_FILL">
<path fill="#FFFFFF" stroke="none" d="
M 82 286.75
L 82.15 286.7 82.15 286.55 82.35 286.4 82.35 285.15 82 285.35 82 286.75
M 82.65 285.85
L 82.55 285.85 82.4 286.7 82.5 286.65 82.65 285.85
M 82.6 285.65
L 82.7 285.5 82.45 285.4 82.4 285.55 82.6 285.65
M 82.5 284.9
L 82.45 285.05 82.65 285.1 82.75 284.95 82.5 284.9
M 83.55 284.55
L 83.55 284.45 83 284.75 83.05 284.55 82.9 284.6 82.65 285.25 82.75 285.35 82.8 285.15 82.8 285.6 82.65 285.7 82.65 285.8 82.8 285.75 82.75 286.1 82.75 286.2 83.3 285.9 83.2 286.1 82.95 286.25 83 286.35 83.2 286.25
Q 83.4 286.15 83.45 285.85
L 83.55 285.75 83.55 285.65 83.45 285.7 83.45 285.35 83.6 285.25 83.6 285.15 83.45 285.25 83.45 284.75 82.85 285.1 82.9 284.9 83.55 284.55
M 82.95 285.15
L 83.35 284.95 83.3 285.3 83.15 285.4 82.9 285.55 82.95 285.15
M 83.3 285.4
L 83.3 285.8 82.9 286.05 82.9 285.65 83.3 285.4
M 83.1 285.6
L 83 285.7 83.1 285.85 83.2 285.75 83.1 285.6
M 83.25 285.25
L 83.1 285.1 83 285.2 83.15 285.4 83.25 285.25 Z"/>
</g>

<g id="Layer0_0_MEMBER_1_MEMBER_20_MEMBER_3_FILL">
<path fill="#A186C0" stroke="none" d="
M 82.9 286.85
Q 82.9 286.5 82.65 286.35 82.45 286.2 82.1 286.4
L 81.25 286.9 81.25 287
Q 81.25 287.4 81.5 287.5 81.7 287.65 82.05 287.45
L 82.9 286.95 82.9 286.85 Z"/>
</g>

<g id="Layer0_0_MEMBER_1_MEMBER_20_MEMBER_4_FILL">
<path fill="#FC4E4F" stroke="none" d="
M 82.9 286.95
L 82.05 287.45
Q 81.7 287.65 81.5 287.5 81.25 287.4 81.25 287
L 81.25 286.9
Q 80.45 287.35 80.45 288.3
L 80.45 288.9
Q 80.45 289.3 80.7 289.4 80.9 289.55 81.25 289.35
L 82.1 288.85
Q 82.9 288.4 82.9 287.5
L 82.9 286.95 Z"/>
</g>

<g id="Layer0_0_MEMBER_1_MEMBER_20_MEMBER_5_MEMBER_0_FILL">
<path fill="#FFFFFF" stroke="none" d="
M 81 288.65
L 81.2 288.55 81.25 288.6 81.4 288.5 81.15 288 81.05 288.05 80.8 288.85 80.95 288.75 81 288.65 Z"/>
</g>

<g id="Layer0_0_MEMBER_1_MEMBER_20_MEMBER_5_MEMBER_1_FILL">
<path fill="#FFFFFF" stroke="none" d="
M 81.5 288.45
L 81.75 288.3
Q 81.95 288.2 81.95 288
L 81.85 287.9 81.9 287.75
Q 81.9 287.6 81.75 287.65
L 81.5 287.8 81.5 288.45 Z"/>
</g>

<g id="Layer0_0_MEMBER_1_MEMBER_20_MEMBER_5_MEMBER_2_FILL">
<path fill="#FFFFFF" stroke="none" d="
M 82.4 287.5
L 82.5 287.3 82.3 287.35
Q 82 287.45 82 287.85 82 288.2 82.3 288
L 82.5 287.8 82.4 287.7 82.3 287.8
Q 82.15 287.9 82.15 287.75 82.15 287.6 82.3 287.5
L 82.4 287.5 Z"/>
</g>

<g id="Layer0_0_MEMBER_1_MEMBER_21_MEMBER_0_FILL">
<path fill="#D2D6E1" stroke="none" d="
M 77.1 302.6
Q 76.85 302.35 76.45 302.6
L 74.15 303.9
Q 73.25 304.45 73.25 305.65
L 73.25 307.95
Q 73.25 308.45 73.5 308.7 73.8 308.9 74.15 308.65
L 76.45 307.35
Q 76.85 307.1 77.1 306.6 77.4 306.05 77.4 305.55
L 77.4 303.3
Q 77.4 302.8 77.1 302.6 Z"/>
</g>

<g id="Layer0_0_MEMBER_1_MEMBER_21_MEMBER_1_FILL">
<path fill="#6E7B9C" stroke="none" d="
M 74.5 306.1
L 74.2 306.15 74 306.55 74.15 306.8
Q 74.25 306.9 74.15 306.95
L 73.9 307.35 73.95 307.65 74.25 307.5
Q 74.35 307.5 74.35 307.6
L 74.35 307.95 74.6 307.95 74.85 307.6
Q 74.95 307.45 75 307.5
L 75.2 307.6 75.5 307.3 75.5 306.95 75.55 306.75 75.9 306.5 75.95 306.15 75.7 306.05 75.65 305.95 75.8 305.5 75.6 305.35 75.3 305.65
Q 75.2 305.75 75.2 305.65
L 75.05 305.35 74.75 305.55 74.65 305.95 74.5 306.1 Z"/>
</g>

<g id="Layer0_0_MEMBER_1_MEMBER_21_MEMBER_2_FILL">
<path fill="#6E7B9C" stroke="none" d="
M 75.9 303.55
L 75.8 303.45 75.5 303.7 75.45 303.95
Q 75.45 304.1 75.3 304.25
L 75.05 304.45 75 304.85 75.15 304.9
Q 75.25 304.9 75.25 305.1
L 75.15 305.4 75.4 305.5 75.6 305.3
Q 75.8 305.15 75.85 305.2
L 76 305.3 76.3 305.05 76.3 304.8
Q 76.3 304.65 76.45 304.5
L 76.7 304.3 76.75 303.9 76.6 303.85
Q 76.5 303.85 76.5 303.65
L 76.6 303.35 76.35 303.25 76.15 303.45
Q 76 303.6 75.9 303.55 Z"/>
</g>

<g id="Layer0_0_MEMBER_1_MEMBER_21_MEMBER_3_FILL">
<path fill="#D2D6E1" stroke="none" d="
M 75.3 306.4
Q 75.3 306 74.9 306.15 74.5 306.45 74.5 306.85 74.5 307.3 74.9 307.1 75.3 306.85 75.3 306.4 Z"/>
</g>

<g id="Layer0_0_MEMBER_1_MEMBER_21_MEMBER_4_FILL">
<path fill="#D2D6E1" stroke="none" d="
M 76.2 304.2
Q 76.2 303.8 75.9 304 75.55 304.2 75.55 304.55 75.55 304.95 75.9 304.75 76.2 304.55 76.2 304.2 Z"/>
</g>
</defs>

<g transform="matrix( 10.079940795898438, 0, 0, 10.079940795898438, -84.45,-2419.15) ">
<use xlink:href="#Layer0_0_MEMBER_0_FILL"/>
</g>

<g transform="matrix( 10.079940795898438, 0, 0, 10.079940795898438, -84.45,-2419.15) ">
<use xlink:href="#Layer0_0_MEMBER_1_MEMBER_0_FILL"/>
</g>

<g transform="matrix( 10.079940795898438, 0, 0, 10.079940795898438, -84.45,-2419.15) ">
<use xlink:href="#Layer0_0_MEMBER_1_MEMBER_1_FILL"/>
</g>

<g transform="matrix( 10.079940795898438, 0, 0, 10.079940795898438, -84.45,-2419.15) ">
<use xlink:href="#Layer0_0_MEMBER_1_MEMBER_2_FILL"/>
</g>

<g transform="matrix( 10.079940795898438, 0, 0, 10.079940795898438, -84.45,-2419.15) ">
<use xlink:href="#Layer0_0_MEMBER_1_MEMBER_3_MEMBER_0_FILL"/>
</g>

<g transform="matrix( 10.079940795898438, 0, 0, 10.079940795898438, -84.45,-2419.15) ">
<use xlink:href="#Layer0_0_MEMBER_1_MEMBER_3_MEMBER_1_FILL"/>
</g>

<g transform="matrix( 10.079940795898438, 0, 0, 10.079940795898438, -84.45,-2419.15) ">
<use xlink:href="#Layer0_0_MEMBER_1_MEMBER_3_MEMBER_2_FILL"/>
</g>

<g transform="matrix( 10.079940795898438, 0, 0, 10.079940795898438, -84.45,-2419.15) ">
<use xlink:href="#Layer0_0_MEMBER_1_MEMBER_3_MEMBER_3_FILL"/>
</g>

<g transform="matrix( 10.079940795898438, 0, 0, 10.079940795898438, -84.45,-2419.15) ">
<use xlink:href="#Layer0_0_MEMBER_1_MEMBER_3_MEMBER_4_MEMBER_0_FILL"/>
</g>

<g transform="matrix( 10.079940795898438, 0, 0, 10.079940795898438, -84.45,-2419.15) ">
<use xlink:href="#Layer0_0_MEMBER_1_MEMBER_3_MEMBER_5_FILL"/>
</g>

<g transform="matrix( 10.079940795898438, 0, 0, 10.079940795898438, -84.45,-2419.15) ">
<use xlink:href="#Layer0_0_MEMBER_1_MEMBER_3_MEMBER_6_FILL"/>
</g>

<g transform="matrix( 10.079940795898438, 0, 0, 10.079940795898438, -84.45,-2419.15) ">
<use xlink:href="#Layer0_0_MEMBER_1_MEMBER_4_MEMBER_0_FILL"/>
</g>

<g transform="matrix( 10.079940795898438, 0, 0, 10.079940795898438, -84.45,-2419.15) ">
<use xlink:href="#Layer0_0_MEMBER_1_MEMBER_5_MEMBER_0_FILL"/>
</g>

<g transform="matrix( 10.079940795898438, 0, 0, 10.079940795898438, -84.45,-2419.15) ">
<use xlink:href="#Layer0_0_MEMBER_1_MEMBER_5_MEMBER_1_FILL"/>
</g>

<g transform="matrix( 10.079940795898438, 0, 0, 10.079940795898438, -84.45,-2419.15) ">
<use xlink:href="#Layer0_0_MEMBER_1_MEMBER_5_MEMBER_2_FILL"/>
</g>

<g transform="matrix( 10.079940795898438, 0, 0, 10.079940795898438, -84.45,-2419.15) ">
<use xlink:href="#Layer0_0_MEMBER_1_MEMBER_5_MEMBER_3_MEMBER_0_FILL"/>
</g>

<g transform="matrix( 10.079940795898438, 0, 0, 10.079940795898438, -84.45,-2419.15) ">
<use xlink:href="#Layer0_0_MEMBER_1_MEMBER_5_MEMBER_3_MEMBER_1_FILL"/>
</g>

<g transform="matrix( 10.079940795898438, 0, 0, 10.079940795898438, -84.45,-2419.15) ">
<use xlink:href="#Layer0_0_MEMBER_1_MEMBER_5_MEMBER_3_MEMBER_2_FILL"/>
</g>

<g transform="matrix( 10.079940795898438, 0, 0, 10.079940795898438, -84.45,-2419.15) ">
<use xlink:href="#Layer0_0_MEMBER_1_MEMBER_5_MEMBER_3_MEMBER_3_FILL"/>
</g>

<g transform="matrix( 10.079940795898438, 0, 0, 10.079940795898438, -84.45,-2419.15) ">
<use xlink:href="#Layer0_0_MEMBER_1_MEMBER_5_MEMBER_3_MEMBER_4_FILL"/>
</g>

<g transform="matrix( 10.079940795898438, 0, 0, 10.079940795898438, -84.45,-2419.15) ">
<use xlink:href="#Layer0_0_MEMBER_1_MEMBER_5_MEMBER_4_MEMBER_0_FILL"/>
</g>

<g transform="matrix( 10.079940795898438, 0, 0, 10.079940795898438, -84.45,-2419.15) ">
<use xlink:href="#Layer0_0_MEMBER_1_MEMBER_5_MEMBER_4_MEMBER_1_FILL"/>
</g>

<g transform="matrix( 10.079940795898438, 0, 0, 10.079940795898438, -84.45,-2419.15) ">
<use xlink:href="#Layer0_0_MEMBER_1_MEMBER_5_MEMBER_4_MEMBER_2_FILL"/>
</g>

<g transform="matrix( 10.079940795898438, 0, 0, 10.079940795898438, -84.45,-2419.15) ">
<use xlink:href="#Layer0_0_MEMBER_1_MEMBER_5_MEMBER_4_MEMBER_3_FILL"/>
</g>

<g transform="matrix( 10.079940795898438, 0, 0, 10.079940795898438, -84.45,-2419.15) ">
<use xlink:href="#Layer0_0_MEMBER_1_MEMBER_6_FILL"/>
</g>

<g transform="matrix( 10.079940795898438, 0, 0, 10.079940795898438, -84.45,-2419.15) ">
<use xlink:href="#Layer0_0_MEMBER_1_MEMBER_7_MEMBER_0_MEMBER_0_FILL"/>
</g>

<g transform="matrix( 10.079940795898438, 0, 0, 10.079940795898438, -84.45,-2419.15) ">
<use xlink:href="#Layer0_0_MEMBER_1_MEMBER_7_MEMBER_1_FILL"/>
</g>

<g transform="matrix( 10.079940795898438, 0, 0, 10.079940795898438, -84.45,-2419.15) ">
<use xlink:href="#Layer0_0_MEMBER_1_MEMBER_8_MEMBER_0_FILL"/>
</g>

<g transform="matrix( 10.079940795898438, 0, 0, 10.079940795898438, -84.45,-2419.15) ">
<use xlink:href="#Layer0_0_MEMBER_1_MEMBER_9_MEMBER_0_FILL"/>
</g>

<g transform="matrix( 10.079940795898438, 0, 0, 10.079940795898438, -84.45,-2419.15) ">
<use xlink:href="#Layer0_0_MEMBER_1_MEMBER_9_MEMBER_1_MEMBER_0_MEMBER_0_FILL"/>
</g>

<g transform="matrix( 10.079940795898438, 0, 0, 10.079940795898438, -84.45,-2419.15) ">
<use xlink:href="#Layer0_0_MEMBER_1_MEMBER_9_MEMBER_1_MEMBER_0_MEMBER_1_FILL"/>
</g>

<g transform="matrix( 10.079940795898438, 0, 0, 10.079940795898438, -84.45,-2419.15) ">
<use xlink:href="#Layer0_0_MEMBER_1_MEMBER_9_MEMBER_1_MEMBER_0_MEMBER_2_FILL"/>
</g>

<g transform="matrix( 10.079940795898438, 0, 0, 10.079940795898438, -84.45,-2419.15) ">
<use xlink:href="#Layer0_0_MEMBER_1_MEMBER_9_MEMBER_1_MEMBER_0_MEMBER_3_FILL"/>
</g>

<g transform="matrix( 10.079940795898438, 0, 0, 10.079940795898438, -84.45,-2419.15) ">
<use xlink:href="#Layer0_0_MEMBER_1_MEMBER_9_MEMBER_1_MEMBER_1_FILL"/>
</g>

<g transform="matrix( 10.079940795898438, 0, 0, 10.079940795898438, -84.45,-2419.15) ">
<use xlink:href="#Layer0_0_MEMBER_1_MEMBER_10_MEMBER_0_FILL"/>
</g>

<g transform="matrix( 10.079940795898438, 0, 0, 10.079940795898438, -84.45,-2419.15) ">
<use xlink:href="#Layer0_0_MEMBER_1_MEMBER_10_MEMBER_1_FILL"/>
</g>

<g transform="matrix( 10.079940795898438, 0, 0, 10.079940795898438, -84.45,-2419.15) ">
<use xlink:href="#Layer0_0_MEMBER_1_MEMBER_10_MEMBER_2_FILL"/>
</g>

<g transform="matrix( 10.079940795898438, 0, 0, 10.079940795898438, -84.45,-2419.15) ">
<use xlink:href="#Layer0_0_MEMBER_1_MEMBER_10_MEMBER_3_FILL"/>
</g>

<g transform="matrix( 10.079940795898438, 0, 0, 10.079940795898438, -84.45,-2419.15) ">
<use xlink:href="#Layer0_0_MEMBER_1_MEMBER_10_MEMBER_4_FILL"/>
</g>

<g transform="matrix( 10.079940795898438, 0, 0, 10.079940795898438, -84.45,-2419.15) ">
<use xlink:href="#Layer0_0_MEMBER_1_MEMBER_11_MEMBER_0_FILL"/>
</g>

<g transform="matrix( 10.079940795898438, 0, 0, 10.079940795898438, -84.45,-2419.15) ">
<use xlink:href="#Layer0_0_MEMBER_1_MEMBER_11_MEMBER_1_FILL"/>
</g>

<g transform="matrix( 10.079940795898438, 0, 0, 10.079940795898438, -84.45,-2419.15) ">
<use xlink:href="#Layer0_0_MEMBER_1_MEMBER_11_MEMBER_2_FILL"/>
</g>

<g transform="matrix( 10.079940795898438, 0, 0, 10.079940795898438, -84.45,-2419.15) ">
<use xlink:href="#Layer0_0_MEMBER_1_MEMBER_12_MEMBER_0_FILL"/>
</g>

<g transform="matrix( 10.079940795898438, 0, 0, 10.079940795898438, -84.45,-2419.15) ">
<use xlink:href="#Layer0_0_MEMBER_1_MEMBER_12_MEMBER_1_FILL"/>
</g>

<g transform="matrix( 10.079940795898438, 0, 0, 10.079940795898438, -84.45,-2419.15) ">
<use xlink:href="#Layer0_0_MEMBER_1_MEMBER_12_MEMBER_2_MEMBER_0_FILL"/>
</g>

<g transform="matrix( 10.079940795898438, 0, 0, 10.079940795898438, -84.45,-2419.15) ">
<use xlink:href="#Layer0_0_MEMBER_1_MEMBER_12_MEMBER_2_MEMBER_1_FILL"/>
</g>

<g transform="matrix( 10.079940795898438, 0, 0, 10.079940795898438, -84.45,-2419.15) ">
<use xlink:href="#Layer0_0_MEMBER_1_MEMBER_13_MEMBER_0_FILL"/>
</g>

<g transform="matrix( 10.079940795898438, 0, 0, 10.079940795898438, -84.45,-2419.15) ">
<use xlink:href="#Layer0_0_MEMBER_1_MEMBER_13_MEMBER_1_MEMBER_0_FILL"/>
</g>

<g transform="matrix( 10.079940795898438, 0, 0, 10.079940795898438, -84.45,-2419.15) ">
<use xlink:href="#Layer0_0_MEMBER_1_MEMBER_13_MEMBER_1_MEMBER_1_FILL"/>
</g>

<g transform="matrix( 10.079940795898438, 0, 0, 10.079940795898438, -84.45,-2419.15) ">
<use xlink:href="#Layer0_0_MEMBER_1_MEMBER_13_MEMBER_1_MEMBER_2_FILL"/>
</g>

<g transform="matrix( 10.079940795898438, 0, 0, 10.079940795898438, -84.45,-2419.15) ">
<use xlink:href="#Layer0_0_MEMBER_1_MEMBER_14_MEMBER_0_FILL"/>
</g>

<g transform="matrix( 10.079940795898438, 0, 0, 10.079940795898438, -84.45,-2419.15) ">
<use xlink:href="#Layer0_0_MEMBER_1_MEMBER_14_MEMBER_1_FILL"/>
</g>

<g transform="matrix( 10.079940795898438, 0, 0, 10.079940795898438, -84.45,-2419.15) ">
<use xlink:href="#Layer0_0_MEMBER_1_MEMBER_14_MEMBER_2_FILL"/>
</g>

<g transform="matrix( 10.079940795898438, 0, 0, 10.079940795898438, -84.45,-2419.15) ">
<use xlink:href="#Layer0_0_MEMBER_1_MEMBER_14_MEMBER_3_FILL"/>
</g>

<g transform="matrix( 10.079940795898438, 0, 0, 10.079940795898438, -84.45,-2419.15) ">
<use xlink:href="#Layer0_0_MEMBER_1_MEMBER_14_MEMBER_4_FILL"/>
</g>

<g transform="matrix( 10.079940795898438, 0, 0, 10.079940795898438, -84.45,-2419.15) ">
<use xlink:href="#Layer0_0_MEMBER_1_MEMBER_14_MEMBER_5_FILL"/>
</g>

<g transform="matrix( 10.079940795898438, 0, 0, 10.079940795898438, -84.45,-2419.15) ">
<use xlink:href="#Layer0_0_MEMBER_1_MEMBER_14_MEMBER_6_FILL"/>
</g>

<g transform="matrix( 10.079940795898438, 0, 0, 10.079940795898438, -84.45,-2419.15) ">
<use xlink:href="#Layer0_0_MEMBER_1_MEMBER_15_MEMBER_0_FILL"/>
</g>

<g transform="matrix( 10.079940795898438, 0, 0, 10.079940795898438, -84.45,-2419.15) ">
<use xlink:href="#Layer0_0_MEMBER_1_MEMBER_15_MEMBER_1_FILL"/>
</g>

<g transform="matrix( 10.079940795898438, 0, 0, 10.079940795898438, -84.45,-2419.15) ">
<use xlink:href="#Layer0_0_MEMBER_1_MEMBER_15_MEMBER_2_FILL"/>
</g>

<g transform="matrix( 10.079940795898438, 0, 0, 10.079940795898438, -84.45,-2419.15) ">
<use xlink:href="#Layer0_0_MEMBER_1_MEMBER_15_MEMBER_3_FILL"/>
</g>

<g transform="matrix( 10.079940795898438, 0, 0, 10.079940795898438, -84.45,-2419.15) ">
<use xlink:href="#Layer0_0_MEMBER_1_MEMBER_15_MEMBER_4_FILL"/>
</g>

<g transform="matrix( 10.079940795898438, 0, 0, 10.079940795898438, -84.45,-2419.15) ">
<use xlink:href="#Layer0_0_MEMBER_1_MEMBER_15_MEMBER_5_FILL"/>
</g>

<g transform="matrix( 10.079940795898438, 0, 0, 10.079940795898438, -84.45,-2419.15) ">
<use xlink:href="#Layer0_0_MEMBER_1_MEMBER_15_MEMBER_6_FILL"/>
</g>

<g transform="matrix( 10.079940795898438, 0, 0, 10.079940795898438, -84.45,-2419.15) ">
<use xlink:href="#Layer0_0_MEMBER_1_MEMBER_16_MEMBER_0_FILL"/>
</g>

<g transform="matrix( 10.079940795898438, 0, 0, 10.079940795898438, -84.45,-2419.15) ">
<use xlink:href="#Layer0_0_MEMBER_1_MEMBER_16_MEMBER_1_FILL"/>
</g>

<g transform="matrix( 10.079940795898438, 0, 0, 10.079940795898438, -84.45,-2419.15) ">
<use xlink:href="#Layer0_0_MEMBER_1_MEMBER_16_MEMBER_2_FILL"/>
</g>

<g transform="matrix( 10.079940795898438, 0, 0, 10.079940795898438, -84.45,-2419.15) ">
<use xlink:href="#Layer0_0_MEMBER_1_MEMBER_16_MEMBER_3_FILL"/>
</g>

<g transform="matrix( 10.079940795898438, 0, 0, 10.079940795898438, -84.45,-2419.15) ">
<use xlink:href="#Layer0_0_MEMBER_1_MEMBER_16_MEMBER_4_FILL"/>
</g>

<g transform="matrix( 10.079940795898438, 0, 0, 10.079940795898438, -84.45,-2419.15) ">
<use xlink:href="#Layer0_0_MEMBER_1_MEMBER_16_MEMBER_5_MEMBER_0_FILL"/>
</g>

<g transform="matrix( 10.079940795898438, 0, 0, 10.079940795898438, -84.45,-2419.15) ">
<use xlink:href="#Layer0_0_MEMBER_1_MEMBER_16_MEMBER_5_MEMBER_1_FILL"/>
</g>

<g transform="matrix( 10.079940795898438, 0, 0, 10.079940795898438, -84.45,-2419.15) ">
<use xlink:href="#Layer0_0_MEMBER_1_MEMBER_16_MEMBER_6_FILL"/>
</g>

<g transform="matrix( 10.079940795898438, 0, 0, 10.079940795898438, -84.45,-2419.15) ">
<use xlink:href="#Layer0_0_MEMBER_1_MEMBER_17_MEMBER_0_FILL"/>
</g>

<g transform="matrix( 10.079940795898438, 0, 0, 10.079940795898438, -84.45,-2419.15) ">
<use xlink:href="#Layer0_0_MEMBER_1_MEMBER_17_MEMBER_1_MEMBER_0_MEMBER_0_MEMBER_0_FILL"/>
</g>

<g transform="matrix( 10.079940795898438, 0, 0, 10.079940795898438, -84.45,-2419.15) ">
<use xlink:href="#Layer0_0_MEMBER_1_MEMBER_17_MEMBER_1_MEMBER_0_MEMBER_0_MEMBER_1_FILL"/>
</g>

<g transform="matrix( 10.079940795898438, 0, 0, 10.079940795898438, -84.45,-2419.15) ">
<use xlink:href="#Layer0_0_MEMBER_1_MEMBER_17_MEMBER_1_MEMBER_0_MEMBER_0_MEMBER_2_FILL"/>
</g>

<g transform="matrix( 10.079940795898438, 0, 0, 10.079940795898438, -84.45,-2419.15) ">
<use xlink:href="#Layer0_0_MEMBER_1_MEMBER_17_MEMBER_2_FILL"/>
</g>

<g transform="matrix( 10.079940795898438, 0, 0, 10.079940795898438, -84.45,-2419.15) ">
<use xlink:href="#Layer0_0_MEMBER_1_MEMBER_17_MEMBER_3_MEMBER_0_FILL"/>
</g>

<g transform="matrix( 10.079940795898438, 0, 0, 10.079940795898438, -84.45,-2419.15) ">
<use xlink:href="#Layer0_0_MEMBER_1_MEMBER_17_MEMBER_3_MEMBER_1_FILL"/>
</g>

<g transform="matrix( 10.079940795898438, 0, 0, 10.079940795898438, -84.45,-2419.15) ">
<use xlink:href="#Layer0_0_MEMBER_1_MEMBER_18_MEMBER_0_FILL"/>
</g>

<g transform="matrix( 10.079940795898438, 0, 0, 10.079940795898438, -84.45,-2419.15) ">
<use xlink:href="#Layer0_0_MEMBER_1_MEMBER_18_MEMBER_1_FILL"/>
</g>

<g transform="matrix( 10.079940795898438, 0, 0, 10.079940795898438, -84.45,-2419.15) ">
<use xlink:href="#Layer0_0_MEMBER_1_MEMBER_19_MEMBER_0_FILL"/>
</g>

<g transform="matrix( 10.079940795898438, 0, 0, 10.079940795898438, -84.45,-2419.15) ">
<use xlink:href="#Layer0_0_MEMBER_1_MEMBER_19_MEMBER_1_FILL"/>
</g>

<g transform="matrix( 10.079940795898438, 0, 0, 10.079940795898438, -84.45,-2419.15) ">
<use xlink:href="#Layer0_0_MEMBER_1_MEMBER_19_MEMBER_2_FILL"/>
</g>

<g transform="matrix( 10.079940795898438, 0, 0, 10.079940795898438, -84.45,-2419.15) ">
<use xlink:href="#Layer0_0_MEMBER_1_MEMBER_20_MEMBER_0_FILL"/>
</g>

<g transform="matrix( 10.079940795898438, 0, 0, 10.079940795898438, -84.45,-2419.15) ">
<use xlink:href="#Layer0_0_MEMBER_1_MEMBER_20_MEMBER_1_FILL"/>
</g>

<g transform="matrix( 10.079940795898438, 0, 0, 10.079940795898438, -84.45,-2419.15) ">
<use xlink:href="#Layer0_0_MEMBER_1_MEMBER_20_MEMBER_2_MEMBER_0_FILL"/>
</g>

<g transform="matrix( 10.079940795898438, 0, 0, 10.079940795898438, -84.45,-2419.15) ">
<use xlink:href="#Layer0_0_MEMBER_1_MEMBER_20_MEMBER_3_FILL"/>
</g>

<g transform="matrix( 10.079940795898438, 0, 0, 10.079940795898438, -84.45,-2419.15) ">
<use xlink:href="#Layer0_0_MEMBER_1_MEMBER_20_MEMBER_4_FILL"/>
</g>

<g transform="matrix( 10.079940795898438, 0, 0, 10.079940795898438, -84.45,-2419.15) ">
<use xlink:href="#Layer0_0_MEMBER_1_MEMBER_20_MEMBER_5_MEMBER_0_FILL"/>
</g>

<g transform="matrix( 10.079940795898438, 0, 0, 10.079940795898438, -84.45,-2419.15) ">
<use xlink:href="#Layer0_0_MEMBER_1_MEMBER_20_MEMBER_5_MEMBER_1_FILL"/>
</g>

<g transform="matrix( 10.079940795898438, 0, 0, 10.079940795898438, -84.45,-2419.15) ">
<use xlink:href="#Layer0_0_MEMBER_1_MEMBER_20_MEMBER_5_MEMBER_2_FILL"/>
</g>

<g transform="matrix( 10.079940795898438, 0, 0, 10.079940795898438, -84.45,-2419.15) ">
<use xlink:href="#Layer0_0_MEMBER_1_MEMBER_21_MEMBER_0_FILL"/>
</g>

<g transform="matrix( 10.079940795898438, 0, 0, 10.079940795898438, -84.45,-2419.15) ">
<use xlink:href="#Layer0_0_MEMBER_1_MEMBER_21_MEMBER_1_FILL"/>
</g>

<g transform="matrix( 10.079940795898438, 0, 0, 10.079940795898438, -84.45,-2419.15) ">
<use xlink:href="#Layer0_0_MEMBER_1_MEMBER_21_MEMBER_2_FILL"/>
</g>

<g transform="matrix( 10.079940795898438, 0, 0, 10.079940795898438, -84.45,-2419.15) ">
<use xlink:href="#Layer0_0_MEMBER_1_MEMBER_21_MEMBER_3_FILL"/>
</g>

<g transform="matrix( 10.079940795898438, 0, 0, 10.079940795898438, -84.45,-2419.15) ">
<use xlink:href="#Layer0_0_MEMBER_1_MEMBER_21_MEMBER_4_FILL"/>
</g>
</svg>
