
<svg xmlns="http://www.w3.org/2000/svg" version="1.1" xmlns:xlink="http://www.w3.org/1999/xlink" preserveAspectRatio="none" x="0px" y="0px" width="1024px" height="1024px" viewBox="0 0 1024 1024">
<defs>
<g id="Layer0_0_MEMBER_0_FILL">
<path fill="#364A5D" stroke="none" d="
M 137.5 197.25
Q 136.6 197 135.8 197.5
L 84.05 229.05
Q 83.25 229.55 83.05 230.45 82.8 231.4 83.3 232.2 83.8 233 84.7 233.2 85.65 233.45 86.45 232.95
L 138.15 201.4
Q 138.95 200.9 139.15 200 139.4 199.05 138.9 198.25 138.4 197.45 137.5 197.25 Z"/>
</g>

<g id="Layer0_0_MEMBER_1_FILL">
<path fill="#B8BDC0" stroke="none" d="
M 59.5 249.95
Q 65.6 254.15 77.6 255.25 89.35 256.35 121.6 256.1 151.65 255.9 163.15 254.95 172.75 254.2 173.3 254.15 180.15 253.45 186.25 252.15 187.05 251.9 187.1 246.65 187.2 241.1 186 238.5 156.9 238.85 126.05 238.65 64.3 238.2 55.4 235.3 51.8 244.6 59.5 249.95 Z"/>
</g>

<g id="Layer0_0_MEMBER_2_FILL">
<path fill="#DE5C47" stroke="none" d="
M 140.15 203.5
Q 134.65 200.2 129.2 203.15 116.9 210.4 108.65 215.2 93 224.2 86.75 226.05 83.7 226.95 77.5 227.65 67.7 228.7 67.2 228.8 55.3 230.5 55.1 235.4 54.85 241.75 56.85 243.95 59.05 246.4 66.25 246.85 76.2 247.45 134.9 245.95
L 186.7 240.2
Q 189.3 234.75 187.4 222.75 185.55 211.15 181.6 205.3 178.15 200.2 174.3 202.7 171.25 204.6 169.25 209.8 167.35 214.75 163.25 216.15 158.1 217.95 151.8 212.8 151.35 212.45 145.5 207.5 142.2 204.7 140.15 203.5 Z"/>
</g>

<g id="Layer0_0_MEMBER_3_MEMBER_0_FILL">
<path fill="#364A5D" stroke="none" d="
M 151.8 212.8
Q 151.35 212.45 145.5 207.5 142.2 204.7 140.15 203.5 134.65 200.2 129.2 203.15 127.1 204.3 116.5 210.55 122.45 207.65 123.85 207 130.35 204.05 136.8 207.3 139.2 208.5 143.1 211.3 150.25 216.45 150.5 216.65 158 221.75 164 220 168.85 218.55 171.1 213.6 172.9 209.7 175.6 207.5 178.95 204.75 182.2 206.2
L 181.6 205.3
Q 178.15 200.2 174.3 202.7 171.25 204.6 169.25 209.8 167.35 214.75 163.25 216.15 158.1 217.95 151.8 212.8 Z"/>
</g>

<g id="Layer0_0_MEMBER_4_FILL">
<path fill="#FCE179" stroke="none" d="
M 106.05 246.05
L 106.35 245.4
Q 109.65 240.85 116.8 237.15 123.45 233.75 129.2 233.1
L 174.75 228.6 178.3 221.05 128.5 225.95
Q 120.45 226.75 112.25 231.45 104.15 236.05 99.4 242.35
L 101.4 243.55
Q 101.95 243.9 103.75 244.75 105.25 245.5 106.05 246.05 Z"/>
</g>

<g id="Layer0_0_MEMBER_5_FILL">
<path fill="#364A5D" stroke="none" d="
M 176.6 211.1
Q 176.25 212.15 175.95 215.25 175.35 223.1 175.15 224.5 174.45 229.6 172.75 233.4 171.7 235.8 169.4 238.3 168.15 239.7 165.05 242.6
L 186.7 240.2
Q 188.95 235.5 187.8 225.4 186.65 215.8 183.45 208.75 182.45 208.15 181.55 208.05 180.65 207.95 179.3 208.3 177.35 208.8 176.6 211.1 Z"/>
</g>

<g id="Layer0_0_MEMBER_6_FILL">
<path fill="#FCE179" stroke="none" d="
M 183.7 209.3
L 183.45 208.75
Q 181.05 207.3 178.95 207.85 177 208.4 176.1 210.65 175.55 212.15 175.35 214.8 175.1 217.95 174.6 224.2 173.95 229.45 172.25 233.25 170.3 237.7 165.05 242.6
L 168 242.25
Q 171.9 238.35 173.65 234.45 175.3 230.65 175.95 225.4 176.5 219.15 176.75 216 176.95 213.3 177.5 211.85 178.35 209.6 180.35 209.05 182.05 208.6 183.7 209.3 Z"/>
</g>

<g id="Layer0_0_MEMBER_7_FILL">
<path fill="#364A5D" stroke="none" d="
M 107.25 246.55
Q 97.4 240.05 92.95 236.2 75 236.6 67 235.5 59.4 234.4 57.7 231.5 55.25 233 55.1 235.4 54.85 241.75 56.85 243.95 59.05 246.4 66.25 246.85 72.1 247.2 107.25 246.55 Z"/>
</g>

<g id="Layer0_0_MEMBER_8_FILL">
<path fill="#FCE179" stroke="none" d="
M 92.75 237.4
Q 97.05 241.1 105.3 246.6
L 107.25 246.55
Q 97.4 240.05 92.95 236.2 75 236.6 67 235.5 59.4 234.4 57.7 231.5 56.95 231.9 56.4 232.55 58.65 235.95 67.05 236.95 74.3 237.8 92.75 237.4 Z"/>
</g>

<g id="Layer0_0_MEMBER_9_FILL">
<path fill="#364A5D" stroke="none" d="
M 144.75 206.85
Q 140 203 137.1 202.1 103.4 223.3 100.25 224.15 98 224.75 94.65 222.75 90.15 224.95 87.8 225.7 90.35 228.2 96.6 231 100.55 232.8 119.3 222.6 134.75 214.2 144.75 206.85 Z"/>
</g>

<g id="Layer0_0_MEMBER_10_FILL">
<path fill="#474747" stroke="none" d="
M 133.75 207.65
Q 133.25 208.45 133.6 209.05 133.95 209.65 134.9 209.7 135.85 209.7 136.8 209.15 137.8 208.6 138.3 207.75 138.75 206.95 138.4 206.35 138.05 205.75 137.1 205.7 136.2 205.7 135.2 206.25 134.2 206.8 133.75 207.65 Z"/>
</g>

<g id="Layer0_0_MEMBER_11_FILL">
<path fill="#474747" stroke="none" d="
M 126.15 212.25
Q 125.75 212.95 126.05 213.45 126.3 213.95 127.15 214 127.95 214.05 128.8 213.6 129.65 213.15 130.1 212.45 130.5 211.75 130.2 211.25 129.95 210.7 129.15 210.65 128.3 210.6 127.45 211.1 126.6 211.55 126.15 212.25 Z"/>
</g>

<g id="Layer0_0_MEMBER_12_FILL">
<path fill="#474747" stroke="none" d="
M 123.1 215.55
Q 122.85 215.05 122.05 215 121.2 214.95 120.35 215.4 119.5 215.85 119.05 216.55 118.65 217.25 118.95 217.75 119.2 218.3 120.05 218.35 120.85 218.4 121.7 217.95 122.55 217.45 122.95 216.75 123.35 216.1 123.1 215.55 Z"/>
</g>

<g id="Layer0_0_MEMBER_13_FILL">
<path fill="#474747" stroke="none" d="
M 111.7 220.7
Q 111.3 221.35 111.55 221.9 111.8 222.4 112.65 222.45 113.45 222.5 114.3 222.05 115.15 221.6 115.6 220.9 116 220.25 115.75 219.7 115.45 219.2 114.65 219.15 113.85 219.1 113 219.55 112.1 220 111.7 220.7 Z"/>
</g>

<g id="Layer0_0_MEMBER_14_FILL">
<path fill="#474747" stroke="none" d="
M 103.7 224.7
Q 103.25 225.4 103.5 225.9 103.75 226.45 104.55 226.55 105.35 226.65 106.25 226.25 107.1 225.85 107.55 225.2 108 224.5 107.8 223.95 107.55 223.4 106.75 223.35 105.95 223.25 105.05 223.65 104.15 224.05 103.7 224.7 Z"/>
</g>

<g id="Layer0_0_MEMBER_15_FILL">
<path fill="#E2E4E6" stroke="none" d="
M 123.7 203.75
Q 123.35 203.9 122.45 204.5 121.6 205.1 121.5 205.25 121.2 205.65 121.55 206.25
L 126 212.6
Q 126.4 213.25 127.2 213.4 127.95 213.55 128.6 213.1 129.25 212.7 129.4 211.9 129.55 211.15 129.1 210.5
L 124.7 204.1
Q 124.35 203.55 123.7 203.75 Z"/>
</g>

<g id="Layer0_0_MEMBER_16_FILL">
<path fill="#E2E4E6" stroke="none" d="
M 136.95 205.75
L 132.55 199.35
Q 132.15 198.8 131.5 199 131.2 199.1 130.25 199.75 129.4 200.35 129.3 200.5 129 200.9 129.4 201.5
L 133.8 207.85
Q 134.25 208.5 135 208.65 135.75 208.8 136.45 208.4 137.1 207.95 137.25 207.15 137.4 206.4 136.95 205.75 Z"/>
</g>

<g id="Layer0_0_MEMBER_17_FILL">
<path fill="#E2E4E6" stroke="none" d="
M 122.15 216.3
Q 122.35 215.55 121.95 214.85
L 117.75 208.3
Q 117.4 207.7 116.8 207.9 116.5 208 115.5 208.6 114.65 209.15 114.5 209.3 114.2 209.7 114.55 210.3
L 118.7 216.85
Q 119.1 217.5 119.85 217.7 120.6 217.85 121.3 217.45 121.95 217.05 122.15 216.3 Z"/>
</g>

<g id="Layer0_0_MEMBER_18_FILL">
<path fill="#E2E4E6" stroke="none" d="
M 109.85 212.25
Q 109.55 212.35 108.55 212.95 107.7 213.5 107.55 213.65 107.25 214.05 107.6 214.65
L 111.3 220.9
Q 111.7 221.55 112.5 221.75 113.25 221.9 113.9 221.5 114.6 221.1 114.75 220.35 114.95 219.55 114.55 218.9
L 110.85 212.65
Q 110.5 212.05 109.85 212.25 Z"/>
</g>

<g id="Layer0_0_MEMBER_19_FILL">
<path fill="#E2E4E6" stroke="none" d="
M 103.2 217.3
Q 102.85 216.7 102.2 216.9 101.9 217 100.9 217.6 100.05 218.15 99.9 218.3 99.6 218.7 99.95 219.3
L 103.3 225.1
Q 103.7 225.75 104.5 225.95 105.25 226.15 105.9 225.75 106.6 225.35 106.75 224.55 106.95 223.8 106.55 223.15
L 103.2 217.3 Z"/>
</g>
</defs>

<g transform="matrix( 6.79998779296875, 0, 0, 6.79998779296875, -312.3,-1029.25) ">
<use xlink:href="#Layer0_0_MEMBER_0_FILL"/>
</g>

<g transform="matrix( 6.79998779296875, 0, 0, 6.79998779296875, -312.3,-1029.25) ">
<use xlink:href="#Layer0_0_MEMBER_1_FILL"/>
</g>

<g transform="matrix( 6.79998779296875, 0, 0, 6.79998779296875, -312.3,-1029.25) ">
<use xlink:href="#Layer0_0_MEMBER_2_FILL"/>
</g>

<g transform="matrix( 6.79998779296875, 0, 0, 6.79998779296875, -312.3,-1029.25) ">
<use xlink:href="#Layer0_0_MEMBER_3_MEMBER_0_FILL"/>
</g>

<g transform="matrix( 6.79998779296875, 0, 0, 6.79998779296875, -312.3,-1029.25) ">
<use xlink:href="#Layer0_0_MEMBER_4_FILL"/>
</g>

<g transform="matrix( 6.79998779296875, 0, 0, 6.79998779296875, -312.3,-1029.25) ">
<use xlink:href="#Layer0_0_MEMBER_5_FILL"/>
</g>

<g transform="matrix( 6.79998779296875, 0, 0, 6.79998779296875, -312.3,-1029.25) ">
<use xlink:href="#Layer0_0_MEMBER_6_FILL"/>
</g>

<g transform="matrix( 6.79998779296875, 0, 0, 6.79998779296875, -312.3,-1029.25) ">
<use xlink:href="#Layer0_0_MEMBER_7_FILL"/>
</g>

<g transform="matrix( 6.79998779296875, 0, 0, 6.79998779296875, -312.3,-1029.25) ">
<use xlink:href="#Layer0_0_MEMBER_8_FILL"/>
</g>

<g transform="matrix( 6.79998779296875, 0, 0, 6.79998779296875, -312.3,-1029.25) ">
<use xlink:href="#Layer0_0_MEMBER_9_FILL"/>
</g>

<g transform="matrix( 6.79998779296875, 0, 0, 6.79998779296875, -312.3,-1029.25) ">
<use xlink:href="#Layer0_0_MEMBER_10_FILL"/>
</g>

<g transform="matrix( 6.79998779296875, 0, 0, 6.79998779296875, -312.3,-1029.25) ">
<use xlink:href="#Layer0_0_MEMBER_11_FILL"/>
</g>

<g transform="matrix( 6.79998779296875, 0, 0, 6.79998779296875, -312.3,-1029.25) ">
<use xlink:href="#Layer0_0_MEMBER_12_FILL"/>
</g>

<g transform="matrix( 6.79998779296875, 0, 0, 6.79998779296875, -312.3,-1029.25) ">
<use xlink:href="#Layer0_0_MEMBER_13_FILL"/>
</g>

<g transform="matrix( 6.79998779296875, 0, 0, 6.79998779296875, -312.3,-1029.25) ">
<use xlink:href="#Layer0_0_MEMBER_14_FILL"/>
</g>

<g transform="matrix( 6.79998779296875, 0, 0, 6.79998779296875, -312.3,-1029.25) ">
<use xlink:href="#Layer0_0_MEMBER_15_FILL"/>
</g>

<g transform="matrix( 6.79998779296875, 0, 0, 6.79998779296875, -312.3,-1029.25) ">
<use xlink:href="#Layer0_0_MEMBER_16_FILL"/>
</g>

<g transform="matrix( 6.79998779296875, 0, 0, 6.79998779296875, -312.3,-1029.25) ">
<use xlink:href="#Layer0_0_MEMBER_17_FILL"/>
</g>

<g transform="matrix( 6.79998779296875, 0, 0, 6.79998779296875, -312.3,-1029.25) ">
<use xlink:href="#Layer0_0_MEMBER_18_FILL"/>
</g>

<g transform="matrix( 6.79998779296875, 0, 0, 6.79998779296875, -312.3,-1029.25) ">
<use xlink:href="#Layer0_0_MEMBER_19_FILL"/>
</g>
</svg>
