<?xml version="1.0" encoding="UTF-8"?>
<svg width="480px" height="480px" viewBox="0 0 480 480" version="1.1" xmlns="http://www.w3.org/2000/svg" xmlns:xlink="http://www.w3.org/1999/xlink">
    <title>关键词搜索</title>
    <defs>
        <linearGradient x1="49.9117232%" y1="100.156083%" x2="49.9117232%" y2="-0.058974161%" id="linearGradient-1">
            <stop stop-color="#FFFFFF" stop-opacity="0.1" offset="0%"></stop>
            <stop stop-color="#D9E9FF" offset="100%"></stop>
        </linearGradient>
        <linearGradient x1="50.0748905%" y1="100.193261%" x2="50.0748905%" y2="0.00657414035%" id="linearGradient-2">
            <stop stop-color="#FFFFFF" stop-opacity="0.1" offset="0%"></stop>
            <stop stop-color="#F8FBFF" stop-opacity="0.27" offset="14%"></stop>
            <stop stop-color="#EDF5FF" stop-opacity="0.52" offset="37%"></stop>
            <stop stop-color="#E4F0FF" stop-opacity="0.73" offset="58%"></stop>
            <stop stop-color="#DEECFF" stop-opacity="0.88" offset="76%"></stop>
            <stop stop-color="#DAEAFF" stop-opacity="0.97" offset="91%"></stop>
            <stop stop-color="#D9E9FF" offset="100%"></stop>
        </linearGradient>
        <linearGradient x1="50.0097311%" y1="99.9312192%" x2="50.0097311%" y2="-0.0522171102%" id="linearGradient-3">
            <stop stop-color="#FFFFFF" stop-opacity="0.1" offset="0%"></stop>
            <stop stop-color="#FEFEFF" stop-opacity="0.13" offset="9%"></stop>
            <stop stop-color="#FBFCFF" stop-opacity="0.21" offset="23%"></stop>
            <stop stop-color="#F5F9FF" stop-opacity="0.33" offset="40%"></stop>
            <stop stop-color="#EEF5FF" stop-opacity="0.51" offset="59%"></stop>
            <stop stop-color="#E4EFFF" stop-opacity="0.74" offset="79%"></stop>
            <stop stop-color="#D9E9FF" offset="100%"></stop>
        </linearGradient>
        <linearGradient x1="50%" y1="100%" x2="50%" y2="0%" id="linearGradient-4">
            <stop stop-color="#FFFFFF" stop-opacity="0.1" offset="0%"></stop>
            <stop stop-color="#FBFDFF" stop-opacity="0.19" offset="13%"></stop>
            <stop stop-color="#F1F7FF" stop-opacity="0.43" offset="41%"></stop>
            <stop stop-color="#E1EEFF" stop-opacity="0.82" offset="81%"></stop>
            <stop stop-color="#D9E9FF" offset="100%"></stop>
        </linearGradient>
        <linearGradient x1="2.51171376%" y1="26.6348525%" x2="92.4918738%" y2="67.7614114%" id="linearGradient-5">
            <stop stop-color="#BEE5FF" stop-opacity="0.9" offset="0%"></stop>
            <stop stop-color="#5797F4" offset="100%"></stop>
        </linearGradient>
        <linearGradient x1="7.39270707%" y1="25.1307656%" x2="91.5883547%" y2="74.2827706%" id="linearGradient-6">
            <stop stop-color="#FFFFFF" offset="3%"></stop>
            <stop stop-color="#E7F1FF" offset="100%"></stop>
        </linearGradient>
        <linearGradient x1="6.09648229%" y1="75.992336%" x2="91.0119635%" y2="81.4638966%" id="linearGradient-7">
            <stop stop-color="#D2E6FE" offset="0%"></stop>
            <stop stop-color="#73AAF6" offset="100%"></stop>
        </linearGradient>
    </defs>
    <g id="组件设计" stroke="none" stroke-width="1" fill="none" fill-rule="evenodd">
        <g id="基础-缺省图" transform="translate(-90.000000, -3044.000000)">
            <g id="关键词搜索" transform="translate(90.000000, 3044.000000)">
                <rect id="矩形" fill="#FFFFFF" opacity="0" x="0" y="0" width="480" height="480"></rect>
                <polygon id="路径" fill="#E4EFFF" fill-rule="nonzero" points="93.8637363 278.371901 95.9604396 300.821883 82.8263736 299.341955"></polygon>
                <polygon id="路径" fill="#F3F8FF" fill-rule="nonzero" points="93.8637363 278.371901 107.696703 296.091399 95.9604396 300.821883"></polygon>
                <polygon id="路径" fill="#E4EFFF" fill-rule="nonzero" points="46.8131868 284.172691 49.5032967 312.912368 32.9406593 310.983176"></polygon>
                <polygon id="路径" fill="#F3F8FF" fill-rule="nonzero" points="46.8131868 284.172691 64.2857143 306.886946 49.5032967 312.912368"></polygon>
                <polygon id="路径" fill="#E4EFFF" fill-rule="nonzero" points="69.2175824 264.29937 73.6615385 311.815636 43.8593407 308.855779"></polygon>
                <polygon id="路径" fill="#F3F8FF" fill-rule="nonzero" points="69.2175824 264.29937 100.391209 301.641129 73.6615385 311.815636"></polygon>
                <path d="M78.421978,160.122996 C76.6580279,150.801451 68.4516534,144.106956 58.9846154,144.266623 C53.9165169,144.23791 49.0239975,146.125291 45.2835165,149.552081 C43.1888884,148.594344 40.91338,148.098662 38.610989,148.09858 C31.3210571,147.983471 24.9389343,152.980681 23.2879121,160.096569 C17.6879262,161.342044 13.6500114,166.243144 13.4901099,171.988849 C13.7055346,178.982947 19.5109833,184.493416 26.4923077,184.330393 L75.178022,184.330393 C82.1593463,184.493416 87.9647951,178.982947 88.1802198,171.988849 C88.0221412,166.261409 84.00219,161.373218 78.421978,160.122996 L78.421978,160.122996 Z" id="路径" fill="url(#linearGradient-1)" fill-rule="nonzero"></path>
                <path d="M360.61978,95.7593339 C358.090282,91.8520334 353.818564,89.4258103 349.173626,89.2582208 C346.476883,85.1251054 341.850367,82.6699089 336.923077,82.7571077 C332.969883,82.7176819 329.167396,84.2751108 326.373626,87.0779695 C325.094859,86.667506 323.760356,86.4580084 322.417582,86.4569282 C316.206593,86.4569282 311.063736,90.7645763 310.549451,96.2085978 C305.82047,97.3537539 302.420458,101.499211 302.215385,106.36989 C302.215385,112.223535 307.582418,116.940806 314.083516,116.940806 L359.657143,116.940806 C366.250549,116.940806 371.525275,112.157467 371.525275,106.36989 C371.630769,100.780519 366.751648,96.1821705 360.61978,95.7593339 Z" id="路径" fill="url(#linearGradient-2)" fill-rule="nonzero"></path>
                <path d="M445.186813,80.4315063 C440.718234,71.1969033 431.389279,65.3204714 421.147253,65.2886696 C415.442324,65.2981472 409.892695,67.1517878 405.323077,70.5741275 C399.88992,59.9309433 388.070233,54.1904483 376.366603,56.5107694 C364.662974,58.8310905 355.915365,68.6491865 354.936264,80.5636427 C342.353329,84.5422256 334.546736,97.122154 336.551325,110.190038 C338.555914,123.257921 349.772524,132.907839 362.967033,132.916151 L437.393407,132.916151 C450.661726,132.94134 461.940148,123.209955 463.885086,110.058229 C465.830023,96.9065028 457.852681,84.3158867 445.147253,80.4843608 L445.186813,80.4315063 Z" id="路径" fill="url(#linearGradient-3)" fill-rule="nonzero"></path>
                <ellipse id="椭圆形" fill="url(#linearGradient-4)" fill-rule="nonzero" cx="240" cy="347.584971" rx="240" ry="75.978456"></ellipse>
                <polygon id="路径" fill="#E4EFFF" fill-rule="nonzero" points="424.18022 284.014127 421.912088 313.797682 405.098901 308.921847"></polygon>
                <polygon id="路径" fill="#F3F8FF" fill-rule="nonzero" points="424.18022 284.014127 438.303297 310.256425 421.912088 313.797682"></polygon>
                <ellipse id="椭圆形" fill="#D4E7FF" fill-rule="nonzero" cx="234.093407" cy="313.7184" rx="138.5" ry="3.42233393"></ellipse>
                <path d="M290.320879,255.52551 C293.142857,251.310357 323.287912,256.410824 342.501099,267.206372 C361.714286,278.001919 367.028571,287.436461 362.149451,296.27639 C357.27033,305.116318 346.826374,304.931327 327.626374,294.148993 C308.426374,283.366659 287.485714,259.740662 290.320879,255.52551 Z" id="路径" fill="url(#linearGradient-5)" fill-rule="nonzero"></path>
                <ellipse id="椭圆形" stroke="url(#linearGradient-7)" stroke-width="8" fill="url(#linearGradient-6)" fill-rule="nonzero" cx="224.202198" cy="207.480698" rx="82.6153846" ry="83.3648833"></ellipse>
                <path d="M198.421978,222.002365 C197.653567,221.994905 196.920068,222.323516 196.413324,222.902379 C195.906581,223.481242 195.676995,224.252782 195.784615,225.015205 C197.315997,236.790348 207.327427,245.599661 219.178022,245.599661 C231.028617,245.599661 241.040047,236.790348 242.571429,225.015205 C242.679049,224.252782 242.449463,223.481242 241.94272,222.902379 C241.435976,222.323516 240.702477,221.994905 239.934066,222.002365 L198.421978,222.002365 Z" id="路径" fill="#7CB5F6" fill-rule="nonzero"></path>
                <ellipse id="椭圆形" fill="#78B3F6" fill-rule="nonzero" cx="171.56044" cy="188.783391" rx="6.64615385" ry="6.65967684"></ellipse>
                <ellipse id="椭圆形" fill="#78B3F6" fill-rule="nonzero" cx="265.002198" cy="188.783391" rx="6.64615385" ry="6.65967684"></ellipse>
                <g id="woman_11_" transform="translate(101.000000, 230.000000)" fill-rule="nonzero">
                    <g id="Group" transform="translate(16.904275, 0.000000)">
                        <g transform="translate(5.945916, 3.119143)" id="Path">
                            <path d="M3.72086932,0.382280505 C-1.0757861,0.823177355 1.64107283,5.5375455 1.46439418,7.54536766 C1.28814024,9.55361458 0.180076315,12.5872228 0.180076315,12.5872228 L5.01113311,13.3781187 C5.01113311,13.3781187 5.241325,11.7466304 5.21796605,10.8966934 C5.19460709,10.0467564 5.82699773,9.6483352 6.87262954,9.71926947 C7.91826135,9.79020374 8.00107947,7.75434767 8.16204391,7.38268607 C8.42536305,6.77443531 9.44636178,7.20726179 9.27435492,6.46818615 C9.10234806,5.72911051 8.31281535,5.45344379 8.2023912,3.5067865 C8.09196704,1.56012922 5.99730576,0.17287574 3.72086932,0.382280505 Z" fill="#FECCA9"></path>
                            <path d="M6.60463861,9.71162386 C6.10433225,9.71587142 5.71954654,9.84882009 5.48255931,10.1040985 L4.96908699,9.06259651 C5.51526185,9.41089653 6.28780623,9.69038605 6.60463861,9.71162386 Z" fill="#CD916A"></path>
                        </g>
                        <path d="M10.915003,0.371291502 C2.22079965,-0.74570951 4.70661726,7.39516264 2.0390245,7.10930178 C0.624745894,6.95766384 0.417912957,6.59407261 0.417912957,6.59407261 C0.417912957,6.59407261 0.533008903,7.91591364 1.45972239,8.81979466 C1.04308356,8.88223381 0.603085771,8.88902991 0.177952773,8.83168783 C0.177952773,8.83168783 0.482893325,12.8847107 4.07677487,13.2703893 C6.68533319,13.5503035 7.75474866,12.1915087 8.19092407,11.0196066 C9.32786816,11.1491572 11.0891334,10.9346554 11.3554255,8.45238062 C11.4972781,7.13096434 11.7189758,6.16761746 11.9457701,5.46761938 C13.5477092,5.62629937 13.8534419,6.27868648 14.7415493,6.01565688 C16.5697227,3.11914281 14.0787289,0.777756001 10.915003,0.371291502 Z" id="Path" fill="#003A8C"></path>
                    </g>
                    <path d="M8.52223193,74.7746502 C8.47636344,74.1154288 9.11937179,72.4401906 10.0868573,70.2934732 L7.13472702,68.8343733 C6.93851179,69.6333395 6.66243433,71.1162258 6.41185644,71.9695609 C6.03429077,73.2557224 5.73741968,73.7718011 5.69070176,74.3668844 C5.64440856,74.9619677 7.89281425,77.7377489 7.89281425,77.7377489 L9.5606437,77.5856862 C9.5606437,77.5856862 8.66875629,76.8776178 8.52223193,74.7746502 Z" id="Path" fill="#FECCA9"></path>
                    <path d="M30.9451308,76.0773773 C30.4991871,75.3633622 30.3819676,72.742617 30.3700758,69.4966307 L26.6266969,69.4966307 C26.9902472,71.0962623 27.3848012,72.7455903 27.7653398,74.5915804 C28.035879,75.9045015 28.015493,76.4995848 28.2541791,77.0470955 C28.4924404,77.5946061 31.780532,78.9895052 31.780532,78.9895052 L33.1816446,78.072032 C33.1812199,78.0716072 32.0616889,77.8656005 30.9451308,76.0773773 Z" id="Path" fill="#FECCA9"></path>
                    <path d="M10.9383974,79.6393821 C10.7498269,79.9940534 9.52921529,79.632586 9.52921529,79.632586 L6.00710944,77.7594115 C5.64058619,77.5644484 5.44309683,77.1575321 5.51189957,76.7480672 C5.62317315,76.0871466 5.72637726,75.1641516 5.46390754,75.0439456 C5.04939225,74.8536549 4.00885694,76.6966717 4.00885694,76.6966717 L3.31615772,76.3284081 C3.31615772,76.3284081 4.1095128,75.0813242 4.44715589,74.5032311 C4.78479898,73.925138 4.44715589,73.5339376 4.88757839,72.7052384 C5.32800088,71.876964 6.20884588,71.4178027 6.49255101,71.5685911 C6.77625615,71.7193795 6.49552397,73.6252602 6.74822541,74.4531099 C7.06888016,75.5022575 7.74671459,76.4847184 9.11852237,77.0088674 C9.46975612,77.1435151 11.1269679,79.2847107 10.9383974,79.6393821 Z" id="Path" fill="#001529"></path>
                    <path d="M35.362097,79.2384123 C35.362097,79.6402316 34.1147288,79.893811 34.1147288,79.893811 L30.1254438,79.893811 C29.7105038,79.893811 29.34483,79.6274889 29.2135951,79.23374 C29.0016657,78.5978801 28.6597755,77.7347756 28.3713986,77.7517659 C27.9161113,77.7785255 27.862598,79.8942357 27.862598,79.8942357 L27.0781618,79.8942357 C27.0781618,79.8942357 27.1932578,78.4207568 27.2200144,77.7517659 C27.246771,77.082775 26.7647271,76.8958823 26.7647271,75.957596 C26.7647271,75.0193098 27.3270409,74.20038 27.648545,74.20038 C27.9700492,74.20038 28.6164552,76.0153629 29.2284599,76.6270117 C30.0044019,77.4030411 31.0636244,77.9522508 32.5207985,77.7708799 C32.8936924,77.7241567 35.362097,78.836593 35.362097,79.2384123 Z" id="Path" fill="#001529"></path>
                    <path d="M22.6115047,33.6285252 C22.6115047,33.6285252 29.512165,44.8879603 30.6406149,51.5116072 C31.7512271,58.0307641 33.8063634,69.4966307 33.8063634,69.4966307 L23.0302671,70.3919701 C23.0302671,70.3919701 23.3500507,62.8640641 21.3937345,54.9244609 C19.8114552,48.502866 17.4870342,42.7429416 17.2899099,41.0341481 C17.1200265,39.5615186 20.3703191,34.7834371 22.6115047,33.6285252 Z" id="Path" fill="#143E81"></path>
                    <path d="M14.5383626,32.0068317 C14.5383626,32.0068317 11.2956107,34.3195266 11.5856528,39.5326352 C11.8840363,44.8956673 2.43854903e-13,66.7971402 2.43854903e-13,66.7971402 L12.3677985,71.5401609 C12.3677985,71.5401609 16.046364,58.6712963 17.3315313,55.4015237 C18.335117,52.84789 22.7807594,42.1436111 22.0336975,33.6285252 C22.0336975,33.6281004 18.5446359,31.3391151 14.5383626,32.0068317 Z" id="Path" fill="#3E65A3"></path>
                    <path d="M34.7492429,22.3809832 C34.7492429,22.3809832 36.5296201,25.4477224 37.9145938,25.7938986 C39.2995675,26.1400748 45.1473195,23.9410418 46.2354221,23.6938337 C47.3235247,23.4466256 46.995609,20.7973604 48.4472899,21.3446057 C49.8989709,21.8918511 50.4352054,23.4190151 50.1733912,24.6220058 C49.911577,25.8249965 49.1395644,25.6456587 48.4472899,25.7938986 C47.7550154,25.9421385 38.7015783,30.5596622 35.8088901,29.9662779 C32.9157772,29.3728937 30.5416579,25.2098589 30.5416579,25.2098589 C30.5416579,25.2098589 32.4248145,22.3317115 34.7492429,22.3809832 Z" id="Path" fill="#FECCA9"></path>
                    <path d="M33.042765,21.7871742 C32.7170138,23.0503988 31.1961334,23.0385057 31.0283736,24.9167772 C30.9803816,25.4540937 30.8695327,25.9030609 30.7115412,26.2789701 C30.3331261,27.1904967 29.682473,27.6734444 28.9986927,27.9457131 C27.8715169,28.3938308 26.6530288,28.2706515 26.4058486,28.5535391 C24.3290251,30.9279258 28.7709783,36.8286685 27.5839186,36.9777579 C26.3968589,37.1259977 20.0552417,34.3934342 18.3496132,34.3195266 C16.6431353,34.2456191 11.3350929,33.2969696 11.0589243,30.8455445 C13.0352526,29.2411006 16.3219721,28.8623706 17.2835116,25.1355604 C18.9679047,18.6087579 20.1341813,13.5273667 26.2032627,14.1997556 C30.5204225,14.6776063 33.6360825,19.4879693 33.042765,21.7871742 Z" id="Path" fill="#53A4FC"></path>
                    <path d="M30.7115412,26.2789701 C30.3331261,27.1904967 29.682473,27.6734444 28.9986927,27.9457131 C26.355733,23.1604107 26.2614478,18.718736 26.2614478,18.718736 L30.7115412,26.2789701 Z" id="Path" fill="#096DD9"></path>
                    <path d="M30.0073749,16.20498 C31.7257446,16.18634 34.2540331,21.4906944 35.4661505,22.2327433 C36.0352596,22.5789196 31.8310723,25.8932915 30.7926605,26.4369794 C29.753824,26.981092 27.3801294,22.6778877 26.6874302,21.1445182 C25.9951557,19.6111486 24.5927689,16.2644951 30.0073749,16.20498 Z" id="Path" fill="#40A9FF"></path>
                </g>
            </g>
        </g>
    </g>
</svg>