<svg id="图层_1" data-name="图层 1" xmlns="http://www.w3.org/2000/svg" xmlns:xlink="http://www.w3.org/1999/xlink" viewBox="0 0 949.21 788.02"><defs><style>.cls-1{fill:#091023;}.cls-2{fill:#fc3d2b;}.cls-3{fill:#ffb482;}.cls-4{fill:#ff4441;}.cls-5{fill:url(#未命名的渐变_1218);}.cls-6{fill:url(#未命名的渐变_879);}.cls-7{fill:url(#未命名的渐变_879-2);}.cls-8{fill:#ffeed6;}.cls-9{fill:#fea752;}.cls-10{fill:#b80000;}.cls-11{fill:#ff6e50;}.cls-12{fill:url(#未命名的渐变_1463);}.cls-13{fill:url(#未命名的渐变_879-3);}.cls-14{fill:url(#未命名的渐变_879-4);}</style><radialGradient id="未命名的渐变_1218" cx="352.96" cy="329.02" r="235.06" gradientTransform="translate(0 -158.18) scale(1 1.48)" gradientUnits="userSpaceOnUse"><stop offset="0.06" stop-color="#ff7b60"/><stop offset="1" stop-color="#c3062d" stop-opacity="0"/></radialGradient><linearGradient id="未命名的渐变_879" x1="275.94" y1="474.82" x2="275.37" y2="476.51" gradientUnits="userSpaceOnUse"><stop offset="0" stop-color="#ff6a65"/><stop offset="0.8" stop-color="#fff"/></linearGradient><linearGradient id="未命名的渐变_879-2" x1="427.97" y1="474.84" x2="427.42" y2="476.48" xlink:href="#未命名的渐变_879"/><radialGradient id="未命名的渐变_1463" cx="619.43" cy="272.47" r="146.13" gradientTransform="translate(0 -236.98) scale(1 1.87)" gradientUnits="userSpaceOnUse"><stop offset="0.06" stop-color="#f6c368"/><stop offset="1" stop-color="#f17716" stop-opacity="0"/></radialGradient><linearGradient id="未命名的渐变_879-3" x1="557.13" y1="392.8" x2="556.67" y2="394.17" xlink:href="#未命名的渐变_879"/><linearGradient id="未命名的渐变_879-4" x1="680.11" y1="392.81" x2="679.66" y2="394.14" xlink:href="#未命名的渐变_879"/></defs><title>画板 12 副本 3</title><rect class="cls-1" x="-17.71" y="-15.59" width="988.9" height="826.41"/><rect class="cls-2" x="315.65" y="85.06" width="67.7" height="4.72" transform="translate(254.6 434.96) rotate(-88.77)"/><path class="cls-3" d="M427.88,132.82v50.37H275.78V132.82c0-9.4,34-17,76.05-17S427.88,123.42,427.88,132.82Z"/><path class="cls-4" d="M231.81,469.85h-.12v-2A15.26,15.26,0,0,0,231.81,469.85Z"/><path class="cls-4" d="M231.81,180.65a10.59,10.59,0,0,0-.12,1.69v-1.69Z"/><path class="cls-4" d="M474.22,180.65v1.69a10.59,10.59,0,0,0-.12-1.69Z"/><ellipse class="cls-4" cx="352.96" cy="469.37" rx="121.26" ry="55.03"/><ellipse class="cls-4" cx="352.96" cy="182.77" rx="121.26" ry="55.03"/><path class="cls-4" d="M474.22,467.82v2h-.12A15.26,15.26,0,0,0,474.22,467.82Z"/><path class="cls-4" d="M474.22,182.34V467.82a15.26,15.26,0,0,1-.12,2c-2.68,25.41-55.9,45.68-121.14,45.68S234.5,495.26,231.81,469.85a15.26,15.26,0,0,1-.12-2V182.34a10.59,10.59,0,0,1,.12-1.69c2.69-21.22,55.9-38.13,121.15-38.13s118.46,16.91,121.14,38.13A10.59,10.59,0,0,1,474.22,182.34Z"/><path class="cls-5" d="M474.22,182.34V467.82a15.26,15.26,0,0,1-.12,2c-2.68,25.41-55.9,45.68-121.14,45.68S234.5,495.26,231.81,469.85a15.26,15.26,0,0,1-.12-2V182.34a10.59,10.59,0,0,1,.12-1.69c2.69-21.22,55.9-38.13,121.15-38.13s118.46,16.91,121.14,38.13A10.59,10.59,0,0,1,474.22,182.34Z"/><path class="cls-3" d="M427.84,475.24c0-.22,0-.44,0-.66,0-16.34-34.05-29.58-76.05-29.58s-76.05,13.24-76.05,29.58c0,.22,0,.43,0,.65a7.69,7.69,0,0,0,0,.83v33.27h152.1V476.06C427.88,475.79,427.86,475.51,427.84,475.24Z"/><path class="cls-6" d="M275.91,474.58a8.14,8.14,0,0,0-.13,1.48v-1.48Z"/><path class="cls-7" d="M427.88,474.58v1.48a7.35,7.35,0,0,0-.14-1.48Z"/><ellipse class="cls-8" cx="351.83" cy="509.33" rx="76.05" ry="29.58"/><rect class="cls-2" x="313.44" y="513.44" width="72.13" height="4.72" transform="translate(-173.24 854.82) rotate(-88.84)"/><path class="cls-9" d="M343.05,565.83c-4.75-2.76-6.23-10.17-2.59-14.7,3.83-4.77,12-4.72,15.56,0,3.14,4.19,1.59,10.74-2.59,13.84A9.71,9.71,0,0,1,343.05,565.83Z"/><path class="cls-10" d="M336.18,630.15,331,720.78h11.25l.87-105.61Z"/><path class="cls-2" d="M348.73,588.54l5.62,139.15-14.77-.91q1.05-63.24,2.11-126.49Z"/><path class="cls-9" d="M340.47,557.27q-8.16,78.08-16.3,156.14l10.48.72q4.44-50.07,8.86-100.13,1.62,28.13,3.05,56.73,1.15,23.19,2.17,46.11l23.21-3.61c-3.71-15-7.13-31.57-9.85-49.69a558.9,558.9,0,0,1-5.67-104.07Z"/><rect class="cls-2" x="589.25" y="77.06" width="54.76" height="4.72" transform="translate(523.99 694.2) rotate(-88.77)"/><path class="cls-3" d="M680,116.14v40.75H557V116.14c0-7.6,27.55-13.77,61.53-13.77S680,108.54,680,116.14Z"/><path class="cls-4" d="M521.43,388.78h-.1v-1.64A12.78,12.78,0,0,0,521.43,388.78Z"/><path class="cls-4" d="M521.43,154.84a8.84,8.84,0,0,0-.1,1.37v-1.37Z"/><path class="cls-4" d="M717.52,154.84v1.37a10.28,10.28,0,0,0-.09-1.37Z"/><path class="cls-4" d="M717.52,387.14v1.64h-.09A14.88,14.88,0,0,0,717.52,387.14Z"/><path class="cls-11" d="M717.43,154.84h0c-2-23.79-45.09-42.8-98-42.8s-96,19-98,42.8h0a8.84,8.84,0,0,0-.1,1.37V387.14c0,.21,0,.41,0,.62s0,.42,0,.63c0,24.59,43.92,44.52,98.1,44.52s98.09-19.93,98.09-44.52c0-.21,0-.42,0-.63s0-.41,0-.62V156.21A10.28,10.28,0,0,0,717.43,154.84Z"/><path class="cls-12" d="M717.43,154.84h0c-2-23.79-45.09-42.8-98-42.8s-96,19-98,42.8h0a8.84,8.84,0,0,0-.1,1.37V387.14c0,.21,0,.41,0,.62s0,.42,0,.63c0,24.59,43.92,44.52,98.1,44.52s98.09-19.93,98.09-44.52c0-.21,0-.42,0-.63s0-.41,0-.62V156.21A10.28,10.28,0,0,0,717.43,154.84Z"/><path class="cls-3" d="M680,393.14c0-.18,0-.36,0-.54,0-13.21-27.54-23.93-61.52-23.93S557,379.39,557,392.6c0,.18,0,.35,0,.53s0,.45,0,.67v26.91H680V393.8Q680,393.47,680,393.14Z"/><path class="cls-13" d="M557.1,392.6a7,7,0,0,0-.11,1.2v-1.2Z"/><path class="cls-14" d="M680,392.6v1.2a6.09,6.09,0,0,0-.11-1.2Z"/><ellipse class="cls-8" cx="618.51" cy="420.71" rx="61.52" ry="23.93"/><rect class="cls-2" x="587.46" y="423.59" width="58.34" height="4.72" transform="translate(178.33 1033.86) rotate(-88.84)"/><path class="cls-9" d="M611.41,466.42c-3.84-2.23-5-8.23-2.1-11.89,3.1-3.86,9.74-3.82,12.6,0,2.54,3.39,1.28,8.69-2.1,11.19A7.85,7.85,0,0,1,611.41,466.42Z"/><path class="cls-10" d="M605.86,518.45l-4.2,73.32h9.1q.35-42.72.7-85.43Q608.66,512.39,605.86,518.45Z"/><path class="cls-2" d="M616,484.79l4.56,112.56-11.95-.73q.84-51.17,1.7-102.33Q613.16,489.55,616,484.79Z"/><path class="cls-9" d="M609.32,459.49q-6.59,63.16-13.18,126.31l8.48.59,7.17-81q1.31,22.77,2.46,45.9.94,18.76,1.75,37.3l18.79-2.92c-3-12.11-5.78-25.54-8-40.2a451.74,451.74,0,0,1-4.59-84.19Z"/></svg>