
<svg xmlns="http://www.w3.org/2000/svg" version="1.1" xmlns:xlink="http://www.w3.org/1999/xlink" preserveAspectRatio="none" x="0px" y="0px" width="1024px" height="1024px" viewBox="0 0 1024 1024">
<defs>
<g id="Layer0_0_MEMBER_0_FILL">
<path fill="#1D1D1B" fill-opacity="0.09803921568627451" stroke="none" d="
M 120.1 2
Q 140.75 1.7 140.75 1.2 140.75 0.7 120.1 0.35 99.35 0 70.35 0 41.35 0 20.6 0.35 0 0.7 0 1.2 0 1.7 20.6 2 41.05 2.35 70.35 2.35 99.65 2.35 120.1 2 Z"/>
</g>

<g id="Layer0_0_MEMBER_1_MEMBER_0_FILL">
<path fill="#E94E1B" stroke="none" d="
M 287.5 111
Q 287.4 111.95 287.85 112.05
L 288.05 112.05
Q 288.4 112.05 288.5 111.3
L 288.8 108.55
Q 288.9 107.7 288.45 107.6
L 288.3 107.6
Q 287.95 107.6 287.85 108.35
L 287.5 111 Z"/>
</g>

<g id="Layer0_0_MEMBER_1_MEMBER_1_FILL">
<path fill="#F9B659" stroke="none" d="
M 424.95 106.6
L 425.4 112.7 426.15 112.65
Q 427 112.55 426.9 111.65
L 426.4 107.85
Q 426.3 106.9 425.45 106.75
L 424.95 106.6 Z"/>
</g>

<g id="Layer0_0_MEMBER_1_MEMBER_2_FILL">
<path fill="#403430" stroke="none" d="
M 424.15 106.45
L 425.1 112.9 426.25 112.8 425.55 106.45 424.15 106.45 Z"/>
</g>

<g id="Layer0_0_MEMBER_1_MEMBER_3_FILL">
<path fill="#F2E8E8" stroke="none" d="
M 425.35 117.35
L 426.6 117.4
Q 427.15 117.4 427.25 116.85
L 427.55 114.8
Q 427.65 114.5 427.45 114.3 427.25 114.05 426.95 114.05
L 425.25 114.05 424.9 116.8
Q 424.85 117 425 117.15 425.15 117.35 425.35 117.35 Z"/>
</g>

<g id="Layer0_0_MEMBER_1_MEMBER_4_FILL">
<path fill="#DAD1D1" stroke="none" d="
M 388.7 94.9
Q 387.75 94.2 386.55 94.2
L 319.85 94.2
Q 317 94.2 314.95 95.75 312 98.6 309.3 101.15 307.25 103.1 304.55 103.25 292.45 104.15 291.55 104.35 288.7 105 288.45 107.95
L 287.95 113.1
Q 287.75 114.9 288.9 116.25 290.05 117.65 291.8 117.75
L 305.9 118.75 415.85 118.75 422.75 117.85
Q 423.9 117.7 424.7 116.9 425.5 116.1 425.6 115
L 424.9 107.1 424.55 106.15
Q 424 105.25 422.85 104.95 422.25 104.8 420.5 104.7
L 401.05 103.15
Q 400.6 103.15 399.8 102.95
L 399.55 102.85
Q 398.55 102.5 397.85 101.95
L 388.7 94.9 Z"/>
</g>

<g id="Layer0_0_MEMBER_1_MEMBER_5_FILL">
<path fill="#FFFFFF" stroke="none" d="
M 386.55 95.1
L 374.2 95.1 375.15 108.1 374.2 117.85 398.55 117.85 399.8 108.45 398.55 103.45
Q 397.95 103.2 397.3 102.7
L 388.15 95.65
Q 387.45 95.1 386.55 95.1 Z"/>
</g>

<g id="Layer0_0_MEMBER_1_MEMBER_6_MEMBER_0_FILL">
<path fill="#1D1715" stroke="none" d="
M 387.6 96.35
Q 387.1 96 386.55 96
L 375.2 96 375.75 103.55 396.95 103.55 387.6 96.35 Z"/>
</g>

<g id="Layer0_0_MEMBER_1_MEMBER_6_MEMBER_1_FILL">
<path fill="#DAD1D1" stroke="none" d="
M 387.75 96.15
Q 387.3 95.7 386.55 95.7
L 374.9 95.7 375.45 103.85 397.85 103.85 397.05 103.25 396.95 103.2 387.75 96.15
M 375.5 96.3
L 386.55 96.3
Q 387.05 96.3 387.4 96.6
L 396.1 103.25 376 103.25 375.5 96.3 Z"/>
</g>

<g id="Layer0_0_MEMBER_1_MEMBER_7_FILL">
<path fill="#FFFFFF" stroke="none" d="
M 335.2 117.85
L 336.1 108.1 335.2 95.1 321.5 95.1
Q 319.9 95.1 318.85 96.5
L 314.55 102.5
Q 313.9 103.5 313.95 104.55
L 314 108.95
Q 316.75 109.75 318.7 112.35 320.55 114.8 320.8 117.85
L 335.2 117.85 Z"/>
</g>

<g id="Layer0_0_MEMBER_1_MEMBER_8_MEMBER_0_FILL">
<path fill="#1D1715" stroke="none" d="
M 334.85 103.6
L 334.35 96 321.5 96
Q 320.35 96 319.6 97
L 315.05 103.55 334.85 103.6 Z"/>
</g>

<g id="Layer0_0_MEMBER_1_MEMBER_8_MEMBER_1_FILL">
<path fill="#DAD1D1" stroke="none" d="
M 335.2 103.9
L 334.6 95.7 321.5 95.7
Q 320.15 95.8 319.4 96.85
L 314.5 103.85 335.2 103.9
M 334.05 96.3
L 334.55 103.3 315.6 103.25 319.85 97.2
Q 320.5 96.3 321.5 96.3
L 334.05 96.3 Z"/>
</g>

<g id="Layer0_0_MEMBER_1_MEMBER_9_FILL">
<path fill="#DAD1D1" stroke="none" d="
M 376.35 104.9
L 376.35 106.15 380.4 106.15 380.4 104.9 376.35 104.9 Z"/>
</g>

<g id="Layer0_0_MEMBER_1_MEMBER_10_FILL">
<path fill="#DAD1D1" stroke="none" d="
M 315.05 104.9
L 315.05 106.15 319.1 106.15 319.1 104.9 315.05 104.9 Z"/>
</g>

<g id="Layer0_0_MEMBER_1_MEMBER_11_FILL">
<path fill="#F2E8E8" stroke="none" d="
M 292 114.35
Q 291.35 113.7 290.4 113.7
L 287.9 113.7 287.95 113.1 287.45 113.1
Q 286.95 113.1 286.6 113.45 286.25 113.75 286.2 114.25
L 286.15 114.65
Q 286.1 115.1 286.45 115.45 286.8 115.75 287.3 115.75
L 292.7 116
Q 292.7 115.05 292 114.35 Z"/>
</g>

<g id="Layer0_0_MEMBER_1_MEMBER_12_FILL">
<path fill="#F2E8E8" stroke="none" d="
M 426.35 116.75
Q 426.8 116.75 426.95 116.3
L 427.1 115.4
Q 427.2 115.15 427 114.9 426.8 114.7 426.55 114.7
L 423.3 114.7
Q 422.8 114.7 422.7 115.15
L 422.5 116.05
Q 422.45 116.3 422.6 116.55 422.8 116.75 423.1 116.75
L 426.35 116.75 Z"/>
</g>

<g id="Layer0_0_MEMBER_1_MEMBER_13_FILL">
<path fill="#DAD1D1" stroke="none" d="
M 393.7 102.3
L 393.3 103.9 395.25 104.8 395.35 103.8 393.7 102.3 Z"/>
</g>

<g id="Layer0_0_MEMBER_1_MEMBER_14_FILL">
<path fill="#DAD1D1" stroke="none" d="
M 392.75 101
L 392.3 104.85 392.5 104.9
Q 393.3 105 393.85 104.35 394.4 103.75 394.2 102.95
L 393.95 101.95
Q 393.7 101.15 392.9 101.05
L 392.75 101 Z"/>
</g>

<g id="Layer0_0_MEMBER_1_MEMBER_15_FILL">
<path fill="#1D1715" stroke="none" d="
M 404.45 116.45
L 404.05 118.75 415.85 118.75 420.3 118.15 419.95 116.1
Q 419.5 113.6 417.25 112.4 416.15 111.85 414.85 111.85
L 409.95 111.85
Q 408.3 111.85 406.9 112.7 404.8 114.1 404.45 116.45 Z"/>
</g>

<g id="Layer0_0_MEMBER_1_MEMBER_16_FILL">
<path fill="#1D1715" stroke="none" d="
M 305.9 118.75
L 318.6 118.75 318.25 116.1
Q 317.8 113.6 315.55 112.4 314.45 111.85 313.15 111.85
L 308.2 111.85
Q 306.6 111.85 305.2 112.7 303.15 114.1 302.7 116.45
L 302.45 118.45 305.9 118.75 Z"/>
</g>

<g id="Layer0_0_MEMBER_1_MEMBER_17_FILL">
<path fill="#F2E8E8" stroke="none" d="
M 401.05 103.15
Q 400.6 103.15 399.8 102.95
L 399.9 103.4
Q 400.1 104.2 400.7 104.7 401.35 105.2 402.15 105.2
L 424.55 106.15
Q 424 105.25 422.85 104.95 422.25 104.8 420.5 104.7
L 401.05 103.15 Z"/>
</g>

<g id="Layer0_0_MEMBER_1_MEMBER_18_MEMBER_0_FILL">
<path fill="#1D1715" stroke="none" d="
M 373.2 96
L 336.4 96 336.95 103.55 373.75 103.55 373.2 96 Z"/>
</g>

<g id="Layer0_0_MEMBER_1_MEMBER_18_MEMBER_1_FILL">
<path fill="#FFFFFF" stroke="none" d="
M 373.65 95.85
L 373.65 95.1 336.1 95.1 336.7 104.4 374.25 104.4 373.65 95.85
M 336.75 96.3
L 373.1 96.3 373.6 103.25 337.2 103.25 336.75 96.3 Z"/>
</g>

<g id="Layer0_0_MEMBER_1_MEMBER_19_MEMBER_0_FILL">
<path fill="#FFFFFF" stroke="none" d="
M 363.15 95.7
L 360.9 95.7 361.45 103.85 363.7 103.85 363.7 103.25 363.15 95.7 Z"/>
</g>

<g id="Layer0_0_MEMBER_1_MEMBER_19_MEMBER_1_FILL">
<path fill="#DAD1D1" stroke="none" d="
M 362.25 96.65
L 361.9 96.65 362.35 102.9 362.7 102.9 362.25 96.65 Z"/>
</g>

<g id="Layer0_0_MEMBER_1_MEMBER_19_MEMBER_2_FILL">
<path fill="#FFFFFF" stroke="none" d="
M 348.85 95.7
L 346.6 95.7 347.2 103.85 349.45 103.85 348.85 95.7 Z"/>
</g>

<g id="Layer0_0_MEMBER_1_MEMBER_19_MEMBER_3_FILL">
<path fill="#DAD1D1" stroke="none" d="
M 348 96.65
L 347.6 96.65 348.05 102.9 348.4 102.9 348 96.65 Z"/>
</g>

<g id="Layer0_0_MEMBER_1_MEMBER_20_FILL">
<path fill="#1D1D1B" fill-opacity="0.09803921568627451" stroke="none" d="
M 136.6 8.35
Q 137.85 8.2 138.65 7.25
L 138.75 7.25 138.75 7.3
Q 138.7 7.5 138.85 7.65 139 7.85 139.2 7.85
L 140.45 7.9
Q 141 7.9 141.1 7.35
L 141.35 5.85 1.55 0 1.35 1.5
Q 1.25 2.45 1.7 2.55
L 1.9 2.55 1.8 3.6 1.3 3.6
Q 0.8 3.6 0.45 3.95 0.1 4.25 0.05 4.75
L 0 5.15
Q -0.05 5.6 0.3 5.95 0.65 6.25 1.15 6.25
L 2.4 6.3
Q 3.55 8.1 5.65 8.25
L 19.75 9.25 129.7 9.25 136.6 8.35 Z"/>
</g>

<g id="Layer0_0_MEMBER_1_MEMBER_21_MEMBER_0_FILL">
<path fill="#DAD1D1" stroke="none" d="
M 409.05 114.15
Q 407.75 115.5 407.75 117.35 407.75 119.2 409.05 120.55 410.35 121.85 412.2 121.85 414.1 121.85 415.4 120.55 416.7 119.25 416.7 117.35 416.7 115.5 415.4 114.15 414.1 112.85 412.2 112.85 410.35 112.85 409.05 114.15 Z"/>
</g>

<g id="Layer0_0_MEMBER_1_MEMBER_21_MEMBER_1_FILL">
<path fill="#1D1715" stroke="none" d="
M 406.9 112.7
Q 405.2 114.75 405.2 117.35 405.2 118.25 405.3 118.65 405.75 121.15 407.7 122.75 409.65 124.4 412.25 124.4 414.8 124.4 416.75 122.75 418.7 121.1 419.15 118.65 419.25 118.25 419.25 117.35 419.25 114.5 417.25 112.4 416.15 111.85 414.85 111.85
L 409.95 111.85
Q 408.3 111.85 406.9 112.7
M 407.9 117.35
Q 407.9 115.55 409.15 114.3 410.4 113 412.2 113 414 113 415.3 114.3 416.55 115.55 416.55 117.35 416.55 118.1 416.35 118.65 415.95 120 414.8 120.85 413.65 121.7 412.25 121.7 410.8 121.7 409.65 120.85 408.5 120 408.1 118.65 407.9 118.1 407.9 117.35 Z"/>
</g>

<g id="Layer0_0_MEMBER_1_MEMBER_21_MEMBER_2_FILL">
<path fill="#FFFFFF" stroke="none" d="
M 409.9 115.05
Q 408.95 116 408.95 117.35 408.95 118.7 409.9 119.65 410.85 120.6 412.2 120.6 413.6 120.6 414.55 119.65 415.5 118.7 415.5 117.35 415.5 116 414.55 115.05 413.6 114.05 412.2 114.05 410.85 114.05 409.9 115.05 Z"/>
</g>

<g id="Layer0_0_MEMBER_1_MEMBER_21_MEMBER_3_FILL">
<path fill="#DAD1D1" stroke="none" d="
M 410.85 115.95
Q 410.25 116.55 410.25 117.35 410.25 118.15 410.85 118.75 411.4 119.3 412.2 119.3 413.05 119.3 413.6 118.75 414.2 118.15 414.2 117.35 414.2 116.55 413.6 115.95 413.05 115.35 412.2 115.35 411.4 115.35 410.85 115.95 Z"/>
</g>

<g id="Layer0_0_MEMBER_1_MEMBER_21_MEMBER_4_FILL">
<path fill="#FFFFFF" fill-opacity="0.4980392156862745" stroke="none" d="
M 3.4 1.5
Q 2.75 0.45 1.75 0
L 0 3.5 3.4 1.5 Z"/>
</g>

<g id="Layer0_0_MEMBER_1_MEMBER_21_MEMBER_5_FILL">
<path fill="#FFFFFF" fill-opacity="0.4980392156862745" stroke="none" d="
M 1.7 3.6
L 3.4 0 0 2.05
Q 0.6 3.05 1.7 3.6 Z"/>
</g>

<g id="Layer0_0_MEMBER_1_MEMBER_22_MEMBER_0_FILL">
<path fill="#DAD1D1" stroke="none" d="
M 307.35 114.15
Q 306 115.5 306 117.35 306 119.2 307.35 120.55 308.65 121.85 310.5 121.85 312.4 121.85 313.7 120.55 315 119.25 315 117.35 315 115.5 313.7 114.15 312.4 112.85 310.5 112.85 308.65 112.85 307.35 114.15 Z"/>
</g>

<g id="Layer0_0_MEMBER_1_MEMBER_22_MEMBER_1_FILL">
<path fill="#1D1715" stroke="none" d="
M 308.2 111.85
Q 306.5 111.85 305.2 112.7 303.45 114.7 303.45 117.35 303.45 118.05 303.6 118.65 304.05 121.15 306 122.75 307.95 124.4 310.5 124.4 313.05 124.4 315.05 122.75 316.95 121.1 317.45 118.65
L 317.55 117.35
Q 317.55 114.5 315.55 112.4 314.45 111.85 313.15 111.85
L 308.2 111.85
M 310.5 113
Q 312.3 113 313.6 114.3 314.85 115.55 314.85 117.35 314.85 118.1 314.65 118.65 314.25 120 313.1 120.85 311.95 121.7 310.5 121.7 309.1 121.7 307.95 120.85 306.8 120 306.4 118.65 306.2 118.1 306.2 117.35 306.15 115.55 307.45 114.3 308.7 113 310.5 113 Z"/>
</g>

<g id="Layer0_0_MEMBER_1_MEMBER_22_MEMBER_2_FILL">
<path fill="#FFFFFF" stroke="none" d="
M 308.2 115.05
Q 307.25 116 307.25 117.35 307.25 118.7 308.2 119.65 309.15 120.6 310.5 120.6 311.85 120.6 312.85 119.65 313.8 118.7 313.8 117.35 313.8 116 312.85 115.05 311.85 114.05 310.5 114.05 309.15 114.05 308.2 115.05 Z"/>
</g>

<g id="Layer0_0_MEMBER_1_MEMBER_22_MEMBER_3_FILL">
<path fill="#DAD1D1" stroke="none" d="
M 309.1 115.95
Q 308.55 116.5 308.55 117.35 308.55 118.2 309.1 118.75 309.7 119.3 310.5 119.3 311.35 119.3 311.9 118.75 312.5 118.15 312.5 117.35 312.5 116.55 311.9 115.95 311.35 115.35 310.5 115.35 309.7 115.35 309.1 115.95 Z"/>
</g>

<g id="Layer0_0_MEMBER_1_MEMBER_22_MEMBER_4_FILL">
<path fill="#FFFFFF" fill-opacity="0.4980392156862745" stroke="none" d="
M 3.4 1.5
Q 2.75 0.45 1.7 0
L 0 3.5 3.4 1.5 Z"/>
</g>

<g id="Layer0_0_MEMBER_1_MEMBER_22_MEMBER_5_FILL">
<path fill="#FFFFFF" fill-opacity="0.4980392156862745" stroke="none" d="
M 1.7 3.6
L 3.4 0 0 2.05
Q 0.6 3.05 1.7 3.6 Z"/>
</g>

<g id="Layer0_0_MEMBER_1_MEMBER_23_MEMBER_0_FILL">
<path fill="#FFFFFF" fill-opacity="0.2" stroke="none" d="
M 9.6 6.5
L 4.25 0 0 0 5.4 6.5 9.6 6.5 Z"/>
</g>

<g id="Layer0_0_MEMBER_1_MEMBER_23_MEMBER_1_FILL">
<path fill="#FFFFFF" fill-opacity="0.2" stroke="none" d="
M 6.65 6.5
L 1.4 0 0 0 5.3 6.5 6.65 6.5 Z"/>
</g>

<g id="Layer0_0_MEMBER_1_MEMBER_23_MEMBER_2_FILL">
<path fill="#FFFFFF" fill-opacity="0.2" stroke="none" d="
M 9.6 6.5
L 4.25 0 0 0 5.4 6.5 9.6 6.5 Z"/>
</g>

<g id="Layer0_0_MEMBER_1_MEMBER_23_MEMBER_3_FILL">
<path fill="#FFFFFF" fill-opacity="0.2" stroke="none" d="
M 6.65 6.5
L 1.35 0 0 0 5.3 6.5 6.65 6.5 Z"/>
</g>

<g id="Layer0_0_MEMBER_1_MEMBER_23_MEMBER_4_FILL">
<path fill="#FFFFFF" fill-opacity="0.2" stroke="none" d="
M 9.6 6.5
L 4.25 0 0 0 5.4 6.5 9.6 6.5 Z"/>
</g>

<g id="Layer0_0_MEMBER_1_MEMBER_23_MEMBER_5_FILL">
<path fill="#FFFFFF" fill-opacity="0.2" stroke="none" d="
M 6.65 6.5
L 1.4 0 0 0 5.3 6.5 6.65 6.5 Z"/>
</g>

<g id="Layer0_0_MEMBER_1_MEMBER_23_MEMBER_6_FILL">
<path fill="#FFFFFF" fill-opacity="0.2" stroke="none" d="
M 9.6 6.5
L 4.25 0 0 0 5.35 6.5 9.6 6.5 Z"/>
</g>

<g id="Layer0_0_MEMBER_1_MEMBER_23_MEMBER_7_FILL">
<path fill="#FFFFFF" fill-opacity="0.2" stroke="none" d="
M 6.65 6.5
L 1.35 0 0 0 5.3 6.5 6.65 6.5 Z"/>
</g>

<g id="Layer0_0_MEMBER_1_MEMBER_23_MEMBER_8_FILL">
<path fill="#FFFFFF" fill-opacity="0.2" stroke="none" d="
M 9.55 6.5
L 4.25 0 0 0 5.35 6.5 9.55 6.5 Z"/>
</g>

<g id="Layer0_0_MEMBER_1_MEMBER_23_MEMBER_9_FILL">
<path fill="#FFFFFF" fill-opacity="0.2" stroke="none" d="
M 6.7 6.5
L 1.4 0 0 0 5.3 6.5 6.7 6.5 Z"/>
</g>
</defs>

<g transform="matrix( 6.3997955322265625, 0, 0, 6.3997955322265625, 63.9,597.25) ">
<use xlink:href="#Layer0_0_MEMBER_0_FILL"/>
</g>

<g transform="matrix( 6.3997955322265625, 0, 0, 6.3997955322265625, -1771.85,-191.15) ">
<use xlink:href="#Layer0_0_MEMBER_1_MEMBER_0_FILL"/>
</g>

<g transform="matrix( 6.3997955322265625, 0, 0, 6.3997955322265625, -1771.85,-191.15) ">
<use xlink:href="#Layer0_0_MEMBER_1_MEMBER_1_FILL"/>
</g>

<g transform="matrix( 6.3997955322265625, 0, 0, 6.3997955322265625, -1771.85,-191.15) ">
<use xlink:href="#Layer0_0_MEMBER_1_MEMBER_2_FILL"/>
</g>

<g transform="matrix( 6.3997955322265625, 0, 0, 6.3997955322265625, -1771.85,-191.15) ">
<use xlink:href="#Layer0_0_MEMBER_1_MEMBER_3_FILL"/>
</g>

<g transform="matrix( 6.3997955322265625, 0, 0, 6.3997955322265625, -1771.85,-191.15) ">
<use xlink:href="#Layer0_0_MEMBER_1_MEMBER_4_FILL"/>
</g>

<g transform="matrix( 6.3997955322265625, 0, 0, 6.3997955322265625, -1771.85,-191.15) ">
<use xlink:href="#Layer0_0_MEMBER_1_MEMBER_5_FILL"/>
</g>

<g transform="matrix( 6.3997955322265625, 0, 0, 6.3997955322265625, -1771.85,-191.15) ">
<use xlink:href="#Layer0_0_MEMBER_1_MEMBER_6_MEMBER_0_FILL"/>
</g>

<g transform="matrix( 6.3997955322265625, 0, 0, 6.3997955322265625, -1771.85,-191.15) ">
<use xlink:href="#Layer0_0_MEMBER_1_MEMBER_6_MEMBER_1_FILL"/>
</g>

<g transform="matrix( 6.3997955322265625, 0, 0, 6.3997955322265625, -1771.85,-191.15) ">
<use xlink:href="#Layer0_0_MEMBER_1_MEMBER_7_FILL"/>
</g>

<g transform="matrix( 6.3997955322265625, 0, 0, 6.3997955322265625, -1771.85,-191.15) ">
<use xlink:href="#Layer0_0_MEMBER_1_MEMBER_8_MEMBER_0_FILL"/>
</g>

<g transform="matrix( 6.3997955322265625, 0, 0, 6.3997955322265625, -1771.85,-191.15) ">
<use xlink:href="#Layer0_0_MEMBER_1_MEMBER_8_MEMBER_1_FILL"/>
</g>

<g transform="matrix( 6.3997955322265625, 0, 0, 6.3997955322265625, -1771.85,-191.15) ">
<use xlink:href="#Layer0_0_MEMBER_1_MEMBER_9_FILL"/>
</g>

<g transform="matrix( 6.3997955322265625, 0, 0, 6.3997955322265625, -1771.85,-191.15) ">
<use xlink:href="#Layer0_0_MEMBER_1_MEMBER_10_FILL"/>
</g>

<g transform="matrix( 6.3997955322265625, 0, 0, 6.3997955322265625, -1771.85,-191.15) ">
<use xlink:href="#Layer0_0_MEMBER_1_MEMBER_11_FILL"/>
</g>

<g transform="matrix( 6.3997955322265625, 0, 0, 6.3997955322265625, -1771.85,-191.15) ">
<use xlink:href="#Layer0_0_MEMBER_1_MEMBER_12_FILL"/>
</g>

<g transform="matrix( 6.3997955322265625, 0, 0, 6.3997955322265625, -1771.85,-191.15) ">
<use xlink:href="#Layer0_0_MEMBER_1_MEMBER_13_FILL"/>
</g>

<g transform="matrix( 6.3997955322265625, 0, 0, 6.3997955322265625, -1771.85,-191.15) ">
<use xlink:href="#Layer0_0_MEMBER_1_MEMBER_14_FILL"/>
</g>

<g transform="matrix( 6.3997955322265625, 0, 0, 6.3997955322265625, -1771.85,-191.15) ">
<use xlink:href="#Layer0_0_MEMBER_1_MEMBER_15_FILL"/>
</g>

<g transform="matrix( 6.3997955322265625, 0, 0, 6.3997955322265625, -1771.85,-191.15) ">
<use xlink:href="#Layer0_0_MEMBER_1_MEMBER_16_FILL"/>
</g>

<g transform="matrix( 6.3997955322265625, 0, 0, 6.3997955322265625, -1771.85,-191.15) ">
<use xlink:href="#Layer0_0_MEMBER_1_MEMBER_17_FILL"/>
</g>

<g transform="matrix( 6.3997955322265625, 0, 0, 6.3997955322265625, -1771.85,-191.15) ">
<use xlink:href="#Layer0_0_MEMBER_1_MEMBER_18_MEMBER_0_FILL"/>
</g>

<g transform="matrix( 6.3997955322265625, 0, 0, 6.3997955322265625, -1771.85,-191.15) ">
<use xlink:href="#Layer0_0_MEMBER_1_MEMBER_18_MEMBER_1_FILL"/>
</g>

<g transform="matrix( 6.3997955322265625, 0, 0, 6.3997955322265625, -1771.85,-191.15) ">
<use xlink:href="#Layer0_0_MEMBER_1_MEMBER_19_MEMBER_0_FILL"/>
</g>

<g transform="matrix( 6.3997955322265625, 0, 0, 6.3997955322265625, -1771.85,-191.15) ">
<use xlink:href="#Layer0_0_MEMBER_1_MEMBER_19_MEMBER_1_FILL"/>
</g>

<g transform="matrix( 6.3997955322265625, 0, 0, 6.3997955322265625, -1771.85,-191.15) ">
<use xlink:href="#Layer0_0_MEMBER_1_MEMBER_19_MEMBER_2_FILL"/>
</g>

<g transform="matrix( 6.3997955322265625, 0, 0, 6.3997955322265625, -1771.85,-191.15) ">
<use xlink:href="#Layer0_0_MEMBER_1_MEMBER_19_MEMBER_3_FILL"/>
</g>

<g transform="matrix( 6.3997955322265625, 0, 0, 6.3997955322265625, 59.45,509.55) ">
<use xlink:href="#Layer0_0_MEMBER_1_MEMBER_20_FILL"/>
</g>

<g transform="matrix( 6.3997955322265625, 0, 0, 6.3997955322265625, -1771.85,-191.15) ">
<use xlink:href="#Layer0_0_MEMBER_1_MEMBER_21_MEMBER_0_FILL"/>
</g>

<g transform="matrix( 6.3997955322265625, 0, 0, 6.3997955322265625, -1771.85,-191.15) ">
<use xlink:href="#Layer0_0_MEMBER_1_MEMBER_21_MEMBER_1_FILL"/>
</g>

<g transform="matrix( 6.3997955322265625, 0, 0, 6.3997955322265625, -1771.85,-191.15) ">
<use xlink:href="#Layer0_0_MEMBER_1_MEMBER_21_MEMBER_2_FILL"/>
</g>

<g transform="matrix( 6.3997955322265625, 0, 0, 6.3997955322265625, -1771.85,-191.15) ">
<use xlink:href="#Layer0_0_MEMBER_1_MEMBER_21_MEMBER_3_FILL"/>
</g>

<g transform="matrix( 6.3997955322265625, 0, 0, 6.3997955322265625, 866.05,537.1) ">
<use xlink:href="#Layer0_0_MEMBER_1_MEMBER_21_MEMBER_4_FILL"/>
</g>

<g transform="matrix( 6.3997955322265625, 0, 0, 6.3997955322265625, 844.3,559.5) ">
<use xlink:href="#Layer0_0_MEMBER_1_MEMBER_21_MEMBER_5_FILL"/>
</g>

<g transform="matrix( 6.3997955322265625, 0, 0, 6.3997955322265625, -1771.85,-191.15) ">
<use xlink:href="#Layer0_0_MEMBER_1_MEMBER_22_MEMBER_0_FILL"/>
</g>

<g transform="matrix( 6.3997955322265625, 0, 0, 6.3997955322265625, -1771.85,-191.15) ">
<use xlink:href="#Layer0_0_MEMBER_1_MEMBER_22_MEMBER_1_FILL"/>
</g>

<g transform="matrix( 6.3997955322265625, 0, 0, 6.3997955322265625, -1771.85,-191.15) ">
<use xlink:href="#Layer0_0_MEMBER_1_MEMBER_22_MEMBER_2_FILL"/>
</g>

<g transform="matrix( 6.3997955322265625, 0, 0, 6.3997955322265625, -1771.85,-191.15) ">
<use xlink:href="#Layer0_0_MEMBER_1_MEMBER_22_MEMBER_3_FILL"/>
</g>

<g transform="matrix( 6.3997955322265625, 0, 0, 6.3997955322265625, 215.25,537.1) ">
<use xlink:href="#Layer0_0_MEMBER_1_MEMBER_22_MEMBER_4_FILL"/>
</g>

<g transform="matrix( 6.3997955322265625, 0, 0, 6.3997955322265625, 193.45,559.5) ">
<use xlink:href="#Layer0_0_MEMBER_1_MEMBER_22_MEMBER_5_FILL"/>
</g>

<g transform="matrix( 6.3997955322265625, 0, 0, 6.3997955322265625, 651.4,427) ">
<use xlink:href="#Layer0_0_MEMBER_1_MEMBER_23_MEMBER_0_FILL"/>
</g>

<g transform="matrix( 6.3997955322265625, 0, 0, 6.3997955322265625, 682.1,427) ">
<use xlink:href="#Layer0_0_MEMBER_1_MEMBER_23_MEMBER_1_FILL"/>
</g>

<g transform="matrix( 6.3997955322265625, 0, 0, 6.3997955322265625, 289.45,427) ">
<use xlink:href="#Layer0_0_MEMBER_1_MEMBER_23_MEMBER_2_FILL"/>
</g>

<g transform="matrix( 6.3997955322265625, 0, 0, 6.3997955322265625, 320.15,427) ">
<use xlink:href="#Layer0_0_MEMBER_1_MEMBER_23_MEMBER_3_FILL"/>
</g>

<g transform="matrix( 6.3997955322265625, 0, 0, 6.3997955322265625, 552.5,427) ">
<use xlink:href="#Layer0_0_MEMBER_1_MEMBER_23_MEMBER_4_FILL"/>
</g>

<g transform="matrix( 6.3997955322265625, 0, 0, 6.3997955322265625, 583.2,427) ">
<use xlink:href="#Layer0_0_MEMBER_1_MEMBER_23_MEMBER_5_FILL"/>
</g>

<g transform="matrix( 6.3997955322265625, 0, 0, 6.3997955322265625, 463.85,427) ">
<use xlink:href="#Layer0_0_MEMBER_1_MEMBER_23_MEMBER_6_FILL"/>
</g>

<g transform="matrix( 6.3997955322265625, 0, 0, 6.3997955322265625, 494.55,427) ">
<use xlink:href="#Layer0_0_MEMBER_1_MEMBER_23_MEMBER_7_FILL"/>
</g>

<g transform="matrix( 6.3997955322265625, 0, 0, 6.3997955322265625, 383.25,427) ">
<use xlink:href="#Layer0_0_MEMBER_1_MEMBER_23_MEMBER_8_FILL"/>
</g>

<g transform="matrix( 6.3997955322265625, 0, 0, 6.3997955322265625, 413.6,427) ">
<use xlink:href="#Layer0_0_MEMBER_1_MEMBER_23_MEMBER_9_FILL"/>
</g>
</svg>
