<?xml version="1.0" encoding="utf-8"?>
<!-- Generator: Adobe Illustrator 23.0.0, SVG Export Plug-In . SVG Version: 6.00 Build 0)  -->
<svg version="1.1" id="图层_1" xmlns="http://www.w3.org/2000/svg" xmlns:xlink="http://www.w3.org/1999/xlink" x="0px" y="0px"
	 viewBox="0 0 300 300" style="enable-background:new 0 0 300 300;" xml:space="preserve">
<style type="text/css">
	.st0{fill:#ECECEC;}
	.st1{fill:#F5F5F5;}
	.st2{fill:url(#SVGID_1_);}
	.st3{fill:url(#SVGID_2_);}
	.st4{fill:url(#SVGID_3_);}
	.st5{fill:#3F5058;}
	.st6{fill:#20569E;}
	.st7{fill:url(#SVGID_4_);}
	.st8{fill:url(#SVGID_5_);}
	.st9{fill:#F2D031;}
	.st10{fill:url(#SVGID_6_);}
	.st11{fill:url(#SVGID_7_);}
</style>
<g>
	<g>
		<path class="st0" d="M258.05,150.65H65.37l-34.18,46.36h243.18l-14.31-44.75C259.75,151.29,258.95,150.65,258.05,150.65"/>
		<path class="st1" d="M282.64,197.01H81.77c-0.63,0-1.23-0.32-1.63-0.87l-5.65-7.66c-0.41-0.55-1-0.87-1.63-0.87H16.14
			c-1.81,0-2.8,2.41-1.63,3.99l32.77,44.45c0.9,1.23,2.24,1.93,3.64,1.93h218.34c2,0,3.79-1.42,4.47-3.56l10.92-34.15
			C285.15,198.68,284.12,197.01,282.64,197.01"/>
		<linearGradient id="SVGID_1_" gradientUnits="userSpaceOnUse" x1="107.3593" y1="158.3762" x2="262.8417" y2="158.3762">
			<stop  offset="0" style="stop-color:#3282ED"/>
			<stop  offset="1" style="stop-color:#60A2F0"/>
		</linearGradient>
		<polygon class="st2" points="261.19,155.8 111.16,155.8 107.36,160.95 262.84,160.95 		"/>
		<linearGradient id="SVGID_2_" gradientUnits="userSpaceOnUse" x1="99.7635" y1="168.6776" x2="266.1367" y2="168.6776">
			<stop  offset="0" style="stop-color:#3282ED"/>
			<stop  offset="1" style="stop-color:#60A2F0"/>
		</linearGradient>
		<polygon class="st3" points="264.49,166.1 103.56,166.1 99.76,171.25 266.14,171.25 		"/>
		<linearGradient id="SVGID_3_" gradientUnits="userSpaceOnUse" x1="92.1691" y1="178.9791" x2="269.431" y2="178.9791">
			<stop  offset="0" style="stop-color:#3282ED"/>
			<stop  offset="1" style="stop-color:#60A2F0"/>
		</linearGradient>
		<polygon class="st4" points="267.78,176.4 95.97,176.4 92.17,181.55 269.43,181.55 		"/>
		<polygon class="st5" points="97.3,155.8 61.57,155.8 57.77,160.95 93.5,160.95 		"/>
		<polygon class="st5" points="89.71,166.1 53.98,166.1 50.18,171.25 85.91,171.25 		"/>
		<polygon class="st5" points="82.11,176.4 46.38,176.4 42.58,181.55 78.31,181.55 		"/>
		<path class="st0" d="M136.94,140.35H73.96c-0.63,0-1.23,0.32-1.64,0.87l-6.95,9.43h87.82l-15.18-9.98
			C137.68,140.46,137.31,140.35,136.94,140.35"/>
		<polygon class="st5" points="65.37,150.65 153.19,150.65 141.43,142.92 71.07,142.92 		"/>
		<path class="st0" d="M113.09,124.88l-11.41,15.47h15.19v-13.91C116.87,124.17,114.38,123.13,113.09,124.88"/>
		<path class="st6" d="M26.09,207.31l21.19,28.73c0.9,1.23,2.24,1.93,3.64,1.93h218.34c2,0,3.79-1.42,4.47-3.56l8.67-27.11H26.09z"
			/>
		<linearGradient id="SVGID_4_" gradientUnits="userSpaceOnUse" x1="44.9016" y1="235.4018" x2="274.2343" y2="235.4018">
			<stop  offset="0" style="stop-color:#3282ED"/>
			<stop  offset="1" style="stop-color:#60A2F0"/>
		</linearGradient>
		<path class="st7" d="M44.9,232.83l2.37,3.22c0.9,1.23,2.24,1.93,3.64,1.93h218.34c2,0,3.79-1.42,4.47-3.56l0.51-1.59H44.9z"/>
		<linearGradient id="SVGID_5_" gradientUnits="userSpaceOnUse" x1="240.024" y1="189.2809" x2="272.726" y2="189.2809">
			<stop  offset="0" style="stop-color:#3282ED"/>
			<stop  offset="1" style="stop-color:#60A2F0"/>
		</linearGradient>
		<polygon class="st8" points="271.08,186.71 240.02,186.71 243.82,191.86 272.73,191.86 		"/>
		<path class="st9" d="M99.38,189.28c0,1.42-1.01,2.57-2.26,2.57h-9.34c-1.25,0-2.26-1.15-2.26-2.57c0-1.42,1.01-2.58,2.26-2.58
			h9.34C98.37,186.71,99.38,187.86,99.38,189.28"/>
		<path class="st9" d="M117.99,189.28c0,1.42-1.01,2.57-2.26,2.57h-9.35c-1.25,0-2.26-1.15-2.26-2.57c0-1.42,1.01-2.58,2.26-2.58
			h9.35C116.97,186.71,117.99,187.86,117.99,189.28"/>
		<path class="st9" d="M136.59,189.28c0,1.42-1.01,2.57-2.26,2.57h-9.35c-1.25,0-2.26-1.15-2.26-2.57c0-1.42,1.01-2.58,2.26-2.58
			h9.35C135.58,186.71,136.59,187.86,136.59,189.28"/>
		<path class="st9" d="M155.2,189.28c0,1.42-1.01,2.57-2.26,2.57h-9.34c-1.25,0-2.26-1.15-2.26-2.57c0-1.42,1.01-2.58,2.26-2.58
			h9.34C154.18,186.71,155.2,187.86,155.2,189.28"/>
		<path class="st9" d="M173.8,189.28c0,1.42-1.01,2.57-2.26,2.57h-9.35c-1.25,0-2.26-1.15-2.26-2.57c0-1.42,1.01-2.58,2.26-2.58
			h9.35C172.79,186.71,173.8,187.86,173.8,189.28"/>
		<path class="st9" d="M192.41,189.28c0,1.42-1.01,2.57-2.26,2.57h-9.35c-1.25,0-2.26-1.15-2.26-2.57c0-1.42,1.01-2.58,2.26-2.58
			h9.35C191.4,186.71,192.41,187.86,192.41,189.28"/>
		<path class="st9" d="M211.01,189.28c0,1.42-1.01,2.57-2.26,2.57h-9.34c-1.25,0-2.26-1.15-2.26-2.57c0-1.42,1.01-2.58,2.26-2.58
			h9.34C210,186.71,211.01,187.86,211.01,189.28"/>
		<path class="st9" d="M229.62,189.28c0,1.42-1.01,2.57-2.26,2.57h-9.35c-1.25,0-2.26-1.15-2.26-2.57c0-1.42,1.01-2.58,2.26-2.58
			h9.35C228.61,186.71,229.62,187.86,229.62,189.28"/>
	</g>
	<linearGradient id="SVGID_6_" gradientUnits="userSpaceOnUse" x1="227.3194" y1="82.1596" x2="285.1022" y2="82.1596">
		<stop  offset="0" style="stop-color:#7AB4F4"/>
		<stop  offset="1" style="stop-color:#DFEDFA"/>
	</linearGradient>
	<path class="st10" d="M269.22,69.24c-2.18,0-4.26,0.44-6.16,1.24c-2.49-4.28-7.12-7.16-12.42-7.16c-7.93,0-14.36,6.43-14.36,14.36
		c0,0.11,0,0.21,0,0.32c-5.14,1.22-8.97,5.83-8.97,11.35c0,6.44,5.22,11.66,11.66,11.66h30.24c8.77,0,15.88-7.11,15.88-15.88
		C285.1,76.35,277.99,69.24,269.22,69.24z"/>
	<linearGradient id="SVGID_7_" gradientUnits="userSpaceOnUse" x1="178.4475" y1="106" x2="215.251" y2="106">
		<stop  offset="0" style="stop-color:#7AB4F4"/>
		<stop  offset="1" style="stop-color:#DFEDFA"/>
	</linearGradient>
	<path class="st11" d="M205.14,97.77c-1.39,0-2.72,0.28-3.92,0.79c-1.58-2.72-4.53-4.56-7.91-4.56c-5.05,0-9.15,4.09-9.15,9.15
		c0,0.07,0,0.13,0,0.2c-3.27,0.77-5.71,3.71-5.71,7.23c0,4.1,3.33,7.43,7.43,7.43h19.26c5.59,0,10.12-4.53,10.12-10.12
		C215.25,102.3,210.72,97.77,205.14,97.77z"/>
</g>
</svg>
