<svg width="468" height="112" viewBox="0 0 468 112" fill="none" xmlns="http://www.w3.org/2000/svg">
<rect width="468" height="112" fill="white"/>
<rect x="7" y="8" width="454" height="96" fill="#78C1C0"/>
<rect x="210" y="16" width="241" height="76" rx="2" fill="#F7D147"/>
<path d="M292.89 88.9409H295.689V90H291.571V83.6016H292.89V88.9409Z" fill="black"/>
<path d="M300.149 88.6816H297.838L297.398 90H295.997L298.378 83.6016H299.6L301.995 90H300.593L300.149 88.6816ZM298.194 87.6138H299.793L298.989 85.2188L298.194 87.6138Z" fill="black"/>
<path d="M307.796 90H306.478L303.911 85.79V90H302.593V83.6016H303.911L306.482 87.8203V83.6016H307.796V90Z" fill="black"/>
<path d="M336.29 87.5786C336.29 87.1069 336.381 86.6865 336.562 86.3174C336.744 85.9482 337.005 85.6626 337.345 85.4604C337.688 85.2583 338.084 85.1572 338.536 85.1572C339.177 85.1572 339.7 85.3535 340.104 85.7461C340.512 86.1387 340.739 86.6719 340.786 87.3457L340.794 87.6709C340.794 88.4004 340.591 88.9863 340.184 89.4287C339.776 89.8682 339.23 90.0879 338.544 90.0879C337.859 90.0879 337.311 89.8682 336.901 89.4287C336.494 88.9893 336.29 88.3916 336.29 87.6357V87.5786ZM337.56 87.6709C337.56 88.1221 337.645 88.4678 337.815 88.708C337.985 88.9453 338.228 89.064 338.544 89.064C338.852 89.064 339.092 88.9468 339.265 88.7124C339.438 88.4751 339.524 88.0972 339.524 87.5786C339.524 87.1362 339.438 86.7935 339.265 86.5503C339.092 86.3071 338.849 86.1855 338.536 86.1855C338.225 86.1855 337.985 86.3071 337.815 86.5503C337.645 86.7905 337.56 87.1641 337.56 87.6709Z" fill="black"/>
<path d="M344.424 89.5166C344.111 89.8975 343.677 90.0879 343.124 90.0879C342.614 90.0879 342.224 89.9414 341.955 89.6484C341.688 89.3555 341.552 88.9263 341.546 88.3608V85.2451H342.816V88.3169C342.816 88.812 343.042 89.0596 343.493 89.0596C343.923 89.0596 344.219 88.9102 344.38 88.6113V85.2451H345.655V90H344.459L344.424 89.5166Z" fill="black"/>
<path d="M348.133 84.0762V85.2451H348.946V86.1768H348.133V88.5498C348.133 88.7256 348.167 88.8516 348.234 88.9277C348.302 89.0039 348.431 89.042 348.621 89.042C348.762 89.042 348.886 89.0317 348.995 89.0112V89.9736C348.746 90.0498 348.489 90.0879 348.226 90.0879C347.335 90.0879 346.881 89.6382 346.863 88.7388V86.1768H346.169V85.2451H346.863V84.0762H348.133Z" fill="black"/>
<path d="M317.89 87.7456V90H316.571V83.6016H319.067C319.548 83.6016 319.97 83.6895 320.333 83.8652C320.699 84.041 320.98 84.2915 321.177 84.6167C321.373 84.939 321.471 85.3066 321.471 85.7197C321.471 86.3467 321.256 86.8418 320.825 87.2051C320.397 87.5654 319.804 87.7456 319.045 87.7456H317.89ZM317.89 86.6777H319.067C319.416 86.6777 319.681 86.5957 319.863 86.4316C320.047 86.2676 320.14 86.0332 320.14 85.7285C320.14 85.415 320.047 85.1616 319.863 84.9683C319.678 84.7749 319.423 84.6753 319.098 84.6694H317.89V86.6777Z" fill="black"/>
<path d="M322.038 87.5786C322.038 87.1069 322.129 86.6865 322.311 86.3174C322.492 85.9482 322.753 85.6626 323.093 85.4604C323.436 85.2583 323.833 85.1572 324.284 85.1572C324.925 85.1572 325.448 85.3535 325.853 85.7461C326.26 86.1387 326.487 86.6719 326.534 87.3457L326.542 87.6709C326.542 88.4004 326.339 88.9863 325.932 89.4287C325.524 89.8682 324.978 90.0879 324.292 90.0879C323.607 90.0879 323.059 89.8682 322.649 89.4287C322.242 88.9893 322.038 88.3916 322.038 87.6357V87.5786ZM323.308 87.6709C323.308 88.1221 323.393 88.4678 323.563 88.708C323.733 88.9453 323.976 89.064 324.292 89.064C324.6 89.064 324.84 88.9468 325.013 88.7124C325.186 88.4751 325.272 88.0972 325.272 87.5786C325.272 87.1362 325.186 86.7935 325.013 86.5503C324.84 86.3071 324.597 86.1855 324.284 86.1855C323.973 86.1855 323.733 86.3071 323.563 86.5503C323.393 86.7905 323.308 87.1641 323.308 87.6709Z" fill="black"/>
<path d="M331.258 87.2271H328.727V88.9409H331.697V90H327.408V83.6016H331.688V84.6694H328.727V86.1943H331.258V87.2271Z" fill="black"/>
<path d="M179.52 26H178.25V21.1045L176.734 21.5747V20.542L179.384 19.5928H179.52V26Z" fill="black"/>
<path d="M239.821 26H235.435V25.1299L237.505 22.9238C237.789 22.6133 237.999 22.3423 238.133 22.1108C238.271 21.8794 238.34 21.6597 238.34 21.4517C238.34 21.1675 238.268 20.9448 238.125 20.7837C237.981 20.6196 237.776 20.5376 237.509 20.5376C237.222 20.5376 236.995 20.6372 236.828 20.8364C236.664 21.0327 236.582 21.292 236.582 21.6143H235.308C235.308 21.2246 235.4 20.8687 235.584 20.5464C235.772 20.2241 236.036 19.9722 236.375 19.7905C236.715 19.606 237.101 19.5137 237.531 19.5137C238.19 19.5137 238.702 19.6719 239.065 19.9883C239.431 20.3047 239.614 20.7515 239.614 21.3286C239.614 21.645 239.532 21.9673 239.368 22.2954C239.204 22.6235 238.923 23.0059 238.524 23.4424L237.07 24.9761H239.821V26Z" fill="black"/>
<path d="M352.192 23.5918H352.917V24.6157H352.192V26H350.922V24.6157H348.299L348.242 23.8159L350.909 19.6016H352.192V23.5918ZM349.507 23.5918H350.922V21.333L350.839 21.478L349.507 23.5918Z" fill="black"/>
<path d="M293.727 22.2383H294.404C294.726 22.2383 294.965 22.1577 295.12 21.9966C295.275 21.8354 295.353 21.6216 295.353 21.355C295.353 21.0972 295.275 20.8965 295.12 20.7529C294.968 20.6094 294.757 20.5376 294.487 20.5376C294.244 20.5376 294.041 20.605 293.876 20.7397C293.712 20.8716 293.63 21.0444 293.63 21.2583H292.36C292.36 20.9243 292.45 20.6255 292.628 20.3618C292.81 20.0952 293.062 19.8872 293.384 19.7378C293.709 19.5884 294.067 19.5137 294.457 19.5137C295.133 19.5137 295.664 19.6763 296.047 20.0015C296.431 20.3237 296.623 20.769 296.623 21.3374C296.623 21.6304 296.534 21.8999 296.355 22.146C296.176 22.3921 295.942 22.5811 295.652 22.7129C296.012 22.8418 296.28 23.0352 296.456 23.293C296.635 23.5508 296.724 23.8555 296.724 24.207C296.724 24.7754 296.516 25.231 296.1 25.5737C295.687 25.9165 295.139 26.0879 294.457 26.0879C293.818 26.0879 293.295 25.9194 292.888 25.5825C292.483 25.2456 292.281 24.8003 292.281 24.2466H293.551C293.551 24.4868 293.641 24.6831 293.819 24.8354C294.001 24.9878 294.224 25.064 294.487 25.064C294.789 25.064 295.025 24.9849 295.195 24.8267C295.368 24.6655 295.454 24.4531 295.454 24.1895C295.454 23.5508 295.103 23.2314 294.399 23.2314H293.727V22.2383Z" fill="black"/>
<path d="M406.624 22.8535L406.993 19.6016H410.579V20.6606H408.035L407.876 22.0361C408.178 21.875 408.499 21.7944 408.839 21.7944C409.448 21.7944 409.926 21.9834 410.271 22.3613C410.617 22.7393 410.79 23.2681 410.79 23.9478C410.79 24.3608 410.702 24.7314 410.526 25.0596C410.354 25.3848 410.104 25.6382 409.779 25.8198C409.454 25.9985 409.07 26.0879 408.628 26.0879C408.241 26.0879 407.882 26.0103 407.551 25.855C407.22 25.6968 406.958 25.4756 406.765 25.1914C406.574 24.9072 406.473 24.5835 406.461 24.2202H407.718C407.745 24.4868 407.837 24.6948 407.995 24.8442C408.156 24.9907 408.366 25.064 408.624 25.064C408.911 25.064 409.132 24.9614 409.287 24.7563C409.442 24.5483 409.52 24.2554 409.52 23.8774C409.52 23.5142 409.431 23.2358 409.252 23.0425C409.073 22.8491 408.82 22.7524 408.492 22.7524C408.19 22.7524 407.945 22.8315 407.758 22.9897L407.635 23.104L406.624 22.8535Z" fill="black"/>
<path d="M357.876 85.5165C357.958 85.6013 358 85.7018 358 85.8195C358 85.9365 357.958 86.0378 357.876 86.1225L356.532 87.462L357.035 87.9645L356.499 88.5008C356.136 88.8645 355.701 89.073 355.195 89.1248C354.69 89.1773 354.23 89.0648 353.818 88.7888L352.606 90H352V89.394L353.212 88.182C352.935 87.7695 352.823 87.3098 352.876 86.8043C352.928 86.2988 353.136 85.8645 353.501 85.5L354.036 84.9645L354.538 85.467L355.878 84.1245C355.963 84.042 356.064 84 356.183 84C356.301 84 356.402 84.042 356.484 84.1245C356.567 84.207 356.609 84.3083 356.609 84.4275C356.609 84.5475 356.567 84.648 356.484 84.7305L355.144 86.0722L355.927 86.856L357.27 85.5165C357.355 85.434 357.456 85.392 357.576 85.392C357.692 85.3928 357.792 85.434 357.876 85.5165Z" fill="black"/>
<rect x="146" y="29" width="296" height="52" fill="black"/>
<path d="M93.8 25.9C93.8 26 93.8 26.1 93.7 26.3L92.3 34.2H89.2L90.2 28.6C90.2 28.4 90.4 27.7 90.5 26.8C90.5 26.8 90.5 26.8 90.5 26.7C90.7 25.2 90.3 24.4 89.6 24.4C88.8 24.4 87.7 25.5 87.3 27.9L86.2 34.2H83L85.9 17H89.1L88 24.1C88.9 22.7 90.1 21.8 91 21.8C91.1 21.8 91.2 21.8 91.3 21.8C92.3 21.9 94.3 22.4 93.8 25.9Z" fill="black"/>
<path d="M119.89 21.7456V24H118.571V17.6016H121.067C121.548 17.6016 121.97 17.6895 122.333 17.8652C122.699 18.041 122.98 18.2915 123.177 18.6167C123.373 18.939 123.471 19.3066 123.471 19.7197C123.471 20.3467 123.256 20.8418 122.825 21.2051C122.397 21.5654 121.804 21.7456 121.045 21.7456H119.89ZM119.89 20.6777H121.067C121.416 20.6777 121.681 20.5957 121.863 20.4316C122.047 20.2676 122.14 20.0332 122.14 19.7285C122.14 19.415 122.047 19.1616 121.863 18.9683C121.678 18.7749 121.423 18.6753 121.098 18.6694H119.89V20.6777Z" fill="black"/>
<path d="M124.038 21.5786C124.038 21.1069 124.129 20.6865 124.311 20.3174C124.492 19.9482 124.753 19.6626 125.093 19.4604C125.436 19.2583 125.833 19.1572 126.284 19.1572C126.925 19.1572 127.448 19.3535 127.853 19.7461C128.26 20.1387 128.487 20.6719 128.534 21.3457L128.542 21.6709C128.542 22.4004 128.339 22.9863 127.932 23.4287C127.524 23.8682 126.978 24.0879 126.292 24.0879C125.607 24.0879 125.059 23.8682 124.649 23.4287C124.242 22.9893 124.038 22.3916 124.038 21.6357V21.5786ZM125.308 21.6709C125.308 22.1221 125.393 22.4678 125.563 22.708C125.733 22.9453 125.976 23.064 126.292 23.064C126.6 23.064 126.84 22.9468 127.013 22.7124C127.186 22.4751 127.272 22.0972 127.272 21.5786C127.272 21.1362 127.186 20.7935 127.013 20.5503C126.84 20.3071 126.597 20.1855 126.284 20.1855C125.973 20.1855 125.733 20.3071 125.563 20.5503C125.393 20.7905 125.308 21.1641 125.308 21.6709Z" fill="black"/>
<path d="M133.258 21.2271H130.727V22.9409H133.697V24H129.408V17.6016H133.688V18.6694H130.727V20.1943H133.258V21.2271Z" fill="black"/>
<path d="M103.23 26.6326H98.4761V31.1861H104.056V34H96V17H104.039V19.8372H98.4761V23.8887H103.23V26.6326Z" fill="black"/>
<path d="M109.808 22.8613L112.062 17H114.909L111.41 25.4299L115 34H112.119L109.808 28.0453L107.497 34H104.617L108.207 25.4299L104.708 17H107.555L109.808 22.8613Z" fill="black"/>
<rect x="441" y="80" width="294" height="50" rx="1" transform="rotate(-180 441 80)" fill="#C2C2C2"/>
<path d="M173 79L191 79V75L173 75V79Z" fill="#181818"/>
<path d="M198 68L198 75L166 75L166 68L157 68L157 36L207 36L207 68L198 68Z" fill="#181818"/>
<path d="M229 79L247 79V75L229 75V79Z" fill="#181818"/>
<path d="M254 68L254 75L222 75L222 68L213 68L213 36L263 36L263 68L254 68Z" fill="#181818"/>
<path d="M285 79L303 79V75L285 75V79Z" fill="#181818"/>
<path d="M310 68L310 75L278 75L278 68L269 68L269 36L319 36L319 68L310 68Z" fill="#181818"/>
<path d="M341 79L359 79V75L341 75L341 79Z" fill="#181818"/>
<path d="M366 68L366 75L334 75L334 68L325 68L325 36L375 36L375 68L366 68Z" fill="#181818"/>
<path d="M397 79L415 79V75L397 75V79Z" fill="#181818"/>
<path d="M422 68L422 75L390 75L390 68L381 68L381 36L431 36L431 68L422 68Z" fill="#181818"/>
<rect x="22" y="16" width="48" height="80" rx="3" fill="#4A4A4A"/>
<rect x="28" y="36" width="36" height="42" fill="#181818"/>
<rect x="29" y="37" width="34" height="40" rx="1" fill="#323232"/>
<rect x="29" y="37" width="34" height="40" rx="1" fill="url(#paint0_linear)"/>
<circle cx="46" cy="53" r="12" fill="#171717"/>
<circle cx="46" cy="53" r="2" fill="#C4C4C4"/>
<path d="M28.6602 94.7656V89.0781H30.2656C30.7604 89.0781 31.1979 89.1875 31.5781 89.4062C31.9583 89.625 32.2513 89.9362 32.457 90.3398C32.6654 90.7435 32.7708 91.207 32.7734 91.7305V92.0938C32.7734 92.6302 32.6693 93.1003 32.4609 93.5039C32.2552 93.9076 31.9596 94.2174 31.5742 94.4336C31.1914 94.6497 30.7448 94.7604 30.2344 94.7656H28.6602ZM29.4102 89.6953V94.1523H30.1992C30.7773 94.1523 31.2266 93.9727 31.5469 93.6133C31.8698 93.2539 32.0312 92.7422 32.0312 92.0781V91.7461C32.0312 91.1003 31.8789 90.599 31.5742 90.2422C31.2721 89.8828 30.8424 89.7005 30.2852 89.6953H29.4102Z" fill="white"/>
<path d="M38.0938 92.9609C38.0234 93.5625 37.8008 94.0273 37.4258 94.3555C37.0534 94.681 36.5573 94.8438 35.9375 94.8438C35.2656 94.8438 34.7266 94.6029 34.3203 94.1211C33.9167 93.6393 33.7148 92.9948 33.7148 92.1875V91.6406C33.7148 91.112 33.8086 90.6471 33.9961 90.2461C34.1862 89.8451 34.4544 89.5378 34.8008 89.3242C35.1471 89.1081 35.5482 89 36.0039 89C36.6081 89 37.0924 89.1693 37.457 89.5078C37.8216 89.8438 38.0339 90.3099 38.0938 90.9062H37.3398C37.2747 90.4531 37.1328 90.125 36.9141 89.9219C36.6979 89.7188 36.3945 89.6172 36.0039 89.6172C35.5247 89.6172 35.1484 89.7943 34.875 90.1484C34.6042 90.5026 34.4688 91.0065 34.4688 91.6602V92.2109C34.4688 92.8281 34.5977 93.319 34.8555 93.6836C35.1133 94.0482 35.474 94.2305 35.9375 94.2305C36.3542 94.2305 36.6732 94.1367 36.8945 93.9492C37.1185 93.7591 37.2669 93.4297 37.3398 92.9609H38.0938Z" fill="white"/>
<path d="M41.3086 94.7656H40.582V89.9492L39.125 90.4844V89.8281L41.1953 89.0508H41.3086V94.7656Z" fill="white"/>
<path d="M46.9922 92.3398C46.9922 93.1862 46.8477 93.8151 46.5586 94.2266C46.2695 94.638 45.8177 94.8438 45.2031 94.8438C44.5964 94.8438 44.1471 94.6432 43.8555 94.2422C43.5638 93.8385 43.4128 93.237 43.4023 92.4375V91.4727C43.4023 90.6367 43.5469 90.0156 43.8359 89.6094C44.125 89.2031 44.5781 89 45.1953 89C45.8073 89 46.2578 89.1966 46.5469 89.5898C46.8359 89.9805 46.9844 90.5846 46.9922 91.4023V92.3398ZM46.2695 91.3516C46.2695 90.7396 46.1836 90.2943 46.0117 90.0156C45.8398 89.7344 45.5677 89.5938 45.1953 89.5938C44.8255 89.5938 44.556 89.7331 44.3867 90.0117C44.2174 90.2904 44.1302 90.7188 44.125 91.2969V92.4531C44.125 93.0677 44.2135 93.5221 44.3906 93.8164C44.5703 94.1081 44.8411 94.2539 45.2031 94.2539C45.5599 94.2539 45.8242 94.1159 45.9961 93.8398C46.1706 93.5638 46.2617 93.1289 46.2695 92.5352V91.3516Z" fill="white"/>
<path d="M49.4961 92.6445H47.5898V92.0547H49.4961V92.6445Z" fill="white"/>
<path d="M50.4609 91.9141L50.75 89.0781H53.6641V89.7461H51.3633L51.1914 91.2969C51.4701 91.1328 51.7865 91.0508 52.1406 91.0508C52.6589 91.0508 53.0703 91.2227 53.375 91.5664C53.6797 91.9076 53.832 92.3698 53.832 92.9531C53.832 93.5391 53.6732 94.0013 53.3555 94.3398C53.0404 94.6758 52.599 94.8438 52.0312 94.8438C51.5286 94.8438 51.1185 94.7044 50.8008 94.4258C50.4831 94.1471 50.3021 93.7617 50.2578 93.2695H50.9414C50.9857 93.5951 51.1016 93.8411 51.2891 94.0078C51.4766 94.1719 51.724 94.2539 52.0312 94.2539C52.3672 94.2539 52.6302 94.1393 52.8203 93.9102C53.013 93.681 53.1094 93.3646 53.1094 92.9609C53.1094 92.5807 53.0052 92.276 52.7969 92.0469C52.5911 91.8151 52.3164 91.6992 51.9727 91.6992C51.6576 91.6992 51.4102 91.7682 51.2305 91.9062L51.0391 92.0625L50.4609 91.9141Z" fill="white"/>
<path d="M58.293 89.4844L55.9375 94.7656H55.1797L57.5273 89.6719H54.4492V89.0781H58.293V89.4844Z" fill="white"/>
<path d="M61.1836 93.7695L62.8086 89.0781H63.6289L61.5195 94.7656H60.8555L58.75 89.0781H59.5664L61.1836 93.7695Z" fill="white"/>
<path fill-rule="evenodd" clip-rule="evenodd" d="M31.5 86C32.8807 86 34 84.8807 34 83.5C34 82.1193 32.8807 81 31.5 81C30.1193 81 29 82.1193 29 83.5C29 84.8807 30.1193 86 31.5 86ZM31.5 87C33.433 87 35 85.433 35 83.5C35 81.567 33.433 80 31.5 80C29.567 80 28 81.567 28 83.5C28 85.433 29.567 87 31.5 87Z" fill="white"/>
<path fill-rule="evenodd" clip-rule="evenodd" d="M48.5002 85C48.0441 85.6072 47.3179 86 46.5 86C45.1193 86 44 84.8807 44 83.5C44 82.1193 45.1193 81 46.5 81C47.3179 81 48.0441 81.3928 48.5002 82H49.6632C49.1015 80.8175 47.8962 80 46.5 80C44.567 80 43 81.567 43 83.5C43 85.433 44.567 87 46.5 87C47.8962 87 49.1015 86.1825 49.6632 85H48.5002Z" fill="white"/>
<path fill-rule="evenodd" clip-rule="evenodd" d="M60.5 86C61.8807 86 63 84.8807 63 83.5C63 82.1193 61.8807 81 60.5 81C59.1193 81 58 82.1193 58 83.5C58 84.8807 59.1193 86 60.5 86ZM60.5 87C62.433 87 64 85.433 64 83.5C64 81.567 62.433 80 60.5 80C58.567 80 57 81.567 57 83.5C57 85.433 58.567 87 60.5 87Z" fill="white"/>
<rect x="30" y="83" width="3" height="1" fill="white"/>
<rect x="34" y="83" width="10" height="1" fill="white"/>
<rect x="47" y="83" width="11" height="1" fill="white"/>
<path fill-rule="evenodd" clip-rule="evenodd" d="M60 84V85H61V84H62V83H61V82H60V83H59V84H60Z" fill="white"/>
<circle cx="46.5" cy="83.5" r="1.5" fill="white"/>
<path d="M32.9375 25.2168V28H32V20.8906H34.6221C35.4001 20.8906 36.0088 21.0892 36.4482 21.4863C36.891 21.8835 37.1123 22.4092 37.1123 23.0635C37.1123 23.7536 36.8958 24.2858 36.4629 24.6602C36.0332 25.0312 35.4163 25.2168 34.6123 25.2168H32.9375ZM32.9375 24.4502H34.6221C35.1234 24.4502 35.5075 24.333 35.7744 24.0986C36.0413 23.861 36.1748 23.5192 36.1748 23.0732C36.1748 22.6501 36.0413 22.3115 35.7744 22.0576C35.5075 21.8037 35.1413 21.6719 34.6758 21.6621H32.9375V24.4502Z" fill="white"/>
<path d="M37.8594 25.3096C37.8594 24.792 37.9603 24.3265 38.1621 23.9131C38.3672 23.4997 38.6504 23.1807 39.0117 22.9561C39.3763 22.7314 39.7913 22.6191 40.2568 22.6191C40.9762 22.6191 41.5573 22.8682 42 23.3662C42.446 23.8643 42.6689 24.5267 42.6689 25.3535V25.417C42.6689 25.9313 42.5697 26.3936 42.3711 26.8037C42.1758 27.2106 41.8942 27.528 41.5264 27.7559C41.1618 27.9837 40.7419 28.0977 40.2666 28.0977C39.5505 28.0977 38.9694 27.8486 38.5234 27.3506C38.0807 26.8525 37.8594 26.1934 37.8594 25.373V25.3096ZM38.7676 25.417C38.7676 26.0029 38.9027 26.4733 39.1729 26.8281C39.4463 27.1829 39.8109 27.3604 40.2666 27.3604C40.7256 27.3604 41.0902 27.1813 41.3604 26.8232C41.6305 26.4619 41.7656 25.9574 41.7656 25.3096C41.7656 24.7301 41.6273 24.2614 41.3506 23.9033C41.0771 23.542 40.7126 23.3613 40.2568 23.3613C39.8109 23.3613 39.4512 23.5387 39.1777 23.8936C38.9043 24.2484 38.7676 24.7562 38.7676 25.417Z" fill="white"/>
<path d="M48.4795 26.7549L49.4951 22.7168H50.3984L48.8604 28H48.1279L46.8438 23.9961L45.5938 28H44.8613L43.3281 22.7168H44.2266L45.2666 26.6719L46.4971 22.7168H47.2246L48.4795 26.7549Z" fill="white"/>
<path d="M53.5137 28.0977C52.7975 28.0977 52.2148 27.8633 51.7656 27.3945C51.3164 26.9225 51.0918 26.2926 51.0918 25.5049V25.3389C51.0918 24.8148 51.1911 24.3477 51.3896 23.9375C51.5915 23.5241 51.8714 23.2018 52.2295 22.9707C52.5908 22.7363 52.9814 22.6191 53.4014 22.6191C54.0882 22.6191 54.6221 22.8454 55.0029 23.2979C55.3838 23.7503 55.5742 24.3981 55.5742 25.2412V25.6172H51.9951C52.0081 26.138 52.1595 26.5596 52.4492 26.8818C52.7422 27.2008 53.1133 27.3604 53.5625 27.3604C53.8815 27.3604 54.1517 27.2952 54.373 27.165C54.5944 27.0348 54.7881 26.8623 54.9541 26.6475L55.5059 27.0771C55.0632 27.7575 54.3991 28.0977 53.5137 28.0977ZM53.4014 23.3613C53.0368 23.3613 52.7308 23.4948 52.4834 23.7617C52.236 24.0254 52.083 24.3965 52.0244 24.875H54.6709V24.8066C54.6449 24.3477 54.5212 23.9928 54.2998 23.7422C54.0785 23.4883 53.779 23.3613 53.4014 23.3613Z" fill="white"/>
<path d="M59.1777 23.5273C59.041 23.5046 58.8929 23.4932 58.7334 23.4932C58.141 23.4932 57.7389 23.7454 57.5273 24.25V28H56.624V22.7168H57.5029L57.5176 23.3271C57.8138 22.8551 58.2337 22.6191 58.7773 22.6191C58.9531 22.6191 59.0866 22.6419 59.1777 22.6875V23.5273Z" fill="white"/>
<path d="M112.648 96H111.804V89.6016H112.648V96Z" fill="black"/>
<path d="M114.836 91.2451L114.863 91.8428C115.226 91.3857 115.701 91.1572 116.287 91.1572C117.292 91.1572 117.798 91.7241 117.807 92.8579V96H116.994V92.8535C116.991 92.5107 116.912 92.2573 116.757 92.0933C116.604 91.9292 116.366 91.8472 116.041 91.8472C115.777 91.8472 115.545 91.9175 115.346 92.0581C115.147 92.1987 114.992 92.3833 114.88 92.6118V96H114.067V91.2451H114.836Z" fill="black"/>
<path d="M120.136 90.0938V91.2451H121.024V91.8735H120.136V94.8223C120.136 95.0127 120.176 95.1562 120.255 95.2529C120.334 95.3467 120.469 95.3936 120.659 95.3936C120.753 95.3936 120.882 95.376 121.046 95.3408V96C120.832 96.0586 120.624 96.0879 120.422 96.0879C120.059 96.0879 119.785 95.978 119.6 95.7583C119.416 95.5386 119.323 95.2266 119.323 94.8223V91.8735H118.458V91.2451H119.323V90.0938H120.136Z" fill="black"/>
<path d="M123.951 96.0879C123.306 96.0879 122.782 95.877 122.377 95.4551C121.973 95.0303 121.771 94.4634 121.771 93.7544V93.605C121.771 93.1333 121.86 92.7129 122.039 92.3438C122.221 91.9717 122.473 91.6816 122.795 91.4736C123.12 91.2627 123.472 91.1572 123.85 91.1572C124.468 91.1572 124.948 91.3608 125.291 91.7681C125.634 92.1753 125.805 92.7583 125.805 93.5171V93.8555H122.584C122.596 94.3242 122.732 94.7036 122.993 94.9937C123.256 95.2808 123.59 95.4243 123.995 95.4243C124.282 95.4243 124.525 95.3657 124.724 95.2485C124.923 95.1313 125.098 94.9761 125.247 94.7827L125.744 95.1694C125.345 95.7817 124.748 96.0879 123.951 96.0879ZM123.85 91.8252C123.521 91.8252 123.246 91.9453 123.023 92.1855C122.801 92.4229 122.663 92.7568 122.61 93.1875H124.992V93.126C124.969 92.7129 124.857 92.3936 124.658 92.168C124.459 91.9395 124.189 91.8252 123.85 91.8252Z" fill="black"/>
<path d="M129.048 91.9746C128.925 91.9541 128.792 91.9438 128.648 91.9438C128.115 91.9438 127.753 92.1709 127.563 92.625V96H126.75V91.2451H127.541L127.554 91.7944C127.821 91.3696 128.199 91.1572 128.688 91.1572C128.846 91.1572 128.966 91.1777 129.048 91.2188V91.9746Z" fill="black"/>
<path d="M130.569 91.2451L130.595 91.8428C130.958 91.3857 131.433 91.1572 132.019 91.1572C133.024 91.1572 133.531 91.7241 133.54 92.8579V96H132.727V92.8535C132.724 92.5107 132.645 92.2573 132.489 92.0933C132.337 91.9292 132.098 91.8472 131.773 91.8472C131.509 91.8472 131.278 91.9175 131.079 92.0581C130.879 92.1987 130.724 92.3833 130.613 92.6118V96H129.8V91.2451H130.569Z" fill="black"/>
<path d="M136.739 96.0879C136.094 96.0879 135.57 95.877 135.166 95.4551C134.761 95.0303 134.559 94.4634 134.559 93.7544V93.605C134.559 93.1333 134.648 92.7129 134.827 92.3438C135.009 91.9717 135.261 91.6816 135.583 91.4736C135.908 91.2627 136.26 91.1572 136.638 91.1572C137.256 91.1572 137.736 91.3608 138.079 91.7681C138.422 92.1753 138.593 92.7583 138.593 93.5171V93.8555H135.372C135.384 94.3242 135.52 94.7036 135.781 94.9937C136.044 95.2808 136.378 95.4243 136.783 95.4243C137.07 95.4243 137.313 95.3657 137.512 95.2485C137.711 95.1313 137.886 94.9761 138.035 94.7827L138.532 95.1694C138.133 95.7817 137.536 96.0879 136.739 96.0879ZM136.638 91.8252C136.31 91.8252 136.034 91.9453 135.812 92.1855C135.589 92.4229 135.451 92.7568 135.398 93.1875H137.78V93.126C137.757 92.7129 137.646 92.3936 137.446 92.168C137.247 91.9395 136.978 91.8252 136.638 91.8252Z" fill="black"/>
<path d="M140.641 90.0938V91.2451H141.529V91.8735H140.641V94.8223C140.641 95.0127 140.681 95.1562 140.76 95.2529C140.839 95.3467 140.974 95.3936 141.164 95.3936C141.258 95.3936 141.387 95.376 141.551 95.3408V96C141.337 96.0586 141.129 96.0879 140.927 96.0879C140.563 96.0879 140.29 95.978 140.105 95.7583C139.92 95.5386 139.828 95.2266 139.828 94.8223V91.8735H138.962V91.2451H139.828V90.0938H140.641Z" fill="black"/>
<path fill-rule="evenodd" clip-rule="evenodd" d="M72 90V85H73V90C73 91.1046 73.8954 92 75 92H105V93H75C73.3431 93 72 91.6569 72 90ZM145 93H205C206.657 93 208 91.6569 208 90V85H207V90C207 91.1046 206.105 92 205 92H145V93Z" fill="black"/>
<path d="M167.89 87.3857V89.6401H166.571V83.2417H169.067C169.548 83.2417 169.97 83.3296 170.333 83.5054C170.699 83.6812 170.98 83.9316 171.177 84.2568C171.373 84.5791 171.471 84.9468 171.471 85.3599C171.471 85.9868 171.256 86.4819 170.825 86.8452C170.397 87.2056 169.804 87.3857 169.045 87.3857H167.89ZM167.89 86.3179H169.067C169.416 86.3179 169.681 86.2358 169.863 86.0718C170.047 85.9077 170.14 85.6733 170.14 85.3687C170.14 85.0552 170.047 84.8018 169.863 84.6084C169.678 84.415 169.423 84.3154 169.098 84.3096H167.89V86.3179Z" fill="black"/>
<path d="M172.038 87.2188C172.038 86.7471 172.129 86.3267 172.311 85.9575C172.492 85.5884 172.753 85.3027 173.093 85.1006C173.436 84.8984 173.833 84.7974 174.284 84.7974C174.925 84.7974 175.448 84.9937 175.853 85.3862C176.26 85.7788 176.487 86.312 176.534 86.9858L176.542 87.311C176.542 88.0405 176.339 88.6265 175.932 89.0688C175.524 89.5083 174.978 89.728 174.292 89.728C173.607 89.728 173.059 89.5083 172.649 89.0688C172.242 88.6294 172.038 88.0317 172.038 87.2759V87.2188ZM173.308 87.311C173.308 87.7622 173.393 88.1079 173.563 88.3481C173.733 88.5854 173.976 88.7041 174.292 88.7041C174.6 88.7041 174.84 88.5869 175.013 88.3525C175.186 88.1152 175.272 87.7373 175.272 87.2188C175.272 86.7764 175.186 86.4336 175.013 86.1904C174.84 85.9473 174.597 85.8257 174.284 85.8257C173.973 85.8257 173.733 85.9473 173.563 86.1904C173.393 86.4307 173.308 86.8042 173.308 87.311Z" fill="black"/>
<path d="M181.258 86.8672H178.727V88.5811H181.697V89.6401H177.408V83.2417H181.688V84.3096H178.727V85.8345H181.258V86.8672Z" fill="black"/>
<path d="M188.21 89.6401H186.936V84.8853H188.21V89.6401ZM186.861 83.6548C186.861 83.4644 186.924 83.3076 187.05 83.1846C187.179 83.0615 187.353 83 187.573 83C187.79 83 187.962 83.0615 188.091 83.1846C188.22 83.3076 188.285 83.4644 188.285 83.6548C188.285 83.8481 188.219 84.0063 188.087 84.1294C187.958 84.2524 187.787 84.314 187.573 84.314C187.359 84.314 187.186 84.2524 187.054 84.1294C186.925 84.0063 186.861 83.8481 186.861 83.6548Z" fill="black"/>
<path d="M190.429 84.8853L190.469 85.4346C190.809 85.0098 191.264 84.7974 191.835 84.7974C192.339 84.7974 192.714 84.9453 192.96 85.2412C193.207 85.5371 193.333 85.9795 193.338 86.5684V89.6401H192.068V86.5991C192.068 86.3296 192.01 86.1348 191.893 86.0146C191.775 85.8916 191.581 85.8301 191.308 85.8301C190.951 85.8301 190.683 85.9824 190.504 86.2871V89.6401H189.234V84.8853H190.429Z" fill="black"/>
<rect x="73" y="40" width="66" height="42" rx="4" fill="#181818"/>
<path fill-rule="evenodd" clip-rule="evenodd" d="M78 44H134V78H117V79H134C134.552 79 135 78.5523 135 78V44C135 43.4477 134.552 43 134 43H78C77.4477 43 77 43.4477 77 44V78C77 78.5523 77.4477 79 78 79H95V78H78V44Z" fill="#9B9B9B"/>
<rect x="96" y="76" width="20" height="3" fill="#E1E1E1"/>
<rect x="96" y="76" width="20" height="3" fill="url(#paint1_linear)"/>
<rect x="86" y="77" width="4" height="1" fill="#E4E4E4"/>
<rect x="122" y="77" width="4" height="1" fill="#E4E4E4"/>
<defs>
<linearGradient id="paint0_linear" x1="46" y1="37" x2="46" y2="77" gradientUnits="userSpaceOnUse">
<stop stop-color="white" stop-opacity="0"/>
<stop offset="0.0260417" stop-color="white" stop-opacity="0.14"/>
<stop offset="0.046875" stop-color="white" stop-opacity="0.04"/>
<stop offset="0.927083" stop-color="#2A2A2A" stop-opacity="0.01"/>
<stop offset="0.963542" stop-color="#181818" stop-opacity="0.24"/>
<stop offset="1" stop-color="#181818" stop-opacity="0.05"/>
</linearGradient>
<linearGradient id="paint1_linear" x1="106" y1="76" x2="106" y2="79" gradientUnits="userSpaceOnUse">
<stop stop-color="white"/>
<stop offset="1" stop-color="white" stop-opacity="0"/>
</linearGradient>
</defs>
</svg>
