
<svg xmlns="http://www.w3.org/2000/svg" version="1.1" xmlns:xlink="http://www.w3.org/1999/xlink" preserveAspectRatio="none" x="0px" y="0px" width="1024px" height="1024px" viewBox="0 0 1024 1024">
<defs>
<g id="Layer0_0_MEMBER_0_FILL">
<path fill="#1D1D1B" fill-opacity="0.09803921568627451" stroke="none" d="
M 69.05 2.25
Q 80.9 1.85 80.9 1.3 80.9 0.75 69.05 0.4 57.1 0 40.45 0 23.8 0 11.85 0.4 0 0.75 0 1.3 0 1.85 11.85 2.25 23.5 2.6 40.45 2.6 57.4 2.6 69.05 2.25 Z"/>
</g>

<g id="Layer0_0_MEMBER_1_FILL">
<path fill="#C44645" stroke="none" d="
M 327.2 40.5
L 328.1 38.55 320.6 38.9
Q 320.05 38.9 319.65 39.3 319.3 39.7 319.3 40.25
L 327.2 40.5 Z"/>
</g>

<g id="Layer0_0_MEMBER_2_FILL">
<path fill="#F9B659" stroke="none" d="
M 339.4 43.3
Q 335.65 40.9 330.1 40.15
L 317.4 39.45 310.85 35.45
Q 306.95 33.05 302.2 33.05
L 294.6 33.05
Q 290.85 33.05 287.6 34.45
L 280.9 37.25 265.4 38.35
Q 264.8 38.4 264.4 38.85 264.05 39.3 264.1 39.95
L 264.15 40.7 264.2 40.95 264.5 43.95 264.55 44.2 264.7 45.85 264.7 45.9 264.85 47.45
Q 265.1 49.75 267.35 50.5
L 271.05 51.75 271.45 51.85 343.15 51.85 344.05 49
Q 343.2 45.65 339.4 43.3 Z"/>
</g>

<g id="Layer0_0_MEMBER_3_FILL">
<path fill="#FDFDFD" stroke="none" d="
M 335 41.85
Q 334.8 42.95 335.6 44.3 336.35 45.45 337.35 46.15 340.35 47.3 342.8 47.45 340.8 43.75 335 41.85 Z"/>
</g>

<g id="Layer0_0_MEMBER_4_FILL">
<path fill="#FDFDFD" stroke="none" d="
M 294.35 33.85
Q 291.5 33.85 288.55 36.05
L 286.15 38.25 286.75 44.4
Q 287.1 47.25 289.25 49.15 291.35 51.05 294.25 51.05
L 314.9 51.05
Q 315.65 51.05 316.2 50.55 316.75 50 316.75 49.25
L 317 40.2 310.4 36.15
Q 306.65 33.85 302.2 33.85
L 294.35 33.85 Z"/>
</g>

<g id="Layer0_0_MEMBER_5_FILL">
<path fill="#C44645" stroke="none" d="
M 289.4 36
Q 287.8 37.05 286.7 38.3
L 287.3 44.2
Q 287.6 46.85 289.6 48.6 291.6 50.35 294.25 50.35
L 314.9 50.35
Q 315.45 50.35 315.8 50 316.2 49.6 316.2 49.1
L 316.4 40.35 310.1 36.5
Q 306.6 34.25 302.2 34.25
L 294.3 34.25
Q 291.95 34.25 289.4 36 Z"/>
</g>

<g id="Layer0_0_MEMBER_6_FILL">
<path fill="#403430" stroke="none" d="
M 287 38.55
L 315.05 40 310 36.85
Q 306.4 34.7 302.2 34.7
L 296.1 34.7 296.1 34.65 294.35 34.7
Q 292.05 34.7 289.65 36.3 288.1 37.3 287 38.55 Z"/>
</g>

<g id="Layer0_0_MEMBER_7_FILL">
<path fill="#403430" stroke="none" d="
M 329.9 41.8
L 328.85 41.7
Q 325.95 41.7 323.95 43.75 321.95 45.75 321.95 48.6
L 321.95 51.85 335.7 51.85 335.7 48.6
Q 335.7 46.05 334.05 44.1 332.4 42.2 329.9 41.8 Z"/>
</g>

<g id="Layer0_0_MEMBER_8_FILL">
<path fill="#403430" stroke="none" d="
M 285.6 48.6
Q 285.6 46.05 283.95 44.1 282.3 42.2 279.8 41.8
L 278.75 41.7
Q 275.85 41.7 273.85 43.75 271.85 45.75 271.85 48.6
L 271.85 51.85 285.6 51.85 285.6 48.6 Z"/>
</g>

<g id="Layer0_0_MEMBER_9_FILL">
<path fill="#403430" stroke="none" d="
M 288.2 39.95
Q 287.6 39.85 287.5 40.6 287.5 41.2 288.15 41.3
L 290.7 41.4
Q 291.4 41.4 291.4 40.7 291.5 40.1 290.75 40
L 288.2 39.95 Z"/>
</g>

<g id="Layer0_0_MEMBER_10_FILL">
<path fill="#C44645" stroke="none" d="
M 344.05 49
L 340.6 49
Q 339.35 49 339 50.15
L 338.45 51.85 343.15 51.85 344.05 49 Z"/>
</g>

<g id="Layer0_0_MEMBER_11_FILL">
<path fill="#FFFFFF" stroke="none" d="
M 339.95 50.75
L 342.35 50.75 342.55 50.1 340.6 50.1
Q 340.15 50.1 340.05 50.5
L 339.95 50.75 Z"/>
</g>

<g id="Layer0_0_MEMBER_12_FILL">
<path fill="#C44645" stroke="none" d="
M 267.85 45.9
L 264.7 45.9 264.85 47.45
Q 265.1 49.75 267.35 50.5
L 271.05 51.75 270.35 48
Q 270.2 47.1 269.5 46.5 268.75 45.9 267.85 45.9 Z"/>
</g>

<g id="Layer0_0_MEMBER_13_FILL">
<path fill="#D69943" stroke="none" d="
M 285.5 42.2
Q 285.4 41.25 284.7 40.65 283.95 40 283 40
L 274.9 40
Q 280.25 40.2 282.6 41.2 284.65 42.05 285.7 44.15
L 285.5 42.2 Z"/>
</g>

<g id="Layer0_0_MEMBER_14_FILL">
<path fill="#D69943" stroke="none" d="
M 326.9 41.1
L 325.15 41.1
Q 321.9 41.3 321.1 44.75 320.7 46.45 320.95 48.15 321.5 44.3 323.1 42.7 324.3 41.5 326.9 41.1 Z"/>
</g>

<g id="Layer0_0_MEMBER_15_FILL">
<path fill="#D69943" stroke="none" d="
M 269.65 33.05
L 270.15 38.05 273.55 38 271.85 33.05 269.65 33.05 Z"/>
</g>

<g id="Layer0_0_MEMBER_16_FILL">
<path fill="#FFFFFF" stroke="none" d="
M 264.15 40.7
L 264.2 40.95 264.5 43.95 264.55 44.2 265.7 44.2
Q 266.3 44.2 266.65 43.75 267.05 43.25 266.9 42.75
L 266.7 41.7
Q 266.55 40.7 265.5 40.7
L 264.15 40.7 Z"/>
</g>

<g id="Layer0_0_MEMBER_17_FILL">
<path fill="#C44645" stroke="none" d="
M 272.8 33.6
Q 274.25 33.25 274.1 32.35
L 274.1 32.3 266 32.3
Q 265.8 32.3 265.8 32.5 265.8 32.65 265.95 32.7
L 270.3 33.65
Q 271.55 33.9 272.8 33.6 Z"/>
</g>

<g id="Layer0_0_MEMBER_18_FILL">
<path fill="#C44645" stroke="none" d="
M 265.5 40.95
L 264.2 40.95 264.5 43.95 265.7 43.95
Q 266.15 43.95 266.45 43.6 266.75 43.25 266.65 42.8
L 266.45 41.75
Q 266.25 40.95 265.5 40.95 Z"/>
</g>

<g id="Layer0_0_MEMBER_19_FILL">
<path fill="#D69943" stroke="none" d="
M 315.25 40.05
Q 315.15 39.45 314.9 38.9 314.55 38.25 314.2 38.1
L 313.75 41 314 41
Q 314.7 40.9 314.9 40.8 315.3 40.6 315.25 40.05 Z"/>
</g>

<g id="Layer0_0_MEMBER_20_FILL">
<path fill="#1D1D1B" fill-opacity="0.09803921568627451" stroke="none" d="
M 78.45 6
L 79.35 3.15 0 0 0 0.05 0.15 1.6
Q 0.4 3.9 2.65 4.65
L 6.35 5.9 6.75 6 78.45 6 Z"/>
</g>

<g id="Layer0_0_MEMBER_21_MEMBER_0_MEMBER_0_MEMBER_0_FILL">
<path fill="#1D1715" stroke="none" d="
M 329.3 42.85
L 329.15 42.55 329.15 42.5 328.5 42.5 328.55 42.55 328.65 42.7 328.65 43.1 328.3 43.15 328.3 42.85 328.1 42.6 328.05 42.55 327.4 42.65 327.6 42.85 327.65 43.2 327.35 43.3 327.25 43 327.2 42.95 327.05 42.85 327.05 42.8 327 42.8 326.4 43 326.45 43.05 326.6 43.15 326.75 43.5 326.45 43.65 326.3 43.35 326.05 43.2 326 43.2 325.45 43.5 325.5 43.55 325.55 43.55 325.65 43.6 325.85 43.95 325.6 44.15 325.4 43.9 325.15 43.8 325.1 43.8 325.1 43.75 324.6 44.2 324.65 44.2 324.8 44.25 325.1 44.55 324.85 44.75 324.65 44.55 324.35 44.5 324.25 44.5 323.85 45 324.1 45 324.4 45.25 324.2 45.5 323.95 45.35 323.6 45.35 323.3 45.9 323.55 45.9 323.9 46.05 323.75 46.35 323.45 46.25 323.35 46.25 323.2 46.3 323.1 46.3 322.9 46.9 322.95 46.9 323.1 46.85 323.5 46.95 323.4 47.3 323.1 47.2 322.85 47.3 322.8 47.3 322.75 47.35 322.65 47.95 322.75 47.95 322.9 47.85 323.3 47.9 323.25 48.25 322.95 48.2 322.7 48.35 322.65 48.4 322.6 48.55 322.65 49.05 322.7 49 322.85 48.9 323.2 48.9 323.25 49.2 322.95 49.25 322.75 49.45 322.7 49.45 322.65 49.5 322.75 50.05 322.8 50.1 322.95 49.95 323.35 49.85 323.4 50.2 323.15 50.25 323.05 50.35 322.95 50.5 322.9 50.55 323.1 51.15 323.15 51.1 323.25 50.95 323.6 50.8 323.75 51.1 323.5 51.25 323.35 51.45 323.3 51.5 323.3 51.55 323.65 52.1 323.65 52.05 323.7 52 323.75 51.9 324.05 51.65 324.25 51.95 324 52.1 323.9 52.4 323.9 52.45
Q 324 52.65 324.3 52.95
L 324.3 52.85 324.35 52.7 324.65 52.45 324.9 52.7 324.7 52.9 324.6 53.2 324.6 53.25 325.1 53.65 325.1 53.45 325.35 53.1 325.65 53.3 325.45 53.55 325.45 53.9 326 54.25 326 54 326.2 53.65 326.5 53.8 326.35 54.05 326.35 54.15 326.4 54.35 326.4 54.4 327.05 54.65 327 54.55 326.95 54.4 327.1 54.05 327.4 54.15 327.35 54.4 327.4 54.7 327.45 54.7 327.45 54.75 328.1 54.85 328.05 54.8 328 54.65 328.05 54.25 328.35 54.3 328.35 54.6 328.5 54.85 328.5 54.9 329.15 54.9 329.1 54.85 329.05 54.7 329 54.3 329.35 54.3 329.35 54.6 329.55 54.8 329.55 54.85 329.6 54.85 330.25 54.75 330.2 54.7 330.05 54.6 330 54.2 330.3 54.1 330.4 54.4 330.65 54.65 331.25 54.4 331.2 54.35 331.05 54.3 330.9 53.9 331.2 53.75 331.35 54.05 331.6 54.2 331.65 54.25 332.2 53.9 332.15 53.85 332.1 53.85 332 53.8 331.8 53.45 332.05 53.3 332.25 53.5 332.5 53.6 332.55 53.65 332.9 53.4 333.05 53.25 333 53.2 332.85 53.15 332.55 52.9 332.8 52.65 333 52.85 333.3 52.9 333.4 52.9 333.8 52.45 333.7 52.4 333.55 52.4 333.25 52.15 333.45 51.9 333.7 52.05 334.05 52.05 334.35 51.5 334.3 51.5 334.1 51.55 333.75 51.35 333.9 51.05 334.2 51.15 334.45 51.15 334.5 51.1 334.55 51.1 334.75 50.5 334.7 50.55 334.55 50.55 334.15 50.45 334.25 50.15 334.55 50.2 334.8 50.1 334.9 50.1 335 49.45 334.9 49.5 334.75 49.55 334.4 49.5 334.4 49.15 334.7 49.2 334.95 49.05 335 49.05 335 49 335.05 48.85 335 48.35 334.85 48.5 334.45 48.5 334.4 48.2 334.7 48.15 334.9 48 334.95 47.95 335 47.95 334.85 47.3 334.7 47.45 334.3 47.55 334.25 47.25 334.5 47.15 334.75 46.9 334.75 46.85 334.55 46.25 334.5 46.35 334.4 46.45 334.05 46.6 333.9 46.3 334.15 46.2 334.3 45.95 334.35 45.9 334.35 45.85 334 45.3 334 45.4 333.95 45.55 333.6 45.75 333.4 45.45 333.65 45.3 333.75 45.05 333.75 44.95 333.35 44.45 333.35 44.55 333.3 44.7 333 44.95 332.75 44.7 333 44.5 333.05 44.25 333.05 44.15 332.55 43.75 332.55 44 332.3 44.3 332 44.1 332.2 43.85 332.2 43.5 331.65 43.15 331.65 43.4 331.45 43.75 331.15 43.6 331.3 43.35 331.3 43.25 331.25 43.05 331.25 43 330.6 42.75 330.65 42.85 330.7 43 330.55 43.4 330.25 43.3 330.3 43 330.25 42.75 330.2 42.7 330.2 42.65 329.55 42.55 329.6 42.6 329.65 42.75 329.6 43.15 329.3 43.1 329.3 42.85 Z"/>
</g>

<g id="Layer0_0_MEMBER_21_MEMBER_0_MEMBER_0_MEMBER_1_FILL">
<path fill="#403430" stroke="none" d="
M 333.65 45.3
L 333.4 45.45 333.6 45.75 333.95 45.55 334 45.4 333.75 45.05 333.65 45.3 Z"/>
</g>

<g id="Layer0_0_MEMBER_21_MEMBER_0_MEMBER_0_MEMBER_2_FILL">
<path fill="#403430" stroke="none" d="
M 333.75 48.85
Q 333.8 46.8 332.4 45.3 331 43.85 328.95 43.8 326.95 43.75 325.45 45.15 324 46.55 323.9 48.6 323.85 50.65 325.25 52.1 326.7 53.55 328.7 53.6 330.7 53.7 332.2 52.3 333.7 50.9 333.75 48.85 Z"/>
</g>

<g id="Layer0_0_MEMBER_21_MEMBER_0_MEMBER_0_MEMBER_3_FILL">
<path fill="#403430" stroke="none" d="
M 332.8 52.65
L 332.55 52.9 332.85 53.15 333 53.2 333.3 52.9 333 52.85 332.8 52.65 Z"/>
</g>

<g id="Layer0_0_MEMBER_21_MEMBER_0_MEMBER_0_MEMBER_4_FILL">
<path fill="#403430" stroke="none" d="
M 333.45 51.9
L 333.25 52.15 333.55 52.4 333.7 52.4 333.95 52.05 333.7 52.05 333.45 51.9 Z"/>
</g>

<g id="Layer0_0_MEMBER_21_MEMBER_0_MEMBER_0_MEMBER_5_FILL">
<path fill="#403430" stroke="none" d="
M 330.9 53.9
L 331.05 54.3 331.2 54.35 331.6 54.2 331.35 54.05 331.2 53.75 330.9 53.9 Z"/>
</g>

<g id="Layer0_0_MEMBER_21_MEMBER_0_MEMBER_0_MEMBER_6_FILL">
<path fill="#403430" stroke="none" d="
M 332 53.8
L 332.1 53.85 332.15 53.85 332.5 53.6 332.25 53.5 332.05 53.3 331.8 53.45 332 53.8 Z"/>
</g>

<g id="Layer0_0_MEMBER_21_MEMBER_0_MEMBER_0_MEMBER_7_FILL">
<path fill="#403430" stroke="none" d="
M 333.9 51.05
L 333.75 51.35 334.1 51.55 334.3 51.5 334.45 51.15 334.2 51.15 333.9 51.05 Z"/>
</g>

<g id="Layer0_0_MEMBER_21_MEMBER_0_MEMBER_0_MEMBER_8_FILL">
<path fill="#403430" stroke="none" d="
M 334.7 48.15
L 334.4 48.2 334.45 48.5 334.85 48.5 334.95 48.4 334.9 48 334.7 48.15 Z"/>
</g>

<g id="Layer0_0_MEMBER_21_MEMBER_0_MEMBER_0_MEMBER_9_FILL">
<path fill="#403430" stroke="none" d="
M 330 54.2
L 330.05 54.6 330.2 54.7 330.6 54.6 330.4 54.4 330.3 54.1 330 54.2 Z"/>
</g>

<g id="Layer0_0_MEMBER_21_MEMBER_0_MEMBER_0_MEMBER_10_FILL">
<path fill="#403430" stroke="none" d="
M 334.25 50.15
L 334.15 50.45 334.55 50.55 334.7 50.55 334.8 50.1 334.55 50.2 334.25 50.15 Z"/>
</g>

<g id="Layer0_0_MEMBER_21_MEMBER_0_MEMBER_0_MEMBER_11_FILL">
<path fill="#403430" stroke="none" d="
M 334.5 47.15
L 334.25 47.25 334.3 47.55 334.7 47.45 334.8 47.35 334.7 46.95 334.5 47.15 Z"/>
</g>

<g id="Layer0_0_MEMBER_21_MEMBER_0_MEMBER_0_MEMBER_12_FILL">
<path fill="#403430" stroke="none" d="
M 334.15 46.2
L 333.9 46.3 334.05 46.6 334.4 46.45 334.5 46.35 334.3 45.95 334.15 46.2 Z"/>
</g>

<g id="Layer0_0_MEMBER_21_MEMBER_0_MEMBER_0_MEMBER_13_FILL">
<path fill="#403430" stroke="none" d="
M 334.7 49.2
L 334.4 49.15 334.4 49.5 334.75 49.55 334.9 49.5 334.95 49.05 334.7 49.2 Z"/>
</g>

<g id="Layer0_0_MEMBER_21_MEMBER_0_MEMBER_0_MEMBER_14_FILL">
<path fill="#403430" stroke="none" d="
M 324 52.1
L 324.25 51.95 324.05 51.65 323.75 51.9 323.7 52 323.65 52.05 323.9 52.4 324 52.1 Z"/>
</g>

<g id="Layer0_0_MEMBER_21_MEMBER_0_MEMBER_0_MEMBER_15_FILL">
<path fill="#403430" stroke="none" d="
M 323.6 50.8
L 323.25 50.95 323.15 51.1 323.35 51.45 323.5 51.25 323.75 51.1 323.6 50.8 Z"/>
</g>

<g id="Layer0_0_MEMBER_21_MEMBER_0_MEMBER_0_MEMBER_16_FILL">
<path fill="#403430" stroke="none" d="
M 329 54.3
L 329.05 54.7 329.1 54.85 329.55 54.8 329.35 54.6 329.35 54.3 329 54.3 Z"/>
</g>

<g id="Layer0_0_MEMBER_21_MEMBER_0_MEMBER_0_MEMBER_17_FILL">
<path fill="#403430" stroke="none" d="
M 324.65 52.45
L 324.35 52.7 324.3 52.85 324.6 53.2 324.7 52.9 324.9 52.7 324.65 52.45 Z"/>
</g>

<g id="Layer0_0_MEMBER_21_MEMBER_0_MEMBER_0_MEMBER_18_FILL">
<path fill="#403430" stroke="none" d="
M 322.85 48.9
L 322.7 49 322.75 49.45 322.95 49.25 323.25 49.2 323.2 48.9 322.85 48.9 Z"/>
</g>

<g id="Layer0_0_MEMBER_21_MEMBER_0_MEMBER_0_MEMBER_19_FILL">
<path fill="#403430" stroke="none" d="
M 323.35 49.85
L 322.95 49.95 322.85 50.05 322.95 50.5 323.05 50.35 323.15 50.25 323.4 50.2 323.35 49.85 Z"/>
</g>

<g id="Layer0_0_MEMBER_21_MEMBER_0_MEMBER_0_MEMBER_20_FILL">
<path fill="#403430" stroke="none" d="
M 327.1 54.05
L 326.95 54.4 327 54.55 327.4 54.7 327.35 54.4 327.4 54.15 327.1 54.05 Z"/>
</g>

<g id="Layer0_0_MEMBER_21_MEMBER_0_MEMBER_0_MEMBER_21_FILL">
<path fill="#403430" stroke="none" d="
M 328.05 54.25
L 328 54.65 328.05 54.8 328.5 54.85 328.35 54.6 328.35 54.3 328.05 54.25 Z"/>
</g>

<g id="Layer0_0_MEMBER_21_MEMBER_0_MEMBER_0_MEMBER_22_FILL">
<path fill="#403430" stroke="none" d="
M 326.2 53.65
L 326 54 326 54.15 326.4 54.35 326.35 54.15 326.35 54.05 326.5 53.8 326.2 53.65 Z"/>
</g>

<g id="Layer0_0_MEMBER_21_MEMBER_0_MEMBER_0_MEMBER_23_FILL">
<path fill="#403430" stroke="none" d="
M 325.35 53.1
L 325.1 53.45 325.1 53.6 325.45 53.85 325.45 53.55 325.65 53.3 325.35 53.1 Z"/>
</g>

<g id="Layer0_0_MEMBER_21_MEMBER_0_MEMBER_0_MEMBER_24_FILL">
<path fill="#403430" stroke="none" d="
M 325.5 43.55
L 325.15 43.8 325.4 43.9 325.6 44.15 325.85 43.95 325.65 43.6 325.55 43.55 325.5 43.55 Z"/>
</g>

<g id="Layer0_0_MEMBER_21_MEMBER_0_MEMBER_0_MEMBER_25_FILL">
<path fill="#403430" stroke="none" d="
M 329.15 42.55
L 329.3 42.85 329.3 43.1 329.6 43.15 329.65 42.75 329.6 42.6 329.15 42.55 Z"/>
</g>

<g id="Layer0_0_MEMBER_21_MEMBER_0_MEMBER_0_MEMBER_26_FILL">
<path fill="#403430" stroke="none" d="
M 331.3 43.35
L 331.15 43.6 331.45 43.75 331.65 43.4 331.65 43.25 331.25 43.05 331.3 43.25 331.3 43.35 Z"/>
</g>

<g id="Layer0_0_MEMBER_21_MEMBER_0_MEMBER_0_MEMBER_27_FILL">
<path fill="#403430" stroke="none" d="
M 330.25 42.75
L 330.3 43 330.25 43.3 330.55 43.4 330.7 43 330.65 42.85 330.25 42.75 Z"/>
</g>

<g id="Layer0_0_MEMBER_21_MEMBER_0_MEMBER_0_MEMBER_28_FILL">
<path fill="#403430" stroke="none" d="
M 327.45 42.7
L 327.05 42.85 327.2 42.95 327.25 43 327.35 43.3 327.65 43.2 327.6 42.85 327.45 42.7 Z"/>
</g>

<g id="Layer0_0_MEMBER_21_MEMBER_0_MEMBER_0_MEMBER_29_FILL">
<path fill="#403430" stroke="none" d="
M 324.4 45.25
L 324.1 45 323.95 45 323.7 45.35 323.95 45.35 324.2 45.5 324.4 45.25 Z"/>
</g>

<g id="Layer0_0_MEMBER_21_MEMBER_0_MEMBER_0_MEMBER_30_FILL">
<path fill="#403430" stroke="none" d="
M 323.5 46.95
L 323.1 46.85 322.95 46.9 322.85 47.3 323.1 47.2 323.4 47.3 323.5 46.95 Z"/>
</g>

<g id="Layer0_0_MEMBER_21_MEMBER_0_MEMBER_0_MEMBER_31_FILL">
<path fill="#403430" stroke="none" d="
M 328.55 42.55
L 328.1 42.6 328.3 42.85 328.3 43.15 328.65 43.1 328.65 42.7 328.55 42.55 Z"/>
</g>

<g id="Layer0_0_MEMBER_21_MEMBER_0_MEMBER_0_MEMBER_32_FILL">
<path fill="#403430" stroke="none" d="
M 326.45 43.05
L 326.05 43.2 326.3 43.35 326.45 43.65 326.75 43.5 326.6 43.15 326.45 43.05 Z"/>
</g>

<g id="Layer0_0_MEMBER_21_MEMBER_0_MEMBER_0_MEMBER_33_FILL">
<path fill="#403430" stroke="none" d="
M 323.9 46.05
L 323.55 45.9 323.35 45.9 323.2 46.3 323.35 46.25 323.45 46.25 323.75 46.35 323.9 46.05 Z"/>
</g>

<g id="Layer0_0_MEMBER_21_MEMBER_0_MEMBER_0_MEMBER_34_FILL">
<path fill="#403430" stroke="none" d="
M 323.3 47.9
L 322.9 47.85 322.75 47.95 322.7 48.35 322.95 48.2 323.25 48.25 323.3 47.9 Z"/>
</g>

<g id="Layer0_0_MEMBER_21_MEMBER_0_MEMBER_0_MEMBER_35_FILL">
<path fill="#403430" stroke="none" d="
M 332.2 43.85
L 332 44.1 332.3 44.3 332.55 44 332.55 43.8 332.2 43.55 332.2 43.85 Z"/>
</g>

<g id="Layer0_0_MEMBER_21_MEMBER_0_MEMBER_0_MEMBER_36_FILL">
<path fill="#403430" stroke="none" d="
M 325.1 44.55
L 324.8 44.25 324.65 44.2 324.35 44.5 324.65 44.55 324.85 44.75 325.1 44.55 Z"/>
</g>

<g id="Layer0_0_MEMBER_21_MEMBER_0_MEMBER_0_MEMBER_37_FILL">
<path fill="#403430" stroke="none" d="
M 333 44.5
L 332.75 44.7 333 44.95 333.3 44.7 333.35 44.55 333.05 44.25 333 44.5 Z"/>
</g>

<g id="Layer0_0_MEMBER_21_MEMBER_1_FILL">
<path fill="#FDFDFD" stroke="none" d="
M 325.55 45.45
Q 324.2 46.8 324.2 48.7 324.2 50.6 325.55 52 326.9 53.35 328.85 53.35 330.75 53.35 332.1 52 333.45 50.6 333.45 48.7 333.45 46.8 332.1 45.45 330.75 44.1 328.85 44.1 326.9 44.1 325.55 45.45 Z"/>
</g>

<g id="Layer0_0_MEMBER_21_MEMBER_2_FILL">
<path fill="#403430" stroke="none" d="
M 326.1 46
Q 325 47.1 325 48.7 325 50.3 326.1 51.4 327.25 52.55 328.85 52.55 330.4 52.55 331.55 51.4 332.65 50.3 332.65 48.7 332.65 47.15 331.55 46 330.45 44.9 328.85 44.9 327.25 44.9 326.1 46 Z"/>
</g>

<g id="Layer0_0_MEMBER_21_MEMBER_3_MEMBER_0_MEMBER_0_MEMBER_0_FILL">
<path fill="#DAD1D1" stroke="none" d="
M 324.8 47.85
L 328.6 49.35 329.05 48.05 325.05 47 324.8 47.85 Z"/>
</g>

<g id="Layer0_0_MEMBER_21_MEMBER_3_MEMBER_0_MEMBER_1_MEMBER_0_FILL">
<path fill="#DAD1D1" stroke="none" d="
M 329.35 49.1
L 328.3 48.3 326.05 51.75 326.75 52.25 329.35 49.1 Z"/>
</g>

<g id="Layer0_0_MEMBER_21_MEMBER_3_MEMBER_0_MEMBER_2_MEMBER_0_FILL">
<path fill="#DAD1D1" stroke="none" d="
M 329.35 48.3
L 328.3 49.1 330.9 52.25 331.6 51.75 329.35 48.3 Z"/>
</g>

<g id="Layer0_0_MEMBER_21_MEMBER_3_MEMBER_0_MEMBER_3_MEMBER_0_FILL">
<path fill="#DAD1D1" stroke="none" d="
M 332.6 47
L 328.6 48.05 329.05 49.35 332.85 47.85 332.6 47 Z"/>
</g>

<g id="Layer0_0_MEMBER_21_MEMBER_3_MEMBER_0_MEMBER_4_MEMBER_0_FILL">
<path fill="#DAD1D1" stroke="none" d="
M 328.4 44.6
L 328.15 48.7 329.5 48.7 329.25 44.6 328.4 44.6 Z"/>
</g>

<g id="Layer0_0_MEMBER_21_MEMBER_3_MEMBER_1_FILL">
<path fill="#FDFDFD" stroke="none" d="
M 327.85 47.7
Q 327.45 48.15 327.45 48.7 327.45 49.3 327.85 49.7 328.25 50.1 328.85 50.1 329.4 50.1 329.8 49.7 330.2 49.3 330.2 48.7 330.2 48.15 329.8 47.7 329.4 47.3 328.85 47.3 328.25 47.3 327.85 47.7 Z"/>
</g>

<g id="Layer0_0_MEMBER_22_MEMBER_0_MEMBER_0_MEMBER_0_FILL">
<path fill="#1D1715" stroke="none" d="
M 283.65 45.05
L 283.65 44.95 283.25 44.45 283.25 44.55 283.2 44.7 282.9 44.95 282.65 44.7 282.9 44.5 282.95 44.25 282.95 44.15 282.45 43.75 282.45 44 282.2 44.3 281.9 44.1 282.1 43.85 282.1 43.5 281.55 43.15 281.55 43.4 281.35 43.75 281.05 43.6 281.2 43.35 281.2 43.25 281.15 43.05 281.15 43 280.5 42.75 280.55 42.85 280.6 43 280.45 43.4 280.15 43.3 280.2 43 280.15 42.75 280.1 42.7 280.1 42.65 279.45 42.55 279.5 42.6 279.55 42.75 279.5 43.15 279.2 43.1 279.2 42.85 279.05 42.55 279.05 42.5 278.4 42.5 278.45 42.55 278.55 42.7 278.55 43.1 278.2 43.15 278.2 42.85 278 42.6 277.95 42.55 277.3 42.65 277.5 42.85 277.55 43.2 277.25 43.3 277.15 43 277.1 42.95 276.95 42.85 276.95 42.8 276.9 42.8 276.3 43 276.35 43.05 276.5 43.15 276.65 43.5 276.35 43.65 276.2 43.35 275.95 43.2 275.9 43.2 275.35 43.5 275.4 43.55 275.45 43.55 275.55 43.6 275.75 43.95 275.5 44.15 275.3 43.9 275.05 43.8 275 43.8 275 43.75 274.5 44.2 274.55 44.2 274.7 44.25 275 44.55 274.75 44.75 274.55 44.55 274.25 44.5 274.15 44.5 273.75 45 274 45 274.3 45.25 274.1 45.5 273.85 45.35 273.5 45.35 273.2 45.9 273.45 45.9 273.8 46.05 273.65 46.35 273.35 46.25 273.25 46.25 273.1 46.3 273 46.3 272.8 46.9 272.85 46.9 273 46.85 273.4 46.95 273.3 47.3 273 47.2 272.75 47.3 272.7 47.3 272.65 47.35 272.55 47.95 272.65 47.95 272.8 47.85 273.2 47.9 273.15 48.25 272.85 48.2 272.6 48.35 272.55 48.4 272.5 48.55 272.55 49.05 272.6 49 272.75 48.9 273.1 48.9 273.15 49.2 272.85 49.25 272.65 49.45 272.6 49.45 272.55 49.5 272.65 50.05 272.7 50.1 272.85 49.95 273.25 49.85 273.3 50.2 273.05 50.25 272.95 50.35 272.85 50.5 272.8 50.5 272.8 50.55 273 51.15 273.05 51.1 273.15 50.95 273.5 50.8 273.65 51.1 273.4 51.25 273.25 51.45 273.2 51.5 273.2 51.55 273.55 52.1 273.55 52.05 273.6 52 273.65 51.9 273.95 51.65 274.15 51.95 273.9 52.1 273.8 52.4 273.8 52.45 274.2 52.95 274.2 52.85 274.25 52.7 274.55 52.45 274.8 52.7 274.6 52.9 274.5 53.2 274.5 53.25 275 53.65 275 53.45 275.25 53.1 275.55 53.3 275.35 53.55 275.35 53.9 275.95 54.25 275.9 54.15 275.9 54 276.1 53.65 276.4 53.8 276.25 54.05 276.25 54.15 276.3 54.35 276.3 54.4 276.95 54.65 276.9 54.55 276.85 54.4 277 54.05 277.3 54.15 277.25 54.4 277.3 54.7 277.35 54.7 277.35 54.75 278 54.85 277.95 54.8 277.9 54.65 277.95 54.25 278.25 54.3 278.25 54.6 278.4 54.85 278.4 54.9 279.05 54.9 279 54.85 278.95 54.7 278.9 54.3 279.25 54.3 279.25 54.6 279.45 54.8 279.45 54.85 279.5 54.85 280.15 54.75 280.1 54.7 279.95 54.6 279.9 54.2 280.2 54.1 280.3 54.4 280.55 54.65 281.15 54.4 281.1 54.35 280.95 54.3 280.8 53.9 281.1 53.75 281.25 54.05 281.5 54.2 281.55 54.25 282.1 53.9 282.05 53.85 282 53.85 281.9 53.8 281.7 53.45 281.95 53.3 282.15 53.5 282.4 53.6 282.45 53.65 282.8 53.4 282.95 53.25 282.9 53.2 282.75 53.15 282.45 52.9 282.7 52.65 282.9 52.85 283.2 52.9 283.3 52.9 283.7 52.45 283.6 52.4 283.45 52.4 283.15 52.15 283.35 51.9 283.6 52.05 283.95 52.05 284.25 51.5 284.2 51.5 284 51.55 283.65 51.35 283.8 51.05 284.1 51.15 284.35 51.15 284.4 51.1 284.45 51.1 284.65 50.5 284.6 50.55 284.45 50.55 284.05 50.45 284.15 50.15 284.45 50.2 284.7 50.1 284.8 50.1 284.9 49.45 284.8 49.5 284.65 49.55 284.3 49.5 284.3 49.15 284.6 49.2 284.85 49.05 284.9 49.05 284.9 49 284.95 48.85 284.9 48.35 284.75 48.5 284.35 48.5 284.3 48.2 284.6 48.15 284.8 48 284.85 47.95 284.9 47.95 284.75 47.3 284.6 47.45 284.2 47.55 284.15 47.25 284.4 47.15 284.65 46.9 284.65 46.85 284.45 46.25 284.4 46.35 284.3 46.45 283.95 46.6 283.8 46.3 284.05 46.2 284.2 45.95 284.25 45.9 284.25 45.85 283.9 45.3 283.9 45.4 283.85 45.55 283.5 45.75 283.3 45.45 283.55 45.3 283.65 45.05 Z"/>
</g>

<g id="Layer0_0_MEMBER_22_MEMBER_0_MEMBER_0_MEMBER_1_FILL">
<path fill="#403430" stroke="none" d="
M 283.65 45.05
L 283.55 45.3 283.3 45.45 283.5 45.75 283.85 45.55 283.9 45.4 283.65 45.05 Z"/>
</g>

<g id="Layer0_0_MEMBER_22_MEMBER_0_MEMBER_0_MEMBER_2_FILL">
<path fill="#403430" stroke="none" d="
M 282.3 45.3
Q 280.9 43.85 278.85 43.8 276.85 43.75 275.35 45.15 273.9 46.55 273.8 48.6 273.75 50.65 275.15 52.1 276.6 53.55 278.6 53.6 280.6 53.7 282.1 52.3 283.6 50.9 283.65 48.85 283.7 46.8 282.3 45.3 Z"/>
</g>

<g id="Layer0_0_MEMBER_22_MEMBER_0_MEMBER_0_MEMBER_3_FILL">
<path fill="#403430" stroke="none" d="
M 282.7 52.65
L 282.45 52.9 282.75 53.15 282.9 53.2 283.2 52.9 282.9 52.85 282.7 52.65 Z"/>
</g>

<g id="Layer0_0_MEMBER_22_MEMBER_0_MEMBER_0_MEMBER_4_FILL">
<path fill="#403430" stroke="none" d="
M 283.35 51.9
L 283.15 52.15 283.45 52.4 283.6 52.4 283.85 52.05 283.6 52.05 283.35 51.9 Z"/>
</g>

<g id="Layer0_0_MEMBER_22_MEMBER_0_MEMBER_0_MEMBER_5_FILL">
<path fill="#403430" stroke="none" d="
M 280.8 53.9
L 280.95 54.3 281.1 54.35 281.5 54.2 281.25 54.05 281.1 53.75 280.8 53.9 Z"/>
</g>

<g id="Layer0_0_MEMBER_22_MEMBER_0_MEMBER_0_MEMBER_6_FILL">
<path fill="#403430" stroke="none" d="
M 281.9 53.8
L 282 53.85 282.05 53.85 282.4 53.6 282.15 53.5 281.95 53.3 281.7 53.45 281.9 53.8 Z"/>
</g>

<g id="Layer0_0_MEMBER_22_MEMBER_0_MEMBER_0_MEMBER_7_FILL">
<path fill="#403430" stroke="none" d="
M 283.8 51.05
L 283.65 51.35 284 51.55 284.2 51.5 284.35 51.15 284.1 51.15 283.8 51.05 Z"/>
</g>

<g id="Layer0_0_MEMBER_22_MEMBER_0_MEMBER_0_MEMBER_8_FILL">
<path fill="#403430" stroke="none" d="
M 284.6 48.15
L 284.3 48.2 284.35 48.5 284.75 48.5 284.85 48.4 284.8 48 284.6 48.15 Z"/>
</g>

<g id="Layer0_0_MEMBER_22_MEMBER_0_MEMBER_0_MEMBER_9_FILL">
<path fill="#403430" stroke="none" d="
M 279.9 54.2
L 279.95 54.6 280.1 54.7 280.5 54.6 280.3 54.4 280.2 54.1 279.9 54.2 Z"/>
</g>

<g id="Layer0_0_MEMBER_22_MEMBER_0_MEMBER_0_MEMBER_10_FILL">
<path fill="#403430" stroke="none" d="
M 284.15 50.15
L 284.05 50.45 284.45 50.55 284.6 50.55 284.7 50.1 284.45 50.2 284.15 50.15 Z"/>
</g>

<g id="Layer0_0_MEMBER_22_MEMBER_0_MEMBER_0_MEMBER_11_FILL">
<path fill="#403430" stroke="none" d="
M 284.4 47.15
L 284.15 47.25 284.2 47.55 284.6 47.45 284.7 47.35 284.6 46.95 284.4 47.15 Z"/>
</g>

<g id="Layer0_0_MEMBER_22_MEMBER_0_MEMBER_0_MEMBER_12_FILL">
<path fill="#403430" stroke="none" d="
M 284.05 46.2
L 283.8 46.3 283.95 46.6 284.3 46.45 284.4 46.35 284.2 45.95 284.05 46.2 Z"/>
</g>

<g id="Layer0_0_MEMBER_22_MEMBER_0_MEMBER_0_MEMBER_13_FILL">
<path fill="#403430" stroke="none" d="
M 284.6 49.2
L 284.3 49.15 284.3 49.5 284.65 49.55 284.8 49.5 284.85 49.05 284.6 49.2 Z"/>
</g>

<g id="Layer0_0_MEMBER_22_MEMBER_0_MEMBER_0_MEMBER_14_FILL">
<path fill="#403430" stroke="none" d="
M 273.65 51.9
L 273.6 52 273.55 52.05 273.8 52.4 273.9 52.1 274.15 51.95 273.95 51.65 273.65 51.9 Z"/>
</g>

<g id="Layer0_0_MEMBER_22_MEMBER_0_MEMBER_0_MEMBER_15_FILL">
<path fill="#403430" stroke="none" d="
M 273.5 50.8
L 273.15 50.95 273.05 51.1 273.25 51.45 273.4 51.25 273.65 51.1 273.5 50.8 Z"/>
</g>

<g id="Layer0_0_MEMBER_22_MEMBER_0_MEMBER_0_MEMBER_16_FILL">
<path fill="#403430" stroke="none" d="
M 278.9 54.3
L 278.95 54.7 279 54.85 279.45 54.8 279.25 54.6 279.25 54.3 278.9 54.3 Z"/>
</g>

<g id="Layer0_0_MEMBER_22_MEMBER_0_MEMBER_0_MEMBER_17_FILL">
<path fill="#403430" stroke="none" d="
M 274.55 52.45
L 274.25 52.7 274.2 52.85 274.5 53.2 274.6 52.9 274.8 52.7 274.55 52.45 Z"/>
</g>

<g id="Layer0_0_MEMBER_22_MEMBER_0_MEMBER_0_MEMBER_18_FILL">
<path fill="#403430" stroke="none" d="
M 272.75 48.9
L 272.6 49 272.65 49.45 272.85 49.25 273.15 49.2 273.1 48.9 272.75 48.9 Z"/>
</g>

<g id="Layer0_0_MEMBER_22_MEMBER_0_MEMBER_0_MEMBER_19_FILL">
<path fill="#403430" stroke="none" d="
M 273.25 49.85
L 272.85 49.95 272.75 50.05 272.85 50.5 272.95 50.35 273.05 50.25 273.3 50.2 273.25 49.85 Z"/>
</g>

<g id="Layer0_0_MEMBER_22_MEMBER_0_MEMBER_0_MEMBER_20_FILL">
<path fill="#403430" stroke="none" d="
M 277 54.05
L 276.85 54.4 276.9 54.55 277.3 54.7 277.25 54.4 277.3 54.15 277 54.05 Z"/>
</g>

<g id="Layer0_0_MEMBER_22_MEMBER_0_MEMBER_0_MEMBER_21_FILL">
<path fill="#403430" stroke="none" d="
M 277.95 54.25
L 277.9 54.65 277.95 54.8 278.4 54.85 278.25 54.6 278.25 54.3 277.95 54.25 Z"/>
</g>

<g id="Layer0_0_MEMBER_22_MEMBER_0_MEMBER_0_MEMBER_22_FILL">
<path fill="#403430" stroke="none" d="
M 276.1 53.65
L 275.9 54 275.9 54.15 276.3 54.35 276.25 54.15 276.25 54.05 276.4 53.8 276.1 53.65 Z"/>
</g>

<g id="Layer0_0_MEMBER_22_MEMBER_0_MEMBER_0_MEMBER_23_FILL">
<path fill="#403430" stroke="none" d="
M 275.25 53.1
L 275 53.45 275 53.6 275.35 53.85 275.35 53.55 275.55 53.3 275.25 53.1 Z"/>
</g>

<g id="Layer0_0_MEMBER_22_MEMBER_0_MEMBER_0_MEMBER_24_FILL">
<path fill="#403430" stroke="none" d="
M 275.4 43.55
L 275.05 43.8 275.3 43.9 275.5 44.15 275.75 43.95 275.55 43.6 275.45 43.55 275.4 43.55 Z"/>
</g>

<g id="Layer0_0_MEMBER_22_MEMBER_0_MEMBER_0_MEMBER_25_FILL">
<path fill="#403430" stroke="none" d="
M 279.05 42.55
L 279.2 42.85 279.2 43.1 279.5 43.15 279.55 42.75 279.5 42.6 279.05 42.55 Z"/>
</g>

<g id="Layer0_0_MEMBER_22_MEMBER_0_MEMBER_0_MEMBER_26_FILL">
<path fill="#403430" stroke="none" d="
M 281.2 43.35
L 281.05 43.6 281.35 43.75 281.55 43.4 281.55 43.25 281.15 43.05 281.2 43.25 281.2 43.35 Z"/>
</g>

<g id="Layer0_0_MEMBER_22_MEMBER_0_MEMBER_0_MEMBER_27_FILL">
<path fill="#403430" stroke="none" d="
M 280.15 42.75
L 280.2 43 280.15 43.3 280.45 43.4 280.6 43 280.55 42.85 280.15 42.75 Z"/>
</g>

<g id="Layer0_0_MEMBER_22_MEMBER_0_MEMBER_0_MEMBER_28_FILL">
<path fill="#403430" stroke="none" d="
M 277.35 42.7
L 276.95 42.85 277.1 42.95 277.15 43 277.25 43.3 277.55 43.2 277.5 42.85 277.35 42.7 Z"/>
</g>

<g id="Layer0_0_MEMBER_22_MEMBER_0_MEMBER_0_MEMBER_29_FILL">
<path fill="#403430" stroke="none" d="
M 274.3 45.25
L 274 45 273.85 45 273.6 45.35 273.85 45.35 274.1 45.5 274.3 45.25 Z"/>
</g>

<g id="Layer0_0_MEMBER_22_MEMBER_0_MEMBER_0_MEMBER_30_FILL">
<path fill="#403430" stroke="none" d="
M 273.4 46.95
L 273 46.85 272.85 46.9 272.75 47.3 273 47.2 273.3 47.3 273.4 46.95 Z"/>
</g>

<g id="Layer0_0_MEMBER_22_MEMBER_0_MEMBER_0_MEMBER_31_FILL">
<path fill="#403430" stroke="none" d="
M 278.45 42.55
L 278 42.6 278.2 42.85 278.2 43.15 278.55 43.1 278.55 42.7 278.45 42.55 Z"/>
</g>

<g id="Layer0_0_MEMBER_22_MEMBER_0_MEMBER_0_MEMBER_32_FILL">
<path fill="#403430" stroke="none" d="
M 276.35 43.05
L 275.95 43.2 276.2 43.35 276.35 43.65 276.65 43.5 276.5 43.15 276.35 43.05 Z"/>
</g>

<g id="Layer0_0_MEMBER_22_MEMBER_0_MEMBER_0_MEMBER_33_FILL">
<path fill="#403430" stroke="none" d="
M 273.8 46.05
L 273.45 45.9 273.25 45.9 273.1 46.3 273.25 46.25 273.35 46.25 273.65 46.35 273.8 46.05 Z"/>
</g>

<g id="Layer0_0_MEMBER_22_MEMBER_0_MEMBER_0_MEMBER_34_FILL">
<path fill="#403430" stroke="none" d="
M 273.2 47.9
L 272.8 47.85 272.65 47.95 272.6 48.35 272.85 48.2 273.15 48.25 273.2 47.9 Z"/>
</g>

<g id="Layer0_0_MEMBER_22_MEMBER_0_MEMBER_0_MEMBER_35_FILL">
<path fill="#403430" stroke="none" d="
M 282.1 43.85
L 281.9 44.1 282.2 44.3 282.45 44 282.45 43.8 282.1 43.55 282.1 43.85 Z"/>
</g>

<g id="Layer0_0_MEMBER_22_MEMBER_0_MEMBER_0_MEMBER_36_FILL">
<path fill="#403430" stroke="none" d="
M 275 44.55
L 274.7 44.25 274.55 44.2 274.25 44.5 274.55 44.55 274.75 44.75 275 44.55 Z"/>
</g>

<g id="Layer0_0_MEMBER_22_MEMBER_0_MEMBER_0_MEMBER_37_FILL">
<path fill="#403430" stroke="none" d="
M 282.65 44.7
L 282.9 44.95 283.2 44.7 283.25 44.55 282.95 44.25 282.9 44.5 282.65 44.7 Z"/>
</g>

<g id="Layer0_0_MEMBER_22_MEMBER_1_FILL">
<path fill="#FDFDFD" stroke="none" d="
M 275.45 45.45
Q 274.1 46.8 274.1 48.7 274.1 50.6 275.45 52 276.8 53.35 278.75 53.35 280.65 53.35 282 52 283.35 50.6 283.35 48.7 283.35 46.8 282 45.45 280.65 44.1 278.75 44.1 276.8 44.1 275.45 45.45 Z"/>
</g>

<g id="Layer0_0_MEMBER_22_MEMBER_2_FILL">
<path fill="#403430" stroke="none" d="
M 276 46
Q 274.9 47.1 274.9 48.7 274.9 50.3 276 51.4 277.15 52.55 278.75 52.55 280.3 52.55 281.45 51.4 282.55 50.3 282.55 48.7 282.55 47.15 281.45 46 280.35 44.9 278.75 44.9 277.15 44.9 276 46 Z"/>
</g>

<g id="Layer0_0_MEMBER_22_MEMBER_3_MEMBER_0_MEMBER_0_MEMBER_0_FILL">
<path fill="#DAD1D1" stroke="none" d="
M 274.7 47.85
L 278.5 49.35 278.95 48.05 274.95 47 274.7 47.85 Z"/>
</g>

<g id="Layer0_0_MEMBER_22_MEMBER_3_MEMBER_0_MEMBER_1_MEMBER_0_FILL">
<path fill="#DAD1D1" stroke="none" d="
M 279.25 49.1
L 278.2 48.3 275.95 51.75 276.65 52.25 279.25 49.1 Z"/>
</g>

<g id="Layer0_0_MEMBER_22_MEMBER_3_MEMBER_0_MEMBER_2_MEMBER_0_FILL">
<path fill="#DAD1D1" stroke="none" d="
M 279.25 48.3
L 278.2 49.1 280.8 52.25 281.5 51.75 279.25 48.3 Z"/>
</g>

<g id="Layer0_0_MEMBER_22_MEMBER_3_MEMBER_0_MEMBER_3_MEMBER_0_FILL">
<path fill="#DAD1D1" stroke="none" d="
M 282.5 47
L 278.5 48.05 278.95 49.35 282.75 47.85 282.5 47 Z"/>
</g>

<g id="Layer0_0_MEMBER_22_MEMBER_3_MEMBER_0_MEMBER_4_MEMBER_0_FILL">
<path fill="#DAD1D1" stroke="none" d="
M 278.3 44.6
L 278.05 48.7 279.4 48.7 279.15 44.6 278.3 44.6 Z"/>
</g>

<g id="Layer0_0_MEMBER_22_MEMBER_3_MEMBER_1_FILL">
<path fill="#FDFDFD" stroke="none" d="
M 277.75 47.7
Q 277.35 48.15 277.35 48.7 277.35 49.3 277.75 49.7 278.15 50.1 278.75 50.1 279.3 50.1 279.7 49.7 280.1 49.3 280.1 48.7 280.1 48.15 279.7 47.7 279.3 47.3 278.75 47.3 278.15 47.3 277.75 47.7 Z"/>
</g>

<g id="Layer0_0_MEMBER_23_MEMBER_0_FILL">
<path fill="#FFFFFF" fill-opacity="0.2" stroke="none" d="
M 0 0
L 3 3.95 7.05 4.15 3.9 0 0 0 Z"/>
</g>

<g id="Layer0_0_MEMBER_23_MEMBER_1_FILL">
<path fill="#FFFFFF" fill-opacity="0.2" stroke="none" d="
M 4.4 0
L 7.6 4.2 8.9 4.25 5.7 0 4.4 0 Z"/>
</g>
</defs>

<g transform="matrix( 9.899917602539062, 0, 0, 9.899917602539062, 111.3,601.35) ">
<use xlink:href="#Layer0_0_MEMBER_0_FILL"/>
</g>

<g transform="matrix( 9.899917602539062, 0, 0, 9.899917602539062, -2493.3,77.15) ">
<use xlink:href="#Layer0_0_MEMBER_1_FILL"/>
</g>

<g transform="matrix( 9.899917602539062, 0, 0, 9.899917602539062, -2493.3,77.15) ">
<use xlink:href="#Layer0_0_MEMBER_2_FILL"/>
</g>

<g transform="matrix( 9.899917602539062, 0, 0, 9.899917602539062, -2493.3,77.15) ">
<use xlink:href="#Layer0_0_MEMBER_3_FILL"/>
</g>

<g transform="matrix( 9.899917602539062, 0, 0, 9.899917602539062, -2493.3,77.15) ">
<use xlink:href="#Layer0_0_MEMBER_4_FILL"/>
</g>

<g transform="matrix( 9.899917602539062, 0, 0, 9.899917602539062, -2493.3,77.15) ">
<use xlink:href="#Layer0_0_MEMBER_5_FILL"/>
</g>

<g transform="matrix( 9.899917602539062, 0, 0, 9.899917602539062, -2493.3,77.15) ">
<use xlink:href="#Layer0_0_MEMBER_6_FILL"/>
</g>

<g transform="matrix( 9.899917602539062, 0, 0, 9.899917602539062, -2493.3,77.15) ">
<use xlink:href="#Layer0_0_MEMBER_7_FILL"/>
</g>

<g transform="matrix( 9.899917602539062, 0, 0, 9.899917602539062, -2493.3,77.15) ">
<use xlink:href="#Layer0_0_MEMBER_8_FILL"/>
</g>

<g transform="matrix( 9.899917602539062, 0, 0, 9.899917602539062, -2493.3,77.15) ">
<use xlink:href="#Layer0_0_MEMBER_9_FILL"/>
</g>

<g transform="matrix( 9.899917602539062, 0, 0, 9.899917602539062, -2493.3,77.15) ">
<use xlink:href="#Layer0_0_MEMBER_10_FILL"/>
</g>

<g transform="matrix( 9.899917602539062, 0, 0, 9.899917602539062, -2493.3,77.15) ">
<use xlink:href="#Layer0_0_MEMBER_11_FILL"/>
</g>

<g transform="matrix( 9.899917602539062, 0, 0, 9.899917602539062, -2493.3,77.15) ">
<use xlink:href="#Layer0_0_MEMBER_12_FILL"/>
</g>

<g transform="matrix( 9.899917602539062, 0, 0, 9.899917602539062, -2493.3,77.15) ">
<use xlink:href="#Layer0_0_MEMBER_13_FILL"/>
</g>

<g transform="matrix( 9.899917602539062, 0, 0, 9.899917602539062, -2493.3,77.15) ">
<use xlink:href="#Layer0_0_MEMBER_14_FILL"/>
</g>

<g transform="matrix( 9.899917602539062, 0, 0, 9.899917602539062, -2493.3,77.15) ">
<use xlink:href="#Layer0_0_MEMBER_15_FILL"/>
</g>

<g transform="matrix( 9.899917602539062, 0, 0, 9.899917602539062, -2493.3,77.15) ">
<use xlink:href="#Layer0_0_MEMBER_16_FILL"/>
</g>

<g transform="matrix( 9.899917602539062, 0, 0, 9.899917602539062, -2493.3,77.15) ">
<use xlink:href="#Layer0_0_MEMBER_17_FILL"/>
</g>

<g transform="matrix( 9.899917602539062, 0, 0, 9.899917602539062, -2493.3,77.15) ">
<use xlink:href="#Layer0_0_MEMBER_18_FILL"/>
</g>

<g transform="matrix( 9.899917602539062, 0, 0, 9.899917602539062, -2493.3,77.15) ">
<use xlink:href="#Layer0_0_MEMBER_19_FILL"/>
</g>

<g transform="matrix( 9.899917602539062, 0, 0, 9.899917602539062, 127.15,531.05) ">
<use xlink:href="#Layer0_0_MEMBER_20_FILL"/>
</g>

<g transform="matrix( 9.899917602539062, 0, 0, 9.899917602539062, -2493.3,77.15) ">
<use xlink:href="#Layer0_0_MEMBER_21_MEMBER_0_MEMBER_0_MEMBER_0_FILL"/>
</g>

<g transform="matrix( 9.899917602539062, 0, 0, 9.899917602539062, -2493.3,77.15) ">
<use xlink:href="#Layer0_0_MEMBER_21_MEMBER_0_MEMBER_0_MEMBER_1_FILL"/>
</g>

<g transform="matrix( 9.899917602539062, 0, 0, 9.899917602539062, -2493.3,77.15) ">
<use xlink:href="#Layer0_0_MEMBER_21_MEMBER_0_MEMBER_0_MEMBER_2_FILL"/>
</g>

<g transform="matrix( 9.899917602539062, 0, 0, 9.899917602539062, -2493.3,77.15) ">
<use xlink:href="#Layer0_0_MEMBER_21_MEMBER_0_MEMBER_0_MEMBER_3_FILL"/>
</g>

<g transform="matrix( 9.899917602539062, 0, 0, 9.899917602539062, -2493.3,77.15) ">
<use xlink:href="#Layer0_0_MEMBER_21_MEMBER_0_MEMBER_0_MEMBER_4_FILL"/>
</g>

<g transform="matrix( 9.899917602539062, 0, 0, 9.899917602539062, -2493.3,77.15) ">
<use xlink:href="#Layer0_0_MEMBER_21_MEMBER_0_MEMBER_0_MEMBER_5_FILL"/>
</g>

<g transform="matrix( 9.899917602539062, 0, 0, 9.899917602539062, -2493.3,77.15) ">
<use xlink:href="#Layer0_0_MEMBER_21_MEMBER_0_MEMBER_0_MEMBER_6_FILL"/>
</g>

<g transform="matrix( 9.899917602539062, 0, 0, 9.899917602539062, -2493.3,77.15) ">
<use xlink:href="#Layer0_0_MEMBER_21_MEMBER_0_MEMBER_0_MEMBER_7_FILL"/>
</g>

<g transform="matrix( 9.899917602539062, 0, 0, 9.899917602539062, -2493.3,77.15) ">
<use xlink:href="#Layer0_0_MEMBER_21_MEMBER_0_MEMBER_0_MEMBER_8_FILL"/>
</g>

<g transform="matrix( 9.899917602539062, 0, 0, 9.899917602539062, -2493.3,77.15) ">
<use xlink:href="#Layer0_0_MEMBER_21_MEMBER_0_MEMBER_0_MEMBER_9_FILL"/>
</g>

<g transform="matrix( 9.899917602539062, 0, 0, 9.899917602539062, -2493.3,77.15) ">
<use xlink:href="#Layer0_0_MEMBER_21_MEMBER_0_MEMBER_0_MEMBER_10_FILL"/>
</g>

<g transform="matrix( 9.899917602539062, 0, 0, 9.899917602539062, -2493.3,77.15) ">
<use xlink:href="#Layer0_0_MEMBER_21_MEMBER_0_MEMBER_0_MEMBER_11_FILL"/>
</g>

<g transform="matrix( 9.899917602539062, 0, 0, 9.899917602539062, -2493.3,77.15) ">
<use xlink:href="#Layer0_0_MEMBER_21_MEMBER_0_MEMBER_0_MEMBER_12_FILL"/>
</g>

<g transform="matrix( 9.899917602539062, 0, 0, 9.899917602539062, -2493.3,77.15) ">
<use xlink:href="#Layer0_0_MEMBER_21_MEMBER_0_MEMBER_0_MEMBER_13_FILL"/>
</g>

<g transform="matrix( 9.899917602539062, 0, 0, 9.899917602539062, -2493.3,77.15) ">
<use xlink:href="#Layer0_0_MEMBER_21_MEMBER_0_MEMBER_0_MEMBER_14_FILL"/>
</g>

<g transform="matrix( 9.899917602539062, 0, 0, 9.899917602539062, -2493.3,77.15) ">
<use xlink:href="#Layer0_0_MEMBER_21_MEMBER_0_MEMBER_0_MEMBER_15_FILL"/>
</g>

<g transform="matrix( 9.899917602539062, 0, 0, 9.899917602539062, -2493.3,77.15) ">
<use xlink:href="#Layer0_0_MEMBER_21_MEMBER_0_MEMBER_0_MEMBER_16_FILL"/>
</g>

<g transform="matrix( 9.899917602539062, 0, 0, 9.899917602539062, -2493.3,77.15) ">
<use xlink:href="#Layer0_0_MEMBER_21_MEMBER_0_MEMBER_0_MEMBER_17_FILL"/>
</g>

<g transform="matrix( 9.899917602539062, 0, 0, 9.899917602539062, -2493.3,77.15) ">
<use xlink:href="#Layer0_0_MEMBER_21_MEMBER_0_MEMBER_0_MEMBER_18_FILL"/>
</g>

<g transform="matrix( 9.899917602539062, 0, 0, 9.899917602539062, -2493.3,77.15) ">
<use xlink:href="#Layer0_0_MEMBER_21_MEMBER_0_MEMBER_0_MEMBER_19_FILL"/>
</g>

<g transform="matrix( 9.899917602539062, 0, 0, 9.899917602539062, -2493.3,77.15) ">
<use xlink:href="#Layer0_0_MEMBER_21_MEMBER_0_MEMBER_0_MEMBER_20_FILL"/>
</g>

<g transform="matrix( 9.899917602539062, 0, 0, 9.899917602539062, -2493.3,77.15) ">
<use xlink:href="#Layer0_0_MEMBER_21_MEMBER_0_MEMBER_0_MEMBER_21_FILL"/>
</g>

<g transform="matrix( 9.899917602539062, 0, 0, 9.899917602539062, -2493.3,77.15) ">
<use xlink:href="#Layer0_0_MEMBER_21_MEMBER_0_MEMBER_0_MEMBER_22_FILL"/>
</g>

<g transform="matrix( 9.899917602539062, 0, 0, 9.899917602539062, -2493.3,77.15) ">
<use xlink:href="#Layer0_0_MEMBER_21_MEMBER_0_MEMBER_0_MEMBER_23_FILL"/>
</g>

<g transform="matrix( 9.899917602539062, 0, 0, 9.899917602539062, -2493.3,77.15) ">
<use xlink:href="#Layer0_0_MEMBER_21_MEMBER_0_MEMBER_0_MEMBER_24_FILL"/>
</g>

<g transform="matrix( 9.899917602539062, 0, 0, 9.899917602539062, -2493.3,77.15) ">
<use xlink:href="#Layer0_0_MEMBER_21_MEMBER_0_MEMBER_0_MEMBER_25_FILL"/>
</g>

<g transform="matrix( 9.899917602539062, 0, 0, 9.899917602539062, -2493.3,77.15) ">
<use xlink:href="#Layer0_0_MEMBER_21_MEMBER_0_MEMBER_0_MEMBER_26_FILL"/>
</g>

<g transform="matrix( 9.899917602539062, 0, 0, 9.899917602539062, -2493.3,77.15) ">
<use xlink:href="#Layer0_0_MEMBER_21_MEMBER_0_MEMBER_0_MEMBER_27_FILL"/>
</g>

<g transform="matrix( 9.899917602539062, 0, 0, 9.899917602539062, -2493.3,77.15) ">
<use xlink:href="#Layer0_0_MEMBER_21_MEMBER_0_MEMBER_0_MEMBER_28_FILL"/>
</g>

<g transform="matrix( 9.899917602539062, 0, 0, 9.899917602539062, -2493.3,77.15) ">
<use xlink:href="#Layer0_0_MEMBER_21_MEMBER_0_MEMBER_0_MEMBER_29_FILL"/>
</g>

<g transform="matrix( 9.899917602539062, 0, 0, 9.899917602539062, -2493.3,77.15) ">
<use xlink:href="#Layer0_0_MEMBER_21_MEMBER_0_MEMBER_0_MEMBER_30_FILL"/>
</g>

<g transform="matrix( 9.899917602539062, 0, 0, 9.899917602539062, -2493.3,77.15) ">
<use xlink:href="#Layer0_0_MEMBER_21_MEMBER_0_MEMBER_0_MEMBER_31_FILL"/>
</g>

<g transform="matrix( 9.899917602539062, 0, 0, 9.899917602539062, -2493.3,77.15) ">
<use xlink:href="#Layer0_0_MEMBER_21_MEMBER_0_MEMBER_0_MEMBER_32_FILL"/>
</g>

<g transform="matrix( 9.899917602539062, 0, 0, 9.899917602539062, -2493.3,77.15) ">
<use xlink:href="#Layer0_0_MEMBER_21_MEMBER_0_MEMBER_0_MEMBER_33_FILL"/>
</g>

<g transform="matrix( 9.899917602539062, 0, 0, 9.899917602539062, -2493.3,77.15) ">
<use xlink:href="#Layer0_0_MEMBER_21_MEMBER_0_MEMBER_0_MEMBER_34_FILL"/>
</g>

<g transform="matrix( 9.899917602539062, 0, 0, 9.899917602539062, -2493.3,77.15) ">
<use xlink:href="#Layer0_0_MEMBER_21_MEMBER_0_MEMBER_0_MEMBER_35_FILL"/>
</g>

<g transform="matrix( 9.899917602539062, 0, 0, 9.899917602539062, -2493.3,77.15) ">
<use xlink:href="#Layer0_0_MEMBER_21_MEMBER_0_MEMBER_0_MEMBER_36_FILL"/>
</g>

<g transform="matrix( 9.899917602539062, 0, 0, 9.899917602539062, -2493.3,77.15) ">
<use xlink:href="#Layer0_0_MEMBER_21_MEMBER_0_MEMBER_0_MEMBER_37_FILL"/>
</g>

<g transform="matrix( 9.899917602539062, 0, 0, 9.899917602539062, -2493.3,77.15) ">
<use xlink:href="#Layer0_0_MEMBER_21_MEMBER_1_FILL"/>
</g>

<g transform="matrix( 9.899917602539062, 0, 0, 9.899917602539062, -2493.3,77.15) ">
<use xlink:href="#Layer0_0_MEMBER_21_MEMBER_2_FILL"/>
</g>

<g transform="matrix( 9.899917602539062, 0, 0, 9.899917602539062, -2493.3,77.15) ">
<use xlink:href="#Layer0_0_MEMBER_21_MEMBER_3_MEMBER_0_MEMBER_0_MEMBER_0_FILL"/>
</g>

<g transform="matrix( 9.899917602539062, 0, 0, 9.899917602539062, -2493.3,77.15) ">
<use xlink:href="#Layer0_0_MEMBER_21_MEMBER_3_MEMBER_0_MEMBER_1_MEMBER_0_FILL"/>
</g>

<g transform="matrix( 9.899917602539062, 0, 0, 9.899917602539062, -2493.3,77.15) ">
<use xlink:href="#Layer0_0_MEMBER_21_MEMBER_3_MEMBER_0_MEMBER_2_MEMBER_0_FILL"/>
</g>

<g transform="matrix( 9.899917602539062, 0, 0, 9.899917602539062, -2493.3,77.15) ">
<use xlink:href="#Layer0_0_MEMBER_21_MEMBER_3_MEMBER_0_MEMBER_3_MEMBER_0_FILL"/>
</g>

<g transform="matrix( 9.899917602539062, 0, 0, 9.899917602539062, -2493.3,77.15) ">
<use xlink:href="#Layer0_0_MEMBER_21_MEMBER_3_MEMBER_0_MEMBER_4_MEMBER_0_FILL"/>
</g>

<g transform="matrix( 9.899917602539062, 0, 0, 9.899917602539062, -2493.3,77.15) ">
<use xlink:href="#Layer0_0_MEMBER_21_MEMBER_3_MEMBER_1_FILL"/>
</g>

<g transform="matrix( 9.899917602539062, 0, 0, 9.899917602539062, -2493.3,77.15) ">
<use xlink:href="#Layer0_0_MEMBER_22_MEMBER_0_MEMBER_0_MEMBER_0_FILL"/>
</g>

<g transform="matrix( 9.899917602539062, 0, 0, 9.899917602539062, -2493.3,77.15) ">
<use xlink:href="#Layer0_0_MEMBER_22_MEMBER_0_MEMBER_0_MEMBER_1_FILL"/>
</g>

<g transform="matrix( 9.899917602539062, 0, 0, 9.899917602539062, -2493.3,77.15) ">
<use xlink:href="#Layer0_0_MEMBER_22_MEMBER_0_MEMBER_0_MEMBER_2_FILL"/>
</g>

<g transform="matrix( 9.899917602539062, 0, 0, 9.899917602539062, -2493.3,77.15) ">
<use xlink:href="#Layer0_0_MEMBER_22_MEMBER_0_MEMBER_0_MEMBER_3_FILL"/>
</g>

<g transform="matrix( 9.899917602539062, 0, 0, 9.899917602539062, -2493.3,77.15) ">
<use xlink:href="#Layer0_0_MEMBER_22_MEMBER_0_MEMBER_0_MEMBER_4_FILL"/>
</g>

<g transform="matrix( 9.899917602539062, 0, 0, 9.899917602539062, -2493.3,77.15) ">
<use xlink:href="#Layer0_0_MEMBER_22_MEMBER_0_MEMBER_0_MEMBER_5_FILL"/>
</g>

<g transform="matrix( 9.899917602539062, 0, 0, 9.899917602539062, -2493.3,77.15) ">
<use xlink:href="#Layer0_0_MEMBER_22_MEMBER_0_MEMBER_0_MEMBER_6_FILL"/>
</g>

<g transform="matrix( 9.899917602539062, 0, 0, 9.899917602539062, -2493.3,77.15) ">
<use xlink:href="#Layer0_0_MEMBER_22_MEMBER_0_MEMBER_0_MEMBER_7_FILL"/>
</g>

<g transform="matrix( 9.899917602539062, 0, 0, 9.899917602539062, -2493.3,77.15) ">
<use xlink:href="#Layer0_0_MEMBER_22_MEMBER_0_MEMBER_0_MEMBER_8_FILL"/>
</g>

<g transform="matrix( 9.899917602539062, 0, 0, 9.899917602539062, -2493.3,77.15) ">
<use xlink:href="#Layer0_0_MEMBER_22_MEMBER_0_MEMBER_0_MEMBER_9_FILL"/>
</g>

<g transform="matrix( 9.899917602539062, 0, 0, 9.899917602539062, -2493.3,77.15) ">
<use xlink:href="#Layer0_0_MEMBER_22_MEMBER_0_MEMBER_0_MEMBER_10_FILL"/>
</g>

<g transform="matrix( 9.899917602539062, 0, 0, 9.899917602539062, -2493.3,77.15) ">
<use xlink:href="#Layer0_0_MEMBER_22_MEMBER_0_MEMBER_0_MEMBER_11_FILL"/>
</g>

<g transform="matrix( 9.899917602539062, 0, 0, 9.899917602539062, -2493.3,77.15) ">
<use xlink:href="#Layer0_0_MEMBER_22_MEMBER_0_MEMBER_0_MEMBER_12_FILL"/>
</g>

<g transform="matrix( 9.899917602539062, 0, 0, 9.899917602539062, -2493.3,77.15) ">
<use xlink:href="#Layer0_0_MEMBER_22_MEMBER_0_MEMBER_0_MEMBER_13_FILL"/>
</g>

<g transform="matrix( 9.899917602539062, 0, 0, 9.899917602539062, -2493.3,77.15) ">
<use xlink:href="#Layer0_0_MEMBER_22_MEMBER_0_MEMBER_0_MEMBER_14_FILL"/>
</g>

<g transform="matrix( 9.899917602539062, 0, 0, 9.899917602539062, -2493.3,77.15) ">
<use xlink:href="#Layer0_0_MEMBER_22_MEMBER_0_MEMBER_0_MEMBER_15_FILL"/>
</g>

<g transform="matrix( 9.899917602539062, 0, 0, 9.899917602539062, -2493.3,77.15) ">
<use xlink:href="#Layer0_0_MEMBER_22_MEMBER_0_MEMBER_0_MEMBER_16_FILL"/>
</g>

<g transform="matrix( 9.899917602539062, 0, 0, 9.899917602539062, -2493.3,77.15) ">
<use xlink:href="#Layer0_0_MEMBER_22_MEMBER_0_MEMBER_0_MEMBER_17_FILL"/>
</g>

<g transform="matrix( 9.899917602539062, 0, 0, 9.899917602539062, -2493.3,77.15) ">
<use xlink:href="#Layer0_0_MEMBER_22_MEMBER_0_MEMBER_0_MEMBER_18_FILL"/>
</g>

<g transform="matrix( 9.899917602539062, 0, 0, 9.899917602539062, -2493.3,77.15) ">
<use xlink:href="#Layer0_0_MEMBER_22_MEMBER_0_MEMBER_0_MEMBER_19_FILL"/>
</g>

<g transform="matrix( 9.899917602539062, 0, 0, 9.899917602539062, -2493.3,77.15) ">
<use xlink:href="#Layer0_0_MEMBER_22_MEMBER_0_MEMBER_0_MEMBER_20_FILL"/>
</g>

<g transform="matrix( 9.899917602539062, 0, 0, 9.899917602539062, -2493.3,77.15) ">
<use xlink:href="#Layer0_0_MEMBER_22_MEMBER_0_MEMBER_0_MEMBER_21_FILL"/>
</g>

<g transform="matrix( 9.899917602539062, 0, 0, 9.899917602539062, -2493.3,77.15) ">
<use xlink:href="#Layer0_0_MEMBER_22_MEMBER_0_MEMBER_0_MEMBER_22_FILL"/>
</g>

<g transform="matrix( 9.899917602539062, 0, 0, 9.899917602539062, -2493.3,77.15) ">
<use xlink:href="#Layer0_0_MEMBER_22_MEMBER_0_MEMBER_0_MEMBER_23_FILL"/>
</g>

<g transform="matrix( 9.899917602539062, 0, 0, 9.899917602539062, -2493.3,77.15) ">
<use xlink:href="#Layer0_0_MEMBER_22_MEMBER_0_MEMBER_0_MEMBER_24_FILL"/>
</g>

<g transform="matrix( 9.899917602539062, 0, 0, 9.899917602539062, -2493.3,77.15) ">
<use xlink:href="#Layer0_0_MEMBER_22_MEMBER_0_MEMBER_0_MEMBER_25_FILL"/>
</g>

<g transform="matrix( 9.899917602539062, 0, 0, 9.899917602539062, -2493.3,77.15) ">
<use xlink:href="#Layer0_0_MEMBER_22_MEMBER_0_MEMBER_0_MEMBER_26_FILL"/>
</g>

<g transform="matrix( 9.899917602539062, 0, 0, 9.899917602539062, -2493.3,77.15) ">
<use xlink:href="#Layer0_0_MEMBER_22_MEMBER_0_MEMBER_0_MEMBER_27_FILL"/>
</g>

<g transform="matrix( 9.899917602539062, 0, 0, 9.899917602539062, -2493.3,77.15) ">
<use xlink:href="#Layer0_0_MEMBER_22_MEMBER_0_MEMBER_0_MEMBER_28_FILL"/>
</g>

<g transform="matrix( 9.899917602539062, 0, 0, 9.899917602539062, -2493.3,77.15) ">
<use xlink:href="#Layer0_0_MEMBER_22_MEMBER_0_MEMBER_0_MEMBER_29_FILL"/>
</g>

<g transform="matrix( 9.899917602539062, 0, 0, 9.899917602539062, -2493.3,77.15) ">
<use xlink:href="#Layer0_0_MEMBER_22_MEMBER_0_MEMBER_0_MEMBER_30_FILL"/>
</g>

<g transform="matrix( 9.899917602539062, 0, 0, 9.899917602539062, -2493.3,77.15) ">
<use xlink:href="#Layer0_0_MEMBER_22_MEMBER_0_MEMBER_0_MEMBER_31_FILL"/>
</g>

<g transform="matrix( 9.899917602539062, 0, 0, 9.899917602539062, -2493.3,77.15) ">
<use xlink:href="#Layer0_0_MEMBER_22_MEMBER_0_MEMBER_0_MEMBER_32_FILL"/>
</g>

<g transform="matrix( 9.899917602539062, 0, 0, 9.899917602539062, -2493.3,77.15) ">
<use xlink:href="#Layer0_0_MEMBER_22_MEMBER_0_MEMBER_0_MEMBER_33_FILL"/>
</g>

<g transform="matrix( 9.899917602539062, 0, 0, 9.899917602539062, -2493.3,77.15) ">
<use xlink:href="#Layer0_0_MEMBER_22_MEMBER_0_MEMBER_0_MEMBER_34_FILL"/>
</g>

<g transform="matrix( 9.899917602539062, 0, 0, 9.899917602539062, -2493.3,77.15) ">
<use xlink:href="#Layer0_0_MEMBER_22_MEMBER_0_MEMBER_0_MEMBER_35_FILL"/>
</g>

<g transform="matrix( 9.899917602539062, 0, 0, 9.899917602539062, -2493.3,77.15) ">
<use xlink:href="#Layer0_0_MEMBER_22_MEMBER_0_MEMBER_0_MEMBER_36_FILL"/>
</g>

<g transform="matrix( 9.899917602539062, 0, 0, 9.899917602539062, -2493.3,77.15) ">
<use xlink:href="#Layer0_0_MEMBER_22_MEMBER_0_MEMBER_0_MEMBER_37_FILL"/>
</g>

<g transform="matrix( 9.899917602539062, 0, 0, 9.899917602539062, -2493.3,77.15) ">
<use xlink:href="#Layer0_0_MEMBER_22_MEMBER_1_FILL"/>
</g>

<g transform="matrix( 9.899917602539062, 0, 0, 9.899917602539062, -2493.3,77.15) ">
<use xlink:href="#Layer0_0_MEMBER_22_MEMBER_2_FILL"/>
</g>

<g transform="matrix( 9.899917602539062, 0, 0, 9.899917602539062, -2493.3,77.15) ">
<use xlink:href="#Layer0_0_MEMBER_22_MEMBER_3_MEMBER_0_MEMBER_0_MEMBER_0_FILL"/>
</g>

<g transform="matrix( 9.899917602539062, 0, 0, 9.899917602539062, -2493.3,77.15) ">
<use xlink:href="#Layer0_0_MEMBER_22_MEMBER_3_MEMBER_0_MEMBER_1_MEMBER_0_FILL"/>
</g>

<g transform="matrix( 9.899917602539062, 0, 0, 9.899917602539062, -2493.3,77.15) ">
<use xlink:href="#Layer0_0_MEMBER_22_MEMBER_3_MEMBER_0_MEMBER_2_MEMBER_0_FILL"/>
</g>

<g transform="matrix( 9.899917602539062, 0, 0, 9.899917602539062, -2493.3,77.15) ">
<use xlink:href="#Layer0_0_MEMBER_22_MEMBER_3_MEMBER_0_MEMBER_3_MEMBER_0_FILL"/>
</g>

<g transform="matrix( 9.899917602539062, 0, 0, 9.899917602539062, -2493.3,77.15) ">
<use xlink:href="#Layer0_0_MEMBER_22_MEMBER_3_MEMBER_0_MEMBER_4_MEMBER_0_FILL"/>
</g>

<g transform="matrix( 9.899917602539062, 0, 0, 9.899917602539062, -2493.3,77.15) ">
<use xlink:href="#Layer0_0_MEMBER_22_MEMBER_3_MEMBER_1_FILL"/>
</g>

<g transform="matrix( 9.899917602539062, 0, 0, 9.899917602539062, 443.45,423.15) ">
<use xlink:href="#Layer0_0_MEMBER_23_MEMBER_0_FILL"/>
</g>

<g transform="matrix( 9.899917602539062, 0, 0, 9.899917602539062, 443.45,423.15) ">
<use xlink:href="#Layer0_0_MEMBER_23_MEMBER_1_FILL"/>
</g>
</svg>
