<?xml version="1.0" encoding="utf-8"?>
<!-- Generator: Adobe Illustrator 24.1.0, SVG Export Plug-In . SVG Version: 6.00 Build 0)  -->
<svg version="1.1" id="图层_1" xmlns="http://www.w3.org/2000/svg" xmlns:xlink="http://www.w3.org/1999/xlink" x="0px" y="0px"
	 viewBox="0 0 200 200" style="enable-background:new 0 0 200 200;" xml:space="preserve">
<style type="text/css">
	.st0{fill:#042497;}
	.st1{fill:none;stroke:#FFFFFF;stroke-width:10.2763;stroke-miterlimit:10;}
	.st2{clip-path:url(#XMLID_2_);fill:#D8D5D0;}
	.st3{clip-path:url(#XMLID_2_);fill:#F7F4F0;}
	.st4{fill:#FFC400;}
	.st5{fill:none;stroke:#210D35;stroke-width:2;stroke-linecap:round;stroke-linejoin:round;stroke-miterlimit:10;}
</style>
<rect class="st0" width="200" height="200"/>
<g>
	<path class="st1" d="M45.43,66.8c-1.18,4.79,4.18,45.06,3.51,75.39c-0.25,11.51,87.71-0.36,108.51-0.46
		c6.78-0.03,1.28-74.21,1.26-80.99C158.68,53.96,48.59,53.93,45.43,66.8z"/>
	<path class="st1" d="M48.43,93.1c4.9,0.2,97.83-5.77,102.62-4.6"/>
	<path class="st1" d="M49.36,78.93c4.9,0.2,97.83-5.77,102.62-4.6"/>
	<path class="st1" d="M117.82,109.98c-1.99,1.21-2.33,16.37-3.11,19.56c-0.39,1.6,27.96-0.62,31.11-2.52
		c1.99-1.21,1.89-14.58,3.5-21.16C150.11,102.67,120.97,108.08,117.82,109.98z"/>
	<g>
		<g>
			<defs>
				<path id="XMLID_176_" d="M158.71,60.74c0.03,6.78,5.53,80.96-1.26,80.99c-20.8,0.09-108.76,11.96-108.51,0.46
					c0.67-30.32-4.68-70.59-3.51-75.39C48.59,53.93,158.68,53.96,158.71,60.74z M145.82,127.02c1.99-1.21,1.89-14.58,3.5-21.16
					c0.78-3.19-28.36,2.22-31.5,4.12c-1.99,1.21-2.33,16.37-3.11,19.56C114.32,131.14,142.68,128.93,145.82,127.02z"/>
			</defs>
			<use xlink:href="#XMLID_176_"  style="overflow:visible;fill:#EFEBE4;"/>
			<clipPath id="XMLID_2_">
				<use xlink:href="#XMLID_176_"  style="overflow:visible;"/>
			</clipPath>
			<path class="st2" d="M164.24,65.14c-4.75,19.35-72.3,73.57-117.01,63.43c-44.72-10.14-5.88,34.24-5.88,34.24l130.03-5.44
				L164.24,65.14z"/>
			<path class="st3" d="M15.23,135.33c16.31-41.24,50.6-40.12,56.09-54.51s82.45-19.94,99.08-14.45s-14.25-20.92-14.25-20.92
				S39.9,53.16,36.97,65.08S15.23,135.33,15.23,135.33z"/>
		</g>
	</g>
	<path class="st4" d="M149.32,105.86c-1.62,6.58-1.51,19.95-3.5,21.16c-3.14,1.9-31.5,4.12-31.11,2.52
		c0.78-3.19,1.12-18.36,3.11-19.56C120.97,108.08,150.11,102.67,149.32,105.86z"/>
	<path class="st5" d="M45.44,66.8c-1.18,4.79,4.16,45.07,3.5,75.39c-0.25,11.51,87.71-0.36,108.52-0.45
		c6.77-0.04,1.27-74.21,1.25-80.98C158.68,53.96,48.6,53.93,45.44,66.8z"/>
	<path class="st5" d="M48.42,93.09c4.91,0.22,97.84-5.76,102.63-4.59"/>
	<path class="st5" d="M49.36,78.94c4.9,0.19,97.82-5.79,102.62-4.61"/>
	<path class="st5" d="M117.83,109.99c-1.99,1.19-2.34,16.36-3.12,19.55c-0.39,1.6,27.98-0.61,31.11-2.51
		c2-1.21,1.88-14.59,3.5-21.17C150.1,102.67,120.97,108.07,117.83,109.99z"/>
</g>
</svg>
