<?xml version="1.0" ?><!DOCTYPE svg  PUBLIC '-//W3C//DTD SVG 1.1//EN'  'http://www.w3.org/Graphics/SVG/1.1/DTD/svg11.dtd'><svg enable-background="new 0 0 126 126" id="Layer_1" version="1.1" viewBox="0 0 126 126" xml:space="preserve" xmlns="http://www.w3.org/2000/svg" xmlns:xlink="http://www.w3.org/1999/xlink"><g><path d="M20.217,60.4154c1.4882,0.2166,15.6165-4.4122,17.114-10.7417   c1.4976-6.3382,12.8003-12.9354,17.6132-11.306s11.1234-0.1131,11.1234-0.1131l3.9746-1.9214l0.9042-0.4332h0.0094L125,67.1036   l-67.4382,39.199L5.2319,76.0877c-1.6483-0.9511-3.0233-2.3638-3.7392-4.1252C-2.4819,62.2426,18.8513,60.2269,20.217,60.4154z" fill="#F3F6FD"/><g><path d="M71.6347,97.0704v-0.0093c0.56-0.1377,1.3586-0.4316,1.992-1.1934    c0.312-0.3857,0.8077-0.8994,1.2943-1.2207c0.3855-0.2661,0.8536-0.5142,1.3493-0.7617c1.331-0.6699,2.5703-1.6802,2.8456-1.9097    c0.0092,0,0.0092,0,0.0184-0.0093c0.101-0.0459,0.2845-0.3208,0.4498-0.4863c0.0367-0.0366,0.0367-0.0552-0.0275-0.0552    l-0.6528-0.4175c-0.0734,0-0.1744,0.0273-0.2203,0.064l-0.0276,0.0278c0,0-1.1199-0.4614-1.8542-0.3145    c-0.7527,0.1558-0.5599,0.3027-0.2019,0.2939c0.3029,0,1.3152,0.5435,1.7282,0.6626c-0.4039,0.2661-2.0668,1.1709-3.9026,1.749    c-0.1378,0.0459-0.2662,0.1104-0.3764,0.1841c-0.3121,0.2383-1.1749,0.5596-1.5972,0.7432    c-0.5599,0.2568-0.9914,0.459-1.3494,0.6333c-0.0275-0.0181-0.0551-0.0366-0.0918-0.0552    c-1.0005-0.5137-1.0556-1.6333-1.1658-1.8818c-0.0367-0.0825,0.0184-0.1743,0.1561-0.2476    c0.7159-0.3579,0.5091-0.1465,1.7391-1.2295c0.1101-0.0459,0.3856-0.4502,0.3856-0.4502    c0.0183-0.0361,0.0459-0.0547-0.0276-0.0547l-0.7818-0.3887c-0.0735,0-0.1836,0.0278-0.2387,0.0645l-0.0367,0.0186    c0,0-0.8516-0.6816-1.6501-0.5352c-0.7986,0.147-0.6334,0.2847-0.257,0.2847c0.3213-0.0088,0.9908,0.9321,1.3948,1.0518    l-2.5378,1.4683c-0.1469,0.1196-0.2386,0.2568-0.2753,0.3857c-0.1194,0.3667-0.7068,1.6064-0.5324,2.4873h-0.0276    c0.1744,0.0273-1.0831,2.1021-2.1021,2.8452c-1.5146-0.7061-5.2965-1.5327-5.48-1.5142    c-0.0092,0.0093-0.0092,0.0181-0.0184,0.0278l-0.156-0.1011c-0.0919-0.0552-0.2662-0.083-0.4866-0.0366l-11.6577,1.8447    c-0.4498,0.0732-0.9455,0.3301-1.1107,0.5781l-0.046,0.0703l5.4479,3.1455l4.576-0.728c0.3947-0.0645,0.8261-0.2666,1.0372-0.4863    c-0.0918,0.1099-0.1927,0.2295-0.2203,0.2568c-0.0275,0.0278-0.0367,0.0552-0.0275,0.0732c0,0.0093,0.0184,0.0186,0.0367,0.0093    c0.0459,0,0.4957-0.4863,0.514-0.4956c0.0092-0.0181,0.3856-0.3398,0.4498-0.459c0.0184-0.0366,0.1285-0.064,0.257-0.0918    c0.0367,0.0088,0.0735,0.0278,0.1194,0.0366c0,0-0.0184-0.0552,2.5243-0.0366c1.4412,0.0186,3.1852,0.2207,4.1491,0.3398    c-0.0367,0.0552-0.0826,0.1006-0.1927,0.1377c-0.2203,0.064-0.2571-0.0273-0.4957,0.0273    c-0.5691,0.1284-0.9363,0.5142-1.1658,0.8721c-0.8813,0.2466-1.5735,0.6206-0.2738,0.9541l7.2665-4.2236    C70.5202,98.4459,71.0386,97.7643,71.6347,97.0704z M57.3242,101.4215c0,0-0.0367,0.0459-0.0918,0.1006l0.0734-0.1191h0.0184    C57.3242,101.403,57.3242,101.4122,57.3242,101.4215z M57.9576,100.4576c-0.0092,0.0186-0.0092,0.0273-0.0276,0.0459    c-0.0092,0.0088-0.0275,0.0088-0.0459,0.0186l1.1382-1.7256c0,0,0.0092-0.0186,0.0276-0.0464l0.5323-0.8169    c0,0,1.0372,0.3027,1.9919,0.6704c1.1382,0.4312,1.9644,0.8442,2.4876,1.1196c0.0092,0.1191,0.0643,0.2383,0.1469,0.3579    C61.9322,100.0719,58.1595,100.403,57.9576,100.4576z" fill="#E1E9F4"/></g><path d="M93.5864,65.618l-9.5511-0.9209l-30.97-12.4763l-1.8285,11.7608l1.903,0.8854   c0.1818,0.5208,0.509,1.1026,0.9575,1.6482c0.4485,0.5451,0.9212,0.9333,1.3333,1.1274l0.5696,0.2663   c0.194,0.0846,0.3637,0.1332,0.5091,0.1332c0.1696,0,0.3151-0.0728,0.4121-0.206c0.1697-0.2421,0.1333-0.7031-0.0485-1.2239   l0.4242,0.1935c0.1818,0.5214,0.509,1.1032,0.9576,1.6488c0.4485,0.5451,0.9332,0.9327,1.3332,1.1268l0.5696,0.2545   c0,0,0,0,0,0.0124h0.0121c0.1818,0.0846,0.3515,0.1332,0.497,0.1332c0.1818,0,0.3151-0.0728,0.4121-0.206   c0.1697-0.2426,0.1454-0.7031-0.0485-1.2239l8.7511,4.0724c0.1818,0.5208,0.5091,1.1026,0.9576,1.6482   c0.4485,0.5457,0.9332,0.9333,1.3332,1.115l0.5697,0.2669l0.0121,0.0118c0,0,0,0,0-0.0118c0.4,0.1935,0.7394,0.1935,0.909-0.061   c0.1697-0.2545,0.1455-0.7031-0.0485-1.2239l0.4243,0.1941c0.1818,0.5208,0.5212,1.1026,0.9575,1.6358   c0.4485,0.5457,0.9333,0.9457,1.3454,1.1274l0.5576,0.2669l0.0121,0.0118v-0.0118c0.3999,0.1935,0.7393,0.1935,0.9091-0.061   c0.1818-0.2545,0.1454-0.6907-0.0364-1.2239l-0.4121-0.1941l0.4121,0.1817v0.0124l2.7635,1.2849L93.5864,65.618z M55.9275,67.0727   c-0.0849,0.1213-0.2424,0.1332-0.4121,0.1089c-0.2303-0.1574-0.4606-0.3634-0.6909-0.6303   c-0.3273-0.4001-0.5697-0.8363-0.703-1.2239l1.7696,0.8238l0.5696,0.2669l-0.5696-0.2545   C56.0366,66.5513,56.0487,66.8786,55.9275,67.0727z M60.0849,68.9997c-0.0848,0.1332-0.2424,0.1456-0.4121,0.1213   c-0.2182-0.1574-0.4606-0.3634-0.6788-0.6303c-0.3394-0.4001-0.5818-0.8363-0.7151-1.2245l1.7818,0.8244   C60.194,68.4783,60.2182,68.818,60.0849,68.9997z M72.5692,74.818c-0.0849,0.1207-0.2424,0.145-0.4121,0.1207   c-0.2182-0.1574-0.4606-0.3634-0.6788-0.6421c-0.3394-0.4001-0.5818-0.8363-0.7151-1.2121l1.7818,0.8244   C72.6783,74.2966,72.7025,74.6357,72.5692,74.818z M76.7266,76.7568c-0.0849,0.1213-0.2303,0.1456-0.4121,0.1213   c-0.2182-0.1699-0.4485-0.3634-0.6788-0.6421c-0.3273-0.4001-0.5818-0.8363-0.7151-1.2121l1.7817,0.8238   C76.8356,76.236,76.8599,76.5751,76.7266,76.7568z" fill="#E1E9F4"/><path d="M49.8567,60.9332c-1.06-0.71-3.37-0.71-5.15,0c-0.9,0.3501-1.5,0.8198-1.73,1.29l-0.64,1.2798h-0.01v0.0103   c-0.07,0.1499-0.11,0.29-0.11,0.4399c0,0.2998,0.17,0.5898,0.53,0.8301c0.26,0.1797,0.6,0.3101,0.98,0.3999   c-0.02,0.02-0.03,0.0601-0.05,0.0801c-0.23,0.3101-1.13,1.3701-1.4,2.29l-0.01,0.0098c-0.1,0.04-0.18,0.1104-0.21,0.1899   c-0.6,1.2002-1.5,2.1304-1.91,2.9902c-0.03,0.0098-0.05,0.0098-0.08,0.02c-0.36,0.1396-0.77,0.4897-0.92,0.77   c-0.08,0.1597-0.06,0.2598,0.03,0.2998c0,0-0.02,0-0.03,0l0.54,0.3599c-0.04,0.1201-0.06,0.2402-0.06,0.3701   c0.01,0.0601,0,0.1299,0,0.2002c-0.13,0.02-0.25,0.0298-0.35,0.04c-0.28,0.04-0.54,0.23-0.63,0.48   c-0.25,0.73-0.97,2.0898-1.07,2.6299c-0.08,0.4399,0,0.7397,0.21,0.8701c0.03,0.02,0.06,0.0498,0.09,0.0601   c0.24,0.1499,0.42,0.3301,0.52,0.5698c0.01,0.04,0.03,0.1001,0.05,0.1602c-0.72,0.3896-1.36,0.9399-1.69,1.6797   c-0.04,0.0903-0.03,0.3301-0.04,0.46c-0.29-1.4897-1.16-1.1899-1.16-1.1899c0.2,0.3203,0.29,0.5703,0.24,1.0303   c-0.06,0.4697-0.31,1.23-0.0099,1.4697c0.6899,0.5601,1.33-0.1499,1.65-0.5898c0.19,0,0.39-0.0303,0.39-0.0303   c1.51-0.2598,1.85-1.2295,2.09-1.9297c0.1201-0.3701,0.25-0.6201,0.35-0.7803c0.09-0.0098,0.19-0.0195,0.28-0.0498h0.05   c0.86-0.1299,2.75-2.8101,2.75-2.8101c0.11,0.02,0.22,0.0298,0.33,0.04l2.86,1.9199l0.85,0.0698   c0.02,0.0103,0.05-0.0098,0.08-0.0098l0.74,0.1602c0.02,0,0.04,0,0.06-0.02c0.02-0.0103,0.02-0.0303,0.01-0.04l-0.27-0.5103   c0.01-0.04,0.02-0.0801,0.01-0.0996l-0.19-0.6401l-0.66-0.4399c0.03,0.0098,0.06,0.0298,0.08,0.04   c0.11,0.0898,0.16-0.0103,0.16-0.0103c0.35-0.5601-0.52-0.5698-0.85-0.5498c-0.05,0-0.08-0.02-0.11-0.02c0-0.0103,0-0.0103,0-0.02   c-0.1-0.0698-0.25-0.1401-0.43-0.2202l-2.21-1.4897c0.04,0,0.07-0.0103,0.09-0.02c0.08-0.0601,0.01-0.02,0.01-0.0601   s-0.14-0.0698-0.2-0.0698c0.07-0.0103,0.28-0.04,0.26-0.0903c-0.02-0.0601-0.04-0.04-0.07-0.0601   c-0.01-0.0098-0.04-0.0098-0.06-0.0098c0.04-0.02,0.08-0.0303,0.07-0.0498c-0.01-0.0303-0.06-0.0303-0.08-0.04   c-0.06-0.0303-0.24-0.04-0.27-0.04c-0.02-0.0103,0.16-0.0801,0.12-0.1104c-0.04-0.04-0.02-0.0298-0.1-0.04   c-0.1-0.0195-0.2-0.0195-0.31-0.0195c0.15-0.2402,0.25-0.4004,0.25-0.4004s0.37-0.5898,1-2.02c0.51-1.1499,0.76-1.3896,0.68-1.6997   c0.09-0.1201,0.18-0.27,0.2-0.48c0.02-0.1704,0.05-0.3501,0.11-0.5303c0.16-0.5,0.48-1.48,0.74-2.0298   c0.56-0.0898,1.13-0.23,1.65-0.4399c1.03-0.3999,1.64-0.9502,1.79-1.48c-0.02,0.0698-0.03,0.1299-0.06,0.1899l0.65-1.29   C50.5067,61.7433,50.3867,61.2833,49.8567,60.9332z M42.1367,74.7531c0.01-0.1797,0.11-0.4497,0.25-0.75l0.3,0.21   C42.5267,74.3732,42.3367,74.5533,42.1367,74.7531z M45.0167,66.0533c-0.16,0.21-0.63,0.7798-1,1.4199   c-0.05-0.0103-0.09-0.02-0.14-0.0303c0.08-0.1196,0.16-0.2598,0.18-0.4497c0.02-0.1699,0.05-0.3501,0.11-0.5303   c0.09-0.2896,0.23-0.73,0.39-1.1699c0.27,0.02,0.54,0.02,0.83,0.0103C45.3167,65.5133,45.1967,65.8234,45.0167,66.0533z" fill="#E1E9F4"/><polygon fill="#FDFEFF" points="5.5941,76.2968 43.977,54.2865 53.162,59.5896 14.7787,81.5999 15.3301,81.9181 53.7133,59.9078    82.3609,76.4474 43.9765,98.4586 44.5278,98.7768 82.9123,76.7656 92.0922,82.0659 53.7074,104.0771 54.2588,104.3954    121.9578,65.3473 121.4064,65.0286 92.5265,81.8134 83.3466,76.5136 112.2266,59.7288 111.6753,59.41 82.7952,76.1954    73.5308,70.8464 102.4111,54.0615 102.0187,53.8348 73.1384,70.6196 63.7945,65.2251 92.6751,48.4398 92.2875,48.2163    63.4071,65.0016 54.1476,59.6553 83.0283,42.87 82.477,42.5518 53.5962,59.3371 44.4113,54.0341 73.2923,37.2487 72.7409,36.9305    5.0427,75.9786  "/><g><g><path d="M50.6292,59.6078l-0.0031,1.5075c-0.0015,0.5369-0.3544,1.0729-1.0594,1.4827     c-1.4194,0.8249-3.7281,0.8249-5.1569,0c-0.7188-0.415-1.0778-0.9596-1.0762-1.5035l0.0031-1.5075     c-0.0015,0.5438,0.3574,1.0884,1.0762,1.5035c1.4287,0.8249,3.7374,0.8249,5.1569,0     C50.2748,60.6807,50.6276,60.1447,50.6292,59.6078z" fill="#3887E5"/></g><g><path d="M49.5524,58.1037c1.4287,0.8249,1.4368,2.1618,0.0174,2.9867c-1.4194,0.8249-3.7281,0.8249-5.1569,0     c-1.4287-0.8249-1.4357-2.1618-0.0163-2.9867C45.8161,57.2788,48.1236,57.2788,49.5524,58.1037z" fill="#A6C2FF"/></g></g><g><g><g><g><g><g><g enable-background="new    "><g><polygon fill="#B6CBEA" points="57.3787,20.6416 53.0653,52.2208 84.8231,70.6764 89.1365,39.0972          "/></g><g><polygon fill="#3887E5" points="57.3787,20.6416 56.5829,26.4672 88.3408,44.9228 89.1365,39.0972          "/></g><polygon fill="#9EB5DF" points="89.1365,39.0972 93.5873,65.6164 84.8231,70.6764         "/></g></g><g><polygon fill="#83A1CC" points="83.6747,44.6292 83.2461,47.7667 85.9208,49.3209 86.3494,46.1834        "/><polygon fill="#83A1CC" points="82.064,43.693 79.3893,42.1388 78.9607,45.2762 81.6354,46.8304        "/><polygon fill="#83A1CC" points="77.7786,41.2026 75.1039,39.6484 74.6753,42.7858 77.35,44.34        "/><polygon fill="#83A1CC" points="73.4933,38.7122 70.8184,37.158 70.3898,40.2954 73.0647,41.8496        "/><polygon fill="#3887E5" points="55.0145,51.2688 57.6893,52.823 58.1178,49.6858 55.4431,48.1316        "/><polygon fill="#83A1CC" points="72.1562,61.2306 74.8309,62.7848 75.2595,59.6475 72.5848,58.0933        "/><polygon fill="#83A1CC" points="67.8707,58.7402 70.5456,60.2944 70.9742,57.1569 68.2993,55.6027        "/><polygon fill="#1E72C6" points="63.5854,56.2497 66.2601,57.8039 66.6887,54.6666 64.014,53.1124        "/><polygon fill="#83A1CC" points="59.3,53.7593 61.9747,55.3136 62.4033,52.1761 59.7285,50.6219        "/><polygon fill="#3887E5" points="55.6443,46.6576 58.319,48.2118 58.7476,45.0746 56.0729,43.5203        "/><polygon fill="#83A1CC" points="81.3568,61.6002 84.0315,63.1544 84.4601,60.0171 81.7854,58.4629        "/><polygon fill="#83A1CC" points="77.0714,59.1098 79.7461,60.664 80.1747,57.5267 77.5,55.9725        "/><polygon fill="#83A1CC" points="72.786,56.6194 75.4607,58.1736 75.8893,55.0362 73.2146,53.482        "/><polygon fill="#83A1CC" points="68.5005,54.129 71.1754,55.6832 71.604,52.5457 68.9291,50.9915        "/><polygon fill="#1E72C6" points="64.2151,51.6385 66.8899,53.1927 67.3185,50.0554 64.6437,48.5012        "/><polygon fill="#83A1CC" points="59.9297,49.1481 62.6044,50.7023 63.033,47.5649 60.3583,46.0107        "/><polygon fill="#3887E5" points="56.7027,38.9091 56.2741,42.0464 58.9488,43.6006 59.3774,40.4633        "/><polygon fill="#83A1CC" points="81.9866,56.989 84.6613,58.5432 85.0899,55.4059 82.4152,53.8517        "/><polygon fill="#83A1CC" points="77.7012,54.4986 80.3759,56.0528 80.8045,52.9155 78.1298,51.3612        "/><polygon fill="#83A1CC" points="73.4158,52.0082 76.0905,53.5624 76.5191,50.425 73.8443,48.8708        "/><polygon fill="#83A1CC" points="69.5588,46.3803 69.1302,49.5178 71.8051,51.072 72.2337,47.9345        "/><polygon fill="#1E72C6" points="65.2735,43.89 64.8449,47.0273 67.5196,48.5815 67.9482,45.4442        "/><polygon fill="#83A1CC" points="60.9881,41.3995 60.5595,44.5369 63.2342,46.0911 63.6628,42.9537        "/><polygon fill="#3887E5" points="60.0072,35.8521 57.3325,34.2979 56.9039,37.4352 59.5786,38.9894        "/><polygon fill="#83A1CC" points="82.6164,52.3778 85.2911,53.932 85.7197,50.7947 83.045,49.2405        "/><polygon fill="#83A1CC" points="78.7595,46.75 78.3309,49.8874 81.0057,51.4416 81.4342,48.3042        "/><polygon fill="#83A1CC" points="74.4741,44.2596 74.0455,47.397 76.7202,48.9512 77.1488,45.8138        "/><polygon fill="#83A1CC" points="72.8635,43.3233 70.1886,41.7691 69.76,44.9065 72.4349,46.4608        "/><polygon fill="#1E72C6" points="68.578,40.833 65.9033,39.2788 65.4747,42.416 68.1494,43.9702        "/><polygon fill="#83A1CC" points="64.2926,38.3425 61.6179,36.7883 61.1893,39.9257 63.864,41.4799        "/></g></g><g><polygon fill="#4C4A8B" points="92.7533,65.1188 89.2194,44.0638 86.815,61.6679 92.7533,65.1188       "/><polygon fill="#DEE7F8" points="92.7533,65.1188 86.815,61.6679 85.7951,69.1363       "/></g></g><g><g><g><path d="M58.7188,36.2332L58.688,36.458l-0.3658-0.2278l-0.0449,0.1672         c0.0208,0.009,0.0381,0.0197,0.0613,0.0342c0.09,0.056,0.1795,0.139,0.2368,0.2392         c0.0628,0.1036,0.0931,0.2278,0.0744,0.3644c-0.0298,0.2178-0.2069,0.3163-0.461,0.158         c-0.1145-0.0713-0.2059-0.1635-0.2536-0.2301l0.0688-0.1798c0.0371,0.0506,0.1182,0.1361,0.204,0.1895         c0.0914,0.0569,0.196,0.0635,0.2129-0.0606c0.0165-0.1204-0.0503-0.2421-0.2389-0.3595         c-0.0522-0.0325-0.089-0.0514-0.1278-0.0679l0.1447-0.5754L58.7188,36.2332z" fill="#FFFFFF"/></g><g><path d="M62.7876,38.895c0.1584,0.0986,0.2729,0.3202,0.2397,0.5631         c-0.0318,0.2322-0.2014,0.3333-0.4048,0.2066c-0.2526-0.1573-0.3442-0.466-0.306-0.745         c0.03-0.2193,0.1206-0.3621,0.2397-0.4166c0.1075-0.0484,0.2384-0.0273,0.3862,0.055         c0.0208,0.0099,0.038,0.0197,0.0525,0.0287c0.0145,0.0091,0.0264,0.0174,0.0364,0.0247l-0.0288,0.2104         c-0.0066-0.0046-0.0132-0.009-0.0202-0.0134c-0.019-0.0119-0.0401-0.0232-0.066-0.0364         c-0.1985-0.1023-0.3027-0.0325-0.3459,0.0872l0.0044,0.0028C62.6291,38.8336,62.7006,38.8408,62.7876,38.895z          M62.6473,39.4615c0.0769,0.0479,0.1381-0.0094,0.1544-0.1283c0.0148-0.1078-0.0189-0.2305-0.1131-0.2891         c-0.0596-0.0371-0.1151-0.0228-0.1433,0.0221c-0.0094,0.0118-0.0153,0.0314-0.0197,0.0638         C62.513,39.2569,62.5455,39.3981,62.6473,39.4615" fill="#FFFFFF"/></g><g><polygon fill="#FFFFFF" points="67.4176,41.2239 67.394,41.3964 66.8689,42.1507 66.6351,42.0051 67.1528,41.3067          67.1533,41.3033 66.7207,41.0339 66.7515,40.8091        "/></g><g><path d="M71.4374,44.1817c0.087,0.1011,0.1551,0.2488,0.1346,0.398         c-0.029,0.2123-0.1926,0.2667-0.4116,0.1303c-0.2395-0.1491-0.3269-0.385-0.3052-0.5434         c0.0192-0.1403,0.0977-0.1968,0.2084-0.1883l0.0005-0.0037c-0.0834-0.1161-0.1153-0.2397-0.1013-0.342         c0.0271-0.1979,0.1887-0.2399,0.3775-0.1223c0.2205,0.1373,0.2903,0.3526,0.2708,0.4948         c-0.0137,0.1005-0.0708,0.1724-0.1731,0.1712L71.4374,44.1817z M71.1949,44.5264c0.0769,0.0479,0.1378,0.0177,0.1492-0.0651         c0.014-0.1026-0.0401-0.2025-0.1217-0.2846c-0.0761-0.0201-0.127,0.0184-0.1385,0.1029         C71.0708,44.3633,71.1122,44.4749,71.1949,44.5264 M71.3049,43.6893c-0.0756-0.0471-0.1218-0.0077-0.1316,0.0643         c-0.0108,0.0793,0.0389,0.1648,0.1103,0.2406c0.0532,0.0135,0.1062-0.0159,0.1161-0.0879         C71.4097,43.8327,71.386,43.7398,71.3049,43.6893" fill="#FFFFFF"/></g><g><path d="M75.6662,45.8969c0.2425,0.151,0.3256,0.4527,0.2882,0.726         c-0.0335,0.2447-0.1201,0.382-0.2394,0.4366c-0.1038,0.0447-0.236,0.0209-0.3835-0.0633         c-0.0156-0.008-0.0315-0.0173-0.0465-0.0267c-0.0206-0.0128-0.0395-0.0257-0.0536-0.0357l0.029-0.2123         c0.0121,0.0092,0.0233,0.0168,0.0354,0.0243c0.0166,0.0103,0.0351,0.0207,0.0605,0.0354         c0.0689,0.0372,0.1402,0.056,0.1955,0.0436c0.0696-0.0132,0.1208-0.0651,0.1489-0.1433L75.698,46.678         c-0.0494,0.0278-0.1161,0.0194-0.2016-0.0338c-0.1597-0.0994-0.2747-0.3193-0.2434-0.5478         C75.2842,45.8678,75.4586,45.7676,75.6662,45.8969z M75.7161,46.4882c0.0096-0.0133,0.0151-0.0295,0.0197-0.0638         c0.0184-0.1232-0.0026-0.2689-0.1057-0.3331c-0.0741-0.0462-0.1391,0.0031-0.1558,0.1254         c-0.0138,0.1008,0.0194,0.2152,0.1081,0.2704C75.6433,46.5249,75.69,46.5168,75.7161,46.4882" fill="#FFFFFF"/></g><g><polygon fill="#FFFFFF" points="79.638,48.425 79.4781,49.594 79.2646,49.461 79.3913,48.5347 79.3885,48.533          79.1941,48.5272 79.1858,48.2994 79.4566,48.312        "/></g><g><path d="M80.2971,48.8139c0.2511,0.1564,0.3131,0.4975,0.2693,0.8176         c-0.0492,0.3599-0.2009,0.5368-0.4404,0.3876c-0.2439-0.1519-0.3141-0.4904-0.2703-0.8222         C79.9023,48.8569,80.0534,48.6621,80.2971,48.8139z M80.1586,49.815c0.0857,0.0534,0.1504-0.0509,0.1869-0.3171         c0.0354-0.2589,0.0089-0.4239-0.0796-0.479c-0.0796-0.0496-0.1522,0.0419-0.1896,0.3154         C80.0396,49.6023,80.0745,49.7626,80.1586,49.815" fill="#FFFFFF"/></g><g><polygon fill="#FFFFFF" points="84.0664,50.9765 83.9065,52.1455 83.6932,52.0127 83.8199,51.0863 83.8169,51.0845          83.6225,51.0787 83.6142,50.8509 83.885,50.8635        "/></g><g><polygon fill="#FFFFFF" points="84.8723,51.4784 84.7124,52.6474 84.4991,52.5145 84.6258,51.5882 84.6229,51.5863          84.4284,51.5806 84.4201,51.3527 84.6909,51.3654        "/></g><g><polygon fill="#FFFFFF" points="57.566,40.3517 57.406,41.5209 57.1925,41.388 57.3192,40.4616 57.3165,40.4599          57.122,40.4541 57.1137,40.2263 57.3845,40.2387        "/></g><g><path d="M58.2003,40.7254c0.215,0.1339,0.3098,0.3608,0.281,0.5712         c-0.0271,0.1979-0.1617,0.2839-0.3203,0.3491l-0.0993,0.0356l-0.0005,0.0037l0.3571,0.2224l-0.0308,0.2248l-0.6693-0.4168         L57.741,41.55l0.1388-0.0598c0.2393-0.1009,0.3574-0.17,0.3774-0.3058c0.013-0.0953-0.0214-0.1988-0.1304-0.2667         c-0.0813-0.0506-0.1594-0.0444-0.2147-0.0303l-0.0359-0.2331C57.9549,40.6311,58.074,40.6468,58.2003,40.7254z" fill="#FFFFFF"/></g><g><polygon fill="#FFFFFF" points="61.9226,43.0646 61.7626,44.2339 61.5491,44.1009 61.6758,43.1745 61.6731,43.1728          61.4786,43.1671 61.4704,42.9392 61.7412,42.9516        "/></g><g><path d="M62.5527,43.4357c0.2002,0.1247,0.294,0.3254,0.2721,0.4856         c-0.017,0.1241-0.0871,0.1878-0.2099,0.1641l-0.0005,0.0037c0.1098,0.0956,0.1869,0.2587,0.1658,0.4134         c-0.0281,0.2052-0.1955,0.2648-0.435,0.1157c-0.1219-0.0759-0.2195-0.1796-0.269-0.2553l0.0733-0.179         c0.0356,0.0514,0.1194,0.1525,0.2094,0.2085c0.1147,0.0714,0.1819,0.0391,0.1937-0.0472         c0.016-0.1167-0.0696-0.2268-0.167-0.2875l-0.09-0.056l0.0268-0.196l0.0872,0.0543c0.0739,0.046,0.1718,0.068,0.1853-0.0309         c0.0096-0.0702-0.0282-0.1505-0.1226-0.2093c-0.0769-0.0479-0.1638-0.0572-0.2056-0.0519l-0.0177-0.2255         C62.3118,43.3325,62.4292,43.3588,62.5527,43.4357z" fill="#FFFFFF"/></g><g><polygon fill="#FFFFFF" points="66.1724,45.4015 66.0124,46.5708 65.7991,46.4379 65.9258,45.5116 65.9229,45.5097          65.7284,45.504 65.7202,45.2761 65.9912,45.2887        "/></g><g><path d="M66.9891,46.654l0.1119,0.0697l-0.028,0.205l-0.1119-0.0697l-0.0381,0.2788l-0.2091-0.1302         l0.0381-0.2788l-0.418-0.2603l0.0243-0.178l0.4531-0.491l0.2714,0.169L66.9891,46.654z M66.8154,46.2647         c0.0096-0.0701,0.0224-0.1403,0.0357-0.2138l-0.0042-0.0026c-0.0409,0.0563-0.0763,0.1084-0.1182,0.1624l-0.16,0.1776         l-0.002,0.0027l0.2133,0.1328L66.8154,46.2647" fill="#FFFFFF"/></g><g><polygon fill="#FFFFFF" points="70.529,48.1144 70.3691,49.2837 70.1555,49.1507 70.2823,48.2244 70.2795,48.2227          70.085,48.2169 70.0768,47.989 70.3476,48.0015        "/></g><g><path d="M71.4699,48.7003l-0.0308,0.2248l-0.3658-0.2278l-0.0449,0.1675         c0.0208,0.009,0.0383,0.0199,0.0615,0.0343c0.09,0.056,0.1793,0.1389,0.2366,0.2391         c0.063,0.1037,0.0933,0.2279,0.0746,0.3646c-0.0298,0.2175-0.2071,0.3161-0.461,0.1581         c-0.1149-0.0715-0.2061-0.1636-0.2536-0.2301l0.0686-0.18c0.0373,0.0505,0.1184,0.1362,0.2042,0.1896         c0.0912,0.0568,0.196,0.0635,0.213-0.0605c0.0165-0.1207-0.0505-0.2422-0.2391-0.3597         c-0.0522-0.0325-0.089-0.0517-0.1278-0.0679l0.145-0.5755L71.4699,48.7003z" fill="#FFFFFF"/></g><g><polygon fill="#FFFFFF" points="74.7186,50.4304 74.5587,51.5997 74.3454,51.4669 74.4721,50.5405 74.4692,50.5387          74.2747,50.5329 74.2664,50.3051 74.5372,50.3175        "/></g><g><path d="M75.3906,51.2667c0.1582,0.0985,0.2729,0.3202,0.2397,0.5631         c-0.0317,0.2319-0.2017,0.3332-0.4048,0.2066c-0.2526-0.1573-0.3442-0.4663-0.306-0.745         c0.03-0.2193,0.1204-0.3622,0.2397-0.4169c0.1074-0.0481,0.2384-0.0271,0.3862,0.055         c0.0204,0.0099,0.0373,0.0195,0.0517,0.0285c0.0149,0.0093,0.027,0.0178,0.0372,0.0252l-0.0288,0.2102         c-0.0064-0.0044-0.0129-0.0087-0.0197-0.0129c-0.0192-0.0119-0.0404-0.0235-0.0665-0.0368         c-0.1987-0.1021-0.3027-0.0323-0.3458,0.0872l0.0044,0.0028C75.2322,51.2053,75.3036,51.2125,75.3906,51.2667z          M75.2503,51.8332c0.0769,0.0479,0.1382-0.0097,0.1544-0.1283c0.0147-0.1078-0.0189-0.2305-0.1131-0.2891         c-0.0596-0.0371-0.1151-0.0228-0.1433,0.0221c-0.0096,0.0116-0.0153,0.0314-0.0197,0.0638         C75.116,51.6286,75.1485,51.7699,75.2503,51.8332" fill="#FFFFFF"/></g><g><polygon fill="#FFFFFF" points="79.0753,53.1434 78.9153,54.3126 78.702,54.1798 78.8287,53.2534 78.8258,53.2516          78.6313,53.2458 78.623,53.018 78.8939,53.0304        "/></g><g><polygon fill="#FFFFFF" points="80.0626,53.7582 80.039,53.931 79.5139,54.6853 79.2801,54.5398 79.7978,53.8413          79.7983,53.8376 79.3657,53.5683 79.3965,53.3434        "/></g><g><polygon fill="#FFFFFF" points="83.2649,55.4594 83.105,56.6286 82.8914,56.4957 83.0182,55.5693 83.0154,55.5676          82.8207,55.5617 82.8127,55.334 83.0835,55.3464        "/></g><g><path d="M84.0254,56.5227c0.087,0.1011,0.1551,0.2488,0.1346,0.398         c-0.029,0.2123-0.1926,0.2667-0.4116,0.1303c-0.2395-0.1491-0.3269-0.385-0.3052-0.5434         c0.0192-0.1403,0.0977-0.1968,0.2084-0.1883l0.0005-0.0037c-0.0833-0.1164-0.1153-0.2397-0.1012-0.3423         c0.0271-0.1979,0.1886-0.2396,0.3774-0.122c0.2205,0.1373,0.2903,0.3523,0.2709,0.4945         c-0.0138,0.1008-0.0708,0.1726-0.1731,0.1714L84.0254,56.5227z M83.783,56.8674c0.0769,0.0479,0.1378,0.0177,0.1492-0.065         c0.014-0.1026-0.0401-0.2028-0.1217-0.2848c-0.0761-0.0201-0.127,0.0186-0.1386,0.1032         C83.6589,56.7043,83.7002,56.8158,83.783,56.8674 M83.8929,56.0303c-0.0756-0.0471-0.1218-0.0077-0.1316,0.0643         c-0.0108,0.0791,0.0389,0.1648,0.1103,0.2406c0.0532,0.0135,0.106-0.0161,0.1159-0.0881         C83.9976,56.1733,83.974,56.0808,83.8929,56.0303" fill="#FFFFFF"/></g><g><polygon fill="#FFFFFF" points="56.9319,44.9868 56.772,46.156 56.5584,46.0231 56.6852,45.0967 56.6824,45.095          56.488,45.089 56.4797,44.8614 56.7505,44.8738        "/></g><g><path d="M57.5838,45.3712c0.2422,0.1508,0.3256,0.4527,0.2882,0.726         c-0.0335,0.2447-0.1201,0.3822-0.2394,0.4366c-0.1038,0.0447-0.236,0.0209-0.3837-0.0631         c-0.0152-0.0079-0.0308-0.0171-0.0457-0.0264c-0.0209-0.013-0.0401-0.0261-0.0544-0.036l0.029-0.2123         c0.0121,0.0092,0.0233,0.0168,0.0355,0.0244c0.0166,0.0104,0.0351,0.0207,0.0604,0.0353         c0.069,0.037,0.1404,0.0562,0.1957,0.0438c0.0694-0.0133,0.1208-0.0654,0.1487-0.1437l-0.0027-0.0037         c-0.0494,0.028-0.1159,0.0196-0.2016-0.0338c-0.1597-0.0994-0.2745-0.3192-0.2432-0.5477         C57.2018,45.3424,57.3762,45.2419,57.5838,45.3712z M57.6336,45.9626c0.0097-0.0136,0.0151-0.0298,0.0197-0.0638         c0.0185-0.1232-0.0024-0.2691-0.1054-0.3332c-0.0741-0.0462-0.1391,0.0031-0.1559,0.1256         c-0.0138,0.1005,0.0194,0.2149,0.1079,0.27C57.561,45.9992,57.6076,45.9913,57.6336,45.9626" fill="#FFFFFF"/></g><g><path d="M61.117,47.5713c0.2148,0.1338,0.3098,0.3608,0.281,0.5712         c-0.0271,0.1979-0.1617,0.2839-0.3203,0.3491l-0.0993,0.0359l-0.0005,0.0037l0.3569,0.2223l-0.0308,0.2248l-0.6691-0.4166         l0.0227-0.1657l0.1388-0.0598c0.2393-0.1007,0.3572-0.1699,0.3773-0.3056c0.0131-0.0955-0.0214-0.1988-0.1304-0.2667         c-0.0813-0.0506-0.1594-0.0447-0.2149-0.0305l-0.0357-0.233C60.8716,47.477,60.9907,47.4927,61.117,47.5713z" fill="#FFFFFF"/></g><g><path d="M61.9477,48.0886c0.2511,0.1564,0.3131,0.4977,0.2693,0.8179         c-0.0492,0.3596-0.2008,0.5365-0.4403,0.3874c-0.2439-0.1519-0.3141-0.4901-0.2703-0.8222         C61.5528,48.1316,61.7039,47.9368,61.9477,48.0886z M61.8091,49.0896c0.0858,0.0534,0.1504-0.0506,0.1869-0.3171         c0.0354-0.2589,0.0089-0.4237-0.0796-0.4788c-0.0796-0.0496-0.1522,0.0419-0.1896,0.3151         C61.6901,48.8769,61.725,49.0373,61.8091,49.0896" fill="#FFFFFF"/></g><g><path d="M65.367,49.9084c0.2148,0.1338,0.3096,0.3606,0.2808,0.5711         c-0.0271,0.1979-0.1617,0.2839-0.3203,0.3491l-0.0991,0.036l-0.0005,0.0037l0.3569,0.2223l-0.0308,0.2248l-0.6691-0.4166         l0.0227-0.1657l0.1388-0.0598c0.2391-0.1008,0.3572-0.1699,0.3773-0.3056c0.0131-0.0955-0.0216-0.1989-0.1304-0.2667         c-0.0813-0.0506-0.1594-0.0447-0.2149-0.0305l-0.0357-0.233C65.1216,49.8141,65.2407,49.8297,65.367,49.9084z" fill="#FFFFFF"/></g><g><polygon fill="#FFFFFF" points="66.3445,50.5386 66.1845,51.7079 65.971,51.5749 66.0977,50.6486 66.095,50.6468          65.9003,50.6407 65.8922,50.4132 66.1631,50.4256        "/></g><g><path d="M69.7234,52.6211c0.215,0.1339,0.3098,0.3608,0.281,0.5712         c-0.0271,0.1979-0.1617,0.2839-0.3203,0.3491l-0.0993,0.0359l-0.0005,0.0037l0.3569,0.2223l-0.0308,0.2248l-0.6691-0.4166         l0.0227-0.1657l0.1388-0.0598c0.2393-0.1007,0.3574-0.1697,0.3773-0.3056c0.0131-0.0955-0.0214-0.1988-0.1304-0.2667         c-0.0813-0.0506-0.1594-0.0447-0.2147-0.0303l-0.0359-0.2331C69.478,52.5268,69.5973,52.5426,69.7234,52.6211z" fill="#FFFFFF"/></g><g><path d="M70.5294,53.123c0.215,0.1339,0.3098,0.3608,0.281,0.5712         c-0.0271,0.1979-0.1617,0.2839-0.3203,0.3491l-0.0993,0.0359l-0.0005,0.0037l0.3571,0.2224l-0.0308,0.2248l-0.6693-0.4168         l0.0227-0.1657l0.139-0.0597c0.2391-0.1008,0.3572-0.1699,0.3771-0.3057c0.0131-0.0955-0.0214-0.1988-0.1304-0.2667         c-0.0811-0.0505-0.1591-0.0446-0.2147-0.0303l-0.0359-0.2332C70.284,53.0287,70.4033,53.0445,70.5294,53.123z" fill="#FFFFFF"/></g><g><path d="M74.047,55.1614c0.215,0.1339,0.3098,0.3608,0.281,0.5712         c-0.0271,0.1979-0.1617,0.2839-0.3203,0.3491l-0.0993,0.0359l-0.0005,0.0037l0.3571,0.2224l-0.0308,0.2248l-0.6693-0.4168         l0.0227-0.1657l0.139-0.0597c0.2391-0.1008,0.3572-0.1699,0.3771-0.3057c0.0131-0.0955-0.0214-0.1988-0.1304-0.2667         c-0.0813-0.0506-0.1591-0.0446-0.2147-0.0303l-0.0359-0.2331C73.8016,55.0671,73.9207,55.0828,74.047,55.1614z" fill="#FFFFFF"/></g><g><path d="M74.8487,55.6607c0.2002,0.1247,0.2942,0.3258,0.2723,0.486         c-0.017,0.1241-0.0873,0.1876-0.2101,0.1637l-0.0005,0.0037c0.1098,0.0956,0.1869,0.259,0.1657,0.4137         c-0.028,0.2049-0.1955,0.2646-0.4348,0.1156c-0.1221-0.076-0.2197-0.1797-0.2692-0.2554l0.0733-0.1788         c0.0356,0.0514,0.1194,0.1525,0.2094,0.2085c0.1147,0.0714,0.1821,0.0393,0.1939-0.0471         c0.016-0.117-0.0698-0.227-0.1669-0.2875l-0.0902-0.0562l0.0268-0.196l0.0872,0.0543         c0.0739,0.046,0.1718,0.0678,0.1853-0.0312c0.0096-0.0702-0.0283-0.1503-0.1227-0.209         c-0.0769-0.0479-0.1638-0.0571-0.2056-0.0519l-0.0177-0.2258C74.6077,55.5575,74.7254,55.5839,74.8487,55.6607z" fill="#FFFFFF"/></g><g><path d="M78.3375,57.529c0.215,0.1339,0.3098,0.3608,0.281,0.5712         c-0.0271,0.1979-0.1617,0.2839-0.3203,0.3491l-0.0993,0.0359l-0.0005,0.0037l0.3571,0.2224l-0.0308,0.2248l-0.6693-0.4168         l0.0227-0.1657l0.139-0.0597c0.2391-0.1008,0.3572-0.1699,0.3771-0.3057c0.0131-0.0955-0.0214-0.1988-0.1304-0.2667         c-0.0813-0.0506-0.1591-0.0446-0.2147-0.0303l-0.0359-0.2332C78.0921,57.4347,78.2114,57.4505,78.3375,57.529z" fill="#FFFFFF"/></g><g><path d="M79.3257,58.9097l0.1117,0.0696l-0.0281,0.2052l-0.1117-0.0696l-0.0381,0.2788l-0.2091-0.1302         l0.0381-0.2788l-0.418-0.2603l0.0244-0.1783l0.4531-0.4908l0.2714,0.169L79.3257,58.9097z M79.1521,58.5206         c0.0096-0.0702,0.0224-0.1403,0.0357-0.2141l-0.0044-0.0028c-0.0408,0.0567-0.0763,0.1087-0.1183,0.1627l-0.1597,0.1775         l-0.002,0.0028l0.2133,0.1328L79.1521,58.5206" fill="#FFFFFF"/></g><g><path d="M82.5641,60.0487c0.2148,0.1338,0.3098,0.3608,0.281,0.5712         c-0.0271,0.1979-0.1617,0.2839-0.3203,0.3491l-0.0993,0.0359l-0.0005,0.0037l0.3569,0.2223l-0.0308,0.2248l-0.6691-0.4166         l0.0227-0.1657l0.1388-0.0598c0.2391-0.1008,0.3572-0.1699,0.3773-0.3056c0.0131-0.0955-0.0216-0.1989-0.1304-0.2667         c-0.0813-0.0506-0.1594-0.0447-0.2149-0.0305l-0.0357-0.233C82.3187,59.9544,82.4378,59.9701,82.5641,60.0487z" fill="#FFFFFF"/></g><g><path d="M83.6765,60.763l-0.0308,0.2248l-0.3658-0.2278l-0.0449,0.1672         c0.0208,0.009,0.0381,0.0197,0.0613,0.0342c0.09,0.056,0.1794,0.1393,0.2368,0.2392         c0.0628,0.1036,0.0931,0.2278,0.0743,0.3647c-0.0298,0.2175-0.2069,0.316-0.4609,0.1578         c-0.1147-0.0714-0.2059-0.1632-0.2536-0.2301l0.0688-0.1796c0.0371,0.0504,0.1182,0.1361,0.204,0.1895         c0.0914,0.0569,0.196,0.0633,0.213-0.0608c0.0165-0.1204-0.0503-0.2421-0.2389-0.3595         c-0.0522-0.0325-0.089-0.0514-0.1278-0.0679l0.1447-0.5754L83.6765,60.763z" fill="#FFFFFF"/></g><g><path d="M56.1263,49.4935c0.2148,0.1338,0.3098,0.3608,0.281,0.5712         c-0.0271,0.1979-0.1617,0.2839-0.3203,0.3491l-0.0993,0.0359l-0.0005,0.0034l0.3569,0.2223l-0.0308,0.2251l-0.6691-0.4166         l0.0227-0.1657l0.1388-0.0598c0.2391-0.1011,0.3572-0.1699,0.3774-0.3058c0.013-0.0953-0.0216-0.1987-0.1304-0.2664         c-0.0813-0.0506-0.1594-0.0447-0.2149-0.0304l-0.0357-0.233C55.8809,49.3992,56,49.4149,56.1263,49.4935z" fill="#FFFFFF"/></g><g><path d="M56.9698,50.4579c0.1582,0.0985,0.2729,0.3202,0.2397,0.5631         c-0.0318,0.2322-0.2017,0.3332-0.4048,0.2066c-0.2526-0.1573-0.3442-0.466-0.306-0.745         c0.03-0.2193,0.1204-0.3622,0.2397-0.4166c0.1075-0.0484,0.2384-0.0274,0.3862,0.055         c0.0208,0.0099,0.0379,0.0196,0.0525,0.0287c0.0145,0.009,0.0264,0.0174,0.0365,0.0247l-0.0288,0.2104         c-0.0066-0.0046-0.0133-0.009-0.0202-0.0134c-0.019-0.0119-0.0402-0.0232-0.066-0.0364         c-0.1987-0.1024-0.3027-0.0325-0.3458,0.0871l0.0044,0.0028C56.8114,50.3965,56.8828,50.4037,56.9698,50.4579z          M56.8293,51.0243c0.0771,0.048,0.1383-0.0093,0.1546-0.1281c0.0148-0.1078-0.0189-0.2302-0.1133-0.289         c-0.0596-0.0371-0.1149-0.023-0.143,0.022c-0.0096,0.0116-0.0153,0.0316-0.0197,0.0638         C56.695,50.8197,56.7277,50.961,56.8293,51.0243" fill="#FFFFFF"/></g><g><path d="M60.4829,52.2064c0.2148,0.1338,0.3098,0.3608,0.281,0.5712         c-0.0271,0.1979-0.1617,0.2839-0.3203,0.3491l-0.0993,0.0359l-0.0005,0.0034l0.3569,0.2223L60.67,53.6134l-0.6691-0.4166         l0.0227-0.1657l0.1388-0.0598c0.2393-0.1009,0.3572-0.1699,0.3774-0.3058c0.013-0.0953-0.0214-0.1985-0.1304-0.2664         c-0.0813-0.0506-0.1594-0.0447-0.2149-0.0304l-0.0357-0.233C60.2375,52.1121,60.3567,52.1278,60.4829,52.2064z" fill="#FFFFFF"/></g><g><polygon fill="#FFFFFF" points="61.6418,52.9497 61.6182,53.1222 61.0931,53.8768 60.8593,53.7312 61.377,53.0327          61.3775,53.029 60.9449,52.7597 60.9757,52.5349        "/></g><g><path d="M64.733,54.5435c0.2148,0.1338,0.3096,0.3607,0.2808,0.5711         c-0.0271,0.1979-0.1617,0.2839-0.3203,0.3491l-0.0991,0.036l-0.0005,0.0034l0.3569,0.2223L64.92,55.9504l-0.6691-0.4166         l0.0227-0.1657l0.1388-0.0598c0.2391-0.1011,0.3572-0.1699,0.3774-0.3058c0.013-0.0953-0.0216-0.1987-0.1304-0.2664         c-0.0813-0.0506-0.1594-0.0447-0.2149-0.0304l-0.0357-0.233C64.4876,54.4492,64.6067,54.4648,64.733,54.5435z" fill="#FFFFFF"/></g><g><path d="M65.665,55.7349c0.087,0.101,0.1551,0.2488,0.1346,0.398c-0.029,0.2123-0.1926,0.2667-0.4116,0.1303         c-0.2397-0.1493-0.3271-0.3852-0.3054-0.5435c0.0192-0.1403,0.0979-0.1966,0.2086-0.1882l0.0005-0.0037         c-0.0834-0.1161-0.1155-0.2398-0.1015-0.3421c0.0271-0.1979,0.1889-0.2397,0.3777-0.1221         c0.2205,0.1373,0.2903,0.3526,0.2708,0.4947c-0.0138,0.1008-0.0708,0.1726-0.1731,0.1712L65.665,55.7349z M65.4226,56.0798         c0.0769,0.0479,0.1379,0.0174,0.1492-0.0653c0.014-0.1026-0.0401-0.2025-0.1217-0.2846         c-0.0761-0.0201-0.127,0.0184-0.1385,0.1029C65.2985,55.9165,65.3398,56.0283,65.4226,56.0798 M65.5323,55.2424         c-0.0754-0.047-0.1218-0.0074-0.1316,0.0643c-0.0108,0.0793,0.0389,0.1648,0.1103,0.2406         c0.0534,0.0136,0.1062-0.0159,0.116-0.0877C65.6372,55.3857,65.6136,55.293,65.5323,55.2424" fill="#FFFFFF"/></g><g><path d="M69.0563,57.0836c0.215,0.1339,0.3098,0.3608,0.281,0.5712         c-0.0271,0.1979-0.1617,0.2839-0.3203,0.3491l-0.0993,0.0359l-0.0005,0.0034l0.3569,0.2223l-0.0308,0.2251l-0.6691-0.4166         l0.0227-0.1657l0.1388-0.0598c0.2393-0.1009,0.3574-0.1697,0.3774-0.3058c0.013-0.0953-0.0214-0.1986-0.1304-0.2664         c-0.0813-0.0506-0.1594-0.0447-0.2147-0.0303l-0.0359-0.2331C68.8109,56.9893,68.9302,57.0051,69.0563,57.0836z" fill="#FFFFFF"/></g><g><path d="M69.8798,57.5964c0.2422,0.1509,0.3256,0.4527,0.2882,0.726         c-0.0335,0.2447-0.1201,0.382-0.2394,0.4366c-0.1038,0.0447-0.2359,0.0209-0.3835-0.0633         c-0.0156-0.008-0.0315-0.0173-0.0465-0.0267c-0.0205-0.0128-0.0395-0.0257-0.0536-0.0357l0.029-0.2123         c0.012,0.0092,0.0231,0.0167,0.0353,0.0243c0.0166,0.0103,0.0351,0.0207,0.0604,0.0353         c0.0689,0.0373,0.1404,0.0562,0.1957,0.044c0.0695-0.0136,0.1208-0.0654,0.1489-0.1436l-0.0027-0.0037         c-0.0496,0.0276-0.1161,0.0194-0.2019-0.034c-0.1597-0.0994-0.2745-0.3192-0.2432-0.5477         C69.4978,57.5673,69.6722,57.4671,69.8798,57.5964z M69.9295,58.1875c0.0098-0.0132,0.0153-0.0294,0.0199-0.0637         c0.0182-0.1233-0.0026-0.2689-0.1057-0.3331c-0.0741-0.0462-0.1391,0.0031-0.1558,0.1254         c-0.0138,0.1008,0.0194,0.2152,0.1079,0.2703C69.8569,58.2244,69.9036,58.2163,69.9295,58.1875" fill="#FFFFFF"/></g><g><path d="M73.3065,59.5976c0.2002,0.1247,0.294,0.3257,0.2721,0.4856         c-0.017,0.1243-0.0871,0.1878-0.2099,0.1641l-0.0005,0.0037c0.1098,0.0956,0.1867,0.2586,0.1656,0.4133         c-0.0281,0.2052-0.1953,0.265-0.4348,0.1158c-0.1219-0.0759-0.2195-0.1796-0.269-0.2553l0.0733-0.1788         c0.0356,0.0514,0.1192,0.1521,0.2094,0.2082c0.1147,0.0714,0.1819,0.0391,0.1937-0.047         c0.016-0.117-0.0696-0.2268-0.1667-0.2873l-0.0902-0.0562l0.0269-0.1963l0.0872,0.0543         c0.0739,0.046,0.1718,0.068,0.1853-0.0309c0.0096-0.0702-0.0283-0.1503-0.1227-0.209         c-0.0769-0.0479-0.1638-0.0571-0.2056-0.0519l-0.0177-0.2258C73.0655,59.4944,73.183,59.5207,73.3065,59.5976z" fill="#FFFFFF"/></g><g><path d="M74.1414,60.1175c0.2511,0.1564,0.3131,0.4975,0.2693,0.8179         c-0.0492,0.3596-0.2008,0.5365-0.4403,0.3874c-0.2439-0.1519-0.3141-0.4902-0.2703-0.8222         C73.7466,60.1605,73.8974,59.9656,74.1414,60.1175z M74.0028,61.1186c0.0857,0.0534,0.1504-0.0509,0.1869-0.3171         c0.0354-0.2589,0.0092-0.4238-0.0795-0.479c-0.0796-0.0496-0.1522,0.0421-0.1896,0.3154         C73.8839,60.9059,73.9188,61.0662,74.0028,61.1186" fill="#FFFFFF"/></g><g><g><polygon fill="#FFFFFF" points="72.1677,38.9819 72.0077,40.1511 71.7942,40.0181 71.9209,39.0918 71.9182,39.0901           71.7237,39.0841 71.7154,38.8565 71.9862,38.8689         "/></g><g><path d="M76.1461,41.2641c0.2148,0.1338,0.3096,0.3607,0.2808,0.5711          c-0.0271,0.1979-0.1617,0.2839-0.3203,0.3493l-0.0993,0.0356l-0.0005,0.0037l0.3571,0.2224l-0.0308,0.2248l-0.6691-0.4166          l0.0226-0.1654l0.1389-0.0601c0.2391-0.1008,0.3572-0.1699,0.3773-0.3056c0.0131-0.0955-0.0216-0.1989-0.1304-0.2667          c-0.0813-0.0506-0.1594-0.0447-0.2149-0.0305l-0.0359-0.2332C75.9006,41.1701,76.0196,41.1853,76.1461,41.2641z" fill="#FFFFFF"/></g><g><path d="M80.5382,43.8995c0.2002,0.1247,0.2942,0.3258,0.2723,0.486          c-0.017,0.1241-0.0871,0.1878-0.2099,0.1639l-0.0005,0.0037c0.1098,0.0956,0.1867,0.2588,0.1655,0.4135          c-0.028,0.2049-0.1955,0.2646-0.4348,0.1156c-0.1221-0.076-0.2197-0.1797-0.269-0.2553l0.0731-0.1789          c0.0356,0.0514,0.1194,0.1525,0.2094,0.2085c0.1147,0.0714,0.1821,0.0393,0.1939-0.0471          c0.016-0.117-0.0698-0.227-0.1672-0.2876l-0.0898-0.0559l0.0268-0.1961l0.087,0.0542          c0.0739,0.046,0.1718,0.0678,0.1853-0.0312c0.0096-0.0701-0.0283-0.1502-0.1227-0.209          c-0.0769-0.0479-0.1636-0.057-0.2054-0.0518l-0.0179-0.2259C80.2972,43.7963,80.4148,43.8227,80.5382,43.8995z" fill="#FFFFFF"/></g><g><path d="M85.0414,47.2993l0.1117,0.0696l-0.0281,0.2052l-0.1117-0.0696l-0.0381,0.2788l-0.2091-0.1302          l0.0381-0.2788l-0.418-0.2603l0.0244-0.1783l0.4529-0.4909l0.2716,0.1691L85.0414,47.2993z M84.8678,46.9103          c0.0096-0.0702,0.0224-0.1403,0.0357-0.2141l-0.0044-0.0028c-0.0408,0.0567-0.0763,0.1087-0.1183,0.1627l-0.1598,0.1777          l-0.002,0.0025l0.2133,0.1328L84.8678,46.9103" fill="#FFFFFF"/></g></g></g></g></g><g><g><g><g><g><g><path d="M83.9493,37.7416c-0.6856-0.3986-1.5562,0.0266-1.6636,0.8123l-0.0085,0.0624           c-0.0819,0.5995,0.2061,1.189,0.7292,1.493c0.6856,0.3984,1.5562-0.0269,1.6636-0.8125l0.0085-0.0623           C84.7603,38.6351,84.4724,38.0456,83.9493,37.7416z" fill="#3A3A77"/><path d="M82.6806,39.3239l-0.626-0.3632c-0.437-0.2541-0.7117-0.7974-0.7117-1.5652           c-0.0059-1.5473,1.0897-3.4402,2.4333-4.2168c0.6792-0.3928,1.2964-0.4282,1.7393-0.1684l0.626,0.3634           c-0.4459-0.26-1.0631-0.2245-1.7393,0.1683c-1.3466,0.7766-2.4392,2.6695-2.4362,4.2168           C81.969,38.5266,82.2406,39.0699,82.6806,39.3239z" fill="#DEE7F8"/><path d="M84.1067,37.8496c-0.1029,0.0805-0.2076,0.1567-0.3158,0.2193           c-0.502,0.2894-0.9597,0.3159-1.2904,0.1268l0.626,0.3604c0.3278,0.1919,0.7856,0.1654,1.2905-0.1241           c0.038-0.022,0.0735-0.0527,0.1109-0.077C84.4282,38.1596,84.2853,37.9866,84.1067,37.8496z" fill="#DEE7F8"/></g><g><g><path d="M86.2242,35.2989c-0.003-0.5699-0.2038-0.9715-0.5315-1.1604l-0.6231-0.3634            c0.3248,0.1891,0.5286,0.5906,0.5286,1.1606c0.0015,0.5808-0.2043,1.2239-0.5369,1.7933l0.6209,0.3608            C86.017,36.5218,86.2257,35.8808,86.2242,35.2989z" fill="#DEE7F8"/></g><g><path d="M86.8534,34.9362c-0.0044-1.5468-1.1052-2.172-2.4514-1.3946            c-1.3462,0.7772-2.4399,2.6693-2.4355,4.2162c0.0044,1.5491,1.1052,2.1743,2.4514,1.3969            c0.0919-0.0529,0.1822-0.1122,0.2714-0.1751c-0.0078-0.2202-0.0638-0.4332-0.1621-0.6255            c-0.0375,0.0243-0.0732,0.0552-0.1113,0.0773c-1.0011,0.5779-1.8164,0.1134-1.8197-1.0372            c-0.0033-1.148,0.8067-2.5532,1.8078-3.1312c1.0012-0.5779,1.8164-0.111,1.8197,1.0369            c0.0016,0.5812-0.2071,1.222-0.5421,1.7896l0.4417,0.2567C86.5723,36.5794,86.8556,35.7171,86.8534,34.9362z" fill="#83A1CC"/></g></g></g></g></g><g><g><g><g><path d="M79.4249,35.1123c-0.6856-0.3986-1.5562,0.0266-1.6636,0.8123l-0.0085,0.0624           c-0.0819,0.5995,0.2061,1.189,0.7292,1.493c0.6856,0.3984,1.5562-0.0269,1.6636-0.8125l0.0085-0.0623           C80.2359,36.0058,79.948,35.4163,79.4249,35.1123z" fill="#3A3A77"/><path d="M78.1562,36.6946l-0.626-0.3632c-0.437-0.2541-0.7117-0.7974-0.7117-1.5652           c-0.0059-1.5473,1.0897-3.4402,2.4333-4.2168c0.6792-0.3928,1.2964-0.4282,1.7393-0.1684l0.626,0.3634           c-0.4459-0.26-1.0631-0.2245-1.7393,0.1683c-1.3466,0.7766-2.4392,2.6695-2.4362,4.2168           C77.4446,35.8973,77.7162,36.4406,78.1562,36.6946z" fill="#DEE7F8"/><path d="M79.5823,35.2203c-0.1029,0.0805-0.2076,0.1567-0.3158,0.2193           c-0.502,0.2894-0.9597,0.3159-1.2904,0.1268l0.626,0.3604c0.3278,0.1919,0.7856,0.1654,1.2905-0.1241           c0.038-0.022,0.0735-0.0527,0.1109-0.077C79.9038,35.5303,79.7609,35.3573,79.5823,35.2203z" fill="#DEE7F8"/></g><g><g><path d="M81.6998,32.6696c-0.003-0.5699-0.2038-0.9715-0.5315-1.1603l-0.6231-0.3634            c0.3248,0.1891,0.5286,0.5906,0.5286,1.1606c0.0015,0.5808-0.2043,1.2239-0.5369,1.7933l0.6209,0.3608            C81.4926,33.8925,81.7013,33.2515,81.6998,32.6696z" fill="#DEE7F8"/></g><g><path d="M82.329,32.3069c-0.0044-1.5468-1.1052-2.172-2.4514-1.3946            c-1.3462,0.7772-2.4399,2.6693-2.4355,4.2162c0.0044,1.5491,1.1052,2.1743,2.4514,1.3969            c0.0919-0.0529,0.1822-0.1122,0.2714-0.1751c-0.0078-0.2202-0.0638-0.4332-0.1621-0.6255            c-0.0375,0.0243-0.0732,0.0552-0.1114,0.0773c-1.0011,0.5779-1.8164,0.1134-1.8197-1.0372            c-0.0033-1.148,0.8067-2.5532,1.8078-3.1312c1.0012-0.5779,1.8164-0.111,1.8197,1.0369            c0.0016,0.5812-0.2071,1.222-0.5421,1.7896l0.4417,0.2567C82.0479,33.9501,82.3312,33.0878,82.329,32.3069z" fill="#83A1CC"/></g></g></g></g></g></g><g><g><g><g><g><path d="M65.8516,27.2244c-0.6856-0.3986-1.5562,0.0266-1.6636,0.8123l-0.0085,0.0624           c-0.0819,0.5995,0.2061,1.189,0.7292,1.493c0.6856,0.3984,1.5562-0.0269,1.6636-0.8125l0.0085-0.0623           C66.6627,28.1179,66.3747,27.5285,65.8516,27.2244z" fill="#3A3A77"/><path d="M64.583,28.8067l-0.626-0.3632c-0.437-0.2541-0.7117-0.7974-0.7117-1.5652           c-0.0059-1.5473,1.0897-3.4402,2.4332-4.2168c0.6792-0.3928,1.2964-0.4282,1.7393-0.1684l0.626,0.3634           c-0.4459-0.26-1.0631-0.2245-1.7393,0.1683c-1.3466,0.7766-2.4392,2.6695-2.4362,4.2168           C63.8713,28.0094,64.143,28.5527,64.583,28.8067z" fill="#DEE7F8"/><path d="M66.0091,27.3324c-0.1029,0.0805-0.2076,0.1567-0.3158,0.2193           c-0.502,0.2894-0.9597,0.3159-1.2904,0.1268l0.626,0.3604c0.3278,0.1919,0.7856,0.1654,1.2905-0.1241           c0.038-0.022,0.0735-0.0527,0.1109-0.077C66.3305,27.6424,66.1877,27.4694,66.0091,27.3324z" fill="#DEE7F8"/></g><g><g><path d="M68.1266,24.7817c-0.003-0.5699-0.2038-0.9715-0.5315-1.1604l-0.6231-0.3634            c0.3248,0.1891,0.5286,0.5906,0.5286,1.1606c0.0015,0.5808-0.2043,1.2239-0.5369,1.7933l0.6209,0.3608            C67.9193,26.0046,68.128,25.3636,68.1266,24.7817z" fill="#DEE7F8"/></g><g><path d="M68.7558,24.419c-0.0044-1.5468-1.1052-2.172-2.4514-1.3946            c-1.3462,0.7772-2.4399,2.6693-2.4355,4.2162c0.0044,1.5491,1.1052,2.1743,2.4514,1.3969            c0.0919-0.0529,0.1822-0.1122,0.2714-0.1751c-0.0078-0.2202-0.0638-0.4332-0.1621-0.6255            c-0.0376,0.0243-0.0732,0.0552-0.1114,0.0773c-1.0011,0.5779-1.8164,0.1134-1.8197-1.0372            c-0.0033-1.148,0.8067-2.5532,1.8078-3.1312c1.0012-0.5779,1.8164-0.111,1.8197,1.0369            c0.0016,0.5812-0.2071,1.222-0.5421,1.7896l0.4417,0.2567C68.4746,26.0623,68.758,25.1999,68.7558,24.419z" fill="#83A1CC"/></g></g></g></g></g><g><g><g><g><path d="M61.3272,24.5951c-0.6856-0.3986-1.5562,0.0266-1.6636,0.8123l-0.0085,0.0624           c-0.0819,0.5995,0.2061,1.189,0.7292,1.493c0.6856,0.3984,1.5562-0.0269,1.6636-0.8125l0.0085-0.0623           C62.1383,25.4886,61.8503,24.8992,61.3272,24.5951z" fill="#3A3A77"/><path d="M60.0586,26.1774l-0.626-0.3632c-0.437-0.2541-0.7117-0.7974-0.7117-1.5652           c-0.0059-1.5473,1.0897-3.4402,2.4333-4.2168c0.6792-0.3928,1.2964-0.4282,1.7393-0.1684l0.626,0.3634           c-0.4459-0.26-1.0631-0.2245-1.7393,0.1683c-1.3466,0.7766-2.4392,2.6695-2.4362,4.2168           C59.3469,25.3801,59.6186,25.9234,60.0586,26.1774z" fill="#DEE7F8"/><path d="M61.4847,24.7031c-0.1029,0.0805-0.2076,0.1567-0.3158,0.2193           c-0.502,0.2894-0.9597,0.3159-1.2904,0.1268l0.626,0.3604c0.3278,0.1919,0.7856,0.1654,1.2905-0.1241           c0.038-0.022,0.0735-0.0527,0.1109-0.077C61.8061,25.0131,61.6633,24.8401,61.4847,24.7031z" fill="#DEE7F8"/></g><g><g><path d="M63.6022,22.1524c-0.003-0.5699-0.2038-0.9715-0.5315-1.1604l-0.6231-0.3634            c0.3248,0.1891,0.5286,0.5906,0.5286,1.1606c0.0015,0.5808-0.2043,1.2239-0.5369,1.7933l0.6209,0.3608            C63.3949,23.3753,63.6036,22.7343,63.6022,22.1524z" fill="#DEE7F8"/></g><g><path d="M64.2313,21.7897c-0.0044-1.5468-1.1053-2.172-2.4514-1.3946            c-1.3462,0.7772-2.4399,2.6693-2.4355,4.2162c0.0044,1.5491,1.1052,2.1743,2.4514,1.3969            c0.0919-0.0529,0.1822-0.1122,0.2714-0.1751c-0.0078-0.2202-0.0638-0.4332-0.1621-0.6255            c-0.0375,0.0243-0.0732,0.0552-0.1113,0.0773c-1.0011,0.5779-1.8164,0.1134-1.8197-1.0372            c-0.0033-1.148,0.8067-2.5532,1.8078-3.1312c1.0012-0.5779,1.8164-0.111,1.8197,1.0369            c0.0016,0.5812-0.2071,1.222-0.5421,1.7896l0.4417,0.2567C63.9502,23.433,64.2336,22.5706,64.2313,21.7897z" fill="#83A1CC"/></g></g></g></g></g></g></g></g><g><g><g><path d="M52.4868,46.1804l0.0023-0.0005c0.0772-0.0175,0.4952-0.111,0.5478-0.1702       c0.1195-0.1344,0.3618-0.3777,0.594-0.4335c0.3252-0.0782,0.2794,0.1378,0.0595,0.1942       c-0.2198,0.0565-0.2284,0.1571-0.2284,0.1571c0.0836,0.2179,0.5768,0.0296,0.7372-0.0725       c0.1603-0.1021,0.1579,0.0057,0.1579,0.0057c0.0717,0.6539-0.8057,0.6641-1.1278,0.6462       c-0.0798-0.0044-0.1591,0.0127-0.2303,0.0491C52.9544,46.4093,52.5536,46.3172,52.4868,46.1804z" fill="#ECB4BF"/></g><path d="M52.9241,46.0139c-1.1123,0.3589-1.9256,0.1765-2.8521,0.3848c0,0-0.54-3.1217-1.337-3.2685      c-0.7255-0.1338-1.0551,0.3776-0.7937,1.2478c0.1752,0.5831,0.8933,2.1783,1.2336,2.9226      c0.1144,0.2503,0.3859,0.3862,0.6546,0.3266c0.8811-0.1955,2.625-0.6865,3.272-1.0786      C53.1805,46.3733,53.1158,46.0967,52.9241,46.0139z" fill="#1E72C6"/></g><g><g><g><g><g><g><g><g><path d="M48.9442,59.6391c-0.1176-0.1031-0.3965-0.4321-0.3965-0.4321             c-0.4852-0.0062-0.7172-1.5226-1.2903-1.4547s-0.286,0.9017-0.1589,1.0647c0.1272,0.1629,0.0999,0.6355,0.0999,0.6355             h0.1956c0,0-0.0497-0.4155-0.0425-0.5296c0.0071-0.114,0.1752-0.281,0.2829,0.2251             c0.1077,0.506,0.1162,0.4319,0.6804,0.66c0.4208,0.1701,0.5868,0.009,0.644-0.084             C48.9762,59.6957,48.9691,59.6609,48.9442,59.6391z" fill="#2A2A5E"/><path d="M48.5615,54.6148c0.2212-0.6821-0.1636-0.9407-0.1636-0.9407l-1.1478-0.3447             c-0.5442,1.1588-0.0339,2.8633,0.0589,3.298c0.0928,0.4344-0.0515,1.1249-0.0515,1.1249s-0.1775,0.3525,0.0776,0.6421             c0.255,0.2897,0.142,0.0367,0.4168,0.5726c0.2748,0.536,0.796,0.24,0.796,0.24             c-0.1924-0.2318-0.2909-0.6967-0.4185-1.2036c-0.0979-0.3891,0.1515-2.0332,0.2729-2.7771             C48.4362,55.0176,48.4962,54.8159,48.5615,54.6148z" fill="#ECB4BF"/></g><g><path d="M47.2035,60.5587c-0.1176-0.1031-0.3965-0.4321-0.3965-0.4321             c-0.4852-0.0062-0.7172-1.5226-1.2903-1.4547s-0.2861,0.9017-0.1589,1.0647c0.1272,0.1629,0.0999,0.6355,0.0999,0.6355             h0.1956c0,0-0.0497-0.4155-0.0425-0.5296c0.0071-0.114,0.1752-0.281,0.2829,0.2251             c0.1077,0.506,0.1162,0.4319,0.6804,0.66c0.4208,0.1701,0.5868,0.009,0.644-0.084             C47.2355,60.6154,47.2284,60.5805,47.2035,60.5587z" fill="#2A2A5E"/><path d="M46.8207,55.5345c0.2212-0.6821-0.1636-0.9407-0.1636-0.9407l-1.1478-0.3447             c-0.5442,1.1588-0.0339,2.8633,0.0589,3.298c0.0928,0.4344-0.0515,1.1249-0.0515,1.1249s-0.1775,0.3525,0.0776,0.6421             c0.255,0.2897,0.142,0.0367,0.4168,0.5726c0.2748,0.536,0.796,0.24,0.796,0.24             c-0.1924-0.2318-0.2909-0.6967-0.4185-1.2036c-0.0979-0.3891,0.1515-2.0333,0.2729-2.7771             C46.6954,55.9372,46.7555,55.7356,46.8207,55.5345z" fill="#ECB4BF"/></g><path d="M48.798,49.718l-3.5777-0.3758c0,0-0.0023,0.3319-0.2966,1.072            c-0.4053,1.232,0.2915,2.4856,0.2755,4.2373c-0.0008,0.0888,0.0429,0.1722,0.1163,0.2224            c0.7526,0.5143,2.4929,0.0145,3.0355-0.528c0.5735-0.5736,0.3345-0.5963,0.4301-2.2689            C48.8767,50.4043,48.798,49.718,48.798,49.718z" fill="#3A3A77"/></g><g><g><g><path d="M45.2047,49.048c0.2511-0.564,0.4116-1.164,0.4237-1.7813l0.0054-0.278              c0.012-0.6157-0.1305-1.2177-0.3525-1.7919c-0.2588-0.6699,0.0491-0.9928,0.3297-1.143              c0.3083-0.165,0.5898-0.3775,0.8023-0.6551c0.1127-0.1472,0.3437-0.4841,0.3437-0.4841s0.7083,0.0226,1.3988,0.113              c0.285,0.0372,0.777,0.0549,0.902,0.4253c0.1934,0.5736-0.0594,0.7672,0.1035,0.9565              c0.8481,0.9847-0.0335,1.3432-0.3329,2.0316c-0.3255,0.7489-0.0305,3.2769-0.0305,3.2769              c-3.0485,1.6034-3.8049,0.3968-3.8049,0.3968C45.0386,49.659,45.0547,49.3848,45.2047,49.048z" fill="#3887E5"/><path d="M47.6404,43.9317c0,0-0.8094-0.7535-0.95-0.9206c-0.2923-0.3472-0.0169-0.7012-0.0169-0.7012              s1.0856-0.0813,0.9801,0.3889c-0.0132,0.0572,0.0901,0.1517,0.1538,0.1517              C47.9569,43.279,47.6888,43.2813,47.6404,43.9317z" fill="#D390A1"/></g></g></g></g></g></g></g></g></g><g><g><g><g><g><g><path d="M56.0777,43.8801c-0.0095-0.0162-0.031-0.0231-0.0549-0.0178l-0.9441,0.213l0.3403,0.5807           l0.6473-0.7194C56.0827,43.9184,56.0872,43.8962,56.0777,43.8801z" fill="#2A2A5E"/><g><g enable-background="new    "><path d="M54.2447,44.1117l0.8845-0.0762c0.0434-0.015,0.0989-0.0092,0.1604,0.0244             c0.1372,0.0797,0.2526,0.2766,0.2565,0.4378c0.0004,0.0659-0.0192,0.1157-0.0493,0.1472l-0.5068,0.7388l-9.8944,5.7904             c0.0959-0.0562,0.1552-0.1744,0.1535-0.3439c-0.0033-0.3322-0.2385-0.7337-0.5267-0.899             c-0.1439-0.0792-0.2736-0.0868-0.3668-0.0322L54.2447,44.1117z" fill="#6262AA"/><path d="M44.2023,50.2402c0.0021,0.3335,0.2381,0.7361,0.5271,0.8994             c0.2889,0.1633,0.5215,0.0254,0.5193-0.3081c-0.0021-0.3334-0.2381-0.7362-0.5271-0.8994             C44.4326,49.7687,44.2001,49.9067,44.2023,50.2402z" fill="#2A2A5E"/></g></g></g></g></g></g></g></g><g><g><g><g><g><g><path d="M49.6591,48.6428c0.0235-0.0542,0.0688-0.01,0.0156-0.0697           c-0.0533-0.0595-0.3801-0.0881-0.4926-0.0574c-0.1125,0.0307-0.2636-0.0152-0.2719-0.0813           c-0.0083-0.0662,0.0347-0.0617,0.0488-0.0624c0.1133-0.0055,0.3074-0.1028,0.3603-0.1706           c0.0529-0.0678,0.0547-0.0454,0.0575-0.0805c0.0026-0.0349,0.0627-0.0612-0.0401-0.0482           c-0.1026,0.0127-0.3395,0.0867-0.5113,0.1399c-0.1718,0.0532-0.4053,0.2258-0.5275,0.3398           c-0.1223,0.1141-0.1627,0.0174-0.2642,0.1085c-0.1016,0.091-0.126,0.2843-0.1619,0.409           c0.0554-0.0211,0.0315-0.0101,0.1046-0.0405c0.0731-0.0304,0.178-0.0125,0.2386,0.0435           c0.2171,0.2012,0.5524,0.2136,0.8553,0.1624c0.0852-0.0144,0.0587-0.0086,0.1187-0.0489           c0.0601-0.0405-0.0912-0.1195-0.06-0.1253c0.0311-0.0056,0.214-0.016,0.2891-0.0512           c0.0213-0.01,0.0666-0.0073,0.0988-0.046c0.0322-0.0387-0.1103-0.0795-0.1041-0.0792           c0.0108,0.0008,0.0828,0.0368,0.1243,0.0102c0.0415-0.0266,0.0447,0,0.0965-0.0685           c0.0518-0.0685-0.233-0.1069-0.2309-0.1062C49.4315,48.7286,49.6358,48.6968,49.6591,48.6428z" fill="#ECB4BF"/><path d="M48.2378,48.5076c-1.159-0.0417-1.5348-0.6419-2.4499-0.7657c0,0,1.042-3.1221,0.4357-3.5486           c-0.5518-0.3883-1.12-0.0032-1.3773,0.9436c-0.1725,0.6344-0.1401,2.2206-0.2596,3.0717           c-0.0402,0.2862,0.1186,0.5157,0.3835,0.5524c0.8687,0.1203,2.3479,0.4898,3.1237,0.3342           C48.2595,48.9512,48.3572,48.6568,48.2378,48.5076z" fill="#1E72C6"/></g></g></g></g></g></g><g><path d="M48.4694,42.1649c0.117-0.8214,0.2651-1.9547-1.1177-2.2484c0,0-0.1742-0.0443-0.3717-0.0443      c-0.0962-0.5043-0.3767-1.3313-1.3517-0.6809c-0.4251,0.2835-0.5548,1.1644-0.7342,1.7076      c-0.1768,0.5407-0.3977,0.8344-0.7538,1.2035c0,0,0.72,0.3432,1.7546-1.388c0.0154-0.0261,0.0213-0.0376,0.0233-0.0428      c0.0026-0.0033,0.0038-0.0047,0.0072-0.0091c-0.0234,0.0987-0.2139,0.4705-0.2191,0.5927      c-0.0572,1.1593,0.614,1.9243,1.451,2.3427c-0.2738-0.4796-0.3859-0.9331-0.0308-1.4505      c0.2025-0.2951,0.5484,0.7862,0.5432,0.8538c0,0.0338,0.81,0.323,0.81,0.323S48.3472,42.9836,48.4694,42.1649z" fill="#8C4031"/><path d="M47.9461,40.844c-0.4359-0.2889-1.0733,0.0819-1.382,0.3946c-0.104,0.1052-0.148,0.2628-0.1204,0.4264      c0.0558,0.3307,0.2534,0.9542,0.4786,1.2165c0.2685,0.3126,0.6924,0.586,1.0049,0.4156      c0.1167-0.0636,0.2149-0.3089,0.2691-0.4746C48.3913,42.2259,48.5251,41.228,47.9461,40.844z" fill="#ECB4BF"/></g></g><g><g><g><path d="M63.6116,68.9457c0.3811,0.22,0.6879,0.7515,0.6867,1.1894l-0.0192,6.7621       c-0.0012,0.4379-0.3101,0.6153-0.6912,0.3953l-9.8892-5.7095c-0.3811-0.22-0.6891-0.7536-0.6879-1.1915l0.0192-6.7621       c0.0012-0.4379,0.3113-0.6132,0.6924-0.3932L63.6116,68.9457z" fill="#3A3A77"/></g><g><g enable-background="new    "><g><path d="M64.7092,69.897l-0.0194,6.7617c0,0.2178-0.0778,0.3714-0.2002,0.4433l-0.4122,0.2392         c0.1244-0.072,0.2002-0.2255,0.2022-0.4433l0.0194-6.7636c0-0.4374-0.3072-0.9682-0.6882-1.1879l-9.8879-5.7099         c-0.1925-0.1108-0.3674-0.1225-0.4919-0.0486l0.4102-0.2392c0.1264-0.0719,0.2994-0.0622,0.4919,0.0486l9.8898,5.71         C64.404,68.9269,64.7112,69.4577,64.7092,69.897z" fill="#6262AA"/></g></g></g><g><g><polygon fill="#FFFFFF" points="63.7701,69.5931 63.7496,76.8302 53.5389,70.9351 53.5595,63.698       "/></g><g><g><path d="M58.9675,67.7461c0.5561,0.3211,1.0052,1.099,1.0034,1.738s-0.4539,0.898-1.01,0.5769         c-0.5561-0.3211-1.0052-1.1004-1.0034-1.7393S58.4114,67.4251,58.9675,67.7461z" fill="#3887E5"/></g><g><path d="M55.0507,65.2776c0.2247,0.1297,0.4116,0.429,0.4419,0.6951         c0.0311-0.0006,0.0659,0.0066,0.1044,0.0288c0.1055,0.0609,0.1934,0.2016,0.208,0.3272l0.036,0.0179         c0.144,0.0831,0.2603,0.286,0.2598,0.4515c-0.0005,0.1654-0.1175,0.2321-0.2615,0.149l-1.2984-0.7496         c-0.144-0.0831-0.2603-0.2846-0.2598-0.45c0.0005-0.1655,0.1175-0.2336,0.2615-0.1505         c0.0236,0.0136,0.0459,0.0308,0.067,0.0487c-0.0061-0.0378-0.0085-0.0749-0.0084-0.112         C54.6019,65.2499,54.8024,65.1342,55.0507,65.2776z" fill="#DEE7F8"/></g><g><path d="M56.7418,68.5514c0.129,0.0745,0.2588,0.2014,0.3636,0.3684l2.3652,3.7606l1.6586,2.6371         l-2.7196-1.5702l-4.8707-2.8121l2.7706-2.3934C56.4191,68.4467,56.58,68.4579,56.7418,68.5514z" fill="#6B9EF9"/></g><g><path d="M60.6882,71.9028c0.137,0.0791,0.2747,0.217,0.3825,0.3992l2.6789,4.5282l-5.3399-3.083         l2.7196,1.5702l-1.6586-2.6371l0.7694-0.7736C60.3497,71.7969,60.5185,71.8048,60.6882,71.9028z" fill="#3887E5"/></g><g><path d="M61.9855,70.6472c0.2247,0.1297,0.4116,0.429,0.4419,0.6966         c0.0311-0.0021,0.0659,0.0066,0.1044,0.0288c0.1055,0.0609,0.1934,0.2016,0.208,0.3272l0.036,0.0179         c0.144,0.0831,0.2603,0.2846,0.2598,0.45c-0.0005,0.1654-0.1175,0.2321-0.2615,0.149l-1.2984-0.7496         c-0.144-0.0831-0.2603-0.2846-0.2598-0.45c0.0005-0.1655,0.1175-0.2322,0.2615-0.1491         c0.0236,0.0136,0.0459,0.0294,0.067,0.0487c-0.0061-0.0378-0.0085-0.0763-0.0084-0.112         C61.5367,70.6195,61.7372,70.5039,61.9855,70.6472z" fill="#DEE7F8"/></g></g></g></g><g><g><g><g><path d="M63.8812,70.8771c0.1074-0.0349,0.2343,0.0382,0.2544,0.0639         c0.0259,0.0329,0.1096,0.0403,0.1159,0.0447c0.0008,0.0005,0.0166,0.0086,0.0262-0.0043         c0.0145-0.0193,0.0128-0.0877-0.0878-0.3089c-0.1677-0.3672-0.3214-0.8124-0.3654-0.9688         c-0.0227-0.0796-0.0104-0.1259,0.0087-0.1514c0.0183-0.0245,0.0429-0.0297,0.0491-0.0268         c0.0129,0.0062,0.3593,0.7432,0.3975,0.817c0.0177,0.0348,0.0293,0.0345,0.0367,0.0248         c0.0082-0.0109,0.0109-0.0328,0.0111-0.0339c-0.016-0.0452-0.3195-0.9021-0.3341-1.1068         c-0.0057-0.0772,0.0036-0.1158,0.0173-0.1339c0.0223-0.0297,0.0547-0.0061,0.0564-0.005         c0.0181,0.0489,0.3627,0.9771,0.4016,1.039c0.0202,0.0315,0.0296,0.033,0.0341,0.027         c0.0043-0.0057,0.004-0.0178,0.004-0.0184c-0.0096-0.0364-0.1928-0.7313-0.2298-0.8424         c-0.037-0.1111-0.0514-0.1606,0.0265-0.2643c0.0774-0.1032,0.331,0.9553,0.3683,1.0428         c0.0239,0.0561,0.0406,0.0578,0.0496,0.0459c0.005-0.0067,0.0077-0.0177,0.0079-0.0259         c0.0002-0.0237-0.0676-0.7155-0.0807-0.8178c-0.0072-0.0593,0.002-0.1019,0.019-0.1246         c0.0123-0.0165,0.0288-0.0224,0.0463-0.017c0.0416,0.0131,0.1636,0.9083,0.169,0.9325         c0.0056,0.0251,0.1563,0.6381,0.1471,0.8341c-0.0095,0.1952,0.6142,0.3975,0.6203,0.421l-0.4126,0.5492         c-0.3463,0.0525-0.6326-0.3074-0.7777-0.3606c-0.1454-0.054-0.2304-0.1971-0.2348-0.2045         c-0.0089-0.012-0.2031-0.2152-0.2696-0.2358c-0.0665-0.0208-0.1217-0.0532-0.1247-0.0549         C63.8397,70.9518,63.8452,70.8887,63.8812,70.8771z" fill="#ECB4BF"/><g><g><path d="M65.351,71.0885c0,0-0.0547,0.0785,2.3679,0.6356c1.7522,0.4029,4.1867,0.4295,4.7626,0.4296           c0.2611-0.0001,0.5319,0.1522,0.7165,0.4094c0.2449,0.3411-0.694,0.8695-1.0506,1.3298           c-0.6199,0.8001-7.1979-1.9133-7.4094-2.1043C64.6995,71.2881,64.8793,71.0953,65.351,71.0885z" fill="#3887E5"/></g></g></g><g><path d="M76.9046,90.1745c0.3077,0.0851,1.1028,0.1077,1.5572-0.0321         c0.8118,0.6011,0.9568,0.1728,1.0386,0.2992c0.0612,0.0988,0.0629,0.5922,0.124,0.8887         c0.0119,0.0657-0.004,0.1097-0.072,0.0932l-0.6613-0.0605c-0.0679-0.0163-0.1443-0.0877-0.1652-0.1535L78.7104,91.16         c0,0-1.1954-0.0496-1.8025-0.4668C76.2969,90.2733,76.5644,90.0811,76.9046,90.1745z" fill="#2A2A5E"/><path d="M69.268,89.9726c0.3187,0.0849,1.2735,0.1879,1.7098,0.0482         c0.8897,0.6001,0.9792,0.1724,1.0774,0.2986c0.074,0.0988,0.0825,0.807,0.0825,0.807         c-0.0041,0.0738,0.0102,0.1095-0.0599,0.093l-0.6691-0.0603c-0.07-0.0163-0.1557-0.0875-0.1851-0.1534l-0.0221-0.0492         c0,0-1.2018-0.0496-1.8631-0.4662C68.673,90.0712,68.9157,89.8793,69.268,89.9726z" fill="#2A2A5E"/><path d="M75.081,80.0941c0.2365,0.2333,1.454,0.6844,1.6297,2.77c0.0586,0.6951,0.2103,1.6424,0.4647,2.2707         c0.2076,0.5176,0.4899,1.0351,0.8036,1.5499c0.9597,1.5827,1.5304,3.8414,1.5304,3.8414         c-0.4098,0.0928-0.8015,0.048-1.1523-0.2811c-0.1791-0.4577-0.9274-1.9323-2.3711-3.3611         c-0.1015-0.1005-0.1873-0.2348-0.2366-0.3869c-0.1501-0.463-0.7755-1.1696-1.0554-1.5773         c-2.2929-3.3401-1.5501-3.0401-1.5684-4.0896L75.081,80.0941z" fill="#4C4A8B"/><path d="M69.615,85.3313c0.2273-1.1163,0.6997-6.9974,3.8973-4.9323c0,0,1.8942,2.4548,0.1743,3.2608         c-1.2655,0.5932-2.0197,2.3847-2.2745,2.7544c-0.0873,0.1268-0.094,0.298-0.0086,0.4404         c0.456,0.7608,0.1537,1.4357,0.6654,3.5351c-0.4944,0.1075-0.6865,0.0224-1.1587-0.3196l-1.2746-4.0477         C69.5778,85.785,69.5704,85.5503,69.615,85.3313z" fill="#4C4A8B"/><g><g><g><g><g><g><g><g><g><path d="M70.8946,68.8402c0,0,2.6038,0.7547,2.6247,0.8997                  c0.0023,0.0521,0.3267,2.6801,0.3304,3.2761c0.0135,0.9715-2.5775,0.4933-2.2669-0.1599                  c0.2-0.429,0.4419-0.7302,0.1846-0.9677c-0.1681-0.1552-0.2546-0.0215-0.4516-0.1663                  C70.3865,71.0272,70.8946,68.8402,70.8946,68.8402z" fill="#ECB4BF"/></g><path d="M70.8672,73.4128c0.2763-0.2214,0.5618-0.4799,0.7827-0.7757                 c0.1421-0.2091,0.4052-0.2958,0.6777-0.2712c0.5695,0.0494,1.3551,0.0373,1.4313-0.517                 c0,0,1.5398-0.0982,1.5225,1.6775c-0.0061,0.6269-0.0278,1.2482-0.0008,1.8773                 c0.0444,1.0363,0.0908,3.0304,0.2981,5.0563c0,0-2.2182,2.0235-4.9346,0.7271                 c0.2061,0.0006,0.3248-4.818-0.4752-5.5584C69.6669,75.1641,69.8776,74.2129,70.8672,73.4128z" fill="#6B9EF9"/></g></g></g></g></g></g></g></g></g><g><path d="M63.5718,75.9173c0.0366,0.0503,0.2905,0.3564,0.3004,0.3618         c0.0035,0.0017,0.0093-0.0008,0.0145-0.0089c0.0093-0.0143,0.0165-0.0471,0.0047-0.1077         c-0.0184-0.0945-0.3352-0.8532-0.2554-0.9774c0.0802-0.1251,0.0938-0.0848,0.1221,0.015         c0.0283,0.0999,0.2282,0.6304,0.2388,0.6582c0,0,0.0051,0.004,0.0094-0.0029c0.0046-0.007,0.0083-0.0257,0.0047-0.0722         c-0.0065-0.0922-0.2259-0.9947-0.2374-1.0422c0.0003-0.0035,0.0059-0.0722,0.0288-0.1079         c0.0141-0.022,0.0345-0.0303,0.0639-0.0002c0.0777,0.0802,0.2872,0.8851,0.2983,0.9275c0.0005,0,0.0108,0.0002,0.0192-0.0129         c0.0075-0.0116,0.0132-0.0342,0.0075-0.0776c-0.0123-0.0926-0.1516-0.9508-0.148-0.9772         c0.0018-0.0131,0.0157-0.0594,0.0346-0.0888c0.0197-0.0307,0.0448-0.0429,0.0668,0.0214         c0.0437,0.1248,0.1545,0.535,0.2262,0.9531c0.0431,0.2516,0.0706,0.272,0.0857,0.2485         c0.0099-0.0156,0.0142-0.0484,0.0145-0.05c0.0012-0.0133,0.0244-0.2655,0.0232-0.324         c-0.001-0.0457,0.0473-0.3371,0.131-0.4676c0.0239-0.0373,0.0508-0.0616,0.0803-0.0633         c-0.0007,0.0062-0.0137,0.1216-0.0369,0.2557c-0.0233,0.1345-0.0101,0.5173-0.0095,0.5374         c0.001,0.0106,0.0195,0.2115-0.0277,0.5073c-0.0474,0.2949-0.0096,0.5218,0.077,0.7635l-0.3334,0.3668         c-0.0009-0.0025-0.0105-0.0034-0.0262-0.0032c-0.2965,0.0039-0.5169-0.22-0.5587-0.5637         c-0.001-0.0086-0.0019-0.0139-0.0025-0.0154c-0.0075-0.0164-0.3197-0.4789-0.3052-0.563         c0.0061-0.0353,0.0165-0.0658,0.0291-0.0855C63.5291,75.8949,63.551,75.8878,63.5718,75.9173z" fill="#ECB4BF"/><path d="M71.2146,74.1968c-0.1803-0.1687-0.4447-0.1781-0.6971-0.0391         c-0.5625,0.3112-1.8132,0.9253-3.5166,1.4747c-1.1343,0.3658-2.3051,0.6191-2.3051,0.6191         c-0.4591,0.2614-0.4456,0.5212-0.4071,1.0171c0.2067,0.0835,6.4235-0.6167,7.0269-1.7806         C71.6617,74.8198,71.4526,74.4159,71.2146,74.1968z" fill="#3887E5"/></g><path d="M71.8783,72.1464c1.4041,0.1323,1.8651-0.5344,1.8651-0.5344l0.2202,0.2458        c-0.5066,1.1274-2.3136,0.7794-2.3136,0.7794L71.8783,72.1464z" fill="#3887E5"/><path d="M74.1367,70.0831c0.04,0.27-0.11,0.7202-0.1,1.2402c0,0.52-0.27,0.5898-0.27,0.5898        c-1.36,0.77-0.94-0.73-1.38-0.9302c-0.35-0.1597-0.32,0.3403-0.3,0.5503l-0.16-0.0103c-0.12-0.4199-0.1-0.5996-0.28-0.6899        c-0.81-0.3999-3.53-2.54,0.75-2.4702C74.1467,68.3932,74.1067,69.8131,74.1367,70.0831z" fill="#A0533F"/></g></g></g></g></g><path d="M73.0368,75.1632l0.34,0.1602v-0.0103L73.0368,75.1632z" fill="#83A1CC"/></g></svg>