
<svg xmlns="http://www.w3.org/2000/svg" version="1.1" xmlns:xlink="http://www.w3.org/1999/xlink" preserveAspectRatio="none" x="0px" y="0px" width="1024px" height="1024px" viewBox="0 0 1024 1024">
<defs>
<g id="Layer0_0_MEMBER_0_MEMBER_0_MEMBER_0_FILL">
<path fill="#380F31" stroke="none" d="
M 416.4 252.1
Q 414.5 252.7 413.4 254.4 412.1 256.4 412 256.6
L 414.65 257.15 415.4 255.15
Q 416 253.55 417.3 252.5 417.95 252 417.3 251.75 417.45 251.8 416.4 252.1 Z"/>
</g>

<g id="Layer0_0_MEMBER_0_MEMBER_1_MEMBER_0_FILL">
<path fill="#380F31" stroke="none" d="
M 415.5 251.7
Q 413 251.95 411.35 253.65
L 410.55 254.5
Q 411.1 255.5 411.45 256.5
L 412 256.6
Q 412.1 256.4 413.4 254.4 414.5 252.7 416.4 252.1 417.45 251.8 417.3 251.75 416.7 251.6 415.5 251.7 Z"/>
</g>

<g id="Layer0_0_MEMBER_0_MEMBER_2_MEMBER_0_FILL">
<path fill="#380F31" stroke="none" d="
M 409.35 252.85
Q 409.95 253.4 410.55 254.5
L 411.35 253.65
Q 413 251.95 415.5 251.7 416.7 251.6 417.3 251.75 416.15 251.4 414.55 251.35 411.45 251.25 409.35 252.85 Z"/>
</g>

<g id="Layer0_0_MEMBER_0_MEMBER_3_MEMBER_0_FILL">
<path fill="#380F31" stroke="none" d="
M 417.3 252.5
Q 416 253.55 415.4 255.15
L 414.65 257.15 415.7 257.55 417 258.55 417.45 255.9
Q 417.5 255.25 418.2 252.9 418.45 252.15 417.3 251.75 417.95 252 417.3 252.5 Z"/>
</g>

<g id="Layer0_0_MEMBER_0_MEMBER_4_MEMBER_0_FILL">
<path fill="#380F31" stroke="none" d="
M 419.15 253.25
Q 419.3 254 419.45 256.7
L 419.55 257.7
Q 420.2 257.45 420.8 257.45
L 421.5 257.45
Q 420.25 254.05 420.05 253.65 419.3734375 252.5927734375 417.85 251.95 418.948828125 252.4455078125 419.15 253.25 Z"/>
</g>

<g id="Layer0_0_MEMBER_0_MEMBER_5_MEMBER_0_FILL">
<path fill="#380F31" stroke="none" d="
M 419.15 253.25
Q 418.9 252.25 417.3 251.75 418.45 252.15 418.2 252.9 417.5 255.25 417.45 255.9
L 417 258.55 417.7 259.05 418.25 258.55
Q 418.9 258 419.55 257.7
L 419.45 256.7
Q 419.3 254 419.15 253.25 Z"/>
</g>

<g id="Layer0_0_MEMBER_0_MEMBER_7_MEMBER_0_MEMBER_0_FILL">
<path fill="#190017" stroke="none" d="
M 421.75 266.8
Q 423 261.75 421.5 257.45
L 420.8 257.45
Q 420.2 257.45 419.55 257.7 419.8 261.4 418.55 265.7 414.7 279.1 405.6 289.55 396.2 300.35 383.05 305.85 373.3 308.95 365.55 308.5 358.2109375 308.111328125 356.75 304.8 359.355859375 311.2740234375 366.5 312.9 373.9 314.6 384.45 310.9 398.65 304.45 408.5 292.6 418.15 281.1 421.75 266.8 Z"/>
</g>

<g id="Layer0_0_MEMBER_0_MEMBER_8_MEMBER_0_MEMBER_0_FILL">
<path fill="#290124" stroke="none" d="
M 418.55 265.7
Q 419.8 261.4 419.55 257.7 418.9 258 418.25 258.55
L 417.7 259.05 415.7 257.55 414.65 257.15
Q 412.2 263.3 412.15 263.5 407.95 275.1 399.8 283.45 391.4 292.1 380.3 295.7 364.9 299.25 363.55 299.65 355.75 302.05 356.7 304.65 358 308.1 365.55 308.5 373.3 308.95 383.05 305.85 396.2 300.35 405.6 289.55 414.7 279.1 418.55 265.7 Z"/>
</g>

<g id="Layer0_0_MEMBER_0_MEMBER_9_MEMBER_0_FILL">
<path fill="#380F31" stroke="none" d="
M 412.15 263.5
Q 412.2 263.3 414.65 257.15
L 411.45 256.5
Q 411.1 255.5 410.55 254.5 409.95 253.4 409.35 252.85 404.4 256.75 402.55 260.25 398.15 269 391.25 274.35 384.25 279.75 376.1 280.55 367.05 280.9 360.65 286.45 352.457421875 293.44375 356.7 304.6 355.78046875 302.040625 363.55 299.65 364.9 299.25 380.3 295.7 391.4 292.1 399.8 283.45 407.95 275.1 412.15 263.5 Z"/>
</g>

<g id="Layer0_0_MEMBER_1_MEMBER_0_FILL">
<path fill="#A5B658" stroke="none" d="
M 417.75 247.45
Q 416.85 244.7 414.25 243.45
L 413.45 245.05
Q 415.35 246 416.05 248.05 416.7 250.1 415.75 252
L 417.4 252.8
Q 418.7 250.2 417.75 247.45 Z"/>
</g>

<g id="Layer0_0_MEMBER_2_FILL">
<path fill="#D1AACA" fill-opacity="0.4980392156862745" stroke="none" d="
M 26.65 1.75
Q 27.4 0.1 26.15 0 23.85 1.9 20.95 3.8 15.2 7.55 7.5 7.2 4.4 7.05 2 8.6 -0.2 9.95 0 11.25 0.2 12.4 2.65 12.85 5.15 13.3 8.4 12.75 17.35 11.1 23.55 5.5 25.9 3.4 26.65 1.75 Z"/>
</g>

<g id="Layer0_0_MEMBER_3_MEMBER_0_MEMBER_0_FILL">
<path fill="#CEE56C" stroke="none" d="
M 412.2 263.55
L 417.6 250.7
Q 415.3 249.9 413.1 250.35 411.95 250.3 408.75 252.65 405.45 255.3 404.6 255.75 405.8 256.75 411.5 256.1
L 411.6 259.65
Q 411.8 263.25 412.15 263.5
L 412.2 263.55 Z"/>
</g>

<g id="Layer0_0_MEMBER_3_MEMBER_1_MEMBER_0_FILL">
<path fill="#B9D34F" stroke="none" d="
M 422.3 256.75
Q 421.5 252.1 417.6 250.7
L 412.2 263.55
Q 413 263.7 417.75 258.65
L 418.5 258.25
Q 419.4 258.45 420.3 261.35 420.7 262.6 422 264.05 423.1 265.3 423.35 265.3 422.75 259.4 422.3 256.75 Z"/>
</g>
</defs>

<g transform="matrix( 10, 0, 0, 10, -3381,-2272.4) ">
<use xlink:href="#Layer0_0_MEMBER_0_MEMBER_0_MEMBER_0_FILL"/>
</g>

<g transform="matrix( 10, 0, 0, 10, -3381,-2272.4) ">
<use xlink:href="#Layer0_0_MEMBER_0_MEMBER_1_MEMBER_0_FILL"/>
</g>

<g transform="matrix( 10, 0, 0, 10, -3381,-2272.4) ">
<use xlink:href="#Layer0_0_MEMBER_0_MEMBER_2_MEMBER_0_FILL"/>
</g>

<g transform="matrix( 10, 0, 0, 10, -3381,-2272.4) ">
<use xlink:href="#Layer0_0_MEMBER_0_MEMBER_3_MEMBER_0_FILL"/>
</g>

<g transform="matrix( 10, 0, 0, 10, -3381,-2272.4) ">
<use xlink:href="#Layer0_0_MEMBER_0_MEMBER_4_MEMBER_0_FILL"/>
</g>

<g transform="matrix( 10, 0, 0, 10, -3381,-2272.4) ">
<use xlink:href="#Layer0_0_MEMBER_0_MEMBER_5_MEMBER_0_FILL"/>
</g>

<g transform="matrix( 10, 0, 0, 10, -3381,-2272.4) ">
<use xlink:href="#Layer0_0_MEMBER_0_MEMBER_7_MEMBER_0_MEMBER_0_FILL"/>
</g>

<g transform="matrix( 10, 0, 0, 10, -3381,-2272.4) ">
<use xlink:href="#Layer0_0_MEMBER_0_MEMBER_8_MEMBER_0_MEMBER_0_FILL"/>
</g>

<g transform="matrix( 10, 0, 0, 10, -3381,-2272.4) ">
<use xlink:href="#Layer0_0_MEMBER_0_MEMBER_9_MEMBER_0_FILL"/>
</g>

<g transform="matrix( 10, 0, 0, 10, -3381,-2272.4) ">
<use xlink:href="#Layer0_0_MEMBER_1_MEMBER_0_FILL"/>
</g>

<g transform="matrix( 10, 0, 0, 10, 274.5,520.1) ">
<use xlink:href="#Layer0_0_MEMBER_2_FILL"/>
</g>

<g transform="matrix( 10, 0, 0, 10, -3381,-2272.4) ">
<use xlink:href="#Layer0_0_MEMBER_3_MEMBER_0_MEMBER_0_FILL"/>
</g>

<g transform="matrix( 10, 0, 0, 10, -3381,-2272.4) ">
<use xlink:href="#Layer0_0_MEMBER_3_MEMBER_1_MEMBER_0_FILL"/>
</g>
</svg>
