<svg width="50" height="50" viewBox="0 0 50 50" fill="none" xmlns="http://www.w3.org/2000/svg">
<circle cx="25" cy="25" r="24" fill="#79FF96" stroke="#313131" stroke-width="2"/>
<ellipse cx="11.5" cy="28.5" rx="3.5" ry="2.5" fill="#FF7798" fill-opacity="0.8"/>
<ellipse cx="38.5" cy="28.5" rx="3.5" ry="2.5" fill="#FF7798" fill-opacity="0.8"/>
<path d="M32 31C32 32.8565 31.2625 34.637 29.9497 35.9497C28.637 37.2625 26.8565 38 25 38C23.1435 38 21.363 37.2625 20.0503 35.9497C18.7375 34.637 18 32.8565 18 31L19.4846 31.2121C23.143 31.7347 26.857 31.7347 30.5154 31.2121L32 31Z" fill="#313131"/>
<rect x="13.7222" y="20.0228" width="7" height="3" rx="1.5" transform="rotate(-16 13.7222 20.0228)" fill="#313131"/>
<rect x="29.5491" y="18.0934" width="7" height="3" rx="1.5" transform="rotate(16 29.5491 18.0934)" fill="#313131"/>
</svg>
