<?xml version="1.0" encoding="utf-8"?>
<!-- Generator: Adobe Illustrator 23.0.2, SVG Export Plug-In . SVG Version: 6.00 Build 0)  -->
<svg version="1.1" id="图层_1" xmlns="http://www.w3.org/2000/svg" xmlns:xlink="http://www.w3.org/1999/xlink" x="0px" y="0px"
	 viewBox="0 0 182.09 193.57" style="enable-background:new 0 0 182.09 193.57;" xml:space="preserve">
<style type="text/css">
	.st0{fill:#FFEA6E;}
	.st1{fill:#01002D;}
	.st2{fill:#379AF4;}
	.st3{fill:#FFFFFF;}
</style>
<g>
	<g>
		<g>
			<g>
				<g>
					<g>
						<g>
							<g>
								<g>
									<g>
										<polygon class="st0" points="91.05,3.06 63.81,58.25 2.91,67.1 46.98,110.05 36.57,170.71 91.05,142.07 145.52,170.71 
											135.12,110.05 179.18,67.1 118.28,58.25 										"/>
									</g>
								</g>
							</g>
						</g>
					</g>
				</g>
			</g>
			<g>
				<g>
					<g>
						<g>
							<g>
								<g>
									<g>
										<path class="st1" d="M147.32,173.18L91.05,143.6l-56.27,29.58l10.75-62.66L0,66.15l62.91-9.14L91.05,0l28.13,57.01
											l62.91,9.14l-45.52,44.37L147.32,173.18z M91.05,140.54l52.67,27.69l-10.06-58.65l42.61-41.54l-58.89-8.56L91.05,6.12
											L64.71,59.48L5.82,68.04l42.62,41.54l-10.06,58.65L91.05,140.54z"/>
									</g>
								</g>
							</g>
						</g>
					</g>
				</g>
			</g>
		</g>
		<g>
			<g>
				<g>
					<g>
						<g>
							<g>
								<g>
									<g>
										<polygon class="st2" points="91.05,33.56 73.72,68.66 34.97,74.29 63.01,101.62 56.39,140.21 91.05,121.99 125.7,140.21 
											119.08,101.62 147.12,74.29 108.37,68.66 										"/>
									</g>
								</g>
							</g>
						</g>
					</g>
				</g>
			</g>
			<g>
				<g>
					<g>
						<g>
							<g>
								<g>
									<g>
										<path class="st1" d="M127.5,142.69l-36.45-19.16l-36.45,19.16l6.96-40.59L32.07,73.35l40.76-5.92L91.05,30.5l18.23,36.93
											l40.76,5.92l-29.49,28.75L127.5,142.69z M37.88,75.24l26.58,25.91l-6.28,36.59l32.86-17.27l32.86,17.27l-6.28-36.59
											l26.58-25.91l-36.74-5.34L91.05,36.61L74.62,69.9L37.88,75.24z"/>
									</g>
								</g>
							</g>
						</g>
					</g>
				</g>
			</g>
		</g>
		<g>
			<g>
				<g>
					<g>
						<g>
							<g>
								<g>
									<g>
										<polygon class="st3" points="91.05,62.99 83.28,78.72 65.92,81.24 78.49,93.49 75.52,110.78 91.05,102.61 106.57,110.78 
											103.61,93.49 116.17,81.24 98.81,78.72 										"/>
									</g>
								</g>
							</g>
						</g>
					</g>
				</g>
			</g>
			<g>
				<g>
					<g>
						<g>
							<g>
								<g>
									<g>
										<path class="st1" d="M108.37,113.25l-17.32-9.11l-17.32,9.11l3.31-19.29L63.02,80.3l19.37-2.82l8.66-17.55l8.66,17.55
											l19.37,2.82l-14.02,13.66L108.37,113.25z M68.83,82.19l11.11,10.83l-2.62,15.29l13.73-7.22l13.73,7.22l-2.62-15.29
											l11.11-10.83l-15.35-2.23l-6.86-13.91l-6.86,13.91L68.83,82.19z"/>
									</g>
								</g>
							</g>
						</g>
					</g>
				</g>
			</g>
		</g>
	</g>
	<g>
		<g>
			<g>
				<g>
					<g>
						<g>
							<g>
								<g>
									<path class="st0" d="M76.54,177.55c0,8.1,6.56,14.66,14.66,14.66s14.66-6.56,14.66-14.66S91.2,153.8,91.2,153.8
										S76.54,169.46,76.54,177.55z"/>
								</g>
							</g>
						</g>
					</g>
				</g>
			</g>
		</g>
		<g>
			<g>
				<g>
					<g>
						<g>
							<g>
								<g>
									<path class="st1" d="M91.2,193.57c-8.83,0-16.02-7.18-16.02-16.02c0-8.53,14.42-24.02,15.03-24.68l0.99-1.05l0.99,1.05
										c0.61,0.66,15.03,16.14,15.03,24.68C107.22,186.39,100.03,193.57,91.2,193.57z M91.2,155.81
										c-4.47,4.98-13.31,16.01-13.31,21.75c0,7.34,5.97,13.31,13.31,13.31c7.34,0,13.31-5.97,13.31-13.31
										C104.51,171.82,95.67,160.79,91.2,155.81z"/>
								</g>
							</g>
						</g>
					</g>
				</g>
			</g>
		</g>
	</g>
</g>
</svg>
