<svg width="462" height="127" viewBox="0 0 462 127" fill="none" xmlns="http://www.w3.org/2000/svg">
<path d="M37.8 43C39.7556 43.1795 44.0933 43.4308 45.8 43L49 50H33V48.3846L37.8 43Z" fill="#232323" stroke="black" stroke-width="2"/>
<path d="M151 116.5L53.5 104.5L52 68.4603L66.8165 47.1905L322.93 61.0159L373.73 44L424 68.4603L435.5 116.5H151Z" fill="#2D2D2D" stroke="black" stroke-width="2"/>
<path d="M42.25 84L34 62.1915L47.75 59L56 84H42.25Z" fill="#232323" stroke="black" stroke-width="2"/>
<path d="M38.5 43.5L34.5 48V63.5L37.5 68.5L48 67.5L53 44.5L38.5 43.5Z" fill="#FF400D"/>
<path d="M97.29 126.58C116.78 126.58 132.58 110.78 132.58 91.29C132.58 71.7999 116.78 56 97.29 56C77.7998 56 62 71.7999 62 91.29C62 110.78 77.7998 126.58 97.29 126.58Z" fill="black"/>
<path d="M97.29 119.83C113.052 119.83 125.83 107.052 125.83 91.29C125.83 75.5278 113.052 62.75 97.29 62.75C81.5278 62.75 68.75 75.5278 68.75 91.29C68.75 107.052 81.5278 119.83 97.29 119.83Z" stroke="#232323" stroke-width="2" stroke-miterlimit="10"/>
<path d="M100.34 62.76H94.87V88.5H100.34V62.76Z" fill="#232323"/>
<path d="M85.6733 65.0518L80.9362 67.7867L93.8062 90.0782L98.5433 87.3432L85.6733 65.0518Z" fill="#232323"/>
<path d="M74.1138 74.383L71.3788 79.1201L93.6703 91.9901L96.4053 87.253L74.1138 74.383Z" fill="#232323"/>
<path d="M68.76 88.25V93.72H94.5V88.25H68.76Z" fill="#232323"/>
<path d="M71.0558 102.92L73.7908 107.657L96.0823 94.7872L93.3473 90.0501L71.0558 102.92Z" fill="#232323"/>
<path d="M80.388 114.478L85.1251 117.213L97.9951 94.9214L93.258 92.1864L80.388 114.478Z" fill="#232323"/>
<path d="M94.25 119.83H99.72V94.0901H94.25V119.83Z" fill="#232323"/>
<path d="M108.917 117.526L113.655 114.791L100.785 92.4993L96.0474 95.2343L108.917 117.526Z" fill="#232323"/>
<path d="M120.478 108.199L123.213 103.462L100.921 90.5917L98.1864 95.3288L120.478 108.199Z" fill="#232323"/>
<path d="M125.83 94.35V88.88H100.09V94.35H125.83Z" fill="#232323"/>
<path d="M123.533 79.6623L120.798 74.9252L98.507 87.7952L101.242 92.5323L123.533 79.6623Z" fill="#232323"/>
<path d="M114.209 68.1052L109.472 65.3702L96.6017 87.6617L101.339 90.3967L114.209 68.1052Z" fill="#232323"/>
<path d="M97.29 95.07C99.3776 95.07 101.07 93.3776 101.07 91.29C101.07 89.2024 99.3776 87.51 97.29 87.51C95.2024 87.51 93.51 89.2024 93.51 91.29C93.51 93.3776 95.2024 95.07 97.29 95.07Z" fill="#CCCCCC"/>
<g opacity="0.2">
<path opacity="0.2" d="M97.2899 98.8799C101.482 98.8799 104.88 95.4818 104.88 91.2899C104.88 87.0981 101.482 83.7 97.2899 83.7C93.0981 83.7 89.7 87.0981 89.7 91.2899C89.7 95.4818 93.0981 98.8799 97.2899 98.8799Z" fill="#CCCCCC"/>
</g>
<path d="M376.29 126.58C395.78 126.58 411.58 110.78 411.58 91.29C411.58 71.7999 395.78 56 376.29 56C356.8 56 341 71.7999 341 91.29C341 110.78 356.8 126.58 376.29 126.58Z" fill="black"/>
<path d="M376.29 119.83C392.052 119.83 404.83 107.052 404.83 91.29C404.83 75.5278 392.052 62.75 376.29 62.75C360.528 62.75 347.75 75.5278 347.75 91.29C347.75 107.052 360.528 119.83 376.29 119.83Z" stroke="#232323" stroke-width="2" stroke-miterlimit="10"/>
<path d="M379.34 62.76H373.87V88.5H379.34V62.76Z" fill="#232323"/>
<path d="M364.673 65.0518L359.936 67.7867L372.806 90.0782L377.543 87.3432L364.673 65.0518Z" fill="#232323"/>
<path d="M353.114 74.383L350.379 79.1201L372.67 91.9901L375.405 87.253L353.114 74.383Z" fill="#232323"/>
<path d="M347.76 88.25V93.72H373.5V88.25H347.76Z" fill="#232323"/>
<path d="M350.056 102.92L352.791 107.657L375.082 94.7872L372.347 90.0501L350.056 102.92Z" fill="#232323"/>
<path d="M359.388 114.478L364.125 117.213L376.995 94.9214L372.258 92.1864L359.388 114.478Z" fill="#232323"/>
<path d="M373.25 119.83H378.72V94.0901H373.25V119.83Z" fill="#232323"/>
<path d="M387.917 117.526L392.655 114.791L379.785 92.4993L375.047 95.2343L387.917 117.526Z" fill="#232323"/>
<path d="M399.478 108.199L402.213 103.462L379.921 90.5917L377.186 95.3288L399.478 108.199Z" fill="#232323"/>
<path d="M404.83 94.35V88.88H379.09V94.35H404.83Z" fill="#232323"/>
<path d="M402.533 79.6623L399.798 74.9252L377.507 87.7952L380.242 92.5323L402.533 79.6623Z" fill="#232323"/>
<path d="M393.209 68.1052L388.472 65.3702L375.602 87.6617L380.339 90.3967L393.209 68.1052Z" fill="#232323"/>
<path d="M376.29 95.07C378.378 95.07 380.07 93.3776 380.07 91.29C380.07 89.2024 378.378 87.51 376.29 87.51C374.202 87.51 372.51 89.2024 372.51 91.29C372.51 93.3776 374.202 95.07 376.29 95.07Z" fill="#CCCCCC"/>
<g opacity="0.2">
<path opacity="0.2" d="M376.29 98.8799C380.482 98.8799 383.88 95.4818 383.88 91.2899C383.88 87.0981 380.482 83.7 376.29 83.7C372.098 83.7 368.7 87.0981 368.7 91.2899C368.7 95.4818 372.098 98.8799 376.29 98.8799Z" fill="#CCCCCC"/>
</g>
<path d="M340.5 121H134L135.581 103H156.537L171.044 94H326.166L336 102.5L340.5 121Z" fill="#222222" stroke="black" stroke-width="2"/>
<path d="M163 109.5V104L177 97V109.5H163Z" fill="#383838"/>
<path opacity="0.8" d="M167 8.00003C230.5 1.5 251.085 14.3262 313.5 41.0001L305.182 46.0001H154.028L55.6447 41.7323L53 35.7302C70.8077 29.3284 117.809 13.0354 167 8.00003Z" fill="#222222" stroke="black" stroke-width="3"/>
<g opacity="0.3">
<mask id="mask0" mask-type="alpha" maskUnits="userSpaceOnUse" x="53" y="6" width="261" height="41">
<path opacity="0.8" d="M167 8.00003C230.5 1.5 251.085 14.3262 313.5 41.0001L305.182 46.0001H154.028L55.6447 41.7323L53 35.7302C70.8077 29.3284 117.809 13.0354 167 8.00003Z" fill="#222222"/>
</mask>
<g mask="url(#mask0)">
<path d="M192.5 10.5C160.901 10.5 124.5 21.5 75.5 42H65L45 36.5L71.5 9.5C99.6667 3.16667 157.4 -9.5 163 -9.5C168.6 -9.5 212.833 -5.33333 234 0C229.667 2.66665 217.5 10.5 192.5 10.5Z" fill="white"/>
</g>
</g>
<path opacity="0.3" d="M242 40C225.5 26.5 180 19.5 145.5 34L167.5 52.5C197.833 52.8333 255.2 50.8 242 40Z" fill="#D7DADF"/>
<path d="M45.5 49.5L48 49V64H45.5C34.3174 63.6912 26.3317 62.4083 16.5542 58.4666C14.8848 57.7935 14.9847 55.4625 16.6936 54.8972C27.1569 51.4359 34.2018 49.9993 45.5 49.5Z" fill="#232323"/>
<path d="M133 33.4302C139 27.5 149.07 18.0397 153.296 17.5041C157.521 16.9685 215.62 12.1479 226.711 17.5041C235.585 21.789 269.268 36.2868 283 42" stroke="black" stroke-width="2"/>
<path d="M243 12.5C235.5 14 228.484 15.6038 232.5 17L290.5 41" stroke="black" stroke-width="2"/>
<path d="M17 55.7571C28 56.2572 36 55.7572 46.3194 55.2602V60.2602C35.7732 60.4188 28.5 59.7571 17 57.7571C15.4999 57.6147 14.9962 55.666 17 55.7571Z" fill="#616161"/>
<path d="M433.114 99.0001C429.245 98.8258 418.766 98.5817 417.5 99.0001C415.917 79.6514 408 52.2706 375.071 50.8899C342.141 49.5092 333.5 82.5001 336.023 103.477H332.329L320.193 95.6331H176.139L161.892 103.477H135.5C140.5 77.5001 123.5 50.0001 97 50.0001C70.4997 50.0001 63.2172 70.7615 58.4682 81.2202H42C40.7688 80.7768 37 68.5001 37 68.5001C37 68.5001 43.3367 68.6265 45.5 68.5001C45.5 68.5001 48.12 52.8268 46 50.0001C43 46.0001 39.3795 43.2431 38.5 41.5C58.1997 38.0138 103.637 30.6 121.789 31.0183C139.941 31.4367 168.4 38.8623 180.36 42.5229C226.47 41.0931 307.379 40.4312 352.908 40.4312C388.79 40.4312 437.16 63.6146 450 71.8073C449.578 78.9193 442.436 80.6972 438.919 80.6972L433.114 99.0001Z" fill="#4C9558" stroke="black" stroke-width="3"/>
<path d="M323 97L310 87" stroke="black" stroke-width="2"/>
<path d="M60 85V108C55.2857 103.4 46.7857 88.3106 45 85H60Z" fill="black" stroke="black" stroke-width="2"/>
<path d="M47.2909 87H32V92.3846C32 94.5385 40.4364 108.359 44.6545 115H61V110.692L47.2909 87Z" fill="#232323" stroke="black" stroke-width="2"/>
<path d="M49.375 81H43L47.2301 90.3844C48.6365 93.5044 50.82 96.2114 53.5717 98.2463L60 103V95.1429L57.5884 94.2283C54.7475 93.151 52.5506 90.8406 51.6175 87.9491L49.375 81Z" fill="#515151" stroke="black" stroke-width="2"/>
<path d="M441 82H449.853C450.611 85.7787 450.993 88.6902 451 91.4511C451.007 94.1818 450.646 96.802 449.885 100H441V82Z" fill="#C4C4C4" stroke="black" stroke-width="2"/>
<path d="M420.247 120L417 96.5625V95H437.024L445.682 101.25H460V111.146L454.882 120H420.247Z" fill="#5B5B5B" stroke="black" stroke-width="2"/>
<path d="M454 78.6596L448.116 76L434 78.6596L432 94.5L435.5 100.5L439.558 101H447.5V86L454 78.6596Z" fill="#5B5B5B" stroke="black" stroke-width="2" stroke-linecap="round" stroke-linejoin="round"/>
<path d="M26.6719 24.2195L45 20.5L48.5 33.8781H51L54 39.2439H25.5L21 33.8781L26.6719 24.2195Z" fill="#232323" stroke="black" stroke-width="2"/>
<path d="M39.9664 6.60901C30.2575 5.54765 15.0849 3.22191 6.78183 1.72293C3.99361 1.21956 1 3.58764 1 6.42094V21.8333C1 23.4481 1.97095 24.9046 3.46154 25.5256L11.803 29.0012C12.5811 29.3254 13.4417 29.3956 14.262 29.2016L44.7841 21.9835C47.3869 21.368 48.664 18.4207 47.3333 16.1007L43.0376 8.61143C42.3934 7.48841 41.2534 6.7497 39.9664 6.60901Z" fill="#515151" stroke="black" stroke-width="2"/>
<path d="M135.5 110L337.5 110.5L339.5 120.5H134.5L135.5 110Z" fill="#515151"/>
<path d="M424.5 95H416.5L420 120.5H455L460.5 111.5V101L454 106H429.5L424.5 95Z" fill="#222222" stroke="black" stroke-width="2" stroke-linecap="round" stroke-linejoin="round"/>
<path d="M445 73.6667V74.6667L432.25 76L428.58 74.8333L428 73L445 73.6667Z" fill="#F4F4F4"/>
<path d="M151 36V44C154.833 54.8333 165.4 80 177 94" stroke="black" stroke-width="2"/>
<path d="M179.5 50.5H195" stroke="black" stroke-width="2" stroke-linecap="round"/>
<path d="M291.5 41C296.3 43.8 298.167 46.1667 298.5 47C301.833 53 306.3 72.6 299.5 95" stroke="black" stroke-width="2"/>
<path d="M339.5 59.5L344 55L317 59.5H339.5Z" fill="#232323"/>
<path d="M344 55L344.354 55.3536C344.507 55.1999 344.544 54.9645 344.445 54.7712C344.345 54.5779 344.132 54.4711 343.918 54.5068L344 55ZM339.5 59.5V60C339.633 60 339.76 59.9473 339.854 59.8536L339.5 59.5ZM317 59.5L316.918 59.0068C316.661 59.0496 316.48 59.282 316.502 59.5412C316.523 59.8005 316.74 60 317 60V59.5ZM343.646 54.6464L339.146 59.1464L339.854 59.8536L344.354 55.3536L343.646 54.6464ZM339.5 59H317V60H339.5V59ZM317.082 59.9932L344.082 55.4932L343.918 54.5068L316.918 59.0068L317.082 59.9932Z" fill="black"/>
<path d="M335.5 66L337.5 63H316L335.5 66Z" fill="#232323" stroke="black" stroke-linecap="round" stroke-linejoin="round"/>
<g opacity="0.2">
<mask id="mask1" mask-type="alpha" maskUnits="userSpaceOnUse" x="40" y="30" width="418" height="76">
<path d="M439.114 99.9987C435.245 99.8244 424.766 99.5804 423.5 99.9987C421.917 80.6501 414 53.2692 381.071 51.8886C348.141 50.5079 339.5 83.4987 342.023 104.476H338.329L326.193 96.6317H182.139L167.892 104.476H141.5C146.5 78.4987 129.5 50.9987 103 50.9987C76.4997 50.9987 69.2172 71.7601 64.4682 82.2189H48C46.7688 81.7755 43 69.4987 43 69.4987C43 69.4987 49.3367 69.6252 51.5 69.4987C51.5 69.4987 54.12 53.8254 52 50.9987C49 46.9987 45.3795 44.2418 44.5 42.4987C64.1997 39.0124 109.637 31.5986 127.789 32.017C145.941 32.4353 174.4 39.861 186.36 43.5215C232.47 42.0918 313.379 41.4298 358.908 41.4298C394.79 41.4298 443.16 64.6133 456 72.806C455.578 79.9179 448.436 81.6959 444.919 81.6959L439.114 99.9987Z" fill="#4C9558" stroke="black" stroke-width="3"/>
</mask>
<g mask="url(#mask1)">
<path d="M133.5 46.9987C118.5 43.4987 117 38.4987 41.5 56.4987L9 29.4987L116.5 7.49866L387.5 40.4987C383.667 42.6653 377 44 369 44C361 44 349.167 50.3333 346 53.5C295.5 53.5 192 56.4987 180 56.4987C165 56.4987 148.5 50.4987 133.5 46.9987Z" fill="white"/>
</g>
</g>
</svg>
