<?xml version="1.0" encoding="utf-8"?>
<!-- Generator: Adobe Illustrator 22.0.0, SVG Export Plug-In . SVG Version: 6.00 Build 0)  -->
<svg version="1.1" id="图层_1" xmlns="http://www.w3.org/2000/svg" xmlns:xlink="http://www.w3.org/1999/xlink" x="0px" y="0px"
	 viewBox="0 0 750 1125" style="enable-background:new 0 0 750 1125;" xml:space="preserve">
<style type="text/css">
	.st0{fill:#E91884;}
	.st1{fill:#40215A;}
	.st2{fill:#FF95E7;}
	.st3{fill:#40175A;}
	.st4{fill:#FFFFFF;}
	.st5{fill:#FFCD20;}
	.st6{fill:#C9C5C4;}
	.st7{fill:#A4AAA6;}
	.st8{fill:#FCDA43;}
	.st9{fill:#402159;}
	.st10{fill-rule:evenodd;clip-rule:evenodd;fill:#FFFFFF;}
	.st11{fill:#FBD4C1;}
	.st12{fill-rule:evenodd;clip-rule:evenodd;fill:#402159;}
	.st13{fill:#FE3561;}
	.st14{clip-path:url(#SVGID_2_);}
	.st15{fill:#F1C984;}
	.st16{fill:none;}
	.st17{fill:#19D7E7;}
	.st18{clip-path:url(#SVGID_4_);}
	.st19{fill:#FFD236;}
	.st20{clip-path:url(#SVGID_6_);}
	.st21{clip-path:url(#SVGID_8_);}
	.st22{fill:#0082FF;}
	.st23{fill:#FF771D;}
	.st24{clip-path:url(#SVGID_10_);}
	.st25{fill:#3E185B;}
	.st26{fill:#40175B;}
	.st27{fill:#446493;}
	.st28{clip-path:url(#SVGID_12_);}
	.st29{clip-path:url(#SVGID_14_);}
	.st30{clip-path:url(#SVGID_16_);}
	.st31{clip-path:url(#SVGID_18_);}
	.st32{clip-path:url(#SVGID_20_);}
	.st33{clip-path:url(#SVGID_22_);}
	.st34{clip-path:url(#SVGID_24_);}
	.st35{clip-path:url(#SVGID_26_);}
	.st36{fill:#14E3C5;}
	.st37{fill:#FF7193;}
	.st38{clip-path:url(#SVGID_28_);}
	.st39{fill:#FF781E;}
	.st40{clip-path:url(#SVGID_30_);}
	.st41{clip-path:url(#SVGID_32_);}
	.st42{fill:#FFFF47;}
	.st43{fill-rule:evenodd;clip-rule:evenodd;fill:#A19F9E;}
	.st44{fill:#A19F9E;}
	.st45{fill-rule:evenodd;clip-rule:evenodd;fill:#FFFF47;}
	.st46{clip-path:url(#SVGID_34_);}
	.st47{clip-path:url(#SVGID_36_);}
	.st48{clip-path:url(#SVGID_38_);}
	.st49{clip-path:url(#SVGID_40_);}
	.st50{fill:#0081FF;}
	.st51{clip-path:url(#SVGID_42_);}
	.st52{clip-path:url(#SVGID_44_);}
	.st53{clip-path:url(#SVGID_46_);}
	.st54{clip-path:url(#SVGID_48_);}
	.st55{clip-path:url(#SVGID_50_);}
	.st56{clip-path:url(#SVGID_52_);}
	.st57{clip-path:url(#SVGID_54_);}
	.st58{clip-path:url(#SVGID_56_);}
	.st59{clip-path:url(#SVGID_58_);}
	.st60{clip-path:url(#SVGID_60_);}
	.st61{clip-path:url(#SVGID_62_);}
	.st62{clip-path:url(#SVGID_64_);}
	.st63{clip-path:url(#SVGID_66_);}
	.st64{fill-rule:evenodd;clip-rule:evenodd;fill:#FFD236;}
	.st65{clip-path:url(#SVGID_68_);}
	.st66{clip-path:url(#SVGID_70_);}
	.st67{clip-path:url(#SVGID_72_);}
	.st68{clip-path:url(#SVGID_74_);}
	.st69{fill:#FF6D33;}
	.st70{clip-path:url(#SVGID_76_);}
	.st71{clip-path:url(#SVGID_78_);}
	.st72{clip-path:url(#SVGID_80_);}
	.st73{clip-path:url(#SVGID_82_);}
	.st74{clip-path:url(#SVGID_84_);}
	.st75{clip-path:url(#SVGID_86_);}
	.st76{clip-path:url(#SVGID_88_);}
	.st77{clip-path:url(#SVGID_90_);}
	.st78{clip-path:url(#SVGID_92_);}
	.st79{clip-path:url(#SVGID_94_);}
	.st80{clip-path:url(#SVGID_96_);}
	.st81{clip-path:url(#SVGID_98_);}
	.st82{clip-path:url(#SVGID_100_);}
	.st83{clip-path:url(#SVGID_102_);}
	.st84{clip-path:url(#SVGID_104_);}
	.st85{clip-path:url(#SVGID_106_);}
	.st86{clip-path:url(#SVGID_108_);}
	.st87{fill:#E91884;stroke:#40175A;stroke-width:5;stroke-linecap:round;stroke-linejoin:round;stroke-miterlimit:10;}
	.st88{fill:#BAFF00;}
	.st89{clip-path:url(#SVGID_110_);}
	.st90{clip-path:url(#SVGID_112_);}
	.st91{fill:#FF8500;}
	.st92{fill:#1CBDFF;}
	.st93{clip-path:url(#SVGID_116_);}
	.st94{clip-path:url(#SVGID_118_);}
</style>
<g>
	<g>
		<g>
			<path class="st9" d="M579,656.1V459.9c0-0.3,0-0.6-0.1-0.9c-4.3-26.8-21.8-46-47-51.3c-15-3.2-28.9-0.1-33.7,7.3
				c-2.8,4.3-2.4,9.5,1.1,14.3c2.5,3.4,4.8,7.6,6.8,12.3c-12.6,19.8-46,57.8-112.3,47.9c1-2.7,1.5-5.3,1.5-7.7
				c0-22.3-17.3-59.1-34.9-74.3c-7.1-6.1-14.1-8.7-20.6-7.8c-7.7,1.2-14.4,5.6-19.5,12.9c-7.7,11-10.6,26.7-10.2,35.9l-74.1,57.6
				c-11,8.5-16.7,22.2-15,35.5c0.3,2.4,0.7,4.6,1.2,6.7c-12.5,8.1-49.3,38-51.2,107.7c-2.7,0.4-4.8,2.8-4.8,5.6v6.9
				c0,31.4,25.5,56.9,56.9,56.9h316.7c24.2,0,43.9-19.7,43.9-43.9v-19.9C583.8,658.8,581.7,656.5,579,656.1z M525.1,418.1
				c17.5,2,37.8,14.1,42.5,42.2V656h-80.4c-1.3-15.1-1.4-62.6,44.8-83.9c2-0.9,3.3-2.9,3.3-5.2c0-4.4,0-107.7-26.8-144.3
				c-0.6-0.8-0.7-1.3-0.7-1.3C508.4,419.9,514.5,416.9,525.1,418.1z M415.3,502.5c51.1,0,80.8-27.9,95.5-47.7
				c11.4,37.9,12.9,94,13.1,108.5c-48.2,24.4-49.4,74.5-48.1,92.7h-13.8c-1.2-28.2-11.1-51.3-29.6-68.5
				c-29.6-27.7-73.4-33.5-97.2-34.4c20.4-16.4,42.2-36.2,53-52.9C397.9,501.8,406.9,502.5,415.3,502.5z M429,656
				c-3.8-13.9-18.5-53.5-64.1-53.5h-80.2c-12.2,0-26.1-7.5-36.3-20.3c8.3,4.1,17.2,5.9,25.2,5.9c6.6,0,12.5-1.2,16.7-3.2
				c4.1-2,16-9.8,30.4-20.5c9.7-0.4,69.1-1.3,104.1,31.4c16.1,15,24.8,35.3,25.9,60.2H429z M242.9,515.1l76.6-59.5
				c1.7-1.3,2.5-3.5,2.1-5.6c-1-5.2,0.8-20.7,7.9-30.8c3.3-4.8,7.3-7.5,11.9-8.2c0.3-0.1,0.7-0.1,1-0.1c3.6,0,7.7,2.8,10.5,5.2
				c15.3,13.2,31,46.3,31,65.6c0,22.2-81.9,84.9-98.6,92.9c-5.8,2.8-20.3,3.7-33-3.2c-11.4-6.2-18.1-16.7-20-31.3
				C231.1,530.8,235.1,521.2,242.9,515.1z M224.9,560.3c8.6,33.3,36.5,53.5,59.7,53.5h80.2c35.6,0,48.4,28.7,52.4,42.1H182.4
				C184.1,597.5,211.9,570,224.9,560.3z M572.4,681.6c0,17.9-14.6,32.5-32.5,32.5H223.2c-25.1,0-45.6-20.4-45.6-45.5v-1.2h246.8
				h57.7h90.2V681.6z"/>
		</g>
		<g>
			<path class="st22" d="M525.1,418.3c17.5,2,37.8,14.1,42.5,42.2v195.6h-80.4c-1.3-15.1-1.4-62.6,44.8-83.9c2-0.9,3.3-2.9,3.3-5.2
				c0-4.4,0-107.7-26.8-144.3c-0.6-0.8-0.7-1.3-0.7-1.3C508.4,420.1,514.5,417.1,525.1,418.3z"/>
		</g>
		<g>
			<path class="st4" d="M415.3,502.7c51.1,0,80.8-27.9,95.5-47.7c11.4,37.9,12.9,94,13.1,108.5c-48.2,24.4-49.4,74.5-48.1,92.7
				h-13.8c-1.2-28.2-11.1-51.3-29.6-68.5c-29.6-27.7-73.4-33.5-97.2-34.4c20.4-16.4,42.2-36.2,53-52.9
				C397.9,501.9,406.9,502.7,415.3,502.7z"/>
		</g>
		<g>
			<path class="st4" d="M429,656.1c-3.8-13.9-18.5-53.5-64.1-53.5h-80.2c-12.2,0-26.1-7.5-36.3-20.3c8.3,4.1,17.2,5.9,25.2,5.9
				c6.6,0,12.5-1.2,16.7-3.2c4.1-2,16-9.8,30.4-20.5c9.7-0.4,69.1-1.3,104.1,31.4c16.1,15,24.8,35.3,25.9,60.2H429z"/>
		</g>
		<g>
			<path class="st22" d="M242.9,515.3l76.6-59.5c1.7-1.3,2.5-3.5,2.1-5.6c-1-5.2,0.8-20.7,7.9-30.8c3.3-4.8,7.3-7.5,11.9-8.2
				c0.3-0.1,0.7-0.1,1-0.1c3.6,0,7.7,2.8,10.5,5.2c15.3,13.2,31,46.3,31,65.6c0,22.2-81.9,84.9-98.6,92.9c-5.8,2.8-20.3,3.7-33-3.2
				c-11.4-6.2-18.1-16.7-20-31.3C231.1,531,235.1,521.4,242.9,515.3z"/>
		</g>
		<g>
			<path class="st22" d="M224.9,560.5c8.6,33.3,36.5,53.5,59.7,53.5h80.2c35.6,0,48.4,28.7,52.4,42.1H182.4
				C184.1,597.7,211.9,570.2,224.9,560.5z"/>
		</g>
		<g>
			<path class="st4" d="M572.4,681.8c0,17.9-14.6,32.5-32.5,32.5H223.2c-25.1,0-45.6-20.4-45.6-45.5v-1.2h246.8h57.7h90.2V681.8z"/>
		</g>
		<g>
			<g>
				<circle class="st9" cx="326.7" cy="583.3" r="9.3"/>
			</g>
			<g>
				<circle class="st9" cx="358.2" cy="583.8" r="9.3"/>
			</g>
			<g>
				<circle class="st9" cx="389.6" cy="591.1" r="9.3"/>
			</g>
			<g>
				<circle class="st9" cx="416.8" cy="607.7" r="8.8"/>
			</g>
			<g>
				<circle class="st9" cx="434.1" cy="632.8" r="8.4"/>
			</g>
		</g>
		<g>
			<g>
				<g>
					<g>
						<path class="st23" d="M270.3,541.7l-35.6-46.4c-2.8-3.6-2.1-8.8,1.5-11.6l1.7-1.3c3.6-2.8,8.8-2.1,11.6,1.5l35.6,46.4
							c2.8,3.6,2.1,8.8-1.5,11.6l-1.7,1.3C278.2,546,273,545.3,270.3,541.7z"/>
					</g>
					<g>
						<path class="st9" d="M242.9,480.8c2.5,0,4.9,1.1,6.5,3.2l35.6,46.4c2.8,3.6,2.1,8.8-1.5,11.6l-1.7,1.3c-1.5,1.1-3.3,1.7-5,1.7
							c-2.5,0-4.9-1.1-6.5-3.2l-35.6-46.4c-2.8-3.6-2.1-8.8,1.5-11.6l1.7-1.3C239.4,481.3,241.1,480.8,242.9,480.8 M242.9,473.2
							L242.9,473.2c-3.5,0-6.8,1.1-9.6,3.3l-1.7,1.3c-6.9,5.3-8.2,15.3-2.9,22.2l35.6,46.4c3,3.9,7.6,6.2,12.6,6.2
							c3.5,0,6.8-1.1,9.6-3.3l1.7-1.3c6.9-5.3,8.2-15.3,2.9-22.2l-35.6-46.4C252.4,475.4,247.9,473.2,242.9,473.2L242.9,473.2z"/>
					</g>
				</g>
			</g>
			<g>
				<g>
					<g>
						<path class="st23" d="M300.2,520.4L264.6,474c-2.8-3.6-2.1-8.8,1.5-11.6l1.7-1.3c3.6-2.8,8.8-2.1,11.6,1.5l35.6,46.4
							c2.8,3.6,2.1,8.8-1.5,11.6l-1.7,1.3C308.1,524.7,303,524,300.2,520.4z"/>
					</g>
					<g>
						<path class="st9" d="M272.8,459.5c2.5,0,4.9,1.1,6.5,3.2l35.6,46.4c2.8,3.6,2.1,8.8-1.5,11.6l-1.7,1.3c-1.5,1.1-3.3,1.7-5,1.7
							c-2.5,0-4.9-1.1-6.5-3.2L264.6,474c-2.8-3.6-2.1-8.8,1.5-11.6l1.7-1.3C269.3,460,271,459.5,272.8,459.5 M272.8,451.9
							C272.8,451.9,272.8,451.9,272.8,451.9c-3.5,0-6.8,1.1-9.6,3.3l-1.7,1.3c-6.9,5.3-8.2,15.3-2.9,22.2l35.6,46.4
							c3,3.9,7.6,6.2,12.6,6.2c3.5,0,6.8-1.1,9.6-3.3l1.7-1.3c3.4-2.6,5.5-6.3,6.1-10.5c0.6-4.2-0.6-8.4-3.1-11.7l-35.6-46.4
							C282.4,454.1,277.8,451.9,272.8,451.9L272.8,451.9z"/>
					</g>
				</g>
			</g>
			<g>
				<g>
					<g>
						<path class="st23" d="M328.6,497.5L293,451.1c-2.8-3.6-2.1-8.8,1.5-11.6l1.7-1.3c3.6-2.8,8.8-2.1,11.6,1.5l35.6,46.4
							c2.8,3.6,2.1,8.8-1.5,11.6l-1.7,1.3C336.6,501.8,331.4,501.1,328.6,497.5z"/>
					</g>
					<g>
						<path class="st9" d="M301.3,436.5c2.5,0,4.9,1.1,6.5,3.2l35.6,46.4c2.8,3.6,2.1,8.8-1.5,11.6l-1.7,1.3c-1.5,1.1-3.3,1.7-5,1.7
							c-2.5,0-4.9-1.1-6.5-3.2L293,451.1c-2.8-3.6-2.1-8.8,1.5-11.6l1.7-1.3C297.7,437.1,299.5,436.5,301.3,436.5 M301.3,428.9
							C301.3,428.9,301.3,428.9,301.3,428.9c-3.5,0-6.8,1.1-9.6,3.3l-1.7,1.3c-6.9,5.3-8.2,15.3-2.9,22.2l35.6,46.4
							c3,3.9,7.6,6.2,12.6,6.2c3.5,0,6.8-1.1,9.6-3.3l1.7-1.3c3.4-2.6,5.5-6.3,6.1-10.5c0.6-4.2-0.6-8.4-3.1-11.7l-35.6-46.4
							C310.8,431.2,306.2,428.9,301.3,428.9L301.3,428.9z"/>
					</g>
				</g>
			</g>
		</g>
	</g>
	<g>
		<path class="st9" d="M536.4,696.4H449c-3.1,0-5.7-2.5-5.7-5.7s2.5-5.7,5.7-5.7h87.3c3.1,0,5.7,2.5,5.7,5.7
			S539.5,696.4,536.4,696.4z"/>
	</g>
</g>
</svg>
