
<svg xmlns="http://www.w3.org/2000/svg" version="1.1" xmlns:xlink="http://www.w3.org/1999/xlink" preserveAspectRatio="none" x="0px" y="0px" width="1024px" height="1024px" viewBox="0 0 1024 1024">
<defs>
<linearGradient id="Gradient_1" gradientUnits="userSpaceOnUse" x1="161.21249999999998" y1="189.8" x2="248.1875" y2="189.8" spreadMethod="pad">
<stop  offset="1.5686274509803921%" stop-color="#A0A6BF"/>

<stop  offset="38.431372549019606%" stop-color="#A0A6BF"/>

<stop  offset="40%" stop-color="#9199B4"/>

<stop  offset="42.35294117647059%" stop-color="#868FAD"/>

<stop  offset="44.705882352941174%" stop-color="#828CAB"/>
</linearGradient>

<linearGradient id="Gradient_2" gradientUnits="userSpaceOnUse" x1="211.1375" y1="211.25" x2="250.5625" y2="153.85000000000002" spreadMethod="pad">
<stop  offset="1.5686274509803921%" stop-color="#A0A6BF"/>

<stop  offset="35.68627450980392%" stop-color="#A0A6BF"/>

<stop  offset="36.470588235294116%" stop-color="#ADB2C8"/>

<stop  offset="37.64705882352941%" stop-color="#C6C9D9"/>

<stop  offset="39.21568627450981%" stop-color="#D9DAE6"/>

<stop  offset="40.3921568627451%" stop-color="#E3E4ED"/>

<stop  offset="42.35294117647059%" stop-color="#E7E7F0"/>
</linearGradient>

<g id="Layer0_0_MEMBER_0_FILL">
<path fill="#F5F2E8" stroke="none" d="
M 215.8 165.15
Q 214.3 165.15 213.25 165.75
L 162.25 195.4
Q 161.2 196.05 161.2 196.9 161.2 197.75 162.25 198.35
L 195.2 217.4
Q 196 217.85 197.05 217.85 198.15 217.85 198.9 217.4
L 251.3 186.95
Q 252.1 186.5 252.05 185.9 252.05 185.25 251.3 184.8
L 218.35 165.75
Q 217.3 165.15 215.8 165.15 Z"/>
</g>

<g id="Layer0_0_MEMBER_1_MEMBER_0_FILL">
<path fill="url(#Gradient_1)" stroke="none" d="
M 213.85 164.6
Q 212.8 164.6 212.05 165
L 164.45 192.65 161.2 193.05 161.2 195.1
Q 161.1 195.75 161.95 196.2
L 193.45 214.4
Q 194.45 215 195.9 215 197.35 215 198.35 214.4
L 247.15 186.05
Q 248.15 185.45 248.15 184.65
L 248.15 182.7 246.6 182.9 215.6 165
Q 214.9 164.6 213.85 164.6 Z"/>
</g>

<g id="Layer0_0_MEMBER_1_MEMBER_1_MEMBER_0_FILL">
<path fill="#EFF0F5" stroke="none" d="
M 213.45 162.65
Q 212 162.65 211 163.25
L 162.2 191.65
Q 161.2 192.2 161.2 193.05 161.2 193.85 162.2 194.45
L 193.75 212.65
Q 194.5 213.1 195.55 213.1 196.55 213.1 197.3 212.65
L 247.45 183.5
Q 248.15 183.1 248.15 182.5 248.15 181.9 247.45 181.45
L 215.9 163.25
Q 214.9 162.65 213.45 162.65 Z"/>
</g>

<g id="Layer0_0_MEMBER_1_MEMBER_1_MEMBER_1_MEMBER_0_FILL">
<path fill="#E1E3EB" stroke="none" d="
M 226.65 170.8
Q 225.5 170.15 224.3 170.8
L 175.25 199.3
Q 174.75 199.55 174.75 199.95 174.75 200.35 175.25 200.65
L 193.85 211.4
Q 194.4 211.65 195.05 211.65 195.75 211.65 196.25 211.4
L 245.25 182.9
Q 245.75 182.65 245.75 182.25 245.75 181.8 245.25 181.55
L 226.65 170.8 Z"/>
</g>

<g id="Layer0_0_MEMBER_1_MEMBER_1_MEMBER_1_MEMBER_1_MEMBER_0_FILL">
<path fill="#393842" stroke="none" d="
M 237.1 181.35
L 236.9 181.35 236.9 181.6
Q 236.9 181.75 237.1 181.85
L 239.35 183.15
Q 239.8 183.4 240.2 183.15
L 242.45 181.85
Q 242.6 181.8 242.6 181.6
L 242.6 181.35 242.4 181.35 240.15 180.05
Q 239.75 179.75 239.35 180.05
L 237.1 181.35 Z"/>
</g>

<g id="Layer0_0_MEMBER_1_MEMBER_1_MEMBER_1_MEMBER_1_MEMBER_1_FILL">
<path fill="#393842" stroke="none" d="
M 228.25 173.05
L 228.05 173.05 225.8 171.75
Q 225.4 171.55 225 171.75
L 222.75 173.05 222.55 173.05 222.55 173.35
Q 222.55 173.5 222.75 173.55
L 225 174.85
Q 225.45 175.1 225.85 174.85
L 228.1 173.55
Q 228.25 173.5 228.25 173.3
L 228.25 173.05 Z"/>
</g>

<g id="Layer0_0_MEMBER_1_MEMBER_1_MEMBER_1_MEMBER_1_MEMBER_2_FILL">
<path fill="#393842" stroke="none" d="
M 221.45 176.95
Q 221.9 177.1 222.3 176.95
L 224.55 175.6
Q 224.7 175.55 224.7 175.35
L 224.7 175.1 224.5 175.1 222.25 173.8
Q 221.85 173.6 221.45 173.8
L 219.2 175.1 219 175.1 219 175.4 219.2 175.6 221.45 176.95 Z"/>
</g>

<g id="Layer0_0_MEMBER_1_MEMBER_1_MEMBER_1_MEMBER_1_MEMBER_3_FILL">
<path fill="#393842" stroke="none" d="
M 221 177.65
Q 221.15 177.6 221.15 177.45
L 221.15 177.15 220.95 177.15 218.7 175.9
Q 218.3 175.6 217.9 175.9
L 215.65 177.2 215.45 177.2 215.45 177.45 215.65 177.65 217.9 179
Q 218.35 179.15 218.75 179
L 221 177.65 Z"/>
</g>

<g id="Layer0_0_MEMBER_1_MEMBER_1_MEMBER_1_MEMBER_1_MEMBER_4_FILL">
<path fill="#393842" stroke="none" d="
M 217.45 179.75
Q 217.65 179.55 217.65 179.5
L 217.65 179.25 217.4 179.25 215.2 177.95
Q 214.8 177.7 214.35 177.95
L 212.1 179.25 211.9 179.25 211.9 179.5 211.95 179.5
Q 211.95 179.6 212.1 179.75
L 214.35 181.05
Q 214.8 181.3 215.2 181.05
L 217.45 179.75 Z"/>
</g>

<g id="Layer0_0_MEMBER_1_MEMBER_1_MEMBER_1_MEMBER_1_MEMBER_5_FILL">
<path fill="#393842" stroke="none" d="
M 235.8 185.2
Q 236.25 185.45 236.65 185.2
L 238.9 183.9
Q 239.05 183.85 239.05 183.65
L 239.05 183.4 238.85 183.4 236.6 182.1
Q 236.25 181.9 235.8 182.1
L 233.55 183.4 233.35 183.4 233.35 183.7 233.55 183.9 235.8 185.2 Z"/>
</g>

<g id="Layer0_0_MEMBER_1_MEMBER_1_MEMBER_1_MEMBER_1_MEMBER_6_FILL">
<path fill="#393842" stroke="none" d="
M 233.35 183
Q 233.5 182.95 233.5 182.75
L 233.5 182.5 233.3 182.5 231.05 181.2
Q 230.65 181 230.25 181.2
L 228 182.5 227.8 182.5 227.8 182.8
Q 227.8 182.95 227.95 183
L 230.25 184.3
Q 230.7 184.55 231.05 184.3
L 233.35 183 Z"/>
</g>

<g id="Layer0_0_MEMBER_1_MEMBER_1_MEMBER_1_MEMBER_1_MEMBER_7_FILL">
<path fill="#393842" stroke="none" d="
M 227.5 183.3
Q 227.1 183 226.7 183.3
L 224.45 184.6 224.25 184.6 224.25 184.85
Q 224.25 185 224.45 185.05
L 226.7 186.4
Q 227.15 186.55 227.55 186.4
L 229.8 185.05
Q 229.95 185 229.95 184.85
L 229.95 184.55 229.75 184.55 227.5 183.3 Z"/>
</g>

<g id="Layer0_0_MEMBER_1_MEMBER_1_MEMBER_1_MEMBER_1_MEMBER_8_FILL">
<path fill="#393842" stroke="none" d="
M 222.6 181.45
L 222.4 181.45 222.4 181.75 222.6 181.95 224.85 183.25
Q 225.3 183.5 225.7 183.25
L 227.95 181.95
Q 228.1 181.9 228.1 181.7
L 228.1 181.45 227.9 181.45 225.65 180.15
Q 225.25 179.95 224.85 180.15
L 222.6 181.45 Z"/>
</g>

<g id="Layer0_0_MEMBER_1_MEMBER_1_MEMBER_1_MEMBER_1_MEMBER_9_FILL">
<path fill="#393842" stroke="none" d="
M 221.25 181.2
Q 221.7 181.4 222.05 181.2
L 224.35 179.85
Q 224.5 179.8 224.5 179.65
L 224.5 179.35 224.3 179.35 222.05 178.05
Q 221.65 177.85 221.25 178.05
L 219 179.35 218.8 179.35 218.8 179.65
Q 218.8 179.8 218.95 179.85
L 221.25 181.2 Z"/>
</g>

<g id="Layer0_0_MEMBER_1_MEMBER_1_MEMBER_1_MEMBER_1_MEMBER_10_FILL">
<path fill="#393842" stroke="none" d="
M 215.45 181.45
L 215.25 181.45 215.25 181.7
Q 215.25 181.85 215.45 181.9
L 217.7 183.25
Q 218.15 183.4 218.55 183.25
L 220.8 181.9
Q 220.95 181.85 220.95 181.7
L 220.95 181.4 220.75 181.4 218.5 180.15
Q 218.1 179.85 217.7 180.15
L 215.45 181.45 Z"/>
</g>

<g id="Layer0_0_MEMBER_1_MEMBER_1_MEMBER_1_MEMBER_1_MEMBER_11_FILL">
<path fill="#393842" stroke="none" d="
M 217.25 184
Q 217.4 183.85 217.4 183.75
L 217.4 183.5 217.2 183.5 214.95 182.2
Q 214.55 181.9 214.15 182.2
L 211.9 183.5 211.7 183.5 211.7 183.75 211.9 184 214.15 185.3
Q 214.6 185.55 215 185.3
L 217.25 184 Z"/>
</g>

<g id="Layer0_0_MEMBER_1_MEMBER_1_MEMBER_1_MEMBER_1_MEMBER_12_FILL">
<path fill="#393842" stroke="none" d="
M 213.9 185.55
L 213.65 185.55 211.45 184.25
Q 211.05 184 210.6 184.25
L 208.35 185.55 208.15 185.55 208.15 185.8 208.2 185.8
Q 208.2 186 208.35 186.05
L 210.6 187.35
Q 211.05 187.6 211.45 187.35
L 213.7 186.05
Q 213.9 185.95 213.9 185.8
L 213.9 185.55 Z"/>
</g>

<g id="Layer0_0_MEMBER_1_MEMBER_1_MEMBER_1_MEMBER_1_MEMBER_13_FILL">
<path fill="#393842" stroke="none" d="
M 210.15 188.1
Q 210.35 188.05 210.35 187.85
L 210.35 187.6 210.1 187.6 207.9 186.3
Q 207.5 186.15 207.05 186.3
L 204.8 187.6 204.65 187.6 204.65 187.9
Q 204.65 188.05 204.8 188.1
L 207.1 189.4
Q 207.5 189.7 207.9 189.4
L 210.15 188.1 Z"/>
</g>

<g id="Layer0_0_MEMBER_1_MEMBER_1_MEMBER_1_MEMBER_1_MEMBER_14_FILL">
<path fill="#393842" stroke="none" d="
M 201.1 189.95
Q 201.1 190.1 201.25 190.15
L 203.55 191.45
Q 203.95 191.75 204.35 191.45
L 206.6 190.15
Q 206.8 190.1 206.8 189.9
L 206.8 189.65 206.55 189.65 204.35 188.35
Q 203.95 188.2 203.5 188.35
L 201.3 189.65 201.1 189.65 201.1 189.95 Z"/>
</g>

<g id="Layer0_0_MEMBER_1_MEMBER_1_MEMBER_1_MEMBER_1_MEMBER_15_FILL">
<path fill="#393842" stroke="none" d="
M 200 193.55
Q 200.4 193.75 200.8 193.55
L 203.1 192.2
Q 203.25 192.15 203.25 192
L 203.25 191.7 203.05 191.7 200.8 190.45
Q 200.4 190.2 199.95 190.45
L 197.75 191.75 197.55 191.75 197.55 192
Q 197.55 192.15 197.7 192.2
L 200 193.55 Z"/>
</g>

<g id="Layer0_0_MEMBER_1_MEMBER_1_MEMBER_1_MEMBER_1_MEMBER_16_FILL">
<path fill="#393842" stroke="none" d="
M 196.45 195.6
Q 196.9 195.8 197.25 195.6
L 199.55 194.3
Q 199.7 194.15 199.7 194.05
L 199.7 193.75 199.5 193.75 197.25 192.5
Q 196.85 192.2 196.45 192.5
L 194.2 193.8 194 193.8 194 194.05
Q 194 194.15 194.15 194.3
L 196.45 195.6 Z"/>
</g>

<g id="Layer0_0_MEMBER_1_MEMBER_1_MEMBER_1_MEMBER_1_MEMBER_17_FILL">
<path fill="#393842" stroke="none" d="
M 190.45 196.1
Q 190.45 196.3 190.65 196.35
L 192.9 197.65
Q 193.35 197.9 193.75 197.65
L 196 196.35
Q 196.15 196.2 196.15 196.1
L 196.15 195.85 195.95 195.85 193.7 194.55
Q 193.3 194.25 192.9 194.55
L 190.65 195.85 190.45 195.85 190.45 196.1 Z"/>
</g>

<g id="Layer0_0_MEMBER_1_MEMBER_1_MEMBER_1_MEMBER_1_MEMBER_18_FILL">
<path fill="#393842" stroke="none" d="
M 186.85 193.9
L 186.65 193.9 186.65 194.2 186.85 194.4 189.1 195.7
Q 189.5 195.95 189.95 195.75
L 192.2 194.4
Q 192.35 194.35 192.35 194.15
L 192.35 193.9 192.15 193.9 189.9 192.6
Q 189.5 192.4 189.1 192.6
L 186.85 193.9 Z"/>
</g>

<g id="Layer0_0_MEMBER_1_MEMBER_1_MEMBER_1_MEMBER_1_MEMBER_19_FILL">
<path fill="#393842" stroke="none" d="
M 185.55 197.8
Q 186 197.95 186.4 197.8
L 188.65 196.45
Q 188.8 196.4 188.8 196.25
L 188.8 195.95 188.6 195.95 186.35 194.7
Q 186 194.45 185.55 194.7
L 183.3 196 183.1 196 183.1 196.25 183.3 196.45 185.55 197.8 Z"/>
</g>

<g id="Layer0_0_MEMBER_1_MEMBER_1_MEMBER_1_MEMBER_1_MEMBER_20_FILL">
<path fill="#393842" stroke="none" d="
M 181.5 200.65
Q 181.65 200.5 181.65 200.4
L 181.65 200.15 181.45 200.15 179.2 198.85
Q 178.75 198.6 178.4 198.85
L 176.15 200.15 175.95 200.15 175.95 200.4
Q 175.95 200.6 176.1 200.65
L 178.4 201.95
Q 178.8 202.25 179.2 201.95
L 181.5 200.65 Z"/>
</g>

<g id="Layer0_0_MEMBER_1_MEMBER_1_MEMBER_1_MEMBER_1_MEMBER_21_FILL">
<path fill="#393842" stroke="none" d="
M 185.55 202
L 185.3 202 183.1 200.7
Q 182.7 200.55 182.25 200.7
L 181.95 200.9 180 202 179.85 202 179.85 202.15 179.7 202.2 179.5 202.2 179.5 202.5 179.7 202.7 181.95 204
Q 182.4 204.25 182.8 204
L 185.35 202.5 185.55 202.3 185.55 202 Z"/>
</g>

<g id="Layer0_0_MEMBER_1_MEMBER_1_MEMBER_1_MEMBER_1_MEMBER_22_FILL">
<path fill="#393842" stroke="none" d="
M 187.1 197.9
L 186.9 197.9 186.9 198.15
Q 186.9 198.3 187.1 198.4
L 189.35 199.7
Q 189.8 199.95 190.2 199.7
L 192.45 198.4
Q 192.6 198.35 192.6 198.15
L 192.6 197.9 192.4 197.9 190.15 196.6
Q 189.75 196.3 189.35 196.6
L 187.1 197.9 Z"/>
</g>

<g id="Layer0_0_MEMBER_1_MEMBER_1_MEMBER_1_MEMBER_1_MEMBER_23_FILL">
<path fill="#393842" stroke="none" d="
M 188.9 200.45
Q 189.05 200.4 189.05 200.2
L 189.05 199.95 188.85 199.95 186.65 198.65
Q 186.25 198.5 185.8 198.65
L 183.55 199.95 183.35 199.95 183.35 200.25 183.55 200.45 185.8 201.75
Q 186.25 202 186.65 201.75
L 188.9 200.45 Z"/>
</g>

<g id="Layer0_0_MEMBER_1_MEMBER_1_MEMBER_1_MEMBER_1_MEMBER_24_FILL">
<path fill="#393842" stroke="none" d="
M 221.3 185.3
Q 221.75 185.55 222.15 185.3
L 224.4 184
Q 224.6 183.9 224.6 183.75
L 224.6 183.5 224.35 183.5 222.15 182.2
Q 221.75 182.05 221.3 182.2
L 219.05 183.5 218.85 183.5 218.85 183.8 218.9 183.8
Q 218.9 183.95 219.05 184
L 221.3 185.3 Z"/>
</g>

<g id="Layer0_0_MEMBER_1_MEMBER_1_MEMBER_1_MEMBER_1_MEMBER_25_FILL">
<path fill="#393842" stroke="none" d="
M 215.55 185.6
L 215.35 185.6 215.35 185.85
Q 215.35 186 215.5 186.05
L 217.8 187.4
Q 218.2 187.6 218.6 187.4
L 220.85 186.05
Q 221.05 186 221.05 185.85
L 221.05 185.55 220.8 185.55 218.6 184.3
Q 218.2 184.05 217.75 184.3
L 215.55 185.6 Z"/>
</g>

<g id="Layer0_0_MEMBER_1_MEMBER_1_MEMBER_1_MEMBER_1_MEMBER_26_FILL">
<path fill="#393842" stroke="none" d="
M 211.8 187.9
Q 211.8 188 211.95 188.15
L 214.25 189.45
Q 214.65 189.65 215.05 189.45
L 217.3 188.15
Q 217.5 188 217.5 187.9
L 217.5 187.6 217.25 187.6 215.05 186.35
Q 214.65 186.1 214.2 186.35
L 212 187.65 211.8 187.65 211.8 187.9 Z"/>
</g>

<g id="Layer0_0_MEMBER_1_MEMBER_1_MEMBER_1_MEMBER_1_MEMBER_27_FILL">
<path fill="#393842" stroke="none" d="
M 210.7 191.5
Q 211.1 191.8 211.5 191.5
L 213.8 190.2
Q 213.95 190.05 213.95 189.95
L 213.95 189.7 213.75 189.7 211.5 188.4
Q 211.05 188.15 210.7 188.4
L 208.45 189.7 208.25 189.7 208.25 189.95
Q 208.25 190.15 208.4 190.2
L 210.7 191.5 Z"/>
</g>

<g id="Layer0_0_MEMBER_1_MEMBER_1_MEMBER_1_MEMBER_1_MEMBER_28_FILL">
<path fill="#393842" stroke="none" d="
M 210.4 191.75
L 210.2 191.75 207.95 190.45
Q 207.55 190.15 207.15 190.45
L 204.9 191.75 204.7 191.75 204.7 192
Q 204.7 192.2 204.85 192.25
L 207.15 193.55
Q 207.6 193.8 207.95 193.55
L 210.25 192.25
Q 210.4 192.2 210.4 192
L 210.4 191.75 Z"/>
</g>

<g id="Layer0_0_MEMBER_1_MEMBER_1_MEMBER_1_MEMBER_1_MEMBER_29_FILL">
<path fill="#393842" stroke="none" d="
M 201.15 194.1
Q 201.15 194.25 201.35 194.3
L 203.6 195.6
Q 204.05 195.85 204.45 195.6
L 206.7 194.3
Q 206.85 194.25 206.85 194.05
L 206.85 193.8 206.65 193.8 204.4 192.5
Q 204 192.3 203.6 192.5
L 201.35 193.8 201.15 193.8 201.15 194.1 Z"/>
</g>

<g id="Layer0_0_MEMBER_1_MEMBER_1_MEMBER_1_MEMBER_1_MEMBER_30_FILL">
<path fill="#393842" stroke="none" d="
M 200.05 197.7
Q 200.5 197.85 200.9 197.7
L 203.15 196.35
Q 203.3 196.3 203.3 196.15
L 203.3 195.85 203.1 195.85 200.85 194.55
Q 200.45 194.35 200.05 194.55
L 197.8 195.85 197.6 195.85 197.6 196.15 197.8 196.35 200.05 197.7 Z"/>
</g>

<g id="Layer0_0_MEMBER_1_MEMBER_1_MEMBER_1_MEMBER_1_MEMBER_31_FILL">
<path fill="#393842" stroke="none" d="
M 194.25 197.95
L 194.05 197.95 194.05 198.2 194.25 198.4 196.5 199.75
Q 196.95 199.9 197.35 199.75
L 199.6 198.4
Q 199.75 198.35 199.75 198.2
L 199.75 197.9 199.55 197.9 197.35 196.65
Q 196.95 196.4 196.5 196.65
L 194.25 197.95 Z"/>
</g>

<g id="Layer0_0_MEMBER_1_MEMBER_1_MEMBER_1_MEMBER_1_MEMBER_32_FILL">
<path fill="#393842" stroke="none" d="
M 196.05 200.5
Q 196.25 200.35 196.25 200.25
L 196.25 200 196 200 193.8 198.7
Q 193.4 198.45 192.95 198.7
L 190.7 200 190.55 200 190.55 200.25
Q 190.55 200.35 190.7 200.5
L 193 201.8
Q 193.35 202.05 193.8 201.8
L 196.05 200.5 Z"/>
</g>

<g id="Layer0_0_MEMBER_1_MEMBER_1_MEMBER_1_MEMBER_1_MEMBER_33_FILL">
<path fill="#393842" stroke="none" d="
M 220.9 186.65
L 220.7 186.65 220.7 186.9
Q 220.7 186.95 220.9 187.15
L 223.15 188.45
Q 223.6 188.6 224 188.45
L 226.25 187.15 226.4 186.9 226.4 186.6 226.2 186.6 223.95 185.35
Q 223.55 185.05 223.15 185.35
L 220.9 186.65 Z"/>
</g>

<g id="Layer0_0_MEMBER_1_MEMBER_1_MEMBER_1_MEMBER_1_MEMBER_34_FILL">
<path fill="#393842" stroke="none" d="
M 220.45 190.5
L 222.7 189.2
Q 222.85 189.05 222.85 188.95
L 222.85 188.7 222.65 188.7 220.45 187.4
Q 220.05 187.15 219.6 187.4
L 217.35 188.7 217.15 188.7 217.15 188.95 217.35 189.2 219.6 190.5
Q 220.05 190.75 220.45 190.5 Z"/>
</g>

<g id="Layer0_0_MEMBER_1_MEMBER_1_MEMBER_1_MEMBER_1_MEMBER_35_FILL">
<path fill="#393842" stroke="none" d="
M 219.15 191.25
Q 219.35 191.2 219.35 191
L 219.35 190.75 219.1 190.75 216.9 189.45
Q 216.5 189.2 216.05 189.45
L 213.8 190.75 213.65 190.75 213.65 191
Q 213.65 191.2 213.8 191.25
L 216.1 192.55
Q 216.45 192.8 216.9 192.55
L 219.15 191.25 Z"/>
</g>

<g id="Layer0_0_MEMBER_1_MEMBER_1_MEMBER_1_MEMBER_1_MEMBER_36_FILL">
<path fill="#393842" stroke="none" d="
M 210.25 193.3
L 212.55 194.6
Q 212.95 194.9 213.35 194.6
L 215.6 193.3
Q 215.8 193.25 215.8 193.05
L 215.8 192.8 215.55 192.8 213.35 191.5
Q 212.95 191.35 212.5 191.5
L 210.3 192.8 210.1 192.8 210.1 193.1
Q 210.1 193.25 210.25 193.3 Z"/>
</g>

<g id="Layer0_0_MEMBER_1_MEMBER_1_MEMBER_1_MEMBER_1_MEMBER_37_FILL">
<path fill="#393842" stroke="none" d="
M 206.75 194.85
L 206.55 194.85 206.55 195.15
Q 206.55 195.3 206.7 195.35
L 209 196.7
Q 209.4 196.9 209.8 196.7
L 212.1 195.35
Q 212.25 195.3 212.25 195.1
L 212.25 194.85 212.05 194.85 209.8 193.55
Q 209.4 193.4 208.95 193.55
L 206.75 194.85 Z"/>
</g>

<g id="Layer0_0_MEMBER_1_MEMBER_1_MEMBER_1_MEMBER_1_MEMBER_38_FILL">
<path fill="#393842" stroke="none" d="
M 206.25 195.65
Q 205.8 195.4 205.45 195.65
L 203.2 196.95 203 196.95 203 197.2
Q 203 197.35 203.15 197.4
L 205.45 198.75
Q 205.9 198.95 206.25 198.75
L 208.55 197.4
Q 208.7 197.35 208.7 197.2
L 208.7 196.9 208.5 196.9 206.25 195.65 Z"/>
</g>

<g id="Layer0_0_MEMBER_1_MEMBER_1_MEMBER_1_MEMBER_1_MEMBER_39_FILL">
<path fill="#393842" stroke="none" d="
M 202.7 197.7
Q 202.3 197.4 201.9 197.7
L 199.65 199 199.45 199 199.45 199.25
Q 199.45 199.35 199.65 199.5
L 201.9 200.8
Q 202.35 201.05 202.75 200.8
L 205 199.5
Q 205.15 199.35 205.15 199.25
L 205.15 199 204.95 199 202.7 197.7 Z"/>
</g>

<g id="Layer0_0_MEMBER_1_MEMBER_1_MEMBER_1_MEMBER_1_MEMBER_40_FILL">
<path fill="#393842" stroke="none" d="
M 201.45 201.55
Q 201.6 201.4 201.6 201.3
L 201.6 201.05 201.4 201.05 199.15 199.75
Q 198.75 199.45 198.35 199.75
L 196.1 201.05 195.9 201.05 195.9 201.3
Q 195.9 201.45 196.1 201.55
L 198.35 202.85
Q 198.8 203.1 199.2 202.85
L 201.45 201.55 Z"/>
</g>

<g id="Layer0_0_MEMBER_1_MEMBER_1_MEMBER_1_MEMBER_1_MEMBER_41_FILL">
<path fill="#393842" stroke="none" d="
M 198.05 203.35
L 198.05 203.1 197.85 203.1 195.6 201.8
Q 195.3 201.6 194.8 201.8
L 192.55 203.1 192.35 203.1 192.35 203.4 192.55 203.6 194.8 204.9
Q 195.25 205.15 195.65 204.9
L 197.9 203.6
Q 198.05 203.55 198.05 203.35 Z"/>
</g>

<g id="Layer0_0_MEMBER_1_MEMBER_1_MEMBER_1_MEMBER_1_MEMBER_42_FILL">
<path fill="#393842" stroke="none" d="
M 235.3 185.45
L 233.1 184.15
Q 232.7 184 232.25 184.15
L 230 185.45 229.85 185.45 229.85 185.75
Q 229.85 185.9 230 185.95
L 232.25 187.3
Q 232.7 187.45 233.1 187.3
L 235.35 185.95
Q 235.55 185.85 235.55 185.7
L 235.55 185.45 235.3 185.45 Z"/>
</g>

<g id="Layer0_0_MEMBER_1_MEMBER_1_MEMBER_1_MEMBER_1_MEMBER_43_FILL">
<path fill="#393842" stroke="none" d="
M 231.8 188
Q 232 187.95 232 187.8
L 232 187.5 231.75 187.5 229.55 186.25
Q 229.15 186 228.7 186.25
L 226.5 187.55 226.3 187.55 226.3 187.8
Q 226.3 187.95 226.45 188
L 228.75 189.35
Q 229.15 189.55 229.55 189.35
L 231.8 188 Z"/>
</g>

<g id="Layer0_0_MEMBER_1_MEMBER_1_MEMBER_1_MEMBER_1_MEMBER_44_FILL">
<path fill="#393842" stroke="none" d="
M 228.25 190.1
Q 228.45 189.95 228.45 189.85
L 228.45 189.6 228.2 189.6 226 188.3
Q 225.6 188.05 225.15 188.3
L 222.95 189.6 222.75 189.6 222.75 189.85
Q 222.75 189.95 222.9 190.1
L 225.2 191.4
Q 225.6 191.7 226 191.4
L 228.25 190.1 Z"/>
</g>

<g id="Layer0_0_MEMBER_1_MEMBER_1_MEMBER_1_MEMBER_1_MEMBER_45_FILL">
<path fill="#393842" stroke="none" d="
M 221.65 193.45
Q 222.05 193.75 222.45 193.45
L 224.75 192.15
Q 224.9 192 224.9 191.9
L 224.9 191.65 224.7 191.65 222.45 190.35
Q 222 190.1 221.65 190.35
L 219.4 191.65 219.2 191.65 219.2 191.9
Q 219.2 192.1 219.35 192.15
L 221.65 193.45 Z"/>
</g>

<g id="Layer0_0_MEMBER_1_MEMBER_1_MEMBER_1_MEMBER_1_MEMBER_46_FILL">
<path fill="#393842" stroke="none" d="
M 215.85 193.7
L 215.65 193.7 215.65 194
Q 215.65 194.15 215.85 194.2
L 218.1 195.5
Q 218.55 195.75 218.95 195.5
L 221.2 194.2
Q 221.35 194.15 221.35 193.95
L 221.35 193.7 221.15 193.7 218.9 192.4
Q 218.5 192.2 218.1 192.4
L 215.85 193.7 Z"/>
</g>

<g id="Layer0_0_MEMBER_1_MEMBER_1_MEMBER_1_MEMBER_1_MEMBER_47_FILL">
<path fill="#393842" stroke="none" d="
M 212.1 196.05
L 212.3 196.25 214.55 197.55
Q 215 197.8 215.4 197.55
L 217.65 196.25
Q 217.8 196.2 217.8 196
L 217.8 195.75 217.6 195.75 215.35 194.45
Q 214.95 194.25 214.55 194.45
L 212.3 195.75 212.1 195.75 212.1 196.05 Z"/>
</g>

<g id="Layer0_0_MEMBER_1_MEMBER_1_MEMBER_1_MEMBER_1_MEMBER_48_FILL">
<path fill="#393842" stroke="none" d="
M 208.75 197.85
L 208.55 197.85 208.55 198.1 208.75 198.3 211 199.65
Q 211.45 199.8 211.85 199.65
L 214.1 198.3
Q 214.25 198.25 214.25 198.1
L 214.25 197.8 214.05 197.8 211.8 196.55
Q 211.4 196.25 211 196.55
L 208.75 197.85 Z"/>
</g>

<g id="Layer0_0_MEMBER_1_MEMBER_1_MEMBER_1_MEMBER_1_MEMBER_49_FILL">
<path fill="#393842" stroke="none" d="
M 210.55 200.4
L 210.75 200.15 210.75 199.85 210.5 199.85 208.3 198.6
Q 207.9 198.35 207.45 198.6
L 205.2 199.9 205 199.9 205 200.15 205.05 200.15
Q 205.05 200.25 205.2 200.4
L 207.45 201.7
Q 207.9 201.85 208.3 201.7
L 210.55 200.4 Z"/>
</g>

<g id="Layer0_0_MEMBER_1_MEMBER_1_MEMBER_1_MEMBER_1_MEMBER_50_FILL">
<path fill="#393842" stroke="none" d="
M 207 202.45
Q 207.2 202.3 207.2 202.2
L 207.2 201.95 206.95 201.95 204.75 200.65
Q 204.35 200.4 203.9 200.65
L 201.7 201.95 201.5 201.95 201.5 202.2
Q 201.5 202.3 201.65 202.45
L 203.95 203.75
Q 204.35 204.05 204.75 203.75
L 207 202.45 Z"/>
</g>

<g id="Layer0_0_MEMBER_1_MEMBER_1_MEMBER_1_MEMBER_1_MEMBER_51_FILL">
<path fill="#393842" stroke="none" d="
M 203.45 204.5
Q 203.65 204.45 203.65 204.25
L 203.65 204 203.4 204 201.2 202.7
Q 200.8 202.45 200.35 202.7
L 198.15 204 197.95 204 197.95 204.25
Q 197.95 204.45 198.1 204.5
L 200.4 205.8
Q 200.8 206.1 201.2 205.8
L 203.45 204.5 Z"/>
</g>

<g id="Layer0_0_MEMBER_1_MEMBER_1_MEMBER_1_MEMBER_1_MEMBER_52_FILL">
<path fill="#393842" stroke="none" d="
M 196.85 204.75
L 194.6 206.05 194.4 206.05 194.4 206.35
Q 194.4 206.5 194.55 206.55
L 196.85 207.85
Q 197.25 208.15 197.65 207.85
L 199.95 206.55
Q 200.1 206.5 200.1 206.3
L 200.1 206.05 199.9 206.05 197.65 204.75
Q 197.2 204.55 196.85 204.75 Z"/>
</g>

<g id="Layer0_0_MEMBER_1_MEMBER_1_MEMBER_1_MEMBER_1_MEMBER_53_FILL">
<path fill="#393842" stroke="none" d="
M 196.55 208.35
L 196.55 208.1 196.35 208.1 194.1 206.8
Q 193.7 206.6 193.3 206.8
L 190.55 208.4 190.3 208.45 190.3 208.7
Q 190.3 208.75 190.5 208.95
L 192.75 210.25
Q 193.2 210.5 193.6 210.25
L 196.4 208.6
Q 196.55 208.55 196.55 208.35 Z"/>
</g>

<g id="Layer0_0_MEMBER_1_MEMBER_1_MEMBER_1_MEMBER_1_MEMBER_54_FILL">
<path fill="#393842" stroke="none" d="
M 190.3 192.25
L 190.3 192.3 192.85 193.75 193.05 193.75
Q 193.35 193.75 193.5 193.65
L 213.9 181.8
Q 214.1 181.65 214.1 181.55
L 214.1 181.3 213.85 181.3 211.65 180
Q 211.3 179.85 211 179.9
L 210.8 180 208.6 181.3 208.4 181.3 208.4 181.4 190.4 191.85 190.2 191.85 190.2 192.2 190.25 192.2 190.25 192.25 190.3 192.25 Z"/>
</g>

<g id="Layer0_0_MEMBER_1_MEMBER_1_MEMBER_1_MEMBER_1_MEMBER_55_FILL">
<path fill="#393842" stroke="none" d="
M 240.25 185.3
L 240.45 185.1 240.45 184.85 240.25 184.85 239.65 184.5
Q 239.25 184.25 238.8 184.5
L 236.75 185.7 236.4 185.8 236.4 186.05
Q 236.4 186.15 236.55 186.3
L 237.15 186.65
Q 237.6 186.8 238 186.65
L 240.25 185.3 Z"/>
</g>

<g id="Layer0_0_MEMBER_1_MEMBER_1_MEMBER_1_MEMBER_1_MEMBER_56_FILL">
<path fill="#393842" stroke="none" d="
M 232.85 187.85
L 232.85 188.1
Q 232.85 188.3 233 188.35
L 233.65 188.7
Q 234.05 189 234.45 188.7
L 236.7 187.4
Q 236.9 187.25 236.9 187.15
L 236.9 186.9 236.7 186.9 236.1 186.55
Q 235.65 186.3 235.3 186.55
L 233.2 187.75 232.85 187.85 Z"/>
</g>

<g id="Layer0_0_MEMBER_1_MEMBER_1_MEMBER_1_MEMBER_1_MEMBER_57_FILL">
<path fill="#393842" stroke="none" d="
M 230.1 190.75
Q 230.5 191.05 230.9 190.75
L 233.15 189.45
Q 233.35 189.4 233.35 189.2
L 233.35 188.95 233.2 189 233.15 188.95 232.55 188.6
Q 232.15 188.4 231.75 188.6
L 229.65 189.8 229.3 189.9 229.3 190.15
Q 229.3 190.35 229.5 190.4
L 230.1 190.75 Z"/>
</g>

<g id="Layer0_0_MEMBER_1_MEMBER_1_MEMBER_1_MEMBER_1_MEMBER_58_FILL">
<path fill="#393842" stroke="none" d="
M 229.65 191.5
Q 229.8 191.45 229.8 191.25
L 229.8 191 229.65 191.05 229.65 191 229 190.65
Q 228.6 190.45 228.2 190.65
L 226.1 191.9 225.75 191.95 225.75 192.25
Q 225.75 192.4 225.95 192.45
L 226.55 192.8
Q 226.95 193.1 227.35 192.8
L 229.65 191.5 Z"/>
</g>

<g id="Layer0_0_MEMBER_1_MEMBER_1_MEMBER_1_MEMBER_1_MEMBER_59_FILL">
<path fill="#393842" stroke="none" d="
M 222.55 193.95
L 222.2 194 222.2 194.3 222.4 194.5 223 194.85
Q 223.45 195.1 223.85 194.85
L 226.1 193.55
Q 226.25 193.5 226.25 193.3
L 226.25 193.05 226.1 193.1 225.45 192.75
Q 225.05 192.45 224.65 192.75
L 222.55 193.95 Z"/>
</g>

<g id="Layer0_0_MEMBER_1_MEMBER_1_MEMBER_1_MEMBER_1_MEMBER_60_FILL">
<path fill="#393842" stroke="none" d="
M 221.95 194.8
Q 221.55 194.55 221.1 194.8
L 219 196 218.65 196.1 218.7 196.35
Q 218.7 196.45 218.85 196.6
L 219.45 196.95
Q 219.9 197.1 220.3 196.95
L 222.55 195.6
Q 222.7 195.55 222.7 195.4
L 222.7 195.1 222.55 195.15 221.95 194.8 Z"/>
</g>

<g id="Layer0_0_MEMBER_1_MEMBER_1_MEMBER_1_MEMBER_1_MEMBER_61_FILL">
<path fill="#393842" stroke="none" d="
M 219 197.7
Q 219.15 197.55 219.15 197.45
L 219.15 197.2 219 197.2 218.4 196.85
Q 218 196.6 217.55 196.85
L 215.45 198.05 215.15 198.15 215.15 198.4
Q 215.15 198.5 215.3 198.65
L 215.9 199
Q 216.35 199.15 216.75 199
L 219 197.7 Z"/>
</g>

<g id="Layer0_0_MEMBER_1_MEMBER_1_MEMBER_1_MEMBER_1_MEMBER_62_FILL">
<path fill="#393842" stroke="none" d="
M 215.45 199.75
L 215.65 199.5 215.65 199.25 215.5 199.3 215.45 199.25 214.85 198.9
Q 214.45 198.65 214 198.9
L 211.9 200.1 211.6 200.2 211.6 200.45
Q 211.6 200.65 211.75 200.7
L 212.35 201.05
Q 212.8 201.3 213.2 201.05
L 215.45 199.75 Z"/>
</g>

<g id="Layer0_0_MEMBER_1_MEMBER_1_MEMBER_1_MEMBER_1_MEMBER_63_FILL">
<path fill="#393842" stroke="none" d="
M 211.3 200.95
Q 210.9 200.8 210.45 200.95
L 208.4 202.2 208.05 202.25 208.05 202.55
Q 208.05 202.7 208.2 202.75
L 208.85 203.1
Q 209.25 203.4 209.65 203.1
L 211.9 201.8
Q 212.1 201.75 212.1 201.55
L 212.1 201.3 211.95 201.35 211.9 201.3 211.3 200.95 Z"/>
</g>

<g id="Layer0_0_MEMBER_1_MEMBER_1_MEMBER_1_MEMBER_1_MEMBER_64_FILL">
<path fill="#393842" stroke="none" d="
M 208.35 203.85
Q 208.55 203.8 208.55 203.6
L 208.55 203.35 208.4 203.4 208.35 203.4 207.75 203
Q 207.35 202.8 206.95 203
L 204.85 204.25 204.5 204.3 204.5 204.6
Q 204.5 204.75 204.65 204.8
L 205.3 205.15
Q 205.7 205.45 206.1 205.15
L 208.35 203.85 Z"/>
</g>

<g id="Layer0_0_MEMBER_1_MEMBER_1_MEMBER_1_MEMBER_1_MEMBER_65_FILL">
<path fill="#393842" stroke="none" d="
M 204.85 205.9
Q 205 205.85 205 205.7
L 205 205.4 204.85 205.45 204.8 205.45 204.2 205.1
Q 203.8 204.8 203.4 205.1
L 201.3 206.3 200.95 206.4 200.95 206.65
Q 200.95 206.8 201.15 206.85
L 201.75 207.2
Q 202.1 207.45 202.55 207.25
L 204.85 205.9 Z"/>
</g>

<g id="Layer0_0_MEMBER_1_MEMBER_1_MEMBER_1_MEMBER_1_MEMBER_66_FILL">
<path fill="#393842" stroke="none" d="
M 197.4 208.45
L 197.4 208.7
Q 197.4 208.75 197.6 208.95
L 198.2 209.3
Q 198.65 209.45 199.05 209.3
L 201.3 207.95
Q 201.45 207.9 201.45 207.75
L 201.45 207.5 201.3 207.5 200.65 207.15
Q 200.25 206.85 199.85 207.15
L 197.75 208.35 197.4 208.45 Z"/>
</g>

<g id="Layer0_0_MEMBER_1_MEMBER_1_MEMBER_1_MEMBER_1_MEMBER_67_FILL">
<path fill="#393842" stroke="none" d="
M 197.75 210.05
Q 197.9 209.9 197.9 209.8
L 197.9 209.55 197.75 209.55 197.15 209.2
Q 196.75 208.95 196.3 209.2
L 194.2 210.4 193.85 210.5 193.85 210.75
Q 193.95 210.95 194.05 211
L 194.65 211.35
Q 195.15 211.55 195.5 211.35
L 197.75 210.05 Z"/>
</g>

<g id="Layer0_0_MEMBER_1_MEMBER_1_MEMBER_1_MEMBER_1_MEMBER_68_FILL">
<path fill="#393842" stroke="none" d="
M 239 179.55
L 239 179.3 238.85 179.3 236.6 178
Q 236.2 177.75 235.75 178
L 231.55 180.4 231.3 180.45 231.3 180.7 231.5 180.95 233.75 182.25
Q 234.2 182.5 234.6 182.25
L 238.85 179.75
Q 239 179.7 239 179.55 Z"/>
</g>

<g id="Layer0_0_MEMBER_1_MEMBER_1_MEMBER_1_MEMBER_1_MEMBER_69_FILL">
<path fill="#393842" stroke="none" d="
M 235.45 177.45
L 235.45 177.2 235.3 177.25 235.25 177.2 233 175.9
Q 232.6 175.75 232.15 175.9
L 226.25 179.35 225.95 179.4 225.95 179.65
Q 225.95 179.85 226.15 179.9
L 228.4 181.2
Q 228.85 181.45 229.25 181.2
L 235.25 177.7
Q 235.45 177.65 235.45 177.45 Z"/>
</g>

<g id="Layer0_0_MEMBER_1_MEMBER_1_MEMBER_1_MEMBER_1_MEMBER_70_FILL">
<path fill="#393842" stroke="none" d="
M 222.65 177.25
L 222.35 177.3 222.35 177.55
Q 222.35 177.75 222.5 177.8
L 224.8 179.1
Q 225.2 179.4 225.6 179.1
L 231.65 175.6
Q 231.8 175.55 231.8 175.35
L 231.8 175.1 231.65 175.15 229.35 173.8
Q 228.95 173.6 228.55 173.8
L 222.65 177.25 Z"/>
</g>

<g id="Layer0_0_MEMBER_1_MEMBER_1_MEMBER_1_MEMBER_1_MEMBER_71_FILL">
<path fill="#393842" stroke="none" d="
M 194.5 205.4
L 194.5 205.15 194.35 205.15 192.05 203.85
Q 191.65 203.55 191.25 203.85
L 186.95 206.35 186.7 206.4 186.7 206.65 186.9 206.85 189.15 208.15
Q 189.6 208.4 190 208.15
L 194.35 205.65
Q 194.5 205.6 194.5 205.4 Z"/>
</g>

<g id="Layer0_0_MEMBER_1_MEMBER_1_MEMBER_1_MEMBER_1_MEMBER_72_FILL">
<path fill="#393842" stroke="none" d="
M 192.5 202.55
Q 192.9 202.3 192.5 202.05
L 190.25 200.75
Q 189.85 200.5 189.4 200.75
L 183.3 204.3
Q 182.9 204.55 183.3 204.8
L 185.55 206.1
Q 186 206.35 186.4 206.1
L 192.5 202.55 Z"/>
</g>

<g id="Layer0_0_MEMBER_1_MEMBER_1_MEMBER_1_MEMBER_1_MEMBER_73_FILL">
<path fill="#393842" stroke="none" d="
M 184.5 197.7
Q 184.1 197.45 183.65 197.7
L 181.6 198.9 181.25 199 181.25 199.25
Q 181.25 199.45 181.4 199.5
L 182 199.85
Q 182.45 200.1 182.85 199.85
L 185.1 198.55
Q 185.3 198.35 185.3 198.3
L 185.3 198.05 185.1 198.05 184.5 197.7 Z"/>
</g>

<g id="Layer0_0_MEMBER_1_MEMBER_1_MEMBER_1_MEMBER_1_MEMBER_74_FILL">
<path fill="#393842" stroke="none" d="
M 183.45 197.55
Q 183.6 197.5 183.6 197.35
L 183.6 197.1 183.45 197.1 182.85 196.75
Q 182.45 196.5 182 196.75
L 179.9 197.95 179.6 198.05 179.6 198.3
Q 179.6 198.4 179.75 198.55
L 180.35 198.9
Q 180.8 199.05 181.2 198.9
L 183.45 197.55 Z"/>
</g>

<g id="Layer0_0_MEMBER_1_MEMBER_1_MEMBER_1_MEMBER_2_FILL">
<path fill="#393842" stroke="none" d="
M 240.7 184.6
Q 241.15 184.75 241.55 184.6
L 244.35 182.95
Q 244.5 182.9 244.5 182.7
L 244.5 182.4 244.35 182.45 243.75 182.1
Q 243.35 181.95 242.9 182.1
L 240.3 183.65 239.95 183.75 239.95 184
Q 239.95 184.15 240.1 184.2
L 240.7 184.6 Z"/>
</g>

<g id="Layer0_0_MEMBER_1_MEMBER_1_MEMBER_1_MEMBER_3_MEMBER_0_FILL">
<path fill="#393842" stroke="none" d="
M 237.1 181.15
Q 236.7 181.4 237.1 181.65
L 239.35 182.95
Q 239.8 183.1 240.2 182.95
L 242.45 181.65
Q 242.8 181.4 242.45 181.15
L 240.15 179.85
Q 239.75 179.55 239.35 179.85
L 237.1 181.15 Z"/>
</g>

<g id="Layer0_0_MEMBER_1_MEMBER_1_MEMBER_1_MEMBER_3_MEMBER_1_FILL">
<path fill="#393842" stroke="none" d="
M 233.55 183.2
Q 233.15 183.45 233.55 183.7
L 235.8 185
Q 236.25 185.25 236.65 185
L 238.9 183.7
Q 239.3 183.45 238.9 183.2
L 236.6 181.9
Q 236.25 181.65 235.8 181.9
L 233.55 183.2 Z"/>
</g>

<g id="Layer0_0_MEMBER_1_MEMBER_1_MEMBER_1_MEMBER_3_MEMBER_2_FILL">
<path fill="#393842" stroke="none" d="
M 230 185.25
Q 229.6 185.5 230 185.75
L 232.25 187.05
Q 232.7 187.3 233.1 187.05
L 235.35 185.75
Q 235.75 185.5 235.35 185.25
L 233.1 183.95
Q 232.7 183.7 232.25 183.95
L 230 185.25 Z"/>
</g>

<g id="Layer0_0_MEMBER_1_MEMBER_1_MEMBER_1_MEMBER_3_MEMBER_3_FILL">
<path fill="#393842" stroke="none" d="
M 226.45 187.35
Q 226.1 187.55 226.45 187.8
L 228.75 189.1
Q 229.15 189.4 229.55 189.1
L 231.8 187.8
Q 232.25 187.55 231.8 187.35
L 229.55 186
Q 229.15 185.85 228.7 186
L 226.45 187.35 Z"/>
</g>

<g id="Layer0_0_MEMBER_1_MEMBER_1_MEMBER_1_MEMBER_3_MEMBER_4_FILL">
<path fill="#393842" stroke="none" d="
M 228.25 189.85
Q 228.45 189.8 228.45 189.65 228.45 189.5 228.25 189.4
L 226 188.05
Q 225.6 187.9 225.15 188.05
L 222.9 189.4
Q 222.75 189.5 222.75 189.65 222.75 189.8 222.9 189.85
L 225.2 191.2
Q 225.6 191.4 226 191.2
L 228.25 189.85 Z"/>
</g>

<g id="Layer0_0_MEMBER_1_MEMBER_1_MEMBER_1_MEMBER_3_MEMBER_5_FILL">
<path fill="#393842" stroke="none" d="
M 219.35 191.45
Q 219 191.7 219.35 191.9
L 221.65 193.25
Q 222.05 193.45 222.45 193.25
L 224.75 191.9
Q 225.1 191.7 224.75 191.45
L 222.45 190.15
Q 222 189.9 221.65 190.15
L 219.35 191.45 Z"/>
</g>

<g id="Layer0_0_MEMBER_1_MEMBER_1_MEMBER_1_MEMBER_3_MEMBER_6_FILL">
<path fill="#393842" stroke="none" d="
M 215.8 193.5
Q 215.45 193.75 215.85 194
L 218.1 195.3
Q 218.55 195.55 218.95 195.3
L 221.2 194
Q 221.55 193.75 221.2 193.5
L 218.9 192.2
Q 218.5 191.9 218.1 192.2
L 215.8 193.5 Z"/>
</g>

<g id="Layer0_0_MEMBER_1_MEMBER_1_MEMBER_1_MEMBER_3_MEMBER_7_FILL">
<path fill="#393842" stroke="none" d="
M 212.3 195.55
Q 211.9 195.8 212.3 196.05
L 214.55 197.35
Q 215 197.6 215.4 197.35
L 217.65 196.05
Q 218 195.8 217.65 195.55
L 215.35 194.25
Q 214.95 193.95 214.55 194.25
L 212.3 195.55 Z"/>
</g>

<g id="Layer0_0_MEMBER_1_MEMBER_1_MEMBER_1_MEMBER_3_MEMBER_8_FILL">
<path fill="#393842" stroke="none" d="
M 211 196.3
L 208.75 197.6
Q 208.35 197.85 208.75 198.1
L 211 199.4
Q 211.45 199.65 211.85 199.4
L 214.1 198.1
Q 214.5 197.85 214.1 197.6
L 211.8 196.3
Q 211.45 196.1 211 196.3 Z"/>
</g>

<g id="Layer0_0_MEMBER_1_MEMBER_1_MEMBER_1_MEMBER_3_MEMBER_9_FILL">
<path fill="#393842" stroke="none" d="
M 208.3 201.45
L 210.55 200.15
Q 210.75 200.1 210.75 199.95 210.75 199.8 210.55 199.7
L 208.3 198.35
Q 207.9 198.2 207.45 198.35
L 205.2 199.7
Q 205 199.8 205 199.95 205 200.1 205.2 200.15
L 207.45 201.45
Q 207.9 201.7 208.3 201.45 Z"/>
</g>

<g id="Layer0_0_MEMBER_1_MEMBER_1_MEMBER_1_MEMBER_3_MEMBER_10_FILL">
<path fill="#57565E" stroke="none" d="
M 204.75 200.45
Q 204.35 200.2 203.9 200.45
L 201.65 201.75
Q 201.45 201.8 201.5 202 201.5 202.1 201.65 202.2
L 203.95 203.55
Q 204.35 203.75 204.75 203.55
L 207 202.2
Q 207.2 202.15 207.2 202 207.2 201.85 207 201.75
L 204.75 200.45 Z"/>
</g>

<g id="Layer0_0_MEMBER_1_MEMBER_1_MEMBER_1_MEMBER_3_MEMBER_11_FILL">
<path fill="#393842" stroke="none" d="
M 224.45 184.35
Q 224.05 184.6 224.45 184.85
L 226.7 186.15
Q 227.15 186.4 227.55 186.15
L 229.8 184.85
Q 230.15 184.6 229.8 184.35
L 227.5 183.05
Q 227.1 182.85 226.7 183.05
L 224.45 184.35 Z"/>
</g>

<g id="Layer0_0_MEMBER_1_MEMBER_1_MEMBER_1_MEMBER_3_MEMBER_12_FILL">
<path fill="#393842" stroke="none" d="
M 220.7 186.7
Q 220.7 186.85 220.9 186.9
L 223.15 188.2
Q 223.6 188.45 224 188.2
L 226.25 186.9
Q 226.4 186.85 226.4 186.7 226.4 186.55 226.25 186.45
L 223.95 185.1
Q 223.55 184.9 223.15 185.1
L 220.9 186.45
Q 220.7 186.55 220.7 186.7 Z"/>
</g>

<g id="Layer0_0_MEMBER_1_MEMBER_1_MEMBER_1_MEMBER_3_MEMBER_13_FILL">
<path fill="#393842" stroke="none" d="
M 217.15 188.75
Q 217.15 188.9 217.35 188.95
L 219.6 190.3
Q 220.05 190.45 220.45 190.3
L 222.7 188.95
Q 222.9 188.9 222.9 188.75 222.9 188.6 222.7 188.5
L 220.45 187.2
Q 220.05 186.95 219.6 187.2
L 217.35 188.5
Q 217.15 188.6 217.15 188.75 Z"/>
</g>

<g id="Layer0_0_MEMBER_1_MEMBER_1_MEMBER_1_MEMBER_3_MEMBER_14_FILL">
<path fill="#393842" stroke="none" d="
M 213.8 190.55
Q 213.4 190.8 213.8 191.05
L 216.1 192.35
Q 216.45 192.55 216.9 192.35
L 219.15 191.05
Q 219.55 190.8 219.15 190.55
L 216.9 189.25
Q 216.5 189 216.05 189.25
L 213.8 190.55 Z"/>
</g>

<g id="Layer0_0_MEMBER_1_MEMBER_1_MEMBER_1_MEMBER_3_MEMBER_15_FILL">
<path fill="#393842" stroke="none" d="
M 210.25 192.6
Q 209.9 192.85 210.25 193.1
L 212.55 194.4
Q 212.95 194.7 213.35 194.4
L 215.6 193.1
Q 216 192.85 215.6 192.6
L 213.35 191.3
Q 212.95 191.05 212.5 191.3
L 210.25 192.6 Z"/>
</g>

<g id="Layer0_0_MEMBER_1_MEMBER_1_MEMBER_1_MEMBER_3_MEMBER_16_FILL">
<path fill="#393842" stroke="none" d="
M 206.7 194.65
Q 206.35 194.9 206.7 195.15
L 209 196.45
Q 209.4 196.75 209.8 196.45
L 212.1 195.15
Q 212.45 194.9 212.05 194.65
L 209.8 193.35
Q 209.4 193.1 208.95 193.35
L 206.7 194.65 Z"/>
</g>

<g id="Layer0_0_MEMBER_1_MEMBER_1_MEMBER_1_MEMBER_3_MEMBER_17_FILL">
<path fill="#57565E" stroke="none" d="
M 203.15 196.75
Q 202.8 196.95 203.15 197.2
L 205.45 198.5
Q 205.9 198.75 206.25 198.5
L 208.55 197.2
Q 208.9 196.95 208.55 196.75
L 206.25 195.4
Q 205.85 195.2 205.45 195.4
L 203.15 196.75 Z"/>
</g>

<g id="Layer0_0_MEMBER_1_MEMBER_1_MEMBER_1_MEMBER_3_MEMBER_18_FILL">
<path fill="#57565E" stroke="none" d="
M 202.7 197.45
Q 202.3 197.25 201.9 197.45
L 199.65 198.8
Q 199.45 198.9 199.45 199.05 199.45 199.2 199.65 199.25
L 201.9 200.6
Q 202.35 200.75 202.75 200.6
L 205 199.25
Q 205.15 199.2 205.15 199.05 205.15 198.9 205 198.8
L 202.7 197.45 Z"/>
</g>

<g id="Layer0_0_MEMBER_1_MEMBER_1_MEMBER_1_MEMBER_3_MEMBER_19_FILL">
<path fill="#57565E" stroke="none" d="
M 196.1 200.85
Q 195.65 201.1 196.1 201.3
L 198.35 202.65
Q 198.8 202.8 199.2 202.65
L 201.45 201.3
Q 201.8 201.1 201.45 200.85
L 199.15 199.55
Q 198.75 199.25 198.35 199.55
L 196.1 200.85 Z"/>
</g>

<g id="Layer0_0_MEMBER_1_MEMBER_1_MEMBER_1_MEMBER_3_MEMBER_20_FILL">
<path fill="#57565E" stroke="none" d="
M 192.55 202.9
Q 192.15 203.15 192.55 203.4
L 194.8 204.7
Q 195.25 204.95 195.65 204.7
L 197.9 203.4
Q 198.3 203.15 197.9 202.9
L 195.6 201.6
Q 195.25 201.35 194.8 201.6
L 192.55 202.9 Z"/>
</g>

<g id="Layer0_0_MEMBER_1_MEMBER_1_MEMBER_1_MEMBER_3_MEMBER_21_FILL">
<path fill="#57565E" stroke="none" d="
M 203.45 204.3
Q 203.85 204.05 203.45 203.8
L 201.2 202.5
Q 200.8 202.25 200.35 202.5
L 198.1 203.8
Q 197.75 204.05 198.1 204.3
L 200.4 205.6
Q 200.8 205.8 201.2 205.6
L 203.45 204.3 Z"/>
</g>

<g id="Layer0_0_MEMBER_1_MEMBER_1_MEMBER_1_MEMBER_3_MEMBER_22_FILL">
<path fill="#57565E" stroke="none" d="
M 194.55 205.85
Q 194.2 206.1 194.55 206.35
L 196.85 207.65
Q 197.25 207.95 197.65 207.65
L 199.95 206.35
Q 200.3 206.1 199.95 205.85
L 197.65 204.55
Q 197.2 204.3 196.85 204.55
L 194.55 205.85 Z"/>
</g>

<g id="Layer0_0_MEMBER_1_MEMBER_1_MEMBER_1_MEMBER_3_MEMBER_23_FILL">
<path fill="#57565E" stroke="none" d="
M 222.7 172.85
Q 222.35 173.1 222.75 173.35
L 225 174.65
Q 225.45 174.9 225.8 174.65
L 228.1 173.35
Q 228.45 173.1 228.1 172.85
L 225.8 171.55
Q 225.4 171.25 225 171.55
L 222.7 172.85 Z"/>
</g>

<g id="Layer0_0_MEMBER_1_MEMBER_1_MEMBER_1_MEMBER_3_MEMBER_24_FILL">
<path fill="#57565E" stroke="none" d="
M 219.2 174.9
Q 218.8 175.15 219.2 175.4
L 221.45 176.7
Q 221.9 176.95 222.3 176.7
L 224.55 175.4
Q 224.9 175.15 224.55 174.9
L 222.25 173.6
Q 221.85 173.3 221.45 173.6
L 219.2 174.9 Z"/>
</g>

<g id="Layer0_0_MEMBER_1_MEMBER_1_MEMBER_1_MEMBER_3_MEMBER_25_FILL">
<path fill="#57565E" stroke="none" d="
M 215.65 177
Q 215.2 177.2 215.65 177.45
L 217.9 178.75
Q 218.35 179 218.75 178.75
L 221 177.45
Q 221.4 177.2 221 177
L 218.7 175.65
Q 218.3 175.45 217.9 175.65
L 215.65 177 Z"/>
</g>

<g id="Layer0_0_MEMBER_1_MEMBER_1_MEMBER_1_MEMBER_3_MEMBER_26_FILL">
<path fill="#57565E" stroke="none" d="
M 215.2 177.7
Q 214.8 177.55 214.35 177.7
L 212.1 179.05
Q 211.9 179.15 211.9 179.3 211.9 179.45 212.1 179.5
L 214.35 180.85
Q 214.8 181 215.2 180.85
L 217.45 179.5
Q 217.65 179.45 217.65 179.3 217.65 179.15 217.45 179.05
L 215.2 177.7 Z"/>
</g>

<g id="Layer0_0_MEMBER_1_MEMBER_1_MEMBER_1_MEMBER_3_MEMBER_27_FILL">
<path fill="#393842" stroke="none" d="
M 227.95 182.3
Q 227.6 182.55 227.95 182.8
L 230.25 184.1
Q 230.7 184.35 231.05 184.1
L 233.35 182.8
Q 233.7 182.55 233.35 182.3
L 231.05 181
Q 230.65 180.7 230.25 181
L 227.95 182.3 Z"/>
</g>

<g id="Layer0_0_MEMBER_1_MEMBER_1_MEMBER_1_MEMBER_3_MEMBER_28_FILL">
<path fill="#57565E" stroke="none" d="
M 194.1 206.6
Q 193.7 206.3 193.3 206.6
L 190.45 208.25
Q 190.3 208.35 190.3 208.5 190.3 208.65 190.5 208.7
L 192.75 210.05
Q 193.2 210.2 193.6 210.05
L 196.4 208.4
Q 196.75 208.15 196.4 207.9
L 194.1 206.6 Z"/>
</g>

<g id="Layer0_0_MEMBER_1_MEMBER_1_MEMBER_1_MEMBER_3_MEMBER_29_FILL">
<path fill="#57565E" stroke="none" d="
M 190.35 191.65
Q 190 191.9 190.4 192.15
L 192.65 193.45
Q 193.1 193.7 193.5 193.45
L 213.9 181.55
Q 214.35 181.35 213.9 181.1
L 211.65 179.8
Q 211.25 179.55 210.8 179.8
L 190.35 191.65 Z"/>
</g>

<g id="Layer0_0_MEMBER_1_MEMBER_1_MEMBER_1_MEMBER_3_MEMBER_30_FILL">
<path fill="#393842" stroke="none" d="
M 238.8 184.25
L 236.55 185.6
Q 236.4 185.7 236.4 185.85 236.4 186 236.55 186.05
L 237.15 186.4
Q 237.6 186.65 238 186.4
L 240.25 185.1
Q 240.7 184.85 240.25 184.65
L 239.65 184.25
Q 239.25 184.1 238.8 184.25 Z"/>
</g>

<g id="Layer0_0_MEMBER_1_MEMBER_1_MEMBER_1_MEMBER_3_MEMBER_31_FILL">
<path fill="#393842" stroke="none" d="
M 235.25 186.35
L 233 187.65
Q 232.65 187.9 233 188.1
L 233.65 188.5
Q 234.05 188.7 234.45 188.5
L 236.7 187.15
Q 236.9 187.1 236.9 186.95 236.9 186.8 236.7 186.7
L 236.1 186.35
Q 235.7 186.1 235.25 186.35 Z"/>
</g>

<g id="Layer0_0_MEMBER_1_MEMBER_1_MEMBER_1_MEMBER_3_MEMBER_32_FILL">
<path fill="#393842" stroke="none" d="
M 229.45 189.7
Q 229.1 189.95 229.5 190.2
L 230.1 190.55
Q 230.5 190.75 230.9 190.55
L 233.15 189.2
Q 233.6 189 233.15 188.75
L 232.55 188.4
Q 232.15 188.1 231.75 188.4
L 229.45 189.7 Z"/>
</g>

<g id="Layer0_0_MEMBER_1_MEMBER_1_MEMBER_1_MEMBER_3_MEMBER_33_FILL">
<path fill="#393842" stroke="none" d="
M 225.95 191.75
Q 225.55 192 225.95 192.25
L 226.55 192.6
Q 226.95 192.9 227.35 192.6
L 229.65 191.3
Q 230 191.05 229.65 190.8
L 229 190.45
Q 228.6 190.15 228.2 190.45
L 225.95 191.75 Z"/>
</g>

<g id="Layer0_0_MEMBER_1_MEMBER_1_MEMBER_1_MEMBER_3_MEMBER_34_FILL">
<path fill="#393842" stroke="none" d="
M 222.4 193.8
Q 222 194.05 222.4 194.3
L 223 194.65
Q 223.45 194.9 223.85 194.65
L 226.1 193.35
Q 226.45 193.1 226.1 192.85
L 225.45 192.5
Q 225.05 192.3 224.65 192.5
L 222.4 193.8 Z"/>
</g>

<g id="Layer0_0_MEMBER_1_MEMBER_1_MEMBER_1_MEMBER_3_MEMBER_35_FILL">
<path fill="#393842" stroke="none" d="
M 221.95 194.55
Q 221.55 194.4 221.1 194.55
L 218.85 195.9
Q 218.65 196 218.65 196.15 218.65 196.3 218.85 196.35
L 219.45 196.7
Q 219.9 196.95 220.3 196.7
L 222.55 195.4
Q 222.9 195.15 222.55 194.9
L 221.95 194.55 Z"/>
</g>

<g id="Layer0_0_MEMBER_1_MEMBER_1_MEMBER_1_MEMBER_3_MEMBER_36_FILL">
<path fill="#393842" stroke="none" d="
M 217.55 196.65
L 215.3 197.95
Q 215.1 198.05 215.1 198.2 215.1 198.35 215.3 198.4
L 215.9 198.75
Q 216.35 199 216.75 198.75
L 219 197.45
Q 219.2 197.4 219.2 197.25 219.2 197.1 219 197
L 218.4 196.65
Q 218 196.4 217.55 196.65 Z"/>
</g>

<g id="Layer0_0_MEMBER_1_MEMBER_1_MEMBER_1_MEMBER_3_MEMBER_37_FILL">
<path fill="#393842" stroke="none" d="
M 214.85 198.7
Q 214.45 198.45 214 198.7
L 211.75 200
Q 211.4 200.25 211.75 200.5
L 212.35 200.85
Q 212.8 201 213.2 200.85
L 215.45 199.5
Q 215.65 199.45 215.65 199.3 215.65 199.15 215.45 199.05
L 214.85 198.7 Z"/>
</g>

<g id="Layer0_0_MEMBER_1_MEMBER_1_MEMBER_1_MEMBER_3_MEMBER_38_FILL">
<path fill="#393842" stroke="none" d="
M 208.2 202.05
Q 207.85 202.3 208.2 202.55
L 208.85 202.9
Q 209.25 203.1 209.65 202.9
L 211.9 201.6
Q 212.3 201.35 211.9 201.1
L 211.3 200.75
Q 210.9 200.5 210.45 200.75
L 208.2 202.05 Z"/>
</g>

<g id="Layer0_0_MEMBER_1_MEMBER_1_MEMBER_1_MEMBER_3_MEMBER_39_FILL">
<path fill="#393842" stroke="none" d="
M 204.65 204.1
Q 204.3 204.35 204.65 204.6
L 205.3 204.95
Q 205.7 205.25 206.1 204.95
L 208.35 203.65
Q 208.75 203.4 208.35 203.15
L 207.75 202.8
Q 207.35 202.5 206.95 202.8
L 204.65 204.1 Z"/>
</g>

<g id="Layer0_0_MEMBER_1_MEMBER_1_MEMBER_1_MEMBER_3_MEMBER_40_FILL">
<path fill="#393842" stroke="none" d="
M 204.2 204.85
Q 203.8 204.65 203.4 204.85
L 201.15 206.2
Q 200.7 206.4 201.15 206.65
L 201.75 207
Q 202.15 207.3 202.55 207
L 204.85 205.7
Q 205.2 205.45 204.8 205.2
L 204.2 204.85 Z"/>
</g>

<g id="Layer0_0_MEMBER_1_MEMBER_1_MEMBER_1_MEMBER_3_MEMBER_41_FILL">
<path fill="#57565E" stroke="none" d="
M 197.6 208.7
L 198.2 209.05
Q 198.65 209.3 199 209.05
L 201.3 207.75
Q 201.65 207.5 201.3 207.3
L 200.65 206.9
Q 200.25 206.7 199.85 206.9
L 197.6 208.25
Q 197.4 208.35 197.4 208.5 197.4 208.65 197.6 208.7 Z"/>
</g>

<g id="Layer0_0_MEMBER_1_MEMBER_1_MEMBER_1_MEMBER_3_MEMBER_42_FILL">
<path fill="#57565E" stroke="none" d="
M 196.3 209
L 194.05 210.3
Q 193.6 210.55 194.05 210.75
L 194.65 211.15
Q 195.1 211.3 195.5 211.15
L 197.75 209.8
Q 197.9 209.75 197.9 209.6 197.9 209.45 197.75 209.35
L 197.15 209
Q 196.75 208.75 196.3 209 Z"/>
</g>

<g id="Layer0_0_MEMBER_1_MEMBER_1_MEMBER_1_MEMBER_3_MEMBER_43_FILL">
<path fill="#393842" stroke="none" d="
M 240.1 183.55
Q 239.7 183.7 240.1 184
L 240.7 184.35
Q 241.15 184.6 241.55 184.35
L 244.35 182.75
Q 244.75 182.5 244.35 182.25
L 243.75 181.9
Q 243.35 181.65 242.9 181.9
L 240.1 183.55 Z"/>
</g>

<g id="Layer0_0_MEMBER_1_MEMBER_1_MEMBER_1_MEMBER_3_MEMBER_44_FILL">
<path fill="#393842" stroke="none" d="
M 236.6 177.75
Q 236.2 177.6 235.75 177.75
L 231.5 180.25
Q 231.3 180.35 231.3 180.5 231.3 180.65 231.5 180.7
L 233.75 182.05
Q 234.2 182.2 234.6 182.05
L 238.85 179.55
Q 239.3 179.3 238.85 179.1
L 236.6 177.75 Z"/>
</g>

<g id="Layer0_0_MEMBER_1_MEMBER_1_MEMBER_1_MEMBER_3_MEMBER_45_FILL">
<path fill="#393842" stroke="none" d="
M 226.15 179.2
Q 225.75 179.45 226.15 179.7
L 228.4 181
Q 228.85 181.15 229.25 181
L 235.25 177.5
Q 235.65 177.25 235.25 177
L 233 175.7
Q 232.6 175.45 232.15 175.7
L 226.15 179.2 Z"/>
</g>

<g id="Layer0_0_MEMBER_1_MEMBER_1_MEMBER_1_MEMBER_3_MEMBER_46_FILL">
<path fill="#393842" stroke="none" d="
M 222.5 177.1
Q 222.15 177.35 222.5 177.6
L 224.8 178.9
Q 225.2 179.2 225.6 178.9
L 231.65 175.4
Q 232.05 175.15 231.65 174.9
L 229.35 173.6
Q 229 173.35 228.55 173.6
L 222.5 177.1 Z"/>
</g>

<g id="Layer0_0_MEMBER_1_MEMBER_1_MEMBER_1_MEMBER_3_MEMBER_47_FILL">
<path fill="#57565E" stroke="none" d="
M 186.9 206.15
Q 186.5 206.4 186.9 206.65
L 189.15 207.95
Q 189.6 208.2 190 207.95
L 194.35 205.45
Q 194.7 205.2 194.35 204.95
L 192.05 203.65
Q 191.65 203.35 191.25 203.65
L 186.9 206.15 Z"/>
</g>

<g id="Layer0_0_MEMBER_1_MEMBER_1_MEMBER_1_MEMBER_3_MEMBER_48_FILL">
<path fill="#57565E" stroke="none" d="
M 192.5 202.3
Q 192.95 202.1 192.5 201.85
L 190.25 200.55
Q 189.85 200.3 189.4 200.55
L 183.3 204.1
Q 183.1 204.2 183.1 204.35 183.1 204.5 183.3 204.55
L 185.55 205.9
Q 186 206.05 186.4 205.9
L 192.5 202.3 Z"/>
</g>

<g id="Layer0_0_MEMBER_1_MEMBER_1_MEMBER_1_MEMBER_3_MEMBER_49_FILL">
<path fill="#57565E" stroke="none" d="
M 184.5 197.5
Q 184.1 197.25 183.65 197.5
L 181.4 198.8
Q 181.05 199.05 181.4 199.25
L 182 199.65
Q 182.45 199.8 182.85 199.65
L 185.1 198.3
Q 185.3 198.25 185.3 198.1 185.3 197.95 185.1 197.85
L 184.5 197.5 Z"/>
</g>

<g id="Layer0_0_MEMBER_1_MEMBER_1_MEMBER_1_MEMBER_3_MEMBER_50_FILL">
<path fill="#57565E" stroke="none" d="
M 182 196.5
L 179.75 197.85
Q 179.55 197.95 179.55 198.1 179.55 198.25 179.75 198.3
L 180.35 198.65
Q 180.8 198.9 181.2 198.65
L 183.45 197.35
Q 183.8 197.1 183.45 196.9
L 182.85 196.5
Q 182.45 196.35 182 196.5 Z"/>
</g>

<g id="Layer0_0_MEMBER_1_MEMBER_1_MEMBER_1_MEMBER_3_MEMBER_51_FILL">
<path fill="#57565E" stroke="none" d="
M 196.5 196.4
L 194.25 197.75
Q 193.8 197.95 194.25 198.2
L 196.5 199.5
Q 196.95 199.75 197.35 199.5
L 199.6 198.2
Q 200.05 197.95 199.6 197.75
L 197.35 196.4
Q 196.95 196.25 196.5 196.4 Z"/>
</g>

<g id="Layer0_0_MEMBER_1_MEMBER_1_MEMBER_1_MEMBER_3_MEMBER_52_FILL">
<path fill="#57565E" stroke="none" d="
M 193.8 198.45
Q 193.4 198.3 192.95 198.45
L 190.7 199.8
Q 190.5 199.9 190.5 200.05 190.5 200.2 190.7 200.25
L 193 201.6
Q 193.35 201.8 193.8 201.6
L 196.05 200.25
Q 196.25 200.2 196.25 200.05 196.25 199.9 196.05 199.8
L 193.8 198.45 Z"/>
</g>

<g id="Layer0_0_MEMBER_1_MEMBER_1_MEMBER_1_MEMBER_3_MEMBER_53_FILL">
<path fill="#57565E" stroke="none" d="
M 190.45 195.9
Q 190.45 196.05 190.65 196.1
L 192.9 197.45
Q 193.35 197.6 193.75 197.45
L 196 196.1
Q 196.15 196.05 196.15 195.9 196.15 195.75 196 195.65
L 193.7 194.35
Q 193.3 194.05 192.9 194.35
L 190.65 195.65
Q 190.45 195.75 190.45 195.9 Z"/>
</g>

<g id="Layer0_0_MEMBER_1_MEMBER_1_MEMBER_1_MEMBER_3_MEMBER_54_FILL">
<path fill="#57565E" stroke="none" d="
M 189.35 196.4
L 187.1 197.7
Q 186.7 197.95 187.1 198.2
L 189.35 199.5
Q 189.8 199.65 190.2 199.5
L 192.45 198.2
Q 192.8 197.95 192.45 197.7
L 190.15 196.4
Q 189.75 196.1 189.35 196.4 Z"/>
</g>

<g id="Layer0_0_MEMBER_1_MEMBER_1_MEMBER_1_MEMBER_3_MEMBER_55_FILL">
<path fill="#57565E" stroke="none" d="
M 183.55 199.75
Q 183.15 200 183.55 200.25
L 185.8 201.55
Q 186.25 201.8 186.65 201.55
L 188.9 200.25
Q 189.3 200 188.9 199.75
L 186.6 198.45
Q 186.25 198.2 185.8 198.45
L 183.55 199.75 Z"/>
</g>

<g id="Layer0_0_MEMBER_1_MEMBER_1_MEMBER_1_MEMBER_3_MEMBER_56_FILL">
<path fill="#57565E" stroke="none" d="
M 179.7 202
Q 179.3 202.25 179.7 202.5
L 181.95 203.8
Q 182.4 204.05 182.8 203.8
L 185.35 202.3
Q 185.75 202.05 185.35 201.8
L 183.1 200.5
Q 182.7 200.25 182.25 200.5
L 179.7 202 Z"/>
</g>

<g id="Layer0_0_MEMBER_1_MEMBER_1_MEMBER_1_MEMBER_3_MEMBER_57_FILL">
<path fill="#57565E" stroke="none" d="
M 201.35 193.6
Q 200.95 193.85 201.35 194.1
L 203.6 195.4
Q 204.05 195.65 204.45 195.4
L 206.7 194.1
Q 207.05 193.85 206.7 193.6
L 204.4 192.3
Q 204 192 203.6 192.3
L 201.35 193.6 Z"/>
</g>

<g id="Layer0_0_MEMBER_1_MEMBER_1_MEMBER_1_MEMBER_3_MEMBER_58_FILL">
<path fill="#57565E" stroke="none" d="
M 197.8 195.65
Q 197.4 195.9 197.8 196.15
L 200.05 197.45
Q 200.5 197.7 200.9 197.45
L 203.15 196.15
Q 203.5 195.95 203.15 195.65
L 200.85 194.35
Q 200.45 194.05 200.05 194.35
L 197.8 195.65 Z"/>
</g>

<g id="Layer0_0_MEMBER_1_MEMBER_1_MEMBER_1_MEMBER_3_MEMBER_59_FILL">
<path fill="#57565E" stroke="none" d="
M 197.7 191.5
Q 197.35 191.75 197.7 192
L 200 193.3
Q 200.4 193.6 200.8 193.3
L 203.1 192
Q 203.5 191.7 203.05 191.55
L 200.8 190.2
Q 200.4 190.05 199.95 190.2
L 197.7 191.5 Z"/>
</g>

<g id="Layer0_0_MEMBER_1_MEMBER_1_MEMBER_1_MEMBER_3_MEMBER_60_FILL">
<path fill="#57565E" stroke="none" d="
M 194 193.85
Q 194 194 194.15 194.05
L 196.45 195.35
Q 196.9 195.6 197.25 195.35
L 199.55 194.05
Q 199.7 194 199.7 193.85 199.7 193.7 199.55 193.6
L 197.25 192.25
Q 196.85 192.05 196.45 192.25
L 194.15 193.6
Q 194 193.7 194 193.85 Z"/>
</g>

<g id="Layer0_0_MEMBER_1_MEMBER_1_MEMBER_1_MEMBER_3_MEMBER_61_FILL">
<path fill="#393842" stroke="none" d="
M 208.25 189.75
Q 208.25 189.9 208.4 189.95
L 210.7 191.3
Q 211.1 191.5 211.5 191.3
L 213.8 189.95
Q 213.95 189.85 213.95 189.75 213.95 189.55 213.75 189.5
L 211.5 188.2
Q 211.1 187.95 210.65 188.2
L 208.4 189.5
Q 208.25 189.6 208.25 189.75 Z"/>
</g>

<g id="Layer0_0_MEMBER_1_MEMBER_1_MEMBER_1_MEMBER_3_MEMBER_62_FILL">
<path fill="#57565E" stroke="none" d="
M 204.85 191.55
Q 204.5 191.8 204.85 192.05
L 207.15 193.35
Q 207.65 193.55 207.95 193.35
L 210.25 192.05
Q 210.6 191.8 210.25 191.55
L 207.95 190.25
Q 207.55 189.95 207.15 190.25
L 204.85 191.55 Z"/>
</g>

<g id="Layer0_0_MEMBER_1_MEMBER_1_MEMBER_1_MEMBER_3_MEMBER_63_FILL">
<path fill="#57565E" stroke="none" d="
M 204.8 187.4
Q 204.4 187.65 204.8 187.9
L 207.1 189.2
Q 207.5 189.5 207.9 189.2
L 210.15 187.9
Q 210.55 187.65 210.15 187.4
L 207.9 186.1
Q 207.5 185.85 207.05 186.1
L 204.8 187.4 Z"/>
</g>

<g id="Layer0_0_MEMBER_1_MEMBER_1_MEMBER_1_MEMBER_3_MEMBER_64_FILL">
<path fill="#57565E" stroke="none" d="
M 201.25 189.45
Q 200.9 189.7 201.25 189.95
L 203.55 191.25
Q 203.95 191.55 204.35 191.25
L 206.6 189.95
Q 207 189.7 206.6 189.45
L 204.35 188.15
Q 203.95 187.9 203.5 188.15
L 201.25 189.45 Z"/>
</g>

<g id="Layer0_0_MEMBER_1_MEMBER_1_MEMBER_1_MEMBER_3_MEMBER_65_FILL">
<path fill="#393842" stroke="none" d="
M 215.5 185.35
Q 215.1 185.6 215.5 185.85
L 217.8 187.15
Q 218.2 187.45 218.6 187.15
L 220.85 185.85
Q 221.25 185.6 220.85 185.35
L 218.6 184.05
Q 218.2 183.9 217.75 184.05
L 215.5 185.35 Z"/>
</g>

<g id="Layer0_0_MEMBER_1_MEMBER_1_MEMBER_1_MEMBER_3_MEMBER_66_FILL">
<path fill="#393842" stroke="none" d="
M 211.8 187.7
Q 211.8 187.85 211.95 187.9
L 214.25 189.2
Q 214.65 189.5 215.05 189.2
L 217.3 187.9
Q 217.5 187.85 217.5 187.7 217.5 187.55 217.3 187.45
L 215.05 186.1
Q 214.65 185.95 214.2 186.1
L 211.95 187.45
Q 211.8 187.55 211.8 187.7 Z"/>
</g>

<g id="Layer0_0_MEMBER_1_MEMBER_1_MEMBER_1_MEMBER_3_MEMBER_67_FILL">
<path fill="#393842" stroke="none" d="
M 214.95 181.95
Q 214.55 181.75 214.15 181.95
L 211.9 183.3
Q 211.7 183.4 211.7 183.55 211.7 183.7 211.9 183.75
L 214.15 185.1
Q 214.6 185.25 215 185.1
L 217.25 183.75
Q 217.45 183.7 217.4 183.55 217.4 183.4 217.25 183.3
L 214.95 181.95 Z"/>
</g>

<g id="Layer0_0_MEMBER_1_MEMBER_1_MEMBER_1_MEMBER_3_MEMBER_68_FILL">
<path fill="#57565E" stroke="none" d="
M 208.35 185.35
Q 207.9 185.6 208.35 185.8
L 210.6 187.15
Q 211.05 187.3 211.45 187.15
L 213.7 185.8
Q 214.15 185.6 213.7 185.35
L 211.45 184.05
Q 211.05 183.8 210.6 184.05
L 208.35 185.35 Z"/>
</g>

<g id="Layer0_0_MEMBER_1_MEMBER_1_MEMBER_1_MEMBER_3_MEMBER_69_FILL">
<path fill="#393842" stroke="none" d="
M 222.6 181.25
Q 222.2 181.5 222.6 181.75
L 224.85 183.05
Q 225.3 183.3 225.7 183.05
L 227.95 181.75
Q 228.3 181.55 227.95 181.25
L 225.65 179.95
Q 225.25 179.65 224.85 179.95
L 222.6 181.25 Z"/>
</g>

<g id="Layer0_0_MEMBER_1_MEMBER_1_MEMBER_1_MEMBER_3_MEMBER_70_FILL">
<path fill="#393842" stroke="none" d="
M 219.05 183.3
Q 218.65 183.55 219.05 183.8
L 221.3 185.1
Q 221.75 185.35 222.15 185.1
L 224.4 183.8
Q 224.8 183.55 224.4 183.3
L 222.15 182
Q 221.75 181.75 221.3 182
L 219.05 183.3 Z"/>
</g>

<g id="Layer0_0_MEMBER_1_MEMBER_1_MEMBER_1_MEMBER_3_MEMBER_71_FILL">
<path fill="#393842" stroke="none" d="
M 218.95 179.15
Q 218.6 179.4 218.95 179.65
L 221.25 180.95
Q 221.7 181.2 222.1 180.95
L 224.35 179.65
Q 224.7 179.4 224.35 179.15
L 222.05 177.85
Q 221.75 177.6 221.25 177.85
L 218.95 179.15 Z"/>
</g>

<g id="Layer0_0_MEMBER_1_MEMBER_1_MEMBER_1_MEMBER_3_MEMBER_72_FILL">
<path fill="#393842" stroke="none" d="
M 215.45 181.25
Q 215.25 181.35 215.25 181.5 215.25 181.65 215.45 181.7
L 217.7 183
Q 218.15 183.25 218.55 183
L 220.8 181.7
Q 221.15 181.45 220.8 181.25
L 218.5 179.9
Q 218.1 179.7 217.7 179.9
L 215.45 181.25 Z"/>
</g>

<g id="Layer0_0_MEMBER_1_MEMBER_1_MEMBER_1_MEMBER_3_MEMBER_73_FILL">
<path fill="#57565E" stroke="none" d="
M 186.85 193.7
Q 186.45 193.95 186.85 194.2
L 189.1 195.5
Q 189.55 195.75 189.95 195.5
L 192.2 194.2
Q 192.55 193.95 192.2 193.7
L 189.9 192.4
Q 189.5 192.1 189.1 192.4
L 186.85 193.7 Z"/>
</g>

<g id="Layer0_0_MEMBER_1_MEMBER_1_MEMBER_1_MEMBER_3_MEMBER_74_FILL">
<path fill="#57565E" stroke="none" d="
M 183.3 195.8
Q 182.85 196 183.3 196.25
L 185.55 197.55
Q 186 197.8 186.4 197.55
L 188.65 196.25
Q 189.05 196 188.65 195.8
L 186.35 194.45
Q 186 194.25 185.55 194.45
L 183.3 195.8 Z"/>
</g>

<g id="Layer0_0_MEMBER_1_MEMBER_1_MEMBER_1_MEMBER_3_MEMBER_75_FILL">
<path fill="#57565E" stroke="none" d="
M 176.1 199.95
Q 175.75 200.2 176.1 200.4
L 178.4 201.75
Q 178.8 201.95 179.2 201.75
L 181.5 200.4
Q 181.85 200.2 181.5 199.95
L 179.2 198.65
Q 178.75 198.4 178.4 198.65
L 176.1 199.95 Z"/>
</g>

<g id="Layer0_0_MEMBER_1_MEMBER_1_MEMBER_2_FILL">
<path fill="#D9DBE6" stroke="none" d="
M 186.9 190.5
Q 187.9 191.05 188.85 190.5
L 209.15 178.7
Q 209.55 178.5 209.55 178.15 209.55 177.8 209.15 177.55
L 199.9 172.25
Q 198.95 171.65 197.95 172.25
L 177.65 184.05
Q 177.25 184.3 177.25 184.6 177.25 184.95 177.65 185.15
L 186.9 190.5 Z"/>
</g>

<g id="Layer0_0_MEMBER_1_MEMBER_2_FILL">
<path fill="url(#Gradient_2)" stroke="none" d="
M 212.45 179.85
Q 211.6 180.75 211.3 181.45
L 197.05 213.85
Q 196.9 214.35 197.05 214.5
L 198.35 215.6 202.7 211.6 248.95 184.95
Q 250.6 183.9 251.1 182.65
L 264.3 152.6 266.65 150.5 265.35 149.4
Q 265 149.2 264 149.7
L 214.15 178.5
Q 213.3 179 212.45 179.85 Z"/>
</g>

<g id="Layer0_0_MEMBER_1_MEMBER_3_MEMBER_0_FILL">
<path fill="#C5C9D7" stroke="none" d="
M 213.75 180.95
Q 212.9 181.8 212.6 182.55
L 198.35 214.95
Q 198.15 215.5 198.4 215.65 198.7 215.8 199.35 215.4
L 250.25 186
Q 251.9 185.05 252.4 183.75
L 266.6 151.35
Q 266.95 150.6 266.55 150.45 266.15 150.3 265.3 150.8
L 215.45 179.55
Q 214.55 180.1 213.75 180.95 Z"/>
</g>

<g id="Layer0_0_MEMBER_1_MEMBER_4_FILL">
<path fill="#CED2E2" stroke="none" d="
M 240.6 191.55
L 237.95 166.55 223.05 175.2 225.8 200.15 240.6 191.55 Z"/>
</g>

<g id="Layer0_0_MEMBER_1_MEMBER_5_FILL">
<path fill="#C5C9D7" stroke="none" d="
M 177.25 184.75
Q 177.3 184.55 177.65 184.3
L 197.95 172.5
Q 198.35 172.3 198.95 172.3 199.5 172.3 199.9 172.5
L 209.15 177.85
Q 209.5 178.1 209.55 178.3 209.7 177.9 209.15 177.55
L 199.9 172.25
Q 198.95 171.65 197.95 172.25
L 177.65 184.05
Q 177.15 184.35 177.25 184.75 Z"/>
</g>
</defs>

<g transform="matrix( 7, 0, 0, 7, -985.85,-773.15) ">
<use xlink:href="#Layer0_0_MEMBER_0_FILL"/>
</g>

<g transform="matrix( 7, 0, 0, 7, -985.85,-773.15) ">
<use xlink:href="#Layer0_0_MEMBER_1_MEMBER_0_FILL"/>
</g>

<g transform="matrix( 7, 0, 0, 7, -985.85,-773.15) ">
<use xlink:href="#Layer0_0_MEMBER_1_MEMBER_1_MEMBER_0_FILL"/>
</g>

<g transform="matrix( 7, 0, 0, 7, -985.85,-773.15) ">
<use xlink:href="#Layer0_0_MEMBER_1_MEMBER_1_MEMBER_1_MEMBER_0_FILL"/>
</g>

<g transform="matrix( 7, 0, 0, 7, -985.85,-773.15) ">
<use xlink:href="#Layer0_0_MEMBER_1_MEMBER_1_MEMBER_1_MEMBER_1_MEMBER_0_FILL"/>
</g>

<g transform="matrix( 7, 0, 0, 7, -985.85,-773.15) ">
<use xlink:href="#Layer0_0_MEMBER_1_MEMBER_1_MEMBER_1_MEMBER_1_MEMBER_1_FILL"/>
</g>

<g transform="matrix( 7, 0, 0, 7, -985.85,-773.15) ">
<use xlink:href="#Layer0_0_MEMBER_1_MEMBER_1_MEMBER_1_MEMBER_1_MEMBER_2_FILL"/>
</g>

<g transform="matrix( 7, 0, 0, 7, -985.85,-773.15) ">
<use xlink:href="#Layer0_0_MEMBER_1_MEMBER_1_MEMBER_1_MEMBER_1_MEMBER_3_FILL"/>
</g>

<g transform="matrix( 7, 0, 0, 7, -985.85,-773.15) ">
<use xlink:href="#Layer0_0_MEMBER_1_MEMBER_1_MEMBER_1_MEMBER_1_MEMBER_4_FILL"/>
</g>

<g transform="matrix( 7, 0, 0, 7, -985.85,-773.15) ">
<use xlink:href="#Layer0_0_MEMBER_1_MEMBER_1_MEMBER_1_MEMBER_1_MEMBER_5_FILL"/>
</g>

<g transform="matrix( 7, 0, 0, 7, -985.85,-773.15) ">
<use xlink:href="#Layer0_0_MEMBER_1_MEMBER_1_MEMBER_1_MEMBER_1_MEMBER_6_FILL"/>
</g>

<g transform="matrix( 7, 0, 0, 7, -985.85,-773.15) ">
<use xlink:href="#Layer0_0_MEMBER_1_MEMBER_1_MEMBER_1_MEMBER_1_MEMBER_7_FILL"/>
</g>

<g transform="matrix( 7, 0, 0, 7, -985.85,-773.15) ">
<use xlink:href="#Layer0_0_MEMBER_1_MEMBER_1_MEMBER_1_MEMBER_1_MEMBER_8_FILL"/>
</g>

<g transform="matrix( 7, 0, 0, 7, -985.85,-773.15) ">
<use xlink:href="#Layer0_0_MEMBER_1_MEMBER_1_MEMBER_1_MEMBER_1_MEMBER_9_FILL"/>
</g>

<g transform="matrix( 7, 0, 0, 7, -985.85,-773.15) ">
<use xlink:href="#Layer0_0_MEMBER_1_MEMBER_1_MEMBER_1_MEMBER_1_MEMBER_10_FILL"/>
</g>

<g transform="matrix( 7, 0, 0, 7, -985.85,-773.15) ">
<use xlink:href="#Layer0_0_MEMBER_1_MEMBER_1_MEMBER_1_MEMBER_1_MEMBER_11_FILL"/>
</g>

<g transform="matrix( 7, 0, 0, 7, -985.85,-773.15) ">
<use xlink:href="#Layer0_0_MEMBER_1_MEMBER_1_MEMBER_1_MEMBER_1_MEMBER_12_FILL"/>
</g>

<g transform="matrix( 7, 0, 0, 7, -985.85,-773.15) ">
<use xlink:href="#Layer0_0_MEMBER_1_MEMBER_1_MEMBER_1_MEMBER_1_MEMBER_13_FILL"/>
</g>

<g transform="matrix( 7, 0, 0, 7, -985.85,-773.15) ">
<use xlink:href="#Layer0_0_MEMBER_1_MEMBER_1_MEMBER_1_MEMBER_1_MEMBER_14_FILL"/>
</g>

<g transform="matrix( 7, 0, 0, 7, -985.85,-773.15) ">
<use xlink:href="#Layer0_0_MEMBER_1_MEMBER_1_MEMBER_1_MEMBER_1_MEMBER_15_FILL"/>
</g>

<g transform="matrix( 7, 0, 0, 7, -985.85,-773.15) ">
<use xlink:href="#Layer0_0_MEMBER_1_MEMBER_1_MEMBER_1_MEMBER_1_MEMBER_16_FILL"/>
</g>

<g transform="matrix( 7, 0, 0, 7, -985.85,-773.15) ">
<use xlink:href="#Layer0_0_MEMBER_1_MEMBER_1_MEMBER_1_MEMBER_1_MEMBER_17_FILL"/>
</g>

<g transform="matrix( 7, 0, 0, 7, -985.85,-773.15) ">
<use xlink:href="#Layer0_0_MEMBER_1_MEMBER_1_MEMBER_1_MEMBER_1_MEMBER_18_FILL"/>
</g>

<g transform="matrix( 7, 0, 0, 7, -985.85,-773.15) ">
<use xlink:href="#Layer0_0_MEMBER_1_MEMBER_1_MEMBER_1_MEMBER_1_MEMBER_19_FILL"/>
</g>

<g transform="matrix( 7, 0, 0, 7, -985.85,-773.15) ">
<use xlink:href="#Layer0_0_MEMBER_1_MEMBER_1_MEMBER_1_MEMBER_1_MEMBER_20_FILL"/>
</g>

<g transform="matrix( 7, 0, 0, 7, -985.85,-773.15) ">
<use xlink:href="#Layer0_0_MEMBER_1_MEMBER_1_MEMBER_1_MEMBER_1_MEMBER_21_FILL"/>
</g>

<g transform="matrix( 7, 0, 0, 7, -985.85,-773.15) ">
<use xlink:href="#Layer0_0_MEMBER_1_MEMBER_1_MEMBER_1_MEMBER_1_MEMBER_22_FILL"/>
</g>

<g transform="matrix( 7, 0, 0, 7, -985.85,-773.15) ">
<use xlink:href="#Layer0_0_MEMBER_1_MEMBER_1_MEMBER_1_MEMBER_1_MEMBER_23_FILL"/>
</g>

<g transform="matrix( 7, 0, 0, 7, -985.85,-773.15) ">
<use xlink:href="#Layer0_0_MEMBER_1_MEMBER_1_MEMBER_1_MEMBER_1_MEMBER_24_FILL"/>
</g>

<g transform="matrix( 7, 0, 0, 7, -985.85,-773.15) ">
<use xlink:href="#Layer0_0_MEMBER_1_MEMBER_1_MEMBER_1_MEMBER_1_MEMBER_25_FILL"/>
</g>

<g transform="matrix( 7, 0, 0, 7, -985.85,-773.15) ">
<use xlink:href="#Layer0_0_MEMBER_1_MEMBER_1_MEMBER_1_MEMBER_1_MEMBER_26_FILL"/>
</g>

<g transform="matrix( 7, 0, 0, 7, -985.85,-773.15) ">
<use xlink:href="#Layer0_0_MEMBER_1_MEMBER_1_MEMBER_1_MEMBER_1_MEMBER_27_FILL"/>
</g>

<g transform="matrix( 7, 0, 0, 7, -985.85,-773.15) ">
<use xlink:href="#Layer0_0_MEMBER_1_MEMBER_1_MEMBER_1_MEMBER_1_MEMBER_28_FILL"/>
</g>

<g transform="matrix( 7, 0, 0, 7, -985.85,-773.15) ">
<use xlink:href="#Layer0_0_MEMBER_1_MEMBER_1_MEMBER_1_MEMBER_1_MEMBER_29_FILL"/>
</g>

<g transform="matrix( 7, 0, 0, 7, -985.85,-773.15) ">
<use xlink:href="#Layer0_0_MEMBER_1_MEMBER_1_MEMBER_1_MEMBER_1_MEMBER_30_FILL"/>
</g>

<g transform="matrix( 7, 0, 0, 7, -985.85,-773.15) ">
<use xlink:href="#Layer0_0_MEMBER_1_MEMBER_1_MEMBER_1_MEMBER_1_MEMBER_31_FILL"/>
</g>

<g transform="matrix( 7, 0, 0, 7, -985.85,-773.15) ">
<use xlink:href="#Layer0_0_MEMBER_1_MEMBER_1_MEMBER_1_MEMBER_1_MEMBER_32_FILL"/>
</g>

<g transform="matrix( 7, 0, 0, 7, -985.85,-773.15) ">
<use xlink:href="#Layer0_0_MEMBER_1_MEMBER_1_MEMBER_1_MEMBER_1_MEMBER_33_FILL"/>
</g>

<g transform="matrix( 7, 0, 0, 7, -985.85,-773.15) ">
<use xlink:href="#Layer0_0_MEMBER_1_MEMBER_1_MEMBER_1_MEMBER_1_MEMBER_34_FILL"/>
</g>

<g transform="matrix( 7, 0, 0, 7, -985.85,-773.15) ">
<use xlink:href="#Layer0_0_MEMBER_1_MEMBER_1_MEMBER_1_MEMBER_1_MEMBER_35_FILL"/>
</g>

<g transform="matrix( 7, 0, 0, 7, -985.85,-773.15) ">
<use xlink:href="#Layer0_0_MEMBER_1_MEMBER_1_MEMBER_1_MEMBER_1_MEMBER_36_FILL"/>
</g>

<g transform="matrix( 7, 0, 0, 7, -985.85,-773.15) ">
<use xlink:href="#Layer0_0_MEMBER_1_MEMBER_1_MEMBER_1_MEMBER_1_MEMBER_37_FILL"/>
</g>

<g transform="matrix( 7, 0, 0, 7, -985.85,-773.15) ">
<use xlink:href="#Layer0_0_MEMBER_1_MEMBER_1_MEMBER_1_MEMBER_1_MEMBER_38_FILL"/>
</g>

<g transform="matrix( 7, 0, 0, 7, -985.85,-773.15) ">
<use xlink:href="#Layer0_0_MEMBER_1_MEMBER_1_MEMBER_1_MEMBER_1_MEMBER_39_FILL"/>
</g>

<g transform="matrix( 7, 0, 0, 7, -985.85,-773.15) ">
<use xlink:href="#Layer0_0_MEMBER_1_MEMBER_1_MEMBER_1_MEMBER_1_MEMBER_40_FILL"/>
</g>

<g transform="matrix( 7, 0, 0, 7, -985.85,-773.15) ">
<use xlink:href="#Layer0_0_MEMBER_1_MEMBER_1_MEMBER_1_MEMBER_1_MEMBER_41_FILL"/>
</g>

<g transform="matrix( 7, 0, 0, 7, -985.85,-773.15) ">
<use xlink:href="#Layer0_0_MEMBER_1_MEMBER_1_MEMBER_1_MEMBER_1_MEMBER_42_FILL"/>
</g>

<g transform="matrix( 7, 0, 0, 7, -985.85,-773.15) ">
<use xlink:href="#Layer0_0_MEMBER_1_MEMBER_1_MEMBER_1_MEMBER_1_MEMBER_43_FILL"/>
</g>

<g transform="matrix( 7, 0, 0, 7, -985.85,-773.15) ">
<use xlink:href="#Layer0_0_MEMBER_1_MEMBER_1_MEMBER_1_MEMBER_1_MEMBER_44_FILL"/>
</g>

<g transform="matrix( 7, 0, 0, 7, -985.85,-773.15) ">
<use xlink:href="#Layer0_0_MEMBER_1_MEMBER_1_MEMBER_1_MEMBER_1_MEMBER_45_FILL"/>
</g>

<g transform="matrix( 7, 0, 0, 7, -985.85,-773.15) ">
<use xlink:href="#Layer0_0_MEMBER_1_MEMBER_1_MEMBER_1_MEMBER_1_MEMBER_46_FILL"/>
</g>

<g transform="matrix( 7, 0, 0, 7, -985.85,-773.15) ">
<use xlink:href="#Layer0_0_MEMBER_1_MEMBER_1_MEMBER_1_MEMBER_1_MEMBER_47_FILL"/>
</g>

<g transform="matrix( 7, 0, 0, 7, -985.85,-773.15) ">
<use xlink:href="#Layer0_0_MEMBER_1_MEMBER_1_MEMBER_1_MEMBER_1_MEMBER_48_FILL"/>
</g>

<g transform="matrix( 7, 0, 0, 7, -985.85,-773.15) ">
<use xlink:href="#Layer0_0_MEMBER_1_MEMBER_1_MEMBER_1_MEMBER_1_MEMBER_49_FILL"/>
</g>

<g transform="matrix( 7, 0, 0, 7, -985.85,-773.15) ">
<use xlink:href="#Layer0_0_MEMBER_1_MEMBER_1_MEMBER_1_MEMBER_1_MEMBER_50_FILL"/>
</g>

<g transform="matrix( 7, 0, 0, 7, -985.85,-773.15) ">
<use xlink:href="#Layer0_0_MEMBER_1_MEMBER_1_MEMBER_1_MEMBER_1_MEMBER_51_FILL"/>
</g>

<g transform="matrix( 7, 0, 0, 7, -985.85,-773.15) ">
<use xlink:href="#Layer0_0_MEMBER_1_MEMBER_1_MEMBER_1_MEMBER_1_MEMBER_52_FILL"/>
</g>

<g transform="matrix( 7, 0, 0, 7, -985.85,-773.15) ">
<use xlink:href="#Layer0_0_MEMBER_1_MEMBER_1_MEMBER_1_MEMBER_1_MEMBER_53_FILL"/>
</g>

<g transform="matrix( 7, 0, 0, 7, -985.85,-773.15) ">
<use xlink:href="#Layer0_0_MEMBER_1_MEMBER_1_MEMBER_1_MEMBER_1_MEMBER_54_FILL"/>
</g>

<g transform="matrix( 7, 0, 0, 7, -985.85,-773.15) ">
<use xlink:href="#Layer0_0_MEMBER_1_MEMBER_1_MEMBER_1_MEMBER_1_MEMBER_55_FILL"/>
</g>

<g transform="matrix( 7, 0, 0, 7, -985.85,-773.15) ">
<use xlink:href="#Layer0_0_MEMBER_1_MEMBER_1_MEMBER_1_MEMBER_1_MEMBER_56_FILL"/>
</g>

<g transform="matrix( 7, 0, 0, 7, -985.85,-773.15) ">
<use xlink:href="#Layer0_0_MEMBER_1_MEMBER_1_MEMBER_1_MEMBER_1_MEMBER_57_FILL"/>
</g>

<g transform="matrix( 7, 0, 0, 7, -985.85,-773.15) ">
<use xlink:href="#Layer0_0_MEMBER_1_MEMBER_1_MEMBER_1_MEMBER_1_MEMBER_58_FILL"/>
</g>

<g transform="matrix( 7, 0, 0, 7, -985.85,-773.15) ">
<use xlink:href="#Layer0_0_MEMBER_1_MEMBER_1_MEMBER_1_MEMBER_1_MEMBER_59_FILL"/>
</g>

<g transform="matrix( 7, 0, 0, 7, -985.85,-773.15) ">
<use xlink:href="#Layer0_0_MEMBER_1_MEMBER_1_MEMBER_1_MEMBER_1_MEMBER_60_FILL"/>
</g>

<g transform="matrix( 7, 0, 0, 7, -985.85,-773.15) ">
<use xlink:href="#Layer0_0_MEMBER_1_MEMBER_1_MEMBER_1_MEMBER_1_MEMBER_61_FILL"/>
</g>

<g transform="matrix( 7, 0, 0, 7, -985.85,-773.15) ">
<use xlink:href="#Layer0_0_MEMBER_1_MEMBER_1_MEMBER_1_MEMBER_1_MEMBER_62_FILL"/>
</g>

<g transform="matrix( 7, 0, 0, 7, -985.85,-773.15) ">
<use xlink:href="#Layer0_0_MEMBER_1_MEMBER_1_MEMBER_1_MEMBER_1_MEMBER_63_FILL"/>
</g>

<g transform="matrix( 7, 0, 0, 7, -985.85,-773.15) ">
<use xlink:href="#Layer0_0_MEMBER_1_MEMBER_1_MEMBER_1_MEMBER_1_MEMBER_64_FILL"/>
</g>

<g transform="matrix( 7, 0, 0, 7, -985.85,-773.15) ">
<use xlink:href="#Layer0_0_MEMBER_1_MEMBER_1_MEMBER_1_MEMBER_1_MEMBER_65_FILL"/>
</g>

<g transform="matrix( 7, 0, 0, 7, -985.85,-773.15) ">
<use xlink:href="#Layer0_0_MEMBER_1_MEMBER_1_MEMBER_1_MEMBER_1_MEMBER_66_FILL"/>
</g>

<g transform="matrix( 7, 0, 0, 7, -985.85,-773.15) ">
<use xlink:href="#Layer0_0_MEMBER_1_MEMBER_1_MEMBER_1_MEMBER_1_MEMBER_67_FILL"/>
</g>

<g transform="matrix( 7, 0, 0, 7, -985.85,-773.15) ">
<use xlink:href="#Layer0_0_MEMBER_1_MEMBER_1_MEMBER_1_MEMBER_1_MEMBER_68_FILL"/>
</g>

<g transform="matrix( 7, 0, 0, 7, -985.85,-773.15) ">
<use xlink:href="#Layer0_0_MEMBER_1_MEMBER_1_MEMBER_1_MEMBER_1_MEMBER_69_FILL"/>
</g>

<g transform="matrix( 7, 0, 0, 7, -985.85,-773.15) ">
<use xlink:href="#Layer0_0_MEMBER_1_MEMBER_1_MEMBER_1_MEMBER_1_MEMBER_70_FILL"/>
</g>

<g transform="matrix( 7, 0, 0, 7, -985.85,-773.15) ">
<use xlink:href="#Layer0_0_MEMBER_1_MEMBER_1_MEMBER_1_MEMBER_1_MEMBER_71_FILL"/>
</g>

<g transform="matrix( 7, 0, 0, 7, -985.85,-773.15) ">
<use xlink:href="#Layer0_0_MEMBER_1_MEMBER_1_MEMBER_1_MEMBER_1_MEMBER_72_FILL"/>
</g>

<g transform="matrix( 7, 0, 0, 7, -985.85,-773.15) ">
<use xlink:href="#Layer0_0_MEMBER_1_MEMBER_1_MEMBER_1_MEMBER_1_MEMBER_73_FILL"/>
</g>

<g transform="matrix( 7, 0, 0, 7, -985.85,-773.15) ">
<use xlink:href="#Layer0_0_MEMBER_1_MEMBER_1_MEMBER_1_MEMBER_1_MEMBER_74_FILL"/>
</g>

<g transform="matrix( 7, 0, 0, 7, -985.85,-773.15) ">
<use xlink:href="#Layer0_0_MEMBER_1_MEMBER_1_MEMBER_1_MEMBER_2_FILL"/>
</g>

<g transform="matrix( 7, 0, 0, 7, -985.85,-773.15) ">
<use xlink:href="#Layer0_0_MEMBER_1_MEMBER_1_MEMBER_1_MEMBER_3_MEMBER_0_FILL"/>
</g>

<g transform="matrix( 7, 0, 0, 7, -985.85,-773.15) ">
<use xlink:href="#Layer0_0_MEMBER_1_MEMBER_1_MEMBER_1_MEMBER_3_MEMBER_1_FILL"/>
</g>

<g transform="matrix( 7, 0, 0, 7, -985.85,-773.15) ">
<use xlink:href="#Layer0_0_MEMBER_1_MEMBER_1_MEMBER_1_MEMBER_3_MEMBER_2_FILL"/>
</g>

<g transform="matrix( 7, 0, 0, 7, -985.85,-773.15) ">
<use xlink:href="#Layer0_0_MEMBER_1_MEMBER_1_MEMBER_1_MEMBER_3_MEMBER_3_FILL"/>
</g>

<g transform="matrix( 7, 0, 0, 7, -985.85,-773.15) ">
<use xlink:href="#Layer0_0_MEMBER_1_MEMBER_1_MEMBER_1_MEMBER_3_MEMBER_4_FILL"/>
</g>

<g transform="matrix( 7, 0, 0, 7, -985.85,-773.15) ">
<use xlink:href="#Layer0_0_MEMBER_1_MEMBER_1_MEMBER_1_MEMBER_3_MEMBER_5_FILL"/>
</g>

<g transform="matrix( 7, 0, 0, 7, -985.85,-773.15) ">
<use xlink:href="#Layer0_0_MEMBER_1_MEMBER_1_MEMBER_1_MEMBER_3_MEMBER_6_FILL"/>
</g>

<g transform="matrix( 7, 0, 0, 7, -985.85,-773.15) ">
<use xlink:href="#Layer0_0_MEMBER_1_MEMBER_1_MEMBER_1_MEMBER_3_MEMBER_7_FILL"/>
</g>

<g transform="matrix( 7, 0, 0, 7, -985.85,-773.15) ">
<use xlink:href="#Layer0_0_MEMBER_1_MEMBER_1_MEMBER_1_MEMBER_3_MEMBER_8_FILL"/>
</g>

<g transform="matrix( 7, 0, 0, 7, -985.85,-773.15) ">
<use xlink:href="#Layer0_0_MEMBER_1_MEMBER_1_MEMBER_1_MEMBER_3_MEMBER_9_FILL"/>
</g>

<g transform="matrix( 7, 0, 0, 7, -985.85,-773.15) ">
<use xlink:href="#Layer0_0_MEMBER_1_MEMBER_1_MEMBER_1_MEMBER_3_MEMBER_10_FILL"/>
</g>

<g transform="matrix( 7, 0, 0, 7, -985.85,-773.15) ">
<use xlink:href="#Layer0_0_MEMBER_1_MEMBER_1_MEMBER_1_MEMBER_3_MEMBER_11_FILL"/>
</g>

<g transform="matrix( 7, 0, 0, 7, -985.85,-773.15) ">
<use xlink:href="#Layer0_0_MEMBER_1_MEMBER_1_MEMBER_1_MEMBER_3_MEMBER_12_FILL"/>
</g>

<g transform="matrix( 7, 0, 0, 7, -985.85,-773.15) ">
<use xlink:href="#Layer0_0_MEMBER_1_MEMBER_1_MEMBER_1_MEMBER_3_MEMBER_13_FILL"/>
</g>

<g transform="matrix( 7, 0, 0, 7, -985.85,-773.15) ">
<use xlink:href="#Layer0_0_MEMBER_1_MEMBER_1_MEMBER_1_MEMBER_3_MEMBER_14_FILL"/>
</g>

<g transform="matrix( 7, 0, 0, 7, -985.85,-773.15) ">
<use xlink:href="#Layer0_0_MEMBER_1_MEMBER_1_MEMBER_1_MEMBER_3_MEMBER_15_FILL"/>
</g>

<g transform="matrix( 7, 0, 0, 7, -985.85,-773.15) ">
<use xlink:href="#Layer0_0_MEMBER_1_MEMBER_1_MEMBER_1_MEMBER_3_MEMBER_16_FILL"/>
</g>

<g transform="matrix( 7, 0, 0, 7, -985.85,-773.15) ">
<use xlink:href="#Layer0_0_MEMBER_1_MEMBER_1_MEMBER_1_MEMBER_3_MEMBER_17_FILL"/>
</g>

<g transform="matrix( 7, 0, 0, 7, -985.85,-773.15) ">
<use xlink:href="#Layer0_0_MEMBER_1_MEMBER_1_MEMBER_1_MEMBER_3_MEMBER_18_FILL"/>
</g>

<g transform="matrix( 7, 0, 0, 7, -985.85,-773.15) ">
<use xlink:href="#Layer0_0_MEMBER_1_MEMBER_1_MEMBER_1_MEMBER_3_MEMBER_19_FILL"/>
</g>

<g transform="matrix( 7, 0, 0, 7, -985.85,-773.15) ">
<use xlink:href="#Layer0_0_MEMBER_1_MEMBER_1_MEMBER_1_MEMBER_3_MEMBER_20_FILL"/>
</g>

<g transform="matrix( 7, 0, 0, 7, -985.85,-773.15) ">
<use xlink:href="#Layer0_0_MEMBER_1_MEMBER_1_MEMBER_1_MEMBER_3_MEMBER_21_FILL"/>
</g>

<g transform="matrix( 7, 0, 0, 7, -985.85,-773.15) ">
<use xlink:href="#Layer0_0_MEMBER_1_MEMBER_1_MEMBER_1_MEMBER_3_MEMBER_22_FILL"/>
</g>

<g transform="matrix( 7, 0, 0, 7, -985.85,-773.15) ">
<use xlink:href="#Layer0_0_MEMBER_1_MEMBER_1_MEMBER_1_MEMBER_3_MEMBER_23_FILL"/>
</g>

<g transform="matrix( 7, 0, 0, 7, -985.85,-773.15) ">
<use xlink:href="#Layer0_0_MEMBER_1_MEMBER_1_MEMBER_1_MEMBER_3_MEMBER_24_FILL"/>
</g>

<g transform="matrix( 7, 0, 0, 7, -985.85,-773.15) ">
<use xlink:href="#Layer0_0_MEMBER_1_MEMBER_1_MEMBER_1_MEMBER_3_MEMBER_25_FILL"/>
</g>

<g transform="matrix( 7, 0, 0, 7, -985.85,-773.15) ">
<use xlink:href="#Layer0_0_MEMBER_1_MEMBER_1_MEMBER_1_MEMBER_3_MEMBER_26_FILL"/>
</g>

<g transform="matrix( 7, 0, 0, 7, -985.85,-773.15) ">
<use xlink:href="#Layer0_0_MEMBER_1_MEMBER_1_MEMBER_1_MEMBER_3_MEMBER_27_FILL"/>
</g>

<g transform="matrix( 7, 0, 0, 7, -985.85,-773.15) ">
<use xlink:href="#Layer0_0_MEMBER_1_MEMBER_1_MEMBER_1_MEMBER_3_MEMBER_28_FILL"/>
</g>

<g transform="matrix( 7, 0, 0, 7, -985.85,-773.15) ">
<use xlink:href="#Layer0_0_MEMBER_1_MEMBER_1_MEMBER_1_MEMBER_3_MEMBER_29_FILL"/>
</g>

<g transform="matrix( 7, 0, 0, 7, -985.85,-773.15) ">
<use xlink:href="#Layer0_0_MEMBER_1_MEMBER_1_MEMBER_1_MEMBER_3_MEMBER_30_FILL"/>
</g>

<g transform="matrix( 7, 0, 0, 7, -985.85,-773.15) ">
<use xlink:href="#Layer0_0_MEMBER_1_MEMBER_1_MEMBER_1_MEMBER_3_MEMBER_31_FILL"/>
</g>

<g transform="matrix( 7, 0, 0, 7, -985.85,-773.15) ">
<use xlink:href="#Layer0_0_MEMBER_1_MEMBER_1_MEMBER_1_MEMBER_3_MEMBER_32_FILL"/>
</g>

<g transform="matrix( 7, 0, 0, 7, -985.85,-773.15) ">
<use xlink:href="#Layer0_0_MEMBER_1_MEMBER_1_MEMBER_1_MEMBER_3_MEMBER_33_FILL"/>
</g>

<g transform="matrix( 7, 0, 0, 7, -985.85,-773.15) ">
<use xlink:href="#Layer0_0_MEMBER_1_MEMBER_1_MEMBER_1_MEMBER_3_MEMBER_34_FILL"/>
</g>

<g transform="matrix( 7, 0, 0, 7, -985.85,-773.15) ">
<use xlink:href="#Layer0_0_MEMBER_1_MEMBER_1_MEMBER_1_MEMBER_3_MEMBER_35_FILL"/>
</g>

<g transform="matrix( 7, 0, 0, 7, -985.85,-773.15) ">
<use xlink:href="#Layer0_0_MEMBER_1_MEMBER_1_MEMBER_1_MEMBER_3_MEMBER_36_FILL"/>
</g>

<g transform="matrix( 7, 0, 0, 7, -985.85,-773.15) ">
<use xlink:href="#Layer0_0_MEMBER_1_MEMBER_1_MEMBER_1_MEMBER_3_MEMBER_37_FILL"/>
</g>

<g transform="matrix( 7, 0, 0, 7, -985.85,-773.15) ">
<use xlink:href="#Layer0_0_MEMBER_1_MEMBER_1_MEMBER_1_MEMBER_3_MEMBER_38_FILL"/>
</g>

<g transform="matrix( 7, 0, 0, 7, -985.85,-773.15) ">
<use xlink:href="#Layer0_0_MEMBER_1_MEMBER_1_MEMBER_1_MEMBER_3_MEMBER_39_FILL"/>
</g>

<g transform="matrix( 7, 0, 0, 7, -985.85,-773.15) ">
<use xlink:href="#Layer0_0_MEMBER_1_MEMBER_1_MEMBER_1_MEMBER_3_MEMBER_40_FILL"/>
</g>

<g transform="matrix( 7, 0, 0, 7, -985.85,-773.15) ">
<use xlink:href="#Layer0_0_MEMBER_1_MEMBER_1_MEMBER_1_MEMBER_3_MEMBER_41_FILL"/>
</g>

<g transform="matrix( 7, 0, 0, 7, -985.85,-773.15) ">
<use xlink:href="#Layer0_0_MEMBER_1_MEMBER_1_MEMBER_1_MEMBER_3_MEMBER_42_FILL"/>
</g>

<g transform="matrix( 7, 0, 0, 7, -985.85,-773.15) ">
<use xlink:href="#Layer0_0_MEMBER_1_MEMBER_1_MEMBER_1_MEMBER_3_MEMBER_43_FILL"/>
</g>

<g transform="matrix( 7, 0, 0, 7, -985.85,-773.15) ">
<use xlink:href="#Layer0_0_MEMBER_1_MEMBER_1_MEMBER_1_MEMBER_3_MEMBER_44_FILL"/>
</g>

<g transform="matrix( 7, 0, 0, 7, -985.85,-773.15) ">
<use xlink:href="#Layer0_0_MEMBER_1_MEMBER_1_MEMBER_1_MEMBER_3_MEMBER_45_FILL"/>
</g>

<g transform="matrix( 7, 0, 0, 7, -985.85,-773.15) ">
<use xlink:href="#Layer0_0_MEMBER_1_MEMBER_1_MEMBER_1_MEMBER_3_MEMBER_46_FILL"/>
</g>

<g transform="matrix( 7, 0, 0, 7, -985.85,-773.15) ">
<use xlink:href="#Layer0_0_MEMBER_1_MEMBER_1_MEMBER_1_MEMBER_3_MEMBER_47_FILL"/>
</g>

<g transform="matrix( 7, 0, 0, 7, -985.85,-773.15) ">
<use xlink:href="#Layer0_0_MEMBER_1_MEMBER_1_MEMBER_1_MEMBER_3_MEMBER_48_FILL"/>
</g>

<g transform="matrix( 7, 0, 0, 7, -985.85,-773.15) ">
<use xlink:href="#Layer0_0_MEMBER_1_MEMBER_1_MEMBER_1_MEMBER_3_MEMBER_49_FILL"/>
</g>

<g transform="matrix( 7, 0, 0, 7, -985.85,-773.15) ">
<use xlink:href="#Layer0_0_MEMBER_1_MEMBER_1_MEMBER_1_MEMBER_3_MEMBER_50_FILL"/>
</g>

<g transform="matrix( 7, 0, 0, 7, -985.85,-773.15) ">
<use xlink:href="#Layer0_0_MEMBER_1_MEMBER_1_MEMBER_1_MEMBER_3_MEMBER_51_FILL"/>
</g>

<g transform="matrix( 7, 0, 0, 7, -985.85,-773.15) ">
<use xlink:href="#Layer0_0_MEMBER_1_MEMBER_1_MEMBER_1_MEMBER_3_MEMBER_52_FILL"/>
</g>

<g transform="matrix( 7, 0, 0, 7, -985.85,-773.15) ">
<use xlink:href="#Layer0_0_MEMBER_1_MEMBER_1_MEMBER_1_MEMBER_3_MEMBER_53_FILL"/>
</g>

<g transform="matrix( 7, 0, 0, 7, -985.85,-773.15) ">
<use xlink:href="#Layer0_0_MEMBER_1_MEMBER_1_MEMBER_1_MEMBER_3_MEMBER_54_FILL"/>
</g>

<g transform="matrix( 7, 0, 0, 7, -985.85,-773.15) ">
<use xlink:href="#Layer0_0_MEMBER_1_MEMBER_1_MEMBER_1_MEMBER_3_MEMBER_55_FILL"/>
</g>

<g transform="matrix( 7, 0, 0, 7, -985.85,-773.15) ">
<use xlink:href="#Layer0_0_MEMBER_1_MEMBER_1_MEMBER_1_MEMBER_3_MEMBER_56_FILL"/>
</g>

<g transform="matrix( 7, 0, 0, 7, -985.85,-773.15) ">
<use xlink:href="#Layer0_0_MEMBER_1_MEMBER_1_MEMBER_1_MEMBER_3_MEMBER_57_FILL"/>
</g>

<g transform="matrix( 7, 0, 0, 7, -985.85,-773.15) ">
<use xlink:href="#Layer0_0_MEMBER_1_MEMBER_1_MEMBER_1_MEMBER_3_MEMBER_58_FILL"/>
</g>

<g transform="matrix( 7, 0, 0, 7, -985.85,-773.15) ">
<use xlink:href="#Layer0_0_MEMBER_1_MEMBER_1_MEMBER_1_MEMBER_3_MEMBER_59_FILL"/>
</g>

<g transform="matrix( 7, 0, 0, 7, -985.85,-773.15) ">
<use xlink:href="#Layer0_0_MEMBER_1_MEMBER_1_MEMBER_1_MEMBER_3_MEMBER_60_FILL"/>
</g>

<g transform="matrix( 7, 0, 0, 7, -985.85,-773.15) ">
<use xlink:href="#Layer0_0_MEMBER_1_MEMBER_1_MEMBER_1_MEMBER_3_MEMBER_61_FILL"/>
</g>

<g transform="matrix( 7, 0, 0, 7, -985.85,-773.15) ">
<use xlink:href="#Layer0_0_MEMBER_1_MEMBER_1_MEMBER_1_MEMBER_3_MEMBER_62_FILL"/>
</g>

<g transform="matrix( 7, 0, 0, 7, -985.85,-773.15) ">
<use xlink:href="#Layer0_0_MEMBER_1_MEMBER_1_MEMBER_1_MEMBER_3_MEMBER_63_FILL"/>
</g>

<g transform="matrix( 7, 0, 0, 7, -985.85,-773.15) ">
<use xlink:href="#Layer0_0_MEMBER_1_MEMBER_1_MEMBER_1_MEMBER_3_MEMBER_64_FILL"/>
</g>

<g transform="matrix( 7, 0, 0, 7, -985.85,-773.15) ">
<use xlink:href="#Layer0_0_MEMBER_1_MEMBER_1_MEMBER_1_MEMBER_3_MEMBER_65_FILL"/>
</g>

<g transform="matrix( 7, 0, 0, 7, -985.85,-773.15) ">
<use xlink:href="#Layer0_0_MEMBER_1_MEMBER_1_MEMBER_1_MEMBER_3_MEMBER_66_FILL"/>
</g>

<g transform="matrix( 7, 0, 0, 7, -985.85,-773.15) ">
<use xlink:href="#Layer0_0_MEMBER_1_MEMBER_1_MEMBER_1_MEMBER_3_MEMBER_67_FILL"/>
</g>

<g transform="matrix( 7, 0, 0, 7, -985.85,-773.15) ">
<use xlink:href="#Layer0_0_MEMBER_1_MEMBER_1_MEMBER_1_MEMBER_3_MEMBER_68_FILL"/>
</g>

<g transform="matrix( 7, 0, 0, 7, -985.85,-773.15) ">
<use xlink:href="#Layer0_0_MEMBER_1_MEMBER_1_MEMBER_1_MEMBER_3_MEMBER_69_FILL"/>
</g>

<g transform="matrix( 7, 0, 0, 7, -985.85,-773.15) ">
<use xlink:href="#Layer0_0_MEMBER_1_MEMBER_1_MEMBER_1_MEMBER_3_MEMBER_70_FILL"/>
</g>

<g transform="matrix( 7, 0, 0, 7, -985.85,-773.15) ">
<use xlink:href="#Layer0_0_MEMBER_1_MEMBER_1_MEMBER_1_MEMBER_3_MEMBER_71_FILL"/>
</g>

<g transform="matrix( 7, 0, 0, 7, -985.85,-773.15) ">
<use xlink:href="#Layer0_0_MEMBER_1_MEMBER_1_MEMBER_1_MEMBER_3_MEMBER_72_FILL"/>
</g>

<g transform="matrix( 7, 0, 0, 7, -985.85,-773.15) ">
<use xlink:href="#Layer0_0_MEMBER_1_MEMBER_1_MEMBER_1_MEMBER_3_MEMBER_73_FILL"/>
</g>

<g transform="matrix( 7, 0, 0, 7, -985.85,-773.15) ">
<use xlink:href="#Layer0_0_MEMBER_1_MEMBER_1_MEMBER_1_MEMBER_3_MEMBER_74_FILL"/>
</g>

<g transform="matrix( 7, 0, 0, 7, -985.85,-773.15) ">
<use xlink:href="#Layer0_0_MEMBER_1_MEMBER_1_MEMBER_1_MEMBER_3_MEMBER_75_FILL"/>
</g>

<g transform="matrix( 7, 0, 0, 7, -985.85,-773.15) ">
<use xlink:href="#Layer0_0_MEMBER_1_MEMBER_1_MEMBER_2_FILL"/>
</g>

<g transform="matrix( 7, 0, 0, 7, -985.85,-773.15) ">
<use xlink:href="#Layer0_0_MEMBER_1_MEMBER_2_FILL"/>
</g>

<g transform="matrix( 7, 0, 0, 7, -985.85,-773.15) ">
<use xlink:href="#Layer0_0_MEMBER_1_MEMBER_3_MEMBER_0_FILL"/>
</g>

<g transform="matrix( 7, 0, 0, 7, -985.85,-773.15) ">
<use xlink:href="#Layer0_0_MEMBER_1_MEMBER_4_FILL"/>
</g>

<g transform="matrix( 7, 0, 0, 7, -985.85,-773.15) ">
<use xlink:href="#Layer0_0_MEMBER_1_MEMBER_5_FILL"/>
</g>
</svg>
