
<svg xmlns="http://www.w3.org/2000/svg" version="1.1" xmlns:xlink="http://www.w3.org/1999/xlink" preserveAspectRatio="none" x="0px" y="0px" width="1024px" height="1024px" viewBox="0 0 1024 1024">
<defs>
<g id="Layer0_0_MEMBER_0_FILL">
<path fill="#1D1D1B" fill-opacity="0.09803921568627451" stroke="none" d="
M 41.2 2.55
Q 58.15 2.55 70.3 2.15 82.35 1.8 82.35 1.25 82.35 0.75 70.3 0.4 58.05 0 41.2 0 24.35 0 12.05 0.4 0 0.75 0 1.25 0 1.8 12.05 2.15 24.25 2.55 41.2 2.55 Z"/>
</g>

<g id="Layer0_0_MEMBER_1_MEMBER_0_MEMBER_0_FILL">
<path fill="#C44645" stroke="none" d="
M 191.45 381.3
Q 192.1 381.95 193 381.95
L 194.05 381.95 194.05 374.95 192.7 374.95
Q 192.1 374.95 191.65 375.35 191.2 375.75 191.15 376.35
L 190.9 379.7
Q 190.85 380.6 191.45 381.3 Z"/>
</g>

<g id="Layer0_0_MEMBER_1_MEMBER_0_MEMBER_1_MEMBER_0_FILL">
<path fill="#DAD1D1" stroke="none" d="
M 197.45 354.95
Q 194.85 354.95 194.1 355.7 193.25 356.45 193.15 359.25
L 191.9 378.45
Q 191.9 380.1 192.5 381.6
L 192.8 382.3
Q 193.9 384.5 195.95 385.75 198.05 387.1 200.55 387.1
L 272.45 387.1
Q 273.7 387.1 274.55 386.25 275.4 385.4 275.4 384.15
L 275.4 377.65 275.35 377.1
Q 275.2 376.5 274.85 376
L 262.45 358.3
Q 261.35 356.75 259.65 355.85 257.95 354.95 256.05 354.95
L 197.45 354.95 Z"/>
</g>

<g id="Layer0_0_MEMBER_1_MEMBER_0_MEMBER_1_MEMBER_1_FILL">
<path fill="#614F49" stroke="none" d="
M 192.5 381.6
Q 193.45 384.05 195.65 385.55 197.9 387.1 200.65 387.1
L 254.9 387.1 254.9 384.95
Q 254.9 383.15 255.95 381.6
L 192.5 381.6 Z"/>
</g>

<g id="Layer0_0_MEMBER_1_MEMBER_0_MEMBER_2_FILL">
<path fill="#FFFFFF" stroke="none" d="
M 232.2 358.2
L 232.2 384.3
Q 232.2 384.7 232.45 384.95 232.75 385.25 233.15 385.25
L 244.5 385.25
Q 244.9 385.25 245.15 384.95 245.45 384.7 245.45 384.3
L 245.45 358.2
Q 245.45 357.85 245.15 357.55 244.9 357.25 244.5 357.25
L 233.15 357.25
Q 232.75 357.25 232.45 357.55 232.2 357.8 232.2 358.2 Z"/>
</g>

<g id="Layer0_0_MEMBER_1_MEMBER_0_MEMBER_3_FILL">
<path fill="#ABEDE3" stroke="none" d="
M 233.7 358.2
Q 233.15 358.2 233.15 358.75
L 233.15 368.2
Q 233.15 368.75 233.7 368.75
L 244.05 368.75
Q 244.6 368.75 244.6 368.2
L 244.6 358.75
Q 244.6 358.2 244.05 358.2
L 233.7 358.2 Z"/>
</g>

<g id="Layer0_0_MEMBER_1_MEMBER_0_MEMBER_4_FILL">
<path fill="#FFFFFF" stroke="none" d="
M 247.5 357.6
Q 247.15 358 247.15 358.5
L 247.15 384.3
Q 247.15 384.7 247.4 384.95 247.7 385.25 248.1 385.25
L 250.25 385.25
Q 250.95 385.25 251.5 384.8 252.05 384.3 252.2 383.6 252.7 381.15 254.45 379.35 256.2 377.6 258.7 377.05 259.45 376.9 259.9 376.3 260.35 375.7 260.35 374.95
L 260.35 358.5
Q 260.35 358 260 357.6 259.65 357.25 259.15 357.25
L 248.35 357.25
Q 247.85 357.25 247.5 357.6 Z"/>
</g>

<g id="Layer0_0_MEMBER_1_MEMBER_0_MEMBER_5_FILL">
<path fill="#ABEDE3" stroke="none" d="
M 259.5 358.85
Q 259.5 358.2 258.85 358.2
L 248.7 358.2
Q 248.05 358.2 248.05 358.85
L 248.05 368.15
Q 248.05 368.75 248.6 368.85
L 258.75 370.1
Q 259.05 370.15 259.3 369.95 259.5 369.75 259.5 369.45
L 259.5 358.85 Z"/>
</g>

<g id="Layer0_0_MEMBER_1_MEMBER_0_MEMBER_6_FILL">
<path fill="#ABEDE3" stroke="none" d="
M 261.8 359.15
Q 261.65 359 261.45 359.05 261.25 359.15 261.25 359.35
L 261.25 370.1
Q 261.25 370.3 261.5 370.4
L 269.75 371.45
Q 269.95 371.45 270.05 371.3 270.15 371.15 270.05 370.95
L 261.8 359.15 Z"/>
</g>

<g id="Layer0_0_MEMBER_1_MEMBER_0_MEMBER_7_FILL">
<path fill="#ABEDE3" stroke="none" d="
M 269.3 370.85
L 261.75 360.1 261.75 369.9 269.3 370.85 Z"/>
</g>

<g id="Layer0_0_MEMBER_1_MEMBER_0_MEMBER_8_FILL">
<path fill="#614F49" stroke="none" d="
M 264.4 372.9
Q 264.55 373.1 264.7 373.1
L 264.9 373.05
Q 265.2 372.85 265 372.6
L 263 369
Q 262.8 368.7 262.55 368.9 262.25 369 262.4 369.35
L 264.4 372.9 Z"/>
</g>

<g id="Layer0_0_MEMBER_1_MEMBER_0_MEMBER_9_FILL">
<path fill="#FFFFFF" stroke="none" d="
M 262.6 365.9
L 262.05 371.8
Q 262.55 371.8 263 371 263.4 370.15 263.5 368.95 263.6 367.75 263.35 366.9 263.1 366 262.6 365.9 Z"/>
</g>

<g id="Layer0_0_MEMBER_1_MEMBER_0_MEMBER_10_FILL">
<path fill="#614F49" stroke="none" d="
M 275.4 377.65
L 275.35 377.1 273.1 377.2
Q 270.55 377.55 268.45 379.3
L 265.65 381.6
Q 266.55 383.05 266.55 384.9 266.55 386 266.15 387.1
L 272.45 387.1
Q 273.7 387.1 274.55 386.25 275.4 385.4 275.4 384.15
L 275.4 377.65 Z"/>
</g>

<g id="Layer0_0_MEMBER_1_MEMBER_0_MEMBER_11_FILL">
<path fill="#F9B659" stroke="none" d="
M 273.55 373.95
Q 273.4 374 273.4 374.2
L 273.4 378.9
Q 273.4 379.45 273.8 379.9 274.2 380.3 274.8 380.3
L 275.2 380.3
Q 275.7 380.3 275.7 379.8
L 275.7 377.65 275.65 377.1
Q 275.5 376.5 275.15 376
L 273.8 374.05
Q 273.7 373.9 273.55 373.95 Z"/>
</g>

<g id="Layer0_0_MEMBER_1_MEMBER_0_MEMBER_12_FILL">
<path fill="#1D1715" stroke="none" d="
M 275.4 381.1
L 273.1 381.1 273.1 381.5 275.4 381.5 275.4 381.1 Z"/>
</g>

<g id="Layer0_0_MEMBER_1_MEMBER_0_MEMBER_13_FILL">
<path fill="#1D1715" stroke="none" d="
M 275.4 381.9
L 273.1 381.9 273.1 382.3 275.4 382.3 275.4 381.9 Z"/>
</g>

<g id="Layer0_0_MEMBER_1_MEMBER_0_MEMBER_14_FILL">
<path fill="#1D1715" stroke="none" d="
M 275.4 382.7
L 273.1 382.7 273.1 383.1 275.4 383.1 275.4 382.7 Z"/>
</g>

<g id="Layer0_0_MEMBER_1_MEMBER_0_MEMBER_15_FILL">
<path fill="#1D1715" stroke="none" d="
M 275.4 383.5
L 273.1 383.5 273.1 383.9 275.4 383.9 275.4 383.5 Z"/>
</g>

<g id="Layer0_0_MEMBER_1_MEMBER_0_MEMBER_16_FILL">
<path fill="#1D1715" stroke="none" d="
M 258.05 379.7
Q 256.75 380.4 255.95 381.6 254.9 383.15 254.9 384.95
L 254.9 387.1 267 387.1 267 384.95
Q 267 383.15 265.95 381.6 264.15 378.95 261 378.95
L 260.9 378.95
Q 259.4 378.95 258.05 379.7 Z"/>
</g>

<g id="Layer0_0_MEMBER_1_MEMBER_0_MEMBER_17_FILL">
<path fill="#1D1715" stroke="none" d="
M 204.8 381.6
Q 203.8 383.05 203.8 384.95
L 203.8 387.1 215.9 387.1 215.9 384.95
Q 215.9 383.15 214.85 381.6 213.05 378.95 209.9 378.95
L 209.75 378.95
Q 206.6 378.95 204.8 381.6 Z"/>
</g>

<g id="Layer0_0_MEMBER_1_MEMBER_0_MEMBER_18_FILL">
<path fill="#FFFFFF" stroke="none" d="
M 194.35 369.3
Q 194.65 369.6 195.05 369.6
L 229.2 369.6
Q 229.6 369.6 229.9 369.3 230.2 369 230.2 368.6
L 230.2 358.25
Q 230.2 357.85 229.9 357.55 229.6 357.25 229.2 357.25
L 195.8 357.25
Q 195.4 357.25 195.1 357.55 194.85 357.85 194.85 358.25
L 194.05 368.6
Q 194.05 369 194.35 369.3 Z"/>
</g>

<g id="Layer0_0_MEMBER_1_MEMBER_0_MEMBER_19_MEMBER_0_FILL">
<path fill="#ABEDE3" stroke="none" d="
M 229.15 358.8
Q 229.15 358.2 228.55 358.2
L 214.05 358.2
Q 213.45 358.2 213.45 358.8
L 213.45 368.15
Q 213.45 368.75 214.05 368.75
L 228.55 368.75
Q 229.15 368.75 229.15 368.15
L 229.15 358.8 Z"/>
</g>

<g id="Layer0_0_MEMBER_1_MEMBER_0_MEMBER_19_MEMBER_1_FILL">
<path fill="#ABEDE3" stroke="none" d="
M 196.6 358.2
Q 195.8 358.2 195.8 358.95
L 195.1 368
Q 195.1 368.3 195.35 368.55 195.55 368.75 195.85 368.75
L 210.05 368.75
Q 210.35 368.75 210.6 368.55 210.8 368.3 210.8 368
L 210.8 358.95
Q 210.8 358.2 210.05 358.2
L 196.6 358.2 Z"/>
</g>

<g id="Layer0_0_MEMBER_1_MEMBER_0_MEMBER_20_FILL">
<path fill="#DAD1D1" stroke="none" d="
M 249.8 370.15
Q 248.3 370.15 248.3 370.6 248.3 370.75 248.75 370.9 249.2 371.05 249.8 371.05 250.4 371.05 250.85 370.9 251.3 370.75 251.3 370.6 251.3 370.15 249.8 370.15 Z"/>
</g>

<g id="Layer0_0_MEMBER_1_MEMBER_0_MEMBER_21_FILL">
<path fill="#000000" fill-opacity="0.09803921568627451" stroke="none" d="
M 84.5 11
L 84.5 8 1.35 0 1.2 1.9
Q 0.35 2.25 0.25 3.2
L 0 6.55
Q -0.05 7.4 0.45 8 0.95 8.65 1.75 8.75
L 1.85 9.05 1.9 9.15
Q 3 11.35 5.05 12.6 7.15 13.95 9.65 13.95
L 81.75 13.95
Q 82.9 13.9 83.7 13 84.5 12.15 84.5 11 Z"/>
</g>

<g id="Layer0_0_MEMBER_1_MEMBER_0_MEMBER_22_MEMBER_0_FILL">
<path fill="#FFFFFF" stroke="none" d="
M 263.05 385.25
Q 263.05 384.35 262.45 383.75 261.8 383.1 260.95 383.1 260.1 383.1 259.45 383.75 258.85 384.35 258.85 385.25 258.85 386.1 259.45 386.75 260.1 387.35 260.95 387.35 261.8 387.35 262.45 386.75 263.05 386.1 263.05 385.25 Z"/>
</g>

<g id="Layer0_0_MEMBER_1_MEMBER_0_MEMBER_22_MEMBER_1_FILL">
<path fill="#1D1715" stroke="none" d="
M 255.65 385.25
Q 255.65 387.45 257.2 388.95 258.75 390.5 260.95 390.5 263.6 390.5 265.25 388.35 266.25 386.85 266.25 385.25 266.25 383.75 265.55 382.6 264 379.95 260.95 379.95 258.75 379.95 257.2 381.5 255.65 383.05 255.65 385.25
M 258.4 387.75
Q 257.35 386.7 257.35 385.25 257.35 383.75 258.4 382.7 259.45 381.65 260.95 381.65 262.45 381.65 263.5 382.7 264.55 383.75 264.55 385.25 264.55 386.7 263.5 387.75 262.45 388.8 260.95 388.8 259.45 388.8 258.4 387.75 Z"/>
</g>

<g id="Layer0_0_MEMBER_1_MEMBER_0_MEMBER_22_MEMBER_2_FILL">
<path fill="#DAD1D1" stroke="none" d="
M 260.95 381.5
Q 259.4 381.5 258.3 382.6 257.2 383.7 257.2 385.25 257.2 386.8 258.3 387.85 259.4 388.95 260.95 388.95 262.5 388.95 263.55 387.85 264.65 386.8 264.65 385.25 264.65 383.7 263.55 382.6 262.5 381.5 260.95 381.5
M 260.55 381.85
L 260.55 382.9
Q 259.95 383 259.6 383.25
L 258.85 382.55
Q 259.65 382 260.55 381.85
M 259.8 383.5
Q 260.2 383.25 260.55 383.2
L 260.95 383.15 261.35 383.2
Q 261.75 383.3 262.05 383.5 262.45 383.75 262.65 384.1 262.85 384.4 262.95 384.8
L 263 385.25 262.95 385.65
Q 262.85 386.05 262.65 386.35 262.45 386.7 262.1 386.95 261.75 387.2 261.35 387.25
L 260.95 387.3 260.55 387.25
Q 260.1 387.2 259.8 386.95 259.45 386.75 259.2 386.35
L 258.95 385.65 258.9 385.25 258.95 384.8
Q 259.05 384.4 259.25 384.1 259.45 383.75 259.8 383.5
M 263 382.55
L 262.3 383.25
Q 261.9 383 261.35 382.9
L 261.35 381.85
Q 262.3 382 263 382.55
M 258.6 385.65
Q 258.65 386.1 259 386.6
L 258.25 387.3
Q 257.7 386.55 257.6 385.65
L 258.6 385.65
M 259 383.85
Q 258.65 384.35 258.6 384.8
L 257.6 384.8
Q 257.7 383.85 258.3 383.15
L 259 383.85
M 258.85 387.9
L 259.55 387.2
Q 259.9 387.45 260.55 387.6
L 260.55 388.6
Q 259.65 388.45 258.85 387.9
M 261.35 388.6
L 261.35 387.6
Q 262.05 387.4 262.3 387.2
L 263.05 387.9
Q 262.25 388.45 261.35 388.6
M 264.3 385.65
Q 264.2 386.6 263.6 387.3
L 262.9 386.6
Q 263.25 386.1 263.3 385.65
L 264.3 385.65
M 264.3 384.8
L 263.3 384.8
Q 263.25 384.35 262.9 383.85
L 263.6 383.15
Q 264.15 383.85 264.3 384.8 Z"/>
</g>

<g id="Layer0_0_MEMBER_1_MEMBER_0_MEMBER_23_MEMBER_0_FILL">
<path fill="#FFFFFF" stroke="none" d="
M 211.95 385.25
Q 211.95 384.35 211.35 383.75 210.7 383.1 209.85 383.1 208.95 383.1 208.35 383.75 207.7 384.35 207.7 385.25 207.7 386.1 208.35 386.75 208.95 387.35 209.85 387.35 210.7 387.35 211.35 386.75 211.95 386.1 211.95 385.25 Z"/>
</g>

<g id="Layer0_0_MEMBER_1_MEMBER_0_MEMBER_23_MEMBER_1_FILL">
<path fill="#1D1715" stroke="none" d="
M 209.85 379.95
Q 207.65 379.95 206.1 381.5 204.55 383.05 204.55 385.25 204.55 387.45 206.1 388.95 207.65 390.5 209.85 390.5 212.55 390.5 214.1 388.35 215.1 386.95 215.1 385.25 215.1 383.75 214.4 382.6 212.9 379.95 209.85 379.95
M 209.85 381.65
Q 211.3 381.65 212.35 382.7 213.4 383.75 213.4 385.25 213.4 386.7 212.35 387.75 211.3 388.8 209.85 388.8 208.35 388.8 207.3 387.75 206.25 386.7 206.25 385.25 206.25 383.75 207.3 382.7 208.35 381.65 209.85 381.65 Z"/>
</g>

<g id="Layer0_0_MEMBER_1_MEMBER_0_MEMBER_23_MEMBER_2_FILL">
<path fill="#DAD1D1" stroke="none" d="
M 212.45 382.6
Q 211.4 381.5 209.85 381.5 208.3 381.5 207.2 382.6 206.1 383.7 206.1 385.25 206.1 386.8 207.2 387.85 208.3 388.95 209.85 388.95 211.4 388.95 212.45 387.85 213.55 386.8 213.55 385.25 213.55 383.7 212.45 382.6
M 209.4 381.85
L 209.4 382.9
Q 208.85 383 208.45 383.25
L 207.75 382.55
Q 208.55 382 209.4 381.85
M 209.4 383.2
L 209.85 383.15 210.25 383.2
Q 210.65 383.3 210.95 383.5 211.35 383.75 211.55 384.1 211.75 384.4 211.85 384.8
L 211.9 385.25 211.85 385.65
Q 211.75 386.05 211.55 386.35 211.35 386.75 210.95 386.95 210.65 387.15 210.25 387.25
L 209.85 387.3 209.4 387.25
Q 209 387.15 208.7 386.95 208.35 386.75 208.1 386.35 207.9 386.05 207.8 385.65
L 207.75 385.25 207.8 384.8
Q 207.85 384.65 208.1 384.1 208.35 383.75 208.7 383.5 209 383.3 209.4 383.2
M 211.9 382.55
L 211.2 383.25
Q 210.8 383 210.25 382.9
L 210.25 381.85
Q 211.2 382 211.9 382.55
M 212.2 384.8
L 211.8 383.85 212.5 383.15
Q 213.05 383.85 213.2 384.8
L 212.2 384.8
M 211.8 386.6
Q 212.05 386.25 212.2 385.65
L 213.2 385.65
Q 213.05 386.6 212.5 387.3
L 211.8 386.6
M 207.75 387.9
L 208.45 387.2
Q 208.8 387.45 209.4 387.6
L 209.4 388.6
Q 208.45 388.45 207.75 387.9
M 210.25 388.6
L 210.25 387.6
Q 210.85 387.45 211.2 387.2
L 211.9 387.9
Q 211.2 388.45 210.25 388.6
M 206.45 385.65
L 207.5 385.65
Q 207.6 386.2 207.85 386.6
L 207.15 387.3
Q 206.6 386.6 206.45 385.65
M 207.5 384.8
L 206.45 384.8
Q 206.6 383.85 207.15 383.15
L 207.9 383.85
Q 207.55 384.35 207.5 384.8 Z"/>
</g>

<g id="Layer0_0_MEMBER_1_MEMBER_1_MEMBER_0_FILL">
<path fill="#FFFFFF" fill-opacity="0.4980392156862745" stroke="none" d="
M 0 0
L 6.05 9.5 10.9 9.5 4.9 0 0 0 Z"/>
</g>

<g id="Layer0_0_MEMBER_1_MEMBER_1_MEMBER_1_FILL">
<path fill="#FFFFFF" fill-opacity="0.4980392156862745" stroke="none" d="
M 5.5 0
L 11.45 9.5 13.05 9.5 7.1 0 5.5 0 Z"/>
</g>

<g id="Layer0_0_MEMBER_1_MEMBER_2_MEMBER_0_FILL">
<path fill="#FFFFFF" fill-opacity="0.4980392156862745" stroke="none" d="
M 0 0
L 6 9.5 10.85 9.5 4.9 0 0 0 Z"/>
</g>

<g id="Layer0_0_MEMBER_1_MEMBER_2_MEMBER_1_FILL">
<path fill="#FFFFFF" fill-opacity="0.4980392156862745" stroke="none" d="
M 5.5 0
L 11.45 9.5 13.05 9.5 7.1 0 5.5 0 Z"/>
</g>

<g id="Layer0_0_MEMBER_1_MEMBER_3_MEMBER_0_FILL">
<path fill="#FFFFFF" fill-opacity="0.4980392156862745" stroke="none" d="
M 0 0
L 0 2.25 4.6 9.5 9.45 9.5 3.45 0 0 0 Z"/>
</g>

<g id="Layer0_0_MEMBER_1_MEMBER_3_MEMBER_1_FILL">
<path fill="#FFFFFF" fill-opacity="0.4980392156862745" stroke="none" d="
M 4.1 0
L 10.05 9.5 10.35 9.5 10.35 7.5 5.65 0 4.1 0 Z"/>
</g>

<g id="Layer0_0_MEMBER_1_MEMBER_4_MEMBER_0_FILL">
<path fill="#FFFFFF" fill-opacity="0.4980392156862745" stroke="none" d="
M 0 0.15
L 0 1.2 5.75 10.3 10.25 10.9
Q 10.4 10.9 10.4 10.75
L 10.4 9.95 4.1 0 0.1 0 0 0.15 Z"/>
</g>

<g id="Layer0_0_MEMBER_1_MEMBER_4_MEMBER_1_FILL">
<path fill="#FFFFFF" fill-opacity="0.4980392156862745" stroke="none" d="
M 4.75 0
L 10.4 9 10.4 6.5 6.3 0 4.75 0 Z"/>
</g>

<g id="Layer0_0_MEMBER_1_MEMBER_5_MEMBER_0_FILL">
<path fill="#FFFFFF" fill-opacity="0.4980392156862745" stroke="none" d="
M 0 0
L 0 3.2 4.55 10.35 7.55 10.75 0 0 Z"/>
</g>
</defs>

<g transform="matrix( 10, 0, 0, 10, 104.05,670.75) ">
<use xlink:href="#Layer0_0_MEMBER_0_FILL"/>
</g>

<g transform="matrix( 10, 0, 0, 10, -1820.95,-3221.75) ">
<use xlink:href="#Layer0_0_MEMBER_1_MEMBER_0_MEMBER_0_FILL"/>
</g>

<g transform="matrix( 10, 0, 0, 10, -1820.95,-3221.75) ">
<use xlink:href="#Layer0_0_MEMBER_1_MEMBER_0_MEMBER_1_MEMBER_0_FILL"/>
</g>

<g transform="matrix( 10, 0, 0, 10, -1820.95,-3221.75) ">
<use xlink:href="#Layer0_0_MEMBER_1_MEMBER_0_MEMBER_1_MEMBER_1_FILL"/>
</g>

<g transform="matrix( 10, 0, 0, 10, -1820.95,-3221.75) ">
<use xlink:href="#Layer0_0_MEMBER_1_MEMBER_0_MEMBER_2_FILL"/>
</g>

<g transform="matrix( 10, 0, 0, 10, -1820.95,-3221.75) ">
<use xlink:href="#Layer0_0_MEMBER_1_MEMBER_0_MEMBER_3_FILL"/>
</g>

<g transform="matrix( 10, 0, 0, 10, -1820.95,-3221.75) ">
<use xlink:href="#Layer0_0_MEMBER_1_MEMBER_0_MEMBER_4_FILL"/>
</g>

<g transform="matrix( 10, 0, 0, 10, -1820.95,-3221.75) ">
<use xlink:href="#Layer0_0_MEMBER_1_MEMBER_0_MEMBER_5_FILL"/>
</g>

<g transform="matrix( 10, 0, 0, 10, -1820.95,-3221.75) ">
<use xlink:href="#Layer0_0_MEMBER_1_MEMBER_0_MEMBER_6_FILL"/>
</g>

<g transform="matrix( 10, 0, 0, 10, -1820.95,-3221.75) ">
<use xlink:href="#Layer0_0_MEMBER_1_MEMBER_0_MEMBER_7_FILL"/>
</g>

<g transform="matrix( 10, 0, 0, 10, -1820.95,-3221.75) ">
<use xlink:href="#Layer0_0_MEMBER_1_MEMBER_0_MEMBER_8_FILL"/>
</g>

<g transform="matrix( 10, 0, 0, 10, -1820.95,-3221.75) ">
<use xlink:href="#Layer0_0_MEMBER_1_MEMBER_0_MEMBER_9_FILL"/>
</g>

<g transform="matrix( 10, 0, 0, 10, -1820.95,-3221.75) ">
<use xlink:href="#Layer0_0_MEMBER_1_MEMBER_0_MEMBER_10_FILL"/>
</g>

<g transform="matrix( 10, 0, 0, 10, -1820.95,-3221.75) ">
<use xlink:href="#Layer0_0_MEMBER_1_MEMBER_0_MEMBER_11_FILL"/>
</g>

<g transform="matrix( 10, 0, 0, 10, -1820.95,-3221.75) ">
<use xlink:href="#Layer0_0_MEMBER_1_MEMBER_0_MEMBER_12_FILL"/>
</g>

<g transform="matrix( 10, 0, 0, 10, -1820.95,-3221.75) ">
<use xlink:href="#Layer0_0_MEMBER_1_MEMBER_0_MEMBER_13_FILL"/>
</g>

<g transform="matrix( 10, 0, 0, 10, -1820.95,-3221.75) ">
<use xlink:href="#Layer0_0_MEMBER_1_MEMBER_0_MEMBER_14_FILL"/>
</g>

<g transform="matrix( 10, 0, 0, 10, -1820.95,-3221.75) ">
<use xlink:href="#Layer0_0_MEMBER_1_MEMBER_0_MEMBER_15_FILL"/>
</g>

<g transform="matrix( 10, 0, 0, 10, -1820.95,-3221.75) ">
<use xlink:href="#Layer0_0_MEMBER_1_MEMBER_0_MEMBER_16_FILL"/>
</g>

<g transform="matrix( 10, 0, 0, 10, -1820.95,-3221.75) ">
<use xlink:href="#Layer0_0_MEMBER_1_MEMBER_0_MEMBER_17_FILL"/>
</g>

<g transform="matrix( 10, 0, 0, 10, -1820.95,-3221.75) ">
<use xlink:href="#Layer0_0_MEMBER_1_MEMBER_0_MEMBER_18_FILL"/>
</g>

<g transform="matrix( 10, 0, 0, 10, -1820.95,-3221.75) ">
<use xlink:href="#Layer0_0_MEMBER_1_MEMBER_0_MEMBER_19_MEMBER_0_FILL"/>
</g>

<g transform="matrix( 10, 0, 0, 10, -1820.95,-3221.75) ">
<use xlink:href="#Layer0_0_MEMBER_1_MEMBER_0_MEMBER_19_MEMBER_1_FILL"/>
</g>

<g transform="matrix( 10, 0, 0, 10, -1820.95,-3221.75) ">
<use xlink:href="#Layer0_0_MEMBER_1_MEMBER_0_MEMBER_20_FILL"/>
</g>

<g transform="matrix( 10, 0, 0, 10, 88.05,509.75) ">
<use xlink:href="#Layer0_0_MEMBER_1_MEMBER_0_MEMBER_21_FILL"/>
</g>

<g transform="matrix( 10, 0, 0, 10, -1820.95,-3221.75) ">
<use xlink:href="#Layer0_0_MEMBER_1_MEMBER_0_MEMBER_22_MEMBER_0_FILL"/>
</g>

<g transform="matrix( 10, 0, 0, 10, -1820.95,-3221.75) ">
<use xlink:href="#Layer0_0_MEMBER_1_MEMBER_0_MEMBER_22_MEMBER_1_FILL"/>
</g>

<g transform="matrix( 10, 0, 0, 10, -1820.95,-3221.75) ">
<use xlink:href="#Layer0_0_MEMBER_1_MEMBER_0_MEMBER_22_MEMBER_2_FILL"/>
</g>

<g transform="matrix( 10, 0, 0, 10, -1820.95,-3221.75) ">
<use xlink:href="#Layer0_0_MEMBER_1_MEMBER_0_MEMBER_23_MEMBER_0_FILL"/>
</g>

<g transform="matrix( 10, 0, 0, 10, -1820.95,-3221.75) ">
<use xlink:href="#Layer0_0_MEMBER_1_MEMBER_0_MEMBER_23_MEMBER_1_FILL"/>
</g>

<g transform="matrix( 10, 0, 0, 10, -1820.95,-3221.75) ">
<use xlink:href="#Layer0_0_MEMBER_1_MEMBER_0_MEMBER_23_MEMBER_2_FILL"/>
</g>

<g transform="matrix( 10, 0, 0, 10, 146.05,365.25) ">
<use xlink:href="#Layer0_0_MEMBER_1_MEMBER_1_MEMBER_0_FILL"/>
</g>

<g transform="matrix( 10, 0, 0, 10, 146.05,365.25) ">
<use xlink:href="#Layer0_0_MEMBER_1_MEMBER_1_MEMBER_1_FILL"/>
</g>

<g transform="matrix( 10, 0, 0, 10, 324.55,365.25) ">
<use xlink:href="#Layer0_0_MEMBER_1_MEMBER_2_MEMBER_0_FILL"/>
</g>

<g transform="matrix( 10, 0, 0, 10, 324.55,365.25) ">
<use xlink:href="#Layer0_0_MEMBER_1_MEMBER_2_MEMBER_1_FILL"/>
</g>

<g transform="matrix( 10, 0, 0, 10, 516.05,365.25) ">
<use xlink:href="#Layer0_0_MEMBER_1_MEMBER_3_MEMBER_0_FILL"/>
</g>

<g transform="matrix( 10, 0, 0, 10, 516.05,365.25) ">
<use xlink:href="#Layer0_0_MEMBER_1_MEMBER_3_MEMBER_1_FILL"/>
</g>

<g transform="matrix( 10, 0, 0, 10, 665.05,365.25) ">
<use xlink:href="#Layer0_0_MEMBER_1_MEMBER_4_MEMBER_0_FILL"/>
</g>

<g transform="matrix( 10, 0, 0, 10, 665.05,365.25) ">
<use xlink:href="#Layer0_0_MEMBER_1_MEMBER_4_MEMBER_1_FILL"/>
</g>

<g transform="matrix( 10, 0, 0, 10, 796.55,379.25) ">
<use xlink:href="#Layer0_0_MEMBER_1_MEMBER_5_MEMBER_0_FILL"/>
</g>
</svg>
