<?xml version="1.0" encoding="utf-8"?>
<!-- Generator: Adobe Illustrator 22.0.0, SVG Export Plug-In . SVG Version: 6.00 Build 0)  -->
<svg version="1.1" id="图层_1" xmlns="http://www.w3.org/2000/svg" xmlns:xlink="http://www.w3.org/1999/xlink" x="0px" y="0px"
	 viewBox="0 0 750 1125" style="enable-background:new 0 0 750 1125;" xml:space="preserve">
<style type="text/css">
	.st0{fill:#E91884;}
	.st1{fill:#40215A;}
	.st2{fill:#FF95E7;}
	.st3{fill:#40175A;}
	.st4{fill:#FFFFFF;}
	.st5{fill:#FFCD20;}
	.st6{fill:#C9C5C4;}
	.st7{fill:#A4AAA6;}
	.st8{fill:#FCDA43;}
	.st9{fill:#402159;}
	.st10{fill-rule:evenodd;clip-rule:evenodd;fill:#FFFFFF;}
	.st11{fill:#FBD4C1;}
	.st12{fill-rule:evenodd;clip-rule:evenodd;fill:#402159;}
	.st13{fill:#FE3561;}
	.st14{clip-path:url(#SVGID_2_);}
	.st15{fill:#F1C984;}
	.st16{fill:none;}
	.st17{fill:#19D7E7;}
	.st18{clip-path:url(#SVGID_4_);}
	.st19{fill:#FFD236;}
	.st20{clip-path:url(#SVGID_6_);}
	.st21{clip-path:url(#SVGID_8_);}
	.st22{fill:#0082FF;}
	.st23{fill:#FF771D;}
	.st24{clip-path:url(#SVGID_10_);}
	.st25{fill:#3E185B;}
	.st26{fill:#40175B;}
	.st27{fill:#446493;}
	.st28{clip-path:url(#SVGID_12_);}
	.st29{clip-path:url(#SVGID_14_);}
	.st30{clip-path:url(#SVGID_16_);}
	.st31{clip-path:url(#SVGID_18_);}
	.st32{clip-path:url(#SVGID_20_);}
	.st33{clip-path:url(#SVGID_22_);}
	.st34{clip-path:url(#SVGID_24_);}
	.st35{clip-path:url(#SVGID_26_);}
	.st36{fill:#14E3C5;}
	.st37{fill:#FF7193;}
	.st38{clip-path:url(#SVGID_28_);}
	.st39{fill:#FF781E;}
	.st40{clip-path:url(#SVGID_30_);}
	.st41{clip-path:url(#SVGID_32_);}
	.st42{fill:#FFFF47;}
	.st43{fill-rule:evenodd;clip-rule:evenodd;fill:#A19F9E;}
	.st44{fill:#A19F9E;}
	.st45{fill-rule:evenodd;clip-rule:evenodd;fill:#FFFF47;}
	.st46{clip-path:url(#SVGID_34_);}
	.st47{clip-path:url(#SVGID_36_);}
	.st48{clip-path:url(#SVGID_38_);}
	.st49{clip-path:url(#SVGID_40_);}
	.st50{fill:#0081FF;}
	.st51{clip-path:url(#SVGID_42_);}
	.st52{clip-path:url(#SVGID_44_);}
	.st53{clip-path:url(#SVGID_46_);}
	.st54{clip-path:url(#SVGID_48_);}
	.st55{clip-path:url(#SVGID_50_);}
	.st56{clip-path:url(#SVGID_52_);}
	.st57{clip-path:url(#SVGID_54_);}
	.st58{clip-path:url(#SVGID_56_);}
	.st59{clip-path:url(#SVGID_58_);}
	.st60{clip-path:url(#SVGID_60_);}
	.st61{clip-path:url(#SVGID_62_);}
	.st62{clip-path:url(#SVGID_64_);}
	.st63{clip-path:url(#SVGID_66_);}
	.st64{fill-rule:evenodd;clip-rule:evenodd;fill:#FFD236;}
	.st65{clip-path:url(#SVGID_68_);}
	.st66{clip-path:url(#SVGID_70_);}
	.st67{clip-path:url(#SVGID_72_);}
	.st68{clip-path:url(#SVGID_74_);}
	.st69{fill:#FF6D33;}
	.st70{clip-path:url(#SVGID_76_);}
	.st71{clip-path:url(#SVGID_78_);}
	.st72{clip-path:url(#SVGID_80_);}
	.st73{clip-path:url(#SVGID_82_);}
	.st74{clip-path:url(#SVGID_84_);}
	.st75{clip-path:url(#SVGID_86_);}
	.st76{clip-path:url(#SVGID_88_);}
	.st77{clip-path:url(#SVGID_90_);}
	.st78{clip-path:url(#SVGID_92_);}
	.st79{clip-path:url(#SVGID_94_);}
	.st80{clip-path:url(#SVGID_96_);}
	.st81{clip-path:url(#SVGID_98_);}
	.st82{clip-path:url(#SVGID_100_);}
	.st83{clip-path:url(#SVGID_102_);}
	.st84{clip-path:url(#SVGID_104_);}
	.st85{clip-path:url(#SVGID_106_);}
	.st86{clip-path:url(#SVGID_108_);}
	.st87{fill:#E91884;stroke:#40175A;stroke-width:5;stroke-linecap:round;stroke-linejoin:round;stroke-miterlimit:10;}
	.st88{fill:#BAFF00;}
	.st89{clip-path:url(#SVGID_110_);}
	.st90{clip-path:url(#SVGID_112_);}
	.st91{fill:#FF8500;}
	.st92{fill:#1CBDFF;}
	.st93{clip-path:url(#SVGID_116_);}
	.st94{clip-path:url(#SVGID_118_);}
</style>
<g>
	<g>
		<g>
			
				<rect x="375" y="480.5" transform="matrix(0.9855 0.1697 -0.1697 0.9855 108.063 -58.5001)" class="st4" width="42.6" height="244.9"/>
		</g>
		<g>
			<path class="st9" d="M396.1,478.7l42,7.2l-41.6,241.4l-42-7.2L396.1,478.7 M396.1,450.3c-5.8,0-11.6,1.8-16.4,5.2
				c-6.1,4.3-10.3,11-11.6,18.4l-41.6,241.4c-2.7,15.5,7.7,30.1,23.2,32.8l42,7.2c1.6,0.3,3.2,0.4,4.8,0.4c5.8,0,11.6-1.8,16.4-5.2
				c6.1-4.3,10.3-11,11.6-18.4l41.6-241.4c2.7-15.5-7.7-30.1-23.2-32.8l-42-7.2C399.3,450.4,397.7,450.3,396.1,450.3L396.1,450.3z"
				/>
		</g>
	</g>
	<g>
		<g>
			<ellipse class="st4" cx="375" cy="480.5" rx="73.4" ry="82.8"/>
		</g>
		<g>
			<path class="st9" d="M375,397.7c40.5,0,73.4,37.1,73.4,82.8s-32.8,82.8-73.4,82.8s-73.4-37.1-73.4-82.8S334.5,397.7,375,397.7
				 M375,369.3c-56.1,0-101.8,49.9-101.8,111.2S318.9,591.8,375,591.8s101.8-49.9,101.8-111.2S431.1,369.3,375,369.3L375,369.3z"/>
		</g>
	</g>
	<g>
		<ellipse class="st9" cx="399.8" cy="480.5" rx="26" ry="49.7"/>
	</g>
</g>
</svg>
