<?xml version="1.0" ?><!DOCTYPE svg  PUBLIC '-//W3C//DTD SVG 1.1//EN'  'http://www.w3.org/Graphics/SVG/1.1/DTD/svg11.dtd'><svg enable-background="new 0 0 126 126" id="Layer_1" version="1.1" viewBox="0 0 126 126" xml:space="preserve" xmlns="http://www.w3.org/2000/svg" xmlns:xlink="http://www.w3.org/1999/xlink"><g><g><g><path d="M105.8298,84.103c-1.4898-0.2168-15.6336,4.4171-17.1328,10.7535     c-1.4992,6.3452-12.8143,12.9496-17.6325,11.3184s-11.1356,0.1133-11.1356,0.1133l-3.979,1.9235l-0.9052,0.4337h-0.0094     L0.9322,77.4075l67.512-39.2419l52.3871,30.248c1.6501,0.9521,3.0266,2.3664,3.7433,4.1297     C128.5535,82.2738,107.197,84.2918,105.8298,84.103z" fill="#F3F6FD"/><path d="M95.6019,64.0791L76.7123,77.5634c0.3414-0.0571,1.0404,0.1302,1.4143,0.3413     c0.1707,0.0976,4.3079,0.4552,4.4623,0.8858c0.1788,0.4798-0.6015,1.2601-0.6015,1.2601s-2.1702,6.7545-2.9912,8.3475     c-0.2682,0.512-0.4877,1.0402-0.6258,1.6335c-0.3688,1.6044,0.2952,3.3702-0.5446,4.3403     c-0.0613,0.128-0.0756,0.1761-0.4389,0.9025c0.2597,1.9007,0.5476,2.4766,0.2682,3.0155     c-0.4308,0.8779-1.268,2.3328-1.4874,2.544c0,0-0.3251,0.3901-0.7965,0.0651c-0.0244,0-0.0325-0.0079-0.0406-0.0079     c-0.3576-0.1385-0.6503-0.3985-0.6503-0.3985c-0.0162,0.0079-0.0162,0.0163-0.0244,0.0325     c0.4203,0.6302,0.1849,1.0252,0.1788,1.4629c-0.1138,1.6339-0.8047,1.4958-0.8047,1.4958     c-1.0487,0.1984-3.8359-2.5849-2.5847-2.9345c0.0325-0.6989,0.2032-1.8451,0.9022-1.7963     c0.1971,0.0239,0.7506,0.6152,0.5527-0.3739c0-0.0163-0.0081-0.0242-0.0162-0.0325c-0.4335-1.149-0.5659-1.2348-0.9103-1.9669     c-1.3005-1.0323-2.8205-2.6742-3.048-2.7472c-0.5392-0.1645-2.463-1.3928-3.4057-1.959     c-0.0325-0.0651-0.065-0.1381-0.0813-0.1869c-0.4435-0.0255-0.9826-0.5425-1.8532-1.089     c-0.0674-0.03-0.2141-0.1099-0.1626-0.1627c0.0163-0.0079,0.0406-0.0242,0.065-0.0242c0.0731-0.0246,0.4877,0.1218,0.7071,0.2683     c0.0081-0.2766,0.0731-0.504,0.2601-0.5366c0.0432-0.0445,0.734,0.2028,1.146,0.764c0.0406-0.0163,0.0569-0.0242,0.0569-0.0242     c0.1869-0.0246,2.9424,1.2192,3.2431,1.3248c0.1544,0.0488,1.8207,1.0565,3.1374,2.1459     c0.634-1.3738,1.4582-4.6265,2.1295-6.1206c-0.4552-1.4061-1.2517-3.487-1.2517-3.487s0.0163,0,0.0488,0     c-0.1637-0.1967-0.7562-0.4718-0.9835-0.9263c-0.2438-0.4798,0.1057-0.4878,0.2764-0.1707     c0.1788,0.325,0.3332,0.3004,0.3332,0.3004c0.3089-0.2111-0.1788-0.91-0.3983-1.1299c-0.2194-0.2032-0.0488-0.2437-0.0488-0.2437     c1.1443-0.4252,1.3809,1.4032,1.4956,1.6093c0.0163-0.0163,0.0325-0.0325,0.0406-0.0567l1.4224,2.3328     c0.4875-0.7591,0.705-0.8703,1.016-1.6828c0.317-0.837-0.2195-0.9835,0.0813-1.8939l-0.2113-0.1707     c-0.8616-0.764-0.4552-0.9589-0.4552-0.9589c0.1788-0.0325,0.4308,0.0325,0.6827,0.1381     c-1.0543-1.6332-3.1512-1.3087-0.2032-3.6251l-13.5657,9.6802c-0.9266-0.073-2.0889-0.3901-2.601-0.7152     c0.4796,0.3334,0.5121,0.7886,0.065,1.0323l-2.8367,1.5605l3.6251,2.3817c0.382,0.2437,0.4064,0.6013,0.0731,0.7886     l-4.5761,2.5114c-0.1788,0.1056-0.4226,0.1381-0.6827,0.1056l-1.2355-0.0893c-0.2357-0.0246-0.4796-0.0976-0.6665-0.2195     l-2.9586-1.9344l-3.682,2.0237c-0.2276,0.1302-0.5527,0.1707-0.8778,0.1381h-0.0325l-1.016-0.0814     c-0.317-0.0242-0.6422-0.1218-0.9023-0.2842l-8.1361-5.3404l-2.0564,1.1299c-0.1869,0.1056-0.4308,0.1381-0.6827,0.1056     l-1.2436-0.0893c-0.2357-0.0246-0.4714-0.0976-0.6665-0.2195l-10.4283-6.8358c-0.382-0.2437-0.4064-0.6013-0.0731-0.7882     l2.6741-1.4712l-3.4463-2.2678c-0.5121-0.325-0.5446-0.7965-0.0894-1.0485l4.5517-2.5035l-2.2108-1.455     c-0.3739-0.2437-0.3983-0.5933-0.065-0.7803l19.2716-16.264c0.1625-0.0897,0.3901-0.1222,0.6258-0.1056l-9.3473,10.5986h0.0732     c0.2357,0.0246,0.4714,0.0897,0.6746,0.2195l1.5281,0.9997l1.9588-1.0728c0.2276-0.1218,0.5364-0.1707,0.8372-0.1464     l0.9997,0.0814h0.0894c0.317,0.0246,0.6421,0.1218,0.8941,0.2929c-0.0894-0.0651-0.1544-0.1222-0.1869-0.1711     c-0.0163-0.0163-0.0244-0.0322-0.0325-0.0488c-0.0163-0.0647,0.0081-0.1218,0.0894-0.1623l0.9997-0.5528     c0.0975-0.0488,0.2601-0.081,0.4877-0.0893c0.13-0.0083,0.2845,0,0.4633,0.0083l22.9048,5.3642     c0.951,0.073,2.1377,0.3985,2.6335,0.7318l28.757-13.1513C95.992,59.9337,95.7482,63.9978,95.6019,64.0791z" fill="#E1E9F4"/><polygon fill="#FDFEFF" points="120.4686,68.2042 82.0438,90.2386 72.8488,84.9298 111.2741,62.8954 110.722,62.5768      72.2968,84.6112 43.6179,68.0535 82.0443,46.0182 81.4924,45.6996 43.066,67.7349 33.876,62.4288 72.3027,40.3936      71.7508,40.075 3.9778,79.1658 4.5297,79.4848 33.4412,62.6816 42.6312,67.9872 13.7195,84.7904 14.2715,85.1095      43.1832,68.3058 52.4577,73.6607 23.5458,90.4639 23.9387,90.6908 52.8505,73.8876 62.2046,79.2881 33.2925,96.0917      33.6804,96.3155 62.5925,79.5118 71.8621,84.8639 42.9498,101.6676 43.5017,101.9862 72.4141,85.1825 81.609,90.4913      52.6964,107.295 53.2484,107.6136 121.0207,68.5228    "/></g><g><g><g><g><g><g><path d="M32.9254,38.8966L69.9032,17.545c0.3903-0.225,0.7452-0.2426,0.9936-0.0947l0.8804,0.504          c-0.2544-0.1421-0.6033-0.1242-0.9937,0.1005l-0.7275,0.4141l0.7334,1.1829l0.071,25.1426L33.8767,66.146          c0,0-1.2361,1.5555-0.9877,1.6973l-0.8744-0.5095c-0.2484-0.1421-0.4081-0.4557-0.4081-0.8932l-0.071-25.1369          C31.5355,40.4226,32.1565,39.3402,32.9254,38.8966z" fill="#6262AA"/><g><g enable-background="new    "><g><path d="M70.782,18.0547c0.7741-0.4469,1.3992-0.0863,1.4017,0.7989l0.0713,25.1326             c0.0025,0.8896-0.6185,1.9653-1.3926,2.4122L33.8854,67.747c-0.7703,0.4447-1.3992,0.0908-1.4017-0.7989l-0.0713-25.1326             c-0.0025-0.8852,0.6223-1.9675,1.3926-2.4122L70.782,18.0547z" fill="#2A2A5E"/></g></g></g><g><polygon fill="#3887E5" points="33.8059,41.0068 33.8771,66.1481 70.8616,44.7951 70.7904,19.6538          "/></g></g><g><g><g enable-background="new    "><g><path d="M33.3058,68.5574l0.0059,1.948c0,0.29,0.1892,0.5738,0.5737,0.7985l21.7301,12.6276             c0.7689,0.4436,2.0168,0.4436,2.7857,0L95.379,62.586c0.3904-0.225,0.5796-0.5207,0.5796-0.8164l-0.0059-1.9419             c0-0.29-0.1952-0.5857-0.5737-0.8046L73.643,46.3954c-0.763-0.4494-2.011-0.4436-2.7798,0L33.8854,67.747             C33.501,67.9717,33.3058,68.2617,33.3058,68.5574z" fill="#83A1CC"/></g></g></g><g><g><g enable-background="new    "><g><path d="M33.3058,68.5574l0.0059,1.9456c0,0.29,0.1892,0.5735,0.5737,0.7985l21.7301,12.6276              c0.7689,0.4436,2.0168,0.4436,2.7857,0L95.379,62.5833c0.3904-0.2247,0.5796-0.5204,0.5796-0.8161l-0.0059-1.9395              c0,0.2897-0.1952,0.5854-0.5855,0.8101L58.3953,81.9835c-0.7748,0.4494-2.0227,0.4494-2.7857,0l-21.736-12.6276              C33.495,69.137,33.3058,68.8473,33.3058,68.5574z" fill="#9EB5DF"/></g><g><path d="M33.8865,67.7444c-0.7704,0.4448-0.7783,1.1664-0.0129,1.6112l21.7337,12.6302              c0.7653,0.4448,2.015,0.4448,2.7854,0l36.9769-21.3486c0.7704-0.4448,0.7744-1.1687,0.0091-1.6134L73.6449,46.3935              c-0.7653-0.4448-2.0112-0.4425-2.7815,0.0022L33.8865,67.7444z" fill="#DEE7F8"/></g></g></g><g><polygon fill="#3A3A77" points="51.661,61.0745 50.937,60.6563 49.5137,61.4833 50.2378,61.9015           "/><polygon fill="#3A3A77" points="55.3683,58.9197 54.6446,58.5018 53.2214,59.3289 53.9454,59.7468           "/><polygon fill="#3A3A77" points="53.5148,59.9968 52.7908,59.5789 51.3675,60.406 52.0916,60.8239           "/><polygon fill="#3A3A77" points="52.5299,61.077 53.8849,61.8592 55.3079,61.0324 53.9531,60.25           "/><polygon fill="#3A3A77" points="65.505,53.5368 66.86,54.3189 68.2832,53.4919 66.9282,52.7097           "/><polygon fill="#3A3A77" points="71.4639,53.7303 72.8887,52.9024 71.5337,52.1203 70.1089,52.9479           "/><polygon fill="#3A3A77" points="68.7125,53.2424 71.0873,51.8625 69.7323,51.0801 67.359,52.4594           "/><polygon fill="#3A3A77" points="46.1011,64.3053 45.3768,63.8873 43.9536,64.7144 44.6776,65.1323           "/><polygon fill="#3A3A77" points="49.8085,62.1508 49.0844,61.7329 47.6599,62.5607 48.3839,62.9786           "/><polygon fill="#3A3A77" points="57.2224,57.8424 56.4981,57.4242 55.0752,58.2513 55.7992,58.6694           "/><polygon fill="#3A3A77" points="60.3116,62.2967 58.9566,61.5146 57.5334,62.3417 58.8884,63.1238           "/><polygon fill="#3A3A77" points="67.637,60.6421 68.9904,61.4237 70.4137,60.5966 69.0602,59.815           "/><polygon fill="#3A3A77" points="66.4901,52.4566 65.7659,52.0387 64.3426,52.8658 65.0669,53.2837           "/><polygon fill="#3A3A77" points="64.6361,53.534 63.9123,53.1158 62.4891,53.9429 63.2128,54.361           "/><polygon fill="#3A3A77" points="63.6509,54.6139 65.0065,55.3963 66.4297,54.5692 65.0747,53.7868           "/><polygon fill="#3A3A77" points="62.7825,54.6113 62.0582,54.1934 60.635,55.0205 61.3593,55.4384           "/><polygon fill="#3A3A77" points="71.8632,55.5836 74.6885,53.9418 73.3335,53.1594 70.5082,54.8012           "/><polygon fill="#3A3A77" points="69.1811,55.0572 67.826,54.2748 66.4028,55.1018 67.7579,55.8842           "/><polygon fill="#3A3A77" points="61.7974,55.6915 63.1524,56.4737 64.5756,55.6466 63.2206,54.8645           "/><polygon fill="#3A3A77" points="60.93,55.6879 60.2057,55.2697 58.7815,56.0976 59.5052,56.5155           "/><polygon fill="#3A3A77" points="71.4329,55.8336 70.0779,55.0515 68.6547,55.8785 70.0097,56.6607           "/><polygon fill="#3A3A77" points="77.7772,55.7094 76.2858,56.5759 76.8107,56.8792 78.3021,56.0123           "/><polygon fill="#3A3A77" points="64.5488,56.1792 65.9043,56.9613 67.3275,56.1343 65.9725,55.3521           "/><polygon fill="#3A3A77" points="72.7507,57.1532 76.4888,54.981 75.1338,54.1986 71.3957,56.3709           "/><polygon fill="#3A3A77" points="74.1507,57.4645 75.6421,56.5982 75.1173,56.2949 73.6259,57.1618           "/><polygon fill="#3A3A77" points="59.9438,56.7686 61.2989,57.5508 62.7231,56.7232 61.3681,55.941           "/><polygon fill="#3A3A77" points="59.0759,56.765 58.3522,56.3471 56.9274,57.1749 57.6517,57.5929           "/><polygon fill="#3A3A77" points="69.5788,56.9112 68.2238,56.1288 66.8006,56.9559 68.1556,57.7383           "/><polygon fill="#3A3A77" points="74.4545,57.6401 74.9793,57.9431 76.4708,57.0765 75.9459,56.7733           "/><polygon fill="#3A3A77" points="62.6952,57.2563 64.0502,58.0387 65.4735,57.2116 64.1184,56.4292           "/><polygon fill="#3A3A77" points="72.3215,57.4028 70.9664,56.6204 69.5417,57.4482 70.8967,58.2306           "/><polygon fill="#3A3A77" points="58.0898,57.846 59.4448,58.6284 60.8696,57.8003 59.5145,57.0182           "/><polygon fill="#3A3A77" points="67.7253,57.9883 66.3703,57.2062 64.9471,58.0333 66.3021,58.8154           "/><polygon fill="#3A3A77" points="72.6237,58.7043 73.1485,59.007 74.6399,58.1407 74.1151,57.8375           "/><polygon fill="#3A3A77" points="60.8417,58.3339 62.1967,59.116 63.6209,58.2882 62.2659,57.5058           "/><polygon fill="#3A3A77" points="70.4674,58.4801 69.1124,57.6977 67.6881,58.5256 69.0431,59.3077           "/><polygon fill="#3A3A77" points="56.2372,58.9226 57.5923,59.7047 59.0155,58.8776 57.6605,58.0955           "/><polygon fill="#3A3A77" points="65.8728,59.0649 64.5178,58.2828 63.093,59.1104 64.448,59.8927           "/><polygon fill="#3A3A77" points="58.9891,59.4102 60.3426,60.1931 61.7674,59.3656 60.4124,58.5832           "/><polygon fill="#3A3A77" points="69.4895,59.5655 70.843,60.3471 72.7394,59.2452 71.3859,58.4636           "/><polygon fill="#3A3A77" points="68.6138,59.5572 67.2588,58.7751 65.8356,59.6022 67.1906,60.3843           "/><polygon fill="#3A3A77" points="54.3837,59.9999 55.7387,60.7821 57.1619,59.955 55.8069,59.1729           "/><polygon fill="#3A3A77" points="64.0192,60.142 62.6642,59.3599 61.2394,60.1877 62.5945,60.9701           "/><polygon fill="#3A3A77" points="57.1351,60.4876 58.4901,61.2697 59.9133,60.4427 58.5583,59.6605           "/><polygon fill="#3A3A77" points="62.1652,61.2196 60.8102,60.4372 59.3869,61.2643 60.742,62.0467           "/><polygon fill="#3A3A77" points="55.2815,61.5647 56.6366,62.3471 58.0598,61.5203 56.7048,60.7379           "/><polygon fill="#3A3A77" points="64.9062,61.7119 63.5512,60.9298 62.128,61.7569 63.483,62.539           "/><polygon fill="#3A3A77" points="50.6761,62.1544 52.0311,62.9368 53.4543,62.1097 52.0993,61.3273           "/><polygon fill="#3A3A77" points="53.4277,62.6423 54.7828,63.4245 56.2057,62.5974 54.851,61.8153           "/><polygon fill="#3A3A77" points="63.9294,62.7968 65.2828,63.5781 66.7061,62.7511 65.3526,61.9697           "/><polygon fill="#3A3A77" points="63.0537,62.7885 61.6987,62.0061 60.2739,62.834 61.629,63.6161           "/><polygon fill="#3A3A77" points="48.8223,63.2318 50.1773,64.0139 51.6018,63.1863 50.2468,62.4039           "/><polygon fill="#3A3A77" points="47.9547,63.2282 47.2306,62.8102 45.8074,63.6373 46.5314,64.0552           "/><polygon fill="#3A3A77" points="58.4576,63.3741 57.1025,62.5917 55.6793,63.4188 57.0343,64.2012           "/><polygon fill="#3A3A77" points="51.5739,63.7194 52.929,64.5018 54.3535,63.674 52.9984,62.8918           "/><polygon fill="#3A3A77" points="62.0753,63.8739 63.4293,64.6555 64.8535,63.8277 63.5001,63.0463           "/><polygon fill="#3A3A77" points="61.2002,63.8656 59.8451,63.0835 58.4204,63.9114 59.7754,64.6937           "/><polygon fill="#3A3A77" points="46.9698,64.3084 48.3248,65.0905 49.748,64.2634 48.393,63.4813           "/><polygon fill="#3A3A77" points="49.7201,64.7968 51.0752,65.5792 52.4997,64.7511 51.1446,63.969           "/><polygon fill="#3A3A77" points="60.2217,64.9513 61.5752,65.7326 63,64.905 61.646,64.1234           "/><polygon fill="#3A3A77" points="59.3461,64.943 57.9911,64.1609 56.5679,64.9877 57.9229,65.7701           "/><polygon fill="#3A3A77" points="45.116,65.3855 46.471,66.1678 47.8942,65.3408 46.5392,64.5584           "/><polygon fill="#3A3A77" points="43.523,64.9647 42.0998,65.7918 42.8238,66.2099 44.2473,65.3829           "/><polygon fill="#3A3A77" points="54.7515,65.528 53.3965,64.7457 51.9717,65.5735 53.3267,66.3556           "/><polygon fill="#3A3A77" points="50.6459,65.8287 49.2908,65.0463 47.8676,65.8734 49.2226,66.6558           "/><polygon fill="#3A3A77" points="58.3692,66.0278 59.7227,66.8092 61.1459,65.9821 59.7925,65.2008           "/><polygon fill="#3A3A77" points="44.6854,65.6357 43.2622,66.4628 44.6172,67.2452 46.0404,66.4181           "/><polygon fill="#3A3A77" points="52.8977,66.6051 51.5427,65.823 50.1192,66.6501 51.4742,67.4322           "/><polygon fill="#3A3A77" points="55.6385,67.0975 54.2835,66.3153 52.8603,67.1424 54.2153,67.9245           "/><polygon fill="#3A3A77" points="47.437,66.1237 45.0635,67.503 46.4186,68.2851 48.7921,66.9058           "/><polygon fill="#3A3A77" points="49.6889,66.9001 46.8636,68.5421 48.2186,69.3245 51.0439,67.6825           "/><polygon fill="#3A3A77" points="52.8078,69.2599 54.1616,70.0413 55.5848,69.2142 54.231,68.4329           "/><polygon fill="#3A3A77" points="52.4297,67.3927 48.6634,69.5813 50.0185,70.3636 53.7847,68.1751           "/><polygon fill="#3A3A77" points="69.6796,53.1974 68.2569,54.0245 69.6119,54.8066 71.0346,53.9798           "/><polygon fill="#3A3A77" points="66.7598,60.6346 65.4048,59.8522 63.9815,60.6793 65.3366,61.4617           "/><polygon fill="#3A3A77" points="65.7829,61.7194 67.1369,62.5008 68.5601,61.6737 67.2061,60.8924           "/><polygon fill="#3A3A77" points="56.604,64.4515 55.2487,63.6693 53.8255,64.4964 55.1805,65.2785           "/><polygon fill="#3A3A77" points="57.4926,66.0204 56.137,65.2382 54.7141,66.0653 56.0693,66.8474           "/><polygon fill="#3A3A77" points="56.5152,67.1052 57.8692,67.8866 59.2924,67.0597 57.9384,66.2781           "/><polygon fill="#3A3A77" points="54.6616,68.1823 56.0151,68.9639 57.4383,68.1368 56.0848,67.3552           "/><polygon fill="#3A3A77" points="50.4648,70.6212 51.8185,71.4028 53.7323,70.2905 52.3785,69.5092           "/><polygon fill="#3A3A77" points="69.2942,50.8273 68.5699,50.4091 66.1967,51.7884 66.9204,52.2063           "/></g><path d="M61.3407,69.4622l11.7494-6.7835c0.2456-0.1415,0.6427-0.1438,0.8866-0.0023l5.7225,3.3255           c0.244,0.1418,0.2388,0.372-0.0068,0.5138L67.943,73.2991c-0.2455,0.1418-0.6387,0.1418-0.8828,0l-5.7224-3.3255           C61.0939,69.8318,61.0952,69.604,61.3407,69.4622z" fill="#B6CBEA"/></g></g></g><g><g><polygon fill="#B6CBEA" points="37.982,69.5081 45.0857,73.6363 47.904,72.0091 40.8004,67.8809         "/></g><g><polygon fill="#B6CBEA" points="71.5774,50.1118 78.6811,54.24 81.4994,52.6128 74.3957,48.4846         "/></g></g></g><g><g><g enable-background="new    "><g><path d="M62.3551,42.9824c-0.011,1.3343-0.2765,3.0412-0.2912,3.1295l1.0395,0.6046           c0.0147-0.0886,0.2802-1.7952,0.2912-3.1297L62.3551,42.9824z" fill="#9EB5DF"/><path d="M59.6753,34.4338l0.0258,8.8765c0,0.3281,0.118,0.5603,0.3059,0.671l1.0395,0.6044           c-0.188-0.1105-0.3059-0.3427-0.3059-0.6746l-0.0258-8.8727c-0.0037-0.6635,0.4644-1.4707,1.0432-1.8062l16.0278-9.2525           c0.2912-0.1696,0.5529-0.1843,0.7446-0.0736l-1.0395-0.6046c-0.1917-0.1107-0.4534-0.0959-0.7446,0.0736l-16.0278,9.2525           C60.1397,32.9631,59.6716,33.7703,59.6753,34.4338z" fill="#9EB5DF"/></g><g><path d="M61.7584,33.2317c-0.579,0.3343-1.0458,1.1429-1.0439,1.8055l0.0252,8.8759           c0.0019,0.6652,0.4718,0.933,1.0507,0.5988l1.6051-0.9267c-0.0104,1.336-0.2765,3.0415-0.2905,3.1312           c1.4249-1.2859,2.8602-3.9348,3.2866-4.861l11.4265-6.5971c0.5766-0.3329,1.0434-1.1415,1.0416-1.8067l-0.0252-8.8759           c-0.0019-0.6626-0.4718-0.9304-1.0484-0.5975L61.7584,33.2317z" fill="#DEE7F8"/></g></g></g><g><g><path d="M73.0028,35.6994c-0.0168-0.0002-0.0335-0.0006-0.0502-0.0012          C72.9692,35.6989,72.986,35.6993,73.0028,35.6994z" fill="#6B9EF9"/></g><g><path d="M73.1329,35.6968c0.0198-0.001,0.0397-0.0023,0.0597-0.0039          C73.1726,35.6945,73.1527,35.6958,73.1329,35.6968z" fill="#6B9EF9"/></g><g enable-background="new    "><g><path d="M74.4079,35.2995c0.0113-0.0058,0.0226-0.0118,0.0339-0.0178l-0.0107,0.0057           C74.4233,35.2914,74.4156,35.2955,74.4079,35.2995z" fill="#3A3A77"/></g><g><path d="M74.4418,35.2816l-0.0107,0.0057c0.0055-0.0029,0.0111-0.0058,0.0166-0.0088l-0.004,0.0021           c-0.0001,0.0001-0.0003,0.0001-0.0003,0.0001C74.4427,35.2811,74.4422,35.2814,74.4418,35.2816z" fill="#3A3A77"/></g><g><path d="M74.4791,35.261c-0.0107,0.0061-0.0211,0.0119-0.0315,0.0175l-0.004,0.0021           C74.4553,35.2745,74.4671,35.268,74.4791,35.261z" fill="#3A3A77"/></g><g><path d="M74.3685,35.3195l-0.0259,0.0149l-0.0184,0.0106c0.0395-0.0205,0.0791-0.0419,0.119-0.0642           C74.4184,35.2943,74.394,35.3067,74.3685,35.3195z" fill="#6B9EF9"/></g><g><path d="M75.2145,31.855c-0.0692,0.4761-0.2385,1.5593-0.4926,2.5697           C74.977,33.4135,75.147,32.3306,75.2145,31.855z" fill="#3A3A77"/></g><g><path d="M74.6657,32.8833l-0.0355-0.0473l-0.0797,0.1543l0.1714,1.4343           c0.254-1.0104,0.4233-2.0935,0.4926-2.5697c0.0151-0.106,0.025-0.1818,0.0297-0.2199l-0.0068,0.0215           C75.1859,31.7892,75.0321,32.4063,74.6657,32.8833z" fill="#FFFFFF"/></g><g><path d="M75.2823,32.5164l0.4668,0.0257c-0.3671,1.0545-0.9837,2.242-1.2229,2.6917           c1.1297-0.6603,2.121-1.8991,2.7042-3.2407l-0.0002-0.0757c-0.0013-0.4651-0.2873-0.7118-0.7019-0.616l-1.2792,0.3052           c0.3822,0.0964,0.571,0.3475,0.5809,0.3608L75.2823,32.5164z" fill="#3A3A77"/></g><g><path d="M75.249,31.6065l-0.0023,0.0203c-0.0073,0.0464-0.0172,0.1222-0.0323,0.2282           c-0.0675,0.4756-0.2374,1.5585-0.4926,2.5697c-0.0746,0.2895-0.154,0.5737-0.2428,0.8363l0.0212-0.0122l0.0259-0.0149           c0.2392-0.4496,0.8558-1.6372,1.2229-2.6917l-0.4668-0.0257l0.5477-0.5492C75.82,31.9541,75.6312,31.7029,75.249,31.6065z" fill="#4C4A8B"/></g><g><path d="M74.4148,32.5514l-0.0702,0.176l-0.1404,0.3546l0.0827,0.0579l-0.1651,1.6312           c0.076,0.1999,0.1567,0.3917,0.2467,0.5483l-0.0259,0.0149l0.0259-0.0149c0.0377-0.019,0.073-0.0367,0.1106-0.0584           l0.0212-0.0122l-0.0212,0.0122c0.0888-0.2626,0.1682-0.5468,0.2428-0.8363l-0.1714-1.4343l0.0797-0.1543l-0.1514-0.2024           L74.4148,32.5514z" fill="#1E72C6"/></g><g><polygon fill="#ECB4BF" points="74.9098,31.6967 74.8629,31.7591 74.8605,31.7631          "/></g><g><path d="M75.0061,31.5572l-0.0258,0.0393l-0.061,0.0867l-0.0094,0.0135l-0.0493,0.0664           c-0.1382,0.2966-0.4128,0.7395-0.4433,0.7869l0.0615,0.0837l0.1514,0.2024l0.0355,0.0473           c0.3664-0.477,0.5202-1.0941,0.5717-1.2267l0.0068-0.0215l0.0026-0.0082l0.0023-0.0203L75.0061,31.5572z" fill="#B6CBEA"/></g><g><polygon fill="#ECB4BF" points="73.9567,32.2659 73.985,32.2714 73.9543,32.2647          "/></g><g><path d="M73.8293,32.2338l-0.2466,0.3321l-0.0023,0.004l0.0048,0.0162l0.0095,0.0189           c0.0497,0.0742,0.2089,0.5106,0.5768,0.5636l0.0328-0.0867l0.1404-0.3546l0.0702-0.1734           c0-0.0026-0.3163-0.1423-0.4582-0.2881l-0.0024-0.0013l-0.0354-0.0068l-0.0637-0.0147L73.8293,32.2338z" fill="#B6CBEA"/></g><g><path d="M73.9543,32.2647l0.0024,0.0013c0.1419,0.1457,0.4423,0.2784,0.4581,0.2854l0,0.0026l0-0.0026           l0.0023-0.0014c0.0305-0.0475,0.3051-0.4903,0.4433-0.7869l-0.0282,0.0352c-0.0329,0.0407-0.0681,0.08-0.101,0.1152           c-0.0282,0.03-0.0564,0.057-0.0846,0.0841l-0.0024,0.0014l-0.0423,0.0407c-0.0282,0.0244-0.0564,0.0461-0.0847,0.0651           l-0.0471,0.0326l-0.0494,0.0312l-0.0471,0.0245l-0.0471,0.0217c-0.0283,0.0137-0.0565,0.0245-0.0848,0.0328l-0.04,0.0095           l-0.0047,0.0001c-0.0259,0.0069-0.0518,0.011-0.0754,0.0111c-0.0283,0.0054-0.0566,0.0055-0.0849,0.0056l-0.0118-0.0013           l-0.0401-0.0013l-0.0283-0.0054L73.9543,32.2647z" fill="#E0A4B2"/></g><g><path d="M75.1609,31.2944c-0.0281,0.0515-0.0516,0.0975-0.0798,0.1408           c-0.0235,0.0407-0.0469,0.0787-0.0704,0.1165l-0.0047,0.0055l-0.0258,0.0393l-0.061,0.0867l-0.0094,0.0135l-0.0493,0.0664           l-0.0282,0.0352c-0.0329,0.0407-0.0681,0.08-0.101,0.1152c-0.0282,0.03-0.0564,0.057-0.087,0.0855l-0.0423,0.0407           c-0.0282,0.0244-0.0564,0.0461-0.0847,0.0651l-0.0471,0.0326l-0.0494,0.0312l-0.0471,0.0245l-0.0471,0.0217           c-0.0282,0.0137-0.0565,0.0245-0.0848,0.0328l-0.04,0.0095l-0.0047,0.0001c-0.0259,0.0069-0.0518,0.011-0.0754,0.0111           c-0.0283,0.0054-0.0566,0.0055-0.0849,0.0056l-0.0118-0.0013l-0.0401-0.0013l-0.033-0.0081l-0.0307-0.0093l-0.0613-0.016           l-0.026-0.0094c-0.026-0.0094-0.0496-0.0202-0.0755-0.0296l-0.0142-0.008c-0.0213-0.0149-0.0449-0.0255-0.0638-0.0444           c0.216-0.3251,0.4672-0.668,0.7379-0.8243C74.6885,31.1662,74.9427,31.2164,75.1609,31.2944z M74.1724,31.8625           c0.0472,0.0242,0.0991,0.0321,0.1533,0.0198c0.0306-0.0042,0.0612-0.0164,0.0942-0.0354           c0.0306-0.0177,0.0612-0.0408,0.087-0.0666c0.0564-0.0488,0.1081-0.1165,0.155-0.1924           c0.0211-0.0366,0.0422-0.0732,0.061-0.111c-0.0873-0.0363-0.191-0.0333-0.304,0.0319           c-0.1106,0.0639-0.214,0.1804-0.3008,0.3173L74.1724,31.8625" fill="#A0533F"/></g><g><path d="M74.4199,31.8468c0.0306-0.0177,0.0612-0.0408,0.087-0.0666           c0.0564-0.0488,0.1081-0.1165,0.155-0.1924c0.0211-0.0366,0.0422-0.0732,0.061-0.111           c-0.0873-0.0363-0.191-0.0333-0.304,0.0319c-0.1106,0.0639-0.214,0.1804-0.3008,0.3173l0.0543,0.0364           c0.0472,0.0242,0.0991,0.0321,0.1533,0.0198C74.3564,31.8781,74.387,31.8659,74.4199,31.8468z" fill="#ECB4BF"/></g><g><path d="M74.1714,33.1687c-0.3679-0.053-0.5271-0.4894-0.5768-0.5636l-0.0095-0.0189           c0.024,0.1622,0.2135,1.3043,0.5366,2.185l0.1651-1.6312l-0.0827-0.0579L74.1714,33.1687z" fill="#FFFFFF"/></g><g><path d="M73.86,32.2379l-0.026-0.0094c-0.026-0.0094-0.0496-0.0202-0.0755-0.0296           c0.026,0.0122,0.0472,0.0215,0.0708,0.0349l0.026,0.0094l0.0637,0.0147l0.0354,0.0068l-0.0024-0.0014l-0.0307-0.0093           L73.86,32.2379z" fill="#ECB4BF"/></g><g><path d="M72.3036,33.7404c-0.3597,0.3323-0.6201,0.8077-0.6802,1.2298           c0.3525,0.5179,0.9043,0.7751,1.5691,0.7227c0.0164-0.0012,0.0321-0.0026,0.0478-0.0043           c0.0305-0.0032,0.0588-0.0066,0.0875-0.0106c0.0051-0.0007,0.0102-0.0013,0.0153-0.0022           c0.0141-0.0019,0.0281-0.0042,0.0423-0.0065c0.0034-0.0005,0.0069-0.0012,0.0103-0.0017           c0.025-0.0042,0.0501-0.0088,0.0754-0.0139c0.0086-0.0017,0.0172-0.0035,0.0258-0.0054           c0.0123-0.0025,0.0245-0.005,0.0368-0.0079c0.0178-0.004,0.0356-0.0081,0.0536-0.0125           c0.0104-0.0026,0.0207-0.0052,0.0311-0.008c0.0133-0.0034,0.0267-0.0069,0.0401-0.0106           c0.0088-0.0024,0.0176-0.0047,0.0265-0.0072c0.0205-0.0058,0.0411-0.012,0.0617-0.0183           c0.0078-0.0025,0.0156-0.0049,0.0235-0.0074c0.0196-0.0063,0.0392-0.0126,0.0589-0.0193           c0.0033-0.0012,0.0065-0.0021,0.0098-0.0033c0.0235-0.008,0.0472-0.0165,0.0709-0.0252           c0.0052-0.002,0.0103-0.0039,0.0155-0.0059c0.0508-0.0189,0.102-0.0395,0.1535-0.0616           c0.0819-0.0354,0.1605-0.0724,0.2401-0.1133c-0.2504-0.1723-0.8623-0.6452-1.2294-1.2704l0.4628-0.5625l-0.5467,0.0827           c0.0098-0.0246,0.1966-0.4927,0.5746-1.0279L72.3036,33.7404z" fill="#3A3A77"/></g><g><path d="M73.5804,32.5727c-0.378,0.5325-0.5648,1.0005-0.5747,1.0252l0.5467-0.0827l-0.4628,0.5625           c0.3672,0.6251,0.9791,1.0981,1.2294,1.2704l0.0235-0.0136l0.0259-0.0149c-0.09-0.1566-0.1707-0.3483-0.2467-0.5483           c-0.3231-0.8807-0.5126-2.0228-0.5366-2.185L73.5804,32.5727z" fill="#4C4A8B"/></g><g><path d="M73.3255,30.8074c-0.0054,0.0172-0.1075,0.3436-0.0093,0.8694           c0.0878,0.1986,0.2132,0.3645,0.3644,0.4696c0.216-0.3251,0.4672-0.668,0.7379-0.8243           c0.2701-0.1559,0.5243-0.1058,0.7411-0.0283c0.1496-0.2811,0.2734-0.5877,0.3596-0.8835           c0.0393-0.2611,0.0435-0.4476,0.0361-0.5815c-0.0099-0.1703-0.0384-0.2541-0.0456-0.2744l-0.0024-0.0067           c-0.0772-0.058-0.2533-0.2276-0.6573,0.0056c-0.1402,0.081-0.3079,0.2106-0.5084,0.4099           c-0.0084-0.0016-0.168-0.0327-0.3977,0.0998C73.7591,30.17,73.5345,30.3836,73.3255,30.8074z" fill="#ECB4BF"/></g><g><path d="M75.0322,28.3508c-0.1717,0.0991-0.3767,0.2367-0.621,0.4211           c-0.6234,0.471-1.2346,1.0649-1.2324,1.8437l-0.0023,0.0203c-0.0277,0.1922-0.0741,0.46-0.0217,0.6573           c0.024,0.1541,0.0997,0.2486,0.1614,0.389c-0.0982-0.5312,0.0039-0.8576,0.0093-0.8748           c0.209-0.4238,0.4336-0.6374,0.6183-0.7442c0.2296-0.1326,0.3893-0.1015,0.3977-0.0998           c0.2005-0.1994,0.3682-0.329,0.5084-0.4099c0.404-0.2333,0.5802-0.0637,0.6573-0.0056           c0.0095,0.027,0.038,0.1108,0.0479,0.2783c0.0075,0.1366,0.0033,0.3232-0.0361,0.5843l0.0257-0.0798l0.007-0.023           c0.0514-0.1678,0.1099-0.3208,0.126-0.471c0.0511-0.257,0.0057-0.4718-0.023-0.6314l-0.0024-0.0176           c0.0088-0.0048,0.19-0.4074,0.2007-0.7118C75.8654,28.1684,75.7084,27.9604,75.0322,28.3508z" fill="#A0533F"/></g><g><path d="M71.1993,33.3677c0.0041,1.4423,0.7108,2.2898,1.7465,2.3304           c-0.5545-0.022-1.0144-0.2754-1.3223-0.7278c0.0601-0.4221,0.3204-0.8975,0.6802-1.2298l1.2767-1.1705l0.2489-0.3361           c-0.0236-0.0134-0.0449-0.0227-0.0708-0.0349c-0.0354-0.0229-0.059-0.0335-0.0779-0.0524           c-0.1512-0.1051-0.2766-0.2711-0.3644-0.4642c-0.0617-0.1404-0.1374-0.2349-0.1614-0.389           c-0.0524-0.1972-0.006-0.465,0.0217-0.6573c0.0001-0.7991,0.6113-1.393,1.2347-1.864           c0.2443-0.1844,0.4494-0.322,0.621-0.4211c0.6762-0.3904,0.8332-0.1824,0.8209,0.1249           c-0.0107,0.3044-0.1919,0.707-0.2004,0.7119c0.0309,0.1771,0.0763,0.3919,0.0251,0.6489           c-0.0161,0.1502-0.0746,0.3032-0.126,0.471l-0.0327,0.1028c-0.0862,0.2958-0.2099,0.6024-0.3596,0.8835           c-0.0268,0.052-0.0502,0.0981-0.0784,0.1414c-0.0235,0.0407-0.0469,0.0787-0.0704,0.1165l0.2383,0.0548l1.2792-0.3052           c0.4146-0.0958,0.7006,0.1509,0.7019,0.616l0.0002,0.0741c0.3491-0.8038,0.5517-1.645,0.5495-2.4231           c-0.0059-2.0877-1.484-2.9301-3.301-1.8811C72.6619,28.7363,71.1934,31.2799,71.1993,33.3677z" fill="#6B9EF9"/></g></g><g><polygon fill="#B6CBEA" points="69.4105,31.0253 69.2281,31.5585 68.8188,31.8626 69.1163,32.024 69.047,32.5353           69.4135,32.1016 69.7813,32.1114 69.7094,31.6816 70.0073,31.1764 69.5953,31.3465         "/></g><g><polygon fill="#3887E5" points="67.7559,31.9805 67.5736,32.5138 67.1619,32.8192 67.4594,32.9806 67.3901,33.4919           67.759,33.0569 68.1268,33.0666 68.0548,32.6368 68.3504,32.133 67.9407,32.3018         "/></g><g><polygon fill="#3887E5" points="66.0991,32.9371 65.9167,33.4704 65.5074,33.7745 65.8049,33.9359 65.7356,34.4472           66.1021,34.0135 66.4699,34.0232 66.3979,33.5934 66.6959,33.0882 66.2838,33.2584         "/></g><g enable-background="new    "><g><polygon fill="#3887E5" points="62.1209,41.3857 62.1226,41.9833 67.5145,38.8702 67.5128,38.2726          "/></g><g><polygon fill="#3887E5" points="62.1209,39.9798 62.1226,40.5802 70.1058,35.9711 70.1041,35.3707          "/></g><g><polygon fill="#3887E5" points="62.1169,38.5789 62.1186,39.1793 70.1018,34.5702 70.1001,33.9698          "/></g><g><polygon fill="#3887E5" points="64.4445,33.8924 64.2598,34.427 63.8505,34.7311 64.148,34.8925 64.0787,35.4038            64.4476,34.9687 64.8153,34.9785 64.7434,34.5487 65.039,34.0449 64.6293,34.2137          "/></g></g><g><polygon fill="#3887E5" points="62.7876,34.849 62.6053,35.3822 62.1936,35.6877 62.4934,35.8477 62.4241,36.359           62.7907,35.9254 63.1585,35.9351 63.0865,35.5053 63.3845,35.0001 62.9724,35.1703         "/></g></g></g><g><g><g enable-background="new    "><g><path d="M38.2233,30.6287l0.0258,8.8765c0,0.3279,0.118,0.5639,0.306,0.6708l1.0395,0.6046           c-0.188-0.1105-0.3059-0.3429-0.3059-0.671l-0.0258-8.8763c0-0.6636,0.4645-1.4709,1.0432-1.8062l16.0278-9.2525           c0.2912-0.1696,0.5529-0.1843,0.7446-0.0738l-1.0395-0.6046c-0.1917-0.1105-0.4534-0.0958-0.7446,0.0738l-16.0278,9.2525           C38.6878,29.1578,38.2233,29.9652,38.2233,30.6287z" fill="#9EB5DF"/><path d="M51.7629,34.1122l-1.0395-0.6046c0.1511,0.151,0.4202,0.3648,0.7704,0.5713l0.9105,0.5236           C52.1168,34.4254,51.8956,34.2411,51.7629,34.1122z" fill="#9EB5DF"/></g><g><path d="M40.307,29.4271c-0.579,0.3343-1.0458,1.1429-1.0439,1.8055l0.0252,8.8759           c0.0019,0.6652,0.4718,0.933,1.0507,0.5988l11.4241-6.5957c0.4303,0.4316,1.8758,1.4173,3.3033,1.0563           c-0.0145-0.0733-0.2894-1.4664-0.3073-2.7861l1.6075-0.9281c0.5766-0.3329,1.0434-1.1415,1.0416-1.8067L57.383,20.771           c-0.0019-0.6626-0.4718-0.9304-1.0484-0.5975L40.307,29.4271z" fill="#DEE7F8"/></g></g></g><g><g enable-background="new    "><g><path d="M52.4116,29.4565l-0.0806,0.1532l0.1714,1.4315c0.3171-1.2503,0.5018-2.6111,0.5249-2.7924           l0.0046-0.0216l-0.014,0.0514c-0.0515,0.1326-0.2053,0.7524-0.5717,1.2241L52.4116,29.4565z" fill="#FFFFFF"/></g><g><path d="M53.032,28.2271l-0.0047,0.0216c-0.0231,0.1813-0.2078,1.5421-0.5249,2.7924           c-0.0723,0.291-0.154,0.5765-0.2428,0.8391l0.0259-0.0149l0.0235-0.0136c0.2415-0.451,0.8582-1.6359,1.2206-2.6877           l-0.4668-0.0257l0.5477-0.5492C53.6006,28.576,53.4118,28.3249,53.032,28.2271z" fill="#3887E5"/></g><g><path d="M52.102,31.9714c-0.5873,0.3181-1.1362,0.4372-1.6076,0.3796           c0.4993,0.0613,1.085-0.0753,1.7112-0.4368l-0.0565,0.03l-0.0259,0.0149L52.102,31.9714z" fill="#6B9EF9"/></g><g><path d="M52.1978,29.172l-0.2115,0.5301l0.0812,0.0625l-0.1604,1.6232           c0.0713,0.2053,0.1544,0.3957,0.242,0.5564l-0.0259,0.0149l0.0259-0.0149l0.0565-0.03l0.0541-0.0339l0.0259-0.0149           l-0.0259,0.0149c0.0888-0.2626,0.1705-0.5482,0.2428-0.8391l-0.1714-1.4315l0.0797-0.1517L52.1978,29.172z" fill="#3A3A77"/></g><g><path d="M52.7103,28.2159c0.0036-0.0124,0.0064-0.0235,0.0082-0.0337           c-0.0063,0.0111-0.0126,0.0223-0.019,0.0333L52.7103,28.2159z" fill="#3A3A77"/></g><g><path d="M52.7257,28.1694c-0.0024,0.0043-0.0048,0.0085-0.0071,0.0128           c-0.0019,0.0102-0.0046,0.0213-0.0082,0.0337c-0.0757,0.2589-0.4907,0.9212-0.5125,0.9561l0.2138,0.2845l0.0346,0.0461           c0.3664-0.4717,0.5202-1.0915,0.5717-1.2241l0.014-0.0514L52.7257,28.1694z" fill="#B6CBEA"/></g><g><path d="M52.6996,28.2155c-0.1498,0.26-0.3227,0.4737-0.5076,0.5805           c-0.1817,0.1049-0.3534,0.0916-0.5032,0.0066l-0.0068,0.0082c0.0781,0.1705,0.4939,0.3516,0.5158,0.3612           c0.0218-0.0349,0.4368-0.6972,0.5125-0.9561L52.6996,28.2155z" fill="#E0A4B2"/></g><g><path d="M51.682,28.8108l0.0068-0.0082c-0.0043-0.0024-0.0086-0.0049-0.0129-0.0074           C51.6776,28.8004,51.6796,28.8056,51.682,28.8108z" fill="#3A3A77"/></g><g><path d="M51.3752,29.227l-0.0142-0.0351l0.0048,0.0162c0.024,0.1541,0.2158,1.3002,0.5413,2.1797           l0.1604-1.6232l-0.0803-0.0619L51.952,29.788C51.5841,29.7403,51.4249,29.3012,51.3752,29.227z" fill="#FFFFFF"/></g><g><path d="M51.662,28.7866l-0.301,0.4053l0.0142,0.0351c0.0497,0.0742,0.2089,0.5132,0.5768,0.561           l0.0343-0.0859l0.2115-0.5301c-0.0219-0.0095-0.4377-0.1907-0.5158-0.3612c-0.0024-0.0052-0.0044-0.0104-0.0061-0.0156           C51.6712,28.7925,51.6666,28.7896,51.662,28.7866z" fill="#B6CBEA"/></g><g><path d="M51.361,29.1919c-0.3804,0.5366-0.5649,1.0034-0.5746,1.0279l0.549-0.084l-0.4652,0.5638           c0.3672,0.6305,0.9862,1.1021,1.2318,1.2718l0.0212-0.0122l0.0259-0.0149c-0.0877-0.1607-0.1707-0.3511-0.242-0.5564           c-0.3255-0.8795-0.5173-2.0256-0.5413-2.1797L51.361,29.1919z" fill="#3887E5"/></g><g><polygon fill="#6B9EF9" points="49.398,31.7328 49.3927,31.7258 49.3927,31.7261          "/></g><g><path d="M51.361,29.1919l-1.2744,1.1692c-0.3997,0.3689-0.674,0.912-0.6939,1.365           c0.0131,0.0167,0.0209,0.0264,0.0288,0.0363c0.0059,0.0072,0.0118,0.0142,0.0178,0.0213           c0.0073,0.0086,0.0146,0.0171,0.022,0.0255c0.0065,0.0075,0.0131,0.0149,0.0197,0.0223           c0.0097,0.0106,0.0195,0.0211,0.0294,0.0315c0.005,0.0053,0.0102,0.0106,0.0153,0.0157           c0.0119,0.0122,0.0239,0.0242,0.0362,0.036c0.0036,0.0034,0.0072,0.0068,0.0108,0.0102           c0.0109,0.0102,0.0218,0.0203,0.0329,0.0301c0.0042,0.0039,0.0085,0.0076,0.0127,0.0113           c0.0134,0.0118,0.027,0.0232,0.0407,0.0345c0.0039,0.0031,0.0078,0.0062,0.0117,0.0094           c0.0117,0.0094,0.0236,0.0186,0.0356,0.0277c0.0038,0.0028,0.0075,0.0058,0.0114,0.0086           c0.0142,0.0106,0.0286,0.0208,0.0431,0.0308c0.0047,0.0032,0.0093,0.0064,0.014,0.0095           c0.0127,0.0087,0.0256,0.0171,0.0386,0.0252c0.0042,0.0027,0.0083,0.0053,0.0125,0.0079           c0.0137,0.0086,0.0275,0.0168,0.0414,0.0247c0.0056,0.0034,0.0112,0.0066,0.0169,0.0096           c0.0147,0.0083,0.0296,0.0165,0.0446,0.0243c0.0052,0.0027,0.0106,0.0052,0.0159,0.0079           c0.0111,0.0056,0.0222,0.0111,0.0335,0.0165c0.0068,0.0033,0.0137,0.0065,0.0206,0.0096           c0.0143,0.0066,0.0286,0.0129,0.0431,0.0191c0.008,0.0035,0.016,0.0066,0.0241,0.0099           c0.0087,0.0034,0.0175,0.007,0.0262,0.0103c0.0126,0.0048,0.0252,0.0094,0.038,0.0139           c0.0096,0.0034,0.0193,0.0068,0.029,0.0102c0.0102,0.0034,0.0203,0.0065,0.0306,0.0098           c0.006,0.0019,0.012,0.0036,0.018,0.0053c0.0197,0.006,0.0395,0.0116,0.0595,0.0168           c0.0039,0.001,0.0079,0.0021,0.0118,0.003c0.0126,0.0032,0.0251,0.0062,0.0379,0.0091           c0.0272,0.0062,0.0547,0.0116,0.0824,0.0165c0.4935,0.0869,1.0764-0.0259,1.7029-0.3653l0.0212-0.0122l0.0259-0.0149           l0.0565-0.03l0.0541-0.0339l0.0259-0.0149l0.0235-0.0136c1.1461-0.7024,2.1396-1.9911,2.6991-3.3679           c-0.0224-0.4285-0.2989-0.6537-0.6994-0.5606l-1.2768,0.3038c0.3798,0.0977,0.5687,0.3489,0.5786,0.3621l-0.5477,0.5492           l0.4668,0.0257c-0.3624,1.0518-0.979,2.2367-1.2206,2.6877l-0.0235,0.0136l-0.0259,0.0149l-0.0541,0.0339l-0.0565,0.03           l-0.0259,0.0149l-0.0212,0.0122c-0.2456-0.1697-0.8646-0.6412-1.2318-1.2718l0.4652-0.5638l-0.549,0.084           C50.796,30.1953,50.9806,29.7285,51.361,29.1919z" fill="#1E72C6"/></g><g><path d="M52.1812,24.9883c-0.9249,0.534-1.6724,2.125-1.6684,3.5502           c0.0008,0.292,0.0322,0.5502,0.0894,0.7772c0.0429,0.1594,0.1939,0.2023,0.3586,0.1072l0.4001-0.231l0.301-0.4053           c-0.2023-0.1285-0.3619-0.3873-0.4478-0.6558c-0.0093,0.0073-0.0185,0.0135-0.0278,0.0188           c-0.0988,0.057-0.194,0.0091-0.2224-0.1182c-0.0334-0.1431,0.0297-0.3368,0.1426-0.4316l0.04-0.0259           c0.0473-0.783,1.0388-1.1144,1.0367-1.8743c0.05-0.0062,0.9992-0.1245,1.0486,0.6704l0.04-0.0203           c0.1107-0.0342,0.1747,0.0861,0.1446,0.2659c-0.0297,0.1609-0.1245,0.3185-0.2233,0.3755           c-0.0093,0.0053-0.0185,0.0098-0.0278,0.0133c-0.0838,0.3652-0.2397,0.8046-0.4396,1.1651l0.3063,0.0577l0.393-0.2269           c0.1671-0.0965,0.315-0.3119,0.3545-0.5189c0.0605-0.295,0.0903-0.5885,0.0894-0.8805           C53.8649,25.1756,53.1085,24.4529,52.1812,24.9883z" fill="#3A3A77"/></g><g><path d="M52.1832,25.6996c0.0022,0.7599-0.9894,1.0913-1.0367,1.8743l-0.04,0.0259           c-0.1129,0.0949-0.176,0.2885-0.1426,0.4316c0.0284,0.1273,0.1236,0.1753,0.2224,0.1182           c0.0092-0.0053,0.0185-0.0116,0.0278-0.0188c0.0859,0.2686,0.2455,0.5274,0.4478,0.6558           c0.0046,0.0029,0.0092,0.0058,0.0139,0.0086c0.0043,0.0025,0.0086,0.005,0.0129,0.0074           c0.1498,0.085,0.3215,0.0983,0.5032-0.0066c0.1849-0.1068,0.3578-0.3205,0.5076-0.5805           c0.0064-0.011,0.0127-0.0222,0.019-0.0333c0.0024-0.0043,0.0048-0.0085,0.0071-0.0128           c0.1999-0.3605,0.3558-0.7999,0.4396-1.1651c0.0093-0.0034,0.0186-0.0079,0.0278-0.0133           c0.0988-0.0571,0.1936-0.2146,0.2233-0.3755c0.0301-0.1798-0.0339-0.3001-0.1446-0.2659l-0.04,0.0203           C53.1824,25.5751,52.2332,25.6934,52.1832,25.6996z" fill="#ECB4BF"/></g><g><path d="M52.1841,24.3527c-1.8169,1.049-3.2855,3.5927-3.2795,5.6804           c0.002,0.7224,0.1805,1.2953,0.4881,1.6927c0.02-0.4529,0.2943-0.9959,0.6939-1.3647l1.2744-1.1692l-0.4001,0.231           c-0.1648,0.0951-0.3157,0.0522-0.3586-0.1072c-0.0572-0.2271-0.0886-0.4853-0.0894-0.7772           c-0.004-1.4253,0.7435-3.0162,1.6684-3.5502c0.9273-0.5354,1.6837,0.1873,1.6877,1.6126           c0.0008,0.292-0.029,0.5855-0.0894,0.8805c-0.0395,0.207-0.1874,0.4224-0.3545,0.5189l-0.393,0.2269l1.2768-0.3038           c0.4005-0.0931,0.6769,0.1321,0.6994,0.5606c-0.5595,1.3768-1.553,2.6655-2.6991,3.3679l-0.0235,0.0136l-0.0259,0.0149           l-0.0541,0.0339c1.8169-1.049,3.2854-3.5925,3.2795-5.6804C55.4792,24.1461,54.0011,23.3037,52.1841,24.3527z" fill="#6B9EF9"/></g></g></g><g><g><polygon fill="#3887E5" points="47.242,27.85 47.0596,28.3833 46.6503,28.6873 46.9478,28.8488 46.8785,29.3601           47.2451,28.9264 47.6128,28.9361 47.5409,28.5063 47.8389,28.0011 47.4268,28.1713         "/></g><g><polygon fill="#3887E5" points="45.5875,28.8053 45.4051,29.3385 44.9934,29.644 45.2909,29.8054 45.2216,30.3167           45.5905,29.8816 45.9583,29.8914 45.8864,29.4616 46.182,28.9578 45.7723,29.1265         "/></g><g><polygon fill="#3887E5" points="43.9306,29.7619 43.7482,30.2951 43.3389,30.5992 43.6364,30.7606 43.5671,31.2719           43.9336,30.8382 44.3014,30.848 44.2295,30.4182 44.5274,29.913 44.1154,30.0832         "/></g><g enable-background="new    "><g><polygon fill="#3887E5" points="42.5476,36.7121 42.5493,37.3097 47.9413,34.1966 47.9396,33.599          "/></g><g><polygon fill="#3887E5" points="39.9524,36.8046 39.9541,37.405 47.9373,32.7958 47.9356,32.1955          "/></g><g><polygon fill="#3887E5" points="39.9484,35.4037 39.9501,36.0041 47.9333,31.3949 47.9316,30.7945          "/></g><g><polygon fill="#B6CBEA" points="42.276,30.7171 42.0913,31.2517 41.682,31.5558 41.9795,31.7172 41.9102,32.2285            42.2791,31.7935 42.6469,31.8032 42.5749,31.3734 42.8705,30.8696 42.4608,31.0384          "/></g></g><g><polygon fill="#B6CBEA" points="40.6191,31.6737 40.4368,32.207 40.0251,32.5124 40.3249,32.6725 40.2557,33.1838           40.6222,32.7501 40.99,32.7598 40.918,32.3301 41.216,31.8249 40.8039,31.995         "/></g></g></g><g><g><g enable-background="new    "><g><path d="M40.6627,57.4041l-1.0395-0.6046c0.1511,0.1474,0.4202,0.3648,0.7704,0.5677l0.9105,0.5272           C41.0166,57.7173,40.7954,57.533,40.6627,57.4041z" fill="#9EB5DF"/><path d="M27.1231,53.9205l0.0258,8.8765c0,0.3281,0.118,0.5603,0.306,0.6708l1.0395,0.6046           c-0.188-0.1105-0.3059-0.3429-0.3059-0.6708l-0.0258-8.8765c0-0.6636,0.4645-1.4745,1.0432-1.8062l16.0278-9.2563           c0.2912-0.1658,0.5529-0.1805,0.7446-0.07l-1.0395-0.6046c-0.1917-0.1105-0.4534-0.0958-0.7446,0.0738l-16.0278,9.2525           C27.5876,52.4496,27.1231,53.2571,27.1231,53.9205z" fill="#9EB5DF"/></g><g><path d="M29.2068,52.7179c-0.579,0.3343-1.0458,1.1429-1.0439,1.8055l0.0252,8.8785           c0.0019,0.6626,0.4718,0.9304,1.0507,0.5961l11.4241-6.5957c0.4303,0.4316,1.8758,1.4173,3.3033,1.0563           c-0.0145-0.0733-0.2894-1.4664-0.3073-2.7861l1.6075-0.9281c0.5766-0.3329,1.0434-1.1415,1.0416-1.8041l-0.0252-8.8785           c-0.0019-0.6626-0.4718-0.9304-1.0484-0.5975L29.2068,52.7179z" fill="#DEE7F8"/></g></g></g><g><g><polygon fill="#3887E5" points="36.6986,50.875 36.5162,51.4082 36.1069,51.7123 36.4044,51.8737 36.3351,52.385           36.7017,51.9513 37.0694,51.961 36.9975,51.5313 37.2955,51.0261 36.8834,51.1962         "/></g><g><polygon fill="#3887E5" points="35.0441,51.8302 34.8617,52.3634 34.45,52.6689 34.7475,52.8303 34.6782,53.3416           35.0471,52.9066 35.4149,52.9163 35.343,52.4865 35.6386,51.9827 35.2289,52.1515         "/></g><g><polygon fill="#3887E5" points="33.3872,52.7868 33.2048,53.3201 32.7955,53.6241 33.093,53.7855 33.0237,54.2968           33.3902,53.8632 33.758,53.8729 33.6861,53.4431 33.984,52.9379 33.572,53.1081         "/></g><g enable-background="new    "><g><polygon fill="#3887E5" points="29.409,59.8295 29.4107,60.4299 37.3939,55.8208 37.3922,55.2204          "/></g><g><polygon fill="#3887E5" points="29.405,58.4286 29.4067,59.029 37.3899,54.4199 37.3882,53.8195          "/></g><g><polygon fill="#B6CBEA" points="31.7326,53.7421 31.5479,54.2767 31.1386,54.5807 31.4361,54.7421 31.3668,55.2535            31.7357,54.8184 32.1035,54.8281 32.0315,54.3984 32.3271,53.8945 31.9174,54.0633          "/></g></g><g><polygon fill="#B6CBEA" points="30.0757,54.6987 29.8934,55.2319 29.4817,55.5373 29.7815,55.6974 29.7123,56.2087           30.0788,55.775 30.4466,55.7847 30.3746,55.355 30.6726,54.8498 30.2605,55.0199         "/></g></g><g><g><polygon fill="#B6CBEA" points="36.6986,50.875 36.5162,51.4082 36.1069,51.7123 36.4044,51.8737 36.3351,52.385           36.7017,51.9513 37.0694,51.961 36.9975,51.5313 37.2955,51.0261 36.8834,51.1962         "/></g><g><polygon fill="#B6CBEA" points="35.0441,51.8302 34.8617,52.3634 34.45,52.6689 34.7475,52.8303 34.6782,53.3416           35.0471,52.9066 35.4149,52.9163 35.343,52.4865 35.6386,51.9827 35.2289,52.1515         "/></g><g><polygon fill="#3887E5" points="33.3872,52.7868 33.2048,53.3201 32.7955,53.6241 33.093,53.7855 33.0237,54.2968           33.3902,53.8632 33.758,53.8729 33.6861,53.4431 33.984,52.9379 33.572,53.1081         "/></g><g enable-background="new    "><g><polygon fill="#3887E5" points="29.409,61.2353 29.4107,61.8329 34.8027,58.7199 34.801,58.1223          "/></g><g><polygon fill="#3887E5" points="29.409,59.8295 29.4107,60.4299 37.3939,55.8208 37.3922,55.2204          "/></g><g><polygon fill="#3887E5" points="29.405,58.4286 29.4067,59.029 37.3899,54.4199 37.3882,53.8195          "/></g><g><polygon fill="#3887E5" points="31.7326,53.7421 31.5479,54.2767 31.1386,54.5807 31.4361,54.7421 31.3668,55.2535            31.7357,54.8184 32.1035,54.8281 32.0315,54.3984 32.3271,53.8945 31.9174,54.0633          "/></g></g><g><polygon fill="#3887E5" points="30.0757,54.6987 29.8934,55.2319 29.4817,55.5373 29.7815,55.6974 29.7123,56.2087           30.0788,55.775 30.4466,55.7847 30.3746,55.355 30.6726,54.8498 30.2605,55.0199         "/></g></g><g><g enable-background="new    "><g><polygon fill="#6B9EF9" points="44.5251,51.5556 44.5296,51.5446 44.5296,51.5444          "/></g><g><path d="M42.9876,53.9583c0.0232-0.0245,0.0464-0.0492,0.0693-0.0741           C43.0339,53.9091,43.0108,53.9338,42.9876,53.9583z" fill="#6B9EF9"/></g><g><path d="M41.7192,52.2353l-0.0609,0.1543l-0.1522,0.375l0.0827,0.0606l-0.1628,1.6272           c0.076,0.2026,0.1544,0.3957,0.2444,0.5523l-0.0259,0.0149l0.0259-0.0149l0.0565-0.0298l0.0565-0.0354l0.0235-0.0136           l-0.0235,0.0136c0.0865-0.2585,0.1658-0.5427,0.2428-0.8336l-0.1738-1.4329l0.0797-0.1543l-0.1443-0.1903L41.7192,52.2353z           " fill="#1E72C6"/></g><g><path d="M40.8848,52.2539c-0.3804,0.5366-0.5672,1.0022-0.577,1.0267l0.549-0.0813l-0.4652,0.561           c0.3695,0.6292,0.9862,1.1021,1.2318,1.2716l0.0212-0.0122l0.0259-0.0149c-0.09-0.1566-0.1684-0.3497-0.2444-0.5523           c-0.0641-0.1769-0.1236-0.362-0.176-0.5485c-0.0333-0.1026-0.0619-0.2107-0.0881-0.3148           c-0.0834-0.3203-0.1479-0.6271-0.1934-0.8662c-0.012-0.0608-0.0239-0.1163-0.0335-0.1676l-0.012-0.0663           c-0.0072-0.0445-0.0144-0.0811-0.0192-0.1162l-0.012-0.0663l-0.0048-0.0351L40.8848,52.2539z" fill="#4C4A8B"/></g><g><path d="M41.6446,55.0197l-0.0212,0.0122c-0.2864,0.1552-0.5636,0.2632-0.8273,0.3266           c0.2953-0.0706,0.6077-0.197,0.9309-0.3836l-0.0565,0.0298L41.6446,55.0197z" fill="#6B9EF9"/></g><g><path d="M41.9677,52.566l-0.0355-0.0473l-0.0797,0.1543l0.1738,1.4329           c0.3124-1.2504,0.4994-2.6152,0.5225-2.7965l-0.0094,0.0298C42.4903,51.4705,42.3341,52.089,41.9677,52.566z" fill="#FFFFFF"/></g><g><path d="M42.0263,54.106c0.324-1.2922,0.511-2.7031,0.5248-2.8114l-0.0023,0.0149           C42.5257,51.4908,42.3386,52.8556,42.0263,54.106z" fill="#3A3A77"/></g><g><path d="M42.5843,52.2019l0.4668,0.0229c-0.3648,1.0531-0.979,2.2367-1.2206,2.6875           c0.4645-0.2846,0.905-0.6662,1.3017-1.1115c0.0137-0.0154,0.0269-0.0304,0.0401-0.0455           c0.0079-0.0089,0.0157-0.018,0.0235-0.0269c0.0157-0.0181,0.0312-0.0362,0.0467-0.0544           c0.0133-0.0156,0.0265-0.0313,0.0397-0.047c0.0068-0.0082,0.0135-0.0162,0.0203-0.0243           c0.0195-0.0236,0.0389-0.0473,0.0582-0.0711c0.0027-0.0035,0.0055-0.007,0.0082-0.0103           c0.0205-0.0255,0.0409-0.0512,0.0611-0.077c0.4278-0.5463,0.7896-1.1619,1.0581-1.7994           c0.0035-0.0083,0.007-0.0167,0.0105-0.025c0.0089-0.0213,0.0177-0.0427,0.0264-0.0642           c-0.0179-0.4397-0.2967-0.6633-0.6925-0.5701l-1.2816,0.3037c0.3822,0.0964,0.571,0.3475,0.5809,0.3608L42.5843,52.2019z" fill="#3A3A77"/></g><g><path d="M42.5511,51.2892c-0.0138,0.1136-0.2008,1.5246-0.5248,2.8168           c-0.077,0.2909-0.1563,0.5751-0.2428,0.8336l0.0235-0.0136l0.0235-0.0136c0.2415-0.4509,0.8558-1.6344,1.2206-2.6875           l-0.4668-0.0229l0.5477-0.5519C43.1221,51.6367,42.9332,51.3855,42.5511,51.2892z" fill="#4C4A8B"/></g><g><path d="M41.2501,53.9039c-0.0309-0.104-0.0595-0.2121-0.0881-0.3148           C41.1882,53.6932,41.2168,53.8013,41.2501,53.9039z" fill="#3A3A77"/></g><g><path d="M42.3034,51.2426l-0.0235,0.0379l-0.0634,0.0853l-0.047,0.0678           c-0.1429,0.31-0.435,0.7771-0.4503,0.8017l0.0686,0.0931l0.1443,0.1903l0.0355,0.0473           c0.3664-0.477,0.5226-1.0955,0.5717-1.2267l0.0093-0.0298l0.0023-0.0203L42.3034,51.2426z" fill="#B6CBEA"/></g><g><path d="M42.1696,51.4336c-0.1409,0.1816-0.2937,0.3293-0.4514,0.4204           c-0.1577,0.091-0.3108,0.1199-0.45,0.1027c0.1466,0.143,0.4358,0.2719,0.4511,0.2786           C41.7346,52.2107,42.0267,51.7436,42.1696,51.4336z" fill="#E0A4B2"/></g><g><path d="M40.9232,52.489c-0.0048-0.0458-0.0144-0.0811-0.0192-0.1162           C40.9088,52.408,40.916,52.4445,40.9232,52.489z" fill="#3A3A77"/></g><g><path d="M40.9039,52.3674c-0.0048-0.0243-0.0072-0.0445-0.012-0.0608L40.9039,52.3674z" fill="#3A3A77"/></g><g><path d="M41.4735,52.8513c-0.3679-0.053-0.5271-0.4894-0.5768-0.5636l-0.0095-0.0163l0.0048,0.0351           c0.0048,0.0163,0.0072,0.0366,0.012,0.0608c0.0048,0.0406,0.0144,0.0758,0.0192,0.1216l0.012,0.0663           c0.0096,0.0513,0.0215,0.1068,0.0335,0.1676c0.0455,0.2392,0.11,0.546,0.1934,0.8662           c0.0286,0.1027,0.0572,0.2108,0.0881,0.3148c0.0524,0.1865,0.1119,0.3716,0.176,0.5486l0.1628-1.6272l-0.0827-0.0606           L41.4735,52.8513z" fill="#FFFFFF"/></g><g><path d="M41.1313,51.9193l-0.2466,0.3293l0.0024,0.0229l0.0095,0.0163           c0.0497,0.0742,0.2089,0.5106,0.5768,0.5636l0.0328-0.0867l0.1522-0.375l0.0609-0.1543           c-0.0152-0.0068-0.3045-0.1356-0.4511-0.2786l-0.0519-0.0134l-0.059-0.0146L41.1313,51.9193z" fill="#B6CBEA"/></g><g><path d="M41.7441,48.4226c-0.5034,0.2907-1.0895,0.8122-1.2666,1.5338           c-0.0039,0.0412-0.0778,0.825-0.0254,1.025c0.0216,0.1338,0.0808,0.2242,0.1377,0.3349l0.0237,0.0513           c-0.0407-0.2149-0.0459-0.396-0.0392-0.538c0.0022-0.0392,0.0045-0.0731,0.0091-0.1083           c0.0161-0.1501,0.091-0.3153,0.2015-0.4386c0.204-0.2305,0.5678-0.5774,0.977-0.8136           c0.2788-0.161,0.5787-0.2707,0.8635-0.2571c0.099,0.0023,0.1699,0.0671,0.1962,0.1738           c0.0263,0.1366,0.0458,0.3609-0.0051,0.7045c0.0607-0.203,0.138-0.3858,0.1587-0.5656           c0.0511-0.2598-0.0235-0.8018-0.0259-0.8059c-0.0438-0.4921-0.4073-0.6479-0.85-0.471           C41.9912,48.2914,41.8703,48.3497,41.7441,48.4226z" fill="#A0533F"/></g><g><path d="M41.7618,49.4691c-0.4092,0.2362-0.7729,0.5831-0.977,0.8136           c-0.1105,0.1233-0.1854,0.2885-0.2015,0.4386c-0.0046,0.0351-0.0069,0.0691-0.0091,0.1055           c-0.0067,0.1448-0.0014,0.3259,0.0393,0.5408l-0.0237-0.0513l0.0237,0.0513c0.1139,0.2593,0.2936,0.4671,0.5178,0.5517           l0.026,0.0094l0.0566,0.016l0.0543,0.012c0.1391,0.0173,0.2923-0.0116,0.45-0.1027           c0.1577-0.091,0.3105-0.2388,0.4514-0.4204l0.047-0.0678l0.0634-0.0853l0.0235-0.0379           c0.2206-0.3414,0.401-0.757,0.513-1.1468c0.0509-0.349,0.0314-0.5733,0.0051-0.71           c-0.0262-0.1067-0.0971-0.1714-0.1962-0.1738C42.3406,49.1985,42.0406,49.3081,41.7618,49.4691z" fill="#ECB4BF"/></g><g><path d="M41.7056,47.4134c-1.8169,1.049-3.2855,3.5925-3.2795,5.6804           c0.002,0.7207,0.1797,1.293,0.486,1.6903c0.0237-0.4537,0.2974-0.9946,0.6937-1.3582l1.2767-1.1733l0.2489-0.3333           c-0.2242-0.0845-0.4039-0.2923-0.5178-0.5516l-0.0237-0.0513c-0.0569-0.1107-0.1161-0.2012-0.1377-0.3349           c-0.0524-0.2,0.0215-0.9838,0.0254-1.025c0.177-0.7216,0.7631-1.2432,1.2666-1.5338           c0.1262-0.0729,0.2471-0.1312,0.3552-0.1746c0.4427-0.177,0.8062-0.0212,0.85,0.471           c0.0024,0.0041,0.077,0.546,0.0259,0.8059c-0.0207,0.1798-0.098,0.3625-0.1587,0.571           c-0.112,0.3898-0.2924,0.8055-0.513,1.1468l0.2477,0.0466l1.2816-0.3037c0.3957-0.0931,0.6745,0.1304,0.697,0.559           c0.3043-0.7507,0.479-1.5275,0.4769-2.2499C45.0006,47.2067,43.5225,46.3644,41.7056,47.4134z" fill="#6B9EF9"/></g></g><g><path d="M41.807,54.9259l-0.0235,0.0136l-0.0565,0.0354c0.4444-0.2566,0.8678-0.6027,1.254-1.0096          c-0.3563,0.375-0.7442,0.6981-1.1504,0.947L41.807,54.9259z" fill="#6B9EF9"/></g><g><path d="M38.912,54.7841c0.3735,0.4864,0.937,0.7089,1.6071,0.6251          c0.0246-0.0032,0.0469-0.0062,0.0693-0.0097c0.0033-0.0005,0.0064-0.0009,0.0097-0.0015          c0.0199-0.0031,0.0399-0.0066,0.06-0.0103c0.0102-0.0019,0.0204-0.0038,0.0306-0.0059          c0.0093-0.0018,0.0185-0.0038,0.0278-0.0056c0.0258-0.0053,0.0518-0.0111,0.0779-0.0173          c0.2655-0.0638,0.5427-0.1718,0.8291-0.327c-0.2456-0.1696-0.8623-0.6425-1.2318-1.2716l0.4652-0.561l-0.549,0.0813          c0.0098-0.0245,0.1966-0.49,0.5747-1.0253l-1.2767,1.1707C39.2094,53.7896,38.9357,54.3305,38.912,54.7841z" fill="#3A3A77"/></g></g></g></g><g><g><g><g><path d="M68.8928,46.3396c0.0274,0.0017,0.1178-0.0003,0.2042,0.0204          c0.4367,0.1052,0.691,0.1104,1.0095,0.1338c0.4476,0.0328,0.8273,0.0777,1.2228,0.2036l0.0013,0.0004          c0.3136,0.0315,0.6171,0.2852,0.8134,0.5318c0.0006,0.0006,0.0012,0.0012,0.0018,0.0023          c0.0935,0.1157,0.3547,0.164,0.3738,0.1775l-0.0653,0.7982l-0.1252-0.0576c-0.1481-0.0751-0.3142-0.0646-0.4582,0.0168          c-0.5257,0.2877-1.3113,0.1134-1.6755-0.0568c-0.1002-0.0551-0.151-0.0995-0.1673-0.1347          c-0.2264-0.2459-0.214-0.6198-0.1181-1.0235c-0.333-0.0335-0.9171-0.3107-0.9921-0.413          c-0.0318-0.0367-0.0528-0.0724-0.0696-0.1081C68.8223,46.3891,68.8529,46.3356,68.8928,46.3396z" fill="#ECB4BF"/><path d="M72.0342,46.79c0,0,1.9275,0.3809,2.3868,0.4318c0.4594,0.0509,2.2346,0.449,2.6213,0.639          c0.3452,0.1691,3.1891-0.4961,5.2689-0.3741c0.5676,0.0329,0.8336-0.0875,1.2968,0.3039          c0.506,0.4273,0.7684,1.3142,0.2143,2.1014c-1.0073,1.43-7.0858,0.3694-7.4185,0.21          c-0.421-0.2013-4.3561-1.546-4.5841-1.7914C71.8197,48.3106,71.1227,47.3864,72.0342,46.79z" fill="#6B9EF9"/></g><g><g><g><path d="M82.3396,76.7282l-1.5956-0.5395c-1.097,0.9378-1.6554,0.639-3.0517,0.6982            c-1.3763,0.0799-0.9375,0.8184-0.9375,0.8184c0.4065,0.4744,1.3284,0.7459,1.878,0.8716            c0.259,0.0592,0.5216,0.0703,0.7873,0.0684c1.344-0.0085,2.6756,0.5943,3.0792,0.1165            C82.9381,78.2436,82.3396,76.7282,82.3396,76.7282z" fill="#2A2A5E"/><g><path d="M83.6018,62.1105c0.7456-2.4097-0.5709-3.9653-0.7919-4.3588l-3.9366,1.2587             c0,0-0.365,3.6429,0.9593,8.4587c0.172,0.6254,0.2689,1.2714,0.3147,1.9308c0.1336,1.9232,0.385,5.8068,0.3137,6.7666             c0.3692,0.694,1.0729,0.7876,1.9339,0.5939c0,0,0.878-4.6586,0.4471-7.7839c-0.1368-0.9923-0.214-1.9772-0.1615-2.9529             C82.7433,64.8531,83.2146,63.3622,83.6018,62.1105z" fill="#3A3A77"/></g><g><path d="M79.8302,78.4269l-1.5956-0.5395c-1.097,0.9378-1.6554,0.639-3.0517,0.6982             c-1.3763,0.0799-0.9375,0.8184-0.9375,0.8184c0.4065,0.4744,1.3285,0.7459,1.878,0.8716             c0.259,0.0592,0.5216,0.0703,0.7873,0.0684c1.344-0.0085,2.6756,0.5943,3.0792,0.1165             C80.4286,79.9424,79.8302,78.4269,79.8302,78.4269z" fill="#2A2A5E"/><path d="M80.9352,63.8351c0.9185-2.2967,0.5667-5.0065,0.3485-5.4029l-4.7588,1.4064             c0,0-0.3223,4.3238,0.948,9.2277c0.1649,0.6366,0.254,1.2945,0.2912,1.9661c0.1086,1.9592,0.3095,5.9167,0.2244,6.8945             c0.3634,0.7074,1.0725,0.8033,1.9444,0.6058c0,0,0.9274-4.6382,0.5698-7.8198             c-0.1241-1.1044-0.1962-2.2001-0.1052-3.2807C80.5033,66.1778,80.4437,65.0641,80.9352,63.8351z" fill="#4C4A8B"/></g></g></g><g><g><g><g><g><g><g><g><path d="M78.1465,42.9167c0,0,3.7527,1.113,3.7655,1.3267                  c-0.003,0.0768,0.1491,3.9523,0.0803,4.8313c-0.101,1.4327-3.8692,0.7274-3.3291-0.2358                  c0.3488-0.6327,0.7436-1.0768,0.3931-1.427c-0.229-0.2288-0.3734-0.0318-0.6464-0.2452                  C77.1237,46.1418,78.1465,42.9167,78.1465,42.9167z" fill="#ECB4BF"/></g><path d="M77.5316,49.6595c0.4185-0.3159,0.8558-0.6819,1.2091-1.0948                 c0.271-0.3166,0.6658-0.4926,1.0808-0.4545c0.8327,0.0755,2.0017,0.0592,2.1783-0.7496                 c0,0,2.5806-0.0518,2.1401,2.5006c-0.162,0.9386-0.3012,1.8772-0.3095,2.8299                 c-0.0181,2.0704-0.0659,5.3619-0.1909,6.7017c0,0-4.2103,4.6877-7.1511,2.0024c0,0-0.0199-7.3783-0.2591-8.4657                 C76.0205,51.9803,75.9773,50.8322,77.5316,49.6595z" fill="#3887E5"/></g></g></g></g></g></g></g></g><path d="M82.3278,42.5077c-1.0679-1.2454-4.5549-0.8387-4.6046,0.3889         c-0.0286,0.7062,0.4929,1.1043,0.8509,1.3913c0.1247,0.1,0.1971,0.2501,0.2013,0.4098c0.0111,0.4249-0.028,0.782-0.028,0.782         l0.2395,0.2792c0.0632-0.4658,0.1329-0.7153,0.2053-0.8703c0.0266-0.0574,0.099-0.0705,0.1449-0.0275         c0.2089,0.1942,0.3475,0.4588,0.3828,0.7475c0.0421,0.3435,0.0653,0.9269-0.1114,1.4521         c-0.1065,0.3167,0.1065,0.6411,0.4397,0.6655c0.6673,0.0491,1.2445-0.0676,1.9479-0.4245         c0.3554-0.1802,0.5914-0.5342,0.6434-0.9294c0.0574-0.4359,0.1282-0.9093,0.1282-0.9093         C83.2543,43.0766,82.3278,42.5077,82.3278,42.5077z" fill="#3A3A77"/></g></g></g></g><path d="M73.466,60.8656c-0.1029,0.1107-0.2189,0.2073-0.3602,0.2683c-0.3265,0.141-0.8195,0.3893-1.053,0.6879     c-0.3554,0.4661,0.0204,0.5483,0.2713,0.2362c0.2509-0.312,0.4168-0.2599,0.4168-0.2599     c0.2925,0.299-0.3674,0.9548-0.6489,1.1389c-0.2815,0.1837-0.1023,0.2641-0.1023,0.2641     c0.9278,0.5402,1.5503-0.6216,1.7987-1.2203c0.0864-0.208,0.2244-0.3882,0.4004-0.5275     C73.8911,61.3141,73.6533,61.1085,73.466,60.8656z" fill="#ECB4BF"/><path d="M77.866,56.861c0.2553-1.6786,0.5867-4.6508,0.5513-5.2288c0,0-0.0236-1.6013-1.5059-1.3172     c-1.1516,0.2213-1.1457,4.361-1.0648,5.9097c0.0234,0.4504-2.6013,4.7782-2.6013,4.7782s0.438,0.0959,0.7049,0.8114     l3.3645-3.7792C77.6087,57.705,77.7995,57.2981,77.866,56.861z" fill="#6B9EF9"/></g></g></g></svg>