<?xml version="1.0" encoding="utf-8"?>
<!-- Generator: Adobe Illustrator 23.0.2, SVG Export Plug-In . SVG Version: 6.00 Build 0)  -->
<svg version="1.1" id="图层_1" xmlns="http://www.w3.org/2000/svg" xmlns:xlink="http://www.w3.org/1999/xlink" x="0px" y="0px"
	 viewBox="0 0 138 204.93" style="enable-background:new 0 0 138 204.93;" xml:space="preserve">
<style type="text/css">
	.st0{fill:#F7A808;}
	.st1{fill:#01002D;}
	.st2{fill:#379AF4;}
	.st3{fill:#FF6D5A;}
	.st4{fill:#FFFFFF;}
	.st5{fill:#00B81A;}
</style>
<g>
	<g>
		<g>
			<g>
				<g>
					<g>
						<g>
							<g>
								<g>
									<path class="st0" d="M130.68,201.93L130.68,201.93c-4.87,2.47-10.82,0.53-13.3-4.34l-63-123.97l17.63-8.96l63,123.97
										C137.49,193.51,135.55,199.46,130.68,201.93z"/>
								</g>
							</g>
						</g>
					</g>
				</g>
			</g>
		</g>
		<g>
			<g>
				<g>
					<g>
						<g>
							<g>
								<g>
									<path class="st1" d="M126.21,204.93c-1.23,0-2.47-0.19-3.67-0.59c-3-0.98-5.44-3.06-6.86-5.88L51.81,72.79l21.05-10.69
										l63.87,125.68c2.95,5.8,0.63,12.92-5.18,15.87l0,0C129.86,204.5,128.04,204.93,126.21,204.93z M56.96,74.46l62.13,122.27
										c0.96,1.9,2.61,3.31,4.64,3.97c2.02,0.66,4.18,0.49,6.08-0.47c3.92-1.99,5.49-6.8,3.5-10.72L71.17,67.24L56.96,74.46z"/>
								</g>
							</g>
						</g>
					</g>
				</g>
			</g>
		</g>
	</g>
	<g>
		<g>
			<g>
				<g>
					<g>
						<g>
							<g>
								<g>
									<circle class="st2" cx="57.09" cy="57.12" r="55.18"/>
								</g>
							</g>
						</g>
					</g>
				</g>
			</g>
		</g>
		<g>
			<g>
				<g>
					<g>
						<g>
							<g>
								<g>
									<path class="st1" d="M57.18,114.21c-20.83,0-40.93-11.42-50.99-31.22C-8.07,54.92,3.16,20.49,31.22,6.22
										c13.6-6.91,29.07-8.11,43.57-3.38c14.5,4.73,26.29,14.82,33.2,28.42l0,0c6.91,13.59,8.11,29.07,3.38,43.57
										c-4.73,14.5-14.82,26.29-28.42,33.2C74.69,112.22,65.87,114.21,57.18,114.21z M57.03,3.83c-8.27,0-16.49,1.95-24.08,5.81
										C6.77,22.94-3.7,55.07,9.6,81.25c13.31,26.18,45.43,36.66,71.62,23.35c12.68-6.45,22.1-17.45,26.51-30.97
										c4.41-13.53,3.29-27.96-3.16-40.64l0,0C98.13,20.31,87.13,10.89,73.6,6.48C68.17,4.71,62.59,3.83,57.03,3.83z"/>
								</g>
							</g>
						</g>
					</g>
				</g>
			</g>
		</g>
	</g>
	<g>
		<g>
			<g>
				<g>
					<g>
						<g>
							<g>
								<g>
									<circle class="st3" cx="57.09" cy="57.12" r="39.02"/>
								</g>
							</g>
						</g>
					</g>
				</g>
			</g>
		</g>
		<g>
			<g>
				<g>
					<g>
						<g>
							<g>
								<g>
									<path class="st1" d="M57.13,98.08c-4.27,0-8.56-0.68-12.73-2.04C34,92.65,25.55,85.41,20.6,75.67
										c-10.22-20.12-2.17-44.81,17.95-55.04c20.12-10.23,44.81-2.17,55.04,17.95c10.22,20.12,2.17,44.81-17.95,55.04
										C69.8,96.58,63.49,98.08,57.13,98.08z M57.03,20.02c-5.65,0-11.38,1.29-16.75,4.02c-18.24,9.27-25.54,31.65-16.27,49.89
										c4.49,8.84,12.15,15.39,21.57,18.47c9.42,3.07,19.48,2.29,28.31-2.2c18.24-9.27,25.54-31.65,16.27-49.89
										C83.63,27.45,70.56,20.02,57.03,20.02z"/>
								</g>
							</g>
						</g>
					</g>
				</g>
			</g>
		</g>
	</g>
	<g>
		<g>
			<g>
				<g>
					<g>
						<g>
							<g>
								<g>
									<circle class="st4" cx="57.09" cy="57.12" r="22.01"/>
								</g>
							</g>
						</g>
					</g>
				</g>
			</g>
		</g>
		<g>
			<g>
				<g>
					<g>
						<g>
							<g>
								<g>
									<path class="st1" d="M57.11,81.06c-2.5,0-5-0.39-7.44-1.19c-6.08-1.98-11.02-6.21-13.91-11.91
										c-2.9-5.7-3.4-12.18-1.42-18.26c1.98-6.08,6.21-11.02,11.91-13.91c5.7-2.89,12.18-3.4,18.26-1.42
										c6.08,1.98,11.02,6.21,13.91,11.91l0,0c5.98,11.76,1.27,26.19-10.49,32.17C64.52,80.19,60.83,81.06,57.11,81.06z
										 M57.07,37.01c-3.12,0-6.22,0.74-9.08,2.19c-4.79,2.43-8.34,6.58-10,11.69c-1.66,5.1-1.24,10.55,1.19,15.33
										c2.43,4.79,6.58,8.34,11.69,10c5.1,1.67,10.55,1.24,15.33-1.19c9.88-5.02,13.83-17.14,8.81-27.02l0,0
										c-2.43-4.79-6.58-8.34-11.69-10C61.27,37.35,59.16,37.01,57.07,37.01z"/>
								</g>
							</g>
						</g>
					</g>
				</g>
			</g>
		</g>
	</g>
	<g>
		<g>
			<g>
				<g>
					<g>
						<g>
							<g>
								<g>
									<circle class="st5" cx="57.09" cy="57.12" r="9.89"/>
								</g>
							</g>
						</g>
					</g>
				</g>
			</g>
		</g>
		<g>
			<g>
				<g>
					<g>
						<g>
							<g>
								<g>
									<path class="st1" d="M57.1,68.93c-1.23,0-2.47-0.19-3.67-0.59c-3-0.98-5.44-3.06-6.86-5.88s-1.68-6.01-0.7-9.01
										c0.98-3,3.06-5.44,5.87-6.86c2.81-1.43,6.01-1.68,9.01-0.7c3,0.98,5.44,3.06,6.86,5.88c2.95,5.8,0.63,12.92-5.18,15.87
										C60.76,68.5,58.93,68.93,57.1,68.93z M57.08,49.14c-1.24,0-2.47,0.29-3.6,0.87c-1.9,0.96-3.31,2.61-3.97,4.64
										c-0.66,2.03-0.49,4.19,0.47,6.08c0.96,1.9,2.61,3.31,4.64,3.97c2.02,0.66,4.19,0.49,6.08-0.47
										c3.92-1.99,5.49-6.8,3.5-10.72c-0.96-1.9-2.61-3.31-4.64-3.97C58.75,49.28,57.91,49.14,57.08,49.14z"/>
								</g>
							</g>
						</g>
					</g>
				</g>
			</g>
		</g>
	</g>
</g>
</svg>
