<?xml version="1.0" encoding="utf-8"?>
<!-- Generator: Adobe Illustrator 22.0.0, SVG Export Plug-In . SVG Version: 6.00 Build 0)  -->
<svg version="1.1" id="图层_1" xmlns="http://www.w3.org/2000/svg" xmlns:xlink="http://www.w3.org/1999/xlink" x="0px" y="0px"
	 viewBox="0 0 750 1125" style="enable-background:new 0 0 750 1125;" xml:space="preserve">
<style type="text/css">
	.st0{fill:#D85B4C;stroke:#000000;stroke-width:2;stroke-linecap:round;stroke-linejoin:round;stroke-miterlimit:10;}
	.st1{fill:#F4CCDE;stroke:#000000;stroke-width:2;stroke-linecap:round;stroke-linejoin:round;stroke-miterlimit:10;}
	.st2{fill:#E20555;stroke:#000000;stroke-width:2;stroke-linecap:round;stroke-linejoin:round;stroke-miterlimit:10;}
	.st3{fill:#FFBBCB;stroke:#000000;stroke-width:2;stroke-linecap:round;stroke-linejoin:round;stroke-miterlimit:10;}
	.st4{clip-path:url(#SVGID_2_);fill:#050000;}
	.st5{fill:#FCF0DF;stroke:#000000;stroke-width:2;stroke-linecap:round;stroke-linejoin:round;stroke-miterlimit:10;}
	.st6{fill:none;stroke:#000000;stroke-width:2;stroke-linecap:round;stroke-linejoin:round;stroke-miterlimit:10;}
	.st7{fill:#F1C16C;stroke:#000000;stroke-width:2;stroke-linecap:round;stroke-linejoin:round;stroke-miterlimit:10;}
	.st8{fill:#050000;}
	.st9{fill:#567A97;stroke:#000000;stroke-width:2;stroke-linecap:round;stroke-linejoin:round;stroke-miterlimit:10;}
	.st10{fill:#630A1B;stroke:#000000;stroke-width:2;stroke-linecap:round;stroke-linejoin:round;stroke-miterlimit:10;}
	.st11{fill:#345E77;stroke:#000000;stroke-width:2;stroke-linecap:round;stroke-linejoin:round;stroke-miterlimit:10;}
	.st12{clip-path:url(#SVGID_4_);fill:#050000;}
	.st13{fill:#E81341;stroke:#000000;stroke-width:2;stroke-linecap:round;stroke-linejoin:round;stroke-miterlimit:10;}
	.st14{fill:#EDB0C1;stroke:#000000;stroke-width:2;stroke-linecap:round;stroke-linejoin:round;stroke-miterlimit:10;}
	.st15{fill:#D70F33;stroke:#000000;stroke-width:2;stroke-linecap:round;stroke-linejoin:round;stroke-miterlimit:10;}
	.st16{fill:none;stroke:#050000;stroke-width:2;stroke-linecap:round;stroke-linejoin:round;stroke-miterlimit:10;}
	.st17{fill:#E58C97;stroke:#000000;stroke-width:2;stroke-linecap:round;stroke-linejoin:round;stroke-miterlimit:10;}
</style>
<g>
	<path class="st0" d="M442,908.3v42.3c0,0-44.8,25-33.6,45.9c11.4,20.8,59.6-15.8,69-50.2l-2.2-61.4
		C475.2,884.9,442,873.6,442,908.3z"/>
	<path class="st0" d="M496.4,876.4c0,0,2.7,66.4,0,66.5s19.8,49.7,47.2,38.9c27.4-10.8-16.3-52-16.3-52l-2.9-75.1L496.4,876.4z"/>
	<path class="st1" d="M293.4,581.5c0,0-23.3,56.7-26.9,67.2c-3.5,10.5-0.8,18.6,6,11.8c0,0-4.2,7.4-2.2,11c2,3.7,8.6,2.1,10.6-4
		c0,0-7.7,14.4,0.2,14.2c7.9-0.2,10.6-10.2,10.6-10.2s-9.9,22.1,2.3,16.5c9.7-4.5,16.6-37.5,16.6-37.5s3.4,21.5,10.2,15.5
		c6.9-6,1.3-27.5-0.7-32.9c-2-5.5,10.2-34.1,10.2-34.1S320.8,587.3,293.4,581.5z"/>
	<path class="st2" d="M403.5,567.9c0,0-37.1,280.3-47,325.5c-0.3,1.5,0.5,2.9,1.8,3.6c22,10.5,195.2,78.2,356.6-296
		c1-2.4-1-4.8-3.7-4.4c-29.2,5.2-155.7,22.6-198.5-52C513,544.5,411.9,547.9,403.5,567.9z"/>
	<path class="st3" d="M597.1,236.9c0,0,23.8-66.9,27.4-79.3c3.5-12.4,0-21.6-7.6-13.4c0,0,4.5-8.7,2-12.9
		c-2.5-4.2-10.1-2.1-12.1,5.2c0,0,8.1-17.1-1-16.5c-9.1,0.5-11.6,12.4-11.6,12.4s10.2-26.2-3.5-19.1c-11.1,5.7-17,44.4-17,44.4
		s-5-24.7-12.6-17.6c-7.6,7.1,0,32,2.5,38.3c2.5,6.1-10.1,40-10.1,40S565.3,231.6,597.1,236.9z"/>
	<g>
		<g>
			<g>
				<defs>
					<path id="SVGID_1_" d="M597.1,241.8c0,0,23.8-66.9,27.4-79.3c3.5-12.4,0-21.6-7.6-13.4c0,0,4.5-8.7,2-12.9
						c-2.5-4.2-10.1-2.1-12.1,5.2c0,0,8.1-17.1-1-16.5c-9.1,0.5-11.6,12.4-11.6,12.4s10.2-26.2-3.5-19.1c-11.1,5.7-17,44.4-17,44.4
						s-5-24.7-12.6-17.6c-7.6,7.1,0,32,2.5,38.3c2.5,6.1-10.1,40-10.1,40S565.3,236.4,597.1,241.8z"/>
				</defs>
				<clipPath id="SVGID_2_">
					<use xlink:href="#SVGID_1_"  style="overflow:visible;"/>
				</clipPath>
				<path class="st4" d="M548,217.9c0,0,31,11.6,58.9,6.3l-4.9,11.1C601.9,235.3,556.4,233.2,548,217.9z"/>
			</g>
		</g>
	</g>
	<path class="st5" d="M416.8,379.2c0,0-56.1,11.5-65.1,39.6c-9.1,28.1-69.7,190.4-69.7,190.4s23.7,4.8,42.1,0
		c18.5-4.8,46.8-100.9,59.6-122.7c0,0,18.8,76.7,20,81.5c1.2,4.8,69.1,17.8,109.4-23.4c0,0-21.8-45.1-9.2-100.9
		c0,0,64.6-75.9,98.2-213.1c0,0-32.7-1.6-53.7-12.9c0,0-17.6,99.8-53.9,135.3c-24.7,24.2-43.1,22.6-43.1,22.6L416.8,379.2"/>
	<line class="st6" x1="588" y1="148.6" x2="594.4" y2="132.3"/>
	<line class="st6" x1="600.2" y1="152.1" x2="606.8" y2="136.5"/>
	<line class="st6" x1="610.3" y1="155.4" x2="616.9" y2="144.2"/>
	<path class="st6" d="M588,178.8c0,0,15.4,7.3,18.8-8.1"/>
	<path class="st6" d="M383.7,486.4c0,0-6.4-9.4-5.4-20.7c1-11.3,23.2-51.3,23.2-51.3"/>
	<path class="st6" d="M419.5,378.5c0,0,15.6,44.6,24.8,52.5c9.2,7.9,8.9-57.3,8.9-57.3"/>
	<ellipse class="st7" cx="446.7" cy="443.3" rx="12.3" ry="11.8"/>
	<path class="st6" d="M502.2,553.7c0,0,65.8,116.6,203.7,67.8"/>
	<path class="st6" d="M488.3,562.3c0,0,77.2,141.3,207.1,82"/>
	<path class="st6" d="M470.5,568.7"/>
	<path class="st6" d="M478.6,568.7c0,0,42,140.6,197,115.1"/>
	<path class="st6" d="M464.6,570.5c0,0,68.1,176.8,158.9,198.5"/>
	<path class="st6" d="M412.8,573.4c0,0-11.7,233.7-50.5,325.2"/>
	<path class="st6" d="M426.2,573.4c0,0,23.7,240.6-19.8,329.4"/>
	<path class="st6" d="M442,573.6c0,0,39.9,237.2,14.3,329.4"/>
	<path class="st6" d="M455.1,572.9c0,0,25,161.2,103.7,270.6"/>
	<path class="st6" d="M375.9,503.3"/>
	<polygon class="st8" points="375.9,501.7 378.2,474 383.7,486.4 	"/>
	<path class="st5" d="M544.7,234.2c0,0,24.8,21.2,53.5,10.2"/>
	<path class="st9" d="M508.6,532.9c0,0-25,33.6-107.2,25.7l2.2,14c0,0,63.1,14,111.1-23.4L508.6,532.9z"/>
	<ellipse class="st8" cx="412.8" cy="566.8" rx="3.9" ry="3.7"/>
	<ellipse class="st8" cx="432.1" cy="567.8" rx="3.9" ry="3.7"/>
	<ellipse class="st8" cx="451.2" cy="566.6" rx="3.9" ry="3.7"/>
	<ellipse class="st8" cx="471.7" cy="562.3" rx="3.9" ry="3.7"/>
	<ellipse class="st8" cx="490.1" cy="555" rx="3.9" ry="3.7"/>
	<ellipse class="st8" cx="505.9" cy="546.1" rx="3.9" ry="3.7"/>
	<path class="st8" d="M403.5,572.8c0,0,67.6,24.2,111.1-23.4C514.6,549.4,473.5,586.2,403.5,572.8z"/>
	<path class="st10" d="M300.2,968.9c0,0,3.4,47.5,5.5,53.9c2.2,6.5,114.1-8.7,118.7-27c4.5-18.2-69.3-5.3-69.3-5.3l-5.2-21.6H300.2z
		"/>
	<path class="st10" d="M189,987l1.3,25.5c0,0-76.3,14.4-66.6,33.8s123.6-1.3,123.8-9.1c0.2-7.8-1.3-71.9-1.3-71.9L189,987z"/>
	<path class="st11" d="M193.6,578.4c0,0-43.2,385.9-47.1,418.2S234.7,985,249,968.9c14.3-16.1,29.8-318.6,29.8-318.6
		s5.4,301.5,7.7,313.3c2.3,11.8,104.2,5.3,118.7-5.3c14.6-10.8-53.2-412.1-53.2-412.1L193.6,578.4z"/>
	<path class="st3" d="M464.5,205.4c0,0,26.5-69.8,30.4-82.7s0-22.6-8.4-14c0,0,5-9.2,2.2-13.4c-2.9-4.4-11.2-2.1-13.4,5.3
		c0,0,8.9-17.8-1.2-17.3c-10.1,0.5-12.9,12.9-12.9,12.9s11.4-27.3-3.9-19.9c-12.3,6-19,46.3-19,46.3s-5.5-25.8-13.9-18.2
		c-8.4,7.6,0,33.4,2.9,39.9S416,186,416,186S428.9,199.9,464.5,205.4z"/>
	<g>
		<g>
			<g>
				<defs>
					<path id="SVGID_3_" d="M464.5,208.7c0,0,26.5-69.8,30.4-82.7c3.9-12.9,0-22.6-8.4-14c0,0,5-9.2,2.2-13.4
						c-2.9-4.4-11.2-2.1-13.4,5.3c0,0,8.9-17.8-1.2-17.3c-10.1,0.5-12.9,12.9-12.9,12.9s11.4-27.3-3.9-19.9c-12.3,6-19,46.3-19,46.3
						s-5.5-25.8-13.9-18.2s0,33.4,2.9,39.9S416,189.3,416,189.3S428.9,203.2,464.5,208.7z"/>
				</defs>
				<clipPath id="SVGID_4_">
					<use xlink:href="#SVGID_3_"  style="overflow:visible;"/>
				</clipPath>
				<path class="st12" d="M415.6,183.6c0,0,35.7,16.5,53,13.6l-0.7,12.3l-52-20.2L415.6,183.6z"/>
			</g>
		</g>
	</g>
	<line class="st6" x1="452.4" y1="122.7" x2="461.3" y2="96.4"/>
	<line class="st6" x1="465.5" y1="126.3" x2="475.2" y2="100.8"/>
	<line class="st6" x1="477.6" y1="129.9" x2="486.5" y2="108.9"/>
	<path class="st13" d="M248.1,352c-0.8-1.3-76,13.4-86.1,28.3c-10.1,14.9-60.6,138.5-59.4,150c1.2,11.5,91.8-18.2,95.5-32.6
		c0,0-5,73.5-4.7,80.7c0.3,7.3,100.7,4,158.6-32.3c0,0-5-106.6-5.9-120.3c0,0,106.6-185.7,124.2-218.8c0,0-41.8-12.4-57.7-24.5
		c0,0-82.2,139.2-89,144s-33.1,18.6-37.1,20.2c0,0-2.3,14.5-20,16.1C249,364.5,248.1,352,248.1,352z"/>
	<path class="st6" d="M102.6,530.3c0,0,82.7-81.2,88.4-87.2c0,0,29.7-35.5,38.1-37.6c8.4-2.1,8.4,6.5,3.9,14.5
		c0,0,8.4-11.3,12.3-3.2c3.9,8.1-4.5,14-4.5,14s9.6-10.2,11.7-1.6c2.2,8.6-7.9,12.4-7.9,12.4s10.4-9.4,13.6-1.8
		c2.5,6-7.7,15-12.8,21c-5,6-80.7,92-93.6,118.5C139,605.6,71.9,582.5,102.6,530.3z"/>
	<path class="st7" d="M232.2,354.5c0,0,13.1,41.7,22.7,50.5c0,0,5.5,2.4,3.9-42.5c0,0-10.2-3.2-10.6-10.5L232.2,354.5z"/>
	<path class="st7" d="M272.5,360.8c0,0,5.9,34.9,9.9,39.7c3.9,4.8,12.6-42.2,13.4-57.6l-9.1,3.6
		C286.6,346.7,283.7,357.9,272.5,360.8z"/>
	<path class="st6" d="M458.1,152.1c0,0,12.8,3.7,17.3-4.5"/>
	<path class="st3" d="M191.1,443.1c0,0-10.1-15.5-3.9-18.4c6.2-2.9,8.2,2.1,8.2,2.1S202.8,437.1,191.1,443.1z"/>
	<path class="st3" d="M102.6,530.3c0,0,82.7-81.2,88.4-87.2c0,0,29.7-35.5,38.1-37.6c8.4-2.1,8.4,6.5,3.9,14.5
		c0,0,8.4-11.3,12.3-3.2c3.9,8.1-4.5,14-4.5,14s9.6-10.2,11.7-1.6c2.2,8.6-7.9,12.4-7.9,12.4s10.4-9.4,13.6-1.8
		c2.5,6-7.7,15-12.8,21c-5,6-80.7,92-93.6,118.5C139,605.6,71.9,582.5,102.6,530.3z"/>
	<polygon class="st8" points="175,459.1 225.8,482.4 217.6,495.6 	"/>
	<path class="st14" d="M247.5,332.7l0.7,19.4c0,0,6.2,15.2,18.5,11c12.3-4.2,17.3-6.5,20-16.1l-4.9-18.9
		C281.7,327.8,255.9,312.2,247.5,332.7z"/>
	<path class="st3" d="M239.7,255.2c0,0-27.4,32.3-21.3,58.6c6.2,26.3,31.7,19.9,40.3,14.5c0,0,16.8,12.4,23-0.5
		c6.2-12.9-6.2-18.9-6.2-18.9s9.7-12.4,11.1-27.5S269.9,236.4,239.7,255.2z"/>
	<path d="M227.7,283.6L227.7,283.6c-1-0.6-1.2-1.8-0.5-2.7l3.4-4.7c0.7-1,1.8-1.1,2.9-0.5l0,0c1,0.6,1.2,1.8,0.5,2.7l-3.4,4.7
		C229.8,284.1,228.7,284.2,227.7,283.6z"/>
	<path d="M247,292.6L247,292.6c-1-0.6-1.2-1.8-0.5-2.7l3.4-4.7c0.7-1,1.8-1.1,2.9-0.5l0,0c1,0.6,1.2,1.8,0.5,2.7l-3.4,4.7
		C249.1,292.9,247.8,293.3,247,292.6z"/>
	<path class="st8" d="M240.2,211.1c0,0-19,18.7-6.7,38.1c12.3,19.5,47.2,24.5,46,53.8l-4,6.1c0,0,12.3,9.7,6.2,18.9
		c0,0,26.9,10.8,32.4-14c5.5-24.7-8.9-37.6-23-52.2c-13.9-14.5-23-32.8-26.9-48C260.4,198.6,240.2,211.1,240.2,211.1z"/>
	<path class="st6" d="M238.6,284.2c0,0-12.9,12.9-12.9,16.6c0,3.7,6.4,2.7,6.4,2.7"/>
	<path class="st6" d="M229.5,312.3c0,0,10.6,9.7,18-4.4"/>
	<line class="st6" x1="268.1" y1="326.5" x2="275.5" y2="319.6"/>
	<path class="st15" d="M164.7,450.4l52.9,45.2c0,0-59.6,110.3-89.8,101.2c-30.2-9-50.3-25.2-25.2-66.7L164.7,450.4z"/>
	<polygon class="st8" points="278.8,650.3 300.2,968.9 286.6,963.6 	"/>
	<path class="st16" d="M319,562.3c0,0,16.3,25,37.8,16"/>
	<ellipse class="st8" cx="265.2" cy="378.5" rx="4.5" ry="4.4"/>
	<ellipse class="st8" cx="266.4" cy="406.9" rx="4.5" ry="4.4"/>
	<ellipse class="st8" cx="268.8" cy="435.2" rx="4.5" ry="4.4"/>
	<ellipse class="st8" cx="270.8" cy="463.6" rx="4.5" ry="4.4"/>
	<ellipse class="st8" cx="272.1" cy="492" rx="4.5" ry="4.4"/>
	<ellipse class="st8" cx="273.8" cy="520.5" rx="4.5" ry="4.4"/>
	<ellipse class="st8" cx="275.5" cy="548.7" rx="4.5" ry="4.4"/>
	<line class="st16" x1="270.8" y1="362.4" x2="284.9" y2="572"/>
	<path class="st16" d="M190.7,606.7c0,0,32.4,2.3,35.1-25.5"/>
	<g id="图层_4_1_">
		<path class="st14" d="M415.6,352l3.9,26.5c0,0,22.3,6.5,33.7-8.7l-4.5-27C448.7,342.8,430.4,324.4,415.6,352z"/>
		<path class="st3" d="M405.6,291.5c-3.9-0.5-15.6,18.7-19,24.1s3.7,4.8,7,6.6c0,0-12.6,31.6,12.1,29.9
			c24.7-1.8,29.4-11.8,29.4-11.8s14.3,9.2,17.6-2.7c3.4-11.8-8.1-12.6-8.1-12.6s6.4-16.8,2.9-30.8
			C443.7,280,405.6,291.5,405.6,291.5z"/>
		<path class="st8" d="M403.2,292.6c-0.2-0.5,9.4-24.5,40.4-24.4c31,0.2,52.7,79,52.7,79s-19.5,57.6-35.1,73.8L445,345.4
			c0,0,4.9,0,8.2-9.2c3-8.1-8.7-11.3-8.7-11.3s-18.1-8.4-15.3-33.4C429.2,291.5,404.9,302.1,403.2,292.6z"/>
		<path class="st6" d="M400,309.6c0,0,0.8-7.1,7.4-5.8c6.5,1.3,5.4,5.8,5.4,5.8"/>
		<path class="st17" d="M400,326.5l15.6-4.4c0,0,5,11.3-4.2,14.7C402.2,340.3,400,326.5,400,326.5z"/>
		<line class="st6" x1="442" y1="336.9" x2="446.7" y2="331.9"/>
	</g>
</g>
</svg>
