<?xml version="1.0" encoding="utf-8"?>
<!-- Generator: Adobe Illustrator 22.1.0, SVG Export Plug-In . SVG Version: 6.00 Build 0)  -->
<svg version="1.1" id="图层_1" xmlns="http://www.w3.org/2000/svg" xmlns:xlink="http://www.w3.org/1999/xlink" x="0px" y="0px"
	 viewBox="0 0 1024 1024" style="enable-background:new 0 0 1024 1024;" xml:space="preserve">
<style type="text/css">
	.st0{fill:#87291F;}
	.st1{fill:#3D0301;}
	.st2{opacity:0.3;}
	.st3{fill:#B71008;}
	.st4{fill:#FC5644;}
	.st5{fill:#590600;}
	.st6{fill:#CC2615;}
	.st7{fill:#B84E3D;}
	.st8{fill:#9B684C;}
</style>
<g>
	<path class="st0" d="M854.8,686.7l73.2,17.5l32.6-0.1c0,0-35.3-14-83.3-21.5L854.8,686.7z"/>
	<g>
		<path class="st1" d="M147.5,535.5c-0.6,0-1.1-0.4-1.1-1l0-49.2c0-0.5,0.5-1,1.1-1s1.1,0.4,1.1,1l0,49.2
			C148.6,535,148.1,535.5,147.5,535.5z"/>
	</g>
	<g>
		<path class="st1" d="M135.7,534.9c-0.6,0-1.1-0.4-1.1-0.9l0-37.7c0-0.5,0.5-0.9,1.1-0.9s1.1,0.4,1.1,0.9l0,37.7
			C136.9,534.5,136.4,534.9,135.7,534.9z"/>
	</g>
	<g>
		<path class="st1" d="M120.9,532.7c-0.6,0-1.1-0.4-1.1-0.8l0-22.3c0-0.4,0.5-0.8,1.1-0.8s1.1,0.4,1.1,0.8l0,22.3
			C122,532.3,121.5,532.7,120.9,532.7z"/>
	</g>
	<g>
		<path class="st1" d="M107.3,530.8c-0.6,0-1.1-0.2-1.1-0.5l0-9c0-0.3,0.5-0.5,1.1-0.5s1.1,0.2,1.1,0.5l0,9
			C108.4,530.5,107.9,530.8,107.3,530.8z"/>
	</g>
	<g>
		<path class="st1" d="M128.8,533.8c-0.6,0-1.1-0.5-1.1-1.1l0-17.9c0-0.6,0.5-1.1,1.1-1.1s1.1,0.5,1.1,1.1l0,17.9
			C130,533.3,129.5,533.8,128.8,533.8z"/>
	</g>
	<g>
		<path class="st1" d="M140.8,535.7c-0.6,0-1.1-0.5-1.1-1.1l0-27.1c0-0.6,0.5-1.1,1.1-1.1s1.1,0.5,1.1,1.1l0,27.1
			C142,535.2,141.4,535.7,140.8,535.7z"/>
	</g>
	<g>
		<path class="st1" d="M841.9,662.5L841.9,662.5c-0.6,0-1.1-0.5-1.1-1.1l0-120c0-0.6,0.5-1.1,1.1-1.1l0,0c0.6,0,1.1,0.5,1.1,1.1
			l0,120C843.1,662,842.6,662.5,841.9,662.5z"/>
	</g>
	<g>
		<path class="st1" d="M826.4,661.3C826.4,661.3,826.4,661.3,826.4,661.3c-0.6,0-1.1-0.5-1.1-1.1l0.4-97.8c0-0.6,0.5-1.1,1.1-1.1
			c0,0,0,0,0,0c0.6,0,1.1,0.5,1.1,1.1l-0.4,97.8C827.5,660.8,827,661.3,826.4,661.3z"/>
	</g>
	<g>
		<path class="st1" d="M810,657.6c-0.6,0-1.1-0.5-1.1-1.1l0-74c0-0.6,0.5-1.1,1.1-1.1s1.1,0.5,1.1,1.1l0,74
			C811.2,657.1,810.7,657.6,810,657.6z"/>
	</g>
	<g>
		<path class="st1" d="M793.9,655.1c-0.6,0-1.1-0.5-1.1-1.1l0-58c0-0.6,0.5-1.1,1.1-1.1s1.1,0.5,1.1,1.1l0,58
			C795,654.6,794.5,655.1,793.9,655.1z"/>
	</g>
	<g>
		<path class="st1" d="M776.4,651.8c-0.6,0-1.1-0.5-1.1-1.1l0-43.3c0-0.6,0.5-1.1,1.1-1.1s1.1,0.5,1.1,1.1l0,43.3
			C777.5,651.3,777,651.8,776.4,651.8z"/>
	</g>
	<g>
		<path class="st1" d="M759.2,648.5C759.2,648.5,759.1,648.5,759.2,648.5c-0.7-0.1-1.2-0.6-1.1-1.2l2.6-31.3c0.1-0.6,0.6-1,1.2-1
			c0.6,0,1.1,0.6,1,1.2l-2.6,31.3C760.3,648.1,759.8,648.5,759.2,648.5z"/>
	</g>
	<g>
		<path class="st1" d="M247.6,550c-0.6,0-1.1-0.5-1.1-1.1l0-189.4c0-0.6,0.5-1.1,1.1-1.1s1.1,0.5,1.1,1.1l0,189.4
			C248.7,549.5,248.2,550,247.6,550z"/>
	</g>
	<g>
		<path class="st1" d="M224.1,552.5c-0.6,0-1.1-0.5-1.1-1.1l0-158.4c0-0.6,0.5-1.1,1.1-1.1s1.1,0.5,1.1,1.1l0,158.4
			C225.2,552,224.7,552.5,224.1,552.5z"/>
	</g>
	<g>
		<path class="st1" d="M268.2,557.4C268.2,557.4,268.2,557.4,268.2,557.4c-0.6,0-1.1-0.5-1.1-1.1l3-233.9c0-0.6,0.5-1.1,1.1-1.1
			c0,0,0,0,0,0c0.6,0,1.1,0.5,1.1,1.2l-3,233.9C269.3,556.9,268.8,557.4,268.2,557.4z"/>
	</g>
	<g>
		<path class="st1" d="M199,545.3c-0.6,0-1.1-0.5-1.1-1.1l0-115.9c0-0.6,0.5-1.1,1.1-1.1s1.1,0.5,1.1,1.1l0,115.9
			C200.2,544.8,199.7,545.3,199,545.3z"/>
	</g>
	<g>
		<path class="st1" d="M180.9,543.8c-0.6,0-1.1-0.5-1.1-1.1l0-93c0-0.6,0.5-1.1,1.1-1.1s1.1,0.5,1.1,1.1l0,93
			C182,543.3,181.5,543.8,180.9,543.8z"/>
	</g>
	<g>
		<path class="st1" d="M164.1,539.1c-0.6,0-1.1-0.5-1.1-1l0-70.1c0-0.6,0.5-1,1.1-1s1.1,0.5,1.1,1l0,70.1
			C165.2,538.6,164.7,539.1,164.1,539.1z"/>
	</g>
	<g>
		<g>
			<path class="st1" d="M387.8,579c-0.6,0-1.1-0.5-1.1-1.1l0-95.9c0-0.6,0.5-1.1,1.1-1.1s1.1,0.5,1.1,1.1l0,95.9
				C388.9,578.5,388.4,579,387.8,579z"/>
		</g>
		<g>
			<path class="st1" d="M410.7,583.2C410.7,583.2,410.7,583.2,410.7,583.2c-0.7,0-1.1-0.5-1.1-1.2l1.7-75.4c0-0.6,0.6-1.1,1.2-1.1
				c0.6,0,1.1,0.5,1.1,1.2l-1.7,75.4C411.8,582.7,411.3,583.2,410.7,583.2z"/>
		</g>
		<g>
			<path class="st1" d="M435.1,587.7c-0.6,0-1.1-0.5-1.1-1.1l0-59.9c0-0.6,0.5-1.1,1.1-1.1c0.6,0,1.1,0.5,1.1,1.1l0,59.9
				C436.2,587.2,435.7,587.7,435.1,587.7z"/>
		</g>
		<g>
			<path class="st1" d="M456.2,591.6C456.2,591.6,456.2,591.6,456.2,591.6c-0.7,0-1.2-0.5-1.1-1.2l1.5-46.2c0-0.6,0.6-1.1,1.2-1.1
				c0.6,0,1.1,0.5,1.1,1.2l-1.5,46.2C457.3,591.1,456.8,591.6,456.2,591.6z"/>
		</g>
		<g>
			<path class="st1" d="M476.2,595.3c-0.6,0-1.1-0.5-1.1-1.1l0-37.1c0-0.6,0.5-1.1,1.1-1.1c0.6,0,1.1,0.5,1.1,1.1l0,37.1
				C477.4,594.8,476.8,595.3,476.2,595.3z"/>
		</g>
		<g>
			<path class="st1" d="M498.9,599c-0.6,0-1.1-0.5-1.1-1.1l0-26.8c0-0.6,0.5-1.1,1.1-1.1c0.6,0,1.1,0.5,1.1,1.1l0,26.8
				C500,598.4,499.5,599,498.9,599z"/>
		</g>
		<g>
			<path class="st1" d="M517.3,602.9c-0.6,0-1.1-0.5-1.1-1.1l0-20.6c0-0.6,0.5-1.1,1.1-1.1c0.6,0,1.1,0.5,1.1,1.1l0,20.6
				C518.5,602.4,517.9,602.9,517.3,602.9z"/>
		</g>
		<g>
			<path class="st1" d="M537.3,608c-0.6,0-1.1-0.5-1.1-1.1l0-16c0-0.6,0.5-1.1,1.1-1.1c0.6,0,1.1,0.5,1.1,1.1l0,16
				C538.4,607.5,537.9,608,537.3,608z"/>
		</g>
		<g>
			<path class="st1" d="M557.3,610.4c-0.6,0-1.1-0.5-1.1-1.1l0-9.8c0-0.6,0.5-1.1,1.1-1.1s1.1,0.5,1.1,1.1l0,9.8
				C558.5,609.9,558,610.4,557.3,610.4z"/>
		</g>
		<g>
			<path class="st1" d="M579.3,614.5c-0.6,0-1.1-0.5-1.1-1.1v-5.8c0-0.6,0.5-1.1,1.1-1.1s1.1,0.5,1.1,1.1v5.8
				C580.4,614,579.9,614.5,579.3,614.5z"/>
		</g>
	</g>
	<g>
		<path class="st1" d="M313,565.4C313,565.4,313,565.4,313,565.4c-0.6,0-1.1-0.5-1.1-1.1l1.7-183.1c0-0.6,0.5-1.1,1.1-1.1
			c0,0,0,0,0,0c0.6,0,1.1,0.5,1.1,1.1l-1.7,183.1C314.1,564.9,313.6,565.4,313,565.4z"/>
	</g>
	<g>
		<path class="st1" d="M337.1,569.7c-0.6,0-1.1-0.5-1.1-1.1l0-139c0-0.6,0.5-1.1,1.1-1.1c0.6,0,1.1,0.5,1.1,1.1l0,139
			C338.2,569.2,337.7,569.7,337.1,569.7z"/>
	</g>
	<g class="st2">
		<polygon class="st3" points="339.4,349.5 339.4,363.7 321.1,354.2 		"/>
	</g>
	<g class="st2">
		<polygon class="st3" points="341.1,292 341.1,306.2 322.8,296.7 		"/>
	</g>
	<g>
		<polygon class="st4" points="855.8,653.6 892.8,644.2 892.8,653.9 855.8,662.2 		"/>
	</g>
	<g>
		<polygon class="st3" points="855.8,662.2 892.8,653.9 892.8,658.1 860,663.4 		"/>
	</g>
	<g class="st2">
		<polygon class="st3" points="892.8,644.2 892.8,653.9 880.1,647.4 		"/>
	</g>
	<g>
		<polygon class="st4" points="842.8,717.9 847.3,522.5 854,521.8 851.5,720.7 		"/>
	</g>
	<g>
		<g>
			<path class="st5" d="M933.7,627.4c-0.4,0-0.8-0.1-1.2-0.4c-51.8-33.2-77.6-90-77.8-90.5c-0.5-1.1,0-2.5,1.1-3
				c1.2-0.5,2.5,0,3,1.1c0.2,0.6,25.5,56.1,76.1,88.6c1.1,0.7,1.4,2.1,0.7,3.1C935.2,627,934.5,627.4,933.7,627.4z"/>
		</g>
		<g>
			<path class="st5" d="M959.3,640.5c-0.5,0-0.9-0.1-1.3-0.4c-69.2-48.7-59.9-118.3-59.8-119c0.2-1.2,1.3-2.1,2.6-1.9
				c1.2,0.2,2.1,1.3,1.9,2.6c-0.1,0.7-8.9,67.6,57.9,114.6c1,0.7,1.3,2.1,0.5,3.2C960.8,640.2,960.1,640.5,959.3,640.5z"/>
		</g>
		<g>
			<polygon class="st6" points="896.4,735.7 894.1,507.1 902.8,519.7 908.5,733.5 			"/>
		</g>
		<g>
			<polygon class="st4" points="889.5,507.5 889.5,735.3 896.4,735.7 894.1,507.1 			"/>
		</g>
	</g>
	<g>
		<polygon class="st6" points="861.6,528 861.6,717.1 851.5,720.7 854,521.8 		"/>
	</g>
	<g>
		<polygon class="st4" points="856.6,560.8 889.5,553.7 889.5,562.2 856.6,568.4 		"/>
	</g>
	<g>
		<polygon class="st3" points="856.6,568.4 889.5,562.2 889.5,566 860.3,569.7 		"/>
	</g>
	<g class="st2">
		<polygon class="st3" points="889.5,553.7 889.5,562.2 878.2,556.1 		"/>
	</g>
	<g>
		<polygon class="st4" points="856.6,597.5 889.5,589.8 889.5,598.4 856.6,605.2 		"/>
	</g>
	<g>
		<polygon class="st3" points="856.6,605.2 889.5,598.4 889.5,602.2 860.3,606.3 		"/>
	</g>
	<g class="st2">
		<polygon class="st3" points="889.5,589.8 889.5,598.4 878.2,592.4 		"/>
	</g>
	<g>
		<polygon class="st4" points="857.7,525.5 890.5,518.9 890.5,527.5 857.7,533.2 		"/>
	</g>
	<g>
		<polygon class="st3" points="857.7,533.2 890.5,527.5 890.5,531.3 861.4,534.4 		"/>
	</g>
	<g class="st2">
		<polygon class="st3" points="890.5,518.9 890.5,527.5 879.2,521.2 		"/>
	</g>
	<g>
		<polygon class="st4" points="263.4,695.8 271.8,302.9 282.3,299.9 278.6,702.3 		"/>
	</g>
	<g>
		<path class="st5" d="M699.9,634.5c-5.7,0-9.1-0.5-9.5-0.6c-70.3-7.1-135.4-27.7-193.3-61.3c-46.4-26.9-88.3-62-124.6-104.5
			c-61.8-72.3-86.2-141.7-86.5-142.4c-0.4-1.2,0.2-2.5,1.4-2.9c1.2-0.4,2.5,0.2,2.9,1.4c0.2,0.7,24.4,69.5,85.7,141.1
			c56.5,66,157,148.1,314.9,164.1c1,0.2,88.9,12.9,156.9-101.1c0.6-1.1,2-1.4,3.1-0.8c1.1,0.6,1.4,2,0.8,3.1
			c-36.3,60.9-79.5,85.3-107.7,95.6C724.9,633.1,709.2,634.5,699.9,634.5z"/>
	</g>
	<g>
		<polygon class="st6" points="294.5,309.3 294.5,699.8 278.6,702.3 282.3,299.9 		"/>
	</g>
	<g>
		<path class="st0" d="M93,560.3c0,0,678.1,82.3,796.4,125.5l-26.7,2.7c0,0-718.1-111.7-798.6-112.2L93,560.3z"/>
	</g>
	<g>
		<polygon class="st3" points="288.2,318 341.1,306.2 341.1,312.4 294.1,319.8 		"/>
	</g>
	<g>
		<polygon class="st4" points="286.5,363.1 339.4,349.5 339.4,363.7 286.5,375.5 		"/>
	</g>
	<g>
		<polygon class="st4" points="288.2,305.6 341.1,292 341.1,306.2 288.2,318 		"/>
	</g>
	<g>
		<polygon class="st3" points="286.5,375.5 339.4,363.7 339.4,370 292.4,377.4 		"/>
	</g>
	<g>
		<polygon class="st4" points="286.5,422.8 339.4,409.3 339.4,423.4 286.5,435.3 		"/>
	</g>
	<g>
		<polygon class="st3" points="286.5,435.3 339.4,423.4 339.4,429.7 292.4,437.1 		"/>
	</g>
	<g class="st2">
		<polygon class="st3" points="339.4,409.3 339.4,423.4 321.1,414 		"/>
	</g>
	<g>
		<polygon class="st4" points="286.5,488.5 339.4,474.9 339.4,489.1 286.5,500.9 		"/>
	</g>
	<g>
		<polygon class="st3" points="286.5,500.9 339.4,489.1 339.4,495.3 292.4,502.7 		"/>
	</g>
	<g class="st2">
		<polygon class="st3" points="339.4,474.9 339.4,489.1 321.1,479.6 		"/>
	</g>
	<g>
		<path class="st5" d="M77.8,543.6c-0.8,0-1.5-0.4-1.9-1.1c-0.7-1.1-0.2-1.5,0.9-2.2c111.9-71.1,196.2-225.7,196.9-227.1
			c0.6-1.1,2-1.5,3.1-1c1.1,0.6,1.5,2,1,3.1C277,316.8,191.9,471.5,79,543.3C78.6,543.5,78.2,543.6,77.8,543.6z"/>
	</g>
	<g>
		<path class="st1" d="M153.2,537.6c-0.6,0-1.1-0.5-1.1-1.1l0-37.2c0-0.6,0.5-1.1,1.1-1.1s1.1,0.5,1.1,1.1l0,37.2
			C154.3,537.1,153.8,537.6,153.2,537.6z"/>
	</g>
	<g>
		<path class="st1" d="M172.3,540.8c-0.6,0-1.1-0.5-1.1-1.1l0-53.7c0-0.6,0.5-1.1,1.1-1.1s1.1,0.5,1.1,1.1l0,53.7
			C173.5,540.3,173,540.8,172.3,540.8z"/>
	</g>
	<g>
		<path class="st1" d="M190.5,543.3c-0.6,0-1.1-0.5-1.1-1.1l0-69.9c0-0.6,0.5-1.1,1.1-1.1s1.1,0.5,1.1,1.1l0,69.9
			C191.6,542.8,191.1,543.3,190.5,543.3z"/>
	</g>
	<g>
		<path class="st1" d="M210.4,547.2c-0.6,0-1.1-0.5-1.1-1.1l0-90.1c0-0.6,0.5-1.1,1.1-1.1s1.1,0.5,1.1,1.1l0,90.1
			C211.5,546.7,211,547.2,210.4,547.2z"/>
	</g>
	<g>
		<path class="st1" d="M229.4,550.5c-0.6,0-1.1-0.5-1.1-1.1l0-110.4c0-0.6,0.5-1.1,1.1-1.1s1.1,0.5,1.1,1.1l0,110.4
			C230.6,550,230.1,550.5,229.4,550.5z"/>
	</g>
	<g>
		<path class="st1" d="M256.8,554.7c-0.6,0-1.1-0.5-1.1-1.1l0-141.7c0-0.6,0.5-1.1,1.1-1.1c0.6,0,1.1,0.5,1.1,1.1l0,141.7
			C257.9,554.2,257.4,554.7,256.8,554.7z"/>
	</g>
	<g>
		<path class="st1" d="M278.6,559.2c-0.6,0-1.1-0.5-1.1-1.1l0-171c0-0.6,0.5-1.1,1.1-1.1c0.6,0,1.1,0.5,1.1,1.1l0,171
			C279.7,558.7,279.2,559.2,278.6,559.2z"/>
	</g>
	<g>
		<path class="st1" d="M301.8,563.4c-0.6,0-1.1-0.5-1.1-1.1l0-205.7c0-0.6,0.5-1.1,1.1-1.1c0.6,0,1.1,0.5,1.1,1.1l0,205.7
			C303,562.9,302.4,563.4,301.8,563.4z"/>
	</g>
	<g>
		<path class="st1" d="M325.4,567.6c-0.6,0-1.1-0.5-1.1-1.1l0-247.6c0-0.6,0.5-1.1,1.1-1.1c0.6,0,1.1,0.5,1.1,1.1l0,247.6
			C326.5,567.1,326,567.6,325.4,567.6z"/>
	</g>
	<g>
		<path class="st1" d="M379.2,577.4c-0.6,0-1.1-0.5-1.1-1.1l-5-249.8c0-0.6,0.5-1.1,1.1-1.2c0.6,0,1.1,0.5,1.2,1.1l5,249.8
			C380.4,576.9,379.9,577.4,379.2,577.4C379.2,577.4,379.2,577.4,379.2,577.4z"/>
	</g>
	<g>
		<path class="st1" d="M397.5,580.7c-0.6,0-1.1-0.5-1.1-1.1l0-207.5c0-0.6,0.5-1.1,1.1-1.1c0.6,0,1.1,0.5,1.1,1.1l0,207.5
			C398.6,580.2,398.1,580.7,397.5,580.7z"/>
	</g>
	<g>
		<path class="st1" d="M424.6,585.7c-0.6,0-1.1-0.5-1.1-1.1l0-165.8c0-0.6,0.5-1.1,1.1-1.1c0.6,0,1.1,0.5,1.1,1.1l0,165.8
			C425.8,585.2,425.3,585.7,424.6,585.7z"/>
	</g>
	<g>
		<path class="st1" d="M446.1,589.7c-0.6,0-1.1-0.5-1.1-1.1l0-137c0-0.6,0.5-1.1,1.1-1.1c0.6,0,1.1,0.5,1.1,1.1l0,137
			C447.3,589.2,446.8,589.7,446.1,589.7z"/>
	</g>
	<g>
		<path class="st1" d="M466.5,593.5c-0.6,0-1.1-0.5-1.1-1.1l0-112.9c0-0.6,0.5-1.1,1.1-1.1c0.6,0,1.1,0.5,1.1,1.1l0,112.9
			C467.7,593,467.2,593.5,466.5,593.5z"/>
	</g>
	<g>
		<path class="st1" d="M485.7,597c-0.6,0-1.1-0.5-1.1-1.1l0-92.7c0-0.6,0.5-1.1,1.1-1.1c0.6,0,1.1,0.5,1.1,1.1l0,92.7
			C486.8,596.5,486.3,597,485.7,597z"/>
	</g>
	<g>
		<path class="st1" d="M508.7,600.7c-0.6,0-1.1-0.5-1.1-1.1l0-70.9c0-0.6,0.5-1.1,1.1-1.1c0.6,0,1.1,0.5,1.1,1.1l0,70.9
			C509.8,600.2,509.3,600.7,508.7,600.7z"/>
	</g>
	<g>
		<path class="st1" d="M525.7,604.5c-0.6,0-1.1-0.5-1.1-1.1l0-55c0-0.6,0.5-1.1,1.1-1.1s1.1,0.5,1.1,1.1l0,55
			C526.9,604,526.4,604.5,525.7,604.5z"/>
	</g>
	<g>
		<path class="st1" d="M547.1,608.5c-0.6,0-1.1-0.5-1.1-1.1l0-42.9c0-0.6,0.5-1.1,1.1-1.1s1.1,0.5,1.1,1.1l0,42.9
			C548.2,608,547.7,608.5,547.1,608.5z"/>
	</g>
	<g>
		<path class="st1" d="M567.7,612.3c-0.6,0-1.1-0.5-1.1-1.1l0-31c0-0.6,0.5-1.1,1.1-1.1s1.1,0.5,1.1,1.1l0,31
			C568.8,611.8,568.3,612.3,567.7,612.3z"/>
	</g>
	<g>
		<path class="st1" d="M590.4,616.6c-0.6,0-1.1-0.5-1.1-1.1l0-20.5c0-0.6,0.5-1.1,1.1-1.1c0.6,0,1.1,0.5,1.1,1.1l0,20.5
			C591.5,616.1,591,616.6,590.4,616.6z"/>
	</g>
	<g>
		<path class="st1" d="M615,620.3c-0.6,0-1.1-0.5-1.1-1.1v-11.1c0-0.6,0.5-1.1,1.1-1.1c0.6,0,1.1,0.5,1.1,1.1v11.1
			C616.1,619.8,615.6,620.3,615,620.3z"/>
	</g>
	<g>
		<path class="st1" d="M883.8,671.1C883.8,671.1,883.8,671.1,883.8,671.1c-0.6,0-1.1-0.5-1.1-1.1l0.2-146.5c0-0.6,0.5-1.1,1.1-1.1
			c0,0,0,0,0,0c0.6,0,1.1,0.5,1.1,1.1L885,669.9C885,670.6,884.5,671.1,883.8,671.1z"/>
	</g>
	<g>
		<path class="st1" d="M870.6,668.3c-0.6,0-1.1-0.5-1.1-1.1l0-124.8c0-0.6,0.5-1.1,1.1-1.1c0.6,0,1.1,0.5,1.1,1.1l0,124.8
			C871.7,667.8,871.2,668.3,870.6,668.3z"/>
	</g>
	<g>
		<path class="st1" d="M852.2,664.8c-0.6,0-1.1-0.5-1.1-1.1l-0.6-98.9c0-0.6,0.5-1.1,1.1-1.1c0,0,0,0,0,0c0.6,0,1.1,0.5,1.1,1.1
			l0.6,98.9C853.3,664.3,852.8,664.8,852.2,664.8C852.2,664.8,852.2,664.8,852.2,664.8z"/>
	</g>
	<g>
		<path class="st1" d="M834,662.8c-0.6,0-1.1-0.5-1.1-1.1l0-79.9c0-0.6,0.5-1.1,1.1-1.1c0.6,0,1.1,0.5,1.1,1.1l0,79.9
			C835.2,662.3,834.6,662.8,834,662.8z"/>
	</g>
	<g>
		<path class="st1" d="M915.8,678.3c-0.6,0-1.1-0.5-1.1-1.1l-2-90.2c0-0.6,0.5-1.1,1.1-1.2c0.7,0,1.1,0.5,1.2,1.1l2,90.2
			C917,677.8,916.5,678.3,915.8,678.3C915.9,678.3,915.8,678.3,915.8,678.3z"/>
	</g>
	<g>
		<path class="st1" d="M819.2,660c-0.6,0-1.1-0.5-1.1-1.1l0-65.3c0-0.6,0.5-1.1,1.1-1.1c0.6,0,1.1,0.5,1.1,1.1l0,65.3
			C820.4,659.5,819.9,660,819.2,660z"/>
	</g>
	<g>
		<path class="st1" d="M804.2,657.1c-0.6,0-1.1-0.5-1.1-1.1l0-52.3c0-0.6,0.5-1.1,1.1-1.1c0.6,0,1.1,0.5,1.1,1.1l0,52.3
			C805.3,656.6,804.8,657.1,804.2,657.1z"/>
	</g>
	<g>
		<path class="st1" d="M787.5,653.4c-0.6,0-1.1-0.5-1.1-1.1l0-38.4c0-0.6,0.5-1.1,1.1-1.1s1.1,0.5,1.1,1.1l0,38.4
			C788.6,652.9,788.1,653.4,787.5,653.4z"/>
	</g>
	<g>
		<path class="st1" d="M769.2,650.4C769.2,650.4,769.2,650.4,769.2,650.4c-0.7,0-1.2-0.6-1.1-1.2l1.5-29.5c0-0.6,0.6-1.1,1.2-1.1
			c0.6,0,1.1,0.6,1.1,1.2l-1.5,29.5C770.3,650,769.8,650.4,769.2,650.4z"/>
	</g>
	<g>
		<path class="st1" d="M752.4,647.2C752.4,647.2,752.4,647.2,752.4,647.2c-0.7,0-1.2-0.6-1.1-1.2l1-20.8c0-0.6,0.5-1.1,1.2-1.1
			c0.6,0,1.1,0.6,1.1,1.2l-1,20.8C753.5,646.7,753,647.2,752.4,647.2z"/>
	</g>
	<g>
		<path class="st1" d="M735.9,644.1c0,0-0.1,0-0.1,0c-0.6-0.1-1.1-0.6-1-1.2l1.4-14.3c0.1-0.6,0.6-1,1.2-1c0.6,0.1,1.1,0.6,1,1.2
			l-1.4,14.3C737,643.6,736.5,644.1,735.9,644.1z"/>
	</g>
	<g>
		<path class="st1" d="M718.6,640.8c-0.1,0-0.1,0-0.2,0c-0.6-0.1-1-0.7-1-1.3l1.2-8c0.1-0.6,0.7-1,1.3-1c0.6,0.1,1,0.7,1,1.3l-1.2,8
			C719.6,640.4,719.1,640.8,718.6,640.8z"/>
	</g>
	<g>
		<path class="st1" d="M932.2,679.3c-0.6,0-1.1-0.5-1.1-1.1l0-64.1c0-0.6,0.5-1.1,1.1-1.1s1.1,0.5,1.1,1.1l0,64.1
			C933.4,678.8,932.9,679.3,932.2,679.3z"/>
	</g>
	<g>
		<path class="st1" d="M951.5,683.3c-0.6,0-1.1-0.5-1.1-1.1l-1.7-51.1c0-0.6,0.5-1.2,1.1-1.2c0.7,0,1.2,0.5,1.2,1.1l1.7,51.1
			C952.7,682.7,952.2,683.3,951.5,683.3C951.5,683.3,951.5,683.3,951.5,683.3z"/>
	</g>
	<g>
		<path class="st7" d="M93,528.2l0,32.2c0,0,711.4,97.9,796.4,125.5l0-15.8C889.5,670,161.3,532.1,93,528.2z"/>
	</g>
	<g>
		<polygon class="st6" points="347.7,703.9 347,272.2 361.4,292.2 375.2,703.9 		"/>
	</g>
	<g>
		<polygon class="st4" points="339.4,272.4 339.5,695.9 347.7,703.9 347,272.2 		"/>
	</g>
	<g>
		<path class="st5" d="M103.2,531.4c-0.8,0-1.7-0.5-2-1.3c-0.6-1.1-0.1-2.5,1-3c1.7-0.8,169.8-84.4,239.1-245.8
			c0.5-1.2,1.8-1.7,3-1.2c1.2,0.5,1.7,1.8,1.2,3c-70.1,163-239.6,247.2-241.3,248.1C103.8,531.3,103.5,531.4,103.2,531.4z"/>
	</g>
	<polygon class="st7" points="906.9,672.7 960.2,686.6 960.6,704 907.3,688.4 	"/>
	<g>
		<g>
			<path class="st5" d="M708.6,633.4c-17.9,0-29.3-2.8-30.8-3.2c-104.2-17-185.9-107.8-236-181c-54.3-79.2-79.6-143.9-79.9-144.7
				l-0.4-10.5c0.3,0.8,30,74,84,152.7c49.7,72.5,130.4,162.3,233.1,179l0.2,0c0.3,0.1,31.5,8.2,73.2-2.5
				c38.1-9.8,91.2-35,137.1-112.6c0.6-1.1,2-1.4,3.1-0.8l0,0c1.1,0.6,1.5,2,0.8,3.1c-46.8,79-101.1,104.8-140.2,114.7
				C735.9,632.1,720.7,633.4,708.6,633.4z"/>
		</g>
	</g>
	<g>
		<polygon class="st8" points="93,528.2 93,560.3 64.2,576.3 64.2,548.7 		"/>
	</g>
</g>
</svg>
