<?xml version="1.0" encoding="utf-8"?>
<!-- Generator: Adobe Illustrator 22.0.0, SVG Export Plug-In . SVG Version: 6.00 Build 0)  -->
<svg version="1.1" id="图层_1" xmlns="http://www.w3.org/2000/svg" xmlns:xlink="http://www.w3.org/1999/xlink" x="0px" y="0px"
	 viewBox="0 0 297.6 297.6" style="enable-background:new 0 0 297.6 297.6;" xml:space="preserve">
<style type="text/css">
	.st0{fill:#DCE1E4;}
	.st1{fill:#E6EAEA;}
	.st2{fill:#7B787A;}
	.st3{fill:#FEFDFE;}
	.st4{fill:#FBEEE0;}
	.st5{fill:#553328;}
	.st6{fill:#AE4F32;}
	.st7{fill:#1E5142;}
	.st8{fill:#4E9236;}
	.st9{fill:#61A74E;}
	.st10{fill:#C7E1A8;}
	.st11{fill:#88B265;}
	.st12{fill:#74726E;}
	.st13{fill:#D4DAD4;}
	.st14{opacity:0.22;}
	.st15{fill:#9B9B9B;}
	.st16{fill:#ECC042;}
	.st17{fill:#FCF0D2;}
	.st18{fill:#4D7B3A;}
	.st19{fill:none;stroke:#FFFFFE;stroke-width:2;stroke-miterlimit:10;}
	.st20{fill:#F6F7F5;}
	.st21{fill:#F1B35F;}
	.st22{fill:#F0C35D;}
	.st23{fill:#FBE6BE;}
	.st24{fill:#30180F;}
	.st25{fill:#658F55;}
	.st26{fill:#6C995B;}
	.st27{fill:#AE5132;}
	.st28{fill:#F7F7F7;}
	.st29{fill:#7A492D;}
	.st30{opacity:0.33;fill:#F7F7F7;}
	.st31{fill:#FFFFFF;}
	.st32{fill:#E1B769;}
	.st33{fill:#D2A347;}
	.st34{fill:#EAEAEA;}
	.st35{fill:#559862;}
	.st36{fill:#447E4F;}
	.st37{opacity:0.11;fill:#323D44;}
	.st38{fill:#ECB129;}
	.st39{fill:#E38C22;}
	.st40{fill:#D67010;}
	.st41{fill:#E1A34E;}
	.st42{fill:#855676;}
	.st43{fill:#AE6995;}
	.st44{fill:#989786;}
	.st45{fill:#6A1217;}
	.st46{fill:#C32623;}
	.st47{fill:#D83633;}
	.st48{fill:#D49559;}
	.st49{fill:#B42328;}
	.st50{opacity:0.46;fill:#7E1C1E;}
	.st51{fill:#A88564;}
	.st52{fill:#8E5C27;}
	.st53{fill:#896443;}
	.st54{opacity:0.26;fill:#D8A69F;}
	.st55{fill:#E89E2A;}
	.st56{fill:#E3981A;}
	.st57{fill:#745123;}
	.st58{opacity:0.35;fill:#F2F2F2;}
	.st59{fill:#976D26;}
	.st60{opacity:0.4;fill:#D4C8AD;}
	.st61{fill:#F8EED2;}
	.st62{fill:#421D0B;}
	.st63{opacity:0.35;fill:#421D0B;}
	.st64{fill:#C94C32;}
	.st65{fill:#C95B48;}
	.st66{fill:#A09B68;}
	.st67{fill:#8F895C;}
	.st68{fill:#BA8A67;}
	.st69{fill:#E3D4B0;}
	.st70{fill:#F8E9DC;}
	.st71{fill:#BF7265;}
	.st72{fill:#8F4B43;}
	.st73{fill:#59662E;}
	.st74{fill:#878253;}
	.st75{fill:#F6B7B1;}
	.st76{fill:#D66962;}
	.st77{fill:#844F23;}
	.st78{fill:#5A3C26;}
	.st79{fill:#704520;}
	.st80{fill:#936534;}
	.st81{opacity:0.69;}
	.st82{opacity:0.13;}
	.st83{fill:#F2F2F2;}
</style>
<circle class="st0" cx="152.4" cy="156.9" r="105.6"/>
<g>
	<circle class="st1" cx="146.9" cy="146.7" r="103.9"/>
</g>
<circle class="st12" cx="146.9" cy="146.7" r="103.9"/>
<circle class="st3" cx="146.9" cy="146.7" r="90.6"/>
<circle class="st4" cx="146.9" cy="146.7" r="85.9"/>
<g>
	<circle class="st38" cx="174.7" cy="168" r="38.8"/>
	<circle class="st39" cx="174.7" cy="168" r="32.2"/>
	<g>
		<g>
			<path class="st40" d="M151.4,152.3c-2.2,3.2-3.8,7-4.5,11c-0.4,2.4,1.5,4.5,3.9,4.5h4.5c1.8,0,10.8,2.1,11.2,0.3
				c0.4-1.8,2.5-3.6,1.9-5.2c-0.6-1.7-6.4-6.6-7.7-7.9l-3.3-3.3C155.7,150,152.8,150.3,151.4,152.3z"/>
			<path class="st40" d="M190.5,145c-3.3-2.3-7.1-3.9-11.3-4.6c-2.4-0.4-4.5,1.5-4.5,3.9v4.6c0,1.9,0.3,9.3,1,9.7
				c1.6,0.9,3.6,1.1,5.1,2c1.6,0.9,5.7-5.1,7-6.4l3.2-3.2C192.8,149.2,192.6,146.4,190.5,145z"/>
			<path class="st40" d="M169.3,140.5c-4,0.8-7.7,2.4-10.9,4.7c-2,1.4-2.3,4.3-0.5,6l3.3,3.3c1.3,1.3,6.7,8.2,8.2,7.2
				c1.5-0.9,3.2-1.4,4.7-2.4c1-0.7-0.1-8.3-0.1-10.2v-4.7C174,141.9,171.8,140.1,169.3,140.5z"/>
			<path class="st40" d="M147,173.2c0.7,4,2.3,7.6,4.5,10.8c1.4,2,4.3,2.3,6,0.6l2.9-2.9c1.3-1.3,8.5-5.8,7.6-7.4
				c-0.9-1.6-0.1-3.5-1.7-4.3c-2.4-1.3-9.2-1.4-11.1-1.4h-4.3C148.4,168.5,146.5,170.8,147,173.2z"/>
			<path class="st40" d="M188.8,182.1l2.8,2.8c1.7,1.7,4.6,1.5,6-0.5c2.3-3.3,4-7.1,4.7-11.2c0.4-2.4-1.5-4.6-3.9-4.6h-4
				c-1.9,0-9-0.8-9.3,1c-0.4,2-2,3.5-2.2,5.5C182.7,176.1,187.5,180.8,188.8,182.1z"/>
			<path class="st40" d="M194.2,167.8h4.2c2.4,0,4.3-2.2,3.9-4.5c-0.7-4.2-2.4-8-4.7-11.3c-1.4-2-4.3-2.3-6-0.5l-3.1,3.1
				c-1.3,1.3-7.3,5.8-6.2,7.4c1.1,1.6,1.9,3.4,2.3,5.3C185,168.9,192.4,167.8,194.2,167.8z"/>
			<path class="st40" d="M160.7,182.3l-2.8,2.8c-1.7,1.7-1.5,4.6,0.5,6c3.2,2.2,6.9,3.8,10.9,4.6c2.4,0.5,4.7-1.4,4.7-3.9V188
				c0-1.8,1.4-9.7-0.4-10.1c-1.9-0.5-4.4-2.1-5.4-1.9C166.3,176.6,162.1,181,160.7,182.3z"/>
			<path class="st40" d="M179.3,195.8c4.1-0.7,7.9-2.3,11.2-4.5c2-1.4,2.3-4.3,0.6-6l-2.7-2.7c-1.3-1.3-5.7-7.4-7.3-6.4
				c-1.7,1.1-3,1.5-4.9,1.9c-1.8,0.4-1.3,8.2-1.3,10v3.8C174.7,194.4,176.9,196.2,179.3,195.8z"/>
		</g>
		
			<ellipse transform="matrix(0.2165 -0.9763 0.9763 0.2165 -6.1065 291.3105)" class="st41" cx="178.4" cy="149.5" rx="2.6" ry="0.8"/>
		
			<ellipse transform="matrix(0.3106 -0.9506 0.9506 0.3106 -17.615 275.6799)" class="st41" cx="181.2" cy="150" rx="2.6" ry="0.8"/>
		
			<ellipse transform="matrix(0.6276 -0.7786 0.7786 0.6276 -49.1643 199.4567)" class="st41" cx="183.9" cy="151.1" rx="2.6" ry="0.8"/>
		
			<ellipse transform="matrix(0.8436 -0.537 0.537 0.8436 -57.1269 113.0334)" class="st41" cx="165.5" cy="154.6" rx="0.8" ry="2.6"/>
		
			<ellipse transform="matrix(0.8919 -0.4522 0.4522 0.8919 -51.0376 92.4334)" class="st41" cx="167.8" cy="153" rx="0.8" ry="2.6"/>
		
			<ellipse transform="matrix(0.9943 -0.1065 0.1065 0.9943 -15.2012 19.0141)" class="st41" cx="170.5" cy="151.9" rx="0.8" ry="2.6"/>
	</g>
</g>
<g>
	<circle class="st55" cx="110.5" cy="160.9" r="34.6"/>
	<circle class="st56" cx="110.5" cy="160.9" r="34.6"/>
	<path class="st38" d="M100.9,162c3.5-15.7,17.1-26.5,32.5-27.1c-4.3-3.8-9.5-6.5-15.4-7.9c-18.7-4.1-37.2,7.6-41.3,26.3
		c-4.1,18.7,7.6,37.2,26.3,41.3c3,0.7,5.9,0.9,8.8,0.8C102.7,187.4,98.1,174.7,100.9,162z"/>
	
		<ellipse transform="matrix(0.1305 -0.9914 0.9914 0.1305 -55.2889 274.9697)" class="st57" cx="129.1" cy="169" rx="4.2" ry="3.2"/>
	<path class="st58" d="M91.5,174.8c-0.7-1.3-2.2-6.1-2.5-7.9c-0.5-2.7-4.9-2.4-5.8,0.2c-1.2,4,2.9,10.4,4.2,10.9
		c0.1,0,0.9,0.7,1,0.7C90.7,179.6,92.6,177,91.5,174.8z"/>
	<path class="st58" d="M91.8,141.6c0.4-0.5,1.9-1.9,2.5-2.4c0.9-0.7,0-2.3-1.1-2.2c-1.7,0.2-3.4,3-3.4,3.6c0,0-0.1,0.5-0.1,0.5
		C89.8,142.1,91.1,142.4,91.8,141.6z"/>
	<path class="st58" d="M99,135.8c1-0.4,4.9-1.5,6.3-1.9c2.1-0.5,2.6-2.5,0.7-2.7c-2.8-0.2-8.2,2.3-8.8,2.9c0,0-0.6,0.5-0.7,0.5
		C95.6,135.8,97.2,136.5,99,135.8z"/>
	
		<ellipse transform="matrix(0.1305 -0.9914 0.9914 0.1305 -55.1611 274.8843)" class="st59" cx="129.1" cy="168.9" rx="3.7" ry="2.8"/>
	
		<ellipse transform="matrix(0.1305 -0.9914 0.9914 0.1305 -53.5451 274.1014)" class="st58" cx="129.5" cy="167.6" rx="1.5" ry="1.1"/>
</g>
<g>
	<path class="st35" d="M135,130c0,0-17.9-42.4,20.9-61C176.1,104.7,147.1,124.1,135,130z"/>
	<path class="st35" d="M138.1,130.7c0,0,17.4-42.6,58-28.2C185,141.9,150.8,135.1,138.1,130.7z"/>
	<path class="st36" d="M156,69.3c-36.6,17.9-21.8,57.5-20.6,60.4L156,69.3z"/>
	<path class="st36" d="M195.7,102.6c-38.5-13.4-56.2,25-57.4,27.8L195.7,102.6z"/>
</g>
</svg>
