
<svg xmlns="http://www.w3.org/2000/svg" version="1.1" xmlns:xlink="http://www.w3.org/1999/xlink" preserveAspectRatio="none" x="0px" y="0px" width="1024px" height="1024px" viewBox="0 0 1024 1024">
<defs>
<g id="Layer0_0_MEMBER_0_MEMBER_0_MEMBER_0_FILL">
<path fill="#8FCC76" stroke="none" d="
M 384.4 80.05
L 380.8 77.65 369.9 88.05 377.45 76.15 374.15 71.4 370.95 80.7 372.15 69.25 368.85 62.65 369.25 73.35
Q 368.7 85.3 363.85 91.85 359.8 97.35 354.35 101.2
L 358.9 105.8 384.4 80.05 Z"/>
</g>

<g id="Layer0_0_MEMBER_0_MEMBER_1_MEMBER_0_FILL">
<path fill="#6FAF58" stroke="none" d="
M 395.6 94.25
L 385.2 94.75 390.5 90.1 389 88.5 375.65 95.15 387.75 85.05 385.2 80.65 380.55 84.85 385 80.45 384.4 80.05 358.9 105.8 363.2 110.1
Q 367.1 105.1 372.75 101.3 379.45 96.8 391.35 96.9 397.3 96.95 401.9 97.9
L 395.6 94.25 Z"/>
</g>

<g id="Layer0_0_MEMBER_1_MEMBER_0_MEMBER_0_FILL">
<path fill="#236E09" stroke="none" d="
M 382.2 82.3
L 381.9 82.6 382.2 82.65 382.2 82.3 Z"/>
</g>

<g id="Layer0_0_MEMBER_1_MEMBER_1_MEMBER_0_FILL">
<path fill="#236E09" stroke="none" d="
M 382.2 82.3
Q 382.6 78.6 384.8 75.55 381.2 74.7 378.5 72 376.4 69.8 375.4 67.15 372.15 66.45 369.65 64.3 368.3 68 369.05 71.85 369.85 75.8 372.7 78.7 376.5 82.5 381.9 82.6
L 382.2 82.3 Z"/>
</g>

<g id="Layer0_0_MEMBER_1_MEMBER_2_MEMBER_0_FILL">
<path fill="#2E7C11" stroke="none" d="
M 376.65 40.55
Q 372.05 41.1 368.75 44.4 364.85 48.35 364.85 53.95 364.85 59.55 368.75 63.5
L 369.65 64.3
Q 372.15 66.45 375.4 67.15 373.6 62.25 375.5 57.4 376.5 54.85 378.5 52.85
L 379.1 52.3
Q 379.6 47.5 382.95 44.05 384.2 42.9 385.1 42.35 381.2 40 376.65 40.55 Z"/>
</g>

<g id="Layer0_0_MEMBER_1_MEMBER_3_MEMBER_0_FILL">
<path fill="#379311" stroke="none" d="
M 404.25 47.15
Q 403.4 45.55 401.95 44.05 398.5 40.6 393.75 40.15 389.05 39.7 385.1 42.35 384.2 42.9 382.95 44.05 379.6 47.5 379.1 52.3 381.55 50.15 384.65 49.35 387.7 48.55 390.8 49.2 393.2 49.75 395.1 50.95 398.95 47.25 404.25 47.15 Z"/>
</g>

<g id="Layer0_0_MEMBER_1_MEMBER_4_MEMBER_0_FILL">
<path fill="#236E09" stroke="none" d="
M 388 75.95
Q 386.5 75.95 384.8 75.55 382.6 78.6 382.2 82.3
L 388.05 76.4 388 75.95 Z"/>
</g>

<g id="Layer0_0_MEMBER_1_MEMBER_5_MEMBER_0_FILL">
<path fill="#1A5103" stroke="none" d="
M 414.9 86.2
Q 411.8 87.1 408.65 86.55 407.8 90.4 405.05 93.15 402.95 95.3 400.3 96.25
L 401.1 97.15
Q 405.05 101.1 410.6 101.1 416.15 101.1 420.1 97.15 423.35 93.8 423.9 89.2 424.45 84.65 422.15 80.7 421.45 81.75 420.4 82.8 418.05 85.2 414.9 86.2 Z"/>
</g>

<g id="Layer0_0_MEMBER_1_MEMBER_6_MEMBER_0_FILL">
<path fill="#206307" stroke="none" d="
M 408.65 86.55
L 408.5 86.55
Q 405.95 88.15 402.95 88.5 400.05 88.85 397.2 87.9 394.25 87 391.9 84.65 390.15 82.9 389.15 80.65 388.3 78.7 388.05 76.4
L 382.2 82.3 382.2 82.65
Q 382 85.55 382.95 88.25 384 91.05 386.1 93.15 388.95 96.05 392.85 96.85 396.65 97.65 400.3 96.25 402.95 95.3 405.05 93.15 407.8 90.4 408.65 86.55 Z"/>
</g>

<g id="Layer0_0_MEMBER_1_MEMBER_7_MEMBER_0_FILL">
<path fill="#30890B" stroke="none" d="
M 390.8 49.2
Q 387.7 48.55 384.65 49.35 381.55 50.15 379.1 52.3
L 378.5 52.85
Q 376.5 54.85 375.5 57.4 373.6 62.25 375.4 67.15 376.4 69.8 378.5 72 381.2 74.7 384.8 75.55 386.5 75.95 388 75.95 387.95 74.8 388.1 73.3
L 388.25 72.25
Q 388.85 69.35 390.65 67 391 66.5 391.9 65.5 390.75 62.4 391.15 59.05 391.45 56.5 392.75 54.05 393.75 52.3 394.95 51.1
L 395.1 50.95
Q 393.2 49.75 390.8 49.2 Z"/>
</g>

<g id="Layer0_0_MEMBER_1_MEMBER_8_MEMBER_0_FILL">
<path fill="#247F03" stroke="none" d="
M 388.55 75.9
L 388 75.95 388.05 76.4 388.55 75.9 Z"/>
</g>

<g id="Layer0_0_MEMBER_1_MEMBER_9_MEMBER_0_FILL">
<path fill="#247F03" stroke="none" d="
M 394.6 69.8
L 394.25 70.15 394.85 70.1 394.6 69.8 Z"/>
</g>

<g id="Layer0_0_MEMBER_1_MEMBER_10_MEMBER_0_FILL">
<path fill="#247F03" stroke="none" d="
M 394.6 69.8
Q 393.5 68.65 392.65 67.15
L 391.9 65.5
Q 391 66.5 390.65 67 388.85 69.35 388.25 72.25
L 388.1 73.3
Q 387.95 74.8 388 75.95
L 388.55 75.9 394.6 69.8 Z"/>
</g>

<g id="Layer0_0_MEMBER_1_MEMBER_11_MEMBER_0_FILL">
<path fill="#1F6300" stroke="none" d="
M 424.3 71.95
Q 423.8 67.1 420.4 63.7 419.1 62.4 417.8 61.65 417.5 66.65 413.9 70.25 414.75 72.5 414.75 74.75 414.9 80.5 410.85 84.65 410.2 85.35 408.7 86.45
L 408.65 86.55
Q 411.8 87.1 414.9 86.2 418.05 85.2 420.4 82.8 421.45 81.75 422.15 80.7 424.75 76.7 424.3 71.95 Z"/>
</g>

<g id="Layer0_0_MEMBER_1_MEMBER_13_MEMBER_0_FILL">
<path fill="#217000" stroke="none" d="
M 414.75 74.75
Q 414.75 72.5 413.9 70.25 412.75 71.4 411 72.45 408.3 74 405.15 74.15 401.15 74.4 397.55 72.25
L 397.3 72.1
Q 396.25 71.45 395.5 70.7
L 394.95 70.25 394.85 70.1 394.25 70.15 388.05 76.4
Q 388.3 78.7 389.15 80.65 390.15 82.9 391.9 84.65 394.25 87 397.2 87.9 400.05 88.85 402.95 88.5 405.95 88.15 408.5 86.55
L 408.7 86.45
Q 410.2 85.35 410.85 84.65 414.9 80.5 414.75 74.75 Z"/>
</g>

<g id="Layer0_0_MEMBER_1_MEMBER_14_MEMBER_0_FILL">
<path fill="#2E8C07" stroke="none" d="
M 392.65 67.15
Q 393.5 68.65 394.6 69.8
L 413.5 50.75
Q 409.6 47.05 404.25 47.15 398.95 47.25 395.1 50.95
L 394.95 51.1
Q 393.75 52.3 392.75 54.05 391.45 56.5 391.15 59.05 390.75 62.4 391.9 65.5
L 392.65 67.15 Z"/>
</g>

<g id="Layer0_0_MEMBER_1_MEMBER_15_MEMBER_0_FILL">
<path fill="#2A7F03" stroke="none" d="
M 417.05 56.05
Q 416.05 53.25 413.9 51.1
L 413.5 50.75 394.6 69.8 394.85 70.1 394.95 70.25 395.5 70.7
Q 396.25 71.45 397.3 72.1
L 397.55 72.25
Q 401.15 74.4 405.15 74.15 408.3 74 411 72.45 412.75 71.4 413.9 70.25 417.5 66.65 417.8 61.65 418.05 58.75 417.05 56.05 Z"/>
</g>

<g id="Layer0_0_MEMBER_1_MEMBER_16_MEMBER_0_FILL">
<path fill="#2A7F03" stroke="none" d="
M 397.85 70.3
L 397.6 71.8 398.7 70.5 397.85 70.3 Z"/>
</g>
</defs>

<g transform="matrix( 10, 0, 0, 10, -3381.55,-238.9) ">
<use xlink:href="#Layer0_0_MEMBER_0_MEMBER_0_MEMBER_0_FILL"/>
</g>

<g transform="matrix( 10, 0, 0, 10, -3381.55,-238.9) ">
<use xlink:href="#Layer0_0_MEMBER_0_MEMBER_1_MEMBER_0_FILL"/>
</g>

<g transform="matrix( 10, 0, 0, 10, -3381.55,-238.9) ">
<use xlink:href="#Layer0_0_MEMBER_1_MEMBER_0_MEMBER_0_FILL"/>
</g>

<g transform="matrix( 10, 0, 0, 10, -3381.55,-238.9) ">
<use xlink:href="#Layer0_0_MEMBER_1_MEMBER_1_MEMBER_0_FILL"/>
</g>

<g transform="matrix( 10, 0, 0, 10, -3381.55,-238.9) ">
<use xlink:href="#Layer0_0_MEMBER_1_MEMBER_2_MEMBER_0_FILL"/>
</g>

<g transform="matrix( 10, 0, 0, 10, -3381.55,-238.9) ">
<use xlink:href="#Layer0_0_MEMBER_1_MEMBER_3_MEMBER_0_FILL"/>
</g>

<g transform="matrix( 10, 0, 0, 10, -3381.55,-238.9) ">
<use xlink:href="#Layer0_0_MEMBER_1_MEMBER_4_MEMBER_0_FILL"/>
</g>

<g transform="matrix( 10, 0, 0, 10, -3381.55,-238.9) ">
<use xlink:href="#Layer0_0_MEMBER_1_MEMBER_5_MEMBER_0_FILL"/>
</g>

<g transform="matrix( 10, 0, 0, 10, -3381.55,-238.9) ">
<use xlink:href="#Layer0_0_MEMBER_1_MEMBER_6_MEMBER_0_FILL"/>
</g>

<g transform="matrix( 10, 0, 0, 10, -3381.55,-238.9) ">
<use xlink:href="#Layer0_0_MEMBER_1_MEMBER_7_MEMBER_0_FILL"/>
</g>

<g transform="matrix( 10, 0, 0, 10, -3381.55,-238.9) ">
<use xlink:href="#Layer0_0_MEMBER_1_MEMBER_8_MEMBER_0_FILL"/>
</g>

<g transform="matrix( 10, 0, 0, 10, -3381.55,-238.9) ">
<use xlink:href="#Layer0_0_MEMBER_1_MEMBER_9_MEMBER_0_FILL"/>
</g>

<g transform="matrix( 10, 0, 0, 10, -3381.55,-238.9) ">
<use xlink:href="#Layer0_0_MEMBER_1_MEMBER_10_MEMBER_0_FILL"/>
</g>

<g transform="matrix( 10, 0, 0, 10, -3381.55,-238.9) ">
<use xlink:href="#Layer0_0_MEMBER_1_MEMBER_11_MEMBER_0_FILL"/>
</g>

<g transform="matrix( 10, 0, 0, 10, -3381.55,-238.9) ">
<use xlink:href="#Layer0_0_MEMBER_1_MEMBER_13_MEMBER_0_FILL"/>
</g>

<g transform="matrix( 10, 0, 0, 10, -3381.55,-238.9) ">
<use xlink:href="#Layer0_0_MEMBER_1_MEMBER_14_MEMBER_0_FILL"/>
</g>

<g transform="matrix( 10, 0, 0, 10, -3381.55,-238.9) ">
<use xlink:href="#Layer0_0_MEMBER_1_MEMBER_15_MEMBER_0_FILL"/>
</g>

<g transform="matrix( 10, 0, 0, 10, -3381.55,-238.9) ">
<use xlink:href="#Layer0_0_MEMBER_1_MEMBER_16_MEMBER_0_FILL"/>
</g>
</svg>
