
<svg xmlns="http://www.w3.org/2000/svg" version="1.1" xmlns:xlink="http://www.w3.org/1999/xlink" preserveAspectRatio="none" x="0px" y="0px" width="1024px" height="1024px" viewBox="0 0 1024 1024">
<defs>
<linearGradient id="Gradient_1" gradientUnits="userSpaceOnUse" x1="45.900000000000006" y1="214.5625" x2="72.5" y2="145.83749999999998" spreadMethod="pad">
<stop  offset="1.5686274509803921%" stop-color="#A0A6BF"/>

<stop  offset="38.431372549019606%" stop-color="#A0A6BF"/>

<stop  offset="38.431372549019606%" stop-color="#ADB2C8"/>

<stop  offset="39.6078431372549%" stop-color="#C6C9D9"/>

<stop  offset="40.3921568627451%" stop-color="#D9DAE6"/>

<stop  offset="41.1764705882353%" stop-color="#E3E4ED"/>

<stop  offset="42.35294117647059%" stop-color="#E7E7F0"/>
</linearGradient>

<linearGradient id="Gradient_2" gradientUnits="userSpaceOnUse" x1="39.074999999999996" y1="216.45" x2="127.92500000000001" y2="216.45" spreadMethod="pad">
<stop  offset="1.5686274509803921%" stop-color="#A0A6BF"/>

<stop  offset="38.431372549019606%" stop-color="#A0A6BF"/>

<stop  offset="38.431372549019606%" stop-color="#A4AAC1"/>

<stop  offset="40%" stop-color="#B6BBCE"/>

<stop  offset="41.568627450980394%" stop-color="#C1C5D5"/>

<stop  offset="43.13725490196079%" stop-color="#C4C8D7"/>

<stop  offset="93.72549019607843%" stop-color="#C4C8D7"/>

<stop  offset="98.03921568627452%" stop-color="#C4C8D7"/>

<stop  offset="100%" stop-color="#C4C8D7"/>
</linearGradient>

<g id="Layer0_0_MEMBER_0_FILL">
<path fill="#F5F2E8" stroke="none" d="
M 63.85 184.2
Q 62.75 184.2 62 184.6
L 9.9 214.9
Q 9.15 215.35 9.15 216 9.15 216.6 9.95 217.05
L 36.65 225.2 66.95 242.7
Q 67.85 243.2 68.85 243.25
L 68.85 243.3 74.55 243.3 74.55 243.25
Q 75.65 243.2 76.6 242.7
L 127.3 213.2
Q 128.35 212.6 128.35 211.75 128.35 210.9 127.3 210.3
L 94.5 191.35
Q 93.75 190.95 92.65 190.95 91.6 190.95 90.8 191.35
L 90.4 191.6 90 191.35
Q 88.6 190.6 86.9 191.1
L 65.7 184.6
Q 64.9 184.2 63.85 184.2 Z"/>
</g>

<g id="Layer0_0_MEMBER_1_MEMBER_0_MEMBER_0_FILL">
<path fill="url(#Gradient_1)" stroke="none" d="
M 78.45 144
Q 78 144 77.6 144.25
L 26.65 173.65
Q 25.75 174.15 25.35 175.35 24.95 176.5 25.25 177.65
L 36.3 219.45
Q 36.6 220.8 37.75 220.8
L 37.8 220.8 38.6 220.85 38.55 220.65 90.35 190.7
Q 91.05 190.35 91.35 189.45 91.7 188.55 91.45 187.7
L 80.4 145.85
Q 80.15 144.85 79.25 144.3
L 79.3 144.05 78.45 144 Z"/>
</g>

<g id="Layer0_0_MEMBER_1_MEMBER_0_MEMBER_1_FILL">
<path fill="#494855" stroke="none" d="
M 80.1 144.25
Q 79.25 143.85 78.35 144.35
L 27.4 173.75
Q 26.55 174.25 26.1 175.4 25.7 176.6 26 177.7
L 37.05 219.55
Q 37.3 220.4 37.95 220.75 38.6 221.05 39.25 220.65
L 91.2 190.65
Q 91.85 190.3 92.2 189.4 92.5 188.5 92.25 187.65
L 81.2 145.8
Q 80.9 144.65 80.1 144.25 Z"/>
</g>

<g id="Layer0_0_MEMBER_1_MEMBER_0_MEMBER_2_FILL">
<path fill="#7D7CED" stroke="none" d="
M 79.75 145.45
L 26.9 175.95 37.7 216.8 90.55 186.3 79.75 145.45 Z"/>
</g>

<g id="Layer0_0_MEMBER_1_MEMBER_0_MEMBER_3_MEMBER_0_FILL">
<path fill="#FEE471" stroke="none" d="
M 38.1 186.35
Q 38 186 37.7 186.2
L 35.9 187.25
Q 35.7 187.35 35.55 187.2
L 35.5 187.1
Q 35.4 186.9 35.15 187.05
L 33.55 187.95
Q 33.3 188.1 33.3 188.4
L 33.3 188.8 34.05 191.9
Q 34.15 192.15 34.35 192.05
L 38.6 189.6
Q 38.85 189.45 38.75 189.2
L 38.1 186.35 Z"/>
</g>

<g id="Layer0_0_MEMBER_1_MEMBER_0_MEMBER_3_MEMBER_1_FILL">
<path fill="#FEEB91" stroke="none" d="
M 38.15 186.6
Q 38.1 186.4 37.85 186.45
L 33.6 188.9
Q 33.4 189.1 33.45 189.3
L 34.05 191.9
Q 34.15 192.15 34.35 192.05
L 38.6 189.6
Q 38.85 189.45 38.75 189.2
L 38.15 186.6 Z"/>
</g>

<g id="Layer0_0_MEMBER_1_MEMBER_0_MEMBER_4_MEMBER_0_FILL">
<path fill="#FEE471" stroke="none" d="
M 35.9 179.05
Q 35.8 178.7 35.5 178.9
L 33.7 179.95
Q 33.5 180.05 33.35 179.9
L 33.3 179.8
Q 33.15 179.65 32.95 179.75
L 31.35 180.65
Q 31.1 180.8 31.1 181.1
L 31.1 181.5 31.85 184.6
Q 31.95 184.85 32.15 184.75
L 36.4 182.3
Q 36.6 182.1 36.55 181.9
L 35.9 179.05 Z"/>
</g>

<g id="Layer0_0_MEMBER_1_MEMBER_0_MEMBER_4_MEMBER_1_FILL">
<path fill="#FEEB91" stroke="none" d="
M 35.95 179.3
Q 35.85 179.05 35.65 179.15
L 31.4 181.6
Q 31.15 181.75 31.25 182
L 31.85 184.6
Q 31.95 184.85 32.15 184.75
L 36.4 182.3
Q 36.6 182.1 36.55 181.9
L 35.95 179.3 Z"/>
</g>

<g id="Layer0_0_MEMBER_1_MEMBER_0_MEMBER_5_MEMBER_0_FILL">
<path fill="#FEE471" stroke="none" d="
M 79 152.55
Q 78.9 152.25 78.6 152.4
L 76.8 153.45
Q 76.6 153.55 76.45 153.4
L 76.4 153.3
Q 76.3 153.05 76.1 153.25
L 74.45 154.15
Q 74.3 154.25 74.2 154.6
L 74.2 154.9 74.25 155 75 158.1
Q 75 158.4 75.25 158.25
L 79.5 155.8
Q 79.7 155.65 79.7 155.4
L 79 152.55 Z"/>
</g>

<g id="Layer0_0_MEMBER_1_MEMBER_0_MEMBER_5_MEMBER_1_FILL">
<path fill="#FEEB91" stroke="none" d="
M 79.05 152.8
Q 79 152.6 78.75 152.65
L 74.5 155.1
Q 74.3 155.3 74.35 155.5
L 75 158.1
Q 75 158.4 75.25 158.25
L 79.5 155.8
Q 79.7 155.65 79.7 155.4
L 79.05 152.8 Z"/>
</g>

<g id="Layer0_0_MEMBER_1_MEMBER_0_MEMBER_6_FILL">
<path fill="#C4C8D7" stroke="none" d="
M 90.55 186.3
L 90.05 184.55 37.25 215.05 37.7 216.8 90.55 186.3 Z"/>
</g>

<g id="Layer0_0_MEMBER_1_MEMBER_0_MEMBER_7_MEMBER_0_FILL">
<path fill="#EFF0F5" stroke="none" d="
M 79.45 186.25
L 71.6 156.5 39.75 174.9 47.6 204.65 79.45 186.25 Z"/>
</g>

<g id="Layer0_0_MEMBER_1_MEMBER_0_MEMBER_7_MEMBER_1_FILL">
<path fill="#C4C8D7" stroke="none" d="
M 72.65 160.4
L 71.6 156.5 39.75 174.9 40.75 178.8 72.65 160.4 Z"/>
</g>

<g id="Layer0_0_MEMBER_1_MEMBER_0_MEMBER_7_MEMBER_2_FILL">
<path fill="#FA7A80" stroke="none" d="
M 41.1 175.7
L 41.5 177.35 43.65 176.1 43.2 174.5 41.1 175.7 Z"/>
</g>

<g id="Layer0_0_MEMBER_1_MEMBER_0_MEMBER_7_MEMBER_3_FILL">
<path fill="#FFFFFF" fill-opacity="0.2" stroke="none" d="
M 22.1 0
L 0 12.75 0 63.5 22.1 50.75 22.1 0 Z"/>
</g>

<g id="Layer0_0_MEMBER_1_MEMBER_1_MEMBER_0_MEMBER_0_FILL">
<path fill="url(#Gradient_2)" stroke="none" d="
M 92.9 190.7
Q 91.8 190.7 91.05 191.15
L 42.4 219.4 39.1 219.8 39.1 221.9
Q 39 222.55 39.85 223
L 72.05 241.6
Q 73.1 242.2 74.55 242.2 76 242.2 77.05 241.6
L 126.9 212.6
Q 127.85 212.1 127.95 211.25
L 127.95 209.2 126.35 209.4 94.7 191.15
Q 93.95 190.7 92.9 190.7 Z"/>
</g>

<g id="Layer0_0_MEMBER_1_MEMBER_1_MEMBER_0_MEMBER_1_FILL">
<path fill="#EFF0F5" stroke="none" d="
M 92.9 188.75
Q 91.8 188.75 91.05 189.2
L 39.85 218.95
Q 39.1 219.4 39.1 220 39.1 220.65 39.85 221.05
L 72.05 239.65
Q 73.1 240.25 74.55 240.25 76 240.25 77.05 239.65
L 126.9 210.7
Q 127.95 210.1 127.95 209.25 127.95 208.4 126.9 207.8
L 94.7 189.2
Q 93.95 188.75 92.9 188.75 Z"/>
</g>

<g id="Layer0_0_MEMBER_1_MEMBER_1_MEMBER_0_MEMBER_2_FILL">
<path fill="#E1E3EB" stroke="none" d="
M 93.35 190.2
Q 92.65 190.2 92.15 190.5
L 42.05 219.6
Q 41.55 219.9 41.55 220.3 41.6 220.7 42.1 221
L 61.1 231.95
Q 61.6 232.25 62.3 232.25 63 232.25 63.5 231.95
L 113.55 202.85
Q 114.05 202.55 114.05 202.15 114.05 201.75 113.55 201.45
L 94.55 190.5
Q 94.05 190.2 93.35 190.2 Z"/>
</g>

<g id="Layer0_0_MEMBER_1_MEMBER_1_MEMBER_0_MEMBER_3_FILL">
<path fill="#D9DBE6" stroke="none" d="
M 111.55 217.85
Q 111.55 217.55 111.15 217.3
L 101.7 211.85
Q 100.7 211.2 99.7 211.85
L 78.95 223.9
Q 78.55 224.15 78.55 224.5 78.55 224.85 78.95 225.05
L 88.4 230.5
Q 89.4 231.05 90.4 230.5
L 111.15 218.45
Q 111.55 218.2 111.55 217.85 Z"/>
</g>

<g id="Layer0_0_MEMBER_1_MEMBER_1_MEMBER_0_MEMBER_4_FILL">
<path fill="#C5C9D7" stroke="none" d="
M 101.7 211.85
Q 100.7 211.2 99.7 211.85
L 78.95 223.9
Q 78.4 224.2 78.55 224.6 78.65 224.3 78.95 224.2
L 99.7 212.1
Q 100.1 211.9 100.7 211.9 101.3 211.9 101.7 212.1
L 111.15 217.55
Q 111.4 217.75 111.5 218 111.65 217.65 111.15 217.3
L 101.7 211.85 Z"/>
</g>

<g id="Layer0_0_MEMBER_1_MEMBER_1_MEMBER_1_MEMBER_0_FILL">
<path fill="#393842" stroke="none" d="
M 44.95 221.15
L 44.75 221.15 44.75 221.4
Q 44.75 221.6 44.95 221.65
L 47.25 223
Q 47.7 223.15 48.1 223
L 50.4 221.65
Q 50.6 221.6 50.6 221.4
L 50.6 221.15 50.35 221.15 48.1 219.8
Q 47.65 219.6 47.25 219.8
L 44.95 221.15 Z"/>
</g>

<g id="Layer0_0_MEMBER_1_MEMBER_1_MEMBER_1_MEMBER_1_FILL">
<path fill="#393842" stroke="none" d="
M 59.65 229.6
L 59.45 229.6 59.45 229.9
Q 59.45 230.05 59.6 230.1
L 61.95 231.45
Q 62.35 231.75 62.75 231.45
L 65.1 230.1
Q 65.25 230.05 65.25 229.85
L 65.25 229.6 65.05 229.6 62.75 228.3
Q 62.35 228.05 61.9 228.3
L 59.65 229.6 Z"/>
</g>

<g id="Layer0_0_MEMBER_1_MEMBER_1_MEMBER_1_MEMBER_2_FILL">
<path fill="#393842" stroke="none" d="
M 68.7 228
Q 68.85 227.95 68.85 227.75
L 68.85 227.5 68.65 227.5 66.35 226.2
Q 65.95 225.9 65.55 226.2
L 63.25 227.5 63.05 227.5 63.05 227.8
Q 63.05 227.95 63.2 228
L 65.55 229.35
Q 66 229.6 66.4 229.35
L 68.7 228 Z"/>
</g>

<g id="Layer0_0_MEMBER_1_MEMBER_1_MEMBER_1_MEMBER_3_FILL">
<path fill="#393842" stroke="none" d="
M 72.3 225.9
Q 72.5 225.85 72.5 225.65
L 72.5 225.4 72.25 225.4 70 224.1
Q 69.6 223.85 69.15 224.1
L 66.85 225.4 66.65 225.4 66.65 225.7 66.85 225.9 69.15 227.25
Q 69.6 227.55 70 227.25
L 72.3 225.9 Z"/>
</g>

<g id="Layer0_0_MEMBER_1_MEMBER_1_MEMBER_1_MEMBER_4_FILL">
<path fill="#393842" stroke="none" d="
M 73.6 221.95
Q 73.2 221.75 72.75 221.95
L 70.5 223.3 70.3 223.3 70.3 223.55
Q 70.3 223.75 70.45 223.8
L 72.8 225.15
Q 73.2 225.45 73.65 225.15
L 75.95 223.8
Q 76.1 223.75 76.1 223.55
L 76.1 223.3 75.9 223.3 73.6 221.95 Z"/>
</g>

<g id="Layer0_0_MEMBER_1_MEMBER_1_MEMBER_1_MEMBER_5_FILL">
<path fill="#393842" stroke="none" d="
M 48.4 219.3
Q 48.4 219.5 48.55 219.55
L 50.9 220.9
Q 51.3 221.1 51.7 220.9
L 54.05 219.55
Q 54.2 219.4 54.2 219.3
L 54.2 219 54 219.05 51.7 217.7
Q 51.3 217.55 50.85 217.7
L 48.6 219.05 48.4 219.05 48.4 219.3 Z"/>
</g>

<g id="Layer0_0_MEMBER_1_MEMBER_1_MEMBER_1_MEMBER_6_FILL">
<path fill="#393842" stroke="none" d="
M 54.25 219.95
L 54.05 219.95 54.05 220.25 54.25 220.45 56.55 221.8
Q 57 222.1 57.4 221.8
L 59.7 220.45
Q 59.9 220.4 59.9 220.2
L 59.9 219.95 59.65 219.95 57.4 218.6
Q 57 218.45 56.55 218.6
L 54.25 219.95 Z"/>
</g>

<g id="Layer0_0_MEMBER_1_MEMBER_1_MEMBER_1_MEMBER_7_FILL">
<path fill="#393842" stroke="none" d="
M 63.35 218.35
Q 63.5 218.3 63.5 218.1
L 63.5 217.85 63.3 217.85 61 216.5
Q 60.6 216.3 60.15 216.5
L 57.9 217.85 57.7 217.85 57.7 218.1
Q 57.7 218.3 57.85 218.35
L 60.2 219.7
Q 60.6 220 61.05 219.7
L 63.35 218.35 Z"/>
</g>

<g id="Layer0_0_MEMBER_1_MEMBER_1_MEMBER_1_MEMBER_8_FILL">
<path fill="#393842" stroke="none" d="
M 65.2 221.55
Q 65.4 221.4 65.4 221.3
L 65.4 221 65.15 221 62.9 219.7
Q 62.5 219.45 62.05 219.7
L 59.75 221.05 59.55 221.05 59.55 221.3 59.75 221.55 62.05 222.9
Q 62.5 223.1 62.9 222.9
L 65.2 221.55 Z"/>
</g>

<g id="Layer0_0_MEMBER_1_MEMBER_1_MEMBER_1_MEMBER_9_FILL">
<path fill="#393842" stroke="none" d="
M 66.6 221.85
Q 66.15 221.55 65.75 221.85
L 63.45 223.15 63.25 223.15 63.25 223.45
Q 63.25 223.6 63.45 223.65
L 65.75 225
Q 66.2 225.25 66.6 225
L 68.9 223.65
Q 69.1 223.6 69.1 223.4
L 69.1 223.15 68.85 223.15 66.6 221.85 Z"/>
</g>

<g id="Layer0_0_MEMBER_1_MEMBER_1_MEMBER_1_MEMBER_10_FILL">
<path fill="#393842" stroke="none" d="
M 66.9 221.35
Q 66.9 221.5 67.05 221.55
L 69.4 222.9
Q 69.8 223.2 70.2 222.9
L 72.55 221.55
Q 72.7 221.5 72.7 221.3
L 72.7 221.05 72.5 221.05 70.2 219.75
Q 69.8 219.5 69.35 219.75
L 67.1 221.05 66.9 221.05 66.9 221.35 Z"/>
</g>

<g id="Layer0_0_MEMBER_1_MEMBER_1_MEMBER_1_MEMBER_11_FILL">
<path fill="#393842" stroke="none" d="
M 70.5 219.25
Q 70.5 219.4 70.65 219.45
L 73 220.8
Q 73.45 221.05 73.85 220.8
L 76.15 219.45
Q 76.3 219.4 76.3 219.2
L 76.3 218.95 76.1 218.95 73.8 217.65
Q 73.4 217.35 73 217.65
L 70.7 218.95 70.5 218.95 70.5 219.25 Z"/>
</g>

<g id="Layer0_0_MEMBER_1_MEMBER_1_MEMBER_1_MEMBER_12_FILL">
<path fill="#393842" stroke="none" d="
M 77.45 215.55
Q 77.05 215.3 76.6 215.55
L 74.3 216.85 74.1 216.85 74.1 217.15 74.3 217.35 76.6 218.7
Q 77.05 219 77.45 218.7
L 79.75 217.35
Q 79.95 217.3 79.95 217.1
L 79.95 216.85 79.7 216.85 77.45 215.55 Z"/>
</g>

<g id="Layer0_0_MEMBER_1_MEMBER_1_MEMBER_1_MEMBER_13_FILL">
<path fill="#393842" stroke="none" d="
M 83.4 215.25
Q 83.55 215.2 83.55 215
L 83.55 214.75 83.35 214.75 81.05 213.4
Q 80.65 213.2 80.2 213.4
L 77.95 214.75 77.75 214.75 77.75 215
Q 77.75 215.2 77.9 215.25
L 80.25 216.6
Q 80.65 216.9 81.1 216.6
L 83.4 215.25 Z"/>
</g>

<g id="Layer0_0_MEMBER_1_MEMBER_1_MEMBER_1_MEMBER_14_FILL">
<path fill="#393842" stroke="none" d="
M 87 213.15
Q 87.2 213.05 87.2 212.9
L 87.2 212.65 86.95 212.65 84.7 211.3
Q 84.25 211.1 83.85 211.3
L 81.55 212.65 81.35 212.65 81.35 212.9
Q 81.35 213.1 81.55 213.15
L 83.85 214.5
Q 84.3 214.65 84.7 214.5
L 87 213.15 Z"/>
</g>

<g id="Layer0_0_MEMBER_1_MEMBER_1_MEMBER_1_MEMBER_15_FILL">
<path fill="#393842" stroke="none" d="
M 88.3 209.2
Q 87.9 209.05 87.45 209.2
L 85.15 210.55 85 210.55 85 210.8
Q 85 211 85.15 211.05
L 87.5 212.4
Q 87.9 212.6 88.3 212.4
L 90.65 211.05
Q 90.8 211 90.8 210.8
L 90.8 210.55 90.6 210.55 88.3 209.2 Z"/>
</g>

<g id="Layer0_0_MEMBER_1_MEMBER_1_MEMBER_1_MEMBER_16_FILL">
<path fill="#393842" stroke="none" d="
M 94.25 208.95
Q 94.4 208.8 94.4 208.7
L 94.4 208.45 94.2 208.45 91.9 207.1
Q 91.5 206.9 91.1 207.1
L 88.8 208.45 88.6 208.45 88.6 208.7
Q 88.6 208.9 88.75 208.95
L 91.1 210.3
Q 91.55 210.45 91.95 210.3
L 94.25 208.95 Z"/>
</g>

<g id="Layer0_0_MEMBER_1_MEMBER_1_MEMBER_1_MEMBER_17_FILL">
<path fill="#393842" stroke="none" d="
M 94.7 208.2
Q 95.15 208.4 95.55 208.2
L 97.85 206.85
Q 98.05 206.7 98.05 206.6
L 98.05 206.3 97.8 206.3 95.55 205
Q 95.15 204.75 94.7 205
L 92.4 206.35 92.2 206.35 92.2 206.6
Q 92.2 206.65 92.4 206.85
L 94.7 208.2 Z"/>
</g>

<g id="Layer0_0_MEMBER_1_MEMBER_1_MEMBER_1_MEMBER_18_FILL">
<path fill="#393842" stroke="none" d="
M 101.75 208.8
Q 101.9 208.75 101.9 208.55
L 101.9 208.3 101.7 208.3 99.4 207
Q 99.25 206.9 99 206.9 98.75 206.9 98.55 207
L 96.3 208.3 96.1 208.3 96.1 208.6
Q 96.1 208.75 96.25 208.8
L 98.6 210.15
Q 99 210.45 99.45 210.15
L 101.75 208.8 Z"/>
</g>

<g id="Layer0_0_MEMBER_1_MEMBER_1_MEMBER_1_MEMBER_19_FILL">
<path fill="#393842" stroke="none" d="
M 105.35 206.7
Q 105.55 206.65 105.55 206.45
L 105.55 206.2 105.3 206.2 103.05 204.85
Q 102.6 204.65 102.2 204.85
L 99.9 206.2 99.7 206.2 99.7 206.45
Q 99.7 206.6 99.9 206.7
L 102.2 208.05
Q 102.65 208.3 103.05 208.05
L 105.35 206.7 Z"/>
</g>

<g id="Layer0_0_MEMBER_1_MEMBER_1_MEMBER_1_MEMBER_20_FILL">
<path fill="#393842" stroke="none" d="
M 112.7 202.45
Q 112.85 202.4 112.85 202.2
L 112.85 201.95 112.65 201.95 110.35 200.6
Q 109.95 200.4 109.5 200.6
L 107.25 201.95 107.05 201.95 107.05 202.2
Q 107.05 202.4 107.2 202.45
L 109.55 203.8
Q 109.95 204 110.4 203.8
L 112.7 202.45 Z"/>
</g>

<g id="Layer0_0_MEMBER_1_MEMBER_1_MEMBER_1_MEMBER_21_FILL">
<path fill="#393842" stroke="none" d="
M 109.2 199.8
L 109 199.85 106.7 198.5
Q 106.3 198.3 105.9 198.5
L 103.6 199.85 103.4 199.85 103.4 199.95 103.25 200.05 103.05 200.05 103.05 200.3 103.1 200.3
Q 103.1 200.4 103.25 200.55
L 105.55 201.85
Q 106 202.15 106.4 201.85
L 109.05 200.35
Q 109.2 200.2 109.2 200.1
L 109.2 199.8 Z"/>
</g>

<g id="Layer0_0_MEMBER_1_MEMBER_1_MEMBER_1_MEMBER_22_FILL">
<path fill="#393842" stroke="none" d="
M 101.5 204.75
Q 101.65 204.6 101.65 204.5
L 101.65 204.2 101.45 204.2 99.15 202.9
Q 98.75 202.65 98.3 202.9
L 96.05 204.25 95.85 204.25 95.85 204.5
Q 95.85 204.6 96 204.75
L 98.35 206.1
Q 98.75 206.3 99.2 206.1
L 101.5 204.75 Z"/>
</g>

<g id="Layer0_0_MEMBER_1_MEMBER_1_MEMBER_1_MEMBER_23_FILL">
<path fill="#393842" stroke="none" d="
M 105.1 202.65
Q 105.3 202.45 105.3 202.4
L 105.3 202.1 105.05 202.1 102.8 200.8
Q 102.35 200.5 101.95 200.8
L 99.65 202.15 99.45 202.15 99.45 202.4
Q 99.45 202.5 99.65 202.65
L 101.95 203.95
Q 102.4 204.2 102.8 203.95
L 105.1 202.65 Z"/>
</g>

<g id="Layer0_0_MEMBER_1_MEMBER_1_MEMBER_1_MEMBER_24_FILL">
<path fill="#393842" stroke="none" d="
M 63.35 219.45
L 65.7 220.75
Q 66.1 221.05 66.55 220.75
L 68.85 219.45 69 219.2 69 218.9 68.8 218.9 66.5 217.6
Q 66.35 217.5 66.1 217.5 65.85 217.5 65.65 217.6
L 63.4 218.95 63.2 218.95 63.2 219.2
Q 63.2 219.3 63.35 219.45 Z"/>
</g>

<g id="Layer0_0_MEMBER_1_MEMBER_1_MEMBER_1_MEMBER_25_FILL">
<path fill="#393842" stroke="none" d="
M 69.3 218.65
Q 69.75 218.9 70.15 218.65
L 72.45 217.35 72.65 217.1 72.65 216.8 72.4 216.8 70.15 215.5
Q 69.7 215.2 69.3 215.5
L 67 216.8 66.8 216.85 66.8 217.1
Q 66.8 217.2 67 217.35
L 69.3 218.65 Z"/>
</g>

<g id="Layer0_0_MEMBER_1_MEMBER_1_MEMBER_1_MEMBER_26_FILL">
<path fill="#393842" stroke="none" d="
M 70.45 215
Q 70.45 215.15 70.6 215.2
L 72.9 216.55
Q 73.35 216.85 73.75 216.55
L 76.1 215.2
Q 76.25 215.15 76.25 215
L 76.25 214.7 76.05 214.7 73.75 213.4
Q 73.35 213.15 72.9 213.4
L 70.6 214.7 70.4 214.7 70.4 215 70.45 215 Z"/>
</g>

<g id="Layer0_0_MEMBER_1_MEMBER_1_MEMBER_1_MEMBER_27_FILL">
<path fill="#393842" stroke="none" d="
M 79.7 213.1
Q 79.85 213.05 79.85 212.9
L 79.85 212.6 79.65 212.6 77.35 211.3
Q 76.95 211 76.55 211.3
L 74.25 212.6 74.05 212.6 74.05 212.9
Q 74.05 213.05 74.2 213.1
L 76.55 214.45
Q 77 214.7 77.4 214.45
L 79.7 213.1 Z"/>
</g>

<g id="Layer0_0_MEMBER_1_MEMBER_1_MEMBER_1_MEMBER_28_FILL">
<path fill="#393842" stroke="none" d="
M 83.3 211
Q 83.5 210.95 83.5 210.75
L 83.5 210.5 83.25 210.5 81 209.2
Q 80.6 208.95 80.15 209.2
L 77.85 210.5 77.65 210.5 77.65 210.8 77.85 211 80.15 212.35
Q 80.6 212.65 81 212.35
L 83.3 211 Z"/>
</g>

<g id="Layer0_0_MEMBER_1_MEMBER_1_MEMBER_1_MEMBER_29_FILL">
<path fill="#393842" stroke="none" d="
M 84.6 207.1
Q 84.2 206.85 83.75 207.1
L 81.5 208.4 81.3 208.4 81.3 208.7
Q 81.3 208.85 81.45 208.9
L 83.8 210.25
Q 84.2 210.55 84.65 210.25
L 86.95 208.9
Q 87.1 208.85 87.1 208.65
L 87.1 208.4 86.9 208.4 84.6 207.1 Z"/>
</g>

<g id="Layer0_0_MEMBER_1_MEMBER_1_MEMBER_1_MEMBER_30_FILL">
<path fill="#393842" stroke="none" d="
M 85.1 206.3
L 84.9 206.3 84.9 206.6
Q 84.9 206.75 85.1 206.8
L 87.4 208.15
Q 87.85 208.4 88.25 208.15
L 90.55 206.8
Q 90.75 206.7 90.75 206.55
L 90.75 206.3 90.5 206.3 88.25 205
Q 87.8 204.7 87.4 205
L 85.1 206.3 Z"/>
</g>

<g id="Layer0_0_MEMBER_1_MEMBER_1_MEMBER_1_MEMBER_31_FILL">
<path fill="#393842" stroke="none" d="
M 94.15 204.7
Q 94.35 204.65 94.35 204.45
L 94.35 204.2 94.1 204.2 91.85 202.9
Q 91.45 202.65 91 202.9
L 88.7 204.2 88.5 204.2 88.5 204.5 88.55 204.5
Q 88.55 204.65 88.7 204.7
L 91 206.05
Q 91.45 206.35 91.85 206.05
L 94.15 204.7 Z"/>
</g>

<g id="Layer0_0_MEMBER_1_MEMBER_1_MEMBER_1_MEMBER_32_FILL">
<path fill="#393842" stroke="none" d="
M 97.8 202.6
Q 97.95 202.55 97.95 202.35
L 97.95 202.1 97.75 202.1 95.45 200.75
Q 95.05 200.55 94.65 200.75
L 92.35 202.1 92.15 202.1 92.15 202.4
Q 92.15 202.55 92.3 202.6
L 94.65 203.95
Q 95.1 204.2 95.5 203.95
L 97.8 202.6 Z"/>
</g>

<g id="Layer0_0_MEMBER_1_MEMBER_1_MEMBER_1_MEMBER_33_FILL">
<path fill="#393842" stroke="none" d="
M 66.95 216.25
Q 67.15 216.15 67.15 216
L 67.15 215.75 66.9 215.75 64.65 214.4
Q 64.2 214.2 63.8 214.4
L 61.5 215.75 61.3 215.75 61.3 216
Q 61.3 216.2 61.5 216.25
L 63.8 217.6
Q 64.25 217.75 64.65 217.6
L 66.95 216.25 Z"/>
</g>

<g id="Layer0_0_MEMBER_1_MEMBER_1_MEMBER_1_MEMBER_34_FILL">
<path fill="#393842" stroke="none" d="
M 70.6 214.15
Q 70.75 214.1 70.75 213.9
L 70.75 213.65 70.55 213.65 68.25 212.3
Q 67.85 212.15 67.4 212.3
L 65.1 213.65 64.9 213.65 64.9 213.9 64.95 213.9
Q 64.95 214.1 65.1 214.15
L 67.4 215.5
Q 67.85 215.7 68.25 215.5
L 70.6 214.15 Z"/>
</g>

<g id="Layer0_0_MEMBER_1_MEMBER_1_MEMBER_1_MEMBER_35_FILL">
<path fill="#393842" stroke="none" d="
M 71.85 210.2
Q 71.45 210 71.05 210.2
L 68.75 211.55 68.55 211.55 68.55 211.8
Q 68.55 212 68.7 212.05
L 71.05 213.4
Q 71.5 213.55 71.9 213.4
L 74.2 212.05
Q 74.35 211.9 74.35 211.8
L 74.35 211.55 74.15 211.55 71.85 210.2 Z"/>
</g>

<g id="Layer0_0_MEMBER_1_MEMBER_1_MEMBER_1_MEMBER_36_FILL">
<path fill="#393842" stroke="none" d="
M 75.5 208.1
Q 75.1 207.85 74.65 208.1
L 72.35 209.45 72.15 209.45 72.15 209.7
Q 72.15 209.75 72.35 209.95
L 74.65 211.3
Q 75.1 211.5 75.5 211.3
L 77.8 209.95
Q 78 209.8 78 209.7
L 78 209.4 77.75 209.4 75.5 208.1 Z"/>
</g>

<g id="Layer0_0_MEMBER_1_MEMBER_1_MEMBER_1_MEMBER_37_FILL">
<path fill="#393842" stroke="none" d="
M 81.45 207.85
Q 81.6 207.7 81.6 207.6
L 81.6 207.3 81.4 207.3 79.1 206
Q 78.7 205.75 78.25 206
L 76 207.35 75.8 207.35 75.8 207.6
Q 75.8 207.7 75.95 207.85
L 78.3 209.2
Q 78.7 209.4 79.15 209.2
L 81.45 207.85 Z"/>
</g>

<g id="Layer0_0_MEMBER_1_MEMBER_1_MEMBER_1_MEMBER_38_FILL">
<path fill="#393842" stroke="none" d="
M 85.05 205.75
L 85.25 205.5 85.25 205.2 85 205.2 82.75 203.9
Q 82.3 203.6 81.9 203.9
L 79.6 205.25 79.4 205.25 79.4 205.5
Q 79.4 205.6 79.6 205.75
L 81.9 207.05
Q 82.35 207.3 82.75 207.05
L 85.05 205.75 Z"/>
</g>

<g id="Layer0_0_MEMBER_1_MEMBER_1_MEMBER_1_MEMBER_39_FILL">
<path fill="#393842" stroke="none" d="
M 88.65 203.65
Q 88.85 203.5 88.85 203.4
L 88.85 203.1 88.6 203.1 86.35 201.8
Q 85.95 201.55 85.5 201.8
L 83.2 203.15 83 203.15 83 203.4 83.2 203.65 85.5 204.95
Q 85.95 205.25 86.35 204.95
L 88.65 203.65 Z"/>
</g>

<g id="Layer0_0_MEMBER_1_MEMBER_1_MEMBER_1_MEMBER_40_FILL">
<path fill="#393842" stroke="none" d="
M 92.3 201.5
Q 92.45 201.45 92.45 201.3
L 92.45 201 92.25 201 89.95 199.7
Q 89.8 199.6 89.55 199.6 89.3 199.6 89.1 199.7
L 86.85 201 86.65 201 86.65 201.3
Q 86.65 201.45 86.8 201.5
L 89.15 202.85
Q 89.55 203.15 90 202.85
L 92.3 201.5 Z"/>
</g>

<g id="Layer0_0_MEMBER_1_MEMBER_1_MEMBER_1_MEMBER_41_FILL">
<path fill="#393842" stroke="none" d="
M 93.6 197.6
Q 93.2 197.35 92.75 197.6
L 90.45 198.9 90.25 198.9 90.25 199.2
Q 90.25 199.3 90.45 199.4
L 92.75 200.75
Q 93.2 201 93.6 200.75
L 95.9 199.4
Q 96.1 199.35 96.1 199.2
L 96.1 198.9 95.85 198.9 93.6 197.6 Z"/>
</g>

<g id="Layer0_0_MEMBER_1_MEMBER_1_MEMBER_1_MEMBER_42_FILL">
<path fill="#393842" stroke="none" d="
M 55.3 215.6
Q 54.9 215.3 54.5 215.6
L 52.2 216.95 52 216.95 52 217.2
Q 52 217.3 52.15 217.45
L 54.5 218.8
Q 54.95 218.95 55.35 218.8
L 57.65 217.45
Q 57.8 217.3 57.8 217.2
L 57.8 216.9 57.6 216.9 55.3 215.6 Z"/>
</g>

<g id="Layer0_0_MEMBER_1_MEMBER_1_MEMBER_1_MEMBER_43_FILL">
<path fill="#393842" stroke="none" d="
M 61.25 215.35
Q 61.45 215.2 61.45 215.1
L 61.45 214.8 61.2 214.8 58.95 213.5
Q 58.55 213.25 58.1 213.5
L 55.8 214.85 55.6 214.85 55.6 215.1 55.8 215.35 58.1 216.65
Q 58.55 216.9 58.95 216.7
L 61.25 215.35 Z"/>
</g>

<g id="Layer0_0_MEMBER_1_MEMBER_1_MEMBER_1_MEMBER_44_FILL">
<path fill="#393842" stroke="none" d="
M 64.9 213.25
L 65.05 213 65.05 212.7 64.85 212.7 62.55 211.4
Q 62.4 211.3 62.15 211.3 61.9 211.3 61.7 211.4
L 59.45 212.75 59.25 212.75 59.25 213
Q 59.25 213.1 59.4 213.25
L 61.75 214.55
Q 62.15 214.85 62.6 214.55
L 64.9 213.25 Z"/>
</g>

<g id="Layer0_0_MEMBER_1_MEMBER_1_MEMBER_1_MEMBER_45_FILL">
<path fill="#393842" stroke="none" d="
M 66.2 209.3
Q 65.75 209 65.35 209.3
L 63.05 210.6 62.85 210.6 62.85 210.9
Q 62.85 211 63.05 211.15
L 65.35 212.45
Q 65.8 212.7 66.2 212.45
L 68.5 211.15 68.7 210.9 68.7 210.6 68.45 210.6 66.2 209.3 Z"/>
</g>

<g id="Layer0_0_MEMBER_1_MEMBER_1_MEMBER_1_MEMBER_46_FILL">
<path fill="#393842" stroke="none" d="
M 72.15 209
Q 72.3 208.95 72.3 208.8
L 72.3 208.5 72.1 208.5 69.8 207.2
Q 69.4 206.95 68.95 207.2
L 66.65 208.5 66.5 208.5 66.5 208.8
Q 66.5 208.95 66.65 209
L 68.95 210.35
Q 69.4 210.65 69.8 210.35
L 72.15 209 Z"/>
</g>

<g id="Layer0_0_MEMBER_1_MEMBER_1_MEMBER_1_MEMBER_47_FILL">
<path fill="#393842" stroke="none" d="
M 75.75 206.9
Q 75.9 206.85 75.9 206.65
L 75.9 206.4 75.7 206.4 73.4 205.1
Q 73 204.8 72.6 205.1
L 70.3 206.4 70.1 206.4 70.1 206.7
Q 70.1 206.85 70.25 206.9
L 72.6 208.25
Q 73.05 208.5 73.45 208.25
L 75.75 206.9 Z"/>
</g>

<g id="Layer0_0_MEMBER_1_MEMBER_1_MEMBER_1_MEMBER_48_FILL">
<path fill="#393842" stroke="none" d="
M 77.05 203
Q 76.65 202.75 76.2 203
L 73.9 204.3 73.7 204.3 73.7 204.6 73.9 204.8 76.2 206.15
Q 76.65 206.45 77.05 206.15
L 79.35 204.8
Q 79.55 204.75 79.55 204.55
L 79.55 204.3 79.3 204.3 77.05 203 Z"/>
</g>

<g id="Layer0_0_MEMBER_1_MEMBER_1_MEMBER_1_MEMBER_49_FILL">
<path fill="#393842" stroke="none" d="
M 83 202.7
Q 83.15 202.65 83.15 202.45
L 83.15 202.2 82.95 202.2 80.65 200.9
Q 80.25 200.65 79.8 200.9
L 77.55 202.2 77.35 202.2 77.35 202.5
Q 77.35 202.65 77.5 202.7
L 79.85 204.05
Q 80.25 204.35 80.7 204.05
L 83 202.7 Z"/>
</g>

<g id="Layer0_0_MEMBER_1_MEMBER_1_MEMBER_1_MEMBER_50_FILL">
<path fill="#393842" stroke="none" d="
M 86.8 200.35
L 86.8 200.1 86.55 200.1 84.3 198.8
Q 83.85 198.5 83.45 198.8
L 81.15 200.1 80.95 200.1 80.95 200.4
Q 80.95 200.55 81.15 200.6
L 83.45 201.95
Q 83.9 202.2 84.3 201.95
L 86.6 200.6
Q 86.8 200.5 86.8 200.35 Z"/>
</g>

<g id="Layer0_0_MEMBER_1_MEMBER_1_MEMBER_1_MEMBER_51_FILL">
<path fill="#393842" stroke="none" d="
M 87.9 196.7
Q 87.5 196.45 87.05 196.7
L 84.75 198 84.55 198 84.55 198.3 84.6 198.3
Q 84.6 198.45 84.75 198.5
L 87.05 199.85
Q 87.5 200.15 87.9 199.85
L 90.2 198.5
Q 90.4 198.45 90.4 198.25
L 90.4 198 90.15 198 87.9 196.7 Z"/>
</g>

<g id="Layer0_0_MEMBER_1_MEMBER_1_MEMBER_1_MEMBER_52_FILL">
<path fill="#393842" stroke="none" d="
M 88.35 196.4
L 90.7 197.75
Q 91.15 198 91.55 197.75
L 93.85 196.4
Q 94 196.35 94 196.15
L 94 195.9 93.8 195.9 91.5 194.55
Q 91.1 194.35 90.7 194.55
L 88.4 195.9 88.2 195.9 88.2 196.2
Q 88.2 196.35 88.35 196.4 Z"/>
</g>

<g id="Layer0_0_MEMBER_1_MEMBER_1_MEMBER_1_MEMBER_53_FILL">
<path fill="#393842" stroke="none" d="
M 95.7 192.15
Q 95.3 191.9 94.85 192.15
L 92.05 193.8 91.8 193.8 91.8 194.1 92 194.3 94.3 195.65
Q 94.75 195.9 95.15 195.65
L 98 194
Q 98.2 193.85 98.2 193.7
L 98.2 193.45 97.95 193.45 95.7 192.15 Z"/>
</g>

<g id="Layer0_0_MEMBER_1_MEMBER_1_MEMBER_1_MEMBER_54_FILL">
<path fill="#393842" stroke="none" d="
M 98.1 210.9
Q 98.3 210.85 98.3 210.65
L 98.3 210.4 98.1 210.4 95.8 209.1
Q 95.45 208.95 95.15 209
L 92.65 210.4 92.45 210.4 92.45 210.5 74.1 221.2 73.9 221.2 73.9 221.55 73.95 221.55 73.95 221.6 74 221.6 74 221.65 74.1 221.7 76.4 223.05 76.85 223.15 77.25 223.05 98.1 210.9 Z"/>
</g>

<g id="Layer0_0_MEMBER_1_MEMBER_1_MEMBER_1_MEMBER_55_FILL">
<path fill="#393842" stroke="none" d="
M 47.8 218.45
Q 48.25 218.7 48.65 218.45
L 50.95 217.1
Q 51.1 217.05 51.1 216.85
L 51.1 216.6 50.95 216.65 50.95 216.6 50.3 216.25
Q 49.9 216.05 49.45 216.25
L 47.35 217.5 47 217.6 47 217.85
Q 47 218.05 47.15 218.1
L 47.8 218.45 Z"/>
</g>

<g id="Layer0_0_MEMBER_1_MEMBER_1_MEMBER_1_MEMBER_56_FILL">
<path fill="#393842" stroke="none" d="
M 50.6 215.5
L 50.6 215.75
Q 50.6 215.8 50.8 216
L 51.4 216.35
Q 51.85 216.6 52.25 216.35
L 54.55 215
Q 54.75 214.95 54.75 214.75
L 54.75 214.5 54.6 214.55 54.55 214.5 53.95 214.15
Q 53.55 213.9 53.1 214.15
L 50.95 215.4 50.6 215.5 Z"/>
</g>

<g id="Layer0_0_MEMBER_1_MEMBER_1_MEMBER_1_MEMBER_57_FILL">
<path fill="#393842" stroke="none" d="
M 58.2 212.9
Q 58.35 212.85 58.35 212.65
L 58.35 212.4 58.2 212.45 58.2 212.4 57.55 212.05
Q 57.15 211.8 56.7 212.05
L 54.6 213.3 54.25 213.4 54.25 213.65
Q 54.25 213.75 54.4 213.9
L 55.05 214.25
Q 55.45 214.55 55.9 214.25
L 58.2 212.9 Z"/>
</g>

<g id="Layer0_0_MEMBER_1_MEMBER_1_MEMBER_1_MEMBER_58_FILL">
<path fill="#393842" stroke="none" d="
M 61.8 210.8
L 62 210.55 62 210.3 61.85 210.35 61.8 210.3 61.15 209.95
Q 60.75 209.65 60.35 209.95
L 58.2 211.2 57.85 211.25 57.85 211.55
Q 57.85 211.65 58.05 211.8
L 58.65 212.15
Q 59.1 212.4 59.5 212.15
L 61.8 210.8 Z"/>
</g>

<g id="Layer0_0_MEMBER_1_MEMBER_1_MEMBER_1_MEMBER_59_FILL">
<path fill="#393842" stroke="none" d="
M 62.25 210.05
Q 62.7 210.25 63.1 210.05
L 65.4 208.7
Q 65.6 208.65 65.6 208.45
L 65.6 208.2 65.45 208.25 65.4 208.2 64.8 207.85
Q 64.4 207.6 63.95 207.85
L 61.8 209.1 61.45 209.15 61.45 209.45 61.65 209.7 62.25 210.05 Z"/>
</g>

<g id="Layer0_0_MEMBER_1_MEMBER_1_MEMBER_1_MEMBER_60_FILL">
<path fill="#393842" stroke="none" d="
M 65.1 207.35
Q 65.1 207.5 65.25 207.55
L 65.9 207.95
Q 66.35 208.1 66.75 207.95
L 69.05 206.6
Q 69.2 206.55 69.2 206.35
L 69.2 206.1 69.05 206.15 69.05 206.1 68.4 205.75
Q 68.25 205.65 68 205.65 67.75 205.65 67.55 205.75
L 65.45 207 65.1 207.05 65.1 207.35 Z"/>
</g>

<g id="Layer0_0_MEMBER_1_MEMBER_1_MEMBER_1_MEMBER_61_FILL">
<path fill="#393842" stroke="none" d="
M 72.65 204.5
Q 72.85 204.45 72.85 204.25
L 72.85 204 72.65 204 72.05 203.65
Q 71.6 203.35 71.2 203.65
L 69.05 204.9 68.7 204.95 68.7 205.25
Q 68.7 205.4 68.9 205.45
L 69.5 205.85
Q 69.95 206 70.35 205.85
L 72.65 204.5 Z"/>
</g>

<g id="Layer0_0_MEMBER_1_MEMBER_1_MEMBER_1_MEMBER_62_FILL">
<path fill="#393842" stroke="none" d="
M 76.3 202.4
Q 76.45 202.25 76.45 202.15
L 76.45 201.9 76.3 201.9 75.65 201.55
Q 75.25 201.3 74.8 201.55
L 72.65 202.8 72.35 202.85 72.35 203.15
Q 72.35 203.3 72.5 203.35
L 73.15 203.75
Q 73.55 203.95 73.95 203.75
L 76.3 202.4 Z"/>
</g>

<g id="Layer0_0_MEMBER_1_MEMBER_1_MEMBER_1_MEMBER_63_FILL">
<path fill="#393842" stroke="none" d="
M 79.9 200.3
Q 80.05 200.15 80.05 200.05
L 80.05 199.8 79.9 199.8 79.25 199.45
Q 78.85 199.15 78.45 199.45
L 76.3 200.7 75.95 200.75 75.95 201.05
Q 75.95 201.2 76.1 201.25
L 76.75 201.65
Q 77.2 201.8 77.6 201.65
L 79.9 200.3 Z"/>
</g>

<g id="Layer0_0_MEMBER_1_MEMBER_1_MEMBER_1_MEMBER_64_FILL">
<path fill="#393842" stroke="none" d="
M 82.9 197.35
Q 82.5 197.1 82.05 197.35
L 79.9 198.55 79.55 198.65 79.55 198.95 79.75 199.15 80.35 199.5
Q 80.8 199.8 81.2 199.5
L 83.5 198.2
Q 83.7 198.05 83.7 197.95
L 83.7 197.7 83.5 197.7 82.9 197.35 Z"/>
</g>

<g id="Layer0_0_MEMBER_1_MEMBER_1_MEMBER_1_MEMBER_65_FILL">
<path fill="#393842" stroke="none" d="
M 84 197.4
Q 84.4 197.7 84.85 197.4
L 87.15 196.1
Q 87.3 195.95 87.3 195.85
L 87.3 195.55 87.15 195.6 86.5 195.25
Q 86.35 195.15 86.1 195.15 85.85 195.15 85.65 195.25
L 83.55 196.45 83.2 196.55 83.2 196.85
Q 83.2 197 83.35 197.05
L 84 197.4 Z"/>
</g>

<g id="Layer0_0_MEMBER_1_MEMBER_1_MEMBER_1_MEMBER_66_FILL">
<path fill="#393842" stroke="none" d="
M 90.75 193.95
L 90.95 193.75 90.95 193.45 90.8 193.5 90.75 193.5 90.15 193.15
Q 89.7 192.9 89.3 193.1
L 87.15 194.35 86.8 194.45 86.8 194.7
Q 86.8 194.9 87 194.95
L 87.6 195.3
Q 88.05 195.55 88.45 195.3
L 90.75 193.95 Z"/>
</g>

<g id="Layer0_0_MEMBER_1_MEMBER_1_MEMBER_1_MEMBER_67_FILL">
<path fill="#393842" stroke="none" d="
M 90.45 192.6
Q 90.45 192.8 90.6 192.85
L 91.25 193.2
Q 91.65 193.5 92.05 193.2
L 94.4 191.85
Q 94.55 191.8 94.55 191.65
L 94.55 191.35 94.4 191.4 93.75 191
Q 93.35 190.85 92.9 191
L 90.75 192.25 90.45 192.35 90.45 192.6 Z"/>
</g>

<g id="Layer0_0_MEMBER_1_MEMBER_1_MEMBER_1_MEMBER_68_FILL">
<path fill="#393842" stroke="none" d="
M 56.3 222.35
L 56.3 222.05 56.15 222.1 56.1 222.1 53.8 220.75
Q 53.4 220.5 52.95 220.75
L 48.65 223.25 48.45 223.25 48.45 223.55
Q 48.45 223.7 48.6 223.75
L 50.95 225.1
Q 51.35 225.4 51.75 225.1
L 56.1 222.55
Q 56.3 222.5 56.3 222.35 Z"/>
</g>

<g id="Layer0_0_MEMBER_1_MEMBER_1_MEMBER_1_MEMBER_69_FILL">
<path fill="#393842" stroke="none" d="
M 59.25 221.8
Q 58.85 221.5 58.45 221.8
L 52.4 225.3 52.1 225.4 52.1 225.65
Q 52.1 225.75 52.25 225.9
L 54.6 227.2
Q 55.05 227.45 55.45 227.2
L 61.6 223.65
Q 61.75 223.5 61.75 223.4
L 61.75 223.1 61.6 223.15 59.25 221.8 Z"/>
</g>

<g id="Layer0_0_MEMBER_1_MEMBER_1_MEMBER_1_MEMBER_70_FILL">
<path fill="#393842" stroke="none" d="
M 58.3 229.35
Q 58.7 229.65 59.15 229.35
L 65.3 225.75
Q 65.45 225.7 65.45 225.5
L 65.45 225.25 65.3 225.3 62.95 223.95
Q 62.8 223.85 62.55 223.85 62.3 223.85 62.1 223.95
L 56.1 227.45 55.8 227.5 55.8 227.75
Q 55.8 227.95 55.95 228
L 58.3 229.35 Z"/>
</g>

<g id="Layer0_0_MEMBER_1_MEMBER_1_MEMBER_1_MEMBER_71_FILL">
<path fill="#393842" stroke="none" d="
M 99.35 194.25
Q 98.95 194.05 98.5 194.25
L 94.15 196.8 93.9 196.85 93.9 197.1
Q 93.9 197.2 94.1 197.35
L 96.4 198.65
Q 96.85 198.9 97.25 198.65
L 101.7 196.1
Q 101.85 195.95 101.85 195.85
L 101.85 195.6 101.7 195.6 99.35 194.25 Z"/>
</g>

<g id="Layer0_0_MEMBER_1_MEMBER_1_MEMBER_1_MEMBER_72_FILL">
<path fill="#393842" stroke="none" d="
M 103.05 196.4
Q 102.6 196.1 102.2 196.4
L 95.95 200
Q 95.55 200.25 95.95 200.5
L 98.25 201.85
Q 98.7 202.1 99.1 201.85
L 105.35 198.2
Q 105.75 197.95 105.35 197.7
L 103.05 196.4 Z"/>
</g>

<g id="Layer0_0_MEMBER_1_MEMBER_1_MEMBER_1_MEMBER_73_FILL">
<path fill="#393842" stroke="none" d="
M 107.3 203.6
Q 107.45 203.55 107.45 203.4
L 107.45 203.1 107.3 203.15 106.65 202.75
Q 106.25 202.6 105.8 202.75
L 103.7 204 103.35 204.1 103.35 204.35
Q 103.35 204.55 103.5 204.6
L 104.15 204.95
Q 104.55 205.25 105 204.95
L 107.3 203.6 Z"/>
</g>

<g id="Layer0_0_MEMBER_1_MEMBER_1_MEMBER_1_MEMBER_74_FILL">
<path fill="#393842" stroke="none" d="
M 109.15 204.1
L 109 204.15 109 204.1 108.35 203.75
Q 107.95 203.5 107.5 203.75
L 105.35 205 105.05 205.05 105.05 205.35
Q 105.05 205.45 105.2 205.6
L 105.85 205.95
Q 106.35 206.2 106.65 205.95
L 109 204.6
Q 109.15 204.55 109.15 204.35
L 109.15 204.1 Z"/>
</g>

<g id="Layer0_0_MEMBER_1_MEMBER_1_MEMBER_1_MEMBER_75_FILL">
<path fill="#393842" stroke="none" d="
M 66.6 221.85
Q 66.15 221.55 65.75 221.85
L 63.45 223.2
Q 63.25 223.3 63.25 223.45 63.25 223.6 63.45 223.65
L 65.75 225
Q 66.2 225.25 66.6 225
L 68.9 223.65
Q 69.1 223.6 69.1 223.45 69.1 223.3 68.9 223.2
L 66.6 221.85 Z"/>
</g>

<g id="Layer0_0_MEMBER_1_MEMBER_1_MEMBER_2_FILL">
<path fill="#393842" stroke="none" d="
M 43.6 220.9
Q 44.05 221.1 44.45 220.9
L 47.35 219.2
Q 47.5 219.15 47.5 218.95
L 47.5 218.7 47.35 218.75 47.3 218.75 46.7 218.35
Q 46.3 218.2 45.85 218.35
L 43.2 219.9 42.8 220 42.8 220.3 43 220.5 43.6 220.9 Z"/>
</g>

<g id="Layer0_0_MEMBER_1_MEMBER_1_MEMBER_3_MEMBER_0_FILL">
<path fill="#57565E" stroke="none" d="
M 50.4 221.4
Q 50.8 221.15 50.4 220.9
L 48.1 219.55
Q 47.65 219.25 47.25 219.55
L 44.95 220.9
Q 44.55 221.15 44.95 221.4
L 47.25 222.75
Q 47.7 222.9 48.1 222.75
L 50.4 221.4 Z"/>
</g>

<g id="Layer0_0_MEMBER_1_MEMBER_1_MEMBER_3_MEMBER_1_FILL">
<path fill="#57565E" stroke="none" d="
M 54.05 219.3
Q 54.4 219.05 54.05 218.8
L 51.7 217.45
Q 51.3 217.2 50.85 217.45
L 48.55 218.8
Q 48.15 219.05 48.55 219.3
L 50.9 220.6
Q 51.3 220.9 51.7 220.6
L 54.05 219.3 Z"/>
</g>

<g id="Layer0_0_MEMBER_1_MEMBER_1_MEMBER_3_MEMBER_2_FILL">
<path fill="#57565E" stroke="none" d="
M 57.65 217.2
Q 58.05 216.95 57.65 216.7
L 55.3 215.35
Q 54.9 215.05 54.5 215.35
L 52.15 216.7
Q 51.8 216.95 52.15 217.2
L 54.5 218.5
Q 54.95 218.75 55.35 218.5
L 57.65 217.2 Z"/>
</g>

<g id="Layer0_0_MEMBER_1_MEMBER_1_MEMBER_3_MEMBER_3_FILL">
<path fill="#57565E" stroke="none" d="
M 61.45 214.85
Q 61.45 214.7 61.25 214.6
L 58.95 213.25
Q 58.55 213 58.1 213.25
L 55.8 214.6
Q 55.6 214.7 55.6 214.85 55.6 215 55.8 215.1
L 58.1 216.4
Q 58.55 216.7 58.95 216.4
L 61.25 215.1
Q 61.45 215 61.45 214.85 Z"/>
</g>

<g id="Layer0_0_MEMBER_1_MEMBER_1_MEMBER_3_MEMBER_4_FILL">
<path fill="#57565E" stroke="none" d="
M 65.05 212.75
Q 65.05 212.6 64.9 212.5
L 62.55 211.15
Q 62.4 211.05 62.15 211.05 61.9 211.05 61.7 211.15
L 59.4 212.5
Q 59.25 212.6 59.25 212.75 59.25 212.9 59.4 212.95
L 61.75 214.3
Q 62.15 214.6 62.6 214.3
L 64.9 212.95
Q 65.05 212.9 65.05 212.75 Z"/>
</g>

<g id="Layer0_0_MEMBER_1_MEMBER_1_MEMBER_3_MEMBER_5_FILL">
<path fill="#57565E" stroke="none" d="
M 66.2 209.05
Q 65.75 208.75 65.35 209.05
L 63.05 210.4
Q 62.85 210.5 62.85 210.65 62.85 210.8 63.05 210.85
L 65.35 212.2
Q 65.8 212.45 66.2 212.2
L 68.5 210.85
Q 68.7 210.8 68.7 210.65 68.7 210.5 68.5 210.4
L 66.2 209.05 Z"/>
</g>

<g id="Layer0_0_MEMBER_1_MEMBER_1_MEMBER_3_MEMBER_6_FILL">
<path fill="#57565E" stroke="none" d="
M 72.3 208.55
Q 72.3 208.35 72.1 208.3
L 69.8 206.95
Q 69.4 206.7 68.95 206.95
L 66.65 208.3
Q 66.45 208.4 66.45 208.55 66.45 208.7 66.65 208.75
L 68.95 210.1
Q 69.4 210.4 69.8 210.1
L 72.15 208.75
Q 72.3 208.65 72.3 208.55 Z"/>
</g>

<g id="Layer0_0_MEMBER_1_MEMBER_1_MEMBER_3_MEMBER_7_FILL">
<path fill="#57565E" stroke="none" d="
M 75.95 206.4
Q 75.95 206.25 75.75 206.15
L 73.4 204.85
Q 73 204.55 72.6 204.85
L 70.25 206.15
Q 69.85 206.45 70.25 206.65
L 72.6 208
Q 73.05 208.25 73.45 208
L 75.75 206.65
Q 75.95 206.6 75.95 206.4 Z"/>
</g>

<g id="Layer0_0_MEMBER_1_MEMBER_1_MEMBER_3_MEMBER_8_FILL">
<path fill="#57565E" stroke="none" d="
M 79.35 204.55
Q 79.75 204.3 79.35 204.05
L 77.05 202.75
Q 76.65 202.5 76.2 202.75
L 73.9 204.05
Q 73.5 204.3 73.9 204.55
L 76.2 205.9
Q 76.65 206.15 77.05 205.9
L 79.35 204.55 Z"/>
</g>

<g id="Layer0_0_MEMBER_1_MEMBER_1_MEMBER_3_MEMBER_9_FILL">
<path fill="#57565E" stroke="none" d="
M 83 202.45
Q 83.35 202.2 83 201.95
L 80.65 200.65
Q 80.25 200.4 79.8 200.65
L 77.5 201.95
Q 77.15 202.15 77.5 202.45
L 79.85 203.8
Q 80.25 204.1 80.7 203.8
L 83 202.45 Z"/>
</g>

<g id="Layer0_0_MEMBER_1_MEMBER_1_MEMBER_3_MEMBER_10_FILL">
<path fill="#57565E" stroke="none" d="
M 86.6 200.35
Q 87 200.1 86.6 199.85
L 84.3 198.5
Q 83.85 198.3 83.45 198.5
L 81.15 199.85
Q 80.75 200.1 81.15 200.35
L 83.45 201.7
Q 83.9 201.95 84.3 201.7
L 86.6 200.35 Z"/>
</g>

<g id="Layer0_0_MEMBER_1_MEMBER_1_MEMBER_3_MEMBER_11_FILL">
<path fill="#57565E" stroke="none" d="
M 63.35 218.1
Q 63.7 217.85 63.35 217.6
L 61 216.25
Q 60.6 216.05 60.15 216.25
L 57.85 217.6
Q 57.5 217.85 57.85 218.1
L 60.2 219.45
Q 60.6 219.65 61.05 219.45
L 63.35 218.1 Z"/>
</g>

<g id="Layer0_0_MEMBER_1_MEMBER_1_MEMBER_3_MEMBER_12_FILL">
<path fill="#57565E" stroke="none" d="
M 66.95 216
Q 67.35 215.75 66.95 215.5
L 64.65 214.15
Q 64.2 213.95 63.8 214.15
L 61.5 215.5
Q 61.1 215.75 61.5 216
L 63.8 217.35
Q 64.25 217.5 64.65 217.35
L 66.95 216 Z"/>
</g>

<g id="Layer0_0_MEMBER_1_MEMBER_1_MEMBER_3_MEMBER_13_FILL">
<path fill="#57565E" stroke="none" d="
M 70.6 213.9
Q 70.95 213.65 70.55 213.4
L 68.25 212.05
Q 67.85 211.8 67.4 212.05
L 65.1 213.4
Q 64.7 213.65 65.1 213.9
L 67.4 215.25
Q 67.85 215.45 68.25 215.25
L 70.6 213.9 Z"/>
</g>

<g id="Layer0_0_MEMBER_1_MEMBER_1_MEMBER_3_MEMBER_14_FILL">
<path fill="#57565E" stroke="none" d="
M 74.2 211.8
Q 74.6 211.55 74.2 211.3
L 71.85 209.95
Q 71.45 209.65 71.05 209.95
L 68.7 211.3
Q 68.35 211.55 68.7 211.8
L 71.05 213.1
Q 71.45 213.35 71.9 213.15
L 74.2 211.8 Z"/>
</g>

<g id="Layer0_0_MEMBER_1_MEMBER_1_MEMBER_3_MEMBER_15_FILL">
<path fill="#57565E" stroke="none" d="
M 77.8 209.7
Q 78.2 209.45 77.8 209.2
L 75.5 207.85
Q 75.1 207.6 74.65 207.85
L 72.35 209.2
Q 71.95 209.45 72.35 209.7
L 74.65 211
Q 75.1 211.25 75.5 211
L 77.8 209.7 Z"/>
</g>

<g id="Layer0_0_MEMBER_1_MEMBER_1_MEMBER_3_MEMBER_16_FILL">
<path fill="#57565E" stroke="none" d="
M 81.45 207.6
Q 81.85 207.3 81.45 207.1
L 79.1 205.75
Q 78.7 205.5 78.25 205.75
L 75.95 207.1
Q 75.75 207.2 75.75 207.35 75.75 207.5 75.95 207.6
L 78.3 208.9
Q 78.7 209.2 79.15 208.9
L 81.45 207.6 Z"/>
</g>

<g id="Layer0_0_MEMBER_1_MEMBER_1_MEMBER_3_MEMBER_17_FILL">
<path fill="#57565E" stroke="none" d="
M 85.25 205.25
Q 85.25 205.1 85.05 205
L 82.75 203.65
Q 82.3 203.35 81.9 203.65
L 79.6 205
Q 79.4 205.1 79.4 205.25 79.4 205.4 79.6 205.45
L 81.9 206.8
Q 82.35 207.05 82.75 206.8
L 85.05 205.45
Q 85.25 205.4 85.25 205.25 Z"/>
</g>

<g id="Layer0_0_MEMBER_1_MEMBER_1_MEMBER_3_MEMBER_18_FILL">
<path fill="#57565E" stroke="none" d="
M 88.85 203.15
Q 88.85 203 88.65 202.9
L 86.35 201.55
Q 85.95 201.3 85.5 201.55
L 83.2 202.9
Q 83 203 83 203.15 83 203.3 83.2 203.35
L 85.5 204.7
Q 85.95 205 86.35 204.7
L 88.65 203.35
Q 88.85 203.3 88.85 203.15 Z"/>
</g>

<g id="Layer0_0_MEMBER_1_MEMBER_1_MEMBER_3_MEMBER_19_FILL">
<path fill="#57565E" stroke="none" d="
M 92.45 201.05
Q 92.45 200.9 92.3 200.8
L 89.95 199.45
Q 89.8 199.35 89.55 199.35 89.3 199.35 89.1 199.45
L 86.8 200.8
Q 86.65 200.9 86.65 201.05 86.65 201.2 86.8 201.25
L 89.15 202.6
Q 89.55 202.9 90 202.6
L 92.3 201.25
Q 92.45 201.2 92.45 201.05 Z"/>
</g>

<g id="Layer0_0_MEMBER_1_MEMBER_1_MEMBER_3_MEMBER_20_FILL">
<path fill="#57565E" stroke="none" d="
M 93.6 197.35
Q 93.15 197.05 92.75 197.35
L 90.45 198.7
Q 90.25 198.8 90.25 198.95 90.25 199.1 90.45 199.15
L 92.75 200.5
Q 93.2 200.75 93.6 200.5
L 95.9 199.15
Q 96.1 199.1 96.1 198.95 96.1 198.8 95.9 198.7
L 93.6 197.35 Z"/>
</g>

<g id="Layer0_0_MEMBER_1_MEMBER_1_MEMBER_3_MEMBER_21_FILL">
<path fill="#57565E" stroke="none" d="
M 87.05 196.4
L 84.75 197.75
Q 84.35 198 84.75 198.25
L 87.05 199.6
Q 87.5 199.9 87.9 199.6
L 90.2 198.25
Q 90.6 198 90.2 197.75
L 87.9 196.4
Q 87.5 196.25 87.05 196.4 Z"/>
</g>

<g id="Layer0_0_MEMBER_1_MEMBER_1_MEMBER_3_MEMBER_22_FILL">
<path fill="#57565E" stroke="none" d="
M 93.85 196.15
Q 94.2 195.9 93.85 195.65
L 91.5 194.3
Q 91.1 194.1 90.65 194.3
L 88.35 195.65
Q 88 195.9 88.35 196.15
L 90.7 197.5
Q 91.1 197.7 91.55 197.5
L 93.85 196.15 Z"/>
</g>

<g id="Layer0_0_MEMBER_1_MEMBER_1_MEMBER_3_MEMBER_23_FILL">
<path fill="#57565E" stroke="none" d="
M 65.1 229.85
Q 65.45 229.6 65.1 229.35
L 62.75 228
Q 62.35 227.85 61.9 228
L 59.6 229.35
Q 59.2 229.6 59.6 229.85
L 61.95 231.2
Q 62.35 231.5 62.75 231.2
L 65.1 229.85 Z"/>
</g>

<g id="Layer0_0_MEMBER_1_MEMBER_1_MEMBER_3_MEMBER_24_FILL">
<path fill="#57565E" stroke="none" d="
M 68.7 227.75
Q 69.1 227.5 68.7 227.25
L 66.35 225.9
Q 65.95 225.7 65.55 225.9
L 63.2 227.25
Q 62.85 227.5 63.2 227.75
L 65.55 229.1
Q 66 229.35 66.4 229.1
L 68.7 227.75 Z"/>
</g>

<g id="Layer0_0_MEMBER_1_MEMBER_1_MEMBER_3_MEMBER_25_FILL">
<path fill="#57565E" stroke="none" d="
M 72.3 225.65
Q 72.7 225.4 72.3 225.15
L 70 223.8
Q 69.6 223.65 69.15 223.8
L 66.85 225.15
Q 66.45 225.4 66.85 225.65
L 69.15 227
Q 69.6 227.2 70 227
L 72.3 225.65 Z"/>
</g>

<g id="Layer0_0_MEMBER_1_MEMBER_1_MEMBER_3_MEMBER_26_FILL">
<path fill="#57565E" stroke="none" d="
M 75.95 223.55
Q 76.3 223.3 75.95 223.05
L 73.6 221.7
Q 73.2 221.5 72.75 221.7
L 70.45 223.05
Q 70.1 223.3 70.45 223.55
L 72.8 224.9
Q 73.2 225.1 73.65 224.9
L 75.95 223.55 Z"/>
</g>

<g id="Layer0_0_MEMBER_1_MEMBER_1_MEMBER_3_MEMBER_27_FILL">
<path fill="#57565E" stroke="none" d="
M 59.7 220.2
Q 60.1 219.95 59.7 219.7
L 57.4 218.35
Q 57 218.2 56.55 218.35
L 54.25 219.7
Q 53.85 219.95 54.25 220.2
L 56.55 221.55
Q 57 221.75 57.4 221.55
L 59.7 220.2 Z"/>
</g>

<g id="Layer0_0_MEMBER_1_MEMBER_1_MEMBER_3_MEMBER_28_FILL">
<path fill="#57565E" stroke="none" d="
M 94.85 191.9
L 92 193.55
Q 91.6 193.8 92 194.05
L 94.3 195.4
Q 94.75 195.55 95.15 195.4
L 98 193.7
Q 98.2 193.65 98.2 193.5 98.2 193.35 98 193.25
L 95.7 191.9
Q 95.3 191.65 94.85 191.9 Z"/>
</g>

<g id="Layer0_0_MEMBER_1_MEMBER_1_MEMBER_3_MEMBER_29_FILL">
<path fill="#57565E" stroke="none" d="
M 98.1 210.65
Q 98.5 210.4 98.1 210.15
L 95.8 208.8
Q 95.4 208.65 94.95 208.8
L 74.1 220.95
Q 73.7 221.2 74.1 221.45
L 76.4 222.8
Q 76.85 222.95 77.25 222.8
L 98.1 210.65 Z"/>
</g>

<g id="Layer0_0_MEMBER_1_MEMBER_1_MEMBER_3_MEMBER_30_FILL">
<path fill="#57565E" stroke="none" d="
M 47.8 218.2
Q 48.25 218.45 48.65 218.2
L 50.95 216.85
Q 51.35 216.6 50.95 216.35
L 50.3 216
Q 50.15 215.9 49.9 215.9 49.65 215.9 49.45 216
L 47.15 217.35
Q 46.8 217.6 47.15 217.85
L 47.8 218.2 Z"/>
</g>

<g id="Layer0_0_MEMBER_1_MEMBER_1_MEMBER_3_MEMBER_31_FILL">
<path fill="#57565E" stroke="none" d="
M 54.55 214.75
Q 54.95 214.5 54.55 214.25
L 53.95 213.9
Q 53.55 213.65 53.1 213.9
L 50.8 215.25
Q 50.4 215.5 50.8 215.75
L 51.4 216.1
Q 51.85 216.35 52.25 216.1
L 54.55 214.75 Z"/>
</g>

<g id="Layer0_0_MEMBER_1_MEMBER_1_MEMBER_3_MEMBER_32_FILL">
<path fill="#57565E" stroke="none" d="
M 58.2 212.15
L 57.55 211.8
Q 57.15 211.55 56.7 211.8
L 54.4 213.15
Q 54.2 213.25 54.2 213.4 54.2 213.55 54.4 213.65
L 55.05 214
Q 55.45 214.2 55.9 214
L 58.2 212.65
Q 58.55 212.4 58.2 212.15 Z"/>
</g>

<g id="Layer0_0_MEMBER_1_MEMBER_1_MEMBER_3_MEMBER_33_FILL">
<path fill="#57565E" stroke="none" d="
M 61.8 210.05
L 61.15 209.7
Q 60.75 209.4 60.35 209.7
L 58 211.05
Q 57.85 211.15 57.85 211.3 57.85 211.45 58.05 211.5
L 58.65 211.9
Q 59.1 212.05 59.5 211.9
L 61.8 210.55
Q 62.2 210.3 61.8 210.05 Z"/>
</g>

<g id="Layer0_0_MEMBER_1_MEMBER_1_MEMBER_3_MEMBER_34_FILL">
<path fill="#57565E" stroke="none" d="
M 62.25 209.8
Q 62.7 210 63.1 209.8
L 65.4 208.45
Q 65.8 208.2 65.4 207.95
L 64.8 207.6
Q 64.4 207.35 63.95 207.6
L 61.65 208.95
Q 61.45 209.05 61.45 209.2 61.45 209.35 61.65 209.4
L 62.25 209.8 Z"/>
</g>

<g id="Layer0_0_MEMBER_1_MEMBER_1_MEMBER_3_MEMBER_35_FILL">
<path fill="#57565E" stroke="none" d="
M 65.25 206.85
Q 65.1 206.95 65.1 207.1 65.1 207.25 65.25 207.3
L 65.9 207.7
Q 66.3 207.9 66.75 207.7
L 69.05 206.35
Q 69.4 206.1 69.05 205.85
L 68.4 205.5
Q 68.25 205.4 68 205.4 67.75 205.4 67.55 205.5
L 65.25 206.85 Z"/>
</g>

<g id="Layer0_0_MEMBER_1_MEMBER_1_MEMBER_3_MEMBER_36_FILL">
<path fill="#57565E" stroke="none" d="
M 72.65 204.25
Q 73.05 204 72.65 203.75
L 72.05 203.4
Q 71.6 203.1 71.2 203.4
L 68.9 204.75
Q 68.7 204.85 68.7 205 68.7 205.15 68.9 205.2
L 69.5 205.6
Q 69.95 205.75 70.35 205.6
L 72.65 204.25 Z"/>
</g>

<g id="Layer0_0_MEMBER_1_MEMBER_1_MEMBER_3_MEMBER_37_FILL">
<path fill="#57565E" stroke="none" d="
M 76.3 202.15
Q 76.65 201.9 76.3 201.65
L 75.65 201.3
Q 75.25 201.05 74.8 201.3
L 72.5 202.6
Q 72.3 202.7 72.3 202.85 72.3 203.05 72.5 203.1
L 73.15 203.45
Q 73.55 203.75 73.95 203.45
L 76.3 202.15 Z"/>
</g>

<g id="Layer0_0_MEMBER_1_MEMBER_1_MEMBER_3_MEMBER_38_FILL">
<path fill="#57565E" stroke="none" d="
M 79.9 199.55
L 79.25 199.2
Q 78.85 198.9 78.45 199.2
L 76.1 200.5
Q 75.75 200.75 76.1 201
L 76.75 201.35
Q 77.2 201.6 77.6 201.35
L 79.9 200.05
Q 80.1 199.95 80.1 199.8 80.1 199.65 79.9 199.55 Z"/>
</g>

<g id="Layer0_0_MEMBER_1_MEMBER_1_MEMBER_3_MEMBER_39_FILL">
<path fill="#57565E" stroke="none" d="
M 83.7 197.7
Q 83.7 197.55 83.5 197.45
L 82.9 197.05
Q 82.5 196.9 82.05 197.05
L 79.75 198.4
Q 79.35 198.65 79.75 198.9
L 80.35 199.25
Q 80.8 199.55 81.2 199.25
L 83.5 197.9
Q 83.7 197.85 83.7 197.7 Z"/>
</g>

<g id="Layer0_0_MEMBER_1_MEMBER_1_MEMBER_3_MEMBER_40_FILL">
<path fill="#57565E" stroke="none" d="
M 85.65 194.95
L 83.35 196.3
Q 83 196.55 83.35 196.8
L 84 197.15
Q 84.4 197.45 84.85 197.15
L 87.15 195.8
Q 87.3 195.75 87.3 195.6 87.3 195.45 87.15 195.35
L 86.5 194.95
Q 86.1 194.75 85.65 194.95 Z"/>
</g>

<g id="Layer0_0_MEMBER_1_MEMBER_1_MEMBER_3_MEMBER_41_FILL">
<path fill="#57565E" stroke="none" d="
M 90.95 193.5
Q 90.95 193.35 90.75 193.25
L 90.15 192.85
Q 89.7 192.65 89.3 192.85
L 87 194.2
Q 86.6 194.45 87 194.7
L 87.6 195.05
Q 88.05 195.3 88.45 195.05
L 90.75 193.7
Q 90.95 193.65 90.95 193.5 Z"/>
</g>

<g id="Layer0_0_MEMBER_1_MEMBER_1_MEMBER_3_MEMBER_42_FILL">
<path fill="#57565E" stroke="none" d="
M 90.6 192.1
Q 90.2 192.35 90.6 192.6
L 91.25 192.95
Q 91.65 193.25 92.05 192.95
L 94.4 191.6
Q 94.55 191.55 94.55 191.4 94.55 191.25 94.4 191.15
L 93.75 190.75
Q 93.35 190.6 92.9 190.75
L 90.6 192.1 Z"/>
</g>

<g id="Layer0_0_MEMBER_1_MEMBER_1_MEMBER_3_MEMBER_43_FILL">
<path fill="#57565E" stroke="none" d="
M 43 219.75
Q 42.8 219.85 42.8 220 42.8 220.2 43 220.25
L 43.6 220.6
Q 44.05 220.9 44.45 220.6
L 47.35 218.95
Q 47.7 218.7 47.3 218.45
L 46.7 218.1
Q 46.3 217.85 45.85 218.1
L 43 219.75 Z"/>
</g>

<g id="Layer0_0_MEMBER_1_MEMBER_1_MEMBER_3_MEMBER_44_FILL">
<path fill="#57565E" stroke="none" d="
M 56.1 221.85
L 53.8 220.5
Q 53.4 220.25 52.95 220.5
L 48.6 223
Q 48.2 223.25 48.6 223.5
L 50.95 224.85
Q 51.35 225.15 51.75 224.85
L 56.1 222.3
Q 56.3 222.25 56.3 222.1 56.3 221.95 56.1 221.85 Z"/>
</g>

<g id="Layer0_0_MEMBER_1_MEMBER_1_MEMBER_3_MEMBER_45_FILL">
<path fill="#57565E" stroke="none" d="
M 59.25 221.55
Q 58.85 221.25 58.45 221.55
L 52.25 225.15
Q 52.1 225.25 52.1 225.4 52.1 225.55 52.25 225.6
L 54.6 226.95
Q 55.05 227.2 55.45 226.95
L 61.6 223.4
Q 62 223.15 61.6 222.9
L 59.25 221.55 Z"/>
</g>

<g id="Layer0_0_MEMBER_1_MEMBER_1_MEMBER_3_MEMBER_46_FILL">
<path fill="#57565E" stroke="none" d="
M 55.95 227.25
Q 55.6 227.5 55.95 227.75
L 58.3 229.1
Q 58.7 229.4 59.15 229.1
L 65.3 225.5
Q 65.7 225.3 65.3 225
L 62.95 223.7
Q 62.8 223.6 62.55 223.6 62.3 223.6 62.1 223.7
L 55.95 227.25 Z"/>
</g>

<g id="Layer0_0_MEMBER_1_MEMBER_1_MEMBER_3_MEMBER_47_FILL">
<path fill="#57565E" stroke="none" d="
M 101.7 195.85
Q 102.05 195.6 101.7 195.35
L 99.35 194
Q 99.2 193.9 98.95 193.9 98.7 193.9 98.5 194
L 94.1 196.6
Q 93.9 196.7 93.9 196.85 93.9 197 94.1 197.05
L 96.4 198.4
Q 96.85 198.65 97.25 198.4
L 101.7 195.85 Z"/>
</g>

<g id="Layer0_0_MEMBER_1_MEMBER_1_MEMBER_3_MEMBER_48_FILL">
<path fill="#57565E" stroke="none" d="
M 105.35 197.95
Q 105.75 197.7 105.35 197.45
L 103.05 196.1
Q 102.6 195.9 102.2 196.1
L 95.95 199.75
Q 95.55 200 95.95 200.25
L 98.25 201.6
Q 98.7 201.75 99.1 201.6
L 105.35 197.95 Z"/>
</g>

<g id="Layer0_0_MEMBER_1_MEMBER_1_MEMBER_3_MEMBER_49_FILL">
<path fill="#57565E" stroke="none" d="
M 107.3 203.35
Q 107.7 203.15 107.3 202.85
L 106.65 202.5
Q 106.25 202.35 105.8 202.5
L 103.5 203.85
Q 103.15 204.05 103.5 204.35
L 104.15 204.7
Q 104.55 205 105 204.7
L 107.3 203.35 Z"/>
</g>

<g id="Layer0_0_MEMBER_1_MEMBER_1_MEMBER_3_MEMBER_50_FILL">
<path fill="#57565E" stroke="none" d="
M 109 203.85
L 108.35 203.5
Q 107.95 203.25 107.5 203.5
L 105.2 204.85
Q 105 204.95 105 205.1 105 205.25 105.2 205.3
L 105.85 205.7
Q 106.25 205.9 106.65 205.7
L 109 204.35
Q 109.35 204.1 109 203.85 Z"/>
</g>

<g id="Layer0_0_MEMBER_1_MEMBER_1_MEMBER_3_MEMBER_51_FILL">
<path fill="#57565E" stroke="none" d="
M 94.15 204.45
Q 94.55 204.2 94.15 203.95
L 91.85 202.6
Q 91.45 202.45 91 202.6
L 88.7 203.95
Q 88.3 204.2 88.7 204.45
L 91 205.8
Q 91.45 206.1 91.85 205.8
L 94.15 204.45 Z"/>
</g>

<g id="Layer0_0_MEMBER_1_MEMBER_1_MEMBER_3_MEMBER_52_FILL">
<path fill="#57565E" stroke="none" d="
M 97.8 202.35
Q 98.15 202.15 97.8 201.85
L 95.45 200.5
Q 95.05 200.3 94.6 200.5
L 92.3 201.85
Q 91.95 202.1 92.3 202.35
L 94.65 203.7
Q 95.1 203.85 95.5 203.7
L 97.8 202.35 Z"/>
</g>

<g id="Layer0_0_MEMBER_1_MEMBER_1_MEMBER_3_MEMBER_53_FILL">
<path fill="#57565E" stroke="none" d="
M 97.85 206.6
Q 98.25 206.35 97.85 206.1
L 95.55 204.75
Q 95.15 204.5 94.7 204.75
L 92.4 206.1
Q 92 206.35 92.4 206.6
L 94.7 207.9
Q 95.15 208.15 95.55 207.9
L 97.85 206.6 Z"/>
</g>

<g id="Layer0_0_MEMBER_1_MEMBER_1_MEMBER_3_MEMBER_54_FILL">
<path fill="#57565E" stroke="none" d="
M 101.5 204.5
Q 101.9 204.2 101.5 204
L 99.15 202.65
Q 98.75 202.4 98.3 202.65
L 96 204
Q 95.55 204.2 96 204.5
L 98.35 205.8
Q 98.75 206.1 99.2 205.8
L 101.5 204.5 Z"/>
</g>

<g id="Layer0_0_MEMBER_1_MEMBER_1_MEMBER_3_MEMBER_55_FILL">
<path fill="#57565E" stroke="none" d="
M 105.3 202.15
Q 105.3 202 105.1 201.9
L 102.8 200.55
Q 102.35 200.25 101.95 200.55
L 99.65 201.9
Q 99.45 202 99.45 202.15 99.45 202.3 99.65 202.35
L 101.95 203.7
Q 102.4 203.95 102.8 203.7
L 105.1 202.35
Q 105.3 202.3 105.3 202.15 Z"/>
</g>

<g id="Layer0_0_MEMBER_1_MEMBER_1_MEMBER_3_MEMBER_56_FILL">
<path fill="#57565E" stroke="none" d="
M 109.05 199.6
L 106.7 198.25
Q 106.3 197.95 105.9 198.25
L 103.25 199.8
Q 103.05 199.9 103.05 200.05 103.05 200.2 103.25 200.25
L 105.55 201.6
Q 106 201.9 106.4 201.6
L 109.05 200.1
Q 109.45 199.85 109.05 199.6 Z"/>
</g>

<g id="Layer0_0_MEMBER_1_MEMBER_1_MEMBER_3_MEMBER_57_FILL">
<path fill="#57565E" stroke="none" d="
M 86.95 208.65
Q 87.3 208.4 86.95 208.15
L 84.6 206.85
Q 84.2 206.6 83.75 206.85
L 81.45 208.15
Q 81.1 208.35 81.45 208.65
L 83.8 210
Q 84.2 210.3 84.65 210
L 86.95 208.65 Z"/>
</g>

<g id="Layer0_0_MEMBER_1_MEMBER_1_MEMBER_3_MEMBER_58_FILL">
<path fill="#57565E" stroke="none" d="
M 90.55 206.55
Q 90.95 206.3 90.55 206.05
L 88.25 204.7
Q 87.8 204.5 87.4 204.7
L 85.1 206.05
Q 84.7 206.3 85.1 206.55
L 87.4 207.9
Q 87.85 208.15 88.25 207.9
L 90.55 206.55 Z"/>
</g>

<g id="Layer0_0_MEMBER_1_MEMBER_1_MEMBER_3_MEMBER_59_FILL">
<path fill="#57565E" stroke="none" d="
M 90.65 210.8
Q 91 210.55 90.6 210.3
L 88.3 208.95
Q 87.9 208.7 87.45 208.95
L 85.15 210.3
Q 84.75 210.55 85.15 210.8
L 87.5 212.15
Q 87.9 212.35 88.3 212.15
L 90.65 210.8 Z"/>
</g>

<g id="Layer0_0_MEMBER_1_MEMBER_1_MEMBER_3_MEMBER_60_FILL">
<path fill="#57565E" stroke="none" d="
M 94.25 208.7
Q 94.65 208.45 94.25 208.2
L 91.9 206.85
Q 91.5 206.55 91.1 206.85
L 88.75 208.2
Q 88.4 208.45 88.75 208.7
L 91.1 210.05
Q 91.55 210.2 91.95 210.05
L 94.25 208.7 Z"/>
</g>

<g id="Layer0_0_MEMBER_1_MEMBER_1_MEMBER_3_MEMBER_61_FILL">
<path fill="#57565E" stroke="none" d="
M 79.9 212.65
Q 79.9 212.5 79.7 212.4
L 77.35 211.05
Q 76.95 210.75 76.55 211.05
L 74.2 212.4
Q 74.05 212.5 74.05 212.65 74.05 212.8 74.2 212.85
L 76.55 214.2
Q 77 214.45 77.4 214.2
L 79.7 212.85
Q 79.9 212.8 79.9 212.65 Z"/>
</g>

<g id="Layer0_0_MEMBER_1_MEMBER_1_MEMBER_3_MEMBER_62_FILL">
<path fill="#57565E" stroke="none" d="
M 83.3 210.75
Q 83.7 210.5 83.3 210.25
L 81 208.95
Q 80.6 208.7 80.15 208.95
L 77.85 210.25
Q 77.45 210.5 77.85 210.75
L 80.15 212.1
Q 80.6 212.35 81 212.1
L 83.3 210.75 Z"/>
</g>

<g id="Layer0_0_MEMBER_1_MEMBER_1_MEMBER_3_MEMBER_63_FILL">
<path fill="#57565E" stroke="none" d="
M 83.4 215
Q 83.75 214.75 83.4 214.5
L 81.05 213.15
Q 80.65 212.95 80.2 213.15
L 77.9 214.5
Q 77.55 214.75 77.9 215
L 80.25 216.35
Q 80.65 216.55 81.1 216.35
L 83.4 215 Z"/>
</g>

<g id="Layer0_0_MEMBER_1_MEMBER_1_MEMBER_3_MEMBER_64_FILL">
<path fill="#57565E" stroke="none" d="
M 87 212.9
Q 87.4 212.65 87 212.4
L 84.7 211.05
Q 84.25 210.85 83.85 211.05
L 81.55 212.4
Q 81.15 212.65 81.55 212.9
L 83.85 214.25
Q 84.3 214.4 84.7 214.25
L 87 212.9 Z"/>
</g>

<g id="Layer0_0_MEMBER_1_MEMBER_1_MEMBER_3_MEMBER_65_FILL">
<path fill="#57565E" stroke="none" d="
M 69.3 218.4
Q 69.75 218.65 70.15 218.4
L 72.45 217.05
Q 72.65 217 72.65 216.85 72.65 216.7 72.45 216.6
L 70.15 215.25
Q 69.7 214.95 69.3 215.25
L 67 216.6
Q 66.8 216.7 66.8 216.85 66.8 217 67 217.05
L 69.3 218.4 Z"/>
</g>

<g id="Layer0_0_MEMBER_1_MEMBER_1_MEMBER_3_MEMBER_66_FILL">
<path fill="#57565E" stroke="none" d="
M 70.4 214.75
Q 70.4 214.9 70.6 214.95
L 72.95 216.3
Q 73.35 216.6 73.75 216.3
L 76.1 214.95
Q 76.25 214.85 76.25 214.75 76.25 214.55 76.05 214.5
L 73.75 213.15
Q 73.35 212.9 72.9 213.15
L 70.6 214.5
Q 70.4 214.6 70.4 214.75 Z"/>
</g>

<g id="Layer0_0_MEMBER_1_MEMBER_1_MEMBER_3_MEMBER_67_FILL">
<path fill="#57565E" stroke="none" d="
M 76.15 219.2
Q 76.55 218.95 76.15 218.7
L 73.8 217.35
Q 73.4 217.15 73 217.35
L 70.65 218.7
Q 70.3 218.95 70.65 219.2
L 73 220.55
Q 73.45 220.8 73.85 220.55
L 76.15 219.2 Z"/>
</g>

<g id="Layer0_0_MEMBER_1_MEMBER_1_MEMBER_3_MEMBER_68_FILL">
<path fill="#57565E" stroke="none" d="
M 79.75 217.1
Q 80.15 216.85 79.75 216.6
L 77.45 215.25
Q 77.05 215.1 76.6 215.25
L 74.3 216.6
Q 73.9 216.85 74.3 217.1
L 76.6 218.45
Q 77.05 218.65 77.45 218.45
L 79.75 217.1 Z"/>
</g>

<g id="Layer0_0_MEMBER_1_MEMBER_1_MEMBER_3_MEMBER_69_FILL">
<path fill="#57565E" stroke="none" d="
M 65.4 221.05
Q 65.4 220.9 65.2 220.8
L 62.9 219.45
Q 62.5 219.2 62.05 219.45
L 59.75 220.8
Q 59.55 220.9 59.55 221.05 59.55 221.2 59.75 221.3
L 62.05 222.6
Q 62.5 222.9 62.9 222.6
L 65.2 221.3
Q 65.4 221.2 65.4 221.05 Z"/>
</g>

<g id="Layer0_0_MEMBER_1_MEMBER_1_MEMBER_3_MEMBER_70_FILL">
<path fill="#57565E" stroke="none" d="
M 65.65 217.35
L 63.35 218.7
Q 63.2 218.8 63.2 218.95 63.2 219.1 63.35 219.15
L 65.7 220.5
Q 66.1 220.8 66.55 220.5
L 68.85 219.15
Q 69 219.1 69 218.95 69 218.8 68.85 218.7
L 66.5 217.35
Q 66.35 217.25 66.1 217.25 65.85 217.25 65.65 217.35 Z"/>
</g>

<g id="Layer0_0_MEMBER_1_MEMBER_1_MEMBER_3_MEMBER_71_FILL">
<path fill="#57565E" stroke="none" d="
M 68.9 223.4
Q 69.3 223.15 68.9 222.9
L 66.6 221.6
Q 66.15 221.3 65.75 221.6
L 63.45 222.9
Q 63.05 223.15 63.45 223.4
L 65.75 224.75
Q 66.2 225 66.6 224.75
L 68.9 223.4 Z"/>
</g>

<g id="Layer0_0_MEMBER_1_MEMBER_1_MEMBER_3_MEMBER_72_FILL">
<path fill="#57565E" stroke="none" d="
M 72.55 221.3
Q 72.9 221.05 72.55 220.8
L 70.2 219.45
Q 69.75 219.25 69.35 219.5
L 67.05 220.8
Q 66.65 221.05 67.05 221.3
L 69.4 222.65
Q 69.8 222.95 70.2 222.65
L 72.55 221.3 Z"/>
</g>

<g id="Layer0_0_MEMBER_1_MEMBER_1_MEMBER_3_MEMBER_73_FILL">
<path fill="#57565E" stroke="none" d="
M 101.75 208.55
Q 102.1 208.35 101.75 208.05
L 99.4 206.7
Q 99 206.5 98.55 206.7
L 96.25 208.05
Q 95.9 208.3 96.25 208.55
L 98.6 209.9
Q 99.05 210.05 99.45 209.9
L 101.75 208.55 Z"/>
</g>

<g id="Layer0_0_MEMBER_1_MEMBER_1_MEMBER_3_MEMBER_74_FILL">
<path fill="#57565E" stroke="none" d="
M 105.35 206.45
Q 105.75 206.2 105.35 205.95
L 103.05 204.6
Q 102.65 204.45 102.2 204.6
L 99.9 205.95
Q 99.5 206.2 99.9 206.45
L 102.2 207.8
Q 102.65 207.95 103.05 207.8
L 105.35 206.45 Z"/>
</g>

<g id="Layer0_0_MEMBER_1_MEMBER_1_MEMBER_3_MEMBER_75_FILL">
<path fill="#57565E" stroke="none" d="
M 112.7 202.2
Q 113.05 201.95 112.7 201.7
L 110.35 200.35
Q 110.2 200.25 109.95 200.25 109.7 200.25 109.5 200.35
L 107.2 201.7
Q 106.85 201.95 107.2 202.2
L 109.55 203.55
Q 109.95 203.75 110.4 203.55
L 112.7 202.2 Z"/>
</g>
</defs>

<g transform="matrix( 7, 0, 0, 7, 30.75,-843.55) ">
<use xlink:href="#Layer0_0_MEMBER_0_FILL"/>
</g>

<g transform="matrix( 7, 0, 0, 7, 30.75,-843.55) ">
<use xlink:href="#Layer0_0_MEMBER_1_MEMBER_0_MEMBER_0_FILL"/>
</g>

<g transform="matrix( 7, 0, 0, 7, 30.75,-843.55) ">
<use xlink:href="#Layer0_0_MEMBER_1_MEMBER_0_MEMBER_1_FILL"/>
</g>

<g transform="matrix( 7, 0, 0, 7, 30.75,-843.55) ">
<use xlink:href="#Layer0_0_MEMBER_1_MEMBER_0_MEMBER_2_FILL"/>
</g>

<g transform="matrix( 7, 0, 0, 7, 30.75,-843.55) ">
<use xlink:href="#Layer0_0_MEMBER_1_MEMBER_0_MEMBER_3_MEMBER_0_FILL"/>
</g>

<g transform="matrix( 7, 0, 0, 7, 30.75,-843.55) ">
<use xlink:href="#Layer0_0_MEMBER_1_MEMBER_0_MEMBER_3_MEMBER_1_FILL"/>
</g>

<g transform="matrix( 7, 0, 0, 7, 30.75,-843.55) ">
<use xlink:href="#Layer0_0_MEMBER_1_MEMBER_0_MEMBER_4_MEMBER_0_FILL"/>
</g>

<g transform="matrix( 7, 0, 0, 7, 30.75,-843.55) ">
<use xlink:href="#Layer0_0_MEMBER_1_MEMBER_0_MEMBER_4_MEMBER_1_FILL"/>
</g>

<g transform="matrix( 7, 0, 0, 7, 30.75,-843.55) ">
<use xlink:href="#Layer0_0_MEMBER_1_MEMBER_0_MEMBER_5_MEMBER_0_FILL"/>
</g>

<g transform="matrix( 7, 0, 0, 7, 30.75,-843.55) ">
<use xlink:href="#Layer0_0_MEMBER_1_MEMBER_0_MEMBER_5_MEMBER_1_FILL"/>
</g>

<g transform="matrix( 7, 0, 0, 7, 30.75,-843.55) ">
<use xlink:href="#Layer0_0_MEMBER_1_MEMBER_0_MEMBER_6_FILL"/>
</g>

<g transform="matrix( 7, 0, 0, 7, 30.75,-843.55) ">
<use xlink:href="#Layer0_0_MEMBER_1_MEMBER_0_MEMBER_7_MEMBER_0_FILL"/>
</g>

<g transform="matrix( 7, 0, 0, 7, 30.75,-843.55) ">
<use xlink:href="#Layer0_0_MEMBER_1_MEMBER_0_MEMBER_7_MEMBER_1_FILL"/>
</g>

<g transform="matrix( 7, 0, 0, 7, 30.75,-843.55) ">
<use xlink:href="#Layer0_0_MEMBER_1_MEMBER_0_MEMBER_7_MEMBER_2_FILL"/>
</g>

<g transform="matrix( 7, 0, 0, 7, 354.85,206.8) ">
<use xlink:href="#Layer0_0_MEMBER_1_MEMBER_0_MEMBER_7_MEMBER_3_FILL"/>
</g>

<g transform="matrix( 7, 0, 0, 7, 30.75,-843.55) ">
<use xlink:href="#Layer0_0_MEMBER_1_MEMBER_1_MEMBER_0_MEMBER_0_FILL"/>
</g>

<g transform="matrix( 7, 0, 0, 7, 30.75,-843.55) ">
<use xlink:href="#Layer0_0_MEMBER_1_MEMBER_1_MEMBER_0_MEMBER_1_FILL"/>
</g>

<g transform="matrix( 7, 0, 0, 7, 30.75,-843.55) ">
<use xlink:href="#Layer0_0_MEMBER_1_MEMBER_1_MEMBER_0_MEMBER_2_FILL"/>
</g>

<g transform="matrix( 7, 0, 0, 7, 30.75,-843.55) ">
<use xlink:href="#Layer0_0_MEMBER_1_MEMBER_1_MEMBER_0_MEMBER_3_FILL"/>
</g>

<g transform="matrix( 7, 0, 0, 7, 30.75,-843.55) ">
<use xlink:href="#Layer0_0_MEMBER_1_MEMBER_1_MEMBER_0_MEMBER_4_FILL"/>
</g>

<g transform="matrix( 7, 0, 0, 7, 30.75,-843.55) ">
<use xlink:href="#Layer0_0_MEMBER_1_MEMBER_1_MEMBER_1_MEMBER_0_FILL"/>
</g>

<g transform="matrix( 7, 0, 0, 7, 30.75,-843.55) ">
<use xlink:href="#Layer0_0_MEMBER_1_MEMBER_1_MEMBER_1_MEMBER_1_FILL"/>
</g>

<g transform="matrix( 7, 0, 0, 7, 30.75,-843.55) ">
<use xlink:href="#Layer0_0_MEMBER_1_MEMBER_1_MEMBER_1_MEMBER_2_FILL"/>
</g>

<g transform="matrix( 7, 0, 0, 7, 30.75,-843.55) ">
<use xlink:href="#Layer0_0_MEMBER_1_MEMBER_1_MEMBER_1_MEMBER_3_FILL"/>
</g>

<g transform="matrix( 7, 0, 0, 7, 30.75,-843.55) ">
<use xlink:href="#Layer0_0_MEMBER_1_MEMBER_1_MEMBER_1_MEMBER_4_FILL"/>
</g>

<g transform="matrix( 7, 0, 0, 7, 30.75,-843.55) ">
<use xlink:href="#Layer0_0_MEMBER_1_MEMBER_1_MEMBER_1_MEMBER_5_FILL"/>
</g>

<g transform="matrix( 7, 0, 0, 7, 30.75,-843.55) ">
<use xlink:href="#Layer0_0_MEMBER_1_MEMBER_1_MEMBER_1_MEMBER_6_FILL"/>
</g>

<g transform="matrix( 7, 0, 0, 7, 30.75,-843.55) ">
<use xlink:href="#Layer0_0_MEMBER_1_MEMBER_1_MEMBER_1_MEMBER_7_FILL"/>
</g>

<g transform="matrix( 7, 0, 0, 7, 30.75,-843.55) ">
<use xlink:href="#Layer0_0_MEMBER_1_MEMBER_1_MEMBER_1_MEMBER_8_FILL"/>
</g>

<g transform="matrix( 7, 0, 0, 7, 30.75,-843.55) ">
<use xlink:href="#Layer0_0_MEMBER_1_MEMBER_1_MEMBER_1_MEMBER_9_FILL"/>
</g>

<g transform="matrix( 7, 0, 0, 7, 30.75,-843.55) ">
<use xlink:href="#Layer0_0_MEMBER_1_MEMBER_1_MEMBER_1_MEMBER_10_FILL"/>
</g>

<g transform="matrix( 7, 0, 0, 7, 30.75,-843.55) ">
<use xlink:href="#Layer0_0_MEMBER_1_MEMBER_1_MEMBER_1_MEMBER_11_FILL"/>
</g>

<g transform="matrix( 7, 0, 0, 7, 30.75,-843.55) ">
<use xlink:href="#Layer0_0_MEMBER_1_MEMBER_1_MEMBER_1_MEMBER_12_FILL"/>
</g>

<g transform="matrix( 7, 0, 0, 7, 30.75,-843.55) ">
<use xlink:href="#Layer0_0_MEMBER_1_MEMBER_1_MEMBER_1_MEMBER_13_FILL"/>
</g>

<g transform="matrix( 7, 0, 0, 7, 30.75,-843.55) ">
<use xlink:href="#Layer0_0_MEMBER_1_MEMBER_1_MEMBER_1_MEMBER_14_FILL"/>
</g>

<g transform="matrix( 7, 0, 0, 7, 30.75,-843.55) ">
<use xlink:href="#Layer0_0_MEMBER_1_MEMBER_1_MEMBER_1_MEMBER_15_FILL"/>
</g>

<g transform="matrix( 7, 0, 0, 7, 30.75,-843.55) ">
<use xlink:href="#Layer0_0_MEMBER_1_MEMBER_1_MEMBER_1_MEMBER_16_FILL"/>
</g>

<g transform="matrix( 7, 0, 0, 7, 30.75,-843.55) ">
<use xlink:href="#Layer0_0_MEMBER_1_MEMBER_1_MEMBER_1_MEMBER_17_FILL"/>
</g>

<g transform="matrix( 7, 0, 0, 7, 30.75,-843.55) ">
<use xlink:href="#Layer0_0_MEMBER_1_MEMBER_1_MEMBER_1_MEMBER_18_FILL"/>
</g>

<g transform="matrix( 7, 0, 0, 7, 30.75,-843.55) ">
<use xlink:href="#Layer0_0_MEMBER_1_MEMBER_1_MEMBER_1_MEMBER_19_FILL"/>
</g>

<g transform="matrix( 7, 0, 0, 7, 30.75,-843.55) ">
<use xlink:href="#Layer0_0_MEMBER_1_MEMBER_1_MEMBER_1_MEMBER_20_FILL"/>
</g>

<g transform="matrix( 7, 0, 0, 7, 30.75,-843.55) ">
<use xlink:href="#Layer0_0_MEMBER_1_MEMBER_1_MEMBER_1_MEMBER_21_FILL"/>
</g>

<g transform="matrix( 7, 0, 0, 7, 30.75,-843.55) ">
<use xlink:href="#Layer0_0_MEMBER_1_MEMBER_1_MEMBER_1_MEMBER_22_FILL"/>
</g>

<g transform="matrix( 7, 0, 0, 7, 30.75,-843.55) ">
<use xlink:href="#Layer0_0_MEMBER_1_MEMBER_1_MEMBER_1_MEMBER_23_FILL"/>
</g>

<g transform="matrix( 7, 0, 0, 7, 30.75,-843.55) ">
<use xlink:href="#Layer0_0_MEMBER_1_MEMBER_1_MEMBER_1_MEMBER_24_FILL"/>
</g>

<g transform="matrix( 7, 0, 0, 7, 30.75,-843.55) ">
<use xlink:href="#Layer0_0_MEMBER_1_MEMBER_1_MEMBER_1_MEMBER_25_FILL"/>
</g>

<g transform="matrix( 7, 0, 0, 7, 30.75,-843.55) ">
<use xlink:href="#Layer0_0_MEMBER_1_MEMBER_1_MEMBER_1_MEMBER_26_FILL"/>
</g>

<g transform="matrix( 7, 0, 0, 7, 30.75,-843.55) ">
<use xlink:href="#Layer0_0_MEMBER_1_MEMBER_1_MEMBER_1_MEMBER_27_FILL"/>
</g>

<g transform="matrix( 7, 0, 0, 7, 30.75,-843.55) ">
<use xlink:href="#Layer0_0_MEMBER_1_MEMBER_1_MEMBER_1_MEMBER_28_FILL"/>
</g>

<g transform="matrix( 7, 0, 0, 7, 30.75,-843.55) ">
<use xlink:href="#Layer0_0_MEMBER_1_MEMBER_1_MEMBER_1_MEMBER_29_FILL"/>
</g>

<g transform="matrix( 7, 0, 0, 7, 30.75,-843.55) ">
<use xlink:href="#Layer0_0_MEMBER_1_MEMBER_1_MEMBER_1_MEMBER_30_FILL"/>
</g>

<g transform="matrix( 7, 0, 0, 7, 30.75,-843.55) ">
<use xlink:href="#Layer0_0_MEMBER_1_MEMBER_1_MEMBER_1_MEMBER_31_FILL"/>
</g>

<g transform="matrix( 7, 0, 0, 7, 30.75,-843.55) ">
<use xlink:href="#Layer0_0_MEMBER_1_MEMBER_1_MEMBER_1_MEMBER_32_FILL"/>
</g>

<g transform="matrix( 7, 0, 0, 7, 30.75,-843.55) ">
<use xlink:href="#Layer0_0_MEMBER_1_MEMBER_1_MEMBER_1_MEMBER_33_FILL"/>
</g>

<g transform="matrix( 7, 0, 0, 7, 30.75,-843.55) ">
<use xlink:href="#Layer0_0_MEMBER_1_MEMBER_1_MEMBER_1_MEMBER_34_FILL"/>
</g>

<g transform="matrix( 7, 0, 0, 7, 30.75,-843.55) ">
<use xlink:href="#Layer0_0_MEMBER_1_MEMBER_1_MEMBER_1_MEMBER_35_FILL"/>
</g>

<g transform="matrix( 7, 0, 0, 7, 30.75,-843.55) ">
<use xlink:href="#Layer0_0_MEMBER_1_MEMBER_1_MEMBER_1_MEMBER_36_FILL"/>
</g>

<g transform="matrix( 7, 0, 0, 7, 30.75,-843.55) ">
<use xlink:href="#Layer0_0_MEMBER_1_MEMBER_1_MEMBER_1_MEMBER_37_FILL"/>
</g>

<g transform="matrix( 7, 0, 0, 7, 30.75,-843.55) ">
<use xlink:href="#Layer0_0_MEMBER_1_MEMBER_1_MEMBER_1_MEMBER_38_FILL"/>
</g>

<g transform="matrix( 7, 0, 0, 7, 30.75,-843.55) ">
<use xlink:href="#Layer0_0_MEMBER_1_MEMBER_1_MEMBER_1_MEMBER_39_FILL"/>
</g>

<g transform="matrix( 7, 0, 0, 7, 30.75,-843.55) ">
<use xlink:href="#Layer0_0_MEMBER_1_MEMBER_1_MEMBER_1_MEMBER_40_FILL"/>
</g>

<g transform="matrix( 7, 0, 0, 7, 30.75,-843.55) ">
<use xlink:href="#Layer0_0_MEMBER_1_MEMBER_1_MEMBER_1_MEMBER_41_FILL"/>
</g>

<g transform="matrix( 7, 0, 0, 7, 30.75,-843.55) ">
<use xlink:href="#Layer0_0_MEMBER_1_MEMBER_1_MEMBER_1_MEMBER_42_FILL"/>
</g>

<g transform="matrix( 7, 0, 0, 7, 30.75,-843.55) ">
<use xlink:href="#Layer0_0_MEMBER_1_MEMBER_1_MEMBER_1_MEMBER_43_FILL"/>
</g>

<g transform="matrix( 7, 0, 0, 7, 30.75,-843.55) ">
<use xlink:href="#Layer0_0_MEMBER_1_MEMBER_1_MEMBER_1_MEMBER_44_FILL"/>
</g>

<g transform="matrix( 7, 0, 0, 7, 30.75,-843.55) ">
<use xlink:href="#Layer0_0_MEMBER_1_MEMBER_1_MEMBER_1_MEMBER_45_FILL"/>
</g>

<g transform="matrix( 7, 0, 0, 7, 30.75,-843.55) ">
<use xlink:href="#Layer0_0_MEMBER_1_MEMBER_1_MEMBER_1_MEMBER_46_FILL"/>
</g>

<g transform="matrix( 7, 0, 0, 7, 30.75,-843.55) ">
<use xlink:href="#Layer0_0_MEMBER_1_MEMBER_1_MEMBER_1_MEMBER_47_FILL"/>
</g>

<g transform="matrix( 7, 0, 0, 7, 30.75,-843.55) ">
<use xlink:href="#Layer0_0_MEMBER_1_MEMBER_1_MEMBER_1_MEMBER_48_FILL"/>
</g>

<g transform="matrix( 7, 0, 0, 7, 30.75,-843.55) ">
<use xlink:href="#Layer0_0_MEMBER_1_MEMBER_1_MEMBER_1_MEMBER_49_FILL"/>
</g>

<g transform="matrix( 7, 0, 0, 7, 30.75,-843.55) ">
<use xlink:href="#Layer0_0_MEMBER_1_MEMBER_1_MEMBER_1_MEMBER_50_FILL"/>
</g>

<g transform="matrix( 7, 0, 0, 7, 30.75,-843.55) ">
<use xlink:href="#Layer0_0_MEMBER_1_MEMBER_1_MEMBER_1_MEMBER_51_FILL"/>
</g>

<g transform="matrix( 7, 0, 0, 7, 30.75,-843.55) ">
<use xlink:href="#Layer0_0_MEMBER_1_MEMBER_1_MEMBER_1_MEMBER_52_FILL"/>
</g>

<g transform="matrix( 7, 0, 0, 7, 30.75,-843.55) ">
<use xlink:href="#Layer0_0_MEMBER_1_MEMBER_1_MEMBER_1_MEMBER_53_FILL"/>
</g>

<g transform="matrix( 7, 0, 0, 7, 30.75,-843.55) ">
<use xlink:href="#Layer0_0_MEMBER_1_MEMBER_1_MEMBER_1_MEMBER_54_FILL"/>
</g>

<g transform="matrix( 7, 0, 0, 7, 30.75,-843.55) ">
<use xlink:href="#Layer0_0_MEMBER_1_MEMBER_1_MEMBER_1_MEMBER_55_FILL"/>
</g>

<g transform="matrix( 7, 0, 0, 7, 30.75,-843.55) ">
<use xlink:href="#Layer0_0_MEMBER_1_MEMBER_1_MEMBER_1_MEMBER_56_FILL"/>
</g>

<g transform="matrix( 7, 0, 0, 7, 30.75,-843.55) ">
<use xlink:href="#Layer0_0_MEMBER_1_MEMBER_1_MEMBER_1_MEMBER_57_FILL"/>
</g>

<g transform="matrix( 7, 0, 0, 7, 30.75,-843.55) ">
<use xlink:href="#Layer0_0_MEMBER_1_MEMBER_1_MEMBER_1_MEMBER_58_FILL"/>
</g>

<g transform="matrix( 7, 0, 0, 7, 30.75,-843.55) ">
<use xlink:href="#Layer0_0_MEMBER_1_MEMBER_1_MEMBER_1_MEMBER_59_FILL"/>
</g>

<g transform="matrix( 7, 0, 0, 7, 30.75,-843.55) ">
<use xlink:href="#Layer0_0_MEMBER_1_MEMBER_1_MEMBER_1_MEMBER_60_FILL"/>
</g>

<g transform="matrix( 7, 0, 0, 7, 30.75,-843.55) ">
<use xlink:href="#Layer0_0_MEMBER_1_MEMBER_1_MEMBER_1_MEMBER_61_FILL"/>
</g>

<g transform="matrix( 7, 0, 0, 7, 30.75,-843.55) ">
<use xlink:href="#Layer0_0_MEMBER_1_MEMBER_1_MEMBER_1_MEMBER_62_FILL"/>
</g>

<g transform="matrix( 7, 0, 0, 7, 30.75,-843.55) ">
<use xlink:href="#Layer0_0_MEMBER_1_MEMBER_1_MEMBER_1_MEMBER_63_FILL"/>
</g>

<g transform="matrix( 7, 0, 0, 7, 30.75,-843.55) ">
<use xlink:href="#Layer0_0_MEMBER_1_MEMBER_1_MEMBER_1_MEMBER_64_FILL"/>
</g>

<g transform="matrix( 7, 0, 0, 7, 30.75,-843.55) ">
<use xlink:href="#Layer0_0_MEMBER_1_MEMBER_1_MEMBER_1_MEMBER_65_FILL"/>
</g>

<g transform="matrix( 7, 0, 0, 7, 30.75,-843.55) ">
<use xlink:href="#Layer0_0_MEMBER_1_MEMBER_1_MEMBER_1_MEMBER_66_FILL"/>
</g>

<g transform="matrix( 7, 0, 0, 7, 30.75,-843.55) ">
<use xlink:href="#Layer0_0_MEMBER_1_MEMBER_1_MEMBER_1_MEMBER_67_FILL"/>
</g>

<g transform="matrix( 7, 0, 0, 7, 30.75,-843.55) ">
<use xlink:href="#Layer0_0_MEMBER_1_MEMBER_1_MEMBER_1_MEMBER_68_FILL"/>
</g>

<g transform="matrix( 7, 0, 0, 7, 30.75,-843.55) ">
<use xlink:href="#Layer0_0_MEMBER_1_MEMBER_1_MEMBER_1_MEMBER_69_FILL"/>
</g>

<g transform="matrix( 7, 0, 0, 7, 30.75,-843.55) ">
<use xlink:href="#Layer0_0_MEMBER_1_MEMBER_1_MEMBER_1_MEMBER_70_FILL"/>
</g>

<g transform="matrix( 7, 0, 0, 7, 30.75,-843.55) ">
<use xlink:href="#Layer0_0_MEMBER_1_MEMBER_1_MEMBER_1_MEMBER_71_FILL"/>
</g>

<g transform="matrix( 7, 0, 0, 7, 30.75,-843.55) ">
<use xlink:href="#Layer0_0_MEMBER_1_MEMBER_1_MEMBER_1_MEMBER_72_FILL"/>
</g>

<g transform="matrix( 7, 0, 0, 7, 30.75,-843.55) ">
<use xlink:href="#Layer0_0_MEMBER_1_MEMBER_1_MEMBER_1_MEMBER_73_FILL"/>
</g>

<g transform="matrix( 7, 0, 0, 7, 30.75,-843.55) ">
<use xlink:href="#Layer0_0_MEMBER_1_MEMBER_1_MEMBER_1_MEMBER_74_FILL"/>
</g>

<g transform="matrix( 7, 0, 0, 7, 30.75,-843.55) ">
<use xlink:href="#Layer0_0_MEMBER_1_MEMBER_1_MEMBER_1_MEMBER_75_FILL"/>
</g>

<g transform="matrix( 7, 0, 0, 7, 30.75,-843.55) ">
<use xlink:href="#Layer0_0_MEMBER_1_MEMBER_1_MEMBER_2_FILL"/>
</g>

<g transform="matrix( 7, 0, 0, 7, 30.75,-843.55) ">
<use xlink:href="#Layer0_0_MEMBER_1_MEMBER_1_MEMBER_3_MEMBER_0_FILL"/>
</g>

<g transform="matrix( 7, 0, 0, 7, 30.75,-843.55) ">
<use xlink:href="#Layer0_0_MEMBER_1_MEMBER_1_MEMBER_3_MEMBER_1_FILL"/>
</g>

<g transform="matrix( 7, 0, 0, 7, 30.75,-843.55) ">
<use xlink:href="#Layer0_0_MEMBER_1_MEMBER_1_MEMBER_3_MEMBER_2_FILL"/>
</g>

<g transform="matrix( 7, 0, 0, 7, 30.75,-843.55) ">
<use xlink:href="#Layer0_0_MEMBER_1_MEMBER_1_MEMBER_3_MEMBER_3_FILL"/>
</g>

<g transform="matrix( 7, 0, 0, 7, 30.75,-843.55) ">
<use xlink:href="#Layer0_0_MEMBER_1_MEMBER_1_MEMBER_3_MEMBER_4_FILL"/>
</g>

<g transform="matrix( 7, 0, 0, 7, 30.75,-843.55) ">
<use xlink:href="#Layer0_0_MEMBER_1_MEMBER_1_MEMBER_3_MEMBER_5_FILL"/>
</g>

<g transform="matrix( 7, 0, 0, 7, 30.75,-843.55) ">
<use xlink:href="#Layer0_0_MEMBER_1_MEMBER_1_MEMBER_3_MEMBER_6_FILL"/>
</g>

<g transform="matrix( 7, 0, 0, 7, 30.75,-843.55) ">
<use xlink:href="#Layer0_0_MEMBER_1_MEMBER_1_MEMBER_3_MEMBER_7_FILL"/>
</g>

<g transform="matrix( 7, 0, 0, 7, 30.75,-843.55) ">
<use xlink:href="#Layer0_0_MEMBER_1_MEMBER_1_MEMBER_3_MEMBER_8_FILL"/>
</g>

<g transform="matrix( 7, 0, 0, 7, 30.75,-843.55) ">
<use xlink:href="#Layer0_0_MEMBER_1_MEMBER_1_MEMBER_3_MEMBER_9_FILL"/>
</g>

<g transform="matrix( 7, 0, 0, 7, 30.75,-843.55) ">
<use xlink:href="#Layer0_0_MEMBER_1_MEMBER_1_MEMBER_3_MEMBER_10_FILL"/>
</g>

<g transform="matrix( 7, 0, 0, 7, 30.75,-843.55) ">
<use xlink:href="#Layer0_0_MEMBER_1_MEMBER_1_MEMBER_3_MEMBER_11_FILL"/>
</g>

<g transform="matrix( 7, 0, 0, 7, 30.75,-843.55) ">
<use xlink:href="#Layer0_0_MEMBER_1_MEMBER_1_MEMBER_3_MEMBER_12_FILL"/>
</g>

<g transform="matrix( 7, 0, 0, 7, 30.75,-843.55) ">
<use xlink:href="#Layer0_0_MEMBER_1_MEMBER_1_MEMBER_3_MEMBER_13_FILL"/>
</g>

<g transform="matrix( 7, 0, 0, 7, 30.75,-843.55) ">
<use xlink:href="#Layer0_0_MEMBER_1_MEMBER_1_MEMBER_3_MEMBER_14_FILL"/>
</g>

<g transform="matrix( 7, 0, 0, 7, 30.75,-843.55) ">
<use xlink:href="#Layer0_0_MEMBER_1_MEMBER_1_MEMBER_3_MEMBER_15_FILL"/>
</g>

<g transform="matrix( 7, 0, 0, 7, 30.75,-843.55) ">
<use xlink:href="#Layer0_0_MEMBER_1_MEMBER_1_MEMBER_3_MEMBER_16_FILL"/>
</g>

<g transform="matrix( 7, 0, 0, 7, 30.75,-843.55) ">
<use xlink:href="#Layer0_0_MEMBER_1_MEMBER_1_MEMBER_3_MEMBER_17_FILL"/>
</g>

<g transform="matrix( 7, 0, 0, 7, 30.75,-843.55) ">
<use xlink:href="#Layer0_0_MEMBER_1_MEMBER_1_MEMBER_3_MEMBER_18_FILL"/>
</g>

<g transform="matrix( 7, 0, 0, 7, 30.75,-843.55) ">
<use xlink:href="#Layer0_0_MEMBER_1_MEMBER_1_MEMBER_3_MEMBER_19_FILL"/>
</g>

<g transform="matrix( 7, 0, 0, 7, 30.75,-843.55) ">
<use xlink:href="#Layer0_0_MEMBER_1_MEMBER_1_MEMBER_3_MEMBER_20_FILL"/>
</g>

<g transform="matrix( 7, 0, 0, 7, 30.75,-843.55) ">
<use xlink:href="#Layer0_0_MEMBER_1_MEMBER_1_MEMBER_3_MEMBER_21_FILL"/>
</g>

<g transform="matrix( 7, 0, 0, 7, 30.75,-843.55) ">
<use xlink:href="#Layer0_0_MEMBER_1_MEMBER_1_MEMBER_3_MEMBER_22_FILL"/>
</g>

<g transform="matrix( 7, 0, 0, 7, 30.75,-843.55) ">
<use xlink:href="#Layer0_0_MEMBER_1_MEMBER_1_MEMBER_3_MEMBER_23_FILL"/>
</g>

<g transform="matrix( 7, 0, 0, 7, 30.75,-843.55) ">
<use xlink:href="#Layer0_0_MEMBER_1_MEMBER_1_MEMBER_3_MEMBER_24_FILL"/>
</g>

<g transform="matrix( 7, 0, 0, 7, 30.75,-843.55) ">
<use xlink:href="#Layer0_0_MEMBER_1_MEMBER_1_MEMBER_3_MEMBER_25_FILL"/>
</g>

<g transform="matrix( 7, 0, 0, 7, 30.75,-843.55) ">
<use xlink:href="#Layer0_0_MEMBER_1_MEMBER_1_MEMBER_3_MEMBER_26_FILL"/>
</g>

<g transform="matrix( 7, 0, 0, 7, 30.75,-843.55) ">
<use xlink:href="#Layer0_0_MEMBER_1_MEMBER_1_MEMBER_3_MEMBER_27_FILL"/>
</g>

<g transform="matrix( 7, 0, 0, 7, 30.75,-843.55) ">
<use xlink:href="#Layer0_0_MEMBER_1_MEMBER_1_MEMBER_3_MEMBER_28_FILL"/>
</g>

<g transform="matrix( 7, 0, 0, 7, 30.75,-843.55) ">
<use xlink:href="#Layer0_0_MEMBER_1_MEMBER_1_MEMBER_3_MEMBER_29_FILL"/>
</g>

<g transform="matrix( 7, 0, 0, 7, 30.75,-843.55) ">
<use xlink:href="#Layer0_0_MEMBER_1_MEMBER_1_MEMBER_3_MEMBER_30_FILL"/>
</g>

<g transform="matrix( 7, 0, 0, 7, 30.75,-843.55) ">
<use xlink:href="#Layer0_0_MEMBER_1_MEMBER_1_MEMBER_3_MEMBER_31_FILL"/>
</g>

<g transform="matrix( 7, 0, 0, 7, 30.75,-843.55) ">
<use xlink:href="#Layer0_0_MEMBER_1_MEMBER_1_MEMBER_3_MEMBER_32_FILL"/>
</g>

<g transform="matrix( 7, 0, 0, 7, 30.75,-843.55) ">
<use xlink:href="#Layer0_0_MEMBER_1_MEMBER_1_MEMBER_3_MEMBER_33_FILL"/>
</g>

<g transform="matrix( 7, 0, 0, 7, 30.75,-843.55) ">
<use xlink:href="#Layer0_0_MEMBER_1_MEMBER_1_MEMBER_3_MEMBER_34_FILL"/>
</g>

<g transform="matrix( 7, 0, 0, 7, 30.75,-843.55) ">
<use xlink:href="#Layer0_0_MEMBER_1_MEMBER_1_MEMBER_3_MEMBER_35_FILL"/>
</g>

<g transform="matrix( 7, 0, 0, 7, 30.75,-843.55) ">
<use xlink:href="#Layer0_0_MEMBER_1_MEMBER_1_MEMBER_3_MEMBER_36_FILL"/>
</g>

<g transform="matrix( 7, 0, 0, 7, 30.75,-843.55) ">
<use xlink:href="#Layer0_0_MEMBER_1_MEMBER_1_MEMBER_3_MEMBER_37_FILL"/>
</g>

<g transform="matrix( 7, 0, 0, 7, 30.75,-843.55) ">
<use xlink:href="#Layer0_0_MEMBER_1_MEMBER_1_MEMBER_3_MEMBER_38_FILL"/>
</g>

<g transform="matrix( 7, 0, 0, 7, 30.75,-843.55) ">
<use xlink:href="#Layer0_0_MEMBER_1_MEMBER_1_MEMBER_3_MEMBER_39_FILL"/>
</g>

<g transform="matrix( 7, 0, 0, 7, 30.75,-843.55) ">
<use xlink:href="#Layer0_0_MEMBER_1_MEMBER_1_MEMBER_3_MEMBER_40_FILL"/>
</g>

<g transform="matrix( 7, 0, 0, 7, 30.75,-843.55) ">
<use xlink:href="#Layer0_0_MEMBER_1_MEMBER_1_MEMBER_3_MEMBER_41_FILL"/>
</g>

<g transform="matrix( 7, 0, 0, 7, 30.75,-843.55) ">
<use xlink:href="#Layer0_0_MEMBER_1_MEMBER_1_MEMBER_3_MEMBER_42_FILL"/>
</g>

<g transform="matrix( 7, 0, 0, 7, 30.75,-843.55) ">
<use xlink:href="#Layer0_0_MEMBER_1_MEMBER_1_MEMBER_3_MEMBER_43_FILL"/>
</g>

<g transform="matrix( 7, 0, 0, 7, 30.75,-843.55) ">
<use xlink:href="#Layer0_0_MEMBER_1_MEMBER_1_MEMBER_3_MEMBER_44_FILL"/>
</g>

<g transform="matrix( 7, 0, 0, 7, 30.75,-843.55) ">
<use xlink:href="#Layer0_0_MEMBER_1_MEMBER_1_MEMBER_3_MEMBER_45_FILL"/>
</g>

<g transform="matrix( 7, 0, 0, 7, 30.75,-843.55) ">
<use xlink:href="#Layer0_0_MEMBER_1_MEMBER_1_MEMBER_3_MEMBER_46_FILL"/>
</g>

<g transform="matrix( 7, 0, 0, 7, 30.75,-843.55) ">
<use xlink:href="#Layer0_0_MEMBER_1_MEMBER_1_MEMBER_3_MEMBER_47_FILL"/>
</g>

<g transform="matrix( 7, 0, 0, 7, 30.75,-843.55) ">
<use xlink:href="#Layer0_0_MEMBER_1_MEMBER_1_MEMBER_3_MEMBER_48_FILL"/>
</g>

<g transform="matrix( 7, 0, 0, 7, 30.75,-843.55) ">
<use xlink:href="#Layer0_0_MEMBER_1_MEMBER_1_MEMBER_3_MEMBER_49_FILL"/>
</g>

<g transform="matrix( 7, 0, 0, 7, 30.75,-843.55) ">
<use xlink:href="#Layer0_0_MEMBER_1_MEMBER_1_MEMBER_3_MEMBER_50_FILL"/>
</g>

<g transform="matrix( 7, 0, 0, 7, 30.75,-843.55) ">
<use xlink:href="#Layer0_0_MEMBER_1_MEMBER_1_MEMBER_3_MEMBER_51_FILL"/>
</g>

<g transform="matrix( 7, 0, 0, 7, 30.75,-843.55) ">
<use xlink:href="#Layer0_0_MEMBER_1_MEMBER_1_MEMBER_3_MEMBER_52_FILL"/>
</g>

<g transform="matrix( 7, 0, 0, 7, 30.75,-843.55) ">
<use xlink:href="#Layer0_0_MEMBER_1_MEMBER_1_MEMBER_3_MEMBER_53_FILL"/>
</g>

<g transform="matrix( 7, 0, 0, 7, 30.75,-843.55) ">
<use xlink:href="#Layer0_0_MEMBER_1_MEMBER_1_MEMBER_3_MEMBER_54_FILL"/>
</g>

<g transform="matrix( 7, 0, 0, 7, 30.75,-843.55) ">
<use xlink:href="#Layer0_0_MEMBER_1_MEMBER_1_MEMBER_3_MEMBER_55_FILL"/>
</g>

<g transform="matrix( 7, 0, 0, 7, 30.75,-843.55) ">
<use xlink:href="#Layer0_0_MEMBER_1_MEMBER_1_MEMBER_3_MEMBER_56_FILL"/>
</g>

<g transform="matrix( 7, 0, 0, 7, 30.75,-843.55) ">
<use xlink:href="#Layer0_0_MEMBER_1_MEMBER_1_MEMBER_3_MEMBER_57_FILL"/>
</g>

<g transform="matrix( 7, 0, 0, 7, 30.75,-843.55) ">
<use xlink:href="#Layer0_0_MEMBER_1_MEMBER_1_MEMBER_3_MEMBER_58_FILL"/>
</g>

<g transform="matrix( 7, 0, 0, 7, 30.75,-843.55) ">
<use xlink:href="#Layer0_0_MEMBER_1_MEMBER_1_MEMBER_3_MEMBER_59_FILL"/>
</g>

<g transform="matrix( 7, 0, 0, 7, 30.75,-843.55) ">
<use xlink:href="#Layer0_0_MEMBER_1_MEMBER_1_MEMBER_3_MEMBER_60_FILL"/>
</g>

<g transform="matrix( 7, 0, 0, 7, 30.75,-843.55) ">
<use xlink:href="#Layer0_0_MEMBER_1_MEMBER_1_MEMBER_3_MEMBER_61_FILL"/>
</g>

<g transform="matrix( 7, 0, 0, 7, 30.75,-843.55) ">
<use xlink:href="#Layer0_0_MEMBER_1_MEMBER_1_MEMBER_3_MEMBER_62_FILL"/>
</g>

<g transform="matrix( 7, 0, 0, 7, 30.75,-843.55) ">
<use xlink:href="#Layer0_0_MEMBER_1_MEMBER_1_MEMBER_3_MEMBER_63_FILL"/>
</g>

<g transform="matrix( 7, 0, 0, 7, 30.75,-843.55) ">
<use xlink:href="#Layer0_0_MEMBER_1_MEMBER_1_MEMBER_3_MEMBER_64_FILL"/>
</g>

<g transform="matrix( 7, 0, 0, 7, 30.75,-843.55) ">
<use xlink:href="#Layer0_0_MEMBER_1_MEMBER_1_MEMBER_3_MEMBER_65_FILL"/>
</g>

<g transform="matrix( 7, 0, 0, 7, 30.75,-843.55) ">
<use xlink:href="#Layer0_0_MEMBER_1_MEMBER_1_MEMBER_3_MEMBER_66_FILL"/>
</g>

<g transform="matrix( 7, 0, 0, 7, 30.75,-843.55) ">
<use xlink:href="#Layer0_0_MEMBER_1_MEMBER_1_MEMBER_3_MEMBER_67_FILL"/>
</g>

<g transform="matrix( 7, 0, 0, 7, 30.75,-843.55) ">
<use xlink:href="#Layer0_0_MEMBER_1_MEMBER_1_MEMBER_3_MEMBER_68_FILL"/>
</g>

<g transform="matrix( 7, 0, 0, 7, 30.75,-843.55) ">
<use xlink:href="#Layer0_0_MEMBER_1_MEMBER_1_MEMBER_3_MEMBER_69_FILL"/>
</g>

<g transform="matrix( 7, 0, 0, 7, 30.75,-843.55) ">
<use xlink:href="#Layer0_0_MEMBER_1_MEMBER_1_MEMBER_3_MEMBER_70_FILL"/>
</g>

<g transform="matrix( 7, 0, 0, 7, 30.75,-843.55) ">
<use xlink:href="#Layer0_0_MEMBER_1_MEMBER_1_MEMBER_3_MEMBER_71_FILL"/>
</g>

<g transform="matrix( 7, 0, 0, 7, 30.75,-843.55) ">
<use xlink:href="#Layer0_0_MEMBER_1_MEMBER_1_MEMBER_3_MEMBER_72_FILL"/>
</g>

<g transform="matrix( 7, 0, 0, 7, 30.75,-843.55) ">
<use xlink:href="#Layer0_0_MEMBER_1_MEMBER_1_MEMBER_3_MEMBER_73_FILL"/>
</g>

<g transform="matrix( 7, 0, 0, 7, 30.75,-843.55) ">
<use xlink:href="#Layer0_0_MEMBER_1_MEMBER_1_MEMBER_3_MEMBER_74_FILL"/>
</g>

<g transform="matrix( 7, 0, 0, 7, 30.75,-843.55) ">
<use xlink:href="#Layer0_0_MEMBER_1_MEMBER_1_MEMBER_3_MEMBER_75_FILL"/>
</g>
</svg>
