<?xml version="1.0" encoding="utf-8"?>
<!-- Generator: Adobe Illustrator 23.0.2, SVG Export Plug-In . SVG Version: 6.00 Build 0)  -->
<svg version="1.1" id="图层_1" xmlns="http://www.w3.org/2000/svg" xmlns:xlink="http://www.w3.org/1999/xlink" x="0px" y="0px"
	 viewBox="0 0 800 800" style="enable-background:new 0 0 800 800;" xml:space="preserve">
<style type="text/css">
	.st0{fill:#CECECE;}
	.st1{fill:#A8A8A8;}
	.st2{fill:#943E7B;}
	.st3{fill:#1C1D1D;stroke:#14203E;stroke-width:3.1655;stroke-miterlimit:10;}
	.st4{fill:#F4DBD1;stroke:#000000;stroke-miterlimit:10;}
	.st5{fill:#B1DDDD;}
	.st6{fill:#9699C7;}
	.st7{fill:#412D35;}
	.st8{opacity:0.43;}
	.st9{fill:#FFFFFF;}
	.st10{fill:#040000;}
	.st11{fill:#6D2932;}
	.st12{fill:#431234;}
	.st13{fill:#C99C5D;}
	.st14{fill:#149793;}
	.st15{fill:none;stroke:#3A0C05;stroke-width:10;stroke-miterlimit:10;}
	.st16{fill:none;stroke:#C99C5D;stroke-width:5.5408;stroke-miterlimit:10;}
	.st17{fill:none;stroke:#3A0C05;stroke-width:10.8417;stroke-miterlimit:10;}
	.st18{fill:none;stroke:#C99C5D;stroke-width:6.0712;stroke-miterlimit:10;}
	.st19{fill:#300A03;}
	.st20{fill:#0A0203;}
	.st21{fill:#BF2220;}
	.st22{fill:#EC662F;}
	.st23{fill:#323333;}
	.st24{fill:#FFFFFF;stroke:#323333;stroke-width:2.4376;stroke-miterlimit:10;}
	.st25{fill:#F6C9B3;stroke:#323333;stroke-width:2.4376;stroke-miterlimit:10;}
	.st26{fill:#F6C9B3;stroke:#323333;stroke-width:2.541;stroke-miterlimit:10;}
	.st27{fill:none;stroke:#323333;stroke-width:4.1908;stroke-linecap:round;stroke-miterlimit:10;}
	.st28{fill:none;stroke:#323333;stroke-width:3;stroke-linecap:round;stroke-miterlimit:10;}
	.st29{fill:#F6C9B3;stroke:#323333;stroke-width:1.3747;stroke-miterlimit:10;}
	.st30{fill:#5F7E99;}
	.st31{fill:none;stroke:#323333;stroke-width:2.6814;stroke-linecap:round;stroke-miterlimit:10;}
	.st32{fill:#F6C9B3;stroke:#323333;stroke-width:2.2432;stroke-miterlimit:10;}
	.st33{fill:#9598C6;stroke:#323333;stroke-width:2.4376;stroke-miterlimit:10;}
	.st34{fill:#A4427C;stroke:#313333;stroke-width:2.3955;stroke-miterlimit:10;}
	.st35{fill:#FFFFFF;stroke:#323333;stroke-width:4.1907;stroke-miterlimit:10;}
	.st36{fill:none;stroke:#323333;stroke-width:4.1907;stroke-miterlimit:10;}
	.st37{fill:none;stroke:#323333;stroke-width:2.6322;stroke-linecap:round;stroke-miterlimit:10;}
	.st38{fill:#FFFFFF;stroke:#323333;stroke-width:1.8282;stroke-linecap:round;stroke-miterlimit:10;}
	.st39{fill:#FFFFFF;stroke:#323333;stroke-width:2.2669;stroke-linecap:round;stroke-miterlimit:10;}
	.st40{fill:#FFFFFF;stroke:#323333;stroke-width:1.6729;stroke-linecap:round;stroke-miterlimit:10;}
	.st41{fill:#FFFFFF;stroke:#323333;stroke-width:1.3755;stroke-linecap:round;stroke-miterlimit:10;}
	.st42{fill:#172D57;stroke:#323333;stroke-width:2.4376;stroke-linecap:round;stroke-miterlimit:10;}
	.st43{fill:none;stroke:#323333;stroke-width:2.3107;stroke-linecap:round;stroke-miterlimit:10;}
	.st44{fill:#040000;stroke:#323333;stroke-width:2.8975;stroke-miterlimit:10;}
	.st45{fill:none;stroke:#323333;stroke-width:1.6358;stroke-linecap:round;stroke-miterlimit:10;}
	.st46{fill:#ADADAD;stroke:#323333;stroke-width:2.8975;stroke-miterlimit:10;}
	.st47{fill:#495E6B;}
	.st48{fill:#FDF0D8;stroke:#2F3030;stroke-width:2.6751;stroke-miterlimit:10;}
	.st49{fill:#474747;stroke:#2F3030;stroke-width:1.3446;stroke-miterlimit:10;}
	.st50{fill:#FFFFFF;stroke:#2F3030;stroke-width:2.6751;stroke-miterlimit:10;}
	.st51{fill:#4A6EA8;stroke:#2F3030;stroke-width:2.1585;stroke-miterlimit:10;}
	.st52{fill:#4A6EA8;stroke:#2F3030;stroke-width:2.6751;stroke-miterlimit:10;}
	.st53{fill:#2F3030;stroke:#2F3030;stroke-width:2.6751;stroke-miterlimit:10;}
	.st54{fill:#FFFFFF;stroke:#2F3030;stroke-width:2.1109;stroke-miterlimit:10;}
	.st55{fill:#FFFFFF;stroke:#2F3030;stroke-width:1.3376;stroke-miterlimit:10;}
	.st56{fill:#1F2E39;stroke:#2F3030;stroke-miterlimit:10;}
	.st57{fill:#E8BED8;stroke:#2F3030;stroke-width:2.9553;stroke-miterlimit:10;}
	.st58{fill:#D774AA;stroke:#2F3030;stroke-width:2.9553;stroke-miterlimit:10;}
	.st59{fill:#E0A0C6;stroke:#2F3030;stroke-width:2.9553;stroke-miterlimit:10;}
	.st60{fill:#FDF0D8;stroke:#2F3030;stroke-width:2.9553;stroke-miterlimit:10;}
	.st61{fill:#1F2E39;stroke:#2F3030;stroke-width:2.9553;stroke-miterlimit:10;}
	.st62{fill:none;stroke:#2F3030;stroke-width:2.9553;stroke-miterlimit:10;}
	.st63{fill:none;stroke:#2F3030;stroke-width:2.9553;stroke-linecap:round;stroke-miterlimit:10;}
	.st64{fill:#2F3030;stroke:#2F3030;stroke-width:2.9553;stroke-linecap:round;stroke-miterlimit:10;}
	.st65{fill:#FFFFFF;stroke:#2F3030;stroke-width:2.9553;stroke-miterlimit:10;}
	.st66{fill:#D2599C;stroke:#2F3030;stroke-width:2.9553;stroke-miterlimit:10;}
	.st67{fill:#264B7E;stroke:#2F3030;stroke-width:4;stroke-miterlimit:10;}
	.st68{fill:#073E68;stroke:#2F3030;stroke-width:4;stroke-miterlimit:10;}
	.st69{fill:#F2C9B3;stroke:#2F3030;stroke-width:4;stroke-miterlimit:10;}
	.st70{fill:#F2C9B3;}
	.st71{fill:none;stroke:#2F3030;stroke-width:4;stroke-miterlimit:10;}
	.st72{fill:#F2C9B3;stroke:#2F3030;stroke-width:4;stroke-linecap:round;stroke-miterlimit:10;}
	.st73{fill:#050101;}
	.st74{fill:#533937;stroke:#000000;stroke-width:2.5835;stroke-miterlimit:10;}
	.st75{fill:#FFFFFF;stroke:#2F3030;stroke-width:2.5835;stroke-miterlimit:10;}
	.st76{fill:none;stroke:#040000;stroke-width:2.5835;stroke-linecap:round;stroke-miterlimit:10;}
	.st77{fill:#FFFFFF;stroke:#060404;stroke-width:2.5835;stroke-linecap:round;stroke-miterlimit:10;}
	.st78{fill:#987367;stroke:#000000;stroke-width:4;stroke-miterlimit:10;}
	.st79{fill:#FFFFFF;stroke:#000000;stroke-width:4;stroke-miterlimit:10;}
	.st80{fill:#F4DBD1;stroke:#000000;stroke-width:4;stroke-miterlimit:10;}
	.st81{fill:#F4DBD1;}
	.st82{fill:none;stroke:#000000;stroke-width:4;stroke-miterlimit:10;}
	.st83{fill:none;stroke:#000000;stroke-width:4;stroke-linecap:round;stroke-miterlimit:10;}
	.st84{fill:none;stroke:#DE322F;stroke-width:4;stroke-linecap:round;stroke-miterlimit:10;}
	.st85{fill:#D8A986;stroke:#14203E;stroke-width:3.6591;stroke-miterlimit:10;}
	.st86{fill:#9CA9CD;stroke:#14203E;stroke-width:3.6591;stroke-miterlimit:10;}
	.st87{fill:#D8A986;}
	.st88{fill:#E71F19;stroke:#14203E;stroke-width:3.6591;stroke-miterlimit:10;}
	.st89{fill:#394981;stroke:#14203E;stroke-width:3.6591;stroke-miterlimit:10;}
	.st90{fill:#14203E;}
	.st91{fill:none;stroke:#14203E;stroke-width:2.7443;stroke-linecap:round;stroke-miterlimit:10;}
	.st92{fill:none;stroke:#14203E;stroke-width:2.2123;stroke-linecap:round;stroke-miterlimit:10;}
	.st93{fill:#FFFFFF;stroke:#14203E;stroke-width:2.2123;stroke-linecap:round;stroke-miterlimit:10;}
	.st94{fill:#9CA9CD;}
	.st95{fill:#9CA9CD;stroke:#14203E;stroke-width:3.6591;stroke-linecap:round;stroke-miterlimit:10;}
	.st96{fill:none;stroke:#14203E;stroke-width:2.8957;stroke-miterlimit:10;}
	.st97{fill:#2C3376;stroke:#0B102C;stroke-width:3.2325;stroke-miterlimit:10;}
	.st98{fill:#F9D6C3;}
	.st99{fill:none;stroke:#14203E;stroke-width:3.2325;stroke-miterlimit:10;}
	.st100{fill:#F9D6C3;stroke:#14203E;stroke-width:3.2325;stroke-miterlimit:10;}
	.st101{fill:#E7211C;stroke:#14203E;stroke-width:1.8016;stroke-miterlimit:10;}
	.st102{fill:#FFFFFF;stroke:#14203E;stroke-width:3.2325;stroke-miterlimit:10;}
	.st103{fill:#FFFFFF;stroke:#14203E;stroke-width:3.2325;stroke-linecap:round;stroke-miterlimit:10;}
	.st104{fill:none;stroke:#14203E;stroke-width:3.2325;stroke-linecap:round;stroke-miterlimit:10;}
	.st105{fill:none;stroke:#14203E;stroke-width:4;stroke-linecap:round;stroke-miterlimit:10;}
	.st106{fill:#5B3719;stroke:#14203E;stroke-width:2.8784;stroke-miterlimit:10;}
	.st107{fill:#EAC3A2;stroke:#14203E;stroke-width:2.8784;stroke-miterlimit:10;}
	.st108{fill:#5B3719;}
	.st109{fill:#D65D37;stroke:#14203E;stroke-width:2.8784;stroke-miterlimit:10;}
	.st110{fill:#FFFFFF;stroke:#14203E;stroke-width:2.8784;stroke-miterlimit:10;}
	.st111{fill:none;stroke:#14203E;stroke-width:2.8784;stroke-linecap:round;stroke-miterlimit:10;}
	.st112{fill:#FFFFFF;stroke:#101722;stroke-width:4.779;stroke-miterlimit:10;}
	.st113{fill:#E71F19;stroke:#101722;stroke-width:2.7716;stroke-miterlimit:10;}
	.st114{fill:#252525;}
	.st115{fill:#F3CAAE;stroke:#101722;stroke-width:2.7716;stroke-miterlimit:10;}
	.st116{fill:#FFFFFF;stroke:#101722;stroke-width:3.3114;stroke-miterlimit:10;}
	.st117{fill:none;stroke:#101722;stroke-width:2.7716;stroke-miterlimit:10;}
	.st118{fill:none;stroke:#252525;stroke-width:0.6929;stroke-miterlimit:10;}
	.st119{fill:none;stroke:#2F3030;stroke-width:2.7716;stroke-miterlimit:10;}
</style>
<rect x="0" class="st2" width="800" height="800"/>
<g>
	<path class="st97" d="M486.81,479.13h-201.8V334.99c0-55.73,45.17-100.9,100.9-100.9h0c55.73,0,100.9,45.17,100.9,100.9V479.13z"/>
	<path class="st9" d="M361.74,456.31c-1.62,1.53-3.75,2.4-5.97,2.42c-4.57,0.05-13.12,0.98-20.3,6.53
		c-10.36,8.01-13.17,11.44-14.69,18.83c-1.52,7.39-1.69,13.5-1.69,27.77c0,14.26,0,30.48,0,34.08c0,3.6,0,19.97,0,19.97h136.03
		v-69.82c0,0,0.68-23.42-19.25-33.1c-9.72-3.52-26.56-4.45-26.56-4.45l-4.48-1.33c0,0-19.07,3.3-26.73,3.3
		S361.74,456.31,361.74,456.31L361.74,456.31z"/>
	<path class="st98" d="M364.74,435.06l0.43,15l-3.82,7.88l13.08,3.47h16.89l9.46-2.7l2.45-4.01c0,0-3.12-7.92-2-18.51
		C402.35,425.6,364.74,435.06,364.74,435.06z"/>
	<path class="st99" d="M401.34,448.94v-22.66h-36.11v22.66c0,5.4-4.37,9.77-9.77,9.77h0c-20.09,0-36.38,16.29-36.38,36.38v70.82
		h136.03v-70.82c0-20.09-16.29-36.38-36.38-36.38h-7.62C405.72,458.71,401.34,454.33,401.34,448.94z"/>
	<path class="st100" d="M327.83,289.34c-3.55,0-6.84,1.88-8.62,4.96c-6.67,11.53-10.49,24.91-10.49,39.19v28.83
		c0,43.29,35.09,78.38,78.38,78.38h0c43.29,0,78.38-35.09,78.38-78.38v-28.83c0-14.28-3.82-27.66-10.49-39.19
		c-1.78-3.07-5.07-4.96-8.62-4.96H327.83z"/>
	<path class="st101" d="M363.35,454.7c0,0,19.34,14.01,39.87,0l3.79,3.11c0,0-21.35,17.08-46.56-0.47L363.35,454.7z"/>
	<path class="st99" d="M341.32,500.6l-0.37,1.07c-2.09,6.1-1.96,12.74,0.37,18.75l0,0v45.49"/>
	<path class="st99" d="M433.08,500.6l0.37,1.07c2.09,6.1,1.96,12.74-0.37,18.75l0,0v45.49"/>
	<rect x="326.45" y="336.64" class="st102" width="42.79" height="23.42"/>
	<rect x="399.87" y="336.64" class="st102" width="42.79" height="23.42"/>
	<line class="st102" x1="326.45" y1="344.3" x2="308.72" y2="336.64"/>
	<line class="st102" x1="442.66" y1="344.3" x2="465.47" y2="336.64"/>
	<line class="st102" x1="369.24" y1="344.3" x2="399.87" y2="344.3"/>
	<line class="st103" x1="339.47" y1="348.35" x2="354.38" y2="348.35"/>
	<line class="st103" x1="414.74" y1="348.35" x2="427.35" y2="348.35"/>
	<path class="st104" d="M380.58,365.02v9.83c0,2.2,1.78,3.98,3.98,3.98l0,0c2.2,0,3.98-1.78,3.98-3.98v-9.83"/>
	<path class="st103" d="M379.76,392.73h12.3c2.36,0,3.68,2.73,2.2,4.58h0c-4.28,5.35-12.42,5.35-16.7,0l0,0
		C376.08,395.47,377.4,392.73,379.76,392.73z"/>
	<path class="st104" d="M317.59,280.03l0.38,1.51c0.73,2.94,2.24,5.64,4.37,7.8l0,0"/>
	<path class="st104" d="M454.07,281.83v1.32c0,2.26-0.78,4.44-2.2,6.19l0,0"/>
	<line class="st104" x1="360.45" y1="277.63" x2="360.45" y2="289.34"/>
	<line class="st104" x1="376.94" y1="280.03" x2="376.94" y2="289.34"/>
	<line class="st104" x1="429.6" y1="277.63" x2="429.6" y2="289.34"/>
</g>
<line class="st105" x1="334.83" y1="341.3" x2="360.87" y2="335.83"/>
<line class="st105" x1="447.89" y1="341.3" x2="421.85" y2="335.83"/>
</svg>
