<?xml version="1.0" encoding="utf-8"?>
<!-- Generator: Adobe Illustrator 22.1.0, SVG Export Plug-In . SVG Version: 6.00 Build 0)  -->
<svg version="1.1" id="图层_1" xmlns="http://www.w3.org/2000/svg" xmlns:xlink="http://www.w3.org/1999/xlink" x="0px" y="0px"
	 viewBox="0 0 1024 1024" style="enable-background:new 0 0 1024 1024;" xml:space="preserve">
<style type="text/css">
	.st0{fill:#E2A324;}
	.st1{fill:#FFD878;}
	.st2{fill:#EDB824;}
	.st3{fill:none;stroke:#777777;stroke-width:0.25;stroke-miterlimit:10;}
	.st4{fill:#FFFFFF;}
	.st5{fill:#D1D2D3;}
	.st6{fill:#686868;}
	.st7{opacity:0.2;}
	.st8{fill:#FCB381;}
	.st9{fill:#DDDDDD;}
	.st10{fill:#4C4B4B;}
	.st11{fill:#EFEFEF;}
	.st12{fill:#FFB600;}
	.st13{fill:#2D2D2D;}
	.st14{fill:#44719E;}
	.st15{opacity:0.8;}
	.st16{fill:#2C5E91;}
	.st17{fill:#303030;}
	.st18{fill:#020202;}
	.st19{fill:#517CAF;}
	.st20{opacity:0.6;}
	.st21{fill:#565656;}
	.st22{fill:#FEBD8B;stroke:#9E5F0D;stroke-width:0.25;stroke-miterlimit:10;}
	.st23{fill:#AD1F1F;}
	.st24{opacity:0.5;}
	.st25{fill:#660404;}
	.st26{fill:#2B2B2B;}
	.st27{fill:#FEBD8B;}
	.st28{fill:#B24800;}
	.st29{opacity:0.1;}
	.st30{fill:#DD3E3E;}
	.st31{fill:#911616;}
	.st32{fill:#EDA87A;}
	.st33{opacity:0.3;}
	.st34{fill:#820B0B;}
	.st35{fill:#DD9F14;}
</style>
<g>
	<g>
		<path class="st0" d="M778.9,926.2c0,0-334.1,23.2-338.6-75.9c-5.4-119.7,152.8-95.6,227.8-2.7S778.9,926.2,778.9,926.2z"/>
		<path class="st1" d="M524.9,920.4h-66.8c-5.2,0-10.3-1.5-14.5-4.6c-5.7-4.2-11.6-12.2-11.4-27.5c0.3-18,39.8-25.7,39.8,5.1
			C472,922.7,524.9,920.4,524.9,920.4z"/>
		<path class="st2" d="M644,927.2c0,0-185.8,12.9-188.2-42.2c-3-66.6,84.9-53.1,126.7-1.5C624.1,935.2,644,927.2,644,927.2z"/>
		<path class="st3" d="M249.4,618.6c0,0,7-3.8,10.5,0c3.5,3.8,7.2,6.5,7.4,12.1"/>
		<path class="st3" d="M246.1,622.6c0,0,7-3.8,10.5,0c3.5,3.8,7.2,6.5,7.4,12.1"/>
		<path class="st3" d="M243.3,626.7c0,0,6.6-3.9,10.1,0c3.5,3.8,7.2,6.5,7.4,12.1"/>
		<path class="st3" d="M240.4,630.7c0,0,6.2-3.8,9.7,0.1c3.5,3.8,7.2,6.5,7.4,12.1"/>
		<path class="st3" d="M237.3,634.7c0,0,6.1-3.8,9.5,0.1c3.5,3.8,7.2,6.5,7.4,12.1"/>
	</g>
	<g>
		<g>
			<path class="st4" d="M452.6,767.4l-9.7,13.1c0,0,1.1,7.1,7.4,5.1s18.8-8,18.8-8l2-9.7L452.6,767.4z"/>
		</g>
		<g>
			<path class="st5" d="M445.7,775.3l0.9,0.4l-0.4,0.5c-2.7,3.4,0,8.4,4.4,8c3.9-0.3,9.6-2.2,18.3-6.8l15.2,2.2
				c0,0,15.1,27.3,34.7,27.6c19.6,0.3,13.4,21.6-12.2,18.2c-25.6-3.4-78.2-15.1-79.1-23.9c-0.7-7.3,7.6-19.8,12.7-25.2
				C441.6,774.9,443.8,774.5,445.7,775.3z"/>
		</g>
		<g>
			<path class="st6" d="M530.2,813.2c-3.4,3.5-11.2,6.8-15.3,7.9c-4.4,1.2-63.7-12.4-73.4-16c-8.1-3-11.9-8.5-12.9-10.2
				c-0.8,2.4-1.3,4.7-1.1,6.6c0.9,8.8,53.5,20.5,79.1,23.9C523.3,827.7,531.8,819.3,530.2,813.2z"/>
		</g>
		<g class="st7">
			<path class="st6" d="M469.1,779.3l14.9,2c0,0-13.5,12.9-40.8,9C443.2,790.2,469.1,786.1,469.1,779.3z"/>
		</g>
		<g>
			<path class="st8" d="M643.3,473.6c0,0,10.7,10.1,17,11.4c6.3,1.3,22.6-2,28.6,2.1s0.8,12.1,0.8,12.1l-28.6,7.8
				c0,0-22-20.8-31.7-22.9S631.9,464,643.3,473.6z"/>
		</g>
		<g>
			<path class="st9" d="M277,913.2l-1-0.1l11.8-124.7l-36.9,119.7l-0.9-0.3l35.9-120l-59.5,110.2l-0.9-0.5l58.6-110.7l-79.9,96.5
				l-0.8-0.6l79.1-97.2l-97.2,79.1l-0.6-0.8l96.5-79.9l-110.7,58.6l-0.5-0.9l110.2-59.5l-120,35.9l-0.3-0.9l119.7-36.9L155,792.1
				l-0.1-1l124.6-12.8l-124.6-12.8l0.1-1l124.7,11.8L160,739.5l0.3-0.9l120,35.9l-110.2-59.5l0.5-0.9l110.7,58.6l-96.5-79.9l0.6-0.8
				l97.2,79.1l-79.1-97.2l0.8-0.6l79.9,96.5l-58.6-110.7l0.9-0.5l59.5,110.2l-35.9-120l0.9-0.3l36.9,119.7L276,643.6l1-0.1
				l12.8,124.6l12.8-124.6l1,0.1l-11.8,124.7l36.9-119.7l0.9,0.3l-35.9,120l59.5-110.2l0.9,0.5l-58.6,110.7l79.9-96.5l0.8,0.6
				l-79.1,97.2l97.2-79.1l0.6,0.8l-96.5,79.9L409.1,714l0.5,0.9l-110.2,59.5l120-35.9l0.3,0.9l-119.7,36.9l124.7-11.8l0.1,1
				l-124.6,12.8l124.6,12.8l-0.1,1l-124.7-11.8l119.7,36.9l-0.3,0.9l-120-35.9l110.2,59.5l-0.5,0.9L298.3,784l96.5,79.9l-0.6,0.8
				l-97.2-79.1l79.1,97.2l-0.8,0.6l0,0l-79.9-96.5l58.6,110.7l-0.9,0.5l-59.5-110.2l35.9,120l-0.9,0.3l-36.9-119.7l11.8,124.7
				l-1,0.1l-12.8-124.6L277,913.2z M289.8,778.9l1.4,13.5l-1.3-13.6l4,13l-3.9-13.1l6.5,12l-6.4-12.1l8.7,10.5l-8.6-10.6l10.5,8.6
				l-10.5-8.7l12,6.4l-12-6.5l13.1,3.9l-13-4l13.6,1.3l-13.6-1.4l13.6-1.4l-13.6,1.3l13.1-4l-13.2,3.9l12-6.5l-12,6.4l10.5-8.7
				l-10.5,8.6l8.6-10.6l-8.7,10.5l6.4-12.1l-6.5,12l3.9-13.1l-4,13l1.3-13.6l-1.4,13.5l-1.4-13.5l1.3,13.6l-4-13l3.9,13.1l-6.5-12
				l6.4,12.1l-8.7-10.5l8.6,10.6l-10.6-8.6l10.5,8.7l-12-6.4l12,6.5l-13.1-3.9l13.1,4l-13.6-1.3l13.6,1.4l-13.6,1.4l13.6-1.3l-13,4
				l13-3.9l-12,6.5l12-6.4l-10.5,8.7l10.6-8.6l-8.6,10.6l8.7-10.5l-6.4,12.1l6.5-12l-3.9,13.1l4-13l-1.3,13.6L289.8,778.9z"/>
		</g>
		<g>
			<path class="st9" d="M782.4,913.2l-12.8-124.6l-12.8,124.6l-1-0.1l11.8-124.7l-36.9,119.7l-0.9-0.3l35.9-120l-59.5,110.2
				l-0.9-0.5l58.6-110.7l-79.9,96.5l-0.8-0.6l79.1-97.2l-97.2,79.1l-0.6-0.8l96.5-79.9l-110.7,58.6l-0.5-0.9l110.2-59.5l-120,35.9
				l-0.3-0.9l119.7-36.9l-124.7,11.8l-0.1-1l124.6-12.8l-124.6-12.8l0.1-1l124.7,11.8l-119.7-36.9l0.3-0.9l120,35.9l-110.2-59.5
				l0.5-0.9l110.7,58.6l-96.5-79.9l0.6-0.8l97.2,79.1l-79.1-97.2l0.8-0.6l79.9,96.5l-58.6-110.7l0.9-0.5l59.5,110.2l-35.9-120
				l0.9-0.3l36.9,119.7l-11.8-124.7l1-0.1l12.8,124.6l12.8-124.6l1,0.1l-11.8,124.7l36.9-119.7l0.9,0.3l-35.9,120l59.5-110.2
				l0.9,0.5l-58.6,110.7l79.9-96.5l0.8,0.6l-79.1,97.2l97.2-79.1l0.6,0.8l-96.5,79.9L888.9,714l0.5,0.9l-110.2,59.5l120-35.9
				l0.3,0.9l-119.7,36.9l124.7-11.8l0.1,1l-124.6,12.8l124.6,12.8l-0.1,1l-124.7-11.8l119.7,36.9l-0.3,0.9l-120-35.9l110.2,59.5
				l-0.5,0.9L778.2,784l96.5,79.9l-0.6,0.8l-97.2-79.1l79.1,97.2l-0.8,0.6l0,0l-79.9-96.5L834,897.6l-0.9,0.5l-59.5-110.2l35.9,120
				l-0.9,0.3l-36.9-119.7l11.8,124.7L782.4,913.2z M769.7,778.9l1.4,13.5l-1.3-13.6l4,13l-3.9-13.1l6.5,12l-6.4-12.1l8.7,10.5
				l-8.6-10.6l10.6,8.6l-10.5-8.7l12,6.3l-11.9-6.4l13.1,3.9l-13-4l13.6,1.3l-13.6-1.4l13.6-1.4l-13.6,1.3l13.1-4l-13.2,3.9
				l11.9-6.4l-12,6.3l10.5-8.7l-10.6,8.6l8.6-10.6l-8.7,10.5l6.4-12.1l-6.5,12l3.9-13.1l-4,13l1.3-13.6l-1.4,13.5l-1.4-13.5
				l1.3,13.6l-4-13l3.9,13.1l-6.5-12l6.4,12.1l-8.7-10.5l8.6,10.6l-10.6-8.6l10.5,8.7l-12-6.3l11.9,6.4l-13.2-3.9l13.1,4l-13.6-1.3
				l13.6,1.4l-13.6,1.4l13.6-1.3l-13,4l13.1-3.9l-11.9,6.4l12-6.3l-10.5,8.7l10.6-8.6l-8.6,10.6l8.7-10.5l-6.4,12.1l6.5-12
				l-3.9,13.1l4-13l-1.3,13.6L769.7,778.9z"/>
		</g>
		<g>
			<path class="st10" d="M289.4,746.7L484,767.1l-8.4,69.8l-191.3-27.7L289.4,746.7 M287.6,744.5l-5.4,66.4l195.1,28.2l8.9-73.8
				L287.6,744.5L287.6,744.5z"/>
		</g>
		<g>
			<circle class="st9" cx="289.5" cy="777.9" r="33.4"/>
		</g>
		<g>
			<circle class="st11" cx="289.5" cy="777.9" r="23.4"/>
		</g>
		<g>
			<path class="st12" d="M773.9,912c-74.7,0-135.4-60.8-135.4-135.4s60.8-135.4,135.4-135.4s135.4,60.8,135.4,135.4
				S848.6,912,773.9,912z M773.9,651.1c-69.2,0-125.5,56.3-125.5,125.5s56.3,125.5,125.5,125.5s125.5-56.3,125.5-125.5
				S843.2,651.1,773.9,651.1z"/>
		</g>
		<g>
			<path class="st12" d="M286.2,912c-74.7,0-135.4-60.8-135.4-135.4s60.8-135.4,135.4-135.4s135.4,60.8,135.4,135.4
				S360.8,912,286.2,912z M286.2,651.1c-69.2,0-125.5,56.3-125.5,125.5s56.3,125.5,125.5,125.5s125.5-56.3,125.5-125.5
				S355.4,651.1,286.2,651.1z"/>
		</g>
		<g>
			<path class="st13" d="M286.2,622.1c-85.3,0-154.5,69.2-154.5,154.5c0,85.3,69.2,154.5,154.5,154.5c85.3,0,154.5-69.2,154.5-154.5
				C440.7,691.3,371.5,622.1,286.2,622.1z M286.2,907.3c-72.1,0-130.7-58.6-130.7-130.7s58.6-130.7,130.7-130.7
				s130.7,58.6,130.7,130.7S358.2,907.3,286.2,907.3z"/>
		</g>
		<g>
			<path class="st13" d="M773.9,622.1c-85.3,0-154.5,69.2-154.5,154.5c0,85.3,69.2,154.5,154.5,154.5c85.3,0,154.5-69.2,154.5-154.5
				C928.4,691.3,859.3,622.1,773.9,622.1z M773.9,907.3c-72.1,0-130.7-58.6-130.7-130.7s58.6-130.7,130.7-130.7
				s130.7,58.6,130.7,130.7S846,907.3,773.9,907.3z"/>
		</g>
		<g>
			<path class="st14" d="M350.4,477.4c0,0-9.9,14.4,6.4,30.2c16.3,15.8,121.4,116.8,121.4,116.8l2,9.4c0,0-36.2,92.6-36.2,119.8
				s19.8,27.2,19.8,27.2l80.2-152.5l-80.2-135.2C463.8,493.1,385,446.7,350.4,477.4z"/>
		</g>
		<g class="st15">
			<path class="st16" d="M497.7,549.9l-40.1-66.4l-100.2,9.8c0,0,7.9,15.6,19.7,33.4c23.5,22.7,72.8,70,96.7,93
				C456.3,596.7,422.6,548.1,497.7,549.9z"/>
		</g>
		<g>
			<polygon class="st17" points="684.7,501.5 682.1,514.6 706.6,515.1 697.7,501.9 			"/>
		</g>
		<g>
			<path class="st18" d="M661.1,516.9l36.6-11.6l25.7,10.3c1.6,0.6,2.2,2.6,1.3,4l-5,7.9l-10.6-4.1l-5.6,6.9c0,0-13.7-9.9-25.4-5.8
				c-11.7,4.1-12.7,7.4-12.7,7.4L661.1,516.9z"/>
		</g>
		<g>
			<polygon class="st18" points="664.1,512.2 648.2,518.5 661.6,572.7 684.7,563.1 			"/>
		</g>
		<g>
			<path class="st13" d="M660.6,540.6l-127.4,75.9c0,0-78.6,35-90.5,7.9c-11.9-27.1-37.6-107-37.6-107h-17.2
				c0,0,69.3,178.3,77.3,211.3c7.9,33,7.9,40.9,7.9,40.9l15.8-2c0,0,12.5-114.2,70.7-149.9s74.9-44.9,75.9-36
				c1,8.9-132.1,193-132.1,193l0.5,28.7l19.8-18.3l113.9-169.9c0,0,24.3-24.8,34.2-23.3l22.5-9.2l-22-47.7L660.6,540.6z"/>
		</g>
		<g>
			<path class="st18" d="M459.4,676.8l-172,87.9c-4.6,2.3-7.6,6.8-8.2,11.9l0,0c-0.9,8.2,4.8,15.5,13,16.7l182.1,26.1l3-28.7
				l-156.8-10.8c-4.5-0.3-7.9-4.1-7.8-8.6l0,0c0.1-3,1.8-5.6,4.4-7l153.3-81.9L459.4,676.8z"/>
		</g>
		<g>
			<circle class="st9" cx="772.4" cy="774.9" r="38.1"/>
		</g>
		<g>
			<circle class="st11" cx="772.4" cy="774.9" r="26"/>
		</g>
		<g>
			<path class="st18" d="M338.4,533.1c0,0,4-9.8,12-14.1s63.4-9.3,69.6-5.1c6.2,4.2,0.9,20.9-5.8,21.5
				C407.5,535.9,352.1,526.8,338.4,533.1z"/>
		</g>
		<g>
			<path class="st4" d="M452.3,664.6l-11.2,15.2c0,0,1.3,8.3,8.6,5.9c7.3-2.3,21.8-9.2,21.8-9.2l2.3-11.2L452.3,664.6z"/>
		</g>
		<g>
			<path class="st5" d="M444.3,673.8l1,0.5l-0.4,0.5c-3.1,4,0,9.8,5.1,9.3c4.5-0.4,11.1-2.6,21.3-7.8l17.6,2.5
				c0,0,17.5,31.7,40.3,32c22.8,0.3,15.5,25.1-14.2,21.1c-29.7-4-90.8-17.5-91.8-27.7c-0.8-8.5,8.8-23,14.7-29.2
				C439.6,673.3,442.2,672.8,444.3,673.8z"/>
		</g>
		<g>
			<path class="st18" d="M695.5,583.6c-1.6,0-2.7-0.1-3.3-0.4l0.4-0.9c2.8,1.2,20.8-0.7,33.9-8.8c9-5.5,13.7-12.7,14.1-21.2
				c1.2-26-18.8-31.9-19-31.9l0.3-1c0.2,0.1,20.9,6.1,19.7,32.9c-0.4,8.9-5.3,16.3-14.6,22C716,581.1,702.1,583.6,695.5,583.6z"/>
		</g>
		<g>
			<path class="st18" d="M687.6,569.8l-0.4-0.9c0.4-0.1,35.1-14.9,36.3-26.8c1.4-14-6.8-16.8-6.9-16.9l0.3-0.9c0.1,0,9,3.1,7.5,17.9
				C723.3,554.7,689.1,569.2,687.6,569.8z"/>
		</g>
		<g>
			<path class="st18" d="M719.1,502.5l10.6,3.7l0,0c0.4-1.7,2-2.9,3.8-2.8l2.8,0.1c1.9,0.1,3.4,1.6,3.5,3.5l0.1,1
				c0.2,3.4-2.1,6.4-5.3,7.2l-1.2,0.3c-1.4,0.3-2.8,0.3-4.1-0.2l-16.3-5.9L719.1,502.5z"/>
		</g>
		<g>
			<polygon class="st18" points="681.5,496.1 659.2,503 662.7,509.9 690.2,506.2 			"/>
		</g>
		<g>
			<path class="st18" d="M673.5,592.1l87,188.1c1.1,2.3,3.1,4.1,5.5,5l0.8,0.3c5.8,2,12-2.1,12.4-8.3l0,0c0.1-1.6-0.2-3.1-0.8-4.5
				l-87.1-192.4L673.5,592.1z"/>
		</g>
		<g>
			<path class="st19" d="M355.4,440.6c0,0-18.3,22.8-6.4,48.5s100.5,55.5,176.3,46.6c0,0,18.3,1,18.3,3.5
				c0,2.5-72.3,52.5-99.5,130.2l43.1,6.4c0,0,63.4-90.1,94.1-104.5c30.7-14.4,42.6-47.5,19.3-66.4c-23.3-18.8-102.5-57-136.7-60.4
				C429.7,441.1,355.4,440.6,355.4,440.6z"/>
		</g>
		<g class="st20">
			<path class="st16" d="M566.2,483.8c-33.3-17.6-78.1-36.4-101.7-38.8c-34.2-3.5-108.5-4-108.5-4s-18.3,22.8-6.4,48.5
				c2.2,4.7,6.9,9.6,13.7,14.3c0.4,0,0.8,0,1.2-0.1c0,0-15.8-36.2,19.3-41.6c35.2-5.4,127.8-2.5,176.8,19.3
				C563,482.5,564.9,483.2,566.2,483.8z"/>
		</g>
		<g>
			<path class="st6" d="M542.4,717.8c-4,4.1-13,7.9-17.7,9.2c-5.1,1.4-73.9-14.4-85.2-18.6c-9.4-3.5-13.8-9.8-15-11.9
				c-1,2.8-1.5,5.5-1.3,7.7c1,10.2,62.1,23.8,91.8,27.7C534.4,734.6,544.2,724.9,542.4,717.8z"/>
		</g>
		<g class="st7">
			<path class="st6" d="M471.5,678.4l17.3,2.3c0,0-15.7,15-47.4,10.4C441.5,691.1,471.5,686.4,471.5,678.4z"/>
		</g>
		<g>
			<circle class="st9" cx="290.7" cy="778.2" r="5.9"/>
		</g>
		<g>
			<circle class="st9" cx="769.9" cy="777.1" r="4.2"/>
		</g>
		<g>
			<circle class="st18" cx="482.9" cy="802.4" r="36.9"/>
		</g>
		<g>
			<circle class="st21" cx="482.9" cy="802.4" r="26.2"/>
		</g>
		<g>
			<path class="st22" d="M677.6,462.2c0,0,5,8.9,15,10.1c10.1,1.2,30.9,1.8,31.5,8.6c0.7,6.8-1,22.3-3,25.6
				c-2,3.3-18.8,13.9-22.6,13.4c-3.8-0.5-0.8-9.4-0.8-9.4s-8.7,0.7-13-8.9c-4.3-9.6-22.9-32.4-22.9-32.4L677.6,462.2z"/>
		</g>
		<g>
			<circle class="st18" cx="702.8" cy="491.7" r="8.2"/>
		</g>
		<g>
			<path class="st23" d="M518.6,388.3c0,0,77.6,88.8,118.9,102.7l14.5-13.2c0,0-96.4-96.7-111.6-146.9"/>
		</g>
		<g class="st24">
			<path class="st25" d="M523.1,393.9c0,0,27-12.6,56.5,10.9c29.5,23.5-42.1-61.2-42.1-61.2L523.1,393.9z"/>
		</g>
		<g>
			<path class="st26" d="M525,137.2c0,0,55.7,0.6,63.2,63.8c7.5,63.2-7,91.6-18,106.1c-11,14.5-125.9,114.8-135.1,122.4
				s-91.6,3.5-100.3-56.3s22.6-55.7,37.7-92.8c15.1-37.1-15.1-71.3,12.2-94s49.9,4.1,82.9-14.5S497.8,137.8,525,137.2z"/>
		</g>
		<g>
			<path d="M557.2,232.6c0,0,6.7,16.9,3.9,29.6s-23.6,24.6-23.6,24.6l-12.1-29.4L557.2,232.6z"/>
		</g>
		<g>
			<path d="M490.2,234.3c0,0-26.1,4-38.3,12.9s-6.6,39.9-17.8,56.5c-11.2,16.5-44.2,43.2-39.9,69.3c4.3,26.1,120.5-97.7,120.5-97.7
				l0.3-25.4L490.2,234.3z"/>
		</g>
		<g>
			<path class="st27" d="M507.9,256c0,0,6.3,6.9-0.9,19.3l29,0.5c0,0-7.5-13.6-1.1-19.6L507.9,256z"/>
		</g>
		<g class="st7">
			<g>
				<path class="st28" d="M522.1,275.6c-1.7-2.7-4.3-9.3,6.2-14.3c-3.7,0.8-9.9,0.9-19-2.8l0,0.1c1.2,3.1,2.1,8.8-2.4,16.7
					L522.1,275.6z"/>
			</g>
		</g>
		<g>
			<path class="st27" d="M537.2,172.6L537.2,172.6c0,0-19.1-2.9-24.9,22c-5.8,24.9-8.7,35.7-22,39.7c0,0,7.5,27.3,33.1,27.3
				c25.5,0,33.9-29,33.9-29S531.7,208.5,537.2,172.6z"/>
		</g>
		<g class="st29">
			<path class="st28" d="M536.7,172.4c-3.1-0.2-19.2-0.5-24.4,22.1c-5.7,24.5-8.6,35.3-21.4,39.5c21.8,3.1,26.7-35.4,30-47.7
				C523.7,176.1,533.5,173.1,536.7,172.4z"/>
		</g>
		<g>
			<path class="st30" d="M489.6,275.5c0,0-17.2,0.7-56.8,42.4S346,453.6,345,456.3s50.8-14.6,76.3-12.2
				c25.4,2.4,55.5,11.2,55.5,11.2s11.9-9.5,18.2-26.5c6.3-17,13.5-17.3,23.8-28.8c10.2-11.5,39.2-67.4,40.6-85.8
				C561.3,287.1,551.4,265.7,489.6,275.5z"/>
		</g>
		<g>
			<path class="st30" d="M485.6,296.2c0,0,100,138.5,183.7,181.6c0,0,15.7-2.6,16-13.2c0,0-135.4-130.4-139-174.3"/>
			<path class="st31" d="M669.3,478L669.3,478c-43.3-22.3-91-70.5-123.4-107c-35.1-39.6-60.2-74.3-60.5-74.7l0.4-0.3
				c0.2,0.3,25.4,35.1,60.5,74.6c32.3,36.5,79.9,84.6,123.1,106.9c1.2-0.2,15.3-3.1,15.7-12.8c-1.9-1.8-35-33.9-68.1-70.6
				c-31.3-34.8-69-81-70.9-103.8l0.5,0c3.6,43.3,137.6,172.9,138.9,174.2l0.1,0.1l0,0.1C685.3,475.2,669.6,478,669.3,478L669.3,478z
				"/>
		</g>
		<g>
			<polyline class="st32" points="528.4,210.8 530.8,229.6 525.9,230.8 			"/>
		</g>
		<g>
			<path d="M533.2,204.4c0.8-1,1.8-1.6,3-2.1c1.1-0.5,2.4-0.7,3.6-0.8c1.2,0,2.5,0.1,3.6,0.5c1.2,0.4,2.3,0.9,3.2,1.7
				c-1.2,0-2.3-0.2-3.5-0.2c-1.1-0.1-2.2-0.1-3.3,0c-1.1,0-2.2,0.1-3.2,0.3C535.5,203.9,534.4,204.1,533.2,204.4z"/>
		</g>
		<g>
			<path d="M505.5,205.2c0.8-1,1.8-1.6,3-2.1c1.1-0.5,2.4-0.7,3.6-0.8c1.2,0,2.5,0.1,3.6,0.5c1.2,0.4,2.3,0.9,3.2,1.7
				c-1.2,0-2.3-0.2-3.5-0.2c-1.1-0.1-2.2-0.1-3.3,0c-1.1,0-2.2,0.1-3.2,0.3C507.8,204.7,506.7,204.9,505.5,205.2z"/>
		</g>
		<g>
			<ellipse cx="540.4" cy="212.7" rx="2" ry="2.6"/>
		</g>
		<g>
			<ellipse cx="512.8" cy="212.7" rx="2" ry="2.6"/>
		</g>
		<g>
			<path class="st32" d="M518.5,241.7c0,0,7.1,4.2,15.9,0c0,0-3.1,4.5-8.6,4.5S518.5,241.7,518.5,241.7z"/>
		</g>
		<g>
			<polygon class="st10" points="497.2,729.5 463.3,722.3 461.8,729.3 476.4,732.5 478.6,803.5 485.3,803.5 483.2,733.9 
				495.7,736.6 			"/>
		</g>
		<g class="st33">
			<path class="st34" d="M485.4,296.4l54.8,67.8L524,392.7C524,392.7,501.6,335,485.4,296.4z"/>
		</g>
		<g class="st24">
			<path class="st34" d="M506.1,273.5c-4.3,0.3-8.9,0.8-13.9,1.6c-3.1,0.7-6.1,1.5-9.1,2.4c-8.2,3.5-24.5,13.3-50.2,40.4
				C393.2,359.6,346,453.6,345,456.3c-0.5,1.4,12.4-2.3,28.5-6.1c0.6-3.5,5.5-27.2,34.3-86.4C436.2,305.5,495.2,278.1,506.1,273.5z"
				/>
		</g>
		<g>
			<polygon class="st12" points="653.3,543.9 673.8,533.8 694.9,582.6 672.9,594.7 670,594.4 			"/>
		</g>
		<g class="st20">
			<polygon class="st35" points="653.6,545.1 670,594.7 672.9,595.1 694.9,582.9 679.2,579.5 			"/>
		</g>
		<g>
			<circle class="st9" cx="483.2" cy="801" r="8.7"/>
		</g>
		<g>
			<path class="st12" d="M580.5,678.5l0.6-0.8l3.2-1.1l0-0.1l-0.1-3.3l0.6-0.8l2.4,1.7l-0.3,0.5l-2.2-1.6l0,0.1l0.1,3.4l-0.4,0.6
				l-3.2,1.1l0,0.1l2.2,1.6l-0.3,0.5L580.5,678.5z"/>
			<path class="st12" d="M590,670.1c-0.3,0.4-0.6,0.8-0.8,1c-0.2,0.3-0.5,0.5-0.7,0.6c-0.2,0.1-0.4,0.2-0.6,0.2
				c-0.2,0-0.4-0.1-0.6-0.2c-0.2-0.1-0.3-0.3-0.4-0.5c-0.1-0.2-0.1-0.4,0-0.6c0.1-0.2,0.2-0.5,0.3-0.8c0.2-0.3,0.4-0.7,0.7-1.1
				c0.3-0.4,0.6-0.8,0.8-1c0.2-0.3,0.5-0.5,0.7-0.6c0.2-0.1,0.4-0.2,0.6-0.2c0.2,0,0.4,0.1,0.6,0.2c0.2,0.1,0.3,0.3,0.4,0.5
				c0.1,0.2,0.1,0.4,0,0.6c-0.1,0.2-0.2,0.5-0.4,0.9C590.5,669.4,590.2,669.7,590,670.1z M589.8,670c0.3-0.4,0.5-0.7,0.6-0.9
				c0.1-0.3,0.2-0.5,0.3-0.7c0-0.2,0-0.3,0-0.5c-0.1-0.1-0.2-0.3-0.3-0.4c-0.2-0.1-0.3-0.2-0.5-0.2c-0.1,0-0.3,0-0.5,0.1
				c-0.2,0.1-0.3,0.3-0.5,0.5c-0.2,0.2-0.4,0.5-0.7,0.9c-0.2,0.4-0.4,0.7-0.6,0.9c-0.1,0.3-0.2,0.5-0.3,0.7c0,0.2,0,0.3,0,0.5
				c0.1,0.1,0.2,0.3,0.3,0.4c0.2,0.1,0.3,0.2,0.4,0.2c0.1,0,0.3,0,0.5-0.1c0.2-0.1,0.3-0.3,0.5-0.5
				C589.3,670.7,589.6,670.4,589.8,670z"/>
			<path class="st12" d="M593.6,660.8l1.9,1.3l-0.3,0.4l-0.4-0.2c0,0.1,0,0.2,0,0.4c0,0.2-0.1,0.3-0.2,0.5c-0.1,0.2-0.2,0.4-0.3,0.6
				s-0.3,0.4-0.4,0.6c-0.2,0.3-0.5,0.6-0.6,0.8c-0.2,0.2-0.4,0.4-0.5,0.5c-0.1,0.1-0.3,0.2-0.4,0.2c-0.1,0-0.2,0-0.3-0.1l-1.3-0.9
				l0.3-0.5l1.2,0.8c0.1,0.1,0.2,0.1,0.3,0.1c0.1,0,0.2,0,0.3-0.1c0.1-0.1,0.2-0.2,0.4-0.4c0.1-0.2,0.3-0.4,0.5-0.7
				c0.1-0.2,0.3-0.4,0.4-0.6c0.1-0.2,0.2-0.4,0.3-0.6c0.1-0.2,0.1-0.4,0.2-0.5c0-0.2,0-0.3,0-0.4l-1.3-0.9L593.6,660.8z"/>
			<path class="st12" d="M596.5,656.6c0.2-0.3,0.5-0.6,0.6-0.8c0.2-0.2,0.4-0.4,0.5-0.5c0.1-0.1,0.3-0.2,0.4-0.2s0.2,0,0.3,0.1
				l1.3,0.9l-0.3,0.5l-1.2-0.8c-0.1-0.1-0.2-0.1-0.3-0.1c-0.1,0-0.2,0-0.3,0.1c-0.1,0.1-0.2,0.2-0.4,0.4c-0.1,0.2-0.3,0.4-0.5,0.7
				c-0.1,0.2-0.3,0.4-0.4,0.6s-0.2,0.4-0.3,0.6c-0.1,0.2-0.1,0.4-0.2,0.5c0,0.2,0,0.3,0,0.4l1.3,0.9l-0.3,0.5l-1.9-1.3l0.3-0.5
				l0.3,0.2c0-0.1,0-0.2,0-0.4c0-0.2,0.1-0.3,0.2-0.5c0.1-0.2,0.2-0.4,0.3-0.6C596.2,657,596.4,656.8,596.5,656.6z"/>
			<path class="st12" d="M601.8,652.8c0.1-0.1,0.2-0.3,0.3-0.4c0.1-0.1,0.1-0.2,0.2-0.4l0.1,0.1c-0.1,0.1-0.1,0.2-0.2,0.4
				c-0.1,0.1-0.2,0.3-0.2,0.4c-0.2,0.3-0.3,0.5-0.5,0.6c-0.1,0.2-0.3,0.3-0.4,0.4c-0.1,0.1-0.2,0.1-0.3,0.1c-0.1,0-0.2-0.1-0.3-0.1
				l-1.2-0.8l-0.6,0.9l-0.1-0.1l0.6-0.9l-0.4-0.3l0.3-0.5l0.4,0.3l1.1-1.5l0.1,0.1l-1.1,1.5l1.2,0.8c0.1,0.1,0.2,0.1,0.2,0.1
				c0.1,0,0.2,0,0.2,0c0.1,0,0.2-0.1,0.3-0.2C601.6,653.1,601.7,653,601.8,652.8z"/>
			<path class="st12" d="M602.7,647.7c0.3-0.4,0.5-0.7,0.7-1c0.2-0.2,0.4-0.4,0.5-0.5c0.2-0.1,0.3-0.2,0.4-0.2c0.1,0,0.2,0,0.3,0.1
				l1.3,0.9l-0.3,0.4l-0.4-0.2c0,0.2-0.1,0.6-0.3,1c-0.2,0.4-0.5,0.9-0.8,1.4c-0.5,0.7-0.8,1.1-1.1,1.3c-0.3,0.2-0.5,0.3-0.7,0.2
				c-0.1-0.1-0.2-0.2-0.2-0.4c0-0.2,0.1-0.4,0.1-0.6c0.1-0.2,0.2-0.5,0.4-0.8c0.2-0.3,0.4-0.6,0.6-0.9l1.3-1.9l-0.2-0.1
				c-0.1-0.1-0.2-0.1-0.2-0.1c-0.1,0-0.2,0-0.3,0.1c-0.1,0.1-0.3,0.2-0.4,0.4c-0.2,0.2-0.3,0.4-0.6,0.7c-0.1,0.2-0.3,0.4-0.4,0.6
				s-0.3,0.4-0.4,0.7l-0.2-0.1c0.1-0.2,0.3-0.4,0.4-0.7C602.4,648.1,602.5,647.9,602.7,647.7z M604,649.6c0.4-0.5,0.7-1,0.9-1.5
				c0.2-0.4,0.3-0.8,0.2-1l-0.4-0.3l-1.2,1.8c-0.2,0.3-0.4,0.5-0.5,0.8c-0.1,0.2-0.2,0.4-0.3,0.6c-0.1,0.2-0.1,0.3-0.1,0.4
				c0,0.1,0.1,0.2,0.1,0.3C602.9,650.9,603.4,650.5,604,649.6z"/>
			<path class="st12" d="M605.2,643.3c-0.1,0.1-0.2,0.2-0.2,0.2c0,0-0.1,0-0.1,0c-0.1,0-0.1-0.1,0-0.1c0-0.1,0.1-0.1,0.2-0.3
				c0.1-0.1,0.1-0.2,0.2-0.2c0,0,0.1,0,0.1,0c0.1,0,0.1,0.1,0,0.1C605.3,643.1,605.3,643.2,605.2,643.3z M605.4,643.8l0.3-0.5
				l1.9,1.3l-0.3,0.5L605.4,643.8z"/>
			<path class="st12" d="M608.7,639.1c0.2-0.3,0.5-0.6,0.6-0.8c0.2-0.2,0.4-0.4,0.5-0.5c0.1-0.1,0.3-0.2,0.4-0.2
				c0.1,0,0.2,0,0.3,0.1l1.3,0.9l-0.3,0.5l-1.2-0.8c-0.1-0.1-0.2-0.1-0.3-0.1s-0.2,0-0.3,0.1c-0.1,0.1-0.2,0.2-0.4,0.4
				c-0.1,0.2-0.3,0.4-0.5,0.7c-0.1,0.2-0.3,0.4-0.4,0.6c-0.1,0.2-0.2,0.4-0.3,0.6c-0.1,0.2-0.1,0.4-0.2,0.5c0,0.2,0,0.3,0,0.4
				l1.3,0.9l-0.3,0.5l-1.9-1.3l0.3-0.5l0.3,0.2c0-0.1,0-0.2,0-0.4c0-0.2,0.1-0.3,0.2-0.5c0.1-0.2,0.2-0.4,0.3-0.6
				C608.4,639.5,608.5,639.3,608.7,639.1z"/>
			<path class="st12" d="M612.4,632.7l1.3-1.8c0.3-0.4,0.6-0.8,0.8-1c0.2-0.3,0.4-0.5,0.6-0.6c0.2-0.1,0.3-0.2,0.4-0.2
				c0.1,0,0.2,0,0.4,0.1c0.1,0,0.1,0.1,0.1,0.2c0,0.1,0,0.2,0,0.3c0,0.1,0,0.3-0.1,0.4c-0.1,0.2-0.2,0.4-0.3,0.6l0,0
				c0.4-0.5,0.7-0.8,0.9-0.9c0.2-0.1,0.4-0.1,0.6,0c0.1,0.1,0.2,0.2,0.2,0.3c0,0.1,0,0.3-0.1,0.5c-0.1,0.2-0.2,0.5-0.4,0.8
				c-0.2,0.3-0.4,0.7-0.8,1.2l-1.3,1.8L612.4,632.7z M614.6,631.9c0.3-0.4,0.5-0.7,0.6-1c0.2-0.3,0.3-0.5,0.3-0.7
				c0.1-0.2,0.1-0.3,0.1-0.4c0-0.1-0.1-0.2-0.2-0.3c-0.1-0.1-0.2-0.1-0.3-0.1c-0.1,0-0.2,0.1-0.4,0.3c-0.1,0.1-0.3,0.3-0.5,0.6
				c-0.2,0.3-0.4,0.6-0.7,0.9l-0.7,1l1,0.7L614.6,631.9z M615.8,632.5c0.3-0.4,0.5-0.8,0.7-1c0.2-0.3,0.3-0.5,0.3-0.7
				c0.1-0.2,0.1-0.3,0.1-0.4c0-0.1-0.1-0.2-0.2-0.3c-0.1-0.1-0.2-0.1-0.3-0.1c-0.1,0-0.2,0.1-0.4,0.3c-0.2,0.1-0.3,0.3-0.6,0.6
				c-0.2,0.3-0.5,0.6-0.8,1l-0.8,1.1l1,0.7L615.8,632.5z"/>
			<path class="st12" d="M616.8,626.6c-0.1,0.1-0.1,0.2-0.2,0.2c0,0-0.1,0-0.1,0c-0.1,0-0.1-0.1,0-0.1c0-0.1,0.1-0.1,0.2-0.3
				c0.1-0.1,0.1-0.2,0.2-0.2c0,0,0.1,0,0.1,0c0.1,0,0.1,0.1,0,0.1C616.9,626.4,616.9,626.4,616.8,626.6z M617.1,627.1l0.3-0.5
				l1.9,1.3l-0.3,0.5L617.1,627.1z"/>
			<path class="st12" d="M623.3,622.2l-0.4,0.6l-2.6,1.8l-0.2,0.3l0.9,0.6l-0.3,0.5l-2.6-1.8l0.3-0.5l1.6,1.1l0.2-0.3l0.8-2.9
				l0.4-0.6l-0.9,3.1L623.3,622.2z"/>
			<path class="st12" d="M625.5,616.6C625.5,616.6,625.5,616.6,625.5,616.6c0.1,0.1,0.1,0.1,0.2,0.1l-2.6,4c0.1,0.1,0.3,0.1,0.4,0.1
				c0.1,0,0.3-0.1,0.5-0.2c0.2-0.1,0.4-0.3,0.6-0.5c0.2-0.2,0.4-0.5,0.7-0.9c0.2-0.3,0.4-0.6,0.6-0.9c0.2-0.3,0.4-0.6,0.5-0.9
				l0.1,0.1c0,0.1-0.1,0.2-0.2,0.3c-0.1,0.1-0.2,0.3-0.3,0.5c-0.1,0.2-0.2,0.3-0.3,0.5s-0.2,0.4-0.4,0.5c-0.3,0.4-0.6,0.8-0.8,1.1
				c-0.2,0.3-0.5,0.5-0.7,0.6c-0.2,0.1-0.4,0.2-0.6,0.2c-0.2,0-0.4-0.1-0.6-0.2c-0.2-0.1-0.3-0.3-0.4-0.5c-0.1-0.2-0.1-0.4,0-0.6
				c0.1-0.2,0.2-0.5,0.3-0.8c0.2-0.3,0.4-0.7,0.7-1.1c0.3-0.5,0.6-0.8,0.8-1c0.2-0.2,0.4-0.4,0.6-0.5c0.2-0.1,0.3-0.1,0.4-0.1
				C625.3,616.5,625.4,616.5,625.5,616.6z M625.2,617c-0.1-0.1-0.2-0.1-0.3-0.1c-0.1,0-0.2,0-0.4,0.1c-0.1,0.1-0.3,0.2-0.5,0.4
				c-0.2,0.2-0.4,0.5-0.6,0.8c-0.3,0.4-0.4,0.7-0.6,0.9c-0.1,0.3-0.2,0.5-0.3,0.7c0,0.2,0,0.3,0,0.5c0.1,0.1,0.1,0.2,0.3,0.3
				L625.2,617z"/>
		</g>
	</g>
	<path class="st2" d="M278.6,931.5H158.2c-9.4,0-18.6-2.7-26.1-8.3c-10.3-7.6-21-22-20.6-49.6c0.5-32.4,71.7-46.3,71.7,9.3
		C183.2,935.6,278.6,931.5,278.6,931.5z"/>
	<path class="st1" d="M273,932h-66.8c-5.2,0-10.3-1.5-14.5-4.6c-5.7-4.2-11.6-12.2-11.4-27.5c0.3-18,39.8-25.7,39.8,5.1
		C220.1,934.3,273,932,273,932z"/>
	<circle class="st1" cx="110.9" cy="839.5" r="11.6"/>
	<circle class="st2" cx="83.5" cy="830" r="6.3"/>
</g>
</svg>
