<?xml version="1.0" encoding="utf-8"?>
<!-- Generator: Adobe Illustrator 23.0.2, SVG Export Plug-In . SVG Version: 6.00 Build 0)  -->
<svg version="1.1" id="图层_1" xmlns="http://www.w3.org/2000/svg" xmlns:xlink="http://www.w3.org/1999/xlink" x="0px" y="0px"
	 viewBox="0 0 800 800" style="enable-background:new 0 0 800 800;" xml:space="preserve">
<style type="text/css">
	.st0{fill:#647A06;}
	.st1{fill:#4F5B06;}
	.st2{fill:none;stroke:#000000;stroke-width:4;stroke-linecap:round;stroke-miterlimit:10;}
	.st3{fill:#F8F8F8;}
	.st4{fill:#F2C3AF;}
	.st5{fill:#FFE2CF;}
	.st6{fill:#AF7143;}
	.st7{fill:#FFFFFF;}
	.st8{fill:#5E5D5D;}
	.st9{fill:#7E7E7E;}
	.st10{fill:#E0E0E2;}
	.st11{fill:#919191;}
	.st12{fill:#161313;}
	.st13{fill:#262222;}
	.st14{fill:#FFFFFF;stroke:#000000;stroke-width:4;stroke-linecap:round;stroke-linejoin:round;stroke-miterlimit:10;}
	.st15{fill:none;stroke:#FFFFFF;stroke-width:4;stroke-linecap:round;stroke-miterlimit:10;}
	.st16{fill:none;stroke:#FFFFFF;stroke-width:6;stroke-linecap:round;stroke-miterlimit:10;}
	.st17{fill:#EDBE94;}
	.st18{fill:#949CA8;}
	.st19{fill:#353847;}
	.st20{fill:none;stroke:#000000;stroke-width:4;stroke-miterlimit:10;}
	.st21{fill:none;}
</style>
<g>
	<path class="st0" d="M211,514.9h18.8c19.9,0,36.1-16.3,36.1-36.1v-81.9c0-19.9-16.3-36.1-36.1-36.1H211
		c-19.9,0-36.1,16.3-36.1,36.1v81.9C174.9,498.6,191.2,514.9,211,514.9z"/>
	<path class="st1" d="M213.9,360.7L213.9,360.7c2.1,0,4.2,0.2,6.2,0.4c-22.1,3.1-39.3,22.2-39.3,45.1v63.2c0,22.9,17.2,42,39.3,45.1
		c-2,0.3-4.1,0.4-6.2,0.4h0c-25,0-45.5-20.5-45.5-45.5v-63.2C168.4,381.2,188.8,360.7,213.9,360.7z"/>
	<path class="st0" d="M259.4,469.4v-63.2c0-22.9-17.2-42-39.3-45.1c2-0.3,4.1-0.4,6.2-0.4h0c25,0,45.5,20.5,45.5,45.5v63.2
		c0,25-20.5,45.5-45.5,45.5h0c-2.1,0-4.2-0.2-6.2-0.4C242.2,511.4,259.4,492.3,259.4,469.4z"/>
	<path class="st0" d="M180.8,469.4v-63.2c0-22.9,17.2-42,39.3-45.1c22.1,3.1,39.3,22.2,39.3,45.1v63.2c0,22.9-17.2,42-39.3,45.1
		C198,511.4,180.8,492.3,180.8,469.4z"/>
	<path class="st2" d="M174.9,423.8v45.6c0,25,20.5,45.5,45.5,45.5h0c25,0,45.5-20.5,45.5-45.5v-63.2c0-25-20.5-45.5-45.5-45.5h0
		c-25,0-45.5,20.5-45.5,45.5v7.5"/>
	<path class="st3" d="M575.9,571c1.5,0.7,3,1.5,4.4,2.4c16.9,10.8,21.8,33.2,11,50c-10.8,16.9-33.2,21.8-50,11l-9.2-5.9l38.2-61.1
		L575.9,571z"/>
	<path class="st3" d="M322.9,521.5c2.9-18.1,18.6-30.9,36.5-30.5l0,0c1.6,0,3.3,0.2,5,0.4c1.7,0.3,3.3,0.6,4.9,1.1l97.4,15.4
		c1.6,0,3.3,0.2,5,0.4c3.3,0.5,6.5,1.5,9.4,2.8c1.2,0.4,2.4,0.9,3.5,1.4l0,0c1.5,0.7,3,1.5,4.4,2.4c1.4,0.9,2.8,1.9,4,3l77.5,49.5
		l-38.2,61.1l-58.4-37.3l-9.9-11c-1.2-0.1-2.4-0.2-3.7-0.4l-112.1-17.7l0.1-0.3C331.1,556.7,320,539.6,322.9,521.5z"/>
	<path class="st4" d="M536.5,621.4l9.2,5.9c13.2,8.5,29.9,7.2,41.6-1.8c-0.7,1.6-1.6,3.2-2.6,4.8c-10.8,16.9-33.2,21.8-50,11
		l-9.2-5.9l9.4-15L536.5,621.4z"/>
	<path class="st0" d="M316.3,528.3c1.5-9.5,6.6-17.5,13.6-23c-1.2,2.8-2.2,5.8-2.7,9c-2.9,18.1,8.2,35.2,25.3,40.3l-0.1,0.3
		l112.1,17.7c1.2,0.2,2.4,0.3,3.7,0.4l9.9,11l56.8,36.3l-9.4,15l-58.4-37.3l-9.9-11c-1.2-0.1-2.4-0.2-3.7-0.4l-112.1-17.7l0.1-0.3
		C324.5,563.5,313.4,546.4,316.3,528.3z"/>
	<path class="st5" d="M545.7,627.2l-9.2-5.9l28.8-46.1l4,2.5c1.5,0.7,3,1.5,4.4,2.4c15.3,9.8,20.8,29.1,13.6,45.2
		C575.5,634.5,558.9,635.7,545.7,627.2z"/>
	<polygon class="st6" points="565.3,575.3 536.5,621.4 534.9,620.4 563.7,574.2 	"/>
	<path class="st0" d="M352.7,497.8L352.7,497.8c1.6,0,3.3,0.2,5,0.4c1.7,0.3,3.3,0.6,4.9,1.1l97.4,15.4c1.6,0,3.3,0.2,5,0.4
		c3.3,0.5,6.5,1.5,9.4,2.8c1.2,0.4,2.4,0.9,3.5,1.4h0c1.5,0.7,3,1.5,4.4,2.4c1.4,0.9,2.8,1.9,4,3l77.5,49.5l-28.8,46.1l-56.8-36.3
		l-9.9-11c-1.2-0.1-2.4-0.2-3.7-0.4L352.4,555l0.1-0.3c-17.1-5.1-28.1-22.2-25.3-40.3c0.5-3.2,1.4-6.2,2.7-9
		C336.3,500.4,344.3,497.6,352.7,497.8z"/>
	<path class="st2" d="M575.9,571c1.5,0.7,3,1.5,4.4,2.4c16.9,10.8,21.8,33.2,11,50c-10.8,16.9-33.2,21.8-50,11l-9.2-5.9l38.2-61.1
		L575.9,571z"/>
	<path class="st2" d="M322.9,521.5c2.9-18.1,18.6-30.9,36.5-30.5l0,0c1.6,0,3.3,0.2,5,0.4c1.7,0.3,3.3,0.6,4.9,1.1l97.4,15.4
		c1.6,0,3.3,0.2,5,0.4c3.3,0.5,6.5,1.5,9.4,2.8c1.2,0.4,2.4,0.9,3.5,1.4l0,0c1.5,0.7,3,1.5,4.4,2.4c1.4,0.9,2.8,1.9,4,3l77.5,49.5
		l-38.2,61.1l-58.4-37.3l-9.9-11c-1.2-0.1-2.4-0.2-3.7-0.4l-112.1-17.7l0.1-0.3C331.1,556.7,320,539.6,322.9,521.5z"/>
	<path class="st3" d="M518.6,641.1c1.3,1.1,2.5,2.2,3.6,3.5c13.4,14.9,12.2,37.8-2.7,51.1c-14.9,13.4-37.8,12.2-51.1-2.7l-9.4-10.4
		l55.8-45.7L518.6,641.1z"/>
	<path class="st3" d="M220.5,527.3l65.8,16.1c6.7-6.2,15.7-9.9,25.4-9.7h0c1.6,0,3.3,0.2,5,0.4c1.7,0.3,3.3,0.6,4.9,1.1l97.4,15.4
		c1.6,0,3.3,0.2,5,0.4c2.2,0.4,4.4,0.9,6.4,1.6c1.3,0.3,2.6,0.6,3.9,1.1c4.3,1.4,8.3,3.6,11.9,6.7c1.3,1.1,2.5,2.2,3.6,3.5
		c1.1,1.3,2.1,2.6,3.1,3.9l21.1,23.5l41,45.6L459,682.6l-55.2-61.3l-78-12.3c-8.4-0.4-16.6-1.7-24.5-3.9l-0.8-0.1l0-0.1
		C263.4,594.5,232.5,566.2,220.5,527.3z"/>
	<path class="st4" d="M472.5,684.3c11.3,12.6,29.4,15.4,43.7,7.9c-1.5,2-3.2,3.9-5.1,5.7c-14.9,13.4-37.8,12.2-51.1-2.7l-9.4-10.4
		l12.8-10.5L472.5,684.3z"/>
	<path class="st1" d="M212.1,529.5l18.5,4.5c14.7,30.9,42,53.3,73.9,62.1l0,0.1l0.8,0.1c7.9,2.2,16.2,3.5,24.5,3.9l78,12.3
		l55.2,61.3l0.3,0.3l-12.8,10.5l-55.2-61.3l-78-12.3c-8.4-0.4-16.6-1.7-24.5-3.9l-0.8-0.1l0-0.1
		C255.1,596.7,224.2,568.4,212.1,529.5z"/>
	<path class="st5" d="M472.5,684.3l-9.1-10.1l43-35.2l3.8,4.2c1.3,1.1,2.5,2.2,3.6,3.5c11.6,12.9,12.2,31.9,2.4,45.5
		C501.9,699.7,483.8,696.9,472.5,684.3z"/>
	<polygon class="st5" points="506.4,639 463.4,674.2 463.1,673.9 506.1,638.7 	"/>
	<path class="st0" d="M303.3,535.9L303.3,535.9c1.6,0,3.3,0.2,5,0.4c1.7,0.3,3.3,0.6,4.9,1.1l97.4,15.4c1.6,0,3.3,0.2,5,0.4
		c2.2,0.4,4.4,0.9,6.4,1.6c1.3,0.3,2.6,0.6,3.9,1.1c4.3,1.4,8.3,3.6,11.9,6.7c1.3,1.1,2.5,2.2,3.6,3.5c1.1,1.3,2.1,2.6,3.1,3.9
		l21.1,23.5l40.7,45.2l-43,35.2l-55.2-61.3l-78-12.3c-8.4-0.4-16.6-1.7-24.5-3.9l-0.8-0.1l0-0.1c-31.9-8.9-59.3-31.2-73.9-62.1
		l47.3,11.6C284.6,539.3,293.6,535.7,303.3,535.9z"/>
	<path class="st2" d="M518.6,641.1c1.3,1.1,2.5,2.2,3.6,3.5c13.4,14.9,12.2,37.8-2.7,51.1c-14.9,13.4-37.8,12.2-51.1-2.7l-9.4-10.4
		l55.8-45.7L518.6,641.1z"/>
	<path class="st2" d="M309.4,606.9c-2.8-0.5-5.5-1.2-8.2-1.9l-0.8-0.1l0-0.1c-37-10.3-67.9-38.6-79.9-77.5l65.8,16.1
		c6.7-6.2,15.7-9.9,25.4-9.7h0c1.6,0,3.3,0.2,5,0.4c1.7,0.3,3.3,0.6,4.9,1.1l97.4,15.4c1.6,0,3.3,0.2,5,0.4c2.2,0.4,4.4,0.9,6.4,1.6
		c1.3,0.3,2.6,0.6,3.9,1.1c4.3,1.4,8.3,3.6,11.9,6.7c1.3,1.1,2.5,2.2,3.6,3.5c1.1,1.3,2.1,2.6,3.1,3.9l21.1,23.5l41,45.6L459,682.6
		l-55.2-61.3l-78-12.3c-2.7-0.1-5.3-0.4-8-0.7"/>
	<g>
		<path class="st5" d="M459.9,410.7c1.4,0,2.9,0.1,4.3,0.3c17.1,2.3,29.1,18.1,26.7,35.2c-2.3,17.1-18.1,29.1-35.2,26.7l-7.6-1
			l8.5-61.7L459.9,410.7z"/>
		<path class="st3" d="M335.9,431.3l-25-87.6l0.3-0.1c-2.2-15.2,7.2-30.1,22.4-34.4c15.2-4.3,31,3.4,37.2,17.4l0,0
			c0.6,1.3,1.1,2.6,1.5,4c0.4,1.4,0.7,2.8,0.9,4.2l19,66.5l64.6,8.9l-8.5,61.7l-82.9-11.4c-1.1-0.1-2.2-0.2-3.2-0.4l-3.5-0.5l0-0.3
			C345.8,455.8,336.7,444.4,335.9,431.3z"/>
		<path class="st2" d="M335.9,431.3l-25-87.6l0.3-0.1c-2.2-15.2,7.2-30.1,22.4-34.4c15.2-4.3,31,3.4,37.2,17.4l0,0
			c0.6,1.3,1.1,2.6,1.5,4c0.4,1.4,0.7,2.8,0.9,4.2l19,66.5l67.8,9.3c1.4,0,2.9,0.1,4.3,0.3c17.1,2.3,29.1,18.1,26.7,35.2
			c-2.3,17.1-18.1,29.1-35.2,26.7l-7.6-1l-82.9-11.4c-1.1-0.1-2.2-0.2-3.2-0.4l-3.5-0.5l0-0.3C345.8,455.8,336.7,444.4,335.9,431.3z
			"/>
		<line class="st2" x1="448.1" y1="471.9" x2="456.7" y2="410.3"/>
	</g>
	<path class="st7" d="M210.8,391c0-22.1,16.9-40.2,38.5-42.2v-0.2h127.6v8.2c7-5.2,15.7-8.2,25.1-8.2c23.4,0,42.4,19,42.4,42.4v3.3
		H210.8V391z"/>
	<path class="st3" d="M202.6,391c0-22.1,16.9-40.2,38.5-42.2v-0.2h127.6v8.2c7-5.2,15.7-8.2,25.1-8.2c23.4,0,42.4,19,42.4,42.4v3.3
		H202.6V391z"/>
	<path class="st3" d="M444.4,394.3v118.5c0,22.1-16.9,40.2-38.5,42.2v0.2H253.3c-23.4,0-42.4-19-42.4-42.4V394.3H444.4z"/>
	<path class="st8" d="M215.5,394.3v118.5c0,23.4,19,42.4,42.4,42.4H245c-23.4,0-42.4-19-42.4-42.4V394.3H215.5z"/>
	<path class="st9" d="M215.5,512.8V394.3h220.7v118.5c0,22.1-16.9,40.2-38.5,42.2v0.2H257.9C234.5,555.2,215.5,536.2,215.5,512.8z"
		/>
	<path class="st2" d="M444.4,423.8"/>
	<path class="st2" d="M444.4,423.8v89c0,22.1-16.9,40.2-38.5,42.2v0.2H253.3c-23.4,0-42.4-19-42.4-42.4V391
		c0-22.1,16.9-40.2,38.5-42.2v-0.2h127.6v8.2c7-5.2,15.7-8.2,25.1-8.2c23.4,0,42.4,19,42.4,42.4v22.7"/>
	<line class="st2" x1="444.4" y1="394.3" x2="275.7" y2="394.3"/>
	<g>
		<path class="st10" d="M396.3,387.1c0-18.6-12-34.5-28.8-40.2c4.3-1.5,8.9-2.3,13.7-2.3c23.4,0,42.4,19,42.4,42.4v7.2h-27.3V387.1z
			"/>
		<path class="st2" d="M396.3,387.1c0-18.6-12-34.5-28.8-40.2c4.3-1.5,8.9-2.3,13.7-2.3c23.4,0,42.4,19,42.4,42.4v7.2h-27.3V387.1z"
			/>
	</g>
	<g>
		<path class="st10" d="M310.4,387.1c0-18.6-12-34.5-28.8-40.2c4.3-1.5,8.9-2.3,13.7-2.3c23.4,0,42.4,19,42.4,42.4v7.2h-27.3V387.1z
			"/>
		<path class="st2" d="M310.4,387.1c0-18.6-12-34.5-28.8-40.2c4.3-1.5,8.9-2.3,13.7-2.3c23.4,0,42.4,19,42.4,42.4v7.2h-27.3V387.1z"
			/>
	</g>
	<path class="st0" d="M265.9,348.6c0,0,19.3,8.4,19.3,45.7S273.9,454,273.9,454l10.9,4.8c0,0,14.6-23.7,14.6-65.9
		c0-32.2-21.4-44.3-21.4-44.3H265.9z"/>
	<path class="st2" d="M265.9,348.6c0,0,19.3,8.4,19.3,45.7S273.9,454,273.9,454l10.9,4.8c0,0,14.6-23.7,14.6-65.9
		c0-32.2-21.4-44.3-21.4-44.3H265.9z"/>
	<path class="st0" d="M210.8,510.9c0,0,17.2,2.1,26.4-5c-9.9-4.4-9.9-4.4-9.9-4.4s-9.5,2.7-16.5,1.7
		C210.8,508.5,210.8,510.9,210.8,510.9z"/>
	<path class="st2" d="M210.8,510.9c0,0,17.2,2.1,26.4-5c-9.9-4.4-9.9-4.4-9.9-4.4s-9.5,2.7-16.5,1.7
		C210.8,508.5,210.8,510.9,210.8,510.9z"/>
	<g>
		<path class="st3" d="M327.4,433.9h95.4c4.4,0,8-3.6,8-8v-4.2c0-4.4-3.6-8-8-8h-95.4c-4.4,0-8,3.6-8,8v4.2
			C319.4,430.3,323,433.9,327.4,433.9z"/>
		<path class="st8" d="M321.9,413.7h14.8c-5.5,0-10.1,4.5-10.1,10.1v0c0,5.5,4.5,10.1,10.1,10.1h-14.8c-5.5,0-10.1-4.5-10.1-10.1v0
			C311.9,418.2,316.4,413.7,321.9,413.7z"/>
		<path class="st11" d="M326.6,423.8L326.6,423.8c0-5.5,4.5-10.1,10.1-10.1h76.5c5.5,0,10.1,4.5,10.1,10.1v0
			c0,5.5-4.5,10.1-10.1,10.1h-76.5C331.2,433.9,326.6,429.3,326.6,423.8z"/>
		<path class="st2" d="M327.4,433.9h95.4c4.4,0,8-3.6,8-8v-4.2c0-4.4-3.6-8-8-8h-95.4c-4.4,0-8,3.6-8,8v4.2
			C319.4,430.3,323,433.9,327.4,433.9z"/>
	</g>
	<g>
		<path class="st3" d="M327.4,465.6h95.4c4.4,0,8-3.6,8-8v-4.2c0-4.4-3.6-8-8-8h-95.4c-4.4,0-8,3.6-8,8v4.2
			C319.4,462,323,465.6,327.4,465.6z"/>
		<path class="st8" d="M321.9,445.4h14.8c-5.5,0-10.1,4.5-10.1,10.1v0c0,5.5,4.5,10.1,10.1,10.1h-14.8c-5.5,0-10.1-4.5-10.1-10.1v0
			C311.9,449.9,316.4,445.4,321.9,445.4z"/>
		<path class="st11" d="M326.6,455.5L326.6,455.5c0-5.5,4.5-10.1,10.1-10.1h76.5c5.5,0,10.1,4.5,10.1,10.1v0
			c0,5.5-4.5,10.1-10.1,10.1h-76.5C331.2,465.6,326.6,461,326.6,455.5z"/>
		<path class="st2" d="M327.4,465.6h95.4c4.4,0,8-3.6,8-8v-4.2c0-4.4-3.6-8-8-8h-95.4c-4.4,0-8,3.6-8,8v4.2
			C319.4,462,323,465.6,327.4,465.6z"/>
	</g>
	<g>
		<path class="st3" d="M327.4,497.3h95.4c4.4,0,8-3.6,8-8v-4.2c0-4.4-3.6-8-8-8h-95.4c-4.4,0-8,3.6-8,8v4.2
			C319.4,493.7,323,497.3,327.4,497.3z"/>
		<path class="st8" d="M321.9,477.1h14.8c-5.5,0-10.1,4.5-10.1,10.1v0c0,5.5,4.5,10.1,10.1,10.1h-14.8c-5.5,0-10.1-4.5-10.1-10.1v0
			C311.9,481.6,316.4,477.1,321.9,477.1z"/>
		<path class="st11" d="M326.6,487.2L326.6,487.2c0-5.5,4.5-10.1,10.1-10.1h76.5c5.5,0,10.1,4.5,10.1,10.1v0
			c0,5.5-4.5,10.1-10.1,10.1h-76.5C331.2,497.3,326.6,492.7,326.6,487.2z"/>
		<path class="st2" d="M384.3,477.1h-54.8c-5.5,0-10.1,4.5-10.1,10.1l0,0c0,5.5,4.5,10.1,10.1,10.1h91.3c5.5,0,10.1-4.5,10.1-10.1
			l0,0c0-5.5-4.5-10.1-10.1-10.1h-28.9"/>
	</g>
	<g>
		<g>
			
				<ellipse transform="matrix(0.9955 -9.506347e-02 9.506347e-02 0.9955 -22.0345 34.1389)" class="st7" cx="347.3" cy="248.3" rx="130.4" ry="119.9"/>
			<path class="st4" d="M326.8,129.8c3.3-0.3,6.6-0.5,9.9-0.6c-66.6,11-114.5,67.6-108.5,130.5c6,62.9,63.8,109.4,131.2,107.6
				c-3.2,0.5-6.5,1-9.9,1.3c-71.7,6.8-134.9-41.1-141.2-107C202.2,195.6,255.2,136.6,326.8,129.8z"/>
			
				<ellipse transform="matrix(0.9955 -9.507214e-02 9.507214e-02 0.9955 -22.0251 34.2206)" class="st5" cx="348.1" cy="248.3" rx="120.4" ry="119.6"/>
			<path class="st2" d="M256,335.2c26.2,23.4,63.2,36.3,102.7,32.5c71.7-6.8,124.7-65.8,118.4-131.8s-69.5-113.8-141.2-107
				c-71.7,6.8-124.7,65.8-118.4,131.8c2.6,27.5,15.2,51.9,34.1,70.5"/>
			<path class="st7" d="M323.7,96.4c58.8-5.6,112.1,28.7,133.2,80.8l8.8-0.8c16.9-1.6,32.1,10.9,33.8,27.9l7,72.9
				c1.6,16.9-10.9,32.1-27.9,33.8l-165.3,15.8c-16.9,1.6-32.1-10.9-33.8-27.9l-2.7-27.8l-37.7,3.6c-13,1.2-24.7-8.4-26-21.4l-3.1-32
				c-1.9-19.4,1.8-39,11-56.2C241,127.6,278.5,100.7,323.7,96.4z"/>
			<path class="st8" d="M207.9,166.1c19.9-37.2,57.5-64.1,102.6-68.4c4.4-0.4,8.8-0.6,13.2-0.6c-39.3,7.8-71.7,32.9-89.6,66.5
				c-9.2,17.2-12.8,36.8-11,56.2l3.1,32c1.2,13,12.9,22.7,26,21.4l-26.2,2.5c-13,1.2-24.7-8.4-26-21.4l-3.1-32
				C195.1,202.9,198.7,183.3,207.9,166.1z"/>
			<path class="st8" d="M292.5,297.5c1.6,16.9,16.8,29.5,33.8,27.9l-26.2,2.5c-16.9,1.6-32.1-10.9-33.8-27.9l-2.7-27.8l26.2-2.5
				L292.5,297.5z"/>
			<path class="st9" d="M226.2,251.8l-3.1-32c-1.9-19.4,1.8-39,11-56.2c17.9-33.6,50.3-58.7,89.6-66.5c53.4,0.3,100.5,33.2,120,81.3
				l8.8-0.8c16.9-1.6,32.1,10.9,33.8,27.9l7,72.9c1.6,16.9-10.9,32.1-27.9,33.8l-139.1,13.3c-16.9,1.6-32.1-10.9-33.8-27.9
				l-2.7-27.8l-26.2,2.5l-11.5,1.1C239.1,274.5,227.4,264.9,226.2,251.8z"/>
			<path class="st2" d="M441.2,149.1c6.3,8.6,11.6,18,15.7,28.1l8.8-0.8c16.9-1.6,32.1,10.9,33.8,27.9l2.5,26"/>
			<path class="st2" d="M431,136.8c2.4,2.5,4.7,5.2,6.9,7.9"/>
			<path class="st2" d="M423.2,129.2c1.4,1.3,2.8,2.6,4.2,4"/>
			<path class="st2" d="M209.8,217.9c-1.5-15.3,0.9-30.7,7.1-44.7c18.5-41.5,58.2-72.2,106.7-76.8c35.6-3.4,69.2,7.8,94.8,28.8"/>
			<path class="st2" d="M503.1,242.4l3.3,34.7c1.6,16.9-10.9,32.1-27.9,33.8l-165.3,15.8c-16.9,1.6-32.1-10.9-33.8-27.9l-2.7-27.8
				l-37.7,3.6c-13,1.2-24.7-8.4-26-21.4l-2.5-26.7"/>
			<path class="st7" d="M341,288.4l165-15.8l-6-63l-165,15.8c-13.8,1.3-23.9,13.7-22.6,27.4l1.2,13
				C314.9,279.6,327.2,289.8,341,288.4z"/>
			<path class="st12" d="M332,225.7l20.5-2c-17.3,1.7-30.2,17.2-28.5,34.5v0c1.7,17.3,17.2,30.2,34.5,28.5l-20.5,2
				c-17.3,1.7-32.9-11.2-34.5-28.5v0C301.9,242.9,314.7,227.3,332,225.7z"/>
			<path class="st13" d="M324,258.3L324,258.3c-1.7-17.3,11.2-32.9,28.5-34.5l138-13.2l6,63l-138,13.2
				C341.2,288.4,325.7,275.6,324,258.3z"/>
			<path class="st2" d="M501.6,227.4"/>
			<path class="st2" d="M501.9,230.2l-2-20.5l-158.5,15.1c-17.3,1.7-30.2,17.2-28.5,34.5v0c1.7,17.3,17.2,30.2,34.5,28.5L506,272.7
				l-3-31.5"/>
			<path class="st2" d="M275.5,245.3l-1.9-20.1l-22.2,2.1c-5.9,0.6-11.1-3.8-11.7-9.6l-0.8-8.3c-0.6-5.9,3.8-11.1,9.6-11.7l22.2-2.1
				l159.5-15.2"/>
			<path class="st14" d="M346.9,323.4c1.2,12.2,14.3,21,29.2,19.6s26.2-12.5,25-24.7L346.9,323.4z"/>
			<circle cx="259.5" cy="211.4" r="4.6"/>
		</g>
		<line class="st15" x1="465.2" y1="230.8" x2="467.8" y2="257.7"/>
		<line class="st15" x1="453.4" y1="232" x2="456" y2="258.8"/>
		<line class="st15" x1="441.7" y1="233.1" x2="444.2" y2="259.9"/>
	</g>
	<path class="st16" d="M379.7,117.2c0,0-20-7.1-37.2-7.6"/>
	<path class="st16" d="M334,109.6c0,0-10.6-0.6-18.9,1.7"/>
	<line class="st2" x1="182.4" y1="421.3" x2="182.4" y2="441.2"/>
	<line class="st2" x1="182.4" y1="448.3" x2="182.4" y2="460.3"/>
	<line class="st16" x1="400.8" y1="544.6" x2="380.2" y2="544.6"/>
	<line class="st16" x1="371.2" y1="544.6" x2="364.6" y2="544.6"/>
	<line class="st2" x1="485.6" y1="623.7" x2="468.3" y2="604.2"/>
	<line class="st2" x1="465" y1="600" x2="460.7" y2="595.2"/>
	<line class="st2" x1="518.8" y1="553.4" x2="496.8" y2="538.9"/>
	<line class="st2" x1="490.5" y1="534.5" x2="485.3" y2="529.9"/>
	<g>
		<polygon class="st7" points="608.6,273.2 605,267.4 595,273.6 598.6,279.4 452.2,370.3 462.4,386.7 629.4,283 619.3,266.6 		"/>
		<polygon class="st17" points="602.3,277.1 598.8,271.3 588.8,277.5 592.3,283.3 445.9,374.2 456.1,390.6 623.1,286.8 613,270.5 		
			"/>
		
			<rect x="566.7" y="327.9" transform="matrix(0.8495 -0.5276 0.5276 0.8495 -90.7239 352.6684)" class="st18" width="12.1" height="15"/>
		
			<rect x="468.9" y="387.7" transform="matrix(0.8495 -0.5276 0.5276 0.8495 -136.793 310.8439)" class="st19" width="15" height="15"/>
		<path class="st20" d="M622.4,271.6"/>
		<polyline class="st2" points="587.8,308.8 629.4,283 626,277.5 		"/>
		<path class="st20" d="M587.8,308.8"/>
		<polyline class="st2" points="622.4,271.6 619.3,266.6 608.6,273.2 605,267.4 595,273.6 598.6,279.4 452.2,370.3 462.4,386.7 
			577.8,315 		"/>
		
			<rect x="566.7" y="327.9" transform="matrix(0.8495 -0.5276 0.5276 0.8495 -90.7239 352.6684)" class="st20" width="12.1" height="15"/>
		
			<rect x="468.9" y="387.7" transform="matrix(0.8495 -0.5276 0.5276 0.8495 -136.793 310.8439)" class="st18" width="15" height="15"/>
		
			<rect x="468.9" y="387.7" transform="matrix(0.8495 -0.5276 0.5276 0.8495 -136.793 310.8439)" class="st20" width="15" height="15"/>
		<path class="st7" d="M574.5,349.6c1.9,3,0.9,7-2.1,8.8l-73.9,45.9c-3,1.9-7,0.9-8.8-2.1l-11.5-18.5c-1.9-3-0.9-7,2.1-8.8
			l73.9-45.9c3-1.9,7-0.9,8.9,2.1L574.5,349.6z"/>
		<path class="st17" d="M568,353.4c1.9,3.1,1.2,7-1.5,8.8l-68.4,42.5c-2.8,1.7-6.6,0.6-8.5-2.5L477.7,383c-1.9-3.1-1.2-7.1,1.5-8.8
			l68.4-42.5c2.8-1.7,6.6-0.6,8.6,2.5L568,353.4z"/>
		<path class="st20" d="M517.2,352"/>
		<path class="st2" d="M517.2,352l36.9-22.9c3-1.9,7-0.9,8.9,2.1l11.5,18.5c1.9,3,0.9,7-2.1,8.8l-73.9,45.9c-3,1.9-7,0.9-8.8-2.1
			l-11.5-18.5c-1.9-3-0.9-7,2.1-8.8l22.2-13.8"/>
		<g>
			<path class="st21" d="M341.7,487.6c0,0,0,0.1,0.1,0.1c3.9,6,12,7.8,18,3.9l3.7,5.8c-9.2,6-21.5,3.3-27.5-5.9
				c0-0.1-0.1-0.1-0.1-0.2l-7.1,4.4c0,2.2,0.6,4.2,1.6,6c4.6,7.4,18,7.8,29.2,0.9c11.2-6.9,16.7-19.1,12.1-26.5
				c-1.1-1.8-2.8-3.2-4.8-4.2l-16.1,10C350.9,481.9,347.3,484.1,341.7,487.6z"/>
			<path class="st7" d="M452.2,370.3l-123.1,76.5l-0.2,0.2l-0.2,0.1l-3.8,3.3c-5.5,12.5-8.7,17.9-17.4,26c-0.2,0.2-0.5,0.4-0.7,0.7
				c-0.5,0.4-1,0.9-1.6,1.4c-0.1,0.1-0.2,0.2-0.3,0.2c-0.8,0.7-1.5,1.3-2.4,2.1c-0.1,0.1-0.2,0.2-0.3,0.3c-1,0.8-1.9,1.6-2.9,2.5
				l-0.1,0.1c-0.8,0.6-1.5,1.3-2.4,2c-0.9,0.7-1.8,1.5-2.9,2.3c-1.3,1.1-2.8,2.3-4.2,3.4c-6,4.7-12.5,9.2-19.3,13.4
				c-6.8,4.3-10.8,6.2-17.7,9.5L187,555.1l43.9,70.7l3.8-4.3l3-3.3l67.1-75.5l17.1-39.1c0.3,0.9,0.8,1.8,1.3,2.6
				c7.2,11.5,25.5,13.2,41,3.6c15.4-9.6,22.1-26.8,14.9-38.3c-1.1-1.8-2.5-3.3-4.1-4.6l99.1-61.5L452.2,370.3z M371.7,476
				c4.6,7.4-1,19.6-12.1,26.5c-11.2,7-24.6,6.5-29.2-0.9c-1.1-1.8-1.6-3.8-1.6-6l7.1-4.4c0,0.1,0.1,0.1,0.1,0.2
				c6,9.2,18.3,11.9,27.5,5.9l-3.7-5.8c-6,3.9-14.1,2.2-18-3.9c0,0,0-0.1-0.1-0.1c5.7-3.6,9.2-5.8,9.2-5.8l16.1-10
				C368.9,472.9,370.6,474.2,371.7,476z"/>
			<path class="st17" d="M445.5,374.5L322.4,451l-0.2,0.2l-0.2,0.1l-3.8,3.3c-5.5,12.5-8.7,17.9-17.4,26c-0.2,0.2-0.5,0.4-0.7,0.7
				c-0.5,0.4-1,0.9-1.6,1.4c-0.1,0.1-0.2,0.2-0.3,0.2c-0.8,0.7-1.5,1.3-2.4,2.1c-0.1,0.1-0.2,0.2-0.3,0.3c-1,0.8-1.9,1.6-2.9,2.5
				l-0.1,0.1c-0.8,0.6-1.5,1.3-2.4,2c-0.9,0.7-1.8,1.5-2.9,2.3c-1.3,1.1-2.8,2.3-4.2,3.4c-6,4.7-12.5,9.2-19.3,13.4
				c-6.8,4.3-10.8,6.2-17.7,9.5l-65.8,40.8l43.9,70.7l3.8-4.3l3-3.3l67.1-75.5l17.1-39.1c0.3,0.9,0.8,1.8,1.3,2.6
				c7.2,11.5,25.5,13.2,41,3.6c15.4-9.6,22.1-26.8,14.9-38.3c-1.1-1.8-2.5-3.3-4.1-4.6l99.1-61.5L445.5,374.5z M365,480.2
				c4.6,7.4-1,19.6-12.1,26.5c-11.2,7-24.6,6.5-29.2-0.9c-1.1-1.8-1.6-3.8-1.6-6l7.1-4.4c0,0.1,0.1,0.1,0.1,0.2
				c6,9.2,18.3,11.9,27.5,5.9l-3.7-5.8c-6,3.9-14.1,2.2-18-3.9c0,0,0-0.1-0.1-0.1c5.7-3.6,9.2-5.8,9.2-5.8l16.1-10
				C362.2,477,363.9,478.4,365,480.2z"/>
		</g>
		<g>
			<path class="st20" d="M341.7,487.6c0,0,0,0.1,0.1,0.1c3.9,6,12,7.8,18,3.9l3.7,5.8c-9.2,6-21.5,3.3-27.5-5.9
				c0-0.1-0.1-0.1-0.1-0.2l-7.1,4.4c0,2.2,0.6,4.2,1.6,6c4.6,7.4,18,7.8,29.2,0.9c11.2-6.9,16.7-19.1,12.1-26.5
				c-1.1-1.8-2.8-3.2-4.8-4.2l-16.1,10C350.9,481.9,347.3,484.1,341.7,487.6z"/>
			<path class="st20" d="M452.2,370.3l-123.1,76.5l-0.2,0.2l-0.2,0.1l-3.8,3.3c-5.5,12.5-8.7,17.9-17.4,26c-0.2,0.2-0.5,0.4-0.7,0.7
				c-0.5,0.4-1,0.9-1.6,1.4c-0.1,0.1-0.2,0.2-0.3,0.2c-0.8,0.7-1.5,1.3-2.4,2.1c-0.1,0.1-0.2,0.2-0.3,0.3c-1,0.8-1.9,1.6-2.9,2.5
				l-0.1,0.1c-0.8,0.6-1.5,1.3-2.4,2c-0.9,0.7-1.8,1.5-2.9,2.3c-1.3,1.1-2.8,2.3-4.2,3.4c-6,4.7-12.5,9.2-19.3,13.4
				c-6.8,4.3-10.8,6.2-17.7,9.5L187,555.1l43.9,70.7l3.8-4.3l3-3.3l67.1-75.5l17.1-39.1c0.3,0.9,0.8,1.8,1.3,2.6
				c7.2,11.5,25.5,13.2,41,3.6c15.4-9.6,22.1-26.8,14.9-38.3c-1.1-1.8-2.5-3.3-4.1-4.6l99.1-61.5L452.2,370.3z M371.7,476
				c4.6,7.4-1,19.6-12.1,26.5c-11.2,7-24.6,6.5-29.2-0.9c-1.1-1.8-1.6-3.8-1.6-6l7.1-4.4c0,0.1,0.1,0.1,0.1,0.2
				c6,9.2,18.3,11.9,27.5,5.9l-3.7-5.8c-6,3.9-14.1,2.2-18-3.9c0,0,0-0.1-0.1-0.1c5.7-3.6,9.2-5.8,9.2-5.8l16.1-10
				C368.9,472.9,370.6,474.2,371.7,476z"/>
		</g>
		<path class="st7" d="M452.2,370.3l9.9,15.9L336,464.6l-8.7,12.9l-3,4.6l-31.9,47.3l-69.1,65.7l-6.7,6.4L187,555.1l65.8-40.8
			c6.9-3.3,10.8-5.3,17.7-9.5c6.8-4.2,13.3-8.8,19.3-13.4c1.5-1.2,2.9-2.3,4.2-3.4c1-0.8,2-1.6,2.9-2.3c0.9-0.7,1.6-1.4,2.4-2
			l0.1-0.1c1.1-0.9,2-1.7,2.9-2.5c0.1-0.1,0.3-0.2,0.3-0.3c0.9-0.8,1.7-1.4,2.4-2.1c0.1-0.1,0.2-0.1,0.3-0.2c0.6-0.5,1.1-1,1.6-1.4
			c0.2-0.3,0.5-0.5,0.7-0.7c4.3-4.3,6.4-7.8,11.4-16.3c0.9-1.6,4.2-8.4,5.5-9.9c0.5-0.5,2.4-1.9,4.3-3.1l0.2-0.1
			c2-1.3,3.8-2.4,3.8-2.4L452.2,370.3z"/>
		<path class="st18" d="M444.9,374.9l9.9,15.9l-126.1,78.3L320,482l-3,4.6l-31.9,47.3L216,599.6l-6.7,6.4l-29.6-46.3l65.8-40.8
			c6.9-3.3,10.8-5.3,17.7-9.5c6.8-4.2,13.3-8.8,19.3-13.4c1.5-1.2,2.9-2.3,4.2-3.4c1-0.8,2-1.6,2.9-2.3c0.9-0.7,1.6-1.4,2.4-2
			l0.1-0.1c1.1-0.9,2-1.7,2.9-2.5c0.1-0.1,0.3-0.2,0.3-0.3c0.9-0.8,1.7-1.4,2.4-2.1c0.1-0.1,0.2-0.1,0.3-0.2c0.6-0.5,1.1-1,1.6-1.4
			c0.2-0.3,0.5-0.5,0.7-0.7c4.3-4.3,6.4-7.8,11.4-16.3c0.9-1.6,4.2-8.4,5.5-9.9c0.5-0.5,2.4-1.9,4.3-3.1l0.2-0.1
			c2-1.3,3.8-2.4,3.8-2.4L444.9,374.9z"/>
		<path class="st20" d="M452.2,370.3l9.9,15.9L336,464.6l-8.7,12.9l-3,4.6l-31.9,47.3l-69.1,65.7l-6.7,6.4L187,555.1l65.8-40.8
			c6.9-3.3,10.8-5.3,17.7-9.5c6.8-4.2,13.3-8.8,19.3-13.4c1.5-1.2,2.9-2.3,4.2-3.4c1-0.8,2-1.6,2.9-2.3c0.9-0.7,1.6-1.4,2.4-2
			l0.1-0.1c1.1-0.9,2-1.7,2.9-2.5c0.1-0.1,0.3-0.2,0.3-0.3c0.9-0.8,1.7-1.4,2.4-2.1c0.1-0.1,0.2-0.1,0.3-0.2c0.6-0.5,1.1-1,1.6-1.4
			c0.2-0.3,0.5-0.5,0.7-0.7c4.3-4.3,6.4-7.8,11.4-16.3c0.9-1.6,4.2-8.4,5.5-9.9c0.5-0.5,2.4-1.9,4.3-3.1l0.2-0.1
			c2-1.3,3.8-2.4,3.8-2.4L452.2,370.3z"/>
		
			<rect id="XMLID_2_" x="374.1" y="413.8" transform="matrix(0.8495 -0.5276 0.5276 0.8495 -161.929 275.0158)" class="st7" width="53.9" height="15.1"/>
		
			<rect id="XMLID_1_" x="374.1" y="413.8" transform="matrix(0.8495 -0.5276 0.5276 0.8495 -161.929 275.0158)" class="st20" width="53.9" height="15.1"/>
		<path d="M388.7,429c1.2,1.9,0.6,4.4-1.3,5.6c-1.9,1.2-4.4,0.6-5.6-1.3c-1.2-1.9-0.6-4.4,1.3-5.6C385,426.5,387.5,427.1,388.7,429z
			"/>
		<polygon class="st18" points="185.5,556.1 229.4,626.8 234.8,622.1 238.2,619.1 223.7,595.7 195.3,550 		"/>
		<polyline class="st2" points="216.2,602.1 230.9,625.8 235.4,621.7 238.2,619.1 223.7,595.7 195.3,550 187,555.1 201.2,578 		"/>
		<line class="st20" x1="204.5" y1="583.2" x2="213.6" y2="597.9"/>
		<path d="M258.9,521.5c0.5,0.8,0.3,2-0.6,2.5l-43,26.7c-0.9,0.5-2,0.3-2.5-0.6l0,0c-0.5-0.9-0.3-2,0.6-2.5l43-26.7
			C257.3,520.4,258.4,520.7,258.9,521.5L258.9,521.5z"/>
		<path d="M254.5,532.2c0.5,0.9,0.4,1.9-0.2,2.3l-35.7,22.2c-0.6,0.4-1.6,0-2.1-0.8l0,0c-0.5-0.9-0.4-1.9,0.2-2.3l35.7-22.2
			C253,531,254,531.3,254.5,532.2L254.5,532.2z"/>
		<path d="M243.2,547.2c0.5,0.9,0.7,1.7,0.3,2l-21.8,13.6c-0.4,0.2-1.1-0.3-1.6-1.1l0,0c-0.5-0.9-0.7-1.7-0.3-2l21.8-13.6
			C241.9,545.8,242.6,546.3,243.2,547.2L243.2,547.2z"/>
		<g>
			<rect x="395.9" y="414.1" transform="matrix(0.8495 -0.5276 0.5276 0.8495 -157.1524 279.3535)" width="30.4" height="2.1"/>
		</g>
	</g>
	<g>
		<g>
			<path class="st3" d="M335,480.9c1.4,0.4,2.7,0.9,4.1,1.5c15.8,7,23,25.4,16,41.2c-7,15.8-25.4,23-41.2,16l-7-3.1l25.1-57
				L335,480.9z"/>
			<path class="st3" d="M210.1,466.6v-91.1h0.3c2.1-15.2,15.2-27,31-27c15.8,0,28.9,11.7,31,27v0c0.2,1.4,0.3,2.8,0.3,4.3
				c0,1.5-0.1,2.9-0.3,4.3v69.2l59.7,26.2l-25.1,57l-76.6-33.7c-1-0.4-2-0.8-3-1.3l-3.2-1.4l0.1-0.3
				C212.9,492.9,207.3,479.5,210.1,466.6z"/>
			<path class="st5" d="M327.1,479c1.4,0.4,2.7,0.9,4.1,1.5c15.8,7,23,25.4,16,41.2c-7,15.8-25.4,23-41.2,16l-7-3.1l25.1-57
				L327.1,479z"/>
			<path class="st3" d="M202.2,464.7l0.3-91.1c2.1-15.2,15.2-27,31-27c15.8,0,28.9,11.7,31,27v0c0.2,1.4,0.3,2.8,0.3,4.3
				c0,1.5-0.1,2.9-0.3,4.3v69.2l59.7,26.2l-25.1,57L222.4,501c-1-0.4-2-0.8-3-1.3l-3.2-1.4l0.1-0.3C205,491,199.4,477.6,202.2,464.7
				z"/>
			<path class="st2" d="M253.6,513.1l-23.4-10.3c-1-0.4-2-0.8-3-1.3l-3.2-1.4l0.1-0.3c-11.3-7-17-20.4-14.2-33.2l0.3-91.1
				c2.1-15.2,15.2-27,31-27c15.8,0,28.9,11.7,31,27v0c0.2,1.4,0.3,2.8,0.3,4.3c0,1.5-0.1,2.9-0.3,4.3v69.2l62.7,27.6
				c1.4,0.4,2.7,0.9,4.1,1.5c15.8,7,23,25.4,16,41.2c-7,15.8-25.4,23-41.2,16l-7-3.1l-46.4-20.4"/>
			<line class="st2" x1="306.8" y1="536.5" x2="332" y2="479.6"/>
		</g>
		<line class="st2" x1="311.9" y1="479.9" x2="285.9" y2="468.1"/>
		<line class="st2" x1="280.9" y1="466.1" x2="272.8" y2="462.5"/>
	</g>
</g>
</svg>
