<svg id="图层_1" data-name="图层 1" xmlns="http://www.w3.org/2000/svg" xmlns:xlink="http://www.w3.org/1999/xlink" viewBox="0 0 361 361"><defs><style>.cls-1,.cls-13{fill:none;}.cls-2{clip-path:url(#clip-path);}.cls-3{fill:#533838;}.cls-4{fill:#bd8a3e;}.cls-5{fill:#c6a75d;}.cls-6{fill:#fbeee5;}.cls-7{fill:#534747;}.cls-8{fill:#f9f4ea;}.cls-9{clip-path:url(#clip-path-2);}.cls-10{fill:#feb253;}.cls-11{fill:#f96a5a;}.cls-12{fill:#9a514e;}.cls-12,.cls-13{stroke:#fff3d9;stroke-miterlimit:10;stroke-width:3.05px;}</style><clipPath id="clip-path"><circle class="cls-1" cx="186.73" cy="174.36" r="158.69"/></clipPath><clipPath id="clip-path-2"><path class="cls-1" d="M-8.57,78.85H187.91A119.94,119.94,0,0,1,307.85,198.78v35.78a0,0,0,0,1,0,0H-8.57a0,0,0,0,1,0,0V78.85A0,0,0,0,1-8.57,78.85Z"/></clipPath></defs><title>我想要的2021终稿</title><g class="cls-2"><rect class="cls-3" x="-7.74" y="150.93" width="326.26" height="57.92"/><rect class="cls-4" x="-7.74" y="208.86" width="326.26" height="39.47"/><rect class="cls-5" x="-7.74" y="143.31" width="326.26" height="7.62"/><rect class="cls-5" x="-7.74" y="143.31" width="326.26" height="7.62"/><rect class="cls-6" x="-7.74" y="262.25" width="326.26" height="7.62"/><rect class="cls-7" x="-7.74" y="227.31" width="326.26" height="3.81"/><polygon class="cls-7" points="7.37 248.33 5.57 248.33 -16.27 231.12 -14.46 231.12 7.37 248.33"/><polygon class="cls-7" points="24.29 248.33 22.48 248.33 0.65 231.12 2.45 231.12 24.29 248.33"/><polygon class="cls-7" points="41.2 248.33 39.4 248.33 17.57 231.12 19.37 231.12 41.2 248.33"/><polygon class="cls-7" points="58.12 248.33 56.32 248.33 34.48 231.12 36.29 231.12 58.12 248.33"/><polygon class="cls-7" points="75.04 248.33 73.23 248.33 51.4 231.12 53.2 231.12 75.04 248.33"/><polygon class="cls-7" points="91.95 248.33 90.15 248.33 68.31 231.12 70.12 231.12 91.95 248.33"/><polygon class="cls-7" points="108.87 248.33 107.06 248.33 85.23 231.12 87.04 231.12 108.87 248.33"/><polygon class="cls-7" points="125.78 248.33 123.98 248.33 102.15 231.12 103.95 231.12 125.78 248.33"/><polygon class="cls-7" points="142.7 248.33 140.9 248.33 119.06 231.12 120.87 231.12 142.7 248.33"/><polygon class="cls-7" points="159.62 248.33 157.81 248.33 135.98 231.12 137.78 231.12 159.62 248.33"/><polygon class="cls-7" points="176.53 248.33 174.73 248.33 152.9 231.12 154.7 231.12 176.53 248.33"/><polygon class="cls-7" points="193.45 248.33 191.65 248.33 169.81 231.12 171.62 231.12 193.45 248.33"/><polygon class="cls-7" points="210.37 248.33 208.56 248.33 186.73 231.12 188.53 231.12 210.37 248.33"/><polygon class="cls-7" points="227.28 248.33 225.48 248.33 203.65 231.12 205.45 231.12 227.28 248.33"/><polygon class="cls-7" points="244.2 248.33 242.39 248.33 220.56 231.12 222.37 231.12 244.2 248.33"/><polygon class="cls-7" points="261.12 248.33 259.31 248.33 237.48 231.12 239.28 231.12 261.12 248.33"/><polygon class="cls-7" points="278.03 248.33 276.23 248.33 254.39 231.12 256.2 231.12 278.03 248.33"/><polygon class="cls-7" points="294.95 248.33 293.14 248.33 271.31 231.12 273.11 231.12 294.95 248.33"/><polygon class="cls-7" points="311.86 248.33 310.06 248.33 288.23 231.12 290.03 231.12 311.86 248.33"/><polygon class="cls-7" points="328.78 248.33 326.98 248.33 305.14 231.12 306.95 231.12 328.78 248.33"/><path class="cls-8" d="M-8.57,78.85H187.91A119.94,119.94,0,0,1,307.85,198.78v35.78a0,0,0,0,1,0,0H-8.57a0,0,0,0,1,0,0V78.85A0,0,0,0,1-8.57,78.85Z"/><g class="cls-9"><rect class="cls-10" x="-8.57" y="101.81" width="297.93" height="8.24"/><rect class="cls-10" x="-8.57" y="191.28" width="338.48" height="8.24"/><rect class="cls-11" x="-8.57" y="214.56" width="338.48" height="8.24"/><rect class="cls-11" x="-8.57" y="119.35" width="351.23" height="64.47"/><rect class="cls-12" x="10.57" y="133.57" width="37.2" height="37.2" rx="6.01" ry="6.01"/><line class="cls-13" x1="10.57" y1="147.67" x2="47.77" y2="147.67"/><rect class="cls-12" x="62.81" y="133.57" width="37.2" height="37.2" rx="6.01" ry="6.01"/><line class="cls-13" x1="62.81" y1="147.67" x2="100.01" y2="147.67"/><rect class="cls-12" x="115.05" y="133.57" width="37.2" height="37.2" rx="6.01" ry="6.01"/><line class="cls-13" x1="115.05" y1="147.67" x2="152.25" y2="147.67"/><rect class="cls-12" x="167.29" y="133.57" width="37.2" height="37.2" rx="6.01" ry="6.01"/><line class="cls-13" x1="167.29" y1="147.67" x2="204.49" y2="147.67"/><rect class="cls-12" x="219.53" y="133.57" width="37.2" height="37.2" rx="6.01" ry="6.01"/><line class="cls-13" x1="219.53" y1="147.67" x2="256.73" y2="147.67"/></g></g></svg>