<?xml version="1.0" encoding="iso-8859-1"?>
<!-- Generator: Adobe Illustrator 23.0.2, SVG Export Plug-In . SVG Version: 6.00 Build 0)  -->
<svg version="1.1" id="&#x56FE;&#x5C42;_1" xmlns="http://www.w3.org/2000/svg" xmlns:xlink="http://www.w3.org/1999/xlink" x="0px"
	 y="0px" viewBox="0 0 500 500" style="enable-background:new 0 0 500 500;" xml:space="preserve">
<g id="&#x6570;&#x636E;&#x997C;&#x56FE;">
	<path style="fill:#1C1B1B;" d="M320.663,218.523c5.541,5.541,25.859,36.942,1.847,84.966c0,0-33.875,66.055-104.867,37.599
		c-10.518-4.216-20.734-13.587-24.428-17.281c-3.694-3.694-4.433-7.019-5.541-9.235l68.342,7.388l51.718-42.483
		C307.733,279.477,316.533,214.393,320.663,218.523z"/>
	<path style="fill:#1C1B1B;" d="M180.285,305.336l33.248-27.706c0,0-10.159-17.547,2.771-39.712l-17.547-15.7l-25.859,66.495
		C172.896,288.713,178.437,305.336,180.285,305.336z"/>
	<path style="fill:#1C1B1B;" d="M198.755,198.205l-3.694,7.388l27.706,24.012c0,0,25.859-25.859,59.107,1.847l31.4-24.012
		l-11.082-9.235H198.755z"/>
	<path style="fill:#FF6666;" d="M208.648,276.206c-3.27-9.275-3.673-19.867-0.455-30.267c1.177-3.805,2.768-7.359,4.701-10.621
		l-28.23-23.887c-4.756,7.115-8.609,15.068-11.29,23.736c-7.09,22.917-4.68,46.337,4.905,65.532L208.648,276.206z"/>
	<path style="fill:#FFD840;" d="M274.473,177.113c-28.779-8.904-59.14,0.568-79.85,21.958l28.734,23.945
		c10.955-9.134,25.589-12.807,39.541-8.491c6.538,2.023,12.205,5.584,16.788,10.203l30.321-23.823
		C300.87,189.957,288.796,181.544,274.473,177.113z"/>
	<path style="fill:#5A78EC;" d="M288.042,236.671c4.863,10.235,6.004,22.583,2.264,34.671c-7.538,24.364-32.03,38.428-54.705,31.413
		c-7.712-2.386-14.217-6.907-19.152-12.788l-30.733,22.879c9.405,12.668,22.484,22.426,38.31,27.322
		c41.905,12.964,87.169-13.027,101.099-58.054c7.436-24.037,4.434-48.636-6.351-68.322L288.042,236.671z"/>
	<path style="fill:#FFFFFF;" d="M210.892,325.06c-0.171,0-0.345-0.048-0.501-0.148c-1.813-1.172-3.627-2.456-5.392-3.818
		c-2.982-2.3-5.924-4.896-8.744-7.717c-0.361-0.361-0.361-0.945,0-1.306c0.361-0.361,0.945-0.361,1.306,0
		c2.765,2.765,5.647,5.309,8.565,7.56c1.725,1.33,3.498,2.586,5.268,3.729c0.428,0.277,0.551,0.849,0.274,1.277
		C211.492,324.911,211.195,325.06,210.892,325.06z"/>
	<path style="fill:#FFFFFF;" d="M246.289,335.695c-7.299,0-14.914-1.164-22.208-3.875c-0.478-0.178-0.722-0.71-0.544-1.188
		c0.178-0.478,0.707-0.725,1.188-0.544c19.219,7.145,40.718,3.255,52.02-4.28c0.424-0.282,0.997-0.17,1.281,0.256
		c0.283,0.425,0.169,0.997-0.256,1.281C270.384,332.27,258.806,335.695,246.289,335.695z"/>
	<path style="fill:#FFFFFF;" d="M293.965,316.807c-0.264,0-0.527-0.113-0.709-0.331c-0.327-0.391-0.276-0.973,0.115-1.301
		c41.382-34.632,23.841-81.993,23.659-82.468c-0.182-0.476,0.055-1.01,0.531-1.193c0.474-0.182,1.01,0.054,1.193,0.53
		c0.187,0.487,18.216,49.051-24.198,84.547C294.384,316.736,294.173,316.807,293.965,316.807z"/>
</g>
</svg>
