<svg xmlns="http://www.w3.org/2000/svg" xmlns:xlink="http://www.w3.org/1999/xlink" viewBox="0 0 283.34 827.48"><defs><style>.cls-1,.cls-4{fill:#437da3;}.cls-1,.cls-10,.cls-11,.cls-2,.cls-3,.cls-7,.cls-8,.cls-9{stroke:#493437;stroke-width:2px;}.cls-1,.cls-7,.cls-9{stroke-linecap:round;stroke-linejoin:round;}.cls-13,.cls-2{fill:#243b4a;}.cls-10,.cls-11,.cls-2,.cls-3,.cls-8{stroke-miterlimit:10;}.cls-3,.cls-9{fill:#ffdbd1;}.cls-5{clip-path:url(#clip-path);}.cls-6{fill:#356280;}.cls-7,.cls-8{fill:none;}.cls-10{fill:#291e1e;}.cls-11{fill:#9c280e;}.cls-12{clip-path:url(#clip-path-2);}.cls-14{clip-path:url(#clip-path-3);}.cls-15{fill:#1e2b33;}</style><clipPath id="clip-path" transform="translate(-348.81 179.45)"><path class="cls-1" d="M588.21,244.13s-8,10.13-55,10c-36.25-.43-51.86-13.39-52.69-14.51s-2.71-.13-2.71-.13c-2.81,3.58-12.26,20.94-12.26,20.94-34.46,11-112.85,60.25-113.61,62s-4.85,20.94.76,28.85,24,11.75,24,11.75c19.65,10.07,105.12,19.52,111.36,19.41L495,360l.27.1c0-.14,0-.23,0-.23-20.94-8-52.91-17.72-52.91-17.72,41.62-8.17,69.7-13.53,74.55-13s10.22,5.36,10.22,5.36l.46,29.81a8.34,8.34,0,0,1,1.83.57c4.37,2,4.34,23.62,2.56,25.66s-4.34,10.22-3.32,14.56,7.32,16.89,4,34.34c-.63,3.31-2.72,6.45-3.32,8.59,0,7.92-2.42,11.86-3.23,12.47-.48.36-2.22.66-4.12-1.26.44,2.86,1.25,8,1.73,9.9.68,2.72-6.47,26.55-9.53,63.83s-2,47.83-2,47.83,12.68,5.45,23.83,5.1c.93-.85,19.23-53.53,23.83-80.08s2-53.62,2-53.62,37.28-86.3,41.36-120S600.55,266.6,588.21,244.13Z"/></clipPath><clipPath id="clip-path-2" transform="translate(-348.81 179.45)"><path class="cls-1" d="M570.85-113.66s26.89,59.92,33.7,145.36-.68,103.83-.68,103.83-11.57,79-14.64,96.68c0,0-59.23,17.36-105.87-5.78,0,0,2-27.92-6.47-91.58s-17.36-46.3,2.73-153.53c0,0,22.12-75.23,31-91.92l16.34,3.75c-3.75,5.11-15.32,64.68-22.47,111.66s1.7,70.47,6.13,79.32,13.27,10.21,15.66,9.19,16,11.57,33-3.75c0,0,8.17,3.41,11.57-6.8s4.77-63.66,2-82.39S569.15-49,557.57-106.51Z"/></clipPath><clipPath id="clip-path-3" transform="translate(-348.81 179.45)"><path class="cls-2" d="M564.38,80s11.92,42.22,42.56,58.9,21.78,72.85,21.78,72.85l2.39,62s-196.77-16-198.47-16,40.85-122.55,40.85-122.55,33.7-7.83,40.51-47.66S564.38,80,564.38,80Z"/></clipPath></defs><title>做瑜伽的女孩</title><g id="图层_6" data-name="图层 6"><path class="cls-3" d="M512,582s-.85,35.74-.68,36.25-1,4.43-2.38,6.64-5.62,16.51-3.41,19.41,25.88,4.42,32.17,0-2.72-20.43-3.23-21.79,3.4-6.3,2-11.07-2.89-8.17-2.89-10.72,2.21-13.62,2.21-13.62Z" transform="translate(-348.81 179.45)"/><path class="cls-3" d="M495,360c4.45,1.7,8.4,2.93,11.44,4.36a49.34,49.34,0,0,0,7.91.51c4.34-.25,11.23-1.78,15.06,0,4.37,2,4.34,23.62,2.56,25.66s-4.34,10.22-3.32,14.56,7.32,16.89,4,34.34c-.63,3.31-2.72,6.45-3.32,8.59,0,7.92-2.42,11.86-3.23,12.47-1,.77-7.79,1.28-9.71-19.66,0,0-9.19-20.81-16.34-36.89s-12-21.32-12-21.32" transform="translate(-348.81 179.45)"/><path class="cls-4" d="M588.21,244.13s-8,10.13-55,10c-36.25-.43-51.86-13.39-52.69-14.51s-2.71-.13-2.71-.13c-2.81,3.58-12.26,20.94-12.26,20.94-34.46,11-112.85,60.25-113.61,62s-4.85,20.94.76,28.85,24,11.75,24,11.75c19.65,10.07,105.12,19.52,111.36,19.41L495,360l.27.1c0-.14,0-.23,0-.23-20.94-8-52.91-17.72-52.91-17.72,41.62-8.17,69.7-13.53,74.55-13s10.22,5.36,10.22,5.36l.46,29.81a8.34,8.34,0,0,1,1.83.57c4.37,2,4.34,23.62,2.56,25.66s-4.34,10.22-3.32,14.56,7.32,16.89,4,34.34c-.63,3.31-2.72,6.45-3.32,8.59,0,7.92-2.42,11.86-3.23,12.47-.48.36-2.22.66-4.12-1.26.44,2.86,1.25,8,1.73,9.9.68,2.72-6.47,26.55-9.53,63.83s-2,47.83-2,47.83,12.68,5.45,23.83,5.1c.93-.85,19.23-53.53,23.83-80.08s2-53.62,2-53.62,37.28-86.3,41.36-120S600.55,266.6,588.21,244.13Z" transform="translate(-348.81 179.45)"/><g class="cls-5"><path class="cls-6" d="M530.17,418.77s10.21-56.68,8.17-75.07S525.17,318,522,317.15c-10.72-2.72-57.7,9-84.77,15.66a205.53,205.53,0,0,1-36.76,5.28s4.08,7.14,33.19,9.7a409.13,409.13,0,0,0,54.13,1l34.72,5.62Z" transform="translate(-348.81 179.45)"/><path class="cls-6" d="M527.11,441.74s1.53,22.47,4.08,28.6-11.74,47.49-13.79,110.81S460.21,525,460.21,525l29.11-56.17Z" transform="translate(-348.81 179.45)"/></g><path class="cls-7" d="M588.21,244.13s-8,10.13-55,10c-36.25-.43-51.86-13.39-52.69-14.51s-2.71-.13-2.71-.13c-2.81,3.58-12.26,20.94-12.26,20.94-34.46,11-112.85,60.25-113.61,62s-4.85,20.94.76,28.85,24,11.75,24,11.75c19.65,10.07,105.12,19.52,111.36,19.41L495,360l.27.1c0-.14,0-.23,0-.23-20.94-8-52.91-17.72-52.91-17.72,41.62-8.17,69.7-13.53,74.55-13s10.22,5.36,10.22,5.36l.46,29.81a8.34,8.34,0,0,1,1.83.57c4.37,2,4.34,23.62,2.56,25.66s-4.34,10.22-3.32,14.56,7.32,16.89,4,34.34c-.63,3.31-2.72,6.45-3.32,8.59,0,7.92-2.42,11.86-3.23,12.47-.48.36-2.22.66-4.12-1.26.44,2.86,1.25,8,1.73,9.9.68,2.72-6.47,26.55-9.53,63.83s-2,47.83-2,47.83,12.68,5.45,23.83,5.1c.93-.85,19.23-53.53,23.83-80.08s2-53.62,2-53.62,37.28-86.3,41.36-120S600.55,266.6,588.21,244.13Z" transform="translate(-348.81 179.45)"/><path class="cls-1" d="M585.86,239.85l-.38-.7Z" transform="translate(-348.81 179.45)"/><path class="cls-1" d="M587.16,242.22l-.17-.32Z" transform="translate(-348.81 179.45)"/><path class="cls-1" d="M587,241.9l-.86-1.57C586.43,240.88,586.72,241.42,587,241.9Z" transform="translate(-348.81 179.45)"/><path class="cls-1" d="M586.06,240.21l-.2-.36C585.93,240,586,240.09,586.06,240.21Z" transform="translate(-348.81 179.45)"/><path class="cls-1" d="M586.13,240.33l-.07-.12Z" transform="translate(-348.81 179.45)"/><path class="cls-1" d="M587.4,242.65l-.24-.43Z" transform="translate(-348.81 179.45)"/><path class="cls-1" d="M588.18,244.06c-.06-.1-.18-.31-.34-.61Z" transform="translate(-348.81 179.45)"/><path class="cls-1" d="M588.21,244.13l0-.07Z" transform="translate(-348.81 179.45)"/><path class="cls-1" d="M587.84,243.45l0-.08Z" transform="translate(-348.81 179.45)"/><path class="cls-1" d="M587.8,243.37l-.4-.72Z" transform="translate(-348.81 179.45)"/><path class="cls-1" d="M583.5,235.55l-.14-.26Z" transform="translate(-348.81 179.45)"/><path class="cls-1" d="M583.36,235.29l-.2-.36Z" transform="translate(-348.81 179.45)"/><path class="cls-1" d="M585.48,239.15q-.15-.28-.3-.54Z" transform="translate(-348.81 179.45)"/><path class="cls-1" d="M582.8,234.27Z" transform="translate(-348.81 179.45)"/><path class="cls-1" d="M583,234.63l-.2-.36C582.85,234.36,582.91,234.48,583,234.63Z" transform="translate(-348.81 179.45)"/><path class="cls-1" d="M583.16,234.93c-.06-.11-.12-.21-.16-.3Z" transform="translate(-348.81 179.45)"/><path class="cls-1" d="M585.18,238.61c-.07-.14-.14-.27-.22-.4C585,238.34,585.11,238.47,585.18,238.61Z" transform="translate(-348.81 179.45)"/><path class="cls-1" d="M585,238.21c-.38-.7-.7-1.29-1-1.79Z" transform="translate(-348.81 179.45)"/><path class="cls-1" d="M583.83,236.14l-.33-.59C583.6,235.74,583.71,235.93,583.83,236.14Z" transform="translate(-348.81 179.45)"/><path class="cls-1" d="M584,236.42l-.15-.28Z" transform="translate(-348.81 179.45)"/><path class="cls-8" d="M400.72,339.11s13.79,1.78,16.85,2.8,15.07,3.83,24.77.26" transform="translate(-348.81 179.45)"/><path class="cls-1" d="M468.38,260s11.24,8.17,18.13,8.42" transform="translate(-348.81 179.45)"/><path class="cls-3" d="M532.09,444.68" transform="translate(-348.81 179.45)"/><path class="cls-1" d="M561.83,452.21s-.85-3.83-.85-4.34" transform="translate(-348.81 179.45)"/><line class="cls-1" x1="174.9" y1="648.6" x2="175.92" y2="654.9"/><path class="cls-9" d="M552.3,77.66s2.38,7.32,7,11.91-25,17.37-25,17.37l-8-13.62a29.57,29.57,0,0,0,4.59-15.49C530.68,69.32,552.3,77.66,552.3,77.66Z" transform="translate(-348.81 179.45)"/><path class="cls-9" d="M576.57,44.83c-1.92-3.14-4.78-2.53-6.59-1.7a171.09,171.09,0,0,0-2.87-32.87S558.94-6.09,546-7.79s-26.21.34-33,10.9-6.47,33.7-6.47,33.7.16,2.4.65,6a4.55,4.55,0,0,0-5.93,2c-3,4.88,2.54,13.14,5.18,14.19s3.45-.47,3.45-.47l-.05-2.14c2.05,7.67,5.28,15.5,10.32,19.21C531.7,84.13,548,89.83,562.34,72.3c2.84-3.49,4.72-8.17,5.9-13.4.43.37,1.38.82,3.16.12C574,58,579.57,49.71,576.57,44.83Z" transform="translate(-348.81 179.45)"/><path class="cls-7" d="M548.81,39.62a42.38,42.38,0,0,1,14.3,1.78" transform="translate(-348.81 179.45)"/><path class="cls-7" d="M529.66,38.6s-11.23.25-15.32,4.34" transform="translate(-348.81 179.45)"/><path class="cls-7" d="M547.53,47.79s4.09,5.87,14.81,1" transform="translate(-348.81 179.45)"/><path class="cls-7" d="M531.19,48.3s-3.32,6.13-14,2.3" transform="translate(-348.81 179.45)"/><path class="cls-7" d="M537.06,55.7s-2.29,9.19,3.58,8.43" transform="translate(-348.81 179.45)"/><path class="cls-7" d="M532.47,71.79s6.64,4.08,16.08,0" transform="translate(-348.81 179.45)"/><path class="cls-10" d="M534.5-28.72s-13.44-2.73-13.13,7.49,1.52,12.59,6.87,15.49S545.64-3,545.64-3l2.3-7s9-10.55,4.58-17-11.61-8.85-16.19-5.62S534.5-28.72,534.5-28.72Z" transform="translate(-348.81 179.45)"/><path class="cls-11" d="M522.77-15.53s1.27,8.42,2.29,9.44,26.81-2.55,26.81-2.55-.51-8.42-2.81-9.7S529.91-22.94,522.77-15.53Z" transform="translate(-348.81 179.45)"/><path class="cls-10" d="M537.83,10.26s5.87,22,31.4,29.87a3.28,3.28,0,0,0,5.11.51c3.06-2.55,7.92-41.87-28.34-53.11,0,0-5.36-.51-7.15,0a6.11,6.11,0,0,0-2.55,1.28,44.68,44.68,0,0,0-8.43-1.28c-3.32,0-19.91,3.07-24.51,22.21s-2,29.37,0,30.9S527.11,39.62,537.83,10.26Z" transform="translate(-348.81 179.45)"/><path class="cls-9" d="M535.79-7.62s0,11.24,1.78,14.05" transform="translate(-348.81 179.45)"/><path class="cls-9" d="M483.36,226.43s-.34,9.7-2.55,12.76,17.19,16.17,52.42,15,48.17-4.94,55-10l1-11.92Z" transform="translate(-348.81 179.45)"/><path class="cls-9" d="M510.6-112c8.85-16.68,16.34-34.38,17.7-39.49S531-175.28,531-175.28s4.43-8.17,8.51,1.71v47.31s-8.85,12.94-12.59,18.05Z" transform="translate(-348.81 179.45)"/><path class="cls-4" d="M570.85-113.66s26.89,59.92,33.7,145.36-.68,103.83-.68,103.83-11.57,79-14.64,96.68c0,0-59.23,17.36-105.87-5.78,0,0,2-27.92-6.47-91.58s-17.36-46.3,2.73-153.53c0,0,22.12-75.23,31-91.92l16.34,3.75c-3.75,5.11-15.32,64.68-22.47,111.66s1.7,70.47,6.13,79.32,13.27,10.21,15.66,9.19,16,11.57,33-3.75c0,0,8.17,3.41,11.57-6.8s4.77-63.66,2-82.39S569.15-49,557.57-106.51Z" transform="translate(-348.81 179.45)"/><g class="cls-12"><path class="cls-13" d="M564.38,80s11.92,42.22,42.56,58.9,21.78,72.85,21.78,72.85l2.39,62s-196.77-16-198.47-16,40.85-122.55,40.85-122.55,33.7-7.83,40.51-47.66S564.38,80,564.38,80Z" transform="translate(-348.81 179.45)"/><g class="cls-14"><path class="cls-15" d="M488.4,109.83S499.13,233.4,494,246.68s-70.47-28.08-70.47-28.08l15.32-101.11Z" transform="translate(-348.81 179.45)"/></g><path class="cls-8" d="M564.38,80s11.92,42.22,42.56,58.9,21.78,72.85,21.78,72.85l2.39,62s-196.77-16-198.47-16,40.85-122.55,40.85-122.55,33.7-7.83,40.51-47.66S564.38,80,564.38,80Z" transform="translate(-348.81 179.45)"/></g><path class="cls-7" d="M570.85-113.66s26.89,59.92,33.7,145.36-.68,103.83-.68,103.83-11.57,79-14.64,96.68c0,0-59.23,17.36-105.87-5.78,0,0,2-27.92-6.47-91.58s-17.36-46.3,2.73-153.53c0,0,22.12-75.23,31-91.92l16.34,3.75c-3.75,5.11-15.32,64.68-22.47,111.66s1.7,70.47,6.13,79.32,13.27,10.21,15.66,9.19,16,11.57,33-3.75c0,0,8.17,3.41,11.57-6.8s4.77-63.66,2-82.39S569.15-49,557.57-106.51Z" transform="translate(-348.81 179.45)"/><path class="cls-9" d="M557.06-107.36l-16.68-18L540-176.13s5.62-11.57,12.6,19.92c6.94,31.32,17.7,41.7,17.7,41.7Z" transform="translate(-348.81 179.45)"/></g></svg>