<svg width="510" height="135" viewBox="0 0 510 135" fill="none" xmlns="http://www.w3.org/2000/svg">
<path d="M409.48 124.819H126.43L68.72 122.069L42.61 109.709V49.2488H409.48L453.44 80.8488L458.94 123.449L409.48 124.819Z" fill="#3D3D3D"/>
<path d="M10.3201 91.1588L11.0101 119.329L37.1201 120.699V115.199L54.9801 119.329L53.6001 91.1588H10.3201Z" fill="black"/>
<path d="M140.89 98.7089L136.73 126.879H371L368.23 103.219L140.89 98.7089Z" fill="black"/>
<path d="M445.89 108.329L446 127.059L504.28 127.569L500.85 110.369L445.89 108.329Z" fill="black"/>
<path d="M97.57 134.439C118.816 134.439 136.04 117.215 136.04 95.9688C136.04 74.7224 118.816 57.4988 97.57 57.4988C76.3236 57.4988 59.1 74.7224 59.1 95.9688C59.1 117.215 76.3236 134.439 97.57 134.439Z" fill="black"/>
<path d="M97.57 127.569C115.022 127.569 129.17 113.421 129.17 95.9688C129.17 78.5166 115.022 64.3688 97.57 64.3688C80.1178 64.3688 65.97 78.5166 65.97 95.9688C65.97 113.421 80.1178 127.569 97.57 127.569Z" fill="black"/>
<path d="M97.57 129.289C90.9799 129.289 84.5379 127.335 79.0584 123.673C73.579 120.012 69.3083 114.808 66.7864 108.72C64.2644 102.631 63.6046 95.9319 64.8902 89.4684C66.1759 83.005 69.3493 77.0679 74.0092 72.408C78.6691 67.7481 84.6062 64.5747 91.0696 63.2891C97.533 62.0034 104.233 62.6632 110.321 65.1851C116.409 67.7071 121.613 71.9778 125.275 77.4572C128.936 82.9367 130.89 89.3787 130.89 95.9688C130.879 104.803 127.366 113.271 121.119 119.518C114.873 125.764 106.404 129.278 97.57 129.289ZM97.57 66.0788C91.6583 66.0788 85.8794 67.8318 80.964 71.1162C76.0486 74.4005 72.2176 79.0687 69.9553 84.5304C67.6929 89.9921 67.101 96.002 68.2543 101.8C69.4077 107.598 72.2544 112.924 76.4346 117.104C80.6148 121.284 85.9407 124.131 91.7388 125.284C97.5369 126.438 103.547 125.846 109.008 123.584C114.47 121.321 119.138 117.49 122.423 112.575C125.707 107.659 127.46 101.88 127.46 95.9688C127.452 88.0439 124.3 80.4459 118.697 74.8422C113.093 69.2384 105.495 66.0868 97.57 66.0788Z" fill="#D38700"/>
<path d="M103.07 94.5888H92.08L93.45 65.7388H101.69L103.07 94.5888Z" fill="black"/>
<path d="M104.51 95.9688H90.64L92.14 64.3588H103L104.51 95.9688ZM93.51 93.2188H101.62L100.38 67.1088H94.75L93.51 93.2188Z" fill="#D38700"/>
<path d="M96.41 91.4388L93.01 101.899L66 91.6689L68.54 83.8289L96.41 91.4388Z" fill="black"/>
<path d="M93.88 103.689L64.29 92.4988L67.64 82.1588L98.16 90.4988L93.88 103.689ZM67.71 90.8488L92.15 100.099L94.66 92.3888L69.45 85.4988L67.71 90.8488Z" fill="#D38700"/>
<path d="M93.1599 94.1188L102.05 100.579L83.9799 123.119L77.3099 118.269L93.1599 94.1188Z" fill="black"/>
<path d="M84.2299 124.999L75.4399 118.609L92.7999 92.1588L104.02 100.319L84.2299 124.999ZM79.2299 117.929L83.7799 121.239L100.1 100.849L93.5399 96.0788L79.2299 117.929Z" fill="#D38700"/>
<path d="M94.21 99.7689L103.1 93.3088L118.95 117.459L112.28 122.309L94.21 99.7689Z" fill="black"/>
<path d="M112.03 124.189L92.23 99.5088L103.46 91.3488L120.82 117.809L112.03 124.189ZM96.18 100.039L112.53 120.449L117.08 117.139L102.74 95.2888L96.18 100.039Z" fill="#D38700"/>
<path d="M101.71 100.589L98.3099 90.1388L126.18 82.5288L128.72 90.3688L101.71 100.589Z" fill="black"/>
<path d="M100.84 102.389L96.5599 89.1888L127.1 80.8588L130.45 91.1888L100.84 102.389ZM100.1 91.0788L102.61 98.7988L127.05 89.5488L125.31 84.1988L100.1 91.0788Z" fill="#D38700"/>
<path d="M97.5699 104.209C101.364 104.209 104.44 101.133 104.44 97.3388C104.44 93.5446 101.364 90.4688 97.5699 90.4688C93.7758 90.4688 90.7 93.5446 90.7 97.3388C90.7 101.133 93.7758 104.209 97.5699 104.209Z" fill="#CCCCCC"/>
<path d="M97.57 104.899C96.0748 104.899 94.6131 104.455 93.3699 103.625C92.1267 102.794 91.1577 101.613 90.5855 100.232C90.0133 98.8505 89.8636 97.3305 90.1553 95.864C90.447 94.3975 91.167 93.0504 92.2243 91.9931C93.2816 90.9358 94.6286 90.2158 96.0951 89.9241C97.5616 89.6324 99.0817 89.7821 100.463 90.3543C101.845 90.9265 103.025 91.8955 103.856 93.1387C104.687 94.3819 105.13 95.8436 105.13 97.3388C105.13 99.3439 104.334 101.267 102.916 102.685C101.498 104.102 99.575 104.899 97.57 104.899ZM97.57 91.1588C96.3481 91.1608 95.1543 91.5249 94.1393 92.2052C93.1243 92.8855 92.3338 93.8514 91.8676 94.9808C91.4014 96.1102 91.2804 97.3525 91.52 98.5506C91.7596 99.7487 92.3489 100.849 93.2136 101.712C94.0783 102.576 95.1795 103.163 96.378 103.401C97.5766 103.638 98.8186 103.515 99.9473 103.047C101.076 102.579 102.041 101.787 102.719 100.771C103.398 99.7551 103.76 98.5607 103.76 97.3388C103.76 96.5264 103.6 95.722 103.289 94.9715C102.977 94.2211 102.521 93.5394 101.946 92.9654C101.371 92.3914 100.689 91.9364 99.9381 91.6264C99.1871 91.3164 98.3824 91.1575 97.57 91.1588Z" fill="#4C4C4C"/>
<path d="M406.73 134.429C426.458 134.429 442.45 118.436 442.45 98.7088C442.45 78.9812 426.458 62.9888 406.73 62.9888C387.002 62.9888 371.01 78.9812 371.01 98.7088C371.01 118.436 387.002 134.429 406.73 134.429Z" fill="black"/>
<path d="M406.73 128.059C422.94 128.059 436.08 114.918 436.08 98.7088C436.08 82.4992 422.94 69.3588 406.73 69.3588C390.521 69.3588 377.38 82.4992 377.38 98.7088C377.38 114.918 390.521 128.059 406.73 128.059Z" fill="black"/>
<path d="M406.73 129.779C400.584 129.781 394.576 127.96 389.465 124.547C384.354 121.133 380.37 116.281 378.017 110.603C375.664 104.926 375.048 98.6777 376.247 92.6498C377.445 86.6219 380.404 81.0848 384.75 76.739C389.096 72.3932 394.633 69.4338 400.661 68.2353C406.689 67.0368 412.937 67.6529 418.615 70.0058C424.292 72.3586 429.145 76.3425 432.558 81.4535C435.971 86.5644 437.792 92.5729 437.79 98.7188C437.777 106.952 434.5 114.845 428.678 120.667C422.856 126.489 414.964 129.766 406.73 129.779ZM406.73 71.0888C401.265 71.0868 395.922 72.7056 391.377 75.7404C386.832 78.7752 383.289 83.0898 381.196 88.1383C379.103 93.1869 378.555 98.7426 379.62 104.103C380.685 109.463 383.315 114.388 387.179 118.253C391.043 122.118 395.966 124.75 401.326 125.817C406.686 126.884 412.242 126.338 417.291 124.247C422.341 122.156 426.656 118.614 429.693 114.07C432.729 109.526 434.35 104.184 434.35 98.7188C434.342 91.395 431.43 84.3734 426.252 79.1937C421.074 74.0141 414.054 71.0994 406.73 71.0888Z" fill="#D38700"/>
<path d="M411.83 97.4388H401.62L402.9 70.6488H410.55L411.83 97.4388Z" fill="black"/>
<path d="M413.27 98.8088H400.18L401.59 69.2688H411.86L413.27 98.8088ZM403.1 96.0588H410.43L409.28 72.0588H404.28L403.1 96.0588Z" fill="#D38700"/>
<path d="M405.65 94.5087L402.49 104.219L377.41 94.7287L379.77 87.4487L405.65 94.5087Z" fill="black"/>
<path d="M403.36 106.019L375.69 95.5488L378.87 85.7788L407.4 93.5688L403.36 106.019ZM379.1 93.9088L401.63 102.449L403.9 95.4488L380.67 89.1088L379.1 93.9088Z" fill="#D38700"/>
<path d="M402.63 96.9988L410.88 102.999L394.1 123.929L387.91 119.429L402.63 96.9988Z" fill="black"/>
<path d="M394.36 125.809L386.04 119.809L402.27 95.0787L412.86 102.779L394.36 125.809ZM389.78 119.089L393.85 122.089L408.91 103.299L402.98 98.9987L389.78 119.089Z" fill="#D38700"/>
<path d="M403.6 102.249L411.86 96.2488L426.58 118.679L420.38 123.179L403.6 102.249Z" fill="black"/>
<path d="M420.1 125.059L401.6 101.989L412.19 94.2888L428.41 119.019L420.1 125.059ZM405.54 102.509L420.6 121.299L424.68 118.299L411.5 98.2088L405.54 102.509Z" fill="#D38700"/>
<path d="M410.57 103.009L407.41 93.2988L433.29 86.2388L435.65 93.5088L410.57 103.009Z" fill="black"/>
<path d="M409.7 104.799L405.7 92.3487L434.23 84.5587L437.4 94.3387L409.7 104.799ZM409.16 94.2487L411.43 101.249L433.94 92.7287L432.39 87.9487L409.16 94.2487Z" fill="#D38700"/>
<path d="M406.73 106.369C410.254 106.369 413.11 103.512 413.11 99.9888C413.11 96.4652 410.254 93.6088 406.73 93.6088C403.207 93.6088 400.35 96.4652 400.35 99.9888C400.35 103.512 403.207 106.369 406.73 106.369Z" fill="#CCCCCC"/>
<path d="M406.73 107.059C405.331 107.061 403.963 106.648 402.799 105.872C401.635 105.096 400.728 103.993 400.191 102.701C399.654 101.409 399.513 99.9876 399.785 98.6155C400.056 97.2434 400.729 95.9828 401.717 94.993C402.706 94.0032 403.965 93.3289 405.337 93.0553C406.709 92.7817 408.131 92.9211 409.423 93.4559C410.716 93.9907 411.821 94.8969 412.598 96.0598C413.375 97.2226 413.79 98.59 413.79 99.9887C413.787 101.861 413.043 103.656 411.72 104.981C410.397 106.307 408.603 107.053 406.73 107.059ZM406.73 94.2987C405.605 94.2987 404.505 94.6324 403.569 95.2576C402.633 95.8828 401.904 96.7715 401.473 97.8112C401.042 98.8509 400.93 99.995 401.149 101.099C401.369 102.202 401.911 103.216 402.707 104.012C403.502 104.808 404.516 105.35 405.62 105.569C406.724 105.789 407.868 105.676 408.908 105.246C409.947 104.815 410.836 104.086 411.461 103.15C412.086 102.214 412.42 101.114 412.42 99.9887C412.417 98.4804 411.817 97.0347 410.751 95.9682C409.684 94.9016 408.238 94.3013 406.73 94.2987Z" fill="#3F3F3F"/>
<g opacity="0.8">
<path opacity="0.8" d="M108.56 36.8789C136.05 13.5289 197.88 2.52891 197.88 2.52891C197.88 2.52891 274.32 -1.22106 299.55 9.39894C325.66 20.3989 377.87 47.8789 377.87 47.8789L162.87 48.5589L108.56 36.8789Z" fill="#514841"/>
</g>
<path d="M292.68 8.02881C300.93 9.39881 361.38 46.4988 361.38 46.4988H354.51C354.51 46.4988 303.46 16.1288 299.51 13.4988C297.077 11.8796 294.792 10.0492 292.68 8.02881Z" fill="#8E8176"/>
<path d="M13.1 85.6588H0L4.67001 95.3088C5.56001 96.1488 8.14001 96.7588 11.24 96.8688L24.73 97.3388L13.1 85.6588Z" fill="#4C4C4C"/>
<path d="M15.1 14.2087L16.59 30.6987L44.59 36.1987L54.21 34.8187C52.73 33.1287 38.84 16.8187 36.61 16.5787L15.1 14.2087Z" fill="#A33A00"/>
<path d="M44.64 37.5887L15.34 31.8487L13.61 12.6587L36.84 15.2087C37.84 15.3187 39.4 15.4887 54.59 33.0687L57 35.8187L44.64 37.5887ZM17.9 29.5887L44.71 34.8387L51.6 33.8387C40.06 20.5287 37.17 18.2787 36.45 17.9587L16.65 15.7787L17.9 29.5887Z" fill="#050505"/>
<g opacity="0.8">
<path opacity="0.8" d="M131.92 42.3788C139.86 52.9588 133.15 31.3788 145.66 24.5188C160.58 16.3788 186.88 5.27881 186.88 5.27881C186.88 5.27881 142.64 19.7088 131.88 25.8888C126.109 29.1259 120.596 32.8035 115.39 36.8888C115.39 36.8888 133.57 44.5788 131.92 42.3788Z" fill="#AA968D"/>
</g>
<g style="mix-blend-mode:multiply">
<g style="mix-blend-mode:multiply">
<path d="M133.3 39.6289C133.3 39.6289 121.9 29.2689 151.16 17.6289C130.16 21.6289 116.81 36.8589 116.81 36.8589L133.3 39.6289Z" fill="#3F332D"/>
</g>
</g>
<g style="mix-blend-mode:lighten" opacity="0.8">
<g style="mix-blend-mode:lighten" opacity="0.8">
<path d="M278.94 14.8989C296.81 30.0089 309.17 35.5089 309.17 39.6289V47.8789L343.52 43.7489C343.52 43.7489 303.26 20.3289 295.43 17.6489C290.089 15.9652 284.538 15.0395 278.94 14.8989Z" fill="#8E8176"/>
</g>
</g>
<path d="M287.87 5.96869C263.39 -0.561311 198.56 1.84869 198.56 1.84869L158.72 56.8487L217.89 51.3487L215.95 44.4487L209.56 21.0887L199.94 19.7187L208.18 7.34869C208.18 7.34869 264.52 5.9687 285.1 11.4487C295.1 14.1087 320.82 29.3187 320.82 29.3187V51.3187H359.29C359.29 51.3187 308.48 11.4487 287.87 5.96869ZM202.69 27.9687L205.43 36.2187H183.43L190.3 26.5987L202.69 27.9687Z" fill="#3D3B3A"/>
<path d="M155.82 58.4488L197.82 0.448814H198.49C201.15 0.348814 263.81 -1.88117 288.21 4.61883C308.85 10.1288 358.07 48.6188 360.15 50.2088L363.28 52.6688H319.48V30.1088C315.35 27.7088 293.55 15.1088 284.77 12.7888C265.83 7.78881 215.52 8.56881 208.93 8.69881L202.29 18.6988L210.64 19.8888L219.64 52.5688L155.82 58.4488ZM199.28 3.1888L161.61 55.1888L216.1 50.0988L214.61 44.8088L208.45 22.3188L197.57 20.7588L207.41 5.98882H208.13C210.44 5.98882 264.9 4.66881 285.46 10.1588C295.46 12.8288 320.46 27.5388 321.53 28.1588L322.2 28.5588V49.9588H355.27C343.84 41.2088 304.66 11.8888 287.5 7.31881C264.84 1.24881 206.21 2.96881 199.28 3.19881V3.1888ZM207.34 37.5588H180.78L189.67 25.1088L203.67 26.6788L207.34 37.5588ZM186.1 34.8188H203.51L201.64 29.2188L190.95 28.0288L186.1 34.8188Z" fill="#050505"/>
<path d="M507.73 85.0588L500.81 101.449C500.81 101.549 500.75 111.269 500.65 111.269L454.5 109.339L445.25 109.259C445.142 108.746 445.089 108.223 445.09 107.699C445.29 105.359 445.42 101.029 445.48 99.6988C446.6 76.5988 428.25 56.6988 405.13 57.2088C394.818 57.4491 385.009 61.7137 377.799 69.0912C370.59 76.4687 366.552 86.3737 366.55 96.6888C366.511 98.7364 366.644 100.784 366.95 102.809C366.953 102.832 366.951 102.855 366.944 102.878C366.937 102.9 366.926 102.921 366.911 102.939C366.896 102.956 366.878 102.971 366.857 102.981C366.836 102.992 366.813 102.998 366.79 102.999L354.65 102.899L355.2 114.489L151.85 113.109L152.53 100.909L140.39 100.829C140.346 100.824 140.305 100.803 140.275 100.77C140.246 100.736 140.23 100.693 140.23 100.649C140.403 99.3228 140.48 97.986 140.46 96.6488C140.291 90.846 138.964 85.1354 136.557 79.8525C134.15 74.5696 130.712 69.821 126.444 65.8856C122.176 61.9502 117.165 58.9074 111.705 56.9359C106.245 54.9644 100.445 54.104 94.6479 54.4052C88.8504 54.7064 83.1715 56.1631 77.9449 58.6899C72.7183 61.2166 68.0494 64.7624 64.2123 69.1188C60.3753 73.4753 57.4475 78.5546 55.6011 84.0585C53.7546 89.5623 53.0267 95.3797 53.46 101.169C53.4614 101.192 53.458 101.215 53.4501 101.237C53.4421 101.259 53.4298 101.279 53.4139 101.296C53.398 101.312 53.3788 101.326 53.3575 101.335C53.3362 101.344 53.3132 101.349 53.29 101.349L15.14 97.1988C13.0313 97.0401 11.0518 96.1213 9.56941 94.6131C8.08701 93.105 7.20244 91.11 7.08002 88.9988L6.15002 73.2688L15.7 65.5788L15.77 65.4288V28.1288C15.7683 28.1065 15.7716 28.0841 15.7797 28.0632C15.7878 28.0423 15.8005 28.0235 15.8168 28.0082C15.8331 27.9928 15.8526 27.9814 15.8739 27.9745C15.8953 27.9677 15.9178 27.9658 15.94 27.9688C15.94 27.9688 44.1 30.7088 44.1 30.7288C44.1 30.7488 52.94 34.8188 53 34.8188C53.06 34.8188 114.73 33.4488 114.75 33.4488L162.53 40.3088L366.19 45.5388C366.19 45.5388 392.32 45.8188 403.29 45.8188C414.11 45.8188 504.77 83.7388 507.65 84.9488C507.672 84.958 507.691 84.9731 507.706 84.9925C507.72 85.0119 507.728 85.0349 507.73 85.0588Z" fill="#E24F05"/>
<path d="M356.64 115.899L150.39 114.509L151.08 102.299L139.8 102.229L139.28 101.749C139.137 101.595 139.026 101.414 138.954 101.216C138.882 101.019 138.85 100.809 138.86 100.599C138.873 99.9954 138.929 99.3938 139.03 98.7988C139.1 98.0944 139.117 97.3857 139.08 96.6788C139.166 91.083 138.138 85.5259 136.057 80.3311C133.975 75.1363 130.88 70.4075 126.954 66.4198C123.027 62.4322 118.346 59.2654 113.184 57.1039C108.022 54.9423 102.481 53.8292 96.885 53.8292C91.2886 53.8292 85.748 54.9423 80.5858 57.1039C75.4237 59.2654 70.743 62.4322 66.8163 66.4198C62.8896 70.4075 59.7953 75.1363 57.7134 80.3311C55.6316 85.5259 54.6039 91.083 54.69 96.6788C54.6642 97.586 54.6876 98.494 54.76 99.3988C54.76 99.7488 54.84 100.189 54.88 101.119C54.8943 101.34 54.8605 101.562 54.7812 101.769C54.7018 101.976 54.5786 102.164 54.42 102.319L53.97 102.749H53.22L15.04 98.5988C12.6117 98.3988 10.3368 97.3303 8.63232 95.5891C6.92789 93.848 5.90814 91.5508 5.76001 89.1188L4.76001 72.6688L14.42 64.8988V27.5287L14.9 26.9987C15.0542 26.8541 15.2373 26.7436 15.4372 26.6747C15.6372 26.6058 15.8494 26.5799 16.06 26.5988C40.35 28.9688 43.9 29.3187 44.62 29.4987C47.62 30.8987 52.13 32.9787 53.21 33.4987C107.21 32.2887 113.94 32.1488 114.9 32.1688L162.61 39.0188L366.18 44.2487C368.88 44.2487 392.8 44.5188 403.25 44.5188C414.36 44.5188 504.31 82.1588 508.14 83.7588C508.369 83.8542 508.571 84.0044 508.728 84.1963C508.884 84.3881 508.992 84.6156 509.04 84.8588L509.13 85.2787L502.13 101.859C502.13 104.049 502.26 111.519 501.67 112.229L501.24 112.759H500.55L454.4 110.839L444.6 110.749L444.19 110.299C443.56 109.619 443.68 107.719 443.68 107.709C443.83 105.979 443.94 103.149 444.01 101.269C444.01 100.629 444.01 100.099 444.07 99.7688C444.327 94.332 443.467 88.9003 441.542 83.8091C439.618 78.718 436.67 74.0756 432.88 70.1688C429.305 66.4334 424.989 63.4856 420.208 61.5139C415.428 59.5423 410.289 58.5903 405.12 58.7187C395.184 59.0013 385.746 63.1326 378.798 70.241C371.85 77.3494 367.936 86.8789 367.88 96.8188C367.853 98.0327 367.927 99.2469 368.1 100.449C368.16 100.909 368.24 101.449 368.34 102.689C368.357 102.903 368.329 103.119 368.258 103.322C368.188 103.525 368.076 103.711 367.93 103.869L367.52 104.309L366.81 104.359L356.11 104.279L356.64 115.899ZM153.3 111.779L353.76 113.129L353.21 101.549L365.45 101.639C365.45 101.319 365.38 101.079 365.35 100.869C365.184 99.4921 365.127 98.1044 365.18 96.7188C365.238 86.0623 369.434 75.8452 376.882 68.2235C384.33 60.6019 394.448 56.1721 405.1 55.8688C410.646 55.7382 416.158 56.7624 421.286 58.8765C426.415 60.9905 431.047 64.1482 434.89 68.1488C438.947 72.3244 442.104 77.2872 444.168 82.7308C446.232 88.1744 447.159 93.9832 446.89 99.7988L446.82 101.269C446.75 103.179 446.64 106.049 446.49 107.839V107.919L454.49 107.989L499.32 109.859C499.38 107.489 499.43 102.559 499.42 101.629L499.35 101.339L505.94 85.7288C473.39 72.1088 411.62 47.1887 403.27 47.1887C392.81 47.1887 368.88 46.9388 366.18 46.9088C180.95 42.1588 164.01 41.7288 162.32 41.6488L114.65 34.7988L53 36.1688C52.67 36.1688 52.68 36.1688 43.7 32.0488L17.19 29.4488V65.7688L16.92 66.3288L16.61 66.6688L7.61 73.9087L8.5 88.9087C8.60588 90.6865 9.35192 92.3659 10.6001 93.6361C11.8484 94.9064 13.5144 95.6818 15.29 95.8188L52.05 99.8188C52.0455 99.7455 52.0455 99.672 52.05 99.5988C51.9636 98.6012 51.9336 97.5997 51.96 96.5988C52.1361 84.7947 56.9488 73.5338 65.3585 65.2486C73.7682 56.9634 85.0996 52.3192 96.905 52.3192C108.71 52.3192 120.042 56.9634 128.452 65.2486C136.861 73.5338 141.674 84.7947 141.85 96.5988C141.898 97.47 141.865 98.3438 141.75 99.2088C141.75 99.2588 141.75 99.3188 141.75 99.4088L154.03 99.4888L153.3 111.779Z" fill="#050505"/>
<g opacity="0.6">
<path opacity="0.6" d="M26.1 50.7288C65.3 56.3588 49.48 68.4488 49.48 68.4488C52.23 62.9488 59.1 54.7088 65.97 50.5788C52.6911 49.7514 39.3722 49.8015 26.1 50.7288Z" fill="#050505"/>
</g>
<path d="M470.62 81.5388L467.87 89.7788H498.1L495.35 82.9088L470.62 81.5388Z" fill="#CC3B09"/>
<path d="M499.1 90.4488H466.92L470.13 80.7988L495.83 82.2288L499.1 90.4488ZM468.81 89.0788H497.1L494.9 83.5588L471.1 82.2488L468.81 89.0788Z" fill="#050505"/>
<path d="M458.25 109.019H456.88C456.88 85.7488 452.17 69.6488 442.48 59.7988L443.48 58.7988C453.41 68.9488 458.25 85.3688 458.25 109.019Z" fill="#070707"/>
<path d="M355.27 102.909H353.9C353.9 85.4188 360.32 68.6188 371.09 57.9588C375.321 53.7614 380.353 50.4581 385.886 48.2453C391.42 46.0326 397.342 44.9557 403.3 45.0788V46.4488C397.526 46.313 391.785 47.3489 386.422 49.4939C381.06 51.6389 376.188 54.8485 372.1 58.9288C361.54 69.3388 355.27 85.7788 355.27 102.909Z" fill="#070707"/>
<g opacity="0.6">
<path opacity="0.6" d="M129.18 51.9988C142.92 60.2388 149.79 79.4788 149.79 79.4788C149.79 79.4788 153.91 58.8688 158.03 58.8688C170.7 58.8688 320.53 59.1788 354.51 58.8688C358.87 58.8688 362.76 54.7488 362.76 54.7488C362.76 54.7488 122.31 53.3688 129.18 51.9988Z" fill="black"/>
</g>
<path d="M236.42 93.9088H169.95C168.516 93.9338 167.105 93.5527 165.879 92.8095C164.652 92.0663 163.661 90.9914 163.02 89.7088C161.38 86.2488 159.4 80.8988 157.31 75.2488C155.99 71.6788 154.62 67.9888 153.31 64.6488C153.097 64.0708 153.032 63.4485 153.121 62.8389C153.21 62.2293 153.45 61.6517 153.82 61.1588C154.481 60.2503 155.343 59.5068 156.339 58.9864C157.334 58.466 158.437 58.1827 159.56 58.1588H353.1V59.5388H159.54C158.643 59.5641 157.764 59.7902 156.966 60.2003C156.168 60.6105 155.472 61.1943 154.93 61.9088C154.692 62.2186 154.534 62.5827 154.471 62.9684C154.408 63.3541 154.442 63.7495 154.57 64.1188C155.91 67.4788 157.27 71.1688 158.57 74.7488C160.65 80.3788 162.62 85.6888 164.23 89.0988C164.761 90.1454 165.577 91.0208 166.583 91.6241C167.59 92.2274 168.747 92.5341 169.92 92.5088H236.39L236.42 93.9088Z" fill="#050505"/>
<path d="M464.49 66.6707L459 94.4945L460.345 94.7597L465.834 66.9359L464.49 66.6707Z" fill="#050505"/>
<path d="M355.89 111.769H354.51V62.5088L343.58 45.6488L344.73 44.8988L355.89 62.0988V111.769Z" fill="#050505"/>
<path d="M504.259 93.9653L456.853 94.6107L456.872 95.9806L504.278 95.3352L504.259 93.9653Z" fill="#050505"/>
<path d="M500.85 100.779H485.73L481.16 94.8888" fill="#E24F05"/>
<path d="M500.85 101.459H485.4L480.62 95.3088L481.7 94.4589L486.07 100.089H500.85V101.459Z" fill="#050505"/>
<g opacity="0.6">
<path opacity="0.6" d="M355.89 69.8588H186.88L185.51 62.9888H358.64L355.89 69.8588Z" fill="#020202"/>
</g>
<g opacity="0.6">
<path opacity="0.6" d="M355.89 80.8488H191.01L189.63 73.9788H355.89V80.8488Z" fill="#020202"/>
</g>
<path d="M289.94 106.659C254.94 106.659 218.01 106.309 213.25 104.869C204.98 102.369 201.01 95.0688 200.12 93.2188H197.3L197.12 93.0789C192.34 89.5489 183.84 60.2989 183.48 59.0789L183.22 58.1989H187.41C187.58 55.1989 188.28 43.2989 188.76 40.1989L190.1 40.4489C189.57 43.8089 188.73 58.7789 188.73 58.9289V59.5789H185.1C187.69 68.3589 194.24 88.7389 197.82 91.8589H201.06L201.24 92.2788C201.24 92.3688 205.03 100.949 213.7 103.569C222.6 106.259 353.31 104.999 354.63 104.989V106.359C352.02 106.359 321.82 106.659 289.94 106.659Z" fill="#020202"/>
<path d="M15.8201 55.2888L22.6901 56.8088L29.5601 85.6588H43.3001" fill="#E24F05"/>
<path d="M43.3 86.3489H29.02L22.12 57.3889L15.67 55.9589L15.97 54.6189L23.26 56.2289L30.1 84.9689H43.3V86.3489Z" fill="#050505"/>
<path d="M29.5601 84.9688H6.93005V86.3388H29.5601V84.9688Z" fill="#050505"/>
<path d="M355.2 101.449H151.2V100.769C151.2 65.8389 128.84 42.3689 95.55 42.3689C88.8043 42.2761 82.1103 43.5583 75.8763 46.1371C69.6423 48.716 63.9988 52.5376 59.29 57.3689C46.81 70.0889 41.45 87.9688 41.68 100.049H40.31C40.07 87.6889 45.55 69.3988 58.31 56.3888C63.1432 51.4215 68.9381 47.4914 75.3409 44.8385C81.7437 42.1855 88.62 40.8655 95.55 40.9589C129.44 40.9589 152.28 64.6688 152.55 100.039H355.2V101.449Z" fill="#050505"/>
</svg>
