<?xml version="1.0" encoding="UTF-8"?>
<svg width="480px" height="480px" viewBox="0 0 480 480" version="1.1" xmlns="http://www.w3.org/2000/svg" xmlns:xlink="http://www.w3.org/1999/xlink">
    <title>敬请期待</title>
    <defs>
        <linearGradient x1="49.9647142%" y1="99.9912155%" x2="49.9647142%" y2="-0.0588770835%" id="linearGradient-1">
            <stop stop-color="#FFFFFF" stop-opacity="0.1" offset="0%"></stop>
            <stop stop-color="#D9E9FF" offset="100%"></stop>
        </linearGradient>
        <linearGradient x1="50.0935971%" y1="100%" x2="50.0935971%" y2="0.00649007481%" id="linearGradient-2">
            <stop stop-color="#FFFFFF" stop-opacity="0.1" offset="0%"></stop>
            <stop stop-color="#F8FBFF" stop-opacity="0.27" offset="14%"></stop>
            <stop stop-color="#EDF5FF" stop-opacity="0.52" offset="37%"></stop>
            <stop stop-color="#E4F0FF" stop-opacity="0.73" offset="58%"></stop>
            <stop stop-color="#DEECFF" stop-opacity="0.88" offset="76%"></stop>
            <stop stop-color="#DAEAFF" stop-opacity="0.97" offset="91%"></stop>
            <stop stop-color="#D9E9FF" offset="100%"></stop>
        </linearGradient>
        <linearGradient x1="49.9407687%" y1="99.9999363%" x2="49.9407687%" y2="-0.0639764683%" id="linearGradient-3">
            <stop stop-color="#FFFFFF" stop-opacity="0.1" offset="0%"></stop>
            <stop stop-color="#FEFEFF" stop-opacity="0.13" offset="9%"></stop>
            <stop stop-color="#FBFCFF" stop-opacity="0.21" offset="23%"></stop>
            <stop stop-color="#F5F9FF" stop-opacity="0.33" offset="40%"></stop>
            <stop stop-color="#EEF5FF" stop-opacity="0.51" offset="59%"></stop>
            <stop stop-color="#E4EFFF" stop-opacity="0.74" offset="79%"></stop>
            <stop stop-color="#D9E9FF" offset="100%"></stop>
        </linearGradient>
        <linearGradient x1="50%" y1="100%" x2="50%" y2="0%" id="linearGradient-4">
            <stop stop-color="#FFFFFF" stop-opacity="0.1" offset="0%"></stop>
            <stop stop-color="#FBFDFF" stop-opacity="0.19" offset="13%"></stop>
            <stop stop-color="#F1F7FF" stop-opacity="0.43" offset="41%"></stop>
            <stop stop-color="#E1EEFF" stop-opacity="0.82" offset="81%"></stop>
            <stop stop-color="#D9E9FF" offset="100%"></stop>
        </linearGradient>
        <linearGradient x1="0%" y1="50%" x2="100%" y2="50%" id="linearGradient-5">
            <stop stop-color="#D4E7FF" stop-opacity="0.9" offset="0%"></stop>
            <stop stop-color="#B6D3FA" offset="100%"></stop>
        </linearGradient>
        <linearGradient x1="0%" y1="49.9946814%" x2="100%" y2="49.9946814%" id="linearGradient-6">
            <stop stop-color="#D4E7FF" stop-opacity="0.9" offset="0%"></stop>
            <stop stop-color="#B5D6FC" stop-opacity="0.93" offset="36%"></stop>
            <stop stop-color="#75B2F6" offset="100%"></stop>
        </linearGradient>
        <linearGradient x1="2.29447884e-14%" y1="49.9938264%" x2="100.008073%" y2="49.9938264%" id="linearGradient-7">
            <stop stop-color="#FFFFFF" offset="0%"></stop>
            <stop stop-color="#EDF3FE" offset="58%"></stop>
            <stop stop-color="#E6EFFE" offset="100%"></stop>
        </linearGradient>
        <linearGradient x1="-8.1605632%" y1="56.1601892%" x2="91.8220634%" y2="33.6083313%" id="linearGradient-8">
            <stop stop-color="#DEEBFF" offset="0%"></stop>
            <stop stop-color="#C6DDFC" offset="21%"></stop>
            <stop stop-color="#A7CAF9" offset="53%"></stop>
            <stop stop-color="#94BFF7" offset="81%"></stop>
            <stop stop-color="#8DBBF6" offset="100%"></stop>
        </linearGradient>
        <linearGradient x1="2.00919958%" y1="64.4725546%" x2="97.8429395%" y2="35.5751404%" id="linearGradient-9">
            <stop stop-color="#DEEBFF" offset="0%"></stop>
            <stop stop-color="#C6DDFC" offset="21%"></stop>
            <stop stop-color="#A7CAF9" offset="53%"></stop>
            <stop stop-color="#94BFF7" offset="81%"></stop>
            <stop stop-color="#8DBBF6" offset="100%"></stop>
        </linearGradient>
        <linearGradient x1="2.08405216%" y1="64.4919791%" x2="97.9177921%" y2="35.5945649%" id="linearGradient-10">
            <stop stop-color="#DEEBFF" offset="0%"></stop>
            <stop stop-color="#C6DDFC" offset="21%"></stop>
            <stop stop-color="#A7CAF9" offset="53%"></stop>
            <stop stop-color="#94BFF7" offset="81%"></stop>
            <stop stop-color="#8DBBF6" offset="100%"></stop>
        </linearGradient>
        <linearGradient x1="7.81573734%" y1="44.4986148%" x2="106.693795%" y2="42.3222532%" id="linearGradient-11">
            <stop stop-color="#BEE5FF" stop-opacity="0.9" offset="0%"></stop>
            <stop stop-color="#A8D4FD" stop-opacity="0.92" offset="12%"></stop>
            <stop stop-color="#85B9F9" stop-opacity="0.96" offset="34%"></stop>
            <stop stop-color="#6BA6F6" stop-opacity="0.98" offset="57%"></stop>
            <stop stop-color="#5C9BF5" offset="79%"></stop>
            <stop stop-color="#5797F4" offset="100%"></stop>
        </linearGradient>
        <linearGradient x1="8.52976951%" y1="43.3707606%" x2="106.653154%" y2="41.0157033%" id="linearGradient-12">
            <stop stop-color="#BEE5FF" stop-opacity="0.9" offset="0%"></stop>
            <stop stop-color="#A8D4FD" stop-opacity="0.92" offset="12%"></stop>
            <stop stop-color="#85B9F9" stop-opacity="0.96" offset="34%"></stop>
            <stop stop-color="#6BA6F6" stop-opacity="0.98" offset="57%"></stop>
            <stop stop-color="#5C9BF5" offset="79%"></stop>
            <stop stop-color="#5797F4" offset="100%"></stop>
        </linearGradient>
        <linearGradient x1="11.0699916%" y1="43.7265842%" x2="102.623769%" y2="41.4456137%" id="linearGradient-13">
            <stop stop-color="#BEE5FF" stop-opacity="0.9" offset="0%"></stop>
            <stop stop-color="#A8D4FD" stop-opacity="0.92" offset="12%"></stop>
            <stop stop-color="#85B9F9" stop-opacity="0.96" offset="34%"></stop>
            <stop stop-color="#6BA6F6" stop-opacity="0.98" offset="57%"></stop>
            <stop stop-color="#5C9BF5" offset="79%"></stop>
            <stop stop-color="#5797F4" offset="100%"></stop>
        </linearGradient>
        <linearGradient x1="13.7181961%" y1="42.9223965%" x2="100.702998%" y2="40.6896482%" id="linearGradient-14">
            <stop stop-color="#BEE5FF" stop-opacity="0.9" offset="0%"></stop>
            <stop stop-color="#A8D4FD" stop-opacity="0.92" offset="12%"></stop>
            <stop stop-color="#85B9F9" stop-opacity="0.96" offset="34%"></stop>
            <stop stop-color="#6BA6F6" stop-opacity="0.98" offset="57%"></stop>
            <stop stop-color="#5C9BF5" offset="79%"></stop>
            <stop stop-color="#5797F4" offset="100%"></stop>
        </linearGradient>
        <linearGradient x1="-0.800923925%" y1="50.416764%" x2="100%" y2="50.416764%" id="linearGradient-15">
            <stop stop-color="#74A6F5" offset="0%"></stop>
            <stop stop-color="#67A0F5" offset="25%"></stop>
            <stop stop-color="#5B99F4" offset="63%"></stop>
            <stop stop-color="#5797F4" offset="100%"></stop>
        </linearGradient>
        <linearGradient x1="-0.0432195302%" y1="50.7409547%" x2="100.519413%" y2="50.7409547%" id="linearGradient-16">
            <stop stop-color="#74A6F5" offset="0%"></stop>
            <stop stop-color="#67A0F5" offset="25%"></stop>
            <stop stop-color="#5B99F4" offset="63%"></stop>
            <stop stop-color="#5797F4" offset="100%"></stop>
        </linearGradient>
        <linearGradient x1="0.331858407%" y1="49.5443872%" x2="100.774336%" y2="49.5443872%" id="linearGradient-17">
            <stop stop-color="#74A6F5" offset="0%"></stop>
            <stop stop-color="#67A0F5" offset="25%"></stop>
            <stop stop-color="#5B99F4" offset="63%"></stop>
            <stop stop-color="#5797F4" offset="100%"></stop>
        </linearGradient>
        <linearGradient x1="-0.332136061%" y1="50.195016%" x2="100%" y2="50.195016%" id="linearGradient-18">
            <stop stop-color="#74A6F5" offset="0%"></stop>
            <stop stop-color="#67A0F5" offset="25%"></stop>
            <stop stop-color="#5B99F4" offset="63%"></stop>
            <stop stop-color="#5797F4" offset="100%"></stop>
        </linearGradient>
        <linearGradient x1="0.333889816%" y1="49.4746296%" x2="101.001669%" y2="49.4746296%" id="linearGradient-19">
            <stop stop-color="#74A6F5" offset="0%"></stop>
            <stop stop-color="#67A0F5" offset="25%"></stop>
            <stop stop-color="#5B99F4" offset="63%"></stop>
            <stop stop-color="#5797F4" offset="100%"></stop>
        </linearGradient>
        <linearGradient x1="-0.388117507%" y1="49.1675618%" x2="99.832009%" y2="49.1675618%" id="linearGradient-20">
            <stop stop-color="#74A6F5" offset="0%"></stop>
            <stop stop-color="#67A0F5" offset="25%"></stop>
            <stop stop-color="#5B99F4" offset="63%"></stop>
            <stop stop-color="#5797F4" offset="100%"></stop>
        </linearGradient>
        <linearGradient x1="-0.214863156%" y1="50.891239%" x2="99.0763924%" y2="50.891239%" id="linearGradient-21">
            <stop stop-color="#74A6F5" offset="0%"></stop>
            <stop stop-color="#67A0F5" offset="25%"></stop>
            <stop stop-color="#5B99F4" offset="63%"></stop>
            <stop stop-color="#5797F4" offset="100%"></stop>
        </linearGradient>
        <linearGradient x1="0.250059334%" y1="50.8485624%" x2="100.434694%" y2="50.8485624%" id="linearGradient-22">
            <stop stop-color="#74A6F5" offset="0%"></stop>
            <stop stop-color="#67A0F5" offset="25%"></stop>
            <stop stop-color="#5B99F4" offset="63%"></stop>
            <stop stop-color="#5797F4" offset="100%"></stop>
        </linearGradient>
        <linearGradient x1="0%" y1="49.8051759%" x2="100.5%" y2="49.8051759%" id="linearGradient-23">
            <stop stop-color="#74A6F5" offset="0%"></stop>
            <stop stop-color="#67A0F5" offset="25%"></stop>
            <stop stop-color="#5B99F4" offset="63%"></stop>
            <stop stop-color="#5797F4" offset="100%"></stop>
        </linearGradient>
        <linearGradient x1="-9.9145498e-13%" y1="50%" x2="100%" y2="50%" id="linearGradient-24">
            <stop stop-color="#74A6F5" offset="0%"></stop>
            <stop stop-color="#67A0F5" offset="25%"></stop>
            <stop stop-color="#5B99F4" offset="63%"></stop>
            <stop stop-color="#5797F4" offset="100%"></stop>
        </linearGradient>
        <linearGradient x1="83.8752915%" y1="-25.7303651%" x2="83.8752915%" y2="100%" id="linearGradient-25">
            <stop stop-color="#91D5FF" offset="0%"></stop>
            <stop stop-color="#40A9FF" offset="100%"></stop>
        </linearGradient>
    </defs>
    <g id="组件设计" stroke="none" stroke-width="1" fill="none" fill-rule="evenodd">
        <g id="基础-缺省图" transform="translate(-90.000000, -4104.000000)">
            <g id="敬请期待" transform="translate(90.000000, 4104.000000)">
                <rect id="矩形" fill="#D8D8D8" opacity="0" x="0" y="0" width="480" height="480"></rect>
                <polygon id="路径" fill="#E4EFFF" fill-rule="nonzero" points="93.8769231 277.911371 95.9736264 300.315766 82.8395604 298.825656"></polygon>
                <polygon id="路径" fill="#F3F8FF" fill-rule="nonzero" points="93.8769231 277.911371 107.70989 295.594887 95.9736264 300.315766"></polygon>
                <polygon id="路径" fill="#E4EFFF" fill-rule="nonzero" points="46.8131868 283.700382 49.5032967 312.368514 32.9538462 310.443239"></polygon>
                <polygon id="路径" fill="#F3F8FF" fill-rule="nonzero" points="46.8131868 283.700382 64.2989011 306.355327 49.5032967 312.368514"></polygon>
                <polygon id="路径" fill="#E4EFFF" fill-rule="nonzero" points="69.2307692 263.867415 73.6615385 311.287195 43.8725275 308.333349"></polygon>
                <polygon id="路径" fill="#F3F8FF" fill-rule="nonzero" points="69.2307692 263.867415 100.391209 301.133349 73.6615385 311.287195"></polygon>
                <path d="M78.356044,159.90258 C76.5920939,150.599963 68.3857193,143.919061 58.9186813,144.078404 C53.8515331,144.054936 48.9608371,145.937783 45.2175824,149.353129 C43.1200323,148.40768 40.8458344,147.917784 38.5450549,147.915766 C31.255123,147.800891 24.8730003,152.787954 23.221978,159.889393 C17.6193859,161.128081 13.5794035,166.021734 13.4241758,171.757525 C13.6112278,178.737214 19.3926952,184.259634 26.3736264,184.126755 L75.1648352,184.126755 C82.1461595,184.289447 87.9516083,178.790168 88.167033,171.810272 C88.0330082,166.053865 83.9805058,161.135304 78.356044,159.90258 Z" id="路径" fill="url(#linearGradient-1)" fill-rule="nonzero"></path>
                <path d="M360.61978,95.6696125 C358.093448,91.7668869 353.81982,89.3445081 349.173626,89.1817004 C346.481745,85.0500354 341.853531,82.5939434 336.923077,82.6806015 C332.967682,82.643246 329.164365,84.2026059 326.373626,87.0058762 C325.094183,86.5991051 323.760125,86.3901026 322.417582,86.386096 C316.206593,86.386096 311.063736,90.6849971 310.549451,96.1179641 C305.814821,97.2464448 302.405854,101.382443 302.202198,106.245437 C302.202198,112.087195 307.569231,116.874008 314.07033,116.874008 L359.643956,116.874008 C366.237363,116.874008 371.512088,112.087195 371.512088,106.245437 C371.630769,100.680602 366.751648,96.0784037 360.61978,95.6696125 Z" id="路径" fill="url(#linearGradient-2)" fill-rule="nonzero"></path>
                <path d="M445.186813,80.3729092 C440.72442,71.1497412 431.39317,65.2786802 421.147253,65.2476345 C415.442478,65.2580329 409.893136,67.1078135 405.323077,70.5223598 C399.884003,59.9136365 388.071591,54.1954881 376.37665,56.5099843 C364.681709,58.8244804 355.937731,68.6108569 354.949451,80.4915905 C342.426837,84.5099336 334.684605,97.0368969 336.690558,110.034554 C338.696511,123.032211 349.855175,132.642163 363.006593,132.698233 L437.432967,132.698233 C450.701287,132.723371 461.979709,123.011746 463.924646,109.886725 C465.869584,96.7617047 457.892242,84.1966549 445.186813,80.3729092 L445.186813,80.3729092 Z" id="路径" fill="url(#linearGradient-3)" fill-rule="nonzero"></path>
                <ellipse id="椭圆形" fill="url(#linearGradient-4)" fill-rule="nonzero" cx="240" cy="346.983898" rx="240" ry="75.8241758"></ellipse>
                <polygon id="路径" fill="#E4EFFF" fill-rule="nonzero" points="424.193407 283.54214 421.925275 313.265217 405.112088 308.399283"></polygon>
                <polygon id="路径" fill="#F3F8FF" fill-rule="nonzero" points="424.193407 283.54214 438.303297 309.731151 421.925275 313.265217"></polygon>
                <ellipse id="椭圆形" fill="url(#linearGradient-5)" fill-rule="nonzero" cx="253.371429" cy="302.597085" rx="92.7032967" ry="2.29450549"></ellipse>
                <path d="M169.547125,158.888342 L307.744927,158.888342 C320.999761,158.888342 331.744927,169.633508 331.744927,182.888342 L331.744927,258.857573 C331.744927,272.112407 320.999761,282.857573 307.744927,282.857573 L169.547125,282.857573 C156.292291,282.857573 145.547125,272.112407 145.547125,258.857573 L145.547125,182.888342 C145.547125,169.633508 156.292291,158.888342 169.547125,158.888342 Z" id="矩形" fill="url(#linearGradient-6)" fill-rule="nonzero" transform="translate(238.646026, 220.872958) rotate(-16.780000) translate(-238.646026, -220.872958) "></path>
                <path d="M165.687186,167.474861 L311.592241,167.474861 C316.408164,167.474861 320.312241,171.378938 320.312241,176.194861 L320.312241,265.554861 C320.312241,270.370784 316.408164,274.274861 311.592241,274.274861 L165.687186,274.274861 C160.871263,274.274861 156.967186,270.370784 156.967186,265.554861 L156.967186,176.194861 C156.967186,171.378938 160.871263,167.474861 165.687186,167.474861 Z" id="矩形" fill="url(#linearGradient-7)" fill-rule="nonzero" transform="translate(238.639714, 220.874861) rotate(-16.780000) translate(-238.639714, -220.874861) "></path>
                <path d="M179.472527,197.498184 L174.606593,195.441041 L203.617582,127.106975 C204.167829,125.814866 205.263363,124.83376 206.608105,124.428809 C207.952847,124.023858 209.407973,124.236868 210.58022,125.010272 L272.558242,165.889393 L269.657143,170.293788 L212.953846,132.882799 C211.777781,132.109977 210.319452,131.898769 208.972455,132.306178 C207.625458,132.713587 206.528638,133.69762 205.978022,134.992689 L179.472527,197.498184 Z" id="路径" fill="url(#linearGradient-8)" fill-rule="nonzero"></path>
                <circle id="椭圆形" fill="url(#linearGradient-9)" fill-rule="nonzero" cx="177.679121" cy="198.579503" r="6.88351648"></circle>
                <circle id="椭圆形" fill="url(#linearGradient-10)" fill-rule="nonzero" cx="271.727473" cy="170.214667" r="6.88351648"></circle>
                <path d="M198.263736,239.511371 C196.924651,238.084613 195.711348,236.544821 194.637363,234.909173 C194.426638,235.453077 193.988023,235.877232 193.437363,236.069612 C192.965271,236.205641 192.460084,236.168219 192.013187,235.964118 L192.725275,238.364118 L193.265934,240.104777 C194.046847,242.34782 194.491229,244.694158 194.584615,247.067415 C194.555838,248.061415 194.144923,249.006048 193.437363,249.704777 C192.709723,250.277891 191.869496,250.691264 190.971429,250.917964 C188.334066,251.72236 186.725275,251.498184 186.342857,250.219063 C186.161461,249.597814 186.068242,248.954161 186.065934,248.306975 L183.30989,249.124558 C182.773717,249.346544 182.171338,249.346544 181.635165,249.124558 C181.160547,248.789846 180.834349,248.284004 180.725275,247.713569 L178.83956,241.410272 C178.656604,240.889613 178.656604,240.32214 178.83956,239.801481 C178.437325,239.805669 178.038307,239.729452 177.665934,239.577305 C176.716484,239.194887 176.175824,238.746536 176.017582,238.258623 C175.992174,237.51308 176.169943,236.774656 176.531868,236.12236 C177.116018,234.809402 177.592317,233.45107 177.956044,232.060821 C177.956044,231.937744 177.982418,231.83225 178.035165,231.744338 C177.615067,231.577686 177.294396,231.227863 177.164835,230.794887 L177.032967,230.333349 L175.714286,230.715766 C175.392686,230.820458 175.040505,230.766652 174.764835,230.570711 C174.324304,230.25134 174.014967,229.782647 173.894505,229.25203 C173.551648,228.117964 173.802198,227.419063 174.659341,227.168514 L175.978022,226.772909 L175.674725,225.783898 C175.573339,225.422437 175.641228,225.034502 175.859341,224.728953 C176.212622,224.178592 176.757784,223.77912 177.389011,223.608074 C178.015377,223.406147 178.695469,223.453375 179.287912,223.739942 C179.611308,223.886766 179.856188,224.165258 179.96044,224.504777 L180.250549,225.506975 L183.046154,224.663019 L182.742857,223.674008 C182.648548,223.313925 182.710813,222.930756 182.914286,222.619063 C183.269958,222.073666 183.814812,221.679117 184.443956,221.511371 C185.067516,221.296804 185.750867,221.339513 186.342857,221.630052 C186.672333,221.772377 186.922927,222.051886 187.028571,222.394887 L187.331868,223.397085 L188.373626,223.080602 C188.643507,222.988264 188.939613,223.012144 189.191209,223.146536 C189.672413,223.437508 190.011422,223.914986 190.127473,224.465217 C190.375598,225.053803 190.311181,225.727702 189.956044,226.258623 C189.816043,226.432177 189.627985,226.560607 189.415385,226.627854 L188.373626,226.931151 L188.505495,227.392689 C188.610204,227.769154 188.562848,228.171684 188.373626,228.513569 C188.088859,229.127379 187.540642,229.578567 186.883516,229.739942 C186.241184,229.950957 185.540385,229.888982 184.945055,229.568514 C184.592877,229.372598 184.33224,229.045618 184.21978,228.658623 L184.087912,228.210272 L181.305495,229.041041 L181.437363,229.50258 C181.550629,229.929393 181.478821,230.384176 181.23956,230.755327 C181.748967,230.886155 182.168278,231.246958 182.373626,231.731151 C182.378564,231.779377 182.378564,231.82798 182.373626,231.876206 L187.120879,230.45203 C188.967033,229.911371 190.259341,230.636645 190.997802,232.667415 C191.68996,228.978993 191.783465,225.203158 191.274725,221.484997 C191.135716,220.935604 191.201335,220.354401 191.459341,219.849832 C191.672687,219.590162 191.956644,219.397804 192.276923,219.295986 C192.944787,219.0793 193.673211,219.155977 194.281319,219.506975 C194.617732,219.673657 194.867148,219.975833 194.967033,220.337744 C195.123637,220.883434 195.216563,221.445414 195.243956,222.01247 C195.243956,222.104777 195.243956,222.447634 195.336264,223.027854 C195.336264,223.186096 195.336264,223.436645 195.336264,223.779503 L200.610989,222.210272 C201.040473,222.08174 201.505478,222.164952 201.863736,222.434448 C202.857147,223.113042 203.185772,224.427542 202.628571,225.493788 C202.46484,225.83523 202.162228,226.089809 201.797802,226.192689 L201.56044,226.27181 C201.995922,228.261198 202.321688,230.273026 202.536264,232.298184 C202.723801,234.247173 202.692839,236.21102 202.443956,238.153129 C203.732003,239.212282 205.12884,240.131718 206.610989,240.895986 C207.145831,241.131887 207.646926,241.437866 208.101099,241.805876 C208.955452,242.508324 209.122334,243.751308 208.483516,244.654228 C208.265719,245.066121 207.897206,245.377939 207.454945,245.524558 C206.72967,245.748733 205.213187,245.049832 202.918681,243.441041 L201.441758,242.359722 C201.067786,243.514181 200.577349,244.627604 199.978022,245.682799 C198.936264,247.50258 198.052747,248.517964 197.340659,248.74214 C196.836609,248.841105 196.314662,248.710618 195.916484,248.386096 C195.406766,248.093732 195.022018,247.624528 194.835165,247.067415 C194.748252,246.68543 194.79479,246.285199 194.967033,245.933349 C195.240407,245.363113 195.567138,244.820032 195.942857,244.311371 C196.960962,242.841549 197.743969,241.222147 198.263736,239.511371 Z M181.279121,236.755327 C181.052765,237.489441 180.738391,238.193461 180.342857,238.85203 L184.087912,237.744338 C184.62437,237.523789 185.226179,237.523789 185.762637,237.744338 C186.235107,238.08693 186.560227,238.595813 186.672527,239.168514 L188.558242,245.47181 C188.719637,245.973434 188.719637,246.513044 188.558242,247.014667 C188.948722,246.909059 189.309676,246.715046 189.613187,246.447634 C189.955096,245.954753 190.047734,245.330669 189.863736,244.759722 C189.586813,243.335547 189.006593,241.172909 188.123077,238.245437 L187.687912,236.808074 L187.450549,235.937744 C187.252747,235.304777 186.87033,235.080602 186.303297,235.25203 L181.279121,236.755327 Z M183.916484,241.594887 L182.426374,242.030052 C182.341248,242.047105 182.268234,242.101385 182.22738,242.177988 C182.186525,242.254591 182.182124,242.345464 182.215385,242.425656 L183.01978,245.128953 C183.035532,245.21445 183.090518,245.287588 183.168276,245.326467 C183.246034,245.365346 183.337536,245.365452 183.415385,245.326755 L184.905495,244.878404 C184.988934,244.868858 185.062838,244.820144 185.104506,244.747226 C185.146173,244.674308 185.150621,244.585905 185.116484,244.509173 L184.312088,241.805876 C184.314584,241.719435 184.276555,241.636791 184.209281,241.582454 C184.142007,241.528118 184.053212,241.508327 183.969231,241.528953 L183.916484,241.594887 Z M198.87033,234.474008 C198.802983,232.089314 198.524978,229.71524 198.03956,227.379503 L195.468132,228.144338 C195.468132,228.30258 195.468132,228.526755 195.468132,228.816865 C195.468132,229.106975 195.468132,229.093788 195.468132,229.225656 C196.473674,231.046192 197.629329,232.779675 198.923077,234.408074 L198.87033,234.474008 Z" id="形状" fill="url(#linearGradient-11)" fill-rule="nonzero"></path>
                <path d="M224.637363,235.674008 L225.665934,239.115766 C225.777749,239.456758 225.729272,239.830032 225.534066,240.131151 C225.220128,240.590416 224.752476,240.922449 224.215385,241.067415 C223.633402,241.283189 222.987591,241.244919 222.435165,240.96192 C222.167624,240.799386 221.96663,240.546975 221.868132,240.249832 L220.8,236.663019 C220.449292,237.400068 220.043757,238.109753 219.586813,238.786096 C218.123077,241.014667 216.949451,242.254228 216.184615,242.491591 C215.634799,242.605618 215.062899,242.465067 214.628571,242.109173 C214.121544,241.810201 213.734526,241.343914 213.534066,240.790492 L213.428571,237.61247 L210.685714,228.3817 C210.654972,228.164658 210.52418,227.974613 210.332435,227.868375 C210.14069,227.762138 209.910209,227.752018 209.70989,227.841041 L207.89011,228.3817 C207.478998,228.500599 207.036009,228.422711 206.69011,228.170711 C206.226721,227.858209 205.89005,227.390611 205.740659,226.85203 C205.534271,226.263563 205.591952,225.614647 205.898901,225.07181 C206.068145,224.756114 206.358534,224.52285 206.703297,224.425656 L210.210989,223.383898 C212.07033,222.830052 213.323077,223.647634 213.982418,225.863019 L216.896703,235.647634 C217.147253,235.331151 217.463736,234.895986 217.846154,234.328953 C218.022759,234.011384 218.295009,233.757591 218.624176,233.603678 C219.071275,233.496418 219.542403,233.562376 219.942857,233.788294 L218.72967,229.739942 C218.560104,229.251649 218.466703,228.740167 218.452747,228.223459 C218.484609,227.400326 218.899241,226.639355 219.573626,226.166316 C220.035653,225.881555 220.538015,225.668162 221.063736,225.533349 L230.492308,222.724558 C230.998253,222.551141 231.527033,222.453383 232.061538,222.434448 C232.881044,222.469686 233.64126,222.871583 234.131868,223.528953 C234.405116,223.987483 234.605315,224.485757 234.725275,225.005876 L237.178022,233.221261 C237.632491,234.098675 237.633128,235.142022 237.179729,236.019991 C236.726331,236.897959 235.875234,237.501456 234.896703,237.638843 C233.475056,238.176582 231.957569,238.414531 230.43956,238.337744 C229.991209,238.245437 229.674725,237.889393 229.476923,237.269612 C229.2,236.333349 229.410989,235.753129 230.096703,235.555327 L230.096703,235.555327 L231.085714,235.383898 L232.734066,235.041041 C233.208791,234.895986 233.340659,234.500382 233.142857,233.827854 L232.958242,233.194887 L224.637363,235.674008 Z M206.624176,215.458623 L206.624176,215.458623 C207.47872,215.422563 208.325595,215.633137 209.063736,216.065217 C210.380055,216.593071 211.64662,217.237387 212.848352,217.990492 C213.286776,218.264968 213.620945,218.678037 213.797802,219.164118 C213.965206,219.788612 213.859765,220.45481 213.507692,220.997085 C213.301062,221.421359 212.936618,221.747938 212.492308,221.906975 C211.554896,221.905691 210.638261,221.630701 209.854945,221.115766 L209.538462,220.957525 L208.21978,220.298184 L207.903297,220.153129 C207.098335,219.811836 206.340497,219.368656 205.648352,218.834448 C205.435114,218.644002 205.27207,218.403965 205.173626,218.135547 C205.077659,217.649247 205.157082,217.144673 205.397802,216.711371 C205.58732,216.124455 206.041425,215.660585 206.624176,215.458623 L206.624176,215.458623 Z M220.140659,213.137744 L219.92967,212.438843 C219.840985,212.094328 219.9191,211.728162 220.140659,211.449832 C220.481031,210.979424 220.975719,210.64341 221.538462,210.500382 C222.123174,210.285956 222.771944,210.334013 223.318681,210.63225 C223.590206,210.774363 223.79072,211.022618 223.872527,211.317964 L224.083516,212.003678 L230.004396,210.236645 C230.40338,210.082546 230.851186,210.121485 231.217582,210.34214 C231.527017,210.534045 231.752962,210.835305 231.850549,211.186096 C231.984652,211.59345 231.941593,212.038389 231.731868,212.41247 C231.522449,212.722811 231.201147,212.940163 230.835165,213.019063 L224.914286,214.786096 L225.27033,215.986096 L230.268132,214.495986 C230.663406,214.327209 231.116131,214.361656 231.481319,214.588294 C231.786512,214.784794 232.0111,215.084245 232.114286,215.43225 C232.236498,215.842191 232.188987,216.284036 231.982418,216.658623 C231.78706,216.976774 231.465997,217.197206 231.098901,217.265217 L226.101099,218.755327 L226.457143,219.968514 L233.12967,217.977305 C233.527062,217.81246 233.979883,217.851836 234.342857,218.082799 C234.651412,218.275664 234.877069,218.576541 234.975824,218.926755 C235.100462,219.332089 235.05277,219.770854 234.843956,220.139942 C234.651344,220.463108 234.329871,220.688619 233.96044,220.759722 L216.606593,225.94214 C216.218512,226.089514 215.783688,226.045543 215.432967,225.823459 C215.12023,225.620171 214.890922,225.311307 214.786813,224.953129 C214.652623,224.559006 214.695917,224.126062 214.905495,223.766316 C215.097892,223.451193 215.413588,223.231163 215.775824,223.159722 L222.474725,221.155327 L222.118681,219.955327 L216.90989,221.498184 C216.523852,221.649485 216.089132,221.610409 215.736264,221.392689 C215.423527,221.189402 215.194219,220.880538 215.09011,220.52236 C214.961117,220.121838 215.009087,219.685312 215.221978,219.32236 C215.414057,219.015221 215.724028,218.800626 216.079121,218.728953 L221.353846,217.172909 L220.997802,215.972909 L215.208791,217.700382 C214.822753,217.851683 214.388033,217.812607 214.035165,217.594887 C213.722428,217.3916 213.49312,217.082736 213.389011,216.724558 C213.260018,216.324036 213.307988,215.887509 213.520879,215.524558 C213.712958,215.217419 214.022929,215.002824 214.378022,214.931151 L220.140659,213.137744 Z M222.778022,229.515766 L231.112088,227.023459 L230.953846,226.482799 C230.927052,226.266574 230.799095,226.07595 230.609127,225.969256 C230.419159,225.862562 230.189792,225.852496 229.991209,225.94214 L223.120879,227.999283 C222.909448,228.033355 222.726077,228.164252 222.625162,228.353144 C222.524247,228.542036 222.517378,228.767229 222.606593,228.96192 L222.778022,229.515766 Z M223.49011,231.928953 L223.885714,233.247634 L232.232967,230.755327 L231.837363,229.436645 L223.49011,231.928953 Z" id="形状" fill="url(#linearGradient-12)" fill-rule="nonzero"></path>
                <path d="M245.406593,227.643239 C245.966959,227.570327 246.528914,227.76579 246.923077,228.170711 C247.349083,228.447432 247.680359,228.847723 247.872527,229.317964 C247.949231,230.127456 247.681124,230.931777 247.134066,231.533349 C246.54886,232.366491 245.919384,233.167642 245.248352,233.933349 C244.776311,234.599754 244.146576,235.13888 243.415385,235.50258 C243.204396,235.50258 242.901099,235.436645 242.505495,235.120162 C241.916946,234.754635 241.456228,234.215595 241.186813,233.577305 C241.064195,233.256812 241.093285,232.898033 241.265934,232.601481 C241.265934,232.601481 241.503297,232.298184 241.872527,231.823459 L243.01978,230.504777 C243.414712,230.026298 243.78022,229.524275 244.114286,229.001481 C244.654945,228.131151 245.076923,227.643239 245.406593,227.643239 Z M248.821978,209.419063 L252.435165,221.524558 L253.068132,221.339942 C253.387745,221.253178 253.729552,221.321539 253.991209,221.524558 C254.852373,222.18068 255.156783,223.338524 254.72967,224.333349 C254.594922,224.576469 254.373693,224.760042 254.10989,224.847634 L241.542857,228.592689 C241.20443,228.678695 240.845256,228.605889 240.567033,228.394887 C240.158718,228.109731 239.864436,227.68933 239.736264,227.208074 C239.55994,226.699611 239.602931,226.140731 239.854945,225.665217 C239.978439,225.389029 240.213263,225.178167 240.501099,225.084997 L241.397802,224.821261 L237.784615,212.715766 L236.887912,212.979503 C236.555846,213.061378 236.204598,212.983322 235.938462,212.768514 C235.56192,212.485899 235.288582,212.087475 235.16044,211.634448 C234.996008,211.140219 235.029084,210.601549 235.252747,210.131151 C235.367971,209.864469 235.594618,209.661934 235.872527,209.577305 L236.769231,209.313569 L236.320879,207.823459 C236.196481,207.42305 236.269914,206.987347 236.518681,206.649832 C236.796194,206.222933 237.224854,205.916748 237.718681,205.792689 C238.240162,205.617201 238.811966,205.674862 239.287912,205.950931 C239.600851,206.117143 239.833731,206.402302 239.934066,206.74214 L240.382418,208.23225 L244.193407,207.098184 L243.745055,205.594887 C243.625702,205.204508 243.693875,204.780863 243.92967,204.447634 C244.52736,203.519022 245.737141,203.203677 246.712088,203.72236 C247.027784,203.891604 247.261048,204.181993 247.358242,204.526755 L247.806593,206.016865 L248.43956,205.83225 C248.80187,205.730126 249.190554,205.787709 249.507692,205.990492 C249.946399,206.230014 250.266267,206.64059 250.391209,207.124558 C250.566916,207.635841 250.498897,208.199428 250.206593,208.654228 C250.033606,208.936862 249.760549,209.144009 249.441758,209.234448 L248.821978,209.419063 Z M245.274725,210.500382 L241.450549,211.647634 L242.10989,213.823459 L245.920879,212.676206 L245.274725,210.500382 Z M243.573626,218.728953 L247.384615,217.594887 L246.764835,215.511371 L242.953846,216.645437 L243.573626,218.728953 Z M245.010989,223.687195 L248.821978,222.553129 L248.202198,220.469612 L244.378022,221.603678 L245.010989,223.687195 Z M263.050549,219.520162 L258.764835,220.838843 C259.375706,223.428925 259.597918,226.095465 259.424176,228.750931 C259.292308,230.148733 258.857143,230.953129 258.105495,231.164118 C257.330099,231.429273 256.477573,231.342576 255.771429,230.926755 C255.552003,231.449529 255.127789,231.859443 254.597802,232.060821 C254.1111,232.118065 253.619209,232.011334 253.2,231.757525 C252.791209,231.559722 251.736264,230.979503 250.048352,230.016865 C249.443116,229.753425 248.948769,229.28706 248.650549,228.698184 C248.560822,228.202933 248.654579,227.691956 248.914286,227.260821 C249.093476,226.763452 249.470593,226.362468 249.956044,226.153129 C250.496703,225.994887 251.459341,226.311371 252.87033,227.10258 C253.643788,227.525473 254.384339,228.005949 255.085714,228.539942 C255.262211,227.401591 255.337231,226.249812 255.30989,225.098184 C255.10579,222.076154 254.511857,219.09319 253.542857,216.223459 L250.694505,206.544338 C250.247966,205.481713 250.436575,204.258302 251.182418,203.379503 C251.683532,202.936913 252.285854,202.62443 252.936264,202.469612 L258.131868,200.913569 C260.228571,200.293788 261.6,201.098184 262.272527,203.313569 L268.285714,223.476206 C268.772159,224.644728 268.633154,225.980168 267.916484,227.023459 C267.22724,227.697199 266.356572,228.155445 265.410989,228.34214 C264.429944,228.666549 263.385702,228.752439 262.364835,228.592689 C261.863736,228.513569 261.507692,228.131151 261.30989,227.43225 C261.034308,226.755949 261.034308,225.99866 261.30989,225.32236 C261.413643,225.12302 261.594873,224.975174 261.810989,224.913569 C262.099935,224.835945 262.395908,224.787352 262.694505,224.768514 C262.895653,224.765664 263.095404,224.734592 263.287912,224.676206 C263.657739,224.600501 263.96763,224.349637 264.118681,224.003678 C264.196646,223.559266 264.146329,223.101837 263.973626,222.684997 L263.050549,219.520162 Z M261.942857,215.814667 L260.861538,212.188294 L256.786813,213.401481 L257.287912,215.063019 L257.841758,217.041041 L261.942857,215.814667 Z M259.78022,208.482799 L258.962637,205.766316 C258.778022,205.146536 258.461538,204.909173 258,205.054228 L255.362637,205.845437 C255.164058,205.870115 254.988843,205.987243 254.890122,206.161304 C254.791401,206.335364 254.780802,206.545856 254.861538,206.728953 L255.745055,209.695986 L259.78022,208.482799 Z" id="形状" fill="url(#linearGradient-13)" fill-rule="nonzero"></path>
                <path d="M275.789011,204.830052 C276.008758,204.367296 276.425348,204.028211 276.923077,203.906975 L283.134066,202.060821 L282.448352,199.766316 L277.371429,201.269612 C276.92206,201.39366 276.440978,201.316687 276.052747,201.058623 C275.190738,200.47828 274.901375,199.343522 275.38022,198.421261 C275.590831,198.065665 275.931201,197.80566 276.32967,197.695986 L281.367033,196.192689 L280.879121,194.676206 C280.751441,194.227045 280.82866,193.744424 281.09011,193.357525 C281.393997,192.883195 281.864419,192.539787 282.408791,192.394887 C282.990075,192.203652 283.625896,192.275904 284.149451,192.592689 C284.512342,192.795013 284.782003,193.130907 284.901099,193.528953 L285.336264,194.979503 L290.518681,193.436645 C290.966916,193.295043 291.455687,193.373246 291.837363,193.647634 C292.737468,194.199687 293.040304,195.364438 292.523077,196.284997 C292.31445,196.647822 291.974641,196.916838 291.573626,197.036645 L286.364835,198.63225 L287.050549,200.926755 L293.643956,198.975107 C294.091064,198.84172 294.574342,198.914211 294.962637,199.172909 C295.392419,199.435047 295.707824,199.84931 295.846154,200.333349 C296.018236,200.86689 295.950907,201.448803 295.661538,201.928953 C295.454435,202.295873 295.114689,202.569557 294.712088,202.693788 L291.098901,203.76192 C291.343258,203.784613 291.583077,203.842347 291.810989,203.933349 C292.243568,204.203152 292.540872,204.644313 292.628571,205.146536 L292.8,205.700382 L294.962637,205.054228 C295.40916,204.913006 295.895882,204.986015 296.281319,205.25203 C296.707013,205.515657 297.017761,205.929987 297.151648,206.41247 C297.325282,206.958993 297.258151,207.553583 296.967033,208.047634 C296.785664,208.39334 296.471478,208.650402 296.096703,208.759722 L293.934066,209.405876 L295.740659,215.47181 C296.125583,216.423368 296.125583,217.487285 295.740659,218.438843 C295.031519,219.508185 293.934498,220.260022 292.681319,220.535547 C291.384627,221.0152 289.991032,221.173563 288.61978,220.997085 C287.845788,220.82881 287.245131,220.217797 287.09011,219.441041 C286.872861,218.875132 286.901538,218.244248 287.169231,217.700382 C287.283825,217.470033 287.489355,217.297962 287.736264,217.225656 C288.118446,217.121042 288.513737,217.072186 288.90989,217.080602 C289.394163,217.09819 289.878405,217.044879 290.347253,216.92236 C290.750005,216.820246 291.090383,216.551779 291.283516,216.183898 C291.404822,215.95737 291.433198,215.692522 291.362637,215.445437 L289.925275,210.500382 L283.516484,212.45203 C284.172171,212.762569 284.795067,213.138073 285.375824,213.572909 C286.694505,214.482799 287.393407,215.1817 287.538462,215.682799 C287.658086,216.173401 287.562096,216.691743 287.274725,217.106975 C286.997094,217.643204 286.525531,218.053464 285.956044,218.254228 C285.382218,218.34604 284.796552,218.187622 284.347253,217.819063 C283.499255,217.279672 282.684586,216.689588 281.907692,216.05203 C281.444849,215.75589 281.074694,215.335467 280.83956,214.838843 C280.697046,214.21024 280.897686,213.553146 281.367033,213.111371 L280.391209,213.401481 C279.904784,213.551484 279.376642,213.473958 278.953846,213.190492 C278.529209,212.928703 278.214968,212.520659 278.07033,212.043239 C277.903321,211.528192 277.965764,210.966206 278.241758,210.500382 C278.463958,210.106098 278.834118,209.816614 279.27033,209.695986 L288.87033,206.834448 L288.698901,206.254228 C288.453881,205.573768 288.635064,204.812798 289.16044,204.315766 L278.043956,207.625656 C277.43141,207.818959 276.762366,207.638831 276.32967,207.164118 C276.120022,206.978127 275.953508,206.748607 275.841758,206.491591 C275.623062,207.428315 275.354549,208.352706 275.037363,209.260821 L279.138462,223.014667 C279.268068,223.465452 279.185573,223.950716 278.914286,224.333349 C278.607992,224.802713 278.137883,225.141191 277.595604,225.282799 C277.036214,225.473894 276.420357,225.401155 275.920879,225.084997 C275.582099,224.89859 275.330842,224.585704 275.221978,224.214667 L272.413187,214.799283 C272.147207,215.2489 271.738839,215.596941 271.252747,215.788294 C270.712429,215.932094 270.136919,215.851237 269.657143,215.564118 C269.107987,215.299482 268.689371,214.823782 268.496703,214.245437 C268.407146,213.872295 268.453916,213.479432 268.628571,213.137744 C268.817902,212.730964 269.029203,212.334775 269.261538,211.950931 C270.420711,209.912988 271.307404,207.731724 271.898901,205.463019 C272.162637,204.447634 272.545055,203.867415 273.01978,203.72236 C273.803811,203.49548 274.649173,203.662586 275.287912,204.170711 C275.511437,204.341192 275.684603,204.569042 275.789011,204.830052 L275.789011,204.830052 Z M270.32967,195.994887 C270.942353,195.811156 271.603257,195.882477 272.162637,196.192689 C272.650061,196.350231 273.026272,196.741293 273.164835,197.234448 C273.140872,198.483359 272.872056,199.71543 272.373626,200.860821 C271.2,204.289393 270.03956,206.135547 268.892308,206.517964 C268.373506,206.629516 267.831986,206.503806 267.415385,206.175107 C266.917287,205.87918 266.546233,205.409491 266.373626,204.856426 C266.275131,204.574676 266.275131,204.267846 266.373626,203.986096 C266.542227,203.636633 266.731576,203.297567 266.940659,202.970711 C267.832046,201.296754 268.531004,199.527238 269.024176,197.695986 C269.165802,196.95439 269.649951,196.323528 270.32967,195.994887 L270.32967,195.994887 Z" id="形状" fill="url(#linearGradient-14)" fill-rule="nonzero"></path>
                <ellipse id="椭圆形" stroke="#78B3F6" stroke-width="8" fill="#FFFFFF" fill-rule="nonzero" opacity="0.8" cx="288.817582" cy="261.770711" rx="35.1956044" ry="35.4461538"></ellipse>
                <path d="M316.984615,282.197085 C318.197802,280.403678 331.041758,282.579503 339.217582,287.168514 C347.393407,291.757525 349.661538,295.766316 347.591209,299.524558 C345.520879,303.282799 341.063736,303.203678 332.887912,298.614667 C324.712088,294.025656 315.784615,283.990492 316.984615,282.197085 Z" id="路径" fill="#78B3F6" fill-rule="nonzero"></path>
                <ellipse id="椭圆形" fill="#DBEBFF" fill-rule="nonzero" transform="translate(269.567533, 243.483676) rotate(-47.540000) translate(-269.567533, -243.483676) " cx="269.567533" cy="243.483676" rx="5.28791209" ry="2.10989011"></ellipse>
                <path d="M266.07033,265.884997 C265.769734,264.573595 266.211643,263.202904 267.221607,262.314025 C268.231571,261.425146 269.647292,261.160921 270.90989,261.625656 L270.342857,262.944338 C269.966855,262.770717 269.54099,262.737958 269.142857,262.85203 C268.637135,262.996378 268.216982,263.349562 267.987846,263.822941 C267.75871,264.296321 267.742345,264.844956 267.942857,265.331151 C268.033436,265.840329 268.33789,266.286273 268.779122,266.556055 C269.220353,266.825836 269.756048,266.893583 270.250549,266.74214 C270.739529,266.578924 271.164238,266.265009 271.463736,265.845437 L272.505495,266.70258 C272.002463,267.400961 271.277128,267.907765 270.448352,268.139942 C269.570476,268.478183 268.589913,268.42525 267.75355,267.994473 C266.917187,267.563696 266.30471,266.796116 266.07033,265.884997 L266.07033,265.884997 Z" id="路径" fill="url(#linearGradient-15)" fill-rule="nonzero"></path>
                <path d="M272.281319,264.091591 C271.845544,262.738499 272.27285,261.256278 273.362043,260.342815 C274.451237,259.429352 275.985224,259.266716 277.241745,259.931481 C278.498266,260.596245 279.226875,261.955913 279.084515,263.3703 C278.942155,264.784687 277.957201,265.971883 276.593407,266.372909 C275.719302,266.667404 274.762602,266.589909 273.947292,266.158568 C273.131982,265.727227 272.529651,264.979913 272.281319,264.091591 L272.281319,264.091591 Z M277.107692,262.667415 C276.764835,261.480602 276,260.874008 275.050549,261.150931 C274.101099,261.427854 273.731868,262.364118 274.140659,263.537744 C274.549451,264.711371 275.248352,265.317964 276.197802,265.027854 C277.147253,264.737744 277.463736,263.841041 277.107692,262.667415 L277.107692,262.667415 Z" id="形状" fill="url(#linearGradient-16)" fill-rule="nonzero"></path>
                <path d="M279.56044,258.513569 L281.050549,258.078404 L281.41978,258.869612 L281.41978,258.869612 C281.792775,258.103272 282.457952,257.518867 283.265934,257.247634 C284.053389,256.927529 284.957117,257.138927 285.520879,257.775107 C285.884407,256.958105 286.565426,256.32471 287.406593,256.021261 C288.896703,255.572909 289.859341,256.311371 290.320879,257.880602 L291.481319,261.836645 L289.648352,262.377305 L288.553846,258.684997 C288.263736,257.72236 287.854945,257.47181 287.235165,257.669612 C286.731502,257.881468 286.323222,258.270977 286.087912,258.764118 L287.406593,263.063019 L285.573626,263.603678 L284.479121,259.911371 C284.189011,258.948733 283.78022,258.698184 283.16044,258.895986 C282.655866,259.113152 282.247917,259.507033 282.013187,260.003678 L283.331868,264.289393 L281.512088,264.830052 L279.56044,258.513569 Z" id="路径" fill="url(#linearGradient-17)" fill-rule="nonzero"></path>
                <path d="M290.887912,253.106975 C290.826157,252.834813 290.880683,252.549227 291.038365,252.318961 C291.196047,252.088695 291.442602,251.934607 291.718681,251.893788 C292.058831,251.708307 292.477558,251.748106 292.776672,251.994349 C293.075786,252.240592 293.195278,252.643877 293.07859,253.013321 C292.961901,253.382765 292.632443,253.644249 292.246154,253.674008 C291.991582,253.786239 291.702109,253.789097 291.445371,253.681915 C291.188632,253.574733 290.987118,253.3669 290.887912,253.106975 L290.887912,253.106975 Z M291.626374,254.953129 L293.446154,254.41247 L295.292308,260.663019 L293.472527,261.203678 L291.626374,254.953129 Z" id="形状" fill="url(#linearGradient-18)" fill-rule="nonzero"></path>
                <path d="M295.384615,253.83225 L296.887912,253.383898 L297.257143,254.175107 L297.257143,254.175107 C297.68265,253.393924 298.390057,252.804418 299.235165,252.526755 C300.738462,252.078404 301.661538,252.816865 302.136264,254.386096 L303.283516,258.34214 L301.450549,258.882799 L300.356044,255.190492 C300.079121,254.227854 299.67033,253.977305 299.037363,254.175107 C298.487838,254.375247 298.038282,254.782213 297.784615,255.309173 L299.103297,259.608074 L297.283516,260.148733 L295.384615,253.83225 Z" id="路径" fill="url(#linearGradient-19)" fill-rule="nonzero"></path>
                <path d="M305.12967,258.948733 C305.014807,258.345968 305.255773,257.730736 305.749451,257.366316 L305.749451,257.366316 C305.292903,257.290186 304.922266,256.955584 304.8,256.509173 C304.704446,256.002312 304.861918,255.480688 305.221978,255.111371 L305.221978,255.111371 C304.571296,254.92182 304.051277,254.431236 303.824176,253.792689 C303.375824,252.315766 304.483516,251.155327 305.96044,250.693788 C306.316066,250.590056 306.6845,250.536789 307.054945,250.535547 L309.573626,249.783898 L309.92967,250.997085 L308.742857,251.353129 C309.038965,251.55338 309.254024,251.852594 309.349451,252.197085 C309.758242,253.608074 308.769231,254.676206 307.279121,255.124558 C306.973652,255.205335 306.658819,255.245243 306.342857,255.243239 C306.181289,255.405832 306.12517,255.645613 306.197802,255.863019 C306.29011,256.192689 306.61978,256.298184 307.450549,256.047634 L308.637363,255.704777 C310.312088,255.203678 311.367033,255.401481 311.683516,256.495986 C312,257.590492 310.892308,259.133349 308.558242,259.83225 C306.883516,260.175107 305.459341,260.056426 305.12967,258.948733 Z M309.995604,257.14214 C309.863736,256.693788 309.415385,256.706975 308.676923,256.931151 L307.81978,257.1817 C307.4999,257.289561 307.167529,257.356036 306.830769,257.379503 C306.605351,257.60852 306.511072,257.936016 306.58022,258.249832 C306.738462,258.764118 307.476923,258.882799 308.492308,258.579503 C309.507692,258.276206 310.140659,257.643239 309.995604,257.14214 L309.995604,257.14214 Z M307.701099,252.487195 C307.620855,252.056502 307.30233,251.709111 306.880197,251.591898 C306.458064,251.474685 306.00603,251.608117 305.715215,251.935778 C305.424401,252.263439 305.345584,252.728119 305.512088,253.133349 C305.592332,253.564041 305.910857,253.911433 306.33299,254.028646 C306.755123,254.145859 307.207157,254.012427 307.497971,253.684766 C307.788786,253.357104 307.867603,252.892425 307.701099,252.487195 L307.701099,252.487195 Z" id="形状" fill="url(#linearGradient-20)" fill-rule="nonzero"></path>
                <path d="M270.527473,281.788294 L271.054945,280.469612 C271.71488,280.726306 272.438105,280.772371 273.125275,280.601481 C273.824176,280.390492 274.061538,280.034448 273.942857,279.638843 C273.824176,279.243239 273.01978,279.177305 272.202198,279.137744 C271.384615,279.098184 270.065934,278.926755 269.762637,277.819063 C269.459341,276.711371 270.210989,275.590492 271.793407,275.1817 C272.651629,274.91061 273.572547,274.91061 274.430769,275.1817 L273.903297,276.421261 C273.370505,276.22813 272.792664,276.196028 272.241758,276.328953 C271.621978,276.513569 271.384615,276.843239 271.49011,277.21247 C271.595604,277.5817 272.36044,277.621261 273.178022,277.660821 C274.193407,277.660821 275.340659,277.805876 275.683516,278.979503 C276.026374,280.153129 275.301099,281.234448 273.481319,281.775107 C272.521856,282.085473 271.489668,282.090081 270.527473,281.788294 L270.527473,281.788294 Z" id="路径" fill="url(#linearGradient-21)" fill-rule="nonzero"></path>
                <path d="M276.224176,277.50258 C275.788401,276.149488 276.215707,274.667267 277.304901,273.753804 C278.394094,272.840342 279.928081,272.677705 281.184602,273.34247 C282.441123,274.007234 283.169732,275.366902 283.027372,276.781289 C282.885012,278.195676 281.900058,279.382872 280.536264,279.783898 C279.662159,280.078393 278.705459,280.000898 277.890149,279.569557 C277.07484,279.138216 276.472508,278.390902 276.224176,277.50258 L276.224176,277.50258 Z M281.063736,276.065217 C280.707692,274.891591 279.942857,274.27181 278.993407,274.56192 C278.043956,274.85203 277.740659,275.76192 278.096703,276.948733 C278.452747,278.135547 279.204396,278.715766 280.140659,278.438843 C281.076923,278.16192 281.406593,277.238843 281.063736,276.065217 Z" id="形状" fill="url(#linearGradient-16)" fill-rule="nonzero"></path>
                <path d="M284.030769,275.194887 C283.584411,273.837877 284.005586,272.345741 285.095605,271.422394 C286.185625,270.499046 287.726706,270.328969 288.991845,270.992396 C290.256985,271.655822 290.993411,273.020203 290.853717,274.441891 C290.714022,275.863579 289.726117,277.058527 288.356044,277.463019 C287.48215,277.766238 286.521766,277.694561 285.702564,277.264979 C284.883361,276.835398 284.278283,276.086162 284.030769,275.194887 L284.030769,275.194887 Z M288.87033,273.757525 C288.514286,272.570711 287.749451,271.964118 286.813187,272.241041 C285.876923,272.517964 285.494505,273.454228 285.903297,274.641041 C286.312088,275.827854 287.010989,276.408074 287.96044,276.131151 C288.90989,275.854228 289.213187,274.931151 288.87033,273.797085 L288.87033,273.757525 Z" id="形状" fill="url(#linearGradient-22)" fill-rule="nonzero"></path>
                <path d="M291.349451,269.603678 L292.83956,269.168514 L293.221978,269.959722 L293.221978,269.959722 C293.649047,269.176948 294.355259,268.58373 295.2,268.298184 C296.716484,267.849832 297.63956,268.601481 298.101099,270.170711 L299.261538,274.060821 L297.428571,274.614667 L296.334066,270.909173 C296.043956,269.959722 295.648352,269.695986 295.015385,269.906975 C294.431517,270.074682 293.949919,270.488856 293.696703,271.041041 L295.015385,275.326755 L293.195604,275.867415 L291.349451,269.603678 Z" id="路径" fill="url(#linearGradient-23)" fill-rule="nonzero"></path>
                <path d="M304.773626,268.337744 C304.146384,267.947652 303.378421,267.855883 302.676923,268.087195 C301.848258,268.406957 301.247754,269.13757 301.094505,270.01247 L299.525275,269.748733 C299.822655,268.296435 300.890037,267.122821 302.307692,266.689393 C303.41301,266.347893 304.610182,266.476672 305.617582,267.045437 C306.242918,267.440927 307.013369,267.532994 307.714286,267.295986 C308.542951,266.976224 309.143455,266.245611 309.296703,265.370711 L310.865934,265.634448 C310.568554,267.086746 309.501172,268.26036 308.083516,268.693788 C306.979499,269.04837 305.776975,268.919015 304.773626,268.337744 Z" id="路径" fill="url(#linearGradient-24)" fill-rule="nonzero"></path>
                <g id="man_laptop" transform="translate(304.000000, 132.000000) scale(-1, 1) translate(-304.000000, -132.000000) translate(278.000000, 92.000000)" fill-rule="nonzero">
                    <polygon id="Path" fill="#FECCA9" points="35.1716559 67.5600793 37.4243195 70.6946469 33.8802061 73.9843651 31.5211507 70.3485822"></polygon>
                    <polygon id="Path" fill="#FECCA9" points="13.24229 68.9217228 9.91622728 72.914089 6.43900386 70.1934316 10.1121569 66.6055088"></polygon>
                    <path d="M26.6271247,52.5809484 L13.4018778,69.6217412 L9.75874624,66.5029516 C9.75874624,66.5029516 18.8873794,48.1215527 21.3875884,45.5255416 C23.8877973,42.9295306 26.9268127,48.1867685 26.6271247,52.5809484 Z" id="Path" fill="#143E81"></path>
                    <path d="M50.7285702,47.1317446 C49.6330499,43.6621569 37.6228825,42.2179417 37.6228825,42.2179417 C35.5561414,42.0906656 19.5546987,41.7461788 19.2881924,48.1373307 C19.0580278,53.6585875 31.6407099,70.7377735 31.6407099,70.7377735 L35.2706741,68.5277981 C35.2706741,68.5277981 32.2685273,57.6514797 28.8060512,51.9345753 C31.5448519,52.5299328 36.5110348,53.2857002 44.0559038,53.2725518 C52.8385001,53.2578257 50.7285702,47.1317446 50.7285702,47.1317446 Z" id="Path" fill="#3E65A3"></path>
                    <path d="M50.9508056,45.4409577 C48.9984164,35.6347906 52.9991413,34.9321758 51.4659396,25.6788901 C49.9316846,16.4245526 43.3411822,16.357759 43.3411822,16.357759 C37.4164191,18.6886992 35.8015801,23.5562198 35.5403406,25.8671746 C35.2975354,28.0192971 36.0364849,31.4815217 36.0364849,33.7104307 C36.0364849,40.3477198 34.8219322,42.2189936 38.3728925,43.5480292 C38.6346587,43.645853 43.8852502,44.7717377 46.4655217,46.7835762 C48.3376306,48.24326 52.2016724,48.9682121 50.9508056,45.4409577 Z" id="Path" fill="#53A4FC"></path>
                    <path d="M47.5526149,36.4142582 C45.8592987,38.1387963 39.4041563,41.2518006 36.0796737,42.2184676 C36.0564992,42.1784966 36.0354315,42.1364219 36.0148905,42.0948731 C35.4597567,40.961485 35.4639702,39.2479915 35.6641134,37.2373452 C35.7120424,36.7582192 35.8553027,35.4007831 36.0370116,33.7099048 C42.2277544,31.7018881 46.5840275,25.0125315 49.4192128,25.1634746 C49.4186861,25.1634746 50.8186346,33.0856209 47.5526149,36.4142582 Z" id="Path" fill="#096DD9"></path>
                    <path d="M30.7985287,38.3844076 C30.7985287,38.3844076 27.6984171,37.8353323 25.9482181,39.0334104 C24.1980192,40.2320143 23.1477945,42.2132083 24.1980192,42.29578 C25.2482439,42.3788776 25.5979677,42.5624286 26.7982997,42.29578 C27.9986317,42.0291313 27.0985144,41.1303099 29.1984371,41.0803461 C31.2983598,41.0303824 31.8487534,39.6824131 31.8487534,39.6824131 C31.8487534,39.6824131 31.7950308,38.4906463 30.7985287,38.3844076 Z" id="Path" fill="#FECCA9"></path>
                    <path d="M42.9519565,24.7280012 C42.8339774,27.2603741 43.5634464,29.6281297 39.608513,32.7768976 C35.93536,35.7010915 30.0922341,37.7285677 30.0922341,37.7285677 L32.0346758,41.0819239 C32.0346758,41.0819239 44.952861,37.1116469 46.6862058,35.114149 C48.4195506,33.116651 49.4123658,27.5349118 49.4197942,25.6604824 C49.4408072,20.1528999 43.3659367,15.8265655 42.9519565,24.7280012 Z" id="Path" fill="url(#linearGradient-25)"></path>
                    <path d="M30.4514384,8.42561995 C30.2765765,10.1364838 31.1024302,10.6398028 31.1851209,11.2882796 C31.2678117,11.9367564 31.0408072,13.4288316 31.2936196,13.9684401 C31.5469586,14.5080485 32.405994,14.1982733 32.9600744,14.799942 C33.5141549,15.4016107 33.5410162,16.5087021 34.5506856,16.9394422 C35.5603549,17.3701822 37.7071533,16.1584299 38.096379,16.8510852 C39.3878288,19.1483656 38.8816774,21.9132015 39.3878288,22.2697849 C39.7396594,22.5180258 45.5058881,17.7267656 44.5525748,16.5670808 C43.3406555,15.0923614 42.5827451,14.2971489 42.2303879,12.5200174 C41.8775039,10.7428859 39.855005,4.55369266 37.4385401,4.81350413 C35.0220753,5.07278967 30.6373608,6.60904336 30.4514384,8.42561995 Z" id="Path" fill="#FECCA9"></path>
                    <path d="M44.1212137,6.58379852 C44.7579848,11.2888055 43.615589,13.5419075 42.6285673,13.8259119 C41.3666123,14.1893324 38.7126091,9.12090492 37.5296579,9.58109731 C36.7027508,9.90296901 35.8779505,11.3592807 35.1932503,11.0121642 C34.6123086,10.717641 34.8998826,8.53816987 33.2813568,9.16771306 C29.919479,10.4757113 28.8581938,9.22661768 28.2261629,7.6072664 C27.7779476,5.61239812 29.4449292,3.70956833 32.0083412,2.34950259 C34.1772606,1.19823271 36.5461698,-1.06505444 38.3495646,1.58039439 C38.3495646,1.58039439 43.2979934,0.49979214 44.1212137,6.58379852 Z" id="Path" fill="#003A8C"></path>
                    <path d="M38.7763389,18.6466245 C38.6336053,18.0475854 38.4239817,17.4338203 38.0953256,16.8489815 C37.8193388,16.3593368 36.6569286,16.8300479 35.6472592,16.9820428 C36.0333247,16.9105158 38.1337742,16.5065983 39.0718134,15.8407655 C39.0712867,15.8402398 39.6859367,17.0956446 38.7763389,18.6466245 Z" id="Path" fill="#F09A5E"></path>
                    <path d="M8.48731072,66.3525344 C8.20079004,67.4890782 9.45642479,68.0665539 10.0963561,68.6797931 C10.7362874,69.2930323 13.0811221,71.252663 13.6120281,70.6104974 C14.142934,69.9683318 14.1013253,69.231498 14.4842307,68.7260753 C14.8671361,68.2201266 15.8825991,67.906144 15.538669,67.1324948 C15.1942121,66.3588457 13.9680721,66.1158641 13.2349163,65.6861759 C12.6992701,65.3716672 11.2735137,63.3331464 10.829512,63.5177493 C10.3855102,63.7023522 10.3096665,64.5401653 9.96994991,64.9009562 C9.46590525,65.4368831 8.70957492,65.4700169 8.48731072,66.3525344 Z" id="Path" fill="#6388C2"></path>
                    <path d="M36.6216402,68.1438662 C36.726452,69.3109141 35.3960269,69.6853792 34.6676113,70.1913279 C33.9391956,70.6972766 31.3162674,72.2661382 30.8928066,71.5492899 C30.4693459,70.8324416 30.6257736,70.11086 30.3266123,69.5517919 C30.027451,68.992198 29.073611,68.5235907 29.5349936,67.8130536 C29.9963761,67.1025166 31.2456906,67.0541306 32.0367826,66.7443554 C32.6150909,66.5176778 34.3431687,64.7268719 34.7524088,64.9782685 C35.1616488,65.2301909 35.1058194,66.0690559 35.3844397,66.4787586 C35.7984199,67.0867385 36.5405296,67.2382076 36.6216402,68.1438662 Z" id="Path" fill="#6388C2"></path>
                    <path d="M36.8244168,69.9851617 C37.1741405,69.6601344 38.0215887,69.8684043 39.0918277,71.1458984 C40.1620667,72.4233925 41.2618005,73.2938135 40.1852412,74.3062368 C39.5089681,74.9420912 35.2285387,77.0258423 32.5123859,79.089082 C31.5311579,79.8343307 29.9958494,80.0857273 28.7523286,79.8537903 C28.4984629,79.8064562 28.2919994,79.6208015 28.2272163,79.3820274 C28.1624331,79.1432533 28.3122313,78.9385466 28.4552741,78.7551138 C30.4272018,76.2263858 36.2192472,70.5468594 36.8244168,69.9851617 Z" id="Path" fill="#001529"></path>
                    <path d="M11.7880239,71.9505526 C12.2362392,72.115696 10.6720309,76.6892445 9.28103621,76.1880292 C8.40725347,75.8729946 4.61190783,73.0013941 1.54181766,71.5140523 C0.432603406,70.9765476 0.692067779,70.0039688 0.337603774,68.7911646 C0.265446911,68.5434496 0.103719447,68.4035643 0.537038811,68.2067902 C0.970358174,68.0100162 7.81209103,70.1387345 9.06772578,70.6310088 C10.3228338,71.1222314 11.0127327,71.6649704 11.7880239,71.9505526 Z" id="Path备份" fill="#001529"></path>
                </g>
            </g>
        </g>
    </g>
</svg>