<svg width="55" height="55" viewBox="0 0 55 55" fill="none" xmlns="http://www.w3.org/2000/svg">
<path d="M48.8235 27.1765C48.8235 39.1318 39.1318 48.8235 27.1765 48.8235C15.2211 48.8235 5.52942 39.1318 5.52942 27.1765C5.52942 15.2211 15.2211 5.52941 27.1765 5.52941C39.1318 5.52941 48.8235 15.2211 48.8235 27.1765Z" fill="#7745EA" stroke="#313131" stroke-width="2"/>
<path fill-rule="evenodd" clip-rule="evenodd" d="M44.0036 21.0342C44.537 21.7509 44.3883 22.7643 43.6716 23.2977L30.5927 33.0309C29.4978 33.8457 27.984 33.7907 26.9511 32.8987L21.5138 28.2028L12.4924 33.7321C11.7307 34.199 10.7347 33.96 10.2678 33.1982C9.80099 32.4365 10.04 31.4406 10.8017 30.9737L20.0248 25.3209C21.1054 24.6586 22.4903 24.7713 23.4496 25.5998L28.8694 30.2805L41.7401 20.7022C42.4568 20.1689 43.4702 20.3175 44.0036 21.0342Z" fill="#313131"/>
</svg>
