<svg width="376" height="202" viewBox="0 0 376 202" fill="none" xmlns="http://www.w3.org/2000/svg">
<path opacity="0.85" d="M18.01 96.6699L46.53 52.8399L229.12 52.1699L277.67 95.5299L147.84 106.53L18.01 96.6699Z" fill="#2B2B2B"/>
<path d="M144.99 51.72L153.94 97.54L161.98 96.54L153.49 49.89L144.99 51.72Z" fill="#2B2B2B" stroke="#050505" stroke-width="1.5" stroke-miterlimit="10"/>
<path d="M153.49 51.72L162.43 97.54L170.48 96.54L161.98 49.89L153.49 51.72Z" fill="#2B2B2B" stroke="#050505" stroke-width="1.5" stroke-miterlimit="10"/>
<path d="M67.29 53.77L68.29 46.5L73.5 44.5L73.32 41.12L76.55 40.12L79.42 51.96L67.29 53.77Z" fill="#050505"/>
<path d="M45.4901 54.09C51.0901 50.99 226.89 40.22 232.76 55.78L224.14 57.09L262.77 96.66L257.01 98.66L214.37 56.2C214.37 56.2 100.16 55.08 96.7501 55.41C93.3401 55.74 82.6301 97.93 82.6301 97.93L38.3201 98.1L55.4901 61.1L40.1001 58.76C39.9676 58.7404 39.8444 58.6804 39.7473 58.5881C39.6502 58.4958 39.584 58.3758 39.5577 58.2445C39.5315 58.1131 39.5464 57.9769 39.6005 57.8544C39.6547 57.7319 39.7453 57.6291 39.8601 57.56L45.4901 54.09Z" fill="#2B2B2B" stroke="#050505" stroke-width="2.5" stroke-miterlimit="10"/>
<path d="M17.52 176.43H372.27L374.27 143.97L365.69 130.52L366.32 111.4C366.53 103.79 354.69 97.4 347.1 96.85L273.25 93.42L253.25 96.93L20.83 91.28C20.83 91.28 14.68 94.79 14.24 97.42C13.8 100.05 10.73 134.95 9.86 136.27C8.99 137.59 2 143.52 2 143.52L2.53 161.86C2.64189 165.762 4.27013 169.466 7.06898 172.186C9.86784 174.907 13.6169 176.429 17.52 176.43Z" fill="#13896A" stroke="#050505" stroke-width="2.5" stroke-miterlimit="10"/>
<path d="M24.4299 174.79L353.31 176.27L350.23 139.14L318.4 126.85L282.67 135.88L271.45 166.35L109.51 167.9L95.9599 133.43L60.0499 125.59L36.7199 140.08L24.4299 174.79Z" fill="#3F3F3F"/>
<path d="M348.31 100.52C348.31 100.52 336.93 97.4 307.66 97.4C278.39 97.4 259.77 103.65 259.77 103.65L30.0201 96.65C26.6046 96.5721 23.1877 96.7124 19.7901 97.07C14.3301 97.78 13.3601 105.41 13.3601 105.41" fill="#0E8E6D"/>
<path d="M348.31 100.52C348.31 100.52 336.93 97.4 307.66 97.4C278.39 97.4 259.77 103.65 259.77 103.65L30.0201 96.65C26.6046 96.5721 23.1877 96.7124 19.7901 97.07C14.3301 97.78 13.3601 105.41 13.3601 105.41" stroke="#050505" stroke-width="1.5" stroke-miterlimit="10"/>
<path d="M347.1 96.9699C355.98 97.5399 366.58 102.97 366.32 112.52C366.06 122.07 366.8 118.23 356.23 118.23C345.66 118.23 341.7 98.5199 341.7 98.5199C341.7 95.3399 347.1 96.9699 347.1 96.9699Z" fill="#C1C1C1" stroke="#050505" stroke-width="1.5" stroke-miterlimit="10"/>
<path d="M362.75 165.22C357.87 164.3 359.14 158.44 358.23 153.57C352.67 123.91 328.02 119.51 314.93 119.11C300.74 118.67 268.93 127.5 267.77 168.02L112.39 167.34C112.02 133.85 90.1499 118.25 67.7999 119.11C42.7399 120.11 22.5099 136.75 22.5099 164.02L2.3999 163.52V163.59C2.54444 167.035 4.01558 170.291 6.50557 172.677C8.99556 175.063 12.3115 176.393 15.7599 176.39H32.1699C32.1699 176.39 32.0699 173.18 31.8499 170.1C30.3699 149.49 44.7999 131.1 65.7699 129.99C74.5245 129.579 83.1297 132.367 89.9801 137.834C96.8305 143.3 101.458 151.072 103 159.7C104 165.52 104 180.43 104 180.43H277.55C277.48 182.88 277.36 176.13 277.22 174.14C275.8 153.53 290.22 131.14 311.15 130.03C329.15 129.11 346.23 139.68 349.33 157.41C350.33 163.22 350.33 178.41 350.33 178.41H372.33V167.01L362.75 165.22Z" fill="#4C4C4C" stroke="#050505" stroke-width="1.5" stroke-miterlimit="10"/>
<path d="M67.23 201.09C85.6045 201.09 100.5 186.195 100.5 167.82C100.5 149.446 85.6045 134.55 67.23 134.55C48.8555 134.55 33.96 149.446 33.96 167.82C33.96 186.195 48.8555 201.09 67.23 201.09Z" fill="black"/>
<path d="M67.23 194.16C81.6004 194.16 93.25 182.511 93.25 168.14C93.25 153.77 81.6004 142.12 67.23 142.12C52.8595 142.12 41.21 153.77 41.21 168.14C41.21 182.511 52.8595 194.16 67.23 194.16Z" fill="#353535" stroke="#EAEAEA" stroke-width="3" stroke-miterlimit="10"/>
<path d="M71.53 168.33H62.71L63.71 141.22H70.53L71.53 168.33Z" fill="#EAEAEA"/>
<path d="M68.2899 163.87L65.5598 172.26L40.0898 162.93L42.1998 156.44L68.2899 163.87Z" fill="#EAEAEA"/>
<path d="M63.0399 165.58L70.1799 170.76L53.4399 192.1L47.9199 188.09L63.0399 165.58Z" fill="#EAEAEA"/>
<path d="M63.04 171.09L70.18 165.9L85.31 188.42L79.79 192.43L63.04 171.09Z" fill="#EAEAEA"/>
<path d="M68.2901 172.79L65.5601 164.4L91.6501 156.98L93.7601 163.46L68.2901 172.79Z" fill="#EAEAEA"/>
<path d="M67.23 174.27C70.5106 174.27 73.17 171.611 73.17 168.33C73.17 165.049 70.5106 162.39 67.23 162.39C63.9495 162.39 61.29 165.049 61.29 168.33C61.29 171.611 63.9495 174.27 67.23 174.27Z" fill="#CCCCCC"/>
<path d="M67.2299 174.91C65.9285 174.91 64.6563 174.524 63.5742 173.801C62.4922 173.078 61.6488 172.05 61.1508 170.848C60.6528 169.646 60.5224 168.323 60.7763 167.046C61.0302 165.77 61.6569 164.597 62.5771 163.677C63.4974 162.757 64.6698 162.13 65.9462 161.876C67.2226 161.623 68.5456 161.753 69.748 162.251C70.9503 162.749 71.978 163.592 72.701 164.674C73.424 165.756 73.8099 167.029 73.8099 168.33C73.8073 170.074 73.1132 171.746 71.8798 172.98C70.6463 174.213 68.9742 174.907 67.2299 174.91ZM67.2299 163.03C66.1817 163.03 65.157 163.341 64.2854 163.923C63.4138 164.506 62.7345 165.333 62.3333 166.302C61.9322 167.27 61.8272 168.336 62.0317 169.364C62.2362 170.392 62.741 171.336 63.4822 172.078C64.2235 172.819 65.1678 173.324 66.1959 173.528C67.224 173.733 68.2897 173.628 69.2581 173.227C70.2266 172.825 71.0543 172.146 71.6367 171.275C72.2191 170.403 72.5299 169.378 72.5299 168.33C72.5273 166.925 71.968 165.579 70.9746 164.585C69.9813 163.592 68.6348 163.033 67.2299 163.03Z" fill="#3F3F3F"/>
<path d="M314.77 201.09C333.145 201.09 348.04 186.195 348.04 167.82C348.04 149.446 333.145 134.55 314.77 134.55C296.396 134.55 281.5 149.446 281.5 167.82C281.5 186.195 296.396 201.09 314.77 201.09Z" fill="black"/>
<path d="M314.77 194.16C329.14 194.16 340.79 182.511 340.79 168.14C340.79 153.77 329.14 142.12 314.77 142.12C300.4 142.12 288.75 153.77 288.75 168.14C288.75 182.511 300.4 194.16 314.77 194.16Z" fill="#353535" stroke="#EAEAEA" stroke-width="3" stroke-miterlimit="10"/>
<path d="M319.07 168.33H310.25L311.25 141.22H318.07L319.07 168.33Z" fill="#EAEAEA"/>
<path d="M315.83 163.87L313.1 172.26L287.63 162.93L289.74 156.44L315.83 163.87Z" fill="#EAEAEA"/>
<path d="M310.58 165.58L317.72 170.76L300.98 192.1L295.46 188.09L310.58 165.58Z" fill="#EAEAEA"/>
<path d="M310.58 171.09L317.72 165.9L332.85 188.42L327.33 192.43L310.58 171.09Z" fill="#EAEAEA"/>
<path d="M315.83 172.79L313.1 164.4L339.2 156.98L341.3 163.46L315.83 172.79Z" fill="#EAEAEA"/>
<path d="M314.77 174.27C318.051 174.27 320.71 171.611 320.71 168.33C320.71 165.049 318.051 162.39 314.77 162.39C311.49 162.39 308.83 165.049 308.83 168.33C308.83 171.611 311.49 174.27 314.77 174.27Z" fill="#CCCCCC"/>
<path d="M314.77 174.91C313.469 174.91 312.196 174.524 311.114 173.801C310.032 173.078 309.189 172.05 308.691 170.848C308.193 169.646 308.062 168.323 308.316 167.046C308.57 165.77 309.197 164.597 310.117 163.677C311.037 162.757 312.21 162.13 313.486 161.876C314.763 161.623 316.086 161.753 317.288 162.251C318.49 162.749 319.518 163.592 320.241 164.674C320.964 165.756 321.35 167.029 321.35 168.33C321.347 170.074 320.653 171.746 319.42 172.98C318.186 174.213 316.514 174.907 314.77 174.91ZM314.77 163.03C313.722 163.03 312.697 163.341 311.825 163.923C310.954 164.506 310.275 165.333 309.873 166.302C309.472 167.27 309.367 168.336 309.572 169.364C309.776 170.392 310.281 171.336 311.022 172.078C311.764 172.819 312.708 173.324 313.736 173.528C314.764 173.733 315.83 173.628 316.798 173.227C317.767 172.825 318.594 172.146 319.177 171.275C319.759 170.403 320.07 169.378 320.07 168.33C320.067 166.925 319.508 165.579 318.515 164.585C317.521 163.592 316.175 163.033 314.77 163.03Z" fill="#3F3F3F"/>
<path opacity="0.2" d="M12.8701 110.52C34.2501 99.89 360.3 112.94 360.3 112.94L355.38 98.8L273.25 93.38L20.8701 91.24L14.9401 96.94L12.8701 110.52Z" fill="#050505"/>
<path d="M13.3601 102.43L17.0201 99.05C17.0201 99.05 21.2901 120.2 18.6501 124.38C17.0001 126.99 10.3701 127.5 10.3701 127.5L13.3601 102.43Z" fill="#FF3000" stroke="#050505" stroke-width="1.5" stroke-miterlimit="10"/>
<path d="M354.02 102.32L350.19 101.45" stroke="#050505" stroke-width="1.5" stroke-miterlimit="10"/>
<path d="M353.67 104.54L350.58 104.9" stroke="#050505" stroke-width="1.5" stroke-miterlimit="10"/>
<path d="M354.53 107.27L351.37 109.1" stroke="#050505" stroke-width="1.5" stroke-miterlimit="10"/>
<path d="M354.96 109.64L352.59 112.51" stroke="#050505" stroke-width="1.5" stroke-miterlimit="10"/>
<path d="M360.297 113.021C362.769 112.209 363.83 108.684 362.668 105.148C361.506 101.611 358.561 99.4028 356.089 100.215C353.618 101.027 352.557 104.552 353.719 108.088C354.881 111.625 357.826 113.833 360.297 113.021Z" fill="#FCFCFC" stroke="#050505" stroke-width="1.5" stroke-miterlimit="10"/>
<path d="M348.31 99.04C348.31 99.04 349.31 109.53 350.19 111.48C351.07 113.43 352.1 115.28 352.1 115.28C352.1 115.28 344.47 100.82 344.47 99.04C344.47 97.26 348.31 99.04 348.31 99.04Z" fill="#FCFCFC"/>
<path d="M83.5299 91.91C83.5299 91.91 79.3799 108.85 80.6599 120.09L83.5299 91.91Z" fill="#0E8E6D"/>
<path d="M83.5299 91.91C83.5299 91.91 79.3799 108.85 80.6599 120.09" stroke="#050505" stroke-width="1.5" stroke-miterlimit="10"/>
<path d="M161.33 92.46L162.82 100.65H166.32C166.32 100.65 170.32 105.13 171.84 119.09C173.36 133.05 171.84 167.75 171.84 167.75" stroke="#050505" stroke-width="1.5" stroke-miterlimit="10"/>
<path d="M254 96.65L259.76 102.65C259.76 102.65 265.16 107.55 265.94 123.57C266.72 139.59 263.76 168 263.76 168" stroke="#050505" stroke-width="1.5" stroke-miterlimit="10"/>
<path d="M9.8999 136.27H24.4299H31.5799" stroke="#050505" stroke-width="1.5" stroke-miterlimit="10"/>
<path d="M2 143.52H18.55C21.2743 143.578 23.9104 142.553 25.88 140.67L30.19 136.26" stroke="#050505" stroke-width="1.5" stroke-miterlimit="10"/>
<path d="M373.28 148.76H373.15C372.385 148.759 371.628 148.908 370.921 149.2C370.215 149.492 369.572 149.921 369.032 150.462C368.491 151.002 368.062 151.645 367.77 152.351C367.478 153.058 367.329 153.815 367.33 154.58V155.8C367.33 157.383 367.955 158.901 369.07 160.025C370.184 161.149 371.697 161.787 373.28 161.8V148.76Z" fill="#076D50" stroke="#050505" stroke-width="1.5" stroke-miterlimit="10"/>
<path d="M365.69 130.52H346.38" stroke="#050505" stroke-width="1.5" stroke-miterlimit="10"/>
<path d="M370.3 139.38H362.84C360.764 139.43 358.699 139.055 356.773 138.278C354.847 137.5 353.1 136.337 351.64 134.86L347.64 130.52" stroke="#050505" stroke-width="1.5" stroke-miterlimit="10"/>
<path d="M232.28 87.3V102.96C232.28 102.96 237.71 102.09 239.44 101.51C246.44 99.14 246.31 92.58 239.44 89.76C237.69 89.04 232.28 87.3 232.28 87.3Z" fill="#0E8E6D" stroke="#050505" stroke-width="1.5" stroke-miterlimit="10"/>
<path d="M190.06 117.3C193.644 117.3 196.55 114.649 196.55 111.38C196.55 108.11 193.644 105.46 190.06 105.46C186.476 105.46 183.57 108.11 183.57 111.38C183.57 114.649 186.476 117.3 190.06 117.3Z" fill="#050505" fill-opacity="0.5"/>
<path d="M195.9 108.9H183.5C182.097 108.9 180.96 110.035 180.96 111.435C180.96 112.835 182.097 113.97 183.5 113.97H195.9C197.303 113.97 198.44 112.835 198.44 111.435C198.44 110.035 197.303 108.9 195.9 108.9Z" fill="#007A57" stroke="#070707" stroke-miterlimit="10"/>
<path d="M112.38 117.3C115.964 117.3 118.87 114.649 118.87 111.38C118.87 108.11 115.964 105.46 112.38 105.46C108.796 105.46 105.89 108.11 105.89 111.38C105.89 114.649 108.796 117.3 112.38 117.3Z" fill="#050505" fill-opacity="0.5"/>
<path d="M118.22 108.9H105.82C104.417 108.9 103.28 110.035 103.28 111.435C103.28 112.835 104.417 113.97 105.82 113.97H118.22C119.623 113.97 120.76 112.835 120.76 111.435C120.76 110.035 119.623 108.9 118.22 108.9Z" fill="#007A57" stroke="#070707" stroke-miterlimit="10"/>
<path d="M280.98 119.7L272.34 110.48L276.22 110.44L284.86 119.66L280.98 119.7Z" fill="#007A57" stroke="#070707" stroke-miterlimit="10"/>
<path d="M75.87 43.93L68.29 1" stroke="#050505" stroke-miterlimit="10"/>
</svg>
