
<svg xmlns="http://www.w3.org/2000/svg" version="1.1" xmlns:xlink="http://www.w3.org/1999/xlink" preserveAspectRatio="none" x="0px" y="0px" width="1024px" height="1024px" viewBox="0 0 1024 1024">
<defs>
<g id="Layer0_0_MEMBER_0_MEMBER_0_MEMBER_0_FILL">
<path fill="#FEC901" stroke="none" d="
M 397.9 163.65
Q 397.9 162.1 395.4 160.95 392.9 159.85 389.35 159.85 385.8 159.85 383.3 160.95 380.8 162.05 380.8 163.65 380.8 165.2 383.3 166.3 385.8 167.4 389.35 167.4 392.85 167.4 395.4 166.3 397.9 165.2 397.9 163.65 Z"/>
</g>

<g id="Layer0_0_MEMBER_0_MEMBER_1_MEMBER_0_FILL">
<path fill="#F7AA00" stroke="none" d="
M 384.55 163.65
L 389.35 163.65 389.35 155.1
Q 388.85 154.9 387.95 154.95 386.1 155 384 156.1 381.9 157.2 380.65 158.65
L 379.8 159.85 384.55 163.65 Z"/>
</g>

<g id="Layer0_0_MEMBER_0_MEMBER_2_MEMBER_0_FILL">
<path fill="#FEC901" stroke="none" d="
M 363.5 170.65
Q 363.4 173.25 363.5 175.55
L 385.75 172.2 390.95 163.65
Q 380.05 159.1 376.2 158.45 372.35 157.8 368.95 159.65 366.1 161.15 364.7 163.65 363.7 165.35 363.5 170.65 Z"/>
</g>

<g id="Layer0_0_MEMBER_0_MEMBER_3_MEMBER_0_MEMBER_0_FILL">
<path fill="#FED501" stroke="none" d="
M 387.8 187.25
L 387.95 165.6
Q 386.65 164.75 384.45 164 379.95 162.5 375.25 162.85 364 163.75 362.5 172.4 361.7 177 364.7 188.6 367.85 200.75 371.65 205.6 374.45 209.3 383 209 386.85 208.9 387.8 187.25 Z"/>
</g>

<g id="Layer0_0_MEMBER_0_MEMBER_4_MEMBER_0_FILL">
<path fill="#F7AA00" stroke="none" d="
M 389.35 163.65
L 394.1 163.65 398.9 159.85
Q 398.7 159.35 398.1 158.65 396.85 157.2 394.7 156.1 392.6 155 390.75 154.95
L 389.35 155.1 389.35 163.65 Z"/>
</g>

<g id="Layer0_0_MEMBER_0_MEMBER_5_MEMBER_0_FILL">
<path fill="#FCBB03" stroke="none" d="
M 402.5 158.45
Q 400.1 158.85 393.7 161.3
L 387.75 163.65 392.95 172.2 415.2 175.55
Q 415.3 173.25 415.2 170.65 415 165.35 414 163.65 412.6 161.15 409.75 159.65 406.35 157.8 402.5 158.45 Z"/>
</g>

<g id="Layer0_0_MEMBER_0_MEMBER_6_MEMBER_0_FILL">
<path fill="#FEC901" stroke="none" d="
M 390.75 165.6
L 390.9 187.25
Q 391.85 208.9 395.7 209 400.1 209.15 402.7 208.2 404.9 207.4 406.25 205.6 410.05 200.45 413.55 188.55 416.95 176.8 416.2 172.4 414.7 163.75 403.45 162.85 398.75 162.5 394.25 164
L 390.75 165.6 Z"/>
</g>

<g id="Layer0_0_MEMBER_1_MEMBER_0_MEMBER_0_FILL">
<path fill="#649D32" stroke="none" d="
M 382.6 162.9
Q 381.4 162.85 381.4 163.2 381.4 164.55 383.6 165.9 386.05 167.4 389.35 167.4
L 389.35 161.85
Q 387.45 161.85 386.5 162.05 385.95 162.2 384.55 162.75 384.05 163 382.6 162.9 Z"/>
</g>

<g id="Layer0_0_MEMBER_1_MEMBER_1_MEMBER_0_FILL">
<path fill="#508419" stroke="none" d="
M 391.9 162.45
Q 390.45 161.85 389.35 161.85
L 389.35 167.4
Q 392.6 167.4 394.95 165.9 397 164.6 397 163.25 397 162.85 396.35 163.15 395.25 163.55 394.1 163.3 393.85 163.25 391.9 162.45 Z"/>
</g>

<g id="Layer0_0_MEMBER_2_MEMBER_0_MEMBER_0_FILL">
<path fill="#73B72A" stroke="none" d="
M 397.3 141.75
Q 389.5 142.15 387.2 148.05 385.3 152.9 387 162.2 387.55 163.65 388.8 163.65
L 389.25 163.6
Q 387.85 155.25 389.5 150.7 391.5 145.25 398 144.35
L 397.3 141.75 Z"/>
</g>

<g id="Layer0_0_MEMBER_2_MEMBER_1_MEMBER_0_FILL">
<path fill="#649D32" stroke="none" d="
M 398.9 147.55
L 398 144.35
Q 391.5 145.25 389.5 150.7 387.85 155.25 389.25 163.6 390.6 163.5 391.1 163.1 391.45 162.85 391.8 162.05 390.55 155.15 391.75 151.95 393.2 147.85 398.9 147.55 Z"/>
</g>

<g id="Layer0_0_MEMBER_3_MEMBER_0_FILL">
<path fill="#FDE000" stroke="none" d="
M 375.2 178.9
Q 375.15 187.15 377 195.25 378.1 200.05 379.5 206.05 380.7 209.75 383.6 210.35
L 389.15 211.75 389.15 165.4
Q 387.45 164.9 385.25 164.85 380.85 164.8 378.2 167 375.3 169.5 375.2 178.9 Z"/>
</g>

<g id="Layer0_0_MEMBER_4_MEMBER_0_FILL">
<path fill="#FCD200" stroke="none" d="
M 401.3 195.25
Q 403.15 187.15 403.1 178.9 403 169.5 400.1 167 397.5 164.8 393.05 164.85
L 389.15 165.4 389.15 211.75 394.7 210.35
Q 397.6 209.75 398.85 206.05 400.2 200.05 401.3 195.25 Z"/>
</g>
</defs>

<g transform="matrix( 10, 0, 0, 10, -3381.3,-1255.5) ">
<use xlink:href="#Layer0_0_MEMBER_0_MEMBER_0_MEMBER_0_FILL"/>
</g>

<g transform="matrix( 10, 0, 0, 10, -3381.3,-1255.5) ">
<use xlink:href="#Layer0_0_MEMBER_0_MEMBER_1_MEMBER_0_FILL"/>
</g>

<g transform="matrix( 10, 0, 0, 10, -3381.3,-1255.5) ">
<use xlink:href="#Layer0_0_MEMBER_0_MEMBER_2_MEMBER_0_FILL"/>
</g>

<g transform="matrix( 10, 0, 0, 10, -3381.3,-1255.5) ">
<use xlink:href="#Layer0_0_MEMBER_0_MEMBER_3_MEMBER_0_MEMBER_0_FILL"/>
</g>

<g transform="matrix( 10, 0, 0, 10, -3381.3,-1255.5) ">
<use xlink:href="#Layer0_0_MEMBER_0_MEMBER_4_MEMBER_0_FILL"/>
</g>

<g transform="matrix( 10, 0, 0, 10, -3381.3,-1255.5) ">
<use xlink:href="#Layer0_0_MEMBER_0_MEMBER_5_MEMBER_0_FILL"/>
</g>

<g transform="matrix( 10, 0, 0, 10, -3381.3,-1255.5) ">
<use xlink:href="#Layer0_0_MEMBER_0_MEMBER_6_MEMBER_0_FILL"/>
</g>

<g transform="matrix( 10, 0, 0, 10, -3381.3,-1255.5) ">
<use xlink:href="#Layer0_0_MEMBER_1_MEMBER_0_MEMBER_0_FILL"/>
</g>

<g transform="matrix( 10, 0, 0, 10, -3381.3,-1255.5) ">
<use xlink:href="#Layer0_0_MEMBER_1_MEMBER_1_MEMBER_0_FILL"/>
</g>

<g transform="matrix( 10, 0, 0, 10, -3381.3,-1255.5) ">
<use xlink:href="#Layer0_0_MEMBER_2_MEMBER_0_MEMBER_0_FILL"/>
</g>

<g transform="matrix( 10, 0, 0, 10, -3381.3,-1255.5) ">
<use xlink:href="#Layer0_0_MEMBER_2_MEMBER_1_MEMBER_0_FILL"/>
</g>

<g transform="matrix( 10, 0, 0, 10, -3381.3,-1255.5) ">
<use xlink:href="#Layer0_0_MEMBER_3_MEMBER_0_FILL"/>
</g>

<g transform="matrix( 10, 0, 0, 10, -3381.3,-1255.5) ">
<use xlink:href="#Layer0_0_MEMBER_4_MEMBER_0_FILL"/>
</g>
</svg>
