<svg id="图层_1" data-name="图层 1" xmlns="http://www.w3.org/2000/svg" viewBox="0 0 1080 1920"><defs><style>.cls-1{fill:#6fc6a5;}.cls-1,.cls-2,.cls-3,.cls-4,.cls-5,.cls-6{stroke:#231815;stroke-miterlimit:10;stroke-width:1.81px;}.cls-2{fill:#016a00;}.cls-3{fill:#80b621;}.cls-4{fill:#a8c192;}.cls-5{fill:#ff3270;}.cls-6{fill:#fb921a;}</style></defs><title>画板 3</title><ellipse class="cls-1" cx="560.18" cy="812.33" rx="23" ry="24.36" transform="translate(-370.71 485.03) rotate(-36.04)"/><ellipse class="cls-1" cx="485.95" cy="810.35" rx="23" ry="24.36" transform="translate(-383.75 440.97) rotate(-36.04)"/><ellipse class="cls-2" cx="482.78" cy="871.9" rx="27.87" ry="21.78" transform="translate(-420.57 450.89) rotate(-36.04)"/><ellipse class="cls-2" cx="458.94" cy="843.73" rx="27.87" ry="21.78" transform="translate(-489.21 997.04) rotate(-70.64)"/><ellipse class="cls-1" cx="436.76" cy="873.79" rx="23.26" ry="23.63" transform="translate(-430.49 424.18) rotate(-36.04)"/><ellipse class="cls-2" cx="581.6" cy="882.59" rx="21.36" ry="22.01" transform="translate(-407.95 511.07) rotate(-36.04)"/><path class="cls-2" d="M524.52,791.89c12.26,2.55,21.65,14.61,20.48,25.51s-11.58,18.71-26.85,17.07-23-16.09-21.85-27S509.49,788.76,524.52,791.89Z"/><path class="cls-2" d="M583.65,814.49c7.65-8.33,20.21-22.48,32.81-11.66,12.45,10.69,1.52,29.95-6.13,38.28s-19.75,9.68-27,3S576,822.82,583.65,814.49Z"/><path class="cls-3" d="M573.62,797.28c2.44-6.41,6.34-17.22,15.88-13.95s7.59,16.54,5.15,23-8.95,9.9-14.54,7.77S571.18,803.7,573.62,797.28Z"/><ellipse class="cls-3" cx="566.2" cy="852.51" rx="24.94" ry="22.36" transform="matrix(0.81, -0.59, 0.59, 0.81, -393.19, 496.25)"/><path class="cls-3" d="M615.05,881.56c13.64-.89,24.14-10.28,23.44-21S624.68,840.2,611,841.08s-22.93,7.6-21.95,22.71C590,878.24,601.41,882.44,615.05,881.56Z"/><path class="cls-3" d="M848.73,824.61c13.64-.89,24.14-10.28,23.44-21s-13.81-20.38-27.45-19.5-22.93,7.6-21.94,22.71C823.71,821.29,835.09,825.49,848.73,824.61Z"/><path class="cls-3" d="M490.73,825.19c11.4-8.3,24.36-7.56,31.72,2.56s4.66,22.26-6.74,30.55-23.29,12.6-33.52-1.47C471.47,842.1,479.33,833.48,490.73,825.19Z"/><path class="cls-4" d="M522.2,838.88c7.83-11,16.29-17.23,25.71-12.38,13.35,6.86,11.11,21.32,3.29,32.27S535.61,877,522.61,871.24C508.93,865.14,514.38,849.82,522.2,838.88Z"/><ellipse class="cls-3" cx="513.78" cy="883.86" rx="20.73" ry="21.15" transform="matrix(0.81, -0.59, 0.59, 0.81, -421.67, 471.42)"/><path class="cls-4" d="M560.47,905.84c10.57-4.66,12.26-15.07,5.51-24.34s-22.61-18.36-32-11.56-12.88,21.4-5.25,30S549.84,910.52,560.47,905.84Z"/><path class="cls-5" d="M283.84,1068.64c10.58-4.65,12.26-15.07,5.52-24.34s-22.62-18.36-32-11.56-12.88,21.4-5.26,30S273.21,1073.32,283.84,1068.64Z"/><path class="cls-5" d="M304.67,1351.06c11.59-1.57,14.89-13,9.32-26.19s-20.55-29.41-31.2-24.91-16.47,20.13-9.89,32.8C279.56,1345.61,293,1352.64,304.67,1351.06Z"/><path class="cls-4" d="M892.79,764.58c10.57-4.65,12.26-15.06,5.52-24.34s-22.62-18.36-32-11.56-12.88,21.4-5.26,30S882.16,769.26,892.79,764.58Z"/><path class="cls-6" d="M479.2,723.54c10.57-4.65,12.26-15.07,5.51-24.34s-22.61-18.36-32-11.56-12.88,21.4-5.25,30S468.57,728.22,479.2,723.54Z"/><path class="cls-2" d="M480.51,896.1c7.88-5.68,35.31,1.49,45.13,12,9.2,9.83,4.38,22.37-3.48,28.09-9.43,6.86-32.78,6.33-43.53-2.72C468.33,924.76,470.85,903.06,480.51,896.1Z"/><path class="cls-2" d="M470.1,917.39s-41.56,14.44-69.61-5.36l-4.88,9.58s44.56,20.43,74.8.58Z"/><ellipse class="cls-3" cx="398.05" cy="916.81" rx="5.36" ry="4.96" transform="translate(-592.39 782.56) rotate(-58.81)"/><path class="cls-3" d="M448.24,925.22a21,21,0,0,1,29.3,4.62c6.82,9.37,4,25.54-5.36,32.36s-23.22,2.14-30-7.23S438.87,932,448.24,925.22Z"/><path class="cls-1" d="M480.17,938.27c7.35-5.35,19.06-1.15,24.48,6.3s-.49,17.5-7.84,22.85-15.92-.16-21.34-7.61S472.81,943.63,480.17,938.27Z"/><path class="cls-4" d="M454.53,886c12.86-.53,26.36,6.64,26.83,18.18s-12.44,20-25.3,20.56-23.48-2.23-24.76-17C429.92,891.78,441.67,886.52,454.53,886Z"/></svg>