<svg width="273" height="440" viewBox="0 0 273 440" fill="none" xmlns="http://www.w3.org/2000/svg">
<path d="M241.4 242.27C241.4 242.27 261.19 318.69 251.53 334.34C241.87 349.99 208.26 359.19 200.43 320.99C192.6 282.79 184.32 220.85 184.32 220.85L241.4 242.27Z" fill="url(#paint0_linear)"/>
<path d="M188.09 284.64C188.09 284.64 170.38 207.21 182.7 186.07C195.02 164.93 230.59 169.32 238.89 208.54C247.19 247.76 252.61 277.4 250.29 281.29C247.97 285.18 192.92 296.77 188.09 284.64Z" fill="url(#paint1_linear)"/>
<path d="M19.7301 212.52C3.46006 171.7 74.2801 138.52 135.24 138.52C160.02 138.52 222.9 169.44 225.07 184C227.24 198.56 206.61 296.48 230.36 368.15C241.31 401.15 240.85 411.81 209.64 425.55C164.92 445.26 27.2201 447.48 33.8601 406C38.3801 377.87 63.8501 323.2 19.7301 212.52Z" fill="url(#paint2_linear)"/>
<path d="M138.65 438.7C140.07 438.63 141.49 438.54 142.91 438.45V139.27C141.42 139.02 139.99 138.83 138.65 138.71V438.7Z" fill="url(#paint3_linear)"/>
<path d="M96.79 146.42L104.06 82.06H155.87L168.32 146.42C168.32 146.42 160.67 163.42 141.53 165.06C123.79 166.56 96.79 146.42 96.79 146.42Z" fill="url(#paint4_linear)"/>
<path d="M98.6801 129.68C98.6801 129.68 92.9901 134.68 85.5901 145.3C88.3501 158.3 112.87 187.49 112.87 187.49C112.87 187.49 123 170.49 140.16 165.13C140.16 165.13 119.79 164.06 105.27 143.91C98.3301 134.3 98.6801 129.68 98.6801 129.68Z" fill="url(#paint5_linear)"/>
<path d="M143.54 164.9C143.54 164.9 159.83 165.14 174.71 181.9C174.71 181.9 177.06 162.18 176.65 150.2C173.603 142.924 169.721 136.028 165.08 129.65C165.08 129.65 172.34 151 143.54 164.9Z" fill="url(#paint6_linear)"/>
<path d="M201.33 269.72L190.47 276.21C188.115 277.619 185.175 277.619 182.82 276.21L172 269.72C169.745 268.376 168.363 265.945 168.36 263.32V234.32C168.36 230.2 171.7 226.86 175.82 226.86H197.55C201.67 226.86 205.01 230.2 205.01 234.32V263.32C204.999 265.953 203.6 268.386 201.33 269.72Z" fill="url(#paint7_linear)"/>
<path d="M183.38 101C183.38 101 194.86 100.08 196.91 88.42C198.96 76.76 195.28 69.8 185.18 72C175.08 74.2 183.38 101 183.38 101Z" fill="url(#paint8_linear)"/>
<path d="M100.31 67.74C100.31 67.74 96.9101 60.95 88.8301 65.74C76.5201 73.09 80.3101 96.09 95.2101 96.93C95.2101 96.93 102.21 119.46 124.49 137.63C154.91 162.38 176.49 135.55 185.11 108.04C194.11 79.04 190.51 51.33 171.19 39.88C151.29 28.11 111.9 21.36 100.31 67.74Z" fill="url(#paint9_linear)"/>
<path d="M103.87 81.93C103.87 81.93 104.87 63.71 92.8701 64.16C92.8701 64.16 90.5201 35.03 99.5201 25.37C108.52 15.71 124.58 22.46 124.58 22.46C124.58 22.46 168.03 13.46 184.88 28.79C201.73 44.12 189.03 90.42 189.03 90.42C189.03 90.42 192.8 63.97 178.57 53.73C166.04 44.73 145.8 45.93 140.57 53.26C135.34 60.59 118 50 114.21 58C110.42 66 110.29 84.76 110.29 84.76L103.87 81.93Z" fill="url(#paint10_linear)"/>
<path d="M87.6 76C87.6 76 96.79 70.24 96.79 87.12" stroke="#382824" stroke-width="2" stroke-linecap="round" stroke-linejoin="round"/>
<path d="M90.7801 52.66C90.7801 52.66 106.48 40.14 146.78 43.44C187.08 46.74 194.37 61.79 194.37 61.79C194.37 61.79 202.84 15.51 163.92 4.39002C125 -6.72998 93.4401 5.09002 90.7801 52.66Z" fill="url(#paint11_linear)"/>
<path d="M132 51.48C143.657 44.9481 157.482 43.4807 170.25 47.42C191.66 54.08 193.3 66.65 193.3 66.65L200.19 71.41C200.19 71.41 205.19 49.9 182.59 40.41C159.99 30.92 137.49 43.39 132 51.48Z" fill="url(#paint12_linear)"/>
<path d="M90.7801 52.66C90.7801 52.66 118.3 52.89 123.48 53.1C137.48 53.67 144.59 38.1 167.82 39.65C191.05 41.2 199.47 54.08 200.15 71.41C200.15 71.41 206.34 56.66 188.31 42.76C169 27.83 121.27 28.66 90.7801 52.66Z" fill="url(#paint13_linear)"/>
<path d="M132.66 108.53C136.184 108.53 139.04 105.674 139.04 102.15C139.04 98.6264 136.184 95.77 132.66 95.77C129.137 95.77 126.28 98.6264 126.28 102.15C126.28 105.674 129.137 108.53 132.66 108.53Z" fill="url(#paint14_linear)"/>
<path d="M182.41 112.9C185.934 112.9 188.79 110.044 188.79 106.52C188.79 102.996 185.934 100.14 182.41 100.14C178.887 100.14 176.03 102.996 176.03 106.52C176.03 110.044 178.887 112.9 182.41 112.9Z" fill="url(#paint15_linear)"/>
<path d="M162.18 91.5C163.64 96.31 164.91 98.73 165.07 102.5C165.28 107.86 157.54 105.57 157.54 105.57" stroke="#382824" stroke-width="2" stroke-linecap="round" stroke-linejoin="round"/>
<path d="M88.4001 81.05C88.4001 81.05 93.8001 78.76 96.4001 82.05" stroke="#382824" stroke-width="2" stroke-linecap="round" stroke-linejoin="round"/>
<path d="M154.1 126.22C154.1 126.22 143.54 126.4 143.54 115.82" stroke="#382824" stroke-width="2" stroke-linecap="round" stroke-linejoin="round"/>
<path d="M63.9901 286.38H137.19V414.19L63.9901 397.96V286.38Z" fill="url(#paint16_linear)"/>
<path d="M272.75 286.38H137.19V414.19H272.75V286.38Z" fill="url(#paint17_linear)"/>
<path d="M225.08 286.38H184.86V324.3H225.08V286.38Z" fill="url(#paint18_linear)"/>
<path d="M7.00007 252.05C7.00007 252.05 3.44007 289.43 4.00007 303.05C4.56007 316.67 7.49007 332.05 24.1201 345.62C45.8201 363.35 76.9901 376.38 80.1201 384.27C83.2501 392.16 88.8001 408.33 92.7401 409.91C95.2483 410.83 98.0018 410.83 100.51 409.91C100.51 409.91 101.82 415.78 106.51 414.23C111.2 412.68 112.83 417.8 118.35 416.62C121.616 415.94 124.616 414.333 126.99 411.99C126.99 411.99 116.99 409.52 116.08 406.26C115.17 403 111.64 384.66 112.83 382.59C114.02 380.52 127.11 378.45 132.14 374.9C135.44 372.56 134.82 366.1 122.93 365.6C111.93 365.13 109.67 358.52 98.2101 356.84C87.4001 355.26 70.4501 324.33 54.2801 305.37L60.4501 264.52L7.00007 252.05Z" fill="url(#paint19_linear)"/>
<path d="M0.550049 277.27C0.550049 277.27 4.92005 197.96 22.55 181.03C40.18 164.1 73.2 178.16 70.34 218.15C67.48 258.14 64.51 288.15 61.21 291.22C57.91 294.29 1.85005 290.26 0.550049 277.27Z" fill="url(#paint20_linear)"/>
<path d="M31.27 305.33C31.27 305.33 40.44 298.13 54.4 305.33" stroke="white"/>
<defs>
<linearGradient id="paint0_linear" x1="229.463" y1="189.07" x2="185.003" y2="301.522" gradientUnits="userSpaceOnUse">
<stop stop-color="#FFDDBB"/>
<stop offset="1" stop-color="#FF786E"/>
</linearGradient>
<linearGradient id="paint1_linear" x1="214.59" y1="705.09" x2="214.59" y2="179.99" gradientUnits="userSpaceOnUse">
<stop stop-color="#04AFA5"/>
<stop offset="1" stop-color="white"/>
</linearGradient>
<linearGradient id="paint2_linear" x1="127.11" y1="705.09" x2="127.11" y2="179.99" gradientUnits="userSpaceOnUse">
<stop stop-color="#04AFA5"/>
<stop offset="1" stop-color="white"/>
</linearGradient>
<linearGradient id="paint3_linear" x1="140.78" y1="461.9" x2="139.92" y2="62.5719" gradientUnits="userSpaceOnUse">
<stop stop-color="#04AFA5"/>
<stop offset="1" stop-color="white"/>
</linearGradient>
<linearGradient id="paint4_linear" x1="121.395" y1="179.97" x2="138.949" y2="118.238" gradientUnits="userSpaceOnUse">
<stop stop-color="#FFDDBB"/>
<stop offset="1" stop-color="#FF786E"/>
</linearGradient>
<linearGradient id="paint5_linear" x1="91.1701" y1="158.58" x2="336.41" y2="158.58" gradientUnits="userSpaceOnUse">
<stop stop-color="#1B345B"/>
<stop offset="1" stop-color="#20B7AF"/>
</linearGradient>
<linearGradient id="paint6_linear" x1="91.1701" y1="155.8" x2="336.41" y2="155.8" gradientUnits="userSpaceOnUse">
<stop stop-color="#1B345B"/>
<stop offset="1" stop-color="#20B7AF"/>
</linearGradient>
<linearGradient id="paint7_linear" x1="76.2501" y1="252.05" x2="362.32" y2="252.05" gradientUnits="userSpaceOnUse">
<stop stop-color="#04AFA5"/>
<stop offset="1" stop-color="white"/>
</linearGradient>
<linearGradient id="paint8_linear" x1="201.971" y1="87.63" x2="186.822" y2="87.128" gradientUnits="userSpaceOnUse">
<stop stop-color="#FFDDBB"/>
<stop offset="1" stop-color="#FF786E"/>
</linearGradient>
<linearGradient id="paint9_linear" x1="135.64" y1="187.14" x2="135.64" y2="-38.09" gradientUnits="userSpaceOnUse">
<stop stop-color="#FFDDBB"/>
<stop offset="1" stop-color="#FF786E"/>
</linearGradient>
<linearGradient id="paint10_linear" x1="76.8101" y1="55.13" x2="206.14" y2="55.13" gradientUnits="userSpaceOnUse">
<stop stop-color="#1B1D31"/>
<stop offset="1" stop-color="#006088"/>
</linearGradient>
<linearGradient id="paint11_linear" x1="242.37" y1="31.15" x2="79.6801" y2="31.15" gradientUnits="userSpaceOnUse">
<stop stop-color="#FFBB00"/>
<stop offset="1" stop-color="#FFFF95"/>
</linearGradient>
<linearGradient id="paint12_linear" x1="207.01" y1="54.21" x2="124.07" y2="54.21" gradientUnits="userSpaceOnUse">
<stop stop-color="#1B345B"/>
<stop offset="1" stop-color="#20B7AF"/>
</linearGradient>
<linearGradient id="paint13_linear" x1="214.67" y1="52.12" x2="114.4" y2="52.12" gradientUnits="userSpaceOnUse">
<stop stop-color="#1B345B"/>
<stop offset="1" stop-color="#20B7AF"/>
</linearGradient>
<linearGradient id="paint14_linear" x1="129.65" y1="42.85" x2="133.3" y2="114.67" gradientUnits="userSpaceOnUse">
<stop stop-color="#FFDDBB"/>
<stop offset="1" stop-color="#FF786E"/>
</linearGradient>
<linearGradient id="paint15_linear" x1="179.05" y1="40.34" x2="182.7" y2="112.16" gradientUnits="userSpaceOnUse">
<stop stop-color="#FFDDBB"/>
<stop offset="1" stop-color="#FF786E"/>
</linearGradient>
<linearGradient id="paint16_linear" x1="179.86" y1="350.28" x2="55.5601" y2="350.28" gradientUnits="userSpaceOnUse">
<stop stop-color="#FFDDBB"/>
<stop offset="1" stop-color="#FF786E"/>
</linearGradient>
<linearGradient id="paint17_linear" x1="135.02" y1="346.992" x2="537.545" y2="368.285" gradientUnits="userSpaceOnUse">
<stop stop-color="#FFDDBB"/>
<stop offset="1" stop-color="#FF786E"/>
</linearGradient>
<linearGradient id="paint18_linear" x1="206.88" y1="278.726" x2="204.568" y2="314.932" gradientUnits="userSpaceOnUse">
<stop stop-color="#FFDD8E"/>
<stop offset="1" stop-color="white"/>
</linearGradient>
<linearGradient id="paint19_linear" x1="125.8" y1="334.4" x2="-68.4099" y2="334.4" gradientUnits="userSpaceOnUse">
<stop stop-color="#FFDDBB"/>
<stop offset="1" stop-color="#FF786E"/>
</linearGradient>
<linearGradient id="paint20_linear" x1="35.56" y1="705.09" x2="35.56" y2="179.99" gradientUnits="userSpaceOnUse">
<stop stop-color="#04AFA5"/>
<stop offset="1" stop-color="white"/>
</linearGradient>
</defs>
</svg>
