<svg id="图层_1" data-name="图层 1" xmlns="http://www.w3.org/2000/svg" viewBox="0 0 551 551"><defs><style>.cls-1{fill:#f7d189;}.cls-2{fill:#e8b5b5;}.cls-3{fill:#f9c7c6;}.cls-4{fill:#443332;}.cls-5{fill:#fecc33;}.cls-11,.cls-12,.cls-18,.cls-19,.cls-6{fill:none;}.cls-6{stroke:#634c49;stroke-width:1.22px;}.cls-12,.cls-18,.cls-19,.cls-6{stroke-linecap:round;stroke-linejoin:round;}.cls-7{fill:#f49d9d;}.cls-8{fill:#d65859;}.cls-9{fill:#f2826a;}.cls-10{fill:#e8bd79;}.cls-12,.cls-18{stroke:#443332;}.cls-12{stroke-width:1.47px;}.cls-13{fill:#3986d4;}.cls-14{fill:#4d97fa;}.cls-15{fill:#29aaa1;}.cls-16{fill:#31bab5;}.cls-17{fill:#e5b3b3;}.cls-18{stroke-width:0.74px;}.cls-19{stroke:#e8bd79;stroke-width:3.68px;}.cls-20{fill:#f98f7d;}</style></defs><title>我想要的2021终稿</title><path class="cls-1" d="M207.17,223.69s13-3.43,22.91,3.17,22.15,6.86,22.15,6.86-23.43,11.94-24.45,11.43S198.19,239.32,199,234,207.17,223.69,207.17,223.69Z"/><path class="cls-2" d="M290.44,161.65c-2.24,0-2.3,7.16-2.56,9.53.29-2.87,1.49-15.21-.66-15.46s-3.57,13.8-3.57,13.8,2.75-17.44-.8-17.44c-3.18,0-4.16,15.93-4.13,17.56,0-1.48,1.33-15.53-1.68-15.77-2.68-.21-2.73,17.26-2.73,17.26s-.44,12.12-.46,13.4c0-.18,0-.28,0-.28a12.58,12.58,0,0,0,4.07,1.69c.51,1.53-3.2,42.86-3.2,42.86l-3.76.82s1.47,16.39-5.36,20.71c19.67-2.16,23.59-6.27,23.78-7.76.26-1.94-2.29-54.34-2.29-54.34C291,180.44,292.61,161.66,290.44,161.65Z"/><path class="cls-3" d="M185.28,205c-8.69-4.64-4.1-25.53,7.88-34.87,0,0,4.52-1,11.39,3.43a12.7,12.7,0,0,1,5.17,5c2.05,3.61,10.67,6.13,10.67,6.13s-.2,2.3-1.23,2.58a2.34,2.34,0,0,0-1.37,1.55s2,1.49,1.61,2.07-8.23,5.11,1.13,7c0,0,1,.37-.25,1.2a4.16,4.16,0,0,0,.7,4.33s1.43,3.74-2.44,4.42a23.54,23.54,0,0,1-7.1.15,48.83,48.83,0,0,0-2.94,16.78s1.05,10.35-3,12.74-19.63-2.86-17.11-10.44S192.1,208.64,185.28,205Z"/><path class="cls-4" d="M198.86,168.72s5.73-7.11,13.71-2.12l4.62,3.26s-7.35-1.47-8.14-.34l5.76,4.75s-8.15-3.1-10.83-3.15a11.38,11.38,0,0,1,5.25,3.31c.46.59-4.46-.47-5.89-1.14a20.3,20.3,0,0,0-4.93-1Z"/><path class="cls-4" d="M202.86,169.68a25.49,25.49,0,0,1-8.76,22.26s7.27,4.34,7,9.49a3,3,0,0,1-.65,1.68c-.89,1.13-2.57,3.95.15,6.73,0,0-5.83-2.42-3-10,0,0-.79-5.93-5.83-5.79l3.71,15.2-.22,2a4.43,4.43,0,0,1-4.61,3.91c-5.47-.24-13.38.13-20.63-11.95C159.36,185.47,178,157.66,202.86,169.68Z"/><path class="cls-4" d="M165.6,189.77s-21.23-8.74-24.83,17.49c0,0,1.86,12.91-3.54,15.13s-7.91-.43-7.91-.43,4,5.69,10.82,1.86c0,0,5.52,7.8-3.26,12.4,0,0,3.8,4.91,10.54-.79s4.46-13.89,4.46-13.89,1.7,7.84-1.24,13.08c0,0,5.68-3.36,6.77-6.65,0,0,1.21,2.79-5.45,8.06-10.34,8.18.38,13.07.38,13.07s-1.7-6.23,9.56-14.7c0,0,4.82-2.13,4.7-12.15,0,0,2.88,6.31-2.38,14.44,0,0,17.14-11.95,9.49-24.54S169.33,195,169.33,195Z"/><rect class="cls-5" x="164.19" y="189.45" width="5.51" height="9.98" rx="2.59" ry="2.59" transform="translate(350.89 372.87) rotate(174.78)"/><path class="cls-3" d="M192.92,194.62s-5.14-4.63-6.77,1.36,6.69,8.91,8.29,6.25"/><path class="cls-6" d="M205.27,179.73a6.21,6.21,0,0,0-3.72,7"/><path class="cls-4" d="M204.64,185.46a2.49,2.49,0,0,1,3.35-2.8l-.61,2.05,1.67-1.27a2.53,2.53,0,0,1,.51,1.07,2.51,2.51,0,0,1-4.92,1Z"/><ellipse class="cls-7" cx="210.71" cy="191.6" rx="5.09" ry="3.48" transform="translate(-68.21 249.13) rotate(-53.93)"/><path class="cls-3" d="M240.91,415.59s0,9.36-2.42,15.9-9.67,58.54-7.25,63.36,8.29,12.4,27.63,12.06c0,0,5.18,4.13-8.63,7.23s-43.86,3.79-41.79-2.07,6.21-14.46,6.21-14.46-1.72-59.58,2.08-68.53-16.24-30.3,4.49-30.65S240.91,415.59,240.91,415.59Z"/><path class="cls-8" d="M245.32,320.14s9.17,31.49,6.62,54.09-3.08,44.83-3.08,44.83-21.19,3.16-26.88-3.95S245.32,320.14,245.32,320.14Z"/><path class="cls-3" d="M193.62,415.62S171.85,435.42,165,461s-10.69,32.37-10.69,32.37-13.75,12.95-7.26,18.29,14.3,2.28,22.43,10.28,27.61-.76,27.61-3.43-5-3.43-12.22-3.81-13.67-21.33-13.67-21.33,23.6-50.66,35.44-60.56,22.54-28.57,22.54-28.57l-32.85-2.28Z"/><path class="cls-9" d="M201.54,313.79s-8.91,16.76-5.35,39.87a15.17,15.17,0,0,0,2.26,9.9l-3.1,40.89S215.8,425.78,227,421.21c0,0,21.14-52.82,17.32-78.47l2.8-28.95Z"/><path class="cls-10" d="M189.61,223.86s-11,12.46-1.1,36.59c0,0,8.25,19,10,24.45,3.25,10.43-1,15.88,5.59,15.62,0,0-3.5,2.17-3.25,5,0,0-3.61,4.81-1.58,8.37,1,1.64-.08,3.11-1.45,4.22-2.91,2.33-.19,7,3.24,5.55l.25-.12c4.08-2,36-8.22,43.1,2.19s7.9-5.84,4.33-7.36c0,0,5.09-17.58-8.89-44.25,0,0,11.18-17.21-1.3-25.84S225.52,217.77,189.61,223.86Z"/><path class="cls-11" d="M271,189.67s1.19,36.91,0,40l3.76-.82s3.71-41.33,3.2-42.86a12.58,12.58,0,0,1-4.07-1.69s0,.1,0,.28v0C273.72,185.44,273.14,188.39,271,189.67Z"/><path class="cls-11" d="M271,189.67s1.19,36.91,0,40l3.76-.82s3.71-41.33,3.2-42.86a12.58,12.58,0,0,1-4.07-1.69s0,.1,0,.28C273.72,185.44,273.14,188.39,271,189.67Z"/><path class="cls-3" d="M271,229.62c1.19-3,0-40,0-40,2.14-1.28,2.72-4.23,2.85-5.14,0-1.28.46-13.4.46-13.4s2.18-14.51-1.44-15c-1.21-.16-1.3,5.26-1.52,8.39.68-9.69-.52-9.92-.52-9.92-2-1.17-2.86,2.88-3.25,6.2-.06-4.42-.65-10-2-10-3.09,0-2.1,9.36-2.24,13.56.06-3.77,0-11.79-1.84-12.63-2.37-1.1-1.86,2.64-1.86,2.64.77,4-.77,21.67-.77,21.67-1.53-.15-1.78-5.19-1.78-5.19.81-8.1-3.31-7.48-3.31-7.48s-.77,1.4-1,9.23,9.68,16.78,9.68,16.78c0,4.54-9.43,41.93-9.43,43.2s-50.42-1.27-50.42-1.27c-14.6,11.17,2.88,20.31,2.88,20.31s-2.71.68,37.19,0c9.39-.16,16.93-.64,23-1.3C272.47,246,271,229.62,271,229.62Z"/><path class="cls-1" d="M219.15,232.32c-3.29,2.93-9.4,10.22-3.43,20.4a1.06,1.06,0,0,1-.82,1.58c-6,.62-25.83,1.66-22.8-11.8,3.26-14.46,17.84-14.58,26.56-12.3A1.23,1.23,0,0,1,219.15,232.32Z"/><path class="cls-3" d="M390.71,138.62s-10.26-2.9-15.48,0c0,0-2.17,1.63-2,3.15h-9.55s-.89,2.54.89,3.94c0,0-4.71-1.15-4.33.88,0,0,4,3.56,1.62,3.69s-3.78-2.42-3.78-2.42-.51-1.14-1.91,0-5.23,4.7-2.93,6.61,13.24,13.46,8.66,23.11S373.08,196,373.08,196s.11-8.76,14.63-14.48S416.26,143.72,390.71,138.62Z"/><path class="cls-4" d="M393.56,145.58s-8.91-10.41-5.35-12.45,18.85,2,21.14,15.75,2.3,19.81-2.54,21.33c0,0,3.56,4.06-5.35,9.91s-10.7,10.15-19.1,8.12-11.72-7.36-9.43-13.2,13-6.35,13-6.35S382.61,145.32,393.56,145.58Z"/><path class="cls-3" d="M385.22,158.4s11.7.73,4.75,7.85-10.16-3.59-10.16-3.59Z"/><path class="cls-12" d="M380.16,139.86s2.58,1.53,1,6.1"/><ellipse class="cls-4" cx="376.75" cy="144.24" rx="2.55" ry="1.14" transform="translate(-25.88 119.04) rotate(-17.37)"/><path class="cls-2" d="M322,74.22c0-.76,5-18.28-1.06-20.06s-5.31.51-3.53,3.05S319,66.86,319,66.86,318,56.7,314.65,57s-7.64.76-3.82,4.32c0,0-4.58-2.29-6.62.51,0,0-7-.56-8.77,1.46a5.79,5.79,0,0,0-1.16,5.9l4.33-2.79s5.35,3.81,5.86,5.84c0,0-6.37,6.09-1.79,15.49,0,0,3.57,2.54,4.33,17.52s7.13,36.32,7.13,36.32l15.54,27.17,13-10.92-12.48-24.38s-1.27-11.17-7-32.25l-6.75-15.75Z"/><path class="cls-3" d="M369.06,396.35s11.67,10.64,17.47,22.23,17.48,39.84,21.79,43.36,9.9,5.7,11.95,12.63c0,0,3.16,6.47-7.8,16.37,0,0-10.71,12.24-21.64,16s-23.18-3.56-12.48-6.35c9.75-2.55,14.77-12.44,15.79-29.2,0,0-23.25-35.34-41.19-56.77S369.06,396.35,369.06,396.35Z"/><path class="cls-13" d="M363.58,318s2.91,8.67-4.73,21.62c0,0,4.72.73,2,7.84,0,0-.38,23.62,1.66,26.66s12.22,20.07,12.22,20.07-16.3,27.17-27.5,24.88S316.17,385.3,318.48,366s6.26-54.09,6.26-54.09Z"/><path class="cls-3" d="M340.91,414.76s5.65,14.72,5.63,27.68-2.27,43.42,0,48.5a77.56,77.56,0,0,1,5.07,16.94,7.93,7.93,0,0,1-7.54,9.16,80.08,80.08,0,0,1-15.39-1s-17.06,6.1-28.52,4.57-14.11-6.85-4.89-10.92,22.21-4.06,31.76-21.58c0,0-2.32-37.08-8.74-64.25S340.91,414.76,340.91,414.76Z"/><path class="cls-14" d="M361.11,311.91s-7,20.71-16.87,31.76c0,0,2.29,3.13-1.53,10s7.9,59.41,7.9,59.41-26.17,16-40.69,13.71-25.21-61.71-8.4-107.41S361.11,311.91,361.11,311.91Z"/><path class="cls-15" d="M360.73,181.48s17.56,3.35,17.95,15-6.45,7.47-6.45,7.47-.69,30.78-17.23,70.85c0,0,4.2,3.05,2.29,6.86a47.36,47.36,0,0,0-2.29,4.95s6.11,3,5,6.85,11.09,13.72,6.89,30.86c0,0-65.8,13.86-70.51-4.95-.77-3.05,1.74-25.14,1.74-25.14s-2.67-10.67,0-11.43c0,0-17.57-44.49,35.14-100.52Z"/><path class="cls-15" d="M333.45,146.65S345,158.44,347,166.56s-2.19,21.38-2.19,21.38-18.47,11.05-22.36-9-9.07-23.3-9.07-23.3S321.58,144.65,333.45,146.65Z"/><path class="cls-16" d="M313.36,218.43a88.61,88.61,0,0,0-5.54,22.75c-.79,7.73-.46,15.69,2.07,22.78a26.1,26.1,0,0,0,5.69,9.38,23.18,23.18,0,0,0,2,1.86c.35.3.71.56,1.06.82l.26.2.21.12c.17.11.38.21.57.32a35.5,35.5,0,0,0,5.12,2c7.15,2.28,14.88,2.65,22.64,2.23h.17a6.44,6.44,0,0,1,2.33.83,3.31,3.31,0,0,1,1,.9,2.37,2.37,0,0,1,.4,1.3,3.82,3.82,0,0,1-.92,2.21,10,10,0,0,1-1.57,1.61,12.68,12.68,0,0,0,1.21-1.84,3.35,3.35,0,0,0,.47-1.93,1.64,1.64,0,0,0-1.11-1.23,5.38,5.38,0,0,0-1.9-.4h.17a45.62,45.62,0,0,1-23.93-.16,30.71,30.71,0,0,1-5.76-2.35c-.24-.14-.47-.26-.71-.41l-.41-.26-.33-.25c-.43-.33-.86-.66-1.25-1a24.58,24.58,0,0,1-2.26-2.19,27.19,27.19,0,0,1-5.85-10.89,41.48,41.48,0,0,1-1.44-12,73.78,73.78,0,0,1,1.22-11.82,117.41,117.41,0,0,1,2.7-11.48A113.78,113.78,0,0,1,313.36,218.43Z"/><path class="cls-16" d="M306.63,287.78c3.74,1.06,7.39,2,11.05,2.78a94.93,94.93,0,0,0,11,1.67,62.74,62.74,0,0,0,11.05,0c.92-.09,1.84-.21,2.78-.27s1.83-.34,2.76-.48c.47-.08.94-.14,1.41-.23s.91-.24,1.38-.34c.92-.22,1.86-.44,2.83-.62-.8.54-1.63,1-2.48,1.54-.42.25-.85.49-1.28.73s-.89.39-1.34.59c-.91.38-1.83.73-2.75,1.09s-1.9.51-2.86.76a37.17,37.17,0,0,1-11.8.86,43.34,43.34,0,0,1-11.51-2.49A35.5,35.5,0,0,1,306.63,287.78Z"/><path class="cls-16" d="M298.43,295.06a90.88,90.88,0,0,0,10,3.18,56.71,56.71,0,0,0,10,1.61,49.64,49.64,0,0,0,5,0,45.17,45.17,0,0,0,5-.59,58.09,58.09,0,0,0,10-2.86,25.62,25.62,0,0,1-9.32,5.6,29.37,29.37,0,0,1-5.41,1.28,31.32,31.32,0,0,1-5.56.21A32,32,0,0,1,307.49,301,27.41,27.41,0,0,1,298.43,295.06Z"/><path class="cls-17" d="M334.5,62.46a39.24,39.24,0,0,1,0,20.57s2.38,8.13.68,13.71c0,0,5.52,5.34,0,8.64s-5.87-3.26-4.75-6.6c.51-1.53-3.57-7.48-3.82-14.41S319.73,54.08,334.5,62.46Z"/><path class="cls-2" d="M357.9,73.61s-3.6,1-6.66,5.75S341.79,82,340,77c-2.45-6.75-11.55-17.85,1.11-24.49s22.92,2,21.9,11.7S357.9,73.61,357.9,73.61Z"/><path class="cls-4" d="M364,60.67s.42,9.24-7.56,8.39c0,0-9,.17-7.62,4.66,0,0-2.43-.76-1.9-4S343.16,74,343.16,74,325.23,63.25,332.8,55.29s15.7-8.83,21.64-7.48S363,57.57,364,60.67Z"/><path class="cls-9" d="M336.62,59.16s15.35,6.37,6.71,20.57-26.49,12.44-34.64,9.4-28.07,13.54-25.09-5.65C286.53,64.62,324.91,46.72,336.62,59.16Z"/><path class="cls-3" d="M338,63.63a39.91,39.91,0,0,1-.32,19.4s2.38,8.13.68,13.71c0,0,5.52,5.34,0,8.64s-5.87-3.26-4.75-6.6c.51-1.53-3.57-7.48-3.82-14.41-.25-6.75-6.55-29.14,6.83-22.48A2.63,2.63,0,0,1,338,63.63Z"/><path class="cls-3" d="M321.53,72.07c0-.76,4.6-20.34-1.72-20-3.27.17-5.33,1.31-3.46,3.79s1.89,9,1.89,9-1.52-8.67-4.66-9.76-7.61,1-3.67,4.44c0,0-4.66-2.14-6.6.72,0,0-8.51-.27-9.91,3.2s.22,4.49.22,4.49L297.86,65s5.47,3.63,6,5.64c0,0-6.16,6.3-1.27,15.54,0,0,3.65,2.42,4.91,17.37s8.32,36.07,8.32,36.07l16.42,26.64,12.62-11.34-13.27-23.95s-1.64-11.13-8.06-32L316.3,83.42Z"/><path class="cls-16" d="M344.77,144.42s14,13.45,16.71,22.94-1.75,25.26-1.75,25.26S338.4,206.36,333,182.86s-11.59-27.09-11.59-27.09S330.71,142.53,344.77,144.42Z"/><path class="cls-17" d="M302.77,102.06s3.31,3.55,3.06,10.92c0,0,.83,2,1.05,14.72,0,0,0,5-1.22,6.69l2,5.08s3.74-1.69,2.21,1.19-3.38,0-3.38,0,.91,2.37.36,2.7-1.69-.29-1.82-.93c0,0,.47,1.08-.51,1s-.76-1.79-.76-1.79.37,1.34-.82,1.71a.68.68,0,0,1-.79-.35,1.6,1.6,0,0,1-.05-1.36s-.38,1.31-1.1,1,0-1.57,0-1.57-.68-2.54-1.83-3-5-2.88-2.16-5.89c0,0,.21-.46,1.57-.8,0,0-5.09-13-1.44-15.7,0,0-7.47-2.29-6.71-8S302.77,102.06,302.77,102.06Z"/><path class="cls-3" d="M307.16,103.09s3.31,3.56,3.06,10.92c0,0,.84,2,1,14.73,0,0,0,5-1.22,6.69a6,6,0,0,1,1.39,1.84,7.45,7.45,0,0,1,.77,2.24s2.93,1,2.21,2.49c-1,2.08-3.51-.31-3.51-.31s.91,2.37.36,2.71-1.69-.29-1.82-.93c0,0,.47,1.08-.5,1s-.77-1.79-.77-1.79.39,1.39-.89,1.72a.62.62,0,0,1-.69-.3,1.62,1.62,0,0,1-.07-1.42s-.39,1.31-1.11,1,0-1.56,0-1.56-.68-2.54-1.82-3-5-2.87-2.17-5.88c0,0,.21-.47,1.57-.8,0,0-5.09-13-1.44-15.71,0,0-7.47-2.28-6.71-8S307.16,103.09,307.16,103.09Z"/><path class="cls-10" d="M285.55,74.18c3.73-2.2,12.48,3.81,15,8.64s7.09,8.48,6.58,20.27c0,0-10.82,1.15-12.36,8.51a5.52,5.52,0,0,1-2.54-1.14c-.72-.49-1,2.47-1.85,1.79C283,106.47,264,86.88,285.55,74.18Z"/><path class="cls-2" d="M355,74.49c-.07.37-1.53,1.91-1.38,3.29S351,77,351.27,76.14"/><path class="cls-18" d="M358.91,73.37s-.81-.84-3.36-.29"/><path class="cls-4" d="M359.91,50.19s7.94-7.09,12.18,3.21a47.05,47.05,0,0,1,3.63,11.09s-2.4-6.93-4.49-9.13a8.05,8.05,0,0,1,1,4.53l-1.47-1.59A9.24,9.24,0,0,1,372.4,64s-2.53-6-4.86-7.85c0,0,3.87,3.06,1.66,9.93,0,0,1.29-7-4-11.46a13.11,13.11,0,0,1,1.05,6.05s-2.09-7.13-3.57-5.64S359.91,50.19,359.91,50.19Z"/><path class="cls-19" d="M359.91,51.76A5.88,5.88,0,0,1,362.24,55"/><path class="cls-20" d="M339.59,71.45s2.23-10.09-6.18-11.23-6.05,13.14-6.05,13.14S338.76,74.5,339.59,71.45Z"/></svg>