
<svg xmlns="http://www.w3.org/2000/svg" version="1.1" xmlns:xlink="http://www.w3.org/1999/xlink" preserveAspectRatio="none" x="0px" y="0px" width="1024px" height="1024px" viewBox="0 0 1024 1024">
<defs>
<g id="Layer0_0_MEMBER_0_MEMBER_0_FILL">
<path fill="#79A139" stroke="none" d="
M 210 180
L 210 172 118.05 118.9 26.1 172 26.1 180 118.05 233.05 210 180 Z"/>
</g>

<g id="Layer0_0_MEMBER_0_MEMBER_1_FILL">
<path fill="#719634" stroke="none" d="
M 210 180
L 210 172 118.05 225.05 118.05 233.05 210 180 Z"/>
</g>

<g id="Layer0_0_MEMBER_0_MEMBER_2_FILL">
<path fill="#000000" fill-opacity="0.14901960784313725" stroke="none" d="
M 48.15 8
L 48.15 0 0 27.85 0 35.85 48.15 8 Z"/>
</g>

<g id="Layer0_0_MEMBER_0_MEMBER_3_FILL">
<path fill="#9CC459" stroke="none" d="
M 118.05 118.9
L 26.1 172 118.05 225.05 210 172 118.05 118.9 Z"/>
</g>

<g id="Layer0_0_MEMBER_0_MEMBER_4_FILL">
<path fill="#B7E76A" stroke="none" d="
M 118.05 125.75
L 37.95 172 118.05 218.25 198.15 172 118.05 125.75 Z"/>
</g>

<g id="Layer0_0_MEMBER_0_MEMBER_5_FILL">
<path fill="#000000" fill-opacity="0.14901960784313725" stroke="none" d="
M 65.55 10.1
L 48.05 0 0 27.9 17.4 37.95 65.55 10.1 Z"/>
</g>

<g id="Layer0_0_MEMBER_1_MEMBER_0_FILL">
<path fill="#000000" fill-opacity="0.14901960784313725" stroke="none" d="
M 6.65 7.7
Q 9.4 7.7 11.35 6.55 13.25 5.45 13.25 3.85 13.25 2.25 11.35 1.1 9.4 0 6.65 0 3.85 0 1.95 1.1 0 2.25 0 3.85 0 5.45 1.95 6.55 3.85 7.7 6.65 7.7 Z"/>
</g>

<g id="Layer0_0_MEMBER_1_MEMBER_1_FILL">
<path fill="#6C9C38" stroke="none" d="
M 190 166.2
Q 190 162.55 187.45 160 184.9 157.4 181.25 157.4 177.6 157.4 175 160 172.45 162.55 172.45 166.2 172.45 169.85 175 172.4 177.6 174.95 181.25 174.95 184.9 174.95 187.45 172.4 190 169.85 190 166.2 Z"/>
</g>

<g id="Layer0_0_MEMBER_1_MEMBER_2_FILL">
<path fill="#80B844" stroke="none" d="
M 182.25 163.75
Q 182.25 162.3 181.25 161.3 180.2 160.25 178.8 160.25 177.35 160.25 176.3 161.3 175.3 162.3 175.3 163.75 175.3 165.2 176.3 166.2 177.35 167.25 178.8 167.25 180.2 167.25 181.25 166.2 182.25 165.2 182.25 163.75 Z"/>
</g>

<g id="Layer0_0_MEMBER_2_MEMBER_0_FILL">
<path fill="#000000" fill-opacity="0.14901960784313725" stroke="none" d="
M 6.65 7.7
Q 9.4 7.7 11.35 6.55 13.3 5.45 13.3 3.85 13.3 2.25 11.35 1.1 9.4 0 6.65 0 3.9 0 1.95 1.1 0 2.25 0 3.85 0 5.45 1.95 6.55 3.9 7.7 6.65 7.7 Z"/>
</g>

<g id="Layer0_0_MEMBER_2_MEMBER_1_FILL">
<path fill="#6C9C38" stroke="none" d="
M 63.25 166.45
Q 63.25 162.8 60.65 160.25 58.1 157.65 54.45 157.65 50.8 157.65 48.25 160.25 45.65 162.8 45.65 166.45 45.65 170.1 48.25 172.65 50.8 175.25 54.45 175.25 58.1 175.25 60.65 172.65 63.25 170.1 63.25 166.45 Z"/>
</g>

<g id="Layer0_0_MEMBER_2_MEMBER_2_FILL">
<path fill="#80B844" stroke="none" d="
M 55.5 164
Q 55.5 162.55 54.5 161.55 53.45 160.55 52 160.55 50.6 160.55 49.55 161.55 48.55 162.6 48.55 164 48.55 165.45 49.55 166.45 50.6 167.5 52 167.5 53.45 167.5 54.5 166.45 55.5 165.45 55.5 164 Z"/>
</g>

<g id="Layer0_0_MEMBER_3_MEMBER_0_FILL">
<path fill="#FFE4C3" stroke="none" d="
M 66.2 104.65
L 66.2 171.25 121.15 203.2 121.15 136.6 93.9 92.8 66.2 104.65 Z"/>
</g>

<g id="Layer0_0_MEMBER_3_MEMBER_1_MEMBER_0_FILL">
<path fill="#EAC394" stroke="none" d="
M 86.05 122.65
L 86.05 139 100.25 147.2 100.25 130.85 86.05 122.65 Z"/>
</g>

<g id="Layer0_0_MEMBER_3_MEMBER_1_MEMBER_1_FILL">
<path fill="#68B5DC" stroke="none" d="
M 87.45 125.05
L 87.45 138.2 98.85 144.8 98.85 131.65 87.45 125.05 Z"/>
</g>

<g id="Layer0_0_MEMBER_3_MEMBER_1_MEMBER_2_FILL">
<path fill="#EAC394" stroke="none" d="
M 92.4 126.3
L 92.4 142.7 93.9 143.55 93.9 127.15 92.4 126.3 Z"/>
</g>

<g id="Layer0_0_MEMBER_3_MEMBER_1_MEMBER_3_FILL">
<path fill="#EAC394" stroke="none" d="
M 86.05 131.7
L 100.25 139.85 100.25 138.15 86.05 130 86.05 131.7 Z"/>
</g>

<g id="Layer0_0_MEMBER_3_MEMBER_2_FILL">
<path fill="#D6B189" stroke="none" d="
M 169.2 175.3
L 169.2 108.65 121.15 136.55 121.15 203.2 169.2 175.3 Z"/>
</g>

<g id="Layer0_0_MEMBER_3_MEMBER_3_FILL">
<path fill="#F6D5AF" stroke="none" d="
M 66.2 146.3
L 66.2 171.25 121.15 203.2 121.15 177.85 66.2 146.3 Z"/>
</g>

<g id="Layer0_0_MEMBER_3_MEMBER_4_FILL">
<path fill="#C7A47E" stroke="none" d="
M 169.2 175.3
L 169.2 149.9 121.15 177.85 121.15 203.2 169.2 175.3 Z"/>
</g>

<g id="Layer0_0_MEMBER_3_MEMBER_5_FILL">
<path fill="#EFCCA5" stroke="none" d="
M 66.2 161.6
L 66.2 171.25 121.15 203.2 121.15 193.55 66.2 161.6 Z"/>
</g>

<g id="Layer0_0_MEMBER_3_MEMBER_6_FILL">
<path fill="#BC9B77" stroke="none" d="
M 169.2 175.3
L 169.2 165.6 121.15 193.55 121.15 203.2 169.2 175.3 Z"/>
</g>

<g id="Layer0_0_MEMBER_3_MEMBER_7_MEMBER_0_FILL">
<path fill="#8E6B45" stroke="none" d="
M 161.6 179.65
L 161.6 146.15 129.55 164.75 129.55 198.2 161.6 179.65 Z"/>
</g>

<g id="Layer0_0_MEMBER_3_MEMBER_7_MEMBER_1_FILL">
<path fill="#785939" stroke="none" d="
M 161.6 179.65
L 161.6 146.15 129.55 164.75 129.55 198.2 161.6 179.65
M 131.55 165.95
L 159.6 149.65 159.6 178.5 131.55 194.7 131.55 165.95 Z"/>
</g>

<g id="Layer0_0_MEMBER_3_MEMBER_8_FILL">
<path fill="#C3361A" stroke="none" d="
M 171.35 109.8
Q 171.2 109.1 170.7 108.5
L 142.1 63.6
Q 141.55 62.9 140.9 62.9
L 112.3 74.8
Q 111.9 74.8 111.75 75.1
L 63.95 102.7 93.15 92.8 122.9 138.8 170.75 111.2
Q 171.15 111.1 171.25 110.9 171.5 110.5 171.35 109.8 Z"/>
</g>

<g id="Layer0_0_MEMBER_3_MEMBER_9_FILL">
<path fill="#902610" stroke="none" d="
M 171.35 109.8
Q 171.2 109.1 170.7 108.5
L 142.1 63.6
Q 141.55 62.9 140.9 62.9
L 92.55 90.85 92.05 93.2 93.15 92.8 122.9 138.8 170.75 111.2
Q 171.15 111.1 171.25 110.9 171.5 110.5 171.35 109.8 Z"/>
</g>

<g id="Layer0_0_MEMBER_3_MEMBER_10_MEMBER_0_MEMBER_0_FILL">
<path fill="#FFE4C3" stroke="none" d="
M 104 93
L 104 98 109.2 106.25 109.2 96.05 104 93 Z"/>
</g>

<g id="Layer0_0_MEMBER_3_MEMBER_10_MEMBER_0_MEMBER_1_FILL">
<path fill="#D6B189" stroke="none" d="
M 114.45 93
L 109.2 96.05 109.2 106.25 114.45 103.2 114.45 93 Z"/>
</g>

<g id="Layer0_0_MEMBER_3_MEMBER_10_MEMBER_1_MEMBER_0_FILL">
<path fill="#D6B189" stroke="none" d="
M 109.2 97.4
L 109.2 94.1 102.7 90.35 102.7 93.65 109.2 97.4 Z"/>
</g>

<g id="Layer0_0_MEMBER_3_MEMBER_10_MEMBER_1_MEMBER_1_FILL">
<path fill="#A58768" stroke="none" d="
M 115.75 93.65
L 115.75 90.35 109.2 94.1 109.2 97.4 115.75 93.65 Z"/>
</g>

<g id="Layer0_0_MEMBER_3_MEMBER_10_MEMBER_1_MEMBER_2_FILL">
<path fill="#FFE4C3" stroke="none" d="
M 109.2 94.1
L 115.75 90.35 109.2 86.55 102.7 90.35 109.2 94.1 Z"/>
</g>

<g id="Layer0_0_MEMBER_3_MEMBER_10_MEMBER_1_MEMBER_3_FILL">
<path fill="#A58768" stroke="none" d="
M 109.2 92.7
L 113.35 90.35 109.2 87.95 105.1 90.35 109.2 92.7 Z"/>
</g>

<g id="Layer0_0_MEMBER_3_MEMBER_10_MEMBER_1_MEMBER_4_FILL">
<path fill="#D6B189" stroke="none" d="
M 109.2 87.95
L 109.2 92.7 113.35 90.35 109.2 87.95 Z"/>
</g>

<g id="Layer0_0_MEMBER_3_MEMBER_11_MEMBER_0_FILL">
<path fill="#781E0B" stroke="none" d="
M 93.75 91.55
Q 93.2 90.85 92.55 90.85
L 63.95 102.7
Q 63.45 102.75 63.3 103.25 63.15 103.75 63.4 104.45 63.65 105.15 64.15 105.65 64.65 106.1 65.15 106.1
L 93.15 94.25 121.15 138.4
Q 121.35 138.65 121.75 138.95 122.55 139.4 122.9 138.8 123.15 138.4 123 137.7 122.85 137 122.35 136.45
L 93.75 91.55 Z"/>
</g>

<g id="Layer0_0_MEMBER_3_MEMBER_12_MEMBER_0_FILL">
<path fill="#C7A47E" stroke="none" d="
M 86.05 149.85
L 86.05 182.7 100.25 190.95 100.25 158.05 86.05 149.85 Z"/>
</g>

<g id="Layer0_0_MEMBER_3_MEMBER_12_MEMBER_1_FILL">
<path fill="#9CC459" stroke="none" d="
M 100.25 190.95
L 86.05 182.7 65.35 194.65 79.6 202.9 100.25 190.95 Z"/>
</g>

<g id="Layer0_0_MEMBER_3_MEMBER_12_MEMBER_2_MEMBER_0_FILL">
<path fill="#C7A47E" stroke="none" d="
M 86.05 149.85
L 86.05 166.25 100.25 174.4 100.25 158.05 86.05 149.85 Z"/>
</g>

<g id="Layer0_0_MEMBER_3_MEMBER_12_MEMBER_2_MEMBER_1_FILL">
<path fill="#68B5DC" stroke="none" d="
M 87.45 152.25
L 87.45 165.45 98.85 172 98.85 158.85 87.45 152.25 Z"/>
</g>

<g id="Layer0_0_MEMBER_3_MEMBER_12_MEMBER_2_MEMBER_2_FILL">
<path fill="#C7A47E" stroke="none" d="
M 92.4 153.5
L 92.4 169.9 93.9 170.75 93.9 154.35 92.4 153.5 Z"/>
</g>

<g id="Layer0_0_MEMBER_3_MEMBER_12_MEMBER_2_MEMBER_3_FILL">
<path fill="#C7A47E" stroke="none" d="
M 86.05 158.9
L 100.25 167.1 100.25 165.4 86.05 157.2 86.05 158.9 Z"/>
</g>

<g id="Layer0_0_MEMBER_3_MEMBER_13_MEMBER_0_FILL">
<path fill="#C7A47E" stroke="none" d="
M 103.8 161.05
L 103.8 175.05 115.9 182.1 115.9 168.05 103.8 161.05 Z"/>
</g>

<g id="Layer0_0_MEMBER_3_MEMBER_13_MEMBER_1_FILL">
<path fill="#68B5DC" stroke="none" d="
M 104.95 163.1
L 104.95 174.4 114.75 180.05 114.75 168.75 104.95 163.1 Z"/>
</g>

<g id="Layer0_0_MEMBER_3_MEMBER_13_MEMBER_2_FILL">
<path fill="#C7A47E" stroke="none" d="
M 109.2 164.2
L 109.2 178.2 110.5 178.95 110.5 164.95 109.2 164.2 Z"/>
</g>

<g id="Layer0_0_MEMBER_3_MEMBER_13_MEMBER_3_FILL">
<path fill="#C7A47E" stroke="none" d="
M 103.8 168.8
L 115.9 175.8 115.9 174.35 103.8 167.35 103.8 168.8 Z"/>
</g>

<g id="Layer0_0_MEMBER_3_MEMBER_14_MEMBER_0_FILL">
<path fill="#AE8556" stroke="none" d="
M 141.65 135.65
L 129.5 142.65 129.5 156.7 141.65 149.7 141.65 135.65 Z"/>
</g>

<g id="Layer0_0_MEMBER_3_MEMBER_14_MEMBER_1_FILL">
<path fill="#68B5DC" stroke="none" d="
M 140.45 137.7
L 130.7 143.35 130.7 154.65 140.45 149 140.45 137.7 Z"/>
</g>

<g id="Layer0_0_MEMBER_3_MEMBER_14_MEMBER_2_FILL">
<path fill="#AE8556" stroke="none" d="
M 136.2 138.8
L 134.95 139.55 134.95 153.55 136.2 152.8 136.2 138.8 Z"/>
</g>

<g id="Layer0_0_MEMBER_3_MEMBER_14_MEMBER_3_FILL">
<path fill="#AE8556" stroke="none" d="
M 141.65 143.4
L 141.65 141.95 129.5 148.95 129.5 150.4 141.65 143.4 Z"/>
</g>

<g id="Layer0_0_MEMBER_3_MEMBER_15_MEMBER_0_FILL">
<path fill="#AE8556" stroke="none" d="
M 161.6 138.65
L 161.6 124.6 149.45 131.65 149.45 145.65 161.6 138.65 Z"/>
</g>

<g id="Layer0_0_MEMBER_3_MEMBER_15_MEMBER_1_FILL">
<path fill="#68B5DC" stroke="none" d="
M 160.4 137.95
L 160.4 126.65 150.65 132.3 150.65 143.6 160.4 137.95 Z"/>
</g>

<g id="Layer0_0_MEMBER_3_MEMBER_15_MEMBER_2_FILL">
<path fill="#AE8556" stroke="none" d="
M 156.15 141.8
L 156.15 127.75 154.9 128.5 154.9 142.5 156.15 141.8 Z"/>
</g>

<g id="Layer0_0_MEMBER_3_MEMBER_15_MEMBER_3_FILL">
<path fill="#AE8556" stroke="none" d="
M 149.45 139.35
L 161.6 132.35 161.6 130.9 149.45 137.9 149.45 139.35 Z"/>
</g>

<g id="Layer0_0_MEMBER_3_MEMBER_16_MEMBER_0_FILL">
<path fill="#C7A47E" stroke="none" d="
M 70.4 141.75
L 70.4 155.8 82.5 162.8 82.5 148.8 70.4 141.75 Z"/>
</g>

<g id="Layer0_0_MEMBER_3_MEMBER_16_MEMBER_1_FILL">
<path fill="#68B5DC" stroke="none" d="
M 71.55 143.8
L 71.55 155.1 81.35 160.75 81.35 149.45 71.55 143.8 Z"/>
</g>

<g id="Layer0_0_MEMBER_3_MEMBER_16_MEMBER_2_FILL">
<path fill="#C7A47E" stroke="none" d="
M 77.1 145.65
L 75.8 144.9 75.8 158.9 77.1 159.65 77.1 145.65 Z"/>
</g>

<g id="Layer0_0_MEMBER_3_MEMBER_16_MEMBER_3_FILL">
<path fill="#C7A47E" stroke="none" d="
M 70.4 148.05
L 70.4 149.5 82.5 156.5 82.5 155.05 70.4 148.05 Z"/>
</g>

<g id="Layer0_0_MEMBER_3_MEMBER_17_MEMBER_0_FILL">
<path fill="#EAC394" stroke="none" d="
M 103.8 134.05
L 103.8 148.05 115.9 155.1 115.9 141.05 103.8 134.05 Z"/>
</g>

<g id="Layer0_0_MEMBER_3_MEMBER_17_MEMBER_1_FILL">
<path fill="#68B5DC" stroke="none" d="
M 104.95 136.1
L 104.95 147.4 114.75 153.05 114.75 141.75 104.95 136.1 Z"/>
</g>

<g id="Layer0_0_MEMBER_3_MEMBER_17_MEMBER_2_FILL">
<path fill="#EAC394" stroke="none" d="
M 110.5 137.95
L 109.2 137.2 109.2 151.2 110.5 151.95 110.5 137.95 Z"/>
</g>

<g id="Layer0_0_MEMBER_3_MEMBER_17_MEMBER_3_FILL">
<path fill="#EAC394" stroke="none" d="
M 103.8 140.35
L 103.8 141.8 115.9 148.8 115.9 147.35 103.8 140.35 Z"/>
</g>

<g id="Layer0_0_MEMBER_3_MEMBER_18_MEMBER_0_FILL">
<path fill="#EAC394" stroke="none" d="
M 70.4 114.75
L 70.4 128.8 82.5 135.8 82.5 121.8 70.4 114.75 Z"/>
</g>

<g id="Layer0_0_MEMBER_3_MEMBER_18_MEMBER_1_FILL">
<path fill="#68B5DC" stroke="none" d="
M 71.55 116.8
L 71.55 128.1 81.35 133.75 81.35 122.45 71.55 116.8 Z"/>
</g>

<g id="Layer0_0_MEMBER_3_MEMBER_18_MEMBER_2_FILL">
<path fill="#EAC394" stroke="none" d="
M 75.8 117.9
L 75.8 131.95 77.1 132.65 77.1 118.65 75.8 117.9 Z"/>
</g>

<g id="Layer0_0_MEMBER_3_MEMBER_18_MEMBER_3_FILL">
<path fill="#EAC394" stroke="none" d="
M 70.4 121.05
L 70.4 122.5 82.5 129.5 82.5 128.05 70.4 121.05 Z"/>
</g>

<g id="Layer0_0_MEMBER_3_MEMBER_19_MEMBER_0_FILL">
<path fill="#D6B189" stroke="none" d="
M 131.65 115.35
L 131.65 125.5 155.8 111.55 155.8 101.4 143.7 86.05 131.65 115.35 Z"/>
</g>

<g id="Layer0_0_MEMBER_3_MEMBER_19_MEMBER_1_FILL">
<path fill="#FFE4C3" stroke="none" d="
M 121.85 110.25
L 131.5 125.45 131.65 125.5 131.65 115.35 121.85 109.5 121.85 110.25 Z"/>
</g>

<g id="Layer0_0_MEMBER_3_MEMBER_19_MEMBER_2_MEMBER_0_FILL">
<path fill="#AE8556" stroke="none" d="
M 141.3 103
L 141.3 111.3 148.5 107.15 148.5 98.8 141.3 103 Z"/>
</g>

<g id="Layer0_0_MEMBER_3_MEMBER_19_MEMBER_2_MEMBER_1_FILL">
<path fill="#68B5DC" stroke="none" d="
M 142 103.4
L 142 110.1 147.8 106.75 147.8 100.05 142 103.4 Z"/>
</g>

<g id="Layer0_0_MEMBER_3_MEMBER_19_MEMBER_2_MEMBER_2_FILL">
<path fill="#AE8556" stroke="none" d="
M 144.5 101.1
L 144.5 109.45 145.25 109 145.25 100.7 144.5 101.1 Z"/>
</g>

<g id="Layer0_0_MEMBER_3_MEMBER_19_MEMBER_2_MEMBER_3_FILL">
<path fill="#AE8556" stroke="none" d="
M 141.3 107.6
L 148.5 103.4 148.5 102.55 141.3 106.7 141.3 107.6 Z"/>
</g>

<g id="Layer0_0_MEMBER_3_MEMBER_19_MEMBER_3_FILL">
<path fill="#781E0B" stroke="none" d="
M 144.4 85.5
Q 144.2 85.2 143.85 85.2
L 129.15 76.95
Q 128.85 76.65 128.45 76.75 127.95 76.75 127.75 77.25
L 121.05 109.1
Q 120.9 109.45 121.05 109.75 121.15 110.1 121.5 110.25
L 131.1 116.05 131.3 116.15 131.65 116.2
Q 132.2 116.2 132.45 115.65
L 143.95 87.75 155.1 101.95
Q 155.65 102.6 156.35 102.05 156.6 101.85 156.65 101.5 156.7 101.15 156.5 100.85
L 144.4 85.5 Z"/>
</g>

<g id="Layer0_0_MEMBER_3_MEMBER_19_MEMBER_4_MEMBER_0_FILL">
<path fill="#501105" stroke="none" d="
M 143.6 85.2
Q 143.05 85.2 142.9 85.7
L 130.8 115
Q 130.55 115.8 131.3 116.15
L 131.65 116.2
Q 132.2 116.2 132.45 115.65
L 143.95 87.75 155.1 101.95
Q 155.65 102.6 156.35 102.05 156.6 101.85 156.65 101.5 156.7 101.15 156.5 100.85
L 144.4 85.5
Q 144.1 85.1 143.6 85.2 Z"/>
</g>
</defs>

<g transform="matrix( 5, 0, 0, 5, -78.25,-227.85) ">
<use xlink:href="#Layer0_0_MEMBER_0_MEMBER_0_FILL"/>
</g>

<g transform="matrix( 5, 0, 0, 5, -78.25,-227.85) ">
<use xlink:href="#Layer0_0_MEMBER_0_MEMBER_1_FILL"/>
</g>

<g transform="matrix( 5, 0, 0, 5, 614.5,699.15) ">
<use xlink:href="#Layer0_0_MEMBER_0_MEMBER_2_FILL"/>
</g>

<g transform="matrix( 5, 0, 0, 5, -78.25,-227.85) ">
<use xlink:href="#Layer0_0_MEMBER_0_MEMBER_3_FILL"/>
</g>

<g transform="matrix( 5, 0, 0, 5, -78.25,-227.85) ">
<use xlink:href="#Layer0_0_MEMBER_0_MEMBER_4_FILL"/>
</g>

<g transform="matrix( 5, 0, 0, 5, 527.5,648.65) ">
<use xlink:href="#Layer0_0_MEMBER_0_MEMBER_5_FILL"/>
</g>

<g transform="matrix( 5, 0, 0, 5, 794.75,617.65) ">
<use xlink:href="#Layer0_0_MEMBER_1_MEMBER_0_FILL"/>
</g>

<g transform="matrix( 5, 0, 0, 5, -78.25,-227.85) ">
<use xlink:href="#Layer0_0_MEMBER_1_MEMBER_1_FILL"/>
</g>

<g transform="matrix( 5, 0, 0, 5, -78.25,-227.85) ">
<use xlink:href="#Layer0_0_MEMBER_1_MEMBER_2_FILL"/>
</g>

<g transform="matrix( 5, 0, 0, 5, 160.75,618.9) ">
<use xlink:href="#Layer0_0_MEMBER_2_MEMBER_0_FILL"/>
</g>

<g transform="matrix( 5, 0, 0, 5, -78.25,-227.85) ">
<use xlink:href="#Layer0_0_MEMBER_2_MEMBER_1_FILL"/>
</g>

<g transform="matrix( 5, 0, 0, 5, -78.25,-227.85) ">
<use xlink:href="#Layer0_0_MEMBER_2_MEMBER_2_FILL"/>
</g>

<g transform="matrix( 5, 0, 0, 5, -78.25,-227.85) ">
<use xlink:href="#Layer0_0_MEMBER_3_MEMBER_0_FILL"/>
</g>

<g transform="matrix( 5, 0, 0, 5, -78.25,-227.85) ">
<use xlink:href="#Layer0_0_MEMBER_3_MEMBER_1_MEMBER_0_FILL"/>
</g>

<g transform="matrix( 5, 0, 0, 5, -78.25,-227.85) ">
<use xlink:href="#Layer0_0_MEMBER_3_MEMBER_1_MEMBER_1_FILL"/>
</g>

<g transform="matrix( 5, 0, 0, 5, -78.25,-227.85) ">
<use xlink:href="#Layer0_0_MEMBER_3_MEMBER_1_MEMBER_2_FILL"/>
</g>

<g transform="matrix( 5, 0, 0, 5, -78.25,-227.85) ">
<use xlink:href="#Layer0_0_MEMBER_3_MEMBER_1_MEMBER_3_FILL"/>
</g>

<g transform="matrix( 5, 0, 0, 5, -78.25,-227.85) ">
<use xlink:href="#Layer0_0_MEMBER_3_MEMBER_2_FILL"/>
</g>

<g transform="matrix( 5, 0, 0, 5, -78.25,-227.85) ">
<use xlink:href="#Layer0_0_MEMBER_3_MEMBER_3_FILL"/>
</g>

<g transform="matrix( 5, 0, 0, 5, -78.25,-227.85) ">
<use xlink:href="#Layer0_0_MEMBER_3_MEMBER_4_FILL"/>
</g>

<g transform="matrix( 5, 0, 0, 5, -78.25,-227.85) ">
<use xlink:href="#Layer0_0_MEMBER_3_MEMBER_5_FILL"/>
</g>

<g transform="matrix( 5, 0, 0, 5, -78.25,-227.85) ">
<use xlink:href="#Layer0_0_MEMBER_3_MEMBER_6_FILL"/>
</g>

<g transform="matrix( 5, 0, 0, 5, -78.25,-227.85) ">
<use xlink:href="#Layer0_0_MEMBER_3_MEMBER_7_MEMBER_0_FILL"/>
</g>

<g transform="matrix( 5, 0, 0, 5, -78.25,-227.85) ">
<use xlink:href="#Layer0_0_MEMBER_3_MEMBER_7_MEMBER_1_FILL"/>
</g>

<g transform="matrix( 5, 0, 0, 5, -78.25,-227.85) ">
<use xlink:href="#Layer0_0_MEMBER_3_MEMBER_8_FILL"/>
</g>

<g transform="matrix( 5, 0, 0, 5, -78.25,-227.85) ">
<use xlink:href="#Layer0_0_MEMBER_3_MEMBER_9_FILL"/>
</g>

<g transform="matrix( 5, 0, 0, 5, -78.25,-227.85) ">
<use xlink:href="#Layer0_0_MEMBER_3_MEMBER_10_MEMBER_0_MEMBER_0_FILL"/>
</g>

<g transform="matrix( 5, 0, 0, 5, -78.25,-227.85) ">
<use xlink:href="#Layer0_0_MEMBER_3_MEMBER_10_MEMBER_0_MEMBER_1_FILL"/>
</g>

<g transform="matrix( 5, 0, 0, 5, -78.25,-227.85) ">
<use xlink:href="#Layer0_0_MEMBER_3_MEMBER_10_MEMBER_1_MEMBER_0_FILL"/>
</g>

<g transform="matrix( 5, 0, 0, 5, -78.25,-227.85) ">
<use xlink:href="#Layer0_0_MEMBER_3_MEMBER_10_MEMBER_1_MEMBER_1_FILL"/>
</g>

<g transform="matrix( 5, 0, 0, 5, -78.25,-227.85) ">
<use xlink:href="#Layer0_0_MEMBER_3_MEMBER_10_MEMBER_1_MEMBER_2_FILL"/>
</g>

<g transform="matrix( 5, 0, 0, 5, -78.25,-227.85) ">
<use xlink:href="#Layer0_0_MEMBER_3_MEMBER_10_MEMBER_1_MEMBER_3_FILL"/>
</g>

<g transform="matrix( 5, 0, 0, 5, -78.25,-227.85) ">
<use xlink:href="#Layer0_0_MEMBER_3_MEMBER_10_MEMBER_1_MEMBER_4_FILL"/>
</g>

<g transform="matrix( 5, 0, 0, 5, -78.25,-227.85) ">
<use xlink:href="#Layer0_0_MEMBER_3_MEMBER_11_MEMBER_0_FILL"/>
</g>

<g transform="matrix( 5, 0, 0, 5, -78.25,-227.85) ">
<use xlink:href="#Layer0_0_MEMBER_3_MEMBER_12_MEMBER_0_FILL"/>
</g>

<g transform="matrix( 5, 0, 0, 5, -78.25,-227.85) ">
<use xlink:href="#Layer0_0_MEMBER_3_MEMBER_12_MEMBER_1_FILL"/>
</g>

<g transform="matrix( 5, 0, 0, 5, -78.25,-227.85) ">
<use xlink:href="#Layer0_0_MEMBER_3_MEMBER_12_MEMBER_2_MEMBER_0_FILL"/>
</g>

<g transform="matrix( 5, 0, 0, 5, -78.25,-227.85) ">
<use xlink:href="#Layer0_0_MEMBER_3_MEMBER_12_MEMBER_2_MEMBER_1_FILL"/>
</g>

<g transform="matrix( 5, 0, 0, 5, -78.25,-227.85) ">
<use xlink:href="#Layer0_0_MEMBER_3_MEMBER_12_MEMBER_2_MEMBER_2_FILL"/>
</g>

<g transform="matrix( 5, 0, 0, 5, -78.25,-227.85) ">
<use xlink:href="#Layer0_0_MEMBER_3_MEMBER_12_MEMBER_2_MEMBER_3_FILL"/>
</g>

<g transform="matrix( 5, 0, 0, 5, -78.25,-227.85) ">
<use xlink:href="#Layer0_0_MEMBER_3_MEMBER_13_MEMBER_0_FILL"/>
</g>

<g transform="matrix( 5, 0, 0, 5, -78.25,-227.85) ">
<use xlink:href="#Layer0_0_MEMBER_3_MEMBER_13_MEMBER_1_FILL"/>
</g>

<g transform="matrix( 5, 0, 0, 5, -78.25,-227.85) ">
<use xlink:href="#Layer0_0_MEMBER_3_MEMBER_13_MEMBER_2_FILL"/>
</g>

<g transform="matrix( 5, 0, 0, 5, -78.25,-227.85) ">
<use xlink:href="#Layer0_0_MEMBER_3_MEMBER_13_MEMBER_3_FILL"/>
</g>

<g transform="matrix( 5, 0, 0, 5, -78.25,-227.85) ">
<use xlink:href="#Layer0_0_MEMBER_3_MEMBER_14_MEMBER_0_FILL"/>
</g>

<g transform="matrix( 5, 0, 0, 5, -78.25,-227.85) ">
<use xlink:href="#Layer0_0_MEMBER_3_MEMBER_14_MEMBER_1_FILL"/>
</g>

<g transform="matrix( 5, 0, 0, 5, -78.25,-227.85) ">
<use xlink:href="#Layer0_0_MEMBER_3_MEMBER_14_MEMBER_2_FILL"/>
</g>

<g transform="matrix( 5, 0, 0, 5, -78.25,-227.85) ">
<use xlink:href="#Layer0_0_MEMBER_3_MEMBER_14_MEMBER_3_FILL"/>
</g>

<g transform="matrix( 5, 0, 0, 5, -78.25,-227.85) ">
<use xlink:href="#Layer0_0_MEMBER_3_MEMBER_15_MEMBER_0_FILL"/>
</g>

<g transform="matrix( 5, 0, 0, 5, -78.25,-227.85) ">
<use xlink:href="#Layer0_0_MEMBER_3_MEMBER_15_MEMBER_1_FILL"/>
</g>

<g transform="matrix( 5, 0, 0, 5, -78.25,-227.85) ">
<use xlink:href="#Layer0_0_MEMBER_3_MEMBER_15_MEMBER_2_FILL"/>
</g>

<g transform="matrix( 5, 0, 0, 5, -78.25,-227.85) ">
<use xlink:href="#Layer0_0_MEMBER_3_MEMBER_15_MEMBER_3_FILL"/>
</g>

<g transform="matrix( 5, 0, 0, 5, -78.25,-227.85) ">
<use xlink:href="#Layer0_0_MEMBER_3_MEMBER_16_MEMBER_0_FILL"/>
</g>

<g transform="matrix( 5, 0, 0, 5, -78.25,-227.85) ">
<use xlink:href="#Layer0_0_MEMBER_3_MEMBER_16_MEMBER_1_FILL"/>
</g>

<g transform="matrix( 5, 0, 0, 5, -78.25,-227.85) ">
<use xlink:href="#Layer0_0_MEMBER_3_MEMBER_16_MEMBER_2_FILL"/>
</g>

<g transform="matrix( 5, 0, 0, 5, -78.25,-227.85) ">
<use xlink:href="#Layer0_0_MEMBER_3_MEMBER_16_MEMBER_3_FILL"/>
</g>

<g transform="matrix( 5, 0, 0, 5, -78.25,-227.85) ">
<use xlink:href="#Layer0_0_MEMBER_3_MEMBER_17_MEMBER_0_FILL"/>
</g>

<g transform="matrix( 5, 0, 0, 5, -78.25,-227.85) ">
<use xlink:href="#Layer0_0_MEMBER_3_MEMBER_17_MEMBER_1_FILL"/>
</g>

<g transform="matrix( 5, 0, 0, 5, -78.25,-227.85) ">
<use xlink:href="#Layer0_0_MEMBER_3_MEMBER_17_MEMBER_2_FILL"/>
</g>

<g transform="matrix( 5, 0, 0, 5, -78.25,-227.85) ">
<use xlink:href="#Layer0_0_MEMBER_3_MEMBER_17_MEMBER_3_FILL"/>
</g>

<g transform="matrix( 5, 0, 0, 5, -78.25,-227.85) ">
<use xlink:href="#Layer0_0_MEMBER_3_MEMBER_18_MEMBER_0_FILL"/>
</g>

<g transform="matrix( 5, 0, 0, 5, -78.25,-227.85) ">
<use xlink:href="#Layer0_0_MEMBER_3_MEMBER_18_MEMBER_1_FILL"/>
</g>

<g transform="matrix( 5, 0, 0, 5, -78.25,-227.85) ">
<use xlink:href="#Layer0_0_MEMBER_3_MEMBER_18_MEMBER_2_FILL"/>
</g>

<g transform="matrix( 5, 0, 0, 5, -78.25,-227.85) ">
<use xlink:href="#Layer0_0_MEMBER_3_MEMBER_18_MEMBER_3_FILL"/>
</g>

<g transform="matrix( 5, 0, 0, 5, -78.25,-227.85) ">
<use xlink:href="#Layer0_0_MEMBER_3_MEMBER_19_MEMBER_0_FILL"/>
</g>

<g transform="matrix( 5, 0, 0, 5, -78.25,-227.85) ">
<use xlink:href="#Layer0_0_MEMBER_3_MEMBER_19_MEMBER_1_FILL"/>
</g>

<g transform="matrix( 5, 0, 0, 5, -78.25,-227.85) ">
<use xlink:href="#Layer0_0_MEMBER_3_MEMBER_19_MEMBER_2_MEMBER_0_FILL"/>
</g>

<g transform="matrix( 5, 0, 0, 5, -78.25,-227.85) ">
<use xlink:href="#Layer0_0_MEMBER_3_MEMBER_19_MEMBER_2_MEMBER_1_FILL"/>
</g>

<g transform="matrix( 5, 0, 0, 5, -78.25,-227.85) ">
<use xlink:href="#Layer0_0_MEMBER_3_MEMBER_19_MEMBER_2_MEMBER_2_FILL"/>
</g>

<g transform="matrix( 5, 0, 0, 5, -78.25,-227.85) ">
<use xlink:href="#Layer0_0_MEMBER_3_MEMBER_19_MEMBER_2_MEMBER_3_FILL"/>
</g>

<g transform="matrix( 5, 0, 0, 5, -78.25,-227.85) ">
<use xlink:href="#Layer0_0_MEMBER_3_MEMBER_19_MEMBER_3_FILL"/>
</g>

<g transform="matrix( 5, 0, 0, 5, -78.25,-227.85) ">
<use xlink:href="#Layer0_0_MEMBER_3_MEMBER_19_MEMBER_4_MEMBER_0_FILL"/>
</g>
</svg>
