
<svg xmlns="http://www.w3.org/2000/svg" version="1.1" xmlns:xlink="http://www.w3.org/1999/xlink" preserveAspectRatio="none" x="0px" y="0px" width="1024px" height="1024px" viewBox="0 0 1024 1024">
<defs>
<g id="Layer0_0_MEMBER_0_MEMBER_0_FILL">
<path fill="#AA7B61" stroke="none" d="
M 251.75 215.9
Q 249.95 214.85 248.15 215.9
L 184.4 252.7
Q 182.6 253.75 182.6 255.85
L 182.6 264.1
Q 182.6 266.2 184.4 267.25
L 248.15 304.05
Q 249 304.55 249.95 304.55 250.95 304.55 251.75 304.05
L 315.5 267.25
Q 317.3 266.2 317.3 264.1
L 317.3 255.85
Q 317.3 253.75 315.5 252.7
L 251.75 215.9 Z"/>
</g>

<g id="Layer0_0_MEMBER_0_MEMBER_1_FILL">
<path fill="#8C644F" stroke="none" d="
M 251.75 216.95
Q 249.95 215.9 248.15 216.95
L 184.4 253.75
Q 182.6 254.8 182.6 256.9
L 182.6 259.75
Q 182.6 261.85 184.4 262.9
L 248.15 299.7
Q 249 300.2 249.95 300.2 250.95 300.2 251.75 299.7
L 315.5 262.9
Q 317.3 261.85 317.3 259.75
L 317.3 256.9
Q 317.3 254.8 315.5 253.75
L 251.75 216.95 Z"/>
</g>

<g id="Layer0_0_MEMBER_0_MEMBER_2_FILL">
<path fill="#96AD41" stroke="none" d="
M 251.75 215.9
Q 249.95 214.85 248.15 215.9
L 184.4 252.7
Q 182.6 253.75 182.6 255.85
L 182.6 258.75
Q 182.6 260.8 184.4 261.85
L 248.15 298.65
Q 249 299.15 249.95 299.15 250.95 299.15 251.75 298.65
L 315.5 261.85
Q 317.3 260.8 317.3 258.75
L 317.3 255.85
Q 317.3 253.75 315.5 252.7
L 251.75 215.9 Z"/>
</g>

<g id="Layer0_0_MEMBER_0_MEMBER_3_FILL">
<path fill="#829637" stroke="none" d="
M 251.75 215.9
Q 249.95 214.85 248.15 215.9
L 184.4 252.7
Q 182.6 253.75 182.6 255.85
L 182.6 256.55
Q 182.6 258.65 184.4 259.7
L 248.15 296.5
Q 249 297 249.95 297 250.95 297 251.75 296.5
L 315.5 259.7
Q 317.3 258.65 317.3 256.55
L 317.3 255.85
Q 317.3 253.75 315.5 252.7
L 251.75 215.9 Z"/>
</g>

<g id="Layer0_0_MEMBER_0_MEMBER_4_FILL">
<path fill="#000000" fill-opacity="0.2" stroke="none" d="
M 0 13.65
L 1.1 14.3
Q 1.95 14.8 2.9 14.8 3.9 14.8 4.7 14.3
L 5.8 13.65 5.8 0 0 0 0 13.65 Z"/>
</g>

<g id="Layer0_0_MEMBER_0_MEMBER_5_FILL">
<path fill="#B4CC59" stroke="none" d="
M 251.75 215.9
Q 249.95 214.85 248.15 215.9
L 184.4 252.7
Q 182.6 253.75 182.6 255.85 182.6 257.95 184.4 259
L 248.15 295.75
Q 249 296.25 249.95 296.25 250.95 296.25 251.75 295.75
L 315.5 259
Q 317.3 257.95 317.3 255.85 317.3 253.75 315.5 252.7
L 251.75 215.9 Z"/>
</g>

<g id="Layer0_0_MEMBER_1_FILL">
<path fill="#DDE6C0" stroke="none" d="
M 238.55 259.35
L 229.5 252.85 201.65 268.95 211.8 274.8 238.55 259.35 Z"/>
</g>

<g id="Layer0_0_MEMBER_2_MEMBER_0_FILL">
<path fill="#FFECC9" stroke="none" d="
M 231.6 211.95
L 210.4 199.7 210.4 260.05 231.6 272.3 231.6 211.95 Z"/>
</g>

<g id="Layer0_0_MEMBER_2_MEMBER_1_FILL">
<path fill="#FAEFDD" stroke="none" d="
M 273.95 187.45
L 252.75 175.25 210.4 199.7 231.6 211.95 273.95 187.45 Z"/>
</g>

<g id="Layer0_0_MEMBER_2_MEMBER_2_FILL">
<path fill="#A9C0B3" stroke="none" d="
M 231.6 272.3
L 231.6 256.75 210.4 244.5 210.4 260.05 231.6 272.3 Z"/>
</g>

<g id="Layer0_0_MEMBER_2_MEMBER_3_FILL">
<path fill="#E6CAA4" stroke="none" d="
M 231.6 211.95
L 231.6 272.3 274 247.85 274 187.45 231.6 211.95 Z"/>
</g>

<g id="Layer0_0_MEMBER_2_MEMBER_4_FILL">
<path fill="#8A9D92" stroke="none" d="
M 274 247.85
L 274 232.3 231.6 256.75 231.6 272.3 274 247.85 Z"/>
</g>

<g id="Layer0_0_MEMBER_2_MEMBER_5_MEMBER_0_FILL">
<path fill="#FFECC9" stroke="none" d="
M 261.15 279.85
L 261.15 249.65 239.95 228.55 239.95 267.6 261.15 279.85 Z"/>
</g>

<g id="Layer0_0_MEMBER_2_MEMBER_5_MEMBER_1_FILL">
<path fill="#A9C0B3" stroke="none" d="
M 261.15 279.85
L 261.15 264.3 239.95 252.05 239.95 267.6 261.15 279.85 Z"/>
</g>

<g id="Layer0_0_MEMBER_2_MEMBER_5_MEMBER_2_FILL">
<path fill="#E6CAA4" stroke="none" d="
M 261.15 249.65
L 261.15 279.85 288.1 264.4 288.1 234.25 261.15 249.65 Z"/>
</g>

<g id="Layer0_0_MEMBER_2_MEMBER_5_MEMBER_3_FILL">
<path fill="#8A9D92" stroke="none" d="
M 261.15 264.3
L 261.15 279.85 288.1 264.4 288.1 248.85 261.15 264.3 Z"/>
</g>

<g id="Layer0_0_MEMBER_2_MEMBER_6_MEMBER_0_FILL">
<path fill="#AF5541" stroke="none" d="
M 224.25 240.3
L 224.25 229.55 223.45 230.15 223.45 240.9 224.25 240.3 Z"/>
</g>

<g id="Layer0_0_MEMBER_2_MEMBER_6_MEMBER_1_FILL">
<path fill="#DB8E7F" stroke="none" d="
M 214.1 224.75
L 223.45 230.15 224.25 229.55 214.95 224.15 214.1 224.75 Z"/>
</g>

<g id="Layer0_0_MEMBER_2_MEMBER_6_MEMBER_2_FILL">
<path fill="#D96B55" stroke="none" d="
M 223.45 240.9
L 223.45 230.15 214.1 224.75 214.1 235.55 223.45 240.9 Z"/>
</g>

<g id="Layer0_0_MEMBER_2_MEMBER_6_MEMBER_3_FILL">
<path fill="#85CDD2" stroke="none" d="
M 222.5 239.35
L 222.5 230.65 215 226.35 215 235 222.5 239.35 Z"/>
</g>

<g id="Layer0_0_MEMBER_2_MEMBER_6_MEMBER_4_FILL">
<path fill="#D96B55" stroke="none" d="
M 219.25 238.5
L 219.25 227.75 218.3 227.15 218.3 237.95 219.25 238.5 Z"/>
</g>

<g id="Layer0_0_MEMBER_2_MEMBER_6_MEMBER_5_FILL">
<path fill="#D96B55" stroke="none" d="
M 214.1 230.7
L 223.45 236.1 223.45 234.95 214.1 229.6 214.1 230.7 Z"/>
</g>

<g id="Layer0_0_MEMBER_2_MEMBER_7_MEMBER_0_FILL">
<path fill="#D96B55" stroke="none" d="
M 236.7 214.65
L 236.7 225.45 237.55 226.05 237.55 215.25 236.7 214.65 Z"/>
</g>

<g id="Layer0_0_MEMBER_2_MEMBER_7_MEMBER_1_FILL">
<path fill="#DB8E7F" stroke="none" d="
M 246.9 209.9
L 246.05 209.3 236.7 214.65 237.55 215.25 246.9 209.9 Z"/>
</g>

<g id="Layer0_0_MEMBER_2_MEMBER_7_MEMBER_2_FILL">
<path fill="#AF5541" stroke="none" d="
M 246.9 220.65
L 246.9 209.9 237.55 215.25 237.55 226.05 246.9 220.65 Z"/>
</g>

<g id="Layer0_0_MEMBER_2_MEMBER_7_MEMBER_3_FILL">
<path fill="#85CDD2" stroke="none" d="
M 245.95 220.15
L 245.95 211.45 238.45 215.8 238.45 224.45 245.95 220.15 Z"/>
</g>

<g id="Layer0_0_MEMBER_2_MEMBER_7_MEMBER_4_FILL">
<path fill="#AF5541" stroke="none" d="
M 241.75 212.85
L 241.75 223.65 242.7 223.05 242.7 212.3 241.75 212.85 Z"/>
</g>

<g id="Layer0_0_MEMBER_2_MEMBER_7_MEMBER_5_FILL">
<path fill="#AF5541" stroke="none" d="
M 246.9 215.85
L 246.9 214.7 237.55 220.1 237.55 221.2 246.9 215.85 Z"/>
</g>

<g id="Layer0_0_MEMBER_2_MEMBER_8_MEMBER_0_FILL">
<path fill="#D96B55" stroke="none" d="
M 248.75 207.85
L 248.75 218.65 249.6 219.25 249.6 208.5 248.75 207.85 Z"/>
</g>

<g id="Layer0_0_MEMBER_2_MEMBER_8_MEMBER_1_FILL">
<path fill="#DB8E7F" stroke="none" d="
M 249.6 208.5
L 258.95 203.1 258.1 202.5 248.75 207.85 249.6 208.5 Z"/>
</g>

<g id="Layer0_0_MEMBER_2_MEMBER_8_MEMBER_2_FILL">
<path fill="#AF5541" stroke="none" d="
M 249.6 208.5
L 249.6 219.25 258.95 213.85 258.95 203.1 249.6 208.5 Z"/>
</g>

<g id="Layer0_0_MEMBER_2_MEMBER_8_MEMBER_3_FILL">
<path fill="#85CDD2" stroke="none" d="
M 250.5 209
L 250.5 217.65 258.05 213.35 258.05 204.65 250.5 209 Z"/>
</g>

<g id="Layer0_0_MEMBER_2_MEMBER_8_MEMBER_4_FILL">
<path fill="#AF5541" stroke="none" d="
M 253.8 206.05
L 253.8 216.85 254.75 216.25 254.75 205.5 253.8 206.05 Z"/>
</g>

<g id="Layer0_0_MEMBER_2_MEMBER_8_MEMBER_5_FILL">
<path fill="#AF5541" stroke="none" d="
M 249.6 214.4
L 258.95 209.05 258.95 207.9 249.6 213.3 249.6 214.4 Z"/>
</g>

<g id="Layer0_0_MEMBER_2_MEMBER_9_MEMBER_0_FILL">
<path fill="#D96B55" stroke="none" d="
M 271.3 247.55
L 271.3 255.15 271.9 255.6 271.9 247.95 271.3 247.55 Z"/>
</g>

<g id="Layer0_0_MEMBER_2_MEMBER_9_MEMBER_1_FILL">
<path fill="#DB8E7F" stroke="none" d="
M 278.55 244.15
L 277.95 243.7 271.3 247.55 271.9 247.95 278.55 244.15 Z"/>
</g>

<g id="Layer0_0_MEMBER_2_MEMBER_9_MEMBER_2_FILL">
<path fill="#AF5541" stroke="none" d="
M 271.9 247.95
L 271.9 255.6 278.55 251.8 278.55 244.15 271.9 247.95 Z"/>
</g>

<g id="Layer0_0_MEMBER_2_MEMBER_9_MEMBER_3_FILL">
<path fill="#85CDD2" stroke="none" d="
M 272.55 248.35
L 272.55 254.5 277.9 251.4 277.9 245.25 272.55 248.35 Z"/>
</g>

<g id="Layer0_0_MEMBER_2_MEMBER_9_MEMBER_4_FILL">
<path fill="#AF5541" stroke="none" d="
M 275.55 245.85
L 274.9 246.25 274.9 253.9 275.55 253.5 275.55 245.85 Z"/>
</g>

<g id="Layer0_0_MEMBER_2_MEMBER_9_MEMBER_5_FILL">
<path fill="#AF5541" stroke="none" d="
M 271.9 252.2
L 278.55 248.35 278.55 247.55 271.9 251.4 271.9 252.2 Z"/>
</g>

<g id="Layer0_0_MEMBER_2_MEMBER_10_MEMBER_0_FILL">
<path fill="#D96B55" stroke="none" d="
M 280.05 243.4
L 279.45 243 279.45 250.65 280.05 251.05 280.05 243.4 Z"/>
</g>

<g id="Layer0_0_MEMBER_2_MEMBER_10_MEMBER_1_FILL">
<path fill="#DB8E7F" stroke="none" d="
M 286.65 239.6
L 286.05 239.15 279.45 243 280.05 243.4 286.65 239.6 Z"/>
</g>

<g id="Layer0_0_MEMBER_2_MEMBER_10_MEMBER_2_FILL">
<path fill="#AF5541" stroke="none" d="
M 286.65 247.25
L 286.65 239.6 280.05 243.4 280.05 251.05 286.65 247.25 Z"/>
</g>

<g id="Layer0_0_MEMBER_2_MEMBER_10_MEMBER_3_FILL">
<path fill="#85CDD2" stroke="none" d="
M 286 246.85
L 286 240.7 280.65 243.8 280.65 249.95 286 246.85 Z"/>
</g>

<g id="Layer0_0_MEMBER_2_MEMBER_10_MEMBER_4_FILL">
<path fill="#AF5541" stroke="none" d="
M 283 241.7
L 283 249.35 283.7 248.95 283.7 241.3 283 241.7 Z"/>
</g>

<g id="Layer0_0_MEMBER_2_MEMBER_10_MEMBER_5_FILL">
<path fill="#AF5541" stroke="none" d="
M 286.65 243.8
L 286.65 243 280.05 246.85 280.05 247.65 286.65 243.8 Z"/>
</g>

<g id="Layer0_0_MEMBER_2_MEMBER_11_MEMBER_0_FILL">
<path fill="#D96B55" stroke="none" d="
M 263.2 252.05
L 263.2 259.7 263.8 260.15 263.8 252.5 263.2 252.05 Z"/>
</g>

<g id="Layer0_0_MEMBER_2_MEMBER_11_MEMBER_1_FILL">
<path fill="#DB8E7F" stroke="none" d="
M 263.8 252.5
L 270.4 248.65 269.85 248.25 263.2 252.05 263.8 252.5 Z"/>
</g>

<g id="Layer0_0_MEMBER_2_MEMBER_11_MEMBER_2_FILL">
<path fill="#AF5541" stroke="none" d="
M 263.8 252.5
L 263.8 260.15 270.4 256.3 270.4 248.65 263.8 252.5 Z"/>
</g>

<g id="Layer0_0_MEMBER_2_MEMBER_11_MEMBER_3_FILL">
<path fill="#85CDD2" stroke="none" d="
M 264.45 252.85
L 264.45 259 269.8 255.95 269.8 249.8 264.45 252.85 Z"/>
</g>

<g id="Layer0_0_MEMBER_2_MEMBER_11_MEMBER_4_FILL">
<path fill="#AF5541" stroke="none" d="
M 266.75 250.8
L 266.75 258.45 267.45 258.05 267.45 250.4 266.75 250.8 Z"/>
</g>

<g id="Layer0_0_MEMBER_2_MEMBER_11_MEMBER_5_FILL">
<path fill="#AF5541" stroke="none" d="
M 263.8 256.7
L 270.4 252.9 270.4 252.1 263.8 255.9 263.8 256.7 Z"/>
</g>

<g id="Layer0_0_MEMBER_2_MEMBER_12_MEMBER_0_FILL">
<path fill="#D96B55" stroke="none" d="
M 260.85 201.1
L 260.85 211.85 261.65 212.45 261.65 201.7 260.85 201.1 Z"/>
</g>

<g id="Layer0_0_MEMBER_2_MEMBER_12_MEMBER_1_FILL">
<path fill="#DB8E7F" stroke="none" d="
M 271 196.3
L 270.15 195.7 260.85 201.1 261.65 201.7 271 196.3 Z"/>
</g>

<g id="Layer0_0_MEMBER_2_MEMBER_12_MEMBER_2_FILL">
<path fill="#AF5541" stroke="none" d="
M 261.65 201.7
L 261.65 212.45 271 207.05 271 196.3 261.65 201.7 Z"/>
</g>

<g id="Layer0_0_MEMBER_2_MEMBER_12_MEMBER_3_FILL">
<path fill="#85CDD2" stroke="none" d="
M 262.6 202.2
L 262.6 210.9 270.1 206.55 270.1 197.85 262.6 202.2 Z"/>
</g>

<g id="Layer0_0_MEMBER_2_MEMBER_12_MEMBER_4_FILL">
<path fill="#AF5541" stroke="none" d="
M 265.85 199.25
L 265.85 210.05 266.8 209.5 266.8 198.7 265.85 199.25 Z"/>
</g>

<g id="Layer0_0_MEMBER_2_MEMBER_12_MEMBER_5_FILL">
<path fill="#AF5541" stroke="none" d="
M 261.65 207.65
L 271 202.25 271 201.1 261.65 206.5 261.65 207.65 Z"/>
</g>

<g id="Layer0_0_MEMBER_2_MEMBER_13_MEMBER_0_FILL">
<path fill="#AF5541" stroke="none" d="
M 224.25 224.85
L 224.25 214.05 223.45 214.7 223.45 225.45 224.25 224.85 Z"/>
</g>

<g id="Layer0_0_MEMBER_2_MEMBER_13_MEMBER_1_FILL">
<path fill="#DB8E7F" stroke="none" d="
M 214.1 209.3
L 223.45 214.7 224.25 214.05 214.95 208.7 214.1 209.3 Z"/>
</g>

<g id="Layer0_0_MEMBER_2_MEMBER_13_MEMBER_2_FILL">
<path fill="#D96B55" stroke="none" d="
M 223.45 225.45
L 223.45 214.7 214.1 209.3 214.1 220.05 223.45 225.45 Z"/>
</g>

<g id="Layer0_0_MEMBER_2_MEMBER_13_MEMBER_3_FILL">
<path fill="#85CDD2" stroke="none" d="
M 222.5 223.85
L 222.5 215.2 215 210.85 215 219.55 222.5 223.85 Z"/>
</g>

<g id="Layer0_0_MEMBER_2_MEMBER_13_MEMBER_4_FILL">
<path fill="#D96B55" stroke="none" d="
M 219.25 223.05
L 219.25 212.25 218.3 211.7 218.3 222.45 219.25 223.05 Z"/>
</g>

<g id="Layer0_0_MEMBER_2_MEMBER_13_MEMBER_5_FILL">
<path fill="#D96B55" stroke="none" d="
M 214.1 215.25
L 223.45 220.6 223.45 219.5 214.1 214.1 214.1 215.25 Z"/>
</g>

<g id="Layer0_0_MEMBER_2_MEMBER_14_MEMBER_0_FILL">
<path fill="#FFFFFF" stroke="none" d="
M 223.9 246.8
L 213.6 240.85 213.6 261.95 223.9 267.85 223.9 246.8 Z"/>
</g>

<g id="Layer0_0_MEMBER_2_MEMBER_15_FILL">
<path fill="#D96B55" stroke="none" d="
M 261.15 249.65
L 288.1 234.2 266.9 213.05 239.95 228.55 261.15 249.65 Z"/>
</g>

<g id="Layer0_0_MEMBER_2_MEMBER_16_FILL">
<path fill="#AF5541" stroke="none" d="
M 288.1 234.2
L 287.45 233.55 261.55 248.45 241 227.95 239.95 228.55 261.15 249.65 288.1 234.2 Z"/>
</g>
</defs>

<g transform="matrix( 7, 0, 0, 7, -1237.65,-1167.3) ">
<use xlink:href="#Layer0_0_MEMBER_0_MEMBER_0_FILL"/>
</g>

<g transform="matrix( 7, 0, 0, 7, -1237.65,-1167.3) ">
<use xlink:href="#Layer0_0_MEMBER_0_MEMBER_1_FILL"/>
</g>

<g transform="matrix( 7, 0, 0, 7, -1237.65,-1167.3) ">
<use xlink:href="#Layer0_0_MEMBER_0_MEMBER_2_FILL"/>
</g>

<g transform="matrix( 7, 0, 0, 7, -1237.65,-1167.3) ">
<use xlink:href="#Layer0_0_MEMBER_0_MEMBER_3_FILL"/>
</g>

<g transform="matrix( 7, 0, 0, 7, 491.7,860.95) ">
<use xlink:href="#Layer0_0_MEMBER_0_MEMBER_4_FILL"/>
</g>

<g transform="matrix( 7, 0, 0, 7, -1237.65,-1167.3) ">
<use xlink:href="#Layer0_0_MEMBER_0_MEMBER_5_FILL"/>
</g>

<g transform="matrix( 7, 0, 0, 7, -1237.65,-1167.3) ">
<use xlink:href="#Layer0_0_MEMBER_1_FILL"/>
</g>

<g transform="matrix( 7, 0, 0, 7, -1237.65,-1167.3) ">
<use xlink:href="#Layer0_0_MEMBER_2_MEMBER_0_FILL"/>
</g>

<g transform="matrix( 7, 0, 0, 7, -1237.65,-1167.3) ">
<use xlink:href="#Layer0_0_MEMBER_2_MEMBER_1_FILL"/>
</g>

<g transform="matrix( 7, 0, 0, 7, -1237.65,-1167.3) ">
<use xlink:href="#Layer0_0_MEMBER_2_MEMBER_2_FILL"/>
</g>

<g transform="matrix( 7, 0, 0, 7, -1237.65,-1167.3) ">
<use xlink:href="#Layer0_0_MEMBER_2_MEMBER_3_FILL"/>
</g>

<g transform="matrix( 7, 0, 0, 7, -1237.65,-1167.3) ">
<use xlink:href="#Layer0_0_MEMBER_2_MEMBER_4_FILL"/>
</g>

<g transform="matrix( 7, 0, 0, 7, -1237.65,-1167.3) ">
<use xlink:href="#Layer0_0_MEMBER_2_MEMBER_5_MEMBER_0_FILL"/>
</g>

<g transform="matrix( 7, 0, 0, 7, -1237.65,-1167.3) ">
<use xlink:href="#Layer0_0_MEMBER_2_MEMBER_5_MEMBER_1_FILL"/>
</g>

<g transform="matrix( 7, 0, 0, 7, -1237.65,-1167.3) ">
<use xlink:href="#Layer0_0_MEMBER_2_MEMBER_5_MEMBER_2_FILL"/>
</g>

<g transform="matrix( 7, 0, 0, 7, -1237.65,-1167.3) ">
<use xlink:href="#Layer0_0_MEMBER_2_MEMBER_5_MEMBER_3_FILL"/>
</g>

<g transform="matrix( 7, 0, 0, 7, -1237.65,-1167.3) ">
<use xlink:href="#Layer0_0_MEMBER_2_MEMBER_6_MEMBER_0_FILL"/>
</g>

<g transform="matrix( 7, 0, 0, 7, -1237.65,-1167.3) ">
<use xlink:href="#Layer0_0_MEMBER_2_MEMBER_6_MEMBER_1_FILL"/>
</g>

<g transform="matrix( 7, 0, 0, 7, -1237.65,-1167.3) ">
<use xlink:href="#Layer0_0_MEMBER_2_MEMBER_6_MEMBER_2_FILL"/>
</g>

<g transform="matrix( 7, 0, 0, 7, -1237.65,-1167.3) ">
<use xlink:href="#Layer0_0_MEMBER_2_MEMBER_6_MEMBER_3_FILL"/>
</g>

<g transform="matrix( 7, 0, 0, 7, -1237.65,-1167.3) ">
<use xlink:href="#Layer0_0_MEMBER_2_MEMBER_6_MEMBER_4_FILL"/>
</g>

<g transform="matrix( 7, 0, 0, 7, -1237.65,-1167.3) ">
<use xlink:href="#Layer0_0_MEMBER_2_MEMBER_6_MEMBER_5_FILL"/>
</g>

<g transform="matrix( 7, 0, 0, 7, -1237.65,-1167.3) ">
<use xlink:href="#Layer0_0_MEMBER_2_MEMBER_7_MEMBER_0_FILL"/>
</g>

<g transform="matrix( 7, 0, 0, 7, -1237.65,-1167.3) ">
<use xlink:href="#Layer0_0_MEMBER_2_MEMBER_7_MEMBER_1_FILL"/>
</g>

<g transform="matrix( 7, 0, 0, 7, -1237.65,-1167.3) ">
<use xlink:href="#Layer0_0_MEMBER_2_MEMBER_7_MEMBER_2_FILL"/>
</g>

<g transform="matrix( 7, 0, 0, 7, -1237.65,-1167.3) ">
<use xlink:href="#Layer0_0_MEMBER_2_MEMBER_7_MEMBER_3_FILL"/>
</g>

<g transform="matrix( 7, 0, 0, 7, -1237.65,-1167.3) ">
<use xlink:href="#Layer0_0_MEMBER_2_MEMBER_7_MEMBER_4_FILL"/>
</g>

<g transform="matrix( 7, 0, 0, 7, -1237.65,-1167.3) ">
<use xlink:href="#Layer0_0_MEMBER_2_MEMBER_7_MEMBER_5_FILL"/>
</g>

<g transform="matrix( 7, 0, 0, 7, -1237.65,-1167.3) ">
<use xlink:href="#Layer0_0_MEMBER_2_MEMBER_8_MEMBER_0_FILL"/>
</g>

<g transform="matrix( 7, 0, 0, 7, -1237.65,-1167.3) ">
<use xlink:href="#Layer0_0_MEMBER_2_MEMBER_8_MEMBER_1_FILL"/>
</g>

<g transform="matrix( 7, 0, 0, 7, -1237.65,-1167.3) ">
<use xlink:href="#Layer0_0_MEMBER_2_MEMBER_8_MEMBER_2_FILL"/>
</g>

<g transform="matrix( 7, 0, 0, 7, -1237.65,-1167.3) ">
<use xlink:href="#Layer0_0_MEMBER_2_MEMBER_8_MEMBER_3_FILL"/>
</g>

<g transform="matrix( 7, 0, 0, 7, -1237.65,-1167.3) ">
<use xlink:href="#Layer0_0_MEMBER_2_MEMBER_8_MEMBER_4_FILL"/>
</g>

<g transform="matrix( 7, 0, 0, 7, -1237.65,-1167.3) ">
<use xlink:href="#Layer0_0_MEMBER_2_MEMBER_8_MEMBER_5_FILL"/>
</g>

<g transform="matrix( 7, 0, 0, 7, -1237.65,-1167.3) ">
<use xlink:href="#Layer0_0_MEMBER_2_MEMBER_9_MEMBER_0_FILL"/>
</g>

<g transform="matrix( 7, 0, 0, 7, -1237.65,-1167.3) ">
<use xlink:href="#Layer0_0_MEMBER_2_MEMBER_9_MEMBER_1_FILL"/>
</g>

<g transform="matrix( 7, 0, 0, 7, -1237.65,-1167.3) ">
<use xlink:href="#Layer0_0_MEMBER_2_MEMBER_9_MEMBER_2_FILL"/>
</g>

<g transform="matrix( 7, 0, 0, 7, -1237.65,-1167.3) ">
<use xlink:href="#Layer0_0_MEMBER_2_MEMBER_9_MEMBER_3_FILL"/>
</g>

<g transform="matrix( 7, 0, 0, 7, -1237.65,-1167.3) ">
<use xlink:href="#Layer0_0_MEMBER_2_MEMBER_9_MEMBER_4_FILL"/>
</g>

<g transform="matrix( 7, 0, 0, 7, -1237.65,-1167.3) ">
<use xlink:href="#Layer0_0_MEMBER_2_MEMBER_9_MEMBER_5_FILL"/>
</g>

<g transform="matrix( 7, 0, 0, 7, -1237.65,-1167.3) ">
<use xlink:href="#Layer0_0_MEMBER_2_MEMBER_10_MEMBER_0_FILL"/>
</g>

<g transform="matrix( 7, 0, 0, 7, -1237.65,-1167.3) ">
<use xlink:href="#Layer0_0_MEMBER_2_MEMBER_10_MEMBER_1_FILL"/>
</g>

<g transform="matrix( 7, 0, 0, 7, -1237.65,-1167.3) ">
<use xlink:href="#Layer0_0_MEMBER_2_MEMBER_10_MEMBER_2_FILL"/>
</g>

<g transform="matrix( 7, 0, 0, 7, -1237.65,-1167.3) ">
<use xlink:href="#Layer0_0_MEMBER_2_MEMBER_10_MEMBER_3_FILL"/>
</g>

<g transform="matrix( 7, 0, 0, 7, -1237.65,-1167.3) ">
<use xlink:href="#Layer0_0_MEMBER_2_MEMBER_10_MEMBER_4_FILL"/>
</g>

<g transform="matrix( 7, 0, 0, 7, -1237.65,-1167.3) ">
<use xlink:href="#Layer0_0_MEMBER_2_MEMBER_10_MEMBER_5_FILL"/>
</g>

<g transform="matrix( 7, 0, 0, 7, -1237.65,-1167.3) ">
<use xlink:href="#Layer0_0_MEMBER_2_MEMBER_11_MEMBER_0_FILL"/>
</g>

<g transform="matrix( 7, 0, 0, 7, -1237.65,-1167.3) ">
<use xlink:href="#Layer0_0_MEMBER_2_MEMBER_11_MEMBER_1_FILL"/>
</g>

<g transform="matrix( 7, 0, 0, 7, -1237.65,-1167.3) ">
<use xlink:href="#Layer0_0_MEMBER_2_MEMBER_11_MEMBER_2_FILL"/>
</g>

<g transform="matrix( 7, 0, 0, 7, -1237.65,-1167.3) ">
<use xlink:href="#Layer0_0_MEMBER_2_MEMBER_11_MEMBER_3_FILL"/>
</g>

<g transform="matrix( 7, 0, 0, 7, -1237.65,-1167.3) ">
<use xlink:href="#Layer0_0_MEMBER_2_MEMBER_11_MEMBER_4_FILL"/>
</g>

<g transform="matrix( 7, 0, 0, 7, -1237.65,-1167.3) ">
<use xlink:href="#Layer0_0_MEMBER_2_MEMBER_11_MEMBER_5_FILL"/>
</g>

<g transform="matrix( 7, 0, 0, 7, -1237.65,-1167.3) ">
<use xlink:href="#Layer0_0_MEMBER_2_MEMBER_12_MEMBER_0_FILL"/>
</g>

<g transform="matrix( 7, 0, 0, 7, -1237.65,-1167.3) ">
<use xlink:href="#Layer0_0_MEMBER_2_MEMBER_12_MEMBER_1_FILL"/>
</g>

<g transform="matrix( 7, 0, 0, 7, -1237.65,-1167.3) ">
<use xlink:href="#Layer0_0_MEMBER_2_MEMBER_12_MEMBER_2_FILL"/>
</g>

<g transform="matrix( 7, 0, 0, 7, -1237.65,-1167.3) ">
<use xlink:href="#Layer0_0_MEMBER_2_MEMBER_12_MEMBER_3_FILL"/>
</g>

<g transform="matrix( 7, 0, 0, 7, -1237.65,-1167.3) ">
<use xlink:href="#Layer0_0_MEMBER_2_MEMBER_12_MEMBER_4_FILL"/>
</g>

<g transform="matrix( 7, 0, 0, 7, -1237.65,-1167.3) ">
<use xlink:href="#Layer0_0_MEMBER_2_MEMBER_12_MEMBER_5_FILL"/>
</g>

<g transform="matrix( 7, 0, 0, 7, -1237.65,-1167.3) ">
<use xlink:href="#Layer0_0_MEMBER_2_MEMBER_13_MEMBER_0_FILL"/>
</g>

<g transform="matrix( 7, 0, 0, 7, -1237.65,-1167.3) ">
<use xlink:href="#Layer0_0_MEMBER_2_MEMBER_13_MEMBER_1_FILL"/>
</g>

<g transform="matrix( 7, 0, 0, 7, -1237.65,-1167.3) ">
<use xlink:href="#Layer0_0_MEMBER_2_MEMBER_13_MEMBER_2_FILL"/>
</g>

<g transform="matrix( 7, 0, 0, 7, -1237.65,-1167.3) ">
<use xlink:href="#Layer0_0_MEMBER_2_MEMBER_13_MEMBER_3_FILL"/>
</g>

<g transform="matrix( 7, 0, 0, 7, -1237.65,-1167.3) ">
<use xlink:href="#Layer0_0_MEMBER_2_MEMBER_13_MEMBER_4_FILL"/>
</g>

<g transform="matrix( 7, 0, 0, 7, -1237.65,-1167.3) ">
<use xlink:href="#Layer0_0_MEMBER_2_MEMBER_13_MEMBER_5_FILL"/>
</g>

<g transform="matrix( 7, 0, 0, 7, -1237.65,-1167.3) ">
<use xlink:href="#Layer0_0_MEMBER_2_MEMBER_14_MEMBER_0_FILL"/>
</g>

<g transform="matrix( 7, 0, 0, 7, -1237.65,-1167.3) ">
<use xlink:href="#Layer0_0_MEMBER_2_MEMBER_15_FILL"/>
</g>

<g transform="matrix( 7, 0, 0, 7, -1237.65,-1167.3) ">
<use xlink:href="#Layer0_0_MEMBER_2_MEMBER_16_FILL"/>
</g>
</svg>
