
<svg xmlns="http://www.w3.org/2000/svg" version="1.1" xmlns:xlink="http://www.w3.org/1999/xlink" preserveAspectRatio="none" x="0px" y="0px" width="1024px" height="1024px" viewBox="0 0 1024 1024">
<defs>
<g id="Layer0_0_MEMBER_0_FILL">
<path fill="#1D1D1B" fill-opacity="0.09803921568627451" stroke="none" d="
M 42.3 2
Q 59.85 2 72.25 1.7 84.65 1.4 84.65 1 84.65 0.6 72.25 0.3 59.85 0 42.3 0 24.8 0 12.4 0.3 0 0.6 0 1 0 1.4 12.4 1.7 24.8 2 42.3 2 Z"/>
</g>

<g id="Layer0_0_MEMBER_1_FILL">
<path fill="#61C3DA" stroke="none" d="
M 379.95 174.6
Q 379.7 174.9 379.7 175.25 379.7 175.65 379.95 175.9 380.25 176.15 380.6 176.15
L 389 176.15
Q 389.4 176.15 389.65 175.9 389.9 175.65 389.9 175.25 389.9 174.9 389.65 174.6 389.4 174.35 389 174.35
L 380.6 174.35
Q 380.25 174.35 379.95 174.6 Z"/>
</g>

<g id="Layer0_0_MEMBER_2_FILL">
<path fill="#61C3DA" stroke="none" d="
M 347.55 191.05
Q 347.1 192.4 347.1 193.75
L 346.95 207.8 347.1 208.1 347.2 208.25 347.3 208.35 347.4 208.5
Q 347.6 208.8 347.95 208.95 348 209.05 348.2 209.15
L 348.3 209.15 348.65 209.3 350 209.7 420.7 209.4 423.9 208.4 424.15 208.3 424.2 208.3 424.45 208.15 424.9 207.7 425.1 207.35
Q 425.3 207 425.3 206.5
L 425.2 198.05 425.15 197.65 424.8 196.8
Q 424.45 196.25 423.8 195.95 413 192.6 410.75 191.8
L 409.65 191.4 405.4 191.4
Q 404.7 191.4 404.2 190.9 403.7 190.45 403.7 189.75
L 403.7 180.25
Q 403.7 179.75 404.05 179.45 404.35 179.1 404.8 179.1
L 405.8 179.1 406.15 178.9 405.75 178.1
Q 404.65 176.15 402.3 175.65 400.7 175.3 395.35 175.35
L 356.2 175.55
Q 355.1 175.55 353.95 176.15 352.6 176.85 351.95 178.1
L 351.7 178.65 347.55 191.05 Z"/>
</g>

<g id="Layer0_0_MEMBER_3_FILL">
<path fill="#22395A" stroke="none" d="
M 364.65 207.25
L 364.65 207.05
Q 364.65 203.8 362.35 201.5 360.05 199.2 356.8 199.2 353.55 199.2 351.25 201.5 348.95 203.8 348.95 207.05
L 349.05 208.2 349.35 209.5 363.5 209.4 364.4 209.15
Q 364.65 208.15 364.65 207.25 Z"/>
</g>

<g id="Layer0_0_MEMBER_4_FILL">
<path fill="#22395A" stroke="none" d="
M 421.85 207.05
Q 421.85 203.8 419.55 201.5 417.25 199.2 414 199.2 410.75 199.2 408.45 201.5 406.15 203.8 406.15 207.05
L 406.2 208.2 406.5 209.5 420.7 209.4 421.55 209.15
Q 421.85 208.25 421.85 207.25
L 421.85 207.05 Z"/>
</g>

<g id="Layer0_0_MEMBER_5_FILL">
<path fill="#22395A" stroke="none" d="
M 425.1 207.05
L 406.9 208.2 363.95 208.2 346.75 207.05
Q 346.85 207.85 347.35 208.45 347.85 209.1 348.6 209.3
L 350.1 209.7 420.7 209.4 423.9 208.4
Q 424.7 208.2 425.1 207.35
L 425.1 207.05 Z"/>
</g>

<g id="Layer0_0_MEMBER_6_MEMBER_0_FILL">
<path fill="#3C3C3B" stroke="none" d="
M 425.45 206.25
L 425.45 207.85
Q 425.45 208.3 425.75 208.6 426.05 208.9 426.5 208.9 427.7 208.9 427.7 207.05 427.75 205.15 426.5 205.15 426.05 205.15 425.75 205.5 425.45 205.8 425.45 206.25 Z"/>
</g>

<g id="Layer0_0_MEMBER_6_MEMBER_1_FILL">
<path fill="#DADADA" stroke="none" d="
M 425.85 208.3
Q 426.4 208.3 426.75 207.95 427.1 207.6 427.1 207.05 427.1 206.55 426.75 206.15 426.4 205.8 425.85 205.8
L 423.8 205.8
Q 423.25 205.8 422.9 206.15 422.5 206.55 422.5 207.05 422.5 207.55 422.9 207.95 423.25 208.3 423.8 208.3
L 425.85 208.3 Z"/>
</g>

<g id="Layer0_0_MEMBER_7_FILL">
<path fill="#22395A" stroke="none" d="
M 392.7 178.95
Q 391.9 178.95 391.35 179.55 390.75 180.1 390.75 180.9
L 390.75 198.35
Q 390.75 202.1 393.4 204.75 396.05 207.4 399.8 207.4
L 399.9 207.4
Q 400.95 207.4 401.7 206.65 402.45 205.9 402.45 204.85
L 402.45 180.9
Q 402.45 180.1 401.85 179.55 401.3 178.95 400.5 178.95
L 392.7 178.95 Z"/>
</g>

<g id="Layer0_0_MEMBER_8_MEMBER_0_FILL">
<path fill="#3C3C3B" stroke="none" d="
M 346.15 207.65
L 346.15 206.05
Q 346.15 205.6 345.8 205.3 345.45 204.95 344.95 204.95 343.65 204.95 343.7 206.85 343.7 208.75 344.95 208.75 345.45 208.75 345.8 208.45 346.15 208.1 346.15 207.65 Z"/>
</g>

<g id="Layer0_0_MEMBER_8_MEMBER_1_FILL">
<path fill="#DADADA" stroke="none" d="
M 349.25 206.85
Q 349.25 206.35 348.9 205.95 348.55 205.6 348 205.6
L 345.95 205.6
Q 345.45 205.6 345.05 205.95 344.7 206.35 344.7 206.85 344.7 207.4 345.05 207.75 345.45 208.1 345.95 208.1
L 348 208.1
Q 348.55 208.1 348.9 207.75 349.25 207.4 349.25 206.85 Z"/>
</g>

<g id="Layer0_0_MEMBER_9_MEMBER_0_FILL">
<path fill="#61C3DA" stroke="none" d="
M 392.4 193.6
Q 392.4 194.3 393.1 194.3
L 394.7 194.3
Q 395.4 194.3 395.4 193.6 395.4 192.9 394.7 192.9
L 393.1 192.9
Q 392.4 192.9 392.4 193.6 Z"/>
</g>

<g id="Layer0_0_MEMBER_9_MEMBER_1_FILL">
<path fill="#EDEDED" stroke="none" d="
M 394.5 193.35
Q 392.95 193.35 392.95 193.6 392.95 193.85 394.5 193.85 396.05 193.85 396.05 193.6 396.05 193.35 394.5 193.35 Z"/>
</g>

<g id="Layer0_0_MEMBER_10_FILL">
<path fill="#22395A" stroke="none" d="
M 353.95 176.15
Q 352.6 176.85 351.95 178.1
L 405.75 178.1
Q 404.65 176.15 402.3 175.65 400.7 175.3 395.35 175.35
L 356.2 175.55
Q 355.1 175.55 353.95 176.15 Z"/>
</g>

<g id="Layer0_0_MEMBER_11_FILL">
<path fill="#ABEDE3" stroke="none" d="
M 404.05 179.45
Q 403.7 179.8 403.7 180.25
L 403.7 189.75
Q 403.7 190.45 404.2 190.9 404.7 191.4 405.35 191.4
L 409.65 191.4 409.55 190.8
Q 408.15 184.9 406.05 179.75
L 405.8 179.1 404.8 179.1
Q 404.35 179.1 404.05 179.45 Z"/>
</g>

<g id="Layer0_0_MEMBER_12_FILL">
<path fill="#22395A" stroke="none" d="
M 404.8 178.9
Q 404.25 178.9 403.85 179.3 403.45 179.7 403.45 180.25
L 403.45 189.75
Q 403.45 190.55 404 191.1 404.55 191.65 405.35 191.65
L 410.4 191.65
Q 409.6 191.15 409.6 191.2
L 405.35 191.2
Q 404.75 191.2 404.35 190.75 403.9 190.3 403.9 189.75
L 403.9 180.25
Q 403.9 179.9 404.15 179.6 404.45 179.35 404.8 179.35
L 405.95 179.35 406.15 178.9 404.8 178.9 Z"/>
</g>

<g id="Layer0_0_MEMBER_13_FILL">
<path fill="#22395A" stroke="none" d="
M 425.15 197.65
L 424.4 197.65
Q 423.6 197.65 423.05 198.25 422.5 198.8 422.5 199.6 422.5 200.4 423.05 200.95 423.6 201.5 424.4 201.5
L 425.25 201.5 425.2 198.05 425.15 197.65 Z"/>
</g>

<g id="Layer0_0_MEMBER_14_FILL">
<path fill="#F9B659" stroke="none" d="
M 425.65 200.75
Q 425.85 199.65 425.65 198.45 425.5 198.05 425.1 198.05
L 424.45 198.05
Q 423.85 198.05 423.4 198.45 422.95 198.8 422.9 199.4 422.8 200.05 423.25 200.6 423.7 201.1 424.4 201.1
L 425.15 201.1
Q 425.55 201.1 425.65 200.75 Z"/>
</g>

<g id="Layer0_0_MEMBER_15_FILL">
<path fill="#E75C5B" stroke="none" d="
M 348.6 196.7
L 347.05 196.7 347.05 200.25 348.6 200.25
Q 349.35 200.25 349.9 199.75 350.4 199.2 350.4 198.45 350.4 197.75 349.9 197.2 349.35 196.7 348.6 196.7 Z"/>
</g>

<g id="Layer0_0_MEMBER_16_FILL">
<path fill="#ABEDE3" stroke="none" d="
M 401 180.3
Q 400.6 179.9 400 179.9
L 393.2 179.9
Q 392.6 179.9 392.2 180.3 391.75 180.75 391.75 181.3
L 391.75 189.2
Q 391.75 189.8 392.2 190.2 392.6 190.6 393.2 190.6
L 400 190.6
Q 400.6 190.6 401 190.2 401.4 189.8 401.4 189.2
L 401.4 181.3
Q 401.4 180.75 401 180.3 Z"/>
</g>

<g id="Layer0_0_MEMBER_17_FILL">
<path fill="#22395A" stroke="none" d="
M 411.2 193.75
Q 411.85 194.65 412.9 194.8
L 424.8 196.8
Q 424.45 196.25 423.8 195.95 413 192.6 410.75 191.8 410.6 192.85 411.2 193.75 Z"/>
</g>

<g id="Layer0_0_MEMBER_18_FILL">
<path fill="#22395A" stroke="none" d="
M 425 202.6
L 425 204.8
Q 425 205.05 425.2 205.05 425.45 205.05 425.45 204.8
L 425.45 202.6
Q 425.45 202.35 425.2 202.35 425 202.35 425 202.6 Z"/>
</g>

<g id="Layer0_0_MEMBER_19_FILL">
<path fill="#22395A" stroke="none" d="
M 424.35 202.6
L 424.35 204.8
Q 424.35 205.05 424.55 205.05 424.8 205.05 424.8 204.8
L 424.8 202.6
Q 424.8 202.35 424.55 202.35 424.35 202.35 424.35 202.6 Z"/>
</g>

<g id="Layer0_0_MEMBER_20_FILL">
<path fill="#22395A" stroke="none" d="
M 423.7 202.6
L 423.7 204.8
Q 423.7 205.05 423.95 205.05 424.15 205.05 424.15 204.8
L 424.15 202.6
Q 424.15 202.35 423.95 202.35 423.7 202.35 423.7 202.6 Z"/>
</g>

<g id="Layer0_0_MEMBER_21_MEMBER_0_FILL">
<path fill="#4AA2B7" stroke="none" d="
M 352.1 190.55
Q 352.65 191.3 353.55 191.3
L 386 191.3
Q 386.65 191.3 387.05 190.85 387.5 190.4 387.5 189.75
L 387.5 180.55
Q 387.5 179.9 387.05 179.45 386.65 179 386 179
L 356.05 179
Q 354.85 179 354.6 180.1
L 351.85 188.95
Q 351.6 189.8 352.1 190.55 Z"/>
</g>

<g id="Layer0_0_MEMBER_21_MEMBER_1_MEMBER_0_FILL">
<path fill="#61C3DA" stroke="none" d="
M 356.55 180.85
Q 355.95 180.85 355.95 181.45 355.95 182.05 356.55 182.05
L 385 182.05
Q 385.6 182.05 385.6 181.45 385.6 180.85 385 180.85
L 356.55 180.85 Z"/>
</g>

<g id="Layer0_0_MEMBER_21_MEMBER_1_MEMBER_1_FILL">
<path fill="#61C3DA" stroke="none" d="
M 355.85 183.35
Q 355.25 183.35 355.25 183.95 355.25 184.5 355.85 184.5
L 385 184.5
Q 385.6 184.5 385.6 183.95 385.6 183.35 385 183.35
L 355.85 183.35 Z"/>
</g>

<g id="Layer0_0_MEMBER_21_MEMBER_1_MEMBER_2_FILL">
<path fill="#61C3DA" stroke="none" d="
M 355.15 185.8
Q 354.55 185.8 354.55 186.4 354.55 187 355.15 187
L 385 187
Q 385.6 187 385.6 186.4 385.6 185.8 385 185.8
L 355.15 185.8 Z"/>
</g>

<g id="Layer0_0_MEMBER_21_MEMBER_1_MEMBER_3_FILL">
<path fill="#61C3DA" stroke="none" d="
M 354.45 188.3
Q 353.85 188.3 353.85 188.9 353.85 189.45 354.45 189.45
L 385 189.45
Q 385.6 189.45 385.6 188.9 385.6 188.3 385 188.3
L 354.45 188.3 Z"/>
</g>

<g id="Layer0_0_MEMBER_22_FILL">
<path fill="#000000" fill-opacity="0.09803921568627451" stroke="none" d="
M 81.8 4.35
L 81.8 4.2 3.4 0 3.35 5.15 2.35 5.15
Q 2 4.5 1.3 4.5 0 4.5 0.05 6.4 0.05 8.3 1.3 8.3 2 8.3 2.35 7.65
L 3.45 7.65 3.5 7.75
Q 3.9 8.35 4.55 8.65
L 4.55 8.7 4.95 8.85 5 8.85 6.05 9.15 6.15 9.2 6.45 9.25 77.05 8.95 77.45 8.85 77.5 8.8 77.8 8.75 78.15 8.6 80.25 7.95 80.3 7.95 80.5 7.85 81.9 7.85
Q 82.15 8.45 82.85 8.45 84.05 8.45 84.05 6.6 84.1 4.7 82.85 4.7 82.15 4.7 81.9 5.35
L 81.65 5.35 81.65 4.55
Q 81.8 4.55 81.8 4.35 Z"/>
</g>

<g id="Layer0_0_MEMBER_23_MEMBER_0_FILL">
<path fill="#DAD1D1" stroke="none" d="
M 411 204.45
Q 409.75 205.7 409.75 207.45 409.75 209.2 411 210.4 412.25 211.65 414 211.65 415.75 211.65 417 210.4 418.2 209.2 418.2 207.45 418.2 205.7 417 204.45 415.75 203.2 414 203.2 412.25 203.2 411 204.45 Z"/>
</g>

<g id="Layer0_0_MEMBER_23_MEMBER_1_FILL">
<path fill="#1D1715" stroke="none" d="
M 420.6 207.4
Q 420.6 204.65 418.65 202.75 416.75 200.8 414 200.8 411.25 200.8 409.3 202.75 407.35 204.7 407.35 207.45 407.35 210.2 409.3 212.1 411.25 214.05 414 214.05 416.75 214.05 418.65 212.1 420.6 210.15 420.6 207.4
M 418.05 207.4
Q 418.05 209.1 416.85 210.3 415.7 211.5 414 211.5 412.3 211.5 411.1 210.3 409.9 209.15 409.9 207.45 409.9 205.75 411.1 204.55 412.3 203.35 414 203.35 415.7 203.35 416.85 204.55 418.05 205.7 418.05 207.4 Z"/>
</g>

<g id="Layer0_0_MEMBER_23_MEMBER_2_FILL">
<path fill="#FFFFFF" stroke="none" d="
M 411.8 205.25
Q 410.9 206.2 410.9 207.45 410.9 208.7 411.8 209.6 412.7 210.5 414 210.5 415.3 210.5 416.15 209.6 417.05 208.75 417.05 207.45 417.05 206.15 416.15 205.25 415.25 204.35 414 204.35 412.75 204.35 411.8 205.25 Z"/>
</g>

<g id="Layer0_0_MEMBER_23_MEMBER_3_FILL">
<path fill="#DAD1D1" stroke="none" d="
M 412.7 206.1
Q 412.15 206.65 412.15 207.45 412.15 208.2 412.7 208.75 413.2 209.3 414 209.3 414.75 209.3 415.3 208.75 415.85 208.2 415.85 207.45 415.85 206.65 415.3 206.1 414.75 205.55 414 205.55 413.2 205.55 412.7 206.1 Z"/>
</g>

<g id="Layer0_0_MEMBER_23_MEMBER_4_FILL">
<path fill="#FFFFFF" fill-opacity="0.4980392156862745" stroke="none" d="
M 3.15 1.4
Q 2.6 0.45 1.6 0
L 0 3.3 3.15 1.4 Z"/>
</g>

<g id="Layer0_0_MEMBER_23_MEMBER_5_FILL">
<path fill="#FFFFFF" fill-opacity="0.4980392156862745" stroke="none" d="
M 1.55 3.35
L 3.2 0 0 1.95
Q 0.55 2.9 1.55 3.35 Z"/>
</g>

<g id="Layer0_0_MEMBER_24_MEMBER_0_FILL">
<path fill="#DAD1D1" stroke="none" d="
M 353.85 204.45
Q 352.6 205.7 352.6 207.45 352.6 209.2 353.85 210.4 355.1 211.65 356.8 211.65 358.55 211.65 359.8 210.4 361.05 209.2 361.05 207.45 361.05 205.7 359.8 204.45 358.55 203.2 356.8 203.2 355.05 203.2 353.85 204.45 Z"/>
</g>

<g id="Layer0_0_MEMBER_24_MEMBER_1_FILL">
<path fill="#1D1715" stroke="none" d="
M 361.5 202.75
Q 359.55 200.8 356.8 200.8 354.05 200.8 352.15 202.75 350.2 204.7 350.2 207.45 350.2 210.2 352.15 212.1 354.05 214.05 356.8 214.05 359.6 214.05 361.5 212.1 363.45 210.2 363.45 207.4 363.45 204.65 361.5 202.75
M 360.9 207.4
Q 360.9 209.1 359.7 210.3 358.5 211.5 356.8 211.5 355.1 211.5 353.95 210.3 352.75 209.15 352.75 207.45 352.75 205.75 353.95 204.55 355.1 203.35 356.8 203.35 358.5 203.35 359.7 204.55 360.9 205.7 360.9 207.4 Z"/>
</g>

<g id="Layer0_0_MEMBER_24_MEMBER_2_FILL">
<path fill="#FFFFFF" stroke="none" d="
M 354.65 205.25
Q 353.75 206.15 353.75 207.45 353.75 208.75 354.65 209.6 355.55 210.5 356.8 210.5 358.1 210.5 359 209.6 359.9 208.7 359.9 207.45 359.9 206.2 359 205.25 358.1 204.35 356.8 204.35 355.55 204.35 354.65 205.25 Z"/>
</g>

<g id="Layer0_0_MEMBER_24_MEMBER_3_FILL">
<path fill="#DAD1D1" stroke="none" d="
M 355.5 206.1
Q 354.95 206.65 354.95 207.45 354.95 208.2 355.5 208.75 356.05 209.3 356.8 209.3 357.6 209.3 358.1 208.75 358.65 208.2 358.65 207.45 358.65 206.65 358.1 206.1 357.6 205.55 356.8 205.55 356.05 205.55 355.5 206.1 Z"/>
</g>

<g id="Layer0_0_MEMBER_24_MEMBER_4_FILL">
<path fill="#FFFFFF" fill-opacity="0.4980392156862745" stroke="none" d="
M 3.2 1.4
Q 2.55 0.45 1.6 0
L 0 3.3 3.2 1.4 Z"/>
</g>

<g id="Layer0_0_MEMBER_24_MEMBER_5_FILL">
<path fill="#FFFFFF" fill-opacity="0.4980392156862745" stroke="none" d="
M 1.6 3.35
L 3.2 0 0 1.95
Q 0.65 2.9 1.6 3.35 Z"/>
</g>

<g id="Layer0_0_MEMBER_25_FILL">
<path fill="#22395A" stroke="none" d="
M 404.5 185.35
L 404.5 190.35
Q 404.5 190.75 404.9 190.75
L 406.15 190.75
Q 406.55 190.75 406.55 190.35
L 406.55 185.4
Q 406.55 184.8 405.95 184.8
L 405.05 184.8
Q 404.5 184.8 404.5 185.35 Z"/>
</g>

<g id="Layer0_0_MEMBER_26_FILL">
<path fill="#1D1715" stroke="none" d="
M 407.85 192.75
Q 407.9 192.95 408.15 192.95
L 408.3 192.9
Q 408.7 192.8 408.45 192.45
L 406.1 187.85
Q 405.95 187.6 405.65 187.7 405.3 187.9 405.5 188.2
L 407.85 192.75 Z"/>
</g>

<g id="Layer0_0_MEMBER_27_MEMBER_0_FILL">
<path fill="#FFFFFF" fill-opacity="0.4980392156862745" stroke="none" d="
M 0 0.8
L 4.05 10 7.6 10 3.2 0 1 0
Q 0.2 0 0 0.8 Z"/>
</g>

<g id="Layer0_0_MEMBER_27_MEMBER_1_FILL">
<path fill="#FFFFFF" fill-opacity="0.4980392156862745" stroke="none" d="
M 3.65 0
L 8 9.95
Q 8.7 9.85 8.8 9.2
L 4.8 0 3.65 0 Z"/>
</g>

<g id="Layer0_0_MEMBER_27_MEMBER_2_FILL">
<path fill="#FFFFFF" fill-opacity="0.4980392156862745" stroke="none" d="
M 0 0.7
L 0 3.05 3.55 11.05 5.5 11.05
Q 4.1 5.15 2 0
L 0.75 0
Q 0 0 0 0.7 Z"/>
</g>
</defs>

<g transform="matrix( 10, 0, 0, 10, 90.5,695.5) ">
<use xlink:href="#Layer0_0_MEMBER_0_FILL"/>
</g>

<g transform="matrix( 10, 0, 0, 10, -3350,-1435) ">
<use xlink:href="#Layer0_0_MEMBER_1_FILL"/>
</g>

<g transform="matrix( 10, 0, 0, 10, -3350,-1435) ">
<use xlink:href="#Layer0_0_MEMBER_2_FILL"/>
</g>

<g transform="matrix( 10, 0, 0, 10, -3350,-1435) ">
<use xlink:href="#Layer0_0_MEMBER_3_FILL"/>
</g>

<g transform="matrix( 10, 0, 0, 10, -3350,-1435) ">
<use xlink:href="#Layer0_0_MEMBER_4_FILL"/>
</g>

<g transform="matrix( 10, 0, 0, 10, -3350,-1435) ">
<use xlink:href="#Layer0_0_MEMBER_5_FILL"/>
</g>

<g transform="matrix( 10, 0, 0, 10, -3350,-1435) ">
<use xlink:href="#Layer0_0_MEMBER_6_MEMBER_0_FILL"/>
</g>

<g transform="matrix( 10, 0, 0, 10, -3350,-1435) ">
<use xlink:href="#Layer0_0_MEMBER_6_MEMBER_1_FILL"/>
</g>

<g transform="matrix( 10, 0, 0, 10, -3350,-1435) ">
<use xlink:href="#Layer0_0_MEMBER_7_FILL"/>
</g>

<g transform="matrix( 10, 0, 0, 10, -3350,-1435) ">
<use xlink:href="#Layer0_0_MEMBER_8_MEMBER_0_FILL"/>
</g>

<g transform="matrix( 10, 0, 0, 10, -3350,-1435) ">
<use xlink:href="#Layer0_0_MEMBER_8_MEMBER_1_FILL"/>
</g>

<g transform="matrix( 10, 0, 0, 10, -3350,-1435) ">
<use xlink:href="#Layer0_0_MEMBER_9_MEMBER_0_FILL"/>
</g>

<g transform="matrix( 10, 0, 0, 10, -3350,-1435) ">
<use xlink:href="#Layer0_0_MEMBER_9_MEMBER_1_FILL"/>
</g>

<g transform="matrix( 10, 0, 0, 10, -3350,-1435) ">
<use xlink:href="#Layer0_0_MEMBER_10_FILL"/>
</g>

<g transform="matrix( 10, 0, 0, 10, -3350,-1435) ">
<use xlink:href="#Layer0_0_MEMBER_11_FILL"/>
</g>

<g transform="matrix( 10, 0, 0, 10, -3350,-1435) ">
<use xlink:href="#Layer0_0_MEMBER_12_FILL"/>
</g>

<g transform="matrix( 10, 0, 0, 10, -3350,-1435) ">
<use xlink:href="#Layer0_0_MEMBER_13_FILL"/>
</g>

<g transform="matrix( 10, 0, 0, 10, -3350,-1435) ">
<use xlink:href="#Layer0_0_MEMBER_14_FILL"/>
</g>

<g transform="matrix( 10, 0, 0, 10, -3350,-1435) ">
<use xlink:href="#Layer0_0_MEMBER_15_FILL"/>
</g>

<g transform="matrix( 10, 0, 0, 10, -3350,-1435) ">
<use xlink:href="#Layer0_0_MEMBER_16_FILL"/>
</g>

<g transform="matrix( 10, 0, 0, 10, -3350,-1435) ">
<use xlink:href="#Layer0_0_MEMBER_17_FILL"/>
</g>

<g transform="matrix( 10, 0, 0, 10, -3350,-1435) ">
<use xlink:href="#Layer0_0_MEMBER_18_FILL"/>
</g>

<g transform="matrix( 10, 0, 0, 10, -3350,-1435) ">
<use xlink:href="#Layer0_0_MEMBER_19_FILL"/>
</g>

<g transform="matrix( 10, 0, 0, 10, -3350,-1435) ">
<use xlink:href="#Layer0_0_MEMBER_20_FILL"/>
</g>

<g transform="matrix( 10, 0, 0, 10, -3350,-1435) ">
<use xlink:href="#Layer0_0_MEMBER_21_MEMBER_0_FILL"/>
</g>

<g transform="matrix( 10, 0, 0, 10, -3350,-1435) ">
<use xlink:href="#Layer0_0_MEMBER_21_MEMBER_1_MEMBER_0_FILL"/>
</g>

<g transform="matrix( 10, 0, 0, 10, -3350,-1435) ">
<use xlink:href="#Layer0_0_MEMBER_21_MEMBER_1_MEMBER_1_FILL"/>
</g>

<g transform="matrix( 10, 0, 0, 10, -3350,-1435) ">
<use xlink:href="#Layer0_0_MEMBER_21_MEMBER_1_MEMBER_2_FILL"/>
</g>

<g transform="matrix( 10, 0, 0, 10, -3350,-1435) ">
<use xlink:href="#Layer0_0_MEMBER_21_MEMBER_1_MEMBER_3_FILL"/>
</g>

<g transform="matrix( 10, 0, 0, 10, 86.5,569.5) ">
<use xlink:href="#Layer0_0_MEMBER_22_FILL"/>
</g>

<g transform="matrix( 10, 0, 0, 10, -3350,-1435) ">
<use xlink:href="#Layer0_0_MEMBER_23_MEMBER_0_FILL"/>
</g>

<g transform="matrix( 10, 0, 0, 10, -3350,-1435) ">
<use xlink:href="#Layer0_0_MEMBER_23_MEMBER_1_FILL"/>
</g>

<g transform="matrix( 10, 0, 0, 10, -3350,-1435) ">
<use xlink:href="#Layer0_0_MEMBER_23_MEMBER_2_FILL"/>
</g>

<g transform="matrix( 10, 0, 0, 10, -3350,-1435) ">
<use xlink:href="#Layer0_0_MEMBER_23_MEMBER_3_FILL"/>
</g>

<g transform="matrix( 10, 0, 0, 10, 790,606) ">
<use xlink:href="#Layer0_0_MEMBER_23_MEMBER_4_FILL"/>
</g>

<g transform="matrix( 10, 0, 0, 10, 758,639) ">
<use xlink:href="#Layer0_0_MEMBER_23_MEMBER_5_FILL"/>
</g>

<g transform="matrix( 10, 0, 0, 10, -3350,-1435) ">
<use xlink:href="#Layer0_0_MEMBER_24_MEMBER_0_FILL"/>
</g>

<g transform="matrix( 10, 0, 0, 10, -3350,-1435) ">
<use xlink:href="#Layer0_0_MEMBER_24_MEMBER_1_FILL"/>
</g>

<g transform="matrix( 10, 0, 0, 10, -3350,-1435) ">
<use xlink:href="#Layer0_0_MEMBER_24_MEMBER_2_FILL"/>
</g>

<g transform="matrix( 10, 0, 0, 10, -3350,-1435) ">
<use xlink:href="#Layer0_0_MEMBER_24_MEMBER_3_FILL"/>
</g>

<g transform="matrix( 10, 0, 0, 10, 218,606) ">
<use xlink:href="#Layer0_0_MEMBER_24_MEMBER_4_FILL"/>
</g>

<g transform="matrix( 10, 0, 0, 10, 186,639) ">
<use xlink:href="#Layer0_0_MEMBER_24_MEMBER_5_FILL"/>
</g>

<g transform="matrix( 10, 0, 0, 10, -3350,-1435) ">
<use xlink:href="#Layer0_0_MEMBER_25_FILL"/>
</g>

<g transform="matrix( 10, 0, 0, 10, -3350,-1435) ">
<use xlink:href="#Layer0_0_MEMBER_26_FILL"/>
</g>

<g transform="matrix( 10, 0, 0, 10, 572,367.5) ">
<use xlink:href="#Layer0_0_MEMBER_27_MEMBER_0_FILL"/>
</g>

<g transform="matrix( 10, 0, 0, 10, 572,367.5) ">
<use xlink:href="#Layer0_0_MEMBER_27_MEMBER_1_FILL"/>
</g>

<g transform="matrix( 10, 0, 0, 10, 690.5,362.5) ">
<use xlink:href="#Layer0_0_MEMBER_27_MEMBER_2_FILL"/>
</g>
</svg>
