<?xml version="1.0" ?><!DOCTYPE svg  PUBLIC '-//W3C//DTD SVG 1.1//EN'  'http://www.w3.org/Graphics/SVG/1.1/DTD/svg11.dtd'><svg enable-background="new 0 0 126 126" id="Layer_1" version="1.1" viewBox="0 0 126 126" xml:space="preserve" xmlns="http://www.w3.org/2000/svg" xmlns:xlink="http://www.w3.org/1999/xlink"><g><g><g><g><g><path d="M123.9411,74.1826L68.6474,39.9291c-1.2918-0.8007-2.9188-0.8256-4.2346-0.0658L2.1137,75.8367       c-1.3726,0.7924-1.3752,2.7727-0.0048,3.5685l57.1781,33.2247c1.2778,0.7427,2.8551,0.7446,4.1348,0.0063l60.4645-34.9143       C125.2365,76.9421,125.2665,75.0038,123.9411,74.1826z" fill="#F3F6FD"/><polygon fill="#FAFCFF" points="4.3071,74.5662 3.6682,74.9349 65.9931,111.1541 66.6321,110.785 35.0708,92.4439        45.714,86.2993 77.2751,104.6403 77.9139,104.2712 46.353,85.9301 57.0826,79.7353 88.6432,98.0763 89.0923,97.8174        57.5316,79.4763 68.4369,73.2702 99.9194,91.5654 100.3741,91.3026 68.8917,73.0078 79.6269,66.809 111.1092,85.1048        111.7481,84.7357 80.2659,66.4404 90.9033,60.2991 122.3854,78.5944 123.0243,78.2253 60.6984,42.0061 60.0595,42.3752        90.2442,59.916 79.6068,66.0577 49.4224,48.517 48.7836,48.8856 78.9678,66.4269 45.7718,85.5923 15.5888,68.0525        14.9499,68.4211 45.1329,85.9614 34.4897,92.1061      "/></g></g><g><g><g><g><g><g><path d="M102.2316,86.9234c0.1739-0.8139-1.3769-2.7496-3.4589-4.3209           c-0.4359-0.33-0.86-0.6146-1.2551-0.8535l2.9105-1.7416c0.133-0.0782,0.0831-0.2267-0.1036-0.3997l-0.9681-0.8861           c-0.0056-0.0071-0.0142-0.0125-0.0115-0.0141c-0.1812-0.1866-0.5392-0.4159-1.0194-0.6257L94.4723,76.4l1.7169-1.0193           c0.1272-0.0852,0.0831-0.2267-0.1065-0.398l-1.0685-0.984c-0.0117-0.0141-0.0346-0.0321-0.0488-0.0446           c-0.078-0.0751-0.1834-0.1552-0.3127-0.2371c-0.13-0.0825-0.2827-0.166-0.452-0.2451           c-0.0574-0.0291-0.1173-0.0567-0.1802-0.0825l-9.6416-4.205l-6.0297-5.5422L53.1383,50.227l-13.1745,9.342l-0.0197,0.0116           c-0.0227,0.0133-0.0368,0.032-0.0507,0.0507c-0.0171,0.0101-0.0168,0.0308-0.0252,0.0462           c-0.0055,0.0242,0.0005,0.052,0.0094,0.0783c0.0145,0.0333,0.0318,0.065,0.0607,0.1004           c0.0088,0.0158,0.0203,0.03,0.0346,0.0425c0.0289,0.0354,0.0691,0.0745,0.1122,0.112l1.0887,1.0036           c0.1954,0.1782,0.5188,0.3754,0.9391,0.5577l2.3412,1.0213l-0.6986,0.421l-1.389,0.8266           c-0.1442,0.0847-0.0771,0.2442,0.1467,0.4371l1.0083,0.9252c0.1867,0.1729,0.5188,0.3755,0.9504,0.5614l12.4144,5.4123           c-0.106,0.481,0.1312,1.1475,0.719,1.8698c0.5707,0.7009,1.3682,1.3209,2.195,1.7561l0.8784,0.4678           c0.8154,0.4315,1.6631,0.687,2.3402,0.6555c1.0268-0.0382,1.3843-0.7087,1.025-1.628l11.6853,5.0975           c0.1076,0.2194,0.5899,0.6373,1.461,1.2349c2.0805,1.4256,5.5746,3.329,7.8065,4.2471           c1.1231,0.46,1.7106,0.5858,1.7544,0.4136l0.0084-0.0154l0.0798-0.2667c0.0409-0.1706-0.4447-0.6284-1.4821-1.3377           c-0.106-0.0737-0.2234-0.1513-0.3409-0.2288l4.0477,1.7665c0.8517,0.3683,1.7642,0.5439,2.0272,0.3789l1.3888-0.8265           l2.5993-1.5587c0.5932,0.6772,1.3889,1.4134,2.2694,2.0788c1.0611,0.8,2.0485,1.3503,2.7936,1.5928l0.771,0.2587           C101.6443,87.3732,102.1389,87.3233,102.2316,86.9234z" fill="#E1E9F4"/></g></g></g></g></g></g><g><g><g enable-background="new    "><g><polygon fill="#2A2A5E" points="76.6132,74.0607 85.0935,69.1325 85.0813,70.54 76.6009,75.4682        "/></g><g><polygon fill="#6262AA" points="58.8225,63.7893 67.3028,58.861 85.0935,69.1325 76.6132,74.0607        "/></g><g><polygon fill="#3A3A77" points="76.6132,74.0607 76.6009,75.4682 58.8102,65.1967 58.8225,63.7893        "/></g></g></g><g><g><g enable-background="new    "><g><path d="M75.9186,59.8389v9.5592l1.3241-0.7694V60.621C76.802,60.3588,76.3629,60.0933,75.9186,59.8389z" fill="#2A2A5E"/></g><g><path d="M67.9851,55.6245v9.1933l7.9335,4.5803v-9.5592C73.3171,58.3498,70.6572,56.986,67.9851,55.6245z" fill="#3A3A77"/></g></g></g></g><g><g><g enable-background="new    "><g><path d="M96.1295,44.8572l-0.0688,29.3152c-0.0028,0.4321-0.1541,0.7348-0.399,0.8779l-1.4777,0.8642          c-0.2504,0.1541-0.5999,0.1376-0.9851-0.0853L54.5804,53.533c-0.7512-0.4375-1.362-1.4942-1.3593-2.3609l0.0715-29.3153          c0-0.4567,0.1706-0.7704,0.443-0.8998c-0.0165,0.0055-0.033,0.0138-0.0468,0.022l1.4915-0.8698          c0.2504-0.1458,0.5916-0.1237,0.9713,0.0936L94.7702,42.499C95.5241,42.9338,96.1322,43.9903,96.1295,44.8572z" fill="#6262AA"/></g><path d="M94.6414,45.7293L94.57,75.0389c0,0.8687-0.6188,1.2254-1.3685,0.7856L54.5859,53.5358         c-0.7615-0.4404-1.3685-1.4997-1.3685-2.3684l0.0714-29.3096c0-0.8687,0.6188-1.2138,1.3685-0.7856l38.6155,22.3009         C94.0344,43.8014,94.6414,44.8606,94.6414,45.7293z" fill="#2A2A5E"/><g><g><polygon fill="#6B9EF9" points="93.0506,45.0749 92.9962,70.7124 54.8204,48.6703 54.8748,23.0326          "/></g></g><path d="M72.772,60.5219c-0.4516-0.2606-0.8186-0.0514-0.8201,0.4675         c-0.0015,0.5189,0.3632,1.1505,0.8148,1.4112c0.4516,0.2606,0.8186,0.0517,0.8201-0.4673         C73.5882,61.4145,73.2236,60.7828,72.772,60.5219z" fill="#6262AA"/></g></g></g></g><g><g><g><path d="M102.3668,42.9932l-0.0716,25.9772c0,0.4365-0.1562,0.7423-0.4036,0.892l-1.3802,0.7944        c0.2539-0.1434,0.4037-0.4492,0.4102-0.892l0.0716-25.9709L102.3668,42.9932z" fill="#B6CBEA"/></g><g><path d="M100.9924,43.7931l-0.0736,25.9744c-0.0025,0.879-0.6239,1.2379-1.3887,0.7963L59.5583,47.4862        c-0.7649-0.4416-1.3822-1.5157-1.3797-2.3947l0.0736-25.9744L100.9924,43.7931z" fill="#DEE7F8"/></g><g enable-background="new    "><g><path d="M102.3798,38.4685l-0.013,4.5247l-1.3738,0.8008l0.013-4.5247c0-0.879-0.6185-1.9468-1.3802-2.3893         L59.6507,13.7998c-0.3841-0.2213-0.7292-0.241-0.9831-0.0912l1.3802-0.8008c0.2474-0.1497,0.599-0.13,0.9831,0.0976         l39.9686,23.0739C101.7678,36.5217,102.3863,37.5895,102.3798,38.4685z" fill="#6262AA"/></g><g><path d="M99.6255,36.88c0.7649,0.4416,1.3822,1.511,1.3797,2.3898l-0.0128,4.5233L58.2522,19.117         l0.0128-4.5233c0.0025-0.8787,0.6239-1.233,1.3887-0.7914L99.6255,36.88z" fill="#3A3A77"/></g></g></g><g><g><path d="M61.0568,16.4657c0.5362,0.3096,0.9713,1.0633,0.9695,1.6793        c-0.0017,0.6162-0.4396,0.8657-0.9759,0.5561c-0.5362-0.3096-0.9712-1.063-0.9695-1.6792        C60.0827,16.4058,60.5206,16.1561,61.0568,16.4657z" fill="#DEE7F8"/></g><g><path d="M64.4196,18.4072c0.5362,0.3096,0.9713,1.0633,0.9695,1.6793        c-0.0017,0.6162-0.4396,0.8657-0.9759,0.5561c-0.5404-0.312-0.9712-1.063-0.9695-1.6792        C63.4455,18.3473,63.8792,18.0952,64.4196,18.4072z" fill="#DEE7F8"/></g><g><path d="M59.677,21.4438l15.1391,8.7405l-0.0283,9.9875l-15.1391-8.7405L59.677,21.4438z" fill="#FFFFFF"/></g><g><path d="M67.7783,20.3463c0.5362,0.3096,0.9713,1.0633,0.9695,1.6793        c-0.0017,0.6162-0.4396,0.8657-0.9759,0.5561s-0.9713-1.063-0.9695-1.6793C66.8042,20.2865,67.2421,20.0368,67.7783,20.3463z" fill="#DEE7F8"/></g><g><polygon fill="#1E72C6" points="66.3626,37.9916 66.3589,39.3101 59.6374,35.4294 59.6411,34.1109       "/></g><g><polygon fill="#3887E5" points="71.0555,29.2655 74.254,39.8611 60.1907,31.7417 64.3239,28.1792 66.7832,32.9604       "/></g><g><polygon fill="#6B9EF9" points="79.0227,32.6131 79.0145,35.5266 76.4788,34.0627 76.4871,31.1491       "/></g><g enable-background="new    "><g><polygon fill="#B6CBEA" points="70.4137,51.2483 70.4122,51.7831 59.6087,45.5457 59.6102,45.0109        "/></g><g><polygon fill="#B6CBEA" points="70.4176,49.887 70.4161,50.4219 59.6125,44.1845 59.6141,43.6496        "/></g><g><polygon fill="#B6CBEA" points="70.4214,48.5257 70.4199,49.0606 59.6164,42.8232 59.6179,42.2883        "/></g><g><polygon fill="#B6CBEA" points="70.4253,47.1645 70.4238,47.6993 59.6203,41.4619 59.6218,40.9271        "/></g><g><polygon fill="#B6CBEA" points="70.4292,45.8032 70.4276,46.3381 59.6241,40.1007 59.6256,39.5658        "/></g></g><g><polygon fill="#1E72C6" points="78.9868,45.2801 78.9831,46.5987 67.7223,40.0973 67.7261,38.7787       "/></g><g><polygon fill="#4C4A8B" points="79.0016,40.0787 78.9933,42.9922 76.4577,41.5282 76.4659,38.6147       "/></g><g><polygon fill="#DEE7F8" points="92.0709,40.1465 92.0627,43.06 89.5312,41.5984 89.5394,38.6849       "/></g><g><polygon fill="#1E72C6" points="92.0498,47.612 92.0415,50.5256 89.51,49.064 89.5183,46.1505       "/></g><g><polygon fill="#9EB5DF" points="86.5964,36.9858 86.5808,42.5026 80.8153,39.1739 80.8309,33.6571       "/></g><g><polygon fill="#9EB5DF" points="86.5753,44.4514 86.5596,49.9729 80.7941,46.6441 80.8098,41.1226       "/></g><g enable-background="new    "><g><polygon fill="#9EB5DF" points="99.6276,51.9871 99.612,57.5086 93.8423,54.1775 93.858,48.656        "/></g><g><polygon fill="#9EB5DF" points="99.6488,44.5215 99.6331,50.0384 93.8635,46.7073 93.8791,41.1904        "/></g></g><g><polygon fill="#B6CBEA" points="78.9714,50.7351 78.9698,51.2699 72.3356,47.4396 72.3371,46.9048       "/></g><g><polygon fill="#B6CBEA" points="78.9559,56.1801 78.9544,56.715 72.3202,52.8847 72.3217,52.3498       "/></g><g><polygon fill="#B6CBEA" points="78.9598,54.8189 78.9583,55.3537 72.324,51.5234 72.3255,50.9886       "/></g><g><polygon fill="#B6CBEA" points="78.9636,53.4576 78.9621,53.9925 72.3279,50.1622 72.3294,49.6273       "/></g><g><polygon fill="#B6CBEA" points="78.9675,52.0963 78.966,52.6312 72.3317,48.8009 72.3333,48.266       "/></g><g><polygon fill="#6262AA" points="95.4578,58.3978 95.4402,64.5161 83.5622,57.6582 83.5798,51.5402       "/></g><g><path d="M87.6628,55.4808c0.2208,0.3129,0.3408,0.6533,0.3399,0.9638        c-0.0009,0.3204-0.1022,0.5232-0.304,0.5986c-0.2536,0.1016-0.6535,0.0064-1.1278-0.2674        c-0.0891-0.0514-0.1897-0.1095-0.2845-0.1775l-0.0037,1.3046l-0.6151-0.3551l0.0097-3.4283l0.069,0.03        c0.2732,0.1146,0.5722,0.2641,0.8826,0.4433C87.0859,54.8566,87.4334,55.1565,87.6628,55.4808z M86.5839,56.2573        c0.5087,0.2937,0.8025,0.2417,0.8036-0.1446c0.0014-0.4856-0.4669-0.8287-0.7486-0.9913        c-0.138-0.0797-0.2616-0.1445-0.3478-0.1811l-0.0032,1.1264C86.3683,56.1262,86.466,56.1893,86.5839,56.2573" fill="#FFFFFF"/></g><g><path d="M89.8566,56.4829l1.2577,4.2096l-0.6582-0.38l-0.3736-1.2545l-1.1382-0.6571l-0.3708,0.8247        l-0.6438-0.3717l1.2803-2.7443L89.8566,56.4829z M89.1038,57.9769l0.8249,0.4763c0,0-0.3821-1.2826-0.4134-1.4132        C89.4834,57.1341,89.1038,57.9769,89.1038,57.9769" fill="#FFFFFF"/></g><g><path d="M93.9129,58.8277l-1.2572,1.2891v1.467l-0.6205-0.3628v-1.4587l-1.1846-2.6998l0.7253,0.4112        c0,0,0.7334,1.805,0.7978,1.9663c0.0645-0.0968,0.8301-1.0235,0.8301-1.0235L93.9129,58.8277z" fill="#FFFFFF"/></g></g></g><g><g><g><g><path d="M44.126,72.2832c-0.1783,0.4994-0.7955,0.6743-1.6397,0.5584l-0.9187-0.1253         c0.0184,0.0031,0.028,0.0032,0.0476,0.003c-0.8583-0.1036-1.9825-0.5258-3.141-1.2334         c-2.2461-1.3685-3.7766-3.2967-3.4102-4.2957c0.1936-0.515,0.8486-0.6869,1.7499-0.54         c0.0281,0.003,0.0551,0.0093,0.0746,0.009l0.7415,0.1039c0.8539,0.116,1.9596,0.5354,3.0859,1.2243         C42.9695,69.3623,44.4924,71.2842,44.126,72.2832z" fill="#E1E9F4"/></g></g></g></g><g><g><g><g enable-background="new    "><g><path d="M39.4272,59.6189c2.1266,1.2278,3.8448,4.2038,3.8379,6.6474s-1.7363,3.4293-3.8629,2.2014          c-2.1266-1.2278-3.8448-4.2039-3.8379-6.6475S37.3006,58.3911,39.4272,59.6189z" fill="#B6CBEA"/></g><path d="M40.3328,58.1495c-1.2986-0.7497-2.4751-0.8193-3.3247-0.3256l-0.9029,0.5247         c0.8496-0.4937,2.0261-0.4241,3.3247,0.3257c2.5806,1.4899,4.6656,5.1012,4.6572,8.0665         c-0.0042,1.4731-0.5242,2.5095-1.363,2.9969l0.9029-0.5247c0.8387-0.4874,1.3588-1.5239,1.363-2.9969         C44.9984,63.2509,42.9134,59.6396,40.3328,58.1495z" fill="#B6CBEA"/><g><path d="M39.4299,58.6743c2.5806,1.4899,4.6656,5.1013,4.6572,8.0666          c-0.0084,2.9652-2.1071,4.1612-4.6876,2.6713c-2.5806-1.4899-4.6656-5.1014-4.6572-8.0666          C34.7506,58.3804,36.8493,57.1844,39.4299,58.6743z M39.4021,68.4677c2.1266,1.2278,3.856,0.2422,3.8629-2.2014          s-1.7112-5.4196-3.8379-6.6474c-2.1266-1.2278-3.856-0.2423-3.863,2.2013C35.5573,64.2638,37.2755,67.2399,39.4021,68.4677          L39.4021,68.4677z" fill="#83A1CC"/></g></g></g><g><g><path d="M39.8072,61.4879l-0.0017,0.6039c0.5578,0.4822,0.9653,1.2281,0.9636,1.8272l-0.7423-0.4286         c0.0007-0.2537-0.2706-0.6269-0.5958-0.8146c-0.3231-0.1865-0.5977-0.1285-0.5984,0.1252         c-0.0007,0.2562,0.2727,0.6305,0.5957,0.817c0.7382,0.4262,1.3377,1.3654,1.3356,2.0938         c-0.0017,0.6039-0.4121,0.8777-0.9708,0.7128l-0.0017,0.6039l-0.7423-0.4286l0.0017-0.6039         c-0.5578-0.4797-0.9674-1.2269-0.9656-1.8308l0.7423,0.4286c-0.0007,0.2538,0.2727,0.6282,0.5958,0.8147         c0.3251,0.1877,0.5977,0.1285,0.5984-0.1253c0.0007-0.2538-0.2706-0.6246-0.5958-0.8123         c-0.7382-0.4262-1.3377-1.3677-1.3356-2.0985c0.0017-0.5991,0.4142-0.8716,0.9728-0.7092l0.0017-0.6039L39.8072,61.4879z" fill="#83A1CC"/></g></g></g></g><g><g><g><g><g><g><g><path d="M32.1657,76.7524v0.8892c0,0.8337-0.5407,1.6585-1.6314,2.2913            c-0.6049,0.3571-1.3198,0.614-2.0806,0.7608c-0.1924,0.1647-0.4033,0.3115-0.6507,0.4583            c-2.1905,1.2737-5.7559,1.2737-7.9556,0c-1.109-0.6418-1.668-1.476-1.6589-2.3191v-0.8888            c0-0.1651,0.0183-0.3392,0.0733-0.5044c-0.7149-0.5684-1.0632-1.2374-1.0632-1.9065v-0.8888            c0-0.8248,0.5407-1.659,1.6314-2.2913c0.5682-0.3303,1.219-0.5684,1.9248-0.7241c0.22-0.2108,0.4857-0.4126,0.8065-0.5957            c2.1905-1.2741,5.7559-1.2741,7.9556,0c1.1255,0.6431,1.672,1.4952,1.6567,2.3442            c0.0001-0.0085,0.0022-0.017,0.0022-0.0255v0.8892c0,0.1924-0.0275,0.3938-0.0917,0.5863            c0.7431,0.5818,1.0952,1.2777,1.0772,1.9758C32.1619,76.7864,32.1657,76.7699,32.1657,76.7524z" fill="#E1E9F4"/></g></g></g></g></g></g></g><g><g><g><g><g><g><g enable-background="new    "><g><path d="M28.7984,72.128c1.8158,1.0483,1.8254,2.7478,0.0214,3.7962             c-1.8039,1.0483-4.7381,1.0484-6.5539,0.0001c-1.8158-1.0483-1.8253-2.7479-0.0213-3.7962             S26.9827,71.0796,28.7984,72.128z" fill="#B6CBEA"/></g><g><path d="M31.1559,74.0421l-0.0025,0.8916c-0.0023,0.8283-0.5467,1.6553-1.6342,2.2873             c-2.189,1.2721-5.7496,1.2721-7.953,0c-1.1088-0.6401-1.6625-1.4804-1.6601-2.3194l0.0025-0.8916             c-0.0024,0.839,0.5514,1.6792,1.6601,2.3194c2.2034,1.2721,5.7639,1.2721,7.953,0             C30.6092,75.6974,31.1535,74.8704,31.1559,74.0421z" fill="#DEE7F8"/></g><g><path d="M29.4957,71.7227c2.2034,1.2721,2.215,3.3345,0.0259,4.6067c-2.189,1.2721-5.7496,1.2721-7.953,0             c-2.2034-1.2721-2.2149-3.3345-0.0259-4.6066S27.2924,70.4506,29.4957,71.7227z M22.266,75.9242             c1.8158,1.0483,4.7499,1.0483,6.5539,0c1.8039-1.0483,1.7944-2.7479-0.0214-3.7962             c-1.8158-1.0483-4.7498-1.0483-6.5538,0C20.4407,73.1763,20.4502,74.8759,22.266,75.9242L22.266,75.9242z" fill="#83A1CC"/></g></g></g><g><g><path d="M27.8948,73.0085l-0.4475,0.26c0.3604,0.3427,0.3332,0.7631-0.1091,1.0201l-0.6338-0.3659            c0.1874-0.1089,0.1148-0.3357-0.1628-0.496c-0.2759-0.1593-0.6712-0.2026-0.8585-0.0937            c-0.1891,0.1099-0.113,0.3387,0.1629,0.498c0.6303,0.3639,0.7065,0.9143,0.167,1.2278            c-0.444,0.258-1.1696,0.2752-1.7625,0.0675l-0.4458,0.2591l-0.6338-0.3659l0.4458-0.2591            c-0.3622-0.3437-0.3367-0.7651,0.1073-1.0231l0.6338,0.3659c-0.1856,0.1078-0.1095,0.3367,0.1664,0.4959            c0.2776,0.1603,0.6694,0.2016,0.855,0.0937c0.1891-0.1099,0.1148-0.3357-0.1628-0.496            c-0.632-0.3649-0.7065-0.9163-0.1671-1.2298c0.4423-0.257,1.1697-0.2732,1.7643-0.0645l0.4475-0.26L27.8948,73.0085z" fill="#83A1CC"/></g></g></g></g></g></g><g><g><g><g><g><g enable-background="new    "><g><path d="M31.5327,70.9072c1.8158,1.0483,1.8254,2.7478,0.0214,3.7962             c-1.8039,1.0483-4.7381,1.0484-6.5539,0.0001c-1.8158-1.0483-1.8253-2.7479-0.0213-3.7962             S29.7169,69.8589,31.5327,70.9072z" fill="#B6CBEA"/></g><g><path d="M33.8902,72.8213l-0.0025,0.8916c-0.0023,0.8283-0.5467,1.6553-1.6342,2.2873             c-2.189,1.2721-5.7496,1.2721-7.953,0c-1.1088-0.6401-1.6625-1.4804-1.6601-2.3194l0.0025-0.8916             c-0.0024,0.839,0.5514,1.6792,1.6601,2.3194c2.2034,1.2721,5.7639,1.2721,7.953,0             C33.3434,74.4766,33.8878,73.6496,33.8902,72.8213z" fill="#DEE7F8"/></g><g><path d="M32.23,70.5019c2.2034,1.2721,2.215,3.3345,0.0259,4.6067c-2.189,1.2721-5.7496,1.2721-7.953,0             c-2.2034-1.2721-2.215-3.3345-0.0259-4.6066S30.0267,69.2298,32.23,70.5019z M25.0002,74.7034             c1.8158,1.0483,4.7499,1.0483,6.5539,0c1.8039-1.0483,1.7944-2.7478-0.0214-3.7962             c-1.8158-1.0483-4.7498-1.0483-6.5538,0C23.175,71.9555,23.1845,73.6551,25.0002,74.7034L25.0002,74.7034z" fill="#83A1CC"/></g></g></g><g><g><path d="M30.629,71.7877l-0.4475,0.26c0.3604,0.3427,0.3332,0.7631-0.1091,1.0201l-0.6338-0.3659            c0.1874-0.1089,0.1148-0.3357-0.1628-0.496c-0.2759-0.1593-0.6712-0.2026-0.8585-0.0937            c-0.1891,0.1099-0.113,0.3387,0.1629,0.498c0.6303,0.3639,0.7065,0.9143,0.167,1.2278            c-0.444,0.258-1.1696,0.2752-1.7625,0.0675l-0.4458,0.2591l-0.6338-0.3659l0.4458-0.2591            c-0.3622-0.3437-0.3367-0.7651,0.1073-1.0231l0.6338,0.3659c-0.1856,0.1078-0.1095,0.3367,0.1664,0.4959            c0.2776,0.1603,0.6694,0.2016,0.855,0.0937c0.1891-0.1099,0.1148-0.3357-0.1628-0.496            c-0.632-0.3649-0.7065-0.9163-0.1671-1.2298c0.4423-0.257,1.1697-0.2732,1.7643-0.0645l0.4475-0.26L30.629,71.7877z" fill="#83A1CC"/></g></g></g></g></g></g><g><g><g><g><g><g enable-background="new    "><g><path d="M27.8091,68.8246c1.8158,1.0483,1.8254,2.7478,0.0214,3.7962             c-1.8039,1.0483-4.7381,1.0484-6.5539,0.0001c-1.8158-1.0483-1.8253-2.7479-0.0213-3.7962             S25.9933,67.7763,27.8091,68.8246z" fill="#B6CBEA"/></g><g><path d="M30.1665,70.7388l-0.0025,0.8916c-0.0023,0.8283-0.5467,1.6553-1.6342,2.2873             c-2.189,1.2721-5.7496,1.2721-7.953,0c-1.1088-0.6401-1.6625-1.4804-1.6601-2.3194l0.0025-0.8916             c-0.0024,0.839,0.5514,1.6792,1.6601,2.3194c2.2034,1.2721,5.7639,1.2721,7.953,0             C29.6198,72.3941,30.1642,71.5671,30.1665,70.7388z" fill="#DEE7F8"/></g><g><path d="M28.5064,68.4194c2.2034,1.2721,2.215,3.3345,0.0259,4.6067c-2.189,1.2721-5.7496,1.2721-7.953,0             c-2.2034-1.2721-2.2149-3.3345-0.0259-4.6066S26.303,67.1473,28.5064,68.4194z M21.2766,72.6209             c1.8158,1.0483,4.7499,1.0483,6.5539-0.0001c1.8039-1.0483,1.7944-2.7478-0.0214-3.7962             c-1.8158-1.0483-4.7498-1.0483-6.5538,0C19.4514,69.873,19.4609,71.5725,21.2766,72.6209L21.2766,72.6209z" fill="#83A1CC"/></g></g></g><g><g><path d="M26.9054,69.7051l-0.4475,0.26c0.3604,0.3427,0.3332,0.7631-0.1091,1.0201l-0.6338-0.3659            c0.1874-0.1089,0.1148-0.3357-0.1628-0.496c-0.2759-0.1593-0.6712-0.2026-0.8585-0.0937            c-0.1891,0.1099-0.113,0.3387,0.1629,0.498c0.6303,0.3639,0.7065,0.9143,0.167,1.2278            c-0.444,0.258-1.1696,0.2752-1.7625,0.0675l-0.4458,0.2591l-0.6338-0.3659l0.4458-0.2591            c-0.3622-0.3437-0.3367-0.7651,0.1073-1.0231l0.6338,0.3659c-0.1856,0.1078-0.1095,0.3367,0.1664,0.496            c0.2776,0.1603,0.6694,0.2016,0.855,0.0937c0.1891-0.1099,0.1148-0.3357-0.1628-0.496            c-0.632-0.3649-0.7065-0.9163-0.1671-1.2297c0.4423-0.257,1.1697-0.2732,1.7643-0.0645l0.4475-0.26L26.9054,69.7051z" fill="#83A1CC"/></g></g></g></g></g></g><g><g><g><g><g><g enable-background="new    "><g><path d="M30.5409,67.502c1.8158,1.0483,1.8254,2.7478,0.0214,3.7962s-4.7381,1.0484-6.5539,0.0001             c-1.8158-1.0483-1.8253-2.7479-0.0213-3.7962C25.791,66.4537,28.7251,66.4537,30.5409,67.502z" fill="#B6CBEA"/></g><g><path d="M32.8983,69.4161l-0.0025,0.8916c-0.0023,0.8283-0.5467,1.6553-1.6342,2.2873             c-2.189,1.2721-5.7496,1.2721-7.953,0c-1.1088-0.6401-1.6625-1.4804-1.6601-2.3194l0.0025-0.8916             c-0.0024,0.839,0.5514,1.6792,1.6601,2.3194c2.2034,1.2721,5.7639,1.2721,7.953,0             C32.3516,71.0714,32.896,70.2444,32.8983,69.4161z" fill="#DEE7F8"/></g><g><path d="M31.2382,67.0967c2.2034,1.2721,2.215,3.3345,0.0259,4.6067s-5.7496,1.2721-7.953,0             c-2.2034-1.2721-2.215-3.3345-0.0259-4.6066C25.4743,65.8246,29.0348,65.8246,31.2382,67.0967z M24.0084,71.2982             c1.8158,1.0483,4.7499,1.0483,6.5539-0.0001c1.8039-1.0483,1.7944-2.7478-0.0214-3.7962             c-1.8158-1.0483-4.7498-1.0483-6.5538,0C22.1831,68.5503,22.1926,70.2499,24.0084,71.2982L24.0084,71.2982z" fill="#83A1CC"/></g></g></g><g><g><path d="M29.6372,68.3825l-0.4475,0.26c0.3604,0.3427,0.3332,0.7631-0.1091,1.0201l-0.6338-0.3659            c0.1874-0.1089,0.1148-0.3357-0.1628-0.496c-0.2759-0.1593-0.6712-0.2026-0.8585-0.0937            c-0.1891,0.1099-0.113,0.3387,0.1629,0.498c0.6303,0.3639,0.7065,0.9143,0.167,1.2278            c-0.444,0.258-1.1696,0.2752-1.7625,0.0675l-0.4458,0.2591l-0.6338-0.3659l0.4458-0.2591            c-0.3622-0.3437-0.3367-0.7651,0.1073-1.0231l0.6338,0.3659c-0.1856,0.1078-0.1095,0.3367,0.1664,0.4959            c0.2776,0.1603,0.6694,0.2016,0.855,0.0937c0.1891-0.1099,0.1148-0.3357-0.1628-0.496            c-0.632-0.3649-0.7065-0.9163-0.1671-1.2298c0.4423-0.257,1.1697-0.2732,1.7643-0.0645l0.4475-0.26L29.6372,68.3825z" fill="#83A1CC"/></g></g></g></g></g></g></g><g><g><g><g><g><g enable-background="new    "><g><path d="M105.1289,50.5612c2.0188-0.5661,3.2411,0.6148,2.7303,2.6376            c-0.5108,2.0229-2.5613,4.1215-4.58,4.6876s-3.2411-0.6149-2.7302-2.6377            C101.0597,53.2259,103.1101,51.1273,105.1289,50.5612z" fill="#B6CBEA"/></g><g><path d="M108.1455,50.2128l0.636,0.6249c0.5908,0.5805,0.8019,1.5478,0.494,2.7673            c-0.6199,2.4547-3.1081,5.0013-5.5578,5.6883c-1.2327,0.3457-2.2207,0.1545-2.8192-0.4335l-0.636-0.6249            c0.5984,0.588,1.5864,0.7792,2.8192,0.4335c2.4497-0.6869,4.938-3.2336,5.5578-5.6883            C108.9474,51.7606,108.7363,50.7933,108.1455,50.2128z" fill="#DEE7F8"/></g><g><path d="M105.3263,49.7793c2.4497-0.6869,3.933,0.7461,3.3131,3.2008s-3.1081,5.0013-5.5578,5.6883            c-2.4497,0.6869-3.933-0.7461-3.3131-3.2008C100.3884,53.0129,102.8766,50.4662,105.3263,49.7793z M103.2791,57.8865            c2.0188-0.5661,4.0692-2.6647,4.5801-4.6876c0.5108-2.0229-0.7115-3.2037-2.7303-2.6376            c-2.0188,0.5661-4.0692,2.6646-4.58,4.6875C100.038,57.2716,101.2603,58.4525,103.2791,57.8865L103.2791,57.8865z" fill="#83A1CC"/></g></g></g><g><g><path d="M105.1271,51.8229l-0.1267,0.5018c0.497-0.0183,0.7786,0.295,0.6534,0.791l-0.7046,0.1976           c0.0531-0.2101-0.1599-0.3167-0.4686-0.2301c-0.3067,0.086-0.614,0.3385-0.667,0.5486           c-0.0535,0.212,0.1633,0.3175,0.47,0.2315c0.7007-0.1965,1.1477,0.1337,0.9949,0.7385           c-0.1257,0.4979-0.6205,1.0289-1.1834,1.3078l-0.1262,0.4999l-0.7046,0.1976l0.1262-0.4999           c-0.499,0.0188-0.7825-0.2939-0.6568-0.7918l0.7046-0.1976c-0.0526,0.2081,0.1643,0.3136,0.471,0.2276           c0.3086-0.0865,0.612-0.3379,0.6646-0.546c0.0535-0.212-0.1599-0.3167-0.4686-0.2301           c-0.7027,0.197-1.1491-0.135-0.9964-0.7399c0.1252-0.496,0.622-1.0275,1.1868-1.307l0.1267-0.5018L105.1271,51.8229z" fill="#83A1CC"/></g></g></g></g></g></g><g><g><g><g><g><g enable-background="new    "><g><path d="M74.3717,16.4466c1.4868-1.4782,3.1297-1.0429,3.6696,0.9725            c0.5399,2.0153-0.2276,4.8472-1.7145,6.3254c-1.4868,1.4782-3.1297,1.0427-3.6696-0.9726            C72.1173,20.7566,72.8849,17.9249,74.3717,16.4466z" fill="#B6CBEA"/></g><g><path d="M76.8359,14.6721l0.8599,0.2357c0.7988,0.2189,1.4546,0.9607,1.7801,2.1756            c0.6552,2.4455-0.2763,5.882-2.0805,7.6758c-0.9079,0.9026-1.8638,1.2173-2.6729,0.9955l-0.8599-0.2357            c0.8091,0.2218,1.765-0.0928,2.6729-0.9955c1.8042-1.7938,2.7357-5.2302,2.0805-7.6758            C78.2905,15.6328,77.6347,14.8911,76.8359,14.6721z" fill="#DEE7F8"/></g><g><path d="M74.163,15.6676c1.8042-1.7938,3.7979-1.2654,4.453,1.1801s-0.2763,5.882-2.0805,7.6758            c-1.8042,1.7938-3.7979,1.2654-4.453-1.1801S72.3588,17.4614,74.163,15.6676z M76.3268,23.7445            c1.4869-1.4782,2.2544-4.3101,1.7145-6.3254c-0.5399-2.0153-2.1828-2.4507-3.6696-0.9725            c-1.4868,1.4782-2.2544,4.31-1.7145,6.3253C73.1971,24.7873,74.84,25.2227,76.3268,23.7445L76.3268,23.7445z" fill="#83A1CC"/></g></g></g><g><g><path d="M74.9851,17.5492l0.1339,0.4999c0.4251-0.2582,0.8237-0.1219,0.956,0.3722l-0.519,0.516           c-0.0561-0.2093-0.294-0.1986-0.5213,0.0274c-0.2259,0.2246-0.3711,0.5948-0.315,0.8041           c0.0566,0.2112,0.2974,0.1976,0.5232-0.0269c0.5161-0.5131,1.0673-0.4426,1.2287,0.16           c0.1329,0.496-0.0404,1.2008-0.3959,1.7187l0.1334,0.498l-0.519,0.516l-0.1334-0.498           c-0.4265,0.2596-0.8265,0.1248-0.9594-0.3712l0.519-0.516c0.0555,0.2073,0.2963,0.1937,0.5222-0.0308           c0.2273-0.226,0.3697-0.5933,0.3141-0.8007c-0.0566-0.2112-0.294-0.1986-0.5213,0.0274           c-0.5175,0.5145-1.0692,0.4422-1.2306-0.1605c-0.1324-0.4941,0.0423-1.2004,0.3993-1.7197l-0.1339-0.4999L74.9851,17.5492z           " fill="#83A1CC"/></g></g></g></g></g></g><g><g><g><g><g><g enable-background="new    "><g><path d="M97.8822,30.2383c1.6084,1.0718,1.3613,2.1469-0.552,2.4013            c-1.9133,0.2545-4.7681-0.408-6.3765-1.4799c-1.6084-1.0718-1.3612-2.1469,0.5521-2.4013            C93.4191,28.504,96.2738,29.1665,97.8822,30.2383z" fill="#B6CBEA"/></g><g><path d="M99.887,31.979l-0.2037,0.9002c-0.1273,0.5223-0.7817,0.9215-1.9351,1.0749            c-2.3217,0.3088-5.786-0.4952-7.7377-1.7958c-0.9822-0.6545-1.3941-1.31-1.2652-1.8391l0.2037-0.9002            c-0.1289,0.5291,0.2831,1.1846,1.2652,1.8391c1.9518,1.3006,5.416,2.1046,7.7377,1.7958            C99.1053,32.9005,99.7598,32.5014,99.887,31.979z" fill="#DEE7F8"/></g><g><path d="M98.6218,30.1399c1.9518,1.3006,1.6519,2.6052-0.6699,2.914            c-2.3217,0.3088-5.786-0.4952-7.7377-1.7958c-1.9518-1.3006-1.6518-2.6052,0.6699-2.914            C93.2058,28.0354,96.67,28.8393,98.6218,30.1399z M90.9537,31.1598c1.6084,1.0718,4.4632,1.7343,6.3765,1.4799            c1.9133-0.2545,2.1604-1.3295,0.552-2.4013c-1.6084-1.0718-4.4631-1.7343-6.3764-1.4799            C89.5925,29.0129,89.3453,30.088,90.9537,31.1598L90.9537,31.1598z" fill="#83A1CC"/></g></g></g><g><g><path d="M96.8701,30.5901l-0.4746,0.0631c0.299,0.2977,0.209,0.557-0.2601,0.6193l-0.5614-0.3741           c0.1987-0.0264,0.1623-0.186-0.0836-0.3499c-0.2444-0.1628-0.6224-0.2794-0.8212-0.253           c-0.2005,0.0267-0.161,0.1883,0.0833,0.3511c0.5583,0.372,0.5494,0.7367-0.0228,0.8128           c-0.4709,0.0626-1.1795-0.0904-1.725-0.3553l-0.4728,0.0629l-0.5614-0.3741l0.4728-0.0629           c-0.3005-0.2988-0.2121-0.559,0.2588-0.6217l0.5614,0.3741c-0.1968,0.0262-0.1573,0.1878,0.087,0.3507           c0.2459,0.1639,0.6209,0.2784,0.8177,0.2522c0.2005-0.0267,0.1623-0.186-0.0836-0.3499           c-0.5599-0.3731-0.5491-0.738,0.023-0.8141c0.4691-0.0624,1.1792,0.0917,1.7263,0.3576l0.4746-0.0631L96.8701,30.5901z" fill="#83A1CC"/></g></g></g></g></g></g><path d="M78.4778,99.7151c-0.7194-0.0316-2.9632-0.0153-3.504-0.1944c-0.4614,0.093-5.4104-0.2369-6.07-0.3467     c-0.1001-0.017-6.0016-0.0886-9.0165,0.5983c-0.349,0.0704-0.3124,0.0591-0.3185,0.0621     c-1.2249,0.3712-0.0737,0.3106,0.2124,0.3861c0.814,0.2433-0.1947,0.8425-0.8848,1.1772     c0.8569,0.6512-4.9925,0.846-5.9107,0.3599c0,0-0.9114-0.1977,0.6813-0.9949c0.4548-0.2071,0.591-0.4775,1.7254-0.6134     c0.0089-0.0089,0.0177-0.0089,0.0177-0.0182c-0.1001-0.0061-1.0655-0.0205-1.1768-0.0802     c-0.8671-0.0323-0.8229-0.3346-0.8229-0.3346c-0.0177-0.1836,0.6017-1.1789,1.0441-1.7447     c0.2631-0.3611,1.2662-0.5427,3.4509-1.2903c0.0872-0.1042,0.395-0.4815,0.4778-0.5839     c0.1097-0.9839,3.6193-1.2946,4.9728-3.2063c0.7698-1.0499,5.7869-4.2832,5.7869-4.2832l0.0531,0.0003     c-0.0089-0.0734-0.0531-0.523,0.6459-0.6747c0.6105-0.1432,0.4604,0.1567,1.8673,0.1922c0-0.1468,0.3024,0.2421,0.8776,0.108     c0.699-0.1611,1.1837,0.8867,2.8561,0.8964c0.3274,0.0019,0.6548,0.0038,0.9468,0.0238     c0.6282,0.0493,1.6634,0.1471,1.9732,0.3046c0,0,0.0126,1.3057-1.7217,1.3229c-1.4334,0.01-2.0793-0.0577-3.212,0.0825     c0.3893,0.0479,0.7344,0.1139,0.8937,0.1976c0,0,0.2389,0.2484-1.5042,0.266l-0.3982-0.0023     c-0.6371,0.5369-1.3752,0.4005-1.9061,0.9107c-0.8113,0.7734-0.5158,1.8873-2.6014,3.3763     c-0.198,0.199-2.4833,2.018-2.9642,2.604c5.5451,0.0129,10.5874,0.7845,10.6535,0.8867     c0.4927-0.0524,1.9424-0.0325,2.0528,0.0853c0.1769,0.0834,0.0089,0.2108-0.2831,0.3465     c0.3982,0.0117,1.0087,0.1066,1.0618,0.1436C78.4601,99.6877,78.4689,99.7061,78.4778,99.7151z" fill="#E1E9F4"/><g><g><g><path d="M67.365,62.9079c0.2196-1.7453,0.7286-4.8016,0.927-5.3677c0,0,0.4757-1.5896,1.8731-0.8878        c1.0854,0.5457-0.0895,4.6706-0.6075,6.1914c-0.1505,0.4424,1.2436,5.4974,1.2436,5.4974s-0.4637-0.0281-0.9318,0.6098        l-2.2865-4.7171C67.3831,63.8218,67.3079,63.3623,67.365,62.9079z" fill="#B6CBEA"/><g><g><g><path d="M70.0334,86.7159l1.6531-0.559c1.1366,0.9716,1.715,0.662,3.1616,0.7233           c1.4258,0.0827,0.9713,0.8478,0.9713,0.8478c-0.4211,0.4915-1.3763,0.7727-1.9456,0.903           c-0.2684,0.0613-0.5403,0.0728-0.8156,0.0709c-1.3924-0.0088-2.7719,0.6157-3.19,0.1207           C69.4134,88.2859,70.0334,86.7159,70.0334,86.7159z" fill="#2A2A5E"/><g><path d="M68.7258,71.5719c-0.7724-2.4964,0.5914-4.1081,0.8204-4.5157l4.0784,1.304            c0,0,0.3781,3.7741-0.9938,8.7632c-0.1782,0.6479-0.2786,1.3171-0.326,2.0003c-0.1384,1.9925-0.3989,6.0159-0.325,7.0102            c-0.3825,0.719-1.1115,0.816-2.0035,0.6152c0,0-0.9096-4.8263-0.4632-8.0641c0.1417-1.0281,0.2217-2.0484,0.1673-3.0592            C69.6151,74.4134,69.1269,72.8687,68.7258,71.5719z" fill="#3A3A77"/></g><g><path d="M72.6332,88.4758l1.6531-0.559c1.1365,0.9716,1.715,0.662,3.1616,0.7233            c1.4258,0.0827,0.9713,0.8478,0.9713,0.8478c-0.4211,0.4915-1.3763,0.7727-1.9456,0.903            c-0.2684,0.0613-0.5403,0.0728-0.8156,0.0709c-1.3924-0.0088-2.7719,0.6157-3.19,0.1207            C72.0132,90.0458,72.6332,88.4758,72.6332,88.4758z" fill="#2A2A5E"/><path d="M71.4884,73.3586c-0.9515-2.3794-0.5871-5.1867-0.361-5.5974l4.9301,1.457            c0,0,0.3339,4.4795-0.9821,9.5599c-0.1709,0.6595-0.2631,1.3411-0.3016,2.0369            c-0.1125,2.0298-0.3207,6.1297-0.2325,7.1427c-0.3764,0.7329-1.1111,0.8322-2.0144,0.6276            c0,0-0.9608-4.8052-0.5904-8.1013c0.1286-1.1442,0.2032-2.2793,0.109-3.3988            C71.9359,75.7858,71.9976,74.6319,71.4884,73.3586z" fill="#4C4A8B"/></g></g></g><g><g><g><g><g><g><g><g><path d="M74.3775,51.6872c0,0-3.8878,1.153-3.9011,1.3745c0.0031,0.0796-0.1544,4.0945-0.0832,5.0052                 c0.1047,1.4843,4.0085,0.7536,3.4489-0.2443c-0.3614-0.6554-0.7704-1.1155-0.4073-1.4784                 c0.2373-0.2371,0.3869-0.0329,0.6697-0.254C75.4371,55.0284,74.3775,51.6872,74.3775,51.6872z" fill="#ECB4BF"/></g><path d="M70.3855,56.2911c0.1827,0.837,1.3919,0.8549,2.2544,0.7767                c0.4074-0.0367,0.8177,0.1053,1.0794,0.4201c0.3732,0.4482,0.8447,0.8447,1.2953,1.1846                c1.6102,1.2152,1.5655,2.4044,1.3492,3.3876c-0.2478,1.1268-0.2685,8.7707-0.2685,8.7707                c-3.0467,2.7819-7.4085-2.0743-7.4085-2.0743c0.1961-2.1968,0.8725-4.949-0.2089-8.8015                C67.3964,56.1023,70.3855,56.2911,70.3855,56.2911z" fill="#9EB5DF"/></g></g></g></g></g></g></g></g><path d="M70.0456,51.2635c1.1064-1.2902,4.7188-0.8689,4.7704,0.4029        c0.0297,0.7316-0.5107,1.1441-0.8816,1.4414c-0.1292,0.1036-0.2042,0.2591-0.2085,0.4246        c-0.0115,0.4402,0.029,0.8101,0.029,0.8101l-0.2482,0.2892c-0.0654-0.4825-0.1377-0.741-0.2127-0.9016        c-0.0276-0.0595-0.1025-0.0731-0.1501-0.0285c-0.2164,0.2012-0.36,0.4753-0.3966,0.7744        c-0.0436,0.3559-0.0677,0.9602,0.1154,1.5044c0.1104,0.328-0.1104,0.6642-0.4555,0.6894        c-0.6913,0.0509-1.2893-0.07-2.018-0.4397c-0.3681-0.1867-0.6127-0.5534-0.6665-0.9629        c-0.0594-0.4516-0.1328-0.942-0.1328-0.942C69.0857,51.8528,70.0456,51.2635,70.0456,51.2635z" fill="#A0533F"/></g></g><g><path d="M89.0256,57.8998c-0.0284,0.0018-0.122-0.0003-0.2115,0.0212       c-0.4524,0.109-0.7159,0.1144-1.0459,0.1386c-0.4637,0.034-0.8571,0.0805-1.2668,0.2109l-0.0013,0.0004       c-0.3249,0.0327-0.6394,0.2955-0.8427,0.5509c-0.0006,0.0006-0.0012,0.0012-0.0018,0.0024       c-0.0968,0.1199-0.3674,0.1699-0.3873,0.1838l0.0677,0.8269l0.1297-0.0597c0.1534-0.0778,0.3255-0.0669,0.4747,0.0174       c0.5446,0.2981,1.3585,0.1175,1.7359-0.0589c0.1038-0.0571,0.1565-0.1031,0.1733-0.1395       c0.2346-0.2548,0.2217-0.6421,0.1224-1.0604c0.345-0.0347,0.9502-0.3218,1.0279-0.4279       c0.0329-0.0381,0.0547-0.075,0.0721-0.112C89.0986,57.951,89.0669,57.8956,89.0256,57.8998z" fill="#ECB4BF"/><path d="M85.7711,58.3664c0,0-1.9969,0.3946-2.4728,0.4473c-0.4759,0.0527-2.315,0.4651-2.7157,0.6621       c-0.3576,0.1752-3.3039-0.514-5.4586-0.3876c-0.588,0.0341-0.8636-0.0906-1.3435,0.3149       c-0.5242,0.4427-0.7961,1.3615-0.222,2.177c1.0436,1.4815,7.341,0.3827,7.6856,0.2176       c0.4361-0.2085,4.5129-1.6016,4.7492-1.8559C85.9933,59.9416,86.7154,58.9842,85.7711,58.3664z" fill="#B6CBEA"/></g></g></g></g></g></svg>