<?xml version="1.0" encoding="utf-8"?>
<!-- Generator: Adobe Illustrator 23.0.2, SVG Export Plug-In . SVG Version: 6.00 Build 0)  -->
<svg version="1.1" id="图层_1" xmlns="http://www.w3.org/2000/svg" xmlns:xlink="http://www.w3.org/1999/xlink" x="0px" y="0px"
	 viewBox="0 0 800 800" style="enable-background:new 0 0 800 800;" xml:space="preserve">
<style type="text/css">
	.st0{fill:#CECECE;}
	.st1{fill:#A8A8A8;}
	.st2{fill:#943E7B;}
	.st3{fill:#1C1D1D;stroke:#14203E;stroke-width:3.1655;stroke-miterlimit:10;}
	.st4{fill:#F4DBD1;stroke:#000000;stroke-miterlimit:10;}
	.st5{fill:#B1DDDD;}
	.st6{fill:#9699C7;}
	.st7{fill:#412D35;}
	.st8{opacity:0.43;}
	.st9{fill:#FFFFFF;}
	.st10{fill:#040000;}
	.st11{fill:#6D2932;}
	.st12{fill:#431234;}
	.st13{fill:#C99C5D;}
	.st14{fill:#149793;}
	.st15{fill:none;stroke:#3A0C05;stroke-width:10;stroke-miterlimit:10;}
	.st16{fill:none;stroke:#C99C5D;stroke-width:5.5408;stroke-miterlimit:10;}
	.st17{fill:none;stroke:#3A0C05;stroke-width:10.8417;stroke-miterlimit:10;}
	.st18{fill:none;stroke:#C99C5D;stroke-width:6.0712;stroke-miterlimit:10;}
	.st19{fill:#300A03;}
	.st20{fill:#0A0203;}
	.st21{fill:#BF2220;}
	.st22{fill:#EC662F;}
	.st23{fill:#323333;}
	.st24{fill:#FFFFFF;stroke:#323333;stroke-width:2.4376;stroke-miterlimit:10;}
	.st25{fill:#F6C9B3;stroke:#323333;stroke-width:2.4376;stroke-miterlimit:10;}
	.st26{fill:#F6C9B3;stroke:#323333;stroke-width:2.541;stroke-miterlimit:10;}
	.st27{fill:none;stroke:#323333;stroke-width:4.1908;stroke-linecap:round;stroke-miterlimit:10;}
	.st28{fill:none;stroke:#323333;stroke-width:3;stroke-linecap:round;stroke-miterlimit:10;}
	.st29{fill:#F6C9B3;stroke:#323333;stroke-width:1.3747;stroke-miterlimit:10;}
	.st30{fill:#5F7E99;}
	.st31{fill:none;stroke:#323333;stroke-width:2.6814;stroke-linecap:round;stroke-miterlimit:10;}
	.st32{fill:#F6C9B3;stroke:#323333;stroke-width:2.2432;stroke-miterlimit:10;}
	.st33{fill:#9598C6;stroke:#323333;stroke-width:2.4376;stroke-miterlimit:10;}
	.st34{fill:#A4427C;stroke:#313333;stroke-width:2.3955;stroke-miterlimit:10;}
	.st35{fill:#FFFFFF;stroke:#323333;stroke-width:4.1907;stroke-miterlimit:10;}
	.st36{fill:none;stroke:#323333;stroke-width:4.1907;stroke-miterlimit:10;}
	.st37{fill:none;stroke:#323333;stroke-width:2.6322;stroke-linecap:round;stroke-miterlimit:10;}
	.st38{fill:#FFFFFF;stroke:#323333;stroke-width:1.8282;stroke-linecap:round;stroke-miterlimit:10;}
	.st39{fill:#FFFFFF;stroke:#323333;stroke-width:2.2669;stroke-linecap:round;stroke-miterlimit:10;}
	.st40{fill:#FFFFFF;stroke:#323333;stroke-width:1.6729;stroke-linecap:round;stroke-miterlimit:10;}
	.st41{fill:#FFFFFF;stroke:#323333;stroke-width:1.3755;stroke-linecap:round;stroke-miterlimit:10;}
	.st42{fill:#172D57;stroke:#323333;stroke-width:2.4376;stroke-linecap:round;stroke-miterlimit:10;}
	.st43{fill:none;stroke:#323333;stroke-width:2.3107;stroke-linecap:round;stroke-miterlimit:10;}
	.st44{fill:#040000;stroke:#323333;stroke-width:2.8975;stroke-miterlimit:10;}
	.st45{fill:none;stroke:#323333;stroke-width:1.6358;stroke-linecap:round;stroke-miterlimit:10;}
	.st46{fill:#ADADAD;stroke:#323333;stroke-width:2.8975;stroke-miterlimit:10;}
	.st47{fill:#495E6B;}
	.st48{fill:#FDF0D8;stroke:#2F3030;stroke-width:2.6751;stroke-miterlimit:10;}
	.st49{fill:#474747;stroke:#2F3030;stroke-width:1.3446;stroke-miterlimit:10;}
	.st50{fill:#FFFFFF;stroke:#2F3030;stroke-width:2.6751;stroke-miterlimit:10;}
	.st51{fill:#4A6EA8;stroke:#2F3030;stroke-width:2.1585;stroke-miterlimit:10;}
	.st52{fill:#4A6EA8;stroke:#2F3030;stroke-width:2.6751;stroke-miterlimit:10;}
	.st53{fill:#2F3030;stroke:#2F3030;stroke-width:2.6751;stroke-miterlimit:10;}
	.st54{fill:#FFFFFF;stroke:#2F3030;stroke-width:2.1109;stroke-miterlimit:10;}
	.st55{fill:#FFFFFF;stroke:#2F3030;stroke-width:1.3376;stroke-miterlimit:10;}
	.st56{fill:#1F2E39;stroke:#2F3030;stroke-miterlimit:10;}
	.st57{fill:#E8BED8;stroke:#2F3030;stroke-width:2.9553;stroke-miterlimit:10;}
	.st58{fill:#D774AA;stroke:#2F3030;stroke-width:2.9553;stroke-miterlimit:10;}
	.st59{fill:#E0A0C6;stroke:#2F3030;stroke-width:2.9553;stroke-miterlimit:10;}
	.st60{fill:#FDF0D8;stroke:#2F3030;stroke-width:2.9553;stroke-miterlimit:10;}
	.st61{fill:#1F2E39;stroke:#2F3030;stroke-width:2.9553;stroke-miterlimit:10;}
	.st62{fill:none;stroke:#2F3030;stroke-width:2.9553;stroke-miterlimit:10;}
	.st63{fill:none;stroke:#2F3030;stroke-width:2.9553;stroke-linecap:round;stroke-miterlimit:10;}
	.st64{fill:#2F3030;stroke:#2F3030;stroke-width:2.9553;stroke-linecap:round;stroke-miterlimit:10;}
	.st65{fill:#FFFFFF;stroke:#2F3030;stroke-width:2.9553;stroke-miterlimit:10;}
	.st66{fill:#D2599C;stroke:#2F3030;stroke-width:2.9553;stroke-miterlimit:10;}
	.st67{fill:#264B7E;stroke:#2F3030;stroke-width:4;stroke-miterlimit:10;}
	.st68{fill:#073E68;stroke:#2F3030;stroke-width:4;stroke-miterlimit:10;}
	.st69{fill:#F2C9B3;stroke:#2F3030;stroke-width:4;stroke-miterlimit:10;}
	.st70{fill:#F2C9B3;}
	.st71{fill:none;stroke:#2F3030;stroke-width:4;stroke-miterlimit:10;}
	.st72{fill:#F2C9B3;stroke:#2F3030;stroke-width:4;stroke-linecap:round;stroke-miterlimit:10;}
	.st73{fill:#050101;}
	.st74{fill:#533937;stroke:#000000;stroke-width:2.5835;stroke-miterlimit:10;}
	.st75{fill:#FFFFFF;stroke:#2F3030;stroke-width:2.5835;stroke-miterlimit:10;}
	.st76{fill:none;stroke:#040000;stroke-width:2.5835;stroke-linecap:round;stroke-miterlimit:10;}
	.st77{fill:#FFFFFF;stroke:#060404;stroke-width:2.5835;stroke-linecap:round;stroke-miterlimit:10;}
	.st78{fill:#987367;stroke:#000000;stroke-width:4;stroke-miterlimit:10;}
	.st79{fill:#FFFFFF;stroke:#000000;stroke-width:4;stroke-miterlimit:10;}
	.st80{fill:#F4DBD1;stroke:#000000;stroke-width:4;stroke-miterlimit:10;}
	.st81{fill:#F4DBD1;}
	.st82{fill:none;stroke:#000000;stroke-width:4;stroke-miterlimit:10;}
	.st83{fill:none;stroke:#000000;stroke-width:4;stroke-linecap:round;stroke-miterlimit:10;}
	.st84{fill:none;stroke:#DE322F;stroke-width:4;stroke-linecap:round;stroke-miterlimit:10;}
	.st85{fill:#D8A986;stroke:#14203E;stroke-width:3.6591;stroke-miterlimit:10;}
	.st86{fill:#9CA9CD;stroke:#14203E;stroke-width:3.6591;stroke-miterlimit:10;}
	.st87{fill:#D8A986;}
	.st88{fill:#E71F19;stroke:#14203E;stroke-width:3.6591;stroke-miterlimit:10;}
	.st89{fill:#394981;stroke:#14203E;stroke-width:3.6591;stroke-miterlimit:10;}
	.st90{fill:#14203E;}
	.st91{fill:none;stroke:#14203E;stroke-width:2.7443;stroke-linecap:round;stroke-miterlimit:10;}
	.st92{fill:none;stroke:#14203E;stroke-width:2.2123;stroke-linecap:round;stroke-miterlimit:10;}
	.st93{fill:#FFFFFF;stroke:#14203E;stroke-width:2.2123;stroke-linecap:round;stroke-miterlimit:10;}
	.st94{fill:#9CA9CD;}
	.st95{fill:#9CA9CD;stroke:#14203E;stroke-width:3.6591;stroke-linecap:round;stroke-miterlimit:10;}
	.st96{fill:none;stroke:#14203E;stroke-width:2.8957;stroke-miterlimit:10;}
	.st97{fill:#2C3376;stroke:#0B102C;stroke-width:3.2325;stroke-miterlimit:10;}
	.st98{fill:#F9D6C3;}
	.st99{fill:none;stroke:#14203E;stroke-width:3.2325;stroke-miterlimit:10;}
	.st100{fill:#F9D6C3;stroke:#14203E;stroke-width:3.2325;stroke-miterlimit:10;}
	.st101{fill:#E7211C;stroke:#14203E;stroke-width:1.8016;stroke-miterlimit:10;}
	.st102{fill:#FFFFFF;stroke:#14203E;stroke-width:3.2325;stroke-miterlimit:10;}
	.st103{fill:#FFFFFF;stroke:#14203E;stroke-width:3.2325;stroke-linecap:round;stroke-miterlimit:10;}
	.st104{fill:none;stroke:#14203E;stroke-width:3.2325;stroke-linecap:round;stroke-miterlimit:10;}
	.st105{fill:none;stroke:#14203E;stroke-width:4;stroke-linecap:round;stroke-miterlimit:10;}
	.st106{fill:#5B3719;stroke:#14203E;stroke-width:2.8784;stroke-miterlimit:10;}
	.st107{fill:#EAC3A2;stroke:#14203E;stroke-width:2.8784;stroke-miterlimit:10;}
	.st108{fill:#5B3719;}
	.st109{fill:#D65D37;stroke:#14203E;stroke-width:2.8784;stroke-miterlimit:10;}
	.st110{fill:#FFFFFF;stroke:#14203E;stroke-width:2.8784;stroke-miterlimit:10;}
	.st111{fill:none;stroke:#14203E;stroke-width:2.8784;stroke-linecap:round;stroke-miterlimit:10;}
	.st112{fill:#FFFFFF;stroke:#101722;stroke-width:4.779;stroke-miterlimit:10;}
	.st113{fill:#E71F19;stroke:#101722;stroke-width:2.7716;stroke-miterlimit:10;}
	.st114{fill:#252525;}
	.st115{fill:#F3CAAE;stroke:#101722;stroke-width:2.7716;stroke-miterlimit:10;}
	.st116{fill:#FFFFFF;stroke:#101722;stroke-width:3.3114;stroke-miterlimit:10;}
	.st117{fill:none;stroke:#101722;stroke-width:2.7716;stroke-miterlimit:10;}
	.st118{fill:none;stroke:#252525;stroke-width:0.6929;stroke-miterlimit:10;}
	.st119{fill:none;stroke:#2F3030;stroke-width:2.7716;stroke-miterlimit:10;}
</style>
<rect x="2.65" class="st4" width="797.35" height="797.35"/>
<g>
	<path class="st78" d="M516.21,472.04H317.13V364c0-54.97,44.57-99.54,99.54-99.54h0c54.97,0,99.54,44.57,99.54,99.54V472.04z"/>
	<path class="st79" d="M501.15,558.9H336.79v-22.23c0-42.79,34.69-77.48,77.48-77.48h9.4c42.79,0,77.48,34.69,77.48,77.48V558.9z"/>
	<polygon class="st80" points="394.37,460.07 391.22,483.99 417.73,473.56 406.48,460.07 	"/>
	<polygon class="st80" points="443.49,460.07 446.64,483.99 420.13,473.56 431.38,460.07 	"/>
	<g>
		<path class="st81" d="M417.73,477.66L417.73,477.66c-8.65,0-15.65-7.01-15.65-15.65v-21.27h31.31V462
			C433.39,470.65,426.38,477.66,417.73,477.66z"/>
		<path class="st82" d="M417.73,477.66L417.73,477.66c-8.65,0-15.65-7.01-15.65-15.65v-21.27h31.31V462
			C433.39,470.65,426.38,477.66,417.73,477.66z"/>
	</g>
	<g>
		<path class="st81" d="M416.67,448.48L416.67,448.48c-46.66,0-84.48-37.82-84.48-84.48v0c0-46.66,37.82-84.48,84.48-84.48h0
			c46.66,0,84.48,37.82,84.48,84.48v0C501.15,410.66,463.33,448.48,416.67,448.48z"/>
		<path class="st82" d="M416.67,448.48L416.67,448.48c-46.66,0-84.48-37.82-84.48-84.48v0c0-46.66,37.82-84.48,84.48-84.48h0
			c46.66,0,84.48,37.82,84.48,84.48v0C501.15,410.66,463.33,448.48,416.67,448.48z"/>
	</g>
	<path class="st79" d="M447.21,274.03h-64.37c-2.27,0-4.25-1.54-4.82-3.74l-7.07-27.51c-0.81-3.15,1.57-6.22,4.82-6.22h77.33
		c3.17,0,5.53,2.92,4.87,6.02l-5.89,27.51C451.58,272.39,449.55,274.03,447.21,274.03z"/>
	<circle class="st79" cx="383.72" cy="351.38" r="16.87"/>
	<circle class="st79" cx="447.56" cy="351.38" r="16.87"/>
	<line class="st83" x1="377.3" y1="351.38" x2="391.22" y2="351.38"/>
	<line class="st83" x1="440.51" y1="351.38" x2="454.43" y2="351.38"/>
	<path class="st82" d="M400.6,351.38c0,0,13.21-16.87,30.09,0"/>
	<path class="st82" d="M414.05,368.25h3.18c1.01,0,1.83,0.82,1.83,1.83v7c0,1.06,0.86,1.91,1.91,1.91h1.71
		c1.17,0,2.12,0.95,2.12,2.12l0,0c0,1.17-0.95,2.12-2.12,2.12H408.6c-1.17,0-2.12-0.95-2.12-2.12v-0.33c0-1.17,0.95-2.12,2.12-2.12
		h1.7c1.06,0,1.91-0.86,1.91-1.91v-6.68C412.22,369.07,413.04,368.25,414.05,368.25z"/>
	<path class="st79" d="M414.3,398.5h9.33c3.85,0,5.77,4.68,3.02,7.38l-2.42,2.38v0c-5.46,5.37-14.4,5.37-19.86,0v0l-2.42-2.38
		c-2.75-2.7-0.84-7.38,3.02-7.38H414.3z"/>
	<line class="st80" x1="417.73" y1="477.66" x2="417.73" y2="556.59"/>
	<path class="st80" d="M466.92,506.72L466.92,506.72c-2.76,0-5-2.24-5-5v-9.16c0-2.76,2.24-5,5-5h0c2.76,0,5,2.24,5,5v9.16
		C471.92,504.48,469.68,506.72,466.92,506.72z"/>
	<line class="st84" x1="398.25" y1="255.3" x2="433.39" y2="255.3"/>
	<line class="st84" x1="415.64" y1="241.92" x2="415.64" y2="268.68"/>
</g>
</svg>
