<svg id="图层_1" data-name="图层 1" xmlns="http://www.w3.org/2000/svg" xmlns:xlink="http://www.w3.org/1999/xlink" viewBox="0 0 200 200"><defs><style>.cls-1{fill:#ccb9be;}.cls-1,.cls-10,.cls-11,.cls-12,.cls-13,.cls-14,.cls-15,.cls-16,.cls-17,.cls-18,.cls-19,.cls-2,.cls-20,.cls-21,.cls-22,.cls-23,.cls-24,.cls-25,.cls-26,.cls-27,.cls-28,.cls-29,.cls-3,.cls-30,.cls-31,.cls-32,.cls-33,.cls-34,.cls-35,.cls-36,.cls-37,.cls-38,.cls-39,.cls-4,.cls-40,.cls-41,.cls-42,.cls-43,.cls-44,.cls-45,.cls-5,.cls-6,.cls-7,.cls-8,.cls-9{fill-rule:evenodd;}.cls-2{fill:#f0e7e8;}.cls-3{fill:#868082;}.cls-4{fill:#c1b8bb;}.cls-5{fill:#171616;}.cls-6{fill:#b1b1b1;}.cls-7{fill:#f6f1ee;}.cls-8{fill:#93888c;}.cls-9{fill:#3c292b;}.cls-10{fill:#836d70;}.cls-11{fill:#fff7ee;}.cls-12{fill:#d0cac8;}.cls-13{fill:#83726a;}.cls-14{fill:#e0c9bf;}.cls-15{fill:url(#linear-gradient);}.cls-16{fill:url(#linear-gradient-2);}.cls-17{fill:#f5f1e1;}.cls-18{fill:#dbd8cd;}.cls-19{fill:#8a8881;}.cls-20{fill:#949494;}.cls-21{fill:#f7f7f7;}.cls-23{fill:url(#linear-gradient-3);}.cls-24{fill:url(#linear-gradient-4);}.cls-25{fill:#666;}.cls-26{fill:#2e2e2e;}.cls-27{fill:#999;}.cls-28{fill:url(#linear-gradient-5);}.cls-29{fill:url(#linear-gradient-6);}.cls-30{fill:url(#linear-gradient-7);}.cls-31{fill:url(#linear-gradient-8);}.cls-32{fill:url(#linear-gradient-9);}.cls-33{fill:url(#linear-gradient-10);}.cls-34{fill:url(#linear-gradient-11);}.cls-35{fill:url(#linear-gradient-12);}.cls-36{fill:url(#linear-gradient-13);}.cls-37{fill:url(#linear-gradient-14);}.cls-38{fill:#fbe8c8;}.cls-39{fill:#b8ad9b;}.cls-40{opacity:0.3;}.cls-41{fill:#89857c;}.cls-42{fill:#4e4b45;}.cls-43{fill:#ababab;}.cls-44{fill:#727271;}.cls-45{fill:#4a4a49;}</style><linearGradient id="linear-gradient" x1="1056.61" y1="1775.72" x2="1109.23" y2="1723.1" gradientTransform="matrix(0.34, -0.19, 0, 0.37, -285.77, -389.74)" gradientUnits="userSpaceOnUse"><stop offset="0" stop-color="#d3d3d3"/><stop offset="0.28" stop-color="#f1f1f1"/><stop offset="0.78" stop-color="#f1f1f1"/><stop offset="1" stop-color="#c3c3c3"/></linearGradient><linearGradient id="linear-gradient-2" x1="-2016.18" y1="3932.28" x2="-1636.06" y2="3932.28" gradientTransform="matrix(0.06, -0.07, 0.12, 0.07, -229.15, -311.58)" xlink:href="#linear-gradient"/><linearGradient id="linear-gradient-3" x1="-664.21" y1="518.55" x2="-633.78" y2="518.55" gradientTransform="matrix(0.44, 0, 0, 0.44, 348.86, -173.88)" gradientUnits="userSpaceOnUse"><stop offset="0" stop-color="#5f5f5f"/><stop offset="0.07" stop-color="#a69e9e"/><stop offset="0.24" stop-color="#626262"/><stop offset="0.85" stop-color="#171717"/><stop offset="1" stop-color="#626262"/></linearGradient><linearGradient id="linear-gradient-4" x1="-664.24" y1="569.7" x2="-633.8" y2="569.7" xlink:href="#linear-gradient-3"/><linearGradient id="linear-gradient-5" x1="53.52" y1="77.99" x2="67.06" y2="77.99" gradientTransform="translate(-0.26 0.26) rotate(0.01)" gradientUnits="userSpaceOnUse"><stop offset="0" stop-color="#690000"/><stop offset="0.07" stop-color="#de0000"/><stop offset="0.24" stop-color="#a80000"/><stop offset="0.85" stop-color="#3a0000"/><stop offset="1" stop-color="#a00"/></linearGradient><linearGradient id="linear-gradient-6" x1="53.52" y1="57.4" x2="67.06" y2="57.4" xlink:href="#linear-gradient-5"/><linearGradient id="linear-gradient-7" x1="-653.73" y1="524.19" x2="-623.3" y2="524.19" gradientTransform="matrix(0.44, 0, 0, 0.44, 363.81, -165.83)" xlink:href="#linear-gradient-3"/><linearGradient id="linear-gradient-8" x1="-653.76" y1="575.34" x2="-623.32" y2="575.34" gradientTransform="matrix(0.44, 0, 0, 0.44, 363.81, -165.83)" xlink:href="#linear-gradient-3"/><linearGradient id="linear-gradient-9" x1="73.13" y1="88.55" x2="86.67" y2="88.55" xlink:href="#linear-gradient-5"/><linearGradient id="linear-gradient-10" x1="73.13" y1="67.96" x2="86.67" y2="67.96" xlink:href="#linear-gradient-5"/><linearGradient id="linear-gradient-11" x1="-643.28" y1="529.84" x2="-612.85" y2="529.84" gradientTransform="matrix(0.44, 0, 0, 0.44, 378.76, -157.78)" xlink:href="#linear-gradient-3"/><linearGradient id="linear-gradient-12" x1="-643.28" y1="580.98" x2="-612.84" y2="580.98" gradientTransform="matrix(0.44, 0, 0, 0.44, 378.76, -157.78)" xlink:href="#linear-gradient-3"/><linearGradient id="linear-gradient-13" x1="92.74" y1="99.11" x2="106.28" y2="99.11" xlink:href="#linear-gradient-5"/><linearGradient id="linear-gradient-14" x1="92.73" y1="78.52" x2="106.27" y2="78.52" xlink:href="#linear-gradient-5"/></defs><title>工厂5</title><polygon class="cls-1" points="110.67 58.65 200 110.22 110.16 162.2 89.5 162.2 0.17 110.58 90.01 58.65 110.67 58.65"/><polygon class="cls-2" points="89.33 153.69 0 102.07 89.84 50.09 179.17 101.71 89.33 153.69"/><polygon class="cls-3" points="179.17 101.82 179.17 110.28 89.28 162.16 89.28 153.69 179.17 101.82"/><polygon class="cls-4" points="89.33 162.16 0.05 110.54 0.05 102.07 89.33 153.64 89.33 162.16"/><path class="cls-4" d="M90.81,144.1a1.87,1.87,0,0,1-1.73.82,15,15,0,0,1-3.12-.36v-2.75a3.16,3.16,0,0,1,3.22-1.38c1.49.07,2.24.65,2.24,1.74A2.73,2.73,0,0,1,90.81,144.1Z"/><path class="cls-4" d="M77,136.71a2,2,0,0,1,2.2,0,2.24,2.24,0,0,0,.51,1.17,1.58,1.58,0,0,1-.21.87c-.17.24-.54.35-1.12.35l-1.83-.2h-.11c-.1,0-.15-.27-.15-.82A1.69,1.69,0,0,1,77,136.71Z"/><path class="cls-4" d="M90,134.67l-.15.61c-.07.1,0,.22,0,.36s-.29.15-.86.15a3.09,3.09,0,0,1-2.35-.77l-.15-.61.15-.81,3.06-.11Z"/><path class="cls-4" d="M102.14,66.77l-1.08.15a23.7,23.7,0,0,1-4.13-.4q-.15.15-.15-1.23c0-1.26.93-1.94,2.8-2s2.81.56,2.81,2A2.67,2.67,0,0,1,102.14,66.77Z"/><path class="cls-4" d="M91.68,58.87,91.42,60a9.5,9.5,0,0,1-2.45.25l-.2-.25a2.31,2.31,0,0,1-.2-1.12q0-1,.81-1a12.29,12.29,0,0,1,2-.06Z"/><path class="cls-4" d="M83.21,64.73v-.61a3.93,3.93,0,0,1,2.86.36l-.11.66-1.32.3C83.82,65.24,83.34,65,83.21,64.73Z"/><path class="cls-4" d="M111.32,70.09l-1,1.12a2.4,2.4,0,0,1-1.48.56,2.91,2.91,0,0,1-1.07-.1l-.1-.15a6,6,0,0,1-.26-2.4,4.65,4.65,0,0,0,.87-.1,20.08,20.08,0,0,1,2.75-.16Z"/><polygon class="cls-5" points="128.85 116.16 159.51 98.52 159.51 92.33 128.85 109.97 128.85 116.16"/><polygon class="cls-6" points="128.67 116.04 60.38 76.76 60.38 70.59 128.67 109.88 128.67 116.04"/><polygon class="cls-7" points="128.71 120.72 60.4 81.42 60.4 76.45 128.71 115.76 128.71 120.72"/><polygon class="cls-8" points="128.85 121.13 159.51 103.49 159.51 98.46 128.85 116.1 128.85 121.13"/><polygon class="cls-9" points="130.17 113.75 139.53 108.33 139.53 103.75 130.17 109.17 130.17 113.75"/><polygon class="cls-9" points="140.69 107.63 148.22 103.31 148.22 98.73 140.69 103.06 140.69 107.63"/><polygon class="cls-10" points="98.96 97.22 89.6 91.8 89.6 87.23 98.96 92.65 98.96 97.22"/><polygon class="cls-10" points="88.47 91 79.11 85.57 79.11 81 88.47 86.42 88.47 91"/><polygon class="cls-10" points="77.92 85.03 68.55 79.61 68.55 75.03 77.92 80.45 77.92 85.03"/><polygon class="cls-10" points="67.32 78.87 61.82 75.72 61.82 71.14 67.32 74.3 67.32 78.87"/><polygon class="cls-9" points="149.64 102.6 159.01 97.18 159.01 92.6 149.64 98.03 149.64 102.6"/><polygon class="cls-10" points="120.73 109.68 111.37 104.26 111.37 99.69 120.73 105.11 120.73 109.68"/><polygon class="cls-10" points="110.05 103.65 100.68 98.23 100.68 93.65 110.05 99.08 110.05 103.65"/><polygon class="cls-10" points="127.64 113.63 122.15 110.47 122.15 105.9 127.64 109.05 127.64 113.63"/><polygon class="cls-7" points="128.78 110.63 60.51 71.34 60.51 67.61 128.78 106.89 128.78 110.63"/><polygon class="cls-8" points="128.86 110.77 159.89 92.89 159.89 88.99 128.86 106.88 128.86 110.77"/><polygon class="cls-11" points="91.54 49.65 159.82 88.92 128.78 106.81 60.5 67.54 91.54 49.65"/><polygon class="cls-12" points="90.27 51.96 155.64 89.57 128.65 105.13 63.28 67.52 90.27 51.96"/><polygon class="cls-13" points="90.04 52 91.7 52.96 64.73 68.51 63.07 67.55 90.04 52"/><polygon class="cls-14" points="91.32 51.03 156.83 88.74 155.43 89.55 89.93 51.84 91.32 51.03"/><path class="cls-15" d="M88.35,42q4.28,2.31,4.27,9L78,59.38,63.46,67.74A27.35,27.35,0,0,1,67.74,53.8,28.88,28.88,0,0,1,78,43.12Q84.08,39.66,88.35,42Z"/><polygon class="cls-16" points="87.4 41.61 152.24 78.9 128.28 104.89 63.43 67.59 87.4 41.61"/><path class="cls-17" d="M82.66,39.31a2.29,2.29,0,0,0-.72.46l-2.23,1.37h-.06L77,39.57V39.5l2.88-1.7Z"/><polygon class="cls-18" points="76.96 39.57 79.65 41.14 79.65 45.67 76.96 44.29 76.96 39.57"/><path class="cls-19" d="M81.94,39.77a2.29,2.29,0,0,1,.72-.46V44l-2.82,1.71V41.14Z"/><path class="cls-17" d="M89.68,43.57q-.39.2-.72.39l-2.23,1.31H86.6L84,43.77h.13l2.75-1.84Z"/><path class="cls-18" d="M86.6,45.27v4.66L84,48.49V43.77Zm-2.49-1.5H84v-.14Z"/><path class="cls-19" d="M89,44q.33-.2.72-.39v4.59l-2.82,1.77V45.27Z"/><path class="cls-17" d="M93.61,49.6,91,48l-.13-.13H91l2.89-1.84,2.69,1.64-2.1,1.44c-.22.13-.46.29-.72.46Z"/><path class="cls-19" d="M93.75,49.6c.26-.17.5-.33.72-.46L96.7,47.7v4.59l-3,1.84Z"/><polygon class="cls-18" points="90.99 48.03 93.61 49.6 93.61 54.13 90.99 52.62 90.99 48.03"/><path class="cls-20" d="M153.47,79.34q4.26,2.31,4.27,9l-14.6,8.39-14.56,8.35a27.33,27.33,0,0,1,4.27-13.93A28.91,28.91,0,0,1,143.16,80.5Q149.19,77,153.47,79.34Z"/><polygon class="cls-21" points="138.18 96.94 142.74 94.33 142.74 86.67 138.18 89.27 138.18 96.94"/><polygon class="cls-9" points="139 95.19 141.55 93.71 141.55 88.48 139 89.96 139 95.19"/><polygon class="cls-21" points="144.21 93 148.78 90.4 148.78 82.74 144.21 85.34 144.21 93"/><polygon class="cls-9" points="145.29 91.32 147.85 89.85 147.85 84.61 145.29 86.09 145.29 91.32"/><path class="cls-22" d="M60.05,82.91a10.7,10.7,0,0,0-5.94,1.58c-1.64,1.05-2.47,2.31-2.47,3.79a4.53,4.53,0,0,0,2.47,3.8,10.79,10.79,0,0,0,5.94,1.58,10.85,10.85,0,0,0,6-1.58,4.16,4.16,0,0,0,0-7.59A10.76,10.76,0,0,0,60.05,82.91Z"/><path class="cls-23" d="M67.62,66.1l-13.52,0,0-15.9A3.79,3.79,0,0,1,56,47a9.41,9.41,0,0,1,9.56,0,3.85,3.85,0,0,1,2,3.2Z"/><path class="cls-24" d="M54.1,66.08l13.52,0V86.6a1.5,1.5,0,0,1,0,.29,4,4,0,0,1-2,2.84,8.06,8.06,0,0,1-4.78,1.34,8.26,8.26,0,0,1-4.77-1.35,3.79,3.79,0,0,1-2-3.19Z"/><path class="cls-6" d="M53.29,57.93a3.1,3.1,0,0,0-.85,1.7,2.92,2.92,0,0,1,.78-2Zm13.51-.07v-.32a5.41,5.41,0,0,1,.45.65,3,3,0,0,1,.4,1.51,4.35,4.35,0,0,0-.33-1.18ZM52.37,60.09A4.3,4.3,0,0,0,54.73,63,10.35,10.35,0,0,0,60,64.29,10.54,10.54,0,0,0,65.29,63a4.09,4.09,0,0,0,2.36-2.95c0,1.27-.79,2.36-2.36,3.28A11,11,0,0,1,60,64.68a10.56,10.56,0,0,1-5.25-1.31C53.16,62.5,52.37,61.4,52.37,60.09Z"/><path class="cls-25" d="M52.37,60.09c0-.08,0-.15,0-.19v-.14l.07-.06v-.07a3.1,3.1,0,0,1,.85-1.7V60h-.07a3.34,3.34,0,0,0,2,2.62A10.06,10.06,0,0,0,60,63.83a8.9,8.9,0,0,0,4.85-1.25,3.18,3.18,0,0,0,2-2.55V57.86l.52.66a4.35,4.35,0,0,1,.33,1.18v.39A4.09,4.09,0,0,1,65.29,63,10.54,10.54,0,0,1,60,64.29,10.35,10.35,0,0,1,54.73,63,4.3,4.3,0,0,1,52.37,60.09Z"/><path class="cls-26" d="M66.8,59.9V60a3.18,3.18,0,0,1-2,2.55A8.9,8.9,0,0,1,60,63.83a10.06,10.06,0,0,1-4.79-1.18,3.34,3.34,0,0,1-2-2.62h.07a3.53,3.53,0,0,0,1.9,2.29A9.51,9.51,0,0,0,60,63.44a9.34,9.34,0,0,0,4.85-1.18A3.43,3.43,0,0,0,66.8,59.9Z"/><path class="cls-6" d="M67.58,80.68c0,1.36-.72,2.47-2.29,3.35A10.15,10.15,0,0,1,60,85.34,10.36,10.36,0,0,1,54.66,84c-1.57-.92-2.33-2-2.29-3.28v-.33a3.05,3.05,0,0,1,.85-2.16v.32a3.33,3.33,0,0,0-.85,2,3.79,3.79,0,0,0,2.29,3.15A10,10,0,0,0,60,85a10,10,0,0,0,5.31-1.25A3.92,3.92,0,0,0,67.58,80.68Zm.07-.33a3.58,3.58,0,0,0-.46-1.11,1.44,1.44,0,0,0-.39-.66v-.32a2,2,0,0,1,.52.65A3.17,3.17,0,0,1,67.65,80.35Z"/><path class="cls-25" d="M66.8,78.58a1.44,1.44,0,0,1,.39.66,3.58,3.58,0,0,1,.46,1.11l-.07.14.07.06c0,.09,0,.13-.07.13a3.92,3.92,0,0,1-2.29,3A10,10,0,0,1,60,85a10,10,0,0,1-5.32-1.25,3.79,3.79,0,0,1-2.29-3.15,3.33,3.33,0,0,1,.85-2v2h.07s0,.08,0,.13a3.13,3.13,0,0,0,1.83,2.56A9.35,9.35,0,0,0,60,84.49a9.34,9.34,0,0,0,4.85-1.18,3.2,3.2,0,0,0,2-2.56.19.19,0,0,0-.07-.13h.07Z"/><path class="cls-26" d="M66.73,80.62a.19.19,0,0,1,.07.13,3.2,3.2,0,0,1-2,2.56A9.34,9.34,0,0,1,60,84.49a9.35,9.35,0,0,1-4.86-1.18,3.13,3.13,0,0,1-1.83-2.56s0-.09,0-.13A3.16,3.16,0,0,0,55.12,83,10.63,10.63,0,0,0,60,84.16,9.34,9.34,0,0,0,64.83,83,3.18,3.18,0,0,0,66.73,80.62Z"/><path class="cls-27" d="M66.89,50a4.1,4.1,0,0,0-2-3.42,8.79,8.79,0,0,0-9.58,0,3.93,3.93,0,0,0,0,6.83,8.81,8.81,0,0,0,9.58,0A4.13,4.13,0,0,0,66.89,50Z"/><path class="cls-22" d="M65.06,50a3.06,3.06,0,0,0-1.46-2.52,5.94,5.94,0,0,0-3.53-1,6,6,0,0,0-3.53,1.05,3.07,3.07,0,0,0-1.47,2.52,3,3,0,0,0,1.46,2.52,5.94,5.94,0,0,0,3.53,1,5.88,5.88,0,0,0,3.53-1A3,3,0,0,0,65.06,50Z"/><path class="cls-28" d="M55.25,76.81a8.47,8.47,0,0,0,4.86,1.38,7.78,7.78,0,0,0,4.72-1.44,4.36,4.36,0,0,0,1.24-1,5.2,5.2,0,0,0,.73-1.64v4.59a4.26,4.26,0,0,1-2,2.75A7.83,7.83,0,0,1,60,82.85a8.09,8.09,0,0,1-4.85-1.45,4.63,4.63,0,0,1-1.9-2.49,1.71,1.71,0,0,1-.13-.65,5.81,5.81,0,0,0,.06-.86V73.67a3.73,3.73,0,0,0,.92,2A9.29,9.29,0,0,0,55.25,76.81Z"/><path class="cls-29" d="M66.07,55.11a3.64,3.64,0,0,0,.73-1.64V58a4.27,4.27,0,0,1-2,2.82,7.72,7.72,0,0,1-4.72,1.45,8.25,8.25,0,0,1-4.92-1.51,5.1,5.1,0,0,1-2-2.49,2.39,2.39,0,0,1-.06-.53,6.52,6.52,0,0,0,.06-.85v-3.8a3.73,3.73,0,0,0,.92,2,4.21,4.21,0,0,0,1.18,1.12,7.89,7.89,0,0,0,4.79,1.44,8,8,0,0,0,4.78-1.44A4.5,4.5,0,0,0,66.07,55.11Z"/><path class="cls-22" d="M79.66,93.47A10.78,10.78,0,0,0,73.72,95c-1.65,1.06-2.47,2.32-2.47,3.8s.82,2.74,2.47,3.8a12,12,0,0,0,11.88,0c1.65-1.06,2.47-2.32,2.47-3.8S87.25,96.1,85.6,95A10.78,10.78,0,0,0,79.66,93.47Z"/><path class="cls-30" d="M87.22,76.65H73.71l0-15.9a3.82,3.82,0,0,1,2-3.19,8.56,8.56,0,0,1,4.79-1.3,8.43,8.43,0,0,1,4.76,1.31,3.87,3.87,0,0,1,2,3.19Z"/><path class="cls-31" d="M73.71,76.64H87.22v20.5c0,.1,0,.2,0,.3a4,4,0,0,1-1.94,2.84,8.15,8.15,0,0,1-4.78,1.34,8.26,8.26,0,0,1-4.77-1.35,3.77,3.77,0,0,1-2-3.19Z"/><path class="cls-6" d="M87.25,70.65c0,1.27-.78,2.36-2.36,3.28a10.91,10.91,0,0,1-5.31,1.31,10.52,10.52,0,0,1-5.24-1.31C72.76,73.05,72,72,72,70.65a4.3,4.3,0,0,0,2.36,2.95,10.34,10.34,0,0,0,5.24,1.25,10.48,10.48,0,0,0,5.31-1.25A4.07,4.07,0,0,0,87.25,70.65ZM72.89,68.49a3.16,3.16,0,0,0-.85,1.7,2.86,2.86,0,0,1,.79-2Zm14.36,1.77a3.91,3.91,0,0,0-.32-1.18l-.53-.66v-.33a5.26,5.26,0,0,1,.46.66A3.12,3.12,0,0,1,87.25,70.26Z"/><path class="cls-26" d="M86.4,70.45v.13a3.17,3.17,0,0,1-2,2.56,8.87,8.87,0,0,1-4.85,1.25,10.14,10.14,0,0,1-4.78-1.18,3.33,3.33,0,0,1-2-2.63h.06a3.57,3.57,0,0,0,1.91,2.3A9.57,9.57,0,0,0,79.58,74a9.22,9.22,0,0,0,4.85-1.18A3.36,3.36,0,0,0,86.4,70.45Z"/><path class="cls-25" d="M72.89,68.49v2.09h-.06a3.33,3.33,0,0,0,2,2.63,10.14,10.14,0,0,0,4.78,1.18,8.87,8.87,0,0,0,4.85-1.25,3.17,3.17,0,0,0,2-2.56V68.42l.53.66a3.91,3.91,0,0,1,.32,1.18v.39a4.07,4.07,0,0,1-2.36,2.95,10.48,10.48,0,0,1-5.31,1.25,10.34,10.34,0,0,1-5.24-1.25A4.3,4.3,0,0,1,72,70.65c0-.09,0-.15,0-.2v-.13l.06-.06v-.07A3.16,3.16,0,0,1,72.89,68.49Z"/><path class="cls-25" d="M87.19,91.24a3.92,3.92,0,0,1-2.3,3,9.81,9.81,0,0,1-5.31,1.24,9.86,9.86,0,0,1-5.31-1.24A3.77,3.77,0,0,1,72,91.11a3.25,3.25,0,0,1,.85-2v2h.06a.1.1,0,0,0,0,.14,3.12,3.12,0,0,0,1.84,2.55,10.56,10.56,0,0,0,9.7,0,3.17,3.17,0,0,0,2-2.55.22.22,0,0,0-.06-.14h.06v-2a1.38,1.38,0,0,1,.4.66,3.55,3.55,0,0,1,.45,1.11l-.06.13.06.07C87.25,91.2,87.23,91.24,87.19,91.24Z"/><path class="cls-6" d="M86.4,89.14v-.33a2,2,0,0,1,.53.66,3.3,3.3,0,0,1,.32,1.44,3.55,3.55,0,0,0-.45-1.11A1.38,1.38,0,0,0,86.4,89.14Zm-13.57,0a3.25,3.25,0,0,0-.85,2,3.77,3.77,0,0,0,2.29,3.15,9.86,9.86,0,0,0,5.31,1.24,9.81,9.81,0,0,0,5.31-1.24,3.92,3.92,0,0,0,2.3-3c0,1.35-.72,2.47-2.3,3.34a10,10,0,0,1-5.31,1.32,10.25,10.25,0,0,1-5.31-1.32c-1.57-.91-2.34-2-2.29-3.27V91a3.09,3.09,0,0,1,.85-2.17Z"/><path class="cls-26" d="M86.34,91.17a.22.22,0,0,1,.06.14,3.17,3.17,0,0,1-2,2.55,10.56,10.56,0,0,1-9.7,0,3.12,3.12,0,0,1-1.84-2.55.1.1,0,0,1,0-.14,3.16,3.16,0,0,0,1.84,2.36,10.47,10.47,0,0,0,4.85,1.19,9.22,9.22,0,0,0,4.85-1.19A3.17,3.17,0,0,0,86.34,91.17Z"/><path class="cls-27" d="M86.49,60.57a4.14,4.14,0,0,0-2-3.42,8.86,8.86,0,0,0-9.59,0,3.94,3.94,0,0,0,0,6.84,8.81,8.81,0,0,0,9.59,0A4.12,4.12,0,0,0,86.49,60.57Z"/><path class="cls-22" d="M84.66,60.6a3,3,0,0,0-1.45-2.52,6,6,0,0,0-3.53-1,5.88,5.88,0,0,0-3.53,1.05,2.9,2.9,0,0,0,0,5,6.48,6.48,0,0,0,7.06,0A3.06,3.06,0,0,0,84.66,60.6Z"/><path class="cls-32" d="M85.68,86.26a5,5,0,0,0,.72-1.64v4.59a4.21,4.21,0,0,1-2,2.75,7.86,7.86,0,0,1-4.78,1.44A8.16,8.16,0,0,1,74.8,92a4.73,4.73,0,0,1-1.91-2.49,1.94,1.94,0,0,1-.13-.66,4.5,4.5,0,0,0,.07-.85V84.22a3.73,3.73,0,0,0,.92,2,8.58,8.58,0,0,0,1.11,1.18,8.43,8.43,0,0,0,4.85,1.38,7.76,7.76,0,0,0,4.72-1.44A4.41,4.41,0,0,0,85.68,86.26Z"/><path class="cls-33" d="M84.5,66.72a4.84,4.84,0,0,0,1.18-1A3.73,3.73,0,0,0,86.4,64v4.52a4.24,4.24,0,0,1-2,2.82,7.76,7.76,0,0,1-4.72,1.44,8.19,8.19,0,0,1-4.91-1.5,5.07,5.07,0,0,1-2-2.5,1.86,1.86,0,0,1-.07-.52,5.3,5.3,0,0,0,.07-.85V63.63a3.73,3.73,0,0,0,.92,2,4.08,4.08,0,0,0,1.18,1.12,7.86,7.86,0,0,0,4.78,1.44A8.06,8.06,0,0,0,84.5,66.72Z"/><path class="cls-22" d="M99.27,104a10.82,10.82,0,0,0-6,1.58,4.16,4.16,0,0,0,0,7.59,12,12,0,0,0,11.89,0c1.64-1,2.47-2.31,2.47-3.79a4.53,4.53,0,0,0-2.47-3.8A10.79,10.79,0,0,0,99.27,104Z"/><path class="cls-34" d="M106.83,87.21l-13.52,0,0-15.9a3.8,3.8,0,0,1,2-3.19,9.45,9.45,0,0,1,9.55,0,3.9,3.9,0,0,1,2,3.2Z"/><path class="cls-35" d="M93.31,87.19l13.52,0v20.5a1.6,1.6,0,0,1,0,.3,4,4,0,0,1-2,2.84,8.1,8.1,0,0,1-4.77,1.34,8.3,8.3,0,0,1-4.78-1.35,3.8,3.8,0,0,1-2-3.2Z"/><path class="cls-6" d="M91.65,80.75a2.88,2.88,0,0,1,.78-2l.07.32A3.16,3.16,0,0,0,91.65,80.75ZM106,79v-.33a6.58,6.58,0,0,1,.46.66,3.11,3.11,0,0,1,.39,1.5,3.81,3.81,0,0,0-.33-1.18ZM91.58,81.21a4.35,4.35,0,0,0,2.36,3,11.86,11.86,0,0,0,10.56,0,4.11,4.11,0,0,0,2.36-3c0,1.27-.79,2.36-2.36,3.28a11,11,0,0,1-5.31,1.31,10.66,10.66,0,0,1-5.25-1.31C92.37,83.61,91.58,82.52,91.58,81.21Z"/><path class="cls-26" d="M106,81v.13a3.19,3.19,0,0,1-2,2.56A8.9,8.9,0,0,1,99.19,85a10.06,10.06,0,0,1-4.79-1.19,3.32,3.32,0,0,1-2-2.62h.07a3.58,3.58,0,0,0,1.9,2.3,9.61,9.61,0,0,0,4.79,1.11A9.25,9.25,0,0,0,104,83.37,3.36,3.36,0,0,0,106,81Z"/><path class="cls-25" d="M92.5,79v2.1h-.07a3.32,3.32,0,0,0,2,2.62A10.06,10.06,0,0,0,99.19,85,8.9,8.9,0,0,0,104,83.7a3.19,3.19,0,0,0,2-2.56V79l.52.65a3.81,3.81,0,0,1,.33,1.18v.4a4.11,4.11,0,0,1-2.36,3,11.86,11.86,0,0,1-10.56,0,4.35,4.35,0,0,1-2.36-3c0-.09,0-.16,0-.2v-.13l.07-.07v-.06A3.16,3.16,0,0,1,92.5,79Z"/><path class="cls-6" d="M106,99.7v-.33a1.89,1.89,0,0,1,.52.66,3.12,3.12,0,0,1,.33,1.44,3.63,3.63,0,0,0-.46-1.12A1.3,1.3,0,0,0,106,99.7Zm-13.58,0a3.37,3.37,0,0,0-.85,2,3.8,3.8,0,0,0,2.3,3.14,11.9,11.9,0,0,0,10.62,0,3.89,3.89,0,0,0,2.29-3c0,1.35-.72,2.47-2.29,3.34a10,10,0,0,1-5.31,1.31,10.2,10.2,0,0,1-5.31-1.31c-1.58-.92-2.34-2-2.3-3.28v-.33a3.1,3.1,0,0,1,.85-2.16Z"/><path class="cls-25" d="M106.79,101.8a3.89,3.89,0,0,1-2.29,3,11.9,11.9,0,0,1-10.62,0,3.8,3.8,0,0,1-2.3-3.14,3.37,3.37,0,0,1,.85-2v2h.07a.09.09,0,0,0,0,.13,3.11,3.11,0,0,0,1.84,2.56,10.56,10.56,0,0,0,9.7,0,3.19,3.19,0,0,0,2-2.56.19.19,0,0,0-.07-.13H106v-2a1.3,1.3,0,0,1,.39.65,3.63,3.63,0,0,1,.46,1.12l-.07.13.07.07C106.86,101.75,106.84,101.8,106.79,101.8Z"/><path class="cls-26" d="M105.94,101.73a.19.19,0,0,1,.07.13,3.19,3.19,0,0,1-2,2.56,10.56,10.56,0,0,1-9.7,0,3.11,3.11,0,0,1-1.84-2.56.09.09,0,0,1,0-.13,3.16,3.16,0,0,0,1.84,2.36,10.31,10.31,0,0,0,4.85,1.18,9.25,9.25,0,0,0,4.85-1.18A3.16,3.16,0,0,0,105.94,101.73Z"/><path class="cls-27" d="M106.1,71.13a4.13,4.13,0,0,0-2-3.42,8.86,8.86,0,0,0-9.59,0,3.94,3.94,0,0,0,0,6.84,8.81,8.81,0,0,0,9.59,0A4.12,4.12,0,0,0,106.1,71.13Z"/><path class="cls-22" d="M104.27,71.16a3,3,0,0,0-1.46-2.52,6.48,6.48,0,0,0-7.06,0,2.91,2.91,0,0,0,0,5,5.89,5.89,0,0,0,3.53,1,6,6,0,0,0,3.54-1A3.06,3.06,0,0,0,104.27,71.16Z"/><path class="cls-36" d="M106,99.76a4.26,4.26,0,0,1-2,2.76A7.89,7.89,0,0,1,99.25,104a8.18,8.18,0,0,1-4.85-1.44A4.7,4.7,0,0,1,92.5,100a1.72,1.72,0,0,1-.13-.66,5.67,5.67,0,0,0,.06-.85V94.78a3.84,3.84,0,0,0,.92,2,9.36,9.36,0,0,0,1.12,1.18,8.41,8.41,0,0,0,4.85,1.38A7.76,7.76,0,0,0,104,97.86a4.11,4.11,0,0,0,1.25-1,4.87,4.87,0,0,0,.72-1.64Z"/><path class="cls-37" d="M94.4,81.86a5.07,5.07,0,0,1-2-2.49,2.31,2.31,0,0,1-.06-.52,6.67,6.67,0,0,0,.06-.86v-3.8a3.84,3.84,0,0,0,.92,2,4,4,0,0,0,1.18,1.11,7.89,7.89,0,0,0,4.79,1.45,8.08,8.08,0,0,0,4.79-1.45,4.46,4.46,0,0,0,1.18-1,3.68,3.68,0,0,0,.72-1.64v4.53a4.28,4.28,0,0,1-2,2.82,7.76,7.76,0,0,1-4.72,1.44A8.18,8.18,0,0,1,94.4,81.86Z"/><polygon class="cls-38" points="43.83 81.71 88.18 108.19 63.19 122.74 18.84 96.26 43.83 81.71"/><polygon class="cls-39" points="18.9 96.19 63.23 122.7 63.23 134.12 18.9 107.61 18.9 96.19"/><polygon class="cls-39" points="87.97 108.34 63.17 122.76 63.17 134.16 87.97 119.75 87.97 108.34"/><polygon class="cls-40" points="88.01 108.34 63.18 122.77 63.18 134.15 88.01 119.72 88.01 108.34"/><polygon class="cls-41" points="44.88 85.87 80.26 106.99 62.04 117.6 26.66 96.48 44.88 85.87"/><polygon class="cls-42" points="45.61 88.26 76.4 106.64 74.24 107.9 43.45 89.52 45.61 88.26"/><polygon class="cls-42" points="41.3 90.82 72.25 109.3 70.09 110.56 39.14 92.08 41.3 90.82"/><polygon class="cls-42" points="36.67 93.18 67.78 111.75 65.62 113.01 34.51 94.44 36.67 93.18"/><polygon class="cls-42" points="32.35 95.59 63.52 114.19 61.35 115.45 30.19 96.85 32.35 95.59"/><polygon class="cls-41" points="60.44 96.45 63.61 98.34 47.18 107.91 44.01 106.01 60.44 96.45"/><polygon class="cls-41" points="21.64 100.58 59.18 123.04 59.18 129.7 21.64 107.25 21.64 100.58"/><polygon class="cls-42" points="23.48 103.64 56.94 123.65 56.94 126.13 23.48 106.12 23.48 103.64"/><polygon class="cls-41" points="39.27 111.06 42.84 113.2 42.84 119.86 39.27 117.73 39.27 111.06"/><polygon class="cls-43" points="114.81 107.78 122.12 112.14 108.43 120.11 101.11 115.75 114.81 107.78"/><polygon class="cls-44" points="101.29 115.89 108.58 120.26 108.58 134 101.29 129.63 101.29 115.89"/><polygon class="cls-45" points="122.3 112 108.61 119.95 108.61 133.69 122.3 125.73 122.3 112"/><polygon class="cls-43" points="120.89 114.75 110.26 120.93 110.26 122.72 120.89 116.55 120.89 114.75"/><polygon class="cls-43" points="120.89 117.7 110.26 123.88 110.26 125.68 120.89 119.5 120.89 117.7"/><polygon class="cls-43" points="120.89 120.45 110.26 126.63 110.26 128.43 120.89 122.25 120.89 120.45"/><polygon class="cls-43" points="120.89 123.41 110.26 129.58 110.26 131.38 120.89 125.2 120.89 123.41"/><polygon class="cls-43" points="95.2 119.84 102.52 124.21 88.82 132.18 81.51 127.81 95.2 119.84"/><polygon class="cls-44" points="81.68 127.96 88.98 132.32 88.98 146.06 81.68 141.7 81.68 127.96"/><polygon class="cls-45" points="102.69 124.06 89 132.01 89 145.75 102.69 137.8 102.69 124.06"/><polygon class="cls-43" points="101.28 126.81 90.65 132.99 90.65 134.79 101.28 128.61 101.28 126.81"/><polygon class="cls-43" points="101.28 129.77 90.65 135.94 90.65 137.74 101.28 131.56 101.28 129.77"/><polygon class="cls-43" points="101.28 132.52 90.65 138.7 90.65 140.5 101.28 134.32 101.28 132.52"/><polygon class="cls-43" points="101.28 135.47 90.65 141.65 90.65 143.45 101.28 137.27 101.28 135.47"/><path class="cls-27" d="M164.24,78.45a2.25,2.25,0,0,1,1.9-1,2.61,2.61,0,0,1,2,1,3.49,3.49,0,0,1,.79,2.36V99.7a3.91,3.91,0,0,1-.79,2.43,2.67,2.67,0,0,1-2,.91,2.29,2.29,0,0,1-1.9-.91,3.74,3.74,0,0,1-.86-2.43V80.81A3.34,3.34,0,0,1,164.24,78.45Z"/><path class="cls-25" d="M164.76,52.88h2.82V79.83a1.35,1.35,0,0,1-.46,1,1.3,1.3,0,0,1-1,.4,1.24,1.24,0,0,1-.92-.4,1.35,1.35,0,0,1-.46-1Z"/></svg>