<svg id="图层_1" data-name="图层 1" xmlns="http://www.w3.org/2000/svg" xmlns:xlink="http://www.w3.org/1999/xlink" viewBox="0 0 457 457"><defs><style>.cls-1,.cls-3,.cls-6{fill:none;}.cls-2{clip-path:url(#clip-path);}.cls-3,.cls-6{stroke:#08605a;stroke-linecap:round;stroke-linejoin:round;}.cls-3{stroke-width:3.38px;}.cls-4{fill:#027b76;}.cls-5{fill:#31bab5;}.cls-6{stroke-width:2.68px;}.cls-7{fill:#6c3e50;}.cls-8{fill:#7f414d;}</style><clipPath id="clip-path"><circle class="cls-1" cx="209.8" cy="219.54" r="214.37"/></clipPath></defs><title>我想要的2021终稿</title><g class="cls-2"><path class="cls-3" d="M215.91,366.46c2.33.21,7.94-164.85-16.35-222.38"/><path class="cls-4" d="M208.62,171.8c-1.14,12.25,65.1,11.15,31.49-37.83,0,0,2.75-18.83-20.43-27.38,0,0,.35-14.45-37-25.12,0,0-3.62-8.33-22.24-8,0,0-3.17-7.79-26.1-9.33L120.64,53.32s-5.52,30.36,2.86,40.13A33.64,33.64,0,0,0,130,123.72s-8.85,8.17,6.74,21l15-.7-10.61,11s.9,6.38,9.89,9.61,16.59,11.74,16.59,11.74,42.59,22.24,38.24-5.14Z"/><path class="cls-5" d="M206.71,172.25a64.75,64.75,0,0,0-3.27-15.82c-.74-2.61-1.8-5.12-2.77-7.65-.45-1.28-1.08-2.49-1.64-3.73l-1.73-3.69a141.1,141.1,0,0,0-18-27.14c-1.77-2.07-3.47-4.2-5.29-6.24l-5.68-5.89c-.95-1-1.87-2-2.85-2.94l-3-2.76-6-5.54c-1-1-2.09-1.77-3.14-2.64l-3.19-2.59-6.37-5.17c-4.43-3.22-8.89-6.41-13.3-9.68,4.61,3,9.18,6,13.78,9l6.57,5L154,87.25c1.08.85,2.23,1.63,3.24,2.56l6.22,5.42L166.6,98c1,.94,2,1.94,2.93,2.91l5.84,5.85c1.88,2,3.64,4.14,5.47,6.21a137.78,137.78,0,0,1,18.34,27.51l1.72,3.78c.55,1.27,1.18,2.5,1.63,3.82,1,2.59,2,5.16,2.74,7.84a62.39,62.39,0,0,1,2.91,16.39Z"/><path class="cls-5" d="M200.19,148a107.54,107.54,0,0,0-11.78-4.19A93.11,93.11,0,0,0,176.19,141a54.51,54.51,0,0,0-12.5-.59A26.49,26.49,0,0,0,151.76,144a26.87,26.87,0,0,1,11.88-4.1,56,56,0,0,1,12.68.09,94.37,94.37,0,0,1,12.49,2.32A108.29,108.29,0,0,1,201,146.13Z"/><path class="cls-5" d="M187.58,124.39a109.15,109.15,0,0,0-14.21-4.24,97.07,97.07,0,0,0-14.69-2.25,61.36,61.36,0,0,0-14.83.59,41.73,41.73,0,0,0-7.2,1.9,35.29,35.29,0,0,0-6.68,3.33,35.54,35.54,0,0,1,6.59-3.57,41.61,41.61,0,0,1,7.19-2.15,61.76,61.76,0,0,1,15-1.11,97.74,97.74,0,0,1,14.95,1.77,110.66,110.66,0,0,1,14.61,3.84Z"/><path class="cls-5" d="M166.22,99.78a38.72,38.72,0,0,0-9.49-5.6A43.63,43.63,0,0,0,134.82,91a45.08,45.08,0,0,0-5.54.92,24.78,24.78,0,0,0-2.72.74l-2.71.81,2.68-.9a23.36,23.36,0,0,1,2.7-.83,43.84,43.84,0,0,1,5.54-1.12,44.44,44.44,0,0,1,22.39,2.49,39.75,39.75,0,0,1,10.07,5.51Z"/><path class="cls-5" d="M187,124a43.25,43.25,0,0,0,4.45-10.61,35.68,35.68,0,0,0,1.31-11.49,28.13,28.13,0,0,0-2.93-11.2,32.32,32.32,0,0,0-7.14-9.27,32.67,32.67,0,0,1,7.59,9,29,29,0,0,1,3.49,11.36,36.92,36.92,0,0,1-.85,11.94,44.81,44.81,0,0,1-4.19,11.3Z"/><path class="cls-5" d="M160.67,94.39a21.65,21.65,0,0,0,2.69-4.92,17.79,17.79,0,0,0,1.21-5.53,12.65,12.65,0,0,0-.95-5.59,15.63,15.63,0,0,0-3.2-4.84,15.89,15.89,0,0,1,3.66,4.63,13.5,13.5,0,0,1,1.51,5.8,18.89,18.89,0,0,1-.79,6,23.09,23.09,0,0,1-2.48,5.61Z"/><path class="cls-5" d="M201.16,147.86a54.53,54.53,0,0,0,8.76-8A47.92,47.92,0,0,0,216.7,130a36.21,36.21,0,0,0,2.3-5.53,30.82,30.82,0,0,0,1.34-5.85,32.17,32.17,0,0,0-.66-12,32.59,32.59,0,0,1,0,18.07,37.18,37.18,0,0,1-2.12,5.76,49.4,49.4,0,0,1-6.53,10.38,56.25,56.25,0,0,1-8.74,8.71Z"/><path class="cls-5" d="M207,165.7a53.19,53.19,0,0,0,11.82-3.08,41.68,41.68,0,0,0,10.7-5.94,26.22,26.22,0,0,0,10.35-21.4,26.57,26.57,0,0,1-9.87,22,42.81,42.81,0,0,1-10.74,6.41,54.29,54.29,0,0,1-12.06,3.53Z"/><path class="cls-5" d="M160.16,169.72c1.87-.67,3.72-1.43,5.62-2s3.81-1.22,5.77-1.62l2.91-.68,3-.52c1-.19,2-.31,3-.42s2-.26,3-.31a71.08,71.08,0,0,1,12,.05,53.53,53.53,0,0,1,11.9,2.32l-.61,1.56a51.94,51.94,0,0,0-11.43-2.64,70.92,70.92,0,0,0-11.84-.46c-1,0-2,.14-3,.21s-2,.16-3,.31l-2.95.41-2.92.58c-2,.33-3.87.93-5.8,1.41S162.06,169.11,160.16,169.72Z"/><path class="cls-6" d="M221.29,351.12c-1.79-.49,11.88-129.41,46.09-165.25"/><path class="cls-4" d="M252.86,203.88c-2.6,9.41-51.42-10-12.71-36.92,0,0,3.26-14.74,22.86-14.56,0,0,3.81-10.82,34.53-8.22,0,0,5-5.16,18.74.36,0,0,4.54-4.89,22,.43l13.2-4.21s-4.45,24.07-13.42,29a26.7,26.7,0,0,1-13.32,20.63S329,198.9,313.82,204l-11-4.75,4.78,11.14s-2.47,4.48-10,4.35-15.61,4-15.61,4-37.85,4.52-26.92-14.57Z"/><path class="cls-5" d="M253.06,204.35A49.29,49.29,0,0,1,259.83,193c1.29-1.79,2.79-3.39,4.24-5,.7-.85,1.52-1.59,2.29-2.37l2.33-2.32A109.34,109.34,0,0,1,290,168c1.94-1,3.85-2.1,5.8-3.07l6-2.7c1-.44,2-.91,3-1.33l3.07-1.15,6.14-2.27c2.06-.72,4.18-1.26,6.26-1.9l6.28-1.84L339.33,151l-12.59,3.44-6.19,2c-2.05.7-4.14,1.3-6.16,2.1l-6,2.41-3,1.19c-1,.43-2,.92-2.95,1.37l-5.87,2.78c-1.92,1-3.78,2.1-5.68,3.14a112,112,0,0,0-21,15.06l-2.31,2.25c-.77.76-1.58,1.48-2.27,2.3-1.44,1.61-2.92,3.17-4.21,4.9a51.1,51.1,0,0,0-6.88,10.81Z"/><path class="cls-5" d="M265.75,187a89.19,89.19,0,0,1,10.1.61,76,76,0,0,1,9.91,1.8,44.11,44.11,0,0,1,9.44,3.51,21.13,21.13,0,0,1,7.65,6.38,20.9,20.9,0,0,0-7.83-6,43.48,43.48,0,0,0-9.44-3.09,76,76,0,0,0-9.85-1.38,86.54,86.54,0,0,0-9.92-.2Z"/><path class="cls-5" d="M281.81,173a89.2,89.2,0,0,1,11.92,1.27,77,77,0,0,1,11.59,2.89,49.41,49.41,0,0,1,10.8,5,29.27,29.27,0,0,1,8.61,8.12,29.08,29.08,0,0,0-8.82-7.78A48.56,48.56,0,0,0,305.08,178a75.73,75.73,0,0,0-11.54-2.47,87.32,87.32,0,0,0-11.73-.85Z"/><path class="cls-5" d="M304.16,161.25a31.69,31.69,0,0,1,9-1.26,34.65,34.65,0,0,1,9,1.12,33.91,33.91,0,0,1,8.35,3.34,35.64,35.64,0,0,1,3.8,2.39c1.22.86,2.33,1.87,3.5,2.8-1.21-.89-2.34-1.86-3.59-2.68a35.24,35.24,0,0,0-3.86-2.24,34,34,0,0,0-8.34-3,33.41,33.41,0,0,0-8.8-.79,30.68,30.68,0,0,0-8.62,1.49Z"/><path class="cls-5" d="M280.78,174.84a35.57,35.57,0,0,1,.07-9.56,29.49,29.49,0,0,1,2.73-9.09,23,23,0,0,1,5.79-7.44,26,26,0,0,1,8.17-4.57,25.72,25.72,0,0,0-7.9,4.87,22.43,22.43,0,0,0-5.33,7.48,28.53,28.53,0,0,0-2.26,8.89,33.94,33.94,0,0,0,.32,9.13Z"/><path class="cls-5" d="M308.66,160.37a18.56,18.56,0,0,1-.26-4.86,15.09,15.09,0,0,1,1.11-4.69,10.7,10.7,0,0,1,2.75-3.88,12.49,12.49,0,0,1,4-2.4,12.4,12.4,0,0,0-3.73,2.69,10.09,10.09,0,0,0-2.29,3.88,14.21,14.21,0,0,0-.65,4.44,16.4,16.4,0,0,0,.61,4.4Z"/><path class="cls-5" d="M263.79,189.11a44.33,44.33,0,0,1-4-8.92,38.84,38.84,0,0,1-1.92-9.54,29.2,29.2,0,0,1,.05-4.86,24.72,24.72,0,0,1,.86-4.77A25.56,25.56,0,0,1,263,152.4a25.52,25.52,0,0,0-3.87,8.71,25.17,25.17,0,0,0-.65,4.72,29,29,0,0,0,.15,4.75,37.83,37.83,0,0,0,2.26,9.21,43.46,43.46,0,0,0,4.23,8.43Z"/><path class="cls-5" d="M255.22,200.89a43.36,43.36,0,0,1-7.95-6,34.12,34.12,0,0,1-6.17-7.78,22.11,22.11,0,0,1-2.85-9.45A21.65,21.65,0,0,1,240,168a20.73,20.73,0,0,0,1.65,18.78,33.47,33.47,0,0,0,6.26,7.42,42.41,42.41,0,0,0,7.9,5.6Z"/><path class="cls-5" d="M289.39,216c-1.23-1-2.42-2-3.69-3s-2.54-1.88-3.9-2.68l-2-1.25L277.72,208c-.68-.39-1.39-.73-2.11-1.06s-1.41-.7-2.14-1a54.24,54.24,0,0,0-8.91-3,41.68,41.68,0,0,0-9.22-1.27v-1.31a42.26,42.26,0,0,1,9.48,1.62,56.42,56.42,0,0,1,8.93,3.35c.73.32,1.42.72,2.13,1.07s1.41.73,2.09,1.15l2,1.21,2,1.33c1.34.85,2.55,1.88,3.82,2.82S288.19,215,289.39,216Z"/><path class="cls-6" d="M221.44,343.47c-1.79-.52-9.36-59.7,25.33-95.09,0,0,4.69-3.55,13-2.18"/><path class="cls-4" d="M257.14,245.52c-6.72,1.22-9.29-35.44,19.4-19.22,0,0,10.27-2.43,16.11,10,0,0,8-.89,15.66,19.25,0,0,4.78,1.6,5.47,11.91,0,0,4.46,1.38,6.41,14l6.66,7s-16.51,4.51-22.31.35a18.69,18.69,0,0,1-17.05-2.13S283.4,292,275.56,284l-.34-8.35L269.65,282s-3.57-.19-5.79-5-7.28-8.6-7.28-8.6-14.34-22.47,1-21.39Z"/><path class="cls-5" d="M256.9,245.79a35.88,35.88,0,0,1,9.21.82,58.78,58.78,0,0,1,8.82,2.62A76.7,76.7,0,0,1,291,258.05c1.23.91,2.49,1.78,3.69,2.72l3.52,3c.58.49,1.18,1,1.75,1.48l1.65,1.59,3.3,3.18c2.1,2.2,4.11,4.5,6.16,6.76l5.65,7.18-6-6.89c-2.12-2.17-4.19-4.39-6.36-6.52L301,267.43l-1.67-1.54c-.57-.49-1.18-1-1.76-1.44l-3.53-2.85c-1.21-.91-2.48-1.75-3.71-2.63a79,79,0,0,0-15.86-8.66,60.64,60.64,0,0,0-8.63-2.67,34.93,34.93,0,0,0-8.9-1Z"/><path class="cls-5" d="M271.7,248.51a62.31,62.31,0,0,1,2.67,6.54,50.38,50.38,0,0,1,1.88,6.8,30.49,30.49,0,0,1,.66,7,14.82,14.82,0,0,1-1.69,6.77,14.82,14.82,0,0,0,1.41-6.77,30.71,30.71,0,0,0-.92-6.88,53.15,53.15,0,0,0-2.13-6.62A58.06,58.06,0,0,0,270.7,249Z"/><path class="cls-5" d="M285.37,254.39a60.79,60.79,0,0,1,2.82,7.89,55.51,55.51,0,0,1,1.7,8.18,34.65,34.65,0,0,1,.1,8.33,20.22,20.22,0,0,1-2.5,7.89,20.16,20.16,0,0,0,2.22-7.92,33.78,33.78,0,0,0-.38-8.22,53.89,53.89,0,0,0-1.95-8,61,61,0,0,0-3-7.64Z"/><path class="cls-5" d="M299.58,264.89a21.87,21.87,0,0,1,3.53,5.3,24.55,24.55,0,0,1,2.45,12.25,27.32,27.32,0,0,1-.35,3.12c-.17,1-.48,2-.7,3.05.19-1,.46-2,.59-3.07a27.15,27.15,0,0,0,.25-3.11,23.66,23.66,0,0,0-.64-6.17,23.3,23.3,0,0,0-2.17-5.78,21.47,21.47,0,0,0-3.56-5Z"/><path class="cls-5" d="M283.91,254.29a25.12,25.12,0,0,1,6-2.85,20.82,20.82,0,0,1,6.55-1,15.44,15.44,0,0,1,6.43,1.4,18.42,18.42,0,0,1,5.37,3.73,18.25,18.25,0,0,0-5.48-3.47,15,15,0,0,0-6.32-1.1,20.47,20.47,0,0,0-6.28,1.27,24.34,24.34,0,0,0-5.65,3Z"/><path class="cls-5" d="M301.5,267.45a12.61,12.61,0,0,1,3-1.64,10.32,10.32,0,0,1,3.29-.72,7.49,7.49,0,0,1,3.28.55,8.82,8.82,0,0,1,2.73,1.8,8.47,8.47,0,0,0-2.83-1.53,7.07,7.07,0,0,0-3.13-.26,9.79,9.79,0,0,0-3,.93,11.94,11.94,0,0,0-2.59,1.73Z"/><path class="cls-5" d="M269.76,247.92a31.74,31.74,0,0,1,4.4-5.24,28.46,28.46,0,0,1,5.42-4.11,20.18,20.18,0,0,1,6.35-2.34l1.68-.25c.56,0,1.13,0,1.69,0h.84l.84.11,1.67.22-1.68-.15-.83-.07-.84,0c-.56,0-1.12,0-1.67.09l-1.64.31a19.74,19.74,0,0,0-6.12,2.56,27.59,27.59,0,0,0-5.11,4.22,30,30,0,0,0-4,5.21Z"/><path class="cls-5" d="M259.74,246.1a30.4,30.4,0,0,1,1.37-6.84,23.87,23.87,0,0,1,3-6.24,14.72,14.72,0,0,1,11.68-6.51,14.57,14.57,0,0,0-11.33,6.75,23.6,23.6,0,0,0-2.77,6.19,30,30,0,0,0-1.13,6.68Z"/><path class="cls-5" d="M260.62,272.21c.25-1.08.54-2.15.75-3.23s.42-2.17.51-3.27a40.4,40.4,0,0,0,.29-6.59,38.84,38.84,0,0,0-.81-6.54,29.23,29.23,0,0,0-2-6.21l.69-.34a28.9,28.9,0,0,1,1.87,6.44,39.92,39.92,0,0,1,.63,6.64,42,42,0,0,1-.48,6.63c-.13,1.1-.4,2.17-.62,3.26S260.9,271.14,260.62,272.21Z"/><path class="cls-6" d="M220.81,337.12c1.86,0,.57-59.68-23.55-103"/><path class="cls-4" d="M197,242c4.89,8.45,47.25-22.66,3-38.93,0,0-6.86-13.45-25.79-8.34,0,0-6.41-9.51-35.49.73,0,0-6.16-3.73-18,5.06,0,0-5.63-3.59-21.18,5.95l-13.83-.76S96,227.92,105.91,230.4A26.69,26.69,0,0,0,124,247s-2,9.34,14,10.5l9.42-7.36-1.82,12s3.52,3.71,10.82,1.68,16.12,0,16.12,0,37.77-5.16,22.39-20.88Z"/><path class="cls-5" d="M195.93,243.2a51.61,51.61,0,0,0-9.38-8.74c-1.68-1.34-3.52-2.49-5.31-3.68-.88-.62-1.84-1.11-2.77-1.65l-2.81-1.6a111.63,111.63,0,0,0-24.12-9.29c-2.1-.53-4.18-1.13-6.29-1.61l-6.38-1.21c-1.06-.19-2.13-.42-3.19-.59l-3.23-.39-6.46-.82c-2.15-.26-4.32-.31-6.48-.48l-6.51-.42-13-.15,13.05-.5,6.54.2c2.18.1,4.36.08,6.54.27l6.51.65,3.26.34c1.09.15,2.16.36,3.24.53l6.46,1.11c2.14.45,4.26,1,6.39,1.51a109.15,109.15,0,0,1,24.5,9.39l2.84,1.65c.94.57,1.92,1.08,2.81,1.72,1.82,1.24,3.67,2.42,5.37,3.82a49.5,49.5,0,0,1,9.41,9.28Z"/><path class="cls-5" d="M180.58,230.5a84.76,84.76,0,0,0-9.55,2.69,76,76,0,0,0-9.19,3.81,44.19,44.19,0,0,0-8.36,5.36,21.08,21.08,0,0,0-6.07,7.8,21.14,21.14,0,0,1,5.81-8.1,43.79,43.79,0,0,1,8.25-5.77,74.91,74.91,0,0,1,9.14-4.23,85.73,85.73,0,0,1,9.62-3.13Z"/><path class="cls-5" d="M161.58,221a86.45,86.45,0,0,0-11.14,3.78,76.84,76.84,0,0,0-10.54,5.28,48.3,48.3,0,0,0-9.33,7.2A29.07,29.07,0,0,0,124,247a29.23,29.23,0,0,1,6.29-10,49,49,0,0,1,9.19-7.6A78.2,78.2,0,0,1,150,223.68a87.22,87.22,0,0,1,11.21-4.22Z"/><path class="cls-5" d="M136.46,214.89a31.07,31.07,0,0,0-8.72.73,34.56,34.56,0,0,0-15.63,8,36.12,36.12,0,0,0-3.17,3.14c-1,1.1-1.86,2.33-2.79,3.49.89-1.19,1.71-2.45,2.68-3.59a35.14,35.14,0,0,1,3.07-3.27,34.52,34.52,0,0,1,7.24-5.33,34.16,34.16,0,0,1,8.39-3.33,31.79,31.79,0,0,1,9.05-1.06Z"/><path class="cls-5" d="M161,221.07a34.33,34.33,0,0,0-2-8.92,28.62,28.62,0,0,0-4.42-8,22.54,22.54,0,0,0-7-5.91,25.9,25.9,0,0,0-8.88-2.72,26,26,0,0,1,9.06,2.36,23.14,23.14,0,0,1,7.47,5.75,29.28,29.28,0,0,1,4.93,8.11,35.43,35.43,0,0,1,2.47,9.24Z"/><path class="cls-5" d="M130.39,213.94a16.72,16.72,0,0,0-.52-4.41,13.46,13.46,0,0,0-1.75-4.13,10.09,10.09,0,0,0-3.18-3.19,12.45,12.45,0,0,0-4.29-1.66,12.56,12.56,0,0,1,4.49,1.32,10.61,10.61,0,0,1,3.64,3.06,15.21,15.21,0,0,1,2.25,4.25,18,18,0,0,1,1,4.78Z"/><path class="cls-5" d="M181.14,230a43.24,43.24,0,0,0,2-9.22,37.6,37.6,0,0,0-.13-9.48,27.55,27.55,0,0,0-1-4.64,25.14,25.14,0,0,0-1.81-4.4,25.5,25.5,0,0,0-5.94-7.46,25.88,25.88,0,0,1,8.33,11.67,30.48,30.48,0,0,1,1.27,4.7,39,39,0,0,1,.53,9.71,43.92,43.92,0,0,1-1.65,9.65Z"/><path class="cls-5" d="M193.09,238.83a42.32,42.32,0,0,0,6.24-7.41,33.26,33.26,0,0,0,4.19-8.75,20.75,20.75,0,0,0-3.12-18.6,21.06,21.06,0,0,1,3.71,18.76,33.67,33.67,0,0,1-4,9.08,43.31,43.31,0,0,1-6.18,7.82Z"/><path class="cls-5" d="M164.64,262.93c.9-1.3,1.75-2.64,2.7-3.9s1.9-2.54,3-3.7l1.58-1.78,1.67-1.69c.55-.58,1.14-1.11,1.74-1.64s1.16-1.08,1.78-1.57a56.54,56.54,0,0,1,7.81-5.49,42.41,42.41,0,0,1,8.77-4l.32,1.32a41.43,41.43,0,0,0-8.6,3.53,55.62,55.62,0,0,0-7.87,5.13c-.63.47-1.21,1-1.82,1.5s-1.21,1-1.78,1.56l-1.72,1.61-1.63,1.72c-1.11,1.11-2.07,2.37-3.1,3.57S165.59,261.66,164.64,262.93Z"/><path class="cls-6" d="M198.37,383.15c-1.76-.57,16.89-57.24,52.6-91.58"/><path class="cls-7" d="M203.37,417.2H248.9a10.47,10.47,0,0,0,10.42-9.39l6.8-64.75a10.47,10.47,0,0,0-10.42-11.57H196.58a10.47,10.47,0,0,0-10.42,11.57l6.8,64.75A10.46,10.46,0,0,0,203.37,417.2Z"/><rect class="cls-8" x="179.1" y="324.54" width="94.07" height="18.31" rx="4.51" ry="4.51" transform="translate(452.28 667.4) rotate(-180)"/><path class="cls-4" d="M223.28,281.42c-5.94-6.29,31.21-34.4,33.84,7.29,0,0,9.69,9.23.56,24,0,0,6.46,7.85-9.61,30,0,0,1.61,6.19-8.86,14.06,0,0,1.62,5.68-10.41,16.48l-2.86,11.94s-16.22-14.41-15.82-23.46a23.67,23.67,0,0,1-9.54-19.57s-8.44-.68-5.38-14.55l8.64-6.14L193.19,320s-2.26-3.92,1.31-9.61,4.1-13.69,4.1-13.69,13.94-30.79,23.4-13.74Z"/><path class="cls-5" d="M222.83,281.35a44.17,44.17,0,0,1,5.51,10.34c.76,1.8,1.29,3.68,1.88,5.53s.95,3.78,1.43,5.66a97.1,97.1,0,0,1,1.78,23.19c-.12,1.94-.17,3.88-.34,5.81l-.69,5.77c-.13,1-.22,1.93-.37,2.88l-.53,2.86-1.1,5.7c-.89,3.76-1.94,7.49-2.91,11.22l-3.72,11,3.17-11.12c.84-3.76,1.76-7.5,2.52-11.27l.94-5.69.48-2.84c.13-.95.21-1.91.31-2.86l.58-5.73c.13-1.91.15-3.83.23-5.75a99.38,99.38,0,0,0-1.79-22.84c-.45-1.85-.8-3.74-1.35-5.57s-1.06-3.67-1.78-5.44A45.73,45.73,0,0,0,222,282Z"/><path class="cls-5" d="M230.18,299a79,79,0,0,1-5.09,7.37,67.25,67.25,0,0,1-5.91,6.7,39.3,39.3,0,0,1-7,5.55,18.79,18.79,0,0,1-8.35,2.88,18.69,18.69,0,0,0,8.16-3.18,38.88,38.88,0,0,0,6.67-5.75,66.4,66.4,0,0,0,5.56-6.84,76.05,76.05,0,0,0,4.7-7.43Z"/><path class="cls-5" d="M233.4,317.53A78.38,78.38,0,0,1,227,326a70.62,70.62,0,0,1-7.51,7.47,44.16,44.16,0,0,1-8.78,5.88,26,26,0,0,1-10.11,2.8,25.85,25.85,0,0,0,9.95-3.12,43.07,43.07,0,0,0,8.47-6.1,68.77,68.77,0,0,0,7.16-7.62,75.69,75.69,0,0,0,6-8.51Z"/><path class="cls-5" d="M232.09,339.89a28.14,28.14,0,0,1-3.18,7.42,30.44,30.44,0,0,1-5,6.28,30,30,0,0,1-6.36,4.8,31.88,31.88,0,0,1-3.55,1.79c-1.22.53-2.49.91-3.73,1.37,1.22-.51,2.48-.92,3.67-1.5a31.38,31.38,0,0,0,3.47-1.89A30.54,30.54,0,0,0,228.2,346.9a27,27,0,0,0,2.83-7.22Z"/><path class="cls-5" d="M232.5,315.92a31.49,31.49,0,0,1,7.22,4.44,26,26,0,0,1,5.65,6.24,20.48,20.48,0,0,1,3,7.8,22.86,22.86,0,0,1-.29,8.29,22.71,22.71,0,0,0-.06-8.22,19.92,19.92,0,0,0-3.23-7.48,25.51,25.51,0,0,0-5.71-5.79,31,31,0,0,0-7.07-3.95Z"/><path class="cls-5" d="M230.69,343.71a15.79,15.79,0,0,1,3.81,2,13.32,13.32,0,0,1,3.05,3,9.44,9.44,0,0,1,1.68,3.87,11.35,11.35,0,0,1,0,4.15,10.89,10.89,0,0,0-.33-4.07,8.87,8.87,0,0,0-1.89-3.51,12.68,12.68,0,0,0-3.07-2.54,15.09,15.09,0,0,0-3.62-1.55Z"/><path class="cls-5" d="M229.47,296.49a39.31,39.31,0,0,1,8.62,1,34.32,34.32,0,0,1,8.11,2.92,25.16,25.16,0,0,1,6.9,5.11,22.83,22.83,0,0,1,4.58,7.18,22.55,22.55,0,0,0-4.84-6.93,24.49,24.49,0,0,0-7-4.72,33.21,33.21,0,0,0-8-2.51,37.91,37.91,0,0,0-8.34-.66Z"/><path class="cls-5" d="M224.47,284.58a38.59,38.59,0,0,1,8.2-3.28,30.34,30.34,0,0,1,8.74-1.1,19.48,19.48,0,0,1,8.47,2.16,19.25,19.25,0,0,1,6.52,5.74,18.34,18.34,0,0,0-15-7.36,29.48,29.48,0,0,0-8.5,1.34,38.14,38.14,0,0,0-7.88,3.43Z"/><path class="cls-5" d="M197.35,303.58c1.31-.48,2.65-.91,3.94-1.44s2.59-1.07,3.82-1.74a51,51,0,0,0,7.18-4.28,49.56,49.56,0,0,0,6.35-5.39,36.72,36.72,0,0,0,5.18-6.42l1.05.62a37.66,37.66,0,0,1-5.59,6.45,50.64,50.64,0,0,1-6.64,5.24,51.66,51.66,0,0,1-7.4,4.06c-1.26.62-2.59,1.07-3.89,1.6S198.68,303.15,197.35,303.58Z"/></g></svg>