<?xml version="1.0" encoding="utf-8"?>
<!-- Generator: Adobe Illustrator 22.0.0, SVG Export Plug-In . SVG Version: 6.00 Build 0)  -->
<svg version="1.1" id="图层_1" xmlns="http://www.w3.org/2000/svg" xmlns:xlink="http://www.w3.org/1999/xlink" x="0px" y="0px"
	 viewBox="0 0 240 240" style="enable-background:new 0 0 240 240;" xml:space="preserve">
<style type="text/css">
	.st0{fill:#FE3A3B;}
	.st1{fill:#FEBF1A;}
	.st2{fill:#634331;}
</style>
<path class="st0" d="M165.8,175.8c-5.9,2.8-12.7,4.7-17.9,6.6c-8.1,3.1-16.2,6.1-24.4,9.2c-6.9,2.6-14.3,6.6-21.7,7.3
	c-5.7,0.5-11.5-1.3-16-4.8c-9.8-7.5-11.9-22.2-15.4-33.5c-3.9-12.7-7.8-25.4-11.8-38.1c-2.7-8.9-5.5-17.8-8.2-26.7
	c-2.4-7.8-2-16,2.1-23.2c5.1-9,16.6-10.6,25.6-13.3c12.7-3.7,25.8-9,38.8-11.4c8.5-1.6,20.9-0.5,24.8,8.6
	c9,23.3,18.1,46.6,27.1,69.9c2.6,6.7,5.2,13.4,8,20c2.2,5,3.7,10.7,2.2,16C177.4,168.9,172,172.9,165.8,175.8z"/>
<ellipse transform="matrix(0.115 -0.9934 0.9934 0.115 -7.2589 202.4491)" class="st1" cx="110" cy="105.3" rx="11.9" ry="13.5"/>
<path class="st2" d="M179.8,145.4c-2.7-6.3-5.1-12.4-7.6-18.9l-27.5-70.9c0,0,0-0.1,0-0.1c-4.6-10.6-18-12.2-28.1-10.4
	c-9,1.6-17.9,4.6-26.6,7.5c-4.1,1.4-8.4,2.8-12.5,4c-1.4,0.4-2.8,0.8-4.3,1.2C64.6,59.9,55,62.5,50,71.2c-4.3,7.5-5.1,16.6-2.4,25.6
	l20,64.7c0.7,2.2,1.3,4.4,1.9,6.8c2.7,10.1,5.8,21.6,14.5,28.2c4.6,3.5,10.3,5.5,15.9,5.5c0.7,0,1.5,0,2.2-0.1
	c5.9-0.6,11.6-2.9,17.1-5.2c1.9-0.8,3.6-1.5,5.4-2.2l24.4-9.2c1.7-0.6,3.6-1.3,5.6-2c3.9-1.3,8.4-2.8,12.5-4.8
	c4.1-2,7.4-4.2,9.9-6.7c2.5-2.5,4.2-5.3,5.1-8.5C183.6,158.3,182.9,152.5,179.8,145.4z M55.2,74.2c3.7-6.5,11.7-8.6,19.4-10.7
	c1.5-0.4,3-0.8,4.5-1.2c4.2-1.2,8.5-2.7,12.7-4.1c8.5-2.8,17.3-5.7,25.8-7.3c1.7-0.3,3.8-0.5,6-0.5c5.2,0,11,1.2,14.1,5.2
	c0.6,3.7-0.1,14.2-5.1,24.8c-2.3,4.8-5.8,10.3-11.3,14.9c-2.6-2.4-6-3.9-9.7-4.4c-4.2-0.5-8.4,0.5-11.7,2.8c-3.4,2.4-5.5,5.8-6,9.7
	c-18.7-2.9-37.5-20.6-41-24C53.5,77.6,54.2,75.9,55.2,74.2z M120.8,106.5c-0.3,2.4-1.6,4.6-3.8,6.1c-2.3,1.6-5.2,2.3-8.1,1.9
	c-2.9-0.4-5.6-1.7-7.5-3.7c-0.5-0.6-1-1.2-1.3-1.9c-0.8-1.5-1.2-3.2-1-4.9c0-0.1,0-0.1,0-0.2c0.3-2.3,1.7-4.4,3.8-5.9
	c2.3-1.6,5.2-2.3,8.1-1.9c2.2,0.3,4.3,1.1,5.9,2.3c0.6,0.4,1.1,0.9,1.5,1.4c0.7,0.8,1.3,1.7,1.7,2.7
	C120.8,103.7,121,105.1,120.8,106.5z M176.3,161.7c-1.4,4.6-5.1,8.2-11.9,11.4c-3.8,1.8-7.9,3.2-11.8,4.5c-2.1,0.7-4,1.3-5.8,2
	l-24.4,9.2c-1.9,0.7-3.8,1.5-5.6,2.3c-5.1,2.1-10.3,4.3-15.3,4.8c-4.8,0.5-9.9-1.1-13.9-4.2c-7.1-5.4-9.8-15.4-12.3-25
	c-0.7-2.5-1.3-4.8-2-7L53.3,95c-0.8-2.6-1.5-5.9-1.3-9.5c7.1,6.5,24.5,20.9,42.4,23.1c0.6,2,1.7,3.9,3.2,5.6c1.3,1.5,3,2.7,4.8,3.7
	c1.8,0.9,3.8,1.5,5.9,1.8c0.7,0.1,1.4,0.1,2.1,0.1c3.5,0,6.8-1,9.6-2.9c3.4-2.4,5.5-5.8,6-9.7c0.3-2.7-0.2-5.4-1.5-7.8
	c10.5-8.7,16-21.6,17.9-33.1l24.2,62.4c2.5,6.6,5,12.8,7.7,19.1C176.8,153.6,177.4,158,176.3,161.7z"/>
</svg>
