
<svg xmlns="http://www.w3.org/2000/svg" version="1.1" xmlns:xlink="http://www.w3.org/1999/xlink" preserveAspectRatio="none" x="0px" y="0px" width="1024px" height="1024px" viewBox="0 0 1024 1024">
<defs>
<g id="Layer0_0_MEMBER_0_MEMBER_0_MEMBER_0_MEMBER_0_FILL">
<path fill="#F0F0F0" stroke="none" d="
M 77.45 195.05
L 77.45 158.7 69.6 158.7 69.6 195.05 77.45 195.05 Z"/>
</g>

<g id="Layer0_0_MEMBER_0_MEMBER_0_MEMBER_1_MEMBER_0_MEMBER_0_FILL">
<path fill="#ABDE82" stroke="none" d="
M 74.75 195.05
L 69.6 192.1 69.6 211.75
Q 73.65 205.55 74.6 202.5 75.25 200.6 75.05 197.65
L 74.75 195.05 Z"/>
</g>

<g id="Layer0_0_MEMBER_0_MEMBER_0_MEMBER_2_MEMBER_0_MEMBER_0_FILL">
<path fill="#9FD174" stroke="none" d="
M 77.45 189.5
L 70.55 191.6 74.05 195.65
Q 77.55 200.2 77.45 203 77.4 206.15 82.7 206.2 87.85 206.25 89.6 203.9 90.95 202.1 94.35 202.15 95.8935546875 202.15 97.2 202.45 96.621484375 202.2708984375 95.7 201.75 93.5 200.35 91.05 197.4 88.6 194.4 82.8 191.65
L 77.45 189.5 Z"/>
</g>

<g id="Layer0_0_MEMBER_0_MEMBER_0_MEMBER_3_MEMBER_0_MEMBER_0_FILL">
<path fill="#A3D875" stroke="none" d="
M 79.6 183.7
Q 78.9 185.7 78.7 191.65
L 82.9 193.75
Q 88.35 196.1 94.6 197.4 100.85 198.65 103.35 192.3 104.15 190.3 104.45 187.8
L 104.6 185.7
Q 103.55 186.15 102.1 186.4 99.15 186.85 97.2 185.7 94.65 184.25 87.5 183.25 80.15 182.25 79.6 183.7 Z"/>
</g>

<g id="Layer0_0_MEMBER_0_MEMBER_0_MEMBER_4_MEMBER_0_MEMBER_0_FILL">
<path fill="#94C95D" stroke="none" d="
M 78.55 170.35
L 79.6 166.05 84 186.75 92.8 185.75
Q 101.65 183.85 102.1 179.6 102.55 175.4 100.05 169.1
L 97.45 163.7
Q 95.45859375 162.296875 93.1 162.55 94.46484375 157.3998046875 91.65 156.25 85 153.45 82.45 153.85 77.45 154.55 77.45 163.9 77.45 172.85 78.55 170.35 Z"/>
</g>

<g id="Layer0_0_MEMBER_0_MEMBER_0_MEMBER_5_MEMBER_0_MEMBER_0_FILL">
<path fill="#DEE2D9" stroke="none" d="
M 84.05 178.15
Q 81.75 180.5 81.75 183.75 81.75 187 84.05 189.3 86.35 191.6 89.6 191.6 92.85 191.6 95.15 189.3 97.45 187 97.45 183.75 97.45 180.5 95.15 178.15 92.85 175.85 89.6 175.85 86.35 175.85 84.05 178.15 Z"/>
</g>

<g id="Layer0_0_MEMBER_0_MEMBER_0_MEMBER_6_MEMBER_0_MEMBER_0_FILL">
<path fill="#F0F0F0" stroke="none" d="
M 74.75 170.3
Q 72.45 172.6 72.45 175.85 72.45 179.1 74.75 181.45 77.1 183.75 80.35 183.75 83.6 183.75 85.9 181.45 88.2 179.1 88.2 175.85 88.2 172.65 85.9 170.3 83.6 168 80.35 168 77.1 168 74.75 170.3 Z"/>
</g>

<g id="Layer0_0_MEMBER_0_MEMBER_0_MEMBER_7_MEMBER_0_MEMBER_0_FILL">
<path fill="#DEE2D9" stroke="none" d="
M 84.05 168.35
Q 81.75 170.65 81.75 173.9 81.75 177.15 84.05 179.45 86.35 181.75 89.6 181.75 92.85 181.75 95.15 179.45 97.45 177.15 97.45 173.9 97.45 170.65 95.15 168.35 92.85 166.05 89.6 166.05 86.35 166.05 84.05 168.35 Z"/>
</g>

<g id="Layer0_0_MEMBER_0_MEMBER_0_MEMBER_8_MEMBER_0_MEMBER_0_FILL">
<path fill="#DEE2D9" stroke="none" d="
M 74.75 158.55
Q 72.45 160.85 72.45 164.1 72.45 167.35 74.75 169.65 77.1 171.95 80.35 171.95 83.6 171.95 85.9 169.65 88.2 167.35 88.2 164.1 88.2 160.85 85.9 158.55 83.6 156.25 80.35 156.25 77.1 156.25 74.75 158.55 Z"/>
</g>

<g id="Layer0_0_MEMBER_0_MEMBER_0_MEMBER_9_MEMBER_0_MEMBER_0_FILL">
<path fill="#DEE2D9" stroke="none" d="
M 74.75 183.95
Q 72.45 186.25 72.45 189.5 72.45 192.75 74.75 195.1 77.1 197.4 80.35 197.4 83.6 197.4 85.9 195.1 88.2 192.75 88.2 189.5 88.2 186.3 85.9 183.95 83.6 181.65 80.35 181.65 77.1 181.65 74.75 183.95 Z"/>
</g>

<g id="Layer0_0_MEMBER_0_MEMBER_0_MEMBER_10_MEMBER_0_MEMBER_0_FILL">
<path fill="#DEE2D9" stroke="none" d="
M 71.1 191
Q 70 192.1 69.7 193.55 69.2 196.2 71.1 198.05 72.95 199.95 75.6 199.45 77.05 199.15 78.15 198.05 79.25 196.95 79.5 195.5 80.05 192.9 78.15 191 76.3 189.1 73.65 189.6 72.15 189.9 71.1 191 Z"/>
</g>

<g id="Layer0_0_MEMBER_0_MEMBER_0_MEMBER_11_MEMBER_0_MEMBER_0_FILL">
<path fill="#DEE2D9" stroke="none" d="
M 71.1 155.15
Q 70 156.25 69.7 157.75 69.2 160.4 71.1 162.25 72.95 164.1 75.6 163.6 77.05 163.35 78.15 162.25 79.25 161.15 79.5 159.7 80 157.05 78.15 155.2 76.3 153.3 73.65 153.8 72.15 154.05 71.1 155.15 Z"/>
</g>

<g id="Layer0_0_MEMBER_0_MEMBER_0_MEMBER_12_MEMBER_0_MEMBER_0_FILL">
<path fill="#DEE2D9" stroke="none" d="
M 84.65 162.5
Q 83.55 163.6 83.3 165.05 82.8 167.7 84.65 169.6 86.5 171.5 89.15 170.95 90.65 170.7 91.75 169.6 92.8 168.55 93.1 167.05 93.6 164.4 91.75 162.55 89.85 160.65 87.2 161.15 85.75 161.4 84.65 162.5 Z"/>
</g>

<g id="Layer0_0_MEMBER_0_MEMBER_0_MEMBER_13_MEMBER_0_FILL">
<path fill="#F0F0F0" stroke="none" d="
M 73 176.1
Q 70.7 178.4 70.7 181.65 70.7 184.9 73 187.2 75.3 189.5 78.55 189.5 81.8 189.5 84.1 187.2 86.4 184.9 86.4 181.65 86.4 178.4 84.1 176.1 81.8 173.8 78.55 173.8 75.3 173.8 73 176.1 Z"/>
</g>

<g id="Layer0_0_MEMBER_0_MEMBER_0_MEMBER_14_MEMBER_0_FILL">
<path fill="#F0F0F0" stroke="none" d="
M 85.1 168.9
Q 83.05 168.9 81.55 170.35 80.1 171.85 80.1 173.9 80.1 175.95 81.55 177.45 83.05 178.9 85.1 178.9 87.2 178.9 88.65 177.45 90.1 175.95 90.1 173.9 90.1 171.85 88.65 170.35 87.2 168.9 85.1 168.9 Z"/>
</g>

<g id="Layer0_0_MEMBER_0_MEMBER_0_MEMBER_15_MEMBER_0_FILL">
<path fill="#F0F0F0" stroke="none" d="
M 72.25 166.35
Q 70.65 167.95 70.65 170.25 70.65 172.55 72.25 174.15 73.85 175.8 76.15 175.8 78.45 175.8 80.05 174.15 81.7 172.55 81.7 170.25 81.7 167.95 80.05 166.35 78.45 164.75 76.15 164.75 73.85 164.75 72.25 166.35 Z"/>
</g>

<g id="Layer0_0_MEMBER_0_MEMBER_1_MEMBER_0_MEMBER_0_FILL">
<path fill="#F0F0F0" stroke="none" d="
M 61.75 158.7
L 61.75 195.05 69.6 195.05 69.6 158.7 61.75 158.7 Z"/>
</g>

<g id="Layer0_0_MEMBER_0_MEMBER_1_MEMBER_1_MEMBER_0_MEMBER_0_FILL">
<path fill="#C5F49D" stroke="none" d="
M 69.6 192.1
L 64.45 195.05 64.15 197.65
Q 64 200.6 64.6 202.5 65.6 205.55 69.6 211.75
L 69.6 192.1 Z"/>
</g>

<g id="Layer0_0_MEMBER_0_MEMBER_1_MEMBER_2_MEMBER_0_MEMBER_0_FILL">
<path fill="#BDE897" stroke="none" d="
M 56.4 191.65
Q 50.6 194.4 48.2 197.4 45.75 200.35 43.5 201.75 42.4 202.4 41.75 202.5
L 44.85 202.15
Q 48.25 202.1 49.6 203.9 51.35 206.25 56.55 206.2 61.85 206.15 61.75 203 61.65 200.2 65.15 195.65
L 68.65 191.6 61.75 189.5
Q 59.35 190.3 56.4 191.65 Z"/>
</g>

<g id="Layer0_0_MEMBER_0_MEMBER_1_MEMBER_3_MEMBER_0_MEMBER_0_FILL">
<path fill="#ABDE82" stroke="none" d="
M 37.15 186.4
L 34.6 185.7 34.75 187.8
Q 35.05 190.3 35.85 192.3 38.35 198.65 44.6 197.4 50.85 196.1 56.35 193.75 59.05 192.6 60.55 191.65 60.35 185.7 59.6 183.7 59.1 182.25 51.7 183.25 44.6 184.25 42 185.7 40.05 186.85 37.15 186.4 Z"/>
</g>

<g id="Layer0_0_MEMBER_0_MEMBER_1_MEMBER_4_MEMBER_0_MEMBER_0_FILL">
<path fill="#9AD367" stroke="none" d="
M 39.15 169.1
Q 36.65 175.4 37.1 179.6 37.55 183.85 46.45 185.75 50.85 186.65 55.2 186.75
L 59.6 166.05 60.7 170.35
Q 61.75 172.85 61.75 163.9 61.75 154.55 56.75 153.85 54.25 153.45 47.55 156.25 44.7734375 157.4001953125 46.1 162.55 44.7125 162.45390625 43.2 163
L 41.75 163.7 39.15 169.1 Z"/>
</g>

<g id="Layer0_0_MEMBER_0_MEMBER_1_MEMBER_5_MEMBER_0_MEMBER_0_FILL">
<path fill="#F0F0F0" stroke="none" d="
M 57.45 183.75
Q 57.45 180.5 55.15 178.15 52.85 175.85 49.6 175.85 46.35 175.85 44.05 178.15 41.75 180.5 41.75 183.75 41.75 187 44.05 189.3 46.35 191.6 49.6 191.6 52.85 191.6 55.15 189.3 57.45 187 57.45 183.75 Z"/>
</g>

<g id="Layer0_0_MEMBER_0_MEMBER_1_MEMBER_6_MEMBER_0_MEMBER_0_FILL">
<path fill="#F0F0F0" stroke="none" d="
M 66.75 175.85
Q 66.75 172.6 64.45 170.3 62.15 168 58.9 168 55.65 168 53.35 170.3 51.05 172.6 51.05 175.85 51.05 179.1 53.35 181.45 55.65 183.75 58.9 183.75 62.15 183.75 64.45 181.45 66.75 179.1 66.75 175.85 Z"/>
</g>

<g id="Layer0_0_MEMBER_0_MEMBER_1_MEMBER_7_MEMBER_0_MEMBER_0_FILL">
<path fill="#F0F0F0" stroke="none" d="
M 57.45 173.9
Q 57.45 170.65 55.15 168.35 52.85 166.05 49.6 166.05 46.35 166.05 44.05 168.35 41.75 170.65 41.75 173.9 41.75 177.15 44.05 179.45 46.35 181.75 49.6 181.75 52.85 181.75 55.15 179.45 57.45 177.15 57.45 173.9 Z"/>
</g>

<g id="Layer0_0_MEMBER_0_MEMBER_1_MEMBER_8_MEMBER_0_MEMBER_0_FILL">
<path fill="#F0F0F0" stroke="none" d="
M 66.75 164.1
Q 66.75 160.85 64.45 158.55 62.15 156.25 58.9 156.25 55.65 156.25 53.35 158.55 51.05 160.85 51.05 164.1 51.05 167.35 53.35 169.65 55.65 171.95 58.9 171.95 62.15 171.95 64.45 169.65 66.75 167.35 66.75 164.1 Z"/>
</g>

<g id="Layer0_0_MEMBER_0_MEMBER_1_MEMBER_9_MEMBER_0_MEMBER_0_FILL">
<path fill="#F0F0F0" stroke="none" d="
M 66.75 189.5
Q 66.75 186.25 64.45 183.95 62.15 181.65 58.9 181.65 55.65 181.65 53.35 183.95 51.05 186.25 51.05 189.5 51.05 192.75 53.35 195.1 55.65 197.4 58.9 197.4 62.15 197.4 64.45 195.1 66.75 192.75 66.75 189.5 Z"/>
</g>

<g id="Layer0_0_MEMBER_0_MEMBER_1_MEMBER_10_MEMBER_0_MEMBER_0_FILL">
<path fill="#F0F0F0" stroke="none" d="
M 69.5 193.55
Q 69.25 192.1 68.15 191 67.05 189.9 65.6 189.6 62.95 189.1 61.1 191 59.2 192.85 59.7 195.5 60 197 61.1 198.05 62.15 199.15 63.65 199.45 66.3 199.95 68.15 198.05 70.05 196.15 69.5 193.55 Z"/>
</g>

<g id="Layer0_0_MEMBER_0_MEMBER_1_MEMBER_11_MEMBER_0_MEMBER_0_FILL">
<path fill="#F0F0F0" stroke="none" d="
M 69.5 157.75
Q 69.25 156.25 68.15 155.15 67.05 154.05 65.6 153.8 62.95 153.3 61.1 155.2 59.2 157.05 59.7 159.7 60 161.2 61.1 162.25 62.15 163.35 63.65 163.6 66.3 164.15 68.15 162.25 70.05 160.4 69.5 157.75 Z"/>
</g>

<g id="Layer0_0_MEMBER_0_MEMBER_1_MEMBER_12_MEMBER_0_MEMBER_0_FILL">
<path fill="#F0F0F0" stroke="none" d="
M 55.95 165.05
Q 55.65 163.55 54.6 162.5 53.5 161.4 52 161.15 49.35 160.65 47.5 162.55 45.65 164.4 46.15 167.05 46.4 168.5 47.5 169.6 48.6 170.7 50.05 170.95 52.7 171.5 54.6 169.6 56.45 167.7 55.95 165.05 Z"/>
</g>

<g id="Layer0_0_MEMBER_0_MEMBER_1_MEMBER_13_MEMBER_0_FILL">
<path fill="#F9F9F9" stroke="none" d="
M 68.55 181.65
Q 68.55 178.45 66.25 176.1 63.95 173.8 60.7 173.8 57.45 173.8 55.15 176.1 52.85 178.4 52.85 181.65 52.85 184.9 55.15 187.2 57.45 189.5 60.7 189.5 63.95 189.5 66.25 187.2 68.55 184.9 68.55 181.65 Z"/>
</g>

<g id="Layer0_0_MEMBER_0_MEMBER_1_MEMBER_14_MEMBER_0_FILL">
<path fill="#F9F9F9" stroke="none" d="
M 59.1 173.9
Q 59.1 171.85 57.65 170.35 56.15 168.9 54.1 168.9 52.05 168.9 50.55 170.35 49.1 171.85 49.1 173.9 49.1 175.95 50.55 177.45 52.05 178.9 54.1 178.9 56.15 178.9 57.65 177.45 59.1 175.95 59.1 173.9 Z"/>
</g>

<g id="Layer0_0_MEMBER_0_MEMBER_1_MEMBER_15_MEMBER_0_FILL">
<path fill="#F9F9F9" stroke="none" d="
M 68.6 170.25
Q 68.6 167.95 66.95 166.35 65.35 164.75 63.05 164.75 60.75 164.75 59.15 166.35 57.55 167.95 57.55 170.25 57.55 172.55 59.15 174.15 60.75 175.8 63.05 175.8 65.35 175.8 66.95 174.15 68.6 172.55 68.6 170.25 Z"/>
</g>

<g id="Layer0_0_MEMBER_1_MEMBER_0_FILL">
<path fill="#F0F0F0" stroke="none" d="
M 69.6 168.9
Q 70 168.9 70.8 169.1 72.25 168.7 73.15 167.5 74.1 166.3 74.1 164.75 74.1 162.9 72.8 161.55 71.5 160.25 69.6 160.25
L 69.6 168.9 Z"/>
</g>

<g id="Layer0_0_MEMBER_2_MEMBER_0_FILL">
<path fill="#F9F9F9" stroke="none" d="
M 69.6 168.9
L 69.6 160.25
Q 67.75 160.25 66.4 161.55 65.1 162.9 65.1 164.75 65.1 166.3 66.05 167.5 66.95 168.7 68.45 169.1 69.15 168.9 69.6 168.9 Z"/>
</g>

<g id="Layer0_0_MEMBER_3_MEMBER_0_FILL">
<path fill="#F9F9F9" stroke="none" d="
M 69.6 169.25
L 69.6 173.15
Q 72.05 173.15 74 174.4 74.1 174.05 74.1 173.4 74.1 171.9 73.15 170.65 72.25 169.5 70.8 169.1 70.2 169.25 69.6 169.25 Z"/>
</g>

<g id="Layer0_0_MEMBER_4_MEMBER_0_FILL">
<path fill="#FFFFFF" stroke="none" d="
M 69.6 173.15
L 69.6 169.25
Q 69 169.25 68.45 169.1 67 169.5 66.05 170.65 65.1 171.85 65.1 173.4
L 65.2 174.4
Q 67.25 173.15 69.6 173.15 Z"/>
</g>

<g id="Layer0_0_MEMBER_5_MEMBER_0_FILL">
<path fill="#F9F9F9" stroke="none" d="
M 69.6 169.25
L 69.6 168.9
Q 69.15 168.9 68.45 169.1 69 169.25 69.6 169.25 Z"/>
</g>

<g id="Layer0_0_MEMBER_6_MEMBER_0_FILL">
<path fill="#F9F9F9" stroke="none" d="
M 69.6 168.9
L 69.6 169.25
Q 70.2 169.25 70.8 169.1 70 168.9 69.6 168.9 Z"/>
</g>

<g id="Layer0_0_MEMBER_7_MEMBER_0_FILL">
<path fill="#F0F0F0" stroke="none" d="
M 69.6 190.4
L 69.6 195.2
Q 71.45 195.2 72.8 193.85 74.1 192.55 74.1 190.65 74.1 190 73.85 189.25 71.8 190.4 69.6 190.4 Z"/>
</g>

<g id="Layer0_0_MEMBER_8_MEMBER_0_FILL">
<path fill="#F9F9F9" stroke="none" d="
M 69.6 190.4
Q 67.4 190.4 65.35 189.25 65.1 190 65.1 190.65 65.1 192.55 66.4 193.85 67.75 195.2 69.6 195.2
L 69.6 190.4 Z"/>
</g>

<g id="Layer0_0_MEMBER_9_MEMBER_0_FILL">
<path fill="#F9F9F9" stroke="none" d="
M 74 174.4
Q 73.7 175.9 72.5 176.95 71.25 177.95 69.6 177.95
L 69.6 186.15
Q 71.1 186.15 72.25 187.05 73.4 187.9 73.85 189.25 75.85 188.1 77 186.15 78.2 184.1 78.2 181.75 78.2 179.4 77.05 177.45 75.95 175.55 74 174.4 Z"/>
</g>

<g id="Layer0_0_MEMBER_10_MEMBER_0_FILL">
<path fill="#FFFFFF" stroke="none" d="
M 62.15 177.45
Q 61 179.45 61 181.75 61 184.1 62.2 186.15 63.35 188.1 65.35 189.25 65.8 187.9 66.95 187.05 68.1 186.15 69.6 186.15
L 69.6 177.95
Q 68 177.95 66.75 176.95 65.55 175.9 65.2 174.4 63.3 175.55 62.15 177.45 Z"/>
</g>

<g id="Layer0_0_MEMBER_11_MEMBER_0_FILL">
<path fill="#F9F9F9" stroke="none" d="
M 69.6 173.15
L 69.6 177.95
Q 71.25 177.95 72.5 176.95 73.7 175.9 74 174.4 72.05 173.15 69.6 173.15 Z"/>
</g>

<g id="Layer0_0_MEMBER_12_MEMBER_0_FILL">
<path fill="#FFFFFF" stroke="none" d="
M 66.75 176.95
Q 68 177.95 69.6 177.95
L 69.6 173.15
Q 67.25 173.15 65.2 174.4 65.55 175.9 66.75 176.95 Z"/>
</g>

<g id="Layer0_0_MEMBER_13_MEMBER_0_FILL">
<path fill="#F9F9F9" stroke="none" d="
M 72.25 187.05
Q 71.1 186.15 69.6 186.15
L 69.6 190.4
Q 71.8 190.4 73.85 189.25 73.4 187.9 72.25 187.05 Z"/>
</g>

<g id="Layer0_0_MEMBER_14_MEMBER_0_FILL">
<path fill="#FFFFFF" stroke="none" d="
M 69.6 190.4
L 69.6 186.15
Q 68.1 186.15 66.95 187.05 65.8 187.9 65.35 189.25 67.4 190.4 69.6 190.4 Z"/>
</g>

<g id="Layer0_0_MEMBER_15_MEMBER_0_FILL">
<path fill="#FFFFFF" stroke="none" d="
M 67.5 173.15
Q 67.5 171.75 66.5 170.75 65.5 169.75 64.1 169.75 62.7 169.75 61.7 170.75 60.7 171.75 60.7 173.15 60.7 174.6 61.7 175.55 62.7 176.55 64.1 176.55 65.5 176.55 66.5 175.55 67.5 174.55 67.5 173.15 Z"/>
</g>

<g id="Layer0_0_MEMBER_16_MEMBER_0_FILL">
<path fill="#FFFFFF" stroke="none" d="
M 65.15 177.95
Q 65.15 176.55 64.15 175.55 63.2 174.55 61.75 174.55 60.35 174.55 59.35 175.55 58.35 176.55 58.35 177.95 58.35 179.35 59.35 180.35 60.35 181.35 61.75 181.35 63.15 181.35 64.15 180.35 65.15 179.35 65.15 177.95 Z"/>
</g>

<g id="Layer0_0_MEMBER_17_MEMBER_0_FILL">
<path fill="#F9F9F9" stroke="none" d="
M 80.3 174.5
Q 80.3 173.1 79.3 172.05 78.3 171.05 76.85 171.05 75.45 171.05 74.45 172.05 73.45 173.05 73.45 174.5 73.45 175.95 74.45 176.95 75.45 177.95 76.85 177.95 78.3 177.95 79.3 176.95 80.3 175.95 80.3 174.5 Z"/>
</g>

<g id="Layer0_0_MEMBER_18_MEMBER_0_FILL">
<path fill="#F9F9F9" stroke="none" d="
M 80.3 180.35
Q 80.3 178.9 79.3 177.9 78.3 176.9 76.85 176.9 75.4 176.9 74.45 177.9 73.45 178.9 73.45 180.35 73.45 181.8 74.45 182.75 75.45 183.75 76.85 183.75 78.3 183.75 79.3 182.75 80.3 181.75 80.3 180.35 Z"/>
</g>

<g id="Layer0_0_MEMBER_19_MEMBER_0_FILL">
<path fill="#F9F9F9" stroke="none" d="
M 79.6 183.75
Q 79.6 182.35 78.6 181.35 77.6 180.35 76.15 180.35 74.7 180.35 73.7 181.35 72.7 182.35 72.7 183.75 72.7 185.2 73.7 186.2 74.75 187.2 76.15 187.2 77.6 187.2 78.6 186.2 79.6 185.2 79.6 183.75 Z"/>
</g>

<g id="Layer0_0_MEMBER_20_MEMBER_0_FILL">
<path fill="#FFFFFF" stroke="none" d="
M 66.45 182.2
Q 66.25 181.2 65.5 180.45 64.75 179.7 63.75 179.5 61.9 179.15 60.65 180.45 59.35 181.75 59.7 183.55 59.9 184.55 60.65 185.3 61.4 186.05 62.4 186.25 64.2 186.65 65.5 185.35 66.8 184.05 66.45 182.2 Z"/>
</g>
</defs>

<g transform="matrix( 10, 0, 0, 10, -184,-1315.2) ">
<use xlink:href="#Layer0_0_MEMBER_0_MEMBER_0_MEMBER_0_MEMBER_0_FILL"/>
</g>

<g transform="matrix( 10, 0, 0, 10, -184,-1315.2) ">
<use xlink:href="#Layer0_0_MEMBER_0_MEMBER_0_MEMBER_1_MEMBER_0_MEMBER_0_FILL"/>
</g>

<g transform="matrix( 10, 0, 0, 10, -184,-1315.2) ">
<use xlink:href="#Layer0_0_MEMBER_0_MEMBER_0_MEMBER_2_MEMBER_0_MEMBER_0_FILL"/>
</g>

<g transform="matrix( 10, 0, 0, 10, -184,-1315.2) ">
<use xlink:href="#Layer0_0_MEMBER_0_MEMBER_0_MEMBER_3_MEMBER_0_MEMBER_0_FILL"/>
</g>

<g transform="matrix( 10, 0, 0, 10, -184,-1315.2) ">
<use xlink:href="#Layer0_0_MEMBER_0_MEMBER_0_MEMBER_4_MEMBER_0_MEMBER_0_FILL"/>
</g>

<g transform="matrix( 10, 0, 0, 10, -184,-1315.2) ">
<use xlink:href="#Layer0_0_MEMBER_0_MEMBER_0_MEMBER_5_MEMBER_0_MEMBER_0_FILL"/>
</g>

<g transform="matrix( 10, 0, 0, 10, -184,-1315.2) ">
<use xlink:href="#Layer0_0_MEMBER_0_MEMBER_0_MEMBER_6_MEMBER_0_MEMBER_0_FILL"/>
</g>

<g transform="matrix( 10, 0, 0, 10, -184,-1315.2) ">
<use xlink:href="#Layer0_0_MEMBER_0_MEMBER_0_MEMBER_7_MEMBER_0_MEMBER_0_FILL"/>
</g>

<g transform="matrix( 10, 0, 0, 10, -184,-1315.2) ">
<use xlink:href="#Layer0_0_MEMBER_0_MEMBER_0_MEMBER_8_MEMBER_0_MEMBER_0_FILL"/>
</g>

<g transform="matrix( 10, 0, 0, 10, -184,-1315.2) ">
<use xlink:href="#Layer0_0_MEMBER_0_MEMBER_0_MEMBER_9_MEMBER_0_MEMBER_0_FILL"/>
</g>

<g transform="matrix( 10, 0, 0, 10, -184,-1315.2) ">
<use xlink:href="#Layer0_0_MEMBER_0_MEMBER_0_MEMBER_10_MEMBER_0_MEMBER_0_FILL"/>
</g>

<g transform="matrix( 10, 0, 0, 10, -184,-1315.2) ">
<use xlink:href="#Layer0_0_MEMBER_0_MEMBER_0_MEMBER_11_MEMBER_0_MEMBER_0_FILL"/>
</g>

<g transform="matrix( 10, 0, 0, 10, -184,-1315.2) ">
<use xlink:href="#Layer0_0_MEMBER_0_MEMBER_0_MEMBER_12_MEMBER_0_MEMBER_0_FILL"/>
</g>

<g transform="matrix( 10, 0, 0, 10, -184,-1315.2) ">
<use xlink:href="#Layer0_0_MEMBER_0_MEMBER_0_MEMBER_13_MEMBER_0_FILL"/>
</g>

<g transform="matrix( 10, 0, 0, 10, -184,-1315.2) ">
<use xlink:href="#Layer0_0_MEMBER_0_MEMBER_0_MEMBER_14_MEMBER_0_FILL"/>
</g>

<g transform="matrix( 10, 0, 0, 10, -184,-1315.2) ">
<use xlink:href="#Layer0_0_MEMBER_0_MEMBER_0_MEMBER_15_MEMBER_0_FILL"/>
</g>

<g transform="matrix( 10, 0, 0, 10, -184,-1315.2) ">
<use xlink:href="#Layer0_0_MEMBER_0_MEMBER_1_MEMBER_0_MEMBER_0_FILL"/>
</g>

<g transform="matrix( 10, 0, 0, 10, -184,-1315.2) ">
<use xlink:href="#Layer0_0_MEMBER_0_MEMBER_1_MEMBER_1_MEMBER_0_MEMBER_0_FILL"/>
</g>

<g transform="matrix( 10, 0, 0, 10, -184,-1315.2) ">
<use xlink:href="#Layer0_0_MEMBER_0_MEMBER_1_MEMBER_2_MEMBER_0_MEMBER_0_FILL"/>
</g>

<g transform="matrix( 10, 0, 0, 10, -184,-1315.2) ">
<use xlink:href="#Layer0_0_MEMBER_0_MEMBER_1_MEMBER_3_MEMBER_0_MEMBER_0_FILL"/>
</g>

<g transform="matrix( 10, 0, 0, 10, -184,-1315.2) ">
<use xlink:href="#Layer0_0_MEMBER_0_MEMBER_1_MEMBER_4_MEMBER_0_MEMBER_0_FILL"/>
</g>

<g transform="matrix( 10, 0, 0, 10, -184,-1315.2) ">
<use xlink:href="#Layer0_0_MEMBER_0_MEMBER_1_MEMBER_5_MEMBER_0_MEMBER_0_FILL"/>
</g>

<g transform="matrix( 10, 0, 0, 10, -184,-1315.2) ">
<use xlink:href="#Layer0_0_MEMBER_0_MEMBER_1_MEMBER_6_MEMBER_0_MEMBER_0_FILL"/>
</g>

<g transform="matrix( 10, 0, 0, 10, -184,-1315.2) ">
<use xlink:href="#Layer0_0_MEMBER_0_MEMBER_1_MEMBER_7_MEMBER_0_MEMBER_0_FILL"/>
</g>

<g transform="matrix( 10, 0, 0, 10, -184,-1315.2) ">
<use xlink:href="#Layer0_0_MEMBER_0_MEMBER_1_MEMBER_8_MEMBER_0_MEMBER_0_FILL"/>
</g>

<g transform="matrix( 10, 0, 0, 10, -184,-1315.2) ">
<use xlink:href="#Layer0_0_MEMBER_0_MEMBER_1_MEMBER_9_MEMBER_0_MEMBER_0_FILL"/>
</g>

<g transform="matrix( 10, 0, 0, 10, -184,-1315.2) ">
<use xlink:href="#Layer0_0_MEMBER_0_MEMBER_1_MEMBER_10_MEMBER_0_MEMBER_0_FILL"/>
</g>

<g transform="matrix( 10, 0, 0, 10, -184,-1315.2) ">
<use xlink:href="#Layer0_0_MEMBER_0_MEMBER_1_MEMBER_11_MEMBER_0_MEMBER_0_FILL"/>
</g>

<g transform="matrix( 10, 0, 0, 10, -184,-1315.2) ">
<use xlink:href="#Layer0_0_MEMBER_0_MEMBER_1_MEMBER_12_MEMBER_0_MEMBER_0_FILL"/>
</g>

<g transform="matrix( 10, 0, 0, 10, -184,-1315.2) ">
<use xlink:href="#Layer0_0_MEMBER_0_MEMBER_1_MEMBER_13_MEMBER_0_FILL"/>
</g>

<g transform="matrix( 10, 0, 0, 10, -184,-1315.2) ">
<use xlink:href="#Layer0_0_MEMBER_0_MEMBER_1_MEMBER_14_MEMBER_0_FILL"/>
</g>

<g transform="matrix( 10, 0, 0, 10, -184,-1315.2) ">
<use xlink:href="#Layer0_0_MEMBER_0_MEMBER_1_MEMBER_15_MEMBER_0_FILL"/>
</g>

<g transform="matrix( 10, 0, 0, 10, -184,-1315.2) ">
<use xlink:href="#Layer0_0_MEMBER_1_MEMBER_0_FILL"/>
</g>

<g transform="matrix( 10, 0, 0, 10, -184,-1315.2) ">
<use xlink:href="#Layer0_0_MEMBER_2_MEMBER_0_FILL"/>
</g>

<g transform="matrix( 10, 0, 0, 10, -184,-1315.2) ">
<use xlink:href="#Layer0_0_MEMBER_3_MEMBER_0_FILL"/>
</g>

<g transform="matrix( 10, 0, 0, 10, -184,-1315.2) ">
<use xlink:href="#Layer0_0_MEMBER_4_MEMBER_0_FILL"/>
</g>

<g transform="matrix( 10, 0, 0, 10, -184,-1315.2) ">
<use xlink:href="#Layer0_0_MEMBER_5_MEMBER_0_FILL"/>
</g>

<g transform="matrix( 10, 0, 0, 10, -184,-1315.2) ">
<use xlink:href="#Layer0_0_MEMBER_6_MEMBER_0_FILL"/>
</g>

<g transform="matrix( 10, 0, 0, 10, -184,-1315.2) ">
<use xlink:href="#Layer0_0_MEMBER_7_MEMBER_0_FILL"/>
</g>

<g transform="matrix( 10, 0, 0, 10, -184,-1315.2) ">
<use xlink:href="#Layer0_0_MEMBER_8_MEMBER_0_FILL"/>
</g>

<g transform="matrix( 10, 0, 0, 10, -184,-1315.2) ">
<use xlink:href="#Layer0_0_MEMBER_9_MEMBER_0_FILL"/>
</g>

<g transform="matrix( 10, 0, 0, 10, -184,-1315.2) ">
<use xlink:href="#Layer0_0_MEMBER_10_MEMBER_0_FILL"/>
</g>

<g transform="matrix( 10, 0, 0, 10, -184,-1315.2) ">
<use xlink:href="#Layer0_0_MEMBER_11_MEMBER_0_FILL"/>
</g>

<g transform="matrix( 10, 0, 0, 10, -184,-1315.2) ">
<use xlink:href="#Layer0_0_MEMBER_12_MEMBER_0_FILL"/>
</g>

<g transform="matrix( 10, 0, 0, 10, -184,-1315.2) ">
<use xlink:href="#Layer0_0_MEMBER_13_MEMBER_0_FILL"/>
</g>

<g transform="matrix( 10, 0, 0, 10, -184,-1315.2) ">
<use xlink:href="#Layer0_0_MEMBER_14_MEMBER_0_FILL"/>
</g>

<g transform="matrix( 10, 0, 0, 10, -184,-1315.2) ">
<use xlink:href="#Layer0_0_MEMBER_15_MEMBER_0_FILL"/>
</g>

<g transform="matrix( 10, 0, 0, 10, -184,-1315.2) ">
<use xlink:href="#Layer0_0_MEMBER_16_MEMBER_0_FILL"/>
</g>

<g transform="matrix( 10, 0, 0, 10, -184,-1315.2) ">
<use xlink:href="#Layer0_0_MEMBER_17_MEMBER_0_FILL"/>
</g>

<g transform="matrix( 10, 0, 0, 10, -184,-1315.2) ">
<use xlink:href="#Layer0_0_MEMBER_18_MEMBER_0_FILL"/>
</g>

<g transform="matrix( 10, 0, 0, 10, -184,-1315.2) ">
<use xlink:href="#Layer0_0_MEMBER_19_MEMBER_0_FILL"/>
</g>

<g transform="matrix( 10, 0, 0, 10, -184,-1315.2) ">
<use xlink:href="#Layer0_0_MEMBER_20_MEMBER_0_FILL"/>
</g>
</svg>
