<svg xmlns="http://www.w3.org/2000/svg" xmlns:xlink="http://www.w3.org/1999/xlink" viewBox="0 0 156.77 194.64"><defs><style>.cls-1{fill:#d2be7a;}.cls-2{fill:url(#未命名的渐变_106);}.cls-3{fill:url(#未命名的渐变_2);}.cls-4{fill:url(#未命名的渐变_82);}.cls-5{fill:url(#未命名的渐变_91);}.cls-6{fill:url(#未命名的渐变_71);}.cls-7{fill:url(#未命名的渐变_88);}.cls-8{fill:url(#未命名的渐变_99);}.cls-9{fill:url(#未命名的渐变_91-2);}.cls-10{fill:url(#未命名的渐变_82-2);}.cls-11{fill:#99ea5f;}.cls-12{fill:url(#未命名的渐变_58);}.cls-13{fill:url(#未命名的渐变_108);}.cls-14{fill:url(#未命名的渐变_108-2);}.cls-15{fill:#5b3923;}.cls-16{fill:#4f3524;}</style><linearGradient id="未命名的渐变_106" x1="3643.92" y1="70.27" x2="3643.92" y2="0.94" gradientTransform="matrix(-1, 0.03, 0.03, 1, 3724.36, -57.42)" gradientUnits="userSpaceOnUse"><stop offset="0" stop-color="#245a32"/><stop offset="1" stop-color="#58e173"/></linearGradient><linearGradient id="未命名的渐变_2" x1="3649.19" y1="59.54" x2="3649.19" y2="-36.08" gradientTransform="matrix(-1, 0.03, 0.03, 1, 3724.36, -57.42)" gradientUnits="userSpaceOnUse"><stop offset="0" stop-color="#246032"/><stop offset="1" stop-color="#58e173"/></linearGradient><linearGradient id="未命名的渐变_82" x1="3616.96" y1="34.57" x2="3616.96" y2="-36.25" gradientTransform="matrix(-1, 0.03, 0.03, 1, 3724.36, -57.42)" gradientUnits="userSpaceOnUse"><stop offset="0" stop-color="#247338"/><stop offset="1" stop-color="#58cf73"/></linearGradient><linearGradient id="未命名的渐变_91" x1="3696.79" y1="28.1" x2="3696.79" y2="-23.3" gradientTransform="matrix(-1, 0.03, 0.03, 1, 3724.36, -57.42)" gradientUnits="userSpaceOnUse"><stop offset="0" stop-color="#246932"/><stop offset="1" stop-color="#58e173"/></linearGradient><linearGradient id="未命名的渐变_71" x1="3654.62" y1="13.19" x2="3654.62" y2="-45.49" gradientTransform="matrix(-1, 0.03, 0.03, 1, 3724.36, -57.42)" gradientUnits="userSpaceOnUse"><stop offset="0" stop-color="#246932"/><stop offset="1" stop-color="#58cf73"/></linearGradient><linearGradient id="未命名的渐变_88" x1="3698.69" y1="7.1" x2="3698.69" y2="-37.72" gradientTransform="matrix(-1, 0.03, 0.03, 1, 3724.36, -57.42)" gradientUnits="userSpaceOnUse"><stop offset="0" stop-color="#246932"/><stop offset="1" stop-color="#51de73"/></linearGradient><linearGradient id="未命名的渐变_99" x1="3652.21" y1="9.92" x2="3652.21" y2="-14.97" gradientTransform="matrix(-1, 0.03, 0.03, 1, 3724.36, -57.42)" gradientUnits="userSpaceOnUse"><stop offset="0" stop-color="#246932"/><stop offset="1" stop-color="#58c174"/></linearGradient><linearGradient id="未命名的渐变_91-2" x1="3613.24" y1="15.25" x2="3613.24" y2="-45.58" xlink:href="#未命名的渐变_91"/><linearGradient id="未命名的渐变_82-2" x1="3615.43" y1="-8.24" x2="3615.43" y2="-53.95" xlink:href="#未命名的渐变_82"/><linearGradient id="未命名的渐变_58" x1="3648.23" y1="134.79" x2="3648.23" y2="9.99" gradientTransform="matrix(-1, 0.03, 0.03, 1, 3724.36, -57.42)" gradientUnits="userSpaceOnUse"><stop offset="0" stop-color="#6d462d"/><stop offset="1" stop-color="#433827"/></linearGradient><linearGradient id="未命名的渐变_108" x1="3620.38" y1="30.57" x2="3620.38" y2="0.82" gradientTransform="matrix(-1, 0.03, 0.03, 1, 3724.36, -57.42)" gradientUnits="userSpaceOnUse"><stop offset="0" stop-color="#245f38"/><stop offset="1" stop-color="#58cf73"/></linearGradient><linearGradient id="未命名的渐变_108-2" x1="3659.47" y1="28.2" x2="3659.47" y2="-1.69" xlink:href="#未命名的渐变_108"/></defs><g id="图层_2" data-name="图层 2"><g id="图层_1-2" data-name="图层 1"><path class="cls-1" d="M62.14,181.13s-20.07,0-18.56,7.27c.89,4.32,8,5.11,11.47,5.56a119,119,0,0,0,14.25.67c6.93.09,13.77-1.38,20.67-1.71,5.27-.25,20.32-1.76,16.55-7.52S65.65,180.88,62.14,181.13Z"/><path class="cls-2" d="M142.64,71.91c2.18,2.27,4.24,4.86,4.84,8s-.74,6.75-3.68,7.86c6.84,4,9.71,13.83,5.58,20.59s-14.8,8.48-20.49,3a8.31,8.31,0,0,1-13.77,6.66,5.56,5.56,0,0,1-10.75,1.26c-1.26,3.54-5.61,5.17-9.32,4.58s-6.91-2.85-10-5.06A13.06,13.06,0,0,1,62,118.18c-.62,2.82-4,4.37-6.83,3.84s-5.16-2.6-7-4.85c-.54-.66-1.23-1.42-2.07-1.28a3.62,3.62,0,0,0-1.37.88c-1.84,1.39-4.66.43-6.07-1.39s-1.77-4.22-2.08-6.51c-6.52,1.24-13.31-2.52-17-8.06s-4.58-12.5-4-19.12a33.12,33.12,0,0,1,4.7-15.14,20.41,20.41,0,0,1,12.62-9.18"/><path class="cls-3" d="M41.11,32.51c3.11-3.7,6.43-7.54,11-9.23S62.65,23,64.48,27.44a6.51,6.51,0,1,1,12.58-3.32,24.56,24.56,0,0,1,11.57-2.46c4,.29,8,2.18,10.09,5.54,2.61,4.14,2.73,10.49,7.29,12.24a13.54,13.54,0,0,0,3.87.59A25.76,25.76,0,0,1,130.94,55.2c1.45,3.38,2.17,7.09,4.07,10.25,1.38,2.29,3.33,4.18,5,6.3s3,4.62,2.94,7.3-2.06,5.43-4.73,5.57c1.67,3.19,3.3,6.92,2,10.27-1.15,2.91-4.33,4.64-7.45,4.92s-6.21-.63-9.18-1.65a11.79,11.79,0,0,1-11.28,15.38c-5.84,0-10.75-4.26-14.68-8.59.27,3.51-4.13,5.87-7.54,5s-5.87-3.77-8.1-6.5a8,8,0,0,1-15.75.73c-.83,4.75-5.68,8.13-10.5,8.2s-9.36-2.63-12.48-6.29-5-8.22-6.55-12.78c-.18,2.76-3.24,4.72-6,4.34s-5-2.55-6.16-5a25.07,25.07,0,0,1-1.86-8c0,2.74-3.81,4.15-6.2,2.8S13,83.13,12.58,80.42C11.08,71.3,15.31,60.74,24,57.49"/><path class="cls-4" d="M101,35.92a21.59,21.59,0,0,1,11.33-17.1,9.37,9.37,0,0,1,4.29-1.24c2.84,0,5.31,2.15,6.6,4.68s1.62,5.42,1.93,8.24a7.75,7.75,0,0,1,13.1,7.57c5.08,1.88,10.54,4,13.38,8.67s1,12.26-4.4,12.95c3.16,2.32,6.37,4.82,8.2,8.28s1.91,8.18-.86,11c-4.36,4.35-11.83,1.33-16.59-2.57A9.18,9.18,0,1,1,120.06,80a7.17,7.17,0,0,1-7.17,5.17,7.92,7.92,0,0,1-7-5.68,4.8,4.8,0,0,1-9.06,2.29C91.12,87.84,80.58,88.59,74,83.36s-8.16-15.68-3.47-22.63c-3.44-.92-6.79-3-8.11-6.34s.16-7.76,3.56-8.8c-3.44-1.24-4-6.46-1.48-9.15s6.65-3.12,10.2-2.24c-3.13-3-2.48-8.62.64-11.63s7.94-3.69,12.19-2.82S95.65,22.83,99.4,25"/><path class="cls-5" d="M54.89,40.86c-1.31-3.86-4.31-7.49-8.34-8.08S38.05,36,39.13,40c-1.55-3.21-4.47-6.14-8-6.2s-6.87,4.18-5,7.19c-2.51-2.61-6.61-3.84-9.91-2.37s-5.12,5.94-3.24,9c-4.25-1.57-9.28,1-11.45,4.94S-.32,61.48,1.32,65.7a15.59,15.59,0,0,0,7.17,8.51c3.4,1.69,7.88,1.46,10.63-1.16a4.43,4.43,0,0,0,2.4,5.28,3.65,3.65,0,0,0,4.8-2.72,5.15,5.15,0,0,0,4.86,4.85,5.15,5.15,0,0,0,5.06-4.65c-.08,5.56,6.59,9.61,11.9,8s8.54-7.52,8.38-13.07S53.4,60,49.65,55.88a3.85,3.85,0,1,0,2.63-6.78,8,8,0,0,0,4.38-1A4,4,0,0,0,53.44,41"/><path class="cls-6" d="M38.91,31.49c.86-3.49,2-7,4.39-9.74S49.61,17.44,53,18.7a6.49,6.49,0,0,1,11.55-4.22A10.72,10.72,0,0,1,84.11,19a22.23,22.23,0,0,1,20.37,4.25A27.37,27.37,0,0,1,114,42.05c.35,4.15-.23,8.56-2.7,11.91-3.58,4.86-10.15,6.35-16.17,6.8a80.44,80.44,0,0,1-37.34-6.17c.44,4,.1,8.5-2.64,11.49-3.57,3.91-10,3.78-14.75,1.49C31.24,63.2,26.17,51.72,29.1,42"/><path class="cls-7" d="M41.38,25.48a9.67,9.67,0,0,1,10.86,7.6,9.68,9.68,0,0,1-7.73,10.77,4.12,4.12,0,1,1-4.23,7,5.25,5.25,0,0,1-.52,7.86,5.34,5.34,0,0,1-7.6-2.24c1.61,3.37-2.07,7.43-5.79,7.29s-6.77-3.14-8.49-6.45c-1.06,4.08-6,6.51-10,5.21a9.48,9.48,0,0,1-6.08-10,11.51,11.51,0,0,1,7.74-9.16c-4.95-3-6.33-10.51-2.73-15S18.06,23.49,22,27.66a4.64,4.64,0,0,1,3.38-5.34,4.64,4.64,0,0,1,5.33,3.38c-.44-2-.81-4.29.51-5.83A4.13,4.13,0,0,1,35.85,19a7.46,7.46,0,0,1,3.52,3.39,12.71,12.71,0,0,1,1.47,4.05"/><path class="cls-8" d="M97.45,52.83c1.86,3.27-.1,7.84-3.54,9.36s-7.67.32-10.38-2.29c.84,2.32-1.69,4.74-4.16,4.74s-4.62-1.58-6.49-3.19A3.67,3.67,0,0,1,70,65.16c-2.73.51-4.94-2.1-6.47-4.41-.06,2.59-3,4.41-5.57,4s-4.65-2.29-6.13-4.42-2.59-4.85-2.13-7.46A10.28,10.28,0,0,1,52.37,48c3.83-4.22,9.4-6.58,15.05-7.38s11.4-.16,17,.84"/><path class="cls-9" d="M120.38,11.39a13.77,13.77,0,0,1,7,11.6,5.68,5.68,0,0,1,9.89,2.77c2.18-1.35,5.27.28,6.18,2.68s.17,5.12-1,7.41a17.46,17.46,0,0,1,13.49,15c.35,3.52-.55,7.33-3.14,9.74s-7.05,2.89-9.62.46c2.11,1.93-.17,5.9-3,6s-5.21-2.34-6.46-4.91c.94,3.39-2.81,6.72-6.31,6.34s-6.21-3.36-7.57-6.59a13.78,13.78,0,0,1-26.07-6.37c-1.94,2.21-5.94.72-7.14-2s-.51-5.79.2-8.64A5.51,5.51,0,0,1,80,36.46a3.68,3.68,0,0,1-4.19.33,9.87,9.87,0,0,1-3.17-3.13c-2.19-3-4.21-6.5-3.87-10.21a10.21,10.21,0,0,1,6.82-8.28,14.16,14.16,0,0,1,11,1c-.34-4,3.67-7.43,7.63-7.22s7.36,3.4,8.63,7.16c.06-3.18,3.82-4.91,7-5.15a21.81,21.81,0,0,1,12.44,2.82"/><path class="cls-10" d="M131.24,31.07a9.68,9.68,0,0,1-2.77,13,9.68,9.68,0,0,1-12.93-2.92,4.13,4.13,0,1,1-8.07-1.18A5.25,5.25,0,0,1,100,42.52a5.34,5.34,0,0,1-.9-7.87c-2.47,2.79-7.65,1-9-2.49s.26-7.46,2.63-10.33c-4.18.61-8.34-3-8.71-7.21a9.49,9.49,0,0,1,6.81-9.48A11.54,11.54,0,0,1,102.35,8.7c.79-5.71,7.21-9.93,12.77-8.38S124,8.81,121.69,14.1a4.64,4.64,0,0,1,6.23,1,4.63,4.63,0,0,1-1,6.22c1.65-1.17,3.63-2.41,5.56-1.8a4.13,4.13,0,0,1,2.61,3.88A7.44,7.44,0,0,1,133.32,28a12.73,12.73,0,0,1-3.16,2.92"/><path class="cls-11" d="M114.62,17.63a3.83,3.83,0,0,1-3.69,4.23S109.37,19,114.62,17.63Z"/><path class="cls-11" d="M70.22,45.89a3.82,3.82,0,0,1-2.45,5S65.5,48.56,70.22,45.89Z"/><path class="cls-11" d="M35.34,85.7A5.08,5.08,0,0,1,31,91.78S28.59,88.17,35.34,85.7Z"/><path class="cls-11" d="M122.11,51.91a3.59,3.59,0,0,1-3,4.3S117.34,53.66,122.11,51.91Z"/><path class="cls-11" d="M25.31,61.67a3.59,3.59,0,0,1-3,4.3S20.54,63.42,25.31,61.67Z"/><path class="cls-11" d="M40.42,30.85a3.59,3.59,0,0,1-3,4.29S35.65,32.59,40.42,30.85Z"/><path class="cls-12" d="M67.59,107.77c-1.33-4.65-5.4-8-8.78-11.44a50.59,50.59,0,0,1-7.21-9.45c-1.09-1.84-1.9-4.56-.17-5.82s4,.28,4.91,2.09,1.1,4,2.27,5.62,4.1,2.31,5,.52a3.81,3.81,0,0,0,.3-1.83c-.11-4-1.59-7.88-1.34-11.85s3.28-8.33,7.23-7.8a36,36,0,0,0,10.48,35.91c1.33,1.19,3.27,2.33,4.8,1.4a4.15,4.15,0,0,0,1.37-1.72,20.45,20.45,0,0,0,1.68-13.88c-1-4.24-3.36-8.16-3.72-12.51s2.57-9.53,6.92-9.16A46.22,46.22,0,0,0,92,80.6a2.7,2.7,0,0,0,.93,1.87c1.26.82,2.72-.71,3.41-2A63.18,63.18,0,0,0,102,64.29,9.94,9.94,0,0,0,106.5,66c-.23,8-6.19,14.58-8.75,22.16-1.66,4.91-1.86,10.17-2.42,15.32-1.36,12.66-4.24,24.69-4.5,37.42-.4,19.59-1.41,19.62-.16,39.54.24,0,.13.11.13.11s-.18,4.48,7,5.69-10.21,2-10.21,2,1.72.51,1.16.82-11.38,1.2-17.11.52-11.7-.21-11.17-1.36,3.59-.75,5.51-4.1c0-.19,0-.41-.07-.65-2.31-29.26-.75-38.44,1.93-67.67a23.27,23.27,0,0,0-.16-7.77C67.64,108,67.62,107.87,67.59,107.77Z"/><path class="cls-13" d="M121.43,67.54a6.23,6.23,0,1,1-5.65,11.11,2.76,2.76,0,1,1-5,2,3.51,3.51,0,0,1-3.42,4,3.57,3.57,0,0,1-3.18-4.23c-.48,2.44-4.07,3.16-6,1.6s-2.38-4.39-2-6.84A5.4,5.4,0,0,1,88.68,74a6.33,6.33,0,0,1,.71-7.77,7.71,7.71,0,0,1,7.81-1.83,6.78,6.78,0,1,1,13-3.43,3,3,0,0,1,5.46,2.42c.55-1.24,1.27-2.62,2.59-2.92a2.75,2.75,0,0,1,2.82,1.35,5,5,0,0,1,.54,3.22,8.56,8.56,0,0,1-.83,2.76"/><path class="cls-14" d="M80.83,60.31A6.7,6.7,0,1,1,79.15,73.6a3,3,0,1,1-4.37,3.91,3.77,3.77,0,0,1-2,5.3A3.85,3.85,0,0,1,68,79.68c.41,2.65-3,4.68-5.5,3.8s-4-3.57-4.49-6.2a5.81,5.81,0,0,1-8,1.49A6.82,6.82,0,0,1,48,70.64,8.29,8.29,0,0,1,55.19,66a7.28,7.28,0,1,1,11.89-8.19,3.21,3.21,0,0,1,6.4.48c.11-1.45.34-3.12,1.56-3.9a3,3,0,0,1,3.34.34,5.37,5.37,0,0,1,1.72,3.07,9.17,9.17,0,0,1,.16,3.09"/><path class="cls-15" d="M79.28,128.61s2.25,24,.91,29.58S79.3,137.39,79.28,128.61Z"/><path class="cls-16" d="M73.33,113.57s1.2,26.36.52,20.69A104.52,104.52,0,0,1,73.33,113.57Z"/><path class="cls-16" d="M92.76,106a37.92,37.92,0,0,0-1.89,3.82c-.43,1.18-3.66,19.68-3.66,19.68s2.67-19.4,2.4-19.89S92.76,106,92.76,106Z"/><path class="cls-11" d="M73.69,69.86a2.89,2.89,0,0,1-1.86,3.82S70.12,71.88,73.69,69.86Z"/></g></g></svg>