<svg width="358" height="143" viewBox="0 0 358 143" fill="none" xmlns="http://www.w3.org/2000/svg">
<path d="M42.9128 69.8628L19.6279 106.601L48.6047 127.816H96.2093L116.39 110.223H233.849L264.895 123.677H277.831L305.773 128.851L338.372 106.601L333.715 69.8628L272.657 61.5837L254.547 93.6651L133.465 89.0082L116.39 69.8628H42.9128Z" fill="#2D2D2D" stroke="#2D2D2D" stroke-width="2" stroke-linecap="round" stroke-linejoin="round"/>
<path d="M143.137 28.989C142.945 26.8765 144.608 25.0552 146.729 25.0552V25.0552C148.595 25.0552 150.153 26.4778 150.321 28.3358L151.058 36.4389H143.814L143.137 28.989Z" fill="#C4C4C4"/>
<path d="M143.814 36.4388H151.058L159.337 48.8574H144.849L143.814 36.4388Z" fill="#C4C4C4"/>
<path d="M66.6063 142.087C83.9785 142.087 98.0615 128.004 98.0615 110.632C98.0615 93.2597 83.9785 79.1768 66.6063 79.1768C49.2341 79.1768 35.1512 93.2597 35.1512 110.632C35.1512 128.004 49.2341 142.087 66.6063 142.087Z" fill="black"/>
<path d="M66.6063 135.535C80.1929 135.535 91.2069 124.521 91.2069 110.935C91.2069 97.3481 80.1929 86.334 66.6063 86.334C53.0198 86.334 42.0057 97.3481 42.0057 110.935C42.0057 124.521 53.0198 135.535 66.6063 135.535Z" fill="#353535" stroke="#EAEAEA" stroke-width="3" stroke-miterlimit="10"/>
<path d="M70.6718 111.114H62.3329L63.2783 85.483H69.7263L70.6718 111.114Z" fill="#EAEAEA"/>
<path d="M67.6085 106.897L65.0274 114.83L40.9468 106.009L42.9417 99.8727L67.6085 106.897Z" fill="#EAEAEA"/>
<path d="M62.6448 108.514L69.3953 113.412L53.5685 133.588L48.3496 129.796L62.6448 108.514Z" fill="#EAEAEA"/>
<path d="M62.6449 113.724L69.3954 108.817L83.7001 130.108L78.4812 133.899L62.6449 113.724Z" fill="#EAEAEA"/>
<path d="M67.6084 115.331L65.0273 107.398L89.6942 100.383L91.6891 106.51L67.6084 115.331Z" fill="#EAEAEA"/>
<path d="M66.6063 116.73C69.708 116.73 72.2223 114.216 72.2223 111.114C72.2223 108.013 69.708 105.498 66.6063 105.498C63.5047 105.498 60.9904 108.013 60.9904 111.114C60.9904 114.216 63.5047 116.73 66.6063 116.73Z" fill="#CCCCCC"/>
<path d="M66.6063 117.335C65.3759 117.335 64.1731 116.97 63.1501 116.287C62.127 115.603 61.3297 114.631 60.8588 113.495C60.388 112.358 60.2647 111.107 60.5048 109.9C60.7448 108.694 61.3373 107.585 62.2074 106.715C63.0774 105.845 64.1859 105.253 65.3927 105.012C66.5994 104.772 67.8503 104.896 68.987 105.366C70.1238 105.837 71.0954 106.635 71.779 107.658C72.4625 108.681 72.8274 109.884 72.8274 111.114C72.8249 112.763 72.1687 114.344 71.0025 115.51C69.8364 116.676 68.2555 117.333 66.6063 117.335ZM66.6063 106.103C65.6153 106.103 64.6465 106.397 63.8224 106.948C62.9984 107.498 62.3561 108.281 61.9769 109.196C61.5976 110.112 61.4984 111.12 61.6917 112.092C61.8851 113.064 62.3623 113.956 63.0631 114.657C63.7639 115.358 64.6567 115.835 65.6287 116.029C66.6008 116.222 67.6083 116.123 68.5239 115.743C69.4395 115.364 70.2221 114.722 70.7727 113.898C71.3233 113.074 71.6172 112.105 71.6172 111.114C71.6147 109.786 71.086 108.513 70.1468 107.574C69.2076 106.634 67.9345 106.106 66.6063 106.103V106.103Z" fill="#3F3F3F"/>
<path d="M299.455 142.087C316.827 142.087 330.91 128.004 330.91 110.632C330.91 93.2597 316.827 79.1768 299.455 79.1768C282.083 79.1768 268 93.2597 268 110.632C268 128.004 282.083 142.087 299.455 142.087Z" fill="black"/>
<path d="M299.455 135.535C313.042 135.535 324.056 124.521 324.056 110.935C324.056 97.3481 313.042 86.334 299.455 86.334C285.869 86.334 274.855 97.3481 274.855 110.935C274.855 124.521 285.869 135.535 299.455 135.535Z" fill="#353535" stroke="#EAEAEA" stroke-width="3" stroke-miterlimit="10"/>
<path d="M303.521 111.114H295.182L296.127 85.483H302.575L303.521 111.114Z" fill="#EAEAEA"/>
<path d="M300.457 106.897L297.876 114.83L273.796 106.009L275.791 99.8727L300.457 106.897Z" fill="#EAEAEA"/>
<path d="M295.494 108.514L302.244 113.412L286.417 133.588L281.198 129.796L295.494 108.514Z" fill="#EAEAEA"/>
<path d="M295.494 113.724L302.244 108.817L316.549 130.108L311.33 133.899L295.494 113.724Z" fill="#EAEAEA"/>
<path d="M300.457 115.331L297.876 107.398L322.543 100.383L324.538 106.51L300.457 115.331Z" fill="#EAEAEA"/>
<path d="M299.455 116.73C302.557 116.73 305.071 114.216 305.071 111.114C305.071 108.013 302.557 105.498 299.455 105.498C296.354 105.498 293.839 108.013 293.839 111.114C293.839 114.216 296.354 116.73 299.455 116.73Z" fill="#CCCCCC"/>
<path d="M299.455 117.335C298.225 117.335 297.022 116.97 295.999 116.287C294.976 115.603 294.178 114.631 293.708 113.495C293.237 112.358 293.114 111.107 293.354 109.9C293.594 108.694 294.186 107.585 295.056 106.715C295.926 105.845 297.035 105.253 298.241 105.012C299.448 104.772 300.699 104.896 301.836 105.366C302.973 105.837 303.944 106.635 304.628 107.658C305.311 108.681 305.676 109.884 305.676 111.114C305.674 112.763 305.017 114.344 303.851 115.51C302.685 116.676 301.104 117.333 299.455 117.335ZM299.455 106.103C298.464 106.103 297.495 106.397 296.671 106.948C295.847 107.498 295.205 108.281 294.826 109.196C294.446 110.112 294.347 111.12 294.541 112.092C294.734 113.064 295.211 113.956 295.912 114.657C296.613 115.358 297.506 115.835 298.478 116.029C299.45 116.222 300.457 116.123 301.373 115.743C302.288 115.364 303.071 114.722 303.622 113.898C304.172 113.074 304.466 112.105 304.466 111.114C304.464 109.786 303.935 108.513 302.996 107.574C302.056 106.634 300.783 106.106 299.455 106.103V106.103Z" fill="#3F3F3F"/>
<path d="M253.512 42.9558C245.405 35.5391 225.156 18.843 209.012 11.3918L196.593 12.4267L244.198 54.857L253.512 42.9558Z" fill="black" fill-opacity="0.22"/>
<path d="M251.959 41.9209L245.233 50.2L346.651 62.6186L344.581 56.4093C311.512 48.5662 287.937 44.3525 251.959 41.9209Z" fill="#F9C200" stroke="black" stroke-width="2"/>
<path d="M93.1047 19.3633C86.3779 20.3981 78.6163 28.1598 64.6454 40.5784L56.8837 31.7819L80.6861 10.0493L189 7L204 20.5C194.341 19.8101 98.486 18.5354 93.1047 19.3633Z" fill="black" fill-opacity="0.13"/>
<path fill-rule="evenodd" clip-rule="evenodd" d="M74.243 8.14895L15.4884 49.6824L7.20929 69.3452V82.2812L12.9012 110.223H26.8721C28.4244 86.4208 49.6395 73.1773 67.2325 73.1773C86.3779 73.1773 105.523 89.5254 105.523 119.02H261.791C260.756 99.0493 270.07 74.2121 298.012 72.6598C315.087 71.7112 327.506 80.4214 332.163 86.4208H347.169C348.203 79.0041 349.652 63.8603 347.169 62.6184C344.064 61.0661 321.814 56.4091 298.012 53.3045C278.97 50.8208 254.891 49.8549 245.233 49.6824L220.137 28.4673L202.285 13.9788C203.455 13.7211 204.642 13.5532 205.689 13.4051C210.649 12.7034 212.469 12.4459 194.523 5.18254C184.011 0.0961323 92.7835 2.41067 76.9551 6.75952C75.9587 7.03327 75.0868 7.55249 74.243 8.14895ZM176.843 12.944H138.64L137.605 46.0603H227.64L194.469 19.1875C189.482 15.1481 183.26 12.944 176.843 12.944ZM128.808 12.944L128.291 46.0603L75.4528 44.606C73.1483 44.5426 70.9365 43.6849 69.1917 42.178L62.1588 36.1041C61.2704 35.3368 61.2272 33.9759 62.0692 33.1579C68.2702 27.134 78.5774 17.1552 82.7558 14.4963C86.328 12.2231 104.994 12.5612 118.87 12.8125C122.681 12.8815 126.132 12.944 128.808 12.944Z" fill="#F9C200"/>
<path d="M15.4884 49.6824L14.6225 48.4575C14.3936 48.6193 14.2147 48.842 14.1059 49.1003L15.4884 49.6824ZM74.243 8.14895L75.1088 9.37381L75.1089 9.37381L74.243 8.14895ZM7.20929 69.3452L5.82684 68.7631C5.74925 68.9474 5.70929 69.1453 5.70929 69.3452H7.20929ZM7.20929 82.2812H5.70929C5.70929 82.3818 5.7194 82.4821 5.73947 82.5806L7.20929 82.2812ZM12.9012 110.223L11.4313 110.523C11.5737 111.221 12.1881 111.723 12.9012 111.723V110.223ZM26.8721 110.223V111.723C27.6626 111.723 28.3175 111.11 28.3689 110.321L26.8721 110.223ZM105.523 119.02H104.023C104.023 119.848 104.695 120.52 105.523 120.52V119.02ZM261.791 119.02V120.52C262.202 120.52 262.595 120.351 262.878 120.052C263.162 119.754 263.31 119.353 263.289 118.942L261.791 119.02ZM298.012 72.6598L298.095 74.1575L298.095 74.1575L298.012 72.6598ZM332.163 86.4208L330.978 87.3406C331.262 87.7066 331.699 87.9208 332.163 87.9208V86.4208ZM347.169 86.4208V87.9208C347.917 87.9208 348.551 87.3692 348.654 86.6281L347.169 86.4208ZM347.169 62.6184L346.498 63.9601L346.498 63.9601L347.169 62.6184ZM298.012 53.3045L297.818 54.7919L297.818 54.7919L298.012 53.3045ZM245.233 49.6824L244.264 50.8279C244.528 51.0509 244.86 51.176 245.206 51.1822L245.233 49.6824ZM220.137 28.4673L221.105 27.3218C221.097 27.3153 221.09 27.3089 221.082 27.3026L220.137 28.4673ZM202.285 13.9788L201.962 12.5139C201.4 12.6378 200.958 13.0727 200.825 13.6332C200.693 14.1936 200.892 14.7806 201.34 15.1435L202.285 13.9788ZM205.689 13.4051L205.478 11.9199L205.478 11.9199L205.689 13.4051ZM194.523 5.18254L193.87 6.53279C193.9 6.54717 193.93 6.56057 193.96 6.57296L194.523 5.18254ZM76.9551 6.75952L77.3525 8.20592L77.3525 8.20592L76.9551 6.75952ZM138.64 12.944V11.444C137.829 11.444 137.166 12.0873 137.14 12.8971L138.64 12.944ZM137.605 46.0603L136.105 46.0134C136.093 46.4192 136.245 46.8127 136.528 47.1042C136.81 47.3957 137.199 47.5603 137.605 47.5603V46.0603ZM227.64 46.0603V47.5603C228.275 47.5603 228.841 47.16 229.053 46.5611C229.266 45.9622 229.077 45.2947 228.584 44.8947L227.64 46.0603ZM194.469 19.1875L193.524 20.3531L193.524 20.3531L194.469 19.1875ZM128.291 46.0603L128.249 47.5597C128.65 47.5707 129.039 47.4209 129.328 47.1436C129.618 46.8662 129.784 46.4846 129.791 46.0837L128.291 46.0603ZM128.808 12.944L130.308 12.9674C130.314 12.5656 130.159 12.178 129.877 11.8916C129.595 11.6053 129.21 11.444 128.808 11.444V12.944ZM75.4528 44.606L75.4116 46.1054L75.4116 46.1054L75.4528 44.606ZM69.1917 42.178L70.1722 41.0428L70.1722 41.0428L69.1917 42.178ZM62.1588 36.1041L61.1784 37.2394L61.1784 37.2394L62.1588 36.1041ZM62.0692 33.1579L63.1144 34.2339L63.1144 34.2339L62.0692 33.1579ZM82.7558 14.4963L83.5611 15.7618L83.5611 15.7618L82.7558 14.4963ZM118.87 12.8125L118.842 14.3122L118.842 14.3122L118.87 12.8125ZM16.3542 50.9073L75.1088 9.37381L73.3771 6.92408L14.6225 48.4575L16.3542 50.9073ZM8.59174 69.9273L16.8708 50.2645L14.1059 49.1003L5.82684 68.7631L8.59174 69.9273ZM8.70929 82.2812V69.3452H5.70929V82.2812H8.70929ZM14.371 109.924L8.6791 81.9818L5.73947 82.5806L11.4313 110.523L14.371 109.924ZM26.8721 108.723H12.9012V111.723H26.8721V108.723ZM67.2325 71.6773C49.0419 71.6773 26.9907 85.3552 25.3753 110.125L28.3689 110.321C29.8581 87.4863 50.2371 74.6773 67.2325 74.6773V71.6773ZM107.023 119.02C107.023 88.8116 87.3164 71.6773 67.2325 71.6773V74.6773C85.4394 74.6773 104.023 90.2393 104.023 119.02H107.023ZM261.791 117.52H105.523V120.52H261.791V117.52ZM297.928 71.1621C283.454 71.9662 273.711 78.8376 267.771 88.1248C261.872 97.3493 259.763 108.881 260.293 119.097L263.289 118.942C262.783 109.188 264.814 98.3159 270.299 89.7412C275.743 81.2291 284.627 74.9057 298.095 74.1575L297.928 71.1621ZM333.348 85.501C328.42 79.1525 315.544 70.1835 297.928 71.1621L298.095 74.1575C314.63 73.2389 326.592 81.6904 330.978 87.3406L333.348 85.501ZM347.169 84.9208H332.163V87.9208H347.169V84.9208ZM346.498 63.9601C346.268 63.8452 346.347 63.7393 346.512 64.1993C346.653 64.592 346.779 65.1861 346.872 65.9904C347.056 67.5876 347.079 69.7398 346.989 72.1483C346.811 76.9486 346.196 82.5348 345.683 86.2135L348.654 86.6281C349.176 82.8901 349.803 77.196 349.987 72.2598C350.079 69.8001 350.062 67.4699 349.852 65.6466C349.748 64.7407 349.588 63.8899 349.336 63.1878C349.109 62.5529 348.69 61.7021 347.839 61.2768L346.498 63.9601ZM297.818 54.7919C309.686 56.3399 321.167 58.2751 330.064 60.0157C334.513 60.8861 338.305 61.706 341.171 62.4024C342.605 62.7508 343.796 63.0657 344.715 63.3381C345.665 63.6195 346.239 63.8308 346.498 63.9601L347.839 61.2768C347.322 61.018 346.521 60.7443 345.567 60.4616C344.583 60.1701 343.34 59.8422 341.879 59.4873C338.956 58.7769 335.117 57.9474 330.64 57.0715C321.684 55.3194 310.14 53.3737 298.206 51.8171L297.818 54.7919ZM245.206 51.1822C254.841 51.3542 278.856 52.3186 297.818 54.7919L298.206 51.8171C279.084 49.3229 254.942 48.3555 245.259 48.1826L245.206 51.1822ZM219.168 29.6128L244.264 50.8279L246.201 48.5369L221.105 27.3218L219.168 29.6128ZM201.34 15.1435L219.191 29.632L221.082 27.3026L203.23 12.8141L201.34 15.1435ZM205.478 11.9199C204.439 12.0669 203.197 12.242 201.962 12.5139L202.607 15.4437C203.713 15.2002 204.844 15.0395 205.899 14.8903L205.478 11.9199ZM193.96 6.57296C198.442 8.38671 201.664 9.75326 203.904 10.7934C206.215 11.8662 207.3 12.514 207.687 12.8653C207.769 12.9395 207.742 12.9335 207.693 12.8458C207.637 12.7453 207.527 12.4843 207.593 12.1323C207.659 11.7823 207.856 11.5777 207.948 11.5005C208.03 11.4316 208.071 11.4255 208 11.454C207.857 11.5118 207.576 11.5866 207.102 11.6721C206.647 11.7544 206.107 11.831 205.478 11.9199L205.899 14.8903C206.51 14.8038 207.112 14.7189 207.635 14.6244C208.141 14.5331 208.676 14.416 209.12 14.2374C209.343 14.1477 209.621 14.0125 209.875 13.7996C210.139 13.5784 210.442 13.2152 210.541 12.6882C210.641 12.1591 210.491 11.7028 210.313 11.3848C210.143 11.0797 209.914 10.8344 209.703 10.6436C208.922 9.93485 207.408 9.11259 205.168 8.07237C202.857 6.99946 199.578 5.61006 195.086 3.79211L193.96 6.57296ZM77.3525 8.20592C81.1384 7.16575 89.6519 6.21095 100.627 5.45967C111.54 4.71262 124.731 4.1754 137.761 3.93255C150.793 3.68966 163.644 3.7416 173.882 4.17024C179.002 4.38465 183.449 4.6925 186.927 5.10132C190.485 5.51939 192.815 6.02251 193.87 6.53279L195.177 3.83229C193.603 3.07097 190.783 2.53377 187.278 2.12183C183.694 1.70064 179.164 1.3888 174.007 1.17287C163.688 0.740837 150.772 0.689518 137.705 0.93307C124.635 1.17666 111.394 1.71558 100.422 2.46667C89.5116 3.21353 80.686 4.17886 76.5577 5.31312L77.3525 8.20592ZM75.1089 9.37381C75.9001 8.81448 76.6045 8.41144 77.3525 8.20592L76.5577 5.31312C75.313 5.6551 74.2734 6.29051 73.3771 6.92408L75.1089 9.37381ZM138.64 14.444H176.843V11.444H138.64V14.444ZM139.104 46.1071L140.139 12.9908L137.14 12.8971L136.105 46.0134L139.104 46.1071ZM227.64 44.5603H137.605V47.5603H227.64V44.5603ZM193.524 20.3531L226.695 47.2258L228.584 44.8947L195.413 18.022L193.524 20.3531ZM176.843 14.444C182.916 14.444 188.805 16.5301 193.524 20.3531L195.413 18.022C190.159 13.7662 183.604 11.444 176.843 11.444V14.444ZM129.791 46.0837L130.308 12.9674L127.308 12.9206L126.791 46.0368L129.791 46.0837ZM75.4116 46.1054L128.249 47.5597L128.332 44.5608L75.4941 43.1066L75.4116 46.1054ZM68.2113 43.3133C70.2178 45.0461 72.7614 46.0325 75.4116 46.1054L75.4941 43.1066C73.5353 43.0527 71.6552 42.3236 70.1722 41.0428L68.2113 43.3133ZM61.1784 37.2394L68.2113 43.3133L70.1722 41.0428L63.1393 34.9689L61.1784 37.2394ZM61.024 32.082C59.5474 33.5165 59.6273 35.8998 61.1784 37.2394L63.1393 34.9689C62.9135 34.7739 62.907 34.4353 63.1144 34.2339L61.024 32.082ZM81.9505 13.2308C79.7259 14.6465 76.0027 17.9061 72.153 21.4636C68.2632 25.0581 64.1235 29.071 61.024 32.082L63.1144 34.2339C66.2159 31.2209 70.3304 27.2326 74.189 23.6669C78.0877 20.0643 81.6074 17.0051 83.5611 15.7618L81.9505 13.2308ZM118.897 11.3127C111.967 11.1872 103.798 11.039 96.9122 11.2081C93.4712 11.2927 90.3178 11.4571 87.7829 11.7487C86.5162 11.8944 85.3766 12.0749 84.4191 12.3012C83.4911 12.5205 82.612 12.8098 81.9505 13.2308L83.5611 15.7618C83.7926 15.6145 84.2783 15.4171 85.1091 15.2208C85.9103 15.0314 86.9234 14.8673 88.1258 14.729C90.5292 14.4525 93.5793 14.2909 96.9859 14.2072C103.795 14.04 111.897 14.1864 118.842 14.3122L118.897 11.3127ZM128.808 11.444C126.148 11.444 122.714 11.3818 118.897 11.3127L118.842 14.3122C122.649 14.3812 126.115 14.444 128.808 14.444V11.444Z" fill="black"/>
<path d="M351.308 99.3569L341.477 109.188H351.308V99.3569Z" fill="#C4C4C4" stroke="black" stroke-width="2" stroke-linecap="round" stroke-linejoin="round"/>
<path d="M334.75 111.468C335.267 108.191 334.647 96.6691 330.093 87.1482H352.343V99.5668L339.407 111.468H334.75Z" fill="#C4C4C4" stroke="black" stroke-width="2" stroke-linecap="round" stroke-linejoin="round"/>
<path d="M341.477 98.7418L338.372 87.358H357V98.7418H341.477Z" fill="#C4C4C4" stroke="black" stroke-width="2" stroke-linecap="round" stroke-linejoin="round"/>
<path d="M17.0779 113.531C16.9449 113.442 16.7926 113.387 16.6337 113.369L8.20929 112.433V106.049H28.9767V115.433H19.9307L17.0779 113.531Z" fill="#8F8F8F" stroke="black" stroke-width="2" stroke-linecap="round" stroke-linejoin="round"/>
<path d="M22.7325 83.8337H5.13953L11.0354 104.793C11.9202 107.939 14.6289 110.23 17.8775 110.581L28.9419 111.776C28.5279 104.738 32.7364 93.3202 36.186 88.4907H22.7325V83.8337Z" fill="#C4C4C4" stroke="black" stroke-width="2" stroke-linecap="round" stroke-linejoin="round"/>
<path d="M355.448 103.496L351.826 102.979V108.153L355.448 107.636V103.496Z" fill="#FCEE21" stroke="black" stroke-width="2" stroke-linecap="round" stroke-linejoin="round"/>
<path d="M21.1802 82.7988H1V92.6302H17.5581L21.1802 82.7988Z" fill="#C4C4C4" stroke="black" stroke-width="2" stroke-linecap="round" stroke-linejoin="round"/>
<path d="M126.221 59.5141C126.221 53.3048 129.671 49.3377 132.43 48.1304L133.465 8.80478C133.465 8.80478 173.308 6.73502 183.657 8.80478C194.006 10.8746 222.983 35.1943 238.506 49.6827C243.887 55.0641 245.75 92.4579 244.715 109.189C211.771 109.361 147.022 109.602 137.087 109.189C127.152 108.775 125.704 103.152 126.221 100.392V59.5141Z" stroke="black" stroke-width="2" stroke-linecap="round" stroke-linejoin="round"/>
<path d="M176.843 12.9442H138.639L137.605 46.0605H227.639L194.468 19.1878C189.482 15.1484 183.26 12.9442 176.843 12.9442Z" fill="black" fill-opacity="0.13" stroke="black" stroke-width="2" stroke-linecap="round" stroke-linejoin="round"/>
<path d="M128.291 46.0604V12.9442C115.872 12.9442 88.3442 11.0813 83.7907 13.979C79.6088 16.6402 68.415 27.0698 62.0732 33.1634C61.2267 33.9767 61.2704 35.337 62.1588 36.1043L69.1917 42.1782C70.9365 43.685 73.1483 44.5427 75.4528 44.6061L128.291 46.0604Z" fill="black" fill-opacity="0.13" stroke="black" stroke-width="2" stroke-linecap="round" stroke-linejoin="round"/>
<path d="M96.7267 89.5255H269.552" stroke="black" stroke-width="2"/>
<path d="M14.971 49.6825H25.3198L22.6808 55.8918L19.6021 63.136L16.5233 70.3802L6.17444 69.3453L12.1931 55.8918L14.971 49.6825Z" fill="#FF400D"/>
<path d="M22.6808 55.8918L25.3198 49.6825H14.971L12.1931 55.8918M22.6808 55.8918H12.1931M22.6808 55.8918L19.6021 63.136M12.1931 55.8918L6.17444 69.3453L16.5233 70.3802L19.6021 63.136M19.6021 63.136H9.79653" stroke="#D8D8D8" stroke-width="2.2" stroke-linecap="round" stroke-linejoin="round"/>
<path d="M247.5 50.7174H74.0019C71.3079 50.7174 68.7075 49.7287 66.6939 47.9389L57.4342 39.708C56.5741 38.9435 56.535 37.6126 57.3487 36.7989L62.5 32.5" stroke="black" stroke-width="2"/>
</svg>
