<?xml version="1.0" encoding="utf-8"?>
<!-- Generator: Adobe Illustrator 24.1.0, SVG Export Plug-In . SVG Version: 6.00 Build 0)  -->
<svg version="1.1" id="图层_1" xmlns="http://www.w3.org/2000/svg" xmlns:xlink="http://www.w3.org/1999/xlink" x="0px" y="0px"
	 viewBox="0 0 200 200" style="enable-background:new 0 0 200 200;" xml:space="preserve">
<style type="text/css">
	.st0{fill:#042497;}
	.st1{fill:none;stroke:#FFFFFF;stroke-width:12.6628;stroke-linecap:round;stroke-linejoin:round;stroke-miterlimit:10;}
	
		.st2{clip-path:url(#XMLID_2_);fill:none;stroke:#FFFFFF;stroke-width:12.6628;stroke-linecap:round;stroke-linejoin:round;stroke-miterlimit:10;}
	
		.st3{clip-path:url(#XMLID_4_);fill:none;stroke:#FFFFFF;stroke-width:12.6628;stroke-linecap:round;stroke-linejoin:round;stroke-miterlimit:10;}
	.st4{fill:#DEEBFF;}
	.st5{fill:#307AFF;}
	.st6{clip-path:url(#XMLID_7_);fill:#69C9FF;}
	.st7{clip-path:url(#XMLID_8_);fill:#31ACFF;}
	.st8{fill:none;stroke:#18173F;stroke-width:2.1105;stroke-linecap:round;stroke-linejoin:round;stroke-miterlimit:10;}
</style>
<rect class="st0" width="200" height="200"/>
<g>
	<g>
		<path class="st1" d="M82.06,120.38l0.53-0.94c0.83,0.45,1.66,0.92,2.51,1.38l-0.11,0.2c-6.2,2.16-11.99,5.57-17.77,8.97v-0.01
			c-0.11-0.99-3.6-6.09-4.84-7.61l-0.17-0.24c1.15-0.76,2.05-1.3,2.59-1.51C69.14,118.89,77.08,118.46,82.06,120.38z"/>
		<path class="st1" d="M62.38,122.38c1.24,1.51,4.73,6.62,4.84,7.61v0.01c-6.17,3.62-12.31,7.25-18.93,9.34
			c-3.51,0.17-5.27-1.23-5.79-3.27l2.69-0.44c1.23-1.6,11.69-9.93,17.03-13.49L62.38,122.38z"/>
		<path class="st1" d="M82.59,119.43L82.59,119.43l-0.53,0.95c-4.97-1.92-12.92-1.49-17.25,0.25c-0.54,0.21-1.44,0.75-2.59,1.51
			c-5.34,3.56-15.8,11.89-17.03,13.49l-2.69,0.44c-0.52-2.06,0.23-4.76,1.75-7.1c3.92-6.19,12.09-20.31,14.31-23.56
			C61.32,107.11,70.54,112.76,82.59,119.43z"/>
		<path class="st1" d="M174.39,68.89l1.76-0.15c-1.06,6.34-8.91,15.12-21.11,22.94c0.42-0.27-9.54-10.11-10.99-11.16l-0.72-1.38
			C155.79,72.5,171.94,64.95,174.39,68.89z"/>
		<path class="st1" d="M144.05,80.52c1.45,1.05,11.42,11.81,10.99,12.08c-7.22,4.63-17.11,7.38-26.26,12.24l-0.35-0.65
			c-0.12-2.74-5.09-13.56,0.89-17.15c2.05-1.23,7.52-4.44,14-7.89L144.05,80.52z"/>
		<g>
			<defs>
				<path id="XMLID_6_" d="M175.24,63.23c1.04,1.67,1.24,3.65,0.92,5.51l-1.76,0.15c-4.66-0.15-18.6,3.62-31.06,10.26
					c-6.48,3.45-11.96,6.66-14,7.89c-5.98,3.59-1.01,14.41-0.89,17.15l0.35,0.65c-1.26,0.67-2.53,1.35-3.82,2.02
					c-21.64,5.91-30.73-10.34-32.04-12.87c-3.13-6.01,0.72-10.41,12.13-15.21c2.28-0.65,4.68-1.56,7.25-2.76
					c0.61-0.28,1.23-0.58,1.86-0.9C157.6,57.9,171.83,57.75,175.24,63.23z"/>
			</defs>
			<clipPath id="XMLID_2_">
				<use xlink:href="#XMLID_6_"  style="overflow:visible;"/>
			</clipPath>
			<path class="st2" d="M98.34,104.02c-17.66-21.31,59.68-43.74,77.34-35.47c17.46,8.18,12.64,0,5.02-9.13
				c-7.61-9.13-76.58,1.07-87.08,17.36S98.34,104.02,98.34,104.02z"/>
			
				<use xlink:href="#XMLID_6_"  style="overflow:visible;fill:none;stroke:#FFFFFF;stroke-width:12.6628;stroke-linecap:round;stroke-linejoin:round;stroke-miterlimit:10;"/>
		</g>
		<g>
			<defs>
				<path id="XMLID_5_" d="M46.49,62.87c0.44-2.79-2.89-3.07-5.72-1.54C39.45,62.05,46.06,65.66,46.49,62.87z M37.54,57.17
					c8.14,2.06,15.01,1.78,19.95,4.55c19.39,10.89,29.13,22.36,47.56,17.06c-11.42,4.8-15.26,9.19-12.13,15.21
					c1.31,2.53,10.41,18.78,32.04,12.87c1.33-0.7,17.71,14.11,22,15.42c14.14,3.48,34.79-15.52,42.04,1.84
					c-0.53,3.99-18.34,19.23-22.75,22.46c-12.41,9.08-53.27-10.46-81.16-25.77c-0.84-0.46-1.68-0.93-2.51-1.38v-0.01
					c-12.05-6.67-21.27-12.31-24.03-14.02c-9.16-5.65-35.73-21.47-43.02-43.44C13.75,52.84,23.82,53.69,37.54,57.17z M132.73,120.71
					c0.06-0.38-0.39-0.42-0.79-0.21C131.76,120.6,132.67,121.1,132.73,120.71z M126.44,115.46c0.17-1.1-1.14-1.21-2.26-0.61
					C123.67,115.14,126.28,116.56,126.44,115.46z M80.53,85.85c0.72-2.11-1.83-2.78-4.23-1.97C75.17,84.27,79.83,87.96,80.53,85.85z
					 M68.97,78.37c0.41-2.66-2.77-2.95-5.47-1.47C62.24,77.59,68.56,81.04,68.97,78.37z M58.23,71.01c0.5-3.18-3.29-3.51-6.52-1.75
					C50.2,70.09,57.75,74.2,58.23,71.01z"/>
			</defs>
			<clipPath id="XMLID_4_">
				<use xlink:href="#XMLID_5_"  style="overflow:visible;"/>
			</clipPath>
			<path class="st3" d="M31.16,47.63c-10.09,6.42-7.78,28.74,33.95,54.14c42.21,25.69,87.18,44.97,103.69,32.12
				s28.45-24.78,28.45-16.52s-33.04,60.57-58.73,42.21S-25.73,77.92,1.8,56.81S41.26,41.21,31.16,47.63z"/>
			
				<use xlink:href="#XMLID_5_"  style="overflow:visible;fill:none;stroke:#FFFFFF;stroke-width:12.6628;stroke-linecap:round;stroke-linejoin:round;stroke-miterlimit:10;"/>
		</g>
	</g>
	<g>
		<path class="st4" d="M82.06,120.38l0.53-0.94c0.83,0.45,1.66,0.92,2.51,1.38l-0.11,0.2c-6.2,2.16-11.99,5.57-17.77,8.97v-0.01
			c-0.11-0.99-3.6-6.09-4.84-7.61l-0.17-0.24c1.15-0.76,2.05-1.3,2.59-1.51C69.14,118.89,77.08,118.46,82.06,120.38z"/>
		<path class="st4" d="M62.38,122.38c1.24,1.51,4.73,6.62,4.84,7.61v0.01c-6.17,3.62-12.31,7.25-18.93,9.34
			c-3.51,0.17-5.27-1.23-5.79-3.27l2.69-0.44c1.23-1.6,11.69-9.93,17.03-13.49L62.38,122.38z"/>
		<path class="st5" d="M82.59,119.43L82.59,119.43l-0.53,0.95c-4.97-1.92-12.92-1.49-17.25,0.25c-0.54,0.21-1.44,0.75-2.59,1.51
			c-5.34,3.56-15.8,11.89-17.03,13.49l-2.69,0.44c-0.52-2.06,0.23-4.76,1.75-7.1c3.92-6.19,12.09-20.31,14.31-23.56
			C61.32,107.11,70.54,112.76,82.59,119.43z"/>
		<path class="st4" d="M174.39,68.89l1.76-0.15c-1.06,6.34-8.91,15.12-21.11,22.94c0.42-0.27-9.54-10.11-10.99-11.16l-0.72-1.38
			C155.79,72.5,171.94,64.95,174.39,68.89z"/>
		<path class="st4" d="M144.05,80.52c1.45,1.05,11.42,11.81,10.99,12.08c-7.22,4.63-17.11,7.38-26.26,12.24l-0.35-0.65
			c-0.12-2.74-5.09-13.56,0.89-17.15c2.05-1.23,7.52-4.44,14-7.89L144.05,80.52z"/>
		<g>
			<defs>
				<path id="XMLID_161_" d="M175.24,63.23c1.04,1.67,1.24,3.65,0.92,5.51l-1.76,0.15c-4.66-0.15-18.6,3.62-31.06,10.26
					c-6.48,3.45-11.96,6.66-14,7.89c-5.98,3.59-1.01,14.41-0.89,17.15l0.35,0.65c-1.26,0.67-2.53,1.35-3.82,2.02
					c-21.64,5.91-30.73-10.34-32.04-12.87c-3.13-6.01,0.72-10.41,12.13-15.21c2.28-0.65,4.68-1.56,7.25-2.76
					c0.61-0.28,1.23-0.58,1.86-0.9C157.6,57.9,171.83,57.75,175.24,63.23z"/>
			</defs>
			<use xlink:href="#XMLID_161_"  style="overflow:visible;fill:#31ACFF;"/>
			<clipPath id="XMLID_7_">
				<use xlink:href="#XMLID_161_"  style="overflow:visible;"/>
			</clipPath>
			<path class="st6" d="M98.34,104.02c-17.66-21.31,59.68-43.74,77.34-35.47c17.46,8.18,12.64,0,5.02-9.13
				c-7.61-9.13-76.58,1.07-87.08,17.36S98.34,104.02,98.34,104.02z"/>
		</g>
		<g>
			<defs>
				<path id="XMLID_159_" d="M46.49,62.87c0.44-2.79-2.89-3.07-5.72-1.54C39.45,62.05,46.06,65.66,46.49,62.87z M37.54,57.17
					c8.14,2.06,15.01,1.78,19.95,4.55c19.39,10.89,29.13,22.36,47.56,17.06c-11.42,4.8-15.26,9.19-12.13,15.21
					c1.31,2.53,10.41,18.78,32.04,12.87c1.33-0.7,17.71,14.11,22,15.42c14.14,3.48,34.79-15.52,42.04,1.84
					c-0.53,3.99-18.34,19.23-22.75,22.46c-12.41,9.08-53.27-10.46-81.16-25.77c-0.84-0.46-1.68-0.93-2.51-1.38v-0.01
					c-12.05-6.67-21.27-12.31-24.03-14.02c-9.16-5.65-35.73-21.47-43.02-43.44C13.75,52.84,23.82,53.69,37.54,57.17z M132.73,120.71
					c0.06-0.38-0.39-0.42-0.79-0.21C131.76,120.6,132.67,121.1,132.73,120.71z M126.44,115.46c0.17-1.1-1.14-1.21-2.26-0.61
					C123.67,115.14,126.28,116.56,126.44,115.46z M80.53,85.85c0.72-2.11-1.83-2.78-4.23-1.97C75.17,84.27,79.83,87.96,80.53,85.85z
					 M68.97,78.37c0.41-2.66-2.77-2.95-5.47-1.47C62.24,77.59,68.56,81.04,68.97,78.37z M58.23,71.01c0.5-3.18-3.29-3.51-6.52-1.75
					C50.2,70.09,57.75,74.2,58.23,71.01z"/>
			</defs>
			<use xlink:href="#XMLID_159_"  style="overflow:visible;fill:#D4F0FF;"/>
			<clipPath id="XMLID_8_">
				<use xlink:href="#XMLID_159_"  style="overflow:visible;"/>
			</clipPath>
			<path class="st7" d="M31.16,47.63c-10.09,6.42-7.78,28.74,33.95,54.14c42.21,25.69,87.18,44.97,103.69,32.12
				s28.45-24.78,28.45-16.52s-33.04,60.57-58.73,42.21S-25.73,77.92,1.8,56.81S41.26,41.21,31.16,47.63z"/>
		</g>
	</g>
	<g>
		<g id="XMLID_3_">
			<g>
				<path class="st8" d="M105.06,78.78c-18.44,5.3-28.18-6.17-47.57-17.06c-4.93-2.78-11.81-2.49-19.95-4.55
					c-13.72-3.48-23.8-4.33-22,4.79c7.29,21.97,33.86,37.79,43.01,43.44c2.77,1.71,11.97,7.35,24.03,14.02
					c0,0.01,0.01,0.01,0.01,0.01v0.01c0.82,0.45,1.65,0.92,2.51,1.38c27.88,15.3,68.75,34.85,81.15,25.76
					c4.41-3.23,22.22-18.47,22.75-22.46c-7.24-17.35-27.89,1.64-42.03-1.84c-4.29-1.3-17.16-12.7-19.9-15.45"/>
				<path class="st8" d="M58.55,105.4c-2.21,3.25-10.38,17.37-14.3,23.56c-1.52,2.34-2.28,5.04-1.75,7.1
					c0.51,2.05,2.28,3.45,5.79,3.27c6.61-2.09,12.76-5.72,18.93-9.34c5.77-3.4,11.57-6.82,17.76-8.97"/>
				<path class="st8" d="M51.71,69.26c3.23-1.75,7.01-1.42,6.52,1.75C57.74,74.2,50.2,70.09,51.71,69.26z"/>
				<path class="st8" d="M40.77,61.33c2.82-1.53,6.16-1.25,5.71,1.54C46.06,65.66,39.45,62.05,40.77,61.33z"/>
				<path class="st8" d="M63.5,76.91c2.7-1.48,5.89-1.19,5.47,1.47S62.24,77.6,63.5,76.91z"/>
				<path class="st8" d="M76.3,83.88c2.41-0.81,4.95-0.14,4.23,1.97C79.82,87.96,75.17,84.26,76.3,83.88z"/>
				<path class="st8" d="M124.18,114.85c1.12-0.6,2.43-0.49,2.25,0.61C126.27,116.55,123.67,115.13,124.18,114.85z"/>
				<path class="st8" d="M131.94,120.5c0.39-0.21,0.84-0.16,0.79,0.21C132.67,121.11,131.76,120.6,131.94,120.5z"/>
				<path class="st8" d="M128.43,104.19c-0.12-2.75-5.09-13.57,0.9-17.15c2-1.21,7.3-4.31,13.6-7.69c0.13-0.07,0.26-0.14,0.39-0.21
					c12.46-6.64,25.94-10.87,33.29-9.95"/>
				<path class="st8" d="M143.03,79.54c0.02,0.01,0.08,0.04,0.11,0.07c1.44,1.05,10.49,10.46,10.54,11.62"/>
				<path class="st8" d="M45.18,135.63c1.24-1.6,11.7-9.92,17.04-13.49c1.15-0.76,2.05-1.3,2.58-1.51
					c4.33-1.74,12.28-2.17,17.26-0.25"/>
				<path class="st8" d="M62.38,122.37c1.24,1.51,4.73,6.62,4.84,7.6"/>
				<path class="st8" d="M105.06,78.78c-11.42,4.79-15.26,9.19-12.14,15.2c1.31,2.54,16.7,18.35,32.04,12.88
					c0.21-0.08,0.43-0.15,0.66-0.24c0.89-0.33,1.88-0.7,2.94-1.14c6.66-2.69,16.37-7.3,25.35-12.79
					c11.53-7.07,21.86-15.6,22.98-23.46c0.36-2.55-0.25-5.03-2.12-7.38C167.44,52.68,107.33,78.12,105.06,78.78z"/>
			</g>
		</g>
	</g>
</g>
</svg>
