<?xml version="1.0" encoding="utf-8"?>
<!-- Generator: Adobe Illustrator 22.0.0, SVG Export Plug-In . SVG Version: 6.00 Build 0)  -->
<svg version="1.1" id="图层_1" xmlns="http://www.w3.org/2000/svg" xmlns:xlink="http://www.w3.org/1999/xlink" x="0px" y="0px"
	 viewBox="0 0 297.6 297.6" style="enable-background:new 0 0 297.6 297.6;" xml:space="preserve">
<style type="text/css">
	.st0{fill:#FFFFFF;}
	.st1{fill:#DCE1E4;}
	.st2{fill:#E6EAEA;}
	.st3{fill:#7B787A;}
	.st4{fill:#FEFDFE;}
	.st5{fill:#FBEEE0;}
	.st6{fill:#553328;}
	.st7{fill:#AE4F32;}
	.st8{fill:#1E5142;}
	.st9{fill:#4E9236;}
	.st10{fill:#61A74E;}
	.st11{fill:#C7E1A8;}
	.st12{fill:#88B265;}
	.st13{fill:#74726E;}
	.st14{fill:#D4DAD4;}
	.st15{opacity:0.22;}
	.st16{fill:#9B9B9B;}
	.st17{fill:#ECC042;}
	.st18{fill:#FCF0D2;}
	.st19{fill:#4D7B3A;}
	.st20{fill:none;stroke:#FFFFFE;stroke-width:2;stroke-miterlimit:10;}
	.st21{fill:#F6F7F5;}
	.st22{fill:#F1B35F;}
	.st23{fill:#F0C35D;}
	.st24{fill:#FBE6BE;}
	.st25{fill:#30180F;}
	.st26{fill:#658F55;}
	.st27{fill:#6C995B;}
	.st28{fill:#AE5132;}
	.st29{fill:#F7F7F7;}
	.st30{fill:#7A492D;}
	.st31{opacity:0.33;fill:#F7F7F7;}
	.st32{fill:#E1B769;}
	.st33{fill:#D2A347;}
	.st34{fill:#EAEAEA;}
	.st35{fill:#559862;}
	.st36{fill:#447E4F;}
	.st37{opacity:0.11;fill:#323D44;}
	.st38{fill:#ECB129;}
	.st39{fill:#E38C22;}
	.st40{fill:#D67010;}
	.st41{fill:#855676;}
	.st42{fill:#AE6995;}
	.st43{fill:#989786;}
	.st44{fill:#6A1217;}
	.st45{fill:#C32623;}
	.st46{fill:#D83633;}
	.st47{fill:#D49559;}
	.st48{fill:#B42328;}
	.st49{opacity:0.46;fill:#7E1C1E;}
	.st50{fill:#A88564;}
	.st51{fill:#8E5C27;}
	.st52{fill:#896443;}
	.st53{opacity:0.26;fill:#D8A69F;}
	.st54{fill:#E89E2A;}
	.st55{fill:#E3981A;}
	.st56{fill:#745123;}
	.st57{opacity:0.35;fill:#F2F2F2;}
	.st58{fill:#976D26;}
	.st59{opacity:0.4;fill:#D4C8AD;}
	.st60{fill:#F8EED2;}
	.st61{fill:#421D0B;}
	.st62{opacity:0.35;fill:#421D0B;}
	.st63{fill:#C94C32;}
	.st64{fill:#C95B48;}
	.st65{fill:#A09B68;}
	.st66{fill:#8F895C;}
	.st67{fill:#BA8A67;}
	.st68{fill:#E3D4B0;}
	.st69{fill:#F8E9DC;}
	.st70{fill:#BF7265;}
	.st71{fill:#8F4B43;}
	.st72{fill:#59662E;}
	.st73{fill:#878253;}
	.st74{fill:#F6B7B1;}
	.st75{fill:#D66962;}
	.st76{fill:#844F23;}
	.st77{fill:#5A3C26;}
	.st78{fill:#704520;}
	.st79{fill:#936534;}
	.st80{opacity:0.69;}
	.st81{opacity:0.13;}
	.st82{fill:#F2F2F2;}
	.st83{opacity:0.49;}
	.st84{fill:#519D4C;}
	.st85{opacity:0.18;fill:#C32623;}
	.st86{fill:#101010;}
	.st87{fill:#E6DC41;}
	.st88{fill:#D4C536;}
	.st89{fill:#A69325;}
	.st90{fill:#EDE8E7;}
</style>
<rect x="0" class="st0" width="297.6" height="297.6"/>
<circle class="st1" cx="152.4" cy="161.4" r="105.6"/>
<g>
	<circle class="st2" cx="146.9" cy="151.2" r="103.9"/>
</g>
<circle class="st13" cx="146.9" cy="151.2" r="103.9"/>
<circle class="st4" cx="146.9" cy="151.2" r="90.6"/>
<circle class="st5" cx="146.9" cy="151.2" r="85.9"/>
<g>
	
		<ellipse transform="matrix(0.9006 -0.4346 0.4346 0.9006 -59.8717 66.0938)" class="st36" cx="114.6" cy="164" rx="41.8" ry="46.8"/>
	
		<ellipse transform="matrix(0.9006 -0.4346 0.4346 0.9006 -59.8717 66.0938)" class="st36" cx="114.6" cy="164" rx="41.8" ry="46.8"/>
	
		<ellipse transform="matrix(0.9006 -0.4346 0.4346 0.9006 -59.8133 66.1668)" class="st84" cx="114.8" cy="163.9" rx="35.1" ry="46.8"/>
	
		<ellipse transform="matrix(0.9006 -0.4346 0.4346 0.9006 -59.8133 66.1668)" class="st36" cx="114.8" cy="163.9" rx="24" ry="46.8"/>
	
		<ellipse transform="matrix(0.9006 -0.4346 0.4346 0.9006 -59.8133 66.1668)" class="st84" cx="114.8" cy="163.9" rx="15" ry="46.8"/>
	
		<ellipse transform="matrix(0.9006 -0.4346 0.4346 0.9006 -59.8133 66.1668)" class="st36" cx="114.8" cy="163.9" rx="5.2" ry="46.8"/>
</g>
<g>
	<path class="st45" d="M166,147.1l30.7-47.8c0,0,32.2,13.9,25.2,64.6C171.7,149.9,166,147.1,166,147.1z"/>
	<path class="st85" d="M165,146.5l30.7-47.8c0,0,32.2,13.9,25.2,64.6C170.7,149.3,165,146.5,165,146.5z"/>
	<path class="st29" d="M196.7,99.3l-1.9,2.9c7,4.2,27.8,20.2,23.3,60.6c1.2,0.3,2.5,0.7,3.8,1.1C228.8,113.2,196.7,99.3,196.7,99.3z
		"/>
	<path class="st35" d="M196.7,99.3l-0.7,1.1c5.1,2.7,30.2,18.3,24.5,63c0.5,0.1,1,0.3,1.5,0.4C228.8,113.2,196.7,99.3,196.7,99.3z"
		/>
	
		<ellipse transform="matrix(0.5696 -0.8219 0.8219 0.5696 -40.3272 204.14)" class="st86" cx="174.8" cy="140.6" rx="2.7" ry="1.4"/>
	
		<ellipse transform="matrix(0.5696 -0.8219 0.8219 0.5696 -25.3077 206.0075)" class="st86" cx="184.1" cy="127.2" rx="2.7" ry="1.4"/>
	
		<ellipse transform="matrix(0.5696 -0.8219 0.8219 0.5696 -10.4347 207.8568)" class="st86" cx="193.3" cy="113.9" rx="2.7" ry="1.4"/>
	
		<ellipse transform="matrix(0.5696 -0.8219 0.8219 0.5696 -19.1541 215.4111)" class="st86" cx="196.1" cy="126" rx="2.7" ry="1.4"/>
	
		<ellipse transform="matrix(0.5696 -0.8219 0.8219 0.5696 -34.17 214.1319)" class="st86" cx="187.4" cy="139.7" rx="2.7" ry="1.4"/>
	
		<ellipse transform="matrix(0.5696 -0.8219 0.8219 0.5696 -26.6338 222.3518)" class="st86" cx="199" cy="136.6" rx="2.7" ry="1.4"/>
	
		<ellipse transform="matrix(0.5696 -0.8219 0.8219 0.5696 -15.9229 226.7633)" class="st86" cx="208.6" cy="128.6" rx="2.7" ry="1.4"/>
	
		<ellipse transform="matrix(0.5696 -0.8219 0.8219 0.5696 -28.4504 232.9838)" class="st86" cx="208.2" cy="143.7" rx="2.7" ry="1.4"/>
	
		<ellipse transform="matrix(0.5696 -0.8219 0.8219 0.5696 -39.0415 225.583)" class="st86" cx="195.9" cy="150.1" rx="2.7" ry="1.4"/>
	
		<ellipse transform="matrix(0.5696 -0.8219 0.8219 0.5696 -35.871 240.1423)" class="st86" cx="211.4" cy="154.3" rx="2.7" ry="1.4"/>
</g>
<g>
	<path class="st45" d="M154.5,136.6l-35.4-44.4c0,0,23.5-26,69.2-3.2C159,132.1,154.5,136.6,154.5,136.6z"/>
	<path class="st85" d="M153.6,137.3l-35.4-44.4c0,0,23.5-26,69.2-3.2C158.1,132.8,153.6,137.3,153.6,137.3z"/>
	<path class="st29" d="M119.1,92.1l2.2,2.7c6.3-5.3,28.1-19.9,64.9-2.6c0.7-1.1,1.5-2.1,2.2-3.3C142.6,66.1,119.1,92.1,119.1,92.1z"
		/>
	<path class="st35" d="M119.1,92.1l0.8,1c4.2-4,27-22.7,67.5-2.9c0.3-0.4,0.6-0.8,0.9-1.3C142.6,66.1,119.1,92.1,119.1,92.1z"/>
	
		<ellipse transform="matrix(0.8035 -0.5953 0.5953 0.8035 -45.3851 114.7708)" class="st86" cx="151.2" cy="126.1" rx="1.4" ry="2.7"/>
	
		<ellipse transform="matrix(0.8035 -0.5953 0.5953 0.8035 -39.4899 106.4144)" class="st86" cx="141.5" cy="113" rx="1.4" ry="2.7"/>
	<ellipse transform="matrix(0.8035 -0.5953 0.5953 0.8035 -33.6523 98.1394)" class="st86" cx="131.8" cy="100" rx="1.4" ry="2.7"/>
	
		<ellipse transform="matrix(0.8035 -0.5953 0.5953 0.8035 -31.9265 105.7411)" class="st86" cx="144.2" cy="101.2" rx="1.4" ry="2.7"/>
	
		<ellipse transform="matrix(0.8035 -0.5953 0.5953 0.8035 -37.4698 114.2827)" class="st86" cx="154.4" cy="113.9" rx="1.4" ry="2.7"/>
	
		<ellipse transform="matrix(0.8035 -0.5953 0.5953 0.8035 -30.1716 112.4086)" class="st86" cx="155.2" cy="101.9" rx="1.4" ry="2.7"/>
	<ellipse transform="matrix(0.8035 -0.5953 0.5953 0.8035 -24.1322 107.43)" class="st86" cx="150.7" cy="90.3" rx="1.4" ry="2.7"/>
	
		<ellipse transform="matrix(0.8035 -0.5953 0.5953 0.8035 -24.4137 116.8765)" class="st86" cx="164.8" cy="95.4" rx="1.4" ry="2.7"/>
	
		<ellipse transform="matrix(0.8035 -0.5953 0.5953 0.8035 -32.1965 120.8319)" class="st86" cx="166.9" cy="109.2" rx="1.4" ry="2.7"/>
	
		<ellipse transform="matrix(0.8035 -0.5953 0.5953 0.8035 -22.5103 123.5781)" class="st86" cx="175.9" cy="95.9" rx="1.4" ry="2.7"/>
</g>
<g>
	<path class="st45" d="M162.1,157.8l54.1,17.5c0,0-5.3,34.7-56,40.8C160.8,164,162.1,157.8,162.1,157.8z"/>
	<path class="st85" d="M162.4,156.7l54.1,17.5c0,0-5.3,34.7-56,40.8C161.1,162.9,162.4,156.7,162.4,156.7z"/>
	<path class="st29" d="M216.2,175.4l-3.3-1.1c-2.3,7.9-12.5,32.1-52.7,37.9c0,1.3,0,2.6-0.1,3.9C210.9,210,216.2,175.4,216.2,175.4z
		"/>
	<path class="st35" d="M216.2,175.4l-1.3-0.4c-1.3,5.7-10.1,33.8-54.7,39.7c0,0.5,0,1,0,1.5C210.9,210,216.2,175.4,216.2,175.4z"/>
	
		<ellipse transform="matrix(0.3424 -0.9396 0.9396 0.3424 -42.5041 268.6244)" class="st86" cx="170.6" cy="164.7" rx="1.4" ry="2.7"/>
	<ellipse transform="matrix(0.3424 -0.9396 0.9396 0.3424 -37.6719 286.699)" class="st86" cx="186" cy="170.3" rx="1.4" ry="2.7"/>
	
		<ellipse transform="matrix(0.3424 -0.9396 0.9396 0.3424 -32.8869 304.5974)" class="st86" cx="201.1" cy="175.8" rx="1.4" ry="2.7"/>
	
		<ellipse transform="matrix(0.3424 -0.9396 0.9396 0.3424 -45.5892 298.1143)" class="st86" cx="190.2" cy="181.6" rx="1.4" ry="2.7"/>
	
		<ellipse transform="matrix(0.3424 -0.9396 0.9396 0.3424 -51.0937 280.3168)" class="st86" cx="174.7" cy="176.7" rx="1.4" ry="2.7"/>
	
		<ellipse transform="matrix(0.3424 -0.9396 0.9396 0.3424 -57.013 292.7665)" class="st86" cx="180.6" cy="187.1" rx="1.4" ry="2.7"/>
	
		<ellipse transform="matrix(0.3424 -0.9396 0.9396 0.3424 -57.0955 307.0857)" class="st86" cx="190.8" cy="194.3" rx="1.4" ry="2.7"/>
	
		<ellipse transform="matrix(0.3424 -0.9396 0.9396 0.3424 -70.0374 295.6204)" class="st86" cx="176.2" cy="197.8" rx="1.4" ry="2.7"/>
	
		<ellipse transform="matrix(0.3424 -0.9396 0.9396 0.3424 -66.4745 280.051)" class="st86" cx="166.8" cy="187.5" rx="1.4" ry="2.7"/>
	
		<ellipse transform="matrix(0.3424 -0.9396 0.9396 0.3424 -81.6834 290.4415)" class="st86" cx="166.6" cy="203.6" rx="1.4" ry="2.7"/>
</g>
</svg>
