<svg id="图层_1" data-name="图层 1" xmlns="http://www.w3.org/2000/svg" xmlns:xlink="http://www.w3.org/1999/xlink" viewBox="0 0 200 200"><defs><style>.cls-1{fill:#ccb9be;}.cls-1,.cls-10,.cls-11,.cls-12,.cls-13,.cls-14,.cls-15,.cls-16,.cls-17,.cls-18,.cls-19,.cls-2,.cls-20,.cls-21,.cls-22,.cls-23,.cls-24,.cls-25,.cls-26,.cls-27,.cls-28,.cls-29,.cls-3,.cls-30,.cls-31,.cls-32,.cls-33,.cls-34,.cls-35,.cls-36,.cls-37,.cls-38,.cls-39,.cls-4,.cls-40,.cls-41,.cls-42,.cls-43,.cls-46,.cls-47,.cls-48,.cls-49,.cls-5,.cls-50,.cls-51,.cls-52,.cls-53,.cls-6,.cls-7,.cls-8,.cls-9{fill-rule:evenodd;}.cls-2{fill:#f0e7e8;}.cls-3{fill:#868082;}.cls-4{fill:#c1b8bb;}.cls-5{fill:#8d8d8d;}.cls-6{fill:#fff;}.cls-7{fill:#a39881;}.cls-8{fill:url(#linear-gradient);}.cls-9{fill:#2c2c2c;}.cls-10{fill:#d9d9d9;}.cls-11{fill:#616d77;}.cls-12{fill:#31363b;}.cls-13{fill:url(#linear-gradient-2);}.cls-15{fill:url(#linear-gradient-3);}.cls-16{fill:url(#linear-gradient-4);}.cls-17{fill:url(#linear-gradient-5);}.cls-18{fill:#f6f1ee;}.cls-19{fill:#93888c;}.cls-20{fill:#d0cac8;}.cls-21{fill:#83726a;}.cls-22{fill:#e0c9bf;}.cls-23{fill:url(#linear-gradient-6);}.cls-24{fill:url(#linear-gradient-7);}.cls-25{fill:url(#linear-gradient-8);}.cls-26{fill:url(#linear-gradient-9);}.cls-27{fill:url(#linear-gradient-10);}.cls-28{fill:url(#linear-gradient-11);}.cls-29{fill:#e5e5e5;}.cls-30{fill:#4d4d4d;}.cls-31{fill:#dbd8cd;}.cls-32{fill:#f5f1e1;}.cls-33{fill:#8a8881;}.cls-34{fill:#949494;}.cls-35{fill:#f7f7f7;}.cls-36{fill:#303030;}.cls-37{fill:url(#linear-gradient-12);}.cls-38{fill:#67616b;}.cls-39{fill:#a7a29e;}.cls-40{opacity:0.3;}.cls-41{fill:#fbe8c8;}.cls-42{fill:#121212;}.cls-43{fill:url(#linear-gradient-13);}.cls-44{fill:#4c8ed5;}.cls-45{fill:#0088d0;}.cls-46{fill:#036;}.cls-47{fill:#ccc;}.cls-48{fill:#797979;}.cls-49{fill:#464646;}.cls-50{fill:url(#linear-gradient-14);}.cls-51{fill:#f0f0f0;}.cls-52{fill:#bfbfbf;}.cls-53{fill:#a6a6a6;}</style><linearGradient id="linear-gradient" x1="4078.16" y1="-4402.53" x2="4078.16" y2="-4026.58" gradientTransform="matrix(0.09, 0.05, 0, 0.07, -286.64, 190.58)" gradientUnits="userSpaceOnUse"><stop offset="0" stop-color="#a19b8e"/><stop offset="0" stop-color="#cdc4b0"/><stop offset="0.79" stop-color="#cdc4b0"/><stop offset="1" stop-color="#786f5b"/></linearGradient><linearGradient id="linear-gradient-2" x1="1285.8" y1="-45.72" x2="1302.52" y2="-45.72" gradientTransform="translate(-501.31 71.63) scale(0.48 0.47)" gradientUnits="userSpaceOnUse"><stop offset="0" stop-color="#7e7e7e"/><stop offset="1" stop-color="#1c1c1c"/></linearGradient><linearGradient id="linear-gradient-3" x1="110.04" y1="43.94" x2="117.98" y2="43.94" gradientUnits="userSpaceOnUse"><stop offset="0" stop-color="#ff5757"/><stop offset="1" stop-color="#700"/></linearGradient><linearGradient id="linear-gradient-4" x1="110.04" y1="49.16" x2="117.98" y2="49.16" xlink:href="#linear-gradient-3"/><linearGradient id="linear-gradient-5" x1="110.04" y1="28.86" x2="117.98" y2="28.86" gradientUnits="userSpaceOnUse"><stop offset="0" stop-color="#fff"/><stop offset="0.32" stop-color="#fff"/><stop offset="1" stop-color="#adadad"/></linearGradient><linearGradient id="linear-gradient-6" x1="1280.3" y1="-47.96" x2="1297.02" y2="-47.96" gradientTransform="translate(-509.71 68.23) scale(0.48 0.47)" xlink:href="#linear-gradient-2"/><linearGradient id="linear-gradient-7" x1="99.07" y1="39.55" x2="107.04" y2="39.55" xlink:href="#linear-gradient-3"/><linearGradient id="linear-gradient-8" x1="99.07" y1="44.73" x2="107.04" y2="44.73" xlink:href="#linear-gradient-3"/><linearGradient id="linear-gradient-9" x1="99.07" y1="24.47" x2="107.04" y2="24.47" xlink:href="#linear-gradient-5"/><linearGradient id="linear-gradient-10" x1="1391.92" y1="512.8" x2="1444.55" y2="460.18" gradientTransform="matrix(0.31, -0.18, 0, 0.35, -361.92, 145.64)" gradientUnits="userSpaceOnUse"><stop offset="0" stop-color="#d3beab"/><stop offset="0.28" stop-color="#f7ebe0"/><stop offset="0.78" stop-color="#f7ebe0"/><stop offset="1" stop-color="#d3beab"/></linearGradient><linearGradient id="linear-gradient-11" x1="3735.63" y1="1751.49" x2="4115.38" y2="1751.49" gradientTransform="matrix(0.06, -0.06, 0.11, 0.06, -308.98, 218.38)" xlink:href="#linear-gradient-10"/><linearGradient id="linear-gradient-12" x1="4078.16" y1="-30968.19" x2="4078.16" y2="-30593.79" gradientTransform="matrix(0.09, 0.05, 0, 0.01, -286.64, 188.62)" xlink:href="#linear-gradient"/><linearGradient id="linear-gradient-13" x1="1861.06" y1="-213.23" x2="1926.77" y2="-213.23" gradientTransform="translate(-404.52 145.12) scale(0.25 0.25)" gradientUnits="userSpaceOnUse"><stop offset="0.04" stop-color="#aee7ff"/><stop offset="0.16" stop-color="#66d2ff"/><stop offset="0.75" stop-color="#008cc6"/><stop offset="1" stop-color="#4cbceb"/></linearGradient><linearGradient id="linear-gradient-14" x1="1874.51" y1="-205.64" x2="1940.22" y2="-205.64" gradientTransform="translate(-393.82 151.17) scale(0.25 0.25)" xlink:href="#linear-gradient-13"/></defs><title>工厂6</title><polygon class="cls-1" points="110.67 79.32 200 130.89 110.16 182.87 89.5 182.87 0.17 131.25 90.01 79.32 110.67 79.32"/><polygon class="cls-2" points="89.33 174.36 0 122.74 89.84 70.76 179.17 122.38 89.33 174.36"/><polygon class="cls-3" points="179.17 122.49 179.17 130.96 89.28 182.83 89.28 174.36 179.17 122.49"/><polygon class="cls-4" points="89.33 182.83 0.05 131.21 0.05 122.74 89.33 174.31 89.33 182.83"/><path class="cls-4" d="M90.81,164.78a1.89,1.89,0,0,1-1.73.81,15,15,0,0,1-3.12-.36v-2.75a3.18,3.18,0,0,1,3.22-1.38c1.49.07,2.24.65,2.24,1.74A2.77,2.77,0,0,1,90.81,164.78Z"/><path class="cls-4" d="M77,157.38a2,2,0,0,1,2.2,0,2.21,2.21,0,0,0,.51,1.17,1.58,1.58,0,0,1-.21.87c-.17.24-.54.36-1.12.36l-1.84-.21h-.1q-.15,0-.15-.81A1.7,1.7,0,0,1,77,157.38Z"/><path class="cls-4" d="M90,155.34l-.15.61c-.07.1,0,.22,0,.36s-.29.15-.86.15a3.09,3.09,0,0,1-2.35-.77l-.15-.61.15-.81,3.06-.11Z"/><path class="cls-4" d="M102.14,87.44l-1.08.15a23.7,23.7,0,0,1-4.13-.4q-.15.15-.15-1.23c0-1.26.93-1.94,2.8-2s2.81.56,2.81,2A2.67,2.67,0,0,1,102.14,87.44Z"/><path class="cls-4" d="M91.68,79.54l-.26,1.17A9.5,9.5,0,0,1,89,81l-.2-.25a2.31,2.31,0,0,1-.2-1.12q0-1,.81-1a11.35,11.35,0,0,1,2,0Z"/><path class="cls-4" d="M83.21,85.4v-.61a3.93,3.93,0,0,1,2.86.36l-.11.66-1.32.31C83.82,85.91,83.34,85.67,83.21,85.4Z"/><path class="cls-4" d="M111.32,90.76l-1,1.12a2.4,2.4,0,0,1-1.48.56,2.91,2.91,0,0,1-1.07-.1l-.1-.15a6,6,0,0,1-.26-2.4,4.65,4.65,0,0,0,.87-.1,21.81,21.81,0,0,1,2.75-.16Z"/><polygon class="cls-5" points="90.19 77.28 168.13 122.37 89.34 167.97 11.41 122.89 90.19 77.28"/><polygon class="cls-6" points="90.11 80.11 163.22 122.41 89.31 165.19 16.2 122.89 90.11 80.11"/><polygon class="cls-5" points="90.1 83.02 158.29 122.47 89.35 162.37 21.16 122.92 90.1 83.02"/><polygon class="cls-6" points="69.72 142.88 85.12 151.75 81.3 153.97 65.89 145.06 69.72 142.88"/><polygon class="cls-6" points="77.32 138.47 92.73 147.34 88.9 149.57 73.5 140.65 77.32 138.47"/><polygon class="cls-6" points="96.56 145.11 81.15 136.2 84.98 134.02 100.38 142.88 96.56 145.11"/><polygon class="cls-6" points="92.68 129.61 108.08 138.47 104.26 140.7 88.85 131.79 92.68 129.61"/><polygon class="cls-6" points="100.33 125.2 115.74 134.07 111.91 136.29 96.51 127.38 100.33 125.2"/><polygon class="cls-7" points="126.75 135.06 155.24 118.66 155.24 91.26 126.75 107.66 126.75 135.06"/><polygon class="cls-8" points="126.75 135.1 63.41 98.62 63.41 71.22 126.75 107.69 126.75 135.1"/><polygon class="cls-9" points="126.78 116.54 155.22 100.17 155.22 94.42 126.78 110.78 126.78 116.54"/><polygon class="cls-10" points="126.69 116.39 63.38 79.92 63.38 74.21 126.69 110.67 126.69 116.39"/><polygon class="cls-11" points="128.12 114.25 136.79 109.22 136.79 104.97 128.12 110 128.12 114.25"/><polygon class="cls-11" points="137.8 108.59 144.77 104.59 144.77 100.34 137.8 104.35 137.8 108.59"/><polygon class="cls-12" points="99.11 98.97 90.44 93.94 90.44 89.69 99.11 94.72 99.11 98.97"/><polygon class="cls-12" points="89.41 93.2 80.73 88.17 80.73 83.92 89.41 88.95 89.41 93.2"/><polygon class="cls-12" points="79.57 87.62 70.89 82.59 70.89 78.35 79.57 83.38 79.57 87.62"/><polygon class="cls-12" points="69.71 81.99 64.62 79.06 64.62 74.82 69.71 77.75 69.71 81.99"/><polygon class="cls-11" points="146.09 103.89 154.76 98.86 154.76 94.61 146.09 99.64 146.09 103.89"/><polygon class="cls-12" points="119.24 110.51 110.57 105.48 110.57 101.24 119.24 106.27 119.24 110.51"/><polygon class="cls-12" points="109.34 104.87 100.66 99.84 100.66 95.6 109.34 100.63 109.34 104.87"/><polygon class="cls-12" points="125.71 114.19 120.62 111.25 120.62 107.01 125.71 109.94 125.71 114.19"/><path class="cls-13" d="M117,22.73a3.77,3.77,0,0,1,1.18,2.78V74.67A3.68,3.68,0,0,1,117,77.42a3.78,3.78,0,0,1-2.78,1.18h0a3.88,3.88,0,0,1-2.81-1.18,3.76,3.76,0,0,1-1.15-2.75V25.51a3.86,3.86,0,0,1,1.15-2.78,3.92,3.92,0,0,1,2.81-1.14h0A3.82,3.82,0,0,1,117,22.73Z"/><path class="cls-14" d="M117,25.44a2.6,2.6,0,0,1-.84,1.95,2.67,2.67,0,0,1-2,.83,2.75,2.75,0,0,1-2-.83,2.64,2.64,0,0,1-.81-1.95,2.73,2.73,0,0,1,.81-2,2.76,2.76,0,0,1,2-.8A2.8,2.8,0,0,1,117,25.44Z"/><path class="cls-15" d="M111.19,43.19A4,4,0,0,0,114,44.37a4.16,4.16,0,0,0,4.06-3.8v2.88a3.47,3.47,0,0,1-1.24,2.69A3.72,3.72,0,0,1,114,47.32a4,4,0,0,1-2.82-1.18,3.64,3.64,0,0,1-1.12-2.69V40.57A4,4,0,0,0,111.19,43.19Z"/><path class="cls-16" d="M116.83,51.32A3.65,3.65,0,0,1,114,52.57a3.9,3.9,0,0,1-2.82-1.25,3.64,3.64,0,0,1-1.12-2.69V45.81a4,4,0,0,0,1.12,2.63A4.12,4.12,0,0,0,114,49.55a4,4,0,0,0,4.06-3.8v2.88A3.47,3.47,0,0,1,116.83,51.32Z"/><path class="cls-17" d="M114,29.29a4.16,4.16,0,0,0,4.06-3.81v2.89a3.69,3.69,0,0,1-1.24,2.76A3.85,3.85,0,0,1,114,32.24a4.12,4.12,0,0,1-2.82-1.11,3.88,3.88,0,0,1-1.12-2.76V25.55a3.75,3.75,0,0,0,1.12,2.56A4,4,0,0,0,114,29.29Z"/><polygon class="cls-18" points="126.74 111.42 63.44 74.96 63.44 71.5 126.74 107.96 126.74 111.42"/><polygon class="cls-19" points="126.85 111.53 155.63 94.93 155.63 91.32 126.85 107.92 126.85 111.53"/><polygon class="cls-6" points="92.31 54.87 155.62 91.33 126.83 107.92 63.52 71.47 92.31 54.87"/><polygon class="cls-20" points="91.03 56.99 151.65 91.9 126.63 106.34 66.01 71.43 91.03 56.99"/><polygon class="cls-21" points="90.82 56.94 92.37 57.83 67.37 72.26 65.83 71.36 90.82 56.94"/><polygon class="cls-22" points="92.05 56.17 152.79 91.17 151.5 91.92 90.76 56.92 92.05 56.17"/><path class="cls-23" d="M106,18.27a3.78,3.78,0,0,1,1.19,2.78V70.21a4.05,4.05,0,0,1-4,3.93h0a3.82,3.82,0,0,1-2.8-1.18,3.73,3.73,0,0,1-1.16-2.75V21.05a3.83,3.83,0,0,1,1.16-2.78,3.9,3.9,0,0,1,2.8-1.14h0A3.8,3.8,0,0,1,106,18.27Z"/><path class="cls-14" d="M106,21.06a2.58,2.58,0,0,1-.84,2,2.65,2.65,0,0,1-2,.83,2.77,2.77,0,0,1-2-.83,2.62,2.62,0,0,1-.8-2,2.72,2.72,0,0,1,.8-2,2.78,2.78,0,0,1,2-.8A2.8,2.8,0,0,1,106,21.06Z"/><path class="cls-24" d="M100.24,38.8a4,4,0,0,0,5.64,0,3.9,3.9,0,0,0,1.18-2.63V39a3.67,3.67,0,0,1-1.18,2.76,4,4,0,0,1-5.64,0A3.73,3.73,0,0,1,99.12,39V36.27A3.6,3.6,0,0,0,100.24,38.8Z"/><path class="cls-25" d="M99.12,44.17V41.45A3.44,3.44,0,0,0,100.24,44a4,4,0,0,0,5.64,0,3.9,3.9,0,0,0,1.18-2.63v2.82a3.66,3.66,0,0,1-1.18,2.76,4,4,0,0,1-5.64,0A3.72,3.72,0,0,1,99.12,44.17Z"/><path class="cls-26" d="M107.06,23.91a3.69,3.69,0,0,1-1.18,2.76,4,4,0,0,1-5.64,0,3.75,3.75,0,0,1-1.12-2.76V21.19a3.62,3.62,0,0,0,1.12,2.53,4,4,0,0,0,5.64,0,3.9,3.9,0,0,0,1.18-2.63Z"/><path class="cls-27" d="M89.32,47.71q4,2.15,4,8.38L79.75,63.87l-13.5,7.75a25.39,25.39,0,0,1,4-12.93,26.85,26.85,0,0,1,9.56-9.91Q85.37,45.57,89.32,47.71Z"/><polygon class="cls-28" points="88.43 47.29 148.54 81.9 126.32 106.01 66.22 71.4 88.43 47.29"/><polygon class="cls-29" points="102.9 59.48 106.35 61.46 102.84 63.5 99.39 61.52 102.9 59.48"/><path class="cls-30" d="M104.82,61.56a.91.91,0,0,1-.53.77,2.19,2.19,0,0,1-1.22.32,2.41,2.41,0,0,1-1.26-.32.94.94,0,0,1-.49-.77.93.93,0,0,1,.49-.76,2.41,2.41,0,0,1,1.26-.32,2.19,2.19,0,0,1,1.22.32A.89.89,0,0,1,104.82,61.56Z"/><path class="cls-29" d="M103.69,61.59a.42.42,0,0,1-.25.35,1,1,0,0,1-.56.15,1.13,1.13,0,0,1-.59-.15.4.4,0,0,1,0-.71,1.13,1.13,0,0,1,.59-.15,1,1,0,0,1,.56.15A.42.42,0,0,1,103.69,61.59Z"/><polygon class="cls-29" points="107.75 62.17 111.2 64.15 107.69 66.19 104.24 64.21 107.75 62.17"/><path class="cls-30" d="M109.54,64.25A.91.91,0,0,1,109,65a2.24,2.24,0,0,1-1.22.32,2.47,2.47,0,0,1-1.27-.32.94.94,0,0,1-.49-.77.93.93,0,0,1,.49-.76,2.37,2.37,0,0,1,1.27-.32,2.16,2.16,0,0,1,1.22.32A.9.9,0,0,1,109.54,64.25Z"/><path class="cls-29" d="M108.54,64.14a.43.43,0,0,1-.24.36,1,1,0,0,1-.57.15,1.13,1.13,0,0,1-.59-.15.4.4,0,0,1,0-.71,1.13,1.13,0,0,1,.59-.15,1,1,0,0,1,.57.15A.43.43,0,0,1,108.54,64.14Z"/><polygon class="cls-29" points="112.54 64.86 115.99 66.84 112.47 68.88 109.02 66.9 112.54 64.86"/><path class="cls-30" d="M114.4,66.94a.93.93,0,0,1-.53.77,2.21,2.21,0,0,1-1.22.32,2.47,2.47,0,0,1-1.27-.32.93.93,0,0,1-.48-.77.91.91,0,0,1,.48-.76,2.37,2.37,0,0,1,1.27-.32,2.13,2.13,0,0,1,1.22.32A.91.91,0,0,1,114.4,66.94Z"/><path class="cls-29" d="M113.33,67a.42.42,0,0,1-.25.36,1,1,0,0,1-.56.14,1.1,1.1,0,0,1-.59-.14.39.39,0,0,1,0-.71,1.1,1.1,0,0,1,.59-.15,1,1,0,0,1,.56.15A.42.42,0,0,1,113.33,67Z"/><polygon class="cls-31" points="80.7 46.47 82.07 47.32 82.07 49.75 80.7 48.96 80.7 46.47"/><polygon class="cls-32" points="82.07 47.32 80.7 46.47 82.2 45.48 83.71 46.34 82.14 47.32 82.07 47.32"/><polygon class="cls-33" points="83.71 46.34 83.71 48.83 82.2 49.75 82.2 47.32 83.71 46.34"/><polygon class="cls-32" points="85.88 49.55 84.44 48.76 84.37 48.7 84.44 48.7 85.94 47.78 87.45 48.63 85.88 49.55"/><polygon class="cls-31" points="84.44 48.76 85.88 49.55 85.88 52.04 84.44 51.26 84.44 48.76"/><polygon class="cls-33" points="87.45 48.63 87.45 51.06 85.94 52.04 85.94 49.55 87.45 48.63"/><polygon class="cls-32" points="89.55 51.78 88.17 50.99 88.11 50.93 88.17 50.93 89.68 50.01 91.19 50.86 89.61 51.78 89.55 51.78"/><polygon class="cls-33" points="89.68 54.27 89.68 51.78 91.25 50.86 91.25 53.29 89.68 54.27"/><polygon class="cls-31" points="88.17 50.99 89.55 51.78 89.55 54.27 88.17 53.42 88.17 50.99"/><path class="cls-34" d="M149.65,82.33q4,2.15,4,8.38l-13.54,7.78-13.49,7.76a25.45,25.45,0,0,1,4-12.94,26.72,26.72,0,0,1,9.55-9.9C143.82,81.26,147,80.91,149.65,82.33Z"/><polygon class="cls-32" points="129.55 74.99 127.97 75.91 127.91 75.91 126.53 75.13 126.47 75.06 126.53 75.06 128.04 74.14 129.55 74.99"/><polygon class="cls-31" points="126.53 75.13 127.91 75.91 127.91 78.4 126.53 77.61 126.53 75.13"/><polygon class="cls-33" points="127.97 75.91 129.55 74.99 129.55 77.42 127.97 78.4 127.97 75.91"/><polygon class="cls-32" points="131.71 78.14 130.27 77.35 130.21 77.29 130.27 77.29 131.78 76.37 133.29 77.22 131.71 78.14"/><polygon class="cls-33" points="133.29 77.22 133.29 79.65 131.71 80.57 131.71 78.14 133.29 77.22"/><polygon class="cls-31" points="130.27 77.35 131.71 78.14 131.71 80.57 130.27 79.84 130.27 77.35"/><polygon class="cls-33" points="135.52 82.86 135.52 80.44 137.09 79.45 137.09 81.88 135.52 82.86"/><polygon class="cls-31" points="134.01 79.58 135.45 80.44 135.45 82.86 134.01 82.08 134.01 79.58"/><polygon class="cls-32" points="135.45 80.44 134.01 79.58 134.01 79.52 135.52 78.6 137.02 79.45 135.45 80.44"/><polygon class="cls-35" points="135.41 98.76 139.63 96.34 139.63 89.24 135.41 91.65 135.41 98.76"/><polygon class="cls-36" points="136.35 97.1 138.71 95.74 138.71 90.88 136.35 92.24 136.35 97.1"/><polygon class="cls-35" points="141.11 95.08 145.34 92.67 145.34 85.56 141.11 87.98 141.11 95.08"/><polygon class="cls-36" points="142.12 93.5 144.48 92.13 144.48 87.27 142.12 88.64 142.12 93.5"/><polygon class="cls-37" points="126.75 111.55 63.41 75.08 63.41 71.22 126.75 107.7 126.75 111.55"/><polygon class="cls-7" points="126.75 111.52 155.24 95.12 155.24 91.26 126.75 107.67 126.75 111.52"/><polygon class="cls-38" points="104.29 103.36 119.68 112.49 119.68 129.99 104.29 120.86 104.29 103.36"/><polygon class="cls-39" points="104.29 118.83 119.68 127.97 119.68 130.13 104.29 121 104.29 118.83"/><polygon class="cls-39" points="104.29 114.5 119.68 123.64 119.68 125.8 104.29 116.67 104.29 114.5"/><polygon class="cls-39" points="104.29 110.18 119.68 119.31 119.68 121.47 104.29 112.34 104.29 110.18"/><polygon class="cls-39" points="104.29 105.85 119.68 114.98 119.68 117.15 104.29 108.02 104.29 105.85"/><polygon class="cls-40" points="104.36 103.5 105.92 104.43 105.92 121.93 104.36 121 104.36 103.5"/><polygon class="cls-40" points="104.31 103.53 119.72 112.67 119.72 115.99 104.31 106.85 104.31 103.53"/><polygon class="cls-40" points="104.41 103.28 104.41 120.8 102.92 121.58 102.92 102.4 104.41 103.28"/><polygon class="cls-41" points="119.07 130.49 102.28 120.58 103.84 119.67 119.08 128.71 119.07 130.49"/><path class="cls-42" d="M74.29,106A9.52,9.52,0,0,1,58,112.77,9.54,9.54,0,1,1,71.5,99.28,9.19,9.19,0,0,1,74.29,106Z"/><path class="cls-43" d="M64.79,71.38a8.16,8.16,0,0,1,8.14,8.15v25.32A8.13,8.13,0,0,1,59,110.61a7.81,7.81,0,0,1-2.39-5.76V79.53a8.16,8.16,0,0,1,8.14-8.15Z"/><path class="cls-44" d="M64.79,113.66a8.81,8.81,0,0,1-8.8-8.81V79.53a8.8,8.8,0,0,1,17.6,0v25.32a8.81,8.81,0,0,1-8.8,8.81Zm0-41.62a7.51,7.51,0,0,0-7.49,7.49v25.32a7.48,7.48,0,0,0,12.78,5.3,7.16,7.16,0,0,0,2.2-5.3V79.53A7.51,7.51,0,0,0,64.79,72Z"/><path class="cls-45" d="M67.52,113a.65.65,0,0,1-.66-.65V103.8a9.45,9.45,0,0,1-4.2,0v8.56A.65.65,0,0,1,62,113a.66.66,0,0,1-.66-.65v-9a9.09,9.09,0,0,1-1.57-.83v8a.66.66,0,0,1-1.31,0v-9.14a.61.61,0,0,1-.07-.1,8.51,8.51,0,0,1-2.48-5,.65.65,0,0,1,1.3-.16,6.83,6.83,0,0,0,1.25,3.25V88.26a5.6,5.6,0,0,1-2.55-3.65.66.66,0,0,1,.53-.76.65.65,0,0,1,.76.54,3.83,3.83,0,0,0,1.26,2.19V80.37a10,10,0,0,1,1.76-6,5.58,5.58,0,0,1,4.45-2.64h.1a5.58,5.58,0,0,1,4.45,2.64,10,10,0,0,1,1.76,6v6.19a4.17,4.17,0,0,0,1.26-2.19.64.64,0,0,1,.78-.51.66.66,0,0,1,.51.77A5.93,5.93,0,0,1,71,88.26v11.1a7.36,7.36,0,0,0,1.25-3.22.67.67,0,0,1,.75-.55.65.65,0,0,1,.55.74A9.06,9.06,0,0,1,71,101.42h0v9.17a.66.66,0,0,1-1.31,0v-8.06a8,8,0,0,1-1.51.84v9A.65.65,0,0,1,67.52,113Zm-4.86-10.57a8.08,8.08,0,0,0,4.2,0V89.9a14.42,14.42,0,0,1-4.2,0Zm-2.88-1.53a7.45,7.45,0,0,0,1.57,1V89.66A11.92,11.92,0,0,1,59.78,89Zm8.39-11.33v12.34a7.81,7.81,0,0,0,1.51-1.06V89A11.52,11.52,0,0,1,68.17,89.59Zm-5.51-1a12.6,12.6,0,0,0,4.2,0v-7.8a17.37,17.37,0,0,0-.81-5.68c-.41-1.22-.9-2-1.32-2h0c-.4,0-.89.78-1.29,2a18.7,18.7,0,0,0-.76,5.69Zm-2.88-1.06a9.37,9.37,0,0,0,1.57.73V80.76a20.1,20.1,0,0,1,.82-6.1h0c.09-.25.18-.49.27-.71a6,6,0,0,0-1.14,1.24,8.7,8.7,0,0,0-1.52,5.19ZM67,73.94c.09.22.18.46.27.71a18.83,18.83,0,0,1,.88,6.11v7.45a10.25,10.25,0,0,0,1.51-.68V80.37a8.7,8.7,0,0,0-1.52-5.19A6,6,0,0,0,67,73.94Z"/><path class="cls-46" d="M66.23,72.68a.72.72,0,0,1-.42.6,2.31,2.31,0,0,1-2.05,0,.72.72,0,0,1-.42-.6.69.69,0,0,1,.42-.59,2.23,2.23,0,0,1,2.05,0A.69.69,0,0,1,66.23,72.68Z"/><path class="cls-14" d="M157.31,121.55a5,5,0,0,0-2.75.74,1.94,1.94,0,0,0,0,3.54,5.5,5.5,0,0,0,5.51,0,1.94,1.94,0,0,0,0-3.54A5,5,0,0,0,157.31,121.55Z"/><path class="cls-47" d="M150.53,106.93a2,2,0,0,1,1.44,0,9.57,9.57,0,0,1,3.22,1.57,2.19,2.19,0,0,0-2.56.59,2.91,2.91,0,0,0-.85,1.71,2.73,2.73,0,0,0-.33-.14,2.4,2.4,0,0,1-1.31-1.18,2.28,2.28,0,0,1-.07-1.77A1.82,1.82,0,0,1,150.53,106.93Zm8.85,12.32a1.41,1.41,0,0,1-.65,1.12,2.54,2.54,0,0,1-1.64.52,3.36,3.36,0,0,1-1.18-.19c-.09-1.23-.15-2-.2-2.3,0,0-.11-.79-.33-2.23a8.37,8.37,0,0,0-2.09-4.46,2.82,2.82,0,0,1,.72-1.18,2.13,2.13,0,0,1,2.69-.39q2.3,3,2.68,8.79Zm-.32,4.86a3.71,3.71,0,0,1-.92.13,2.76,2.76,0,0,1-1.64-.46,1.65,1.65,0,0,1-.72-1.31,2.63,2.63,0,0,0,1.31.33,2.54,2.54,0,0,0,1.64-.53c.44-.3.68-.48.72-.52v1.18A1.77,1.77,0,0,1,159.06,124.11Z"/><path class="cls-48" d="M150.53,106.93a1.82,1.82,0,0,0-.46.78,2.28,2.28,0,0,0,.07,1.77,2.4,2.4,0,0,0,1.31,1.18,2.73,2.73,0,0,1,.33.14,2.91,2.91,0,0,1,.85-1.71,2.19,2.19,0,0,1,2.56-.59c1.05.35,1.55.9,1.51,1.64a2.13,2.13,0,0,0-2.69.39,2.82,2.82,0,0,0-.72,1.18,8.37,8.37,0,0,1,2.09,4.46c.22,1.44.33,2.19.33,2.23,0,.31.11,1.07.2,2.3a3.36,3.36,0,0,0,1.18.19,2.54,2.54,0,0,0,1.64-.52,1.41,1.41,0,0,0,.65-1.12,1.93,1.93,0,0,1,.07.53,2.66,2.66,0,0,0,.26.52,1.93,1.93,0,0,1-.26,1.45s-.28.22-.72.52a2.54,2.54,0,0,1-1.64.53,2.63,2.63,0,0,1-1.31-.33,1.65,1.65,0,0,0,.72,1.31,2.76,2.76,0,0,0,1.64.46,3.71,3.71,0,0,0,.92-.13,3.47,3.47,0,0,1-.33.26,2.54,2.54,0,0,1-1.64.52,2.72,2.72,0,0,1-1.64-.52,1.64,1.64,0,0,1-.66-1.44v-1.18a2.77,2.77,0,0,0,.66.52,3.64,3.64,0,0,0,.33.2v-.13l.13-1.64-.46-.33a1.65,1.65,0,0,1-.72-1.31v-.13a11.16,11.16,0,0,0-1.57-5.31,3.32,3.32,0,0,1,.13-1.91,9.79,9.79,0,0,0-1.51-.91,4.57,4.57,0,0,0,.06,1.31,4,4,0,0,0-1.37-.79,2.21,2.21,0,0,1-1.32-1.18,2.32,2.32,0,0,1-.13-1.84A2.55,2.55,0,0,1,150.2,107,.81.81,0,0,1,150.53,106.93Z"/><path class="cls-49" d="M155.91,120.7l-.13,1.64v.13a3.64,3.64,0,0,1-.33-.2,2.77,2.77,0,0,1-.66-.52,1.37,1.37,0,0,1,0-1.77,7.22,7.22,0,0,1-.06-.92,1.65,1.65,0,0,0,.72,1.31Zm-4.07-8.59a4.57,4.57,0,0,1-.06-1.31,9.79,9.79,0,0,1,1.51.91,3.32,3.32,0,0,0-.13,1.91A1.69,1.69,0,0,1,151.84,112.11Z"/><path class="cls-14" d="M149.51,125.62a5,5,0,0,0-2.76.74,1.94,1.94,0,0,0,0,3.54,5.56,5.56,0,0,0,5.51,0,1.94,1.94,0,0,0,0-3.54A5,5,0,0,0,149.51,125.62Z"/><path class="cls-48" d="M147.19,125.75c0,.08.24.28.72.59a1.07,1.07,0,0,0,.26.19v-.13l.13-1.7-.39-.27a1.88,1.88,0,0,1-.79-1.24V123a11.24,11.24,0,0,0-1.57-5.38,4.4,4.4,0,0,1,.13-1.9,13.13,13.13,0,0,0-1.51-.85,4.6,4.6,0,0,0,.07,1.31,5.07,5.07,0,0,0-1.38-.85,2.29,2.29,0,0,1-1.44-2.95,2.19,2.19,0,0,1,1.18-1.31,1.51,1.51,0,0,1,.33-.13,1.73,1.73,0,0,0-.46.78,2.44,2.44,0,0,0,.06,1.84,2,2,0,0,0,1.31,1.11,2.23,2.23,0,0,0,.33.2,3,3,0,0,1,.85-1.77,2.2,2.2,0,0,1,2.56-.59c1,.39,1.55,1,1.51,1.71a2,2,0,0,0-2.69.39,2.33,2.33,0,0,0-.72,1.11,9.27,9.27,0,0,1,2.16,4.46c.22,1.49.33,2.25.33,2.3,0,.3.05,1,.13,2.23a3.4,3.4,0,0,0,1.18.19,2.74,2.74,0,0,0,1.64-.46,1.42,1.42,0,0,0,.66-1.11,2.31,2.31,0,0,1,.06.52,2.36,2.36,0,0,0,.27.53,1.77,1.77,0,0,1-.27,1.38,3.32,3.32,0,0,1-.72.59,2.81,2.81,0,0,1-1.64.46,3.1,3.1,0,0,1-1.31-.27,1.73,1.73,0,0,0,.72,1.32,2.85,2.85,0,0,0,1.64.45,3.25,3.25,0,0,0,.92-.13,1.81,1.81,0,0,1-.33.26,2.74,2.74,0,0,1-1.64.46,2.65,2.65,0,0,1-1.57-.46,1.57,1.57,0,0,1-.72-1.44Z"/><path class="cls-47" d="M142.93,110.93a2,2,0,0,1,1.44,0,13,13,0,0,1,3.21,1.57,2.2,2.2,0,0,0-2.56.59,3,3,0,0,0-.85,1.77,2.23,2.23,0,0,1-.33-.2,2,2,0,0,1-1.31-1.11,2.44,2.44,0,0,1-.06-1.84A1.73,1.73,0,0,1,142.93,110.93Zm6.16,3.28q2.29,2.94,2.69,8.78v.33a1.42,1.42,0,0,1-.66,1.11,2.74,2.74,0,0,1-1.64.46,3.4,3.4,0,0,1-1.18-.19c-.08-1.18-.13-1.93-.13-2.23,0,0-.11-.81-.33-2.3a9.27,9.27,0,0,0-2.16-4.46,2.33,2.33,0,0,1,.72-1.11A2,2,0,0,1,149.09,114.21Zm2.36,14a3.25,3.25,0,0,1-.92.13,2.85,2.85,0,0,1-1.64-.45,1.73,1.73,0,0,1-.72-1.32,3.1,3.1,0,0,0,1.31.27,2.81,2.81,0,0,0,1.64-.46,3.32,3.32,0,0,0,.72-.59V127A1.75,1.75,0,0,1,151.45,128.17Z"/><path class="cls-49" d="M145.55,117.61c-.7-.08-1.14-.56-1.31-1.44a4.6,4.6,0,0,1-.07-1.31,13.13,13.13,0,0,1,1.51.85A4.4,4.4,0,0,0,145.55,117.61Zm1.57,5.58a1.88,1.88,0,0,0,.79,1.24l.39.27-.13,1.7v.13a1.07,1.07,0,0,1-.26-.19c-.48-.31-.72-.51-.72-.59a1.27,1.27,0,0,1,0-1.71A4.8,4.8,0,0,0,147.12,123.19Z"/><path class="cls-42" d="M88.32,113.89a9.54,9.54,0,1,1-2.79-6.74A9.21,9.21,0,0,1,88.32,113.89Z"/><path class="cls-50" d="M78.82,79.32A8.14,8.14,0,0,1,87,87.47v25.32a8.14,8.14,0,0,1-16.28,0V87.47a8.16,8.16,0,0,1,8.14-8.15Z"/><path class="cls-44" d="M78.82,121.59a8.81,8.81,0,0,1-8.8-8.8V87.47a8.8,8.8,0,1,1,17.6,0v25.32a8.81,8.81,0,0,1-8.8,8.8Zm0-41.62a7.49,7.49,0,0,0-7.48,7.5v25.32a7.49,7.49,0,0,0,15,0V87.47A7.51,7.51,0,0,0,78.82,80Z"/><path class="cls-45" d="M81.61,121a.65.65,0,0,1-.65-.66v-8.57a9.31,9.31,0,0,1-4.2,0v8.56a.66.66,0,1,1-1.31,0v-9a8.24,8.24,0,0,1-1.57-.85v8.06a.66.66,0,0,1-.66.66.65.65,0,0,1-.65-.66v-9.14l-.07-.09A8.68,8.68,0,0,1,70,104.18a.66.66,0,0,1,.58-.72.65.65,0,0,1,.73.57,7,7,0,0,0,1.25,3.31V96.18h0A5.51,5.51,0,0,1,70,92.55a.66.66,0,0,1,1.29-.23,3.83,3.83,0,0,0,1.26,2.2V88.3a10,10,0,0,1,1.76-6,5.59,5.59,0,0,1,4.44-2.64h.11a5.58,5.58,0,0,1,4.45,2.64h0A10.28,10.28,0,0,1,85,88.3v6.24a4.09,4.09,0,0,0,1.33-2.24.65.65,0,1,1,1.28.27A6,6,0,0,1,85,96.24v11.15A7.62,7.62,0,0,0,86.34,104a.66.66,0,0,1,1.3.18,9.07,9.07,0,0,1-2.54,5.15.29.29,0,0,1-.08.07v9.11a.65.65,0,0,1-.65.66.66.66,0,0,1-.66-.66v-8.06a8.66,8.66,0,0,1-1.44.83v9A.65.65,0,0,1,81.61,121Zm-4.85-10.57a8.08,8.08,0,0,0,4.2,0V97.83a12.87,12.87,0,0,1-4.2,0Zm-2.88-1.59a7.33,7.33,0,0,0,1.57,1.08V97.54A8.42,8.42,0,0,1,73.88,97Zm8.39-11.28v12.31a7.45,7.45,0,0,0,1.44-1V97A10,10,0,0,1,82.27,97.52Zm-5.51-1a11.41,11.41,0,0,0,4.2,0V88.7A17.38,17.38,0,0,0,80.14,83c-.4-1.21-.89-1.94-1.3-2h0c-.42,0-.9.77-1.3,2a18.73,18.73,0,0,0-.76,5.7Zm-2.88-1a7.91,7.91,0,0,0,1.57.7V88.7a20.17,20.17,0,0,1,.82-6.11c.09-.25.17-.49.27-.71a6.23,6.23,0,0,0-1.15,1.23,8.79,8.79,0,0,0-1.51,5.19Zm7.24-13.6c.09.22.18.45.26.71a18.55,18.55,0,0,1,.89,6.11v7.44a8.58,8.58,0,0,0,1.44-.66V88.3a9.05,9.05,0,0,0-1.45-5.19A5.93,5.93,0,0,0,81.12,81.88Z"/><path class="cls-46" d="M80.33,80.61a.69.69,0,0,1-.43.6,2.21,2.21,0,0,1-2,0,.63.63,0,0,1,0-1.19,2.21,2.21,0,0,1,2,0A.69.69,0,0,1,80.33,80.61Z"/><polygon class="cls-51" points="24.89 99.06 18.4 101.68 12.76 99.19 19.32 96.5 24.89 99.06"/><polygon class="cls-52" points="26.86 130.14 26.99 107.19 22.8 104.3 18.4 106.27 18.4 101.68 24.89 99.06 30.07 102.27 29.88 102.67 29.94 128.17 26.86 130.14"/><path class="cls-53" d="M22.8,109.22l4.19-2-.13,22.95-4.13-2.36Zm-10-10,5.64,2.49v4.59l-1.9-.65-3.74-1.32Z"/><path class="cls-6" d="M27,107.19l-4.19,2q-4.59,1.25-6.3-3.6l1.9.65,4.4-2Z"/><path class="cls-53" d="M40.3,115.71l5.64,2.5v4.59l-1.9-.66-3.74-1.31Zm10,10,4.19-2-.13,23-4.13-2.36Z"/><polygon class="cls-52" points="45.94 122.8 45.94 118.2 52.44 115.58 57.62 118.8 57.42 119.19 57.48 144.7 54.4 146.66 54.53 123.71 50.34 120.83 45.94 122.8"/><path class="cls-6" d="M54.53,123.71l-4.19,2Q45.75,127,44,122.14l1.9.66,4.4-2Z"/><polygon class="cls-51" points="45.94 118.2 40.3 115.71 46.86 113.03 52.44 115.58 45.94 118.2"/><polygon class="cls-52" points="88.37 165.03 88.5 142.07 84.3 139.19 79.91 141.16 79.91 136.57 86.4 133.94 91.58 137.16 91.39 137.55 91.45 163.06 88.37 165.03"/><polygon class="cls-51" points="86.4 133.94 79.91 136.57 74.27 134.07 80.83 131.38 86.4 133.94"/><path class="cls-53" d="M84.3,144.11l4.2-2-.13,23-4.13-2.36Zm-4.39-3L78,140.5l-3.74-1.31v-5.12l5.64,2.5Z"/><path class="cls-6" d="M78,140.5l1.9.66,4.39-2,4.2,2.88-4.2,2Q79.71,145.35,78,140.5Z"/></svg>