
<svg xmlns="http://www.w3.org/2000/svg" version="1.1" xmlns:xlink="http://www.w3.org/1999/xlink" preserveAspectRatio="none" x="0px" y="0px" width="1024px" height="1024px" viewBox="0 0 1024 1024">
<defs>
<linearGradient id="Gradient_1" gradientUnits="userSpaceOnUse" x1="490.3375" y1="41.8125" x2="472.0625" y2="73.4875" spreadMethod="pad">
<stop  offset="6.666666666666667%" stop-color="#8E8EEF"/>

<stop  offset="65.49019607843137%" stop-color="#817FEF"/>

<stop  offset="67.45098039215686%" stop-color="#7473EC"/>

<stop  offset="70.58823529411765%" stop-color="#8E8EEF"/>

<stop  offset="78.43137254901961%" stop-color="#8E8EEF"/>
</linearGradient>

<linearGradient id="Gradient_2" gradientUnits="userSpaceOnUse" x1="457.7" y1="78.6375" x2="457.7" y2="74.8625" spreadMethod="pad">
<stop  offset="3.9215686274509802%" stop-color="#A0A6BF"/>

<stop  offset="100%" stop-color="#B3B7CA"/>
</linearGradient>

<linearGradient id="Gradient_3" gradientUnits="userSpaceOnUse" x1="444.575" y1="70.8" x2="471.02500000000003" y2="70.8" spreadMethod="pad">
<stop  offset="0%" stop-color="#BFC1D0"/>

<stop  offset="3.9215686274509802%" stop-color="#A0A6BF"/>

<stop  offset="43.92156862745098%" stop-color="#A0A6BF"/>

<stop  offset="52.549019607843135%" stop-color="#CFCFDA"/>

<stop  offset="56.86274509803921%" stop-color="#CFCFDA"/>

<stop  offset="60%" stop-color="#C4C8D7"/>

<stop  offset="92.94117647058823%" stop-color="#C4C8D7"/>

<stop  offset="96.47058823529412%" stop-color="#BEC3D3"/>

<stop  offset="100%" stop-color="#B3B7CA"/>
</linearGradient>

<linearGradient id="Gradient_4" gradientUnits="userSpaceOnUse" x1="442.1125" y1="68.375" x2="418.4875" y2="109.32499999999999" spreadMethod="pad">
<stop  offset="21.568627450980394%" stop-color="#8E8EEF"/>

<stop  offset="24.705882352941178%" stop-color="#8E8EEF"/>

<stop  offset="30.980392156862745%" stop-color="#7473EC"/>

<stop  offset="38.431372549019606%" stop-color="#7473EC"/>

<stop  offset="43.13725490196079%" stop-color="#817FEF"/>

<stop  offset="93.33333333333333%" stop-color="#8E8EEF"/>
</linearGradient>

<g id="Layer0_0_MEMBER_0_FILL">
<path fill="#F5F2E8" stroke="none" d="
M 431.65 71.5
Q 427.05 74.15 426.65 77.7 426.2 81.2 430.15 83.5
L 446.55 92.95
Q 450.5 95.25 456.65 95 462.75 94.75 467.35 92.1
L 480.55 84.5
Q 485.15 81.85 485.6 78.3 486 74.8 482.05 72.5
L 465.65 63
Q 461.65 60.7 455.55 61 449.4 61.25 444.85 63.9
L 431.65 71.5 Z"/>
</g>

<g id="Layer0_0_MEMBER_1_MEMBER_0_MEMBER_0_FILL">
<path fill="#848389" stroke="none" d="
M 433.45 70.15
Q 429 72.75 428.55 76.15 428.15 79.6 432 81.85
L 447.9 91.05
Q 451.75 93.25 457.7 93.05 463.65 92.8 468.15 90.2
L 480.9 82.8
Q 485.4 80.2 485.85 76.8 486.25 73.35 482.4 71.15
L 466.45 61.95
Q 462.6 59.7 456.65 59.95 450.7 60.2 446.25 62.8
L 433.45 70.15 Z"/>
</g>

<g id="Layer0_0_MEMBER_1_MEMBER_0_MEMBER_1_FILL">
<path fill="#46454E" stroke="none" d="
M 432.4 71.75
Q 428.05 74.3 428.05 76.25 428.05 78.1 432 80.4
L 447.9 89.55
Q 451.75 91.8 457.7 91.55 463.65 91.35 468.15 88.75
L 480.9 81.35
Q 485.6 78.65 486.6 75.75 487.65 72.7 483.95 70.55
L 466.45 60.5
Q 462.6 58.25 456.65 58.5 450.7 58.75 446.25 61.35
L 432.4 71.75 Z"/>
</g>

<g id="Layer0_0_MEMBER_1_MEMBER_0_MEMBER_2_FILL">
<path fill="#3A4251" stroke="none" d="
M 432.5 67.4
Q 427.85 70.1 427.4 73.65 427 77.2 431 79.55
L 447.55 89.1
Q 451.55 91.4 457.75 91.15 463.9 90.9 468.55 88.25
L 481.85 80.55
Q 486.5 77.9 486.95 74.3 487.4 70.7 483.35 68.4
L 466.85 58.85
Q 462.8 56.55 456.65 56.8 450.45 57.05 445.8 59.75
L 432.5 67.4 Z"/>
</g>

<g id="Layer0_0_MEMBER_1_MEMBER_0_MEMBER_3_FILL">
<path fill="#444C5A" stroke="none" d="
M 432.75 66.75
Q 428.15 69.35 427.7 72.9 427.25 76.45 431.25 78.75
L 447.65 88.2
Q 451.65 90.5 457.75 90.25 463.85 90 468.45 87.35
L 481.6 79.75
Q 486.2 77.1 486.65 73.55 487.1 70 483.1 67.7
L 466.75 58.25
Q 462.75 55.95 456.65 56.25 450.5 56.5 445.9 59.15
L 432.75 66.75 Z"/>
</g>

<g id="Layer0_0_MEMBER_1_MEMBER_0_MEMBER_4_FILL">
<path fill="#5B626E" stroke="none" d="
M 434.55 66.55
Q 430.3 69 429.9 72.25 429.45 75.55 433.15 77.65
L 448.35 86.45
Q 452.05 88.55 457.7 88.3 463.35 88.1 467.6 85.65
L 479.8 78.6
Q 484.1 76.1 484.5 72.85 484.9 69.6 481.2 67.45
L 466.05 58.7
Q 462.35 56.55 456.7 56.8 451 57.05 446.75 59.5
L 434.55 66.55 Z"/>
</g>

<g id="Layer0_0_MEMBER_1_MEMBER_0_MEMBER_5_MEMBER_0_FILL">
<path fill="#A0A6BF" stroke="none" d="
M 456.1 72
L 461.65 74.55 457.85 70.95 456.1 72 Z"/>
</g>

<g id="Layer0_0_MEMBER_1_MEMBER_0_MEMBER_5_MEMBER_1_FILL">
<path fill="#A0A6BF" stroke="none" d="
M 452.7 70.15
L 456.5 73.7 458.25 72.7 452.7 70.15 Z"/>
</g>

<g id="Layer0_0_MEMBER_1_MEMBER_0_MEMBER_6_MEMBER_0_FILL">
<path fill="#718198" stroke="none" d="
M 443.85 79.25
Q 443.6 79.4 443.6 79.65 443.6 79.85 443.85 80 444.5 80.35 445.15 80 445.4 79.85 445.4 79.65 445.4 79.4 445.15 79.25 444.9 79.1 444.5 79.1 444.1 79.1 443.85 79.25 Z"/>
</g>

<g id="Layer0_0_MEMBER_1_MEMBER_0_MEMBER_6_MEMBER_1_FILL">
<path fill="#718198" stroke="none" d="
M 470.5 65.35
Q 471.1 65 470.5 64.6 470.25 64.45 469.85 64.45 469.45 64.45 469.2 64.6 468.95 64.75 468.95 65 468.95 65.2 469.25 65.35 469.9 65.7 470.5 65.35 Z"/>
</g>

<g id="Layer0_0_MEMBER_1_MEMBER_0_MEMBER_6_MEMBER_2_FILL">
<path fill="#718198" stroke="none" d="
M 473.2 67.6
Q 473.95 67.35 473.5 66.9 473.05 66.45 472.3 66.7 471.5 66.95 471.95 67.4 472.4 67.85 473.2 67.6 Z"/>
</g>

<g id="Layer0_0_MEMBER_1_MEMBER_0_MEMBER_6_MEMBER_3_FILL">
<path fill="#718198" stroke="none" d="
M 474.8 70.15
Q 475.15 70.1 475.35 69.9 475.5 69.7 475.4 69.5 475.2 69.05 474.3 69.15 473.5 69.35 473.65 69.8 473.95 70.3 474.8 70.15 Z"/>
</g>

<g id="Layer0_0_MEMBER_1_MEMBER_0_MEMBER_6_MEMBER_4_FILL">
<path fill="#718198" stroke="none" d="
M 475.15 72.85
Q 476.05 72.85 476.05 72.35 476.05 71.8 475.15 71.8 474.25 71.8 474.25 72.35 474.25 72.85 475.15 72.85 Z"/>
</g>

<g id="Layer0_0_MEMBER_1_MEMBER_0_MEMBER_6_MEMBER_5_FILL">
<path fill="#718198" stroke="none" d="
M 474.35 75.55
Q 475.2 75.65 475.45 75.15 475.55 74.95 475.35 74.8 475.15 74.6 474.8 74.55 473.95 74.4 473.7 74.9 473.4 75.35 474.35 75.55 Z"/>
</g>

<g id="Layer0_0_MEMBER_1_MEMBER_0_MEMBER_6_MEMBER_6_FILL">
<path fill="#718198" stroke="none" d="
M 472.35 78
Q 473.1 78.25 473.55 77.8 474 77.35 473.25 77.1 472.45 76.85 472 77.25 471.8 77.45 471.9 77.65 472 77.9 472.35 78 Z"/>
</g>

<g id="Layer0_0_MEMBER_1_MEMBER_0_MEMBER_6_MEMBER_7_FILL">
<path fill="#718198" stroke="none" d="
M 469.7 80.05
Q 470.35 80.4 471 80.05 471.25 79.9 471.25 79.7 471.25 79.45 471 79.3 470.75 79.15 470.35 79.15 469.95 79.15 469.7 79.3 469.45 79.45 469.45 79.7 469.45 79.9 469.7 80.05 Z"/>
</g>

<g id="Layer0_0_MEMBER_1_MEMBER_0_MEMBER_6_MEMBER_8_FILL">
<path fill="#718198" stroke="none" d="
M 465.45 81.6
Q 465.9 82.05 466.7 81.75 467 81.7 467.1 81.45 467.2 81.25 467 81.05 466.6 80.65 465.75 80.85 465.45 80.95 465.35 81.2 465.25 81.4 465.45 81.6 Z"/>
</g>

<g id="Layer0_0_MEMBER_1_MEMBER_0_MEMBER_6_MEMBER_9_FILL">
<path fill="#718198" stroke="none" d="
M 461 82.5
Q 461.3 83 462.15 82.85 462.5 82.8 462.7 82.6 462.85 82.4 462.75 82.2 462.65 82 462.35 81.9 462 81.8 461.65 81.85 460.8 81.95 461 82.5 Z"/>
</g>

<g id="Layer0_0_MEMBER_1_MEMBER_0_MEMBER_6_MEMBER_10_FILL">
<path fill="#718198" stroke="none" d="
M 456.35 82.7
Q 456.35 83.2 457.25 83.2 458.15 83.2 458.15 82.7 458.15 82.15 457.25 82.15 456.35 82.15 456.35 82.7 Z"/>
</g>

<g id="Layer0_0_MEMBER_1_MEMBER_0_MEMBER_6_MEMBER_11_FILL">
<path fill="#718198" stroke="none" d="
M 451.7 82.2
Q 451.5 82.7 452.35 82.85 453.2 82.95 453.45 82.45 453.55 82.25 453.35 82.1 453.15 81.9 452.8 81.85 451.95 81.65 451.7 82.2 Z"/>
</g>

<g id="Layer0_0_MEMBER_1_MEMBER_0_MEMBER_6_MEMBER_12_FILL">
<path fill="#718198" stroke="none" d="
M 447.45 81
Q 447.25 81.2 447.35 81.4 447.45 81.65 447.8 81.75 448.55 82 449 81.55 449.45 81.1 448.7 80.85 447.9 80.6 447.45 81 Z"/>
</g>

<g id="Layer0_0_MEMBER_1_MEMBER_0_MEMBER_6_MEMBER_13_FILL">
<path fill="#718198" stroke="none" d="
M 441.2 77
Q 440.85 77.1 440.75 77.35 440.65 77.55 440.85 77.75 441.3 78.2 442.1 77.9 442.4 77.85 442.5 77.6 442.6 77.4 442.4 77.2 442 76.8 441.2 77 Z"/>
</g>

<g id="Layer0_0_MEMBER_1_MEMBER_0_MEMBER_6_MEMBER_14_FILL">
<path fill="#718198" stroke="none" d="
M 439.6 74.45
Q 438.8 74.6 438.95 75.1 439.25 75.65 440.05 75.45 440.4 75.4 440.6 75.25 440.8 75.05 440.7 74.85 440.45 74.35 439.6 74.45 Z"/>
</g>

<g id="Layer0_0_MEMBER_1_MEMBER_0_MEMBER_6_MEMBER_15_FILL">
<path fill="#718198" stroke="none" d="
M 439.2 71.75
Q 438.3 71.75 438.3 72.25 438.3 72.8 439.2 72.8 440.1 72.8 440.1 72.25 440.1 71.75 439.2 71.75 Z"/>
</g>

<g id="Layer0_0_MEMBER_1_MEMBER_0_MEMBER_6_MEMBER_16_FILL">
<path fill="#718198" stroke="none" d="
M 440.05 69.1
Q 439.15 68.9 438.95 69.45 438.7 69.9 439.55 70.1 440.5 70.2 440.65 69.7 440.75 69.5 440.6 69.35 440.4 69.15 440.05 69.1 Z"/>
</g>

<g id="Layer0_0_MEMBER_1_MEMBER_0_MEMBER_6_MEMBER_17_FILL">
<path fill="#718198" stroke="none" d="
M 442.05 66.65
Q 441.25 66.4 440.8 66.8 440.6 67 440.7 67.2 440.8 67.45 441.15 67.55 441.9 67.8 442.35 67.35 442.8 66.9 442.05 66.65 Z"/>
</g>

<g id="Layer0_0_MEMBER_1_MEMBER_0_MEMBER_6_MEMBER_18_FILL">
<path fill="#718198" stroke="none" d="
M 445.05 64.55
Q 444.8 64.4 444.45 64.4 444.05 64.4 443.8 64.55 443.55 64.7 443.55 64.95 443.55 65.15 443.8 65.3 444.45 65.65 445.1 65.3 445.7 64.95 445.05 64.55 Z"/>
</g>

<g id="Layer0_0_MEMBER_1_MEMBER_0_MEMBER_6_MEMBER_19_FILL">
<path fill="#718198" stroke="none" d="
M 448.95 63.05
Q 448.5 62.6 447.7 62.85 446.95 63.1 447.4 63.55 447.85 64 448.6 63.75 449.4 63.5 448.95 63.05 Z"/>
</g>

<g id="Layer0_0_MEMBER_1_MEMBER_0_MEMBER_6_MEMBER_20_FILL">
<path fill="#718198" stroke="none" d="
M 453.35 62.15
Q 453.2 61.65 452.25 61.75 451.4 61.9 451.6 62.4 451.85 62.95 452.7 62.75 453.05 62.7 453.25 62.55 453.45 62.35 453.35 62.15 Z"/>
</g>

<g id="Layer0_0_MEMBER_1_MEMBER_0_MEMBER_6_MEMBER_21_FILL">
<path fill="#718198" stroke="none" d="
M 458.05 61.95
Q 458.05 61.4 457.15 61.4 456.25 61.4 456.25 61.95 456.25 62.45 457.15 62.45 458.05 62.45 458.05 61.95 Z"/>
</g>

<g id="Layer0_0_MEMBER_1_MEMBER_0_MEMBER_6_MEMBER_22_FILL">
<path fill="#718198" stroke="none" d="
M 462.65 62.45
Q 462.75 62.25 462.6 62.05 462.4 61.85 462.05 61.8 461.7 61.75 461.35 61.85 461.05 61.95 460.95 62.15 460.7 62.6 461.55 62.8 462.45 62.9 462.65 62.45 Z"/>
</g>

<g id="Layer0_0_MEMBER_1_MEMBER_0_MEMBER_6_MEMBER_23_FILL">
<path fill="#718198" stroke="none" d="
M 466.9 63.6
Q 467.35 63.15 466.6 62.9 465.8 62.65 465.35 63.1 464.9 63.55 465.7 63.8 466.5 64.1 466.9 63.6 Z"/>
</g>

<g id="Layer0_0_MEMBER_1_MEMBER_0_MEMBER_7_FILL">
<path fill="#6C727E" stroke="none" d="
M 484.45 71.5
L 484.15 73.7
Q 483.4 76.2 480.95 77.7 478.5 79.25 472.3 82.8
L 466.6 86.05
Q 465.05 86.65 462.9 87.25 458.6 88.45 455.65 88.3
L 456.7 88.4
Q 458.05 88.5 459.35 88.45 465.15 88.3 470.35 85.05 471.8 84.15 481.55 78.5 483.1 77.5 483.95 76.05 485.2 73.95 484.45 71.5 Z"/>
</g>

<g id="Layer0_0_MEMBER_1_MEMBER_1_FILL">
<path fill="#404C62" stroke="none" d="
M 472.2 66.75
L 468.95 68.6 468.35 70.95 472.65 68.45
Q 477.05 65.95 477.6 65.9 478.1 65.85 479.1 66.45 480.15 67.1 480.4 67.15 481.05 67.3 482.15 67.15
L 478.65 65.2
Q 478.4 64.8 476.7 64.85 475.65 64.9 472.2 66.75 Z"/>
</g>

<g id="Layer0_0_MEMBER_1_MEMBER_2_FILL">
<path fill="#6C798A" stroke="none" d="
M 444.6 71.25
Q 444.55 72.7 444.8 73.2 445.15 73.65 445.5 73.85
L 455.85 79.85
Q 456.7 80.3 457.8 80.3 458.95 80.3 459.75 79.85
L 470.05 73.9
Q 470.6 73.6 470.75 73.15 471.35 72.15 470.8 69.8 470.5 69.7 466.65 69.7
L 459.7 65.65
Q 458.9 65.2 457.75 65.2 456.6 65.2 455.8 65.65
L 448.55 69.85 444.7 69.9 444.6 71.25 Z"/>
</g>

<g id="Layer0_0_MEMBER_1_MEMBER_3_FILL">
<path fill="#404C62" stroke="none" d="
M 455.2 77
L 447.6 78.6 443.6 85.9 445.9 87.2 446.55 85.4
Q 447.05 84.1 447.1 83.95 447.45 83.2 448.05 82.7 449 81.9 455.2 78.6
L 455.2 77 Z"/>
</g>

<g id="Layer0_0_MEMBER_1_MEMBER_4_MEMBER_0_FILL">
<path fill="#7473EC" stroke="none" d="
M 471.15 60.9
L 471 61 470.3 61.75 476.9 65.05 476.95 65.05 477.15 65 478.1 65.05 478.35 65.1 478.4 65.1 479.2 65.45 480.5 66.2 480.4 65.7 480.4 65.55 480.2 64.6 471.15 60.9 Z"/>
</g>

<g id="Layer0_0_MEMBER_1_MEMBER_4_MEMBER_1_FILL">
<path fill="#6969D6" stroke="none" d="
M 504.7 53.5
Q 504.95 51.6 503.3 50.6
L 502.35 50.05
Q 500.35 48.85 497.95 48.85 495.6 48.85 493.55 50.05
L 476.2 60.05
Q 474.3 61.9 473.35 62.1
L 469.05 59.6 466.8 59.9 467 60.1
Q 466.45 60.3 463.25 62.05
L 460.15 63.75 468.75 68.75 476.05 64.7 477.3 64.35 480.05 65.7 483.9 66.15 488.05 64.4 503.3 55.6
Q 504.55 54.9 504.7 53.5 Z"/>
</g>

<g id="Layer0_0_MEMBER_1_MEMBER_4_MEMBER_2_FILL">
<path fill="#6969D6" stroke="none" d="
M 502.65 54.3
L 504.75 53.1 504.75 51.65 502.05 51.65 502.65 54.3 Z"/>
</g>

<g id="Layer0_0_MEMBER_1_MEMBER_4_MEMBER_3_FILL">
<path fill="url(#Gradient_1)" stroke="none" d="
M 497.85 47.55
Q 496.5 47.55 495 48.05 495 48 482.75 54.95
L 474.7 59.6
Q 473.9 60.05 473.3 60.05
L 473.05 60.1 472.9 60.05 470.15 58.4 470.1 58.4
Q 468.05 57.35 465.55 58.75
L 457.15 63.6 457.15 64.9 460.7 62.85 468.75 68.75 477.35 64.4 477.65 64.3 480.4 65.6 483.35 66.55 488.05 63.15 503.3 54.3
Q 504.75 53.5 504.75 51.8 504.75 50.15 503.3 49.3
L 502.35 48.75
Q 500.25 47.55 497.85 47.55 Z"/>
</g>

<g id="Layer0_0_MEMBER_1_MEMBER_4_MEMBER_4_MEMBER_0_FILL">
<path fill="#6969D6" stroke="none" d="
M 503.3 55.6
Q 504.55 54.9 504.7 53.5
L 484.35 65.25
Q 482.5 66.35 480.7 64.7 479.3 63.45 477.7 63.6 476.65 63.6 475.4 64.3
L 475.25 64.4 469.25 67.8 466.8 69.25 466.8 70.55 470.85 68.2 470.9 68.2 475.25 65.7
Q 475.9 65.3 476.55 65.15
L 476.85 65.05 476.95 65.05 477.15 65 478.1 65.05 478.35 65.1 478.4 65.1 479.2 65.45 482.15 67.15
Q 483.2 67.25 484.35 66.55
L 503.3 55.6 Z"/>
</g>

<g id="Layer0_0_MEMBER_1_MEMBER_4_MEMBER_5_MEMBER_0_MEMBER_0_FILL">
<path fill="url(#Gradient_2)" stroke="none" d="
M 470.65 71.45
L 461.5 75.05
Q 460.4 75.45 459.2 75.95 456.8 76.95 456.35 77.55 447.15 71.7 444.8 71.25 445.45 72.35 449.1 74.65 452.45 76.75 454.6 77.65 457.15 78.75 457.9 78.55 458.8884765625 78.5826171875 460.4 77.9 461.65 77.3 465.05 75.35 470.55 72.2 470.65 71.45 Z"/>
</g>

<g id="Layer0_0_MEMBER_1_MEMBER_4_MEMBER_5_MEMBER_0_MEMBER_1_FILL">
<path fill="url(#Gradient_3)" stroke="none" d="
M 444.6 69.3
Q 444.55 70.75 444.8 71.25 445.05 71.65 445.5 71.9
L 455.85 77.9
Q 456.7 78.35 457.8 78.35 458.95 78.35 459.75 77.9
L 470.05 71.95
Q 470.6 71.65 470.75 71.2 471.35 70.2 470.8 67.85 470.2 67.75 466.65 67.75
L 459.7 63.7
Q 458.9 63.25 457.75 63.25 456.6 63.25 455.8 63.7
L 448.55 67.9 444.7 67.95 444.6 69.3 Z"/>
</g>

<g id="Layer0_0_MEMBER_1_MEMBER_4_MEMBER_5_MEMBER_0_MEMBER_2_MEMBER_0_FILL">
<path fill="#EFF0F5" stroke="none" d="
M 464 74.35
Q 464 74.8 464.45 74.55
L 467.85 72.65
Q 468.3 72.3 468.3 71.85 468.3 71.4 467.85 71.65
L 464.45 73.6
Q 464 73.85 464 74.35 Z"/>
</g>

<g id="Layer0_0_MEMBER_1_MEMBER_4_MEMBER_5_MEMBER_0_MEMBER_2_MEMBER_1_FILL">
<path fill="#C4C8D7" stroke="none" d="
M 464.15 74.45
Q 464.15 74.65 464.3 74.7 464.45 74.75 464.65 74.65
L 468 72.7
Q 468.5 72.45 468.5 71.95 468.5 71.5 468 71.75
L 464.65 73.7
Q 464.15 74 464.15 74.45 Z"/>
</g>

<g id="Layer0_0_MEMBER_1_MEMBER_4_MEMBER_5_MEMBER_0_MEMBER_2_MEMBER_2_FILL">
<path fill="#3A3F47" stroke="none" d="
M 462.65 75.65
L 462.75 75.4
Q 462.75 75.2 462.65 75.3 462.5 75.4 462.5 75.55 462.5 75.75 462.65 75.65 Z"/>
</g>

<g id="Layer0_0_MEMBER_1_MEMBER_4_MEMBER_5_MEMBER_0_MEMBER_2_MEMBER_3_FILL">
<path fill="#3A3F47" stroke="none" d="
M 462.1 75.95
Q 462.25 75.8 462.25 75.7 462.25 75.45 462.1 75.6 461.95 75.7 461.95 75.85 461.95 76.05 462.1 75.95 Z"/>
</g>

<g id="Layer0_0_MEMBER_1_MEMBER_4_MEMBER_5_MEMBER_0_MEMBER_2_MEMBER_4_FILL">
<path fill="#3A3F47" stroke="none" d="
M 461.55 76.25
Q 461.7 76.2 461.7 76 461.7 75.85 461.55 75.9 461.4 76 461.4 76.15 461.4 76.35 461.55 76.25 Z"/>
</g>

<g id="Layer0_0_MEMBER_1_MEMBER_4_MEMBER_5_MEMBER_0_MEMBER_3_MEMBER_0_FILL">
<path fill="#EFF0F5" stroke="none" d="
M 470.85 68.1
Q 470.85 67.45 470.05 66.95
L 459.7 61
Q 458.9 60.5 457.75 60.5 456.6 60.5 455.8 61
L 445.5 66.95
Q 444.7 67.4 444.7 68.05 444.7 68.7 445.5 69.15
L 455.85 75.15
Q 456.7 75.65 457.8 75.65 458.95 75.65 459.75 75.15
L 470.05 69.2
Q 470.85 68.75 470.85 68.1 Z"/>
</g>

<g id="Layer0_0_MEMBER_1_MEMBER_4_MEMBER_5_MEMBER_0_MEMBER_3_MEMBER_1_FILL">
<path fill="#3A3F47" stroke="none" d="
M 470 68.1
Q 470 67.6 469.4 67.25
L 459.15 61.35
Q 458.6 61 457.75 61 456.9 61 456.3 61.35
L 446.1 67.2
Q 445.55 67.6 445.55 68.05 445.55 68.55 446.15 68.9
L 456.35 74.8
Q 456.95 75.15 457.8 75.15 458.65 75.15 459.25 74.8
L 469.4 68.9
Q 470 68.55 470 68.1 Z"/>
</g>

<g id="Layer0_0_MEMBER_1_MEMBER_4_MEMBER_5_MEMBER_0_MEMBER_3_MEMBER_2_FILL">
<path fill="#3A3F47" stroke="none" d="
M 469.55 68
Q 469.55 67.55 469 67.2
L 459.3 61.6
Q 457.95 60.9 456.6 61.6
L 447 67.15
Q 446.45 67.5 446.45 67.95 446.45 68.4 447 68.75
L 456.65 74.3
Q 457.2 74.65 458 74.65 458.85 74.65 459.35 74.3
L 469 68.75
Q 469.55 68.45 469.55 68 Z"/>
</g>

<g id="Layer0_0_MEMBER_1_MEMBER_4_MEMBER_5_MEMBER_1_MEMBER_0_MEMBER_0_FILL">
<path fill="#FEC2E2" stroke="none" d="
M 456.4 69.95
Q 456.05 69.8 455.8 69.95
L 455 70.4
Q 454.7 70.6 455.05 70.75
L 455.8 71.2
Q 456.1 71.4 456.4 71.2
L 457.15 70.75
Q 457.4 70.6 457.15 70.4
L 456.4 69.95 Z"/>
</g>

<g id="Layer0_0_MEMBER_1_MEMBER_4_MEMBER_5_MEMBER_1_MEMBER_1_FILL">
<path fill="#FC4E4F" stroke="none" d="
M 455.5 70.65
Q 455.5 70.8 455.55 70.9
L 456.65 70.8 456.7 70.8
Q 456.95 70.65 456.7 70.45
L 456.4 70.4
Q 456.4 70.3 456.25 70.2 456 70.1 455.7 70.2
L 455.7 70.25 455.65 70.25
Q 455.5 70.35 455.5 70.65 Z"/>
</g>

<g id="Layer0_0_MEMBER_1_MEMBER_4_MEMBER_5_MEMBER_2_MEMBER_0_FILL">
<path fill="#23DC92" stroke="none" d="
M 461.8 68.85
L 460.75 69.45
Q 460.25 69.8 460.65 70.05
L 461.9 70.75
Q 462.4 71.05 462.95 70.7
L 464 70.1
Q 464.25 70 464.25 69.8 464.3 69.6 464.1 69.5
L 462.85 68.8
Q 462.35 68.5 461.8 68.85 Z"/>
</g>

<g id="Layer0_0_MEMBER_1_MEMBER_4_MEMBER_5_MEMBER_2_MEMBER_1_MEMBER_0_MEMBER_0_FILL">
<path fill="#C1C5D4" stroke="none" d="
M 462.55 70.35
L 462.55 70.1 462.2 70.1 462.2 70.35 462.55 70.35 Z"/>
</g>

<g id="Layer0_0_MEMBER_1_MEMBER_4_MEMBER_5_MEMBER_2_MEMBER_1_MEMBER_0_MEMBER_1_FILL">
<path fill="#FDB24A" stroke="none" d="
M 462.6 70.65
L 462.55 70.35 462.2 70.35 462.2 70.65 462.4 70.75 462.6 70.65 Z"/>
</g>

<g id="Layer0_0_MEMBER_1_MEMBER_4_MEMBER_5_MEMBER_2_MEMBER_1_MEMBER_0_MEMBER_2_FILL">
<path fill="#F1F2F6" stroke="none" d="
M 463.35 69.6
Q 463.35 69.05 462.4 69.05 461.45 69.05 461.45 69.6 461.45 70.15 462.4 70.15 463.35 70.15 463.35 69.6 Z"/>
</g>

<g id="Layer0_0_MEMBER_1_MEMBER_4_MEMBER_5_MEMBER_2_MEMBER_1_MEMBER_0_MEMBER_3_FILL">
<path fill="#84D1ED" stroke="none" d="
M 463.15 69.6
Q 463.15 69.15 462.4 69.15 461.6 69.15 461.6 69.6 461.6 70.05 462.4 70.05 463.15 70.05 463.15 69.6 Z"/>
</g>

<g id="Layer0_0_MEMBER_1_MEMBER_4_MEMBER_5_MEMBER_2_MEMBER_1_MEMBER_1_FILL">
<path fill="#B9E5F5" stroke="none" d="
M 462.8 69.4
Q 462.95 69.25 462.55 69.25 462.25 69.15 462.2 69.3 462.05 69.45 462.45 69.45 462.7 69.55 462.8 69.4 Z"/>
</g>

<g id="Layer0_0_MEMBER_1_MEMBER_4_MEMBER_5_MEMBER_3_MEMBER_0_FILL">
<path fill="#84D1ED" stroke="none" d="
M 462.8 64.85
L 461.6 64.15
Q 461.05 63.85 460.55 64.2
L 459.5 64.8
Q 459.25 64.9 459.25 65.1 459.25 65.3 459.45 65.4
L 460.65 66.1
Q 461.05 66.35 461.65 66.05
L 462.7 65.45
Q 463.2 65.1 462.8 64.85 Z"/>
</g>

<g id="Layer0_0_MEMBER_1_MEMBER_4_MEMBER_5_MEMBER_3_MEMBER_1_FILL">
<path fill="#F43C41" stroke="none" d="
M 461.15 65.25
L 462.55 64.95 461.05 65 461.15 65.25 Z"/>
</g>

<g id="Layer0_0_MEMBER_1_MEMBER_4_MEMBER_5_MEMBER_3_MEMBER_2_FILL">
<path fill="#F1F2F6" stroke="none" d="
M 461.05 65
L 459.6 65.3 461.15 65.25 461.05 65 Z"/>
</g>

<g id="Layer0_0_MEMBER_1_MEMBER_4_MEMBER_5_MEMBER_3_MEMBER_3_FILL">
<path fill="#F1F2F6" stroke="none" d="
M 461.35 65.2
Q 461.5 65.05 461.25 64.95
L 460.85 65
Q 460.75 65.2 460.95 65.25 461.2 65.35 461.35 65.2 Z"/>
</g>

<g id="Layer0_0_MEMBER_1_MEMBER_4_MEMBER_5_MEMBER_3_MEMBER_4_FILL">
<path fill="#F43C41" stroke="none" d="
M 461.2 65.15
Q 461.3 65.05 461.2 65.05
L 461 65.05
Q 460.95 65.15 461 65.2 461.2 65.2 461.2 65.15 Z"/>
</g>

<g id="Layer0_0_MEMBER_1_MEMBER_4_MEMBER_5_MEMBER_4_MEMBER_0_FILL">
<path fill="#CC783E" stroke="none" d="
M 452.5 67.85
Q 452.95 68.1 453.45 67.8
L 454.45 67.25
Q 454.95 66.9 454.5 66.65
L 453.4 66
Q 453 65.75 452.4 66.05
L 451.45 66.6
Q 450.95 66.95 451.35 67.2
L 452.5 67.85 Z"/>
</g>

<g id="Layer0_0_MEMBER_1_MEMBER_4_MEMBER_5_MEMBER_4_MEMBER_1_FILL">
<path fill="#FEE24F" stroke="none" d="
M 454.15 66.8
Q 454.2 66.75 454.1 66.75
L 453.85 66.75 453.7 66.7 453.6 66.75 453.6 66.85 453.45 66.9
Q 453.35 67 453.45 67
L 453.65 67 453.65 67.05 453.75 67.15 453.85 67.15 453.95 67.05 454.15 67.05 454.25 67 454.1 66.9 454.15 66.8 Z"/>
</g>

<g id="Layer0_0_MEMBER_1_MEMBER_4_MEMBER_5_MEMBER_4_MEMBER_2_FILL">
<path fill="#FEE24F" stroke="none" d="
M 453 66.6
L 452.7 66.65 452.6 66.65 452.35 66.55
Q 452.15 66.45 452.15 66.6
L 452.15 66.75 452.1 66.8 451.85 66.95
Q 451.8 67.05 451.85 67.05
L 452.2 67.1 452.25 67.15 452.35 67.35
Q 452.45 67.45 452.55 67.35
L 452.75 67.2 452.85 67.15 453.15 67.15
Q 453.35 67.15 453.25 67.05
L 453.05 66.9 453.05 66.85 453.15 66.7
Q 453.25 66.45 453 66.6 Z"/>
</g>

<g id="Layer0_0_MEMBER_1_MEMBER_4_MEMBER_5_MEMBER_5_MEMBER_0_FILL">
<path fill="#F1F2F6" stroke="none" d="
M 450.3 66.5
Q 450.65 66.7 450.95 66.5
L 451.6 66.1
Q 452 65.9 451.65 65.75
L 450.9 65.3
Q 450.65 65.15 450.25 65.35
L 449.6 65.7
Q 449.25 65.9 449.55 66.1
L 450.3 66.5 Z"/>
</g>

<g id="Layer0_0_MEMBER_1_MEMBER_4_MEMBER_5_MEMBER_5_MEMBER_1_FILL">
<path fill="#F43C41" stroke="none" d="
M 451.15 66.25
Q 451.7 65.95 451.15 65.6 450.6 65.25 450.05 65.6 449.85 65.7 449.85 65.9 449.85 66.1 450.05 66.25 450.6 66.55 451.15 66.25 Z"/>
</g>

<g id="Layer0_0_MEMBER_1_MEMBER_4_MEMBER_5_MEMBER_5_MEMBER_2_MEMBER_0_FILL">
<path fill="#F1F2F6" stroke="none" d="
M 450.45 66.25
L 451.3 65.85 450.1 65.75 450.35 66 450.45 66.25 Z"/>
</g>

<g id="Layer0_0_MEMBER_1_MEMBER_4_MEMBER_5_MEMBER_5_MEMBER_2_MEMBER_1_FILL">
<path fill="#C4C8D7" stroke="none" d="
M 450.35 66
L 450.9 65.9 450.3 65.95 450.15 66.1 450.35 66.05 450.35 66 Z"/>
</g>

<g id="Layer0_0_MEMBER_1_MEMBER_4_MEMBER_5_MEMBER_6_MEMBER_0_FILL">
<path fill="#F43C41" stroke="none" d="
M 458.95 71.7
L 459.95 72.25
Q 460.25 72.45 460.75 72.25
L 461.6 71.75
Q 462.05 71.5 461.65 71.25
L 460.7 70.7
Q 460.35 70.45 459.85 70.75
L 459 71.2
Q 458.8 71.3 458.8 71.45 458.8 71.6 458.95 71.7 Z"/>
</g>

<g id="Layer0_0_MEMBER_1_MEMBER_4_MEMBER_5_MEMBER_6_MEMBER_1_MEMBER_0_FILL">
<path fill="#F1F2F6" stroke="none" d="
M 460.45 71.9
L 461.35 71.4 460.55 71.1 459.7 71.55 459.75 71.6 460.4 71.25 461.05 71.5 460.35 71.9 460.45 71.9 Z"/>
</g>

<g id="Layer0_0_MEMBER_1_MEMBER_4_MEMBER_5_MEMBER_6_MEMBER_1_MEMBER_1_FILL">
<path fill="#F1F2F6" stroke="none" d="
M 459.8 71.55
Q 459.95 71.4 459.65 71.4 459.45 71.35 459.3 71.45 459.25 71.55 459.5 71.65 459.8 71.65 459.8 71.55 Z"/>
</g>

<g id="Layer0_0_MEMBER_1_MEMBER_4_MEMBER_5_MEMBER_6_MEMBER_1_MEMBER_2_FILL">
<path fill="#F1F2F6" stroke="none" d="
M 460.5 71.85
Q 460.5 71.75 460.3 71.7 460 71.7 459.95 71.8 459.95 71.9 460.15 71.95 460.45 71.95 460.5 71.85 Z"/>
</g>

<g id="Layer0_0_MEMBER_1_MEMBER_4_MEMBER_5_MEMBER_7_MEMBER_0_FILL">
<path fill="#F43C41" stroke="none" d="
M 455.55 67.35
Q 455.15 67.6 455.15 67.9 455.1 68.2 455.45 68.4
L 457.5 69.6
Q 458.3 70.05 459.3 69.5
L 461.05 68.5
Q 461.45 68.3 461.5 67.95 461.55 67.65 461.2 67.45
L 459.15 66.25
Q 458.8 66.05 458.25 66.1 457.7 66.1 457.35 66.35
L 455.55 67.35 Z"/>
</g>

<g id="Layer0_0_MEMBER_1_MEMBER_4_MEMBER_5_MEMBER_7_MEMBER_1_FILL">
<path fill="#F1F2F6" stroke="none" d="
M 459.85 68.8
Q 460.5 68.45 460.5 67.95 460.5 67.45 459.85 67.05 459.2 66.7 458.3 66.7 457.4 66.7 456.8 67.05 456.15 67.4 456.15 67.9 456.15 68.45 456.8 68.8 457.45 69.2 458.35 69.2 459.2 69.2 459.85 68.8 Z"/>
</g>

<g id="Layer0_0_MEMBER_1_MEMBER_4_MEMBER_5_MEMBER_7_MEMBER_2_FILL">
<path fill="#D9CCDB" stroke="none" d="
M 458.7 68.05
Q 458.8 67.95 458.8 67.85 458.75 67.75 458.55 67.7 458.2 67.55 457.9 67.75 457.65 68 458.05 68.15 458.4 68.35 458.7 68.05 Z"/>
</g>

<g id="Layer0_0_MEMBER_1_MEMBER_4_MEMBER_5_MEMBER_7_MEMBER_3_FILL">
<path fill="#383838" stroke="none" d="
M 458.3 67.85
L 456.25 67.85 456.25 67.95 458.3 67.95 458.3 67.85 Z"/>
</g>

<g id="Layer0_0_MEMBER_1_MEMBER_4_MEMBER_5_MEMBER_7_MEMBER_4_FILL">
<path fill="#666666" stroke="none" d="
M 458.5 68
Q 458.7 67.9 458.45 67.8 458.15 67.7 458.1 67.85 457.95 67.95 458.15 68.05 458.4 68.15 458.5 68 Z"/>
</g>

<g id="Layer0_0_MEMBER_1_MEMBER_4_MEMBER_5_MEMBER_8_MEMBER_0_FILL">
<path fill="#F1F2F6" stroke="none" d="
M 448.8 69.2
Q 449.2 69.4 449.55 69.2
L 450.35 68.7
Q 450.8 68.55 450.4 68.25
L 449.5 67.75
Q 449.1 67.55 448.7 67.8
L 447.95 68.25
Q 447.5 68.45 447.85 68.7
L 448.8 69.2 Z"/>
</g>

<g id="Layer0_0_MEMBER_1_MEMBER_4_MEMBER_5_MEMBER_8_MEMBER_1_FILL">
<path fill="#FD8F8E" stroke="none" d="
M 449.25 67.85
Q 449.15 67.75 449 67.85
L 448.7 68.05
Q 448.25 68.2 448.8 68.2
L 449.45 68.2
Q 449.9 68.2 449.6 68.05
L 449.25 67.85 Z"/>
</g>

<g id="Layer0_0_MEMBER_1_MEMBER_4_MEMBER_5_MEMBER_8_MEMBER_2_FILL">
<path fill="#FD8F8E" stroke="none" d="
M 449 69.1
Q 449.15 69.2 449.25 69.1
L 449.6 68.9
Q 449.7 68.85 449.6 68.8 449.55 68.75 449.45 68.75
L 448.8 68.75
Q 448.7 68.75 448.65 68.8 448.6 68.85 448.7 68.9
L 449 69.1 Z"/>
</g>

<g id="Layer0_0_MEMBER_1_MEMBER_4_MEMBER_5_MEMBER_8_MEMBER_3_FILL">
<path fill="#FD8F8E" stroke="none" d="
M 449.25 67.85
Q 449.15 67.75 449 67.85
L 448.7 68.05
Q 448.25 68.2 448.8 68.2
L 449.45 68.2
Q 449.9 68.2 449.6 68.05
L 449.25 67.85 Z"/>
</g>

<g id="Layer0_0_MEMBER_1_MEMBER_4_MEMBER_5_MEMBER_8_MEMBER_4_FILL">
<path fill="#FD8F8E" stroke="none" d="
M 449 69.1
Q 449.15 69.2 449.25 69.1
L 449.6 68.9
Q 449.7 68.85 449.6 68.8 449.55 68.75 449.45 68.75
L 448.8 68.75
Q 448.7 68.75 448.65 68.8 448.6 68.85 448.7 68.9
L 449 69.1 Z"/>
</g>

<g id="Layer0_0_MEMBER_1_MEMBER_4_MEMBER_5_MEMBER_8_MEMBER_5_FILL">
<path fill="#FDCA58" stroke="none" d="
M 448.05 68.4
Q 448 68.5 448.05 68.55
L 448.35 68.75
Q 448.7 68.85 448.7 68.65
L 448.7 68.3
Q 448.6 68.1 448.35 68.2
L 448.05 68.4 Z"/>
</g>

<g id="Layer0_0_MEMBER_1_MEMBER_4_MEMBER_5_MEMBER_8_MEMBER_6_FILL">
<path fill="#FDCA58" stroke="none" d="
M 450.2 68.55
Q 450.35 68.5 450.2 68.4
L 449.9 68.2
Q 449.6 68.05 449.6 68.3
L 449.6 68.65
Q 449.6 68.9 449.9 68.75
L 450.2 68.55 Z"/>
</g>

<g id="Layer0_0_MEMBER_1_MEMBER_4_MEMBER_5_MEMBER_9_MEMBER_0_FILL">
<path fill="#84D1ED" stroke="none" d="
M 454.75 63.7
L 453.35 64.5
Q 453.1 64.65 453.15 64.85 453.15 65.05 453.4 65.15
L 454.8 65.95
Q 455.35 66.3 455.9 65.95
L 457.3 65.15 457.4 65.05
Q 457.75 64.8 457.3 64.5
L 455.9 63.7
Q 455.3 63.45 454.75 63.7 Z"/>
</g>

<g id="Layer0_0_MEMBER_1_MEMBER_4_MEMBER_5_MEMBER_9_MEMBER_1_FILL">
<path fill="#F1F2F6" stroke="none" d="
M 455.2 65.4
L 453.55 64.4 453.35 64.5
Q 453.1 64.65 453.15 64.85 453.15 65.05 453.4 65.15
L 454.1 65.6 455.2 65.4 Z"/>
</g>

<g id="Layer0_0_MEMBER_1_MEMBER_4_MEMBER_5_MEMBER_9_MEMBER_2_FILL">
<path fill="#7FCF57" stroke="none" d="
M 456.35 64.65
Q 457.4 65.1 457.4 65.05 457.75 64.8 457.3 64.5
L 455.9 63.7
Q 455.3 63.45 454.75 63.7
L 453.6 64.4 455.15 65.3 456.35 64.65 Z"/>
</g>

<g id="Layer0_0_MEMBER_1_MEMBER_4_MEMBER_5_MEMBER_9_MEMBER_3_FILL">
<path fill="#7FCF57" stroke="none" d="
M 457.3 65.15
L 457.4 65.05
Q 457.75 64.8 457.3 64.5
L 456.95 64.35 455.65 65.1 456.55 65.6 457.3 65.15 Z"/>
</g>

<g id="Layer0_0_MEMBER_1_MEMBER_4_MEMBER_5_MEMBER_9_MEMBER_4_FILL">
<path fill="#FDB24A" stroke="none" d="
M 453.7 64.35
L 453.35 64.5 455 65.45 455.3 65.25 453.7 64.35 Z"/>
</g>

<g id="Layer0_0_MEMBER_1_MEMBER_4_MEMBER_5_MEMBER_9_MEMBER_5_MEMBER_0_FILL">
<path fill="#FC4E4F" stroke="none" d="
M 456.1 64.1
Q 456.1 63.9 455.9 63.8 455.4 63.55 454.85 63.8 454.65 63.95 454.45 64.35 454.35 64.55 454.3 64.7
L 454.95 64.65
Q 455.65 64.55 455.9 64.4 456.1 64.3 456.1 64.1 Z"/>
</g>

<g id="Layer0_0_MEMBER_1_MEMBER_4_MEMBER_5_MEMBER_9_MEMBER_5_MEMBER_1_FILL">
<path fill="#FFFFFF" stroke="none" d="
M 455.65 64.25
Q 456.05 64.05 455.65 63.95 455.4 63.75 455.1 63.95 454.8 64.05 455.1 64.25 455.4 64.45 455.65 64.25 Z"/>
</g>

<g id="Layer0_0_MEMBER_1_MEMBER_4_MEMBER_5_MEMBER_9_MEMBER_6_FILL">
<path fill="#FEE24F" stroke="none" d="
M 454.5 65.8
L 457 64.35 456.6 64.15 454.1 65.6 454.5 65.8 Z"/>
</g>

<g id="Layer0_0_MEMBER_1_MEMBER_4_MEMBER_5_MEMBER_10_MEMBER_0_FILL">
<path fill="#D5D8E6" stroke="none" d="
M 456.85 62.85
Q 457.25 63.05 457.6 62.8
L 458.35 62.4
Q 458.7 62.15 458.4 61.95
L 457.55 61.5
Q 457.25 61.3 456.8 61.5
L 456.05 61.95
Q 455.65 62.15 456 62.35
L 456.85 62.85 Z"/>
</g>

<g id="Layer0_0_MEMBER_1_MEMBER_4_MEMBER_5_MEMBER_10_MEMBER_1_MEMBER_0_MEMBER_0_MEMBER_0_FILL">
<path fill="#70B7F1" stroke="none" d="
M 457.9 62.6
Q 458.6 62.2 457.9 61.75 457.2 61.3 456.5 61.75 455.8 62.2 456.5 62.6 457.25 62.95 457.9 62.6 Z"/>
</g>

<g id="Layer0_0_MEMBER_1_MEMBER_4_MEMBER_5_MEMBER_10_MEMBER_1_MEMBER_0_MEMBER_0_MEMBER_1_FILL">
<path fill="#84D1ED" stroke="none" d="
M 457.85 62.55
Q 458.15 62.4 458.15 62.2 458.15 61.95 457.85 61.8 457.2 61.35 456.55 61.8 456.25 61.95 456.25 62.2 456.25 62.4 456.55 62.55 457.2 62.9 457.85 62.55 Z"/>
</g>

<g id="Layer0_0_MEMBER_1_MEMBER_4_MEMBER_5_MEMBER_10_MEMBER_1_MEMBER_0_MEMBER_0_MEMBER_2_FILL">
<path fill="#B5E7FB" stroke="none" d="
M 457.8 62.5
Q 458.05 62.4 458.05 62.15 458.05 61.95 457.8 61.8 457.2 61.45 456.6 61.8 456 62.15 456.6 62.5 457.25 62.85 457.8 62.5 Z"/>
</g>

<g id="Layer0_0_MEMBER_1_MEMBER_4_MEMBER_5_MEMBER_10_MEMBER_2_FILL">
<path fill="#7FCF57" stroke="none" d="
M 457.95 61.95
L 457.9 62 457.7 61.95 457.65 62 457.55 61.95 457.45 62 457.45 62.05 457.25 62.05
Q 457.1 61.95 456.95 62.1 456.85 62.2 456.95 62.25 457.05 62.35 457 62.35
L 456.65 62.55 457.05 62.65 457.3 62.65 457.55 62.6 457.45 62.55 457.5 62.45 457.6 62.3
Q 457.65 62.25 457.7 62.3
L 457.65 62.3 457.55 62.45
Q 457.5 62.55 457.55 62.55
L 457.65 62.6 457.8 62.55 457.75 62.5
Q 457.8 62.45 457.85 62.5 458.15 62.3 458.05 62.05
L 457.95 62.05 457.95 62
Q 458 61.95 457.95 61.95 Z"/>
</g>

<g id="Layer0_0_MEMBER_1_MEMBER_4_MEMBER_5_MEMBER_10_MEMBER_3_MEMBER_0_FILL">
<path fill="#70B84D" stroke="none" d="
M 456.75 61.75
L 456.8 61.8 456.7 61.85 456.8 61.85 456.9 61.8
Q 457 61.75 457.05 61.8
L 457.15 61.75 457.2 61.8 457.1 61.8
Q 457.1 61.85 457.25 61.85
L 457.35 61.8 457.45 61.8
Q 457.5 61.75 457.45 61.7
L 457.5 61.7
Q 457.1 61.6 456.75 61.75 Z"/>
</g>

<g id="Layer0_0_MEMBER_1_MEMBER_4_MEMBER_5_MEMBER_10_MEMBER_3_MEMBER_1_FILL">
<path fill="#70B84D" stroke="none" d="
M 456.6 62.15
L 456.7 62.05 456.8 62 456.8 61.9 456.5 61.9 456.45 61.95 456.4 61.95
Q 456.25 62.15 456.4 62.35
L 456.45 62.3 456.55 62.25 456.6 62.15 Z"/>
</g>

<g id="Layer0_0_MEMBER_1_MEMBER_4_MEMBER_5_MEMBER_11_MEMBER_0_FILL">
<path fill="#7FCF57" stroke="none" d="
M 457.15 73.25
Q 457.55 73.45 457.95 73.2
L 458.75 72.75
Q 459.15 72.5 458.8 72.25
L 457.9 71.7
Q 457.45 71.5 457.05 71.75
L 456.25 72.2
Q 455.9 72.45 456.2 72.7
L 457.15 73.25 Z"/>
</g>

<g id="Layer0_0_MEMBER_1_MEMBER_4_MEMBER_5_MEMBER_11_MEMBER_1_FILL">
<path fill="#F1F2F6" stroke="none" d="
M 457.6 71.9
Q 457.4 71.8 457.2 71.9
L 456.6 72.25
Q 456.45 72.35 456.6 72.5
L 456.65 72.5 457 72.45 456.7 72.55 456.65 72.55 456.35 72.65 456.95 72.65 457.5 73
Q 457.7 73.1 457.9 73
L 458.5 72.65
Q 458.65 72.55 458.5 72.4
L 457.6 71.9 Z"/>
</g>

<g id="Layer0_0_MEMBER_1_MEMBER_4_MEMBER_5_MEMBER_12_MEMBER_0_FILL">
<path fill="#CC783E" stroke="none" d="
M 458.7 63.1
Q 458.4 62.8 458.05 63.1
L 457.25 63.55
Q 457 63.75 457.25 63.9
L 458.05 64.35
Q 458.4 64.55 458.7 64.35
L 459.5 63.9
Q 459.85 63.75 459.5 63.55
L 458.7 63.1 Z"/>
</g>

<g id="Layer0_0_MEMBER_1_MEMBER_4_MEMBER_5_MEMBER_12_MEMBER_1_FILL">
<path fill="#FEE477" stroke="none" d="
M 458.75 63.1
L 457.35 63.95 458.05 64.35
Q 458.4 64.55 458.7 64.35
L 459.5 63.9
Q 459.85 63.75 459.5 63.55
L 458.75 63.1 Z"/>
</g>

<g id="Layer0_0_MEMBER_1_MEMBER_4_MEMBER_5_MEMBER_12_MEMBER_2_FILL">
<path fill="#FC4E4F" stroke="none" d="
M 459.35 63.45
L 459.05 63.3 458.6 63.55 458.85 63.6 458.9 63.75 459.35 63.45 Z"/>
</g>

<g id="Layer0_0_MEMBER_1_MEMBER_4_MEMBER_5_MEMBER_13_MEMBER_0_FILL">
<path fill="#F1F2F6" stroke="none" d="
M 464.05 68.65
Q 464.65 68.95 465.25 68.6
L 466.4 67.9
Q 467 67.55 466.5 67.2
L 465.15 66.45
Q 464.65 66.1 463.95 66.5
L 462.8 67.15
Q 462.2 67.5 462.7 67.85
L 464.05 68.65 Z"/>
</g>

<g id="Layer0_0_MEMBER_1_MEMBER_4_MEMBER_5_MEMBER_13_MEMBER_1_FILL">
<path fill="#84D1ED" stroke="none" d="
M 466.3 67.75
Q 466.5 67.7 466.5 67.5 466.5 67.35 466.3 67.25
L 465.55 66.8
Q 465.1 66.55 464.65 66.8
L 464.15 67.1 464.65 67.35
Q 465.1 67.65 464.65 67.9
L 464.6 67.9 464.9 68.1
Q 465.35 68.3 465.8 68.1
L 466.3 67.75 Z"/>
</g>

<g id="Layer0_0_MEMBER_1_MEMBER_4_MEMBER_5_MEMBER_13_MEMBER_2_MEMBER_0_FILL">
<path fill="#FFFFFF" stroke="none" d="
M 465.3 67.8
L 465.5 67.7 465.35 67.6 465.3 67.6 465.25 67.55 465.05 67.65 465.3 67.8
M 465.25 67.25
L 465.15 67.25 465.15 67.4 465.3 67.4 465.25 67.25
M 465.25 67.15
L 465.15 67.1 464.65 67.4 464.75 67.45 465.25 67.15
M 465.5 67.15
L 465.45 67.15 465.45 67.25 465.55 67.25 465.5 67.15 Z"/>
</g>

<g id="Layer0_0_MEMBER_1_MEMBER_4_MEMBER_5_MEMBER_13_MEMBER_3_FILL">
<path fill="#A186C0" stroke="none" d="
M 464.65 67.9
Q 465.1 67.65 464.65 67.35
L 464.15 67.1
Q 463.7 67.4 464.15 67.65
L 464.6 67.9 464.65 67.9 Z"/>
</g>

<g id="Layer0_0_MEMBER_1_MEMBER_4_MEMBER_5_MEMBER_13_MEMBER_4_FILL">
<path fill="#FC4E4F" stroke="none" d="
M 464.6 67.9
L 464.15 67.65
Q 463.7 67.4 464.15 67.1 463.7 66.85 463.25 67.1
L 462.95 67.25
Q 462.5 67.55 462.95 67.8
L 463.45 68.05
Q 463.9 68.3 464.35 68.05
L 464.6 67.9 Z"/>
</g>

<g id="Layer0_0_MEMBER_1_MEMBER_4_MEMBER_5_MEMBER_13_MEMBER_5_MEMBER_0_FILL">
<path fill="#FFFFFF" stroke="none" d="
M 463.05 67.4
L 463.15 67.45 463.2 67.45 463.35 67.55 463.4 67.6 463.6 67.35 463.55 67.3 463.05 67.4 Z"/>
</g>

<g id="Layer0_0_MEMBER_1_MEMBER_4_MEMBER_5_MEMBER_13_MEMBER_5_MEMBER_1_FILL">
<path fill="#FFFFFF" stroke="none" d="
M 463.45 67.65
L 463.65 67.75 463.8 67.75 463.85 67.65 463.95 67.65
Q 464.05 67.55 463.95 67.55
L 463.8 67.45 463.45 67.65 Z"/>
</g>

<g id="Layer0_0_MEMBER_1_MEMBER_4_MEMBER_5_MEMBER_14_MEMBER_0_FILL">
<path fill="#D2D6E1" stroke="none" d="
M 453.85 70.5
L 455 69.85
Q 455.6 69.45 455.05 69.2
L 453.75 68.45
Q 453.25 68.1 452.6 68.5
L 451.5 69.15
Q 451.25 69.3 451.2 69.5 451.2 69.7 451.4 69.8
L 452.7 70.55
Q 453.25 70.85 453.85 70.5 Z"/>
</g>

<g id="Layer0_0_MEMBER_1_MEMBER_4_MEMBER_5_MEMBER_14_MEMBER_1_FILL">
<path fill="#6E7B9C" stroke="none" d="
M 453.15 69.95
L 453.1 69.8 453.15 69.75 453.4 69.7 453.45 69.55 453.2 69.5 453.2 69.45 453.3 69.3 453.1 69.2 452.85 69.25 452.75 69.25 452.65 69.1 452.4 69.1 452.3 69.25 452.25 69.3 452 69.25 451.85 69.4 452 69.5 452 69.6 451.8 69.65 451.85 69.8 452.15 69.8 452.2 69.85 452.2 70 452.45 70.05 452.65 69.95 452.75 69.95 452.95 70.05 453.15 69.95 Z"/>
</g>

<g id="Layer0_0_MEMBER_1_MEMBER_4_MEMBER_5_MEMBER_14_MEMBER_2_FILL">
<path fill="#6E7B9C" stroke="none" d="
M 454.45 69.6
L 454.55 69.5 454.7 69.5 454.7 69.35 454.55 69.3
Q 454.45 69.3 454.45 69.2
L 454.45 69.1 454.2 69.05 454.1 69.1 453.9 69.1 453.75 69.05 453.55 69.1 453.55 69.2
Q 453.55 69.3 453.45 69.3
L 453.3 69.35 453.3 69.5 453.5 69.55 453.6 69.65 453.55 69.75 453.8 69.8 453.95 69.75
Q 454.05 69.7 454.1 69.75
L 454.25 69.8 454.5 69.7 454.45 69.6 Z"/>
</g>

<g id="Layer0_0_MEMBER_1_MEMBER_4_MEMBER_5_MEMBER_14_MEMBER_3_FILL">
<path fill="#D2D6E1" stroke="none" d="
M 452.85 69.7
Q 452.95 69.65 452.95 69.6 452.95 69.5 452.85 69.45 452.6 69.35 452.4 69.45 452.3 69.5 452.3 69.6 452.3 69.65 452.4 69.7 452.6 69.9 452.85 69.7 Z"/>
</g>

<g id="Layer0_0_MEMBER_1_MEMBER_4_MEMBER_5_MEMBER_14_MEMBER_4_FILL">
<path fill="#D2D6E1" stroke="none" d="
M 454.2 69.5
Q 454.4 69.4 454.2 69.3 454 69.2 453.8 69.3 453.6 69.4 453.8 69.5 454 69.7 454.2 69.5 Z"/>
</g>

<g id="Layer0_0_MEMBER_1_MEMBER_4_MEMBER_6_FILL">
<path fill="#6969D6" stroke="none" d="
M 432.15 85.6
L 429.5 87.8 407.9 99.45
Q 406.45 100.3 406.45 102 406.45 103.65 407.9 104.5
L 408.8 105.05
Q 410.85 106.25 413.25 106.25 415.6 106.25 417.65 105.05
L 422.1 102.5 437 90.1 439.2 89.55
Q 441.5 88.75 441.85 87.6 442.35 86.05 443.75 83 445.25 79.7 445.75 79.2 446.25 78.75 450.8 77.95 453.05 77.55 455.2 77.25
L 445.55 71.6
Q 443.75 72.75 441.85 73.9 438.1 76.3 437.8 76.65
L 435.05 80.75 434.15 83.35 432.15 85.6 Z"/>
</g>

<g id="Layer0_0_MEMBER_1_MEMBER_4_MEMBER_7_FILL">
<path fill="#6969D6" stroke="none" d="
M 406.45 102.15
L 407.85 102.45 408.1 100.35 406.45 100.65 406.45 102.15 Z"/>
</g>

<g id="Layer0_0_MEMBER_1_MEMBER_4_MEMBER_8_FILL">
<path fill="url(#Gradient_4)" stroke="none" d="
M 443.75 87.45
Q 444.2 86.05 445.15 84.35 446.05 82.55 446.65 82.05 447.1 81.6 451.2 78.7 453.25 77.3 455.2 75.95
L 445.55 70.3 445.5 70.35 438.85 74.15
Q 437.35 75 436.1 76.7 434.8 78.4 434.2 80.3 433 83.7 430.5 85.1
L 407.9 98.2
Q 406.7 98.85 406.45 100.3
L 406.45 100.85
Q 406.45 101.6 406.9 102.25 407.25 102.85 407.9 103.2
L 408.8 103.75
Q 410.85 104.95 413.25 104.95 415.6 104.95 417.65 103.75
L 441.15 90.75
Q 443.2 89.25 443.75 87.45 Z"/>
</g>

<g id="Layer0_0_MEMBER_1_MEMBER_4_MEMBER_9_MEMBER_0_FILL">
<path fill="#6969D6" stroke="none" d="
M 442.35 88.75
Q 441.35 90.1 440.2 90.75
L 417.65 103.75 417.65 105.05 440.2 92.05
Q 441.7 91.2 443 89.5 444.25 87.8 444.9 85.9 445.4 84.4 446.35 83.1 447.35 81.75 448.55 81.1
L 455.2 77.25 455.2 75.95 448.55 79.8
Q 447.05 80.65 445.75 82.35 444.5 84 443.85 85.95 443.35 87.45 442.35 88.75 Z"/>
</g>

<g id="Layer0_0_MEMBER_1_MEMBER_5_FILL">
<path fill="#FFFFFF" fill-opacity="0.2" stroke="none" d="
M 12 6.25
Q 12.55 5.85 12 5.55
L 2.35 0 9.75 4.55
Q 11 5.25 10.65 5.7
L 0.25 11.7
Q 0 11.85 0 12.05 0 12.25 0.25 12.35 0.8 12.7 1.4 12.35
L 12 6.25 Z"/>
</g>
</defs>

<g transform="matrix( 7, 0, 0, 7, -2677.2,-26.3) ">
<use xlink:href="#Layer0_0_MEMBER_0_FILL"/>
</g>

<g transform="matrix( 7, 0, 0, 7, -2677.2,-26.3) ">
<use xlink:href="#Layer0_0_MEMBER_1_MEMBER_0_MEMBER_0_FILL"/>
</g>

<g transform="matrix( 7, 0, 0, 7, -2677.2,-26.3) ">
<use xlink:href="#Layer0_0_MEMBER_1_MEMBER_0_MEMBER_1_FILL"/>
</g>

<g transform="matrix( 7, 0, 0, 7, -2677.2,-26.3) ">
<use xlink:href="#Layer0_0_MEMBER_1_MEMBER_0_MEMBER_2_FILL"/>
</g>

<g transform="matrix( 7, 0, 0, 7, -2677.2,-26.3) ">
<use xlink:href="#Layer0_0_MEMBER_1_MEMBER_0_MEMBER_3_FILL"/>
</g>

<g transform="matrix( 7, 0, 0, 7, -2677.2,-26.3) ">
<use xlink:href="#Layer0_0_MEMBER_1_MEMBER_0_MEMBER_4_FILL"/>
</g>

<g transform="matrix( 7, 0, 0, 7, -2677.2,-26.3) ">
<use xlink:href="#Layer0_0_MEMBER_1_MEMBER_0_MEMBER_5_MEMBER_0_FILL"/>
</g>

<g transform="matrix( 7, 0, 0, 7, -2677.2,-26.3) ">
<use xlink:href="#Layer0_0_MEMBER_1_MEMBER_0_MEMBER_5_MEMBER_1_FILL"/>
</g>

<g transform="matrix( 7, 0, 0, 7, -2677.2,-26.3) ">
<use xlink:href="#Layer0_0_MEMBER_1_MEMBER_0_MEMBER_6_MEMBER_0_FILL"/>
</g>

<g transform="matrix( 7, 0, 0, 7, -2677.2,-26.3) ">
<use xlink:href="#Layer0_0_MEMBER_1_MEMBER_0_MEMBER_6_MEMBER_1_FILL"/>
</g>

<g transform="matrix( 7, 0, 0, 7, -2677.2,-26.3) ">
<use xlink:href="#Layer0_0_MEMBER_1_MEMBER_0_MEMBER_6_MEMBER_2_FILL"/>
</g>

<g transform="matrix( 7, 0, 0, 7, -2677.2,-26.3) ">
<use xlink:href="#Layer0_0_MEMBER_1_MEMBER_0_MEMBER_6_MEMBER_3_FILL"/>
</g>

<g transform="matrix( 7, 0, 0, 7, -2677.2,-26.3) ">
<use xlink:href="#Layer0_0_MEMBER_1_MEMBER_0_MEMBER_6_MEMBER_4_FILL"/>
</g>

<g transform="matrix( 7, 0, 0, 7, -2677.2,-26.3) ">
<use xlink:href="#Layer0_0_MEMBER_1_MEMBER_0_MEMBER_6_MEMBER_5_FILL"/>
</g>

<g transform="matrix( 7, 0, 0, 7, -2677.2,-26.3) ">
<use xlink:href="#Layer0_0_MEMBER_1_MEMBER_0_MEMBER_6_MEMBER_6_FILL"/>
</g>

<g transform="matrix( 7, 0, 0, 7, -2677.2,-26.3) ">
<use xlink:href="#Layer0_0_MEMBER_1_MEMBER_0_MEMBER_6_MEMBER_7_FILL"/>
</g>

<g transform="matrix( 7, 0, 0, 7, -2677.2,-26.3) ">
<use xlink:href="#Layer0_0_MEMBER_1_MEMBER_0_MEMBER_6_MEMBER_8_FILL"/>
</g>

<g transform="matrix( 7, 0, 0, 7, -2677.2,-26.3) ">
<use xlink:href="#Layer0_0_MEMBER_1_MEMBER_0_MEMBER_6_MEMBER_9_FILL"/>
</g>

<g transform="matrix( 7, 0, 0, 7, -2677.2,-26.3) ">
<use xlink:href="#Layer0_0_MEMBER_1_MEMBER_0_MEMBER_6_MEMBER_10_FILL"/>
</g>

<g transform="matrix( 7, 0, 0, 7, -2677.2,-26.3) ">
<use xlink:href="#Layer0_0_MEMBER_1_MEMBER_0_MEMBER_6_MEMBER_11_FILL"/>
</g>

<g transform="matrix( 7, 0, 0, 7, -2677.2,-26.3) ">
<use xlink:href="#Layer0_0_MEMBER_1_MEMBER_0_MEMBER_6_MEMBER_12_FILL"/>
</g>

<g transform="matrix( 7, 0, 0, 7, -2677.2,-26.3) ">
<use xlink:href="#Layer0_0_MEMBER_1_MEMBER_0_MEMBER_6_MEMBER_13_FILL"/>
</g>

<g transform="matrix( 7, 0, 0, 7, -2677.2,-26.3) ">
<use xlink:href="#Layer0_0_MEMBER_1_MEMBER_0_MEMBER_6_MEMBER_14_FILL"/>
</g>

<g transform="matrix( 7, 0, 0, 7, -2677.2,-26.3) ">
<use xlink:href="#Layer0_0_MEMBER_1_MEMBER_0_MEMBER_6_MEMBER_15_FILL"/>
</g>

<g transform="matrix( 7, 0, 0, 7, -2677.2,-26.3) ">
<use xlink:href="#Layer0_0_MEMBER_1_MEMBER_0_MEMBER_6_MEMBER_16_FILL"/>
</g>

<g transform="matrix( 7, 0, 0, 7, -2677.2,-26.3) ">
<use xlink:href="#Layer0_0_MEMBER_1_MEMBER_0_MEMBER_6_MEMBER_17_FILL"/>
</g>

<g transform="matrix( 7, 0, 0, 7, -2677.2,-26.3) ">
<use xlink:href="#Layer0_0_MEMBER_1_MEMBER_0_MEMBER_6_MEMBER_18_FILL"/>
</g>

<g transform="matrix( 7, 0, 0, 7, -2677.2,-26.3) ">
<use xlink:href="#Layer0_0_MEMBER_1_MEMBER_0_MEMBER_6_MEMBER_19_FILL"/>
</g>

<g transform="matrix( 7, 0, 0, 7, -2677.2,-26.3) ">
<use xlink:href="#Layer0_0_MEMBER_1_MEMBER_0_MEMBER_6_MEMBER_20_FILL"/>
</g>

<g transform="matrix( 7, 0, 0, 7, -2677.2,-26.3) ">
<use xlink:href="#Layer0_0_MEMBER_1_MEMBER_0_MEMBER_6_MEMBER_21_FILL"/>
</g>

<g transform="matrix( 7, 0, 0, 7, -2677.2,-26.3) ">
<use xlink:href="#Layer0_0_MEMBER_1_MEMBER_0_MEMBER_6_MEMBER_22_FILL"/>
</g>

<g transform="matrix( 7, 0, 0, 7, -2677.2,-26.3) ">
<use xlink:href="#Layer0_0_MEMBER_1_MEMBER_0_MEMBER_6_MEMBER_23_FILL"/>
</g>

<g transform="matrix( 7, 0, 0, 7, -2677.2,-26.3) ">
<use xlink:href="#Layer0_0_MEMBER_1_MEMBER_0_MEMBER_7_FILL"/>
</g>

<g transform="matrix( 7, 0, 0, 7, -2677.2,-26.3) ">
<use xlink:href="#Layer0_0_MEMBER_1_MEMBER_1_FILL"/>
</g>

<g transform="matrix( 7, 0, 0, 7, -2677.2,-26.3) ">
<use xlink:href="#Layer0_0_MEMBER_1_MEMBER_2_FILL"/>
</g>

<g transform="matrix( 7, 0, 0, 7, -2677.2,-26.3) ">
<use xlink:href="#Layer0_0_MEMBER_1_MEMBER_3_FILL"/>
</g>

<g transform="matrix( 7, 0, 0, 7, -2677.2,-26.3) ">
<use xlink:href="#Layer0_0_MEMBER_1_MEMBER_4_MEMBER_0_FILL"/>
</g>

<g transform="matrix( 7, 0, 0, 7, -2677.2,-26.3) ">
<use xlink:href="#Layer0_0_MEMBER_1_MEMBER_4_MEMBER_1_FILL"/>
</g>

<g transform="matrix( 7, 0, 0, 7, -2677.2,-26.3) ">
<use xlink:href="#Layer0_0_MEMBER_1_MEMBER_4_MEMBER_2_FILL"/>
</g>

<g transform="matrix( 7, 0, 0, 7, -2677.2,-26.3) ">
<use xlink:href="#Layer0_0_MEMBER_1_MEMBER_4_MEMBER_3_FILL"/>
</g>

<g transform="matrix( 7, 0, 0, 7, -2677.2,-26.3) ">
<use xlink:href="#Layer0_0_MEMBER_1_MEMBER_4_MEMBER_4_MEMBER_0_FILL"/>
</g>

<g transform="matrix( 7, 0, 0, 7, -2677.2,-26.3) ">
<use xlink:href="#Layer0_0_MEMBER_1_MEMBER_4_MEMBER_5_MEMBER_0_MEMBER_0_FILL"/>
</g>

<g transform="matrix( 7, 0, 0, 7, -2677.2,-26.3) ">
<use xlink:href="#Layer0_0_MEMBER_1_MEMBER_4_MEMBER_5_MEMBER_0_MEMBER_1_FILL"/>
</g>

<g transform="matrix( 7, 0, 0, 7, -2677.2,-26.3) ">
<use xlink:href="#Layer0_0_MEMBER_1_MEMBER_4_MEMBER_5_MEMBER_0_MEMBER_2_MEMBER_0_FILL"/>
</g>

<g transform="matrix( 7, 0, 0, 7, -2677.2,-26.3) ">
<use xlink:href="#Layer0_0_MEMBER_1_MEMBER_4_MEMBER_5_MEMBER_0_MEMBER_2_MEMBER_1_FILL"/>
</g>

<g transform="matrix( 7, 0, 0, 7, -2677.2,-26.3) ">
<use xlink:href="#Layer0_0_MEMBER_1_MEMBER_4_MEMBER_5_MEMBER_0_MEMBER_2_MEMBER_2_FILL"/>
</g>

<g transform="matrix( 7, 0, 0, 7, -2677.2,-26.3) ">
<use xlink:href="#Layer0_0_MEMBER_1_MEMBER_4_MEMBER_5_MEMBER_0_MEMBER_2_MEMBER_3_FILL"/>
</g>

<g transform="matrix( 7, 0, 0, 7, -2677.2,-26.3) ">
<use xlink:href="#Layer0_0_MEMBER_1_MEMBER_4_MEMBER_5_MEMBER_0_MEMBER_2_MEMBER_4_FILL"/>
</g>

<g transform="matrix( 7, 0, 0, 7, -2677.2,-26.3) ">
<use xlink:href="#Layer0_0_MEMBER_1_MEMBER_4_MEMBER_5_MEMBER_0_MEMBER_3_MEMBER_0_FILL"/>
</g>

<g transform="matrix( 7, 0, 0, 7, -2677.2,-26.3) ">
<use xlink:href="#Layer0_0_MEMBER_1_MEMBER_4_MEMBER_5_MEMBER_0_MEMBER_3_MEMBER_1_FILL"/>
</g>

<g transform="matrix( 7, 0, 0, 7, -2677.2,-26.3) ">
<use xlink:href="#Layer0_0_MEMBER_1_MEMBER_4_MEMBER_5_MEMBER_0_MEMBER_3_MEMBER_2_FILL"/>
</g>

<g transform="matrix( 7, 0, 0, 7, -2677.2,-26.3) ">
<use xlink:href="#Layer0_0_MEMBER_1_MEMBER_4_MEMBER_5_MEMBER_1_MEMBER_0_MEMBER_0_FILL"/>
</g>

<g transform="matrix( 7, 0, 0, 7, -2677.2,-26.3) ">
<use xlink:href="#Layer0_0_MEMBER_1_MEMBER_4_MEMBER_5_MEMBER_1_MEMBER_1_FILL"/>
</g>

<g transform="matrix( 7, 0, 0, 7, -2677.2,-26.3) ">
<use xlink:href="#Layer0_0_MEMBER_1_MEMBER_4_MEMBER_5_MEMBER_2_MEMBER_0_FILL"/>
</g>

<g transform="matrix( 7, 0, 0, 7, -2677.2,-26.3) ">
<use xlink:href="#Layer0_0_MEMBER_1_MEMBER_4_MEMBER_5_MEMBER_2_MEMBER_1_MEMBER_0_MEMBER_0_FILL"/>
</g>

<g transform="matrix( 7, 0, 0, 7, -2677.2,-26.3) ">
<use xlink:href="#Layer0_0_MEMBER_1_MEMBER_4_MEMBER_5_MEMBER_2_MEMBER_1_MEMBER_0_MEMBER_1_FILL"/>
</g>

<g transform="matrix( 7, 0, 0, 7, -2677.2,-26.3) ">
<use xlink:href="#Layer0_0_MEMBER_1_MEMBER_4_MEMBER_5_MEMBER_2_MEMBER_1_MEMBER_0_MEMBER_2_FILL"/>
</g>

<g transform="matrix( 7, 0, 0, 7, -2677.2,-26.3) ">
<use xlink:href="#Layer0_0_MEMBER_1_MEMBER_4_MEMBER_5_MEMBER_2_MEMBER_1_MEMBER_0_MEMBER_3_FILL"/>
</g>

<g transform="matrix( 7, 0, 0, 7, -2677.2,-26.3) ">
<use xlink:href="#Layer0_0_MEMBER_1_MEMBER_4_MEMBER_5_MEMBER_2_MEMBER_1_MEMBER_1_FILL"/>
</g>

<g transform="matrix( 7, 0, 0, 7, -2677.2,-26.3) ">
<use xlink:href="#Layer0_0_MEMBER_1_MEMBER_4_MEMBER_5_MEMBER_3_MEMBER_0_FILL"/>
</g>

<g transform="matrix( 7, 0, 0, 7, -2677.2,-26.3) ">
<use xlink:href="#Layer0_0_MEMBER_1_MEMBER_4_MEMBER_5_MEMBER_3_MEMBER_1_FILL"/>
</g>

<g transform="matrix( 7, 0, 0, 7, -2677.2,-26.3) ">
<use xlink:href="#Layer0_0_MEMBER_1_MEMBER_4_MEMBER_5_MEMBER_3_MEMBER_2_FILL"/>
</g>

<g transform="matrix( 7, 0, 0, 7, -2677.2,-26.3) ">
<use xlink:href="#Layer0_0_MEMBER_1_MEMBER_4_MEMBER_5_MEMBER_3_MEMBER_3_FILL"/>
</g>

<g transform="matrix( 7, 0, 0, 7, -2677.2,-26.3) ">
<use xlink:href="#Layer0_0_MEMBER_1_MEMBER_4_MEMBER_5_MEMBER_3_MEMBER_4_FILL"/>
</g>

<g transform="matrix( 7, 0, 0, 7, -2677.2,-26.3) ">
<use xlink:href="#Layer0_0_MEMBER_1_MEMBER_4_MEMBER_5_MEMBER_4_MEMBER_0_FILL"/>
</g>

<g transform="matrix( 7, 0, 0, 7, -2677.2,-26.3) ">
<use xlink:href="#Layer0_0_MEMBER_1_MEMBER_4_MEMBER_5_MEMBER_4_MEMBER_1_FILL"/>
</g>

<g transform="matrix( 7, 0, 0, 7, -2677.2,-26.3) ">
<use xlink:href="#Layer0_0_MEMBER_1_MEMBER_4_MEMBER_5_MEMBER_4_MEMBER_2_FILL"/>
</g>

<g transform="matrix( 7, 0, 0, 7, -2677.2,-26.3) ">
<use xlink:href="#Layer0_0_MEMBER_1_MEMBER_4_MEMBER_5_MEMBER_5_MEMBER_0_FILL"/>
</g>

<g transform="matrix( 7, 0, 0, 7, -2677.2,-26.3) ">
<use xlink:href="#Layer0_0_MEMBER_1_MEMBER_4_MEMBER_5_MEMBER_5_MEMBER_1_FILL"/>
</g>

<g transform="matrix( 7, 0, 0, 7, -2677.2,-26.3) ">
<use xlink:href="#Layer0_0_MEMBER_1_MEMBER_4_MEMBER_5_MEMBER_5_MEMBER_2_MEMBER_0_FILL"/>
</g>

<g transform="matrix( 7, 0, 0, 7, -2677.2,-26.3) ">
<use xlink:href="#Layer0_0_MEMBER_1_MEMBER_4_MEMBER_5_MEMBER_5_MEMBER_2_MEMBER_1_FILL"/>
</g>

<g transform="matrix( 7, 0, 0, 7, -2677.2,-26.3) ">
<use xlink:href="#Layer0_0_MEMBER_1_MEMBER_4_MEMBER_5_MEMBER_6_MEMBER_0_FILL"/>
</g>

<g transform="matrix( 7, 0, 0, 7, -2677.2,-26.3) ">
<use xlink:href="#Layer0_0_MEMBER_1_MEMBER_4_MEMBER_5_MEMBER_6_MEMBER_1_MEMBER_0_FILL"/>
</g>

<g transform="matrix( 7, 0, 0, 7, -2677.2,-26.3) ">
<use xlink:href="#Layer0_0_MEMBER_1_MEMBER_4_MEMBER_5_MEMBER_6_MEMBER_1_MEMBER_1_FILL"/>
</g>

<g transform="matrix( 7, 0, 0, 7, -2677.2,-26.3) ">
<use xlink:href="#Layer0_0_MEMBER_1_MEMBER_4_MEMBER_5_MEMBER_6_MEMBER_1_MEMBER_2_FILL"/>
</g>

<g transform="matrix( 7, 0, 0, 7, -2677.2,-26.3) ">
<use xlink:href="#Layer0_0_MEMBER_1_MEMBER_4_MEMBER_5_MEMBER_7_MEMBER_0_FILL"/>
</g>

<g transform="matrix( 7, 0, 0, 7, -2677.2,-26.3) ">
<use xlink:href="#Layer0_0_MEMBER_1_MEMBER_4_MEMBER_5_MEMBER_7_MEMBER_1_FILL"/>
</g>

<g transform="matrix( 7, 0, 0, 7, -2677.2,-26.3) ">
<use xlink:href="#Layer0_0_MEMBER_1_MEMBER_4_MEMBER_5_MEMBER_7_MEMBER_2_FILL"/>
</g>

<g transform="matrix( 7, 0, 0, 7, -2677.2,-26.3) ">
<use xlink:href="#Layer0_0_MEMBER_1_MEMBER_4_MEMBER_5_MEMBER_7_MEMBER_3_FILL"/>
</g>

<g transform="matrix( 7, 0, 0, 7, -2677.2,-26.3) ">
<use xlink:href="#Layer0_0_MEMBER_1_MEMBER_4_MEMBER_5_MEMBER_7_MEMBER_4_FILL"/>
</g>

<g transform="matrix( 7, 0, 0, 7, -2677.2,-26.3) ">
<use xlink:href="#Layer0_0_MEMBER_1_MEMBER_4_MEMBER_5_MEMBER_8_MEMBER_0_FILL"/>
</g>

<g transform="matrix( 7, 0, 0, 7, -2677.2,-26.3) ">
<use xlink:href="#Layer0_0_MEMBER_1_MEMBER_4_MEMBER_5_MEMBER_8_MEMBER_1_FILL"/>
</g>

<g transform="matrix( 7, 0, 0, 7, -2677.2,-26.3) ">
<use xlink:href="#Layer0_0_MEMBER_1_MEMBER_4_MEMBER_5_MEMBER_8_MEMBER_2_FILL"/>
</g>

<g transform="matrix( 7, 0, 0, 7, -2677.2,-26.3) ">
<use xlink:href="#Layer0_0_MEMBER_1_MEMBER_4_MEMBER_5_MEMBER_8_MEMBER_3_FILL"/>
</g>

<g transform="matrix( 7, 0, 0, 7, -2677.2,-26.3) ">
<use xlink:href="#Layer0_0_MEMBER_1_MEMBER_4_MEMBER_5_MEMBER_8_MEMBER_4_FILL"/>
</g>

<g transform="matrix( 7, 0, 0, 7, -2677.2,-26.3) ">
<use xlink:href="#Layer0_0_MEMBER_1_MEMBER_4_MEMBER_5_MEMBER_8_MEMBER_5_FILL"/>
</g>

<g transform="matrix( 7, 0, 0, 7, -2677.2,-26.3) ">
<use xlink:href="#Layer0_0_MEMBER_1_MEMBER_4_MEMBER_5_MEMBER_8_MEMBER_6_FILL"/>
</g>

<g transform="matrix( 7, 0, 0, 7, -2677.2,-26.3) ">
<use xlink:href="#Layer0_0_MEMBER_1_MEMBER_4_MEMBER_5_MEMBER_9_MEMBER_0_FILL"/>
</g>

<g transform="matrix( 7, 0, 0, 7, -2677.2,-26.3) ">
<use xlink:href="#Layer0_0_MEMBER_1_MEMBER_4_MEMBER_5_MEMBER_9_MEMBER_1_FILL"/>
</g>

<g transform="matrix( 7, 0, 0, 7, -2677.2,-26.3) ">
<use xlink:href="#Layer0_0_MEMBER_1_MEMBER_4_MEMBER_5_MEMBER_9_MEMBER_2_FILL"/>
</g>

<g transform="matrix( 7, 0, 0, 7, -2677.2,-26.3) ">
<use xlink:href="#Layer0_0_MEMBER_1_MEMBER_4_MEMBER_5_MEMBER_9_MEMBER_3_FILL"/>
</g>

<g transform="matrix( 7, 0, 0, 7, -2677.2,-26.3) ">
<use xlink:href="#Layer0_0_MEMBER_1_MEMBER_4_MEMBER_5_MEMBER_9_MEMBER_4_FILL"/>
</g>

<g transform="matrix( 7, 0, 0, 7, -2677.2,-26.3) ">
<use xlink:href="#Layer0_0_MEMBER_1_MEMBER_4_MEMBER_5_MEMBER_9_MEMBER_5_MEMBER_0_FILL"/>
</g>

<g transform="matrix( 7, 0, 0, 7, -2677.2,-26.3) ">
<use xlink:href="#Layer0_0_MEMBER_1_MEMBER_4_MEMBER_5_MEMBER_9_MEMBER_5_MEMBER_1_FILL"/>
</g>

<g transform="matrix( 7, 0, 0, 7, -2677.2,-26.3) ">
<use xlink:href="#Layer0_0_MEMBER_1_MEMBER_4_MEMBER_5_MEMBER_9_MEMBER_6_FILL"/>
</g>

<g transform="matrix( 7, 0, 0, 7, -2677.2,-26.3) ">
<use xlink:href="#Layer0_0_MEMBER_1_MEMBER_4_MEMBER_5_MEMBER_10_MEMBER_0_FILL"/>
</g>

<g transform="matrix( 7, 0, 0, 7, -2677.2,-26.3) ">
<use xlink:href="#Layer0_0_MEMBER_1_MEMBER_4_MEMBER_5_MEMBER_10_MEMBER_1_MEMBER_0_MEMBER_0_MEMBER_0_FILL"/>
</g>

<g transform="matrix( 7, 0, 0, 7, -2677.2,-26.3) ">
<use xlink:href="#Layer0_0_MEMBER_1_MEMBER_4_MEMBER_5_MEMBER_10_MEMBER_1_MEMBER_0_MEMBER_0_MEMBER_1_FILL"/>
</g>

<g transform="matrix( 7, 0, 0, 7, -2677.2,-26.3) ">
<use xlink:href="#Layer0_0_MEMBER_1_MEMBER_4_MEMBER_5_MEMBER_10_MEMBER_1_MEMBER_0_MEMBER_0_MEMBER_2_FILL"/>
</g>

<g transform="matrix( 7, 0, 0, 7, -2677.2,-26.3) ">
<use xlink:href="#Layer0_0_MEMBER_1_MEMBER_4_MEMBER_5_MEMBER_10_MEMBER_2_FILL"/>
</g>

<g transform="matrix( 7, 0, 0, 7, -2677.2,-26.3) ">
<use xlink:href="#Layer0_0_MEMBER_1_MEMBER_4_MEMBER_5_MEMBER_10_MEMBER_3_MEMBER_0_FILL"/>
</g>

<g transform="matrix( 7, 0, 0, 7, -2677.2,-26.3) ">
<use xlink:href="#Layer0_0_MEMBER_1_MEMBER_4_MEMBER_5_MEMBER_10_MEMBER_3_MEMBER_1_FILL"/>
</g>

<g transform="matrix( 7, 0, 0, 7, -2677.2,-26.3) ">
<use xlink:href="#Layer0_0_MEMBER_1_MEMBER_4_MEMBER_5_MEMBER_11_MEMBER_0_FILL"/>
</g>

<g transform="matrix( 7, 0, 0, 7, -2677.2,-26.3) ">
<use xlink:href="#Layer0_0_MEMBER_1_MEMBER_4_MEMBER_5_MEMBER_11_MEMBER_1_FILL"/>
</g>

<g transform="matrix( 7, 0, 0, 7, -2677.2,-26.3) ">
<use xlink:href="#Layer0_0_MEMBER_1_MEMBER_4_MEMBER_5_MEMBER_12_MEMBER_0_FILL"/>
</g>

<g transform="matrix( 7, 0, 0, 7, -2677.2,-26.3) ">
<use xlink:href="#Layer0_0_MEMBER_1_MEMBER_4_MEMBER_5_MEMBER_12_MEMBER_1_FILL"/>
</g>

<g transform="matrix( 7, 0, 0, 7, -2677.2,-26.3) ">
<use xlink:href="#Layer0_0_MEMBER_1_MEMBER_4_MEMBER_5_MEMBER_12_MEMBER_2_FILL"/>
</g>

<g transform="matrix( 7, 0, 0, 7, -2677.2,-26.3) ">
<use xlink:href="#Layer0_0_MEMBER_1_MEMBER_4_MEMBER_5_MEMBER_13_MEMBER_0_FILL"/>
</g>

<g transform="matrix( 7, 0, 0, 7, -2677.2,-26.3) ">
<use xlink:href="#Layer0_0_MEMBER_1_MEMBER_4_MEMBER_5_MEMBER_13_MEMBER_1_FILL"/>
</g>

<g transform="matrix( 7, 0, 0, 7, -2677.2,-26.3) ">
<use xlink:href="#Layer0_0_MEMBER_1_MEMBER_4_MEMBER_5_MEMBER_13_MEMBER_2_MEMBER_0_FILL"/>
</g>

<g transform="matrix( 7, 0, 0, 7, -2677.2,-26.3) ">
<use xlink:href="#Layer0_0_MEMBER_1_MEMBER_4_MEMBER_5_MEMBER_13_MEMBER_3_FILL"/>
</g>

<g transform="matrix( 7, 0, 0, 7, -2677.2,-26.3) ">
<use xlink:href="#Layer0_0_MEMBER_1_MEMBER_4_MEMBER_5_MEMBER_13_MEMBER_4_FILL"/>
</g>

<g transform="matrix( 7, 0, 0, 7, -2677.2,-26.3) ">
<use xlink:href="#Layer0_0_MEMBER_1_MEMBER_4_MEMBER_5_MEMBER_13_MEMBER_5_MEMBER_0_FILL"/>
</g>

<g transform="matrix( 7, 0, 0, 7, -2677.2,-26.3) ">
<use xlink:href="#Layer0_0_MEMBER_1_MEMBER_4_MEMBER_5_MEMBER_13_MEMBER_5_MEMBER_1_FILL"/>
</g>

<g transform="matrix( 7, 0, 0, 7, -2677.2,-26.3) ">
<use xlink:href="#Layer0_0_MEMBER_1_MEMBER_4_MEMBER_5_MEMBER_14_MEMBER_0_FILL"/>
</g>

<g transform="matrix( 7, 0, 0, 7, -2677.2,-26.3) ">
<use xlink:href="#Layer0_0_MEMBER_1_MEMBER_4_MEMBER_5_MEMBER_14_MEMBER_1_FILL"/>
</g>

<g transform="matrix( 7, 0, 0, 7, -2677.2,-26.3) ">
<use xlink:href="#Layer0_0_MEMBER_1_MEMBER_4_MEMBER_5_MEMBER_14_MEMBER_2_FILL"/>
</g>

<g transform="matrix( 7, 0, 0, 7, -2677.2,-26.3) ">
<use xlink:href="#Layer0_0_MEMBER_1_MEMBER_4_MEMBER_5_MEMBER_14_MEMBER_3_FILL"/>
</g>

<g transform="matrix( 7, 0, 0, 7, -2677.2,-26.3) ">
<use xlink:href="#Layer0_0_MEMBER_1_MEMBER_4_MEMBER_5_MEMBER_14_MEMBER_4_FILL"/>
</g>

<g transform="matrix( 7, 0, 0, 7, -2677.2,-26.3) ">
<use xlink:href="#Layer0_0_MEMBER_1_MEMBER_4_MEMBER_6_FILL"/>
</g>

<g transform="matrix( 7, 0, 0, 7, -2677.2,-26.3) ">
<use xlink:href="#Layer0_0_MEMBER_1_MEMBER_4_MEMBER_7_FILL"/>
</g>

<g transform="matrix( 7, 0, 0, 7, -2677.2,-26.3) ">
<use xlink:href="#Layer0_0_MEMBER_1_MEMBER_4_MEMBER_8_FILL"/>
</g>

<g transform="matrix( 7, 0, 0, 7, -2677.2,-26.3) ">
<use xlink:href="#Layer0_0_MEMBER_1_MEMBER_4_MEMBER_9_MEMBER_0_FILL"/>
</g>

<g transform="matrix( 7, 0, 0, 7, 523.9,407.35) ">
<use xlink:href="#Layer0_0_MEMBER_1_MEMBER_5_FILL"/>
</g>
</svg>
