<?xml version="1.0" encoding="utf-8"?>
<!-- Generator: Adobe Illustrator 22.0.0, SVG Export Plug-In . SVG Version: 6.00 Build 0)  -->
<svg version="1.1" id="图层_1" xmlns="http://www.w3.org/2000/svg" xmlns:xlink="http://www.w3.org/1999/xlink" x="0px" y="0px"
	 viewBox="0 0 297.6 297.6" style="enable-background:new 0 0 297.6 297.6;" xml:space="preserve">
<style type="text/css">
	.st0{fill:#DCE1E4;}
	.st1{fill:#E6EAEA;}
	.st2{fill:#7B787A;}
	.st3{fill:#FEFDFE;}
	.st4{fill:#FBEEE0;}
	.st5{fill:#553328;}
	.st6{fill:#AE4F32;}
	.st7{fill:#1E5142;}
	.st8{fill:#4E9236;}
	.st9{fill:#61A74E;}
	.st10{fill:#C7E1A8;}
	.st11{fill:#88B265;}
	.st12{fill:#74726E;}
	.st13{fill:#D4DAD4;}
	.st14{opacity:0.22;}
	.st15{fill:#9B9B9B;}
	.st16{fill:#ECC042;}
	.st17{fill:#FCF0D2;}
	.st18{fill:#4D7B3A;}
	.st19{fill:none;stroke:#FFFFFE;stroke-width:2;stroke-miterlimit:10;}
	.st20{fill:#F6F7F5;}
	.st21{fill:#F1B35F;}
	.st22{fill:#F0C35D;}
	.st23{fill:#FBE6BE;}
	.st24{fill:#30180F;}
	.st25{fill:#658F55;}
	.st26{fill:#6C995B;}
	.st27{fill:#AE5132;}
	.st28{fill:#F7F7F7;}
	.st29{fill:#7A492D;}
	.st30{opacity:0.33;fill:#F7F7F7;}
	.st31{fill:#FFFFFF;}
	.st32{fill:#E1B769;}
	.st33{fill:#D2A347;}
	.st34{fill:#EAEAEA;}
	.st35{fill:#559862;}
	.st36{fill:#447E4F;}
	.st37{opacity:0.11;fill:#323D44;}
	.st38{fill:#ECB129;}
	.st39{fill:#E38C22;}
	.st40{fill:#D67010;}
	.st41{fill:#E1A34E;}
	.st42{fill:#855676;}
	.st43{fill:#AE6995;}
	.st44{fill:#989786;}
	.st45{fill:#6A1217;}
	.st46{fill:#C32623;}
	.st47{fill:#D83633;}
	.st48{fill:#D49559;}
	.st49{fill:#B42328;}
	.st50{opacity:0.46;fill:#7E1C1E;}
	.st51{fill:#A88564;}
	.st52{fill:#8E5C27;}
	.st53{fill:#896443;}
	.st54{opacity:0.26;fill:#D8A69F;}
	.st55{fill:#E89E2A;}
	.st56{fill:#E3981A;}
	.st57{fill:#745123;}
	.st58{opacity:0.35;fill:#F2F2F2;}
	.st59{fill:#976D26;}
	.st60{opacity:0.4;fill:#D4C8AD;}
	.st61{fill:#F8EED2;}
	.st62{fill:#421D0B;}
	.st63{opacity:0.35;fill:#421D0B;}
	.st64{fill:#C94C32;}
	.st65{fill:#C95B48;}
	.st66{fill:#A09B68;}
	.st67{fill:#8F895C;}
	.st68{fill:#BA8A67;}
	.st69{fill:#E3D4B0;}
	.st70{fill:#F8E9DC;}
	.st71{fill:#BF7265;}
	.st72{fill:#8F4B43;}
	.st73{fill:#59662E;}
	.st74{fill:#878253;}
	.st75{fill:#F6B7B1;}
	.st76{fill:#D66962;}
	.st77{fill:#844F23;}
	.st78{fill:#5A3C26;}
	.st79{fill:#704520;}
	.st80{fill:#936534;}
	.st81{opacity:0.69;}
	.st82{opacity:0.13;}
	.st83{fill:#F2F2F2;}
</style>
<circle class="st0" cx="152.4" cy="156.7" r="105.6"/>
<g>
	<circle class="st1" cx="145.8" cy="149.1" r="103.1"/>
</g>
<circle class="st2" cx="145.8" cy="149.1" r="103.1"/>
<circle class="st3" cx="145.8" cy="149.1" r="89.9"/>
<circle class="st4" cx="145.8" cy="149.1" r="85.2"/>
<g>
	<path class="st7" d="M147.2,73.3c0,0-46,39.7-66.5,101.9C98.6,160.4,136.9,107.6,147.2,73.3z"/>
	<g>
		<circle class="st8" cx="138.9" cy="84.9" r="4.4"/>
		<path class="st9" d="M134.5,84.9c0,0.8,0.2,1.5,0.6,2.1c0.6,0.4,1.4,0.6,2.1,0.6c2.4,0,4.4-2,4.4-4.4c0-0.8-0.2-1.5-0.6-2.1
			c-0.6-0.4-1.4-0.6-2.1-0.6C136.5,80.5,134.5,82.5,134.5,84.9z"/>
		<path class="st10" d="M135.5,83.3c0,0.3,0.1,0.6,0.2,0.9c0.3,0.1,0.5,0.2,0.9,0.2c1,0,1.8-0.8,1.8-1.8c0-0.3-0.1-0.6-0.2-0.9
			c-0.3-0.1-0.5-0.2-0.9-0.2C136.3,81.6,135.5,82.4,135.5,83.3z"/>
	</g>
	<g>
		<circle class="st8" cx="88.3" cy="162.9" r="4.4"/>
		<path class="st9" d="M83.9,162.9c0,0.8,0.2,1.5,0.6,2.1c0.6,0.4,1.4,0.6,2.1,0.6c2.4,0,4.4-2,4.4-4.4c0-0.8-0.2-1.5-0.6-2.1
			c-0.6-0.4-1.4-0.6-2.1-0.6C85.9,158.5,83.9,160.5,83.9,162.9z"/>
		<path class="st10" d="M84.9,161.4c0,0.3,0.1,0.6,0.2,0.9c0.3,0.1,0.5,0.2,0.9,0.2c1,0,1.8-0.8,1.8-1.8c0-0.3-0.1-0.6-0.2-0.9
			c-0.3-0.1-0.5-0.2-0.9-0.2C85.7,159.6,84.9,160.4,84.9,161.4z"/>
	</g>
	<g>
		<circle class="st8" cx="133.1" cy="92.6" r="5"/>
		<path class="st9" d="M128.1,92.6c0,0.9,0.2,1.7,0.6,2.4c0.7,0.4,1.5,0.6,2.4,0.6c2.8,0,5-2.2,5-5c0-0.9-0.2-1.7-0.6-2.4
			c-0.7-0.4-1.5-0.6-2.4-0.6C130.4,87.6,128.1,89.8,128.1,92.6z"/>
		<path class="st10" d="M129.3,90.8c0,0.4,0.1,0.7,0.3,1c0.3,0.2,0.6,0.3,1,0.3c1.1,0,2-0.9,2-2c0-0.4-0.1-0.7-0.3-1
			c-0.3-0.2-0.6-0.3-1-0.3C130.2,88.8,129.3,89.7,129.3,90.8z"/>
	</g>
	<g>
		<circle class="st8" cx="127.8" cy="102.4" r="5.7"/>
		<path class="st9" d="M122.1,102.4c0,1,0.3,1.9,0.7,2.7c0.8,0.5,1.7,0.7,2.7,0.7c3.1,0,5.7-2.5,5.7-5.7c0-1-0.3-1.9-0.7-2.7
			c-0.8-0.5-1.7-0.7-2.7-0.7C124.7,96.7,122.1,99.2,122.1,102.4z"/>
		<path class="st10" d="M123.4,100.3c0,0.4,0.1,0.8,0.3,1.1c0.3,0.2,0.7,0.3,1.1,0.3c1.3,0,2.3-1,2.3-2.3c0-0.4-0.1-0.8-0.3-1.1
			c-0.3-0.2-0.7-0.3-1.1-0.3C124.5,98,123.4,99.1,123.4,100.3z"/>
	</g>
	<g>
		<circle class="st8" cx="107.3" cy="134" r="5.7"/>
		<path class="st9" d="M101.7,134c0,1,0.3,1.9,0.7,2.7c0.8,0.5,1.7,0.7,2.7,0.7c3.1,0,5.7-2.5,5.7-5.7c0-1-0.3-1.9-0.7-2.7
			c-0.8-0.5-1.7-0.7-2.7-0.7C104.2,128.4,101.7,130.9,101.7,134z"/>
		<path class="st10" d="M103,132c0,0.4,0.1,0.8,0.3,1.1c0.3,0.2,0.7,0.3,1.1,0.3c1.3,0,2.3-1,2.3-2.3c0-0.4-0.1-0.8-0.3-1.1
			c-0.3-0.2-0.7-0.3-1.1-0.3C104,129.7,103,130.7,103,132z"/>
	</g>
	<g>
		<circle class="st8" cx="100.3" cy="143.7" r="5.7"/>
		<path class="st9" d="M94.7,143.7c0,1,0.3,1.9,0.7,2.7c0.8,0.5,1.7,0.7,2.7,0.7c3.1,0,5.7-2.5,5.7-5.7c0-1-0.3-1.9-0.7-2.7
			c-0.8-0.5-1.7-0.7-2.7-0.7C97.2,138.1,94.7,140.6,94.7,143.7z"/>
		<path class="st10" d="M96,141.7c0,0.4,0.1,0.8,0.3,1.1c0.3,0.2,0.7,0.3,1.1,0.3c1.3,0,2.3-1,2.3-2.3c0-0.4-0.1-0.8-0.3-1.1
			c-0.3-0.2-0.7-0.3-1.1-0.3C97,139.4,96,140.4,96,141.7z"/>
	</g>
	<g>
		<circle class="st8" cx="94" cy="154.1" r="5.7"/>
		<path class="st9" d="M88.3,154.1c0,1,0.3,1.9,0.7,2.7c0.8,0.5,1.7,0.7,2.7,0.7c3.1,0,5.7-2.5,5.7-5.7c0-1-0.3-1.9-0.7-2.7
			c-0.8-0.5-1.7-0.7-2.7-0.7C90.8,148.4,88.3,150.9,88.3,154.1z"/>
		<path class="st10" d="M89.6,152c0,0.4,0.1,0.8,0.3,1.1c0.3,0.2,0.7,0.3,1.1,0.3c1.3,0,2.3-1,2.3-2.3c0-0.4-0.1-0.8-0.3-1.1
			c-0.3-0.2-0.7-0.3-1.1-0.3C90.6,149.7,89.6,150.8,89.6,152z"/>
	</g>
	<g>
		<circle class="st8" cx="121" cy="112.8" r="6.8"/>
		<path class="st9" d="M114.3,112.8c0,1.2,0.3,2.3,0.9,3.3c1,0.5,2.1,0.9,3.3,0.9c3.7,0,6.8-3,6.8-6.8c0-1.2-0.3-2.3-0.9-3.3
			c-1-0.5-2.1-0.9-3.3-0.9C117.3,106,114.3,109.1,114.3,112.8z"/>
		<path class="st10" d="M115.8,110.4c0,0.5,0.1,0.9,0.3,1.3c0.4,0.2,0.8,0.3,1.3,0.3c1.5,0,2.7-1.2,2.7-2.7c0-0.5-0.1-0.9-0.3-1.3
			c-0.4-0.2-0.8-0.3-1.3-0.3C117,107.6,115.8,108.8,115.8,110.4z"/>
	</g>
	<g>
		<circle class="st8" cx="114.1" cy="123.6" r="5.8"/>
		<path class="st9" d="M108.3,123.6c0,1,0.3,2,0.7,2.8c0.8,0.5,1.8,0.7,2.8,0.7c3.2,0,5.8-2.6,5.8-5.8c0-1-0.3-2-0.7-2.8
			c-0.8-0.5-1.8-0.7-2.8-0.7C110.9,117.8,108.3,120.4,108.3,123.6z"/>
		<path class="st10" d="M109.7,121.5c0,0.4,0.1,0.8,0.3,1.1c0.3,0.2,0.7,0.3,1.1,0.3c1.3,0,2.3-1,2.3-2.3c0-0.4-0.1-0.8-0.3-1.1
			c-0.3-0.2-0.7-0.3-1.1-0.3C110.7,119.2,109.7,120.2,109.7,121.5z"/>
	</g>
	<path class="st11" d="M147.2,73.3c0,0-50.5,25.1-66.5,101.9C112.9,99.6,147.2,73.3,147.2,73.3z"/>
	<path class="st11" d="M80.7,175.3c0,0,56-27.4,66.5-101.9C116.8,143.1,80.7,175.3,80.7,175.3z"/>
</g>
<g>
	<path class="st7" d="M177.1,79.7c0,0-53.9,46.5-77.9,119.4C120.3,181.7,165.1,119.8,177.1,79.7z"/>
	<g>
		<circle class="st8" cx="167.4" cy="93.2" r="5.2"/>
		<path class="st9" d="M162.3,93.2c0,0.9,0.2,1.8,0.6,2.5c0.7,0.4,1.6,0.6,2.5,0.6c2.8,0,5.2-2.3,5.2-5.2c0-0.9-0.2-1.8-0.6-2.5
			c-0.7-0.4-1.6-0.6-2.5-0.6C164.6,88.1,162.3,90.4,162.3,93.2z"/>
		<path class="st10" d="M163.4,91.4c0,0.4,0.1,0.7,0.3,1c0.3,0.2,0.6,0.3,1,0.3c1.2,0,2.1-0.9,2.1-2.1c0-0.4-0.1-0.7-0.3-1
			c-0.3-0.2-0.6-0.3-1-0.3C164.4,89.3,163.4,90.2,163.4,91.4z"/>
	</g>
	<g>
		<circle class="st8" cx="108.2" cy="184.6" r="5.2"/>
		<path class="st9" d="M103,184.6c0,0.9,0.2,1.8,0.6,2.5c0.7,0.4,1.6,0.6,2.5,0.6c2.8,0,5.2-2.3,5.2-5.2c0-0.9-0.2-1.8-0.6-2.5
			c-0.7-0.4-1.6-0.6-2.5-0.6C105.3,179.5,103,181.8,103,184.6z"/>
		<path class="st10" d="M104.2,182.8c0,0.4,0.1,0.7,0.3,1c0.3,0.2,0.6,0.3,1,0.3c1.2,0,2.1-0.9,2.1-2.1c0-0.4-0.1-0.7-0.3-1
			c-0.3-0.2-0.6-0.3-1-0.3C105.1,180.7,104.2,181.6,104.2,182.8z"/>
	</g>
	<g>
		<circle class="st8" cx="160.7" cy="102.2" r="5.9"/>
		<path class="st9" d="M154.8,102.2c0,1,0.3,2,0.7,2.8c0.8,0.5,1.8,0.7,2.8,0.7c3.2,0,5.9-2.6,5.9-5.9c0-1-0.3-2-0.7-2.8
			c-0.8-0.5-1.8-0.7-2.8-0.7C157.4,96.4,154.8,99,154.8,102.2z"/>
		<path class="st10" d="M156.1,100.1c0,0.4,0.1,0.8,0.3,1.1c0.3,0.2,0.7,0.3,1.1,0.3c1.3,0,2.4-1.1,2.4-2.4c0-0.4-0.1-0.8-0.3-1.1
			c-0.3-0.2-0.7-0.3-1.1-0.3C157.2,97.8,156.1,98.8,156.1,100.1z"/>
	</g>
	<g>
		<circle class="st8" cx="154.4" cy="113.7" r="6.6"/>
		<path class="st9" d="M147.8,113.7c0,1.2,0.3,2.3,0.8,3.2c1,0.5,2,0.8,3.2,0.8c3.7,0,6.6-3,6.6-6.6c0-1.2-0.3-2.3-0.8-3.2
			c-1-0.5-2-0.8-3.2-0.8C150.8,107.1,147.8,110,147.8,113.7z"/>
		<path class="st10" d="M149.3,111.3c0,0.5,0.1,0.9,0.3,1.3c0.4,0.2,0.8,0.3,1.3,0.3c1.5,0,2.7-1.2,2.7-2.7c0-0.5-0.1-0.9-0.3-1.3
			c-0.4-0.2-0.8-0.3-1.3-0.3C150.5,108.6,149.3,109.8,149.3,111.3z"/>
	</g>
	<g>
		<circle class="st8" cx="130.5" cy="150.8" r="6.6"/>
		<path class="st9" d="M123.8,150.8c0,1.2,0.3,2.3,0.8,3.2c1,0.5,2,0.8,3.2,0.8c3.7,0,6.6-3,6.6-6.6c0-1.2-0.3-2.3-0.8-3.2
			c-1-0.5-2-0.8-3.2-0.8C126.8,144.1,123.8,147.1,123.8,150.8z"/>
		<path class="st10" d="M125.4,148.4c0,0.5,0.1,0.9,0.3,1.3c0.4,0.2,0.8,0.3,1.3,0.3c1.5,0,2.7-1.2,2.7-2.7c0-0.5-0.1-0.9-0.3-1.3
			c-0.4-0.2-0.8-0.3-1.3-0.3C126.6,145.7,125.4,146.9,125.4,148.4z"/>
	</g>
	<g>
		<circle class="st8" cx="122.2" cy="162.2" r="6.6"/>
		<path class="st9" d="M115.6,162.2c0,1.2,0.3,2.3,0.8,3.2c1,0.5,2,0.8,3.2,0.8c3.7,0,6.6-3,6.6-6.6c0-1.2-0.3-2.3-0.8-3.2
			c-1-0.5-2-0.8-3.2-0.8C118.6,155.5,115.6,158.5,115.6,162.2z"/>
		<path class="st10" d="M117.1,159.8c0,0.5,0.1,0.9,0.3,1.3c0.4,0.2,0.8,0.3,1.3,0.3c1.5,0,2.7-1.2,2.7-2.7c0-0.5-0.1-0.9-0.3-1.3
			c-0.4-0.2-0.8-0.3-1.3-0.3C118.3,157.1,117.1,158.3,117.1,159.8z"/>
	</g>
	<g>
		<circle class="st8" cx="114.8" cy="174.2" r="6.6"/>
		<path class="st9" d="M108.2,174.2c0,1.2,0.3,2.3,0.8,3.2c1,0.5,2,0.8,3.2,0.8c3.7,0,6.6-3,6.6-6.6c0-1.2-0.3-2.3-0.8-3.2
			c-1-0.5-2-0.8-3.2-0.8C111.1,167.6,108.2,170.6,108.2,174.2z"/>
		<path class="st10" d="M109.7,171.9c0,0.5,0.1,0.9,0.3,1.3c0.4,0.2,0.8,0.3,1.3,0.3c1.5,0,2.7-1.2,2.7-2.7c0-0.5-0.1-0.9-0.3-1.3
			c-0.4-0.2-0.8-0.3-1.3-0.3C110.9,169.2,109.7,170.4,109.7,171.9z"/>
	</g>
	<g>
		<circle class="st8" cx="146.5" cy="125.9" r="7.9"/>
		<path class="st9" d="M138.6,125.9c0,1.4,0.4,2.7,1,3.8c1.1,0.6,2.5,1,3.8,1c4.4,0,7.9-3.6,7.9-7.9c0-1.4-0.4-2.7-1-3.8
			c-1.1-0.6-2.5-1-3.8-1C142.1,118,138.6,121.5,138.6,125.9z"/>
		<path class="st10" d="M140.4,123c0,0.6,0.1,1.1,0.4,1.6c0.5,0.3,1,0.4,1.6,0.4c1.8,0,3.2-1.4,3.2-3.2c0-0.6-0.1-1.1-0.4-1.6
			c-0.5-0.3-1-0.4-1.6-0.4C141.8,119.8,140.4,121.3,140.4,123z"/>
	</g>
	<g>
		<circle class="st8" cx="138.4" cy="138.6" r="6.8"/>
		<path class="st9" d="M131.6,138.6c0,1.2,0.3,2.3,0.9,3.3c1,0.5,2.1,0.9,3.3,0.9c3.8,0,6.8-3,6.8-6.8c0-1.2-0.3-2.3-0.9-3.3
			c-1-0.5-2.1-0.9-3.3-0.9C134.7,131.8,131.6,134.8,131.6,138.6z"/>
		<path class="st10" d="M133.2,136.1c0,0.5,0.1,0.9,0.3,1.3c0.4,0.2,0.8,0.3,1.3,0.3c1.5,0,2.7-1.2,2.7-2.7c0-0.5-0.1-0.9-0.3-1.3
			c-0.4-0.2-0.8-0.3-1.3-0.3C134.4,133.4,133.2,134.6,133.2,136.1z"/>
	</g>
	<path class="st11" d="M177.1,79.7c0,0-59.2,29.4-77.9,119.4C137,110.4,177.1,79.7,177.1,79.7z"/>
	<path class="st11" d="M99.2,199.1c0,0,65.6-32.1,77.9-119.4C141.5,161.4,99.2,199.1,99.2,199.1z"/>
</g>
<g>
	<path class="st7" d="M123.1,212.5c0,0,55.2-44.1,81.9-115.6C183.4,113.4,136.6,173.1,123.1,212.5z"/>
	<g>
		<circle class="st8" cx="133.3" cy="199.4" r="5.1"/>
		<path class="st9" d="M138.4,199.6c0-0.9-0.2-1.8-0.5-2.5c-0.7-0.4-1.6-0.7-2.5-0.7c-2.8-0.1-5.2,2.1-5.3,4.9
			c0,0.9,0.2,1.8,0.5,2.5c0.7,0.4,1.6,0.7,2.5,0.7C135.9,204.6,138.3,202.4,138.4,199.6z"/>
		<path class="st10" d="M137.1,201.4c0-0.4-0.1-0.7-0.2-1c-0.3-0.2-0.6-0.3-1-0.3c-1.1,0-2.1,0.8-2.1,2c0,0.4,0.1,0.7,0.2,1
			c0.3,0.2,0.6,0.3,1,0.3C136.1,203.4,137.1,202.5,137.1,201.4z"/>
	</g>
	<g>
		<circle class="st8" cx="195.6" cy="110.9" r="5.1"/>
		<path class="st9" d="M200.7,111.1c0-0.9-0.2-1.8-0.5-2.5c-0.7-0.4-1.6-0.7-2.5-0.7c-2.8-0.1-5.2,2.1-5.3,4.9
			c0,0.9,0.2,1.8,0.5,2.5c0.7,0.4,1.6,0.7,2.5,0.7C198.2,116.1,200.6,113.9,200.7,111.1z"/>
		<path class="st10" d="M199.4,112.9c0-0.4-0.1-0.7-0.2-1c-0.3-0.2-0.6-0.3-1-0.3c-1.1,0-2.1,0.8-2.1,2c0,0.4,0.1,0.7,0.2,1
			c0.3,0.2,0.6,0.3,1,0.3C198.4,114.9,199.4,114,199.4,112.9z"/>
	</g>
	<g>
		<circle class="st8" cx="140.3" cy="190.7" r="5.8"/>
		<path class="st9" d="M146.1,190.9c0-1-0.2-2-0.6-2.8c-0.8-0.5-1.8-0.8-2.8-0.8c-3.2-0.1-5.9,2.4-6,5.6c0,1,0.2,2,0.6,2.8
			c0.8,0.5,1.8,0.8,2.8,0.8C143.3,196.6,146,194.1,146.1,190.9z"/>
		<path class="st10" d="M144.7,193c0-0.4-0.1-0.8-0.3-1.1c-0.3-0.2-0.7-0.3-1.1-0.3c-1.3,0-2.4,1-2.4,2.3c0,0.4,0.1,0.8,0.3,1.1
			c0.3,0.2,0.7,0.3,1.1,0.3C143.6,195.3,144.7,194.3,144.7,193z"/>
	</g>
	<g>
		<circle class="st8" cx="146.9" cy="179.6" r="6.6"/>
		<path class="st9" d="M153.5,179.8c0-1.2-0.2-2.3-0.7-3.2c-0.9-0.6-2-0.9-3.2-0.9c-3.6-0.1-6.7,2.7-6.8,6.3c0,1.2,0.2,2.3,0.7,3.2
			c0.9,0.6,2,0.9,3.2,0.9C150.3,186.3,153.4,183.5,153.5,179.8z"/>
		<path class="st10" d="M151.9,182.2c0-0.5-0.1-0.9-0.3-1.3c-0.4-0.2-0.8-0.4-1.3-0.4c-1.5-0.1-2.7,1.1-2.8,2.6
			c0,0.5,0.1,0.9,0.3,1.3c0.4,0.2,0.8,0.4,1.3,0.4C150.6,184.8,151.9,183.6,151.9,182.2z"/>
	</g>
	<g>
		<circle class="st8" cx="172.1" cy="143.7" r="6.6"/>
		<path class="st9" d="M178.7,143.9c0-1.2-0.2-2.3-0.7-3.2c-0.9-0.6-2-0.9-3.2-0.9c-3.6-0.1-6.7,2.7-6.8,6.3c0,1.2,0.2,2.3,0.7,3.2
			c0.9,0.6,2,0.9,3.2,0.9C175.5,150.4,178.6,147.6,178.7,143.9z"/>
		<path class="st10" d="M177.1,146.3c0-0.5-0.1-0.9-0.3-1.3c-0.4-0.2-0.8-0.4-1.3-0.4c-1.5-0.1-2.7,1.1-2.8,2.6
			c0,0.5,0.1,0.9,0.3,1.3c0.4,0.2,0.8,0.4,1.3,0.4C175.8,148.9,177.1,147.7,177.1,146.3z"/>
	</g>
	<g>
		<circle class="st8" cx="180.7" cy="132.7" r="6.6"/>
		<path class="st9" d="M187.3,132.9c0-1.2-0.2-2.3-0.7-3.2c-0.9-0.6-2-0.9-3.2-0.9c-3.6-0.1-6.7,2.7-6.8,6.3c0,1.2,0.2,2.3,0.7,3.2
			c0.9,0.6,2,0.9,3.2,0.9C184.1,139.4,187.2,136.6,187.3,132.9z"/>
		<path class="st10" d="M185.7,135.2c0-0.5-0.1-0.9-0.3-1.3c-0.4-0.2-0.8-0.4-1.3-0.4c-1.5-0.1-2.7,1.1-2.8,2.6
			c0,0.5,0.1,0.9,0.3,1.3c0.4,0.2,0.8,0.4,1.3,0.4C184.4,137.9,185.7,136.7,185.7,135.2z"/>
	</g>
	<g>
		<circle class="st8" cx="188.6" cy="121" r="6.6"/>
		<path class="st9" d="M195.2,121.2c0-1.2-0.2-2.3-0.7-3.2c-0.9-0.6-2-0.9-3.2-0.9c-3.6-0.1-6.7,2.7-6.8,6.3c0,1.2,0.2,2.3,0.7,3.2
			c0.9,0.6,2,0.9,3.2,0.9C192,127.7,195,124.9,195.2,121.2z"/>
		<path class="st10" d="M193.6,123.5c0-0.5-0.1-0.9-0.3-1.3c-0.4-0.2-0.8-0.4-1.3-0.4c-1.5-0.1-2.7,1.1-2.8,2.6
			c0,0.5,0.1,0.9,0.3,1.3c0.4,0.2,0.8,0.4,1.3,0.4C192.3,126.1,193.5,125,193.6,123.5z"/>
	</g>
	<g>
		<circle class="st8" cx="155.3" cy="167.7" r="7.9"/>
		<path class="st9" d="M163.2,168.1c0.1-1.4-0.3-2.7-0.8-3.9c-1.1-0.7-2.4-1.1-3.8-1.1c-4.4-0.2-8,3.2-8.2,7.6
			c-0.1,1.4,0.3,2.7,0.8,3.9c1.1,0.7,2.4,1.1,3.8,1.1C159.3,175.8,163,172.4,163.2,168.1z"/>
		<path class="st10" d="M161.3,170.8c0-0.6-0.1-1.1-0.3-1.6c-0.4-0.3-1-0.4-1.5-0.5c-1.8-0.1-3.2,1.3-3.3,3.1c0,0.6,0.1,1.1,0.3,1.6
			c0.4,0.3,1,0.4,1.5,0.5C159.7,174,161.2,172.6,161.3,170.8z"/>
	</g>
	<g>
		<circle class="st8" cx="163.8" cy="155.5" r="6.8"/>
		<path class="st9" d="M170.5,155.7c0-1.2-0.2-2.3-0.7-3.3c-0.9-0.6-2-0.9-3.2-1c-3.7-0.1-6.9,2.8-7,6.5c0,1.2,0.2,2.3,0.7,3.3
			c0.9,0.6,2,0.9,3.2,1C167.2,162.4,170.4,159.4,170.5,155.7z"/>
		<path class="st10" d="M168.9,158.1c0-0.5-0.1-0.9-0.3-1.3c-0.4-0.2-0.8-0.4-1.3-0.4c-1.5-0.1-2.8,1.1-2.8,2.6
			c0,0.5,0.1,0.9,0.3,1.3c0.4,0.2,0.8,0.4,1.3,0.4C167.6,160.8,168.8,159.6,168.9,158.1z"/>
	</g>
	<path class="st11" d="M123.1,212.5c0,0,59.9-27,81.9-115.6C164.2,183.5,123.1,212.5,123.1,212.5z"/>
	<path class="st11" d="M205,96.9c0,0-66.3,29.4-81.9,115.6C161.6,132.7,205,96.9,205,96.9z"/>
</g>
<g>
	<circle class="st8" cx="162.5" cy="199.1" r="6.8"/>
	<path class="st9" d="M162.9,192.3c-1.2-0.1-2.3,0.2-3.3,0.7c-0.6,0.9-1,2-1,3.2c-0.2,3.7,2.7,6.9,6.4,7.1c1.2,0.1,2.3-0.2,3.3-0.7
		c0.6-0.9,1-2,1-3.2C169.5,195.7,166.6,192.5,162.9,192.3z"/>
	<path class="st10" d="M165.2,194c-0.5,0-0.9,0.1-1.3,0.3c-0.2,0.4-0.4,0.8-0.4,1.3c-0.1,1.5,1.1,2.8,2.6,2.9c0.5,0,0.9-0.1,1.3-0.3
		c0.2-0.4,0.4-0.8,0.4-1.3C167.9,195.3,166.7,194.1,165.2,194z"/>
</g>
<g>
	<circle class="st8" cx="178.3" cy="189.8" r="7.9"/>
	<path class="st9" d="M182.5,183.2c-1.2-0.7-2.5-1.1-3.8-1.2c-1.1,0.6-2.1,1.5-2.9,2.7c-2.3,3.7-1.3,8.6,2.4,10.9
		c1.2,0.7,2.5,1.1,3.8,1.2c1.1-0.6,2.1-1.5,2.9-2.7C187.3,190.4,186.2,185.5,182.5,183.2z"/>
	<path class="st10" d="M184,186.2c-0.5-0.3-1-0.5-1.5-0.5c-0.5,0.2-0.9,0.6-1.2,1.1c-0.9,1.5-0.5,3.5,1,4.4c0.5,0.3,1,0.5,1.5,0.5
		c0.5-0.2,0.9-0.6,1.2-1.1C185.9,189.1,185.5,187.1,184,186.2z"/>
</g>
<g>
	<path class="st24" d="M198.7,163.7L198.7,163.7c-4.7,0-8.6-3.9-8.6-8.6v0c0-4.7,3.9-8.6,8.6-8.6h0c4.7,0,8.6,3.9,8.6,8.6v0
		C207.3,159.9,203.5,163.7,198.7,163.7z"/>
	<circle class="st20" cx="198.7" cy="152.3" r="2.9"/>
</g>
<g>
	<path class="st24" d="M199.4,112.9L199.4,112.9c-1.7,0-3.1-1.4-3.1-3.1v0c0-1.7,1.4-3.1,3.1-3.1l0,0c1.7,0,3.1,1.4,3.1,3.1v0
		C202.6,111.5,201.2,112.9,199.4,112.9z"/>
	<circle class="st20" cx="199.4" cy="108.8" r="1"/>
</g>
<g>
	<path class="st24" d="M108.3,152.9L108.3,152.9c-1.7,0-3.1-1.4-3.1-3.1l0,0c0-1.7,1.4-3.1,3.1-3.1h0c1.7,0,3.1,1.4,3.1,3.1l0,0
		C111.5,151.5,110.1,152.9,108.3,152.9z"/>
	<circle class="st20" cx="108.3" cy="148.7" r="1"/>
</g>
<g>
	<path class="st24" d="M133.1,186.8L133.1,186.8c-1.7,0-3.1-1.4-3.1-3.1v0c0-1.7,1.4-3.1,3.1-3.1l0,0c1.7,0,3.1,1.4,3.1,3.1v0
		C136.2,185.4,134.8,186.8,133.1,186.8z"/>
	<circle class="st20" cx="133.1" cy="182.6" r="1"/>
</g>
<path class="st24" d="M196.9,168.8l1.1,6.2c0,0.3,0.3,0.4,0.6,0.3l6-2.2c0.4-0.2,0.8,0.4,0.4,0.7l-4.9,4.1c-0.2,0.2-0.2,0.5,0,0.7
	l4.9,4.1c0.4,0.3,0,0.9-0.4,0.7l-6-2.2c-0.2-0.1-0.5,0.1-0.6,0.3l-1.1,6.2c-0.1,0.5-0.8,0.5-0.8,0l-1.1-6.2c0-0.3-0.3-0.4-0.6-0.3
	l-6,2.2c-0.4,0.2-0.8-0.4-0.4-0.7l4.9-4.1c0.2-0.2,0.2-0.5,0-0.7l-4.9-4.1c-0.4-0.3,0-0.9,0.4-0.7l6,2.2c0.2,0.1,0.5-0.1,0.6-0.3
	l1.1-6.2C196.2,168.3,196.9,168.3,196.9,168.8z"/>
</svg>
