<?xml version="1.0" encoding="iso-8859-1"?>
<!-- Generator: Adobe Illustrator 23.0.2, SVG Export Plug-In . SVG Version: 6.00 Build 0)  -->
<svg version="1.1" id="&#x56FE;&#x5C42;_1" xmlns="http://www.w3.org/2000/svg" xmlns:xlink="http://www.w3.org/1999/xlink" x="0px"
	 y="0px" viewBox="0 0 500 500" style="enable-background:new 0 0 500 500;" xml:space="preserve">
<g>
	<path style="opacity:0.64;fill:#5A78EB;" d="M377.154,341.059H156.478c-8.441,0-15.347-6.906-15.347-15.347v-134
		c0-8.441,6.906-15.347,15.347-15.347h220.677c8.441,0,15.347,6.906,15.347,15.347v134
		C392.502,334.152,385.595,341.059,377.154,341.059z"/>
	<g id="&#x4E0A;&#x5347;&#x677F;_1_">
		<g>
			<defs>
				<path id="XMLID_74_" d="M368.845,333.988H151.447c-7.839,0-14.253-6.414-14.253-14.253V185.104
					c0-7.839,6.414-14.253,14.253-14.253h217.399c7.839,0,14.253,6.414,14.253,14.253v134.631
					C383.098,327.574,376.684,333.988,368.845,333.988z"/>
			</defs>
			<use xlink:href="#XMLID_74_"  style="overflow:visible;fill:#FFFFFF;"/>
			<clipPath id="XMLID_2_">
				<use xlink:href="#XMLID_74_"  style="overflow:visible;"/>
			</clipPath>
			<rect x="92.811" y="148.061" style="clip-path:url(#XMLID_2_);fill:#E0E6F8;" width="302.282" height="51.58"/>
		</g>
		<circle style="fill:#F06361;" cx="322.522" cy="185.846" r="4.798"/>
		<circle style="fill:#F8BB3F;" cx="341.714" cy="185.846" r="4.798"/>
		<circle style="fill:#2FC843;" cx="360.907" cy="185.846" r="4.798"/>
		<path style="fill:#FA6464;" d="M260.746,211.636c0,0-13.195,38.385-39.585,40.784h28.789v63.575h10.796h10.796V252.42h28.789
			C273.941,250.021,260.746,211.636,260.746,211.636z"/>
		<path style="fill:#232323;" d="M218.762,218.322h-67.174c-0.38,0-0.688-0.308-0.688-0.688c0-0.38,0.308-0.688,0.688-0.688h67.174
			c0.38,0,0.688,0.308,0.688,0.688C219.45,218.014,219.142,218.322,218.762,218.322z"/>
		<path style="fill:#232323;" d="M170.781,224.619h-19.192c-0.38,0-0.688-0.308-0.688-0.688c0-0.38,0.308-0.688,0.688-0.688h19.192
			c0.38,0,0.688,0.308,0.688,0.688C171.469,224.311,171.161,224.619,170.781,224.619z"/>
		<path style="fill:#232323;" d="M218.762,224.619h-41.983c-0.38,0-0.688-0.308-0.688-0.688c0-0.38,0.308-0.688,0.688-0.688h41.983
			c0.38,0,0.688,0.308,0.688,0.688C219.45,224.311,219.142,224.619,218.762,224.619z"/>
		<path style="fill:#232323;" d="M182.776,230.917h-31.188c-0.38,0-0.688-0.308-0.688-0.688c0-0.38,0.308-0.688,0.688-0.688h31.188
			c0.38,0,0.688,0.308,0.688,0.688C183.464,230.609,183.156,230.917,182.776,230.917z"/>
		<path style="fill:#232323;" d="M194.771,237.214h-43.183c-0.38,0-0.688-0.308-0.688-0.688c0-0.38,0.308-0.688,0.688-0.688h43.183
			c0.38,0,0.688,0.308,0.688,0.688C195.459,236.907,195.152,237.214,194.771,237.214z"/>
		<path style="fill:#232323;" d="M158.785,243.512h-7.197c-0.38,0-0.688-0.308-0.688-0.688s0.308-0.688,0.688-0.688h7.197
			c0.38,0,0.688,0.308,0.688,0.688S159.166,243.512,158.785,243.512z"/>
		<path style="fill:#232323;" d="M203.168,230.917h-14.394c-0.38,0-0.688-0.308-0.688-0.688c0-0.38,0.308-0.688,0.688-0.688h14.394
			c0.38,0,0.688,0.308,0.688,0.688C203.856,230.609,203.549,230.917,203.168,230.917z"/>
		<path style="fill:#232323;" d="M235.556,237.214h-34.787c-0.38,0-0.688-0.308-0.688-0.688c0-0.38,0.308-0.688,0.688-0.688h34.787
			c0.38,0,0.688,0.308,0.688,0.688C236.244,236.907,235.936,237.214,235.556,237.214z"/>
		<path style="fill:#232323;" d="M205.567,243.512h-43.183c-0.38,0-0.688-0.308-0.688-0.688s0.308-0.688,0.688-0.688h43.183
			c0.38,0,0.688,0.308,0.688,0.688S205.948,243.512,205.567,243.512z"/>
		<circle style="fill:#5A78EB;" cx="337.538" cy="294.425" r="3.621"/>
		<circle style="fill:#5A78EB;" cx="351.618" cy="294.425" r="3.621"/>
		<circle style="fill:#5A78EB;" cx="365.697" cy="294.425" r="3.621"/>
		<circle style="fill:#5A78EB;" cx="337.538" cy="307.298" r="3.621"/>
		<circle style="fill:#5A78EB;" cx="351.618" cy="307.298" r="3.621"/>
		<circle style="fill:#5A78EB;" cx="365.697" cy="307.298" r="3.621"/>
		<circle style="fill:#5A78EB;" cx="337.538" cy="320.172" r="3.621"/>
		<circle style="fill:#5A78EB;" cx="351.618" cy="320.172" r="3.621"/>
		<circle style="fill:#5A78EB;" cx="365.697" cy="320.172" r="3.621"/>
	</g>
	<path style="fill:#232323;" d="M335.88,322.771H150.724c-14.156,0-25.673-11.518-25.673-25.673V181.771
		c0-14.156,11.517-25.673,25.673-25.673H335.88c14.156,0,25.673,11.518,25.673,25.673v115.326
		C361.554,311.253,350.037,322.771,335.88,322.771z M150.724,158.85c-12.638,0-22.92,10.283-22.92,22.921v115.326
		c0,12.638,10.282,22.921,22.92,22.921H335.88c12.638,0,22.921-10.283,22.921-22.921V181.771c0-12.638-10.283-22.921-22.921-22.921
		H150.724z"/>
</g>
</svg>
