<?xml version="1.0" encoding="utf-8"?>
<!-- Generator: Adobe Illustrator 22.0.0, SVG Export Plug-In . SVG Version: 6.00 Build 0)  -->
<svg version="1.1" id="图层_1" xmlns="http://www.w3.org/2000/svg" xmlns:xlink="http://www.w3.org/1999/xlink" x="0px" y="0px"
	 viewBox="0 0 1300 1500" enable-background="new 0 0 1300 1500" xml:space="preserve">
<g>
	<polygon fill-rule="evenodd" clip-rule="evenodd" fill="#C30C00" points="682.4,737 1193.6,737 1193.6,832.6 526.2,832.6 
		526.2,737 	"/>
	<path fill-rule="evenodd" clip-rule="evenodd" fill="#FE3B00" d="M271,453h211.6v343.3h-19.8C385.4,796.2,322,859.5,322,937v7.3
		H88.5V635.4C88.5,535,170.6,453,271,453z"/>
	<path fill-rule="evenodd" clip-rule="evenodd" fill="#C30C00" d="M375.5,826.8c-14.3,11.4-26.3,25.4-35.3,41.4H153.2
		c-21.3,0-38.7-17.4-38.7-38.7V635.4l260.9-31.3V826.8z"/>
	<path fill-rule="evenodd" clip-rule="evenodd" fill="#2F7FB6" d="M375.5,478.8H271c-86.1,0-156.6,70.5-156.6,156.6V666h199.2
		c34.1,0,61.9-27.9,61.9-61.9V478.8z"/>
	<path fill-rule="evenodd" clip-rule="evenodd" fill="#5BBAC7" d="M366.9,487.4h-1.7l-170,170h36.2l135.4-135.5V487.4L366.9,487.4z
		 M336.7,487.4l-170,170H123v-22c0-8.9,0.8-17.6,2.3-26.1l119.5-119.5c8.5-1.5,17.2-2.3,26.1-2.3H336.7z"/>
	<path fill-rule="evenodd" clip-rule="evenodd" fill="#C36A2D" d="M287.1,687.1h43.7c4.3,0,7.8,3.5,7.8,7.7v7.7h-59.2v-7.7
		C279.4,690.6,282.9,687.1,287.1,687.1z"/>
	<path fill-rule="evenodd" clip-rule="evenodd" fill="#C36A2D" d="M113.2,675L113.2,675c3,0,5.4,2.4,5.4,5.4v44.4
		c0,3-2.4,5.4-5.4,5.4l0,0c-3,0-5.4-2.4-5.4-5.4v-44.4C107.8,677.4,110.2,675,113.2,675z"/>
	<polygon fill-rule="evenodd" clip-rule="evenodd" fill="#3B3B3B" points="61.3,887.6 109.8,887.6 138.1,915.9 138.1,1003.4 
		61.3,1003.4 	"/>
	<polygon fill-rule="evenodd" clip-rule="evenodd" fill="#6E6E6E" points="61.3,887.6 109.8,887.6 138.1,915.9 61.3,915.9 	"/>
	<path fill-rule="evenodd" clip-rule="evenodd" fill="#FF0000" d="M88.5,789.8h-7.1c-3.9,0-7.1,3.2-7.1,7.1v64.6
		c0,3.9,3.2,7.1,7.1,7.1h7.1V789.8z"/>
	<rect x="138.1" y="923.9" fill-rule="evenodd" clip-rule="evenodd" fill="#3B3B3B" width="184.4" height="37.7"/>
	<rect x="437.9" y="818.4" fill-rule="evenodd" clip-rule="evenodd" fill="#222222" width="755.7" height="51.2"/>
	<rect x="375.5" y="796.2" fill-rule="evenodd" clip-rule="evenodd" fill="#FE3B00" width="638.3" height="36.4"/>
	<path fill-rule="evenodd" clip-rule="evenodd" fill="#080808" d="M345.3,819.9c77.6,0,140.4,62.9,140.4,140.4l0,1.3H204.8l0-1.3
		C204.8,882.8,267.7,819.9,345.3,819.9z"/>
	<rect x="478.9" y="864.2" fill-rule="evenodd" clip-rule="evenodd" fill="#222222" width="582.8" height="78.5"/>
	<polygon fill-rule="evenodd" clip-rule="evenodd" fill="#222222" points="775,864.2 1193.6,864.2 1193.6,903.4 1154.3,942.7 
		775,942.7 	"/>
	<rect x="478.9" y="864.1" fill-rule="evenodd" clip-rule="evenodd" fill="#3B3B3B" width="582.8" height="28.4"/>
	<rect x="775" y="864.1" fill-rule="evenodd" clip-rule="evenodd" fill="#3B3B3B" width="418.6" height="28.4"/>
	<path fill-rule="evenodd" clip-rule="evenodd" fill="#FE3B00" d="M556,902.6h164.2c13.3,0,24.2,10.9,24.2,24.2v53.8
		c0,13.3-10.9,24.2-24.2,24.2H556c-13.3,0-24.2-10.9-24.2-24.2v-53.8C531.7,913.5,542.6,902.6,556,902.6z"/>
	<path fill-rule="evenodd" clip-rule="evenodd" fill="#C30C00" d="M744.4,961.6v19c0,13.3-10.9,24.2-24.2,24.2H556
		c-13.3,0-24.2-10.9-24.2-24.2v-19H744.4z"/>
	<rect x="585.5" y="892.5" fill-rule="evenodd" clip-rule="evenodd" fill="#3B3B3B" width="16.2" height="112.3"/>
	<rect x="601.7" y="902.6" fill-rule="evenodd" clip-rule="evenodd" fill="#C30C00" width="9.4" height="102.3"/>
	<rect x="669.6" y="892.5" fill-rule="evenodd" clip-rule="evenodd" fill="#3B3B3B" width="16.1" height="112.3"/>
	<rect x="685.8" y="902.6" fill-rule="evenodd" clip-rule="evenodd" fill="#C30C00" width="9.4" height="102.3"/>
	<g>
		<path fill-rule="evenodd" clip-rule="evenodd" fill="#222222" d="M345.3,1073.4c62.3,0,113.1-50.8,113.1-113.1
			c0-62.3-50.8-113.1-113.1-113.1c-62.3,0-113.1,50.8-113.1,113.1C232.2,1022.6,283,1073.4,345.3,1073.4z"/>
		<path fill="#DAD2C5" d="M255.2,962.3c-0.2-48.3,38.9-87.6,87.3-87.7c48.3-0.1,87.6,39,87.8,87.3c0.1,48.4-39,87.7-87.3,87.8
			C294.6,1049.7,255.4,1010.6,255.2,962.3z"/>
		<path fill="#7E8491" d="M290.9,962.2c0-28.6,23-51.8,51.7-51.9c28.6-0.1,51.8,23,51.9,51.6c0,28.6-23,51.8-51.6,51.9
			C314.3,1013.9,291.1,990.8,290.9,962.2z"/>
		<path fill="#2C2924" d="M304,962.2c-0.1-21.3,17.2-38.7,38.6-38.7c21.4-0.1,38.7,17.2,38.8,38.5c0.1,21.4-17.2,38.7-38.6,38.8
			C321.4,1000.8,304.1,983.5,304,962.2z"/>
	</g>
	<path fill-rule="evenodd" clip-rule="evenodd" fill="#3B3B3B" d="M978,793.3c92.9,0,168.3,75.3,168.3,168.2h-37.7
		c0-72.1-58.4-130.6-130.6-130.6c-72.1,0-130.6,58.5-130.6,130.6h-37.7C809.8,868.7,885.1,793.3,978,793.3z"/>
	<path fill-rule="evenodd" clip-rule="evenodd" fill="#080808" d="M978,819.9c77.6,0,140.4,62.9,140.4,140.4l0,1.3H837.6l0-1.3
		C837.6,882.8,900.4,819.9,978,819.9z"/>
	<g>
		<path fill-rule="evenodd" clip-rule="evenodd" fill="#222222" d="M978.8,1073.4c62.3,0,113.1-50.8,113.1-113.1
			c0-62.3-50.8-113.1-113.1-113.1c-62.3,0-113.1,50.8-113.1,113.1C865.7,1022.6,916.5,1073.4,978.8,1073.4z"/>
		<path fill-rule="evenodd" clip-rule="evenodd" fill="#222222" d="M978.8,1023.6c34.8,0,63.3-28.4,63.3-63.2
			c0-34.9-28.4-63.3-63.3-63.3c-34.8,0-63.3,28.4-63.3,63.3C915.5,995.2,943.9,1023.6,978.8,1023.6z"/>
		<path fill="#DAD2C5" d="M890.2,960.2c-0.2-48.2,38.8-87.4,87.1-87.6c48.2-0.1,87.5,38.9,87.6,87.1c0.1,48.3-38.9,87.5-87.2,87.6
			C929.5,1047.4,890.4,1008.4,890.2,960.2z"/>
		<path fill="#7E8491" d="M925.9,960.1c0-28.5,23-51.7,51.6-51.8c28.5-0.1,51.7,23,51.8,51.5c0,28.5-23,51.7-51.5,51.8
			C949.2,1011.7,926,988.6,925.9,960.1z"/>
		<path fill="#2C2924" d="M938.9,960c-0.1-21.3,17.2-38.7,38.5-38.7c21.3-0.1,38.6,17.2,38.7,38.5c0.1,21.3-17.2,38.7-38.6,38.7
			C956.3,998.6,939,981.3,938.9,960z"/>
	</g>
	<path fill-rule="evenodd" clip-rule="evenodd" fill="#3B3B3B" d="M346.4,793.3c92.9,0,168.3,75.3,168.3,168.2h-37.7
		c0-72.1-58.5-130.6-130.6-130.6c-72.1,0-130.6,58.5-130.6,130.6h-37.7C178.1,868.7,253.4,793.3,346.4,793.3z"/>
	<rect x="503.4" y="709.9" fill-rule="evenodd" clip-rule="evenodd" fill="#EFEFEF" width="734.6" height="27.1"/>
	<path fill-rule="evenodd" clip-rule="evenodd" fill="#C36A2D" d="M421,453h11.1v346.7c-3.8,0.8-7.5,1.8-11.1,3V453z"/>
	<rect x="503.4" y="399" fill-rule="evenodd" clip-rule="evenodd" fill="#C4C4C4" width="22.8" height="338"/>
	<rect x="503.4" y="590.3" fill-rule="evenodd" clip-rule="evenodd" fill="#6E6E6E" width="22.8" height="205.9"/>
	<path fill-rule="evenodd" clip-rule="evenodd" fill="#FF0000" d="M1193.6,768.5h7.1c3.9,0,7.1,3.2,7.1,7.1v64.6
		c0,3.9-3.2,7.1-7.1,7.1h-7.1V768.5z"/>
</g>
</svg>
