<?xml version="1.0" encoding="iso-8859-1"?>
<!-- Generator: Adobe Illustrator 23.0.2, SVG Export Plug-In . SVG Version: 6.00 Build 0)  -->
<svg version="1.1" id="&#x56FE;&#x5C42;_1" xmlns="http://www.w3.org/2000/svg" xmlns:xlink="http://www.w3.org/1999/xlink" x="0px"
	 y="0px" viewBox="0 0 382 366" style="enable-background:new 0 0 382 366;" xml:space="preserve">
<g>
	<g>
		<g>
			<path style="fill:#1B3261;" d="M374.656,246.67c-2.294-21.638-5.775-43.83-15.63-59.551
				c-4.493-7.168-10.888-11.878-18.114-15.205c-2.538-16.81-11.4-39.153-25.244-49.539c-6.527-4.896-13.634-6.813-21.128-5.714
				c-6.803,1.004-12.72,4.546-18.443,7.972c-4.89,2.925-9.508,5.689-14.644,7.022c-10.577,2.744-21.772,3.394-32.599,4.023
				c-2.473,0.143-4.942,0.287-7.402,0.454c-1.041,0.072-2.42,0.061-3.888,0.048c-4.15-0.037-8.87-0.072-11.833,1.473
				c-3.96,2.066-6.26,4.952-6.833,8.575c-0.966,6.089,3.397,12.573,6.054,15.867c-1.78,0.719-4.081,2.099-6.203,4.743
				c-6.063,7.552-7.507,20.954-4.278,39.896c2.878,13.914,12.062,57.117,17,66.776l-14.414,1.241
				c-37.898-35.201-25.389-113.739-24.913-116.6c12.418-46.385-7.608-56.606-10.54-57.829c-1.773-1.453-3.675-2.651-5.659-3.647
				c10.113-3.888,16.391-12.836,18.386-16.052l39.091,9.21c0.829,0.195,1.61,0.439,2.364,0.674c3.257,1.014,6.951,2.164,9.521-3.632
				c1.371-3.091,1.495-5.77,0.368-7.959c-2.12-4.12-7.884-5.31-12.97-6.358c-1.338-0.276-2.603-0.536-3.672-0.829l-35.028-9.582
				l0-0.003l-1.422-0.39c-0.036-0.01-0.07-0.016-0.106-0.025l-3.986-1.09c-37.873-12.94-67.704-0.49-68.954,0.047l-1.025,0.44
				l-0.032,1.114c-0.016,0.555-0.03,1.083-0.045,1.615l-15.433,1.957c-2.411,0.306-4.928,0.534-7.363,0.754
				c-4.107,0.371-8.353,0.755-12.423,1.533c-3.192,0.611-5.7,2.566-6.542,5.102c-0.753,2.268-0.123,4.662,1.777,6.741
				c2.063,2.258,4.648,2.87,7.224,2.87c1.659,0,3.314-0.253,4.825-0.485c0.804-0.123,1.596-0.245,2.361-0.325
				c2.257-0.238,4.514-0.49,6.771-0.732c0.117,0.966,0.348,2.172,0.824,3.403c1.444,3.742,4.433,5.889,8.414,6.045l0.162,0.006
				l9.583-1.418c0.079,0.225,0.159,0.331,0.233,0.426c0.642,0.824,5.934,4.856,10.18,8.035
				c-33.06,17.717-41.446,88.653-42.611,100.346l-1.702-0.068l-0.04-0.001c-1.563-0.02-38.32-0.486-52.108,13.243
				c-3.531,3.516-5.291,7.682-5.231,12.383l0.022,1.69l1.69,0.033c1.698,0.032,19.398,0.357,41.051,0.358
				c-5.047,3.733-13.167,10.733-20.447,21.458c-10.475,15.432-20.99,41.754-11.566,79.604c0.32,1.05,8.093,25.801,28.732,33.669
				c4.078,1.554,8.357,2.33,12.827,2.33c9.079,0,18.938-3.205,29.455-9.593c1.341-0.819,32.484-20.552,32.531-76.027h19.301
				c8.613,5.291,20.707,9.963,37.498,11.607l0.15,0.015l71.699-5.312c0.89,0.262,1.786,0.539,2.68,0.815
				c0.012,6.926,1.458,36.896,25.044,47.961c5.768,2.706,12.419,3.283,17.04,3.283c1.032,0,1.961-0.03,2.757-0.069
				c11.063-0.558,21.846-6.815,30.364-17.618c9.91-12.57,15.091-23.364,16.233-33.823c3.226-0.422,6.449-1.074,9.563-2.318
				c5.318-2.123,9.84-8.486,9.876-13.895c0.019-2.96-1.235-5.426-3.573-7.161c6.356-2.88,13.377-8.375,13.738-8.659l0.666-0.524
				v-4.636L374.656,246.67z"/>
			<path style="fill:#1B3261;" d="M202.346,146.771c0.396-2.506,2.032-4.477,5.002-6.026c2.188-1.144,6.627-1.116,10.19-1.078
				c1.534,0.009,2.981,0.024,4.151-0.057c2.449-0.166,4.907-0.308,7.368-0.451c10.995-0.638,22.364-1.298,33.274-4.128
				c5.621-1.459,10.673-4.483,15.559-7.407c5.679-3.399,11.043-6.61,17.159-7.512c6.538-0.969,12.773,0.735,18.525,5.052
				c13.199,9.903,20.983,31.293,23.527,45.139c-7.811-3.005-16.328-4.7-24.344-6.293l-0.728-0.144
				c-13.346-2.655-26.413-4.359-38.838-5.063l-0.061-0.003l-0.061,0.001c-5.988,0.083-11.39,0.707-16.208,1.847l-48.006,0.653
				C206.371,158.575,201.519,151.984,202.346,146.771z"/>
			<path style="fill:#1B3261;" d="M197.9,206.085c-3.764-22.094-0.187-32.285,3.475-36.944c3.122-3.971,6.554-4.32,6.801-4.34
				l38.496-0.523c-3.858,1.946-7.13,4.397-9.776,7.366c-7.944,8.915-7.413,19.212-7.305,20.553
				c-1.166,32.341,13.126,71.265,14.462,74.823c0.094,1.289,0.448,2.487,1.047,3.59l-30.798,2.653l0.609-0.701
				C212.237,269.856,204.145,236.261,197.9,206.085z"/>
			<path style="fill:#1B3261;" d="M159.831,103.378l0.285,0.105c0.21,0.077,20.869,8.253,8.637,53.843l-0.033,0.153
				c-0.043,0.245-4.236,24.865-1.65,52.815c3.207,34.655,15.442,59.824,35.487,73.24l-8.029,0.595
				c-34.023-4.872-50.844-52.103-51.009-52.581l-0.048-0.122c-8.777-20.213-14.277-24.371-16.521-25.168
				c-1.148-1.166-2.542-2.253-4.227-3.198c-6.362-37.503,15.315-97.415,18.819-106.742c6.473,0.652,12.935,2.588,18.046,6.861
				L159.831,103.378z"/>
			<path style="fill:#1B3261;" d="M150.723,94.567c-1.137-0.358-2.29-0.655-3.45-0.911c15.554-6.358,20.377-11.379,21.815-14.206
				c0.618,0.149,1.082,0.216,1.301,0.242l0.326,0.077C168.041,83.741,161.09,92.5,150.723,94.567z"/>
			<path style="fill:#1B3261;" d="M165.204,67.023l0.043-0.177c0.001-0.009,0.236-0.976,1.22-1.592
				c0.607-0.379,1.402-0.569,2.357-0.569c0.437,0,0.909,0.04,1.41,0.119l-1.092,11.009l-0.199-0.047
				c-1.133-0.394-2.511-1.099-3.375-2.375C164.525,71.852,164.402,69.709,165.204,67.023z"/>
			<path style="fill:#1B3261;" d="M208.114,75.093c1.176,0.322,2.492,0.593,3.886,0.88c4.107,0.846,9.217,1.901,10.572,4.536
				c0.628,1.221,0.481,2.841-0.454,4.95c-1.309,2.951-2.073,2.717-5.293,1.713c-0.775-0.241-1.653-0.515-2.603-0.738l-41.653-9.813
				l1.087-10.957L208.114,75.093z"/>
			<path style="fill:#1B3261;" d="M98.178,75.75c-1.734,0.191-3.469,0.373-5.204,0.563v-8.251l5.368-0.681
				C98.263,70.627,98.209,73.396,98.178,75.75z"/>
			<path style="fill:#1B3261;" d="M72.495,78.527c-0.817,0.086-1.663,0.216-2.523,0.348c-3.507,0.535-6.815,1.042-8.944-1.289
				c-0.713-0.782-1.473-1.986-1.041-3.287c0.437-1.318,1.963-2.407,3.885-2.774c3.9-0.745,8.059-1.121,12.082-1.486
				c2.465-0.223,5.014-0.453,7.487-0.767l6.044-0.767v8.185C83.822,77.307,78.16,77.931,72.495,78.527z"/>
			<path style="fill:#1B3261;" d="M88.85,87.22c-4.449-0.26-5.527-4.105-5.777-6.326c5.024-0.542,10.048-1.079,15.072-1.63
				c-0.013,2.977,0.02,5.078,0.082,6.568L88.85,87.22z"/>
			<path style="fill:#1B3261;" d="M101.937,63.493c5.317-1.961,30.697-10.124,61.954-0.667c-1.485,1.249-1.943,2.8-2.049,3.263
				c-1.094,3.71-0.812,6.825,0.837,9.26c0.866,1.279,2,2.181,3.136,2.824c-1.167,1.982-5.988,7.278-25.601,14.473
				c-12.415-0.885-24.226,2.454-27.532,3.49c-4.738-3.532-9.718-7.34-10.88-8.365C101.499,85.287,101.684,72.703,101.937,63.493z"/>
			<path style="fill:#1B3261;" d="M112.987,99.705c0.938-0.311,12.474-4.018,24.91-3.627c-4.512,12.05-24.216,67.596-18.965,105.303
				c-1.941-0.663-4.153-1.168-6.694-1.446l-42.32-1.685C71.192,186.263,80.194,113.969,112.987,99.705z"/>
			<path style="fill:#1B3261;" d="M64.597,201.531l47.321,1.88c4.313,0.479,7.529,1.667,9.932,3.201
				c-50.564,6.495-87.859,4.042-100.707,2.803C36.569,201.268,63.729,201.51,64.597,201.531z"/>
			<path style="fill:#1B3261;" d="M15.027,213.758c0.465-0.463,0.97-0.903,1.495-1.332c6.001,0.74,48.386,5.364,108.831-2.749
				c2.887,3.466,3.428,7.415,3.497,9.401c-22.363,4.226-104.727,3.07-117.948,2.853C11.231,218.872,12.591,216.185,15.027,213.758z"
				/>
			<path style="fill:#1B3261;" d="M118.174,275.165l-0.024,0.148l0.001,0.15c0.609,54.746-30.56,74.584-30.867,74.773
				c-14.715,8.937-27.905,11.291-39.206,6.988c-19.038-7.245-26.581-31.195-26.63-31.346c-9.069-36.432,0.977-61.752,11-76.578
				c9.855-14.578,21.629-22.187,23.882-23.56c4.686-0.014,9.494-0.044,14.317-0.098l-0.011,0.048
				c0.178,0.042,9.209,2.246,20.124,7.354c-1.001,3.052-3.452,10.527-6.261,19.092c-5.09,0.766-34.842,7.276-35.725,54.351
				c-0.02,0.979-0.367,24.077,11.477,31.154c2.26,1.348,4.78,2.022,7.554,2.022c4.049,0,8.634-1.438,13.71-4.309l0.335-0.247
				c0.312-0.293,31.101-29.851,15.838-73.736l-0.053,0.018l7.345-20.324c0.793,0.541,1.579,1.101,2.359,1.674l-0.412,0.265
				C119.813,263.083,118.19,275.055,118.174,275.165z"/>
			<path style="fill:#1B3261;" d="M72.093,289.964c-0.165,0.503-0.258,0.999-0.315,1.489l-4.044-1.413l1.428-4.808l4.018,1.415
				C72.513,288.681,72.115,289.896,72.093,289.964z"/>
			<path style="fill:#1B3261;" d="M74.268,283.331l-7.406-2.608l-3.423,11.515l9.158,3.199c0.657,1.113,1.655,2.062,2.992,2.724
				c1.103,0.545,2.377,0.852,3.664,0.852c2.221,0,4.483-0.912,5.976-3.084c2.166-3.151,3.413-7.678,4.617-12.057
				c0.554-2.016,1.079-3.921,1.651-5.502l4.212-11.653c10.806,37.9-13.988,63.604-16.107,65.708
				c-7.287,4.076-13.194,4.827-17.556,2.22c-10.11-6.034-9.786-27.867-9.781-28.09c0.77-41.087,23.652-49.15,31.009-50.682
				C79.998,265.858,76.467,276.624,74.268,283.331z"/>
			<path style="fill:#1B3261;" d="M88.213,277.184c-0.617,1.71-1.159,3.679-1.732,5.762c-1.076,3.908-2.295,8.339-4.128,11.006
				c-1.231,1.792-3.555,1.901-5.214,1.08c-0.785-0.389-2.525-1.554-1.73-3.978c0.142-0.431,15.228-46.432,18.52-56.468
				c2.646,1.338,5.356,2.845,8.046,4.525L88.213,277.184z"/>
			<path style="fill:#1B3261;" d="M121.747,273.698c0.029-3.744-0.813-12.525-7.613-25.311c2.713,2.563,5.217,5.365,7.364,8.436
				c0.616,1.434,4.307,9.254,14.324,16.875H121.747z"/>
			<path style="fill:#1B3261;" d="M124.655,255.332l-0.186-0.346c-11.148-16.08-30.722-25.18-42.73-29.51
				c21.02-0.403,40.61-1.329,49.215-3.268l1.235-0.278l0.118-1.26c0.005-0.053,0.128-1.626-0.22-3.884
				c2.189,3.451,4.92,8.519,8.159,15.973c0.883,2.517,14.775,40.85,43.729,52.152l-5.353,0.396
				C135.567,281.035,124.757,255.584,124.655,255.332z"/>
			<path style="fill:#1B3261;" d="M245.969,280.318l-37.453,2.774c-2.767-1.544-5.34-3.274-7.738-5.162l47.203-4.066
				c3.504,2.685,9.068,4.111,14.948,4.805c-2.843,0.36-5.601,0.694-8.247,1.004v0.001
				C254.202,279.708,252.481,279.836,245.969,280.318z"/>
			<path style="fill:#1B3261;" d="M325.424,315.709c-4.567,5.792-14.251,15.609-27.799,16.293c-6.874,0.34-13.487-0.705-18.14-2.889
				c-20.37-9.556-22.757-35.688-23.002-43.699c0.326,0.103,0.658,0.207,0.981,0.31c8.855,2.816,17.92,5.7,27.308,5.698
				c0.815,0,1.634-0.029,2.454-0.074c0.39,2.001,2.211,9.58,8.055,13.512c2.338,1.572,5,2.358,7.925,2.358
				c1.417,0,2.895-0.184,4.428-0.552c0.506-0.096,12.069-2.461,14.767-18.983c1.081-0.26,2.153-0.531,3.207-0.805
				c3.216-0.835,6.254-1.625,9.46-1.934c1.033-0.099,2.07-0.186,3.107-0.274c0.885-0.074,1.775-0.153,2.668-0.235
				C339.603,293.986,334.663,303.99,325.424,315.709z"/>
			<path style="fill:#1B3261;" d="M290.723,291.01c2.194-0.308,4.406-0.797,6.638-1.512c0.556-0.178,1.103-0.365,1.648-0.549
				c2.834-0.961,5.28-1.793,8.008-1.312c0.849,0.149,1.638,0.332,2.405,0.509c2.108,0.488,4.291,0.994,7.051,0.662
				c0.75-0.089,1.493-0.205,2.231-0.335c-2.649,12.788-11.338,14.688-11.801,14.781c-3.786,0.909-7.04,0.478-9.662-1.28
				C292.801,298.997,291.161,293.01,290.723,291.01z"/>
			<path style="fill:#1B3261;" d="M352.665,278.489c-4.64,1.852-9.567,2.266-14.782,2.705c-1.052,0.089-2.103,0.176-3.149,0.277
				c-3.482,0.336-6.797,1.197-10.003,2.03c-2.959,0.769-5.754,1.495-8.67,1.843c-2.158,0.253-3.871-0.137-5.853-0.598
				c-0.824-0.19-1.672-0.385-2.586-0.546c-3.599-0.629-6.719,0.423-9.734,1.444c-0.526,0.18-1.057,0.359-1.593,0.531
				c-12.643,4.055-24.506,0.442-37.015-3.534c19.752-2.402,44.526-6.099,68.242-13.142c2.964-0.879,5.956-2.26,8.85-3.594
				c6.886-3.176,13.393-6.174,20.031-3.425c2.631,1.091,3.958,2.884,3.942,5.333C360.32,271.805,356.659,276.894,352.665,278.489z"
				/>
			<path style="fill:#1B3261;" d="M371.177,249.781c-2.302,1.739-10.054,7.388-15.333,8.821c-7.341-2.123-14.241,1.045-20.933,4.133
				c-2.909,1.342-5.658,2.609-8.381,3.418c-13.18,3.913-26.702,6.779-39.506,8.968c-8.071,0.887-30.162,1.809-37.312-4.319
				c-1.402-1.202-2.118-2.585-2.187-4.224l-0.012-0.286l-0.103-0.268c-0.156-0.403-15.554-40.742-14.326-73.807l0.005-0.12
				l-0.012-0.12c-0.009-0.097-0.897-9.792,6.428-18.011c6.7-7.519,17.989-11.447,33.552-11.674
				c12.245,0.696,25.128,2.378,38.293,4.996l0.729,0.145c16.327,3.246,34.833,6.925,43.993,21.538
				c9.463,15.098,12.855,36.782,15.106,57.973V249.781z"/>
		</g>
		<g>
			<path style="fill:#1B3261;" d="M117.006,90.592c9.736,0,21.399-4.112,23.266-4.794l0.428-0.157l0.298-0.346
				c2.87-3.345-0.502-13.676-2.085-17.962l-0.252-0.683l-0.663-0.301c-20.197-9.179-33.838,3.655-33.972,3.786l-0.329,0.317
				l-0.131,0.437c-2.965,9.89,1.611,15.513,1.804,15.743C107.819,89.58,112.176,90.592,117.006,90.592z"/>
			<path style="fill:#1B3261;" d="M106.774,72.359c2.001-1.695,13.067-10.053,29.116-3.129c2.066,5.817,3.222,11.814,2.623,13.491
				c-7.37,2.602-25.647,7.469-30.454,1.687C107.916,84.231,104.644,80.06,106.774,72.359z"/>
		</g>
	</g>
	<path style="fill:#1B3261;" d="M374.656,246.67c-2.294-21.638-5.775-43.83-15.63-59.551c-4.493-7.168-10.888-11.878-18.114-15.205
		c-2.538-16.81-11.4-39.153-25.244-49.539c-6.527-4.896-13.634-6.813-21.128-5.714c-6.803,1.004-12.72,4.546-18.443,7.972
		c-4.89,2.925-9.508,5.689-14.644,7.022c-10.577,2.744-21.772,3.394-32.599,4.023c-2.473,0.143-4.942,0.287-7.402,0.454
		c-1.041,0.072-2.42,0.061-3.888,0.048c-4.15-0.037-8.87-0.072-11.833,1.473c-3.96,2.066-6.26,4.952-6.833,8.575
		c-0.966,6.089,3.397,12.573,6.054,15.867c-1.78,0.719-4.081,2.099-6.203,4.743c-6.063,7.552-7.507,20.954-4.278,39.896
		c2.878,13.914,12.062,57.117,17,66.776l-14.414,1.241c-37.898-35.201-25.389-113.739-24.913-116.6
		c12.418-46.385-7.608-56.606-10.54-57.829c-1.773-1.453-3.675-2.651-5.659-3.647c10.113-3.888,16.391-12.836,18.386-16.052
		l39.091,9.21c0.829,0.195,1.61,0.439,2.364,0.674c3.257,1.014,6.951,2.164,9.521-3.632c1.371-3.091,1.495-5.77,0.368-7.959
		c-2.12-4.12-7.884-5.31-12.97-6.358c-1.338-0.276-2.603-0.536-3.672-0.829l-35.028-9.582l0-0.003l-1.422-0.39
		c-0.036-0.01-0.07-0.016-0.106-0.025l-3.986-1.09c-37.873-12.94-67.704-0.49-68.954,0.047l-1.025,0.44l-0.032,1.114
		c-0.016,0.555-0.03,1.083-0.045,1.615l-15.433,1.957c-2.411,0.306-4.928,0.534-7.363,0.754c-4.107,0.371-8.353,0.755-12.423,1.533
		c-3.192,0.611-5.7,2.566-6.542,5.102c-0.753,2.268-0.123,4.662,1.777,6.741c2.063,2.258,4.648,2.87,7.224,2.87
		c1.659,0,3.314-0.253,4.825-0.485c0.804-0.123,1.596-0.245,2.361-0.325c2.257-0.238,4.514-0.49,6.771-0.732
		c0.117,0.966,0.348,2.172,0.824,3.403c1.444,3.742,4.433,5.889,8.414,6.045l0.162,0.006l9.583-1.418
		c0.079,0.225,0.159,0.331,0.233,0.426c0.642,0.824,5.934,4.856,10.18,8.035c-33.06,17.717-41.446,88.653-42.611,100.346
		l-1.702-0.068l-0.04-0.001c-1.563-0.02-38.32-0.486-52.108,13.243c-3.531,3.516-5.291,7.682-5.231,12.383l0.022,1.69l1.69,0.033
		c1.698,0.032,19.398,0.357,41.051,0.358c-5.047,3.733-13.167,10.733-20.447,21.458c-10.475,15.432-20.99,41.754-11.566,79.604
		c0.32,1.05,8.093,25.801,28.732,33.669c4.078,1.554,8.357,2.33,12.827,2.33c9.079,0,18.938-3.205,29.455-9.593
		c1.341-0.819,32.484-20.552,32.531-76.027h19.301c8.613,5.291,20.707,9.963,37.498,11.607l0.15,0.015l71.699-5.312
		c0.89,0.262,1.786,0.539,2.68,0.815c0.012,6.926,1.458,36.896,25.044,47.961c5.768,2.706,12.419,3.283,17.04,3.283
		c1.032,0,1.961-0.03,2.757-0.069c11.063-0.558,21.846-6.815,30.364-17.618c9.91-12.57,15.091-23.364,16.233-33.823
		c3.226-0.422,6.449-1.074,9.563-2.318c5.318-2.123,9.84-8.486,9.876-13.895c0.019-2.96-1.235-5.426-3.573-7.161
		c6.356-2.88,13.377-8.375,13.738-8.659l0.666-0.524v-4.636L374.656,246.67z"/>
	<path style="fill:#F4C32D;" d="M202.346,146.771c0.396-2.506,2.032-4.477,5.002-6.026c2.188-1.144,6.627-1.116,10.19-1.078
		c1.534,0.009,2.981,0.024,4.151-0.057c2.449-0.166,4.907-0.308,7.368-0.451c10.995-0.638,22.364-1.298,33.274-4.128
		c5.621-1.459,10.673-4.483,15.559-7.407c5.679-3.399,11.043-6.61,17.159-7.512c6.538-0.969,12.773,0.735,18.525,5.052
		c13.199,9.903,20.983,31.293,23.527,45.139c-7.811-3.005-16.328-4.7-24.344-6.293l-0.728-0.144
		c-13.346-2.655-26.413-4.359-38.838-5.063l-0.061-0.003l-0.061,0.001c-5.988,0.083-11.39,0.707-16.208,1.847l-48.006,0.653
		C206.371,158.575,201.519,151.984,202.346,146.771z"/>
	<path style="fill:#1B3261;" d="M197.9,206.085c-3.764-22.094-0.187-32.285,3.475-36.944c3.122-3.971,6.554-4.32,6.801-4.34
		l38.496-0.523c-3.858,1.946-7.13,4.397-9.776,7.366c-7.944,8.915-7.413,19.212-7.305,20.553
		c-1.166,32.341,13.126,71.265,14.462,74.823c0.094,1.289,0.448,2.487,1.047,3.59l-30.798,2.653l0.609-0.701
		C212.237,269.856,204.145,236.261,197.9,206.085z"/>
	<path style="fill:#2B4E85;" d="M159.831,103.378l0.285,0.105c0.21,0.077,20.869,8.253,8.637,53.843l-0.033,0.153
		c-0.043,0.245-4.236,24.865-1.65,52.815c3.207,34.655,15.442,59.824,35.487,73.24l-8.029,0.595
		c-34.023-4.872-50.844-52.103-51.009-52.581l-0.048-0.122c-8.777-20.213-14.277-24.371-16.521-25.168
		c-1.148-1.166-2.542-2.253-4.227-3.198c-6.362-37.503,15.315-97.415,18.819-106.742c6.473,0.652,12.935,2.588,18.046,6.861
		L159.831,103.378z"/>
	<path style="fill:#1B3261;" d="M150.723,94.567c-1.137-0.358-2.29-0.655-3.45-0.911c15.554-6.358,20.377-11.379,21.815-14.206
		c0.618,0.149,1.082,0.216,1.301,0.242l0.326,0.077C168.041,83.741,161.09,92.5,150.723,94.567z"/>
	<path style="fill:#1B3261;" d="M165.204,67.023l0.043-0.177c0.001-0.009,0.236-0.976,1.22-1.592
		c0.607-0.379,1.402-0.569,2.357-0.569c0.437,0,0.909,0.04,1.41,0.119l-1.092,11.009l-0.199-0.047
		c-1.133-0.394-2.511-1.099-3.375-2.375C164.525,71.852,164.402,69.709,165.204,67.023z"/>
	<path style="fill:#FFFFFF;" d="M208.114,75.093c1.176,0.322,2.492,0.593,3.886,0.88c4.107,0.846,9.217,1.901,10.572,4.536
		c0.628,1.221,0.481,2.841-0.454,4.95c-1.309,2.951-2.073,2.717-5.293,1.713c-0.775-0.241-1.653-0.515-2.603-0.738l-41.653-9.813
		l1.087-10.957L208.114,75.093z"/>
	<path style="fill:#1B3261;" d="M98.178,75.75c-1.734,0.191-3.469,0.373-5.204,0.563v-8.251l5.368-0.681
		C98.263,70.627,98.209,73.396,98.178,75.75z"/>
	<path style="fill:#FFFFFF;" d="M72.495,78.527c-0.817,0.086-1.663,0.216-2.523,0.348c-3.507,0.535-6.815,1.042-8.944-1.289
		c-0.713-0.782-1.473-1.986-1.041-3.287c0.437-1.318,1.963-2.407,3.885-2.774c3.9-0.745,8.059-1.121,12.082-1.486
		c2.465-0.223,5.014-0.453,7.487-0.767l6.044-0.767v8.185C83.822,77.307,78.16,77.931,72.495,78.527z"/>
	<path style="fill:#E4C0AD;" d="M88.85,87.22c-4.449-0.26-5.527-4.105-5.777-6.326c5.024-0.542,10.048-1.079,15.072-1.63
		c-0.013,2.977,0.02,5.078,0.082,6.568L88.85,87.22z"/>
	<path style="fill:#1B3261;" d="M101.937,63.493c5.317-1.961,30.697-10.124,61.954-0.667c-1.485,1.249-1.943,2.8-2.049,3.263
		c-1.094,3.71-0.812,6.825,0.837,9.26c0.866,1.279,2,2.181,3.136,2.824c-1.167,1.982-5.988,7.278-25.601,14.473
		c-12.415-0.885-24.226,2.454-27.532,3.49c-4.738-3.532-9.718-7.34-10.88-8.365C101.499,85.287,101.684,72.703,101.937,63.493z"/>
	<path style="fill:#1B3261;" d="M112.987,99.705c0.938-0.311,12.474-4.018,24.91-3.627c-4.512,12.05-24.216,67.596-18.965,105.303
		c-1.941-0.663-4.153-1.168-6.694-1.446l-42.32-1.685C71.192,186.263,80.194,113.969,112.987,99.705z"/>
	<path style="fill:#256466;" d="M64.597,201.531l47.321,1.88c4.313,0.479,7.529,1.667,9.932,3.201
		c-50.564,6.495-87.859,4.042-100.707,2.803C36.569,201.268,63.729,201.51,64.597,201.531z"/>
	<path style="fill:#1B3261;" d="M15.027,213.758c0.465-0.463,0.97-0.903,1.495-1.332c6.001,0.74,48.386,5.364,108.831-2.749
		c2.887,3.466,3.428,7.415,3.497,9.401c-22.363,4.226-104.727,3.07-117.948,2.853C11.231,218.872,12.591,216.185,15.027,213.758z"/>
	<path style="fill:#431611;" d="M118.174,275.165l-0.024,0.148l0.001,0.15c0.609,54.746-30.56,74.584-30.867,74.773
		c-14.715,8.937-27.905,11.291-39.206,6.988c-19.038-7.245-26.581-31.195-26.63-31.346c-9.069-36.432,0.977-61.752,11-76.578
		c9.855-14.578,21.629-22.187,23.882-23.56c4.686-0.014,9.494-0.044,14.317-0.098l-0.011,0.048
		c0.178,0.042,9.209,2.246,20.124,7.354c-1.001,3.052-3.452,10.527-6.261,19.092c-5.09,0.766-34.842,7.276-35.725,54.351
		c-0.02,0.979-0.367,24.077,11.477,31.154c2.26,1.348,4.78,2.022,7.554,2.022c4.049,0,8.634-1.438,13.71-4.309l0.335-0.247
		c0.312-0.293,31.101-29.851,15.838-73.736l-0.053,0.018l7.345-20.324c0.793,0.541,1.579,1.101,2.359,1.674l-0.412,0.265
		C119.813,263.083,118.19,275.055,118.174,275.165z"/>
	<path style="fill:#8D8D8D;" d="M72.093,289.964c-0.165,0.503-0.258,0.999-0.315,1.489l-4.044-1.413l1.428-4.808l4.018,1.415
		C72.513,288.681,72.115,289.896,72.093,289.964z"/>
	<path style="fill:#FFFFFF;" d="M74.268,283.331l-7.406-2.608l-3.423,11.515l9.158,3.199c0.657,1.113,1.655,2.062,2.992,2.724
		c1.103,0.545,2.377,0.852,3.664,0.852c2.221,0,4.483-0.912,5.976-3.084c2.166-3.151,3.413-7.678,4.617-12.057
		c0.554-2.016,1.079-3.921,1.651-5.502l4.212-11.653c10.806,37.9-13.988,63.604-16.107,65.708
		c-7.287,4.076-13.194,4.827-17.556,2.22c-10.11-6.034-9.786-27.867-9.781-28.09c0.77-41.087,23.652-49.15,31.009-50.682
		C79.998,265.858,76.467,276.624,74.268,283.331z"/>
	<path style="fill:#8D8D8D;" d="M88.213,277.184c-0.617,1.71-1.159,3.679-1.732,5.762c-1.076,3.908-2.295,8.339-4.128,11.006
		c-1.231,1.792-3.555,1.901-5.214,1.08c-0.785-0.389-2.525-1.554-1.73-3.978c0.142-0.431,15.228-46.432,18.52-56.468
		c2.646,1.338,5.356,2.845,8.046,4.525L88.213,277.184z"/>
	<path style="fill:#416A43;" d="M121.747,273.698c0.029-3.744-0.813-12.525-7.613-25.311c2.713,2.563,5.217,5.365,7.364,8.436
		c0.616,1.434,4.307,9.254,14.324,16.875H121.747z"/>
	<path style="fill:#1B3261;" d="M124.655,255.332l-0.186-0.346c-11.148-16.08-30.722-25.18-42.73-29.51
		c21.02-0.403,40.61-1.329,49.215-3.268l1.235-0.278l0.118-1.26c0.005-0.053,0.128-1.626-0.22-3.884
		c2.189,3.451,4.92,8.519,8.159,15.973c0.883,2.517,14.775,40.85,43.729,52.152l-5.353,0.396
		C135.567,281.035,124.757,255.584,124.655,255.332z"/>
	<path style="fill:#1B3261;" d="M245.969,280.318l-37.453,2.774c-2.767-1.544-5.34-3.274-7.738-5.162l47.203-4.066
		c3.504,2.685,9.068,4.111,14.948,4.805c-2.843,0.36-5.601,0.694-8.247,1.004v0.001
		C254.202,279.708,252.481,279.836,245.969,280.318z"/>
	<path style="fill:#431611;" d="M325.424,315.709c-4.567,5.792-14.251,15.609-27.799,16.293c-6.874,0.34-13.487-0.705-18.14-2.889
		c-20.37-9.556-22.757-35.688-23.002-43.699c0.326,0.103,0.658,0.207,0.981,0.31c8.855,2.816,17.92,5.7,27.308,5.698
		c0.815,0,1.634-0.029,2.454-0.074c0.39,2.001,2.211,9.58,8.055,13.512c2.338,1.572,5,2.358,7.925,2.358
		c1.417,0,2.895-0.184,4.428-0.552c0.506-0.096,12.069-2.461,14.767-18.983c1.081-0.26,2.153-0.531,3.207-0.805
		c3.216-0.835,6.254-1.625,9.46-1.934c1.033-0.099,2.07-0.186,3.107-0.274c0.885-0.074,1.775-0.153,2.668-0.235
		C339.603,293.986,334.663,303.99,325.424,315.709z"/>
	<path style="fill:#FFFFFF;" d="M290.723,291.01c2.194-0.308,4.406-0.797,6.638-1.512c0.556-0.178,1.103-0.365,1.648-0.549
		c2.834-0.961,5.28-1.793,8.008-1.312c0.849,0.149,1.638,0.332,2.405,0.509c2.108,0.488,4.291,0.994,7.051,0.662
		c0.75-0.089,1.493-0.205,2.231-0.335c-2.649,12.788-11.338,14.688-11.801,14.781c-3.786,0.909-7.04,0.478-9.662-1.28
		C292.801,298.997,291.161,293.01,290.723,291.01z"/>
	<path style="fill:#1B3261;" d="M352.665,278.489c-4.64,1.852-9.567,2.266-14.782,2.705c-1.052,0.089-2.103,0.176-3.149,0.277
		c-3.482,0.336-6.797,1.197-10.003,2.03c-2.959,0.769-5.754,1.495-8.67,1.843c-2.158,0.253-3.871-0.137-5.853-0.598
		c-0.824-0.19-1.672-0.385-2.586-0.546c-3.599-0.629-6.719,0.423-9.734,1.444c-0.526,0.18-1.057,0.359-1.593,0.531
		c-12.643,4.055-24.506,0.442-37.015-3.534c19.752-2.402,44.526-6.099,68.242-13.142c2.964-0.879,5.956-2.26,8.85-3.594
		c6.886-3.176,13.393-6.174,20.031-3.425c2.631,1.091,3.958,2.884,3.942,5.333C360.32,271.805,356.659,276.894,352.665,278.489z"/>
	<path style="fill:#1B3261;" d="M371.177,249.781c-2.302,1.739-10.054,7.388-15.333,8.821c-7.341-2.123-14.241,1.045-20.933,4.133
		c-2.909,1.342-5.658,2.609-8.381,3.418c-13.18,3.913-26.702,6.779-39.506,8.968c-8.071,0.887-30.162,1.809-37.312-4.319
		c-1.402-1.202-2.118-2.585-2.187-4.224l-0.012-0.286l-0.103-0.268c-0.156-0.403-15.554-40.742-14.326-73.807l0.005-0.12
		l-0.012-0.12c-0.009-0.097-0.897-9.792,6.428-18.011c6.7-7.519,17.989-11.447,33.552-11.674
		c12.245,0.696,25.128,2.378,38.293,4.996l0.729,0.145c16.327,3.246,34.833,6.925,43.993,21.538
		c9.463,15.098,12.855,36.782,15.106,57.973V249.781z"/>
	<path style="fill:#1B3261;" d="M117.006,90.592c9.736,0,21.399-4.112,23.266-4.794l0.428-0.157l0.298-0.346
		c2.87-3.345-0.502-13.676-2.085-17.962l-0.252-0.683l-0.663-0.301c-20.197-9.179-33.838,3.655-33.972,3.786l-0.329,0.317
		l-0.131,0.437c-2.965,9.89,1.611,15.513,1.804,15.743C107.819,89.58,112.176,90.592,117.006,90.592z"/>
	<path style="fill:#F4C32D;" d="M106.774,72.359c2.001-1.695,13.067-10.053,29.116-3.129c2.066,5.817,3.222,11.814,2.623,13.491
		c-7.37,2.602-25.647,7.469-30.454,1.687C107.916,84.231,104.644,80.06,106.774,72.359z"/>
	<path style="fill:#431611;" d="M374.656,246.476c-2.294-21.638-5.775-43.83-15.63-59.551c-4.493-7.168-10.888-11.878-18.114-15.205
		c-2.538-16.81-11.4-39.153-25.244-49.539c-6.527-4.896-13.634-6.813-21.128-5.714c-6.803,1.004-12.72,4.546-18.443,7.972
		c-4.89,2.925-9.508,5.689-14.644,7.022c-10.577,2.744-21.772,3.395-32.599,4.023c-2.473,0.143-4.942,0.287-7.402,0.454
		c-1.041,0.072-2.42,0.061-3.888,0.048c-4.15-0.037-8.87-0.072-11.833,1.473c-3.96,2.066-6.26,4.952-6.833,8.575
		c-0.966,6.089,3.397,12.573,6.054,15.867c-1.78,0.719-4.081,2.099-6.203,4.743c-6.063,7.552-7.507,20.954-4.278,39.896
		c2.878,13.914,12.062,57.117,17,66.776l-14.414,1.241c-37.898-35.201-25.389-113.739-24.913-116.6
		c12.418-46.385-7.608-56.606-10.54-57.829c-1.773-1.453-3.675-2.651-5.659-3.647c10.113-3.888,16.391-12.836,18.386-16.052
		l39.091,9.21c0.829,0.195,1.61,0.439,2.364,0.674c3.257,1.014,6.951,2.164,9.521-3.632c1.371-3.091,1.495-5.77,0.368-7.959
		c-2.12-4.12-7.884-5.31-12.97-6.358c-1.338-0.276-2.603-0.536-3.672-0.829l-35.028-9.582l0-0.003l-1.422-0.39
		c-0.036-0.01-0.07-0.016-0.106-0.025l-3.986-1.09c-37.873-12.94-67.704-0.49-68.954,0.047l-1.025,0.44l-0.032,1.114
		c-0.016,0.555-0.03,1.083-0.045,1.615l-15.433,1.957c-2.411,0.306-4.928,0.534-7.363,0.754c-4.107,0.371-8.353,0.755-12.423,1.533
		c-3.192,0.611-5.7,2.566-6.542,5.102c-0.753,2.268-0.123,4.662,1.777,6.741c2.063,2.258,4.648,2.87,7.224,2.87
		c1.659,0,3.314-0.253,4.825-0.485c0.804-0.123,1.596-0.245,2.361-0.325c2.257-0.238,4.514-0.49,6.771-0.732
		c0.117,0.966,0.348,2.172,0.824,3.403c1.444,3.742,4.433,5.889,8.414,6.045l0.162,0.006l9.583-1.418
		c0.079,0.225,0.159,0.331,0.233,0.426c0.642,0.824,5.934,4.856,10.18,8.035c-33.06,17.717-41.446,88.653-42.611,100.346
		l-1.702-0.068l-0.04-0.001c-1.563-0.02-38.32-0.486-52.108,13.243c-3.531,3.516-5.291,7.682-5.231,12.383l0.022,1.69l1.69,0.033
		c1.698,0.032,19.398,0.357,41.051,0.358c-5.047,3.733-13.167,10.733-20.447,21.458c-10.475,15.432-20.99,41.754-11.566,79.604
		c0.32,1.05,8.093,25.801,28.732,33.669c4.078,1.554,8.357,2.33,12.827,2.33c9.079,0,18.938-3.205,29.455-9.593
		c1.341-0.819,32.484-20.552,32.531-76.027h19.301c8.613,5.291,20.707,9.963,37.498,11.607l0.15,0.015l71.699-5.312
		c0.89,0.262,1.786,0.539,2.68,0.815c0.012,6.926,1.458,36.896,25.044,47.961c5.768,2.706,12.419,3.283,17.04,3.283
		c1.032,0,1.961-0.03,2.757-0.069c11.063-0.558,21.846-6.815,30.364-17.618c9.91-12.57,15.091-23.364,16.233-33.823
		c3.226-0.422,6.449-1.074,9.563-2.318c5.318-2.123,9.84-8.486,9.876-13.895c0.019-2.96-1.235-5.426-3.573-7.161
		c6.356-2.88,13.377-8.375,13.738-8.659l0.666-0.524v-4.636L374.656,246.476z M202.346,146.578c0.396-2.506,2.032-4.477,5.002-6.026
		c2.188-1.144,6.627-1.116,10.19-1.078c1.534,0.009,2.981,0.024,4.151-0.057c2.449-0.166,4.907-0.308,7.368-0.451
		c10.995-0.638,22.364-1.298,33.274-4.128c5.621-1.459,10.673-4.483,15.559-7.407c5.679-3.399,11.043-6.61,17.159-7.512
		c6.538-0.969,12.773,0.735,18.525,5.052c13.199,9.903,20.983,31.293,23.527,45.139c-7.811-3.005-16.328-4.7-24.344-6.293
		l-0.728-0.144c-13.346-2.655-26.413-4.359-38.838-5.063l-0.061-0.003l-0.061,0.001c-5.988,0.083-11.39,0.707-16.208,1.847
		l-48.006,0.653C206.371,158.381,201.519,151.791,202.346,146.578z M197.9,205.892c-3.764-22.094-0.187-32.285,3.475-36.944
		c3.122-3.971,6.554-4.32,6.801-4.34l38.496-0.523c-3.858,1.946-7.13,4.397-9.776,7.366c-7.944,8.915-7.413,19.212-7.305,20.553
		c-1.166,32.341,13.126,71.265,14.462,74.823c0.094,1.289,0.448,2.487,1.047,3.59l-30.798,2.653l0.609-0.701
		C212.237,269.662,204.145,236.067,197.9,205.892z M159.831,103.184l0.285,0.105c0.21,0.077,20.869,8.253,8.637,53.843l-0.033,0.153
		c-0.043,0.245-4.236,24.865-1.65,52.815c3.207,34.655,15.442,59.824,35.487,73.24l-8.029,0.595
		c-34.023-4.872-50.844-52.103-51.009-52.581l-0.048-0.122c-8.777-20.213-14.277-24.371-16.521-25.168
		c-1.148-1.166-2.542-2.253-4.227-3.198c-6.362-37.503,15.315-97.415,18.819-106.742c6.473,0.652,12.935,2.588,18.046,6.861
		L159.831,103.184z M150.723,94.373c-1.137-0.358-2.29-0.655-3.45-0.911c15.554-6.358,20.377-11.379,21.815-14.206
		c0.618,0.149,1.082,0.216,1.301,0.242l0.326,0.077C168.041,83.547,161.09,92.306,150.723,94.373z M165.204,66.83l0.043-0.177
		c0.001-0.009,0.236-0.976,1.22-1.592c0.607-0.379,1.402-0.569,2.357-0.569c0.437,0,0.909,0.04,1.41,0.119l-1.092,11.009
		l-0.199-0.047c-1.133-0.394-2.511-1.099-3.375-2.375C164.525,71.658,164.402,69.515,165.204,66.83z M208.114,74.899
		c1.176,0.322,2.492,0.593,3.886,0.88c4.107,0.846,9.217,1.901,10.572,4.536c0.628,1.221,0.481,2.841-0.454,4.95
		c-1.309,2.951-2.073,2.717-5.293,1.713c-0.775-0.241-1.653-0.515-2.603-0.738l-41.653-9.813l1.087-10.957L208.114,74.899z
		 M98.178,75.556c-1.734,0.191-3.469,0.373-5.204,0.563v-8.251l5.368-0.681C98.263,70.433,98.209,73.202,98.178,75.556z
		 M72.495,78.333c-0.817,0.086-1.663,0.216-2.523,0.348c-3.507,0.535-6.815,1.042-8.944-1.289c-0.713-0.782-1.473-1.986-1.041-3.287
		c0.437-1.318,1.963-2.407,3.885-2.774c3.9-0.745,8.059-1.121,12.082-1.486c2.465-0.223,5.014-0.453,7.487-0.767l6.044-0.767v8.185
		C83.822,77.113,78.16,77.737,72.495,78.333z M88.85,87.026c-4.449-0.26-5.527-4.105-5.777-6.326
		c5.024-0.542,10.048-1.079,15.072-1.63c-0.013,2.977,0.02,5.078,0.082,6.568L88.85,87.026z M101.937,63.299
		c5.317-1.961,30.697-10.124,61.954-0.667c-1.485,1.249-1.943,2.8-2.049,3.263c-1.094,3.71-0.812,6.825,0.837,9.26
		c0.866,1.279,2,2.181,3.136,2.824c-1.167,1.982-5.988,7.278-25.601,14.473c-12.415-0.885-24.226,2.454-27.532,3.49
		c-4.738-3.532-9.718-7.34-10.88-8.365C101.499,85.093,101.684,72.509,101.937,63.299z M112.987,99.511
		c0.938-0.311,12.474-4.018,24.91-3.627c-4.512,12.05-24.216,67.596-18.965,105.303c-1.941-0.663-4.153-1.168-6.694-1.446
		l-42.32-1.685C71.192,186.07,80.194,113.776,112.987,99.511z M64.597,201.337l47.321,1.88c4.313,0.479,7.529,1.667,9.932,3.201
		c-50.564,6.495-87.859,4.042-100.707,2.803C36.569,201.074,63.729,201.317,64.597,201.337z M15.027,213.565
		c0.465-0.463,0.97-0.903,1.495-1.332c6.001,0.74,48.386,5.364,108.831-2.749c2.887,3.466,3.428,7.415,3.497,9.401
		c-22.363,4.226-104.727,3.07-117.948,2.853C11.231,218.678,12.591,215.991,15.027,213.565z M118.174,274.971l-0.024,0.148
		l0.001,0.15c0.609,54.746-30.56,74.584-30.867,74.773c-14.715,8.937-27.905,11.291-39.206,6.988
		c-19.038-7.245-26.581-31.195-26.63-31.346c-9.069-36.432,0.977-61.752,11-76.578c9.855-14.578,21.629-22.187,23.882-23.56
		c4.686-0.014,9.494-0.044,14.317-0.098l-0.011,0.048c0.178,0.042,9.209,2.246,20.124,7.354c-1.001,3.052-3.452,10.527-6.261,19.092
		c-5.09,0.766-34.842,7.276-35.725,54.351c-0.02,0.979-0.367,24.077,11.477,31.154c2.26,1.348,4.78,2.022,7.554,2.022
		c4.049,0,8.634-1.438,13.71-4.309l0.335-0.247c0.312-0.293,31.101-29.851,15.838-73.736l-0.053,0.018l7.345-20.324
		c0.793,0.541,1.579,1.101,2.359,1.674l-0.412,0.265C119.813,262.889,118.19,274.861,118.174,274.971z M72.093,289.77
		c-0.165,0.503-0.258,0.999-0.315,1.489l-4.044-1.413l1.428-4.808l4.018,1.415C72.513,288.488,72.115,289.702,72.093,289.77z
		 M74.268,283.137l-7.406-2.608l-3.423,11.515l9.158,3.199c0.657,1.113,1.655,2.062,2.992,2.724
		c1.103,0.545,2.377,0.852,3.664,0.852c2.221,0,4.483-0.912,5.976-3.084c2.166-3.151,3.413-7.678,4.617-12.057
		c0.554-2.016,1.079-3.92,1.651-5.502l4.212-11.653c10.806,37.9-13.988,63.604-16.107,65.708c-7.287,4.076-13.194,4.827-17.556,2.22
		c-10.11-6.034-9.786-27.867-9.781-28.09c0.77-41.087,23.652-49.15,31.009-50.682C79.998,265.664,76.467,276.43,74.268,283.137z
		 M88.213,276.99c-0.617,1.71-1.159,3.679-1.732,5.762c-1.076,3.908-2.295,8.339-4.128,11.006c-1.231,1.792-3.555,1.901-5.214,1.08
		c-0.785-0.389-2.525-1.554-1.73-3.978c0.142-0.431,15.228-46.432,18.52-56.468c2.646,1.338,5.356,2.845,8.046,4.525L88.213,276.99z
		 M121.747,273.505c0.029-3.744-0.813-12.525-7.613-25.311c2.713,2.563,5.217,5.365,7.364,8.436
		c0.616,1.434,4.307,9.254,14.324,16.875H121.747z M124.655,255.138l-0.186-0.346c-11.148-16.08-30.722-25.18-42.73-29.51
		c21.02-0.403,40.61-1.329,49.215-3.268l1.235-0.278l0.118-1.26c0.005-0.053,0.128-1.626-0.22-3.884
		c2.189,3.451,4.92,8.519,8.159,15.973c0.883,2.517,14.775,40.85,43.729,52.152l-5.353,0.396
		C135.567,280.841,124.757,255.39,124.655,255.138z M245.969,280.124l-37.453,2.774c-2.767-1.544-5.34-3.274-7.738-5.162
		l47.203-4.066c3.504,2.685,9.068,4.111,14.948,4.805c-2.843,0.36-5.601,0.694-8.247,1.004v0.001
		C254.202,279.514,252.481,279.643,245.969,280.124z M325.424,315.516c-4.567,5.792-14.251,15.609-27.799,16.293
		c-6.874,0.34-13.487-0.705-18.14-2.889c-20.37-9.556-22.757-35.688-23.002-43.699c0.326,0.103,0.658,0.207,0.981,0.31
		c8.855,2.816,17.92,5.7,27.308,5.698c0.815,0,1.634-0.029,2.454-0.074c0.39,2.001,2.211,9.58,8.055,13.512
		c2.338,1.572,5,2.358,7.925,2.358c1.417,0,2.895-0.184,4.428-0.552c0.506-0.096,12.069-2.461,14.767-18.983
		c1.081-0.26,2.153-0.531,3.207-0.805c3.216-0.835,6.254-1.625,9.46-1.934c1.033-0.099,2.07-0.186,3.107-0.274
		c0.885-0.074,1.775-0.152,2.668-0.235C339.603,293.793,334.663,303.796,325.424,315.516z M290.723,290.817
		c2.194-0.308,4.406-0.797,6.638-1.512c0.556-0.178,1.103-0.365,1.648-0.549c2.834-0.961,5.28-1.793,8.008-1.312
		c0.849,0.149,1.638,0.332,2.405,0.509c2.108,0.488,4.291,0.994,7.051,0.662c0.75-0.089,1.493-0.205,2.231-0.335
		c-2.649,12.788-11.338,14.688-11.801,14.781c-3.786,0.909-7.04,0.478-9.662-1.28C292.801,298.803,291.161,292.816,290.723,290.817z
		 M352.665,278.295c-4.64,1.852-9.567,2.266-14.782,2.705c-1.052,0.089-2.103,0.176-3.149,0.277
		c-3.482,0.336-6.797,1.197-10.003,2.03c-2.959,0.769-5.754,1.495-8.67,1.843c-2.158,0.253-3.871-0.137-5.853-0.598
		c-0.824-0.19-1.672-0.385-2.586-0.546c-3.599-0.629-6.719,0.423-9.734,1.444c-0.526,0.18-1.057,0.359-1.593,0.531
		c-12.643,4.055-24.506,0.442-37.015-3.534c19.752-2.402,44.526-6.099,68.242-13.142c2.964-0.879,5.956-2.26,8.85-3.594
		c6.886-3.176,13.393-6.174,20.031-3.425c2.631,1.091,3.958,2.884,3.942,5.333C360.32,271.611,356.659,276.7,352.665,278.295z
		 M371.177,249.587c-2.302,1.739-10.054,7.388-15.333,8.821c-7.341-2.123-14.241,1.045-20.933,4.133
		c-2.909,1.342-5.658,2.609-8.381,3.418c-13.18,3.913-26.702,6.779-39.506,8.968c-8.071,0.887-30.162,1.809-37.312-4.319
		c-1.402-1.202-2.118-2.584-2.187-4.224l-0.012-0.286l-0.103-0.268c-0.156-0.403-15.554-40.742-14.326-73.807l0.005-0.12
		l-0.012-0.12c-0.009-0.097-0.897-9.792,6.428-18.011c6.7-7.519,17.989-11.447,33.552-11.674
		c12.245,0.696,25.128,2.378,38.293,4.996l0.729,0.145c16.327,3.246,34.833,6.925,43.993,21.538
		c9.463,15.098,12.855,36.782,15.106,57.973V249.587z"/>
	<path style="fill:#431611;" d="M117.006,90.398c9.736,0,21.399-4.112,23.266-4.794l0.428-0.157l0.298-0.346
		c2.87-3.345-0.502-13.676-2.085-17.962l-0.252-0.683l-0.663-0.301c-20.197-9.179-33.838,3.655-33.972,3.786l-0.329,0.317
		l-0.131,0.437c-2.965,9.89,1.611,15.513,1.804,15.743C107.819,89.386,112.176,90.398,117.006,90.398z M106.774,72.166
		c2.001-1.695,13.067-10.053,29.116-3.129c2.066,5.817,3.222,11.814,2.623,13.491c-7.37,2.602-25.647,7.469-30.454,1.687
		C107.916,84.037,104.644,79.866,106.774,72.166z"/>
	<g>
		<g>
			<g>
				<path style="fill:#638C93;" d="M39.484,277.797l-0.008-0.003c1.826-6.241,4.896-12.027,9.105-16.872
					c2.094-2.431,4.503-4.589,7.119-6.455c1.312-0.924,2.671-1.791,4.079-2.539c0.704-0.371,1.414-0.726,2.127-1.045
					c0.355-0.153,0.713-0.313,1.061-0.447l0.514-0.197l0.4-0.145c-0.103,0.02-0.453,0.125-0.702,0.201
					c-0.282,0.098-0.559,0.179-0.846,0.29c-0.57,0.203-1.146,0.436-1.718,0.68c-1.15,0.482-2.273,1.069-3.389,1.668
					c-2.212,1.243-4.322,2.702-6.288,4.346c-1.971,1.638-3.794,3.469-5.427,5.47c-1.633,1.998-3.151,4.116-4.414,6.402
					c1.14-2.352,2.546-4.556,4.085-6.66c1.539-2.106,3.285-4.062,5.202-5.839c1.912-1.782,3.99-3.394,6.201-4.799
					c1.116-0.68,2.245-1.35,3.415-1.918c0.583-0.287,1.171-0.563,1.761-0.812c0.566-0.243,1.236-0.5,1.69-0.647
					c-0.464,0.113-1.147,0.337-1.728,0.549c-0.605,0.217-1.21,0.462-1.811,0.719c-1.206,0.509-2.378,1.121-3.541,1.748
					c-2.305,1.298-4.499,2.819-6.542,4.531c-2.048,1.707-3.941,3.613-5.636,5.691c-1.694,2.076-3.266,4.277-4.572,6.643
					c1.183-2.433,2.643-4.72,4.243-6.902c1.6-2.185,3.416-4.215,5.411-6.061c1.989-1.851,4.152-3.524,6.455-4.984
					c2.301-1.426,4.787-2.721,7.291-3.555c-2.547,0.701-5.11,1.875-7.505,3.195c-2.398,1.354-4.676,2.936-6.796,4.716
					c-2.125,1.775-4.088,3.756-5.845,5.913c-1.755,2.154-3.381,4.437-4.73,6.885c1.226-2.513,2.739-4.883,4.4-7.143
					c1.662-2.263,3.548-4.368,5.619-6.282c4.16-3.82,8.914-7.001,14.425-8.903c-5.602,1.637-10.56,4.597-14.98,8.276
					c-2.202,1.843-4.236,3.899-6.053,6.134c-1.817,2.232-3.495,4.598-4.888,7.126c1.27-2.594,2.836-5.047,4.558-7.385
					c1.723-2.341,3.679-4.521,5.828-6.503c2.144-1.987,4.474-3.784,6.964-5.355c1.258-0.765,2.532-1.511,3.871-2.158
					c0.668-0.326,1.344-0.64,2.04-0.931c0.719-0.297,1.349-0.555,2.229-0.823c-0.89,0.235-1.534,0.46-2.268,0.726
					c-0.711,0.258-1.404,0.542-2.09,0.838c-1.375,0.587-2.691,1.277-3.996,1.988c-2.585,1.464-5.03,3.17-7.305,5.087
					c-2.28,1.911-4.383,4.042-6.262,6.356c-1.878,2.31-3.61,4.759-5.046,7.368c1.313-2.675,2.933-5.21,4.716-7.626
					c1.784-2.419,3.811-4.674,6.037-6.725c2.221-2.055,4.635-3.914,7.218-5.54c1.306-0.793,2.627-1.565,4.022-2.238
					c0.697-0.339,1.402-0.666,2.133-0.97c0.358-0.158,0.744-0.297,1.116-0.445c0.413-0.147,0.724-0.268,1.294-0.437l-0.481,0.133
					l-0.398,0.12l-0.751,0.244c-0.494,0.163-0.963,0.343-1.437,0.521c-0.937,0.364-1.847,0.762-2.746,1.18
					c-1.792,0.841-3.505,1.812-5.167,2.863c-3.313,2.117-6.39,4.612-9.112,7.46c-5.47,5.675-9.584,12.622-12.144,19.968
					l-0.008-0.003l-0.053,0.173l-0.061,0.17l0.008,0.003l-0.424,1.397l-0.349,1.41c-0.221,0.942-0.469,1.879-0.662,2.823
					c-0.333,1.894-0.729,3.781-0.916,5.679c-0.525,3.79-0.63,7.577-0.653,11.338c0.052,7.523,1.013,14.907,2.443,22.123
					c-0.816-5.702-1.366-11.457-1.441-17.255c-0.079-5.795,0.386-11.638,1.482-17.389c-0.82,5.798-1.001,11.621-0.645,17.361
					c0.353,5.743,1.174,11.405,2.253,16.992c-0.805-5.635-1.344-11.314-1.416-17.02c-0.076-5.703,0.385-11.433,1.459-17.053
					c-0.798,5.667-0.975,11.378-0.622,17.025c0.35,5.65,1.161,11.237,2.229,16.756c-0.793-5.568-1.323-11.171-1.391-16.784
					c-0.073-5.611,0.385-11.229,1.437-16.718c-0.776,5.536-0.95,11.134-0.6,16.69c0.346,5.558,1.148,11.068,2.204,16.521
					c-0.781-5.501-1.301-11.028-1.367-16.549c-0.07-5.518,0.384-11.024,1.414-16.382c-0.754,5.404-0.924,10.891-0.577,16.354
					c0.343,5.465,1.135,10.899,2.179,16.285c-0.769-5.434-1.28-10.885-1.342-16.313c-0.067-5.426,0.384-10.82,1.392-16.046
					c-0.732,5.273-0.899,10.648-0.554,16.018c0.34,5.372,1.122,10.731,2.155,16.05c-1.006-6.856-1.542-13.748-1.246-20.519
					c0.195-3.375,0.452-6.741,1.079-10.006c0.24-1.652,0.673-3.245,1.031-4.854c0.205-0.796,0.459-1.575,0.684-2.362l0.351-1.175
					l0.416-1.147l0.008,0.003l0.043-0.144L39.484,277.797z"/>
			</g>
		</g>
	</g>
	<g>
		<g>
			<g>
				<path style="fill:#638C93;" d="M97.924,313.694l0.008,0.003c-1.157,3.579-2.599,7.072-4.427,10.342l-0.688,1.225l-0.748,1.181
					c-0.486,0.802-1.029,1.55-1.569,2.304c-0.545,0.743-1.114,1.475-1.702,2.155c-0.294,0.341-0.588,0.69-0.887,0.996
					c-0.146,0.152-0.303,0.333-0.439,0.462l-0.35,0.354c0.04-0.022,0.166-0.121,0.293-0.224c0.121-0.096,0.243-0.189,0.374-0.308
					c0.256-0.231,0.518-0.434,0.774-0.687c0.517-0.482,1.03-0.98,1.526-1.516c1.002-1.049,1.961-2.178,2.86-3.359
					c1.787-2.37,3.462-4.888,4.82-7.599c-1.105,2.828-2.546,5.505-4.133,8.079c-0.8,1.284-1.668,2.524-2.596,3.702
					c-0.458,0.599-0.939,1.166-1.431,1.721c-0.473,0.536-1.039,1.115-1.447,1.505c0.453-0.336,1.07-0.868,1.597-1.359
					c0.545-0.51,1.083-1.035,1.598-1.594c1.044-1.099,2.037-2.271,2.966-3.496c1.847-2.457,3.569-5.06,4.965-7.851
					c-1.143,2.909-2.63,5.67-4.278,8.331c-1.668,2.622-3.604,5.198-5.809,7.284c2.391-1.877,4.571-4.299,6.496-6.804
					c1.907-2.543,3.677-5.231,5.11-8.103c-1.181,2.99-2.715,5.836-4.424,8.583c-0.861,1.371-1.796,2.699-2.809,3.975
					c-1.01,1.294-2.069,2.494-3.335,3.664c2.658-2.106,4.815-4.544,6.831-7.159c1.968-2.63,3.784-5.402,5.256-8.355
					c-1.218,3.071-2.8,6.002-4.569,8.835c-0.892,1.414-1.86,2.787-2.916,4.112c-0.518,0.669-1.073,1.317-1.647,1.956
					c-0.597,0.653-1.139,1.233-1.916,1.926c0.821-0.639,1.415-1.172,2.065-1.779c0.628-0.594,1.239-1.2,1.815-1.829
					c1.172-1.246,2.265-2.551,3.286-3.906c2.028-2.716,3.892-5.573,5.401-8.607c-1.256,3.151-2.885,6.167-4.714,9.086
					c-0.922,1.458-1.924,2.875-3.022,4.249c-0.537,0.692-1.117,1.367-1.719,2.034c-0.288,0.337-0.629,0.666-0.943,0.998
					c-0.154,0.164-0.334,0.335-0.512,0.505c-0.172,0.165-0.345,0.333-0.617,0.563c0.366-0.281,0.555-0.446,0.81-0.655
					c0.253-0.204,0.452-0.395,0.679-0.593c0.453-0.392,0.859-0.793,1.272-1.194c0.827-0.804,1.595-1.63,2.341-2.478
					c0.735-0.852,1.471-1.708,2.135-2.606l1.018-1.337l0.947-1.38c2.512-3.693,4.574-7.654,6.3-11.753l0.008,0.003l0.028-0.099
					l0.036-0.096l-0.008-0.003c2.602-8.498,3.649-17.263,3.433-25.853c-0.431,6.712-1.539,13.402-3.563,19.829
					c1.485-6.573,2.017-13.256,1.888-19.855c-0.429,6.591-1.522,13.142-3.505,19.417c1.444-6.421,1.961-12.966,1.83-19.444
					c-0.427,6.469-1.505,12.882-3.447,19.005c1.402-6.269,1.904-12.676,1.772-19.031c-0.425,6.347-1.488,12.622-3.389,18.593
					c1.361-6.117,1.848-12.385,1.714-18.619c-0.423,6.225-1.47,12.362-3.331,18.181c1.32-5.965,1.792-12.095,1.655-18.207
					c-0.483,7.81-2.132,15.43-4.954,22.421l-0.008-0.003l-0.023,0.085L97.924,313.694z"/>
			</g>
		</g>
	</g>
	<g>
		<g>
			<g>
				<path style="fill:#638C93;" d="M309.924,310.795l0.004,0.007c-4.554,3.135-9.744,5.255-15.252,5.984
					c-2.747,0.372-5.56,0.425-8.359,0.169c-1.397-0.14-2.791-0.35-4.16-0.638c-0.683-0.147-1.362-0.31-2.022-0.496
					c-0.332-0.092-0.657-0.188-0.972-0.291l-0.814-0.276c0.082,0.045,0.376,0.171,0.591,0.26l0.731,0.284
					c0.501,0.186,1.018,0.355,1.539,0.522c1.051,0.312,2.12,0.607,3.21,0.825c2.175,0.459,4.403,0.728,6.634,0.789
					c4.464,0.121,8.955-0.553,13.195-2.08c-4.138,1.787-8.629,2.76-13.194,2.918c-2.282,0.079-4.583-0.055-6.856-0.39
					c-1.139-0.156-2.264-0.391-3.38-0.649c-0.554-0.139-1.106-0.283-1.647-0.446c-0.516-0.156-1.12-0.353-1.511-0.505
					c0.378,0.184,0.971,0.415,1.478,0.605c0.532,0.196,1.076,0.374,1.624,0.548c1.104,0.327,2.223,0.633,3.362,0.859
					c2.273,0.477,4.598,0.754,6.931,0.815c4.665,0.122,9.37-0.592,13.803-2.195c-4.33,1.863-9.036,2.875-13.802,3.033
					c-2.383,0.079-4.782-0.063-7.153-0.416c-2.355-0.353-4.758-0.898-6.93-1.721c8.785,3.69,19.263,4.022,28.496,0.663
					c-4.523,1.939-9.443,2.991-14.41,3.149c-2.484,0.079-4.98-0.072-7.45-0.442c-2.48-0.382-4.895-0.914-7.323-1.842
					c2.376,1.058,4.77,1.73,7.249,2.254c2.47,0.512,4.99,0.806,7.525,0.867c5.066,0.122,10.2-0.671,15.019-2.426
					c-4.716,2.016-9.85,3.107-15.018,3.264c-2.585,0.079-5.179-0.08-7.747-0.468c-1.286-0.182-2.561-0.451-3.834-0.752
					c-0.635-0.162-1.27-0.331-1.905-0.524c-0.656-0.208-1.226-0.381-1.976-0.687c0.737,0.338,1.296,0.545,1.943,0.786
					c0.625,0.227,1.253,0.43,1.882,0.627c1.261,0.37,2.53,0.709,3.817,0.962c2.568,0.529,5.186,0.832,7.822,0.893
					c5.267,0.122,10.615-0.71,15.627-2.542c-4.909,2.092-10.257,3.223-15.626,3.379c-2.686,0.079-5.378-0.089-8.044-0.494
					c-1.335-0.191-2.66-0.47-3.986-0.786c-0.662-0.169-1.325-0.347-1.99-0.55l-1.009-0.327c-0.36-0.127-0.641-0.221-1.123-0.421
					c0.578,0.261,0.937,0.405,1.383,0.579c0.424,0.166,0.845,0.317,1.263,0.46c0.839,0.29,1.676,0.543,2.519,0.775
					c1.685,0.458,3.387,0.816,5.107,1.087c3.441,0.518,6.955,0.658,10.462,0.387c7.025-0.514,13.951-2.87,19.963-6.534l0.004,0.007
					l0.133-0.094l0.138-0.087l-0.005-0.007c5.829-3.988,10.529-9.139,14.419-14.609c3.898-5.492,6.905-11.406,9.434-17.421
					c-2.259,4.584-4.773,9.067-7.719,13.308c-2.943,4.236-6.332,8.231-10.265,11.696c7.503-7.377,12.518-16.468,16.456-25.69
					c-4.439,8.995-9.938,17.719-17.599,24.466c7.272-7.155,12.197-16.065,16.07-25.151c-4.375,8.859-9.784,17.401-17.213,23.926
					c7.04-6.934,11.875-15.661,15.685-24.612c-4.311,8.723-9.629,17.084-16.828,23.387c6.809-6.712,11.554-15.258,15.299-24.073
					c-4.246,8.587-9.475,16.766-16.443,22.848c6.578-6.49,11.233-14.855,14.914-23.534c-2.655,5.433-5.705,10.632-9.367,15.204
					c-3.653,4.561-7.835,8.589-12.591,11.444l-0.005-0.007l-0.104,0.075L309.924,310.795z"/>
			</g>
		</g>
	</g>
</g>
</svg>
