
<svg xmlns="http://www.w3.org/2000/svg" version="1.1" xmlns:xlink="http://www.w3.org/1999/xlink" preserveAspectRatio="none" x="0px" y="0px" width="1024px" height="1024px" viewBox="0 0 1024 1024">
<defs>
<g id="Layer0_0_MEMBER_0_MEMBER_0_FILL">
<path fill="#79A139" stroke="none" d="
M 158.05 399.55
L 158.05 407.55 249.95 460.6 341.9 407.55 341.9 399.55 250 346.45 158.05 399.55 Z"/>
</g>

<g id="Layer0_0_MEMBER_0_MEMBER_1_FILL">
<path fill="#719634" stroke="none" d="
M 249.95 452.6
L 249.95 460.6 341.9 407.55 341.9 399.55 249.95 452.6 Z"/>
</g>

<g id="Layer0_0_MEMBER_0_MEMBER_2_FILL">
<path fill="#9CC459" stroke="none" d="
M 158.05 399.55
L 249.95 452.6 341.9 399.55 250 346.45 158.05 399.55 Z"/>
</g>

<g id="Layer0_0_MEMBER_0_MEMBER_3_FILL">
<path fill="#B7E76A" stroke="none" d="
M 169.9 399.55
L 249.95 445.8 330.05 399.55 250 353.3 169.9 399.55 Z"/>
</g>

<g id="Layer0_0_MEMBER_1_FILL">
<path fill="#000000" fill-opacity="0.14901960784313725" stroke="none" d="
M 74 11.35
L 54.3 0 0 31.3 19.7 42.7 74 11.35 Z"/>
</g>

<g id="Layer0_0_MEMBER_2_FILL">
<path fill="#9CC459" stroke="none" d="
M 201.6 401.15
L 181.1 412.85 195.3 421.05 215.75 409.35 201.6 401.15 Z"/>
</g>

<g id="Layer0_0_MEMBER_3_MEMBER_0_FILL">
<path fill="#CAC2A5" stroke="none" d="
M 304.95 361.45
L 250.65 392.75 250.65 429.45 304.95 398.15 304.95 361.45 Z"/>
</g>

<g id="Layer0_0_MEMBER_3_MEMBER_1_FILL">
<path fill="#7D744C" stroke="none" d="
M 301.3 383.15
L 301.3 368.8 254.25 395.95 254.25 410.3 301.3 383.15 Z"/>
</g>

<g id="Layer0_0_MEMBER_3_MEMBER_2_FILL">
<path fill="#68B5DC" stroke="none" d="
M 300.3 382.55
L 300.3 370.6 255.3 396.55 255.3 408.5 300.3 382.55 Z"/>
</g>

<g id="Layer0_0_MEMBER_3_MEMBER_3_FILL">
<path fill="#E9E4D2" stroke="none" d="
M 250.65 392.75
L 196.35 345.25 196.35 398.1 250.65 429.45 250.65 392.75 Z"/>
</g>

<g id="Layer0_0_MEMBER_3_MEMBER_4_FILL">
<path fill="#BDB692" stroke="none" d="
M 250.65 415.7
L 250.65 429.45 304.95 398.15 304.95 384.4 250.65 415.7 Z"/>
</g>

<g id="Layer0_0_MEMBER_3_MEMBER_5_FILL">
<path fill="#DDD9C4" stroke="none" d="
M 250.65 429.45
L 250.65 415.7 196.35 384.35 196.35 398.1 250.65 429.45 Z"/>
</g>

<g id="Layer0_0_MEMBER_3_MEMBER_6_FILL">
<path fill="#F18B6C" stroke="none" d="
M 250.5 311.8
Q 249.6 311.85 249 312.5
L 194.75 343.85 251.85 394.5 305.15 363.75
Q 306.55 362.9 306.55 362.85 307.15 362.2 307.1 361.3 307.05 360.4 306.35 359.85
L 252.05 312.3
Q 251.35 311.75 250.5 311.8 Z"/>
</g>

<g id="Layer0_0_MEMBER_3_MEMBER_7_MEMBER_0_MEMBER_0_FILL">
<path fill="#E9E4D2" stroke="none" d="
M 243.75 329.95
L 243.75 337.5 251.7 349.95 251.7 334.55 243.75 329.95 Z"/>
</g>

<g id="Layer0_0_MEMBER_3_MEMBER_7_MEMBER_0_MEMBER_1_FILL">
<path fill="#CAC2A5" stroke="none" d="
M 259.65 345.4
L 259.65 329.95 251.7 334.55 251.7 349.95 259.65 345.4 Z"/>
</g>

<g id="Layer0_0_MEMBER_3_MEMBER_7_MEMBER_1_MEMBER_0_FILL">
<path fill="#908658" stroke="none" d="
M 241.85 325.9
L 241.85 330.9 251.7 336.6 251.7 331.6 241.85 325.9 Z"/>
</g>

<g id="Layer0_0_MEMBER_3_MEMBER_7_MEMBER_1_MEMBER_1_FILL">
<path fill="#726B45" stroke="none" d="
M 261.55 330.9
L 261.55 325.9 251.7 331.6 251.7 336.6 261.55 330.9 Z"/>
</g>

<g id="Layer0_0_MEMBER_3_MEMBER_7_MEMBER_1_MEMBER_2_FILL">
<path fill="#B3AC85" stroke="none" d="
M 251.7 331.6
L 261.55 325.9 251.7 320.2 241.85 325.9 251.7 331.6 Z"/>
</g>

<g id="Layer0_0_MEMBER_3_MEMBER_7_MEMBER_1_MEMBER_3_FILL">
<path fill="#726B45" stroke="none" d="
M 251.7 329.5
L 257.95 325.9 251.7 322.3 245.45 325.9 251.7 329.5 Z"/>
</g>

<g id="Layer0_0_MEMBER_3_MEMBER_7_MEMBER_1_MEMBER_4_FILL">
<path fill="#908658" stroke="none" d="
M 251.7 322.3
L 251.7 329.5 257.95 325.9 251.7 322.3 Z"/>
</g>

<g id="Layer0_0_MEMBER_3_MEMBER_8_MEMBER_0_FILL">
<path fill="#C96D4F" stroke="none" d="
M 197.75 343.65
Q 197.1 343.05 196.2 343.1 195.3 343.15 194.75 343.85 194.15 344.5 194.2 345.4 194.3 346.3 194.95 346.85
L 249.25 394.35
Q 249.8 394.9 250.65 394.9 251.65 394.9 252.25 394.15 252.85 393.5 252.8 392.6 252.75 391.7 252.05 391.15
L 197.75 343.65 Z"/>
</g>

<g id="Layer0_0_MEMBER_3_MEMBER_9_MEMBER_0_FILL">
<path fill="#7D744C" stroke="none" d="
M 215.75 376.8
L 201.6 368.6 201.6 401.15 215.75 409.35 215.75 376.8 Z"/>
</g>

<g id="Layer0_0_MEMBER_3_MEMBER_9_MEMBER_1_MEMBER_0_FILL">
<path fill="#908658" stroke="none" d="
M 201.6 368.6
L 201.6 385 215.75 393.15 215.75 376.8 201.6 368.6 Z"/>
</g>

<g id="Layer0_0_MEMBER_3_MEMBER_9_MEMBER_1_MEMBER_1_FILL">
<path fill="#68B5DC" stroke="none" d="
M 202.95 371
L 202.95 384.2 214.4 390.75 214.4 377.6 202.95 371 Z"/>
</g>

<g id="Layer0_0_MEMBER_3_MEMBER_9_MEMBER_1_MEMBER_2_FILL">
<path fill="#908658" stroke="none" d="
M 207.95 372.25
L 207.95 388.65 209.4 389.5 209.4 373.1 207.95 372.25 Z"/>
</g>

<g id="Layer0_0_MEMBER_3_MEMBER_9_MEMBER_1_MEMBER_3_FILL">
<path fill="#908658" stroke="none" d="
M 201.6 375.95
L 201.6 377.65 215.75 385.85 215.75 384.1 201.6 375.95 Z"/>
</g>

<g id="Layer0_0_MEMBER_3_MEMBER_10_MEMBER_0_FILL">
<path fill="#7D744C" stroke="none" d="
M 236.85 385.75
Q 235 382.25 232.45 380.8
L 230.55 379.7
Q 228.7 378.65 227.1 379.1 226.75 379.15 226.25 379.3 225.3 379.65 224.7 380.35 223.2 381.75 223.2 384.9 223.2 388.3 225 391.8 226.8 395.25 229.35 396.75
L 231.3 397.85
Q 233 398.8 234.45 398.5
L 234.5 398.5
Q 235.55 398.25 236.3 397.75 238.65 396.6 238.65 392.6 238.65 389.2 236.85 385.75 Z"/>
</g>

<g id="Layer0_0_MEMBER_3_MEMBER_10_MEMBER_1_FILL">
<path fill="#908658" stroke="none" d="
M 237.5 393.15
Q 237.5 389.75 235.7 386.25 233.85 382.8 231.3 381.3
L 229.35 380.2
Q 226.8 378.75 225 380.1 223.2 381.5 223.2 384.9 223.2 388.3 225 391.8 226.8 395.25 229.35 396.75
L 231.3 397.85
Q 233.85 399.3 235.7 397.95 237.5 396.55 237.5 393.15 Z"/>
</g>

<g id="Layer0_0_MEMBER_3_MEMBER_10_MEMBER_2_FILL">
<path fill="#68B5DC" stroke="none" d="
M 236.1 392.35
Q 236.1 389.6 234.65 386.8 233.15 384 231.1 382.8
L 229.55 381.95
Q 227.5 380.75 226 381.85 224.55 382.95 224.55 385.7 224.55 388.45 226 391.25 227.5 394.05 229.55 395.2
L 231.1 396.1
Q 233.15 397.3 234.65 396.2 236.1 395.1 236.1 392.35 Z"/>
</g>

<g id="Layer0_0_MEMBER_3_MEMBER_10_MEMBER_3_FILL">
<path fill="#908658" stroke="none" d="
M 231.1 381.2
L 229.6 380.35 229.6 396.85 231.1 397.7 231.1 381.2 Z"/>
</g>

<g id="Layer0_0_MEMBER_3_MEMBER_10_MEMBER_4_FILL">
<path fill="#908658" stroke="none" d="
M 223.2 385.75
L 237.5 394 237.5 392.3 223.2 384.05 223.2 385.75 Z"/>
</g>

<g id="Layer0_0_MEMBER_4_MEMBER_0_FILL">
<path fill="#000000" fill-opacity="0.14901960784313725" stroke="none" d="
M 7.4 8.55
Q 10.5 8.55 12.65 7.3 14.85 6.05 14.85 4.25 14.85 2.5 12.65 1.25 10.5 0 7.4 0 4.35 0 2.15 1.25 0 2.5 0 4.25 0 6.05 2.15 7.3 4.35 8.55 7.4 8.55 Z"/>
</g>

<g id="Layer0_0_MEMBER_4_MEMBER_1_FILL">
<path fill="#A57668" stroke="none" d="
M 250.4 419.55
Q 249.6 419.55 249 420.15 248.4 420.75 248.4 421.55
L 248.4 435.35
Q 248.4 436.2 249 436.75 249.6 437.35 250.4 437.35 251.25 437.35 251.85 436.75 252.45 436.15 252.45 435.35
L 252.45 421.55
Q 252.45 420.75 251.85 420.15 251.25 419.55 250.4 419.55 Z"/>
</g>

<g id="Layer0_0_MEMBER_4_MEMBER_2_FILL">
<path fill="#8C644F" stroke="none" d="
M 252.45 433.8
Q 252.43125 434.56875 251.85 435.15 251.25 435.75 250.4 435.75 249.6 435.75 249 435.15 248.41875 434.6171875 248.4 433.8
L 248.4 435.35
Q 248.4 436.2 249 436.75 249.6 437.35 250.4 437.35 251.25 437.35 251.85 436.75 252.45 436.15 252.45 435.35
L 252.45 433.8 Z"/>
</g>

<g id="Layer0_0_MEMBER_4_MEMBER_3_FILL">
<path fill="#8C644F" stroke="none" d="
M 251.85 420.15
Q 251.25 419.55 250.4 419.55 249.6 419.55 249 420.15 248.4 420.75 248.4 421.55
L 248.4 427.3
Q 249.7 427.5 250.4 427.5 251.15 427.5 252.45 427.3
L 252.45 421.55
Q 252.45 420.75 251.85 420.15 Z"/>
</g>

<g id="Layer0_0_MEMBER_4_MEMBER_4_FILL">
<path fill="#6C9C38" stroke="none" d="
M 260.2 415.25
Q 260.2 411.2 257.35 408.35 254.5 405.45 250.4 405.45 246.35 405.45 243.5 408.35 240.6 411.2 240.6 415.25 240.6 419.35 243.5 422.2 246.35 425.05 250.4 425.05 254.5 425.05 257.35 422.2 260.2 419.35 260.2 415.25 Z"/>
</g>

<g id="Layer0_0_MEMBER_4_MEMBER_5_FILL">
<path fill="#80B844" stroke="none" d="
M 251.55 412.55
Q 251.55 410.95 250.45 409.8 249.3 408.65 247.7 408.65 246.1 408.65 244.95 409.8 243.8 410.95 243.8 412.55 243.8 414.15 244.95 415.3 246.1 416.45 247.7 416.45 249.3 416.45 250.45 415.3 251.55 414.15 251.55 412.55 Z"/>
</g>

<g id="Layer0_0_MEMBER_5_MEMBER_0_FILL">
<path fill="#000000" fill-opacity="0.14901960784313725" stroke="none" d="
M 6.65 7.7
Q 9.4 7.7 11.35 6.55 13.3 5.45 13.3 3.85 13.3 2.3 11.35 1.15 9.4 0.05 6.65 0.05 3.9 0.05 1.95 1.15 0 2.3 0 3.85 0 5.45 1.95 6.55 3.9 7.7 6.65 7.7 Z"/>
</g>

<g id="Layer0_0_MEMBER_5_MEMBER_1_FILL">
<path fill="#6C9C38" stroke="none" d="
M 323.35 385.8
Q 320.8 383.2 317.15 383.2 313.5 383.2 310.95 385.8 308.35 388.35 308.35 392 308.35 395.65 310.95 398.2 313.5 400.8 317.15 400.8 320.8 400.8 323.35 398.2 325.95 395.65 325.95 392 325.95 388.35 323.35 385.8 Z"/>
</g>

<g id="Layer0_0_MEMBER_5_MEMBER_2_FILL">
<path fill="#80B844" stroke="none" d="
M 318.2 389.55
Q 318.2 388.1 317.2 387.1 316.15 386.1 314.7 386.1 313.3 386.1 312.25 387.1 311.25 388.15 311.25 389.55 311.25 391 312.25 392.05 313.25 393.05 314.7 393.05 316.15 393.05 317.2 392.05 318.2 391 318.2 389.55 Z"/>
</g>

<g id="Layer0_0_MEMBER_6_MEMBER_0_FILL">
<path fill="#000000" fill-opacity="0.14901960784313725" stroke="none" d="
M 6.65 7.7
Q 9.4 7.7 11.35 6.55 13.25 5.45 13.25 3.85 13.25 2.3 11.35 1.15 9.4 0.05 6.65 0.05 3.9 0.05 1.95 1.15 0 2.3 0 3.85 0 5.45 1.95 6.55 3.9 7.7 6.65 7.7 Z"/>
</g>

<g id="Layer0_0_MEMBER_6_MEMBER_1_FILL">
<path fill="#6C9C38" stroke="none" d="
M 194.25 392
Q 194.25 388.35 191.7 385.8 189.15 383.2 185.5 383.2 181.85 383.2 179.3 385.8 176.7 388.35 176.7 392 176.7 395.65 179.3 398.2 181.85 400.8 185.5 400.8 189.15 400.8 191.7 398.2 194.25 395.65 194.25 392 Z"/>
</g>

<g id="Layer0_0_MEMBER_6_MEMBER_2_FILL">
<path fill="#80B844" stroke="none" d="
M 186.5 389.55
Q 186.5 388.15 185.5 387.1 184.5 386.1 183.05 386.1 181.6 386.1 180.6 387.1 179.55 388.15 179.55 389.55 179.55 391 180.6 392.05 181.6 393.05 183.05 393.05 184.5 393.05 185.5 392.05 186.5 391 186.5 389.55 Z"/>
</g>
</defs>

<g transform="matrix( 5, 0, 0, 5, -737.85,-1419) ">
<use xlink:href="#Layer0_0_MEMBER_0_MEMBER_0_FILL"/>
</g>

<g transform="matrix( 5, 0, 0, 5, -737.85,-1419) ">
<use xlink:href="#Layer0_0_MEMBER_0_MEMBER_1_FILL"/>
</g>

<g transform="matrix( 5, 0, 0, 5, -737.85,-1419) ">
<use xlink:href="#Layer0_0_MEMBER_0_MEMBER_2_FILL"/>
</g>

<g transform="matrix( 5, 0, 0, 5, -737.85,-1419) ">
<use xlink:href="#Layer0_0_MEMBER_0_MEMBER_3_FILL"/>
</g>

<g transform="matrix( 5, 0, 0, 5, 515.4,571.75) ">
<use xlink:href="#Layer0_0_MEMBER_1_FILL"/>
</g>

<g transform="matrix( 5, 0, 0, 5, -737.85,-1419) ">
<use xlink:href="#Layer0_0_MEMBER_2_FILL"/>
</g>

<g transform="matrix( 5, 0, 0, 5, -737.85,-1419) ">
<use xlink:href="#Layer0_0_MEMBER_3_MEMBER_0_FILL"/>
</g>

<g transform="matrix( 5, 0, 0, 5, -737.85,-1419) ">
<use xlink:href="#Layer0_0_MEMBER_3_MEMBER_1_FILL"/>
</g>

<g transform="matrix( 5, 0, 0, 5, -737.85,-1419) ">
<use xlink:href="#Layer0_0_MEMBER_3_MEMBER_2_FILL"/>
</g>

<g transform="matrix( 5, 0, 0, 5, -737.85,-1419) ">
<use xlink:href="#Layer0_0_MEMBER_3_MEMBER_3_FILL"/>
</g>

<g transform="matrix( 5, 0, 0, 5, -737.85,-1419) ">
<use xlink:href="#Layer0_0_MEMBER_3_MEMBER_4_FILL"/>
</g>

<g transform="matrix( 5, 0, 0, 5, -737.85,-1419) ">
<use xlink:href="#Layer0_0_MEMBER_3_MEMBER_5_FILL"/>
</g>

<g transform="matrix( 5, 0, 0, 5, -737.85,-1419) ">
<use xlink:href="#Layer0_0_MEMBER_3_MEMBER_6_FILL"/>
</g>

<g transform="matrix( 5, 0, 0, 5, -737.85,-1419) ">
<use xlink:href="#Layer0_0_MEMBER_3_MEMBER_7_MEMBER_0_MEMBER_0_FILL"/>
</g>

<g transform="matrix( 5, 0, 0, 5, -737.85,-1419) ">
<use xlink:href="#Layer0_0_MEMBER_3_MEMBER_7_MEMBER_0_MEMBER_1_FILL"/>
</g>

<g transform="matrix( 5, 0, 0, 5, -737.85,-1419) ">
<use xlink:href="#Layer0_0_MEMBER_3_MEMBER_7_MEMBER_1_MEMBER_0_FILL"/>
</g>

<g transform="matrix( 5, 0, 0, 5, -737.85,-1419) ">
<use xlink:href="#Layer0_0_MEMBER_3_MEMBER_7_MEMBER_1_MEMBER_1_FILL"/>
</g>

<g transform="matrix( 5, 0, 0, 5, -737.85,-1419) ">
<use xlink:href="#Layer0_0_MEMBER_3_MEMBER_7_MEMBER_1_MEMBER_2_FILL"/>
</g>

<g transform="matrix( 5, 0, 0, 5, -737.85,-1419) ">
<use xlink:href="#Layer0_0_MEMBER_3_MEMBER_7_MEMBER_1_MEMBER_3_FILL"/>
</g>

<g transform="matrix( 5, 0, 0, 5, -737.85,-1419) ">
<use xlink:href="#Layer0_0_MEMBER_3_MEMBER_7_MEMBER_1_MEMBER_4_FILL"/>
</g>

<g transform="matrix( 5, 0, 0, 5, -737.85,-1419) ">
<use xlink:href="#Layer0_0_MEMBER_3_MEMBER_8_MEMBER_0_FILL"/>
</g>

<g transform="matrix( 5, 0, 0, 5, -737.85,-1419) ">
<use xlink:href="#Layer0_0_MEMBER_3_MEMBER_9_MEMBER_0_FILL"/>
</g>

<g transform="matrix( 5, 0, 0, 5, -737.85,-1419) ">
<use xlink:href="#Layer0_0_MEMBER_3_MEMBER_9_MEMBER_1_MEMBER_0_FILL"/>
</g>

<g transform="matrix( 5, 0, 0, 5, -737.85,-1419) ">
<use xlink:href="#Layer0_0_MEMBER_3_MEMBER_9_MEMBER_1_MEMBER_1_FILL"/>
</g>

<g transform="matrix( 5, 0, 0, 5, -737.85,-1419) ">
<use xlink:href="#Layer0_0_MEMBER_3_MEMBER_9_MEMBER_1_MEMBER_2_FILL"/>
</g>

<g transform="matrix( 5, 0, 0, 5, -737.85,-1419) ">
<use xlink:href="#Layer0_0_MEMBER_3_MEMBER_9_MEMBER_1_MEMBER_3_FILL"/>
</g>

<g transform="matrix( 5, 0, 0, 5, -737.85,-1419) ">
<use xlink:href="#Layer0_0_MEMBER_3_MEMBER_10_MEMBER_0_FILL"/>
</g>

<g transform="matrix( 5, 0, 0, 5, -737.85,-1419) ">
<use xlink:href="#Layer0_0_MEMBER_3_MEMBER_10_MEMBER_1_FILL"/>
</g>

<g transform="matrix( 5, 0, 0, 5, -737.85,-1419) ">
<use xlink:href="#Layer0_0_MEMBER_3_MEMBER_10_MEMBER_2_FILL"/>
</g>

<g transform="matrix( 5, 0, 0, 5, -737.85,-1419) ">
<use xlink:href="#Layer0_0_MEMBER_3_MEMBER_10_MEMBER_3_FILL"/>
</g>

<g transform="matrix( 5, 0, 0, 5, -737.85,-1419) ">
<use xlink:href="#Layer0_0_MEMBER_3_MEMBER_10_MEMBER_4_FILL"/>
</g>

<g transform="matrix( 5, 0, 0, 5, 477.15,746.5) ">
<use xlink:href="#Layer0_0_MEMBER_4_MEMBER_0_FILL"/>
</g>

<g transform="matrix( 5, 0, 0, 5, -737.85,-1419) ">
<use xlink:href="#Layer0_0_MEMBER_4_MEMBER_1_FILL"/>
</g>

<g transform="matrix( 5, 0, 0, 5, -737.85,-1419) ">
<use xlink:href="#Layer0_0_MEMBER_4_MEMBER_2_FILL"/>
</g>

<g transform="matrix( 5, 0, 0, 5, -737.85,-1419) ">
<use xlink:href="#Layer0_0_MEMBER_4_MEMBER_3_FILL"/>
</g>

<g transform="matrix( 5, 0, 0, 5, -737.85,-1419) ">
<use xlink:href="#Layer0_0_MEMBER_4_MEMBER_4_FILL"/>
</g>

<g transform="matrix( 5, 0, 0, 5, -737.85,-1419) ">
<use xlink:href="#Layer0_0_MEMBER_4_MEMBER_5_FILL"/>
</g>

<g transform="matrix( 5, 0, 0, 5, 814.65,555.5) ">
<use xlink:href="#Layer0_0_MEMBER_5_MEMBER_0_FILL"/>
</g>

<g transform="matrix( 5, 0, 0, 5, -737.85,-1419) ">
<use xlink:href="#Layer0_0_MEMBER_5_MEMBER_1_FILL"/>
</g>

<g transform="matrix( 5, 0, 0, 5, -737.85,-1419) ">
<use xlink:href="#Layer0_0_MEMBER_5_MEMBER_2_FILL"/>
</g>

<g transform="matrix( 5, 0, 0, 5, 156.4,555.5) ">
<use xlink:href="#Layer0_0_MEMBER_6_MEMBER_0_FILL"/>
</g>

<g transform="matrix( 5, 0, 0, 5, -737.85,-1419) ">
<use xlink:href="#Layer0_0_MEMBER_6_MEMBER_1_FILL"/>
</g>

<g transform="matrix( 5, 0, 0, 5, -737.85,-1419) ">
<use xlink:href="#Layer0_0_MEMBER_6_MEMBER_2_FILL"/>
</g>
</svg>
