<?xml version="1.0" encoding="utf-8"?>
<!-- Generator: Adobe Illustrator 22.1.0, SVG Export Plug-In . SVG Version: 6.00 Build 0)  -->
<svg version="1.1" id="图层_1" xmlns="http://www.w3.org/2000/svg" xmlns:xlink="http://www.w3.org/1999/xlink" x="0px" y="0px"
	 viewBox="0 0 1024 1024" style="enable-background:new 0 0 1024 1024;" xml:space="preserve">
<style type="text/css">
	.st0{fill:#FF7F29;}
	.st1{fill:#BA652B;}
	.st2{fill:#3F1F0D;}
	.st3{opacity:0.5;fill:#281308;}
	.st4{fill:#FBBC7D;}
	.st5{fill:#FFD7B3;}
	.st6{fill:#FEBD8B;}
	.st7{fill:#D2F2FF;}
	.st8{fill:#E09D70;}
	.st9{fill:#FFFFFF;}
	.st10{opacity:0.3;fill:#E09D70;}
	.st11{fill:#FEBD8B;stroke:#C4875C;stroke-width:0.1;stroke-miterlimit:10;}
	.st12{fill:#D2F2FF;stroke:#3C98C6;stroke-width:0.2;stroke-miterlimit:10;}
	.st13{fill:#C4C4C4;stroke:#7A7A7A;stroke-width:0.25;stroke-miterlimit:10;}
	.st14{fill:#FEBD8B;stroke:#C4875C;stroke-width:0.2;stroke-miterlimit:10;}
	.st15{fill:#C4875C;}
	.st16{fill:#FFD9C0;stroke:#C4875C;stroke-width:0.1;stroke-miterlimit:10;}
	.st17{fill:#B5813C;}
	.st18{fill:#F2B65F;}
	.st19{fill:none;stroke:#000000;stroke-width:0.1;stroke-miterlimit:10;}
	.st20{opacity:0.1;fill:#3C98C6;}
</style>
<g>
	<path class="st0" d="M669.6,324.7l185.3,2.5c11.9,0.2,21.4,10,21.1,21.9c-1.6,68.5-9.2,278.8-43.2,323.7
		C791.3,727.5,680,754.7,680,754.7l-263.6-38.1l19.1-57.2C435.5,659.4,648.8,657.6,669.6,324.7z"/>
	<path class="st1" d="M618.8,336H830c6.9,0,12.4,5.7,12.1,12.5c-1.8,50.4-9.9,238.1-33.8,293.5c-27.7,64.2-152.6,62.4-152.6,62.4
		l-215-15.6C440.7,688.8,629.2,625.5,618.8,336z"/>
	<path class="st2" d="M541.2,671.4c0,0-49.2,7.5-63.3,20.8c-14.2,13.3-53.3,8.3-53.3,8.3l-1.7,51.7l-121.7-8.3c0,0-25-95,0.8-127.5
		c25.8-32.5,148.3-57.5,195.9-57.5s120.6,7.5,120.6,7.5L541.2,671.4z"/>
	<path class="st3" d="M543.8,675.5c0,0-38.1-38.1-56.9-46.6c-18.8-8.4-59.4-3.1-59.4-3.1s33.4-36.9,34.4-36.9
		c0.9,0,166,10.9,166,10.9L543.8,675.5z"/>
	<path class="st2" d="M760.3,558.9c0,0,29.8,14.2,18.1,85c-7.9,47.8-69.8,70.2-95.6,71.9c-25.8,1.7-30,4-30,4l1.7,31.7l-120-5
		c0,0-13.3-133.3,79.2-154.2S760.3,558.9,760.3,558.9z"/>
	<polygon class="st4" points="174,735.6 822.3,728.4 888.1,844.2 111.5,844.2 	"/>
	<rect x="111.4" y="844.1" class="st5" width="776.8" height="12.7"/>
	<path class="st6" d="M468.7,554.8c0-1.3-12.4-29.6-23.6-29.9c-11.3-0.3-12.8,6.9-12.8,6.9s-10.3,2.5-10.3,8.4
		c0,5.9-6.6,5.6-6.9,13.4c-0.3,7.8-2.5,9.7-2.8,15.6c-0.3,5.9,0.9,15,10,15s39.4-4.1,39.4-4.1L468.7,554.8z"/>
	<path class="st7" d="M391.1,339.7l-4,3.7c-11.3,10.5-18.2,24.8-19.3,40.2l-1.7,24.4l-45.2,113.1c-5.2,13.1-5.9,27.6-1.9,41.1
		l12.6,42.1c3.8,12.7,18.2,18.8,29.9,12.6c18.4-9.8,41.3-24.2,41.3-35.6c0-19.2-10-40-10-42.5c0-2.5,33.3-68.3,33.3-68.3l70.8,79.2
		l197.5,35l51.4-1.8c11.7-0.4,21.8-8.1,25.5-19.2l2.3-7.1c2.6-8,1-16.7-4.2-23.2v0c-1-1.2-2.1-2.4-3.3-3.4
		c-8.2-7-44.1-41.1-56.6-110.3c-14.2-78.3-12.5-156.7-196.7-140.8L391.1,339.7z"/>
	<path class="st8" d="M475.9,387c0,0,8.1,19.4,16.9,21.9s19.2-32.1,19.2-32.1S481.2,376,475.9,387z"/>
	<path class="st9" d="M492.8,408.9l6.3,42.5c0,0-37.5-51.9-37.5-64.4c0-12.5,15-20.6,15-20.6S466.6,387.7,492.8,408.9z"/>
	<path class="st6" d="M475.9,387c0,0,13.8-9.4,25,0c11.3,9.4,37.5-23.8,36.3-51.3c-1.3-27.5-17.5-40.6-17.5-40.6L475.9,387z"/>
	<path class="st10" d="M519.7,294.7l-38.9,81.7c0.2,1.5,0.4,3.1,0.8,4.6c0,0,28.3-64.2,49.6-50.8c2.2,1.4,4.1,2.4,5.9,3.3
		C535.1,307.3,519.7,294.7,519.7,294.7z"/>
	<path class="st6" d="M370.9,258.9c0,0,9.4,78.8,29.4,99.4c20,20.6,30,44.4,51.3,43.8s46.9-39.4,52.5-66.9
		c5.6-27.5,14.4-34.4,14.4-34.4s13.8,7.5,10-27.5c-3.8-35-22.5-3.1-22.5-3.1s-23.1-25.6-54.4-26.9
		C420.3,242,370.9,258.9,370.9,258.9z"/>
	<path d="M464.5,156.8c0,0-26.3-0.4-32.1,15.8c0,0-26.7-12.1-50.8,10.8c-19.1,18.1-23.6,32.6-25.1,55.2c-0.1,1.5,0,2.9,0,4.4
		c-0.2,1.1-0.3,2.2-0.3,3.4c-2.1,34.2,17.5,51.3,17.5,51.3c-1.5-8.3-0.6-16.2,0.4-21.1c1.6,1.1,3.2,2.2,5,3.1
		c10,5.2,23.5,8.9,41.3,7.6c47.5-3.3,71.3,2.1,77.5,25l7.9,2.5c0,0-4.2-56.7,10.8-57.1c0,0,12.5-3.3,14.2,12.5
		C530.7,270.1,539.1,155.5,464.5,156.8z"/>
	<polyline class="st8" points="414.5,328.3 420.7,359.5 428.9,355.1 	"/>
	<g>
		<path d="M428.2,315.6c1.1-1.8,2.6-3.3,4.3-4.6c1.7-1.2,3.7-2.2,5.6-2.9c1-0.3,2-0.6,3.1-0.8c1-0.2,2.1-0.3,3.1-0.4
			c1.1-0.1,2.1,0,3.2,0c1.1,0.1,2.1,0.2,3.1,0.3c-1.1,0-2.1-0.1-3.1-0.1c-1,0.1-2.1,0-3.1,0.2c-2.1,0.2-4.1,0.6-6.1,1.3
			c-2,0.7-3.9,1.6-5.6,2.7C431.1,312.5,429.5,313.9,428.2,315.6z"/>
	</g>
	<g>
		<path d="M406.1,320.6c-1.8-1-3.9-1.5-5.9-1.9c-2.1-0.3-4.1-0.3-6.2,0c-2.1,0.3-4.1,0.8-6,1.5c-1,0.3-1.9,0.8-2.9,1.2
			c-0.9,0.5-1.9,0.9-2.8,1.4c0.9-0.5,1.8-1.1,2.7-1.6c1-0.4,1.9-1,2.9-1.3c1-0.4,2-0.8,3-1c1-0.3,2.1-0.5,3.1-0.6
			c2.1-0.2,4.2-0.2,6.3,0.1C402.3,318.7,404.4,319.4,406.1,320.6z"/>
	</g>
	<ellipse cx="443.4" cy="326.7" rx="5" ry="4.7"/>
	<ellipse cx="400.5" cy="336.6" rx="3.9" ry="3.7"/>
	<path class="st8" d="M429.1,376.8c0,0,13.5,0.4,32.1-14.2c0,0-3.8,15.4-12.7,19.4C439.5,386,429.1,376.8,429.1,376.8z"/>
	<path class="st9" d="M527.8,302c0,0,25,5.6,28.8,24.4c3.8,18.8-25,114.4-25,114.4l-38.8-31.9C492.8,408.9,541.6,340.8,527.8,302z"
		/>
	<path class="st11" d="M397.8,585.2c0,0,2.8,10.3,8.8,16.6"/>
	<path class="st12" d="M693.3,378.9c23.8,85.8-3.8,195.9-35.4,219.2c-19.3,14.2-157.9,11.3-157.9,11.3s-51.7,3.3-56.7-24.2
		c-5-27.5,23.3-38.8,23.3-38.8l88.4-6.5c23.9-1.7,42.3-21.8,42-45.7l-1.2-99.5"/>
	<path class="st13" d="M426.1,470.6c0,0-18.3-18.8-13.3-37.1"/>
	<g>
		<path class="st14" d="M356.5,602.1c-1.9-1.4-4.5-0.7-5.5,1.4c-1.7,3.8-3.5,9.6-2,14.4c2.5,7.8,31.6,28.4,38.4,28.4
			c6.9,0,14.4-4.4,11.6-9.4C396.7,632.9,366.8,609.9,356.5,602.1z"/>
		<path class="st14" d="M364.6,594c-3.3-2.3-7.8-0.4-8.5,3.5c-0.5,3-0.7,6.5,0.5,10.1c2.8,9.1,33.8,31.9,40.9,32.5
			c7.2,0.6,14.1-2.2,10-10.6C404.4,623,376.9,602.8,364.6,594z"/>
		<path class="st14" d="M377,580.1c-3.7-2.8-9.1-1.1-10.9,3.2c-1.5,3.5-2.9,8.1-2.1,11.3c1.6,5.9,35.9,40.6,47.8,41.6
			c11.9,0.9,11.6-5.3,8.8-10.9s-38.1-40.9-43.4-45C377.1,580.1,377.1,580.1,377,580.1z"/>
		<g>
			<ellipse class="st15" cx="433" cy="604.6" rx="20.5" ry="15.9"/>
			<ellipse class="st11" cx="432.3" cy="599.4" rx="20.5" ry="13.6"/>
		</g>
		<path class="st14" d="M391.2,573c0,0-11.9-3.8-15.6,4.1s29.4,47.8,47.2,53.4s9.4-12.2,0.9-16.9c-8.4-4.7-21.9-13.8-19.1-17.2
			s30.3-1.3,39.4-0.3c9.1,0.9,15-8.1,7.5-12.2c-7.5-4.1-50.6-3.4-54.7-6.6C392.8,574.2,391.2,573,391.2,573z"/>
		<ellipse class="st16" cx="432.3" cy="599.4" rx="20.5" ry="13.6"/>
	</g>
	<path class="st3" d="M658.5,698.3c-8.8,1.3-6.3,21.5-6.3,21.5s4.2-2.3,30-4c23.6-1.5,77.3-20.4,92.4-60.1
		C742.5,695.3,666.9,697.1,658.5,698.3z"/>
	<path class="st3" d="M471.6,696.4l-51.5-22.5c1.9,5,4.5,26.7,4.5,26.7S454.7,704.4,471.6,696.4z"/>
	<g>
		<rect x="241.5" y="825.8" class="st17" width="489.4" height="6"/>
		<g>
			<polygon class="st18" points="279.6,741.4 241.5,825.8 731.5,827.1 687.1,738.9 			"/>
			<line class="st19" x1="273.8" y1="750.8" x2="693" y2="748.3"/>
			<line class="st19" x1="270.4" y1="761.9" x2="697.3" y2="759.4"/>
			<line class="st19" x1="265.8" y1="771.7" x2="701.9" y2="769.2"/>
			<line class="st19" x1="261.3" y1="781.4" x2="707.3" y2="778.9"/>
			<line class="st19" x1="256.7" y1="791.2" x2="712.4" y2="788.7"/>
			<line class="st19" x1="252.1" y1="801" x2="716.9" y2="798.5"/>
			<line class="st19" x1="247.5" y1="810.8" x2="721.7" y2="808.3"/>
			<line class="st19" x1="242.9" y1="820.6" x2="726.9" y2="818.1"/>
			<line class="st19" x1="300.8" y1="741" x2="266.3" y2="826"/>
			<line class="st19" x1="322.7" y1="740.8" x2="293.3" y2="824.3"/>
			<line class="st19" x1="344" y1="740.8" x2="320.8" y2="825.5"/>
			<line class="st19" x1="362.1" y1="740.2" x2="348.7" y2="824.3"/>
			<line class="st19" x1="382.1" y1="740.2" x2="371.5" y2="825.2"/>
			<line class="st19" x1="402.1" y1="740.2" x2="394.6" y2="825.8"/>
			<line class="st19" x1="422.1" y1="740.2" x2="414.6" y2="825.8"/>
			<line class="st19" x1="442.1" y1="740.2" x2="434.6" y2="825.8"/>
			<line class="st19" x1="462.1" y1="740.2" x2="454.6" y2="825.8"/>
			<line class="st19" x1="482.1" y1="740.2" x2="474.6" y2="825.8"/>
			<line class="st19" x1="502.1" y1="740.2" x2="497.1" y2="825.5"/>
			<line class="st19" x1="522.1" y1="740.2" x2="517.4" y2="825.5"/>
			<line class="st19" x1="542.1" y1="740.2" x2="539.6" y2="825.5"/>
			<line class="st19" x1="562.1" y1="740.2" x2="560.6" y2="825.2"/>
			<line class="st19" x1="582.1" y1="740.2" x2="581.8" y2="824.6"/>
			<line class="st19" x1="602.1" y1="740.2" x2="603.1" y2="825.8"/>
			<line class="st19" x1="622.1" y1="740.2" x2="625.3" y2="825.2"/>
			<line class="st19" x1="639" y1="739.9" x2="647.8" y2="825.2"/>
			<line class="st19" x1="657.4" y1="740.5" x2="676.2" y2="825.5"/>
			<line class="st19" x1="672.4" y1="739" x2="705.6" y2="824.9"/>
		</g>
	</g>
</g>
<path class="st20" d="M595.3,393.7c0,0-10.8,136.3-47,146.3c0,0,26.3,1.8,39-17.5s9.1-32.4,9.4-37.5S595.3,393.7,595.3,393.7z"/>
</svg>
