<?xml version="1.0" encoding="utf-8"?>
<!-- Generator: Adobe Illustrator 23.0.2, SVG Export Plug-In . SVG Version: 6.00 Build 0)  -->
<svg version="1.1" id="图层_1" xmlns="http://www.w3.org/2000/svg" xmlns:xlink="http://www.w3.org/1999/xlink" x="0px" y="0px"
	 viewBox="0 0 800 800" style="enable-background:new 0 0 800 800;" xml:space="preserve">
<style type="text/css">
	.st0{fill:#CECECE;}
	.st1{fill:#A8A8A8;}
	.st2{fill:#943E7B;}
	.st3{fill:#1C1D1D;stroke:#14203E;stroke-width:3.1655;stroke-miterlimit:10;}
	.st4{fill:#F4DBD1;stroke:#000000;stroke-miterlimit:10;}
	.st5{fill:#B1DDDD;}
	.st6{fill:#9699C7;}
	.st7{fill:#412D35;}
	.st8{opacity:0.43;}
	.st9{fill:#FFFFFF;}
	.st10{fill:#040000;}
	.st11{fill:#6D2932;}
	.st12{fill:#431234;}
	.st13{fill:#C99C5D;}
	.st14{fill:#149793;}
	.st15{fill:none;stroke:#3A0C05;stroke-width:10;stroke-miterlimit:10;}
	.st16{fill:none;stroke:#C99C5D;stroke-width:5.5408;stroke-miterlimit:10;}
	.st17{fill:none;stroke:#3A0C05;stroke-width:10.8417;stroke-miterlimit:10;}
	.st18{fill:none;stroke:#C99C5D;stroke-width:6.0712;stroke-miterlimit:10;}
	.st19{fill:#300A03;}
	.st20{fill:#0A0203;}
	.st21{fill:#BF2220;}
	.st22{fill:#EC662F;}
	.st23{fill:#323333;}
	.st24{fill:#FFFFFF;stroke:#323333;stroke-width:2.4376;stroke-miterlimit:10;}
	.st25{fill:#F6C9B3;stroke:#323333;stroke-width:2.4376;stroke-miterlimit:10;}
	.st26{fill:#F6C9B3;stroke:#323333;stroke-width:2.541;stroke-miterlimit:10;}
	.st27{fill:none;stroke:#323333;stroke-width:4.1908;stroke-linecap:round;stroke-miterlimit:10;}
	.st28{fill:none;stroke:#323333;stroke-width:3;stroke-linecap:round;stroke-miterlimit:10;}
	.st29{fill:#F6C9B3;stroke:#323333;stroke-width:1.3747;stroke-miterlimit:10;}
	.st30{fill:#5F7E99;}
	.st31{fill:none;stroke:#323333;stroke-width:2.6814;stroke-linecap:round;stroke-miterlimit:10;}
	.st32{fill:#F6C9B3;stroke:#323333;stroke-width:2.2432;stroke-miterlimit:10;}
	.st33{fill:#9598C6;stroke:#323333;stroke-width:2.4376;stroke-miterlimit:10;}
	.st34{fill:#A4427C;stroke:#313333;stroke-width:2.3955;stroke-miterlimit:10;}
	.st35{fill:#FFFFFF;stroke:#323333;stroke-width:4.1907;stroke-miterlimit:10;}
	.st36{fill:none;stroke:#323333;stroke-width:4.1907;stroke-miterlimit:10;}
	.st37{fill:none;stroke:#323333;stroke-width:2.6322;stroke-linecap:round;stroke-miterlimit:10;}
	.st38{fill:#FFFFFF;stroke:#323333;stroke-width:1.8282;stroke-linecap:round;stroke-miterlimit:10;}
	.st39{fill:#FFFFFF;stroke:#323333;stroke-width:2.2669;stroke-linecap:round;stroke-miterlimit:10;}
	.st40{fill:#FFFFFF;stroke:#323333;stroke-width:1.6729;stroke-linecap:round;stroke-miterlimit:10;}
	.st41{fill:#FFFFFF;stroke:#323333;stroke-width:1.3755;stroke-linecap:round;stroke-miterlimit:10;}
	.st42{fill:#172D57;stroke:#323333;stroke-width:2.4376;stroke-linecap:round;stroke-miterlimit:10;}
	.st43{fill:none;stroke:#323333;stroke-width:2.3107;stroke-linecap:round;stroke-miterlimit:10;}
	.st44{fill:#040000;stroke:#323333;stroke-width:2.8975;stroke-miterlimit:10;}
	.st45{fill:none;stroke:#323333;stroke-width:1.6358;stroke-linecap:round;stroke-miterlimit:10;}
	.st46{fill:#ADADAD;stroke:#323333;stroke-width:2.8975;stroke-miterlimit:10;}
	.st47{fill:#495E6B;}
	.st48{fill:#FDF0D8;stroke:#2F3030;stroke-width:2.6751;stroke-miterlimit:10;}
	.st49{fill:#474747;stroke:#2F3030;stroke-width:1.3446;stroke-miterlimit:10;}
	.st50{fill:#FFFFFF;stroke:#2F3030;stroke-width:2.6751;stroke-miterlimit:10;}
	.st51{fill:#4A6EA8;stroke:#2F3030;stroke-width:2.1585;stroke-miterlimit:10;}
	.st52{fill:#4A6EA8;stroke:#2F3030;stroke-width:2.6751;stroke-miterlimit:10;}
	.st53{fill:#2F3030;stroke:#2F3030;stroke-width:2.6751;stroke-miterlimit:10;}
	.st54{fill:#FFFFFF;stroke:#2F3030;stroke-width:2.1109;stroke-miterlimit:10;}
	.st55{fill:#FFFFFF;stroke:#2F3030;stroke-width:1.3376;stroke-miterlimit:10;}
	.st56{fill:#1F2E39;stroke:#2F3030;stroke-miterlimit:10;}
	.st57{fill:#E8BED8;stroke:#2F3030;stroke-width:2.9553;stroke-miterlimit:10;}
	.st58{fill:#D774AA;stroke:#2F3030;stroke-width:2.9553;stroke-miterlimit:10;}
	.st59{fill:#E0A0C6;stroke:#2F3030;stroke-width:2.9553;stroke-miterlimit:10;}
	.st60{fill:#FDF0D8;stroke:#2F3030;stroke-width:2.9553;stroke-miterlimit:10;}
	.st61{fill:#1F2E39;stroke:#2F3030;stroke-width:2.9553;stroke-miterlimit:10;}
	.st62{fill:none;stroke:#2F3030;stroke-width:2.9553;stroke-miterlimit:10;}
	.st63{fill:none;stroke:#2F3030;stroke-width:2.9553;stroke-linecap:round;stroke-miterlimit:10;}
	.st64{fill:#2F3030;stroke:#2F3030;stroke-width:2.9553;stroke-linecap:round;stroke-miterlimit:10;}
	.st65{fill:#FFFFFF;stroke:#2F3030;stroke-width:2.9553;stroke-miterlimit:10;}
	.st66{fill:#D2599C;stroke:#2F3030;stroke-width:2.9553;stroke-miterlimit:10;}
	.st67{fill:#264B7E;stroke:#2F3030;stroke-width:4;stroke-miterlimit:10;}
	.st68{fill:#073E68;stroke:#2F3030;stroke-width:4;stroke-miterlimit:10;}
	.st69{fill:#F2C9B3;stroke:#2F3030;stroke-width:4;stroke-miterlimit:10;}
	.st70{fill:#F2C9B3;}
	.st71{fill:none;stroke:#2F3030;stroke-width:4;stroke-miterlimit:10;}
	.st72{fill:#F2C9B3;stroke:#2F3030;stroke-width:4;stroke-linecap:round;stroke-miterlimit:10;}
	.st73{fill:#050101;}
	.st74{fill:#533937;stroke:#000000;stroke-width:2.5835;stroke-miterlimit:10;}
	.st75{fill:#FFFFFF;stroke:#2F3030;stroke-width:2.5835;stroke-miterlimit:10;}
	.st76{fill:none;stroke:#040000;stroke-width:2.5835;stroke-linecap:round;stroke-miterlimit:10;}
	.st77{fill:#FFFFFF;stroke:#060404;stroke-width:2.5835;stroke-linecap:round;stroke-miterlimit:10;}
	.st78{fill:#987367;stroke:#000000;stroke-width:4;stroke-miterlimit:10;}
	.st79{fill:#FFFFFF;stroke:#000000;stroke-width:4;stroke-miterlimit:10;}
	.st80{fill:#F4DBD1;stroke:#000000;stroke-width:4;stroke-miterlimit:10;}
	.st81{fill:#F4DBD1;}
	.st82{fill:none;stroke:#000000;stroke-width:4;stroke-miterlimit:10;}
	.st83{fill:none;stroke:#000000;stroke-width:4;stroke-linecap:round;stroke-miterlimit:10;}
	.st84{fill:none;stroke:#DE322F;stroke-width:4;stroke-linecap:round;stroke-miterlimit:10;}
	.st85{fill:#D8A986;stroke:#14203E;stroke-width:3.6591;stroke-miterlimit:10;}
	.st86{fill:#9CA9CD;stroke:#14203E;stroke-width:3.6591;stroke-miterlimit:10;}
	.st87{fill:#D8A986;}
	.st88{fill:#E71F19;stroke:#14203E;stroke-width:3.6591;stroke-miterlimit:10;}
	.st89{fill:#394981;stroke:#14203E;stroke-width:3.6591;stroke-miterlimit:10;}
	.st90{fill:#14203E;}
	.st91{fill:none;stroke:#14203E;stroke-width:2.7443;stroke-linecap:round;stroke-miterlimit:10;}
	.st92{fill:none;stroke:#14203E;stroke-width:2.2123;stroke-linecap:round;stroke-miterlimit:10;}
	.st93{fill:#FFFFFF;stroke:#14203E;stroke-width:2.2123;stroke-linecap:round;stroke-miterlimit:10;}
	.st94{fill:#9CA9CD;}
	.st95{fill:#9CA9CD;stroke:#14203E;stroke-width:3.6591;stroke-linecap:round;stroke-miterlimit:10;}
	.st96{fill:none;stroke:#14203E;stroke-width:2.8957;stroke-miterlimit:10;}
	.st97{fill:#2C3376;stroke:#0B102C;stroke-width:3.2325;stroke-miterlimit:10;}
	.st98{fill:#F9D6C3;}
	.st99{fill:none;stroke:#14203E;stroke-width:3.2325;stroke-miterlimit:10;}
	.st100{fill:#F9D6C3;stroke:#14203E;stroke-width:3.2325;stroke-miterlimit:10;}
	.st101{fill:#E7211C;stroke:#14203E;stroke-width:1.8016;stroke-miterlimit:10;}
	.st102{fill:#FFFFFF;stroke:#14203E;stroke-width:3.2325;stroke-miterlimit:10;}
	.st103{fill:#FFFFFF;stroke:#14203E;stroke-width:3.2325;stroke-linecap:round;stroke-miterlimit:10;}
	.st104{fill:none;stroke:#14203E;stroke-width:3.2325;stroke-linecap:round;stroke-miterlimit:10;}
	.st105{fill:none;stroke:#14203E;stroke-width:4;stroke-linecap:round;stroke-miterlimit:10;}
	.st106{fill:#5B3719;stroke:#14203E;stroke-width:2.8784;stroke-miterlimit:10;}
	.st107{fill:#EAC3A2;stroke:#14203E;stroke-width:2.8784;stroke-miterlimit:10;}
	.st108{fill:#5B3719;}
	.st109{fill:#D65D37;stroke:#14203E;stroke-width:2.8784;stroke-miterlimit:10;}
	.st110{fill:#FFFFFF;stroke:#14203E;stroke-width:2.8784;stroke-miterlimit:10;}
	.st111{fill:none;stroke:#14203E;stroke-width:2.8784;stroke-linecap:round;stroke-miterlimit:10;}
	.st112{fill:#FFFFFF;stroke:#101722;stroke-width:4.779;stroke-miterlimit:10;}
	.st113{fill:#E71F19;stroke:#101722;stroke-width:2.7716;stroke-miterlimit:10;}
	.st114{fill:#252525;}
	.st115{fill:#F3CAAE;stroke:#101722;stroke-width:2.7716;stroke-miterlimit:10;}
	.st116{fill:#FFFFFF;stroke:#101722;stroke-width:3.3114;stroke-miterlimit:10;}
	.st117{fill:none;stroke:#101722;stroke-width:2.7716;stroke-miterlimit:10;}
	.st118{fill:none;stroke:#252525;stroke-width:0.6929;stroke-miterlimit:10;}
	.st119{fill:none;stroke:#2F3030;stroke-width:2.7716;stroke-miterlimit:10;}
</style>
<rect x="2.48" class="st7" width="800" height="800"/>
<rect x="384.01" y="462.38" class="st23" width="32.87" height="64.22"/>
<path class="st24" d="M463.28,526.6l-124.75,1.07v-12.82c0-34.45,27.93-62.37,62.37-62.37h0c34.45,0,62.37,26.3,62.37,62.37V526.6z"
	/>
<circle class="st25" cx="352.15" cy="393.53" r="11.11"/>
<circle class="st25" cx="449.66" cy="393.53" r="11.11"/>
<path class="st26" d="M438.55,341.69v4.04h-75.28V338c0-1.59-1.88-2.21-2.71-0.91c-5.3,8.35-8.4,18.46-8.4,29.37v31.72
	c0,28.62,21.35,51.83,47.69,51.83h0c26.34,0,47.69-23.2,47.69-51.83v-31.72c0-9.3-2.26-18.03-6.22-25.58
	C440.57,339.45,438.55,340.04,438.55,341.69z"/>
<line class="st27" x1="372.82" y1="388.45" x2="377.67" y2="388.45"/>
<line class="st27" x1="422.02" y1="388.45" x2="426.87" y2="388.45"/>
<line class="st28" x1="351.05" y1="395.59" x2="345.65" y2="391.46"/>
<line class="st28" x1="448.81" y1="395.42" x2="452.95" y2="390.02"/>
<rect x="393.01" y="449.68" class="st29" width="14.96" height="12.37"/>
<line class="st25" x1="353.25" y1="513.1" x2="353.25" y2="527.67"/>
<line class="st25" x1="449.66" y1="513.1" x2="449.66" y2="527.67"/>
<path class="st42" d="M341.04,376.56v-8.06c0-28.54,23.14-51.67,51.67-51.67h16.37c28.54,0,51.67,23.14,51.67,51.67v6.12
	c0,2.35-1.08,4.57-2.92,6.02l-1.35,1.06c-5.03,3.95-12.4,0.37-12.4-6.02v-20.35c0,0-32.79,14.06-49.11-9.87
	c0,0-2.16,13.92-22.16,8.69l-16.45,11.99v10.43c0,5.94-6.47,9.62-11.57,6.59l0,0C342.47,381.76,341.04,379.26,341.04,376.56z"/>
<path class="st43" d="M393.96,393.53v12.76c0,2.58,2.55,4.67,5.69,4.67l0,0c3.14,0,5.69-2.09,5.69-4.67v-12.76"/>
<ellipse class="st44" cx="400.35" cy="464.49" rx="7.61" ry="5.88"/>
<path class="st45" d="M395.01,423.34c0,0,12.74,3.88,14.96-4.99"/>
<path class="st24" d="M392.75,452.57l4,15.35l-6.15,4.58c-1.84,1.37-4.45,0.04-4.43-2.25l0.07-7.93c0.03-4.08,2.39-7.78,6.08-9.54
	L392.75,452.57z"/>
<path class="st24" d="M408.67,452.57l-4,15.35l6.15,4.58c1.84,1.37,4.45,0.04,4.43-2.25l-0.07-7.93c-0.03-4.08-2.39-7.78-6.08-9.54
	L408.67,452.57z"/>
<polygon class="st46" points="390.59,472.49 390.59,527.22 410.93,527.22 410.93,472.49 405.83,468.57 400.36,466.57 "/>
<path class="st44" d="M397.49,468.76l-2.02,7.43c-0.31,1.12-0.25,2.32,0.17,3.4l3.67,9.6c0.41,1.08,1.94,1.08,2.35,0l3.8-9.94
	c0.46-1.2,0.48-2.52,0.07-3.74l-2.36-6.93c-0.41-1.2-1.54-2.01-2.81-2.01l0,0C399.02,466.57,397.84,467.46,397.49,468.76z"/>
</svg>
