
<svg xmlns="http://www.w3.org/2000/svg" version="1.1" xmlns:xlink="http://www.w3.org/1999/xlink" preserveAspectRatio="none" x="0px" y="0px" width="1024px" height="1024px" viewBox="0 0 1024 1024">
<defs>
<g id="Layer0_0_MEMBER_0_MEMBER_0_MEMBER_0_FILL">
<path fill="#FD8002" stroke="none" d="
M 60.55 364.7
Q 50.6 363.35 45.95 366.7 31.15 377.35 33.25 392.45 34.6 402.05 39.6 408.9 44.8 415.95 51.3 416.3 56.9 416.6 62.85 416.2 63 416.15 69.55 415.5
L 69.55 366.7
Q 65.5 365.35 60.55 364.7 Z"/>
</g>

<g id="Layer0_0_MEMBER_0_MEMBER_1_MEMBER_0_FILL">
<path fill="#F99608" stroke="none" d="
M 63.45 365
Q 56.55 363.85 52.6 366.7
L 49.2 368.7
Q 45.5 371.35 44.2 374.85 42.15 380.35 41.95 385.05 41.65 391.95 44.9 398.85 49.4 408.35 51.25 410.85 54.4 415.1 58.65 415.05 64.95 414.95 69.55 415.4
L 69.55 366.7
Q 66.9 365.55 63.45 365 Z"/>
</g>

<g id="Layer0_0_MEMBER_0_MEMBER_2_MEMBER_0_FILL">
<path fill="#F97600" stroke="none" d="
M 78.65 364.7
L 69.55 366.7 69.55 415.5
Q 76 416.15 76.35 416.2 82.3 416.6 87.9 416.3 94.4 415.95 99.65 408.9 104.65 402.05 106 392.45 108.05 377.3 93.3 366.7 88.65 363.35 78.65 364.7 Z"/>
</g>

<g id="Layer0_0_MEMBER_0_MEMBER_3_MEMBER_0_FILL">
<path fill="#FD8002" stroke="none" d="
M 75.7 365
L 69.55 366.7 69.55 415.4 72.7 415.2
Q 76.6 415 80.55 415.05 84.8 415.1 87.95 410.85 89.8 408.35 94.3 398.85 97.6 391.95 97.3 385.05 97.05 380.35 95 374.85 93.7 371.35 90 368.7
L 86.6 366.7
Q 82.65 363.85 75.7 365 Z"/>
</g>

<g id="Layer0_0_MEMBER_0_MEMBER_4_MEMBER_0_MEMBER_0_FILL">
<path fill="#9AAD54" stroke="none" d="
M 72.15 353.6
L 71.2 350.8 70.2 351.45
Q 68.85 352.55 67 354.6 65.55 356.25 63.9 361.8 63.1 364.6 62.6 367.05
L 64 368
Q 65.85 369 67.95 369.3 69.65 359.6 70.65 356.75 71.25 355 72.25 353.6
L 72.15 353.6 Z"/>
</g>

<g id="Layer0_0_MEMBER_0_MEMBER_4_MEMBER_1_MEMBER_0_FILL">
<path fill="#81962C" stroke="none" d="
M 77.4 355.25
L 78.65 354.6 75.55 354.7 75.5 354.55
Q 73.4 357.7 73 362.55 72.7 366.15 72.6 369.1 75.1 368.45 76.1 367 75.3 361.8 75.75 358.45 76.05 356.35 77.4 355.25 Z"/>
</g>

<g id="Layer0_0_MEMBER_0_MEMBER_4_MEMBER_2_MEMBER_0_FILL">
<path fill="#9DB539" stroke="none" d="
M 73 362.55
Q 73.4 357.7 75.5 354.55
L 75.05 352.8 72.25 353.6
Q 71.25 355 70.65 356.75 69.65 359.6 67.95 369.3
L 69.95 369.45
Q 71.3 369.45 72.6 369.1 72.7 366.15 73 362.55 Z"/>
</g>

<g id="Layer0_0_MEMBER_0_MEMBER_5_MEMBER_0_FILL">
<path fill="#FF9E1F" stroke="none" d="
M 58.15 372.75
Q 56 378.15 56.55 383.95 57.3 392.15 59.5 401.6 62.15 412.9 64.55 413.9 68.15 415.35 69.55 415.4
L 69.55 365.65
Q 68.35 365.45 66.8 365.45 63.8 365.5 62.25 366.65 59.95 368.35 58.15 372.75 Z"/>
</g>

<g id="Layer0_0_MEMBER_0_MEMBER_6_MEMBER_0_FILL">
<path fill="#F99608" stroke="none" d="
M 80.9 372.75
Q 79.15 368.35 76.85 366.65 75.3 365.5 72.3 365.45
L 69.55 365.65 69.55 415.4 70.7 415.2
Q 72.3 414.8 74.5 413.9 76.9 412.9 79.6 401.6 81.8 392.2 82.55 383.95 83.1 378.15 80.9 372.75 Z"/>
</g>

<g id="Layer0_0_MEMBER_1_FILL">
<path fill="#FFD983" fill-opacity="0.4980392156862745" stroke="none" d="
M 5.8 10.1
Q 5.9 7.1 6.5 5.55 6.9 4.5 8.9 2 10 0.55 8.9 0.1 7.4 -0.45 4.8 1.4 2.2 3.3 1.3 5.55 0.05 8.85 0 10.1 -0.05 12.4 2.7 12.4 5.35 12.4 5.8 10.1 Z"/>
</g>
</defs>

<g transform="matrix( 10, 0, 0, 10, -184.2,-3324.15) ">
<use xlink:href="#Layer0_0_MEMBER_0_MEMBER_0_MEMBER_0_FILL"/>
</g>

<g transform="matrix( 10, 0, 0, 10, -184.2,-3324.15) ">
<use xlink:href="#Layer0_0_MEMBER_0_MEMBER_1_MEMBER_0_FILL"/>
</g>

<g transform="matrix( 10, 0, 0, 10, -184.2,-3324.15) ">
<use xlink:href="#Layer0_0_MEMBER_0_MEMBER_2_MEMBER_0_FILL"/>
</g>

<g transform="matrix( 10, 0, 0, 10, -184.2,-3324.15) ">
<use xlink:href="#Layer0_0_MEMBER_0_MEMBER_3_MEMBER_0_FILL"/>
</g>

<g transform="matrix( 10, 0, 0, 10, -184.2,-3324.15) ">
<use xlink:href="#Layer0_0_MEMBER_0_MEMBER_4_MEMBER_0_MEMBER_0_FILL"/>
</g>

<g transform="matrix( 10, 0, 0, 10, -184.2,-3324.15) ">
<use xlink:href="#Layer0_0_MEMBER_0_MEMBER_4_MEMBER_1_MEMBER_0_FILL"/>
</g>

<g transform="matrix( 10, 0, 0, 10, -184.2,-3324.15) ">
<use xlink:href="#Layer0_0_MEMBER_0_MEMBER_4_MEMBER_2_MEMBER_0_FILL"/>
</g>

<g transform="matrix( 10, 0, 0, 10, -184.2,-3324.15) ">
<use xlink:href="#Layer0_0_MEMBER_0_MEMBER_5_MEMBER_0_FILL"/>
</g>

<g transform="matrix( 10, 0, 0, 10, -184.2,-3324.15) ">
<use xlink:href="#Layer0_0_MEMBER_0_MEMBER_6_MEMBER_0_FILL"/>
</g>

<g transform="matrix( 10, 0, 0, 10, 266.3,363.35) ">
<use xlink:href="#Layer0_0_MEMBER_1_FILL"/>
</g>
</svg>
