<?xml version="1.0" encoding="utf-8"?>
<!-- Generator: Adobe Illustrator 23.0.2, SVG Export Plug-In . SVG Version: 6.00 Build 0)  -->
<svg version="1.1" id="图层_1" xmlns="http://www.w3.org/2000/svg" xmlns:xlink="http://www.w3.org/1999/xlink" x="0px" y="0px"
	 viewBox="0 0 800 800" style="enable-background:new 0 0 800 800;" xml:space="preserve">
<style type="text/css">
	.st0{fill:#CECECE;}
	.st1{fill:#A8A8A8;}
	.st2{fill:#943E7B;}
	.st3{fill:#1C1D1D;stroke:#14203E;stroke-width:3.1655;stroke-miterlimit:10;}
	.st4{fill:#F4DBD1;stroke:#000000;stroke-miterlimit:10;}
	.st5{fill:#B1DDDD;}
	.st6{fill:#9699C7;}
	.st7{fill:#412D35;}
	.st8{opacity:0.43;}
	.st9{fill:#FFFFFF;}
	.st10{fill:#040000;}
	.st11{fill:#6D2932;}
	.st12{fill:#431234;}
	.st13{fill:#C99C5D;}
	.st14{fill:#149793;}
	.st15{fill:none;stroke:#3A0C05;stroke-width:10;stroke-miterlimit:10;}
	.st16{fill:none;stroke:#C99C5D;stroke-width:5.5408;stroke-miterlimit:10;}
	.st17{fill:none;stroke:#3A0C05;stroke-width:10.8417;stroke-miterlimit:10;}
	.st18{fill:none;stroke:#C99C5D;stroke-width:6.0712;stroke-miterlimit:10;}
	.st19{fill:#300A03;}
	.st20{fill:#0A0203;}
	.st21{fill:#BF2220;}
	.st22{fill:#EC662F;}
	.st23{fill:#323333;}
	.st24{fill:#FFFFFF;stroke:#323333;stroke-width:2.4376;stroke-miterlimit:10;}
	.st25{fill:#F6C9B3;stroke:#323333;stroke-width:2.4376;stroke-miterlimit:10;}
	.st26{fill:#F6C9B3;stroke:#323333;stroke-width:2.541;stroke-miterlimit:10;}
	.st27{fill:none;stroke:#323333;stroke-width:4.1908;stroke-linecap:round;stroke-miterlimit:10;}
	.st28{fill:none;stroke:#323333;stroke-width:3;stroke-linecap:round;stroke-miterlimit:10;}
	.st29{fill:#F6C9B3;stroke:#323333;stroke-width:1.3747;stroke-miterlimit:10;}
	.st30{fill:#5F7E99;}
	.st31{fill:none;stroke:#323333;stroke-width:2.6814;stroke-linecap:round;stroke-miterlimit:10;}
	.st32{fill:#F6C9B3;stroke:#323333;stroke-width:2.2432;stroke-miterlimit:10;}
	.st33{fill:#9598C6;stroke:#323333;stroke-width:2.4376;stroke-miterlimit:10;}
	.st34{fill:#A4427C;stroke:#313333;stroke-width:2.3955;stroke-miterlimit:10;}
	.st35{fill:#FFFFFF;stroke:#323333;stroke-width:4.1907;stroke-miterlimit:10;}
	.st36{fill:none;stroke:#323333;stroke-width:4.1907;stroke-miterlimit:10;}
	.st37{fill:none;stroke:#323333;stroke-width:2.6322;stroke-linecap:round;stroke-miterlimit:10;}
	.st38{fill:#FFFFFF;stroke:#323333;stroke-width:1.8282;stroke-linecap:round;stroke-miterlimit:10;}
	.st39{fill:#FFFFFF;stroke:#323333;stroke-width:2.2669;stroke-linecap:round;stroke-miterlimit:10;}
	.st40{fill:#FFFFFF;stroke:#323333;stroke-width:1.6729;stroke-linecap:round;stroke-miterlimit:10;}
	.st41{fill:#FFFFFF;stroke:#323333;stroke-width:1.3755;stroke-linecap:round;stroke-miterlimit:10;}
	.st42{fill:#172D57;stroke:#323333;stroke-width:2.4376;stroke-linecap:round;stroke-miterlimit:10;}
	.st43{fill:none;stroke:#323333;stroke-width:2.3107;stroke-linecap:round;stroke-miterlimit:10;}
	.st44{fill:#040000;stroke:#323333;stroke-width:2.8975;stroke-miterlimit:10;}
	.st45{fill:none;stroke:#323333;stroke-width:1.6358;stroke-linecap:round;stroke-miterlimit:10;}
	.st46{fill:#ADADAD;stroke:#323333;stroke-width:2.8975;stroke-miterlimit:10;}
	.st47{fill:#495E6B;}
	.st48{fill:#FDF0D8;stroke:#2F3030;stroke-width:2.6751;stroke-miterlimit:10;}
	.st49{fill:#474747;stroke:#2F3030;stroke-width:1.3446;stroke-miterlimit:10;}
	.st50{fill:#FFFFFF;stroke:#2F3030;stroke-width:2.6751;stroke-miterlimit:10;}
	.st51{fill:#4A6EA8;stroke:#2F3030;stroke-width:2.1585;stroke-miterlimit:10;}
	.st52{fill:#4A6EA8;stroke:#2F3030;stroke-width:2.6751;stroke-miterlimit:10;}
	.st53{fill:#2F3030;stroke:#2F3030;stroke-width:2.6751;stroke-miterlimit:10;}
	.st54{fill:#FFFFFF;stroke:#2F3030;stroke-width:2.1109;stroke-miterlimit:10;}
	.st55{fill:#FFFFFF;stroke:#2F3030;stroke-width:1.3376;stroke-miterlimit:10;}
	.st56{fill:#1F2E39;stroke:#2F3030;stroke-miterlimit:10;}
	.st57{fill:#E8BED8;stroke:#2F3030;stroke-width:2.9553;stroke-miterlimit:10;}
	.st58{fill:#D774AA;stroke:#2F3030;stroke-width:2.9553;stroke-miterlimit:10;}
	.st59{fill:#E0A0C6;stroke:#2F3030;stroke-width:2.9553;stroke-miterlimit:10;}
	.st60{fill:#FDF0D8;stroke:#2F3030;stroke-width:2.9553;stroke-miterlimit:10;}
	.st61{fill:#1F2E39;stroke:#2F3030;stroke-width:2.9553;stroke-miterlimit:10;}
	.st62{fill:none;stroke:#2F3030;stroke-width:2.9553;stroke-miterlimit:10;}
	.st63{fill:none;stroke:#2F3030;stroke-width:2.9553;stroke-linecap:round;stroke-miterlimit:10;}
	.st64{fill:#2F3030;stroke:#2F3030;stroke-width:2.9553;stroke-linecap:round;stroke-miterlimit:10;}
	.st65{fill:#FFFFFF;stroke:#2F3030;stroke-width:2.9553;stroke-miterlimit:10;}
	.st66{fill:#D2599C;stroke:#2F3030;stroke-width:2.9553;stroke-miterlimit:10;}
	.st67{fill:#264B7E;stroke:#2F3030;stroke-width:4;stroke-miterlimit:10;}
	.st68{fill:#073E68;stroke:#2F3030;stroke-width:4;stroke-miterlimit:10;}
	.st69{fill:#F2C9B3;stroke:#2F3030;stroke-width:4;stroke-miterlimit:10;}
	.st70{fill:#F2C9B3;}
	.st71{fill:none;stroke:#2F3030;stroke-width:4;stroke-miterlimit:10;}
	.st72{fill:#F2C9B3;stroke:#2F3030;stroke-width:4;stroke-linecap:round;stroke-miterlimit:10;}
	.st73{fill:#050101;}
	.st74{fill:#533937;stroke:#000000;stroke-width:2.5835;stroke-miterlimit:10;}
	.st75{fill:#FFFFFF;stroke:#2F3030;stroke-width:2.5835;stroke-miterlimit:10;}
	.st76{fill:none;stroke:#040000;stroke-width:2.5835;stroke-linecap:round;stroke-miterlimit:10;}
	.st77{fill:#FFFFFF;stroke:#060404;stroke-width:2.5835;stroke-linecap:round;stroke-miterlimit:10;}
	.st78{fill:#987367;stroke:#000000;stroke-width:4;stroke-miterlimit:10;}
	.st79{fill:#FFFFFF;stroke:#000000;stroke-width:4;stroke-miterlimit:10;}
	.st80{fill:#F4DBD1;stroke:#000000;stroke-width:4;stroke-miterlimit:10;}
	.st81{fill:#F4DBD1;}
	.st82{fill:none;stroke:#000000;stroke-width:4;stroke-miterlimit:10;}
	.st83{fill:none;stroke:#000000;stroke-width:4;stroke-linecap:round;stroke-miterlimit:10;}
	.st84{fill:none;stroke:#DE322F;stroke-width:4;stroke-linecap:round;stroke-miterlimit:10;}
	.st85{fill:#D8A986;stroke:#14203E;stroke-width:3.6591;stroke-miterlimit:10;}
	.st86{fill:#9CA9CD;stroke:#14203E;stroke-width:3.6591;stroke-miterlimit:10;}
	.st87{fill:#D8A986;}
	.st88{fill:#E71F19;stroke:#14203E;stroke-width:3.6591;stroke-miterlimit:10;}
	.st89{fill:#394981;stroke:#14203E;stroke-width:3.6591;stroke-miterlimit:10;}
	.st90{fill:#14203E;}
	.st91{fill:none;stroke:#14203E;stroke-width:2.7443;stroke-linecap:round;stroke-miterlimit:10;}
	.st92{fill:none;stroke:#14203E;stroke-width:2.2123;stroke-linecap:round;stroke-miterlimit:10;}
	.st93{fill:#FFFFFF;stroke:#14203E;stroke-width:2.2123;stroke-linecap:round;stroke-miterlimit:10;}
	.st94{fill:#9CA9CD;}
	.st95{fill:#9CA9CD;stroke:#14203E;stroke-width:3.6591;stroke-linecap:round;stroke-miterlimit:10;}
	.st96{fill:none;stroke:#14203E;stroke-width:2.8957;stroke-miterlimit:10;}
	.st97{fill:#2C3376;stroke:#0B102C;stroke-width:3.2325;stroke-miterlimit:10;}
	.st98{fill:#F9D6C3;}
	.st99{fill:none;stroke:#14203E;stroke-width:3.2325;stroke-miterlimit:10;}
	.st100{fill:#F9D6C3;stroke:#14203E;stroke-width:3.2325;stroke-miterlimit:10;}
	.st101{fill:#E7211C;stroke:#14203E;stroke-width:1.8016;stroke-miterlimit:10;}
	.st102{fill:#FFFFFF;stroke:#14203E;stroke-width:3.2325;stroke-miterlimit:10;}
	.st103{fill:#FFFFFF;stroke:#14203E;stroke-width:3.2325;stroke-linecap:round;stroke-miterlimit:10;}
	.st104{fill:none;stroke:#14203E;stroke-width:3.2325;stroke-linecap:round;stroke-miterlimit:10;}
	.st105{fill:none;stroke:#14203E;stroke-width:4;stroke-linecap:round;stroke-miterlimit:10;}
	.st106{fill:#5B3719;stroke:#14203E;stroke-width:2.8784;stroke-miterlimit:10;}
	.st107{fill:#EAC3A2;stroke:#14203E;stroke-width:2.8784;stroke-miterlimit:10;}
	.st108{fill:#5B3719;}
	.st109{fill:#D65D37;stroke:#14203E;stroke-width:2.8784;stroke-miterlimit:10;}
	.st110{fill:#FFFFFF;stroke:#14203E;stroke-width:2.8784;stroke-miterlimit:10;}
	.st111{fill:none;stroke:#14203E;stroke-width:2.8784;stroke-linecap:round;stroke-miterlimit:10;}
	.st112{fill:#FFFFFF;stroke:#101722;stroke-width:4.779;stroke-miterlimit:10;}
	.st113{fill:#E71F19;stroke:#101722;stroke-width:2.7716;stroke-miterlimit:10;}
	.st114{fill:#252525;}
	.st115{fill:#F3CAAE;stroke:#101722;stroke-width:2.7716;stroke-miterlimit:10;}
	.st116{fill:#FFFFFF;stroke:#101722;stroke-width:3.3114;stroke-miterlimit:10;}
	.st117{fill:none;stroke:#101722;stroke-width:2.7716;stroke-miterlimit:10;}
	.st118{fill:none;stroke:#252525;stroke-width:0.6929;stroke-miterlimit:10;}
	.st119{fill:none;stroke:#2F3030;stroke-width:2.7716;stroke-miterlimit:10;}
</style>
<rect x="2.48" y="0" class="st30" width="800" height="800"/>
<g>
	<rect x="384.01" y="462.38" class="st23" width="32.87" height="64.22"/>
	<path class="st9" d="M386.28,452.75l8.69,15.9v57.91l-56.41,1.1C338.56,527.67,330.19,473.51,386.28,452.75z"/>
	<path class="st9" d="M417.77,454.66l-7.65,13.99v57.91l56.41,1.1C466.53,527.67,473.86,475.41,417.77,454.66z"/>
	<path class="st31" d="M463.28,526.6l-124.75,1.07v-12.82c0-34.45,27.93-62.37,62.37-62.37h0c34.45,0,62.37,26.3,62.37,62.37V526.6z
		"/>
	<path class="st32" d="M408.55,467.05h-12.76c-5.88,0-9.9-5.93-7.73-11.39l2.6-6.54h22.38l2.95,5.88
		C418.76,460.54,414.74,467.05,408.55,467.05z"/>
	<g>
		<path class="st33" d="M399.84,320.61L399.84,320.61c-12.25,0-22.18-9.93-22.18-22.18v-4.08c0-12.25,9.93-22.18,22.18-22.18h0
			c12.25,0,22.18,9.93,22.18,22.18v4.08C422.02,310.68,412.09,320.61,399.84,320.61z"/>
		<path class="st34" d="M400.58,337.25h-1.8c-13.38,0-24.22-10.84-24.22-24.22v0c0-13.38,10.84-24.22,24.22-24.22h1.8
			c13.38,0,24.22,10.84,24.22,24.22v0C424.8,326.4,413.96,337.25,400.58,337.25z"/>
		<path class="st33" d="M343.57,387.11v-34.44c0-31.08,25.2-56.28,56.28-56.28h0c31.08,0,56.28,25.2,56.28,56.28v34.44"/>
		<circle class="st25" cx="352.15" cy="393.53" r="11.11"/>
		<circle class="st25" cx="449.66" cy="393.53" r="11.11"/>
		<path class="st25" d="M438.55,350.33v3.72h-75.28v-7.11c0-1.46-1.88-2.04-2.71-0.84c-5.3,7.68-8.4,16.99-8.4,27.03v29.19
			c0,26.34,21.35,47.69,47.69,47.69h0c26.34,0,47.69-21.35,47.69-47.69v-29.19c0-8.56-2.26-16.59-6.22-23.54
			C440.57,348.27,438.55,348.81,438.55,350.33z"/>
		<path class="st35" d="M380.55,398.56h-9.1c-5.59,0-10.11-4.53-10.11-10.11v0c0-5.59,4.53-10.11,10.11-10.11h9.1
			c5.59,0,10.11,4.53,10.11,10.11v0C390.66,394.04,386.13,398.56,380.55,398.56z"/>
		<path class="st35" d="M429.36,398.56h-9.1c-5.59,0-10.11-4.53-10.11-10.11v0c0-5.59,4.53-10.11,10.11-10.11h9.1
			c5.59,0,10.11,4.53,10.11,10.11v0C439.47,394.04,434.94,398.56,429.36,398.56z"/>
		<path class="st36" d="M390.66,388.45c0,0,8.15-6.62,19.48,0"/>
		<path class="st37" d="M404.71,405.24c0,0-4.07,5.22-9.74,0"/>
		<line class="st36" x1="360.58" y1="386.16" x2="352.15" y2="380.92"/>
		<line class="st36" x1="440.04" y1="386.65" x2="448.14" y2="380.92"/>
		<line class="st27" x1="372.82" y1="388.45" x2="377.67" y2="388.45"/>
		<line class="st27" x1="422.02" y1="388.45" x2="426.87" y2="388.45"/>
		<line class="st27" x1="351.05" y1="395.59" x2="345.65" y2="391.46"/>
		<line class="st27" x1="448.81" y1="395.42" x2="452.95" y2="390.02"/>
		<path class="st38" d="M408.92,418.98L408.92,418.98c1.36-1.08,0.6-3.27-1.14-3.27h-13.53c-1.74,0-2.5,2.19-1.14,3.27v0
			C397.73,422.66,404.29,422.66,408.92,418.98z"/>
		<line class="st38" x1="379.18" y1="347.55" x2="379.18" y2="354.05"/>
		<line class="st39" x1="386.65" y1="341.75" x2="386.65" y2="354.05"/>
		<line class="st40" x1="413.04" y1="345.45" x2="413.04" y2="353.7"/>
		<line class="st41" x1="424.56" y1="347.55" x2="424.56" y2="353.7"/>
	</g>
	<line class="st25" x1="353.25" y1="513.1" x2="353.25" y2="527.67"/>
	<line class="st25" x1="449.66" y1="513.1" x2="449.66" y2="527.67"/>
</g>
</svg>
