
<svg xmlns="http://www.w3.org/2000/svg" version="1.1" xmlns:xlink="http://www.w3.org/1999/xlink" preserveAspectRatio="none" x="0px" y="0px" width="1024px" height="1024px" viewBox="0 0 1024 1024">
<defs>
<g id="Layer0_0_MEMBER_0_MEMBER_0_FILL">
<path fill="#AA7B61" stroke="none" d="
M 250 73.65
Q 249 73.65 248.15 74.1
L 184.45 110.9
Q 182.65 111.95 182.65 114.05
L 182.65 122.3
Q 182.65 124.4 184.45 125.45
L 248.15 162.25
Q 250 163.3 251.8 162.25
L 315.5 125.45
Q 317.3 124.4 317.3 122.3
L 317.3 114.05
Q 317.3 111.95 315.5 110.9
L 251.8 74.1
Q 250.95 73.65 250 73.65 Z"/>
</g>

<g id="Layer0_0_MEMBER_0_MEMBER_1_FILL">
<path fill="#8C644F" stroke="none" d="
M 251.8 75.15
Q 250 74.1 248.15 75.15
L 184.45 111.95
Q 182.65 113 182.65 115.1
L 182.65 117.95
Q 182.65 120.05 184.45 121.1
L 248.15 157.9
Q 250 158.95 251.8 157.9
L 315.5 121.1
Q 317.3 120.05 317.3 117.95
L 317.3 115.1
Q 317.3 113 315.5 111.95
L 251.8 75.15 Z"/>
</g>

<g id="Layer0_0_MEMBER_0_MEMBER_2_FILL">
<path fill="#6C9C38" stroke="none" d="
M 250 73.65
Q 249 73.65 248.15 74.1
L 184.45 110.9
Q 182.65 111.95 182.65 114.05
L 182.65 116.95
Q 182.65 119 184.45 120.05
L 248.15 156.85
Q 250 157.9 251.8 156.85
L 315.5 120.05
Q 317.3 119 317.3 116.95
L 317.3 114.05
Q 317.3 111.95 315.5 110.9
L 251.8 74.1
Q 250.95 73.65 250 73.65 Z"/>
</g>

<g id="Layer0_0_MEMBER_0_MEMBER_3_FILL">
<path fill="#5A852F" stroke="none" d="
M 250 73.65
Q 249 73.65 248.15 74.1
L 184.45 110.9
Q 182.65 111.95 182.65 114.05
L 182.65 114.75
Q 182.65 116.85 184.45 117.9
L 248.15 154.7
Q 250 155.75 251.8 154.7
L 315.5 117.9
Q 317.3 116.85 317.3 114.75
L 317.3 114.05
Q 317.3 111.95 315.5 110.9
L 251.8 74.1
Q 250.95 73.65 250 73.65 Z"/>
</g>

<g id="Layer0_0_MEMBER_0_MEMBER_4_FILL">
<path fill="#000000" fill-opacity="0.2" stroke="none" d="
M 0 13.65
L 1.05 14.3
Q 2.9 15.35 4.7 14.3
L 5.75 13.65 5.75 0 0 0 0 13.65 Z"/>
</g>

<g id="Layer0_0_MEMBER_0_MEMBER_5_FILL">
<path fill="#80B844" stroke="none" d="
M 250 73.65
Q 249 73.65 248.15 74.1
L 184.45 110.9
Q 182.6 111.95 182.6 114.05 182.6 116.15 184.45 117.2
L 248.15 154
Q 250 154.95 251.8 154
L 315.5 117.2
Q 317.35 116.15 317.35 114.05 317.35 111.95 315.5 110.9
L 251.8 74.1
Q 250.95 73.65 250 73.65 Z"/>
</g>

<g id="Layer0_0_MEMBER_0_MEMBER_6_FILL">
<path fill="#DADFD4" stroke="none" d="
M 206.3 129.8
L 218.45 136.8 248.8 119.25
Q 246.15 117.3 242.5 114.85 240.9 113.85 237.7 111.65
L 206.3 129.8 Z"/>
</g>

<g id="Layer0_0_MEMBER_1_MEMBER_0_FILL">
<path fill="#46C3BC" stroke="none" d="
M 227.45 66.55
L 204.9 95.2 204.9 114.15 249.95 140.15 249.95 121.2 227.45 66.55 Z"/>
</g>

<g id="Layer0_0_MEMBER_1_MEMBER_1_FILL">
<path fill="#009D94" stroke="none" d="
M 249.95 121.2
L 249.95 140.15 295.05 114.15 295.05 95.2 249.95 121.2 Z"/>
</g>

<g id="Layer0_0_MEMBER_1_MEMBER_2_MEMBER_0_FILL">
<path fill="#E6CAA4" stroke="none" d="
M 221.35 83.1
Q 220.3 84.15 220.3 86.3 220.3 88.65 221.55 91.05 222.85 93.45 224.6 94.5
L 225.95 95.25
Q 227.15 95.95 228.15 95.7 228.65 95.7 229.4 95.2 231.05 94.4 231.05 91.65 231.05 89.3 229.8 86.9 228.5 84.45 226.75 83.45
L 225.4 82.65
Q 224.1 81.95 223 82.25 222 82.35 221.35 83.1 Z"/>
</g>

<g id="Layer0_0_MEMBER_1_MEMBER_2_MEMBER_1_FILL">
<path fill="#FFECC9" stroke="none" d="
M 220.3 86.3
Q 220.3 88.65 221.55 91.05 222.85 93.45 224.6 94.5
L 225.95 95.25
Q 227.7 96.3 229 95.35 230.25 94.35 230.25 92 230.25 89.65 229 87.25 227.7 84.8 225.95 83.8
L 224.6 83.05
Q 222.85 82 221.55 82.95 220.3 83.9 220.3 86.3 Z"/>
</g>

<g id="Layer0_0_MEMBER_1_MEMBER_2_MEMBER_2_FILL">
<path fill="#51B0B6" stroke="none" d="
M 221.25 86.85
Q 221.25 88.75 222.25 90.7 223.3 92.65 224.75 93.45
L 225.8 94.05
Q 227.25 94.9 228.25 94.1 229.25 93.35 229.25 91.45 229.25 89.55 228.25 87.6 227.25 85.7 225.8 84.85
L 224.75 84.25
Q 223.3 83.4 222.25 84.15 221.25 84.95 221.25 86.85 Z"/>
</g>

<g id="Layer0_0_MEMBER_1_MEMBER_2_MEMBER_3_FILL">
<path fill="#FFECC9" stroke="none" d="
M 225.8 95.15
L 225.8 83.7 224.75 83.1 224.75 94.6 225.8 95.15 Z"/>
</g>

<g id="Layer0_0_MEMBER_1_MEMBER_2_MEMBER_4_FILL">
<path fill="#FFECC9" stroke="none" d="
M 220.3 86.9
L 230.25 92.6 230.25 91.4 220.3 85.7 220.3 86.9 Z"/>
</g>

<g id="Layer0_0_MEMBER_1_MEMBER_3_FILL">
<path fill="#FFECC9" stroke="none" d="
M 231.2 129.3
L 231.2 104.65 219.15 97.7 219.15 122.35 231.2 129.3 Z"/>
</g>

<g id="Layer0_0_MEMBER_1_MEMBER_4_FILL">
<path fill="#E6CAA4" stroke="none" d="
M 230.05 116.75
L 230.05 105.5 220.3 99.85 220.3 111.15 230.05 116.75 Z"/>
</g>

<g id="Layer0_0_MEMBER_1_MEMBER_5_FILL">
<path fill="#51B0B6" stroke="none" d="
M 229.1 115.1
L 229.1 106.05 221.25 101.5 221.25 110.6 229.1 115.1 Z"/>
</g>

<g id="Layer0_0_MEMBER_1_MEMBER_6_FILL">
<path fill="#E6CAA4" stroke="none" d="
M 225.65 114.25
L 225.65 102.95 224.65 102.4 224.65 113.65 225.65 114.25 Z"/>
</g>

<g id="Layer0_0_MEMBER_1_MEMBER_7_FILL">
<path fill="#E6CAA4" stroke="none" d="
M 220.3 106.1
L 230.05 111.7 230.05 110.55 220.3 104.9 220.3 106.1 Z"/>
</g>

<g id="Layer0_0_MEMBER_1_MEMBER_8_FILL">
<path fill="#E6CAA4" stroke="none" d="
M 272.75 38.8
Q 271.9 38.7 271.35 39.25
L 227.2 64.95
Q 226.7 65 226.15 65.55
L 203.65 94.15
Q 203.25 94.7 203.3 95.4 203.4 96.05 203.9 96.45 204.45 96.85 205.1 96.8 205.8 96.7 206.2 96.2
L 227 69.75 248.45 121.8
Q 248.9 122.8 250 122.8 250.4 122.8 250.6 122.7
L 295.65 96.55
Q 296.3 96.3 296.55 95.65 296.8 95.05 296.55 94.4
L 274 39.8
Q 273.7 38.95 272.75 38.8 Z"/>
</g>

<g id="Layer0_0_MEMBER_1_MEMBER_9_MEMBER_0_FILL">
<path fill="#FFECC9" stroke="none" d="
M 228.95 65.95
Q 228.65 65.1 227.65 64.95 226.75 64.8 226.15 65.55
L 203.65 94.15
Q 203.25 94.7 203.3 95.4 203.4 96.05 203.9 96.45 204.45 96.85 205.1 96.8 205.8 96.7 206.2 96.2
L 227 69.75 248.45 121.8
Q 248.9 122.8 250 122.8 250.4 122.8 250.6 122.7 251.25 122.45 251.5 121.8 251.75 121.2 251.5 120.55
L 228.95 65.95 Z"/>
</g>

<g id="Layer0_0_MEMBER_1_MEMBER_10_MEMBER_0_MEMBER_0_FILL">
<path fill="#FFF8EC" stroke="none" d="
M 261.2 90.45
L 252.85 85.6 252.85 86.5 252.8 86.9 259.8 103.95 261.2 104.75 261.2 90.45 Z"/>
</g>

<g id="Layer0_0_MEMBER_1_MEMBER_10_MEMBER_1_FILL">
<path fill="#FFECC9" stroke="none" d="
M 281.25 93.35
L 281.25 79 271.25 78.7 261.2 90.6 261.2 104.9 281.25 93.35 Z"/>
</g>

<g id="Layer0_0_MEMBER_1_MEMBER_10_MEMBER_2_FILL">
<path fill="#009D94" stroke="none" d="
M 273.8 73.55
L 263.45 73.2
Q 263.25 73.2 263 73.45
L 252.65 85.75
Q 252.15 86.3 252.45 86.6 252.55 86.75 252.65 86.75
L 260.25 91.25 260.45 91.4 270.9 78.7 282 78.4 274.1 73.7 273.8 73.55 Z"/>
</g>

<g id="Layer0_0_MEMBER_1_MEMBER_10_MEMBER_3_FILL">
<path fill="#46C3BC" stroke="none" d="
M 252.45 86.6
Q 252.55 86.75 252.65 86.75
L 260.25 91.25 260.45 91.4 270.9 78.7 271.5 78.7 263 73.5 252.65 85.75
Q 252.15 86.3 252.45 86.6 Z"/>
</g>

<g id="Layer0_0_MEMBER_1_MEMBER_10_MEMBER_4_MEMBER_0_FILL">
<path fill="#E6CAA4" stroke="none" d="
M 267.5 87.95
L 267.5 96.45 268.15 96.95 268.15 88.45 267.5 87.95 Z"/>
</g>

<g id="Layer0_0_MEMBER_1_MEMBER_10_MEMBER_4_MEMBER_1_FILL">
<path fill="#E7CEAE" stroke="none" d="
M 268.15 88.45
L 275.5 84.2 274.85 83.7 267.5 87.95 268.15 88.45 Z"/>
</g>

<g id="Layer0_0_MEMBER_1_MEMBER_10_MEMBER_4_MEMBER_2_FILL">
<path fill="#BFA787" stroke="none" d="
M 268.15 88.45
L 268.15 96.95 275.5 92.7 275.5 84.2 268.15 88.45 Z"/>
</g>

<g id="Layer0_0_MEMBER_1_MEMBER_10_MEMBER_4_MEMBER_3_FILL">
<path fill="#51B0B6" stroke="none" d="
M 268.85 88.85
L 268.85 95.7 274.8 92.25 274.8 85.45 268.85 88.85 Z"/>
</g>

<g id="Layer0_0_MEMBER_1_MEMBER_10_MEMBER_4_MEMBER_4_FILL">
<path fill="#BFA787" stroke="none" d="
M 271.45 86.55
L 271.45 95.05 272.2 94.6 272.2 86.1 271.45 86.55 Z"/>
</g>

<g id="Layer0_0_MEMBER_1_MEMBER_10_MEMBER_4_MEMBER_5_FILL">
<path fill="#BFA787" stroke="none" d="
M 268.15 93.15
L 275.5 88.9 275.5 88 268.15 92.25 268.15 93.15 Z"/>
</g>

<g id="Layer0_0_MEMBER_1_MEMBER_10_MEMBER_5_MEMBER_0_FILL">
<path fill="#00706A" stroke="none" d="
M 260.65 90.55
Q 260.25 90.95 260.45 91.4 260.65 91.7 261.1 91.25
L 271.25 79.2 281.4 79.55 281.6 79.45
Q 281.9 79.35 282 78.95 282.3 78.3 281.85 78.3
L 271.45 77.95
Q 271.25 77.95 271 78.25
L 260.65 90.55 Z"/>
</g>
</defs>

<g transform="matrix( 7, 0, 0, 7, -1237.8,-193.45) ">
<use xlink:href="#Layer0_0_MEMBER_0_MEMBER_0_FILL"/>
</g>

<g transform="matrix( 7, 0, 0, 7, -1237.8,-193.45) ">
<use xlink:href="#Layer0_0_MEMBER_0_MEMBER_1_FILL"/>
</g>

<g transform="matrix( 7, 0, 0, 7, -1237.8,-193.45) ">
<use xlink:href="#Layer0_0_MEMBER_0_MEMBER_2_FILL"/>
</g>

<g transform="matrix( 7, 0, 0, 7, -1237.8,-193.45) ">
<use xlink:href="#Layer0_0_MEMBER_0_MEMBER_3_FILL"/>
</g>

<g transform="matrix( 7, 0, 0, 7, 491.9,842.2) ">
<use xlink:href="#Layer0_0_MEMBER_0_MEMBER_4_FILL"/>
</g>

<g transform="matrix( 7, 0, 0, 7, -1237.8,-193.45) ">
<use xlink:href="#Layer0_0_MEMBER_0_MEMBER_5_FILL"/>
</g>

<g transform="matrix( 7, 0, 0, 7, -1237.8,-193.45) ">
<use xlink:href="#Layer0_0_MEMBER_0_MEMBER_6_FILL"/>
</g>

<g transform="matrix( 7, 0, 0, 7, -1237.8,-193.45) ">
<use xlink:href="#Layer0_0_MEMBER_1_MEMBER_0_FILL"/>
</g>

<g transform="matrix( 7, 0, 0, 7, -1237.8,-193.45) ">
<use xlink:href="#Layer0_0_MEMBER_1_MEMBER_1_FILL"/>
</g>

<g transform="matrix( 7, 0, 0, 7, -1237.8,-193.45) ">
<use xlink:href="#Layer0_0_MEMBER_1_MEMBER_2_MEMBER_0_FILL"/>
</g>

<g transform="matrix( 7, 0, 0, 7, -1237.8,-193.45) ">
<use xlink:href="#Layer0_0_MEMBER_1_MEMBER_2_MEMBER_1_FILL"/>
</g>

<g transform="matrix( 7, 0, 0, 7, -1237.8,-193.45) ">
<use xlink:href="#Layer0_0_MEMBER_1_MEMBER_2_MEMBER_2_FILL"/>
</g>

<g transform="matrix( 7, 0, 0, 7, -1237.8,-193.45) ">
<use xlink:href="#Layer0_0_MEMBER_1_MEMBER_2_MEMBER_3_FILL"/>
</g>

<g transform="matrix( 7, 0, 0, 7, -1237.8,-193.45) ">
<use xlink:href="#Layer0_0_MEMBER_1_MEMBER_2_MEMBER_4_FILL"/>
</g>

<g transform="matrix( 7, 0, 0, 7, -1237.8,-193.45) ">
<use xlink:href="#Layer0_0_MEMBER_1_MEMBER_3_FILL"/>
</g>

<g transform="matrix( 7, 0, 0, 7, -1237.8,-193.45) ">
<use xlink:href="#Layer0_0_MEMBER_1_MEMBER_4_FILL"/>
</g>

<g transform="matrix( 7, 0, 0, 7, -1237.8,-193.45) ">
<use xlink:href="#Layer0_0_MEMBER_1_MEMBER_5_FILL"/>
</g>

<g transform="matrix( 7, 0, 0, 7, -1237.8,-193.45) ">
<use xlink:href="#Layer0_0_MEMBER_1_MEMBER_6_FILL"/>
</g>

<g transform="matrix( 7, 0, 0, 7, -1237.8,-193.45) ">
<use xlink:href="#Layer0_0_MEMBER_1_MEMBER_7_FILL"/>
</g>

<g transform="matrix( 7, 0, 0, 7, -1237.8,-193.45) ">
<use xlink:href="#Layer0_0_MEMBER_1_MEMBER_8_FILL"/>
</g>

<g transform="matrix( 7, 0, 0, 7, -1237.8,-193.45) ">
<use xlink:href="#Layer0_0_MEMBER_1_MEMBER_9_MEMBER_0_FILL"/>
</g>

<g transform="matrix( 7, 0, 0, 7, -1237.8,-193.45) ">
<use xlink:href="#Layer0_0_MEMBER_1_MEMBER_10_MEMBER_0_MEMBER_0_FILL"/>
</g>

<g transform="matrix( 7, 0, 0, 7, -1237.8,-193.45) ">
<use xlink:href="#Layer0_0_MEMBER_1_MEMBER_10_MEMBER_1_FILL"/>
</g>

<g transform="matrix( 7, 0, 0, 7, -1237.8,-193.45) ">
<use xlink:href="#Layer0_0_MEMBER_1_MEMBER_10_MEMBER_2_FILL"/>
</g>

<g transform="matrix( 7, 0, 0, 7, -1237.8,-193.45) ">
<use xlink:href="#Layer0_0_MEMBER_1_MEMBER_10_MEMBER_3_FILL"/>
</g>

<g transform="matrix( 7, 0, 0, 7, -1237.8,-193.45) ">
<use xlink:href="#Layer0_0_MEMBER_1_MEMBER_10_MEMBER_4_MEMBER_0_FILL"/>
</g>

<g transform="matrix( 7, 0, 0, 7, -1237.8,-193.45) ">
<use xlink:href="#Layer0_0_MEMBER_1_MEMBER_10_MEMBER_4_MEMBER_1_FILL"/>
</g>

<g transform="matrix( 7, 0, 0, 7, -1237.8,-193.45) ">
<use xlink:href="#Layer0_0_MEMBER_1_MEMBER_10_MEMBER_4_MEMBER_2_FILL"/>
</g>

<g transform="matrix( 7, 0, 0, 7, -1237.8,-193.45) ">
<use xlink:href="#Layer0_0_MEMBER_1_MEMBER_10_MEMBER_4_MEMBER_3_FILL"/>
</g>

<g transform="matrix( 7, 0, 0, 7, -1237.8,-193.45) ">
<use xlink:href="#Layer0_0_MEMBER_1_MEMBER_10_MEMBER_4_MEMBER_4_FILL"/>
</g>

<g transform="matrix( 7, 0, 0, 7, -1237.8,-193.45) ">
<use xlink:href="#Layer0_0_MEMBER_1_MEMBER_10_MEMBER_4_MEMBER_5_FILL"/>
</g>

<g transform="matrix( 7, 0, 0, 7, -1237.8,-193.45) ">
<use xlink:href="#Layer0_0_MEMBER_1_MEMBER_10_MEMBER_5_MEMBER_0_FILL"/>
</g>
</svg>
