<?xml version="1.0" encoding="utf-8"?>
<!-- Generator: Adobe Illustrator 23.0.2, SVG Export Plug-In . SVG Version: 6.00 Build 0)  -->
<svg version="1.1" id="图层_1" xmlns="http://www.w3.org/2000/svg" xmlns:xlink="http://www.w3.org/1999/xlink" x="0px" y="0px"
	 viewBox="0 0 800 800" style="enable-background:new 0 0 800 800;" xml:space="preserve">
<style type="text/css">
	.st0{fill:#CECECE;}
	.st1{fill:#A8A8A8;}
	.st2{fill:#943E7B;}
	.st3{fill:#1C1D1D;stroke:#14203E;stroke-width:3.1655;stroke-miterlimit:10;}
	.st4{fill:#F4DBD1;stroke:#000000;stroke-miterlimit:10;}
	.st5{fill:#B1DDDD;}
	.st6{fill:#9699C7;}
	.st7{fill:#412D35;}
	.st8{opacity:0.43;}
	.st9{fill:#FFFFFF;}
	.st10{fill:#040000;}
	.st11{fill:#6D2932;}
	.st12{fill:#431234;}
	.st13{fill:#C99C5D;}
	.st14{fill:#149793;}
	.st15{fill:none;stroke:#3A0C05;stroke-width:10;stroke-miterlimit:10;}
	.st16{fill:none;stroke:#C99C5D;stroke-width:5.5408;stroke-miterlimit:10;}
	.st17{fill:none;stroke:#3A0C05;stroke-width:10.8417;stroke-miterlimit:10;}
	.st18{fill:none;stroke:#C99C5D;stroke-width:6.0712;stroke-miterlimit:10;}
	.st19{fill:#300A03;}
	.st20{fill:#0A0203;}
	.st21{fill:#BF2220;}
	.st22{fill:#EC662F;}
	.st23{fill:#323333;}
	.st24{fill:#FFFFFF;stroke:#323333;stroke-width:2.4376;stroke-miterlimit:10;}
	.st25{fill:#F6C9B3;stroke:#323333;stroke-width:2.4376;stroke-miterlimit:10;}
	.st26{fill:#F6C9B3;stroke:#323333;stroke-width:2.541;stroke-miterlimit:10;}
	.st27{fill:none;stroke:#323333;stroke-width:4.1908;stroke-linecap:round;stroke-miterlimit:10;}
	.st28{fill:none;stroke:#323333;stroke-width:3;stroke-linecap:round;stroke-miterlimit:10;}
	.st29{fill:#F6C9B3;stroke:#323333;stroke-width:1.3747;stroke-miterlimit:10;}
	.st30{fill:#5F7E99;}
	.st31{fill:none;stroke:#323333;stroke-width:2.6814;stroke-linecap:round;stroke-miterlimit:10;}
	.st32{fill:#F6C9B3;stroke:#323333;stroke-width:2.2432;stroke-miterlimit:10;}
	.st33{fill:#9598C6;stroke:#323333;stroke-width:2.4376;stroke-miterlimit:10;}
	.st34{fill:#A4427C;stroke:#313333;stroke-width:2.3955;stroke-miterlimit:10;}
	.st35{fill:#FFFFFF;stroke:#323333;stroke-width:4.1907;stroke-miterlimit:10;}
	.st36{fill:none;stroke:#323333;stroke-width:4.1907;stroke-miterlimit:10;}
	.st37{fill:none;stroke:#323333;stroke-width:2.6322;stroke-linecap:round;stroke-miterlimit:10;}
	.st38{fill:#FFFFFF;stroke:#323333;stroke-width:1.8282;stroke-linecap:round;stroke-miterlimit:10;}
	.st39{fill:#FFFFFF;stroke:#323333;stroke-width:2.2669;stroke-linecap:round;stroke-miterlimit:10;}
	.st40{fill:#FFFFFF;stroke:#323333;stroke-width:1.6729;stroke-linecap:round;stroke-miterlimit:10;}
	.st41{fill:#FFFFFF;stroke:#323333;stroke-width:1.3755;stroke-linecap:round;stroke-miterlimit:10;}
	.st42{fill:#172D57;stroke:#323333;stroke-width:2.4376;stroke-linecap:round;stroke-miterlimit:10;}
	.st43{fill:none;stroke:#323333;stroke-width:2.3107;stroke-linecap:round;stroke-miterlimit:10;}
	.st44{fill:#040000;stroke:#323333;stroke-width:2.8975;stroke-miterlimit:10;}
	.st45{fill:none;stroke:#323333;stroke-width:1.6358;stroke-linecap:round;stroke-miterlimit:10;}
	.st46{fill:#ADADAD;stroke:#323333;stroke-width:2.8975;stroke-miterlimit:10;}
	.st47{fill:#495E6B;}
	.st48{fill:#FDF0D8;stroke:#2F3030;stroke-width:2.6751;stroke-miterlimit:10;}
	.st49{fill:#474747;stroke:#2F3030;stroke-width:1.3446;stroke-miterlimit:10;}
	.st50{fill:#FFFFFF;stroke:#2F3030;stroke-width:2.6751;stroke-miterlimit:10;}
	.st51{fill:#4A6EA8;stroke:#2F3030;stroke-width:2.1585;stroke-miterlimit:10;}
	.st52{fill:#4A6EA8;stroke:#2F3030;stroke-width:2.6751;stroke-miterlimit:10;}
	.st53{fill:#2F3030;stroke:#2F3030;stroke-width:2.6751;stroke-miterlimit:10;}
	.st54{fill:#FFFFFF;stroke:#2F3030;stroke-width:2.1109;stroke-miterlimit:10;}
	.st55{fill:#FFFFFF;stroke:#2F3030;stroke-width:1.3376;stroke-miterlimit:10;}
	.st56{fill:#1F2E39;stroke:#2F3030;stroke-miterlimit:10;}
	.st57{fill:#E8BED8;stroke:#2F3030;stroke-width:2.9553;stroke-miterlimit:10;}
	.st58{fill:#D774AA;stroke:#2F3030;stroke-width:2.9553;stroke-miterlimit:10;}
	.st59{fill:#E0A0C6;stroke:#2F3030;stroke-width:2.9553;stroke-miterlimit:10;}
	.st60{fill:#FDF0D8;stroke:#2F3030;stroke-width:2.9553;stroke-miterlimit:10;}
	.st61{fill:#1F2E39;stroke:#2F3030;stroke-width:2.9553;stroke-miterlimit:10;}
	.st62{fill:none;stroke:#2F3030;stroke-width:2.9553;stroke-miterlimit:10;}
	.st63{fill:none;stroke:#2F3030;stroke-width:2.9553;stroke-linecap:round;stroke-miterlimit:10;}
	.st64{fill:#2F3030;stroke:#2F3030;stroke-width:2.9553;stroke-linecap:round;stroke-miterlimit:10;}
	.st65{fill:#FFFFFF;stroke:#2F3030;stroke-width:2.9553;stroke-miterlimit:10;}
	.st66{fill:#D2599C;stroke:#2F3030;stroke-width:2.9553;stroke-miterlimit:10;}
	.st67{fill:#264B7E;stroke:#2F3030;stroke-width:4;stroke-miterlimit:10;}
	.st68{fill:#073E68;stroke:#2F3030;stroke-width:4;stroke-miterlimit:10;}
	.st69{fill:#F2C9B3;stroke:#2F3030;stroke-width:4;stroke-miterlimit:10;}
	.st70{fill:#F2C9B3;}
	.st71{fill:none;stroke:#2F3030;stroke-width:4;stroke-miterlimit:10;}
	.st72{fill:#F2C9B3;stroke:#2F3030;stroke-width:4;stroke-linecap:round;stroke-miterlimit:10;}
	.st73{fill:#050101;}
	.st74{fill:#533937;stroke:#000000;stroke-width:2.5835;stroke-miterlimit:10;}
	.st75{fill:#FFFFFF;stroke:#2F3030;stroke-width:2.5835;stroke-miterlimit:10;}
	.st76{fill:none;stroke:#040000;stroke-width:2.5835;stroke-linecap:round;stroke-miterlimit:10;}
	.st77{fill:#FFFFFF;stroke:#060404;stroke-width:2.5835;stroke-linecap:round;stroke-miterlimit:10;}
	.st78{fill:#987367;stroke:#000000;stroke-width:4;stroke-miterlimit:10;}
	.st79{fill:#FFFFFF;stroke:#000000;stroke-width:4;stroke-miterlimit:10;}
	.st80{fill:#F4DBD1;stroke:#000000;stroke-width:4;stroke-miterlimit:10;}
	.st81{fill:#F4DBD1;}
	.st82{fill:none;stroke:#000000;stroke-width:4;stroke-miterlimit:10;}
	.st83{fill:none;stroke:#000000;stroke-width:4;stroke-linecap:round;stroke-miterlimit:10;}
	.st84{fill:none;stroke:#DE322F;stroke-width:4;stroke-linecap:round;stroke-miterlimit:10;}
	.st85{fill:#D8A986;stroke:#14203E;stroke-width:3.6591;stroke-miterlimit:10;}
	.st86{fill:#9CA9CD;stroke:#14203E;stroke-width:3.6591;stroke-miterlimit:10;}
	.st87{fill:#D8A986;}
	.st88{fill:#E71F19;stroke:#14203E;stroke-width:3.6591;stroke-miterlimit:10;}
	.st89{fill:#394981;stroke:#14203E;stroke-width:3.6591;stroke-miterlimit:10;}
	.st90{fill:#14203E;}
	.st91{fill:none;stroke:#14203E;stroke-width:2.7443;stroke-linecap:round;stroke-miterlimit:10;}
	.st92{fill:none;stroke:#14203E;stroke-width:2.2123;stroke-linecap:round;stroke-miterlimit:10;}
	.st93{fill:#FFFFFF;stroke:#14203E;stroke-width:2.2123;stroke-linecap:round;stroke-miterlimit:10;}
	.st94{fill:#9CA9CD;}
	.st95{fill:#9CA9CD;stroke:#14203E;stroke-width:3.6591;stroke-linecap:round;stroke-miterlimit:10;}
	.st96{fill:none;stroke:#14203E;stroke-width:2.8957;stroke-miterlimit:10;}
	.st97{fill:#2C3376;stroke:#0B102C;stroke-width:3.2325;stroke-miterlimit:10;}
	.st98{fill:#F9D6C3;}
	.st99{fill:none;stroke:#14203E;stroke-width:3.2325;stroke-miterlimit:10;}
	.st100{fill:#F9D6C3;stroke:#14203E;stroke-width:3.2325;stroke-miterlimit:10;}
	.st101{fill:#E7211C;stroke:#14203E;stroke-width:1.8016;stroke-miterlimit:10;}
	.st102{fill:#FFFFFF;stroke:#14203E;stroke-width:3.2325;stroke-miterlimit:10;}
	.st103{fill:#FFFFFF;stroke:#14203E;stroke-width:3.2325;stroke-linecap:round;stroke-miterlimit:10;}
	.st104{fill:none;stroke:#14203E;stroke-width:3.2325;stroke-linecap:round;stroke-miterlimit:10;}
	.st105{fill:none;stroke:#14203E;stroke-width:4;stroke-linecap:round;stroke-miterlimit:10;}
	.st106{fill:#5B3719;stroke:#14203E;stroke-width:2.8784;stroke-miterlimit:10;}
	.st107{fill:#EAC3A2;stroke:#14203E;stroke-width:2.8784;stroke-miterlimit:10;}
	.st108{fill:#5B3719;}
	.st109{fill:#D65D37;stroke:#14203E;stroke-width:2.8784;stroke-miterlimit:10;}
	.st110{fill:#FFFFFF;stroke:#14203E;stroke-width:2.8784;stroke-miterlimit:10;}
	.st111{fill:none;stroke:#14203E;stroke-width:2.8784;stroke-linecap:round;stroke-miterlimit:10;}
	.st112{fill:#FFFFFF;stroke:#101722;stroke-width:4.779;stroke-miterlimit:10;}
	.st113{fill:#E71F19;stroke:#101722;stroke-width:2.7716;stroke-miterlimit:10;}
	.st114{fill:#252525;}
	.st115{fill:#F3CAAE;stroke:#101722;stroke-width:2.7716;stroke-miterlimit:10;}
	.st116{fill:#FFFFFF;stroke:#101722;stroke-width:3.3114;stroke-miterlimit:10;}
	.st117{fill:none;stroke:#101722;stroke-width:2.7716;stroke-miterlimit:10;}
	.st118{fill:none;stroke:#252525;stroke-width:0.6929;stroke-miterlimit:10;}
	.st119{fill:none;stroke:#2F3030;stroke-width:2.7716;stroke-miterlimit:10;}
</style>
<rect class="st11" width="800" height="800"/>
<path class="st12" d="M645.9,553.96H172.54c-2.79,0-5.05-2.26-5.05-5.05v-6.4c0-2.79,2.26-5.05,5.05-5.05H645.9
	c2.79,0,5.05,2.26,5.05,5.05v6.4C650.94,551.7,648.68,553.96,645.9,553.96z"/>
<path class="st12" d="M527.09,569.58H206.01c-2.79,0-5.05-2.26-5.05-5.05l0,0c0-2.79,2.26-5.05,5.05-5.05h321.08
	c2.79,0,5.05,2.26,5.05,5.05l0,0C532.14,567.32,529.88,569.58,527.09,569.58z"/>
<path class="st12" d="M640.1,582.47H470.61c-2.79,0-5.05-2.26-5.05-5.05l0,0c0-2.79,2.26-5.05,5.05-5.05H640.1
	c2.79,0,5.05,2.26,5.05,5.05l0,0C645.15,580.21,642.89,582.47,640.1,582.47z"/>
<g>
	<path class="st13" d="M201.12,395.64l-3.39-2.66c-0.94-0.73-0.89-2.17,0.1-2.83c8.23-5.47,40.94-21.9,83.64-4.23
		c49.11,20.31,50.27,65.36,51.12,87.01c0.13,3.23-2.17,6.06-5.36,6.6l-5.96,1.02c0,0-0.14-117.84-118.61-84.62
		C202.13,396.1,201.56,395.98,201.12,395.64z"/>
	<path class="st14" d="M270.84,278.85h15.2c10.75,0,19.47,8.72,19.47,19.47v0.88c0,10.75-8.72,19.47-19.47,19.47h-15.2V278.85z"/>
	<rect x="270.84" y="278.85" class="st13" width="11.51" height="39.82"/>
	<circle class="st15" cx="243.63" cy="467.67" r="76.14"/>
	<path class="st13" d="M484.56,468.23c0,0-10.91-81.41,65.21-99.7c79.17-19.03,120.55,33.56,128.1,74.55
		c2.35,12.76-10.02,9.96-16.06,11.01l0,0c0,0-20.52-76.24-78.23-75.71c-57.71,0.54-97.7,49.52-85.28,89.29L484.56,468.23z"/>
	<ellipse class="st16" cx="243.63" cy="467.67" rx="70.84" ry="69.79"/>
	<circle class="st17" cx="578.83" cy="459.51" r="82.55"/>
	<ellipse class="st18" cx="577.08" cy="460.52" rx="77.14" ry="76.94"/>
	<path class="st13" d="M316.58,298.95L316.58,298.95c-2.9,1.15-6.19-0.28-7.33-3.18l-6.95-17.6c-1.15-2.9,0.28-6.19,3.18-7.33l0,0
		c2.9-1.15,6.19,0.28,7.33,3.18l6.95,17.6C320.92,294.53,319.49,297.81,316.58,298.95z"/>
	<path class="st19" d="M302.76,280.74L302.76,280.74c-2.4-2-2.73-5.56-0.73-7.96l12.1-14.55c2-2.4,5.56-2.73,7.96-0.73l0,0
		c2.4,2,2.73,5.56,0.73,7.96l-12.1,14.55C308.73,282.41,305.16,282.74,302.76,280.74z"/>
	
		<rect x="548.26" y="351.28" transform="matrix(0.9074 -0.4204 0.4204 0.9074 -120.0809 271.2526)" class="st14" width="14.18" height="113.55"/>
	<g>
		<path class="st19" d="M454.76,368.25L454.76,368.25c-4.32,0-7.83-3.5-7.83-7.83V339.8c0-4.32,3.5-7.83,7.83-7.83h0
			c4.32,0,7.83,3.5,7.83,7.83v20.62C462.59,364.74,459.08,368.25,454.76,368.25z"/>
		<path class="st19" d="M470.41,368.25L470.41,368.25c-4.32,0-7.83-3.5-7.83-7.83V339.8c0-4.32,3.5-7.83,7.83-7.83h0
			c4.32,0,7.83,3.5,7.83,7.83v20.62C478.24,364.74,474.74,368.25,470.41,368.25z"/>
		<path class="st19" d="M485.77,368.25L485.77,368.25c-4.32,0-7.83-3.5-7.83-7.83V339.8c0-4.32,3.5-7.83,7.83-7.83h0
			c4.32,0,7.83,3.5,7.83,7.83v20.62C493.59,364.74,490.09,368.25,485.77,368.25z"/>
		<path class="st19" d="M499.93,368.25L499.93,368.25c-4.32,0-7.83-3.5-7.83-7.83V339.8c0-4.32,3.5-7.83,7.83-7.83l0,0
			c4.32,0,7.83,3.5,7.83,7.83v20.62C507.76,364.74,504.26,368.25,499.93,368.25z"/>
		<path class="st19" d="M514.74,368.25L514.74,368.25c-4.32,0-7.83-3.5-7.83-7.83V339.8c0-4.32,3.5-7.83,7.83-7.83l0,0
			c4.32,0,7.83,3.5,7.83,7.83v20.62C522.56,364.74,519.06,368.25,514.74,368.25z"/>
		<path class="st19" d="M530.39,368.25L530.39,368.25c-4.32,0-7.83-3.5-7.83-7.83V339.8c0-4.32,3.5-7.83,7.83-7.83l0,0
			c4.32,0,7.83,3.5,7.83,7.83v20.62C538.22,364.74,534.71,368.25,530.39,368.25z"/>
		<path class="st19" d="M545.75,368.25L545.75,368.25c-4.32,0-7.83-3.5-7.83-7.83V339.8c0-4.32,3.5-7.83,7.83-7.83l0,0
			c4.32,0,7.83,3.5,7.83,7.83v20.62C553.57,364.74,550.07,368.25,545.75,368.25z"/>
		<path class="st19" d="M559.91,368.25L559.91,368.25c-4.32,0-7.83-3.5-7.83-7.83V339.8c0-4.32,3.5-7.83,7.83-7.83h0
			c4.32,0,7.83,3.5,7.83,7.83v20.62C567.74,364.74,564.24,368.25,559.91,368.25z"/>
		<rect x="437.77" y="351.42" class="st19" width="129.47" height="16.7"/>
	</g>
	<path class="st14" d="M272.23,399.37L272.23,399.37c-3.6-1.53-5.28-5.7-3.75-9.3l38.88-91.44c1.53-3.6,5.7-5.28,9.3-3.75h0
		c3.6,1.53,5.28,5.7,3.75,9.3l-38.88,91.44C280,399.22,275.83,400.9,272.23,399.37z"/>
	<circle class="st14" cx="243.17" cy="469.79" r="25.45"/>
	
		<rect x="252.21" y="390" transform="matrix(0.9203 0.3913 -0.3913 0.9203 188.6501 -67.3609)" class="st13" width="14.8" height="78.47"/>
	<circle class="st13" cx="243.17" cy="469.57" r="11.95"/>
	<circle class="st14" cx="583.57" cy="469.79" r="25.45"/>
	<circle class="st19" cx="583.57" cy="469.57" r="11.95"/>
	<circle class="st20" cx="243.17" cy="469.57" r="5.48"/>
	<path class="st14" d="M425.97,371.25l-87.1-5.19c-20.04-1.2-33.95-19.24-28.62-37.16v0c4.3-14.46,19.76-23.44,35.73-20.74
		l85.95,14.53c13.2,2.23,22.6,13.27,21.86,25.68v0C453,361.88,440.54,372.12,425.97,371.25z"/>
	<path class="st13" d="M370.62,349.24l-44.21-5.89c-4.03-0.54-6.86-4.24-6.33-8.27l0.23-1.7c0.54-4.03,4.24-6.86,8.27-6.33
		l44.21,5.89c4.03,0.54,6.86,4.24,6.33,8.27l-0.23,1.7C378.36,346.95,374.65,349.78,370.62,349.24z"/>
	<path class="st13" d="M570.74,368.53h-1.57c-2.4,0-4.34-1.94-4.34-4.34v-46.77c0-2.4,1.94-4.34,4.34-4.34h1.57
		c2.4,0,4.34,1.94,4.34,4.34v46.77C575.08,366.59,573.14,368.53,570.74,368.53z"/>
	<path class="st21" d="M594.22,367.8h-15.55c-2.4,0-4.34-1.94-4.34-4.34v-30.11c0-2.4,1.94-4.34,4.34-4.34h15.55
		c2.4,0,4.34,1.94,4.34,4.34v30.11C598.55,365.86,596.61,367.8,594.22,367.8z"/>
	<path class="st13" d="M374.38,405.34c0,0-59.44,27.3-37.69,69.1c1.74,2.32,3.68,4.42,5.72,6.31c10.35,9.61,24.22,14.51,38.34,14.12
		l200.71-5.51c7.65-0.21,13.53-6.85,12.81-14.47l-1.16-12.24c-0.57-5.99-5.9-10.37-11.88-9.78l-205.85,20.41
		c-8.67,0.86-16.87-4.59-19.03-13.03c-2.7-10.5-2.44-32.6,23.35-42.01L374.38,405.34z"/>
	<path class="st14" d="M503.35,409.34h-59.63c-8.43,0-15.26-6.83-15.26-15.26v-10.85c0-8.43,6.83-15.26,15.26-15.26h59.63
		c8.43,0,15.26,6.83,15.26,15.26v10.85C518.62,402.51,511.78,409.34,503.35,409.34z"/>
	
		<rect x="561.52" y="406.3" transform="matrix(0.9074 -0.4204 0.4204 0.9074 -130.8811 279.476)" class="st13" width="14.18" height="60.74"/>
	<g>
		<path class="st22" d="M443.9,424.88l5.37-33.96c1.08-6.54-3.73-12.53-10.08-12.53h-62.41c-6.35,0-11.16,5.99-10.07,12.54
			l5.38,33.95H443.9z"/>
		<polygon class="st22" points="372.32,427.53 379.69,472.86 437.21,467.15 443.46,427.53 		"/>
	</g>
	<circle class="st19" cx="650.94" cy="460.01" r="9.5"/>
	<circle class="st19" cx="609.02" cy="464.96" r="9.5"/>
</g>
</svg>
