<?xml version="1.0" encoding="UTF-8"?>
<svg width="266px" height="185px" viewBox="0 0 266 185" version="1.1" xmlns="http://www.w3.org/2000/svg" xmlns:xlink="http://www.w3.org/1999/xlink">
    <!-- Generator: Sketch 60.1 (88133) - https://sketch.com -->
    <title>编组 8</title>
    <desc>Created with Sketch.</desc>
    <defs>
        <linearGradient x1="50%" y1="0%" x2="50%" y2="99.6067356%" id="linearGradient-1">
            <stop stop-color="#B6EEF5" offset="0%"></stop>
            <stop stop-color="#F7FDFE" stop-opacity="0" offset="100%"></stop>
        </linearGradient>
        <linearGradient x1="50%" y1="0%" x2="50%" y2="100%" id="linearGradient-2">
            <stop stop-color="#25BACF" offset="0%"></stop>
            <stop stop-color="#B6E0E6" offset="100%"></stop>
        </linearGradient>
        <linearGradient x1="30.4678909%" y1="0%" x2="75.082056%" y2="88.9082682%" id="linearGradient-3">
            <stop stop-color="#EEEEEE" offset="0%"></stop>
            <stop stop-color="#03B2CA" offset="100%"></stop>
        </linearGradient>
        <linearGradient x1="35.9468964%" y1="0%" x2="68.0462196%" y2="88.9082682%" id="linearGradient-4">
            <stop stop-color="#EEEEEE" offset="0%"></stop>
            <stop stop-color="#03B2CA" offset="100%"></stop>
        </linearGradient>
    </defs>
    <g id="5G合伙人1.0" stroke="none" stroke-width="1" fill="none" fill-rule="evenodd">
        <g id="课前准备-老师-没有学生备份" transform="translate(-1173.000000, -802.000000)">
            <g id="编组-8" transform="translate(1173.000000, 805.000000)">
                <g id="编组-7备份-3">
                    <g id="编组-5">
                        <ellipse id="椭圆形" fill="url(#linearGradient-1)" cx="132.606602" cy="158.5" rx="132.5" ry="23.5"></ellipse>
                        <g id="编组-6备份" transform="translate(15.000000, 124.000000)">
                            <rect id="矩形" fill="#B2DFE5" x="16" y="27" width="4" height="10" rx="2"></rect>
                            <path d="M20.6320179,4.02065062 L27.0533009,14.2438114 C29.7846971,18.5923976 28.4737055,24.3318573 24.1251194,27.0632535 C22.6434315,27.9939184 20.9292136,28.4876228 19.1794891,28.4876228 L16.877453,28.4876228 C11.7573225,28.4876228 7.60663662,24.3369369 7.60663662,19.2168064 C7.60663662,17.45537 8.10844184,15.7303845 9.05330086,14.2438114 L15.5597166,4.00708553 C16.4484763,2.60877505 18.302513,2.19570252 19.7008235,3.08446222 C20.0768986,3.32349384 20.3950012,3.64330237 20.6320179,4.02065062 Z" id="三角形" fill="url(#linearGradient-2)"></path>
                        </g>
                        <circle id="椭圆形备份" fill="url(#linearGradient-3)" cx="40.5" cy="7.5" r="7.5"></circle>
                        <circle id="椭圆形备份-3" fill="url(#linearGradient-3)" cx="243.363961" cy="99.5" r="3"></circle>
                        <circle id="椭圆形备份-2" fill="url(#linearGradient-3)" cx="11" cy="103" r="4"></circle>
                        <g id="编组-6" transform="translate(212.000000, 107.000000)">
                            <rect id="矩形" fill="#B2DFE5" x="16" y="27" width="4" height="10" rx="2"></rect>
                            <path d="M20.6320179,4.02065062 L27.0533009,14.2438114 C29.7846971,18.5923976 28.4737055,24.3318573 24.1251194,27.0632535 C22.6434315,27.9939184 20.9292136,28.4876228 19.1794891,28.4876228 L16.877453,28.4876228 C11.7573225,28.4876228 7.60663662,24.3369369 7.60663662,19.2168064 C7.60663662,17.45537 8.10844184,15.7303845 9.05330086,14.2438114 L15.5597166,4.00708553 C16.4484763,2.60877505 18.302513,2.19570252 19.7008235,3.08446222 C20.0768986,3.32349384 20.3950012,3.64330237 20.6320179,4.02065062 Z" id="三角形" fill="url(#linearGradient-2)"></path>
                        </g>
                    </g>
                </g>
                <g id="编组备份" transform="translate(67.000000, 1.000000)" fill="url(#linearGradient-4)" fill-rule="nonzero" stroke="#03B2CA" stroke-width="7">
                    <path d="M131.972656,40.2929688 C131.972656,41.0742188 140.9375,127.207031 68.828125,155.664062 L68.046875,156.054688 L64.140625,156.054688 L63.359375,155.664062 C-8.73046875,127.226562 0.234375,41.0742188 0.625,40.2929688 L1.015625,36.7773438 L4.53125,36.7773438 C6.09375,36.7773438 18.1640625,35.6054688 19.7265625,20.4101562 L20.1171875,17.6757812 L22.4609375,16.5039062 C55.9765625,3.6328125 62.5976562,1.30859375 64.1601562,0.52734375 L64.9414062,0.13671875 L66.1132812,0.13671875 C67.2851562,0.13671875 67.2851562,0.13671875 110.15625,16.1132812 L112.5,17.2851562 L112.890625,20.0195312 C114.84375,35.9960938 127.695312,36.7773438 128.085937,36.7773438 L131.601562,36.7773438 L131.972656,40.2929688 L131.972656,40.2929688 Z" id="形状"></path>
                </g>
                <g id="编组" transform="translate(114.000000, 47.000000)" fill="#FFFFFF" fill-rule="nonzero" opacity="0.600000024">
                    <path d="M14.7931034,33 L24.2068966,33 L24.2068966,66 L14.7931034,66 L14.7931034,33 Z M20.8604315,43.1201493 L28.5695432,43.1201493 L28.5695432,51.9200844 L20.8604315,51.9200844 L20.8604315,43.1201493 Z M20.8604315,54.5600649 L30.8369291,54.5600649 L30.8369291,63.36 L20.8604315,63.36 L20.8604315,54.5600649 Z M19.5,37.8401884 C14.3172902,37.8756443 9.33625149,35.8936952 5.67143117,32.3378182 C2.00661085,28.7819411 -0.0360602249,23.9489726 0.000481983518,18.920328 C-0.0360602428,13.8916835 2.00661082,9.05871492 5.67143115,5.50283786 C9.33625147,1.9469608 14.3172902,-0.0349882715 19.5,0.000467655252 C24.6827098,-0.0349882715 29.6637485,1.9469608 33.3285689,5.50283786 C36.9933892,9.05871492 39.0360602,13.8916835 38.999518,18.920328 C39.0360602,23.9489726 36.9933891,28.7819411 33.3285688,32.3378182 C29.6637485,35.8936952 24.6827098,37.8756443 19.5,37.8401884 L19.5,37.8401884 Z M19.5,8.80040272 C16.7188677,8.75220436 14.0370027,9.80292309 12.0701315,11.7113256 C10.1032603,13.619728 9.02035018,16.2218698 9.07002521,18.920328 C9.0203502,21.6187863 10.1032604,24.220928 12.0701315,26.1293305 C14.0370027,28.0377329 16.7188677,29.0884517 19.5,29.0402533 C22.2811323,29.0884516 24.9629972,28.0377329 26.9298684,26.1293305 C28.8967396,24.220928 29.9796497,21.6187863 29.9299747,18.920328 C29.9796498,16.2218698 28.8967396,13.6197281 26.9298684,11.7113256 C24.9629972,9.80292312 22.2811323,8.75220438 19.5,8.80040272 Z" id="形状"></path>
                </g>
            </g>
        </g>
    </g>
</svg>