<svg id="图层_1" data-name="图层 1" xmlns="http://www.w3.org/2000/svg" viewBox="0 0 361 361"><defs><style>.cls-1{fill:#fcf3e2;}.cls-2{fill:#513d3d;}.cls-3{fill:#443332;}.cls-4{fill:#919b96;}.cls-5{fill:#f7d189;}</style></defs><title>我想要的2021终稿</title><rect class="cls-1" x="134.8" y="116.58" width="6.14" height="27.18"/><rect class="cls-2" x="100.5" y="149.52" width="74.73" height="11.34" rx="4.72" ry="4.72"/><path class="cls-3" d="M113.16,142h49.41a7.54,7.54,0,0,1,7.54,7.54v0a0,0,0,0,1,0,0H105.62a0,0,0,0,1,0,0v0A7.54,7.54,0,0,1,113.16,142Z"/><path class="cls-1" d="M149.53,276.49H126.2a7.06,7.06,0,0,1-7-6.1L104.47,160.86h66.8L156.53,270.39A7.05,7.05,0,0,1,149.53,276.49Z"/><polygon class="cls-4" points="162.26 227.78 168.21 183.57 107.52 183.57 113.47 227.78 162.26 227.78"/><rect class="cls-1" x="219.09" y="116.58" width="6.14" height="27.18"/><rect class="cls-2" x="184.79" y="149.52" width="74.73" height="11.34" rx="4.72" ry="4.72"/><path class="cls-3" d="M197.45,142h49.41a7.54,7.54,0,0,1,7.54,7.54v0a0,0,0,0,1,0,0H189.91a0,0,0,0,1,0,0v0A7.54,7.54,0,0,1,197.45,142Z"/><path class="cls-1" d="M233.82,276.49H210.5a7.06,7.06,0,0,1-7-6.1L188.76,160.86h66.8L240.82,270.39A7.05,7.05,0,0,1,233.82,276.49Z"/><polygon class="cls-5" points="246.56 227.78 252.5 183.57 191.81 183.57 197.76 227.78 246.56 227.78"/></svg>