<?xml version="1.0" encoding="UTF-8"?>
<svg width="480px" height="480px" viewBox="0 0 480 480" version="1.1" xmlns="http://www.w3.org/2000/svg" xmlns:xlink="http://www.w3.org/1999/xlink">
    <title>加载失败</title>
    <defs>
        <linearGradient x1="49.9647142%" y1="100.123066%" x2="49.9647142%" y2="-0.0589547199%" id="linearGradient-1">
            <stop stop-color="#FFFFFF" stop-opacity="0.1" offset="0%"></stop>
            <stop stop-color="#D9E9FF" offset="100%"></stop>
        </linearGradient>
        <linearGradient x1="49.8783812%" y1="100.068756%" x2="49.8783812%" y2="-0.0640204968%" id="linearGradient-2">
            <stop stop-color="#FFFFFF" stop-opacity="0.1" offset="0%"></stop>
            <stop stop-color="#FEFEFF" stop-opacity="0.13" offset="9%"></stop>
            <stop stop-color="#FBFCFF" stop-opacity="0.21" offset="23%"></stop>
            <stop stop-color="#F5F9FF" stop-opacity="0.33" offset="40%"></stop>
            <stop stop-color="#EEF5FF" stop-opacity="0.51" offset="59%"></stop>
            <stop stop-color="#E4EFFF" stop-opacity="0.74" offset="79%"></stop>
            <stop stop-color="#D9E9FF" offset="100%"></stop>
        </linearGradient>
        <linearGradient x1="50%" y1="100%" x2="50%" y2="0%" id="linearGradient-3">
            <stop stop-color="#FFFFFF" stop-opacity="0.1" offset="0%"></stop>
            <stop stop-color="#FBFDFF" stop-opacity="0.19" offset="13%"></stop>
            <stop stop-color="#F1F7FF" stop-opacity="0.43" offset="41%"></stop>
            <stop stop-color="#E1EEFF" stop-opacity="0.82" offset="81%"></stop>
            <stop stop-color="#D9E9FF" offset="100%"></stop>
        </linearGradient>
        <linearGradient x1="0.0631905497%" y1="50.0121036%" x2="100%" y2="50.0121036%" id="linearGradient-4">
            <stop stop-color="#D4E7FF" stop-opacity="0.9" offset="0%"></stop>
            <stop stop-color="#DAEAFF" stop-opacity="0.98" offset="85%"></stop>
            <stop stop-color="#DBEBFF" offset="100%"></stop>
        </linearGradient>
        <linearGradient x1="0%" y1="50.0121036%" x2="99.9368095%" y2="50.0121036%" id="linearGradient-5">
            <stop stop-color="#D4E7FF" stop-opacity="0.9" offset="0%"></stop>
            <stop stop-color="#DAEAFF" stop-opacity="0.98" offset="85%"></stop>
            <stop stop-color="#DBEBFF" offset="100%"></stop>
        </linearGradient>
        <linearGradient x1="-0.1%" y1="49.996022%" x2="100%" y2="49.996022%" id="linearGradient-6">
            <stop stop-color="#E7F2FE" offset="0%"></stop>
            <stop stop-color="#79B4F7" offset="100%"></stop>
        </linearGradient>
        <linearGradient x1="3.1249818e-13%" y1="50%" x2="100%" y2="50%" id="linearGradient-7">
            <stop stop-color="#FFFFFF" offset="0%"></stop>
            <stop stop-color="#EDF3FE" offset="58%"></stop>
            <stop stop-color="#E6EFFE" offset="100%"></stop>
        </linearGradient>
        <linearGradient x1="-0.0471945412%" y1="49.9972395%" x2="100.021355%" y2="49.9972395%" id="linearGradient-8">
            <stop stop-color="#D4E7FF" stop-opacity="0.9" offset="0%"></stop>
            <stop stop-color="#B4D3FC" stop-opacity="0.94" offset="43%"></stop>
            <stop stop-color="#81B4F6" offset="100%"></stop>
        </linearGradient>
        <linearGradient x1="0.0832328891%" y1="50.0172831%" x2="100.077431%" y2="50.0172831%" id="linearGradient-9">
            <stop stop-color="#D4E7FF" stop-opacity="0.9" offset="0%"></stop>
            <stop stop-color="#DAEAFF" stop-opacity="0.98" offset="85%"></stop>
            <stop stop-color="#DBEBFF" offset="100%"></stop>
        </linearGradient>
        <linearGradient x1="-1.10245643e-13%" y1="50.0282646%" x2="99.998654%" y2="50.0282646%" id="linearGradient-10">
            <stop stop-color="#FFFFFF" offset="0%"></stop>
            <stop stop-color="#EDF3FE" offset="58%"></stop>
            <stop stop-color="#E6EFFE" offset="100%"></stop>
        </linearGradient>
        <linearGradient x1="0%" y1="49.9802103%" x2="100.072698%" y2="49.9802103%" id="linearGradient-11">
            <stop stop-color="#BEE5FF" stop-opacity="0.9" offset="0%"></stop>
            <stop stop-color="#A8D4FD" stop-opacity="0.92" offset="12%"></stop>
            <stop stop-color="#85B9F9" stop-opacity="0.96" offset="34%"></stop>
            <stop stop-color="#6BA6F6" stop-opacity="0.98" offset="57%"></stop>
            <stop stop-color="#5C9BF5" offset="79%"></stop>
            <stop stop-color="#5797F4" offset="100%"></stop>
        </linearGradient>
        <linearGradient x1="0%" y1="50%" x2="100%" y2="50%" id="linearGradient-12">
            <stop stop-color="#D4E7FF" stop-opacity="0.9" offset="0%"></stop>
            <stop stop-color="#B6D3FA" offset="100%"></stop>
        </linearGradient>
        <linearGradient x1="57.3004015%" y1="92.1722309%" x2="38.1466499%" y2="-31.2354354%" id="linearGradient-13">
            <stop stop-color="#4F78B9" offset="0%"></stop>
            <stop stop-color="#143E81" offset="100%"></stop>
        </linearGradient>
        <linearGradient x1="50.0186605%" y1="99.9948427%" x2="50.0186605%" y2="52.0241843%" id="linearGradient-14">
            <stop stop-color="#40A9FF" offset="0%"></stop>
            <stop stop-color="#69C0FF" offset="100%"></stop>
        </linearGradient>
    </defs>
    <g id="组件设计" stroke="none" stroke-width="1" fill="none" fill-rule="evenodd">
        <g id="基础-缺省图" transform="translate(-837.000000, -3574.000000)">
            <g id="加载失败" transform="translate(837.000000, 3574.000000)">
                <rect id="矩形" fill="#D8D8D8" opacity="0" x="0" y="0" width="480" height="480"></rect>
                <polygon id="路径" fill="#E4EFFF" fill-rule="nonzero" points="93.8769231 277.911371 95.9736264 300.315766 82.8395604 298.825656"></polygon>
                <polygon id="路径" fill="#F3F8FF" fill-rule="nonzero" points="93.8769231 277.911371 107.70989 295.594887 95.9736264 300.315766"></polygon>
                <polygon id="路径" fill="#E4EFFF" fill-rule="nonzero" points="46.8131868 283.687195 49.5032967 312.368514 32.9538462 310.443239"></polygon>
                <polygon id="路径" fill="#F3F8FF" fill-rule="nonzero" points="46.8131868 283.687195 64.2989011 306.355327 49.5032967 312.368514"></polygon>
                <polygon id="路径" fill="#E4EFFF" fill-rule="nonzero" points="69.2307692 263.867415 73.6615385 311.287195 43.8725275 308.333349"></polygon>
                <polygon id="路径" fill="#F3F8FF" fill-rule="nonzero" points="69.2307692 263.867415 100.391209 301.133349 73.6615385 311.287195"></polygon>
                <path d="M78.356044,159.90258 C76.5920939,150.599963 68.3857193,143.919061 58.9186813,144.078404 C53.8515331,144.054936 48.9608371,145.937783 45.2175824,149.353129 C43.1200323,148.40768 40.8458344,147.917784 38.5450549,147.915766 C31.255123,147.800891 24.8730003,152.787954 23.221978,159.889393 C17.6193859,161.128081 13.5794035,166.021734 13.4241758,171.757525 C13.639566,178.716426 19.412669,184.207341 26.3736264,184.074008 L75.1648352,184.074008 C82.1461595,184.2367 87.9516083,178.737421 88.167033,171.757525 C88.0090818,166.021012 83.9618086,161.130557 78.356044,159.90258 L78.356044,159.90258 Z" id="路径" fill="url(#linearGradient-1)" fill-rule="nonzero"></path>
                <path d="M445.186813,80.3729092 C440.72442,71.1497412 431.39317,65.2786802 421.147253,65.2476345 C415.442478,65.2580329 409.893136,67.1078135 405.323077,70.5223598 C399.884003,59.9136365 388.071591,54.1954881 376.37665,56.5099843 C364.681709,58.8244804 355.937731,68.6108569 354.949451,80.4915905 C342.51089,84.5689313 334.851755,97.0506635 336.850262,109.986987 C338.848768,122.92331 349.91749,132.511813 363.006593,132.645486 L437.432967,132.645486 C450.701287,132.670623 461.979709,122.958998 463.924646,109.833978 C465.869584,96.7089575 457.892242,84.1439076 445.186813,80.3201619 L445.186813,80.3729092 Z" id="路径" fill="url(#linearGradient-2)" fill-rule="nonzero"></path>
                <ellipse id="椭圆形" fill="url(#linearGradient-3)" fill-rule="nonzero" cx="240" cy="346.983898" rx="240" ry="75.8241758"></ellipse>
                <polygon id="路径" fill="#E4EFFF" fill-rule="nonzero" points="424.193407 283.54214 421.925275 313.265217 405.112088 308.386096"></polygon>
                <polygon id="路径" fill="#F3F8FF" fill-rule="nonzero" points="424.193407 283.54214 438.303297 309.731151 421.925275 313.265217"></polygon>
                <path d="M158.043956,250.324558 C160.681319,237.137744 168.593407,213.744338 187.793407,206.887195 L207.665934,261.36192 C207.665934,261.36192 189.969231,236.306975 164.030769,254.623459 C162.663942,255.510901 160.892774,255.469375 159.569039,254.518852 C158.245303,253.568328 157.639893,251.903324 158.043956,250.324558 L158.043956,250.324558 Z" id="路径" fill="url(#linearGradient-4)" fill-rule="nonzero"></path>
                <path d="M316.786813,250.324558 C314.149451,237.137744 306.237363,213.744338 287.037363,206.887195 L267.164835,261.36192 C267.164835,261.36192 284.874725,236.306975 310.8,254.623459 C312.166827,255.510901 313.937995,255.469375 315.261731,254.518852 C316.585466,253.568328 317.190876,251.903324 316.786813,250.324558 Z" id="路径" fill="url(#linearGradient-5)" fill-rule="nonzero"></path>
                <path d="M266.584615,261.36192 C278.36044,244.311371 289.925275,204.263019 289.925275,175.344338 C289.925275,124.021261 266.281319,95.6168652 237.178022,95.6168652 C208.074725,95.6168652 184.430769,124.021261 184.430769,175.344338 C184.430769,204.263019 195.995604,244.311371 207.771429,261.36192 L266.584615,261.36192 Z" id="路径" fill="url(#linearGradient-6)" fill-rule="nonzero"></path>
                <circle id="椭圆形" fill="url(#linearGradient-7)" fill-rule="nonzero" cx="236.676923" cy="193.425656" r="23.9868132"></circle>
                <circle id="椭圆形" fill="#A4D4FF" fill-rule="nonzero" cx="237.125275" cy="193.425656" r="19.1340659"></circle>
                <path d="M221.353846,193.425656 C221.356191,183.514092 228.927076,175.24506 238.8,174.370711 C238.246154,174.370711 237.692308,174.304777 237.125275,174.304777 C230.124671,174.044737 223.541633,177.631213 219.964102,183.654282 C216.386572,189.67735 216.386572,197.173963 219.964102,203.197031 C223.541633,209.220099 230.124671,212.806576 237.125275,212.546536 C237.692308,212.546536 238.246154,212.546536 238.8,212.467415 C228.92617,211.605557 221.350504,203.337029 221.353846,193.425656 Z" id="路径" fill="#5AB1F2" fill-rule="nonzero"></path>
                <path d="M202.325275,112.931151 L272.558242,112.931151 C263.169231,101.564118 250.892308,95.6168652 237.441758,95.6168652 C223.991209,95.6168652 211.701099,101.564118 202.325275,112.931151 Z" id="路径" fill="#79B4F6" fill-rule="nonzero"></path>
                <circle id="椭圆形" fill="#EDF2F4" fill-rule="nonzero" opacity="0.8" cx="228.395604" cy="190.775107" r="3.77142857"></circle>
                <path d="M207.534066,261.36192 C204.933164,267.692302 203.693124,274.499045 203.894505,281.339942 C204.725275,299.511371 215.762637,324.038843 217.991209,313.898184 C221.604396,297.164118 232.905495,323.023459 238.8,323.959722 C244.074725,324.790492 248.967033,294.197085 251.762637,304.614667 C259.424176,333.137744 269.736264,313.528953 270.857143,281.339942 C271.006477,274.503075 269.768359,267.706886 267.217582,261.36192 L207.534066,261.36192 Z" id="路径" fill="url(#linearGradient-8)" fill-rule="nonzero"></path>
                <path d="M218.901099,261.36192 C216.527637,265.936841 215.292713,271.016766 215.301056,276.170711 C215.301056,289.726755 219.257143,298.588294 221.261538,297.269612 C238.826374,277.990492 228.553846,299.498184 235.832967,299.498184 C242.663736,299.498184 247.305495,277.080602 250.879121,285.388294 C260.241758,307.041041 264.474725,299.893788 262.338462,279.098184 C261.797802,273.823459 260.123077,265.687195 256.206593,261.348733 L218.901099,261.36192 Z" id="路径" fill="url(#linearGradient-9)" fill-rule="nonzero"></path>
                <path d="M228.435165,261.36192 C224.852439,264.584841 222.734184,269.126 222.567033,273.94214 C222.567033,281.630052 225.520879,281.458623 227.037363,280.430052 C240.356044,265.805876 231.837363,284.663019 237.362637,284.663019 C242.545055,284.663019 244.259341,270.553129 247.621978,274.364118 C253.674725,281.630052 257.96044,279.717964 256.140659,271.726755 C254.953846,267.599283 251.551648,262.324558 249.547253,261.335547 L228.435165,261.36192 Z" id="路径" fill="url(#linearGradient-10)" fill-rule="nonzero"></path>
                <path d="M237.679121,95.6165532 C230.82678,95.5905528 224.070547,97.2287018 217.991209,100.390492 C223.093316,98.3253202 228.54856,97.2727895 234.052747,97.2915905 C263.208791,97.2915905 286.8,125.695986 286.8,177.019063 C286.8,205.027854 275.947253,243.480602 264.567033,261.414667 L267.085714,261.414667 C278.861538,244.364118 290.426462,204.315766 290.426462,175.397085 C290.479121,124.021261 266.848352,95.6165532 237.679121,95.6165532 Z" id="路径" fill="url(#linearGradient-11)" fill-rule="nonzero" opacity="0.4"></path>
                <ellipse id="椭圆形" fill="url(#linearGradient-12)" fill-rule="nonzero" cx="239.12967" cy="339.783898" rx="29.3406593" ry="4.06153846"></ellipse>
                <path d="M269.032174,111.977391 C269.4,111.147826 267.521739,111.766087 266.692174,113.033913 C265.518261,114.833913 257.958261,117.98 256.745217,117.815652 C253.763478,117.408696 249.161739,116.101739 249.193043,115.992174 C247.901739,116.446087 246.336522,119.6 246.336522,119.6 C246.336522,119.6 253.466087,122.33913 256.494783,122.15913 C259.523478,121.97913 264.203478,118.418261 266.872174,116.571304 C267.592174,115.937391 268.64087,115.85913 269.055652,115.843478 C270.088696,115.796522 272.605231,113.706957 271.932188,111.977391 C271.509579,110.850435 268.672174,112.806957 269.032174,111.977391 Z" id="路径" fill="#FECCA9" fill-rule="nonzero"></path>
                <path d="M204.74087,111.977391 C204.373043,111.147826 206.251304,111.766087 207.08087,113.033913 C208.254783,114.833913 215.814783,117.98 217.027826,117.815652 C220.009565,117.408696 224.611304,116.101739 224.58,115.992174 C225.871304,116.446087 227.436522,119.6 227.436522,119.6 C227.436522,119.6 220.306957,122.33913 217.278261,122.15913 C214.249565,121.97913 209.569565,118.418261 206.90087,116.571304 C206.18087,115.937391 205.132174,115.85913 204.717391,115.843478 C203.684348,115.796522 200.882609,114.254783 201.555652,112.525217 C201.978261,111.398261 205.108696,112.806957 204.74087,111.977391 Z" id="路径" fill="#FECCA9" fill-rule="nonzero"></path>
                <path d="M234.049565,102.075652 L232.366957,102.764348 C232.366957,102.764348 231.772174,103.766087 232.022609,105.918261 C232.273043,108.070435 233.392174,108.892174 233.642609,109.682609 C233.893043,110.473043 233.736522,113.501739 233.736522,113.501739 L238.197391,113.501739 L238.385217,109.26 C238.385217,109.26 239.394783,107.992174 239.723478,107.115652 C240.06,106.23913 240.725217,104.806957 240.490435,104.118261 C240.271304,103.429565 237.313043,100.792174 234.049565,102.075652 Z" id="路径" fill="#FECCA9" fill-rule="nonzero"></path>
                <path d="M236.131304,99.8765217 C236.131304,99.8765217 236.851304,98.5773913 237.422609,99.273913 C237.993913,99.9704348 238.353913,100.330435 239.003478,100.181739 C239.653043,100.025217 240.944348,100.166087 240.482609,101.363478 C240.02087,102.56087 240.45913,102.670435 240.646957,102.99913 C240.756522,103.202609 241.546957,103.875652 241.014783,104.744348 C240.490435,105.597391 239.746957,105.284348 239.88,106.098261 C240.013043,106.912174 239.707826,107.632174 239.222609,107.882609 C238.753043,108.125217 238.870435,108.563478 238.956522,108.821739 C239.042609,109.072174 238.776522,109.870435 237.986087,109.588696 C237.195652,109.29913 236.491304,109.197391 235.865217,109.47913 C235.23913,109.76087 232.664348,109.925217 233.212174,108.774783 C233.713043,107.726087 233.016522,107.514783 232.546957,107.045217 C232.077391,106.575652 231.701739,105.769565 231.944348,104.963478 C232.085217,104.501739 232.288696,103.398261 231.733043,102.709565 C231.153913,101.997391 232.155652,100.048696 232.805217,100.11913 C233.454783,100.189565 234.362609,98.3191304 236.131304,99.8765217 Z" id="路径" fill="#003A8C" fill-rule="nonzero"></path>
                <path d="M242.345217,165.669565 C242.345217,165.669565 239.214783,164.746087 239.16,167.563478 C239.723478,170.106957 240.224348,170.975652 240.208696,172.173043 C240.185217,173.362609 241.312174,175.272174 243.746087,175.60087 C246.187826,175.929565 247.267826,174.012174 246.430435,171.327826 C245.585217,168.635652 245.295652,166.186087 242.345217,165.669565 Z" id="路径" fill="#003A8C" fill-rule="nonzero"></path>
                <path d="M239.230435,166.953043 C239.230435,166.953043 239.590435,169.042609 239.958261,169.762609 C240.326087,170.482609 240.568696,171.437391 240.756522,172.227826 C240.944348,173.018261 241.343478,174.92 244.215652,175.013913 C245.976522,174.943478 246.704348,174.098261 246.696522,173.354783 C246.688696,173.84 246.782609,174.591304 246.422609,175.06087 C246.031304,175.569565 245.146957,175.78087 244.184348,175.788696 C242.306087,175.804348 240.944348,175.350435 240.193043,172.775652 C240.052174,171.71913 239.989565,170.913043 239.786087,170.294783 C239.582609,169.676522 238.870435,167.696522 239.230435,166.953043 Z" id="路径" fill="#001529" fill-rule="nonzero"></path>
                <path d="M232.069565,165.794783 C232.069565,165.794783 228.266087,164.957391 228.266087,167.665217 C228.438261,170.06 228.845217,171.124348 228.821739,172.321739 C228.798261,173.511304 229.925217,175.42087 232.35913,175.749565 C234.80087,176.078261 235.88087,174.16087 235.043478,171.476522 C234.206087,168.784348 235.02,166.303478 232.069565,165.794783 Z" id="路径" fill="#003A8C" fill-rule="nonzero"></path>
                <path d="M228.712174,166.373913 C228.712174,166.373913 228.046957,167.32087 228.75913,169.926957 C229.001739,170.701739 229.181739,171.578261 229.369565,172.368696 C229.557391,173.15913 229.956522,175.06087 232.828696,175.154783 C234.589565,175.084348 235.317391,174.23913 235.309565,173.495652 C235.301739,173.98087 235.434783,174.614783 235.074783,175.084348 C234.683478,175.60087 233.76,175.921739 232.789565,175.929565 C230.911304,175.945217 229.549565,175.491304 228.798261,172.916522 C228.657391,171.867826 228.594783,171.053913 228.391304,170.435652 C228.195652,169.817391 227.906087,166.937391 228.712174,166.373913 Z" id="路径" fill="#001529" fill-rule="nonzero"></path>
                <path d="M229.291304,134.36116 C229.291304,134.36116 227.311304,138.251594 227.843478,145.005641 C228.367826,151.766066 230.801739,173.354783 230.801739,173.354783 L234.566087,173.354783 L237.469565,143.647178 L241.914783,173.354783 L245.405217,173.354783 C245.405217,173.354783 248.676522,137.256663 244.982609,134.354783 C238.651304,134.36116 229.291304,134.36116 229.291304,134.36116 Z" id="路径" fill="url(#linearGradient-13)" fill-rule="nonzero"></path>
                <path d="M251.877391,116.238714 L249.161739,121.180033 C249.161739,121.180033 247.009565,120.613336 245.49913,119.991352 C245.389565,121.249142 245.538261,121.242231 245.616522,122.548398 C245.694783,123.854565 247.933043,136.301159 245.577391,137.075184 C243.221739,137.849209 231.036522,137.925229 229.236522,137.614237 C227.436522,137.296334 227.788696,126.114441 228.461739,122.831746 C228.782609,121.200766 228.75913,119.82549 228.75913,119.82549 L225.276522,121.01417 L221.261739,116.245625 C221.261739,116.245625 224.462609,114.206899 227.413043,112.603562 C230.222609,111.083156 233.470435,111.449436 233.713043,111.345772 C234.182609,111.172998 234.370435,110.765253 235.951304,110.785986 C236.937391,110.799808 237.477391,110.944938 237.931304,111.276662 C238.306957,111.421792 240.670435,111.325039 244.004348,112.07142 C247.228696,112.790157 248.856522,115.001657 251.877391,116.238714 Z" id="路径" fill="url(#linearGradient-14)" fill-rule="nonzero"></path>
            </g>
        </g>
    </g>
</svg>