<svg xmlns="http://www.w3.org/2000/svg" viewBox="0 0 171.64 277.89"><defs><style>.cls-1{opacity:0.1;}.cls-2{fill:#4a74a2;}.cls-3{fill:#1bd5df;}.cls-4{fill:#e5bcaf;}.cls-5{fill:#444;}.cls-6{fill:#f0eee1;}.cls-7{fill:#3d3c3d;}.cls-8{fill:#8e80df;}</style></defs><g id="图层_2" data-name="图层 2"><g id="图层_1-2" data-name="图层 1"><ellipse class="cls-1" cx="119.43" cy="258.35" rx="19.02" ry="52.4" transform="translate(-148.74 353.68) rotate(-84.76)"/><path class="cls-2" d="M.21,84.6a.26.26,0,0,1-.2-.31c.62-3.11,4.51-10.07,10-12.85,5.29-2.66,8.73-12.62,8.76-12.72a.26.26,0,0,1,.49.16c-.14.42-3.54,10.26-9,13S1.12,81.37.51,84.4A.27.27,0,0,1,.21,84.6Z"/><path class="cls-2" d="M14.3,87.44a.26.26,0,0,1-.21-.26c0-.39.53-9.46,3.84-13.7s2.15-12.58,2.14-12.66a.26.26,0,1,1,.51-.07c0,.36,1.08,8.78-2.24,13S14.61,87.11,14.61,87.2a.26.26,0,0,1-.27.25Z"/><polygon class="cls-3" points="55.28 0 14.46 27.33 18.49 63.59 54.67 34.05 55.28 0"/><polygon class="cls-2" points="15.37 27.72 15.43 27.29 42.2 31.24 54.64 33.81 54.55 34.23 42.13 31.67 15.37 27.72"/><polygon class="cls-2" points="19.42 62.37 19.07 62.11 41.98 31.2 54.53 1.31 54.92 1.48 42.34 31.41 19.42 62.37"/><path class="cls-2" d="M121.64,155.7c-6.84-31-79.27-122.95-79.85-123.94l.38-.22c.57,1,73,93,79.88,124.07Z"/><path class="cls-4" d="M122.76,179.87s-2.74,2.74-6.5,0-1-5.14.68-6.85,2.8-4.18,3.63-8.42a36.71,36.71,0,0,0,.82-5.62s-2.4-1.71-1-3.76c0,0-.68-1.37.35-1.71,0,0,0-1.72.68-1.72,0,0-1.37-1.36,1-1.36,0,0,3.42,0,3.76,5.47a25.9,25.9,0,0,1-1.37,9.93Z"/><path class="cls-4" d="M149.81,182.26s2.73,5.48-1,8.9-6.85-7.87-6.85-7.87Z"/><path class="cls-4" d="M132.35,148s-2.06,2.74-2.06,3.76-2.39,7.19,1,10.62,6.5-7.19,6.5-7.19Z"/><path class="cls-4" d="M132,161.72a8.43,8.43,0,0,1-3.08,3.77c-2.39,1.71,11,2,11,2s-2.06-1.37-1.37-3.42S132,161.72,132,161.72Z"/><path class="cls-5" d="M131.42,149.07a1,1,0,0,1,.1-.35c1.44-3.06,7.07-3.39,9.73-2.06a7.86,7.86,0,0,1,3.42,4.45c.34,1,2.05,7.87-1,11.3s-3.76,1-5.13,2.74-6.85-2.06-7.19-2.74c-.19-.39,0-1.14.06-1.54.12-1,.27-2.05.38-3.07a21.72,21.72,0,0,0-.06-7.24A6.16,6.16,0,0,1,131.42,149.07Z"/><path class="cls-6" d="M137.82,259.29s.35,6.85,0,8.21,2.06,2.4,4.11,2.06,3.77-3.42,5.82-4.11,6.51-1.71,8.22-3.08,3.76-1.71,2.74-3.08-.69-1.71-4.45-1.71-5.82,0-7.88-1.37S137.82,259.29,137.82,259.29Z"/><path class="cls-6" d="M96.4,238.06s-3.08-.68-5.13,2.74-1,4.8-2.06,6.51-4.45,6.16-2.74,9.24,3.43,1.37,4.11,0,5.14-6.5,7.19-8.56,5.82-6.16,5.82-6.16Z"/><path class="cls-5" d="M121.05,217.52s-5.14,8.9-6.85,10.62-6.16,6.5-12,7.19-8.22.34-7.53,2.73,3.08,8.9,4.11,9.25,17.46-5.14,20.19-7.19,9.25-10.61,10.27-14S121.05,217.52,121.05,217.52Z"/><path class="cls-7" d="M119.34,200.75s-5.48,7.87,1,18.83,9.25,12,10.27,14,2.06,26.36,7.19,26.71,11.64-3.77,11.64-4.45-3.08-5.82-3.76-13.7-7.88-22.93-11.3-27.73l4.45-13.69Z"/><path class="cls-8" d="M121.73,180.55l-3.08,21.23s17.12,1.71,19.86,1.37,3.42,0,3.76-3.09,1-13.35,1-13.35,5.82-.34,7.19-3.08c0,0,0-2-2.4-4.79,0,0-2.39-9.24-4.1-10.61s-1.72.34-4.46-1.37c0,0-7.24.3-10.27-1.71,0,0-4-1.8-6.16-1.72s-2.39.61-3.08,1.72c-.81,1.3-1.37,3.42-2.39,4.45s-2.4,3.42-1.37,4.79S117.28,178.84,121.73,180.55Z"/></g></g></svg>