<svg xmlns="http://www.w3.org/2000/svg" viewBox="0 0 317.55 268.83"><defs><style>.cls-1{fill:#191716;}.cls-1,.cls-13,.cls-17,.cls-19,.cls-3{opacity:0.1;}.cls-2{fill:#35375c;}.cls-4{fill:#4ecbce;}.cls-5{fill:#3b5468;}.cls-6,.cls-7{opacity:0.4;}.cls-7{fill:none;stroke:#000;stroke-miterlimit:10;}.cls-17,.cls-20,.cls-8{fill:#abddff;}.cls-8{opacity:0.3;}.cls-9{fill:#cc5025;}.cls-10{fill:#e17f3c;}.cls-11,.cls-13{fill:#3a1831;}.cls-12{fill:#ffc59a;}.cls-14{fill:#f4b489;}.cls-15{fill:#e8c2a3;}.cls-16{fill:#eed8c4;}.cls-18{fill:#71495b;}.cls-21{opacity:0.2;}</style></defs><g id="图层_2" data-name="图层 2"><g id="图层_1-2" data-name="图层 1"><path class="cls-1" d="M99.72,238.48s-12.61,3.55-1.74,8,82.76,29.41,92.94,20.33-12.1-18.67-7.11-23c11.82-10.28,101.61,28.23,68.71-2.41C229.11,219.62,195,225.85,195,225.85S146.23,222.63,99.72,238.48Z"/><path class="cls-2" d="M231.9,220.72c.11,1.05-2.17,2.09-5.39,2.95-7.18,1.91-19,2.93-19.6,1.17-.38-1.13-3-7.81-5.79-14.88-3.48-8.83-7.23-18.27-7.23-18.27l5.32-.82,21.95-3.39,1.07-.16S231.57,217.32,231.9,220.72Z"/><path class="cls-3" d="M231.9,220.72c.11,1.05,1.13,1.51-2.1,2.37-.29-.69-.45-2.89-1.67-6.63-8-24.67-9-22-11.13-29.75l5.23.61S231.57,217.32,231.9,220.72Z"/><path class="cls-3" d="M203.68,216.46c-3.48-8.83-9.79-24.77-9.79-24.77l5.32-.82Z"/><path class="cls-4" d="M225.84,240.18c-1.17,0-13.2-4.15-18.4-5.47-3.76-1-11.93-4.26-15.52-6.78-2.31-1.62-2-3.26.89-5.15l0,0c1.39-.9,1.44-.51,4-1.54a6.55,6.55,0,0,1,.78-.28l.36-.11a13.67,13.67,0,0,1,1.47-.32l.4-.06c.35,0,.72-.09,1.08-.11l.39,0c.52,0,1,0,1.57,0h.45c.61,0,1.22.07,1.82.14l.41,0,1.67.25.51.09a47.71,47.71,0,0,1,8.36,2.39,51.51,51.51,0,0,1,10.71-4.58,16,16,0,0,1,3.64-.56c1.91,0,3.48.5,4.24,2,2.17,4.21,2.46,10.65,2.46,14,0,1.31-.05,2.13-.05,2.13C239.13,242.19,227,240.18,225.84,240.18Z"/><path class="cls-5" d="M210.16,227.09c-.18.48-.49.89-.62,1.27a.33.33,0,0,0,0,.17.32.32,0,0,0,.09.15.44.44,0,0,0,.22,0,9,9,0,0,0,1.26-.22l.11,0c.45-.1.9-.23,1.35-.37.9-.28,1.8-.59,2.7-.89s1.8-.63,2.72-.92c-.82.5-1.67,1-2.53,1.38s-1.74.81-2.65,1.15a9.49,9.49,0,0,1-2.9.7h-.22l-.24,0a.94.94,0,0,1-.54-.33.9.9,0,0,1-.13-.67,1.43,1.43,0,0,1,.19-.43,2.15,2.15,0,0,1,.54-.58A2.47,2.47,0,0,1,210.16,227.09Z"/><g class="cls-6"><path d="M198.39,223.19a.61.61,0,0,1-.06-1.21.6.6,0,0,1,.62.56.59.59,0,0,1-.51.65Zm0-.83h0a.23.23,0,0,0,0,.45.23.23,0,0,0,0-.45Z"/></g><g class="cls-6"><path d="M201.25,223.8a.55.55,0,0,1-.37-.14.6.6,0,0,1-.2-.41.63.63,0,0,1,.12-.44.6.6,0,0,1,.39-.22.56.56,0,0,1,.42.15.67.67,0,0,1,.2.4.59.59,0,0,1-.51.66Zm0-.83h0a.25.25,0,0,0-.12.07.25.25,0,0,0,0,.17.23.23,0,0,0,.08.16.12.12,0,0,0,.12,0,.21.21,0,0,0,.17-.24h0a.25.25,0,0,0-.08-.16A.16.16,0,0,0,201.24,223Z"/></g><g class="cls-6"><path d="M205.36,224.11A.51.51,0,0,1,205,224a.57.57,0,0,1-.2-.4.57.57,0,1,1,1.13-.11.68.68,0,0,1-.12.44.58.58,0,0,1-.39.22Zm0-.83h0a.23.23,0,0,0-.08.4.15.15,0,0,0,.12,0,.19.19,0,0,0,.12-.07.26.26,0,0,0,0-.17A.22.22,0,0,0,205.35,223.28Z"/></g><ellipse class="cls-7" cx="209.24" cy="223.87" rx="0.38" ry="0.42" transform="translate(-19.8 20.3) rotate(-5.3)"/><path class="cls-5" d="M198,220.83c.19.6.41,1.2.61,1.68l-.36.15c-.07-.17-.35-.88-.61-1.72Z"/><path class="cls-5" d="M201.37,221.15c.14,1.66.14,2-.12,2.08s-.34-.16-.4-.26c-.38-.65-.91-1.57-1.41-2.46l.4-.06c.44.78.89,1.57,1.24,2.17,0-.36-.05-1-.09-1.44,0-.3-.05-.58-.07-.84l.39,0C201.32,220.62,201.35,220.91,201.37,221.15Z"/><path class="cls-5" d="M205.56,220.49c.29,1.26.55,2.52,0,3a.29.29,0,0,1-.27.09c-.4,0-.93-.84-2.05-2.67l-.4-.66h.45l.27.44a12.15,12.15,0,0,0,1.75,2.49c.35-.43.06-1.72-.2-2.79Z"/><path class="cls-5" d="M209.43,223.88l-.38.08c-.08-.2-.92-1.79-1.82-3.22l.51.09C208.65,222.32,209.42,223.85,209.43,223.88Z"/><path class="cls-8" d="M235,236.72a7,7,0,0,1-3.2.41,7.13,7.13,0,0,0,.32-.88,5.43,5.43,0,0,0,.16-.67,5.34,5.34,0,0,0,.05-.69v-1.37c0-.46-.06-.92-.09-1.37l-.06-.69c0-.23-.07-.45-.1-.68l-.22-1.36a27,27,0,0,0-.69-2.68c-.14-.44-.27-.89-.44-1.32s-.31-.87-.49-1.29l-.55-1.27-.6-1.25-.65-1.21c-.25-.4-.75-.65-1-1s-.4-.51-.6-.76a16,16,0,0,1,3.64-.56,5.21,5.21,0,0,0,.23,1.15l.62,1.35.56,1.36.51,1.38c.17.46.32.93.47,1.39s.29.94.42,1.42c.28.94.48,1.9.71,2.85.1.48.18,1,.27,1.45,0,.25.1.49.14.73l.09.73c.06.49.14,1,.19,1.47l.1,1.49c0,.24.06.49.08.74s.06.5.1.75S235,236.59,235,236.72Z"/><path class="cls-3" d="M225.84,240.18c-1.17,0-13.2-4.15-18.4-5.47-3.76-1-11.93-4.26-15.52-6.78-2.31-1.62-2-3.26.89-5.15-.33.24-2.7,2.22,3,4.62,6,2.56,18.87,6,21,7.18s16.3,3.59,18.32,2.08a3.93,3.93,0,0,0,2-2.64c0,1.31-.05,2.13-.05,2.13C239.13,242.19,227,240.18,225.84,240.18Z"/><path class="cls-9" d="M317.17,45.12C314.66,19.48,300.44-.26,285,0V0H275l-1.65,4.52h0c-10,8.07-15.82,26.06-13.85,46.24C261.3,69.45,269.35,85,279.55,92l1.14,3.9,9.74,0a18.42,18.42,0,0,0,2.57-.06C308.93,94.21,319.75,71.53,317.17,45.12Z"/><ellipse class="cls-10" cx="278" cy="47.94" rx="28.99" ry="48.06" transform="translate(-3.35 27.3) rotate(-5.59)"/><polygon class="cls-11" points="281.11 54 238.27 59.06 238.27 47.74 280.06 43.21 281.11 54"/><path class="cls-12" d="M153.73,19.06S147.55,21,148.36,31s.39,21.13,6.44,24.66,16.28,4.07,16.28,4.07l17.24-1.21A29,29,0,0,1,184,52c-2-4-.5-26.82-.5-26.82Z"/><path class="cls-5" d="M193.91,32.43A41.38,41.38,0,0,1,189,45.35c-.65,1.11-1.32,2.15-2,3.15-2.86,4.16,0,6.76,0,6.76s-6.39,7.65-12.7,4.44l-8.47-.56c-4.53,4.74-7.78-8.54-5.84-12a28.29,28.29,0,0,0,3.26-3.47c1.55-2,2.89-4.47,2-6.32-1.71-3.68-3.86-3-5-2.87S157.4,40,157.4,40s-3.87-2.55.49-13c0,0-11-4.5-10.81-12.8s.84-8.3.84-8.3,4.35,2.59,12.27,2.34,14.44-4.47,22-.83c9.22,4.4,5.58,13,5.58,13S196,22.38,193.91,32.43Z"/><path class="cls-13" d="M186.7,55.6c-1.34,1.45-6.84,6.84-12.31,4.14a.37.37,0,0,0-.18-.05l-8.15-.54a.53.53,0,0,0-.39.15c-3.71,3.57-6.52-5-6.22-9.87a.51.51,0,0,1,1-.07l.41,2a.52.52,0,0,0,.34.39,50.12,50.12,0,0,0,9.35,1c5.14-.09,12.36-1.22,15.76-5,.37-.42,1,.24.7.7l0,0c-2.28,3.31-.93,5.63-.28,6.44A.5.5,0,0,1,186.7,55.6Z"/><path class="cls-2" d="M236.39,170.63c-.51,16.24-21.4,23.92-43.47,24.6-18.53.57-60.12-14.08-61.45-14.55h0l14.51,42.42h0l4.45,15.46-14.19,1.87-9.08-2.31L121,236.57S103.61,183.85,99,169.38v0l-.74-2.31a25,25,0,0,1,.36-16.17,16.24,16.24,0,0,1,7.71-9c5.78-2.89,23.87-.74,36.59,1.1h0c5.18.75,9.47,1.46,11.67,1.75,7.61,1,52.88-.59,64.11,2.73,5.17,1.52,7.64,1.71,10.8,4.05,3,2.23,4.77,3.91,5.8,5.88C236.74,160.29,236.6,163.83,236.39,170.63Z"/><path class="cls-3" d="M124.8,239.07l-3.76-2.5S103.61,183.85,99,169.38Z"/><path class="cls-3" d="M236.39,170.63c-.51,16.24-21.4,23.92-43.47,24.6-18.53.57-60.12-14.08-61.45-14.55h0l14.51,42.42c-.43-.8-23.13-43.24-23.33-48.78a13.35,13.35,0,0,1-3.12-8.17,16,16,0,0,0,4.27,7.57c.37,0,.82.11,1.36.21A8.8,8.8,0,0,1,124,171a19.76,19.76,0,0,0,1.76,3.07c9.11,1.91,36.46,10.39,56.08,14.39a.93.93,0,0,0,.94-1.47,25.18,25.18,0,0,1-3.25-6.19A.94.94,0,0,1,181,179.7,42.41,42.41,0,0,0,189.7,184c12.86,4.83,29.17,3.6,39.12-5.86,5.19-4.92,7.46-12.32,6.42-20.74C236.74,160.29,236.6,163.83,236.39,170.63Z"/><path class="cls-12" d="M153.6,114.58c-.22.56-.45,1.22-.68,2s-.47,1.57-.72,2.43c-.09.32-.18.64-.28,1-1.06,3.78-2.22,8-3.49,9.68-2.49,3.25-14,4.21-17,3.44-1.84-.46-20.71-20.81-29.86-36.37C95.83,87,93.37,86.32,93,84.13a3.72,3.72,0,0,1,.22-2C95,77.58,105,74.21,105.8,74.38c.43.08,4,5.36,10.27,12.61,7,8.06,13,17.62,14.63,19.45.18.2.31.31.38.31a.16.16,0,0,0,.09,0h0a2.34,2.34,0,0,0,.46-.76h0l.13-.32c.2-.49.45-1.13.7-1.89.18-.51.36-1.07.56-1.69.34-1.1.71-2.35,1.1-3.71.5-1.78,1-3.76,1.56-5.84Z"/><path class="cls-14" d="M152.92,116.54c-.23.74-.47,1.57-.72,2.43-.09.32-.18.64-.28,1-1.06,3.78-2.22,8-3.49,9.68-2.49,3.25-14,4.21-17,3.44-1.84-.46-20.71-20.81-29.86-36.37C95.83,87,93.37,86.32,93,84.13a3.72,3.72,0,0,1,.22-2,16.47,16.47,0,0,0,4,6.16c1.61,1.3,9.36,15,12.27,18.21,2.77,3,19.62,18.25,20.67,19.81s7.54,3.25,12.72,3,7.53-12.45,7.53-12.45Z"/><path class="cls-12" d="M247.32,59.84a4.81,4.81,0,0,0-1.54,4.44c.31,2.17-1.43,27.77-3.43,40.66-.47,3-.89,5.33-1.22,6.52-1.72,6.31-5,11.85-14.33,7.07-4.16-2.12-9.28-6.81-13.68-11.37l-.76-.78-1-1.06c-.4-.43-.8-.85-1.18-1.27l-1.76-1.94,11.16-22c1.19,1.75,2.27,3.5,3.22,5.12.27.46.54.91.79,1.35l.91,1.63c1.74,3.14,2.81,5.3,3.05,5.25h0A3.27,3.27,0,0,0,228,92.3c.74-3.84,1.86-16.09,2.58-24.37.08-.92,1.75-2.6,1.82-3.41.24-2.8-.81-3.63-.77-4.12C231.77,58.3,247.89,59.07,247.32,59.84Z"/><path class="cls-14" d="M242.35,104.94c-.47,3-.89,5.33-1.22,6.52-1.72,6.31-5,11.85-14.33,7.07-4.16-2.12-9.28-6.81-13.68-11.37l-.76-.78-1-1.06c-.4-.43-.8-.85-1.18-1.27l1.27-2.7s16.3,17.07,23.06,15.7C237.55,116.44,240.58,109.65,242.35,104.94Z"/><path class="cls-15" d="M152.92,116.54c-.23.74-.48,1.57-.72,2.43-4.27-1.71-8.8-3.43-11.88-7-1.64-1.9-3-4-4.53-6A38.64,38.64,0,0,1,133,102c.35-1.1.72-2.35,1.11-3.71a1.08,1.08,0,0,1,.46.73c.43,2.13,2.15,3.89,3.39,5.59s2.64,3.79,4.13,5.53C144.89,113.42,149,115,152.92,116.54Z"/><path class="cls-15" d="M222.81,85.26a1.13,1.13,0,0,0-.34.62c-1,4.09-2.07,8-4.43,11.51a44.2,44.2,0,0,1-3.64,4.66,29.2,29.2,0,0,1-3,3.27l1,1.06,1.19,1.23a33.3,33.3,0,0,0,2.76-2.81,58.64,58.64,0,0,0,4.07-5.43c2.37-3.4,3.13-7.19,4.13-11.13Z"/><path class="cls-3" d="M174.34,160s-1.56,4.73,4.37,9.33c0,0-7.1-2.33-5.62-11.05S174.34,160,174.34,160Z"/><path class="cls-16" d="M192.89,162.26c-6.58,1.64-10.77,1.77-13.38,1.34s-3.62-1.4-3.92-2c-.29-.34-.57-.69-.85-1.05l-.4-.51c-.42-.55-.83-1.12-1.25-1.72-11.32-16.24-18.39-45.4-18.39-45.4-.66.21-1.36,2.17-2.11,4.71a19,19,0,0,1-3.17-1.15c-8.11-3.76-13.31-12.48-15.59-17.1.85-2.94,1.8-6.52,2.7-10.27l0-.11c2.27-9.35,6.52-18.54,9-20.92,5-4.78,55.24-7.26,57.92-5.93A22.09,22.09,0,0,1,206.79,65,109.71,109.71,0,0,1,218.3,78.3a94.26,94.26,0,0,1,5.3,8.31c-3.09,10.19-6.94,15.07-9.32,17.67-.87,1-1.55,1.6-1.92,2.1-5-5.3-9-10.22-9.18-10.45.08.3,2.15,8.09,3.58,17.21.36,2.38.69,4.85.92,7.3a42.85,42.85,0,0,0,2.79,10.74c.13.33.26.66.4,1h0a103,103,0,0,0,6.45,13l1.32,2.25,1.54,2.58C223.27,152.3,207.9,158.5,192.89,162.26Z"/><path class="cls-13" d="M179.51,163.6c-2.57-.43-3.62-1.4-3.92-2-.29-.34-.57-.69-.85-1.05l-.4-.51c-.42-.55-.83-1.12-1.25-1.72-11.32-16.24-18.39-45.4-18.39-45.4-.66.21-1.36,2.17-2.11,4.71a19,19,0,0,1-3.17-1.15c.9-3.45,2.81-9.37,5.44-10,3.74-.85,1.75,15.64,5.78,23.91A352.2,352.2,0,0,0,179.51,163.6Z"/><path class="cls-13" d="M206.23,64.52c-2.66,2.55-25.57,3.77-28.25,4.35-3.29.71-21.13,2.6-24.9,3.4-3.07.65-6.57,2.25-11.65,8.75-.87,1.1-3.55,5.79-4.87,8,2.27-9.35,6.52-18.54,9-20.92,5-4.78,55.24-7.26,57.92-5.93A14.35,14.35,0,0,1,206.23,64.52Z"/><polygon class="cls-11" points="234.57 49.05 234.57 60.41 63.5 77.73 62.23 64.81 234.57 49.05"/><path class="cls-12" d="M81.38,72.39s7.72,9.88,14,11.21,11.22-3.53,9.93-10.36-14.85-15.37-17-15.39S77.38,67.81,81.38,72.39Z"/><path class="cls-9" d="M88.57,73.78C86.06,48.14,71.84,28.4,56.44,28.69v0H46.37l-1.66,4.52h0c-10,8.07-15.82,26.07-13.84,46.24,1.83,18.7,9.88,34.25,20.07,41.19l1.15,3.91,9.73,0a17.11,17.11,0,0,0,2.58-.06C80.33,122.87,91.15,100.2,88.57,73.78Z"/><ellipse class="cls-10" cx="49.39" cy="76.6" rx="28.99" ry="48.06" transform="translate(-7.23 5.17) rotate(-5.59)"/><path class="cls-9" d="M64.86,71.69c-1.47-10.75-9.39-18.54-17.68-17.4l-7.33,1,.34,2.48c-4.13,4-6.35,10.74-5.35,18s5,13.23,10,15.93l.34,2.48,7.34-1C60.81,92.07,66.33,82.43,64.86,71.69Z"/><ellipse class="cls-10" cx="42.52" cy="74.75" rx="15.15" ry="19.64" transform="translate(-9.76 6.47) rotate(-7.81)"/><path class="cls-11" d="M6.92,70.75h38a0,0,0,0,1,0,0v14a0,0,0,0,1,0,0h-38a7,7,0,0,1-7-7v0a7,7,0,0,1,7-7Z" transform="translate(-7.46 2.55) rotate(-5.59)"/><path class="cls-12" d="M227.77,50.3s0-1.26-2.09-.52.2-10.14,13.49-6c8.8,2.73,12.32,12.92,7.63,17.39-.24.23-.53.43-.8.65-8.69,7-14.58,4.46-14.81.15-.05-.78-1.1-.56-1.54-.71a.16.16,0,0,1,0-.3,3.32,3.32,0,0,0,1.15-.34C234.19,58.68,227.77,50.3,227.77,50.3Z"/><path class="cls-4" d="M140.23,255.83c-1.3,0-14.65-4.61-20.43-6.08-4.17-1.06-15.36-3.24-19.34-6-2.57-1.79-2.23-3.62,1-5.72l0,0a39.83,39.83,0,0,1,6.56-3.2,8.82,8.82,0,0,1,.86-.31l.41-.12a14.6,14.6,0,0,1,1.62-.36l.45-.06c.4-.05.8-.1,1.21-.12l.42,0c.58,0,1.16,0,1.74,0l.51,0c.67,0,1.35.07,2,.15l.45,0q.94.12,1.86.27l.56.1a52.1,52.1,0,0,1,9.28,2.66,57,57,0,0,1,11.89-5.09,17.89,17.89,0,0,1,4-.62c2.12,0,3.86.55,4.71,2.2,2.4,4.67,2.72,11.81,2.72,15.49,0,1.45-.06,2.36-.06,2.36C155,258.06,141.54,255.83,140.23,255.83Z"/><path class="cls-5" d="M122.83,241.3c-.2.54-.55,1-.69,1.41a.31.31,0,0,0,0,.19.34.34,0,0,0,.1.16.34.34,0,0,0,.24.05,8.25,8.25,0,0,0,1.39-.24l.13,0c.5-.11,1-.26,1.5-.41,1-.31,2-.65,3-1s2-.7,3-1c-.92.56-1.85,1.06-2.81,1.53s-1.93.9-2.94,1.28a10.62,10.62,0,0,1-3.23.78h-.24L122,244a.92.92,0,0,1-.75-1.11,1.51,1.51,0,0,1,.21-.48,2.34,2.34,0,0,1,.61-.64A2.45,2.45,0,0,1,122.83,241.3Z"/><g class="cls-6"><path d="M109.76,237a.6.6,0,1,1,.06,0Zm0-.92h0a.23.23,0,0,0-.18.27.23.23,0,0,0,.23.23.23.23,0,0,0,.18-.27A.24.24,0,0,0,109.75,236.05Z"/></g><g class="cls-6"><path d="M112.94,237.65a.67.67,0,0,1-.42-.16.77.77,0,0,1-.22-.46.7.7,0,0,1,.14-.48.58.58,0,0,1,.43-.24.59.59,0,0,1,.47.16.72.72,0,0,1,.22.45.66.66,0,0,1-.57.73Zm0-.92h0a.16.16,0,0,0-.13.08.25.25,0,0,0,0,.19.21.21,0,0,0,.08.17.22.22,0,0,0,.14.06.23.23,0,0,0,.19-.27h0a.28.28,0,0,0-.09-.18A.21.21,0,0,0,112.92,236.73Z"/></g><g class="cls-6"><path d="M117.5,238a.67.67,0,0,1-.42-.16.77.77,0,0,1-.22-.45.63.63,0,1,1,1.26-.12.73.73,0,0,1-.13.48.61.61,0,0,1-.44.25Zm0-.92h0a.23.23,0,0,0-.18.27.21.21,0,0,0,.08.17.2.2,0,0,0,.14.06.25.25,0,0,0,.14-.08.3.3,0,0,0,0-.19A.25.25,0,0,0,117.48,237.07Z"/></g><ellipse class="cls-7" cx="121.8" cy="237.73" rx="0.42" ry="0.46" transform="translate(-21.45 12.28) rotate(-5.3)"/><path class="cls-5" d="M109.3,234.35c.21.67.45,1.33.67,1.87l-.39.16c-.08-.19-.4-1-.69-1.91Z"/><path class="cls-5" d="M113.07,234.7c.15,1.85.16,2.22-.13,2.32s-.39-.19-.45-.3c-.42-.71-1-1.73-1.57-2.73l.45-.06c.49.87,1,1.74,1.38,2.4,0-.4-.06-1-.1-1.59,0-.33-.05-.64-.07-.93l.42,0C113,234.12,113.05,234.44,113.07,234.7Z"/><path class="cls-5" d="M117.72,234c.33,1.39.61,2.79,0,3.38a.34.34,0,0,1-.29.1c-.45-.05-1-.94-2.28-3l-.45-.73.51,0c.1.15.2.32.3.49a13.62,13.62,0,0,0,1.94,2.76c.38-.48.06-1.91-.22-3.1Z"/><path class="cls-5" d="M122,237.73l-.41.09c-.09-.22-1-2-2-3.57l.56.1C121.15,236,122,237.7,122,237.73Z"/><path class="cls-8" d="M150.41,252a8,8,0,0,1-3.56.45,7.1,7.1,0,0,0,.36-1q.1-.37.18-.75a5,5,0,0,0,.05-.77v-1.52c0-.51-.07-1-.11-1.52l-.06-.76c0-.26-.08-.51-.11-.76l-.25-1.51a27.55,27.55,0,0,0-.77-3c-.15-.49-.3-1-.48-1.46s-.34-1-.54-1.44l-.62-1.41-.67-1.38c-.23-.45-.47-.91-.72-1.35s-.82-.72-1.15-1.11-.44-.56-.66-.84a17.89,17.89,0,0,1,4-.62,5.81,5.81,0,0,0,.26,1.28l.67,1.49.63,1.51.57,1.53c.19.51.35,1,.52,1.55s.32,1,.46,1.57c.31,1,.54,2.11.79,3.17.11.53.2,1.07.31,1.61.05.27.1.54.14.8l.11.82c.06.54.15,1.08.21,1.63l.11,1.65c0,.27.06.55.09.82a7.86,7.86,0,0,0,.11.83C150.35,251.71,150.38,251.85,150.41,252Z"/><path class="cls-3" d="M140.23,255.83c-1.3,0-14.65-4.61-20.43-6.08-4.17-1.06-15.36-3.24-19.34-6-2.57-1.79-2.23-3.62,1-5.72-.36.27-3,2.47,3.29,5.13,6.7,2.84,23.07,5.23,25.46,6.48s18.08,4,20.33,2.31a4.39,4.39,0,0,0,2.26-2.93c0,1.45-.06,2.36-.06,2.36C155,258.06,141.54,255.83,140.23,255.83Z"/><path class="cls-5" d="M96.37,154a.59.59,0,0,1,0-.25C96.39,154.07,96.38,154.18,96.37,154Z"/><path class="cls-17" d="M142.86,143c-.61,0-27.49-2.52-36.05,1-2.82,1.15-6.35,4.95-8.25,6.95a16.24,16.24,0,0,1,7.71-9C112.05,139,130.14,141.13,142.86,143Z"/><path class="cls-18" d="M220.13,151.63a5.81,5.81,0,0,1-.94.85c-2.21,1.64-6.84,3.69-12.48,5.66l-1.23.42c-3.93,1.33-8.28,2.62-12.59,3.7a50.43,50.43,0,0,1-8.75,1.49l-1.3.06c-5.06.09-6.85-1.39-7.25-2.22-.29-.34-.57-.69-.85-1.05l-.4-.51c-.42-.55-1.45-2-1.86-2.61a20.82,20.82,0,0,0,9.27,2.18c.42,0,.86,0,1.31,0a31.62,31.62,0,0,0,6.57-.79c4.84-1.07,9.72-2.26,14.05-3.52l1.25-.37c5.26-1.6,9.58-3.32,11.77-5.1a5.94,5.94,0,0,0,.91-.89,2.22,2.22,0,0,0,.46-2.47c.84,1.43,2.11,3.56,2.11,3.56C220.74,150.45,220.69,151,220.13,151.63Z"/><path class="cls-2" d="M184.14,163.75l-1.3.06c-.41-1.39-.77-2.8-1.09-4.21.42,0,.86,0,1.31,0Q183.54,161.7,184.14,163.75Z"/><path class="cls-2" d="M206.71,158.14l-1.23.42c-.62-1.07-1.22-2.16-1.8-3.26l1.25-.37C205.5,156,206.09,157.09,206.71,158.14Z"/><path class="cls-2" d="M220.13,151.63a5.81,5.81,0,0,1-.94.85c-.8-.92-1.63-1.81-2.49-2.65a5.94,5.94,0,0,0,.91-.89C218.49,149.8,219.33,150.7,220.13,151.63Z"/><path class="cls-3" d="M228.1,152.86s5.92,2.91,3.47,13.79A23.83,23.83,0,0,0,228.1,152.86Z"/><path class="cls-3" d="M199.08,184.57s-9-1.25-13.21-6.42c0,0,7.21,3.66,10.1,4,0,0-2.31-.7-4.63-4.22,0,0,9.06,6.53,13.4,7Z"/><g class="cls-19"><path d="M135.75,174.82c9.95,3.87,20.4,6.26,30.65,9.2a1.5,1.5,0,0,0,.79-2.89c-10.24-2.94-20.69-5.34-30.64-9.2-1.8-.7-2.58,2.2-.8,2.89Z"/></g><g class="cls-19"><path class="cls-20" d="M105.36,151.08a4.1,4.1,0,0,1,2.67-2"/></g><g class="cls-19"><path class="cls-20" d="M110.66,148.24a40.42,40.42,0,0,1,24.12-.11"/></g><g class="cls-19"><path class="cls-20" d="M106,165.08a22.3,22.3,0,0,0,3.3,14.7"/></g><g class="cls-19"><path class="cls-20" d="M110.67,185.37a19.58,19.58,0,0,0,.91,7.9"/></g><g class="cls-19"><path class="cls-20" d="M124.13,223.85a15.36,15.36,0,0,0,1.58,5,7.06,7.06,0,0,0,.91,1.66,3.85,3.85,0,0,0,3.32,1.43"/></g><g class="cls-19"><path class="cls-20" d="M207.16,182.06a65.37,65.37,0,0,0,11.41-1.37A5.48,5.48,0,0,0,222,179"/></g><path class="cls-14" d="M131.08,106.75a.16.16,0,0,0,.09,0L128.58,111a5.17,5.17,0,0,1,2.12-4.57C130.88,106.64,131,106.75,131.08,106.75Z"/><path class="cls-14" d="M131.86,105.56l-.22.38.13-.32Z"/><path class="cls-14" d="M229.31,97l-.85-2a6.55,6.55,0,0,0-.59-1.11l-.28-.43A3.27,3.27,0,0,0,228,92.3,5.77,5.77,0,0,1,229.31,97Z"/><g class="cls-19"><path class="cls-11" d="M175.85,149.25a25.9,25.9,0,0,0,16.82-1.58"/></g><g class="cls-19"><path class="cls-11" d="M196.42,149.28a18.7,18.7,0,0,0,10.2-4.31"/></g><g class="cls-19"><path class="cls-11" d="M210.87,132.17h0a11.64,11.64,0,0,1-.82,4.61,26,26,0,0,1-6.31,6.9c.16-.21,5.3-6.84,6.73-12.51C210.6,131.51,210.73,131.84,210.87,132.17Z"/></g><g class="cls-19"><path class="cls-11" d="M210.74,127.2c0,.18.06.77.1,1.6a7,7,0,0,0,0-1q0-.45-.06-.57v0Z"/></g><path class="cls-13" d="M212.36,106.38c-5-5.3-9-10.22-9.18-10.45.08.3,2.15,8.09,3.58,17.21-2.34-4.38-5.63-17.09-5.55-20.68.11-4.95,2.19-1.54,2.19-1.54l10.13,14.14A12.61,12.61,0,0,0,212.36,106.38Z"/><path class="cls-14" d="M105.47,81.84a12.17,12.17,0,0,1,3.36,1.26,14.9,14.9,0,0,1,4.22,4.6"/><path class="cls-14" d="M100.46,95.93a10.19,10.19,0,0,0,4.85,1.35,1.5,1.5,0,0,0,1.5-1.5,1.53,1.53,0,0,0-1.5-1.5c-.32,0-.63,0-.94-.07l.39.05a8.73,8.73,0,0,1-2.17-.59l.36.15a8.88,8.88,0,0,1-1-.48,1.51,1.51,0,0,0-2,.53,1.53,1.53,0,0,0,.54,2.06Z"/><path class="cls-14" d="M233.9,72.65c-3.92,2.6-3,7.86-5.14,11.52a.5.5,0,0,0,.86.5c1.11-1.91,1.4-4.1,1.92-6.22.45-1.86,1.2-3.83,2.86-4.93.53-.36,0-1.22-.5-.87Z"/><path class="cls-14" d="M232.14,85.58A19.79,19.79,0,0,1,229.73,93c-.32.56.55,1.07.86.5a20.74,20.74,0,0,0,2.55-7.89c.07-.64-.93-.64-1,0Z"/><path class="cls-14" d="M227,47.4a4.22,4.22,0,0,1,2.87.14,3.54,3.54,0,0,1,.95.9l.89,1.06a12.08,12.08,0,0,1,2.6,4.49.5.5,0,0,0,1-.26,13.6,13.6,0,0,0-3-5.14,6.2,6.2,0,0,0-2.18-2.05,5.52,5.52,0,0,0-3.34-.1.5.5,0,0,0,.27,1Z"/><path class="cls-14" d="M229,45.15a5.55,5.55,0,0,1,3.21.54,6.18,6.18,0,0,1,2,1.91,18.71,18.71,0,0,1,1.4,2.75,12.39,12.39,0,0,1,1,3.15c.1.63,1.06.36,1-.27a13.51,13.51,0,0,0-1.07-3.39,16.16,16.16,0,0,0-1.64-3.07,6.8,6.8,0,0,0-2.33-2,6.53,6.53,0,0,0-3.54-.59c-.64.05-.65,1.05,0,1Z"/><path class="cls-14" d="M234,43.73a5.82,5.82,0,0,1,4.3,3A10.72,10.72,0,0,1,240,52.5c0,.64,1,.64,1,0A11.54,11.54,0,0,0,239,45.94a6.8,6.8,0,0,0-5-3.21c-.64,0-.64,1,0,1Z"/><path class="cls-14" d="M233,59.87a9,9,0,0,0,6.3-4.4.5.5,0,0,0-.86-.5,8,8,0,0,1-5.71,3.93.52.52,0,0,0-.35.62.52.52,0,0,0,.62.35Z"/><g class="cls-19"><path class="cls-11" d="M158.41,14.83a10.37,10.37,0,0,1,3.67-.62c7-.14,13.73,2.74,20.18,5.56"/></g><path class="cls-13" d="M185.88,19.26S187.15,14,181,11.19c0,0,3.21,4,3.27,6.41,0,0-3.65-4.75-9.4-4.31,0,0,6.19,2.76,7.68,4.81A2.69,2.69,0,0,0,185.88,19.26Z"/><path class="cls-14" d="M161.12,37.53s5.39-.16-2.24,4.94C158.88,42.47,162.49,38.35,161.12,37.53Z"/><g class="cls-21"><path class="cls-20" d="M133.62,247.57a4.87,4.87,0,0,0,2.36.84l4.23.72a4.47,4.47,0,0,0,2.24,0,1.56,1.56,0,0,0,1.11-1.73"/></g><g class="cls-21"><path class="cls-20" d="M103.58,237.28c-.75,0-1.7.41-1.52,1.32s1.45,1.4,2.26,1.71c2.12.81,4.29,1.52,6.47,2.16a.45.45,0,0,0,.24-.86q-2.43-.74-4.82-1.57a22.85,22.85,0,0,1-2.31-.87c-.26-.13-.87-.36-.94-.68s.41-.31.62-.31a.45.45,0,0,0,0-.9Z"/></g></g></g></svg>