<svg xmlns="http://www.w3.org/2000/svg" xmlns:xlink="http://www.w3.org/1999/xlink" viewBox="0 0 750 1125"><defs><style>.cls-1,.cls-16{fill:#ffcf87;}.cls-1,.cls-21{stroke:#ffcf87;}.cls-1,.cls-10,.cls-21,.cls-24,.cls-25,.cls-26,.cls-27,.cls-28,.cls-3,.cls-32,.cls-33,.cls-37,.cls-38,.cls-4,.cls-40,.cls-44,.cls-45,.cls-5,.cls-50,.cls-52,.cls-53,.cls-55,.cls-56,.cls-58,.cls-61{stroke-linecap:round;stroke-linejoin:round;}.cls-1,.cls-18,.cls-21,.cls-25,.cls-26,.cls-27,.cls-28,.cls-64,.cls-66{stroke-width:5px;}.cls-2,.cls-50{fill:#457c9a;}.cls-3,.cls-34{fill:#d1b178;}.cls-3,.cls-32,.cls-33,.cls-37,.cls-38,.cls-4,.cls-40,.cls-44,.cls-45,.cls-5{stroke:#291e1e;}.cls-3,.cls-32,.cls-33,.cls-37,.cls-38,.cls-4,.cls-40,.cls-44,.cls-45,.cls-49,.cls-5,.cls-50,.cls-52,.cls-54,.cls-55,.cls-57,.cls-58,.cls-59,.cls-60,.cls-61,.cls-62{stroke-width:2px;}.cls-4,.cls-41{fill:#376f92;}.cls-46,.cls-5{fill:#ffc266;}.cls-6,.cls-66{fill:#d59c7f;}.cls-18,.cls-21,.cls-26,.cls-37,.cls-38,.cls-40,.cls-44,.cls-45,.cls-52,.cls-53,.cls-54,.cls-7{fill:none;}.cls-8{fill:#f1f7ff;}.cls-10,.cls-24,.cls-25,.cls-9{fill:#fff;}.cls-10,.cls-24,.cls-9{stroke:#457c9a;}.cls-18,.cls-49,.cls-54,.cls-57,.cls-59,.cls-60,.cls-62,.cls-64,.cls-66,.cls-9{stroke-miterlimit:10;}.cls-10,.cls-9{stroke-width:7px;}.cls-11{fill:#d7e0ec;}.cls-12{fill:#64b3ad;}.cls-13{fill:#21777d;}.cls-14{fill:#7dc4c0;}.cls-15{fill:#2a878e;}.cls-17{clip-path:url(#clip-path);}.cls-18{stroke:#fff;}.cls-19{fill:#d4a157;}.cls-20{fill:#bf760a;opacity:0.31;}.cls-22{clip-path:url(#clip-path-2);}.cls-23{fill:#315a70;}.cls-24{stroke-width:15px;}.cls-25{stroke:#d1d1d1;}.cls-26,.cls-27{stroke:#86a9bd;}.cls-27,.cls-29{fill:#86a9bd;}.cls-28{fill:#acd1e3;stroke:#acd1e3;}.cls-30{fill:#d6d4d2;}.cls-31{fill:#c7c1bc;}.cls-32,.cls-49,.cls-51,.cls-55,.cls-56{fill:#ffdbd1;}.cls-33{fill:#594424;}.cls-35{clip-path:url(#clip-path-3);}.cls-36{fill:#a88a57;}.cls-38{stroke-dasharray:3;}.cls-39{clip-path:url(#clip-path-4);}.cls-40{stroke-dasharray:3.31 3.31;}.cls-42{clip-path:url(#clip-path-5);}.cls-43{fill:#265a7a;}.cls-44{stroke-dasharray:12.23 12.23;}.cls-45{stroke-dasharray:11.71 11.71;}.cls-47{clip-path:url(#clip-path-6);}.cls-48{fill:#d9a252;}.cls-49,.cls-50,.cls-52,.cls-53,.cls-54,.cls-55,.cls-56,.cls-57,.cls-58,.cls-59,.cls-60,.cls-61,.cls-62{stroke:#493437;}.cls-57{fill:#291e1e;}.cls-58{fill:#1a1313;}.cls-59{fill:#9c280e;}.cls-60{fill:#493437;}.cls-61{fill:#ffbeac;}.cls-62{fill:#ff9d82;}.cls-63{clip-path:url(#clip-path-7);}.cls-64{fill:#a17158;}.cls-64,.cls-66{stroke:#d59c7f;}.cls-65{clip-path:url(#clip-path-8);}.cls-67{fill:#52b5a9;}.cls-68{clip-path:url(#clip-path-9);}.cls-69{fill:#71c6bd;}</style><clipPath id="clip-path"><path class="cls-1" d="M703.53,1019.17a416.52,416.52,0,0,0,2.86-256.85H628.21a416.32,416.32,0,0,0,2.86,256.85Z"/></clipPath><clipPath id="clip-path-2"><polygon class="cls-2" points="514.55 977.7 514.55 505.47 421.62 505.47 421.62 977.7 316.43 1003.17 316.43 1024.28 421.62 1024.28 514.55 1024.28 619.75 1024.28 619.75 1003.17 514.55 977.7"/></clipPath><clipPath id="clip-path-3"><path class="cls-3" d="M212,1020.19s-7.15,12-8.68,13-13.53-.25-13.53-.25,2,15.57,3.06,16.59-3.32,19.15.77,24.26c1,1.53,27.32.51,27.32.51l-.51-4.09,13.78.77,4.34,3.57s30.39.26,37.28,0,13.79-6.63,13.79-6.63,1.27-16.34-16.09-16.09c0,0-32.42-15.57-39.32-17.36L228.85,1012Z"/></clipPath><clipPath id="clip-path-4"><path class="cls-3" d="M110.64,1032.45s-.26,10.21-1.79,12.25-7.66,0-7.66,0l-.51,32.68,1.53,5.11h52.85s2.3-16.09-7.66-19.92l-5.61-.51s-4.85-17.87-5.36-33.7S110.64,1032.45,110.64,1032.45Z"/></clipPath><clipPath id="clip-path-5"><path class="cls-4" d="M182.64,998.74,187,997s-14.89-85-6.13-124.09c0,0,2.81-14.81,2.81-17.87S175,731.68,175,731.68l-12.77,5.11S158.89,840.32,152.77,865c0,0-2.56,19.15-6.13,23l-7.41,120.25,3.32-.25s.77,18.12-.25,18.12-17.62,15.07-45.19,6.39c0,0-6.13-19.66-4.6-23.24.94-1.27,7.66-1.27,7.66-1.27S83.83,917.81,94.3,889.47l5.36-17.62-2.3-133.79,5.36-28.59,123.83,6.13,9.71,5.36s-.52,124.08-2,133.78,1.19,19.58-5.1,33.88L227.74,993l1.88.17s1.27,15.57.25,18.64-17.61,15.32-44.17,7.66c0,0-3.57-12-3.06-19.92"/></clipPath><clipPath id="clip-path-6"><path class="cls-5" d="M204.43,433.64s5.44,6.47,2.38,12.25-4.43,3.75-4.09,6.47,1.37,10.55,4.43,11.92,22.81,7.83,36.76,19.4,48,38.47,52.43,40.17,42.89-37.79,44.6-38.81,18,7.83,24.17,18c0,0-33.71,49-51.75,59.57s-30,2.72-32.68,1.36-41.53-18-41.53-18-3.41,70.13-1,109.28,2.38,61.61,1,68.42-149.79-.34-149.79-.34-.68-54.81,1.7-79.32c0,0-33.7-10.89-43.91-30s23.49-102.8,43.91-126.29,29.62-22.81,37.45-24.86,10.89-1,12.94-2.38,5.78-11.23,4.76-12.59-6.81-8.51-5.44-11.24,4.08-5.1,6.12-4.08S204.43,433.64,204.43,433.64Z"/></clipPath><clipPath id="clip-path-7"><rect class="cls-6" x="36.6" y="731.17" width="27.57" height="355.4"/></clipPath><clipPath id="clip-path-8"><rect class="cls-6" x="528.85" y="731.17" width="27.57" height="355.4"/></clipPath><clipPath id="clip-path-9"><rect class="cls-7" x="828.09" y="-25.6" width="487.15" height="353.36"/></clipPath></defs><title>我想要的2021</title><g id="_111" data-name="111"><g id="图层_9" data-name="图层 9"><rect class="cls-8" x="-3.23" y="-3.13" width="765.96" height="1135.15"/><g id="钟"><circle class="cls-9" cx="50.61" cy="145.3" r="87.32"/><circle class="cls-2" cx="50.61" cy="78.23" r="6.3"/><circle class="cls-2" cx="50.61" cy="212.36" r="6.3"/><circle class="cls-2" cx="117.67" cy="145.3" r="6.3"/><circle class="cls-2" cx="108.69" cy="111.77" r="3.74"/><circle class="cls-2" cx="17.08" cy="203.38" r="3.72"/><circle class="cls-2" cx="84.15" cy="87.22" r="3.74"/><circle class="cls-2" cx="108.69" cy="178.82" r="3.74"/><circle class="cls-2" cx="17.09" cy="87.21" r="3.72"/><circle class="cls-2" cx="84.15" cy="203.36" r="3.74"/><polyline class="cls-10" points="75.61 136.39 49.53 145.3 78.81 191.25"/></g><rect class="cls-11" x="149.94" y="194.49" width="491.23" height="360.51"/><polygon class="cls-11" points="442.02 553.81 349.08 553.81 349.08 1014.38 243.89 1039.96 243.89 1074.83 349.08 1074.83 442.02 1074.83 547.21 1074.83 547.21 1039.96 442.02 1014.38 442.02 553.81"/><path class="cls-11" d="M679.74,448.28c-36.43,21.43-67.35,55.81-86.28,95.92L619.83,562,583,570.67a201.1,201.1,0,0,0-7.9,35.22l27,18.39L574.05,647c1.89,30.21,9.13,57.5,23.86,82.28-3.79,22.6-6.15,43.36-6,59.69H576.14a3.77,3.77,0,0,0,0,7.53h1.78a416.74,416.74,0,0,0,4.89,250.21h72.46A409,409,0,0,0,677,914a411.8,411.8,0,0,0-16.86-117.45h1.77a3.77,3.77,0,1,0,0-7.53H648.61c-.14-5.51-.38-12.22-.68-19.73,7.24-7.07,24.74-25.27,33.52-43.89,0,0,.34-9.87-.12-25.44l-15.54-3.83,13.9-25.9c-.77-9.49-1.84-19.72-3.33-30.28a264.52,264.52,0,0,0,12.86-49.76l-33-7.08,36.5-19.56C698.05,515.27,693.57,506.93,679.74,448.28ZM601.48,789c.25-21,.23-24.69,5.22-57.78q2.67-2.06,5.25-4.13c-.12,2-.12,8.65,3.61,17.84l18.23,6-9.6,9.22a105.46,105.46,0,0,0,18.59,19.15c0,3.76,0,7-.06,9.72Z"/><path class="cls-12" d="M714,668.53,728,642.63a460.86,460.86,0,0,0-8.8-60.91c-12.6-57.19-69.79,59.92-69.79,59.92l10.9,57.19s-1,7.36,3.55,18.52l18.23,6-9.59,9.22A107.26,107.26,0,0,0,692.6,753l.34-8.17s25.53-23.15,36.76-47c0,0,.34-9.87-.12-25.45Z"/><path class="cls-13" d="M689.53,611.68S697,741.38,697,771l-6.13-1S691.91,681.81,689.53,611.68Z"/><path class="cls-14" d="M675.91,632.45l42.15-4.54c9.3-19.68,15.44-41.23,19.41-65.32l-33-7.08L741,536c5.3-48.26.82-56.6-13-115.26-36.43,21.43-67.36,55.81-86.28,95.92l26.37,17.78-36.81,8.69a201.33,201.33,0,0,0-7.91,35.22l27,18.39-28.07,22.75c2,32.59,10.28,61.78,27.46,88.09,24.61-18,42.94-37.18,56.57-58.47C694.56,642.75,675.91,632.45,675.91,632.45Z"/><path class="cls-15" d="M694.81,506s-56.68,182.64-54.64,258.55l9.53-.68c.34-26.89,0-26.21,8.17-79.32C665.23,636.71,670.64,607.43,694.81,506Z"/><path class="cls-16" d="M703.53,1019.17a416.52,416.52,0,0,0,2.86-256.85H628.21a416.32,416.32,0,0,0,2.86,256.85Z"/><g class="cls-17"><path class="cls-18" d="M603.34,819s62.54,10.72,115.14-33.7"/><path class="cls-18" d="M729.67,828.19s-65,20.94-119.7-3.57"/><path class="cls-18" d="M602.93,843.51s53.43,46,127.15,43.4"/><path class="cls-18" d="M601.27,921.13S663.4,941,730.5,891"/><path class="cls-18" d="M608.31,946.15s30.65,38.3,121.77,8.68"/><path class="cls-18" d="M613.28,961.47s26.09,36.25,101.48,32.17"/><rect class="cls-19" x="618.77" y="761.55" width="97.06" height="12.4" rx="6.2"/><path class="cls-20" d="M617.84,792.45s-3,162.72,41.69,230.46c20.71,31.37-57.16,12.26-57.16,12.26L576.14,911.26,610.66,801Z"/></g><path class="cls-21" d="M703.53,1019.17a416.52,416.52,0,0,0,2.86-256.85H628.21a416.32,416.32,0,0,0,2.86,256.85Z"/><rect class="cls-1" x="620.63" y="761.43" width="93.33" height="7.53" rx="3.77"/><g id="大电视"><polygon class="cls-2" points="514.55 977.7 514.55 505.47 421.62 505.47 421.62 977.7 316.43 1003.17 316.43 1024.28 421.62 1024.28 514.55 1024.28 619.75 1024.28 619.75 1003.17 514.55 977.7"/><g class="cls-22"><polygon class="cls-23" points="555.4 483 532.94 528.96 392 572.87 388.94 454.4 555.4 479.94 555.4 483"/></g><rect class="cls-24" x="222.47" y="143.94" width="491.23" height="360.51"/><path d="M393.21,250.36H379.46l-.65,5.47H365.13l1.73-12.31h41l-3.46,24.63H375.64l-1.29,9.57h26l3.1-2.74-1.37,9.58H366a4.1,4.1,0,0,1-4.25-4.89l2.59-18.37h27.29Z"/><path d="M422.23,248.49a5.74,5.74,0,0,1,5.61-4.9h36.08l-5,36.08a5.92,5.92,0,0,1-1.95,3.49,5.38,5.38,0,0,1-3.67,1.4H417.19Zm13.46,1.87-3.89,27.36h13.61l3.89-27.36Z"/><path d="M504.81,250.36H491.06l-.65,5.47H476.73l1.73-12.31h41L516,268.15H487.24L486,277.72h26L515,275l-1.37,9.58H477.59a4.1,4.1,0,0,1-4.24-4.89l2.59-18.37h27.29Z"/><path d="M533.83,248.49a5.72,5.72,0,0,1,5.61-4.9h36.07l-5,36.08a5.91,5.91,0,0,1-1.94,3.49,5.4,5.4,0,0,1-3.67,1.4H528.79Zm13.46,1.87-3.89,27.36H557l3.89-27.36Z"/><path d="M341.59,367.78l1.37-9.57h-6.84l8.71-18.43-1.73-2.09h16.42l-1.3,2.73H396l-.94,6.84H378.67l-.94,6.84h15l-1,6.84h-15l-.93,6.84h19.15l-.94,6.85H374.78l-2.09,14.9H359l2.09-14.9H333.81l.94-6.85Zm10.15-13.68h12.31l.94-6.84H355Zm3.46,13.68h6.91l.93-6.84H356.2Z"/><path d="M422.73,388.23l-20.66,1.23.93-6.7,20.67-1.37Zm-16-32.83,9.43-14.62L414.6,339h15L419.13,355.4h8.21l-10.51,16.42H425l-.94,6.84H403.58l.94-6.84,6.12-9.58h-4.83Zm54.07,34-35.06-2.66.86-6.34,35.06,2.81ZM452,369.08l-5.25-4.61-8.07,4.61H426.76l1-6.84h7.92l5.19-2.95-2.74-2.52h-9.79l8.78-16.56L435,337.83h14.33l-2.09,4H466l-1.8,12.6-10,5.76,2.37,2h8.07l-1,6.91Zm7.42,10.8-30.89-2.45.94-6.76,31,2.44Zm-15.55-31.61-1.08,2,5.54,4.75,6.77-4,.36-2.81Z"/><path d="M482.2,388.3H471.26l5.62-20.52h10.94Zm19.95-45.14H513l2.52-3.74-1.59-1.8H530.3l-3.67,5.54h8.42l-2.88,20.52H477.45l2.45-17.78-2.3-2.74h10.87l-2-5.54H500.2ZM486.31,388.3l3-21.88h12.31l-1.87,13.68h16.42l3.09-2.74-1.51,10.94ZM520.36,350H493l-.93,6.84h27.36Zm-15,15.05h10.87l-.36,12.31H505Zm15.33,2.73h11l-.15,20.52H520.51Z"/><path d="M561.91,386.79l-22.11,1.44.94-6.84L562.92,380Zm-17.28-32.61,9.86-14.62-1.73-1.8h16l-11,16.42h8.71l-11,16.41h8.78l-.93,6.84H541.39l.93-6.84L548.8,361h-5.11Zm55.51,12.16-3,21.75H564.43l3-21.75Zm-19.3-23,.44-2.88-2.38-2.73h14.83l-.79,5.61h11.81l-.94,6.85H592l-.86,5.83h10.58l-1,6.84H568l1-6.84h10l.87-5.83H568.32l.93-6.85Zm6.34,38,1.15-8.28H577.39l-1.15,8.28Z"/></g><g id="电脑"><rect class="cls-25" x="285.66" y="880.9" width="58.34" height="57.48"/><path class="cls-26" d="M368.26,739.09V931.64a29,29,0,0,1-15.42,25.93c-6.73,3.47-15.37,4.62-25.29-1.47a29.13,29.13,0,0,1-13.68-24.91v-12.1"/><rect class="cls-27" x="303.19" y="901.64" width="23.28" height="19.54" transform="translate(629.66 1822.82) rotate(180)"/><polygon class="cls-27" points="480.34 685.98 315.72 685.98 366.21 567.82 530.83 567.82 480.34 685.98"/><polygon class="cls-28" points="482.89 680.11 324.6 680.11 372.6 567.77 530.89 567.77 482.89 680.11"/><path class="cls-27" d="M447.18,701.67l-5.82-55.78H389.79L395,695.42a10.75,10.75,0,0,1-10.69,11.84H346.72v10.21h68.94v-1.79h18.85A12.73,12.73,0,0,0,447.18,701.67Z"/><rect class="cls-29" x="382.81" y="642.32" width="72.34" height="6.13" rx="3.06"/><path class="cls-28" d="M452.56,703.37l-5.75-57H395.23L400.14,695a14.82,14.82,0,0,1-14.75,16.31H347.23v10.21h74v-1.79h16.54A14.81,14.81,0,0,0,452.56,703.37Z"/></g><rect id="ground" class="cls-30" x="-5.53" y="1018.66" width="780.51" height="114.89"/></g><g id="图层_8" data-name="图层 8"><ellipse class="cls-31" cx="167.57" cy="1092.57" rx="130.21" ry="51.7"/><polygon class="cls-32" points="191.06 1019.94 193.87 1043.43 210.47 1041.89 211.23 1018.66 191.06 1019.94"/><path class="cls-33" d="M288.72,1066.51l-52.85,4.88v7.25h40.05a16.41,16.41,0,0,0,5.53-1.28c4.68-1.79,6.64-3.06,8.93-5.23Z"/><polygon class="cls-33" points="220.81 1072.78 193.36 1075.32 193.36 1078.64 220.81 1078.64 220.81 1072.78"/><path class="cls-34" d="M212,1020.19s-7.15,12-8.68,13-13.53-.25-13.53-.25,2,15.57,3.06,16.59-3.32,19.15.77,24.26c1,1.53,27.32.51,27.32.51l-.51-4.09,13.78.77,4.34,3.57s30.39.26,37.28,0,13.79-6.63,13.79-6.63,1.27-16.34-16.09-16.09c0,0-32.42-15.57-39.32-17.36L228.85,1012Z"/><g class="cls-35"><path class="cls-36" d="M202.43,1029.26s3.83,21.83,5,23.74,4.22,10.09,8.43,13.66a112.37,112.37,0,0,1,8.55,8.3l-10.72,22.21-39.19-30.77-3.07-36.89Z"/></g><path class="cls-37" d="M212,1020.19s-7.15,12-8.68,13-13.53-.25-13.53-.25,2,15.57,3.06,16.59-3.32,19.15.77,24.26c1,1.53,27.32.51,27.32.51l-.51-4.09,13.78.77,4.34,3.57s30.39.26,37.28,0,13.79-6.63,13.79-6.63,1.27-16.34-16.09-16.09c0,0-32.42-15.57-39.32-17.36L228.85,1012Z"/><path class="cls-37" d="M273.53,1051.85s-14.55,7.41-12.51,16.6"/><path class="cls-37" d="M223.74,1026.57s2,13.79,17.11,20.17,24,9.45,24,9.45"/><path class="cls-38" d="M193.87,1046.49s14.3-1.28,30.9-10.47"/><polygon class="cls-32" points="102.98 1029.38 105.79 1052.87 122.38 1051.34 123.15 1028.11 102.98 1029.38"/><path class="cls-34" d="M110.64,1032.45s-.26,10.21-1.79,12.25-7.66,0-7.66,0l-.51,32.68,1.53,5.11h52.85s2.3-16.09-7.66-19.92l-5.61-.51s-4.85-17.87-5.36-33.7S110.64,1032.45,110.64,1032.45Z"/><g class="cls-39"><path class="cls-36" d="M108.09,1036.4s1.4,35.75,3.06,38.3,16.47,14.3,16.47,14.3l-47.88,2.55v-38.81l14.43-19.65Z"/></g><path class="cls-37" d="M110.64,1032.45s-.26,10.21-1.79,12.25-7.66,0-7.66,0l-.51,32.68,1.53,5.11h52.85s2.3-16.09-7.66-19.92l-5.61-.51s-4.85-17.87-5.36-33.7S110.64,1032.45,110.64,1032.45Z"/><path class="cls-37" d="M118.3,1073.55s2.55-12,23.23-10.72"/><path class="cls-37" d="M121.36,1035.26V1047s6.13,13.79,7.15,15.06"/><path class="cls-37" d="M124.94,1046s6.63-1.28,9.95-.26"/><path class="cls-37" d="M101.45,1050.32a6.26,6.26,0,0,0,1.4.5"/><path class="cls-40" d="M106.12,1051.25a30.12,30.12,0,0,0,11.3-2.27"/><path class="cls-37" d="M119,1048.36c.45-.18.91-.38,1.38-.59"/><rect class="cls-33" x="101.77" y="1081.21" width="53.11" height="4.79"/><path class="cls-41" d="M182.64,998.74,187,997s-14.89-85-6.13-124.09c0,0,2.81-14.81,2.81-17.87S175,731.68,175,731.68l-12.77,5.11S158.89,840.32,152.77,865c0,0-2.56,19.15-6.13,23l-7.41,120.25,3.32-.25s.77,18.12-.25,18.12-17.62,15.07-45.19,6.39c0,0-6.13-19.66-4.6-23.24.94-1.27,7.66-1.27,7.66-1.27S83.83,917.81,94.3,889.47l5.36-17.62-2.3-133.79,5.36-28.59,123.83,6.13,9.71,5.36s-.52,124.08-2,133.78,1.19,19.58-5.1,33.88L227.74,993l1.88.17s1.27,15.57.25,18.64-17.61,15.32-44.17,7.66c0,0-3.57-12-3.06-19.92"/><g class="cls-42"><path class="cls-43" d="M114.55,741.72s1,117.11-3.74,135.49-7.15,50-2,75.92,6.12,63,6.12,63-5.78,3.74,1,18.38-54.8,4.42-54.8,4.42L71.32,906.49l22.47-172.6Z"/><path class="cls-43" d="M188.43,733.55s7.83,102.81,10.21,116.77-3.07,22.47-3.41,23.83-7.49,45.62,2.73,91.57,2,34.39,2,34.39-3.06,18.38,2.38,26.89-31-6.81-31-6.81l-3.06-131.74V728.11Z"/></g><path class="cls-37" d="M182.64,998.74,187,997s-14.89-85-6.13-124.09c0,0,2.81-14.81,2.81-17.87S175,731.68,175,731.68l-12.77,5.11S158.89,840.32,152.77,865c0,0-2.56,19.15-6.13,23l-7.41,120.25,3.32-.25s.77,18.12-.25,18.12-17.62,15.07-45.19,6.39c0,0-6.13-19.66-4.6-23.24.94-1.27,7.66-1.27,7.66-1.27S83.83,917.81,94.3,889.47l5.36-17.62-2.3-133.79,5.36-28.59,123.83,6.13,9.71,5.36s-.52,124.08-2,133.78,1.19,19.58-5.1,33.88L227.74,993l1.88.17s1.27,15.57.25,18.64-17.61,15.32-44.17,7.66c0,0-3.57-12-3.06-19.92"/><path class="cls-37" d="M96.51,1012.36s18.72,9.36,42.72-1.36"/><path class="cls-37" d="M185.7,1000.28s25.87,8.68,41.87-4.6"/><path class="cls-37" d="M113.19,744.11l0,6"/><path class="cls-44" d="M113.24,762.33c.1,33.31.29,100.83.29,102.63,0,2.38-10.21,37.78-7.15,63,2.2,18,5.79,53.19,7.65,71.69"/><path class="cls-37" d="M114.64,1005.71c.38,3.76.59,6,.59,6"/><path class="cls-37" d="M189.45,744.11s.18,2.19.48,6"/><path class="cls-45" d="M190.87,761.76c2.55,32,7.6,96.39,7.09,99.45-.68,4.09-9.53,31.66-4.43,72.85,3.05,24.59,5.13,43.6,6.31,54.93"/><path class="cls-37" d="M200.44,994.82c.39,3.9.58,6,.58,6"/><path class="cls-46" d="M204.43,433.64s5.44,6.47,2.38,12.25-4.43,3.75-4.09,6.47,1.37,10.55,4.43,11.92,22.81,7.83,36.76,19.4,48,38.47,52.43,40.17,42.89-37.79,44.6-38.81,18,7.83,24.17,18c0,0-33.71,49-51.75,59.57s-30,2.72-32.68,1.36-41.53-18-41.53-18-3.41,70.13-1,109.28,2.38,61.61,1,68.42-149.79-.34-149.79-.34-.68-54.81,1.7-79.32c0,0-33.7-10.89-43.91-30s23.49-102.8,43.91-126.29,29.62-22.81,37.45-24.86,10.89-1,12.94-2.38,5.78-11.23,4.76-12.59-6.81-8.51-5.44-11.24,4.08-5.1,6.12-4.08S204.43,433.64,204.43,433.64Z"/><g class="cls-47"><path class="cls-48" d="M158.64,436s-6.38,5.24-4.73,11.87a28.31,28.31,0,0,1,0,14.05c-.51,1.4-4.34,5-4.34,5s-18.76.13-25.27,4.35S79,494.74,59.06,603.51c0,0-.34,3.23,3.07,6.64s8.85,14.81,70.64,38l-1.37,6.8s-35-7.4-46.63-11.91S43,631.26,43,631.26L49.87,478.4,112.68,436l42.38-14.3Z"/><path class="cls-48" d="M238.81,548.7l-.51-20.93s46.81,22.63,57,24.68,43.91-31.32,52.42-38.81,15.66-18,15.66-18L377,518.06l-52.76,74.22Z"/><path class="cls-48" d="M115.91,610.66s1.37-70.13,3.75-79.66-2.19.06-2.19.06S99,581.89,99.15,590.23s-1,8.94.51,9.79S115.91,610.66,115.91,610.66Z"/><path class="cls-48" d="M110.64,650.23s.17,42.47,20.25,75.49c27.93,45.91-53.32-6.81-53.32-6.81l7-75.19,5.87.9s15.83,4.72,20.17,5.61"/><path class="cls-48" d="M163.91,451.68s19.75,6.81,44.26-2.55c19.06-7.28-2.89,8-2.89,8S181.45,462.23,163.91,451.68Z"/><path class="cls-48" d="M240.34,617.3S231.66,722,219.4,739.6,281.7,733,281.7,733l-6.89-69.7Z"/></g><path class="cls-37" d="M204.43,433.64s5.44,6.47,2.38,12.25-4.43,3.75-4.09,6.47,1.37,10.55,4.43,11.92,22.81,7.83,36.76,19.4,48,38.47,52.43,40.17,42.89-37.79,44.6-38.81,18,7.83,24.17,18c0,0-33.71,49-51.75,59.57s-30,2.72-32.68,1.36-41.53-18-41.53-18-3.41,70.13-1,109.28,2.38,61.61,1,68.42-149.79-.34-149.79-.34-.68-54.81,1.7-79.32c0,0-33.7-10.89-43.91-30s23.49-102.8,43.91-126.29,29.62-22.81,37.45-24.86,10.89-1,12.94-2.38,5.78-11.23,4.76-12.59-6.81-8.51-5.44-11.24,4.08-5.1,6.12-4.08S204.43,433.64,204.43,433.64Z"/><path class="cls-37" d="M118.64,528.28s-19.75,54.46-19.75,60.93v10.9"/><path class="cls-37" d="M86.64,595.68s-6.13,4.43-7.49,6.13,16.34-5.45,22.13-.34S144.51,625,148.6,630.06s-2.73,6.81-2.73,6.81-15.32,12.6-14,16.68-25.19-4.08-40.85-9.53"/><path class="cls-49" d="M149.45,633s21.44.89,25.4,6.38a21.68,21.68,0,0,1-3.76,16.15c-1.66,2.17-3.72,4.64-10.15,6.7-4.51,1.45-24.85-5.1-28.9-10.17C132,647.3,149.45,633,149.45,633Z"/><rect class="cls-50" x="160.94" y="616.28" width="10.13" height="33.62" transform="translate(338.78 1.82) rotate(30)"/><path class="cls-51" d="M153.36,636.53s12.68,2.73,17.45,2.81-7.49,15.92-7.49,15.92L150,651.6Z"/><path class="cls-52" d="M154.38,636.7s10.22,2.3,15,1.87"/><path class="cls-53" d="M169.45,644.19s-1.62,8.9-6.3,13.07"/><path class="cls-54" d="M174.85,639.38a21.68,21.68,0,0,1-3.76,16.15c-1.66,2.17-5.43,6.26-10.15,6.7"/><path class="cls-49" d="M342,486.06s.51-9,10.21-19.4c3.41-3.65,6.28-6.29,7.68-7.54a2.07,2.07,0,0,1,2.59-.19,1,1,0,0,1,.45,1.26c-.51,1.53-5.95,13.45-5.95,14.13s12.08-7,21.3-21.26a3.23,3.23,0,0,1,4.38-1,2.23,2.23,0,0,1,.56.5c.39.19,1.8-3.76,3.37-4.9a2,2,0,0,1,3.28,1.28c4.89-1.19,3.06,4,2,9.1a2.4,2.4,0,0,1,3.06,2.22c.34,2.89-2.55,13.87-10.38,22.55S368.6,498.15,362.3,500,342,486.06,342,486.06Z"/><path class="cls-55" d="M356.6,476.7s.59,5.7-2.13,9.87"/><path class="cls-56" d="M369,469.72s9.62,2.64,13.79,8.17"/><path class="cls-56" d="M383.06,453.26s-5.7,11.87-8.59,14.59"/><path class="cls-56" d="M390.85,459.13s-4,12-7.36,15.27"/><path class="cls-56" d="M390,448.11a83.83,83.83,0,0,1-10.72,22.21"/><path class="cls-57" d="M138.55,339.34s-14.12-1.7-18.38-3.57-15.66-16.34-.17-25.2c0,0,6.81-16.85,24.34-6.29s3.75,27.23,3.75,27.23Z"/><path class="cls-58" d="M137.36,309.38s5.28,3.58,5.28,11.58"/><path class="cls-58" d="M119,321.47s6.13,5.27,12.25,5.44"/><path class="cls-58" d="M127.49,307.85s-8.17,1.87-10.55,4.77"/><path class="cls-59" d="M133.49,345.89s-7.92-6.51-8.3-8.68,17.11-16.85,27.7-15.83,5,8.94,5,8.94Z"/><path class="cls-49" d="M212,368.11s7.81,41.72-8.43,66.63c-14.8,22.73-50.29,3.83-51.57,2.56a60.81,60.81,0,0,1-14.18-18.53c-3.86-4.37-10.16-4.54-11.86-13.9-.62-3.38,2.38-5.61,5-5.93-4.37-16.19-7.16-33-1.17-41.81,7.15-10.47,31.4-41.87,55.66-25S212,368.11,212,368.11Z"/><path class="cls-52" d="M196.77,383.26s7.66.85,13.1,5.61"/><path class="cls-52" d="M176.68,385.3a22,22,0,0,0-16.17,5.27"/><path class="cls-52" d="M207.22,396.59s-6.49-1.79-8.66,2.61"/><circle class="cls-60" cx="201.19" cy="400.11" r="2.89"/><circle class="cls-60" cx="171" cy="401.51" r="2.89"/><path class="cls-61" d="M163.49,399.32s4.4-2.23,8.17-.7"/><path class="cls-52" d="M190.64,408s2.64,5.06,1.19,7.62c-1.06,1.87-3.74.59-3.74.59"/><path class="cls-62" d="M179.7,424.54a34.17,34.17,0,0,0,9.61,1,1.18,1.18,0,0,1,1.17,1.64c-.87,2-2.62,4.93-5.46,5.43-3.73.66-6.2-3.09-6.77-6.74A1.19,1.19,0,0,1,179.7,424.54Z"/><path class="cls-57" d="M179.74,348.19s3.41-5.45,8.52-.68,4.59,17.36,26.38,39.83c0,0,3.74.34,4.93-4.6s3.75-24.85-7.14-38.63-21.58-15.45-25.83-18a30,30,0,0,0-10.6-4.3c-2.83-.59-10.38-1-12.77.68s-5.44,1-5.95,1-30.17,6.55-40,48.51c-6.46,27.55-3.92,38.3,2.55,43.75s11.57,5.78,15,4.93,3-1.93,3-1.93l-9.56-19.3s2.38-2.73,7.65-.64c7.11,1.39,17.55-5.34,29-19.83C175.32,365.89,175.83,358.91,179.74,348.19Z"/><path class="cls-55" d="M130.81,398.49a5.65,5.65,0,0,0-4.85,6.38c1.7,9.36,8,9.53,11.86,13.9"/><path class="cls-51" d="M132,399c-2.62.31-5.7,2.26-5.09,5.65,1.71,9.36,8,9.53,11.87,13.9l2.78-.72Z"/><path class="cls-55" d="M137.32,415.63a21.61,21.61,0,0,0,1.47,4.88"/><path class="cls-58" d="M170.21,327.77s9,4.42,12.94,10.72"/></g><g id="图层_10" data-name="图层 10"><g id="桌子"><rect class="cls-6" x="36.6" y="731.17" width="27.57" height="355.4"/><g class="cls-63"><polygon class="cls-64" points="21.28 736.28 80.51 733.21 67.23 776.11 23.32 793.47 21.28 736.28"/></g><rect class="cls-6" x="528.85" y="731.17" width="27.57" height="355.4"/><g class="cls-65"><polygon class="cls-64" points="513.53 736.28 572.77 733.21 559.49 776.11 515.57 793.47 513.53 736.28"/></g><rect class="cls-66" x="-7.32" y="715.85" width="624" height="29.62"/></g></g></g><g id="_333" data-name="333"><g id="图层_11" data-name="图层 11"><g id="图层_13" data-name="图层 13"><circle class="cls-67" cx="141.79" cy="1278.83" r="158.55"/></g></g></g><g id="图层_25" data-name="图层 25"><g class="cls-68"><circle class="cls-69" cx="875.7" cy="208.15" r="127.4"/></g></g></svg>