<?xml version="1.0" encoding="utf-8"?>
<!-- Generator: Adobe Illustrator 23.0.0, SVG Export Plug-In . SVG Version: 6.00 Build 0)  -->
<svg version="1.1" id="图层_1" xmlns="http://www.w3.org/2000/svg" xmlns:xlink="http://www.w3.org/1999/xlink" x="0px" y="0px"
	 viewBox="0 0 300 300" style="enable-background:new 0 0 300 300;" xml:space="preserve">
<style type="text/css">
	.st0{opacity:0.3;}
	.st1{fill:url(#SVGID_1_);}
	.st2{fill:url(#SVGID_2_);}
	.st3{fill:url(#SVGID_3_);}
	.st4{fill:url(#SVGID_4_);}
	.st5{fill:url(#SVGID_5_);}
	.st6{fill:url(#SVGID_6_);}
	.st7{fill:#ECF3F8;}
	.st8{fill:#1B4885;}
	.st9{enable-background:new    ;}
	.st10{clip-path:url(#SVGID_8_);enable-background:new    ;}
	.st11{clip-path:url(#SVGID_10_);enable-background:new    ;}
	.st12{fill:#225CA8;}
	.st13{fill:#2159A3;}
	.st14{fill:#20569E;}
	.st15{clip-path:url(#SVGID_12_);enable-background:new    ;}
	.st16{clip-path:url(#SVGID_14_);enable-background:new    ;}
	.st17{clip-path:url(#SVGID_16_);enable-background:new    ;}
	.st18{clip-path:url(#SVGID_18_);enable-background:new    ;}
	.st19{fill:url(#SVGID_19_);}
	.st20{clip-path:url(#SVGID_21_);enable-background:new    ;}
	.st21{clip-path:url(#SVGID_23_);enable-background:new    ;}
	.st22{clip-path:url(#SVGID_25_);enable-background:new    ;}
	.st23{clip-path:url(#SVGID_27_);enable-background:new    ;}
	.st24{clip-path:url(#SVGID_29_);enable-background:new    ;}
	.st25{clip-path:url(#SVGID_31_);enable-background:new    ;}
	.st26{fill:#1F5399;}
	.st27{fill:#1E5194;}
	.st28{fill:#1D4E8F;}
	.st29{fill:#1C4B8A;}
	.st30{clip-path:url(#SVGID_33_);enable-background:new    ;}
	.st31{clip-path:url(#SVGID_35_);enable-background:new    ;}
	.st32{clip-path:url(#SVGID_37_);enable-background:new    ;}
	.st33{clip-path:url(#SVGID_39_);enable-background:new    ;}
	.st34{fill:url(#SVGID_40_);}
	.st35{fill:none;}
	.st36{fill:url(#SVGID_41_);}
	.st37{fill:none;stroke:#DB3B4F;stroke-width:2;stroke-miterlimit:10;}
	.st38{fill:none;stroke:#DB3B4F;stroke-width:2;stroke-miterlimit:10;stroke-dasharray:4.0413,4.0413;}
	.st39{fill-rule:evenodd;clip-rule:evenodd;fill:#F2D031;}
	.st40{fill-rule:evenodd;clip-rule:evenodd;fill:none;stroke:#F2D031;stroke-width:2;stroke-miterlimit:10;}
	.st41{fill:url(#XMLID_2_);}
	.st42{fill:url(#XMLID_3_);stroke:#29ABE2;stroke-miterlimit:10;}
	.st43{fill:url(#XMLID_4_);}
	.st44{fill:url(#XMLID_19_);}
	.st45{fill:url(#XMLID_20_);}
	.st46{fill:url(#XMLID_21_);}
	.st47{fill:#FFFFFF;stroke:#29ABE2;stroke-miterlimit:10;}
	.st48{fill:#4690EE;}
	.st49{clip-path:url(#SVGID_43_);enable-background:new    ;}
	.st50{fill:#835C1F;}
	.st51{clip-path:url(#SVGID_45_);enable-background:new    ;}
	.st52{fill:#9C6D25;}
	.st53{fill:#A17126;}
	.st54{fill:#A67427;}
	.st55{clip-path:url(#SVGID_47_);enable-background:new    ;}
	.st56{fill:#976A23;}
	.st57{fill:#926622;}
	.st58{fill:#8D6321;}
	.st59{fill:#885F20;}
	.st60{fill:url(#SVGID_48_);}
	.st61{fill:#7E581E;}
	.st62{fill:url(#SVGID_49_);}
	.st63{fill:#B17C2A;}
	.st64{fill:#FBB03B;}
	.st65{fill:url(#SVGID_50_);}
</style>
<g>
	<g id="data_cube_2_" class="st0">
		<linearGradient id="SVGID_1_" gradientUnits="userSpaceOnUse" x1="65.4886" y1="221.7359" x2="87" y2="221.7359">
			<stop  offset="0" style="stop-color:#6DACEF"/>
			<stop  offset="1" style="stop-color:#97C9FE"/>
		</linearGradient>
		<polygon class="st1" points="87,228.8 65.49,241.22 65.51,214.65 87,202.26 		"/>
		<linearGradient id="SVGID_2_" gradientUnits="userSpaceOnUse" x1="43.9773" y1="221.7162" x2="65.5121" y2="221.7162">
			<stop  offset="0" style="stop-color:#3282ED"/>
			<stop  offset="1" style="stop-color:#60A2F0"/>
		</linearGradient>
		<polygon class="st2" points="43.98,228.8 65.49,241.22 65.51,214.65 43.98,202.22 		"/>
		<linearGradient id="SVGID_3_" gradientUnits="userSpaceOnUse" x1="43.9812" y1="202.2374" x2="86.9993" y2="202.2374">
			<stop  offset="0" style="stop-color:#7AB4F4"/>
			<stop  offset="1" style="stop-color:#DFEDFA"/>
		</linearGradient>
		<polygon class="st3" points="65.51,214.65 43.98,202.22 65.42,189.82 87,202.26 		"/>
		<linearGradient id="SVGID_4_" gradientUnits="userSpaceOnUse" x1="36.1405" y1="109.8987" x2="36.1405" y2="146.7888">
			<stop  offset="0" style="stop-color:#6DACEF"/>
			<stop  offset="1" style="stop-color:#97C9FE"/>
		</linearGradient>
		<rect x="35.43" y="109.81" class="st4" width="1.41" height="37.01"/>
		<linearGradient id="SVGID_5_" gradientUnits="userSpaceOnUse" x1="48.7131" y1="121.5328" x2="48.7131" y2="158.4227">
			<stop  offset="0" style="stop-color:#6DACEF"/>
			<stop  offset="1" style="stop-color:#97C9FE"/>
		</linearGradient>
		<rect x="48.01" y="121.44" class="st5" width="1.41" height="37.01"/>
		<linearGradient id="SVGID_6_" gradientUnits="userSpaceOnUse" x1="55.5337" y1="106.0913" x2="55.5337" y2="142.9813">
			<stop  offset="0" style="stop-color:#6DACEF"/>
			<stop  offset="1" style="stop-color:#97C9FE"/>
		</linearGradient>
		<rect x="54.83" y="106" class="st6" width="1.41" height="37.01"/>
	</g>
	<ellipse class="st7" cx="175.82" cy="228.9" rx="88.18" ry="38.25"/>
	<g>
		<path class="st8" d="M225.32,179.5c0.07-0.15,0.15-0.31,0.22-0.46c0.33-0.68,0.65-1.37,0.97-2.06c0.04-0.08,0.08-0.16,0.11-0.25
			c0.34-0.75,0.66-1.5,0.98-2.25c0.07-0.17,0.14-0.34,0.22-0.52c0.32-0.76,0.63-1.53,0.93-2.3c0.02-0.06,0.04-0.12,0.07-0.18
			c0.18-0.47,0.36-0.94,0.53-1.42c0.08-0.21,0.14-0.41,0.22-0.62c0.12-0.32,0.23-0.64,0.34-0.96c0.18-0.52,0.36-1.05,0.53-1.57
			c0.1-0.32,0.21-0.63,0.31-0.95c0.18-0.57,0.35-1.14,0.53-1.71c0.08-0.27,0.17-0.54,0.25-0.82c0.24-0.84,0.48-1.69,0.7-2.54
			l-11.46-6.23c-0.22,0.85-0.46,1.7-0.7,2.54c-0.08,0.27-0.16,0.55-0.25,0.82c-0.17,0.57-0.34,1.14-0.52,1.71
			c-0.1,0.32-0.21,0.63-0.31,0.95c-0.17,0.53-0.35,1.05-0.53,1.57c-0.11,0.32-0.23,0.64-0.34,0.97c-0.24,0.68-0.49,1.36-0.75,2.03
			c-0.02,0.06-0.05,0.12-0.07,0.18c-0.3,0.77-0.61,1.53-0.92,2.3c-0.07,0.17-0.14,0.34-0.22,0.52c-0.32,0.76-0.65,1.51-0.98,2.25
			c-0.04,0.08-0.08,0.16-0.11,0.25c-0.31,0.69-0.64,1.38-0.97,2.06c-0.07,0.15-0.15,0.31-0.22,0.46c-0.36,0.73-0.72,1.45-1.09,2.17
			c-0.07,0.14-0.15,0.28-0.22,0.42c-0.26,0.5-0.53,0.99-0.8,1.48c-0.26,0.47-0.51,0.93-0.78,1.39c-0.21,0.38-0.43,0.75-0.65,1.12
			c-0.27,0.46-0.54,0.92-0.82,1.37c-0.22,0.37-0.45,0.73-0.67,1.1c-0.28,0.45-0.57,0.91-0.86,1.36c-0.23,0.36-0.46,0.71-0.69,1.06
			c-0.3,0.45-0.61,0.9-0.92,1.35c-0.24,0.34-0.47,0.69-0.71,1.03c-0.27,0.38-0.55,0.76-0.82,1.14c-0.27,0.37-0.53,0.74-0.81,1.1
			c-0.28,0.37-0.57,0.74-0.85,1.11c-0.28,0.36-0.55,0.72-0.84,1.08c-0.29,0.37-0.59,0.72-0.88,1.09c-0.29,0.35-0.57,0.7-0.86,1.05
			c-0.3,0.36-0.6,0.71-0.91,1.06c-0.3,0.34-0.59,0.69-0.89,1.02c-0.31,0.35-0.63,0.7-0.95,1.05c-0.3,0.33-0.6,0.66-0.91,0.98
			c-0.32,0.34-0.65,0.68-0.98,1.02c-0.31,0.32-0.62,0.64-0.93,0.96c-0.33,0.33-0.67,0.66-1.01,0.99c-0.32,0.31-0.63,0.62-0.95,0.93
			c-0.34,0.32-0.69,0.64-1.03,0.96c-0.32,0.3-0.64,0.6-0.97,0.89c-0.48,0.43-0.96,0.84-1.44,1.26c-0.24,0.2-0.47,0.41-0.71,0.61
			c-0.73,0.61-1.46,1.21-2.2,1.8c-0.01,0.01-0.01,0.01-0.02,0.02c-0.73,0.58-1.48,1.15-2.23,1.71c-0.25,0.19-0.51,0.37-0.76,0.55
			c-0.51,0.37-1.02,0.74-1.54,1.1c-0.62,0.43-1.25,0.86-1.89,1.28c-0.13,0.09-0.27,0.17-0.4,0.26c-0.56,0.37-1.13,0.73-1.71,1.08
			c-0.15,0.09-0.3,0.19-0.45,0.28c-0.67,0.41-1.34,0.81-2.02,1.2c-0.14,0.08-0.28,0.16-0.41,0.23c-0.58,0.33-1.17,0.66-1.76,0.97
			c-0.16,0.08-0.31,0.17-0.47,0.25c-0.69,0.37-1.39,0.72-2.09,1.07c-0.14,0.07-0.28,0.14-0.42,0.21c-0.58,0.28-1.16,0.55-1.74,0.82
			c-0.21,0.1-0.42,0.2-0.64,0.29c-0.73,0.33-1.46,0.65-2.2,0.95c0,0,0,0-0.01,0l0,0h0l11.46,6.23c0.74-0.31,1.47-0.63,2.2-0.95
			c0.21-0.1,0.43-0.19,0.64-0.29c0.26-0.12,0.52-0.23,0.77-0.35c0.32-0.15,0.65-0.31,0.97-0.47c0.14-0.07,0.28-0.14,0.42-0.21
			c0.7-0.35,1.4-0.7,2.09-1.07c0.16-0.08,0.31-0.17,0.47-0.25c0.59-0.32,1.18-0.64,1.76-0.97c0.14-0.08,0.28-0.15,0.41-0.23
			c0.68-0.39,1.35-0.79,2.02-1.2c0.15-0.09,0.3-0.19,0.45-0.28c0.57-0.35,1.14-0.71,1.71-1.08c0.13-0.09,0.27-0.17,0.4-0.26
			c0.57-0.37,1.13-0.75,1.69-1.14c0.07-0.05,0.13-0.09,0.19-0.14c0.52-0.36,1.03-0.73,1.54-1.1c0.25-0.18,0.51-0.36,0.76-0.55
			c0.75-0.56,1.49-1.13,2.23-1.71c0.01-0.01,0.01-0.01,0.02-0.02c0.74-0.59,1.47-1.19,2.2-1.8c0.24-0.2,0.47-0.41,0.71-0.61
			c0.48-0.42,0.97-0.83,1.44-1.26c0.06-0.05,0.12-0.1,0.18-0.16c0.27-0.24,0.53-0.49,0.79-0.73c0.35-0.32,0.69-0.64,1.03-0.96
			c0.32-0.31,0.64-0.62,0.96-0.93c0.34-0.33,0.67-0.65,1.01-0.99c0.31-0.32,0.62-0.64,0.93-0.96c0.33-0.34,0.66-0.67,0.98-1.02
			c0.31-0.32,0.61-0.66,0.91-0.99c0.32-0.35,0.64-0.69,0.95-1.05c0.07-0.08,0.14-0.15,0.21-0.23c0.23-0.26,0.45-0.53,0.68-0.79
			c0.3-0.35,0.61-0.7,0.91-1.06c0.29-0.35,0.57-0.7,0.86-1.05c0.3-0.36,0.59-0.72,0.88-1.09c0.28-0.35,0.56-0.71,0.83-1.07
			c0.29-0.37,0.57-0.74,0.85-1.11c0.27-0.36,0.54-0.73,0.81-1.1c0.28-0.38,0.55-0.76,0.82-1.14c0.07-0.09,0.14-0.19,0.2-0.28
			c0.17-0.25,0.34-0.5,0.51-0.75c0.31-0.45,0.62-0.9,0.92-1.35c0.23-0.35,0.46-0.71,0.69-1.06c0.29-0.45,0.58-0.9,0.86-1.36
			c0.23-0.36,0.45-0.73,0.67-1.1c0.28-0.45,0.55-0.91,0.82-1.37c0.22-0.37,0.43-0.75,0.65-1.13c0.26-0.46,0.52-0.93,0.78-1.39
			c0.11-0.2,0.23-0.4,0.34-0.61c0.16-0.29,0.31-0.58,0.46-0.87c0.07-0.14,0.15-0.28,0.22-0.42
			C224.6,180.95,224.97,180.23,225.32,179.5z"/>
		<path class="st8" d="M217.15,175.5c-0.36-0.34-0.57-0.88-0.57-1.62c0-0.56,0.11-1.24,0.35-2.03l0,0v0l-11.46-6.23
			c-0.65,2.12-0.37,3.39,0.51,3.87l11.46,6.23C217.34,175.66,217.24,175.59,217.15,175.5z"/>
		<g class="st9">
			<defs>
				<path id="SVGID_7_" class="st9" d="M235.24,138.94l-11.46-6.23c0.11-6.28-0.44-12.47-1.64-18.45l11.46,6.23
					C234.8,126.46,235.35,132.66,235.24,138.94z"/>
			</defs>
			<clipPath id="SVGID_8_">
				<use xlink:href="#SVGID_7_"  style="overflow:visible;"/>
			</clipPath>
			<g class="st10">
				<path class="st8" d="M235.24,138.94l-11.46-6.23c0.11-6.28-0.44-12.47-1.64-18.45l11.46,6.23
					C234.8,126.46,235.35,132.66,235.24,138.94"/>
			</g>
		</g>
		<g class="st9">
			<defs>
				<path id="SVGID_9_" class="st9" d="M164.7,217.56l11.46,6.23c-0.52-0.28-1.2-0.39-2.03-0.27c-0.59,0.08-1.25,0.27-1.99,0.59
					l-11.46-6.23c0.74-0.32,1.41-0.51,1.99-0.59C163.51,217.17,164.18,217.27,164.7,217.56z"/>
			</defs>
			<clipPath id="SVGID_10_">
				<use xlink:href="#SVGID_9_"  style="overflow:visible;"/>
			</clipPath>
			<g class="st11">
				<path class="st12" d="M172.14,224.11l-11.46-6.23c0.74-0.32,1.41-0.51,1.99-0.59c0.56-0.08,1.04-0.06,1.46,0.05l11.46,6.23
					c-0.42-0.11-0.9-0.13-1.46-0.05C173.54,223.6,172.88,223.79,172.14,224.11"/>
				<path class="st13" d="M175.59,223.57l-11.46-6.23c0.17,0.04,0.33,0.1,0.48,0.18l11.46,6.23
					C175.92,223.67,175.76,223.61,175.59,223.57"/>
				<path class="st14" d="M176.07,223.74l-11.46-6.23c0.03,0.01,0.06,0.03,0.09,0.04l11.46,6.23
					C176.13,223.77,176.1,223.76,176.07,223.74"/>
			</g>
		</g>
		<g class="st9">
			<defs>
				<path id="SVGID_11_" class="st9" d="M188.39,66.66l11.46,6.23c14.27,7.76,25.47,21.01,31.26,38.25l-11.46-6.23
					C213.87,87.67,202.66,74.42,188.39,66.66z"/>
			</defs>
			<clipPath id="SVGID_12_">
				<use xlink:href="#SVGID_11_"  style="overflow:visible;"/>
			</clipPath>
			<g class="st15">
				<path class="st8" d="M231.11,111.14l-11.46-6.23c-5.79-17.24-16.99-30.49-31.26-38.25l11.46,6.23
					C214.12,80.65,225.32,93.9,231.11,111.14"/>
			</g>
		</g>
		<g class="st9">
			<defs>
				<path id="SVGID_13_" class="st9" d="M219.2,104.59l11.46,6.23c-0.41-0.22-0.88-0.33-1.37-0.31l-11.46-6.23
					C218.32,104.25,218.79,104.36,219.2,104.59z"/>
			</defs>
			<clipPath id="SVGID_14_">
				<use xlink:href="#SVGID_13_"  style="overflow:visible;"/>
			</clipPath>
			<g class="st16">
				<path class="st12" d="M229.28,110.5l-11.46-6.23c0.27-0.01,0.53,0.02,0.78,0.08l11.46,6.23
					C229.82,110.52,229.55,110.49,229.28,110.5"/>
				<path class="st13" d="M230.07,110.59l-11.46-6.23c0.17,0.04,0.33,0.11,0.49,0.18l11.46,6.23
					C230.4,110.69,230.24,110.63,230.07,110.59"/>
				<path class="st14" d="M230.56,110.77l-11.46-6.23c0.03,0.02,0.06,0.03,0.09,0.05l11.46,6.23
					C230.62,110.8,230.59,110.78,230.56,110.77"/>
			</g>
		</g>
		<g class="st9">
			<defs>
				<path id="SVGID_15_" class="st9" d="M154.35,228.74l-11.46-6.23c0.37-0.05,0.74-0.1,1.11-0.13l11.46,6.23
					C155.09,228.64,154.72,228.68,154.35,228.74z"/>
			</defs>
			<clipPath id="SVGID_16_">
				<use xlink:href="#SVGID_15_"  style="overflow:visible;"/>
			</clipPath>
			<g class="st17">
				<path class="st12" d="M154.35,228.74l-11.46-6.23c0.37-0.05,0.74-0.1,1.11-0.13l11.46,6.23
					C155.09,228.64,154.72,228.68,154.35,228.74"/>
			</g>
		</g>
		<g class="st9">
			<defs>
				<path id="SVGID_17_" class="st9" d="M174.47,186.31l-11.46-6.23c0.31,0.17,0.7,0.23,1.21,0.16c0.2-0.03,0.41-0.08,0.65-0.15
					c0.31-0.09,0.63-0.16,0.95-0.21c1.4-0.2,2.8,0.08,4,0.74l11.46,6.23c-1.2-0.65-2.6-0.93-4-0.74c-0.32,0.04-0.63,0.11-0.95,0.21
					c-0.24,0.07-0.45,0.12-0.65,0.15C175.17,186.54,174.78,186.47,174.47,186.31z"/>
			</defs>
			<clipPath id="SVGID_18_">
				<use xlink:href="#SVGID_17_"  style="overflow:visible;"/>
			</clipPath>
			<g class="st18">
				<path class="st14" d="M174.47,186.31l-11.46-6.23c0.02,0.01,0.04,0.02,0.06,0.03l11.46,6.23
					C174.51,186.33,174.49,186.32,174.47,186.31"/>
				<path class="st13" d="M174.54,186.34l-11.46-6.23c0.09,0.04,0.19,0.08,0.29,0.1l11.46,6.23
					C174.72,186.42,174.63,186.38,174.54,186.34"/>
				<path class="st12" d="M174.83,186.45l-11.46-6.23c0.24,0.06,0.52,0.07,0.85,0.02c0.2-0.03,0.41-0.08,0.65-0.15
					c0.31-0.09,0.63-0.16,0.95-0.21c0.85-0.12,1.7-0.06,2.5,0.15l11.46,6.23c-0.81-0.21-1.66-0.26-2.5-0.15
					c-0.32,0.04-0.63,0.11-0.95,0.21c-0.24,0.07-0.45,0.12-0.65,0.15C175.35,186.52,175.07,186.5,174.83,186.45"/>
				<path class="st13" d="M179.78,186.26l-11.46-6.23c0.43,0.11,0.85,0.27,1.25,0.46l11.46,6.23
					C180.63,186.52,180.22,186.37,179.78,186.26"/>
				<path class="st14" d="M181.03,186.72l-11.46-6.23c0.08,0.04,0.17,0.08,0.25,0.13l11.46,6.23
					C181.2,186.8,181.12,186.76,181.03,186.72"/>
			</g>
		</g>
		<path class="st14" d="M215.99,119.08c-0.02-0.09-0.04-0.17-0.06-0.26c-0.03-0.13-0.06-0.27-0.09-0.4
			c-0.02-0.09-0.03-0.18-0.05-0.27c-0.02-0.13-0.04-0.26-0.06-0.38c-0.01-0.09-0.03-0.18-0.04-0.27c-0.02-0.13-0.03-0.25-0.04-0.38
			c-0.01-0.09-0.02-0.18-0.03-0.27c-0.01-0.13-0.02-0.26-0.03-0.39c0-0.08-0.01-0.17-0.01-0.25c0-0.14-0.01-0.27-0.01-0.41
			c0-0.08,0-0.15,0-0.23c0-0.17,0.01-0.33,0.02-0.5c0-0.04,0-0.08,0-0.13c0.01-0.21,0.03-0.41,0.05-0.61
			c0.01-0.06,0.01-0.11,0.02-0.17c0.02-0.15,0.03-0.29,0.06-0.44c0.01-0.08,0.02-0.15,0.04-0.22c0.02-0.12,0.04-0.25,0.07-0.37
			c0.02-0.08,0.03-0.16,0.05-0.24c0.02-0.12,0.05-0.23,0.08-0.35c0.02-0.08,0.04-0.16,0.06-0.24c0.03-0.11,0.06-0.22,0.09-0.33
			c0.02-0.08,0.05-0.16,0.07-0.23c0.03-0.11,0.07-0.22,0.11-0.33c0.03-0.07,0.05-0.15,0.08-0.22c0.02-0.07,0.05-0.13,0.07-0.2
			c0.08-0.21,0.17-0.42,0.26-0.63c0.02-0.05,0.04-0.09,0.06-0.14c0.11-0.24,0.22-0.47,0.34-0.69c0.03-0.06,0.07-0.12,0.1-0.19
			c0.07-0.12,0.14-0.25,0.21-0.37c0.04-0.07,0.08-0.13,0.12-0.2c0.07-0.12,0.15-0.23,0.23-0.35c0.04-0.06,0.08-0.12,0.12-0.18
			c0.06-0.09,0.13-0.18,0.2-0.27c0.05-0.06,0.09-0.13,0.14-0.19c0.07-0.09,0.15-0.18,0.22-0.27c0.05-0.05,0.09-0.11,0.14-0.16
			c0.06-0.07,0.13-0.14,0.2-0.21c0.06-0.06,0.11-0.12,0.17-0.18c0.07-0.07,0.14-0.13,0.21-0.2c0.06-0.05,0.11-0.11,0.17-0.16
			c0.08-0.08,0.17-0.15,0.26-0.22c0.05-0.04,0.09-0.08,0.14-0.12c0.13-0.1,0.25-0.19,0.38-0.28c0.01-0.01,0.01-0.01,0.02-0.02
			c0.15-0.1,0.3-0.2,0.45-0.28c0.05-0.03,0.1-0.05,0.15-0.08c0.1-0.06,0.21-0.11,0.31-0.16c0.07-0.03,0.14-0.07,0.22-0.1
			c0.06-0.02,0.11-0.05,0.17-0.07c0.08-0.03,0.16-0.06,0.25-0.09c0.05-0.02,0.11-0.04,0.16-0.06c0.09-0.03,0.18-0.05,0.27-0.08
			c0.05-0.01,0.09-0.03,0.14-0.04c0.14-0.03,0.28-0.06,0.41-0.08c0.14-0.02,0.27-0.03,0.41-0.04c0.04,0,0.09,0,0.13,0
			c0.1,0,0.19,0,0.29,0c0.05,0,0.1,0,0.15,0.01c0.09,0.01,0.19,0.02,0.28,0.03c0.05,0.01,0.09,0.01,0.14,0.02
			c0.12,0.02,0.23,0.04,0.35,0.07c0.02,0.01,0.04,0.01,0.06,0.01c0.14,0.04,0.28,0.08,0.41,0.13c0.04,0.01,0.08,0.03,0.12,0.05
			c0.1,0.04,0.2,0.08,0.3,0.13c0.09,0.04,0.17,0.08,0.25,0.13l-11.46-6.23c-0.06-0.03-0.12-0.07-0.19-0.1
			c-0.02-0.01-0.05-0.02-0.07-0.03c-0.1-0.05-0.2-0.09-0.3-0.13c-0.04-0.02-0.08-0.03-0.12-0.05c-0.14-0.05-0.27-0.09-0.41-0.13
			c0,0-0.01,0-0.01,0c-0.02,0-0.04-0.01-0.06-0.01c-0.12-0.03-0.23-0.05-0.35-0.07c-0.05-0.01-0.09-0.01-0.14-0.02
			c-0.09-0.01-0.19-0.02-0.28-0.03c-0.05,0-0.1-0.01-0.15-0.01c-0.1,0-0.19,0-0.29,0c-0.04,0-0.09,0-0.13,0
			c-0.14,0.01-0.27,0.02-0.41,0.04c-0.14,0.02-0.28,0.05-0.41,0.08c-0.05,0.01-0.09,0.02-0.14,0.04c-0.09,0.02-0.18,0.05-0.27,0.08
			c-0.05,0.02-0.11,0.04-0.16,0.06c-0.08,0.03-0.17,0.06-0.25,0.09c-0.06,0.02-0.11,0.05-0.17,0.07c-0.05,0.02-0.1,0.04-0.15,0.06
			c-0.02,0.01-0.05,0.02-0.07,0.04c-0.11,0.05-0.21,0.11-0.31,0.16c-0.05,0.03-0.1,0.05-0.15,0.08c-0.15,0.09-0.3,0.18-0.45,0.28
			c0,0,0,0,0,0c-0.01,0.01-0.02,0.01-0.02,0.02c-0.13,0.09-0.25,0.18-0.38,0.28c-0.05,0.04-0.09,0.08-0.14,0.11
			c-0.09,0.07-0.17,0.14-0.26,0.22c-0.01,0-0.01,0.01-0.02,0.01c-0.05,0.05-0.1,0.1-0.15,0.14c-0.07,0.07-0.14,0.13-0.21,0.2
			c-0.06,0.06-0.11,0.12-0.16,0.17c-0.07,0.07-0.13,0.14-0.2,0.21c-0.01,0.01-0.01,0.02-0.02,0.02c-0.04,0.04-0.08,0.09-0.11,0.14
			c-0.07,0.09-0.15,0.18-0.22,0.27c-0.05,0.06-0.09,0.12-0.14,0.19c-0.07,0.09-0.13,0.18-0.2,0.27c-0.01,0.02-0.03,0.04-0.04,0.06
			c-0.03,0.04-0.05,0.08-0.08,0.12c-0.08,0.11-0.15,0.23-0.23,0.35c-0.04,0.07-0.08,0.13-0.12,0.2c-0.07,0.12-0.14,0.24-0.21,0.37
			c-0.02,0.04-0.05,0.08-0.07,0.13c-0.01,0.02-0.02,0.04-0.03,0.06c-0.12,0.22-0.23,0.45-0.34,0.69c-0.02,0.05-0.04,0.09-0.06,0.14
			c-0.09,0.2-0.17,0.41-0.26,0.63c-0.01,0.04-0.03,0.07-0.04,0.11c-0.01,0.03-0.02,0.06-0.03,0.09c-0.03,0.07-0.05,0.15-0.08,0.22
			c-0.04,0.11-0.07,0.22-0.11,0.33c-0.02,0.08-0.05,0.16-0.07,0.24c-0.03,0.11-0.06,0.22-0.09,0.33c-0.02,0.08-0.04,0.16-0.06,0.24
			c-0.03,0.11-0.05,0.23-0.08,0.34c-0.02,0.08-0.03,0.16-0.05,0.24c-0.02,0.12-0.04,0.25-0.07,0.37c-0.01,0.07-0.03,0.15-0.04,0.22
			c-0.02,0.14-0.04,0.29-0.06,0.43c-0.01,0.06-0.02,0.11-0.02,0.17c-0.02,0.2-0.04,0.41-0.05,0.61c0,0.04,0,0.09,0,0.13
			c-0.01,0.16-0.01,0.33-0.02,0.49c0,0.08,0,0.15,0,0.23c0,0.13,0,0.27,0.01,0.4c0,0.08,0.01,0.17,0.01,0.25
			c0.01,0.13,0.01,0.26,0.03,0.38c0.01,0.09,0.02,0.18,0.03,0.27c0.01,0.13,0.03,0.25,0.04,0.38c0.01,0.09,0.02,0.18,0.04,0.27
			c0.02,0.13,0.04,0.26,0.06,0.38c0.02,0.09,0.03,0.18,0.05,0.27c0.03,0.13,0.06,0.27,0.09,0.4c0.02,0.09,0.04,0.17,0.06,0.26
			c0.04,0.15,0.08,0.29,0.12,0.44c0.02,0.07,0.04,0.14,0.06,0.22c0.07,0.22,0.14,0.44,0.22,0.65l11.46,6.23
			c-0.08-0.22-0.15-0.44-0.22-0.65c-0.02-0.07-0.04-0.14-0.06-0.22C216.06,119.37,216.02,119.22,215.99,119.08z"/>
		<linearGradient id="SVGID_19_" gradientUnits="userSpaceOnUse" x1="189.453" y1="143.0016" x2="216.9375" y2="143.0016">
			<stop  offset="3.409785e-07" style="stop-color:#1B4885"/>
			<stop  offset="1" style="stop-color:#1D4E8F"/>
		</linearGradient>
		<path class="st19" d="M207.25,159.6c-0.13-0.11-0.26-0.23-0.39-0.34c-0.04-0.04-0.08-0.07-0.12-0.11
			c-0.09-0.08-0.18-0.17-0.27-0.26c-0.04-0.04-0.08-0.08-0.13-0.12c-0.1-0.09-0.19-0.19-0.29-0.28c-0.03-0.03-0.06-0.06-0.09-0.09
			c-0.12-0.13-0.25-0.25-0.37-0.38c-0.03-0.03-0.05-0.06-0.08-0.08c-0.1-0.1-0.19-0.21-0.29-0.31c-0.04-0.04-0.08-0.09-0.12-0.13
			c-0.08-0.1-0.17-0.19-0.25-0.29c-0.04-0.04-0.07-0.09-0.11-0.13c-0.11-0.13-0.21-0.25-0.31-0.38c-0.01-0.01-0.02-0.03-0.03-0.04
			c-0.11-0.14-0.22-0.29-0.33-0.43c-0.03-0.04-0.06-0.09-0.09-0.13c-0.08-0.11-0.15-0.21-0.23-0.32c-0.04-0.05-0.07-0.1-0.1-0.15
			c-0.08-0.11-0.15-0.23-0.23-0.34c-0.03-0.04-0.05-0.08-0.08-0.13c-0.1-0.16-0.2-0.32-0.29-0.48c-0.02-0.03-0.03-0.06-0.05-0.09
			c-0.08-0.13-0.15-0.27-0.23-0.4c-0.03-0.05-0.06-0.11-0.09-0.16c-0.06-0.12-0.12-0.24-0.18-0.36c-0.03-0.05-0.05-0.11-0.08-0.17
			c-0.07-0.15-0.14-0.29-0.2-0.44c-0.01-0.03-0.02-0.05-0.04-0.08c-0.08-0.18-0.15-0.35-0.22-0.53c-0.02-0.05-0.04-0.1-0.06-0.15
			c-0.05-0.13-0.1-0.27-0.15-0.4c-0.02-0.06-0.04-0.12-0.06-0.18c-0.05-0.14-0.09-0.27-0.13-0.41c-0.02-0.05-0.03-0.11-0.05-0.16
			c-0.06-0.19-0.11-0.38-0.16-0.58c-0.01-0.02-0.01-0.05-0.02-0.08c-0.04-0.17-0.08-0.34-0.12-0.52c-0.01-0.06-0.02-0.13-0.04-0.19
			c-0.03-0.14-0.05-0.29-0.08-0.43c-0.01-0.07-0.02-0.13-0.03-0.2c-0.02-0.17-0.05-0.33-0.07-0.5c0-0.04-0.01-0.08-0.02-0.13
			c-0.02-0.21-0.04-0.42-0.05-0.64c0-0.06-0.01-0.11-0.01-0.17c-0.01-0.16-0.02-0.33-0.02-0.49c0-0.07,0-0.15,0-0.22
			c0-0.16,0-0.32,0-0.48c0-0.07,0-0.13,0-0.2c0.01-0.23,0.02-0.46,0.03-0.69c0-0.01,0-0.03,0-0.04c0.02-0.22,0.04-0.44,0.06-0.66
			c0.01-0.07,0.02-0.15,0.03-0.22c0.02-0.17,0.04-0.34,0.07-0.51c0.01-0.08,0.02-0.16,0.04-0.24c0.03-0.19,0.07-0.38,0.1-0.57
			c0.01-0.06,0.02-0.12,0.03-0.17c0.05-0.25,0.11-0.5,0.17-0.75c0.01-0.06,0.03-0.12,0.05-0.18c0.05-0.2,0.1-0.4,0.16-0.6
			c0.02-0.09,0.05-0.17,0.07-0.26c0.05-0.19,0.11-0.37,0.17-0.56c0.03-0.08,0.05-0.16,0.08-0.25c0.08-0.25,0.17-0.51,0.27-0.77
			c0-0.01,0.01-0.03,0.01-0.04c0.11-0.29,0.22-0.58,0.34-0.87c0.03-0.08,0.07-0.17,0.1-0.25c0.1-0.23,0.2-0.46,0.3-0.7
			c0.03-0.08,0.07-0.15,0.1-0.23c0.14-0.3,0.28-0.6,0.43-0.91c0.03-0.06,0.06-0.11,0.09-0.17c0.13-0.26,0.26-0.51,0.4-0.77
			c0.05-0.09,0.1-0.18,0.15-0.28c0.15-0.27,0.3-0.54,0.46-0.81c0.03-0.05,0.06-0.1,0.09-0.15c0.19-0.32,0.38-0.65,0.58-0.97
			c0.05-0.09,0.11-0.17,0.16-0.26c0.16-0.26,0.33-0.52,0.5-0.78c0.06-0.09,0.12-0.18,0.18-0.28c0.22-0.34,0.45-0.68,0.7-1.02
			c0.18-0.25,0.36-0.51,0.55-0.76c0.05-0.07,0.11-0.15,0.16-0.22c0.14-0.19,0.28-0.38,0.42-0.57c0.07-0.09,0.14-0.18,0.21-0.28
			c0.14-0.18,0.28-0.36,0.42-0.54c0.07-0.09,0.14-0.18,0.21-0.27c0.17-0.21,0.34-0.42,0.51-0.64c0.05-0.06,0.09-0.12,0.14-0.17
			c0.22-0.27,0.45-0.54,0.68-0.82c0.06-0.07,0.12-0.14,0.18-0.21c0.18-0.21,0.35-0.41,0.53-0.62c0.08-0.1,0.17-0.19,0.25-0.29
			c0.13-0.15,0.27-0.3,0.4-0.45c0.28-0.31,0.56-0.63,0.85-0.94c0.07-0.07,0.13-0.14,0.19-0.21c0.35-0.38,0.72-0.77,1.09-1.16
			c0.1-0.1,0.19-0.2,0.29-0.3c0.29-0.3,0.59-0.61,0.9-0.92c0.11-0.11,0.23-0.23,0.34-0.34c0.4-0.4,0.81-0.8,1.23-1.21l-11.46-6.23
			c-0.42,0.41-0.83,0.81-1.23,1.21c-0.11,0.11-0.23,0.23-0.34,0.34c-0.3,0.31-0.6,0.61-0.9,0.92c-0.1,0.1-0.2,0.2-0.29,0.3
			c-0.37,0.39-0.73,0.77-1.09,1.16c-0.07,0.07-0.13,0.14-0.19,0.21c-0.29,0.32-0.57,0.63-0.85,0.94c-0.05,0.06-0.1,0.11-0.15,0.17
			c-0.08,0.1-0.17,0.19-0.25,0.28c-0.08,0.1-0.17,0.19-0.25,0.29c-0.18,0.21-0.36,0.42-0.53,0.62c-0.06,0.07-0.12,0.14-0.18,0.21
			c-0.23,0.27-0.46,0.55-0.68,0.82c-0.05,0.06-0.1,0.12-0.15,0.18c-0.17,0.21-0.34,0.42-0.5,0.63c-0.07,0.09-0.14,0.18-0.21,0.27
			c-0.14,0.18-0.28,0.36-0.42,0.54c-0.07,0.09-0.14,0.18-0.21,0.28c-0.14,0.19-0.28,0.38-0.42,0.57c-0.05,0.07-0.11,0.15-0.16,0.22
			c-0.18,0.25-0.36,0.5-0.53,0.75c0,0.01-0.01,0.01-0.01,0.02c-0.24,0.34-0.47,0.68-0.7,1.02c-0.06,0.09-0.12,0.19-0.18,0.28
			c-0.17,0.26-0.34,0.52-0.5,0.77c-0.05,0.09-0.11,0.18-0.16,0.26c-0.2,0.33-0.4,0.65-0.58,0.97c-0.03,0.05-0.06,0.1-0.09,0.16
			c-0.16,0.27-0.31,0.54-0.45,0.81c-0.02,0.04-0.05,0.09-0.08,0.14c-0.03,0.05-0.05,0.09-0.07,0.14c-0.14,0.26-0.27,0.52-0.4,0.77
			c-0.03,0.06-0.06,0.12-0.09,0.18c-0.15,0.31-0.29,0.61-0.43,0.91c-0.04,0.08-0.07,0.15-0.1,0.23c-0.1,0.23-0.2,0.46-0.3,0.69
			c-0.03,0.08-0.07,0.17-0.1,0.25c-0.12,0.29-0.23,0.59-0.34,0.87c0,0,0,0,0,0c0,0.01-0.01,0.02-0.01,0.04
			c-0.09,0.26-0.18,0.51-0.27,0.77c-0.03,0.08-0.05,0.17-0.08,0.25c-0.06,0.19-0.12,0.37-0.17,0.56c-0.03,0.09-0.05,0.17-0.07,0.26
			c-0.06,0.2-0.11,0.4-0.16,0.59c-0.02,0.06-0.03,0.12-0.05,0.18c-0.06,0.25-0.12,0.5-0.17,0.75c-0.01,0.06-0.02,0.12-0.03,0.18
			c-0.04,0.19-0.07,0.38-0.1,0.57c-0.01,0.08-0.03,0.16-0.04,0.24c-0.03,0.17-0.05,0.34-0.07,0.51c-0.01,0.07-0.02,0.15-0.03,0.22
			c-0.02,0.22-0.05,0.44-0.06,0.66c0,0.01,0,0.03,0,0.04c-0.02,0.23-0.03,0.46-0.03,0.69c0,0.07,0,0.14,0,0.21c0,0.16,0,0.32,0,0.48
			c0,0.07,0,0.15,0,0.22c0,0.17,0.01,0.33,0.02,0.49c0,0.06,0.01,0.11,0.01,0.17c0.01,0.21,0.03,0.43,0.05,0.64
			c0,0.04,0.01,0.09,0.02,0.13c0.02,0.17,0.04,0.33,0.07,0.5c0.01,0.07,0.02,0.13,0.03,0.2c0.02,0.14,0.05,0.29,0.08,0.43
			c0.01,0.06,0.02,0.13,0.04,0.19c0.04,0.17,0.07,0.35,0.12,0.52c0.01,0.03,0.01,0.05,0.02,0.08c0.05,0.19,0.1,0.39,0.16,0.58
			c0.02,0.06,0.03,0.11,0.05,0.17c0.04,0.14,0.08,0.27,0.13,0.41c0.02,0.06,0.04,0.12,0.06,0.19c0.05,0.13,0.1,0.27,0.15,0.4
			c0.02,0.05,0.04,0.1,0.06,0.15c0.07,0.18,0.14,0.36,0.22,0.53c0.01,0.03,0.03,0.06,0.04,0.08c0.07,0.15,0.13,0.29,0.2,0.44
			c0.03,0.06,0.05,0.11,0.08,0.17c0.06,0.12,0.12,0.24,0.18,0.36c0.03,0.05,0.06,0.11,0.09,0.16c0.07,0.14,0.15,0.27,0.23,0.4
			c0.02,0.03,0.03,0.06,0.05,0.09c0.09,0.16,0.19,0.32,0.29,0.48c0.03,0.04,0.06,0.08,0.08,0.13c0.07,0.12,0.15,0.23,0.23,0.34
			c0.03,0.05,0.07,0.1,0.1,0.15c0.08,0.11,0.15,0.22,0.23,0.32c0.03,0.04,0.06,0.09,0.1,0.13c0.11,0.15,0.22,0.29,0.33,0.43
			c0.01,0.01,0.02,0.03,0.03,0.04c0.1,0.13,0.21,0.26,0.31,0.38c0.04,0.04,0.07,0.09,0.11,0.13c0.08,0.1,0.16,0.19,0.25,0.29
			c0.04,0.04,0.08,0.09,0.12,0.13c0.09,0.11,0.19,0.21,0.29,0.31c0.03,0.03,0.05,0.06,0.08,0.08c0.12,0.13,0.25,0.26,0.37,0.38
			c0.03,0.03,0.06,0.06,0.1,0.09c0.09,0.09,0.19,0.19,0.29,0.28c0.04,0.04,0.08,0.08,0.13,0.12c0.09,0.09,0.18,0.17,0.27,0.26
			c0.04,0.04,0.08,0.07,0.12,0.11c0.13,0.12,0.26,0.23,0.39,0.34c3.77,3.27,7.35,8.46,9.68,12.24l11.46,6.23
			C214.61,168.07,211.03,162.87,207.25,159.6z"/>
		<g class="st9">
			<defs>
				<path id="SVGID_20_" class="st9" d="M168.05,179.92l-11.46-6.23c0.88,0.48,1.73,0.75,2.52,0.71c0.51-0.02,0.9,0.07,1.22,0.24
					l11.46,6.23c-0.32-0.17-0.72-0.26-1.22-0.24C169.78,180.67,168.93,180.4,168.05,179.92z"/>
			</defs>
			<clipPath id="SVGID_21_">
				<use xlink:href="#SVGID_20_"  style="overflow:visible;"/>
			</clipPath>
			<g class="st20">
				<path class="st14" d="M168.05,179.92l-11.46-6.23c0.1,0.05,0.2,0.11,0.3,0.15l11.46,6.23
					C168.25,180.02,168.15,179.97,168.05,179.92"/>
				<path class="st13" d="M168.34,180.07l-11.46-6.23c0.39,0.19,0.77,0.34,1.15,0.44l11.46,6.23
					C169.12,180.42,168.74,180.27,168.34,180.07"/>
				<path class="st12" d="M169.49,180.51l-11.46-6.23c0.37,0.09,0.73,0.14,1.08,0.12c0.29-0.01,0.54,0.01,0.76,0.06l11.46,6.23
					c-0.22-0.05-0.47-0.08-0.76-0.06C170.22,180.65,169.86,180.61,169.49,180.51"/>
				<path class="st13" d="M171.33,180.7l-11.46-6.23c0.14,0.03,0.27,0.08,0.39,0.14l11.46,6.23
					C171.6,180.78,171.47,180.73,171.33,180.7"/>
				<path class="st14" d="M171.72,180.83l-11.46-6.23c0.03,0.01,0.05,0.03,0.08,0.04l11.46,6.23
					C171.77,180.86,171.74,180.85,171.72,180.83"/>
			</g>
		</g>
		<g class="st9">
			<defs>
				<path id="SVGID_22_" class="st9" d="M154.18,170.11l-11.46-6.23c0.38,0.2,0.75,0.38,1.12,0.52c0.54,0.2,1.07,0.45,1.59,0.73
					l11.46,6.23c-0.53-0.29-1.06-0.53-1.59-0.73C154.93,170.49,154.56,170.31,154.18,170.11z"/>
			</defs>
			<clipPath id="SVGID_23_">
				<use xlink:href="#SVGID_22_"  style="overflow:visible;"/>
			</clipPath>
			<g class="st21">
				<path class="st14" d="M154.18,170.11l-11.46-6.23c0.13,0.07,0.26,0.14,0.39,0.2l11.46,6.23
					C154.44,170.25,154.31,170.18,154.18,170.11"/>
				<path class="st13" d="M154.57,170.31l-11.46-6.23c0.25,0.12,0.49,0.23,0.74,0.32c0.37,0.14,0.73,0.29,1.09,0.47l11.46,6.23
					c-0.36-0.18-0.72-0.34-1.09-0.47C155.06,170.54,154.81,170.43,154.57,170.31"/>
				<path class="st14" d="M156.39,171.1l-11.46-6.23c0.17,0.08,0.34,0.17,0.5,0.26l11.46,6.23
					C156.73,171.27,156.56,171.19,156.39,171.1"/>
			</g>
		</g>
		<path class="st12" d="M146.01,231.19c0.17-0.08,0.34-0.15,0.51-0.23c0.2-0.09,0.39-0.16,0.59-0.25c0.17-0.07,0.34-0.14,0.51-0.21
			c0.2-0.08,0.4-0.15,0.6-0.22c0.17-0.06,0.33-0.12,0.5-0.18c0.21-0.07,0.41-0.14,0.62-0.2c0.17-0.05,0.33-0.11,0.5-0.16
			c0.21-0.06,0.42-0.12,0.64-0.18c0.16-0.05,0.32-0.09,0.49-0.14c0.22-0.06,0.45-0.11,0.67-0.16c0.15-0.04,0.3-0.08,0.45-0.11
			c0.25-0.06,0.5-0.1,0.75-0.15c0.13-0.02,0.25-0.05,0.38-0.08c0.38-0.07,0.75-0.13,1.13-0.18l-11.46-6.23
			c-0.38,0.05-0.75,0.11-1.13,0.18c-0.13,0.02-0.25,0.05-0.37,0.08c-0.25,0.05-0.5,0.1-0.75,0.15c-0.15,0.03-0.3,0.07-0.45,0.11
			c-0.23,0.05-0.45,0.11-0.68,0.17c-0.16,0.04-0.32,0.09-0.48,0.13c-0.22,0.06-0.43,0.12-0.65,0.18c-0.16,0.05-0.33,0.11-0.49,0.16
			c-0.21,0.07-0.42,0.13-0.62,0.2c-0.17,0.06-0.33,0.12-0.5,0.18c-0.2,0.07-0.41,0.15-0.61,0.23c-0.17,0.07-0.33,0.14-0.5,0.2
			c-0.2,0.08-0.4,0.16-0.6,0.25c-0.17,0.07-0.34,0.15-0.5,0.23c-0.16,0.07-0.31,0.14-0.47,0.21c-0.08,0.04-0.15,0.07-0.23,0.11
			c-0.6-0.03-1.2-0.07-1.8-0.11c-0.2-0.01-0.39-0.03-0.59-0.05c-0.4-0.03-0.8-0.07-1.2-0.11c-0.23-0.02-0.46-0.05-0.7-0.08
			c-0.36-0.04-0.72-0.08-1.07-0.13c-0.25-0.03-0.49-0.07-0.73-0.1c-0.34-0.05-0.68-0.1-1.02-0.15c-0.25-0.04-0.5-0.08-0.75-0.12
			c-0.33-0.06-0.66-0.11-1-0.18c-0.25-0.05-0.5-0.09-0.74-0.14c-0.33-0.06-0.66-0.13-0.98-0.2c-0.24-0.05-0.49-0.1-0.73-0.16
			c-0.33-0.07-0.66-0.15-0.99-0.23c-0.23-0.06-0.47-0.11-0.7-0.17c-0.34-0.09-0.68-0.18-1.02-0.27c-0.22-0.06-0.44-0.12-0.65-0.18
			c-0.37-0.11-0.74-0.22-1.11-0.33c-0.18-0.05-0.36-0.1-0.54-0.16c-0.55-0.17-1.09-0.35-1.63-0.53c-0.01,0-0.03-0.01-0.04-0.01
			c-0.53-0.18-1.05-0.37-1.57-0.56c-0.18-0.07-0.35-0.14-0.53-0.2c-0.35-0.13-0.71-0.27-1.06-0.41c-0.21-0.08-0.41-0.17-0.62-0.26
			c-0.32-0.13-0.63-0.26-0.95-0.4c-0.22-0.09-0.43-0.19-0.65-0.29c-0.3-0.13-0.6-0.27-0.9-0.41c-0.22-0.1-0.44-0.21-0.65-0.31
			c-0.24-0.12-0.49-0.24-0.73-0.36c-0.68-0.34-1.36-0.68-2.02-1.05l11.46,6.23c0.67,0.36,1.34,0.71,2.02,1.05
			c0.08,0.04,0.17,0.09,0.25,0.13c0.16,0.08,0.32,0.15,0.48,0.23c0.22,0.1,0.43,0.21,0.65,0.31c0.3,0.14,0.6,0.27,0.9,0.41
			c0.21,0.1,0.43,0.19,0.65,0.29c0.31,0.14,0.63,0.27,0.95,0.4c0.21,0.09,0.41,0.17,0.62,0.26c0.35,0.14,0.7,0.28,1.05,0.41
			c0.18,0.07,0.36,0.14,0.53,0.21c0.51,0.19,1.03,0.38,1.55,0.55c0.02,0.01,0.04,0.01,0.06,0.02c0.54,0.18,1.08,0.36,1.63,0.53
			c0.18,0.06,0.36,0.11,0.54,0.16c0.37,0.11,0.74,0.22,1.11,0.33c0.22,0.06,0.43,0.12,0.65,0.18c0.26,0.07,0.51,0.14,0.77,0.21
			c0.08,0.02,0.17,0.04,0.25,0.06c0.23,0.06,0.47,0.11,0.7,0.17c0.33,0.08,0.66,0.16,0.99,0.23c0.24,0.05,0.49,0.11,0.73,0.16
			c0.33,0.07,0.66,0.14,0.98,0.2c0.25,0.05,0.5,0.1,0.74,0.14c0.33,0.06,0.66,0.12,0.99,0.17c0.25,0.04,0.5,0.08,0.75,0.12
			c0.34,0.05,0.68,0.1,1.02,0.15c0.25,0.03,0.49,0.07,0.74,0.1c0.35,0.05,0.71,0.09,1.07,0.13c0.23,0.03,0.47,0.05,0.7,0.08
			c0.4,0.04,0.79,0.07,1.19,0.11c0.2,0.02,0.4,0.04,0.59,0.05c0.59,0.04,1.19,0.08,1.78,0.11c0.01,0,0.01,0,0.02,0l0,0c0,0,0,0,0,0
			C145.55,231.4,145.78,231.29,146.01,231.19z"/>
		<path class="st8" d="M154.9,220.3c-0.02-0.96-0.04-1.95-0.04-2.98s0-2.11,0.02-3.22l0,0v0c-0.89-0.56-17.89-11.3-17.87-20.26
			c0.01-8.02,1.84-12.45,0.63-13.11l-11.46-6.23c1.21,0.66-0.61,5.09-0.63,13.11c-0.02,8.96,16.98,19.69,17.87,20.26
			c-0.09,5.95,0.12,10.72,0.58,14.5l11.46,6.23C155.17,226.24,154.98,223.49,154.9,220.3z"/>
		<g class="st9">
			<defs>
				<path id="SVGID_24_" class="st9" d="M138.48,161.25l11.46,6.23c-1.67-0.91-3.57-1.58-5.89-1.35l-11.46-6.23
					C134.9,159.67,136.8,160.34,138.48,161.25z"/>
			</defs>
			<clipPath id="SVGID_25_">
				<use xlink:href="#SVGID_24_"  style="overflow:visible;"/>
			</clipPath>
			<g class="st22">
				<path class="st12" d="M144.04,166.14l-11.46-6.23c1.16-0.12,2.21-0.01,3.19,0.24l11.46,6.23
					C146.25,166.13,145.2,166.02,144.04,166.14"/>
				<path class="st13" d="M147.23,166.38l-11.46-6.23c0.76,0.2,1.47,0.48,2.14,0.81l11.46,6.23
					C148.7,166.86,147.99,166.58,147.23,166.38"/>
				<path class="st14" d="M149.37,167.2l-11.46-6.23c0.19,0.09,0.38,0.19,0.56,0.29l11.46,6.23
					C149.75,167.39,149.56,167.29,149.37,167.2"/>
			</g>
		</g>
		<g class="st9">
			<defs>
				<path id="SVGID_26_" class="st9" d="M163.47,152.96l-11.46-6.23c-1.48-0.8-3.27-3.7-4.92-6.62c-1.83-3.25-3.47-6.52-4.28-6.96
					l11.46,6.23c0.81,0.44,2.45,3.72,4.28,6.96C160.19,149.26,161.99,152.15,163.47,152.96z"/>
			</defs>
			<clipPath id="SVGID_27_">
				<use xlink:href="#SVGID_26_"  style="overflow:visible;"/>
			</clipPath>
			<g class="st23">
				<path class="st8" d="M163.47,152.96l-11.46-6.23c-1.48-0.8-3.27-3.7-4.92-6.62c-1.83-3.25-3.47-6.52-4.28-6.96l11.46,6.23
					c0.81,0.44,2.45,3.72,4.28,6.96C160.19,149.26,161.99,152.15,163.47,152.96"/>
			</g>
		</g>
		<g class="st9">
			<defs>
				<path id="SVGID_28_" class="st9" d="M134.25,169.25l-11.46-6.23c0.22,0.12,0.51,0.14,0.87,0.09c0.99-0.14,2.46-0.83,4.06-1.54
					c1.6-0.71,3.34-1.44,4.85-1.66l11.46,6.23c-1.52,0.21-3.25,0.94-4.85,1.66c-1.6,0.71-3.07,1.4-4.06,1.54
					C134.77,169.39,134.47,169.37,134.25,169.25z"/>
			</defs>
			<clipPath id="SVGID_29_">
				<use xlink:href="#SVGID_28_"  style="overflow:visible;"/>
			</clipPath>
			<g class="st24">
				<path class="st14" d="M134.25,169.25l-11.46-6.23c0.01,0.01,0.02,0.01,0.03,0.02l11.46,6.23
					C134.27,169.26,134.26,169.25,134.25,169.25"/>
				<path class="st13" d="M134.28,169.26l-11.46-6.23c0.05,0.03,0.11,0.05,0.17,0.06l11.46,6.23
					C134.39,169.31,134.33,169.29,134.28,169.26"/>
				<path class="st12" d="M134.45,169.33L123,163.09c0.19,0.05,0.41,0.05,0.67,0.01c0.99-0.14,2.46-0.83,4.06-1.54
					c1.6-0.71,3.34-1.44,4.85-1.66l11.46,6.23c-1.52,0.21-3.25,0.94-4.85,1.66c-1.6,0.71-3.07,1.4-4.06,1.54
					C134.87,169.38,134.64,169.37,134.45,169.33"/>
			</g>
		</g>
		<g class="st9">
			<defs>
				<path id="SVGID_30_" class="st9" d="M154.05,114.02l-11.46-6.23c1.68,0.91,4.19,1.32,7.06,0.91c1.31-0.18,2.7-0.54,4.12-1.09
					c2.19-0.86,0.2-3.14,1.71-3.91c2.06-1.04,4.36-1.63,6.28-1.9c1.93-0.27,3.47-0.21,3.96,0.06l11.46,6.23
					c-0.49-0.27-2.03-0.33-3.96-0.06c-1.91,0.27-4.22,0.86-6.28,1.9c-1.51,0.76,0.47,3.05-1.71,3.91c-1.42,0.55-2.81,0.91-4.12,1.09
					C158.24,115.33,155.72,114.93,154.05,114.02z"/>
			</defs>
			<clipPath id="SVGID_31_">
				<use xlink:href="#SVGID_30_"  style="overflow:visible;"/>
			</clipPath>
			<g class="st25">
				<path class="st14" d="M154.05,114.02l-11.46-6.23c0.08,0.05,0.17,0.09,0.25,0.13l11.46,6.23
					C154.21,114.11,154.13,114.06,154.05,114.02"/>
				<path class="st13" d="M154.3,114.15l-11.46-6.23c0.47,0.23,1.01,0.43,1.59,0.58l11.46,6.23
					C155.31,114.57,154.77,114.38,154.3,114.15"/>
				<path class="st12" d="M155.89,114.73l-11.46-6.23c1.47,0.38,3.26,0.48,5.21,0.2c1.31-0.18,2.7-0.54,4.12-1.09
					c0.05-0.02,0.1-0.04,0.14-0.06l11.46,6.23c-0.05,0.02-0.09,0.04-0.14,0.06c-1.42,0.55-2.81,0.91-4.12,1.09
					C159.15,115.2,157.36,115.1,155.89,114.73"/>
				<path class="st13" d="M165.37,113.78l-11.46-6.23c0.11-0.05,0.21-0.11,0.3-0.17l11.46,6.23
					C165.58,113.67,165.48,113.73,165.37,113.78"/>
				<path class="st14" d="M165.67,113.61l-11.46-6.23c0.06-0.04,0.12-0.09,0.17-0.13l11.46,6.23
					C165.79,113.52,165.73,113.57,165.67,113.61"/>
				<path class="st26" d="M165.84,113.48l-11.46-6.23c0.04-0.04,0.08-0.08,0.12-0.12l11.46,6.23
					C165.93,113.4,165.89,113.44,165.84,113.48"/>
				<path class="st27" d="M165.96,113.35l-11.46-6.23c0.03-0.04,0.07-0.08,0.1-0.12l11.46,6.23
					C166.03,113.27,166,113.31,165.96,113.35"/>
				<path class="st28" d="M166.06,113.23L154.6,107c0.03-0.05,0.06-0.09,0.09-0.14l11.46,6.23
					C166.12,113.14,166.09,113.19,166.06,113.23"/>
				<path class="st29" d="M166.15,113.09l-11.46-6.23c0.03-0.06,0.06-0.12,0.08-0.19l11.46,6.23
					C166.21,112.97,166.18,113.03,166.15,113.09"/>
				<path class="st8" d="M166.23,112.9l-11.46-6.23c0.27-0.76-0.08-1.71,0.17-2.38l11.46,6.23
					C166.15,111.19,166.5,112.14,166.23,112.9"/>
				<path class="st29" d="M166.4,110.52l-11.46-6.23c0.02-0.05,0.04-0.1,0.06-0.14l11.46,6.23
					C166.43,110.43,166.41,110.47,166.4,110.52"/>
				<path class="st28" d="M166.46,110.38L155,104.15c0.02-0.03,0.04-0.07,0.06-0.1l11.46,6.23
					C166.5,110.31,166.48,110.35,166.46,110.38"/>
				<path class="st27" d="M166.52,110.28l-11.46-6.23c0.02-0.03,0.04-0.06,0.07-0.09l11.46,6.23
					C166.56,110.22,166.54,110.25,166.52,110.28"/>
				<path class="st26" d="M166.59,110.19l-11.46-6.23c0.03-0.03,0.05-0.06,0.08-0.08l11.46,6.23
					C166.64,110.13,166.61,110.16,166.59,110.19"/>
				<path class="st14" d="M166.67,110.11l-11.46-6.23c0.04-0.03,0.07-0.06,0.12-0.09l11.46,6.23
					C166.75,110.05,166.71,110.08,166.67,110.11"/>
				<path class="st13" d="M166.79,110.02l-11.46-6.23c0.04-0.03,0.09-0.06,0.15-0.09c0.13-0.06,0.25-0.13,0.38-0.19l11.46,6.23
					c-0.13,0.06-0.25,0.12-0.38,0.19C166.88,109.96,166.83,109.99,166.79,110.02"/>
				<path class="st12" d="M167.32,109.75l-11.46-6.23c1.96-0.92,4.1-1.46,5.9-1.72c1.64-0.23,3-0.22,3.67-0.05l11.46,6.23
					c-0.67-0.17-2.03-0.18-3.67,0.05C171.42,108.28,169.28,108.82,167.32,109.75"/>
				<path class="st13" d="M176.89,107.98l-11.46-6.23c0.1,0.03,0.19,0.06,0.26,0.09l11.46,6.23
					C177.08,108.04,176.99,108.01,176.89,107.98"/>
				<path class="st14" d="M177.14,108.07l-11.46-6.23c0.01,0.01,0.02,0.01,0.03,0.02l11.46,6.23
					C177.17,108.08,177.16,108.08,177.14,108.07"/>
			</g>
		</g>
		<g class="st9">
			<defs>
				<path id="SVGID_32_" class="st9" d="M127.91,182.93l-11.46-6.23c-0.3-0.17-0.54-0.45-0.71-0.89c-1.9-5.06-5.11-7.64-7.34-8.86
					l11.46,6.23c2.23,1.21,5.44,3.79,7.34,8.86C127.36,182.48,127.6,182.76,127.91,182.93z"/>
			</defs>
			<clipPath id="SVGID_33_">
				<use xlink:href="#SVGID_32_"  style="overflow:visible;"/>
			</clipPath>
			<g class="st30">
				<path class="st8" d="M127.91,182.93l-11.46-6.23c-0.3-0.17-0.54-0.45-0.71-0.89c-1.9-5.06-5.11-7.64-7.34-8.86l11.46,6.23
					c2.23,1.21,5.44,3.79,7.34,8.86C127.36,182.48,127.6,182.76,127.91,182.93"/>
			</g>
		</g>
		<g class="st9">
			<defs>
				<path id="SVGID_34_" class="st9" d="M156.78,61.24l11.46,6.23c-2.14-1.16-4.94-1.87-8.44-1.77l-11.46-6.23
					C151.84,59.37,154.64,60.07,156.78,61.24z"/>
			</defs>
			<clipPath id="SVGID_35_">
				<use xlink:href="#SVGID_34_"  style="overflow:visible;"/>
			</clipPath>
			<g class="st31">
				<path class="st12" d="M159.8,65.7l-11.46-6.23c1.96-0.06,3.71,0.14,5.24,0.53l11.46,6.23C163.51,65.84,161.76,65.65,159.8,65.7"
					/>
				<path class="st13" d="M165.04,66.23L153.58,60c1,0.25,1.91,0.59,2.73,0.99l11.46,6.23C166.95,66.82,166.04,66.49,165.04,66.23"
					/>
				<path class="st14" d="M167.77,67.23l-11.46-6.23c0.16,0.08,0.32,0.16,0.47,0.24l11.46,6.23
					C168.08,67.39,167.93,67.3,167.77,67.23"/>
			</g>
		</g>
		<g class="st9">
			<defs>
				<path id="SVGID_36_" class="st9" d="M111.59,171.33l-11.46-6.23c-6.49-3.53-6.77-15.8-6.75-27.45c0-1.92-0.88-2.95-2.15-3.64
					l11.46,6.23c1.28,0.69,2.16,1.72,2.15,3.64C104.82,155.52,105.1,167.8,111.59,171.33z"/>
			</defs>
			<clipPath id="SVGID_37_">
				<use xlink:href="#SVGID_36_"  style="overflow:visible;"/>
			</clipPath>
			<g class="st32">
				<path class="st8" d="M111.59,171.33l-11.46-6.23c-6.49-3.53-6.77-15.8-6.75-27.45c0-1.92-0.88-2.95-2.15-3.64l11.46,6.23
					c1.28,0.69,2.16,1.72,2.15,3.64C104.82,155.52,105.1,167.8,111.59,171.33"/>
			</g>
		</g>
		<g class="st9">
			<defs>
				<path id="SVGID_38_" class="st9" d="M85.2,142.83l-11.46-6.23c-0.49-0.27-0.94-0.6-1.32-0.99l11.46,6.23
					C84.27,142.23,84.71,142.56,85.2,142.83z"/>
			</defs>
			<clipPath id="SVGID_39_">
				<use xlink:href="#SVGID_38_"  style="overflow:visible;"/>
			</clipPath>
			<g class="st33">
				<path class="st8" d="M85.2,142.83l-11.46-6.23c-0.49-0.27-0.94-0.6-1.32-0.99l11.46,6.23C84.27,142.23,84.71,142.56,85.2,142.83
					"/>
			</g>
		</g>
		<g>
			<linearGradient id="SVGID_40_" gradientUnits="userSpaceOnUse" x1="69.4556" y1="148.3914" x2="248.013" y2="148.3914">
				<stop  offset="0" style="stop-color:#3282ED"/>
				<stop  offset="1" style="stop-color:#60A2F0"/>
			</linearGradient>
			<path class="st34" d="M221.98,71.36c16.71,15.71,26.07,38.88,26.03,64.43c-0.13,52.82-39.61,101.3-88.53,108.71
				c-1.16,0.26-2.33,0.47-3.49,0.64c-2.87,0.4-5.73,0.51-8.55,0.31c-44.05,0.29-78.07-35.43-77.98-84.55
				c0.05-25.55,9.5-51.38,26.28-71.8c16.77-20.4,39.47-33.73,63.13-37.05C182.61,48.71,205.29,55.66,221.98,71.36z M177.43,225.71
				c26.34-10.92,47.19-35.58,54.8-64.81c-3.77,9.21-10,14.53-13.34,15c-1.9,0.27-2.87-1.03-1.94-4.06
				c-2.33-3.78-5.91-8.97-9.68-12.24c-7.15-6.22-12.71-18.05,9.13-39.22c-2.66-7.35,1.61-14.75,6.24-15.4
				c2.43-0.34,4.96,1.17,6.65,5.52c0.68-0.02,1.32,0.2,1.83,0.63c-10.54-31.39-39.06-49.56-71.31-45.43
				c15.53-0.44,17.38,14.94,8.12,16.24c-0.5,0.07-1.02,0.1-1.58,0.08c-0.27,4.25-0.68,9.95-1.15,14.91
				c-0.84,8.65-10.21,7.56-12.8,12.18c-2.11,3.73,2.46,6.7,8.72,5.82c1.31-0.18,2.7-0.54,4.12-1.09c2.19-0.86,0.2-3.14,1.71-3.91
				c2.06-1.04,4.36-1.63,6.28-1.9c2.25-0.32,3.97-0.18,4.12,0.2c0.48,1.3-4.94,11.32-10.71,23.49c-1.48,3.09-0.02,8.16-0.02,11.2
				c-0.01,7.33-0.91,10.05-2.23,10.24c-1.6,0.23-3.82-3.28-5.82-6.82c-1.99-3.54-3.77-7.11-4.48-7.01
				c-0.42,0.32-0.88,0.48-1.45,0.56c-1.35,0.19-3.28-0.05-5.22-0.3c-1.94-0.25-3.88-0.49-5.21-0.3c-3.44,0.76-1.97,7.35-5.03,7.78
				c-3.4,0.39-4.39-0.02-4.59,0c-0.15,0.02,0.11,0.28,0.17,1.24c0.19,2.85,1.12,9.92,1.1,20.01c0,0.88,0.49,1.13,1.29,1.02
				c0.99-0.14,2.46-0.83,4.06-1.54c1.6-0.71,3.34-1.44,4.85-1.66c5.09-0.52,8.14,3.33,11.26,4.49c5.87,2.19,11.19,10.21,15.27,10
				c3.88-0.18,1.46,6.35,5.11,5.84c0.2-0.03,0.41-0.08,0.65-0.15c0.31-0.09,0.63-0.16,0.95-0.21c5.54-0.78,11.15,5.91,3.92,13.66
				c-5.28,5.7-6.53,12.35-9.06,24.33c0.74-0.32,1.41-0.51,1.99-0.59C176.04,223.25,177.12,224.15,177.43,225.71 M154.35,228.74
				c0.37-0.05,0.74-0.1,1.11-0.13c-0.46-3.78-0.67-8.56-0.58-14.5c-0.89-0.56-17.89-11.3-17.87-20.26
				c0.02-9.02,2.32-13.5,0.02-13.18c-3.06,0.43-5.94,2.15-7.83,2.42c-0.95,0.13-1.65-0.1-2-1.04c-3.05-8.13-9.47-9.86-9.81-9.81
				c-12.14,1.47-12.58-13.93-12.55-28.35c0.01-4.38-4.57-4.12-7.96-5.84c-1.06,3.31-3.93,5.15-6.84,5.56
				c-2.33,0.33-4.69-0.26-6.16-1.76c-1.08,5.66-1.65,11.42-1.67,17.27c-0.05,40.07,26.55,70.6,63.11,72.4
				C148.24,230.1,151.29,229.17,154.35,228.74 M235.24,138.94c0.11-6.28-0.44-12.47-1.64-18.45c0.04,1.44,0.02,2.98-0.07,4.62
				C234.43,129.62,235,134.24,235.24,138.94"/>
		</g>
		<path class="st35" d="M110.83,236.43l-11.46-6.23C74.45,216.64,57.94,188.91,58,154.67c0.05-25.55,9.5-51.38,26.28-71.8
			c16.77-20.4,39.47-33.73,63.13-37.05c17.11-2.41,33.67,0.53,47.83,8.24l11.46,6.23c-14.16-7.71-30.72-10.64-47.83-8.24
			C135.21,55.37,112.5,68.7,95.74,89.1c-16.78,20.42-26.23,46.25-26.28,71.8C69.39,195.14,85.9,222.87,110.83,236.43z"/>
		<g>
			<linearGradient id="SVGID_41_" gradientUnits="userSpaceOnUse" x1="58" y1="140.7151" x2="206.7027" y2="140.7151">
				<stop  offset="0.0626" style="stop-color:#1B4885"/>
				<stop  offset="0.3179" style="stop-color:#579CEF"/>
				<stop  offset="0.7408" style="stop-color:#1D4E8F"/>
			</linearGradient>
			<path class="st36" d="M195.25,54.06c-0.88-0.48-1.77-0.94-2.67-1.38c-4.49-2.21-9.19-3.95-14.06-5.21
				c-9.85-2.56-20.36-3.15-31.1-1.64c-8.95,1.26-17.76,3.94-26.16,7.9c-5,2.35-9.85,5.16-14.5,8.37c-3.73,2.58-7.34,5.44-10.79,8.54
				c-3.16,2.84-6.18,5.89-9.05,9.14c-0.9,1.01-1.78,2.05-2.64,3.1c-1.87,2.28-3.66,4.63-5.34,7.03c-2.65,3.78-5.07,7.71-7.25,11.76
				c-2.61,4.86-4.87,9.88-6.76,15.02c-4.5,12.25-6.9,25.15-6.92,37.99c-0.06,34.24,16.45,61.97,41.38,75.53l11.46,6.23
				c-24.93-13.56-41.44-41.29-41.38-75.53c0.02-12.83,2.42-25.73,6.92-37.99c1.89-5.14,4.15-10.16,6.76-15.02
				c2.18-4.05,4.6-7.98,7.25-11.76c1.69-2.41,3.47-4.75,5.34-7.03c0.86-1.05,1.74-2.08,2.64-3.1c2.87-3.25,5.89-6.3,9.05-9.14
				c3.45-3.1,7.05-5.95,10.79-8.54c4.65-3.22,9.5-6.02,14.5-8.37c8.4-3.96,17.21-6.65,26.16-7.9c10.74-1.51,21.25-0.91,31.1,1.64
				c4.87,1.26,9.58,3.01,14.06,5.21c0.9,0.44,1.79,0.9,2.67,1.38L195.25,54.06z"/>
		</g>
	</g>
	<g>
		<g>
			<path class="st37" d="M175.14,195.01c0,0,0.12-0.7,0.38-1.96"/>
			<path class="st38" d="M176.38,189.11c3.11-13.38,12.33-45.5,30.63-54.17c23.29-11.03-66.2-13.49-87.04,7.36
				c-19.82,19.82,2.49-52.38,27.92-60.56"/>
			<path class="st37" d="M149.86,81.23c0.66-0.12,1.32-0.2,1.99-0.23"/>
		</g>
	</g>
	<g>
		<circle class="st39" cx="115.81" cy="145.79" r="8.53"/>
		<circle class="st40" cx="115.81" cy="145.79" r="12.79"/>
	</g>
	<g>
		<circle class="st39" cx="211.22" cy="131.37" r="8.25"/>
		<circle class="st40" cx="211.22" cy="131.37" r="12.37"/>
	</g>
	<g>
		<circle class="st39" cx="171.02" cy="198.76" r="8.02"/>
		<circle class="st40" cx="171.02" cy="198.76" r="12.02"/>
	</g>
	<g>
		<g>
			<g id="XMLID_17_">
				
					<linearGradient id="XMLID_2_" gradientUnits="userSpaceOnUse" x1="-3.7606" y1="196.2649" x2="27.3896" y2="196.2649" gradientTransform="matrix(0.9936 0.1127 -0.1127 0.9936 254.1844 2.5725)">
					<stop  offset="0" style="stop-color:#3282ED"/>
					<stop  offset="1" style="stop-color:#60A2F0"/>
				</linearGradient>
				<path id="XMLID_18_" class="st41" d="M241.87,193.38l16.81,12.5c-3.09-2.3-7.71-2.55-13.1-0.2l-16.81-12.5
					C234.17,190.83,238.78,191.08,241.87,193.38z"/>
			</g>
			<g id="XMLID_15_">
				
					<linearGradient id="XMLID_3_" gradientUnits="userSpaceOnUse" x1="-4.6836" y1="197.7877" x2="14.3534" y2="197.7877" gradientTransform="matrix(0.9936 0.1127 -0.1127 0.9936 254.1844 2.5725)">
					<stop  offset="0" style="stop-color:#8CC0FC"/>
					<stop  offset="1" style="stop-color:#4399FE"/>
				</linearGradient>
				<polygon id="XMLID_16_" class="st42" points="244.61,206.11 227.8,193.61 228.78,193.18 245.59,205.68 				"/>
			</g>
			<g id="XMLID_13_">
				
					<linearGradient id="XMLID_4_" gradientUnits="userSpaceOnUse" x1="-22.0029" y1="190.9358" x2="9.5268" y2="190.9358" gradientTransform="matrix(0.9936 0.1127 -0.1127 0.9936 254.1844 2.5725)">
					<stop  offset="0" style="stop-color:#3282ED"/>
					<stop  offset="1" style="stop-color:#60A2F0"/>
				</linearGradient>
				<path id="XMLID_14_" class="st43" d="M224.89,184.64l16.81,12.5c-2.26-1.68-5.64-1.86-9.58-0.14c-1.43,0.62-2.83,1.46-4.18,2.45
					l-16.81-12.5c1.35-0.99,2.76-1.83,4.18-2.45C219.25,182.77,222.63,182.96,224.89,184.64z"/>
			</g>
			<g id="XMLID_11_">
				
					<linearGradient id="XMLID_19_" gradientUnits="userSpaceOnUse" x1="-41.2214" y1="191.0168" x2="-6.6927" y2="191.0168" gradientTransform="matrix(0.9936 0.1127 -0.1127 0.9936 254.1844 2.5725)">
					<stop  offset="0" style="stop-color:#3282ED"/>
					<stop  offset="1" style="stop-color:#60A2F0"/>
				</linearGradient>
				<path id="XMLID_12_" class="st44" d="M208.6,184.32l16.81,12.5c-3.89-2.89-9.7-3.21-16.49-0.25l-16.81-12.5
					C198.9,181.11,204.71,181.43,208.6,184.32z"/>
			</g>
			<g id="XMLID_9_">
				
					<linearGradient id="XMLID_20_" gradientUnits="userSpaceOnUse" x1="-78.1031" y1="253.1573" x2="-46.0856" y2="253.1573" gradientTransform="matrix(0.9936 0.1127 -0.1127 0.9936 254.1844 2.5725)">
					<stop  offset="0" style="stop-color:#3282ED"/>
					<stop  offset="1" style="stop-color:#60A2F0"/>
				</linearGradient>
				<path id="XMLID_10_" class="st45" d="M168.49,273.19l-16.81-12.5c-3.05-2.27-4.62-6.54-3.99-12.28
					c1.09-9.85,8.3-20.84,17.03-26.77l16.81,12.5c-8.73,5.93-15.94,16.92-17.03,26.77C163.87,266.66,165.44,270.92,168.49,273.19z"
					/>
			</g>
			<g id="XMLID_7_">
				
					<linearGradient id="XMLID_21_" gradientUnits="userSpaceOnUse" x1="-64.215" y1="212.81" x2="-23.1075" y2="212.81" gradientTransform="matrix(0.9936 0.1127 -0.1127 0.9936 254.1844 2.5725)">
					<stop  offset="0" style="stop-color:#3282ED"/>
					<stop  offset="1" style="stop-color:#60A2F0"/>
				</linearGradient>
				<path id="XMLID_8_" class="st46" d="M181.53,234.14l-16.81-12.5c0.01-0.19,0.03-0.39,0.05-0.59
					c1.61-14.55,13.85-31.11,27.34-36.98l16.81,12.5c-13.49,5.87-25.73,22.43-27.34,36.98
					C181.56,233.75,181.55,233.95,181.53,234.14z"/>
			</g>
			<g id="XMLID_5_">
				<path id="XMLID_6_" class="st47" d="M208.92,196.57c8.47-3.69,15.42-2.28,19.02,2.87c1.35-0.99,2.76-1.83,4.18-2.45
					c7.83-3.41,13.42,0.67,12.49,9.12l0.98-0.43c10.71-4.66,18.36,0.92,17.08,12.49c-1.28,11.56-11,24.71-21.71,29.37l-59.37,25.85
					c-10.71,4.66-18.36-0.92-17.09-12.48c1.09-9.85,8.3-20.84,17.03-26.77c0.01-0.19,0.03-0.39,0.05-0.6
					C183.19,219,195.44,202.44,208.92,196.57z"/>
			</g>
		</g>
		<g>
			<g>
				<path class="st48" d="M201.64,245.67l-8.34,3.41l-0.11-0.8c1.57-0.59,2.23-1.33,1.99-2.24l-1.31-9.73
					c-0.01-1-0.8-1.16-2.35-0.47l-0.11-0.8l13.72-5.61l0.85,4.95l-0.96,0.39c-1.18-2.38-3.1-3.02-5.76-1.94
					c-1.35,0.44-1.9,1.11-1.65,2.02l0.54,3.99c1.93-0.62,2.98-1.89,3.15-3.81l0.87-0.36l0.76,5.66l-0.87,0.36
					c-0.64-1.59-1.91-1.91-3.8-0.97l0.64,4.78c0.01,1,0.88,1.13,2.61,0.36L201.64,245.67z"/>
				<path class="st48" d="M213.88,240.66l-5.73,2.34l-0.11-0.8c1.44-0.64,2.08-1.58,1.91-2.8l-1.26-9.33
					c-0.06-0.87-0.78-1-2.16-0.38l-0.11-0.8l6.43-2.63l4.41,8.21l0.09-0.04l1.85-10.77l6.51-2.66l0.11,0.8
					c-1.57,0.59-2.23,1.33-1.99,2.24l1.31,9.73c0.01,1,0.8,1.16,2.35,0.47l0.11,0.8l-7.73,3.16l-0.11-0.8c1.4-0.51,2-1.24,1.81-2.17
					l-1.4-10.37l-2.57,14.26l-1.91,0.78l-5.77-10.85l1.32,9.81c0.17,1.28,1.01,1.61,2.52,0.99L213.88,240.66z"/>
				<path class="st48" d="M229.08,234.45l-0.73-5.42l0.96-0.39c1.34,2.71,3.17,3.61,5.5,2.72c1.85-0.81,2.7-1.97,2.55-3.48
					c-0.12-0.9-1.45-1.23-3.98-0.98c-3.44,0.29-5.28-0.42-5.51-2.12c-0.22-2.99,1.31-5.25,4.59-6.76c1.1-0.45,2.18-0.61,3.23-0.48
					c0.37,0.02,0.61,0,0.73-0.04c0.23-0.09,0.44-0.37,0.62-0.84c0.04-0.13,0.09-0.23,0.14-0.31l0.87-0.36l0.66,4.86l-0.87,0.36
					c-1.18-2.38-2.81-3.17-4.9-2.37c-1.67,0.74-2.45,1.76-2.34,3.06c0.13,0.96,1.43,1.3,3.89,1.02c3.55-0.39,5.46,0.4,5.73,2.37
					c0.14,2.86-1.45,5.13-4.76,6.83c-1.22,0.5-2.47,0.73-3.75,0.69c-0.43,0.01-0.73,0.04-0.9,0.12c-0.29,0.12-0.55,0.48-0.77,1.07
					l-0.08,0.12L229.08,234.45z"/>
			</g>
		</g>
	</g>
	<g>
		<g class="st9">
			<defs>
				<path id="SVGID_42_" class="st9" d="M150.53,86.03l-4.75-2.58c-0.27-0.14-0.49-0.38-0.65-0.71l4.75,2.58
					C150.03,85.65,150.26,85.89,150.53,86.03z"/>
			</defs>
			<clipPath id="SVGID_43_">
				<use xlink:href="#SVGID_42_"  style="overflow:visible;"/>
			</clipPath>
			<g class="st49">
				<path class="st50" d="M150.53,86.03l-4.75-2.58c-0.27-0.14-0.49-0.38-0.65-0.71l4.75,2.58
					C150.03,85.65,150.26,85.89,150.53,86.03"/>
			</g>
		</g>
		<g class="st9">
			<defs>
				<path id="SVGID_44_" class="st9" d="M147.31,54.34l-4.75-2.58c1.22,0.67,2.67,0.95,4.23,0.73l4.75,2.58
					C149.99,55.29,148.54,55.01,147.31,54.34z"/>
			</defs>
			<clipPath id="SVGID_45_">
				<use xlink:href="#SVGID_44_"  style="overflow:visible;"/>
			</clipPath>
			<g class="st51">
				<path class="st52" d="M147.31,54.34l-4.75-2.58c0.08,0.04,0.16,0.08,0.24,0.13l4.75,2.58
					C147.47,54.43,147.39,54.39,147.31,54.34"/>
				<path class="st53" d="M147.55,54.47l-4.75-2.58c0.4,0.19,0.82,0.35,1.25,0.46l4.75,2.58C148.37,54.82,147.95,54.66,147.55,54.47
					"/>
				<path class="st54" d="M148.81,54.93l-4.75-2.58c0.85,0.22,1.78,0.28,2.74,0.14l4.75,2.58C150.58,55.2,149.66,55.15,148.81,54.93
					"/>
			</g>
		</g>
		<g class="st9">
			<defs>
				<path id="SVGID_46_" class="st9" d="M151.07,36.08l4.75,2.58c2.22,1.21,3.69,3.67,3.68,6.71c-0.01,4.73-3.57,9.07-7.96,9.69
					l-4.75-2.58c4.38-0.62,7.95-4.96,7.96-9.69C154.76,39.75,153.29,37.29,151.07,36.08z"/>
			</defs>
			<clipPath id="SVGID_47_">
				<use xlink:href="#SVGID_46_"  style="overflow:visible;"/>
			</clipPath>
			<g class="st55">
				<path class="st54" d="M151.54,55.07l-4.75-2.58c0.81-0.11,1.58-0.35,2.32-0.7l4.75,2.58C153.13,54.72,152.35,54.96,151.54,55.07
					"/>
				<path class="st53" d="M153.86,54.37l-4.75-2.58c0.45-0.21,0.88-0.46,1.29-0.74l4.75,2.58
					C154.74,53.91,154.31,54.16,153.86,54.37"/>
				<path class="st52" d="M155.15,53.63l-4.75-2.58c0.33-0.23,0.66-0.49,0.96-0.76l4.75,2.58C155.81,53.14,155.49,53.4,155.15,53.63
					"/>
				<path class="st56" d="M156.11,52.87l-4.75-2.58c0.28-0.26,0.56-0.53,0.81-0.82l4.75,2.58C156.67,52.34,156.4,52.61,156.11,52.87
					"/>
				<path class="st57" d="M156.93,52.05l-4.75-2.58c0.25-0.29,0.49-0.59,0.72-0.91l4.75,2.58
					C157.42,51.46,157.18,51.76,156.93,52.05"/>
				<path class="st58" d="M157.64,51.14l-4.75-2.58c0.24-0.34,0.45-0.69,0.65-1.05l4.75,2.58C158.09,50.45,157.88,50.8,157.64,51.14
					"/>
				<path class="st59" d="M158.29,50.09l-4.75-2.58c0.23-0.43,0.43-0.88,0.6-1.34l4.75,2.58C158.72,49.21,158.52,49.66,158.29,50.09
					"/>
				<path class="st50" d="M158.89,48.75l-4.75-2.58c0.39-1.07,0.61-2.21,0.61-3.37c0.01-3.04-1.46-5.51-3.68-6.71l4.75,2.58
					c2.22,1.21,3.69,3.67,3.68,6.71C159.5,46.55,159.28,47.69,158.89,48.75"/>
			</g>
		</g>
		<g>
			<linearGradient id="SVGID_48_" gradientUnits="userSpaceOnUse" x1="134.2312" y1="72.2408" x2="149.8819" y2="72.2408">
				<stop  offset="6.926126e-08" style="stop-color:#9C6D25"/>
				<stop  offset="1" style="stop-color:#926622"/>
			</linearGradient>
			<polygon class="st60" points="149.88,85.32 145.13,82.74 134.23,59.16 138.98,61.74 			"/>
		</g>
		<g>
			<polygon class="st61" points="138.98,61.74 134.23,59.16 134.16,59.01 138.91,61.6 			"/>
		</g>
		<path class="st35" d="M156.02,23.86l4.75,2.58c-2.67-1.45-5.69-2.06-9.03-1.8l-4.75-2.58C150.33,21.8,153.34,22.41,156.02,23.86z"
			/>
		<linearGradient id="SVGID_49_" gradientUnits="userSpaceOnUse" x1="146.9859" y1="23.5485" x2="157.3531" y2="23.5485">
			<stop  offset="0" style="stop-color:#FBB03B"/>
			<stop  offset="1" style="stop-color:#926622"/>
		</linearGradient>
		<path class="st62" d="M151.74,24.64l-4.75-2.58c1.99-0.15,3.86,0,5.62,0.46l4.75,2.58C155.6,24.64,153.73,24.49,151.74,24.64"/>
		<path class="st53" d="M157.35,25.1l-4.75-2.58c0.99,0.26,1.95,0.61,2.86,1.06l4.75,2.58C159.3,25.71,158.35,25.35,157.35,25.1"/>
		<path class="st52" d="M160.22,26.16l-4.75-2.58c0.19,0.09,0.37,0.19,0.55,0.29l4.75,2.58C160.59,26.35,160.4,26.25,160.22,26.16"
			/>
		<g>
			<polygon class="st63" points="151.42,24.68 146.67,22.1 146.99,22.06 151.74,24.64 			"/>
		</g>
		<g>
			<path class="st64" d="M164.17,28.93c3.47,2.89,5.2,7,5.19,12.35c-0.07,4.58-1.81,10.17-5.21,16.78l-11.11,26.83
				c-0.32,0.76-0.95,1.21-1.58,1.3c-0.64,0.09-1.27-0.18-1.59-0.87l-10.9-23.58l-0.07-0.15c-3.43-5.63-5.15-10.74-5.15-15.31
				c0.01-5.35,1.76-9.98,5.24-13.87c3.51-4.18,7.65-6.75,12.42-7.74l0.31-0.04C156.59,24.27,160.74,25.71,164.17,28.93z
				 M151.54,55.07c4.38-0.62,7.95-4.96,7.96-9.69c0.01-4.73-3.54-8.06-7.93-7.44s-7.94,4.94-7.95,9.67
				C143.62,52.34,147.16,55.69,151.54,55.07"/>
		</g>
		<g>
			<g>
				<linearGradient id="SVGID_50_" gradientUnits="userSpaceOnUse" x1="140.2181" y1="61.5968" x2="140.2181" y2="22.1">
					<stop  offset="0" style="stop-color:#976A23"/>
					<stop  offset="1" style="stop-color:#FBB03B"/>
				</linearGradient>
				<path class="st65" d="M146.67,22.1c-0.72,0.15-1.41,0.34-2.1,0.56c-0.2,0.07-0.4,0.14-0.61,0.21c-0.5,0.18-1,0.38-1.49,0.6
					c-0.12,0.05-0.25,0.09-0.37,0.15c-0.09,0.04-0.18,0.1-0.27,0.14c-0.24,0.12-0.47,0.24-0.71,0.37c-0.28,0.15-0.57,0.31-0.84,0.48
					c-0.23,0.14-0.46,0.29-0.69,0.44c-0.15,0.1-0.31,0.19-0.46,0.29c-0.14,0.1-0.27,0.2-0.41,0.3c-0.15,0.11-0.3,0.22-0.45,0.34
					c-0.34,0.26-0.68,0.54-1.01,0.82c-0.11,0.09-0.22,0.18-0.33,0.28c-0.03,0.03-0.07,0.06-0.1,0.09c-0.39,0.36-0.78,0.73-1.16,1.12
					c-0.09,0.09-0.18,0.2-0.27,0.29c-0.23,0.24-0.46,0.48-0.68,0.73c-0.15,0.17-0.3,0.35-0.45,0.53c-0.03,0.04-0.07,0.07-0.1,0.11
					c-0.07,0.08-0.13,0.18-0.21,0.26c-0.4,0.47-0.78,0.94-1.13,1.43c-0.05,0.07-0.12,0.14-0.17,0.21c-0.09,0.12-0.15,0.25-0.23,0.38
					c-0.28,0.42-0.55,0.85-0.8,1.29c-0.07,0.12-0.16,0.24-0.22,0.36c-0.07,0.13-0.13,0.27-0.2,0.41c-0.08,0.15-0.15,0.31-0.23,0.46
					c-0.19,0.41-0.37,0.82-0.54,1.24c-0.04,0.1-0.09,0.21-0.13,0.31c-0.01,0.03-0.03,0.07-0.04,0.1c-0.11,0.3-0.19,0.61-0.29,0.92
					c-0.08,0.25-0.17,0.49-0.24,0.75c-0.1,0.36-0.17,0.72-0.24,1.09c-0.05,0.24-0.12,0.48-0.16,0.73c-0.07,0.41-0.12,0.83-0.16,1.26
					c-0.02,0.21-0.06,0.41-0.08,0.63c-0.05,0.64-0.08,1.29-0.08,1.95c-0.01,4.57,1.71,9.68,5.15,15.31l4.75,2.58
					c-3.43-5.63-5.15-10.74-5.15-15.31c0-0.66,0.03-1.31,0.08-1.95c0.02-0.21,0.06-0.42,0.08-0.63c0.05-0.42,0.09-0.84,0.16-1.26
					c0.04-0.25,0.11-0.49,0.16-0.73c0.08-0.36,0.15-0.73,0.24-1.09c0.07-0.25,0.16-0.5,0.24-0.75c0.11-0.34,0.21-0.68,0.33-1.02
					c0.04-0.1,0.09-0.21,0.13-0.31c0.16-0.42,0.34-0.83,0.54-1.24c0.07-0.15,0.15-0.31,0.23-0.46c0.13-0.26,0.28-0.51,0.42-0.77
					c0.25-0.44,0.51-0.87,0.8-1.29c0.13-0.2,0.26-0.4,0.4-0.59c0.35-0.49,0.73-0.96,1.13-1.43c0.11-0.12,0.2-0.25,0.3-0.37
					c0.37-0.44,0.75-0.85,1.13-1.26c0.09-0.1,0.18-0.2,0.28-0.3c0.41-0.42,0.84-0.83,1.27-1.21c0.11-0.1,0.22-0.18,0.33-0.28
					c0.33-0.28,0.67-0.56,1.01-0.82c0.15-0.11,0.3-0.23,0.45-0.34c0.29-0.21,0.58-0.4,0.87-0.6c0.23-0.15,0.46-0.3,0.69-0.44
					c0.28-0.17,0.56-0.32,0.84-0.47c0.23-0.13,0.47-0.25,0.71-0.37c0.21-0.1,0.43-0.2,0.65-0.29c0.49-0.22,0.99-0.42,1.49-0.6
					c0.2-0.07,0.4-0.15,0.61-0.21c0.69-0.22,1.39-0.42,2.1-0.56L146.67,22.1z"/>
			</g>
		</g>
	</g>
</g>
</svg>
