<?xml version="1.0" encoding="iso-8859-1"?>
<!-- Generator: Adobe Illustrator 23.0.2, SVG Export Plug-In . SVG Version: 6.00 Build 0)  -->
<svg version="1.1" id="&#x56FE;&#x5C42;_1" xmlns="http://www.w3.org/2000/svg" xmlns:xlink="http://www.w3.org/1999/xlink" x="0px"
	 y="0px" viewBox="0 0 500 500" style="enable-background:new 0 0 500 500;" xml:space="preserve">
<g id="&#x6811;&#x53F6;">
	<path style="fill:#95AE3A;" d="M205.582,345.338c0,0-108.567-30.484-22.997-244.409
		C182.585,100.929,330.193,166.355,205.582,345.338z"/>
	<path style="fill:#232323;" d="M210.396,293.899c-0.05,0-0.099-0.005-0.15-0.016c-0.381-0.082-0.623-0.458-0.541-0.839
		c13.704-63.516-15.369-148.25-15.664-149.098c-0.128-0.369,0.066-0.77,0.434-0.899c0.371-0.129,0.77,0.066,0.899,0.434
		c0.296,0.852,29.498,85.962,15.711,149.86C211.013,293.673,210.721,293.899,210.396,293.899z"/>
	<path style="fill:#232323;" d="M195.553,194.311c-15.902,0-26.173-9.859-26.298-9.982c-0.278-0.273-0.283-0.719-0.01-0.998
		c0.272-0.279,0.718-0.282,0.998-0.01c0.149,0.145,15.139,14.489,36.825,7.8c0.376-0.114,0.768,0.094,0.883,0.467
		c0.114,0.373-0.094,0.768-0.467,0.883C203.242,193.779,199.245,194.311,195.553,194.311z"/>
	<path style="fill:#232323;" d="M210.718,212.346c-0.246,0-0.485-0.129-0.615-0.358c-0.192-0.339-0.072-0.77,0.267-0.961
		c0.266-0.151,26.541-15.302,19.678-35.892c-0.123-0.37,0.076-0.77,0.446-0.892c0.374-0.125,0.77,0.077,0.892,0.446
		c7.232,21.693-20.046,37.411-20.322,37.566C210.955,212.317,210.836,212.346,210.718,212.346z"/>
	<path style="fill:#232323;" d="M208.484,238.496c-9.395,0-30.036-1.673-47.361-14.8c-0.311-0.235-0.372-0.678-0.136-0.988
		c0.234-0.311,0.676-0.374,0.988-0.136c22.675,17.18,51.184,14.358,51.468,14.325c0.4-0.034,0.736,0.24,0.777,0.626
		c0.041,0.387-0.238,0.735-0.626,0.777C213.52,238.308,211.633,238.496,208.484,238.496z"/>
	<path style="fill:#ADCD55;" d="M179.111,376.095c-1.945-44.601,8.261-178.203,192.44-225.429c0,0,40.99,235.007-176.597,240.126
		C186.539,390.991,179.478,384.505,179.111,376.095z"/>
	<path style="fill:#607035;" d="M194.707,373.141c-0.152,0-0.305-0.049-0.433-0.15c-0.307-0.24-0.362-0.683-0.122-0.99
		c1.398-1.79,140.056-179.313,164.039-206.117c0.259-0.29,0.705-0.315,0.996-0.055c0.29,0.26,0.315,0.706,0.055,0.996
		C335.29,193.595,196.661,371.08,195.264,372.869C195.124,373.048,194.917,373.141,194.707,373.141z"/>
	<path style="fill:#607035;" d="M292.366,248.965c-0.314,0-0.601-0.212-0.683-0.531c-3.956-15.439,8.081-57.666,8.595-59.456
		c0.108-0.375,0.497-0.589,0.873-0.483c0.374,0.107,0.591,0.498,0.483,0.873c-0.125,0.435-12.446,43.647-8.584,58.716
		c0.096,0.378-0.131,0.762-0.509,0.859C292.483,248.958,292.424,248.965,292.366,248.965z"/>
	<path style="fill:#607035;" d="M296.95,264.403c-9.521,0-14.58-2.488-15.037-2.723c-0.346-0.178-0.481-0.603-0.303-0.95
		c0.179-0.346,0.605-0.48,0.95-0.305c0.25,0.127,25.388,12.359,71.836-19.422c0.324-0.22,0.761-0.137,0.981,0.184
		c0.22,0.322,0.138,0.761-0.184,0.981C328.669,260.315,309.149,264.403,296.95,264.403z"/>
	<path style="fill:#607035;" d="M254.512,296.896c-0.231,0-0.457-0.113-0.592-0.32c-0.165-0.253-16.386-25.617-8.553-55.171
		c0.1-0.377,0.489-0.598,0.863-0.502c0.377,0.1,0.602,0.487,0.502,0.863c-7.669,28.933,8.209,53.792,8.371,54.04
		c0.212,0.327,0.121,0.764-0.206,0.976C254.777,296.858,254.643,296.896,254.512,296.896z"/>
	<path style="fill:#607035;" d="M257.777,322.981c-13.331,0-22.011-2.193-22.21-2.245c-0.376-0.099-0.602-0.484-0.502-0.861
		s0.486-0.602,0.861-0.503c0.458,0.12,46.165,11.636,89.579-19.176c0.318-0.226,0.759-0.15,0.984,0.167
		c0.225,0.318,0.151,0.759-0.167,0.984C301.264,319.129,275.439,322.981,257.777,322.981z"/>
</g>
</svg>
