<svg id="图层_1" data-name="图层 1" xmlns="http://www.w3.org/2000/svg" viewBox="0 0 551 551"><defs><style>.cls-1{fill:#969451;}.cls-2{fill:#49463e;}.cls-3{fill:#545147;}.cls-4{fill:#564040;}.cls-5{fill:#f7b5b5;}.cls-6{fill:#f9c7c6;}.cls-7{fill:#664b39;}.cls-8{fill:#d75566;}.cls-9{fill:#eaa4a4;}.cls-10{fill:#cff4f9;}.cls-11{fill:#c9c98d;}.cls-12{fill:#afaa69;}.cls-13{fill:#edeccc;}.cls-14{fill:#513d3d;}.cls-15{fill:#443332;}.cls-16{fill:#fcf3e2;}.cls-17{fill:#8fe2ef;}.cls-18{fill:#b78637;}.cls-19{fill:#af7c33;}.cls-20{fill:#966929;}.cls-21{fill:#634c49;}.cls-22{fill:#545452;}.cls-23{fill:#f7d189;}.cls-24{fill:#27aaa0;}.cls-25{fill:#31bab5;}.cls-26{fill:#332320;}.cls-27{fill:#d65859;}.cls-28{fill:#6b6b6a;}.cls-29{fill:#f2826a;}.cls-30{fill:#7f414d;}.cls-31{fill:#c94b60;}.cls-32{fill:#543328;}.cls-33{fill:#eebd5e;}.cls-34{fill:#919b96;}.cls-35{fill:#e86f4d;}.cls-36{fill:none;stroke:#f7b5b5;stroke-linecap:round;stroke-linejoin:round;stroke-width:0.56px;}</style></defs><title>我想要的2021终稿</title><path class="cls-1" d="M349.32,283s-17.43-16.71-38.88-9.8-23.61,7.8-23.61,7.8L282,220.42,286.83,180s18,45.68,20.26,47.91S345.52,263.59,349.32,283Z"/><path class="cls-2" d="M297.71,226.52s4,20.13-7.15,37.51-16.76,34.54-23.91,39.22-19.81,41-19.81,41-9.83,2-11-1.12,3.46-29.85,17.35-47.9c0,0,24.17-52.09,27.41-64.7S297.71,226.52,297.71,226.52Z"/><path class="cls-3" d="M286.83,243.81s17.8,57,18,58.77,17,55.7,17,56.59-8,7.36-12.29,2.68-22.79-49-20.34-55.7c0,0-32.88-39-29.73-50.81s-2.76-27.62,7.56-32.75S286.83,243.81,286.83,243.81Z"/><path class="cls-4" d="M261.07,114.9s-4.17,5.58-2.68,17.46-6.56,13.07-5.07,18.42-3.27,5.05-3.57,10.4-.3,8.32,5.66,8.32,37.84,4.45,38.14-4.16.59-6.24,2.08-6.84,8.64-.29,4.47-8.31c0,0,1.79-6.51-1.19-7.42s-7.48-8.35-7.18-10.73,1.95-3.15-3.55-12.47C288.18,119.57,278.65,100.11,261.07,114.9Z"/><path class="cls-5" d="M267.4,145.18c0,1.92,2.68,5.49,1.34,12.84l-2.9,13.81s23.85,1.43,23.91,0c.76-20.26-9.78-18.23-10.05-21.06A30.36,30.36,0,0,1,280.81,140Z"/><path class="cls-6" d="M262.61,119.09s-3.13,17.6,1.12,23.17S271,148.2,273,148.2s12.22-5.72,12.89-10.62c0,0,4.47-.44,3.57-6s-3.57-.67-3.57-.67S284.06,102.82,262.61,119.09Z"/><path class="cls-4" d="M261.39,126.64s1.79-8.62,10.72-6.24c0,0,3-2.68,10.43,6.24l3,3.56s7.75-5.64,0-14.56S255.43,109.4,261.39,126.64Z"/><path class="cls-7" d="M272.66,129.2a8.54,8.54,0,0,1,1.9-1.07,7.26,7.26,0,0,1,2.08-.54,5.05,5.05,0,0,1,2.12.24,5.31,5.31,0,0,1,1.79,1.06,5.25,5.25,0,0,0-1.85-.84,4.77,4.77,0,0,0-2,0,6.85,6.85,0,0,0-1.86.7,8.11,8.11,0,0,0-1.6,1.14h0a.44.44,0,0,1-.63,0,.44.44,0,0,1,0-.63Z"/><path class="cls-7" d="M261.88,129.54a5.75,5.75,0,0,1,3.43-1.5,4.81,4.81,0,0,1,1.95.24,6.54,6.54,0,0,1,1.76.91.44.44,0,0,1,.12.62.44.44,0,0,1-.61.12l0,0,0,0a5.82,5.82,0,0,0-1.44-1,4.35,4.35,0,0,0-1.7-.42A5.64,5.64,0,0,0,261.88,129.54Z"/><path class="cls-8" d="M267.75,141.22h9.34S272.46,147.91,267.75,141.22Z"/><path class="cls-7" d="M270.5,133.88a6.81,6.81,0,0,1,.11,2.21,4.76,4.76,0,0,1-.28,1.11,1.76,1.76,0,0,1-.77.94v-.37a9.12,9.12,0,0,0,1.38.52,6.84,6.84,0,0,0,1.49.26,4,4,0,0,1-1.55,0,5.46,5.46,0,0,1-1.51-.45.2.2,0,0,1-.1-.27.24.24,0,0,1,.08-.09h0a1.75,1.75,0,0,0,.58-.74,4.14,4.14,0,0,0,.3-1A16.62,16.62,0,0,0,270.5,133.88Z"/><path class="cls-4" d="M283.29,126.64a9.2,9.2,0,0,0,0,5.4,9,9,0,0,1-1.17,8c-1.49,1.82,0,4.54,0,4.54a5.54,5.54,0,0,1,1-3.32c1.19-1.78,2.68-3.56,2.24-6.68s.87-4.34.87-4.34l1.06-5.47Z"/><path class="cls-7" d="M265.91,131.09a1.84,1.84,0,0,0-1.84,1.84,1.74,1.74,0,0,0,.2.82l1-.82-.37,1.56a1.87,1.87,0,0,0,1,.28,1.84,1.84,0,0,0,0-3.68Z"/><path class="cls-7" d="M276,131.09a1.84,1.84,0,0,0-1.85,1.84,1.87,1.87,0,0,0,.2.82l1-.82-.37,1.56a1.93,1.93,0,0,0,1,.28,1.84,1.84,0,0,0,0-3.68Z"/><ellipse class="cls-9" cx="264.69" cy="138.11" rx="2.23" ry="1.89"/><ellipse class="cls-9" cx="277.81" cy="138.11" rx="2.23" ry="1.89"/><path class="cls-10" d="M268.43,157.75s10.45,8.25,13.61,0l14.77,39.89,3.35,32.3s-7.2-4.23-18.12,0-11.48,8.92-11.48,8.92Z"/><path class="cls-1" d="M269,151.87s-3.43-1.4-7.23,3.8a12.73,12.73,0,0,1-8.94,5.43l-5.95,45.67s8.12,30.3,0,44.12-12.74,32.75-11,37.65c0,0,21.63,6.24,28.78,6.69a13.76,13.76,0,0,1,10.51,6,324.46,324.46,0,0,1,1.56-43.44c2.46-22.73,9.83-53.26,5.36-67.52S268.4,157.36,269,151.87Z"/><path class="cls-11" d="M282.7,192.82l-1.56-5.36c-4.62-13.79-12.7-30.45-12.18-35.59,0,0-2.75-1.13-6.21,2.57-.83,6.21-1.95,19.73,3.9,20.25,7.47.65,15.79,17.62,16.06,18.17Z"/><path class="cls-12" d="M279.7,150.77s4.08.15,8.55,4.46,8.19,5.05,9.08,11.14,3.88,27.63,8.79,39.21,42,50.51,43.2,64,0,13.37,0,13.37-13.85-26.14-41.86-38a39,39,0,0,1-12.81-31.49C295.84,193.11,279.7,150.77,279.7,150.77Z"/><path class="cls-11" d="M291.59,190.19s-.06-17.74,2.76-22.63c1.32-2.29-.46-6.09-2.75-9.49a39.8,39.8,0,0,1-3.35-2.84c-4.47-4.31-8.55-4.46-8.55-4.46S287,171,291.59,190.19Z"/><polygon class="cls-13" points="286.86 214.3 285.61 213.97 287.06 208.45 288.31 208.77 286.86 214.3"/><path class="cls-14" d="M291.87,219.32l-13.09-3.41a1.09,1.09,0,0,1-.78-1.33l.05-.2a1.1,1.1,0,0,1,1.34-.78L292.47,217a1.1,1.1,0,0,1,.78,1.33l-.05.2A1.09,1.09,0,0,1,291.87,219.32Z"/><path class="cls-15" d="M292.49,217l-13.12-3.42,0-.13a1.45,1.45,0,0,1,1.77-1l10.3,2.69a1.45,1.45,0,0,1,1,1.77Z"/><path class="cls-16" d="M281.53,241.75l-4.74-1.24a1.48,1.48,0,0,1-1.1-1.61l2.84-23.06,13.59,3.54-8.84,21.5A1.49,1.49,0,0,1,281.53,241.75Z"/><polygon class="cls-17" points="286.72 232.52 290.28 223.84 277.94 220.62 276.79 229.93 286.72 232.52"/><path class="cls-6" d="M270.33,223.24s5.27,1.22,6.46,1,6.3-1.73,7.93-.46,4.12,1.64,6,5.63-.88,1.8-1.9.06a9.54,9.54,0,0,0-4.55-3.43s3.32,2.78,3.93,4.09,2.24,4.38.79,4.53c-.86.1-2.28-3.18-2.28-3.18a11.08,11.08,0,0,0-4.21-3.23,41.66,41.66,0,0,1,3.3,3.56c.65,1,3.49,4,2.16,4.22s-4.27-3.61-4.27-3.61L281,230.74a10.45,10.45,0,0,1,2.09,2.32c.24.71,1.6,3.58,1.6,3.58s-1.43.74-3.47-3.24L278.72,232s-2.1.19-5.19-2.69a17.62,17.62,0,0,1-4.42-.45C267.66,228.34,270.33,223.24,270.33,223.24Z"/><path class="cls-11" d="M252.79,161.1S232,191.84,236.48,203s21.51,24,28.24,25.7c0,0,3.53,10.81,6,9s-.83-9.85,2.4-11.44,6-5.15,3.82-5.33a15.71,15.71,0,0,1-5.18-2s-4.88-5.86-5-6.78-9.88-6.94-9.88-6.94l-1.11-3.71-3.59-1.57s7.07-28.82,7.07-30.82-.22-7.36-4.69-7.58Z"/><path class="cls-18" d="M131.6,362.12H444.73c4,0,5.4-6.93,1.86-9.43l-45.34-32a3.17,3.17,0,0,0-1.86-.62H108.61c-3.39,0-5.16,5.22-2.85,8.43l23,32A3.55,3.55,0,0,0,131.6,362.12Z"/><path class="cls-19" d="M127.16,360.26s.17,5.23,7.18,9.37-.46-13.28-.46-13.28Z"/><path class="cls-19" d="M126.6,429.24s1.13,2.61,7.85,3.53c7.89,1.09-4.62-11-4.62-11Z"/><path class="cls-19" d="M107.62,402.78l19.17,26.81a2.28,2.28,0,0,0,4.12-1.31l.51-68.94A2.19,2.19,0,0,0,131,358l-20.76-29a2.28,2.28,0,0,0-4.12,1.31l-.5,66.19A10.76,10.76,0,0,0,107.62,402.78Z"/><path class="cls-18" d="M136.11,433H433a7.92,7.92,0,0,0,7.65-7.87l1.68-59.26a7.4,7.4,0,0,0-7.2-7.87H138.24a7.92,7.92,0,0,0-7.65,7.87l-1.68,59.26A7.4,7.4,0,0,0,136.11,433Z"/><path class="cls-20" d="M131.22,362.12H446.48a2.15,2.15,0,0,0,2.07-2.22V358l-319.78-1.58-.19,4.2A3.15,3.15,0,0,0,131.22,362.12Z"/><path class="cls-20" d="M105.7,328.25,129.15,361v-5l-23.82-33.28c-.2-.28-.55,1.22-.55,1.57l-.06.88A5.32,5.32,0,0,0,105.7,328.25Z"/><path class="cls-15" d="M161.78,207.87s-7,16.56-17.56,21.48c0,0-6.61,8.53-2.59,10.91,0,0-7.69-.76-6.65,3.82s-3.69,5.6-3.18,9.67,11.95,13.6,18.46,9.4,23.81-9.65,23.81-9.65l28.49,18.06s19.67-5.26,19.87-10.81-1.14-6.3-1.69-6.49c0,0,3.35-3.88.92-5.32,0,0,1.34-5-2.55-7,0,0-14.48-5-18.08-15.39S196.77,213,196.77,213s-21.82-17.33-29.2-7.21S161.78,207.87,161.78,207.87Z"/><path class="cls-5" d="M172.59,237s3.7,4.62,0,11.09L159.23,252s-2,15.35,2.78,19.6,27.08,10.91,32.09,3,5.56-22,5.56-22-15.21-2-15.39-6.84a21.7,21.7,0,0,1,.56-7Z"/><path class="cls-6" d="M193.69,222.52c-1.1,8.46-4.27,19-13.7,18.64-8.75-.37-12.37-8.12-13.89-15.58l8.41-22.38h7.6l11.58,19.32"/><path class="cls-15" d="M166.78,208.79c-3.32,5.34-2.45,17.56-2.45,17.56,12.28-5.17,14-20.06,14-20.06s7,16.51,17.8,16.51c0,0,2.29-10.54-1.24-16.51s-8.45-13.88-22.37-9.66-13.74,16.33-12,22.3c0,0,1.34-2.29,4,.35"/><path class="cls-6" d="M164.41,218.42c-1-.9-2.58-1.8-3.74-.18-1.85,2.59,1.41,5.35,1.45,5.88s1.6,4.86,4.61,3.46"/><path class="cls-21" d="M182.86,224.08a10.3,10.3,0,0,0,2.27,5h0l0,0a.43.43,0,0,1,0,.58,1.66,1.66,0,0,1-.71.41,3.17,3.17,0,0,1-.66.12,5.1,5.1,0,0,1-1.24,0,5.24,5.24,0,0,0,1.08-.46,2.17,2.17,0,0,0,.44-.32c.11-.1.26-.29.23-.31v.62h0a9.19,9.19,0,0,1-1.11-2.76A12.52,12.52,0,0,1,182.86,224.08Z"/><path class="cls-8" d="M177.11,233.45l9.18-.32S181.74,241.1,177.11,233.45Z"/><path class="cls-15" d="M178.13,218.17a4.39,4.39,0,0,0-2.44-.59,3.23,3.23,0,0,0-2.06,1h0a.53.53,0,0,1-.75,0,.53.53,0,0,1,0-.75l.1-.08a4.45,4.45,0,0,1,1.33-.61,3.59,3.59,0,0,1,1.42-.1A4.64,4.64,0,0,1,178.13,218.17Z"/><path class="cls-15" d="M184.71,217.74l1-1.28a.56.56,0,0,1,.89.67.69.69,0,0,1-.3.21Z"/><path class="cls-15" d="M176.15,221.18c-1,0-1.74.87-2,2.06l2.28.84-2.36.3c.11,1.46,1,2.6,2.08,2.6s2.09-1.29,2.09-2.9S177.3,221.18,176.15,221.18Z"/><path class="cls-15" d="M187.41,220.72c-.95,0-1.74.87-2,2.06l2.28.84-2.36.3c.11,1.46,1,2.6,2.08,2.6s2.09-1.3,2.09-2.9S188.56,220.72,187.41,220.72Z"/><path class="cls-22" d="M157.19,347.24s3.6,33.84,8.48,41.89,12.66,34.67,12.66,34.67l2.79-46.32s-3.28-36.34-4-42.44c-.45-3.82-6-28.36-11.44-23.86C134.61,336.69,156.49,341.8,157.19,347.24Z"/><path class="cls-23" d="M165.67,256l11.44,9.55L195.73,256l10,46.21a31.75,31.75,0,0,0,4.08,21.1c6.3,10.36,3.34,16.65,3.34,16.65s-9.28-16.65-21.89-16.65c-5.91,0-13.34-1.31-19.57-2.71-3-.67-5.44-2.35-7.57-2.92a13.29,13.29,0,0,0-5.28-.35Z"/><path class="cls-24" d="M171.38,248.49s-14.09.09-19.29,6.57-17.24,43.78-17.24,47.13-3.53,21.47,16.69,12.78c0,0,6.49-6.14,7.79-12.78l-3,11.49s12,1.48,12-4.81-2.78-15.72-2.78-15.72S161.37,268.93,171.38,248.49Z"/><path class="cls-25" d="M136.18,296.49s9-10.55,16.82-7.22c0,0,4.29,8,7.81,8.87l-1.89,5.62s-9.42,22.31-20.37,14.73S136.18,296.49,136.18,296.49Z"/><path class="cls-26" d="M160.37,279l-3.85-11.15a1.81,1.81,0,0,1,1.31-2.34l10.23-2.32a1.81,1.81,0,0,1,2.16,1.34l6,25.43a1.8,1.8,0,0,1-1.32,2.16l-8.68,2.18a1.8,1.8,0,0,1-2.18-1.28l-3.67-13.89Z"/><path class="cls-6" d="M154.23,291.34a6.74,6.74,0,0,0,1.94-4.11c.37-2.77-.48-10,1.89-14.92l2.33,6.76s5-9.77,6.47-13.1c0,0,2.5-2,1.88,2.63s-1.6,9.57-1.6,9.57,3.53.3,4.8-1.66c.9-1.41.2-3.87.2-3.87s3.62-1.4,2.65,5.39c0,0,1.39.84.17,4.3l-3.58,4.86,3.86-.92-.28-1.81s.65-1.53,1.35.14a5.63,5.63,0,0,1,.27,2.76,1.92,1.92,0,0,1-1,1.46L164.15,295l-3.34,3.19a10.49,10.49,0,0,1-3.72-2.46A9.64,9.64,0,0,1,154.23,291.34Z"/><path class="cls-24" d="M200.31,252.28s-7.43-3.36-14-3.79c0,0,4.15,20.62,4.52,38.37s2.65,32,11.69,28.48,10.57-6.1,10.57-6.1Z"/><path class="cls-6" d="M237.09,333.37s1,4.72,3.28,5.27,13.91,1,15.58,2.22,10.43,3.33,9.87,4.58c0,0,0,.46-1.23.32,0,0,1.72.83,0,1.32a12.52,12.52,0,0,1-2.41,0c-1-.14-6.65-2.36-6.65-2.36s-9.46-1.39-10,.6c0,0,.67,1.48,6,1.64,0,0,2.81.44,2.83,2.13,0,0-.35.9-6.07.92s-7.3-1.15-7.3-1.15-6.31-1-8.35-7-3.52-6.71-3.52-6.71Z"/><path class="cls-25" d="M197.34,257.65s1.11-5.27,3-5.37c3.68-.19,18.18,37.17,18.18,37.17S234.62,312.2,240,318.86s-2,14.05-2,14.05-8,4.44-11.5,3.7-18.36-30.51-19.84-36.8S191,271.33,197.34,257.65Z"/><path class="cls-27" d="M158.8,324l-5.8,47.9s-14.72,1.94-22.79,0,0-17.18,0-17.18,9.46-26.37,20.31-28.87S158.8,324,158.8,324Z"/><path class="cls-28" d="M203,324a55.72,55.72,0,0,0-13.7-1.33c-14.87.51-37.15,3.27-42.4,4.88-9.71,2.95-2,48.51-5.1,70.05-3.37,23,0,1.85,0,1.85l8.9,3s12.61-23.67,11.87-48.45v-1.76s42.28,11.19,47.47,0S217.46,334.76,203,324Z"/><path class="cls-27" d="M222.29,381.36s-3.62,9.71-9.18,10-21.84-65.18-25.8-65.46S222.29,381.36,222.29,381.36Z"/><path class="cls-29" d="M119.13,361.11s16.5-35.78,36.74-39.39,36.47-2,43.79,4,22.63,31.19,34.87,52.29l3.61,5.83s-10,5.55-13.07,5.83-19.2-29.12-26.71-39.67-22.2-24.13-42.63-24.13C138.47,324.09,134.61,368,134.61,368S119.74,366.66,119.13,361.11Z"/><path class="cls-30" d="M141.81,350s17.36,3.55,22,14.34L153,401.05l1.23,1.67-1.65,1.94s5.28,4.44,5.08,8.32-1.79,14.42-1.79,14.42l-5,2.1-1.85-10.14s.08,7.21-3.54,11.65-24.2,5.82-24.2,5.82-1.33-4.16,5.31-10,13.68-26.91,13.68-26.91Z"/><path class="cls-30" d="M159.07,375.44S169.53,365.83,182,369c0,0,1.11,37.35,3.9,50.3s9.56,28.29,9.88,28.85S199,456.44,197.9,460s-7.79,5.36-14.65-1.29-8.53-20.16-8.53-20.16-4.27-7.21-4.27-9.06,2.41-9.62,2.41-9.62Z"/><ellipse class="cls-9" cx="174.07" cy="230.16" rx="2.78" ry="2.5"/><ellipse class="cls-9" cx="189.12" cy="229.48" rx="2.78" ry="2.5"/><path class="cls-5" d="M174.79,278a10.06,10.06,0,0,1-2.1,3.76,16.09,16.09,0,0,1-1.54,1.55,18.74,18.74,0,0,1-1.72,1.33.25.25,0,0,1-.35-.06.24.24,0,0,1,.07-.34h0a19.57,19.57,0,0,0,1.76-1.21,14.26,14.26,0,0,0,1.58-1.43,9.9,9.9,0,0,0,2.28-3.59Z"/><path class="cls-31" d="M380.09,289.42a10.78,10.78,0,0,1,2.81,1.52,19,19,0,0,1,2.31,2,23.56,23.56,0,0,1,2,2.27c.61.79,1.17,1.61,1.7,2.45-.63-.77-1.28-1.51-2-2.21a22.44,22.44,0,0,0-2.19-1.95,18,18,0,0,0-2.41-1.6,10.18,10.18,0,0,0-2.54-1Z"/><path class="cls-5" d="M359,222.17l5.43,6.06s-2.37,4.57,2.92,10.12-19.66,5.55-19.66,5.55,4.13-8.11,0-15.08S359,222.17,359,222.17Z"/><path class="cls-32" d="M359,222.17s-1.11,13.12,11.5,4.57,1.95-28.61,1.95-28.61l-4.17-4.34s-13.36-6.57-21.24,0c0,0-8.39,3.94-6.33,8.3S359,222.17,359,222.17Z"/><path class="cls-6" d="M341.73,201s-5.2,4.07-3.16,12.94a12.68,12.68,0,0,1-4.08,7.21s.75,2,2.42,2.41c0,0-1.12,2.4,1.2,3s4.73-1.85,4.73-1.85-3,3-4.17,3c0,0-.59.7,1,1.19a5.76,5.76,0,0,1,1.81,3.74c.21,2.43,3.15,3.85,14.84-6.6,0,0,1.39-1.57,1.39-2.49,0,0,5.93-1.76,4-7.4s-4.73-.28-4.73-.28.65-8.23-5.37-10C351.56,205.81,349.61,200.35,341.73,201Z"/><path class="cls-33" d="M371.65,199.07l-3.15-4.24a2,2,0,0,1,.42-2.78h0a2,2,0,0,1,2.79.42l3.14,4.23a2,2,0,0,1-.41,2.78h0A2,2,0,0,1,371.65,199.07Z"/><path class="cls-32" d="M369.64,192.68s6.67-19.6,18-3.05-9,16.73-14.56,7.76Z"/><path class="cls-32" d="M341.77,211.42c-.69,0-1.27.7-1.46,1.67l.86.64-.91.19c.06,1.18.71,2.12,1.51,2.12s1.53-1,1.53-2.31S342.62,211.42,341.77,211.42Z"/><ellipse class="cls-9" cx="346.09" cy="219.67" rx="2.78" ry="2.5"/><path class="cls-31" d="M383.08,307.2s-2.22,6.23,3.16,18.81,2.67,21.63-9.61,28.29-44-1.42-42.18-5.85-10-23.37-10-23.37,11.87-12.57,11.87-21.27S383.08,307.2,383.08,307.2Z"/><path class="cls-8" d="M335.05,247s-3.45,2.59-4.64,18.59-.55,31.43-6.3,33.84S303.34,309.55,312.8,319s27.29-11.05,27.56-14.8,2.27-1.51,2.47-6.39S335.05,247,335.05,247Z"/><path class="cls-31" d="M346.09,235.58s16.05-4.32,17.9-3.32.73,2.49,2.87,4.06a10.72,10.72,0,0,0,5.28,1.66s8.18.57,13,4.14c7.05,5.21,4.06,63.1-2.06,65.08s-31.06,17.14-43.39,1.33c0,0-3.8-3,1.67-6.29,0,0-4.26-9.18-2.18-15.5,0,0-6.73-35-4.13-39.79s11.17-5.08,11.91-7.67C347,239.28,344.39,236,346.09,235.58Z"/><path class="cls-8" d="M338.12,306.81a22.45,22.45,0,0,0,6.8,3.91,34.88,34.88,0,0,0,7.77,1.9l2,.2c.67.06,1.34.05,2,.08,1.34.09,2.69,0,4-.07s2.68-.27,4-.4l4-.7-4,.84c-1.34.18-2.67.43-4,.54s-2.7.25-4.05.21c-.68,0-1.36,0-2,0l-2-.14a35.83,35.83,0,0,1-8-1.66,23.39,23.39,0,0,1-7.29-3.9Z"/><path class="cls-8" d="M338.76,296.61a10.89,10.89,0,0,0,1,3.14,20.45,20.45,0,0,0,1.79,3,29.82,29.82,0,0,0,2.19,2.71l1.21,1.27,1.27,1.22-1.37-1.12-1.31-1.17a32.8,32.8,0,0,1-2.43-2.57,20.77,20.77,0,0,1-2.08-2.91,15.28,15.28,0,0,1-.83-1.61,8.35,8.35,0,0,1-.58-1.81Z"/><rect class="cls-16" x="334.63" y="258.97" width="1.52" height="6.72"/><rect class="cls-14" x="326.15" y="267.12" width="18.48" height="2.8" rx="1.17" ry="1.17"/><path class="cls-15" d="M329.28,265.25H341.5a1.86,1.86,0,0,1,1.86,1.86v0a0,0,0,0,1,0,0H327.42a0,0,0,0,1,0,0v0A1.86,1.86,0,0,1,329.28,265.25Z"/><path class="cls-16" d="M338.27,298.51h-5.76a1.75,1.75,0,0,1-1.74-1.51l-3.64-27.08h16.52L340,297A1.73,1.73,0,0,1,338.27,298.51Z"/><polygon class="cls-34" points="341.42 286.47 342.89 275.54 327.89 275.54 329.36 286.47 341.42 286.47"/><path class="cls-6" d="M351.74,287.24s-5.51-3.16-6.35-4.31-4-6.53-6.44-6.74-4.86-1.9-9.72,0-.69,2.25,1.59,1.58c1-.3,4.66-.47,6.67.69,0,0-5.09-.27-6.67.36s-5.46,2-4.33,3.26c.66.78,4.51-.91,4.51-.91s3.69-.56,6.22.6a47.68,47.68,0,0,0-5.69.42c-1.35.31-6.21.63-5.26,1.89s6.58.32,6.58.32l3.67.74s-2.9-.11-3.67.31-4.25,1.79-4.25,1.79.63,1.79,5.59,0l3.31.8s1.66,1.84,6.62,1.84a21.1,21.1,0,0,0,4.17,3.15C349.93,293.77,351.74,287.24,351.74,287.24Z"/><path class="cls-6" d="M314.35,316.48s.47-3.11,4-2.26c0,0,.39-2.71,2.57-1.86,0,0,.31-2.1,3-1.17,0,0-.08-2.33,2.8-1.47a5.55,5.55,0,0,1,3.66,2.72s4.36-.89,4.28.56-1.09,3.09-4.12,2.54c0,0-.7.94-1.56.47,0,0,.66,2.33-2.67,1.71a3,3,0,0,1-4.42,1.4s.16,1.58-2.57.48l-2.65.84C315.83,320.67,314.35,316.48,314.35,316.48Z"/><path class="cls-8" d="M384.33,241.35s9.89,5.05,11.19,37.24-22.81,33.68-22.81,33.68-15.95-.74-16.51-11.47c0,0-7.73-.66-8.34-5.91S351,283,354.53,282.84s6.86,3.36,6.86,3.36a11.61,11.61,0,0,1,10.29.36S366.1,240.52,384.33,241.35Z"/><path class="cls-5" d="M318.56,316.89a87.21,87.21,0,0,1,30.77,4.55s9.27,1.61,9.46,17.88-22.3,7.95-22.3,7.95S320.32,319.11,318.56,316.89Z"/><path class="cls-15" d="M314.19,325.08s-9-3.52-14.19,8.69-13.67,69.44-13.67,69.44-3.71,20.34-7.6,24-11.63,13.21-6.31,14.42c6.49,1.48,13.36-4.06,17.25-7.58,2.71-2.44,7.8-14.47,7.8-14.47l2.65,11.72,1.79-.21,1.48-17.56s-1.85-7.77-4.82-12.58l15.62-42.07Z"/><path class="cls-14" d="M336.49,317.87s12.47,6.29,7.65,31.53c0,0-7.59-1.2-8.71-2.13,0,0,2.05,23.3,0,42.72l-1,12.39s2.34-.46,3.85,10.45l-.69,14.79H335.8l-3.08-9.12a61.1,61.1,0,0,0-4.1,12.26c-1.49,6.85-21.52,10.54-22.26,9.25,0,0-3.89-5.18,7.14-14.79,0,0,6-6.11,6.59-22.56s-12.39-63.87-8-78.87C312.05,323.79,314.56,313.8,336.49,317.87Z"/><path class="cls-32" d="M339,208.12a3.59,3.59,0,0,1,2.51-.71,8.29,8.29,0,0,1,2.38.51,15.23,15.23,0,0,1,2.16,1c.69.38,1.34.83,2,1.27a.06.06,0,0,1,0,.07,0,0,0,0,1-.07,0c-.68-.39-1.36-.77-2.07-1.1a15.88,15.88,0,0,0-2.17-.83,7.51,7.51,0,0,0-2.24-.3,4.13,4.13,0,0,0-1.07.16,2.37,2.37,0,0,0-.84.46l0,0a.42.42,0,0,1-.58,0,.41.41,0,0,1,0-.59Z"/><path class="cls-35" d="M337.22,226l.77-.42a2.05,2.05,0,0,1,1.17-.25,8.29,8.29,0,0,0,3.52-.52.1.1,0,0,1,.14.1c-.07.71-.5,3.59-3.15,4h-.06c-.27-.11-2.7-1,.3-1.73l.06,0a12.9,12.9,0,0,0,1.92-1.6s-2.75,2.26-4.68.66A.11.11,0,0,1,337.22,226Z"/><polyline class="cls-36" points="369.85 237.64 353.24 266.19 346.09 240.35"/><ellipse class="cls-23" cx="353.3" cy="268.61" rx="3.99" ry="3.98"/><ellipse class="cls-25" cx="353.3" cy="268.61" rx="2.82" ry="2.81"/></svg>