
<svg xmlns="http://www.w3.org/2000/svg" version="1.1" xmlns:xlink="http://www.w3.org/1999/xlink" preserveAspectRatio="none" x="0px" y="0px" width="1024px" height="1024px" viewBox="0 0 1024 1024">
<defs>
<g id="Layer0_0_MEMBER_0_MEMBER_0_MEMBER_0_FILL">
<path fill="#F41616" stroke="none" d="
M 305 256.2
L 305.7 255.65 303.15 256.3
Q 301.4 258.65 300.85 262.1 299.8 269.45 296.15 279.25 292.5 289.3 287.4 295.5 281.55 302.75 273.8 305.2 268.35 306.95 261.75 306.6 255.7 306.3 249.8 304.3 249 304.05 248.65 304.8 248.3435546875 305.412890625 248.8 305.85 248.5193359375 305.5546875 248.85 305.1 249.25 304.5 249.95 304.8 253.75 306.1 257.15 306.8 262.55 307.9 267.7 307.45 270.15 307.25 272.8 306.6 276.35 305.65 280 303.25 282.7 301.45 286.25 298.25 291.4 293.65 293.9 289.55 296.15 286 298 281.45 298.55 280.05 299.45 277.35 301.95 269.7 302.85 265.5 303.05 264.8 303.15 263.5 303.3 262.1 303.35 261.5 304.05 257.5 305 256.2 Z"/>
</g>

<g id="Layer0_0_MEMBER_0_MEMBER_1_MEMBER_0_FILL">
<path fill="#F41616" stroke="none" d="
M 310.3 264.95
Q 309.65 270.1 309.25 271.6 308.15 276.05 306.85 279.05 303.5 287.3 299 293.4 293.1 301.35 282.8 306.45 279.05 308.25 276.5 309.15 273 310.4 269.85 310.65 267.6 310.8 265.35 310.65 260.55 310.25 256.4 308.65 251.5 306.75 250.4 306.2 249.95 306 249.4 306 249 306.05 248.95 306 249.25 306.25 250.55 306.7 252.4 307.65 256.15 309.3 260.1 311.1 264.55 311.7 266.75 312 268.85 312 271.65 312 275.35 311.05 277.45 310.5 281.65 309.15 292.05 306.05 300.7 294.65 305.85 287.9 309.8 278.3 311.3 274.8 312.55 269.7
L 314.15 261.7
Q 314.2 261.6 313.8 260.5 313.4 259.4 313.4 259.25 313.45 259.05 312.8 257.1
L 310.8 258.4
Q 311 259.35 310.9 259.8 310.85 260.05 310.3 264.95 Z"/>
</g>

<g id="Layer0_0_MEMBER_0_MEMBER_2_MEMBER_0_MEMBER_0_FILL">
<path fill="#F88487" stroke="none" d="
M 283.45 307.35
Q 289.55 304.95 295.05 299.45 290.2 304.05 283.45 307.35
M 311.4 265.05
Q 310.75 270.4 310.35 271.9 309.1 276.55 307.9 279.5 305.8 284.5 303.5 288.6 306.35 283.85 308.8 277.85 310.25 274.4 311.45 269.45 312.6 264.65 312.5 261.35 312.25 258.9 312.2 258.8
L 312 258.95
Q 312.05 259.55 312 259.9 312 260.35 311.4 265.05 Z"/>
</g>

<g id="Layer0_0_MEMBER_0_MEMBER_4_MEMBER_0_FILL">
<path fill="#D40203" stroke="none" d="
M 312.8 257.1
Q 313.25 258.4 313.4 259.25 314.2 262.45 312.55 269.7 311.3 274.8 309.8 278.3 305.85 287.9 300.7 294.65 292.05 306.05 281.65 309.15 277.45 310.5 275.35 311.05 271.65 312 268.85 312 266.75 312 264.55 311.7 260.1 311.1 256.15 309.3 252.4 307.65 250.55 306.7 249.38828125 306.2978515625 249 306.05 250.358203125 307.03046875 252.4 308.1 253.55 308.7 255.9 309.9 259.6 311.9 263.75 312.75 271.95 314.5 280.45 311.9 293.05 307.95 302.4 295.95 308.3 288.45 312.8 277.5 314.85 272.5 315.8 267.8 315.95 267.25 316.15 265.3 316.3 263.65 316.6 262.8 316.8 262.2 316.95 261.3
L 316.95 261.1 317 260.8 314.55 256 312.8 257.1 Z"/>
</g>

<g id="Layer0_0_MEMBER_0_MEMBER_5_MEMBER_0_FILL">
<path fill="#FF1F1F" stroke="none" d="
M 305.7 255.65
L 305 256.2
Q 304.05 257.5 303.35 261.5 303.3 262.1 303.15 263.5 303.05 264.8 302.85 265.5 301.95 269.7 299.45 277.35 298.55 280.05 298 281.45 296.15 286 293.9 289.55 291.4 293.65 286.25 298.25 282.7 301.45 280 303.25 276.35 305.65 272.8 306.6 270.15 307.25 267.7 307.45 262.55 307.9 257.15 306.8 253.75 306.1 249.95 304.8 249.25 304.5 248.85 305.1 248.45859375 305.6380859375 248.9 305.95 248.6140625 305.7390625 249.05 305.4 249.45 305 250.1 305.25 253.25 306.45 256.9 307.4 261.95 308.7 266.9 308.5 269.25 308.45 271.8 307.95 275.15 307.25 278.8 305.15 281.15 303.85 285.1 300.95 292.15 295.9 295.6 290.85 298.6 286.35 300.95 280.65 301.9 278.25 302.7 275.4 304.8 268.8 305.7 264.55 305.8 264.05 305.8 262.75 305.85 261.4 305.9 260.95 306.1 259.15 306.25 258.25 306.45 256.7 306.9 256.1
L 307.4 255.6 307.1 255.3 305.7 255.65 Z"/>
</g>

<g id="Layer0_0_MEMBER_0_MEMBER_6_MEMBER_0_FILL">
<path fill="#FFCCD3" stroke="none" d="
M 300.2 277.55
Q 295.7 288.95 291.1 294.55 288.85 297.3 287.8 297.9 288.65 298.65 292.5 294.1 297.6 288.05 301.45 276.9 302.35 274.2 303.8 267.15 305.05 261.1 305.25 259.2 305.3 258.85 304.9 258.75 304.55 258.65 304.4 259 303.45 260.9 303.2 263.1 301.95 273.1 300.2 277.55 Z"/>
</g>

<g id="Layer0_0_MEMBER_0_MEMBER_7_MEMBER_0_FILL">
<path fill="#E40309" stroke="none" d="
M 308.55 256.7
Q 308.5 257.25 308.5 258.55 308.5 259.9 308.4 260.35 308.35 260.7 308.45 262 308.6 263.25 308.5 263.6 307.8 267.05 306 273.5 304.75 277.8 303.9 279.85 301 286.95 297.3 292.1 292.75 298.45 283.95 303.7 279.95 306.1 277.65 307.15 274.05 308.85 270.8 309.3 268.55 309.6 266.1 309.6 261.4 309.55 256.65 308.05 253 306.9 250.25 305.75 249.75 305.5 249.25 305.7 248.75 305.9 248.95 306 249 306.05 249.4 306 249.95 306 250.4 306.2 251.5 306.75 256.4 308.65 260.55 310.25 265.35 310.65 267.6 310.8 269.85 310.65 273 310.4 276.5 309.15 279.05 308.25 282.8 306.45 293.1 301.35 299 293.4 303.5 287.3 306.85 279.05 308.15 276.05 309.25 271.6 309.65 270.1 310.3 264.95 310.85 260.05 310.9 259.8 311 259.35 310.8 258.4
L 310.45 258.6 308.55 256.7 Z"/>
</g>

<g id="Layer0_0_MEMBER_0_MEMBER_8_MEMBER_0_FILL">
<path fill="#F41616" stroke="none" d="
M 307.4 255.6
L 306.9 256.1
Q 306.45 256.7 306.25 258.25 306.1 259.15 305.9 260.95 305.85 261.4 305.8 262.75 305.8 264.05 305.7 264.55 304.8 268.8 302.7 275.4 301.9 278.25 300.95 280.65 298.6 286.35 295.6 290.85 292.15 295.9 285.1 300.95 281.15 303.85 278.8 305.15 275.15 307.25 271.8 307.95 269.25 308.45 266.9 308.5 261.95 308.7 256.9 307.4 253.25 306.45 250.1 305.25 249.45 305 249.05 305.4 248.634765625 305.723046875 248.9 305.95 248.840234375 305.8638671875 249.25 305.7 249.75 305.5 250.25 305.75 253 306.9 256.65 308.05 261.4 309.55 266.1 309.6 268.55 309.6 270.8 309.3 274.05 308.85 277.65 307.15 279.95 306.1 283.95 303.7 292.75 298.45 297.3 292.1 301 286.95 303.9 279.85 304.75 277.8 306 273.5 307.8 267.05 308.5 263.6 308.6 263.25 308.45 262 308.35 260.7 308.4 260.35 308.5 259.9 308.5 258.55 308.5 257.25 308.55 256.7
L 307.4 255.6 Z"/>
</g>

<g id="Layer0_0_MEMBER_1_MEMBER_0_MEMBER_0_FILL">
<path fill="#6CA32E" stroke="none" d="
M 313.8 243.7
L 312.95 243.45
Q 312.9 243.95 311.75 246.85 310.9 250 308.95 250.85 306.25 252.1 305.6 252.9 304.45 254.4 303.15 256.3
L 307.1 255.3 310.45 258.6 310.6 258.55 313.8 243.7 Z"/>
</g>

<g id="Layer0_0_MEMBER_1_MEMBER_1_MEMBER_0_FILL">
<path fill="#498B1F" stroke="none" d="
M 315.05 244.1
L 313.8 243.7 310.6 258.55 314.05 256.95 317 260.8
Q 317.1 259.55 316.45 257.25 315.8 254.65 314.55 252.15 313.8 250.75 313.75 250.45 313.65 249.8 314 247.55
L 315.05 244.1 Z"/>
</g>
</defs>

<g transform="matrix( 10, 0, 0, 10, -2315.7,-2272.5) ">
<use xlink:href="#Layer0_0_MEMBER_0_MEMBER_0_MEMBER_0_FILL"/>
</g>

<g transform="matrix( 10, 0, 0, 10, -2315.7,-2272.5) ">
<use xlink:href="#Layer0_0_MEMBER_0_MEMBER_1_MEMBER_0_FILL"/>
</g>

<g transform="matrix( 10, 0, 0, 10, -2315.7,-2272.5) ">
<use xlink:href="#Layer0_0_MEMBER_0_MEMBER_2_MEMBER_0_MEMBER_0_FILL"/>
</g>

<g transform="matrix( 10, 0, 0, 10, -2315.7,-2272.5) ">
<use xlink:href="#Layer0_0_MEMBER_0_MEMBER_4_MEMBER_0_FILL"/>
</g>

<g transform="matrix( 10, 0, 0, 10, -2315.7,-2272.5) ">
<use xlink:href="#Layer0_0_MEMBER_0_MEMBER_5_MEMBER_0_FILL"/>
</g>

<g transform="matrix( 10, 0, 0, 10, -2315.7,-2272.5) ">
<use xlink:href="#Layer0_0_MEMBER_0_MEMBER_6_MEMBER_0_FILL"/>
</g>

<g transform="matrix( 10, 0, 0, 10, -2315.7,-2272.5) ">
<use xlink:href="#Layer0_0_MEMBER_0_MEMBER_7_MEMBER_0_FILL"/>
</g>

<g transform="matrix( 10, 0, 0, 10, -2315.7,-2272.5) ">
<use xlink:href="#Layer0_0_MEMBER_0_MEMBER_8_MEMBER_0_FILL"/>
</g>

<g transform="matrix( 10, 0, 0, 10, -2315.7,-2272.5) ">
<use xlink:href="#Layer0_0_MEMBER_1_MEMBER_0_MEMBER_0_FILL"/>
</g>

<g transform="matrix( 10, 0, 0, 10, -2315.7,-2272.5) ">
<use xlink:href="#Layer0_0_MEMBER_1_MEMBER_1_MEMBER_0_FILL"/>
</g>
</svg>
