
<svg xmlns="http://www.w3.org/2000/svg" version="1.1" xmlns:xlink="http://www.w3.org/1999/xlink" preserveAspectRatio="none" x="0px" y="0px" width="1024px" height="1024px" viewBox="0 0 1024 1024">
<defs>
<g id="Layer0_0_MEMBER_0_FILL">
<path fill="#1D1D1B" fill-opacity="0.09803921568627451" stroke="none" d="
M 50.65 0.75
Q 50.65 0.45 43.25 0.25 35.7 0 25.3 0 14.9 0 7.4 0.25 0 0.45 0 0.75 0 1.5 25.3 1.5 50.65 1.5 50.65 0.75 Z"/>
</g>

<g id="Layer0_0_MEMBER_1_MEMBER_0_MEMBER_0_FILL">
<path fill="#A7CB64" stroke="none" d="
M 414.4 34.15
Q 408.95 31.9 405.5 31.25
L 404.25 31.05
Q 399.55 30.4 394.1 30.15 387 29.75 384.7 30.5 384.1 30.7 383.15 31.15
L 382.85 30.55 382.8 30.55 383.45 30.45 383.35 30.3
Q 383.05 30 382.65 30
L 381.1 29.9
Q 380.85 29.85 380.6 29.95 380.4 30.05 380.4 30.15
L 380.4 30.55
Q 380.4 30.8 381.05 30.8
L 381.25 30.75 381.3 32.5 381.35 32.5
Q 379.75 33.9 378.65 35.85 377.55 37.8 377.2 39.75 376.6 43.3 376.75 46.45 376.75 47.9 377 49.15
L 377.2 50.05
Q 377.6 51.25 378.35 51.5
L 424.95 51.5 425.45 51.35 425.55 51.3 425.95 51.05 426 51.05 426.1 50.9 426.25 50.8 426.3 50.8 426.55 50.5 426.6 50.45 426.7 50.25 426.85 50.1 427 49.9 427.1 49.65 427.1 49.6 427.15 49.55 427.3 49.15
Q 427.7 48.05 427.55 46.45 427.5 45.35 427.1 43.85 426.9 43.05 426.2 41.95 425.65 41.05 425.25 40.65 421.85 37.2 414.4 34.15 Z"/>
</g>

<g id="Layer0_0_MEMBER_1_MEMBER_0_MEMBER_1_FILL">
<path fill="#FFFFFF" stroke="none" d="
M 423.7 42.45
Q 425.05 43.35 426.3 45.7 426.4 45.85 426.55 45.85 426.75 45.75 426.75 45.6 426.75 43.8 425.9 42.35 425.5 41.55 424.55 41.55
L 423.85 41.6
Q 423.6 41.65 423.5 42 423.5 42.3 423.7 42.45 Z"/>
</g>

<g id="Layer0_0_MEMBER_1_MEMBER_0_MEMBER_2_MEMBER_0_FILL">
<path fill="#ABEDE3" stroke="none" d="
M 420.1 37.95
Q 415.2 34.7 407.85 32.9 407.65 32.85 407.5 33 407.35 33.25 407.5 33.4
L 410.4 38.05
Q 410.7 38.5 411.25 38.5
L 419.95 38.5
Q 420.15 38.5 420.25 38.3 420.25 38.1 420.1 37.95 Z"/>
</g>

<g id="Layer0_0_MEMBER_1_MEMBER_0_MEMBER_2_MEMBER_1_FILL">
<path fill="#FFFFFF" stroke="none" d="
M 407.3 32.85
Q 407.05 33.15 407.25 33.55
L 410.2 38.2 410.4 38.45
Q 410.8 38.75 411.25 38.75
L 419.95 38.75
Q 420.35 38.75 420.5 38.35 420.6 38 420.25 37.75 417.3 35.8 413.05 34.2 410.25 33.2 407.9 32.65 407.5 32.55 407.3 32.85
M 407.75 33.15
Q 410.05 33.7 412.85 34.7 417.05 36.25 419.95 38.15
L 419.95 38.25 411.25 38.25
Q 410.85 38.25 410.65 37.9
L 407.7 33.25 407.7 33.15 407.75 33.15 Z"/>
</g>

<g id="Layer0_0_MEMBER_1_MEMBER_0_MEMBER_3_MEMBER_0_FILL">
<path fill="#ABEDE3" stroke="none" d="
M 379 38.25
Q 379.25 38.55 379.55 38.55
L 391.85 38.5
Q 392.5 38.5 392.5 37.85
L 392.5 31.9
Q 392.55 31.65 392.35 31.45 392.15 31.25 391.9 31.25 385.25 31.25 384.65 31.5 382.85 32.15 381.3 33.85 379.75 35.55 378.95 37.65 378.8 37.95 379 38.25 Z"/>
</g>

<g id="Layer0_0_MEMBER_1_MEMBER_0_MEMBER_3_MEMBER_1_FILL">
<path fill="#FFFFFF" stroke="none" d="
M 378.7 37.55
Q 378.55 38.05 378.8 38.4 379.05 38.8 379.55 38.8
L 391.85 38.75
Q 392.25 38.75 392.5 38.5 392.75 38.25 392.75 37.85
L 392.8 31.9
Q 392.8 31.55 392.55 31.25 392.3 31 391.9 31
L 388.75 30.95
Q 385.3 30.95 384.55 31.25 382.7 31.95 381.1 33.7 379.5 35.4 378.7 37.55
M 379.2 38.1
Q 379.1 37.9 379.15 37.75 379.85 35.9 381.2 34.35 382.55 32.8 384.15 32
L 384.75 31.75
Q 385.25 31.5 388.75 31.5
L 391.9 31.5
Q 392.25 31.5 392.25 31.9
L 392.25 37.85
Q 392.25 38.25 391.85 38.25
L 379.55 38.3
Q 379.4 38.3 379.2 38.1 Z"/>
</g>

<g id="Layer0_0_MEMBER_1_MEMBER_0_MEMBER_4_FILL">
<path fill="#E75C5B" stroke="none" d="
M 377.55 40.85
Q 377.4 41.05 377.35 41.8 377.1 44.8 377.45 44.8 377.75 44.8 378.3 43.65 378.9 42.5 378.9 41.7 378.9 41 378.55 40.75 378.35 40.65 377.9 40.65 377.6 40.7 377.55 40.85 Z"/>
</g>

<g id="Layer0_0_MEMBER_1_MEMBER_0_MEMBER_5_FILL">
<path fill="#88A84C" stroke="none" d="
M 409.1 48.8
L 409.1 38.25 393.95 38.25 393.95 47.6
Q 393.95 48.75 394.75 49.55 395.5 50.35 396.65 50.35
L 407.55 50.35
Q 408.2 50.35 408.65 49.9 409.1 49.45 409.1 48.8 Z"/>
</g>

<g id="Layer0_0_MEMBER_1_MEMBER_0_MEMBER_6_MEMBER_0_FILL">
<path fill="#ABEDE3" stroke="none" d="
M 408.45 38.5
Q 408.65 38.5 408.7 38.35 408.8 38.25 408.7 38
L 405.35 32.6
Q 405.05 32.25 404.65 32.15 400.15 31.55 394.85 31.25 394.55 31.25 394.35 31.45 394.2 31.6 394.2 31.9
L 394.2 37.95
Q 394.2 38.5 394.7 38.5
L 408.45 38.5 Z"/>
</g>

<g id="Layer0_0_MEMBER_1_MEMBER_0_MEMBER_6_MEMBER_1_FILL">
<path fill="#FFFFFF" stroke="none" d="
M 408.95 37.85
L 405.55 32.5
Q 405.25 32 404.65 31.9
L 404.15 31.85
Q 399.7 31.25 394.85 31 394.45 31 394.2 31.25 393.9 31.5 393.9 31.9
L 393.9 37.95 394 38.25
Q 394.15 38.75 394.7 38.75
L 408.45 38.75
Q 408.8 38.75 408.95 38.45
L 409 38.25
Q 409.05 38.15 408.95 37.85
M 408.5 38.15
L 408.5 38.2 408.45 38.25 394.7 38.25
Q 394.45 38.25 394.45 37.95
L 394.45 31.9 394.55 31.6 394.8 31.5 395.95 31.6
Q 400.45 31.85 404.6 32.4 404.95 32.5 405.1 32.75
L 408.5 38.15 Z"/>
</g>

<g id="Layer0_0_MEMBER_1_MEMBER_0_MEMBER_7_FILL">
<path fill="#FFFFFF" stroke="none" d="
M 425.75 48.05
Q 425.65 48.45 426 48.45
L 426.5 48.45
Q 426.85 48.45 427.05 48
L 427.15 47.5
Q 427.35 46.95 426.85 47.05
L 426.35 47.1
Q 426 47.2 425.85 47.6
L 425.75 48.05 Z"/>
</g>

<g id="Layer0_0_MEMBER_1_MEMBER_0_MEMBER_8_FILL">
<path fill="#614F49" stroke="none" d="
M 424.65 48
Q 424.5 49.15 423.25 49.15
L 380.75 49.15
Q 379.55 49.15 379.3 48.05 379.1 47.35 378.55 46.9 377.95 46.45 377.25 46.45
L 376.75 46.45
Q 376.75 47.9 377 49.15
L 377.2 50.05
Q 377.65 51.3 378.4 51.5
L 424.95 51.5 425.45 51.35 425.65 51.25 425.7 51.2 425.95 51.05 426 51.05 426.1 50.9 426.25 50.8 426.3 50.8 426.55 50.5 426.6 50.45 426.7 50.25 426.85 50.1 427 49.9 427.1 49.65 427.1 49.6 427.15 49.55 427.2 49.45 427.3 49.15
Q 427.7 48.05 427.55 46.45
L 426.45 46.45
Q 425.8 46.45 425.3 46.85 424.8 47.25 424.7 47.9
L 424.65 48 Z"/>
</g>

<g id="Layer0_0_MEMBER_1_MEMBER_0_MEMBER_9_FILL">
<path fill="#FFFFFF" stroke="none" d="
M 395.85 39.7
Q 394.45 39.7 394.45 40.1 394.45 40.5 395.85 40.5 397.2 40.5 397.2 40.1 397.2 39.7 395.85 39.7 Z"/>
</g>

<g id="Layer0_0_MEMBER_1_MEMBER_0_MEMBER_10_FILL">
<path fill="#88A84C" stroke="none" d="
M 410.7 36.75
L 410.1 40.25
Q 410.1 40.5 410.3 40.5 411.75 40.6 411.95 39.15 412.1 38.4 411.85 37.65 411.55 36.85 411.05 36.6 410.8 36.45 410.7 36.75 Z"/>
</g>

<g id="Layer0_0_MEMBER_1_MEMBER_0_MEMBER_11_MEMBER_0_FILL">
<path fill="#FFFFFF" fill-opacity="0.4980392156862745" stroke="none" d="
M 0 0
L 4.05 6.25 8.55 6.25 4.75 0.35
Q 1.95 0.05 0 0 Z"/>
</g>

<g id="Layer0_0_MEMBER_1_MEMBER_0_MEMBER_11_MEMBER_1_FILL">
<path fill="#FFFFFF" fill-opacity="0.4980392156862745" stroke="none" d="
M 5.35 0.4
L 9.1 6.25 10.55 6.25 6.9 0.55 5.35 0.4 Z"/>
</g>

<g id="Layer0_0_MEMBER_1_MEMBER_0_MEMBER_11_MEMBER_2_FILL">
<path fill="#FFFFFF" fill-opacity="0.4980392156862745" stroke="none" d="
M 0 0
L 2.8 4.3 7.25 4.3 5.8 2.05
Q 3.15 0.85 0 0 Z"/>
</g>

<g id="Layer0_0_MEMBER_1_MEMBER_0_MEMBER_11_MEMBER_3_FILL">
<path fill="#FFFFFF" fill-opacity="0.4980392156862745" stroke="none" d="
M 6.6 2.35
L 7.8 4.3 9.25 4.3 8.7 3.45 6.6 2.35 Z"/>
</g>

<g id="Layer0_0_MEMBER_1_MEMBER_0_MEMBER_11_MEMBER_4_FILL">
<path fill="#FFFFFF" fill-opacity="0.4980392156862745" stroke="none" d="
M 0 2.2
L 2.7 6.35 7.15 6.35 3.2 0.15 2.85 0.25
Q 1.35 0.8 0 2.2 Z"/>
</g>

<g id="Layer0_0_MEMBER_1_MEMBER_0_MEMBER_11_MEMBER_5_FILL">
<path fill="#FFFFFF" fill-opacity="0.4980392156862745" stroke="none" d="
M 3.7 0.1
L 7.7 6.35 9.15 6.35 5.1 0 3.7 0.1 Z"/>
</g>

<g id="Layer0_0_MEMBER_1_MEMBER_1_FILL">
<path fill="#403430" stroke="none" d="
M 411.25 49.15
L 411.25 49.4 410.85 51.5 423.1 51.5 422.7 49.15
Q 422.3 47.45 421.05 46.35 419.8 45.25 418.2 45.25
L 415.75 45.25
Q 414.15 45.25 412.9 46.35 411.65 47.45 411.25 49.15 Z"/>
</g>

<g id="Layer0_0_MEMBER_1_MEMBER_2_FILL">
<path fill="#403430" stroke="none" d="
M 381.05 46.35
Q 379.8 47.45 379.45 49.15
L 379.05 51.5 391.25 51.5 390.85 49.15
Q 390.45 47.45 389.2 46.35 387.95 45.25 386.35 45.25
L 383.9 45.25
Q 382.3 45.25 381.05 46.35 Z"/>
</g>

<g id="Layer0_0_MEMBER_1_MEMBER_3_MEMBER_0_FILL">
<path fill="#DAD1D1" stroke="none" d="
M 2.75 5.25
Q 2.75 6.65 3.75 7.6 4.7 8.6 6.1 8.6 7.5 8.6 8.45 7.6 9.45 6.65 9.45 5.25 9.45 3.85 8.45 2.9 7.5 1.9 6.1 1.9 4.7 1.9 3.75 2.9 2.75 3.85 2.75 5.25 Z"/>
</g>

<g id="Layer0_0_MEMBER_1_MEMBER_3_MEMBER_1_FILL">
<path fill="#1D1715" stroke="none" d="
M 270.85 534.75
Q 239.9 534.75 217.55 557.05 195.25 579.4 195.25 610.35 195.25 642.05 217.55 664.35 239.9 686.65 270.85 685.95 302.5 685.95 324.1 663.65 346.45 642.05 346.45 610.35 346.45 579.4 324.1 557.05 302.5 534.75 270.85 534.75
M 270.85 564.25
Q 290.3 563.55 303.95 577.25 317.65 590.9 317.65 610.35 317.65 629.8 303.95 643.45 290.3 657.15 270.85 657.15 251.4 657.15 237.7 643.45 224.05 629.8 224.05 610.35 224.05 591.65 237.7 577.95 251.4 564.25 270.85 564.25 Z"/>
</g>

<g id="Layer0_0_MEMBER_1_MEMBER_3_MEMBER_2_FILL">
<path fill="#FFFFFF" stroke="none" d="
M 3.65 5.25
Q 3.65 6.25 4.35 7 5.1 7.7 6.1 7.7 7.1 7.7 7.85 7 8.55 6.25 8.55 5.25 8.55 4.25 7.85 3.5 7.1 2.8 6.1 2.8 5.1 2.8 4.35 3.5 3.65 4.25 3.65 5.25 Z"/>
</g>

<g id="Layer0_0_MEMBER_1_MEMBER_3_MEMBER_3_FILL">
<path fill="#DAD1D1" stroke="none" d="
M 4.6 5.25
Q 4.6 5.9 5.05 6.3 5.5 6.75 6.1 6.75 6.7 6.75 7.15 6.3 7.55 5.9 7.55 5.25 7.55 4.65 7.15 4.25 6.7 3.8 6.1 3.8 5.5 3.8 5.05 4.25 4.6 4.65 4.6 5.25 Z"/>
</g>

<g id="Layer0_0_MEMBER_1_MEMBER_3_MEMBER_4_FILL">
<path fill="#FFFFFF" fill-opacity="0.4980392156862745" stroke="none" d="
M 2.5 1.15
Q 2 0.35 1.25 0
L 0 2.65 2.5 1.15 Z"/>
</g>

<g id="Layer0_0_MEMBER_1_MEMBER_3_MEMBER_5_FILL">
<path fill="#FFFFFF" fill-opacity="0.4980392156862745" stroke="none" d="
M 1.25 2.65
L 2.55 0 0 1.5
Q 0.45 2.25 1.25 2.65 Z"/>
</g>

<g id="Layer0_0_MEMBER_1_MEMBER_4_FILL">
<path fill="#A7CB64" stroke="none" d="
M 200 520
L 200 578.05
Q 204.7111328125 571.3392578125 211.1 565.7 229.1 548.45 252.85 548.45
L 288.1 548.45
Q 312.6 548.45 330.6 565.7 335.869921875 570.3640625 340 575.75
L 340 520 200 520 Z"/>
</g>

<g id="Layer0_0_MEMBER_1_MEMBER_5_FILL">
<path fill="#1D1D1B" fill-opacity="0.09803921568627451" stroke="none" d="
M 149.15 557.8
L 149.85 565.7
Q 149.85 586.6 153.45 604.6
L 156.35 617.55
Q 162.1 634.85 172.9 638.45
L 200.3 638.45
Q 195.25 625.469140625 195.25 610.35 195.25 582.2849609375 213.55 561.3
L 149.15 557.8
M 874.9 611.1
L 877.05 606.75 879.95 597.4 333.2 567.75
Q 346.45 586.5150390625 346.45 610.35 346.45 625.5634765625 341.3 638.45
L 843.95 638.45 851.15 636.3 852.6 635.55 854.75 634.1 859.05 631.95 860.5 629.8 862.65 628.35 863.4 628.35 867.7 623.3 870.6 619 871.3 618.3 873.45 615.4 874.9 611.8 874.9 611.1 Z"/>
</g>

<g id="Layer0_0_MEMBER_1_MEMBER_6_MEMBER_0_FILL">
<path fill="#DAD1D1" stroke="none" d="
M 2.8 5.25
Q 2.8 6.65 3.8 7.6 4.75 8.6 6.15 8.6 7.55 8.6 8.5 7.6 9.5 6.65 9.5 5.25 9.5 3.85 8.5 2.9 7.55 1.9 6.15 1.9 4.75 1.9 3.8 2.9 2.8 3.85 2.8 5.25 Z"/>
</g>

<g id="Layer0_0_MEMBER_1_MEMBER_6_MEMBER_1_FILL">
<path fill="#1D1715" stroke="none" d="
M 9.85 1.55
Q 8.35 0 6.15 0 3.95 0 2.4 1.55 0.85 3.05 0.85 5.25 0.85 7.45 2.4 9 4 10.55 6.15 10.5 8.35 10.5 9.85 8.95 11.4 7.45 11.4 5.25 11.4 3.1 9.85 1.55
M 8.4 2.95
Q 9.35 3.9 9.35 5.25 9.35 6.6 8.4 7.55 7.45 8.5 6.15 8.5 4.8 8.5 3.85 7.55 2.9 6.6 2.9 5.25 2.9 3.95 3.85 3 4.8 2.05 6.15 2.05 7.45 2 8.4 2.95 Z"/>
</g>

<g id="Layer0_0_MEMBER_1_MEMBER_6_MEMBER_2_FILL">
<path fill="#FFFFFF" stroke="none" d="
M 3.7 5.25
Q 3.7 6.25 4.4 7 5.15 7.7 6.15 7.7 7.15 7.7 7.9 7 8.6 6.25 8.6 5.25 8.6 4.25 7.9 3.5 7.15 2.8 6.15 2.8 5.15 2.8 4.4 3.5 3.7 4.25 3.7 5.25 Z"/>
</g>

<g id="Layer0_0_MEMBER_1_MEMBER_6_MEMBER_3_FILL">
<path fill="#DAD1D1" stroke="none" d="
M 4.65 5.25
Q 4.65 5.9 5.1 6.3 5.5 6.75 6.15 6.75 6.75 6.75 7.2 6.3 7.6 5.9 7.6 5.25 7.6 4.65 7.2 4.25 6.75 3.8 6.15 3.8 5.5 3.8 5.1 4.25 4.65 4.65 4.65 5.25 Z"/>
</g>

<g id="Layer0_0_MEMBER_1_MEMBER_6_MEMBER_4_FILL">
<path fill="#FFFFFF" fill-opacity="0.4980392156862745" stroke="none" d="
M 2.5 1.15
Q 2.05 0.4 1.25 0
L 0 2.65 2.5 1.15 Z"/>
</g>

<g id="Layer0_0_MEMBER_1_MEMBER_6_MEMBER_5_FILL">
<path fill="#FFFFFF" fill-opacity="0.4980392156862745" stroke="none" d="
M 1.25 2.65
L 2.55 0 0 1.5
Q 0.5 2.3 1.25 2.65 Z"/>
</g>

<g id="Layer0_0_MEMBER_1_MEMBER_7_FILL">
<path fill="#A7CB64" stroke="none" d="
M 656.9 580.65
Q 662.1150390625 572.412890625 669.7 565.7 687.7 548.45 711.45 548.45
L 746.75 548.45
Q 771.2 548.45 789.2 565.7 795.1474609375 570.949609375 799.65 577.15
L 812.65 559.75 778.2 511.45 639.6 528.8 656.9 580.65 Z"/>
</g>
</defs>

<g transform="matrix( 14.399917602539062, 0, 0, 14.399917602539062, 141.95,675.15) ">
<use xlink:href="#Layer0_0_MEMBER_0_FILL"/>
</g>

<g transform="matrix( 14.399917602539062, 0, 0, 14.399917602539062, -5275.2,-103.05) ">
<use xlink:href="#Layer0_0_MEMBER_1_MEMBER_0_MEMBER_0_FILL"/>
</g>

<g transform="matrix( 14.399917602539062, 0, 0, 14.399917602539062, -5275.2,-103.05) ">
<use xlink:href="#Layer0_0_MEMBER_1_MEMBER_0_MEMBER_1_FILL"/>
</g>

<g transform="matrix( 14.399917602539062, 0, 0, 14.399917602539062, -5275.2,-103.05) ">
<use xlink:href="#Layer0_0_MEMBER_1_MEMBER_0_MEMBER_2_MEMBER_0_FILL"/>
</g>

<g transform="matrix( 14.399917602539062, 0, 0, 14.399917602539062, -5275.2,-103.05) ">
<use xlink:href="#Layer0_0_MEMBER_1_MEMBER_0_MEMBER_2_MEMBER_1_FILL"/>
</g>

<g transform="matrix( 14.399917602539062, 0, 0, 14.399917602539062, -5275.2,-103.05) ">
<use xlink:href="#Layer0_0_MEMBER_1_MEMBER_0_MEMBER_3_MEMBER_0_FILL"/>
</g>

<g transform="matrix( 14.399917602539062, 0, 0, 14.399917602539062, -5275.2,-103.05) ">
<use xlink:href="#Layer0_0_MEMBER_1_MEMBER_0_MEMBER_3_MEMBER_1_FILL"/>
</g>

<g transform="matrix( 14.399917602539062, 0, 0, 14.399917602539062, -5275.2,-103.05) ">
<use xlink:href="#Layer0_0_MEMBER_1_MEMBER_0_MEMBER_4_FILL"/>
</g>

<g transform="matrix( 14.399917602539062, 0, 0, 14.399917602539062, -5275.2,-103.05) ">
<use xlink:href="#Layer0_0_MEMBER_1_MEMBER_0_MEMBER_5_FILL"/>
</g>

<g transform="matrix( 14.399917602539062, 0, 0, 14.399917602539062, -5275.2,-103.05) ">
<use xlink:href="#Layer0_0_MEMBER_1_MEMBER_0_MEMBER_6_MEMBER_0_FILL"/>
</g>

<g transform="matrix( 14.399917602539062, 0, 0, 14.399917602539062, -5275.2,-103.05) ">
<use xlink:href="#Layer0_0_MEMBER_1_MEMBER_0_MEMBER_6_MEMBER_1_FILL"/>
</g>

<g transform="matrix( 14.399917602539062, 0, 0, 14.399917602539062, -5275.2,-103.05) ">
<use xlink:href="#Layer0_0_MEMBER_1_MEMBER_0_MEMBER_7_FILL"/>
</g>

<g transform="matrix( 14.399917602539062, 0, 0, 14.399917602539062, -5275.2,-103.05) ">
<use xlink:href="#Layer0_0_MEMBER_1_MEMBER_0_MEMBER_8_FILL"/>
</g>

<g transform="matrix( 14.399917602539062, 0, 0, 14.399917602539062, -5275.2,-103.05) ">
<use xlink:href="#Layer0_0_MEMBER_1_MEMBER_0_MEMBER_9_FILL"/>
</g>

<g transform="matrix( 14.399917602539062, 0, 0, 14.399917602539062, -5275.2,-103.05) ">
<use xlink:href="#Layer0_0_MEMBER_1_MEMBER_0_MEMBER_10_FILL"/>
</g>

<g transform="matrix( 14.399917602539062, 0, 0, 14.399917602539062, 420.6,354.75) ">
<use xlink:href="#Layer0_0_MEMBER_1_MEMBER_0_MEMBER_11_MEMBER_0_FILL"/>
</g>

<g transform="matrix( 14.399917602539062, 0, 0, 14.399917602539062, 420.6,354.75) ">
<use xlink:href="#Layer0_0_MEMBER_1_MEMBER_0_MEMBER_11_MEMBER_1_FILL"/>
</g>

<g transform="matrix( 14.399917602539062, 0, 0, 14.399917602539062, 617.15,382.85) ">
<use xlink:href="#Layer0_0_MEMBER_1_MEMBER_0_MEMBER_11_MEMBER_2_FILL"/>
</g>

<g transform="matrix( 14.399917602539062, 0, 0, 14.399917602539062, 617.15,382.85) ">
<use xlink:href="#Layer0_0_MEMBER_1_MEMBER_0_MEMBER_11_MEMBER_3_FILL"/>
</g>

<g transform="matrix( 14.399917602539062, 0, 0, 14.399917602539062, 224.75,353.35) ">
<use xlink:href="#Layer0_0_MEMBER_1_MEMBER_0_MEMBER_11_MEMBER_4_FILL"/>
</g>

<g transform="matrix( 14.399917602539062, 0, 0, 14.399917602539062, 224.75,353.35) ">
<use xlink:href="#Layer0_0_MEMBER_1_MEMBER_0_MEMBER_11_MEMBER_5_FILL"/>
</g>

<g transform="matrix( 14.399917602539062, 0, 0, 14.399917602539062, -5275.2,-103.05) ">
<use xlink:href="#Layer0_0_MEMBER_1_MEMBER_1_FILL"/>
</g>

<g transform="matrix( 14.399917602539062, 0, 0, 14.399917602539062, -5275.2,-103.05) ">
<use xlink:href="#Layer0_0_MEMBER_1_MEMBER_2_FILL"/>
</g>

<g transform="matrix( 14.399917602539062, 0, 0, 14.399917602539062, 183,534.75) ">
<use xlink:href="#Layer0_0_MEMBER_1_MEMBER_3_MEMBER_0_FILL"/>
</g>

<g transform="matrix( 1, 0, 0, 1, 0,0) ">
<use xlink:href="#Layer0_0_MEMBER_1_MEMBER_3_MEMBER_1_FILL"/>
</g>

<g transform="matrix( 14.399917602539062, 0, 0, 14.399917602539062, 183,534.75) ">
<use xlink:href="#Layer0_0_MEMBER_1_MEMBER_3_MEMBER_2_FILL"/>
</g>

<g transform="matrix( 14.399917602539062, 0, 0, 14.399917602539062, 183,534.75) ">
<use xlink:href="#Layer0_0_MEMBER_1_MEMBER_3_MEMBER_3_FILL"/>
</g>

<g transform="matrix( 14.399917602539062, 0, 0, 14.399917602539062, 270.8,572.15) ">
<use xlink:href="#Layer0_0_MEMBER_1_MEMBER_3_MEMBER_4_FILL"/>
</g>

<g transform="matrix( 14.399917602539062, 0, 0, 14.399917602539062, 234.1,610.3) ">
<use xlink:href="#Layer0_0_MEMBER_1_MEMBER_3_MEMBER_5_FILL"/>
</g>

<g transform="matrix( 1, 0, 0, 1, 0,0) ">
<use xlink:href="#Layer0_0_MEMBER_1_MEMBER_4_FILL"/>
</g>

<g transform="matrix( 1, 0, 0, 1, 0,0) ">
<use xlink:href="#Layer0_0_MEMBER_1_MEMBER_5_FILL"/>
</g>

<g transform="matrix( 14.399917602539062, 0, 0, 14.399917602539062, 640.9,534.75) ">
<use xlink:href="#Layer0_0_MEMBER_1_MEMBER_6_MEMBER_0_FILL"/>
</g>

<g transform="matrix( 14.399917602539062, 0, 0, 14.399917602539062, 640.9,534.75) ">
<use xlink:href="#Layer0_0_MEMBER_1_MEMBER_6_MEMBER_1_FILL"/>
</g>

<g transform="matrix( 14.399917602539062, 0, 0, 14.399917602539062, 640.9,534.75) ">
<use xlink:href="#Layer0_0_MEMBER_1_MEMBER_6_MEMBER_2_FILL"/>
</g>

<g transform="matrix( 14.399917602539062, 0, 0, 14.399917602539062, 640.9,534.75) ">
<use xlink:href="#Layer0_0_MEMBER_1_MEMBER_6_MEMBER_3_FILL"/>
</g>

<g transform="matrix( 14.399917602539062, 0, 0, 14.399917602539062, 729.45,572.15) ">
<use xlink:href="#Layer0_0_MEMBER_1_MEMBER_6_MEMBER_4_FILL"/>
</g>

<g transform="matrix( 14.399917602539062, 0, 0, 14.399917602539062, 692.7,610.3) ">
<use xlink:href="#Layer0_0_MEMBER_1_MEMBER_6_MEMBER_5_FILL"/>
</g>

<g transform="matrix( 1, 0, 0, 1, 0,0) ">
<use xlink:href="#Layer0_0_MEMBER_1_MEMBER_7_FILL"/>
</g>
</svg>
