<svg id="图层_1" data-name="图层 1" xmlns="http://www.w3.org/2000/svg" viewBox="0 0 361 361"><defs><style>.cls-1{fill:#3e74d0;}.cls-2{fill:#4a85dd;}.cls-3{fill:#5699e8;}.cls-4{fill:#fff;}.cls-5{fill:#e3413f;}.cls-6{fill:#9f2e33;}</style></defs><title>我想要的2021终稿</title><path class="cls-1" d="M263,276.25H218.05a13.39,13.39,0,0,1-13.34-12.18L192.23,126.59A13.39,13.39,0,0,1,205.57,112h69.9a13.4,13.4,0,0,1,13.34,14.61L276.33,264.07A13.39,13.39,0,0,1,263,276.25Z"/><rect class="cls-2" x="180.11" y="111.98" width="120.83" height="13.88" rx="6.94" ry="6.94"/><rect class="cls-3" x="190.9" y="99.64" width="99.23" height="13.88" rx="6.94" ry="6.94"/><path class="cls-4" d="M260.34,172.66,257,166l-4.41,2.22,5.32,10.58.54-.27A4.34,4.34,0,0,0,260.34,172.66Z"/><path class="cls-4" d="M263.52,178.86a4.47,4.47,0,0,0-.43-1.39l-2-4.07.13.45h0A4.34,4.34,0,0,1,259,179l-.54.28L249,180l-.24-3.05-8.4,6.16,9.26,4.78-.24-3,9.7-.76a4.86,4.86,0,0,0,3.33-1.72,4.34,4.34,0,0,0,1.13-3.38S263.52,178.86,263.52,178.86Z"/><path class="cls-4" d="M229.66,184.71l7.48.42.28-4.93-11.82-.68,0,.6A4.34,4.34,0,0,0,229.66,184.71Z"/><path class="cls-4" d="M222.7,184.35a4.4,4.4,0,0,0,1.42.33l4.54.26-.46-.11h0a4.34,4.34,0,0,1-3.31-4.46l0-.61L229,171.2l2.77,1.32-1.14-10.36-8.77,5.63,2.77,1.32-4.2,8.78a4.87,4.87,0,0,0-.18,3.74,4.36,4.36,0,0,0,2.37,2.67Z"/><path class="cls-4" d="M234.2,151.74,230.09,158l4.14,2.71,6.49-9.89-.5-.33A4.35,4.35,0,0,0,234.2,151.74Z"/><path class="cls-4" d="M238,145.9a4,4,0,0,0-1,1.06l-2.5,3.8.32-.34h0a4.35,4.35,0,0,1,5.53-.63l.5.33,5.39,7.79-2.52,1.73,9.54,4.19-.49-10.4-2.53,1.73-5.51-8a4.79,4.79,0,0,0-3.15-2,4.38,4.38,0,0,0-3.49.71Z"/><path class="cls-5" d="M140.89,276.25H96a13.39,13.39,0,0,1-13.34-12.18L70.13,126.59A13.4,13.4,0,0,1,83.47,112h69.9a13.39,13.39,0,0,1,13.34,14.61L154.23,264.07A13.39,13.39,0,0,1,140.89,276.25Z"/><rect class="cls-6" x="58.01" y="111.98" width="120.83" height="13.88" rx="6.94" ry="6.94"/><rect class="cls-5" x="68.81" y="99.64" width="99.23" height="13.88" rx="6.94" ry="6.94"/><polygon class="cls-4" points="107.41 161.49 94.82 148.91 91.58 152.15 104.17 164.73 102.75 166.15 111.01 168.34 108.82 160.08 107.41 161.49"/><polygon class="cls-4" points="121.94 173.2 113.68 171.01 115.87 179.27 117.29 177.85 129.88 190.44 133.12 187.2 120.53 174.61 121.94 173.2"/><polygon class="cls-4" points="120.53 164.73 133.12 152.15 129.88 148.91 117.29 161.49 115.87 160.08 113.68 168.34 121.94 166.15 120.53 164.73"/><polygon class="cls-4" points="104.17 174.61 91.58 187.2 94.82 190.44 107.41 177.85 108.82 179.27 111.01 171.01 102.75 173.2 104.17 174.61"/></svg>