
<svg xmlns="http://www.w3.org/2000/svg" version="1.1" xmlns:xlink="http://www.w3.org/1999/xlink" preserveAspectRatio="none" x="0px" y="0px" width="1024px" height="1024px" viewBox="0 0 1024 1024">
<defs>
<g id="Layer0_0_MEMBER_0_FILL">
<path fill="#1D1D1B" fill-opacity="0.09803921568627451" stroke="none" d="
M 127 4
Q 148.8 3.4 148.8 2.45 148.8 1.5 127 0.8 105.2 0.1 74.4 0 43.65 -0.05 21.8 0.55 0 1.15 0 2.1 0 3.05 21.8 3.75 43.6 4.5 74.4 4.55 105.15 4.65 127 4 Z"/>
</g>

<g id="Layer0_0_MEMBER_1_MEMBER_0_FILL">
<path fill="#DAD1D1" stroke="none" d="
M 86.7 157.95
Q 87.5 158.75 87.5 159.9
L 87.5 170.15 89.55 170.15 89.6 159.9
Q 89.6 157.9 88.2 156.5 86.75 155.1 84.75 155.1
L 83.1 155.1 83.5 157.15 84.75 157.15
Q 85.9 157.15 86.7 157.95 Z"/>
</g>

<g id="Layer0_0_MEMBER_1_MEMBER_1_FILL">
<path fill="#C44645" stroke="none" d="
M 27.65 196.15
Q 26.85 196.4 26.85 197.4
L 26.8 202.55
Q 26.8 203.4 27.1 204.05 27.7 206.05 29.75 206.85 30.5 207.15 31.4 207.15
L 95.85 207.3 95.9 196.25 29.6 196.05
Q 28 196.05 27.65 196.15 Z"/>
</g>

<g id="Layer0_0_MEMBER_1_MEMBER_2_FILL">
<path fill="#22395A" stroke="none" d="
M 27.65 196.15
Q 26.85 196.4 26.85 197.4
L 26.8 202.55
Q 26.8 203.4 27.1 204.05
L 92.6 204.2 92.6 196.2 29.6 196.05
Q 28 196.05 27.65 196.15 Z"/>
</g>

<g id="Layer0_0_MEMBER_1_MEMBER_3_FILL">
<path fill="#1D1715" stroke="none" d="
M 88.2 187.45
Q 87.15 188.5 87.15 189.95
L 87.1 204.2 92.15 204.2 92.2 186.45 90.7 186.45
Q 89.25 186.45 88.2 187.45 Z"/>
</g>

<g id="Layer0_0_MEMBER_1_MEMBER_4_FILL">
<path fill="#E75C5B" stroke="none" d="
M 39.9 192.3
Q 37.7 192.3 35.7 193.3 33.8 194.3 32.55 196.05 31.35 197.8 31 199.75
L 29.75 206.85
Q 30.5 207.15 31.4 207.15
L 33.2 207.15 34.4 200.35
Q 34.7 198.85 35.65 197.7 36.6 196.6 38 196.1 38.85 195.75 39.9 195.75
L 46.25 195.75
Q 47.15 195.75 48.3 196.1 51.45 197.25 52.15 200.5
L 52.25 200.8 53.35 207.2 56.85 207.2 55.65 200.3 55.6 200.15 55.6 200.1
Q 55.25 198 53.85 196.1 52.5 194.35 50.55 193.35 48.5 192.3 46.25 192.3
L 39.9 192.3 Z"/>
</g>

<g id="Layer0_0_MEMBER_1_MEMBER_5_FILL">
<path fill="#E75C5B" stroke="none" d="
M 74.4 196.15
Q 75.85 196.7 76.9 197.85 77.95 199 78.3 200.55
L 79.45 207.25 82.95 207.25 81.7 200.15
Q 81.35 197.95 79.95 196.2 77.15 192.45 72.35 192.35
L 66.05 192.35
Q 63.8 192.35 61.85 193.35 59.95 194.35 58.65 196.15 57.55 197.7 57.15 199.8
L 55.8 207.2 59.3 207.2 60.55 200.4
Q 60.8 198.9 61.8 197.75 62.75 196.65 64.1 196.15 65.15 195.8 66.05 195.8
L 72.35 195.85
Q 73.45 195.85 74.4 196.15 Z"/>
</g>

<g id="Layer0_0_MEMBER_1_MEMBER_6_FILL">
<path fill="#1D1715" stroke="none" d="
M 39.9 194.7
Q 37.5 194.7 35.65 196.25 33.8 197.8 33.4 200.15
L 32.2 206.95 32.1 207.15 54.4 207.2 53.25 200.65
Q 52.8 198.1 50.8 196.45 48.85 194.75 46.25 194.75
L 39.9 194.7 Z"/>
</g>

<g id="Layer0_0_MEMBER_1_MEMBER_7_FILL">
<path fill="#C44645" stroke="none" d="
M 35.65 196.25
Q 37.5 194.7 39.9 194.7
L 46.25 194.75
Q 48.75 194.75 50.7 196.3 52.65 197.85 53.15 200.25
L 53.25 200.65 54.4 207.2 55.8 207.2 54.6 200.4 54.6 200.3
Q 54.05 197.25 51.7 195.3 49.35 193.35 46.25 193.35
L 39.9 193.3
Q 37 193.3 34.8 195.2 32.55 197.05 32.05 199.9
L 30.75 207.15 32.15 207.15 32.2 206.95 33.4 200.25 33.4 200.15
Q 33.8 197.8 35.65 196.25 Z"/>
</g>

<g id="Layer0_0_MEMBER_1_MEMBER_8_FILL">
<path fill="#1D1715" stroke="none" d="
M 66.05 194.8
Q 63.65 194.75 61.8 196.3 59.95 197.85 59.5 200.2
L 58.3 207 58.25 207.2 80.5 207.25 79.35 200.7
Q 78.9 198.15 76.9 196.5 74.95 194.8 72.35 194.8
L 66.05 194.8 Z"/>
</g>

<g id="Layer0_0_MEMBER_1_MEMBER_9_FILL">
<path fill="#C44645" stroke="none" d="
M 72.35 194.8
Q 74.85 194.8 76.8 196.35 78.75 197.9 79.3 200.35
L 80.5 207.25 81.9 207.25 80.75 200.45 80.7 200.35
Q 80.15 197.35 77.8 195.4 75.4 193.4 72.35 193.4
L 66.05 193.4
Q 63.15 193.4 60.9 195.25 58.7 197.1 58.15 199.95
L 56.85 207.2 58.25 207.2 58.3 207 59.5 200.3 59.55 200.2
Q 59.95 197.85 61.8 196.3 63.65 194.75 66.05 194.8
L 72.35 194.8 Z"/>
</g>

<g id="Layer0_0_MEMBER_1_MEMBER_10_FILL">
<path fill="#22395A" stroke="none" d="
M 165.15 188.9
Q 165.1 188.2 164.75 187.45 163.7 185.25 160.4 184.85
L 134 181.8 133.7 181.7 133.3 181.5 132.9 181.2 132.7 180.9
Q 132.55 180.4 132.45 180.15 131.55 177.9 130.7 172.8 129.75 167.4 130.3 166.15 130.35 166.1 130.2 165.85
L 130.1 165.55
Q 129.5 163.6 128.1 162.7 126.5 161.6 123.55 161.6
L 95.5 161.55
Q 93.45 161.55 92 163 90.55 164.45 90.55 166.5
L 90.5 204.8
Q 90.5 205.8 91.25 206.55 91.95 207.3 93 207.3
L 161.2 207.45
Q 163.6 206.35 164.05 206.05 165.2 205.25 165.2 203.85
L 165.2 189.5 165.15 188.9 Z"/>
</g>

<g id="Layer0_0_MEMBER_1_MEMBER_11_FILL">
<path fill="#C44645" stroke="none" d="
M 88.35 205.75
Q 89.8 207.25 90.65 207.3
L 158.95 207.45
Q 161.45 207.45 162.3 206.65 162.95 206.05 162.9 204.45
L 87.1 204.2 88.35 205.75 Z"/>
</g>

<g id="Layer0_0_MEMBER_1_MEMBER_12_FILL">
<path fill="#E75C5B" stroke="none" d="
M 108.8 165.6
Q 107.9 166.55 107.9 167.8
L 107.8 200.3
Q 107.8 201.25 108.45 201.9 109.1 202.55 110.05 202.55
L 124.8 202.6
Q 125.75 202.6 126.4 201.95 127.05 201.3 127.05 200.35
L 127.1 167.85
Q 127.15 166.6 126.25 165.65 125.35 164.75 124.05 164.75
L 111 164.7
Q 109.75 164.7 108.8 165.6 Z"/>
</g>

<g id="Layer0_0_MEMBER_1_MEMBER_13_MEMBER_0_FILL">
<path fill="#ABEDE3" stroke="none" d="
M 129.1 166.25
Q 128.7 166.65 128.7 167.2
L 128.65 179.4
Q 128.65 180.15 129.15 180.7 129.7 181.2 130.4 181.2
L 132.9 181.2 132.7 180.9
Q 130.95 169.8 130.3 166.15
L 130.2 165.85 130.05 165.85
Q 129.5 165.85 129.1 166.25 Z"/>
</g>

<g id="Layer0_0_MEMBER_1_MEMBER_13_MEMBER_1_FILL">
<path fill="#122237" stroke="none" d="
M 128.85 166.05
Q 128.35 166.55 128.35 167.2
L 128.35 179.4
Q 128.35 180.25 128.95 180.9 129.55 181.5 130.4 181.5
L 133.3 181.5 132.9 181.2 132.7 180.9 130.4 180.9
Q 129.8 180.9 129.4 180.45 128.95 180.05 128.95 179.4
L 129 167.2
Q 129 166.8 129.3 166.45 129.6 166.15 130.05 166.15
L 130.3 166.15 130.1 165.55 130.05 165.55
Q 129.35 165.55 128.85 166.05 Z"/>
</g>

<g id="Layer0_0_MEMBER_1_MEMBER_14_FILL">
<path fill="#ABEDE3" stroke="none" d="
M 109.6 180.65
Q 110.1 181.15 110.8 181.15
L 124.15 181.2
Q 124.85 181.2 125.35 180.7 125.85 180.15 125.85 179.45
L 125.9 167.55
Q 125.9 166.85 125.4 166.35 124.9 165.85 124.2 165.85
L 110.85 165.8
Q 110.15 165.8 109.6 166.3 109.1 166.85 109.1 167.55
L 109.1 179.4
Q 109.1 180.1 109.6 180.65 Z"/>
</g>

<g id="Layer0_0_MEMBER_1_MEMBER_15_FILL">
<path fill="#122237" stroke="none" d="
M 109.4 166.1
Q 108.8 166.7 108.8 167.55
L 108.8 179.4
Q 108.8 180.25 109.4 180.85 109.95 181.45 110.8 181.45
L 124.15 181.5
Q 125 181.5 125.55 180.9 126.15 180.3 126.15 179.45
L 126.2 167.55
Q 126.2 166.75 125.6 166.15 125.05 165.55 124.2 165.55
L 110.85 165.5
Q 110 165.5 109.4 166.1
M 109.85 166.55
Q 110.25 166.1 110.85 166.1
L 124.2 166.15
Q 124.75 166.15 125.2 166.55 125.6 167 125.6 167.55
L 125.55 179.45
Q 125.55 180.05 125.15 180.45 124.7 180.85 124.15 180.85
L 110.8 180.85
Q 110.25 180.85 109.8 180.45 109.4 180 109.4 179.4
L 109.45 167.55
Q 109.45 166.95 109.85 166.55 Z"/>
</g>

<g id="Layer0_0_MEMBER_1_MEMBER_16_FILL">
<path fill="#FFFFFF" stroke="none" d="
M 110.8 183.45
Q 110 183.65 110 183.95 110 184.25 110.75 184.5 111.5 184.7 112.6 184.7 115.15 184.7 115.15 183.95 115.15 183.65 114.4 183.45 113.65 183.2 112.6 183.2 111.55 183.2 110.8 183.45 Z"/>
</g>

<g id="Layer0_0_MEMBER_1_MEMBER_17_MEMBER_0_FILL">
<path fill="#ABEDE3" stroke="none" d="
M 106.3 167.5
Q 106.3 166.8 105.8 166.3 105.3 165.8 104.6 165.8
L 94.4 165.75
Q 93.7 165.75 93.2 166.25 92.7 166.8 92.7 167.5
L 92.65 175
Q 92.65 175.7 93.15 176.2 93.7 176.7 94.4 176.7
L 104.55 176.75
Q 105.25 176.75 105.8 176.25 106.3 175.7 106.3 175
L 106.3 167.5 Z"/>
</g>

<g id="Layer0_0_MEMBER_1_MEMBER_17_MEMBER_1_FILL">
<path fill="#122237" stroke="none" d="
M 106 166.1
Q 105.45 165.5 104.6 165.5
L 94.4 165.45
Q 93.55 165.45 93 166.05 92.4 166.65 92.4 167.5
L 92.35 174.95
Q 92.35 175.8 92.95 176.4 93.55 177 94.4 177
L 104.55 177.05
Q 105.4 177.05 106 176.45 106.6 175.85 106.6 175
L 106.6 167.5
Q 106.6 166.7 106 166.1
M 104.6 166.1
Q 105.15 166.1 105.6 166.5 106 166.95 106 167.5
L 106 175
Q 106 175.6 105.6 176 105.15 176.4 104.55 176.4
L 94.4 176.4
Q 93.8 176.4 93.4 176 92.95 175.55 93 175
L 93 167.5
Q 93 166.9 93.4 166.5 93.85 166.05 94.4 166.1
L 104.6 166.1 Z"/>
</g>

<g id="Layer0_0_MEMBER_1_MEMBER_18_MEMBER_0_FILL">
<path fill="#C44645" stroke="none" d="
M 123.55 172.3
L 123.55 179.5
Q 123.55 180.05 124.1 180.05
L 125.9 180.05
Q 126.5 180.05 126.5 179.5
L 126.5 172.4
Q 126.5 171.55 125.65 171.55
L 124.35 171.5
Q 123.55 171.5 123.55 172.3 Z"/>
</g>

<g id="Layer0_0_MEMBER_1_MEMBER_18_MEMBER_1_FILL">
<path fill="#122237" stroke="none" d="
M 128.3 182.95
Q 128.45 183.25 128.75 183.25
L 129 183.2
Q 129.45 182.95 129.2 182.5
L 125.85 175.95
Q 125.6 175.5 125.15 175.7 124.7 176 124.95 176.4
L 128.3 182.95 Z"/>
</g>

<g id="Layer0_0_MEMBER_1_MEMBER_19_FILL">
<path fill="#DAD1D1" stroke="none" d="
M 157.75 201.6
L 157.75 207.45 166.3 207.45
Q 166.95 207.45 167.4 207 167.85 206.55 167.85 205.9
L 167.9 201.65
Q 167.9 201.05 167.5 200.65 167.05 200.25 166.5 200.25
L 159.15 200.2
Q 158.55 200.2 158.15 200.6 157.75 201.05 157.75 201.6 Z"/>
</g>

<g id="Layer0_0_MEMBER_1_MEMBER_20_FILL">
<path fill="#C44645" stroke="none" d="
M 163.05 189.3
Q 162.6 189.7 162.6 190.3
L 162.6 197.65
Q 162.6 198.25 163.05 198.7 163.45 199.1 164.05 199.1
L 165.2 199.1 165.2 198.3
Q 166.15 198.05 166.15 197.05
L 166.15 190.95
Q 166.15 189.85 165.2 189.7
L 165.2 189.5 165.15 188.9 164.05 188.9
Q 163.45 188.9 163.05 189.3 Z"/>
</g>

<g id="Layer0_0_MEMBER_1_MEMBER_21_FILL">
<path fill="#F9B659" stroke="none" d="
M 164.05 189.65
Q 163.4 189.65 163.4 190.3
L 163.4 197.7
Q 163.4 198.35 164.05 198.35
L 164.9 198.35 165.2 198.3
Q 166.15 198.05 166.15 197.05
L 166.15 190.95
Q 166.15 189.85 165.2 189.7
L 164.9 189.65 164.05 189.65 Z"/>
</g>

<g id="Layer0_0_MEMBER_1_MEMBER_22_FILL">
<path fill="#122237" stroke="none" d="
M 134 181.8
L 133.7 181.7 133.7 182.1
Q 133.7 183.25 134.45 184.05 135.25 184.9 136.35 185
L 164.75 187.45
Q 163.7 185.25 160.4 184.85
L 134 181.8 Z"/>
</g>

<g id="Layer0_0_MEMBER_1_MEMBER_23_FILL">
<path fill="#E75C5B" stroke="none" d="
M 135.9 197.95
Q 136.85 196.85 138.2 196.35 139.05 196 140.15 196
L 146.45 196
Q 147.35 196 148.5 196.35 151.6 197.45 152.4 200.75
L 153.55 207.45 157.05 207.45 156.55 204.5 156.55 204.45 155.85 200.55 155.85 200.35
Q 155.4 198.05 154.05 196.35 152.7 194.6 150.75 193.6 148.75 192.55 146.45 192.55
L 140.15 192.55
Q 137.95 192.55 135.95 193.55 134.05 194.55 132.8 196.3 131.65 197.8 131.25 199.95
L 130.4 204.7 129.6 207.35 133.4 207.4 134.65 200.55
Q 134.9 199.1 135.9 197.95 Z"/>
</g>

<g id="Layer0_0_MEMBER_1_MEMBER_24_FILL">
<path fill="#1D1715" stroke="none" d="
M 140.15 194.95
Q 137.75 194.95 135.9 196.5 134.05 198.05 133.65 200.4
L 132.35 207.4 154.6 207.45 153.45 200.9
Q 153.05 198.35 151.05 196.65 149.05 195 146.45 194.95
L 140.15 194.95 Z"/>
</g>

<g id="Layer0_0_MEMBER_1_MEMBER_25_FILL">
<path fill="#C44645" stroke="none" d="
M 146.45 194.95
Q 148.95 195 150.9 196.55 152.85 198.1 153.4 200.5
L 154.6 207.45 156 207.45 154.85 200.65 154.8 200.5
Q 154.25 197.5 151.9 195.55 149.5 193.6 146.45 193.6
L 140.15 193.55
Q 137.2 193.55 135 195.4 132.8 197.25 132.25 200.15
L 130.95 207.4 132.4 207.4 132.4 207.2 133.6 200.45 133.65 200.4
Q 134.05 198.05 135.9 196.5 137.75 194.95 140.15 194.95
L 146.45 194.95 Z"/>
</g>

<g id="Layer0_0_MEMBER_1_MEMBER_26_FILL">
<path fill="#C4BCBC" stroke="none" d="
M 91.2 169.6
Q 91.2 169.1 90.85 168.7 90.5 168.35 89.95 168.35
L 87 168.35
Q 86.5 168.35 86.15 168.7 85.8 169.1 85.8 169.6
L 85.75 186
Q 85.75 186.5 86.1 186.9 86.45 187.25 86.95 187.25
L 89.9 187.25
Q 90.45 187.25 90.8 186.9 91.15 186.55 91.15 186
L 91.2 169.6 Z"/>
</g>

<g id="Layer0_0_MEMBER_1_MEMBER_27_FILL">
<path fill="#1D1D1B" fill-opacity="0.09803921568627451" stroke="none" d="
M 141.05 9.25
L 141.1 5.4 0.2 0
Q 0.05 0.3 0.05 0.75
L 0 5.9
Q 0 6.75 0.3 7.4 0.9 9.4 2.95 10.2
L 3.95 10.45 3.95 10.5 139.5 10.8
Q 140.15 10.8 140.6 10.35 141.05 9.9 141.05 9.25 Z"/>
</g>

<g id="Layer0_0_MEMBER_1_MEMBER_28_MEMBER_0_FILL">
<path fill="#362A2B" stroke="none" d="
M 46.45 202.05
Q 45.15 200.75 43.3 200.75 41.45 200.75 40.1 202.05 38.8 203.35 38.75 205.25 38.75 207.1 40.1 208.45 41.4 209.75 43.25 209.75 45.1 209.75 46.45 208.45 47.75 207.15 47.8 205.25 47.8 203.4 46.45 202.05 Z"/>
</g>

<g id="Layer0_0_MEMBER_1_MEMBER_28_MEMBER_1_FILL">
<path fill="#1D1715" stroke="none" d="
M 53 205.25
Q 53 201.25 50.15 198.4 47.3 195.55 43.3 195.55 39.3 195.55 36.45 198.4 33.6 201.25 33.55 205.25 33.55 209.25 36.4 212.1 39.25 214.95 43.25 214.95 47.25 214.95 50.1 212.1 52.95 209.25 53 205.25
M 47.5 209.5
Q 45.7 211.25 43.25 211.2 40.8 211.2 39.05 209.45 37.3 207.75 37.3 205.25 37.3 202.75 39.05 201 40.85 199.25 43.3 199.3 45.8 199.3 47.5 201.05 49.25 202.8 49.25 205.25 49.25 207.75 47.5 209.5 Z"/>
</g>

<g id="Layer0_0_MEMBER_1_MEMBER_28_MEMBER_2_MEMBER_0_FILL">
<path fill="#DADADA" stroke="none" d="
M 47.5 201.05
Q 45.75 199.3 43.3 199.3 40.85 199.3 39.1 201.05 37.35 202.75 37.3 205.25 37.3 207.7 39.05 209.45 40.8 211.2 43.25 211.2 45.7 211.2 47.45 209.45 49.2 207.75 49.25 205.25 49.25 202.8 47.5 201.05
M 47.05 209
Q 45.45 210.55 43.25 210.55 41.1 210.55 39.5 209 37.95 207.45 37.95 205.25 37.95 203.05 39.5 201.5 41.1 199.95 43.3 199.95 45.5 199.95 47.05 201.5 48.6 203.1 48.6 205.25 48.6 207.45 47.05 209 Z"/>
</g>

<g id="Layer0_0_MEMBER_1_MEMBER_28_MEMBER_2_MEMBER_1_FILL">
<path fill="#EDEDED" stroke="none" d="
M 43.3 201.6
Q 41.75 201.6 40.7 202.7 39.65 203.75 39.65 205.25 39.6 206.75 40.7 207.85 41.75 208.9 43.25 208.9 44.8 208.9 45.85 207.85 46.9 206.75 46.9 205.25 46.95 203.75 45.85 202.7 44.8 201.6 43.3 201.6
M 41.65 203.65
Q 42.35 202.95 43.3 202.95 44.25 202.95 44.9 203.65 45.55 204.3 45.55 205.25 45.55 206.2 44.9 206.85 44.2 207.55 43.25 207.55 42.3 207.55 41.65 206.85 41 206.2 41 205.25 41 204.3 41.65 203.65 Z"/>
</g>

<g id="Layer0_0_MEMBER_1_MEMBER_28_MEMBER_2_MEMBER_2_MEMBER_0_FILL">
<path fill="#C6C6C6" stroke="none" d="
M 44.9 203.65
Q 44.25 202.95 43.3 202.95 42.35 202.95 41.65 203.65 41 204.3 41 205.25 41 206.2 41.65 206.85 42.3 207.55 43.25 207.55 44.2 207.55 44.9 206.85 45.55 206.2 45.55 205.25 45.55 204.3 44.9 203.65
M 44.15 203.9
Q 44.4 203.7 44.6 203.9 44.85 204.15 44.6 204.35 44.4 204.6 44.15 204.35 43.95 204.15 44.15 203.9
M 43.3 203.65
Q 43.45 203.65 43.45 203.85 43.45 204.05 43.3 204.05 43.1 204.05 43.1 203.85 43.1 203.65 43.3 203.65
M 41.95 203.9
Q 42.15 203.7 42.4 203.9 42.65 204.15 42.4 204.35 42.15 204.6 41.95 204.35 41.7 204.15 41.95 203.9
M 44.7 205.05
Q 44.9 205.05 44.9 205.25 44.9 205.45 44.7 205.45 44.5 205.45 44.5 205.25 44.5 205.05 44.7 205.05
M 43.3 204.4
Q 44.15 204.4 44.15 205.25 44.15 206.1 43.25 206.1 42.4 206.1 42.4 205.25 42.4 204.4 43.3 204.4
M 43.25 206.85
Q 43.1 206.85 43.1 206.65 43.1 206.45 43.25 206.45 43.45 206.45 43.45 206.65 43.45 206.85 43.25 206.85
M 44.15 206.6
Q 43.9 206.35 44.15 206.15 44.4 205.9 44.6 206.15 44.85 206.35 44.6 206.6 44.4 206.8 44.15 206.6
M 41.85 205.05
Q 42.05 205.05 42.05 205.25 42.05 205.45 41.85 205.45 41.65 205.45 41.65 205.25 41.65 205.05 41.85 205.05
M 41.95 206.6
Q 41.7 206.35 41.95 206.15 42.15 205.9 42.4 206.15 42.6 206.35 42.4 206.6 42.15 206.8 41.95 206.6 Z"/>
</g>

<g id="Layer0_0_MEMBER_1_MEMBER_28_MEMBER_2_MEMBER_3_FILL">
<path fill="#C6C6C6" stroke="none" d="
M 47.05 209
Q 48.6 207.45 48.6 205.25 48.6 203.1 47.05 201.5 45.5 199.95 43.3 199.95 41.1 199.95 39.5 201.5 37.95 203.05 37.95 205.25 37.95 207.45 39.5 209 41.1 210.55 43.25 210.55 45.45 210.55 47.05 209
M 45.8 200.85
Q 46.25 201.1 45.95 201.6 45.7 202.1 45.25 201.9 44.85 201.65 45.1 201.1 45.2 200.9 45.45 200.85 45.65 200.75 45.8 200.85
M 47.4 203.45
Q 46.9 203.75 46.65 203.3 46.4 202.9 46.9 202.6 47.45 202.25 47.65 202.7 47.95 203.2 47.4 203.45
M 43.3 200.2
Q 43.8 200.2 43.8 200.75 43.8 201.35 43.3 201.35 42.8 201.35 42.8 200.75 42.8 200.2 43.3 200.2
M 41.35 201.85
Q 40.85 202.15 40.6 201.6 40.3 201.1 40.75 200.85 41.1 200.65 41.5 201.1 41.75 201.65 41.35 201.85
M 40.7 202.7
Q 41.75 201.6 43.3 201.6 44.8 201.6 45.85 202.7 46.95 203.75 46.9 205.25 46.9 206.75 45.85 207.85 44.8 208.9 43.25 208.9 41.75 208.9 40.7 207.85 39.6 206.75 39.65 205.25 39.65 203.75 40.7 202.7
M 40.6 208.9
Q 40.85 208.4 41.3 208.6 41.7 208.85 41.45 209.4 41.15 209.85 40.75 209.65 40.3 209.4 40.6 208.9
M 45 208.95
Q 45.05 208.75 45.2 208.65 45.7 208.35 45.95 208.9 46.25 209.4 45.8 209.65 45.4 209.9 45.1 209.4 44.95 209.2 45 208.95
M 43.25 209.15
Q 43.75 209.15 43.75 209.75 43.75 210.3 43.25 210.3 42.75 210.3 42.75 209.75 42.75 209.15 43.25 209.15
M 46.65 207.2
Q 46.9 206.75 47.4 207.05 47.9 207.4 47.65 207.8 47.4 208.2 46.9 207.95 46.4 207.6 46.65 207.2
M 47.75 205.75
Q 47.15 205.75 47.15 205.25 47.15 204.75 47.75 204.75 48.35 204.75 48.35 205.25 48.35 205.75 47.75 205.75
M 39.9 203.3
Q 39.65 203.75 39.15 203.45 38.65 203.1 38.9 202.7 39.15 202.3 39.65 202.55 40.15 202.9 39.9 203.3
M 38.8 205.75
Q 38.2 205.75 38.2 205.25 38.2 204.75 38.8 204.75 39.4 204.75 39.4 205.25 39.4 205.75 38.8 205.75
M 39.15 207.05
Q 39.65 206.75 39.9 207.2 40.15 207.6 39.65 207.9 39.45 208.05 39.2 208 39 207.95 38.9 207.8 38.6 207.3 39.15 207.05 Z"/>
</g>

<g id="Layer0_0_MEMBER_1_MEMBER_29_MEMBER_0_FILL">
<path fill="#362A2B" stroke="none" d="
M 66.2 202.1
Q 64.9 203.45 64.9 205.3 64.9 207.2 66.2 208.5 67.55 209.8 69.4 209.8 71.25 209.8 72.55 208.5 73.9 207.2 73.9 205.35 73.9 203.45 72.6 202.15 71.25 200.8 69.4 200.8 67.55 200.8 66.2 202.1 Z"/>
</g>

<g id="Layer0_0_MEMBER_1_MEMBER_29_MEMBER_1_FILL">
<path fill="#1D1715" stroke="none" d="
M 79.1 205.35
Q 79.1 201.3 76.25 198.45 73.4 195.6 69.4 195.6 65.4 195.6 62.55 198.45 59.7 201.3 59.7 205.3 59.7 209.3 62.55 212.15 65.35 215 69.4 215 73.4 215 76.25 212.2 79.1 209.35 79.1 205.35
M 73.6 201.1
Q 75.35 202.85 75.35 205.3 75.35 207.8 73.6 209.55 71.85 211.3 69.4 211.3 66.95 211.3 65.15 209.55 63.4 207.8 63.4 205.3 63.45 202.8 65.2 201.1 66.95 199.35 69.4 199.35 71.85 199.35 73.6 201.1 Z"/>
</g>

<g id="Layer0_0_MEMBER_1_MEMBER_29_MEMBER_2_MEMBER_0_FILL">
<path fill="#DADADA" stroke="none" d="
M 75.35 205.3
Q 75.35 202.85 73.6 201.1 71.85 199.35 69.4 199.35 66.95 199.35 65.2 201.1 63.45 202.85 63.45 205.3 63.45 207.8 65.2 209.5 66.95 211.25 69.4 211.25 71.85 211.25 73.6 209.5 75.35 207.75 75.35 205.3
M 74.7 205.3
Q 74.7 207.5 73.15 209.1 71.6 210.65 69.4 210.6 67.2 210.6 65.65 209.05 64.1 207.5 64.1 205.3 64.1 203.1 65.65 201.55 67.2 200 69.4 200 71.6 200 73.15 201.55 74.7 203.1 74.7 205.3 Z"/>
</g>

<g id="Layer0_0_MEMBER_1_MEMBER_29_MEMBER_2_MEMBER_1_FILL">
<path fill="#EDEDED" stroke="none" d="
M 73.05 205.3
Q 73.05 203.8 72 202.75 70.9 201.65 69.4 201.65 67.9 201.65 66.85 202.75 65.75 203.8 65.75 205.3 65.75 206.8 66.8 207.9 67.85 208.95 69.4 208.95 70.9 208.95 72 207.9 73.05 206.85 73.05 205.3
M 71.7 205.3
Q 71.7 206.25 71 206.95 70.35 207.6 69.4 207.6 68.45 207.6 67.75 206.95 67.1 206.3 67.1 205.3 67.1 204.35 67.8 203.7 68.45 203 69.4 203 70.35 203 71 203.7 71.7 204.35 71.7 205.3 Z"/>
</g>

<g id="Layer0_0_MEMBER_1_MEMBER_29_MEMBER_2_MEMBER_2_MEMBER_0_FILL">
<path fill="#C6C6C6" stroke="none" d="
M 71.7 205.3
Q 71.7 204.35 71 203.7 70.35 203 69.4 203 68.45 203 67.8 203.7 67.1 204.35 67.1 205.3 67.1 206.3 67.75 206.95 68.45 207.6 69.4 207.6 70.35 207.6 71 206.95 71.7 206.25 71.7 205.3
M 70.25 203.95
Q 70.5 203.8 70.75 203.95 70.9 204.2 70.75 204.45 70.5 204.6 70.25 204.45 70.1 204.2 70.25 203.95
M 69.4 203.7
Q 69.6 203.7 69.6 203.9 69.6 204.1 69.4 204.1 69.2 204.1 69.2 203.9 69.2 203.7 69.4 203.7
M 68.05 203.95
Q 68.3 203.75 68.5 203.95 68.75 204.2 68.5 204.45 68.3 204.65 68.05 204.45 67.8 204.2 68.05 203.95
M 70.6 205.3
Q 70.6 205.05 70.8 205.15 71 205.15 71 205.3 71 205.5 70.8 205.5 70.6 205.5 70.6 205.3
M 70 204.7
Q 70.25 204.95 70.25 205.3 70.25 205.65 70 205.95 69.75 206.2 69.4 206.2 69.05 206.2 68.75 205.95 68.5 205.7 68.5 205.3 68.5 204.95 68.75 204.7 69.05 204.45 69.4 204.45 69.75 204.45 70 204.7
M 68.6 206.45
Q 68.6 206.6 68.5 206.65 68.3 206.9 68.05 206.65 67.95 206.6 67.95 206.45 67.95 206.3 68.05 206.2 68.3 205.95 68.5 206.2 68.6 206.3 68.6 206.45
M 69.4 206.9
Q 69.2 206.9 69.2 206.7 69.2 206.55 69.4 206.55 69.6 206.55 69.6 206.7 69.6 206.9 69.4 206.9
M 70.25 206.65
Q 70.05 206.45 70.25 206.2 70.5 205.95 70.75 206.2 71 206.45 70.75 206.65 70.5 206.9 70.25 206.65
M 68 205.5
Q 67.8 205.5 67.8 205.3 67.8 205.1 68 205.1 68.15 205.1 68.15 205.3 68.15 205.5 68 205.5 Z"/>
</g>

<g id="Layer0_0_MEMBER_1_MEMBER_29_MEMBER_2_MEMBER_3_FILL">
<path fill="#C6C6C6" stroke="none" d="
M 73.15 209.1
Q 74.7 207.5 74.7 205.3 74.7 203.1 73.15 201.55 71.6 200 69.4 200 67.2 200 65.65 201.55 64.1 203.1 64.1 205.3 64.1 207.5 65.65 209.05 67.2 210.6 69.4 210.6 71.6 210.65 73.15 209.1
M 72.15 201.25
Q 72.2 201.5 72.05 201.7 71.75 202.2 71.35 201.95 70.9 201.7 71.2 201.2 71.45 200.65 71.95 200.95 72.1 201.05 72.15 201.25
M 72.75 203.35
Q 72.55 202.9 73.05 202.65 73.55 202.35 73.8 202.8 74.05 203.2 73.55 203.5 73 203.75 72.75 203.35
M 73.9 204.8
Q 74.45 204.8 74.45 205.3 74.45 205.8 73.85 205.8 73.3 205.8 73.3 205.3 73.3 204.8 73.9 204.8
M 71.35 208.7
Q 71.8 208.45 72.05 208.95 72.3 209.45 71.9 209.7 71.75 209.8 71.55 209.75 71.3 209.65 71.2 209.45 70.95 208.95 71.35 208.7
M 73 208
Q 72.5 207.7 72.75 207.25 73.1 206.8 73.5 207.15 74 207.4 73.8 207.85 73.55 208.25 73 208
M 73.05 205.3
Q 73.05 206.85 72 207.9 70.9 208.95 69.4 208.95 67.85 208.95 66.8 207.9 65.75 206.8 65.75 205.3 65.75 203.8 66.85 202.75 67.9 201.65 69.4 201.65 70.9 201.65 72 202.75 73.05 203.8 73.05 205.3
M 68.9 200.85
Q 68.9 200.25 69.4 200.25 69.9 200.25 69.9 200.85 69.9 201.4 69.4 201.4 68.9 201.4 68.9 200.85
M 67.45 201.95
Q 67.05 202.1 66.7 201.7 66.45 201.15 66.85 200.9 67.35 200.7 67.6 201.2 67.9 201.7 67.45 201.95
M 65 202.75
Q 65.35 202.3 65.75 202.65 66.25 202.9 66 203.35 65.85 203.8 65.25 203.5 64.75 203.2 65 202.75
M 65 207.85
Q 64.8 207.5 65.25 207.1 65.85 206.8 66 207.25 66.25 207.65 65.75 208 65.25 208.3 65 207.85
M 64.9 205.8
Q 64.3 205.8 64.3 205.3 64.3 205.1 64.5 204.95 64.7 204.8 64.9 204.8 65.5 204.8 65.5 205.3 65.5 205.8 64.9 205.8
M 66.85 209.7
Q 66.4 209.45 66.7 208.95 66.95 208.4 67.45 208.7 67.9 208.9 67.6 209.45 67.25 209.95 66.85 209.7
M 69.4 209.2
Q 69.9 209.2 69.9 209.8 69.9 210.4 69.4 210.4 68.9 210.4 68.9 209.8 68.9 209.2 69.4 209.2 Z"/>
</g>

<g id="Layer0_0_MEMBER_1_MEMBER_30_MEMBER_0_FILL">
<path fill="#362A2B" stroke="none" d="
M 140.3 202.3
Q 139 203.65 139 205.5 139 207.35 140.3 208.65 141.65 210 143.5 210 145.35 210 146.65 208.7 148 207.35 148 205.5 148 203.65 146.7 202.3 145.4 201 143.5 201 141.65 201 140.3 202.3 Z"/>
</g>

<g id="Layer0_0_MEMBER_1_MEMBER_30_MEMBER_1_FILL">
<path fill="#1D1715" stroke="none" d="
M 143.5 215.2
Q 147.5 215.2 150.35 212.35 153.2 209.5 153.2 205.5 153.2 201.5 150.35 198.65 147.5 195.8 143.5 195.8 139.5 195.8 136.65 198.65 133.8 201.45 133.8 205.5 133.8 209.5 136.65 212.35 139.5 215.2 143.5 215.2
M 147.7 209.7
Q 146 211.45 143.5 211.45 141 211.45 139.25 209.7 137.5 207.95 137.55 205.5 137.55 203 139.3 201.25 141.05 199.5 143.5 199.5 146 199.55 147.75 201.3 149.5 203.05 149.45 205.5 149.45 208 147.7 209.7 Z"/>
</g>

<g id="Layer0_0_MEMBER_1_MEMBER_30_MEMBER_2_MEMBER_0_FILL">
<path fill="#DADADA" stroke="none" d="
M 143.5 211.45
Q 146 211.45 147.7 209.7 149.45 208 149.45 205.5 149.45 203.05 147.7 201.3 146 199.55 143.5 199.55 141.05 199.55 139.3 201.3 137.55 203.05 137.55 205.5 137.55 207.95 139.3 209.7 141.05 211.45 143.5 211.45
M 147.25 209.25
Q 145.7 210.8 143.5 210.8 141.3 210.8 139.75 209.25 138.2 207.7 138.2 205.5 138.2 203.3 139.75 201.75 141.3 200.2 143.5 200.2 145.7 200.2 147.25 201.75 148.8 203.3 148.8 205.5 148.8 207.7 147.25 209.25 Z"/>
</g>

<g id="Layer0_0_MEMBER_1_MEMBER_30_MEMBER_2_MEMBER_1_FILL">
<path fill="#EDEDED" stroke="none" d="
M 146.1 202.95
Q 145 201.85 143.5 201.85 142 201.85 140.95 202.9 139.85 203.95 139.85 205.5 139.85 207 140.95 208.1 142 209.15 143.5 209.15 145 209.15 146.1 208.1 147.15 207 147.15 205.5 147.15 204 146.1 202.95
M 143.5 203.2
Q 144.45 203.2 145.1 203.9 145.8 204.55 145.8 205.5 145.8 206.45 145.1 207.1 144.45 207.8 143.5 207.8 142.55 207.8 141.9 207.1 141.2 206.45 141.2 205.5 141.2 204.55 141.9 203.85 142.55 203.2 143.5 203.2 Z"/>
</g>

<g id="Layer0_0_MEMBER_1_MEMBER_30_MEMBER_2_MEMBER_2_MEMBER_0_FILL">
<path fill="#C6C6C6" stroke="none" d="
M 145.1 203.9
Q 144.45 203.2 143.5 203.2 142.55 203.2 141.9 203.85 141.2 204.55 141.2 205.5 141.2 206.45 141.9 207.1 142.55 207.8 143.5 207.8 144.45 207.8 145.1 207.1 145.8 206.45 145.8 205.5 145.8 204.55 145.1 203.9
M 144.4 204.15
Q 144.6 203.9 144.85 204.15 145.05 204.4 144.85 204.6 144.6 204.85 144.4 204.6 144.15 204.4 144.4 204.15
M 143.5 203.9
Q 143.7 203.9 143.7 204.1 143.7 204.25 143.5 204.25 143.3 204.25 143.3 204.1 143.3 203.9 143.5 203.9
M 142.15 204.15
Q 142.4 203.9 142.6 204.15 142.85 204.4 142.6 204.6 142.4 204.85 142.15 204.6 141.95 204.4 142.15 204.15
M 145.1 205.5
Q 145.1 205.7 144.9 205.7 144.7 205.7 144.7 205.5 144.7 205.3 144.9 205.3 145.1 205.3 145.1 205.5
M 144.35 206.35
Q 144.6 206.2 144.85 206.35 145 206.6 144.85 206.85 144.6 207 144.35 206.85 144.2 206.6 144.35 206.35
M 141.9 205.5
Q 141.9 205.3 142.1 205.3 142.3 205.3 142.3 205.5 142.3 205.7 142.1 205.7 141.9 205.7 141.9 205.5
M 142.15 206.35
Q 142.4 206.15 142.6 206.35 142.85 206.6 142.6 206.85 142.4 207.05 142.15 206.85 142 206.6 142.15 206.35
M 143.5 207.1
Q 143.3 207.1 143.3 206.9 143.3 206.7 143.5 206.7 143.7 206.7 143.7 206.9 143.7 207.1 143.5 207.1
M 143.5 206.35
Q 142.65 206.35 142.65 205.5 142.65 204.6 143.5 204.6 144.35 204.6 144.35 205.5 144.35 206.35 143.5 206.35 Z"/>
</g>

<g id="Layer0_0_MEMBER_1_MEMBER_30_MEMBER_2_MEMBER_3_FILL">
<path fill="#C6C6C6" stroke="none" d="
M 147.25 209.25
Q 148.8 207.7 148.8 205.5 148.8 203.3 147.25 201.75 145.7 200.2 143.5 200.2 141.3 200.2 139.75 201.75 138.2 203.3 138.2 205.5 138.2 207.7 139.75 209.25 141.3 210.8 143.5 210.8 145.7 210.8 147.25 209.25
M 147.65 203.7
Q 147.1 204 146.9 203.55 146.65 203.15 147.15 202.8 147.65 202.5 147.9 202.95 148.15 203.4 147.65 203.7
M 143.5 200.4
Q 144 200.4 144 201 144 201.6 143.5 201.6 143 201.6 143 201 143 200.4 143.5 200.4
M 146.2 201.85
Q 145.85 202.35 145.45 202.1 145 201.95 145.3 201.35 145.6 200.85 146.05 201.1 146.5 201.35 146.2 201.85
M 143.5 201.85
Q 145 201.85 146.1 202.95 147.15 204 147.15 205.5 147.15 207 146.1 208.1 145 209.15 143.5 209.15 142 209.15 140.95 208.1 139.85 207 139.85 205.5 139.85 203.95 140.95 202.9 142 201.85 143.5 201.85
M 143.5 209.4
Q 144 209.4 144 210 144 210.55 143.5 210.55 143 210.55 143 209.95 143 209.4 143.5 209.4
M 145.3 209.65
Q 145.05 209.1 145.45 208.85 145.9 208.65 146.15 209.15 146.5 209.55 146.05 209.9 145.55 210.1 145.3 209.65
M 147.9 208.05
Q 147.55 208.5 147.15 208.15 146.65 207.9 146.85 207.45 147.1 207.05 147.65 207.3 148.1 207.55 147.9 208.05
M 148.55 205.5
Q 148.55 206 148 206 147.4 206 147.4 205.5 147.4 205 148 205 148.55 205 148.55 205.5
M 140.95 201.1
Q 141.45 200.8 141.7 201.35 142 201.95 141.55 202.1 141.1 202.35 140.85 201.85 140.55 201.4 140.95 201.1
M 139.85 202.8
Q 140.35 203.05 140.15 203.55 139.9 203.95 139.35 203.7 138.9 203.3 139.1 202.95 139.35 202.5 139.85 202.8
M 138.45 205.5
Q 138.45 205 139 205 139.6 205 139.6 205.5 139.6 206 139 206 138.45 206 138.45 205.5
M 139.1 208
Q 139 207.85 139.1 207.65 139.15 207.4 139.35 207.3 139.95 207 140.1 207.45 140.35 207.9 139.85 208.15 139.35 208.45 139.1 208
M 140.95 209.9
Q 140.55 209.65 140.8 209.1 141.2 208.65 141.55 208.85 142 209.1 141.7 209.6 141.4 210.1 140.95 209.9 Z"/>
</g>

<g id="Layer0_0_MEMBER_1_MEMBER_31_FILL">
<path fill="#1D1D1B" fill-opacity="0.09803921568627451" stroke="none" d="
M 5.4 9.3
L 5.4 5.8 0 0 0 9.3
Q 0 9.8 0.35 10.2 0.7 10.55 1.2 10.55
L 4.15 10.55
Q 4.7 10.55 5.05 10.2 5.4 9.85 5.4 9.3 Z"/>
</g>

<g id="Layer0_0_MEMBER_1_MEMBER_32_MEMBER_0_FILL">
<path fill="#FFFFFF" fill-opacity="0.4980392156862745" stroke="none" d="
M 0 0.9
L 0.55 2.25 6.5 13.7 12.3 13.7 5.05 0 0.9 0
Q 0.55 0 0.25 0.25 0 0.55 0 0.9 Z"/>
</g>

<g id="Layer0_0_MEMBER_1_MEMBER_32_MEMBER_1_FILL">
<path fill="#FFFFFF" fill-opacity="0.4980392156862745" stroke="none" d="
M 5.8 0
L 13.05 13.7 14.2 13.7
Q 14.55 13.7 14.8 13.45
L 7.7 0 5.8 0 Z"/>
</g>

<g id="Layer0_0_MEMBER_1_MEMBER_32_MEMBER_2_FILL">
<path fill="#FFFFFF" fill-opacity="0.4980392156862745" stroke="none" d="
M 0 0.95
L 0 2.95 3.3 9.4 9.1 9.4 4.15 0 0.95 0
Q 0.55 0 0.3 0.25 0 0.55 0 0.95 Z"/>
</g>

<g id="Layer0_0_MEMBER_1_MEMBER_32_MEMBER_3_FILL">
<path fill="#FFFFFF" fill-opacity="0.4980392156862745" stroke="none" d="
M 4.85 0
L 9.8 9.4 11.1 9.4
Q 11.45 9.4 11.6 9.25
L 6.75 0 4.85 0 Z"/>
</g>
</defs>

<g transform="matrix( 6.4798431396484375, 0, 0, 6.4798431396484375, 29.9,684.15) ">
<use xlink:href="#Layer0_0_MEMBER_0_FILL"/>
</g>

<g transform="matrix( 6.4798431396484375, 0, 0, 6.4798431396484375, -109.65,-694.6) ">
<use xlink:href="#Layer0_0_MEMBER_1_MEMBER_0_FILL"/>
</g>

<g transform="matrix( 6.4798431396484375, 0, 0, 6.4798431396484375, -109.65,-694.6) ">
<use xlink:href="#Layer0_0_MEMBER_1_MEMBER_1_FILL"/>
</g>

<g transform="matrix( 6.4798431396484375, 0, 0, 6.4798431396484375, -109.65,-694.6) ">
<use xlink:href="#Layer0_0_MEMBER_1_MEMBER_2_FILL"/>
</g>

<g transform="matrix( 6.4798431396484375, 0, 0, 6.4798431396484375, -109.65,-694.6) ">
<use xlink:href="#Layer0_0_MEMBER_1_MEMBER_3_FILL"/>
</g>

<g transform="matrix( 6.4798431396484375, 0, 0, 6.4798431396484375, -109.65,-694.6) ">
<use xlink:href="#Layer0_0_MEMBER_1_MEMBER_4_FILL"/>
</g>

<g transform="matrix( 6.4798431396484375, 0, 0, 6.4798431396484375, -109.65,-694.6) ">
<use xlink:href="#Layer0_0_MEMBER_1_MEMBER_5_FILL"/>
</g>

<g transform="matrix( 6.4798431396484375, 0, 0, 6.4798431396484375, -109.65,-694.6) ">
<use xlink:href="#Layer0_0_MEMBER_1_MEMBER_6_FILL"/>
</g>

<g transform="matrix( 6.4798431396484375, 0, 0, 6.4798431396484375, -109.65,-694.6) ">
<use xlink:href="#Layer0_0_MEMBER_1_MEMBER_7_FILL"/>
</g>

<g transform="matrix( 6.4798431396484375, 0, 0, 6.4798431396484375, -109.65,-694.6) ">
<use xlink:href="#Layer0_0_MEMBER_1_MEMBER_8_FILL"/>
</g>

<g transform="matrix( 6.4798431396484375, 0, 0, 6.4798431396484375, -109.65,-694.6) ">
<use xlink:href="#Layer0_0_MEMBER_1_MEMBER_9_FILL"/>
</g>

<g transform="matrix( 6.4798431396484375, 0, 0, 6.4798431396484375, -109.65,-694.6) ">
<use xlink:href="#Layer0_0_MEMBER_1_MEMBER_10_FILL"/>
</g>

<g transform="matrix( 6.4798431396484375, 0, 0, 6.4798431396484375, -109.65,-694.6) ">
<use xlink:href="#Layer0_0_MEMBER_1_MEMBER_11_FILL"/>
</g>

<g transform="matrix( 6.4798431396484375, 0, 0, 6.4798431396484375, -109.65,-694.6) ">
<use xlink:href="#Layer0_0_MEMBER_1_MEMBER_12_FILL"/>
</g>

<g transform="matrix( 6.4798431396484375, 0, 0, 6.4798431396484375, -109.65,-694.6) ">
<use xlink:href="#Layer0_0_MEMBER_1_MEMBER_13_MEMBER_0_FILL"/>
</g>

<g transform="matrix( 6.4798431396484375, 0, 0, 6.4798431396484375, -109.65,-694.6) ">
<use xlink:href="#Layer0_0_MEMBER_1_MEMBER_13_MEMBER_1_FILL"/>
</g>

<g transform="matrix( 6.4798431396484375, 0, 0, 6.4798431396484375, -109.65,-694.6) ">
<use xlink:href="#Layer0_0_MEMBER_1_MEMBER_14_FILL"/>
</g>

<g transform="matrix( 6.4798431396484375, 0, 0, 6.4798431396484375, -109.65,-694.6) ">
<use xlink:href="#Layer0_0_MEMBER_1_MEMBER_15_FILL"/>
</g>

<g transform="matrix( 6.4798431396484375, 0, 0, 6.4798431396484375, -109.65,-694.6) ">
<use xlink:href="#Layer0_0_MEMBER_1_MEMBER_16_FILL"/>
</g>

<g transform="matrix( 6.4798431396484375, 0, 0, 6.4798431396484375, -109.65,-694.6) ">
<use xlink:href="#Layer0_0_MEMBER_1_MEMBER_17_MEMBER_0_FILL"/>
</g>

<g transform="matrix( 6.4798431396484375, 0, 0, 6.4798431396484375, -109.65,-694.6) ">
<use xlink:href="#Layer0_0_MEMBER_1_MEMBER_17_MEMBER_1_FILL"/>
</g>

<g transform="matrix( 6.4798431396484375, 0, 0, 6.4798431396484375, -109.65,-694.6) ">
<use xlink:href="#Layer0_0_MEMBER_1_MEMBER_18_MEMBER_0_FILL"/>
</g>

<g transform="matrix( 6.4798431396484375, 0, 0, 6.4798431396484375, -109.65,-694.6) ">
<use xlink:href="#Layer0_0_MEMBER_1_MEMBER_18_MEMBER_1_FILL"/>
</g>

<g transform="matrix( 6.4798431396484375, 0, 0, 6.4798431396484375, -109.65,-694.6) ">
<use xlink:href="#Layer0_0_MEMBER_1_MEMBER_19_FILL"/>
</g>

<g transform="matrix( 6.4798431396484375, 0, 0, 6.4798431396484375, -109.65,-694.6) ">
<use xlink:href="#Layer0_0_MEMBER_1_MEMBER_20_FILL"/>
</g>

<g transform="matrix( 6.4798431396484375, 0, 0, 6.4798431396484375, -109.65,-694.6) ">
<use xlink:href="#Layer0_0_MEMBER_1_MEMBER_21_FILL"/>
</g>

<g transform="matrix( 6.4798431396484375, 0, 0, 6.4798431396484375, -109.65,-694.6) ">
<use xlink:href="#Layer0_0_MEMBER_1_MEMBER_22_FILL"/>
</g>

<g transform="matrix( 6.4798431396484375, 0, 0, 6.4798431396484375, -109.65,-694.6) ">
<use xlink:href="#Layer0_0_MEMBER_1_MEMBER_23_FILL"/>
</g>

<g transform="matrix( 6.4798431396484375, 0, 0, 6.4798431396484375, -109.65,-694.6) ">
<use xlink:href="#Layer0_0_MEMBER_1_MEMBER_24_FILL"/>
</g>

<g transform="matrix( 6.4798431396484375, 0, 0, 6.4798431396484375, -109.65,-694.6) ">
<use xlink:href="#Layer0_0_MEMBER_1_MEMBER_25_FILL"/>
</g>

<g transform="matrix( 6.4798431396484375, 0, 0, 6.4798431396484375, -109.65,-694.6) ">
<use xlink:href="#Layer0_0_MEMBER_1_MEMBER_26_FILL"/>
</g>

<g transform="matrix( 6.4798431396484375, 0, 0, 6.4798431396484375, 63.95,579.55) ">
<use xlink:href="#Layer0_0_MEMBER_1_MEMBER_27_FILL"/>
</g>

<g transform="matrix( 6.4798431396484375, 0, 0, 6.4798431396484375, -109.65,-694.6) ">
<use xlink:href="#Layer0_0_MEMBER_1_MEMBER_28_MEMBER_0_FILL"/>
</g>

<g transform="matrix( 6.4798431396484375, 0, 0, 6.4798431396484375, -109.65,-694.6) ">
<use xlink:href="#Layer0_0_MEMBER_1_MEMBER_28_MEMBER_1_FILL"/>
</g>

<g transform="matrix( 6.4798431396484375, 0, 0, 6.4798431396484375, -109.65,-694.6) ">
<use xlink:href="#Layer0_0_MEMBER_1_MEMBER_28_MEMBER_2_MEMBER_0_FILL"/>
</g>

<g transform="matrix( 6.4798431396484375, 0, 0, 6.4798431396484375, -109.65,-694.6) ">
<use xlink:href="#Layer0_0_MEMBER_1_MEMBER_28_MEMBER_2_MEMBER_1_FILL"/>
</g>

<g transform="matrix( 6.4798431396484375, 0, 0, 6.4798431396484375, -109.65,-694.6) ">
<use xlink:href="#Layer0_0_MEMBER_1_MEMBER_28_MEMBER_2_MEMBER_2_MEMBER_0_FILL"/>
</g>

<g transform="matrix( 6.4798431396484375, 0, 0, 6.4798431396484375, -109.65,-694.6) ">
<use xlink:href="#Layer0_0_MEMBER_1_MEMBER_28_MEMBER_2_MEMBER_3_FILL"/>
</g>

<g transform="matrix( 6.4798431396484375, 0, 0, 6.4798431396484375, -109.65,-694.6) ">
<use xlink:href="#Layer0_0_MEMBER_1_MEMBER_29_MEMBER_0_FILL"/>
</g>

<g transform="matrix( 6.4798431396484375, 0, 0, 6.4798431396484375, -109.65,-694.6) ">
<use xlink:href="#Layer0_0_MEMBER_1_MEMBER_29_MEMBER_1_FILL"/>
</g>

<g transform="matrix( 6.4798431396484375, 0, 0, 6.4798431396484375, -109.65,-694.6) ">
<use xlink:href="#Layer0_0_MEMBER_1_MEMBER_29_MEMBER_2_MEMBER_0_FILL"/>
</g>

<g transform="matrix( 6.4798431396484375, 0, 0, 6.4798431396484375, -109.65,-694.6) ">
<use xlink:href="#Layer0_0_MEMBER_1_MEMBER_29_MEMBER_2_MEMBER_1_FILL"/>
</g>

<g transform="matrix( 6.4798431396484375, 0, 0, 6.4798431396484375, -109.65,-694.6) ">
<use xlink:href="#Layer0_0_MEMBER_1_MEMBER_29_MEMBER_2_MEMBER_2_MEMBER_0_FILL"/>
</g>

<g transform="matrix( 6.4798431396484375, 0, 0, 6.4798431396484375, -109.65,-694.6) ">
<use xlink:href="#Layer0_0_MEMBER_1_MEMBER_29_MEMBER_2_MEMBER_3_FILL"/>
</g>

<g transform="matrix( 6.4798431396484375, 0, 0, 6.4798431396484375, -109.65,-694.6) ">
<use xlink:href="#Layer0_0_MEMBER_1_MEMBER_30_MEMBER_0_FILL"/>
</g>

<g transform="matrix( 6.4798431396484375, 0, 0, 6.4798431396484375, -109.65,-694.6) ">
<use xlink:href="#Layer0_0_MEMBER_1_MEMBER_30_MEMBER_1_FILL"/>
</g>

<g transform="matrix( 6.4798431396484375, 0, 0, 6.4798431396484375, -109.65,-694.6) ">
<use xlink:href="#Layer0_0_MEMBER_1_MEMBER_30_MEMBER_2_MEMBER_0_FILL"/>
</g>

<g transform="matrix( 6.4798431396484375, 0, 0, 6.4798431396484375, -109.65,-694.6) ">
<use xlink:href="#Layer0_0_MEMBER_1_MEMBER_30_MEMBER_2_MEMBER_1_FILL"/>
</g>

<g transform="matrix( 6.4798431396484375, 0, 0, 6.4798431396484375, -109.65,-694.6) ">
<use xlink:href="#Layer0_0_MEMBER_1_MEMBER_30_MEMBER_2_MEMBER_2_MEMBER_0_FILL"/>
</g>

<g transform="matrix( 6.4798431396484375, 0, 0, 6.4798431396484375, -109.65,-694.6) ">
<use xlink:href="#Layer0_0_MEMBER_1_MEMBER_30_MEMBER_2_MEMBER_3_FILL"/>
</g>

<g transform="matrix( 6.4798431396484375, 0, 0, 6.4798431396484375, 445.85,450.25) ">
<use xlink:href="#Layer0_0_MEMBER_1_MEMBER_31_FILL"/>
</g>

<g transform="matrix( 6.4798431396484375, 0, 0, 6.4798431396484375, 602.65,385.15) ">
<use xlink:href="#Layer0_0_MEMBER_1_MEMBER_32_MEMBER_0_FILL"/>
</g>

<g transform="matrix( 6.4798431396484375, 0, 0, 6.4798431396484375, 602.65,385.15) ">
<use xlink:href="#Layer0_0_MEMBER_1_MEMBER_32_MEMBER_1_FILL"/>
</g>

<g transform="matrix( 6.4798431396484375, 0, 0, 6.4798431396484375, 495.75,384.5) ">
<use xlink:href="#Layer0_0_MEMBER_1_MEMBER_32_MEMBER_2_FILL"/>
</g>

<g transform="matrix( 6.4798431396484375, 0, 0, 6.4798431396484375, 495.75,384.5) ">
<use xlink:href="#Layer0_0_MEMBER_1_MEMBER_32_MEMBER_3_FILL"/>
</g>
</svg>
