<?xml version="1.0" encoding="UTF-8"?>
<svg width="244px" height="208px" viewBox="0 0 244 208" version="1.1" xmlns="http://www.w3.org/2000/svg" xmlns:xlink="http://www.w3.org/1999/xlink">
    <!-- Generator: Sketch 55 (78076) - https://sketchapp.com -->
    <title>绑定用户、管理员、用户</title>
    <desc>Created with Sketch.</desc>
    <g id="Page-1" stroke="none" stroke-width="1" fill="none" fill-rule="evenodd">
        <g id="亮背景时使用" transform="translate(-40.000000, -472.000000)">
            <g id="绑定用户、管理员、用户" transform="translate(40.000000, 472.000000)">
                <g id="背景/彩">
                    <g id="-">
                        <g id="编组" transform="translate(28.400000, 18.400000)">
                            <polyline id="路径" stroke="#DEF5FF" stroke-width="40" stroke-linecap="round" stroke-linejoin="round" points="121.6 27.4476562 49.6 71.0238281 121.6 66.6 129.6 66.6 72.167827 114.6"></polyline>
                            <path d="M1.6,146.2 C0.7163444,146.2 -5.68434189e-14,145.483656 -5.68434189e-14,144.6 C-5.68434189e-14,143.716344 0.7163444,143 1.6,143 L141.6,143 C142.483656,143 143.2,143.716344 143.2,144.6 C143.2,145.483656 142.483656,146.2 141.6,146.2 L1.6,146.2 Z M149.6,146.2 C148.716344,146.2 148,145.483656 148,144.6 C148,143.716344 148.716344,143 149.6,143 L154.6,143 C155.483656,143 156.2,143.716344 156.2,144.6 C156.2,145.483656 155.483656,146.2 154.6,146.2 L149.6,146.2 Z M167.6,146.2 C166.716344,146.2 166,145.483656 166,144.6 C166,143.716344 166.716344,143 167.6,143 L185.6,143 C186.483656,143 187.2,143.716344 187.2,144.6 C187.2,145.483656 186.483656,146.2 185.6,146.2 L167.6,146.2 Z M47.6,161.2 C46.7163444,161.2 46,160.483656 46,159.6 C46,158.716344 46.7163444,158 47.6,158 L61.6,158 C62.4836556,158 63.2,158.716344 63.2,159.6 C63.2,160.483656 62.4836556,161.2 61.6,161.2 L47.6,161.2 Z M70.6,161.2 C69.7163444,161.2 69,160.483656 69,159.6 C69,158.716344 69.7163444,158 70.6,158 L131.6,158 C132.483656,158 133.2,158.716344 133.2,159.6 C133.2,160.483656 132.483656,161.2 131.6,161.2 L70.6,161.2 Z M160,105.6 C160,103.466667 163.2,103.466667 163.2,105.6 L163.2,111.6 C163.2,112.483656 162.483656,113.2 161.6,113.2 L155.6,113.2 C153.466667,113.2 153.466667,110 155.6,110 L160,110 L160,105.6 Z M163.2,117.6 C163.2,119.733333 160,119.733333 160,117.6 L160,111.6 C160,110.716344 160.716344,110 161.6,110 L167.6,110 C169.733333,110 169.733333,113.2 167.6,113.2 L163.2,113.2 L163.2,117.6 Z M8,57.6 C8,55.4666667 11.2,55.4666667 11.2,57.6 L11.2,63.6 C11.2,64.4836556 10.4836556,65.2 9.6,65.2 L3.6,65.2 C1.46666667,65.2 1.46666667,62 3.6,62 L8,62 L8,57.6 Z M156.2,7 L161.6,7 C163.733333,7 163.733333,10.2 161.6,10.2 L156.2,10.2 L156.2,15.6 C156.2,17.7333333 153,17.7333333 153,15.6 L153,10.2 L147.6,10.2 C145.466667,10.2 145.466667,7 147.6,7 L153,7 L153,1.6 C153,-0.533333333 156.2,-0.533333333 156.2,1.6 L156.2,7 Z M11.2,69.6 C11.2,71.7333333 8,71.7333333 8,69.6 L8,63.6 C8,62.7163444 8.7163444,62 9.6,62 L15.6,62 C17.7333333,62 17.7333333,65.2 15.6,65.2 L11.2,65.2 L11.2,69.6 Z" id="Path-2" fill="#333745" fill-rule="nonzero"></path>
                            <path d="M28.1857864,122.286292 C29.1285955,121.343482 30.542809,122.757696 29.6,123.700505 L27.4786797,125.821825 C27.0881554,126.21235 26.4549904,126.21235 26.0644661,125.821825 L23.9431458,123.700505 C23.0003367,122.757696 24.4145503,121.343482 25.3573593,122.286292 L26.7715729,123.700505 L28.1857864,122.286292 Z M25.3573593,127.943146 C24.4145503,128.885955 23.0003367,127.471741 23.9431458,126.528932 L26.0644661,124.407612 C26.4549904,124.017088 27.0881554,124.017088 27.4786797,124.407612 L29.6,126.528932 C30.542809,127.471741 29.1285955,128.885955 28.1857864,127.943146 L26.7715729,126.528932 L25.3573593,127.943146 Z M45.8426407,17.6 C46.7854497,16.657191 48.1996633,18.0714045 47.2568542,19.0142136 L45.1355339,21.1355339 C44.7450096,21.5260582 44.1118446,21.5260582 43.7213203,21.1355339 L41.6,19.0142136 C40.657191,18.0714045 42.0714045,16.657191 43.0142136,17.6 L44.4284271,19.0142136 L45.8426407,17.6 Z M43.0142136,23.2568542 C42.0714045,24.1996633 40.657191,22.7854497 41.6,21.8426407 L43.7213203,19.7213203 C44.1118446,19.3307961 44.7450096,19.3307961 45.1355339,19.7213203 L47.2568542,21.8426407 C48.1996633,22.7854497 46.7854497,24.1996633 45.8426407,23.2568542 L44.4284271,21.8426407 L43.0142136,23.2568542 Z" id="Path复制" fill="#657180" fill-rule="nonzero"></path>
                        </g>
                    </g>
                </g>
                <g id="Group" transform="translate(84.000000, 44.000000)">
                    <path d="M11.8896059,69.6795277 L19.6976497,67.3830442 L33.0410156,118.457031 L42.4169922,118.457031 L56.8797833,67.5528774 L64.1103941,69.6795277 C68.8654022,71.0780595 72.2713399,75.2560793 72.6829473,80.1953679 L76,120 L0,120 L3.31705267,80.1953679 C3.72866006,75.2560793 7.1345978,71.0780595 11.8896059,69.6795277 Z" id="Path" fill="#9EA7B4"></path>
                    <polygon id="Path-Copy" fill="#F5D2B2" points="28 65 19.6976497 67.3830442 33.0410156 118.457031 42.4169922 118.457031 56.8797833 67.5528774 48 65 48 57.2036133 28 57.2036133"></polygon>
                    <polygon id="Path-Copy复制" fill="#FFFFFF" points="19.6976497 67.3830442 33.0410156 118.457031 42.4169922 118.457031 56.8797833 67.5528774 36.7179688 75.636036"></polygon>
                    <path d="M17,30 L22,30 L22,44 L17,44 C13.1340068,44 10,40.8659932 10,37 L10,37 C10,33.1340068 13.1340068,30 17,30 Z" id="Path-Copy-6" fill="#FFF3E8"></path>
                    <path d="M61,30 L66,30 L66,44 L61,44 C57.1340068,44 54,40.8659932 54,37 L54,37 C54,33.1340068 57.1340068,30 61,30 Z" id="Path-Copy-5" fill="#FFF3E8" transform="translate(60.000000, 37.000000) scale(-1, 1) translate(-60.000000, -37.000000) "></path>
                    <path d="M13,33.0559949 L13,15.1344858 C13,6.79071189 20.0457971,0.0267467097 28.7372282,0.0267467097 C29.0637237,0.0267467097 29.3901401,0.0365008389 29.7160034,0.0559949344 L43.8928229,0.904093559 C45.5818943,1.00513873 47.2771133,0.953978175 48.9562382,0.751283153 L54.7160034,0.0559949344 C58.7518601,-0.431192216 62.4349676,2.31470451 62.9424542,6.18912693 C62.9807805,6.48173054 63,6.77634948 63,7.0712573 L63,33.0559949" id="Rectangle-8" fill="#F5F7F9"></path>
                    <path d="M56.4,26.943714 L43.683179,19.9138066 C34.2793666,27.2107846 26.2436588,30.0696993 19.6,28.2729997 L19.6,31.6 L17,31.6 C14.0176624,31.6 11.6,34.0176624 11.6,37 C11.6,39.9823376 14.0176624,42.4 17,42.4 L19.6,42.4 L19.6,44.4152961 C19.6,50.9894916 23.1562541,56.9392737 28.784175,60.1036882 L29.6,60.5624027 L29.6,66.1383572 L12.341072,71.2145125 C8.220065,72.4265734 5.26825229,76.0475239 4.91152588,80.3282407 L1.73887928,118.4 L74.2611207,118.4 L71.0884741,80.3282407 C70.7317477,76.0475239 67.779935,72.4265734 63.658928,71.2145125 L46.3999982,66.1383566 L46.400007,60.4014861 L47.1988436,59.9393837 C52.8482491,56.6713767 56.4,50.6459571 56.4,44 L56.4,42.4 L59,42.4 C61.9823376,42.4 64.4,39.9823376 64.4,37 C64.4,34.0176624 61.9823376,31.6 59,31.6 L56.4,31.6 L56.4,26.943714 Z" id="Rectangle-7" stroke="#333745" stroke-width="3.2"></path>
                    <path d="M14.6,31.4559949 L61.4,31.4559949 L61.4,7.0712573 C61.4,6.84584816 61.3853087,6.62064245 61.3560055,6.39692603 C60.9643168,3.40656681 58.0861503,1.26078419 54.9077549,1.64446319 L49.1479896,2.3397514 C47.3735422,2.55395325 45.5821695,2.60801566 43.7972771,2.5012382 L29.6204576,1.65313957 C29.3264085,1.6355487 29.0318549,1.62674671 28.7372282,1.62674671 C20.9151701,1.62674671 14.6,7.68931003 14.6,15.1344858 L14.6,31.4559949 Z" id="Rectangle-8-Copy" stroke="#333745" stroke-width="3.2" fill="#333745"></path>
                    <path d="M19.6,28.2729997 C19.6,35.2820332 19.6,36.0352426 19.6,44.4152961 C19.6,54.3479738 27.6520262,62.4 37.5847039,62.4 L38,62.4 C48.1620394,62.4 56.4,54.1620394 56.4,44 L56.4,26.943714 L43.683179,19.9138066 C34.2793666,27.2107846 26.2436588,30.0696993 19.6,28.2729997 Z" id="Path-Copy-2" stroke="#333745" stroke-width="3.2" fill="#FFEBD9"></path>
                    <path d="M20,68 L32,118" id="Path-15-Copy-3" stroke="#333745" stroke-width="3.2"></path>
                    <path d="M44,68 L56,118" id="Path-15-Copy-4" stroke="#333745" stroke-width="3.2" transform="translate(50.000000, 93.000000) scale(-1, 1) translate(-50.000000, -93.000000) "></path>
                    <path d="M62,93 L62,118" id="Path-15-Copy-5" stroke="#333745" stroke-width="3.2" stroke-linecap="round" transform="translate(62.000000, 105.500000) scale(-1, 1) translate(-62.000000, -105.500000) "></path>
                    <path d="M16,93 L16,118" id="Path-15-Copy-6" stroke="#333745" stroke-width="3.2" stroke-linecap="round" transform="translate(16.000000, 105.500000) scale(-1, 1) translate(-16.000000, -105.500000) "></path>
                    <path d="M32.0424805,79.9472656 L33.5987281,84.8321962 C33.8630248,85.6618014 34.6336716,86.2250977 35.5043596,86.2250977 L40.6787459,86.2250977 C41.5494338,86.2250977 42.3200807,85.6618014 42.5843774,84.8321962 L44.140625,79.9472656 L38,77.636036 L32.0424805,79.9472656 Z" id="Path" stroke="#333745" stroke-width="3.2" fill="#FF8683"></path>
                    <polyline id="Path-Copy-4" stroke="#333745" stroke-width="3.2" fill="#FF8683" points="31.6005859 116.973633 34.0424805 86.2250977 42.140625 86.2250977 44.4667969 116.973633"></polyline>
                    <path d="M28.8237305,67.28125 L37.5322179,76 L28.3281616,82.7735155 C27.4385329,83.4282175 26.1866056,83.2377717 25.5319037,82.3481431 C25.4115785,82.1846415 25.3168474,82.0037736 25.2509667,81.8117563 L21.1420898,69.8359375 L28.8237305,67.28125 Z M47.5932617,66.8452148 L55.2749023,69.3999023 L50.889092,81.8417265 C50.8234727,82.0278778 50.730659,82.2032901 50.6136687,82.36226 C49.9589667,83.2518887 48.7070394,83.4423344 47.8174108,82.7876325 L38.594172,76 L47.5932617,66.8452148 Z" id="Path-15-Copy" stroke="#333745" stroke-width="3.2" fill="#FFFFFF"></path>
                    <polyline id="Path-16" stroke="#333745" stroke-width="3.2" stroke-linecap="round" stroke-linejoin="round" points="37.4902344 41.5703125 37.4902344 48.3964844 41.0302734 48.3964844"></polyline>
                </g>
                <path d="M30,164.6 C29.1163444,164.6 28.4,163.883656 28.4,163 C28.4,162.116344 29.1163444,161.4 30,161.4 L170,161.4 C170.883656,161.4 171.6,162.116344 171.6,163 C171.6,163.883656 170.883656,164.6 170,164.6 L30,164.6 Z" id="Path" fill="#333745" fill-rule="nonzero"></path>
            </g>
        </g>
    </g>
</svg>