<?xml version="1.0" encoding="iso-8859-1"?>
<!-- Generator: Adobe Illustrator 23.0.2, SVG Export Plug-In . SVG Version: 6.00 Build 0)  -->
<svg version="1.1" id="&#x56FE;&#x5C42;_1" xmlns="http://www.w3.org/2000/svg" xmlns:xlink="http://www.w3.org/1999/xlink" x="0px"
	 y="0px" viewBox="0 0 500 500" style="enable-background:new 0 0 500 500;" xml:space="preserve">
<g id="&#x6D88;&#x606F;&#x677F;">
	<path style="opacity:0.64;fill:#5A78EB;" d="M370.513,307.455H182.975c0,0-17.199,0-31.308,11.288
		c-11.712,9.37-16.931,28.219-16.931,28.219V164.8c0-7.679,6.282-13.961,13.961-13.961h221.817c7.679,0,13.961,6.282,13.961,13.961
		v128.694C384.474,301.172,378.191,307.455,370.513,307.455z"/>
	<path style="fill:#FFFFFF;" d="M365.316,301.811H177.777c0,0-17.199,0-31.308,11.288c-11.712,9.37-16.931,28.219-16.931,28.219
		V159.156c0-7.679,6.282-13.961,13.961-13.961h221.817c7.679,0,13.961,6.282,13.961,13.961V287.85
		C379.277,295.529,372.994,301.811,365.316,301.811z"/>
	<circle style="fill:#5A78EB;" cx="172.572" cy="191.051" r="21.87"/>
	<polygon style="fill:#FDD740;stroke:#232323;stroke-width:0.5;stroke-miterlimit:10;" points="319.2,191.051 322.62,197.98 
		330.266,199.091 324.733,204.485 326.039,212.1 319.2,208.505 312.361,212.1 313.667,204.485 308.134,199.091 315.78,197.98 	"/>
	<polygon style="fill:#FDD740;stroke:#232323;stroke-width:0.5;stroke-miterlimit:10;" points="287.735,191.051 291.155,197.98 
		298.802,199.091 293.269,204.485 294.575,212.1 287.735,208.505 280.896,212.1 282.202,204.485 276.669,199.091 284.316,197.98 	
		"/>
	<polygon style="fill:#FDD740;stroke:#232323;stroke-width:0.5;stroke-miterlimit:10;" points="256.271,191.051 259.691,197.98 
		267.337,199.091 261.804,204.485 263.11,212.1 256.271,208.505 249.432,212.1 250.738,204.485 245.205,199.091 252.851,197.98 	"/>
	<polygon style="fill:#FDD740;stroke:#232323;stroke-width:0.5;stroke-miterlimit:10;" points="224.807,191.051 228.226,197.98 
		235.873,199.091 230.34,204.485 231.646,212.1 224.807,208.505 217.967,212.1 219.273,204.485 213.74,199.091 221.387,197.98 	"/>
	<polygon style="fill:#FDD740;stroke:#232323;stroke-width:0.5;stroke-miterlimit:10;" points="350.664,191.051 354.084,197.98 
		361.73,199.091 356.197,204.485 357.504,212.1 350.664,208.505 343.825,212.1 345.131,204.485 339.598,199.091 347.245,197.98 	"/>
	<g>
		<path d="M161.459,236.759l4.505-7.611h3.21l-3.572,7.611h4.711v8.387h-8.854V236.759z M172.332,236.759l4.504-7.611h3.21
			l-3.573,7.611h4.712v8.387h-8.854V236.759z"/>
	</g>
	<g>
		<path d="M350.5,274.22l-4.505,7.611h-3.21l3.572-7.611h-4.711v-8.387h8.854V274.22z M339.627,274.22l-4.504,7.611h-3.21
			l3.573-7.611h-4.712v-8.387h8.854V274.22z"/>
	</g>
	<path style="fill:#B7BFDC;stroke:#232323;stroke-width:0.5;stroke-miterlimit:10;" d="M275.43,248.9h-82.963
		c-0.854,0-1.553-0.699-1.553-1.553v-8.182c0-0.854,0.699-1.553,1.553-1.553h82.963c0.854,0,1.553,0.699,1.553,1.553v8.182
		C276.982,248.202,276.284,248.9,275.43,248.9z"/>
	<path style="fill:#B7BFDC;stroke:#232323;stroke-width:0.5;stroke-miterlimit:10;" d="M316.348,270.77H192.467
		c-0.854,0-1.553-0.699-1.553-1.553v-8.182c0-0.854,0.699-1.553,1.553-1.553h123.881c0.854,0,1.553,0.699,1.553,1.553v8.182
		C317.9,270.071,317.201,270.77,316.348,270.77z"/>
	<g>
		<line style="fill:#B7BFDC;" x1="214.195" y1="172.003" x2="280.51" y2="172.003"/>
		<path style="fill:#232323;" d="M280.51,172.356h-66.315c-0.195,0-0.353-0.158-0.353-0.353c0-0.195,0.158-0.353,0.353-0.353h66.315
			c0.195,0,0.353,0.158,0.353,0.353C280.863,172.198,280.705,172.356,280.51,172.356z"/>
	</g>
	<g>
		<line style="fill:#B7BFDC;" x1="214.195" y1="176.942" x2="233.948" y2="176.942"/>
		<path style="fill:#232323;" d="M233.948,177.294h-19.753c-0.195,0-0.353-0.158-0.353-0.353s0.158-0.353,0.353-0.353h19.753
			c0.195,0,0.353,0.158,0.353,0.353S234.143,177.294,233.948,177.294z"/>
	</g>
	<g>
		<polyline style="fill:#B7BFDC;" points="238.181,176.942 245.236,176.942 248.058,176.942 272.044,176.942 		"/>
		<path style="fill:#232323;" d="M272.044,177.294h-33.863c-0.195,0-0.353-0.158-0.353-0.353s0.158-0.353,0.353-0.353h33.863
			c0.195,0,0.353,0.158,0.353,0.353S272.239,177.294,272.044,177.294z"/>
	</g>
	<g>
		<line style="fill:#B7BFDC;" x1="214.195" y1="181.88" x2="246.647" y2="181.88"/>
		<path style="fill:#232323;" d="M246.647,182.232h-32.452c-0.195,0-0.353-0.158-0.353-0.353s0.158-0.353,0.353-0.353h32.452
			c0.195,0,0.353,0.158,0.353,0.353S246.842,182.232,246.647,182.232z"/>
	</g>
	<g>
		<line style="fill:#B7BFDC;" x1="250.88" y1="181.88" x2="303.085" y2="181.88"/>
		<path style="fill:#232323;" d="M303.085,182.232H250.88c-0.195,0-0.353-0.158-0.353-0.353s0.158-0.353,0.353-0.353h52.205
			c0.195,0,0.353,0.158,0.353,0.353S303.28,182.232,303.085,182.232z"/>
	</g>
</g>
</svg>
