
<svg xmlns="http://www.w3.org/2000/svg" version="1.1" xmlns:xlink="http://www.w3.org/1999/xlink" preserveAspectRatio="none" x="0px" y="0px" width="1024px" height="1024px" viewBox="0 0 1024 1024">
<defs>
<g id="Layer0_0_MEMBER_0_MEMBER_0_MEMBER_0_FILL">
<path fill="#79BA2D" stroke="none" d="
M 208.1 43.2
L 208 43.1
Q 204.85 39.95 199.9 40.3 195 40.7 191 44.35
L 147.35 84.4
Q 142.15 89.2 141.4 95.7 140.65 102.2 144.8 106.3
L 144.9 106.4 208.1 43.2 Z"/>
</g>

<g id="Layer0_0_MEMBER_0_MEMBER_1_MEMBER_0_MEMBER_0_MEMBER_0_FILL">
<path fill="#80C612" stroke="none" d="
M 208.1 43.2
L 208 43.1
Q 204.85 39.95 199.9 40.3 195 40.7 191 44.35
L 147.35 84.4
Q 142.15 89.2 141.4 95.7 140.65 102.2 144.8 106.3
L 144.9 106.4 208.1 43.2 Z"/>
</g>

<g id="Layer0_0_MEMBER_0_MEMBER_1_MEMBER_0_MEMBER_1_MEMBER_0_MEMBER_0_FILL">
<path fill="#D0FF85" stroke="none" d="
M 141.45 95.8
L 141.35 95.8 141.2 97.6
Q 141.1 99.4 141.65 101.6 142.3 103.35 142.4 103.6 142.6 104.05 143.5 105.2 143.9 105.65 144.45 106.1
L 144.85 106.4 144.9 106.35 143.9 104.85
Q 143.1 103.4 143.05 103.3 142.9 103.05 142.15 101.45 141.45 99.35 141.45 97.6 141.45 96.6 141.4 96.3
L 141.45 95.8 Z"/>
</g>

<g id="Layer0_0_MEMBER_0_MEMBER_1_MEMBER_0_MEMBER_1_MEMBER_1_MEMBER_0_FILL">
<path fill="#D0FF85" stroke="none" d="
M 208.1 43.15
L 207.8 42.75
Q 207.25 42.1 206.75 41.75 206.7 41.7 205.95 41.2 205.4 40.85 205 40.75 204.75 40.65 203.95 40.4
L 202.8 40.2
Q 200.7 39.85 198.55 40.35 197.35 40.7 197.2 40.75
L 196.7 40.95 196.75 41 197.25 40.85
Q 197.3 40.85 198.6 40.6 200.8 40.3 202.7 40.7
L 204.75 41.4
Q 205.2 41.55 205.65 41.8
L 206.45 42.2 208.05 43.2 208.1 43.15 Z"/>
</g>

<g id="Layer0_0_MEMBER_0_MEMBER_1_MEMBER_1_MEMBER_0_MEMBER_0_FILL">
<path fill="#6FB617" stroke="none" d="
M 208.05 43.15
Q 206.65 41.75 201.1 44.65 196.35 47.15 193.75 49.6
L 153.65 87.85
Q 150.4 90.85 146.95 97.25 143 104.45 144.85 106.3
L 144.9 106.4 208.05 43.15 Z"/>
</g>

<g id="Layer0_0_MEMBER_0_MEMBER_1_MEMBER_1_MEMBER_1_MEMBER_0_MEMBER_0_FILL">
<path fill="#D0FF85" stroke="none" d="
M 202.7 44.15
L 206.35 43
Q 207.15 42.85 207.6 43 207.9 43.05 208.05 43.15
L 208.05 43.1
Q 208 42.95 207.7 42.75 207.1 42.45 206.35 42.45 205.6 42.45 204.45 42.8 203.3 43.25 202.45 43.7 200.85 44.5 199.05 45.65
L 197.55 46.7 197.55 46.75 199.15 45.85
Q 201.05 44.85 202.7 44.15 Z"/>
</g>

<g id="Layer0_0_MEMBER_0_MEMBER_1_MEMBER_1_MEMBER_1_MEMBER_1_MEMBER_0_FILL">
<path fill="#D0FF85" stroke="none" d="
M 148.15 95.2
L 148.1 95.15 147.1 96.75
Q 145.85 98.65 145.1 100.5 144.5 101.65 144.25 102.6 144 103.85 144.05 104.6 144.15 105.65 144.5 106
L 144.85 106.4 144.9 106.4 144.7 105.9
Q 144.45 105.45 144.55 104.6
L 145.55 100.7
Q 146.25 98.85 147.3 96.85
L 148.15 95.2 Z"/>
</g>

<g id="Layer0_0_MEMBER_0_MEMBER_1_MEMBER_2_MEMBER_1_MEMBER_0_MEMBER_0_FILL">
<path fill="#D0FF85" stroke="none" d="
M 205.75 46
L 207 44.65
Q 207.75 43.65 207.8 43.6
L 208.1 43.2 208.05 43.15 205.25 45.5 199.9 51.35 199.95 51.35 205.75 46 Z"/>
</g>

<g id="Layer0_0_MEMBER_0_MEMBER_1_MEMBER_2_MEMBER_1_MEMBER_1_MEMBER_0_FILL">
<path fill="#D0FF85" stroke="none" d="
M 153.55 97.8
L 153.5 97.75 147.35 103.4 144.85 106.35 144.9 106.4 145.35 106.1 146.4 105.25 153.55 97.8 Z"/>
</g>

<g id="Layer0_0_MEMBER_0_MEMBER_2_MEMBER_0_MEMBER_0_FILL">
<path fill="#539300" stroke="none" d="
M 208.15 43.25
L 208.1 43.2 144.9 106.4 145 106.5
Q 149.15 110.65 155.6 109.85 162.05 109.1 166.85 103.9
L 206.9 60.25
Q 210.6 56.3 211 51.35 211.35 46.45 208.15 43.25 Z"/>
</g>

<g id="Layer0_0_MEMBER_0_MEMBER_3_MEMBER_0_MEMBER_0_MEMBER_0_FILL">
<path fill="#62A502" stroke="none" d="
M 205.45 52.05
Q 209.35 45.55 208.1 43.2
L 144.9 106.4
Q 146.4 107.9 151.95 105.25 157.2 102.75 159.7 99.9
L 199.05 60.4
Q 202.2 57.45 205.45 52.05 Z"/>
</g>

<g id="Layer0_0_MEMBER_0_MEMBER_3_MEMBER_0_MEMBER_1_MEMBER_0_FILL">
<path fill="#62A502" stroke="none" d="
M 208.25 43.35
Q 208.41015625 43.6306640625 208.55 44.05
L 208.7 43.95 208.25 43.35 Z"/>
</g>

<g id="Layer0_0_MEMBER_0_MEMBER_3_MEMBER_1_MEMBER_0_MEMBER_0_FILL">
<path fill="#D0FF85" stroke="none" d="
M 208.2 43.25
L 208.15 43.3 209.1 44.8 209.85 46.4
Q 210.2 47.05 210.55 48.35 210.95 50.2 210.75 52.25
L 210.45 54 210.5 54.05
Q 210.75 53.35 210.95 52.3 211.4 50.3 211.05 48.25 210.9 47.2 210.5 46.15
L 210.05 45.25 209.5 44.5
Q 209.05 43.9 208.6 43.55
L 208.2 43.25 Z"/>
</g>

<g id="Layer0_0_MEMBER_0_MEMBER_3_MEMBER_1_MEMBER_1_MEMBER_0_FILL">
<path fill="#D0FF85" stroke="none" d="
M 156.3 109.8
L 156.25 109.7
Q 155.5 109.85 154.4 109.85 151.8 109.75 150.3 109.25
L 149.25 108.85
Q 148.5 108.5 148.3 108.4
L 146.6 107.5
Q 145.75 106.9 145.45 106.75
L 145 106.45 144.95 106.5 145.3 106.95
Q 145.85 107.6 146.3 107.9
L 147.05 108.5 148 109
Q 148.35 109.2 149.05 109.4 149.75 109.7 150.15 109.75 152.05 110.25 154.4 110.05
L 156.3 109.8 Z"/>
</g>

<g id="Layer0_0_MEMBER_0_MEMBER_3_MEMBER_2_MEMBER_0_MEMBER_0_FILL">
<path fill="#D0FF85" stroke="none" d="
M 155.6 103.5
L 155.55 103.4
Q 153.05 104.85 150.35 105.8
L 148.35 106.4
Q 147.5 106.65 146.6 106.75 145.8 106.85 145.4 106.6
L 144.95 106.4 144.9 106.45 145.3 106.85
Q 145.7 107.15 146.6 107.25 147.55 107.35 148.5 107.05 149.1 106.9 150.55 106.3 153.2 105.15 155.6 103.5 Z"/>
</g>

<g id="Layer0_0_MEMBER_0_MEMBER_3_MEMBER_2_MEMBER_1_MEMBER_0_FILL">
<path fill="#D0FF85" stroke="none" d="
M 208.15 43.2
L 208.1 43.25 208.3 43.7
Q 208.4 44.4 208.25 45 208.1 45.95 207.75 46.8
L 206.95 48.9
Q 205.75 51.65 204.15 54.25
L 204.2 54.3
Q 206.05 51.85 207.45 49.1
L 208.4 47.05
Q 208.8 45.95 208.8 45.05 208.8 44.15 208.5 43.6
L 208.15 43.2 Z"/>
</g>

<g id="Layer0_0_MEMBER_0_MEMBER_3_MEMBER_3_MEMBER_0_MEMBER_0_FILL">
<path fill="#D0FF85" stroke="none" d="
M 153.05 98.25
L 153 98.2 147.2 103.55 144.85 106.35 144.9 106.4 147.7 104.05 153.05 98.25 Z"/>
</g>

<g id="Layer0_0_MEMBER_0_MEMBER_3_MEMBER_3_MEMBER_1_MEMBER_0_FILL">
<path fill="#D0FF85" stroke="none" d="
M 205.6 46.15
L 207.8 43.65 208.1 43.2 208.05 43.15 205.1 45.65 199.45 51.8 199.45 51.85 205.6 46.15 Z"/>
</g>

<g id="Layer0_0_MEMBER_1_MEMBER_0_MEMBER_0_FILL">
<path fill="#79BA2D" stroke="none" d="
M 168.9 87
Q 168.55 86.65 168.1 86.65 167.65 86.65 167.3 87
L 166.75 87.55
Q 166.45 87.9 166.45 88.35 166.45 88.8 166.75 89.15
L 166.8 89.15
Q 167.1 89.5 167.6 89.5 168.05 89.5 168.35 89.15
L 168.9 88.6
Q 169.25 88.25 169.25 87.8 169.25 87.35 168.9 87 Z"/>
</g>

<g id="Layer0_0_MEMBER_1_MEMBER_1_MEMBER_0_MEMBER_0_FILL">
<path fill="#4A7C03" stroke="none" d="
M 169 87.35
Q 169.1 87.75 168.9 88.15
L 168.55 88.55 168.05 88.95
Q 167.85 89.15 167.5 89.3
L 167.15 89.3 166.8 89.15 167.1 89.45 167.5 89.65
Q 168.15 89.75 168.4 89.5
L 169 89 169.4 88.35
Q 169.55 87.6 169.2 87.25
L 168.9 87 169 87.35 Z"/>
</g>

<g id="Layer0_0_MEMBER_2_MEMBER_0_MEMBER_0_FILL">
<path fill="#79BA2D" stroke="none" d="
M 167.05 98.05
Q 166.75 97.75 166.3 97.75 165.8 97.75 165.5 98.05
L 164.95 98.6
Q 164.6 98.95 164.6 99.4 164.6 99.85 164.95 100.2 165.3 100.55 165.75 100.55 166.2 100.55 166.55 100.2
L 167.1 99.65
Q 167.4 99.35 167.4 98.9 167.4 98.4 167.1 98.1
L 167.05 98.05 Z"/>
</g>

<g id="Layer0_0_MEMBER_2_MEMBER_1_MEMBER_0_MEMBER_0_FILL">
<path fill="#4A7C03" stroke="none" d="
M 167.4 98.3
L 167.1 98.05 167.05 98.1 167.2 98.4
Q 167.3 98.9 167.1 99.2
L 166.7 99.6
Q 166.3 100.05 166.2 100.05
L 165.7 100.35 165.3 100.4 164.95 100.2 165.25 100.5 165.65 100.7
Q 166.25 100.9 166.6 100.6 166.9 100.4 167.15 100.05 167.3 99.9 167.55 99.4 167.75 98.75 167.4 98.3 Z"/>
</g>

<g id="Layer0_0_MEMBER_3_MEMBER_0_MEMBER_0_FILL">
<path fill="#79BA2D" stroke="none" d="
M 176.15 89.1
Q 175.8 88.75 175.35 88.75 174.9 88.75 174.55 89.1
L 174 89.65
Q 173.65 90 173.65 90.45 173.65 90.9 174 91.25 174.35 91.6 174.8 91.6 175.25 91.6 175.6 91.25
L 176.15 90.7
Q 176.5 90.35 176.5 89.9 176.5 89.45 176.15 89.1 Z"/>
</g>

<g id="Layer0_0_MEMBER_3_MEMBER_1_MEMBER_0_MEMBER_0_FILL">
<path fill="#4A7C03" stroke="none" d="
M 176.45 89.35
L 176.15 89.1 176.1 89.15 176.25 89.45
Q 176.35 89.9 176.15 90.25 176 90.5 175.8 90.65 175.4 91.05 175.25 91.1
L 174.75 91.4 174.4 91.4
Q 174.25 91.4 174 91.25
L 174.35 91.55 174.75 91.75
Q 175.25 91.95 175.65 91.65
L 176.2 91.1 176.65 90.45
Q 176.8 89.8 176.45 89.35 Z"/>
</g>

<g id="Layer0_0_MEMBER_4_MEMBER_0_MEMBER_0_FILL">
<path fill="#79BA2D" stroke="none" d="
M 179 78.55
Q 178.65 78.2 178.2 78.2 177.75 78.2 177.4 78.55
L 176.85 79.1
Q 176.5 79.4 176.5 79.9 176.5 80.35 176.85 80.65
L 176.9 80.7
Q 177.2 81 177.7 81 178.15 81 178.45 80.7
L 179 80.15
Q 179.35 79.8 179.35 79.35 179.35 78.9 179 78.55 Z"/>
</g>

<g id="Layer0_0_MEMBER_4_MEMBER_1_MEMBER_0_MEMBER_0_FILL">
<path fill="#4A7C03" stroke="none" d="
M 178.7 78.35
L 178.95 78.55 179.1 78.9
Q 179.2 79.3 179 79.7
L 178.65 80.05
Q 178.25 80.45 178.1 80.5 177.95 80.75 177.6 80.8
L 177.25 80.85 176.9 80.7 177.2 80.95 177.6 81.15
Q 178.15 81.35 178.5 81.05 178.65 80.95 179.1 80.5
L 179.5 79.9
Q 179.65 79.15 179.3 78.8
L 179 78.5 178.7 78.3
Q 178.4005859375 78.1501953125 178 78.2 178.371875 78.167578125 178.7 78.35 Z"/>
</g>

<g id="Layer0_0_MEMBER_5_MEMBER_0_MEMBER_0_FILL">
<path fill="#79BA2D" stroke="none" d="
M 185.5 78.55
Q 185.15 78.2 184.7 78.2 184.25 78.2 183.9 78.55
L 183.35 79.1
Q 183 79.4 183 79.9 183 80.35 183.35 80.65
L 183.35 80.7
Q 183.7 81 184.15 81 184.6 81 184.95 80.7
L 185.5 80.15
Q 185.85 79.8 185.85 79.35 185.85 78.9 185.5 78.55 Z"/>
</g>

<g id="Layer0_0_MEMBER_5_MEMBER_1_MEMBER_0_MEMBER_0_FILL">
<path fill="#4A7C03" stroke="none" d="
M 185.95 79.9
Q 186.15 79.25 185.8 78.8
L 185.5 78.5 185.2 78.3
Q 184.8228515625 78.14921875 184.45 78.2 184.8125 78.1625 185.15 78.35
L 185.45 78.55 185.6 78.9
Q 185.7 79.3 185.5 79.7
L 185.1 80.05
Q 184.7 80.5 184.6 80.5 184.45 80.7 184.1 80.8
L 183.7 80.85 183.35 80.7 183.65 80.95 184.05 81.15
Q 184.65 81.35 185 81.05 185.3 80.85 185.55 80.5
L 185.95 79.9 Z"/>
</g>

<g id="Layer0_0_MEMBER_6_MEMBER_0_MEMBER_0_FILL">
<path fill="#79BA2D" stroke="none" d="
M 195.55 70.9
Q 195.9 70.55 195.9 70.1 195.9 69.65 195.55 69.35
L 195.55 69.3
Q 195.2 69 194.75 69 194.3 69 193.95 69.3
L 193.4 69.85
Q 193.1 70.2 193.1 70.65 193.1 71.1 193.4 71.45
L 193.45 71.45
Q 193.75 71.8 194.2 71.8 194.65 71.8 195 71.45
L 195.55 70.9 Z"/>
</g>

<g id="Layer0_0_MEMBER_6_MEMBER_1_MEMBER_0_MEMBER_0_FILL">
<path fill="#4A7C03" stroke="none" d="
M 195.5 69.35
L 195.65 69.7
Q 195.75 70.1 195.55 70.45
L 195.15 70.85
Q 194.8 71.2 194.65 71.25 194.5 71.45 194.15 71.6
L 193.8 71.6 193.45 71.45 193.75 71.7 194.15 71.95
Q 194.7 72.05 195.05 71.8 195.2 71.7 195.6 71.3
L 196 70.65
Q 196.2 70 195.85 69.55
L 195.25 69.1
Q 195.1072265625 69.04296875 194.95 69 195.0935546875 69.0587890625 195.2 69.15
L 195.5 69.35 Z"/>
</g>

<g id="Layer0_0_MEMBER_7_MEMBER_0_MEMBER_0_FILL">
<path fill="#79BA2D" stroke="none" d="
M 158.15 87.7
Q 157.8 87.35 157.35 87.35 156.9 87.35 156.55 87.7
L 156.05 88.25
Q 155.7 88.6 155.7 89.05 155.7 89.5 156.05 89.85 156.4 90.2 156.85 90.2 157.3 90.2 157.65 89.85
L 158.2 89.3
Q 158.5 88.95 158.5 88.5 158.5 88.05 158.2 87.7
L 158.15 87.7 Z"/>
</g>

<g id="Layer0_0_MEMBER_7_MEMBER_1_MEMBER_0_MEMBER_0_FILL">
<path fill="#4A7C03" stroke="none" d="
M 157.85 87.5
L 158.15 87.75 158.25 88.05
Q 158.4 88.35 158.15 88.85 158 89.1 157.8 89.25
L 157.3 89.7 156.75 90 156.4 90 156.05 89.85 156.35 90.15 156.75 90.35
Q 157.3 90.55 157.7 90.2 158 90.05 158.25 89.7
L 158.65 89.05
Q 158.8 88.3 158.45 87.95
L 158.2 87.7 157.85 87.5 Z"/>
</g>

<g id="Layer0_0_MEMBER_8_MEMBER_0_MEMBER_0_FILL">
<path fill="#79BA2D" stroke="none" d="
M 159.6 76.6
L 159.55 76.6
Q 159.25 76.25 158.8 76.25 158.3 76.25 158 76.6
L 157.45 77.15
Q 157.1 77.5 157.1 77.95 157.1 78.4 157.45 78.75 157.8 79.1 158.25 79.1 158.7 79.1 159.05 78.75
L 159.6 78.2
Q 159.9 77.85 159.9 77.4 159.9 76.95 159.6 76.6 Z"/>
</g>

<g id="Layer0_0_MEMBER_8_MEMBER_1_MEMBER_0_MEMBER_0_FILL">
<path fill="#4A7C03" stroke="none" d="
M 159.85 76.85
L 159.6 76.6 159.55 76.65 159.65 76.95
Q 159.8 77.2 159.6 77.75
L 158.7 78.6 158.2 78.9 157.8 78.9 157.45 78.75 157.75 79.05 158.15 79.25
Q 158.75 79.45 159.1 79.1 159.4 78.95 159.65 78.6 159.8 78.45 160.05 77.95 160.2 77.2 159.85 76.85 Z"/>
</g>

<g id="Layer0_0_MEMBER_9_MEMBER_0_MEMBER_0_FILL">
<path fill="#79BA2D" stroke="none" d="
M 150.35 85.6
Q 150 85.25 149.55 85.25 149.1 85.25 148.75 85.6
L 148.2 86.15
Q 147.85 86.5 147.85 86.95 147.85 87.4 148.2 87.75 148.55 88.1 149 88.1 149.45 88.1 149.8 87.75
L 150.35 87.2
Q 150.7 86.85 150.7 86.4 150.7 85.95 150.35 85.6 Z"/>
</g>

<g id="Layer0_0_MEMBER_9_MEMBER_1_MEMBER_0_MEMBER_0_FILL">
<path fill="#4A7C03" stroke="none" d="
M 150.3 85.6
L 150.45 85.95
Q 150.55 86.35 150.35 86.75
L 150 87.15 149.45 87.55
Q 149.3 87.75 148.95 87.9
L 148.6 87.9 148.2 87.75
Q 148.3 87.8 148.55 88.05
L 148.95 88.25
Q 149.5 88.35 149.85 88.1 150.15 87.9 150.4 87.55 150.65 87.4 150.85 86.95 151 86.3 150.65 85.85
L 150.35 85.55 150.05 85.4
Q 149.983203125 85.3732421875 149.9 85.35 149.959375 85.374609375 150 85.4
L 150.3 85.6 Z"/>
</g>

<g id="Layer0_0_MEMBER_10_MEMBER_0_MEMBER_0_FILL">
<path fill="#79BA2D" stroke="none" d="
M 180.9 57.7
Q 180.55 57.35 180.1 57.35 179.65 57.35 179.35 57.7
L 178.8 58.25
Q 178.45 58.6 178.45 59.05 178.45 59.5 178.8 59.85 179.15 60.2 179.6 60.2 180.05 60.2 180.4 59.85
L 180.95 59.3
Q 181.25 58.95 181.25 58.5 181.25 58.05 180.95 57.7
L 180.9 57.7 Z"/>
</g>

<g id="Layer0_0_MEMBER_10_MEMBER_1_MEMBER_0_MEMBER_0_FILL">
<path fill="#4A7C03" stroke="none" d="
M 180.9 57.7
L 181 58.05
Q 181.15 58.3 180.95 58.85
L 180.55 59.25
Q 180.2 59.6 180.05 59.65 179.85 59.85 179.5 60
L 179.15 60 178.8 59.85 179.1 60.1 179.5 60.35
Q 180.1 60.45 180.45 60.2
L 181 59.65
Q 181.15 59.55 181.4 59.05 181.55 58.3 181.2 57.95
L 180.95 57.65 180.6 57.45
Q 180.4724609375 57.3953125 180.3 57.35 180.458203125 57.4212890625 180.6 57.5
L 180.9 57.7 Z"/>
</g>

<g id="Layer0_0_MEMBER_11_MEMBER_0_MEMBER_0_FILL">
<path fill="#79BA2D" stroke="none" d="
M 176.85 70.4
L 176.9 70.4
Q 177.2 70.75 177.7 70.75 178.15 70.75 178.45 70.4
L 179 69.85
Q 179.35 69.5 179.35 69.05 179.35 68.6 179 68.25 178.65 67.9 178.2 67.9 177.75 67.9 177.4 68.25
L 176.85 68.8
Q 176.5 69.15 176.5 69.6 176.5 70.05 176.85 70.4 Z"/>
</g>

<g id="Layer0_0_MEMBER_11_MEMBER_1_MEMBER_0_MEMBER_0_FILL">
<path fill="#4A7C03" stroke="none" d="
M 179.5 69.6
Q 179.65 68.85 179.3 68.5
L 179 68.25 178.95 68.3 179.1 68.6
Q 179.2 69 179 69.4 178.85 69.65 178.65 69.8 178.25 70.2 178.1 70.25
L 177.6 70.55 177.25 70.55
Q 177.05625 70.55 176.9 70.4
L 177.2 70.7 177.6 70.9
Q 178.15 71.1 178.5 70.75 178.8 70.6 179.1 70.25
L 179.5 69.6 Z"/>
</g>

<g id="Layer0_0_MEMBER_12_MEMBER_0_MEMBER_0_FILL">
<path fill="#79BA2D" stroke="none" d="
M 168.9 76.6
Q 168.55 76.25 168.1 76.25 167.65 76.25 167.3 76.6
L 166.75 77.15
Q 166.45 77.5 166.45 77.95 166.45 78.4 166.75 78.75
L 166.8 78.75
Q 167.1 79.1 167.6 79.1 168.05 79.1 168.35 78.75
L 168.9 78.2
Q 169.25 77.85 169.25 77.4 169.25 76.95 168.9 76.6 Z"/>
</g>

<g id="Layer0_0_MEMBER_12_MEMBER_1_MEMBER_0_MEMBER_0_FILL">
<path fill="#4A7C03" stroke="none" d="
M 169.2 76.85
L 168.9 76.6 168.9 76.65 169 76.95
Q 169.1 77.35 168.9 77.75 168.75 78 168.55 78.15 168.45 78.2 168.05 78.6
L 167.5 78.9 167.15 78.9 166.8 78.75 167.1 79.05 167.5 79.25
Q 168.05 79.45 168.4 79.1 168.7 78.95 169 78.6
L 169.4 77.95
Q 169.55 77.2 169.2 76.85 Z"/>
</g>

<g id="Layer0_0_MEMBER_13_MEMBER_0_MEMBER_0_FILL">
<path fill="#79BA2D" stroke="none" d="
M 170.9 67.4
Q 170.55 67.05 170.1 67.05 169.65 67.05 169.3 67.4
L 168.75 67.95
Q 168.4 68.3 168.4 68.75 168.4 69.2 168.75 69.5
L 168.75 69.55
Q 169.1 69.9 169.55 69.9 170 69.9 170.35 69.55
L 170.9 69
Q 171.25 68.65 171.25 68.2 171.25 67.75 170.9 67.4 Z"/>
</g>

<g id="Layer0_0_MEMBER_13_MEMBER_1_MEMBER_0_MEMBER_0_FILL">
<path fill="#4A7C03" stroke="none" d="
M 170.85 67.4
L 171 67.75
Q 171.1 68.15 170.9 68.55
L 170.55 68.95 170 69.35
Q 169.85 69.55 169.5 69.7
L 169.15 69.7 168.75 69.55
Q 168.9169921875 69.6169921875 169.1 69.8
L 169.5 70.05
Q 170.05 70.15 170.4 69.9 170.7 69.7 170.95 69.35 171.2 69.2 171.4 68.75 171.55 68.1 171.2 67.65
L 170.9 67.35 170.85 67.4 Z"/>
</g>

<g id="Layer0_0_MEMBER_14_MEMBER_0_MEMBER_0_FILL">
<path fill="#79BA2D" stroke="none" d="
M 187 70.75
Q 186.55 70.75 186.2 71.05
L 185.65 71.6
Q 185.35 71.95 185.35 72.4 185.35 72.85 185.65 73.2
L 185.7 73.2
Q 186.05 73.55 186.5 73.55 186.95 73.55 187.25 73.2
L 187.8 72.65
Q 188.15 72.35 188.15 71.9 188.15 71.4 187.8 71.1
L 187.8 71.05
Q 187.45 70.75 187 70.75 Z"/>
</g>

<g id="Layer0_0_MEMBER_14_MEMBER_1_MEMBER_0_MEMBER_0_FILL">
<path fill="#4A7C03" stroke="none" d="
M 186.95 73.05
L 186.4 73.35 186.05 73.4 185.7 73.2 186 73.5 186.4 73.7
Q 186.95 73.9 187.35 73.6 187.65 73.4 187.9 73.05
L 188.3 72.4
Q 188.45 71.65 188.1 71.3
L 187.85 71.05 187.5 70.85 187.8 71.1 187.9 71.4
Q 188.05 71.8 187.8 72.2 187.6 72.5 187.45 72.6 187.05 73.05 186.95 73.05 Z"/>
</g>

<g id="Layer0_0_MEMBER_15_MEMBER_0_MEMBER_0_FILL">
<path fill="#79BA2D" stroke="none" d="
M 186.75 58.4
Q 186.75 58.85 187.1 59.2 187.45 59.55 187.9 59.55 188.35 59.55 188.7 59.2
L 189.25 58.65
Q 189.55 58.35 189.55 57.9 189.55 57.4 189.25 57.1
L 189.2 57.05
Q 188.85 56.7 188.4 56.7 187.95 56.7 187.65 57.05
L 187.1 57.6
Q 186.75 57.95 186.75 58.4 Z"/>
</g>

<g id="Layer0_0_MEMBER_15_MEMBER_1_MEMBER_0_MEMBER_0_FILL">
<path fill="#4A7C03" stroke="none" d="
M 189.2 57.1
L 189.3 57.4
Q 189.45 57.7 189.25 58.2
L 188.85 58.6
Q 188.45 59.05 188.35 59.05
L 187.85 59.35 187.45 59.4 187.1 59.2 187.4 59.5 187.8 59.7
Q 188.35 59.9 188.75 59.6 189.05 59.4 189.3 59.05
L 189.7 58.4
Q 189.85 57.65 189.5 57.3
L 189.25 57.05 188.9 56.85 189.2 57.1 Z"/>
</g>

<g id="Layer0_0_MEMBER_16_MEMBER_0_MEMBER_0_FILL">
<path fill="#79BA2D" stroke="none" d="
M 196.7 58.3
Q 196.45 58.05 196.1 58.05 195.75 58.05 195.5 58.3
L 195.05 58.7
Q 194.55 59.3 195.05 59.9
L 195.1 59.9
Q 195.35 60.15 195.7 60.15 196.05 60.15 196.3 59.9
L 196.7 59.5
Q 197.3 58.9 196.7 58.3 Z"/>
</g>

<g id="Layer0_0_MEMBER_16_MEMBER_1_MEMBER_0_MEMBER_0_FILL">
<path fill="#4A7C03" stroke="none" d="
M 196.65 58.3
L 196.75 58.55
Q 196.85 58.8 196.65 59.15
L 195.65 60 195.35 60.05 195.1 59.9 195.3 60.15 195.6 60.35
Q 196.15 60.45 196.4 60.25
L 196.8 59.85 197.1 59.35
Q 197.25 58.75 196.95 58.45
L 196.7 58.25
Q 196.449609375 57.9638671875 196.05 58 196.4673828125 58.0078125 196.65 58.3 Z"/>
</g>

<g id="Layer0_0_MEMBER_17_MEMBER_0_MEMBER_0_FILL">
<path fill="#79BA2D" stroke="none" d="
M 159.55 97.2
Q 159.25 96.85 158.8 96.85 158.3 96.85 158 97.2
L 157.45 97.75
Q 157.1 98.1 157.1 98.55 157.1 99 157.45 99.35 157.8 99.7 158.25 99.7 158.7 99.7 159.05 99.35
L 159.6 98.8
Q 159.9 98.5 159.9 98.05 159.9 97.55 159.6 97.25
L 159.55 97.2 Z"/>
</g>

<g id="Layer0_0_MEMBER_17_MEMBER_1_MEMBER_0_MEMBER_0_FILL">
<path fill="#4A7C03" stroke="none" d="
M 160.05 98.55
Q 160.2 97.8 159.85 97.45
L 159.6 97.2 159.55 97.25 159.65 97.55
Q 159.8 97.85 159.6 98.35
L 159.2 98.75
Q 158.8 99.2 158.7 99.2
L 158.2 99.5 157.8 99.55 157.45 99.35 157.75 99.65 158.15 99.85
Q 158.75 100.05 159.1 99.75 159.4 99.55 159.65 99.2 159.8 99.05 160.05 98.55 Z"/>
</g>
</defs>

<g transform="matrix( 10, 0, 0, 10, -1249.95,-238.8) ">
<use xlink:href="#Layer0_0_MEMBER_0_MEMBER_0_MEMBER_0_FILL"/>
</g>

<g transform="matrix( 10, 0, 0, 10, -1249.95,-238.8) ">
<use xlink:href="#Layer0_0_MEMBER_0_MEMBER_1_MEMBER_0_MEMBER_0_MEMBER_0_FILL"/>
</g>

<g transform="matrix( 10, 0, 0, 10, -1249.95,-238.8) ">
<use xlink:href="#Layer0_0_MEMBER_0_MEMBER_1_MEMBER_0_MEMBER_1_MEMBER_0_MEMBER_0_FILL"/>
</g>

<g transform="matrix( 10, 0, 0, 10, -1249.95,-238.8) ">
<use xlink:href="#Layer0_0_MEMBER_0_MEMBER_1_MEMBER_0_MEMBER_1_MEMBER_1_MEMBER_0_FILL"/>
</g>

<g transform="matrix( 10, 0, 0, 10, -1249.95,-238.8) ">
<use xlink:href="#Layer0_0_MEMBER_0_MEMBER_1_MEMBER_1_MEMBER_0_MEMBER_0_FILL"/>
</g>

<g transform="matrix( 10, 0, 0, 10, -1249.95,-238.8) ">
<use xlink:href="#Layer0_0_MEMBER_0_MEMBER_1_MEMBER_1_MEMBER_1_MEMBER_0_MEMBER_0_FILL"/>
</g>

<g transform="matrix( 10, 0, 0, 10, -1249.95,-238.8) ">
<use xlink:href="#Layer0_0_MEMBER_0_MEMBER_1_MEMBER_1_MEMBER_1_MEMBER_1_MEMBER_0_FILL"/>
</g>

<g transform="matrix( 10, 0, 0, 10, -1249.95,-238.8) ">
<use xlink:href="#Layer0_0_MEMBER_0_MEMBER_1_MEMBER_2_MEMBER_1_MEMBER_0_MEMBER_0_FILL"/>
</g>

<g transform="matrix( 10, 0, 0, 10, -1249.95,-238.8) ">
<use xlink:href="#Layer0_0_MEMBER_0_MEMBER_1_MEMBER_2_MEMBER_1_MEMBER_1_MEMBER_0_FILL"/>
</g>

<g transform="matrix( 10, 0, 0, 10, -1249.95,-238.8) ">
<use xlink:href="#Layer0_0_MEMBER_0_MEMBER_2_MEMBER_0_MEMBER_0_FILL"/>
</g>

<g transform="matrix( 10, 0, 0, 10, -1249.95,-238.8) ">
<use xlink:href="#Layer0_0_MEMBER_0_MEMBER_3_MEMBER_0_MEMBER_0_MEMBER_0_FILL"/>
</g>

<g transform="matrix( 10, 0, 0, 10, -1249.95,-238.8) ">
<use xlink:href="#Layer0_0_MEMBER_0_MEMBER_3_MEMBER_0_MEMBER_1_MEMBER_0_FILL"/>
</g>

<g transform="matrix( 10, 0, 0, 10, -1249.95,-238.8) ">
<use xlink:href="#Layer0_0_MEMBER_0_MEMBER_3_MEMBER_1_MEMBER_0_MEMBER_0_FILL"/>
</g>

<g transform="matrix( 10, 0, 0, 10, -1249.95,-238.8) ">
<use xlink:href="#Layer0_0_MEMBER_0_MEMBER_3_MEMBER_1_MEMBER_1_MEMBER_0_FILL"/>
</g>

<g transform="matrix( 10, 0, 0, 10, -1249.95,-238.8) ">
<use xlink:href="#Layer0_0_MEMBER_0_MEMBER_3_MEMBER_2_MEMBER_0_MEMBER_0_FILL"/>
</g>

<g transform="matrix( 10, 0, 0, 10, -1249.95,-238.8) ">
<use xlink:href="#Layer0_0_MEMBER_0_MEMBER_3_MEMBER_2_MEMBER_1_MEMBER_0_FILL"/>
</g>

<g transform="matrix( 10, 0, 0, 10, -1249.95,-238.8) ">
<use xlink:href="#Layer0_0_MEMBER_0_MEMBER_3_MEMBER_3_MEMBER_0_MEMBER_0_FILL"/>
</g>

<g transform="matrix( 10, 0, 0, 10, -1249.95,-238.8) ">
<use xlink:href="#Layer0_0_MEMBER_0_MEMBER_3_MEMBER_3_MEMBER_1_MEMBER_0_FILL"/>
</g>

<g transform="matrix( 10, 0, 0, 10, -1249.95,-238.8) ">
<use xlink:href="#Layer0_0_MEMBER_1_MEMBER_0_MEMBER_0_FILL"/>
</g>

<g transform="matrix( 10, 0, 0, 10, -1249.95,-238.8) ">
<use xlink:href="#Layer0_0_MEMBER_1_MEMBER_1_MEMBER_0_MEMBER_0_FILL"/>
</g>

<g transform="matrix( 10, 0, 0, 10, -1249.95,-238.8) ">
<use xlink:href="#Layer0_0_MEMBER_2_MEMBER_0_MEMBER_0_FILL"/>
</g>

<g transform="matrix( 10, 0, 0, 10, -1249.95,-238.8) ">
<use xlink:href="#Layer0_0_MEMBER_2_MEMBER_1_MEMBER_0_MEMBER_0_FILL"/>
</g>

<g transform="matrix( 10, 0, 0, 10, -1249.95,-238.8) ">
<use xlink:href="#Layer0_0_MEMBER_3_MEMBER_0_MEMBER_0_FILL"/>
</g>

<g transform="matrix( 10, 0, 0, 10, -1249.95,-238.8) ">
<use xlink:href="#Layer0_0_MEMBER_3_MEMBER_1_MEMBER_0_MEMBER_0_FILL"/>
</g>

<g transform="matrix( 10, 0, 0, 10, -1249.95,-238.8) ">
<use xlink:href="#Layer0_0_MEMBER_4_MEMBER_0_MEMBER_0_FILL"/>
</g>

<g transform="matrix( 10, 0, 0, 10, -1249.95,-238.8) ">
<use xlink:href="#Layer0_0_MEMBER_4_MEMBER_1_MEMBER_0_MEMBER_0_FILL"/>
</g>

<g transform="matrix( 10, 0, 0, 10, -1249.95,-238.8) ">
<use xlink:href="#Layer0_0_MEMBER_5_MEMBER_0_MEMBER_0_FILL"/>
</g>

<g transform="matrix( 10, 0, 0, 10, -1249.95,-238.8) ">
<use xlink:href="#Layer0_0_MEMBER_5_MEMBER_1_MEMBER_0_MEMBER_0_FILL"/>
</g>

<g transform="matrix( 10, 0, 0, 10, -1249.95,-238.8) ">
<use xlink:href="#Layer0_0_MEMBER_6_MEMBER_0_MEMBER_0_FILL"/>
</g>

<g transform="matrix( 10, 0, 0, 10, -1249.95,-238.8) ">
<use xlink:href="#Layer0_0_MEMBER_6_MEMBER_1_MEMBER_0_MEMBER_0_FILL"/>
</g>

<g transform="matrix( 10, 0, 0, 10, -1249.95,-238.8) ">
<use xlink:href="#Layer0_0_MEMBER_7_MEMBER_0_MEMBER_0_FILL"/>
</g>

<g transform="matrix( 10, 0, 0, 10, -1249.95,-238.8) ">
<use xlink:href="#Layer0_0_MEMBER_7_MEMBER_1_MEMBER_0_MEMBER_0_FILL"/>
</g>

<g transform="matrix( 10, 0, 0, 10, -1249.95,-238.8) ">
<use xlink:href="#Layer0_0_MEMBER_8_MEMBER_0_MEMBER_0_FILL"/>
</g>

<g transform="matrix( 10, 0, 0, 10, -1249.95,-238.8) ">
<use xlink:href="#Layer0_0_MEMBER_8_MEMBER_1_MEMBER_0_MEMBER_0_FILL"/>
</g>

<g transform="matrix( 10, 0, 0, 10, -1249.95,-238.8) ">
<use xlink:href="#Layer0_0_MEMBER_9_MEMBER_0_MEMBER_0_FILL"/>
</g>

<g transform="matrix( 10, 0, 0, 10, -1249.95,-238.8) ">
<use xlink:href="#Layer0_0_MEMBER_9_MEMBER_1_MEMBER_0_MEMBER_0_FILL"/>
</g>

<g transform="matrix( 10, 0, 0, 10, -1249.95,-238.8) ">
<use xlink:href="#Layer0_0_MEMBER_10_MEMBER_0_MEMBER_0_FILL"/>
</g>

<g transform="matrix( 10, 0, 0, 10, -1249.95,-238.8) ">
<use xlink:href="#Layer0_0_MEMBER_10_MEMBER_1_MEMBER_0_MEMBER_0_FILL"/>
</g>

<g transform="matrix( 10, 0, 0, 10, -1249.95,-238.8) ">
<use xlink:href="#Layer0_0_MEMBER_11_MEMBER_0_MEMBER_0_FILL"/>
</g>

<g transform="matrix( 10, 0, 0, 10, -1249.95,-238.8) ">
<use xlink:href="#Layer0_0_MEMBER_11_MEMBER_1_MEMBER_0_MEMBER_0_FILL"/>
</g>

<g transform="matrix( 10, 0, 0, 10, -1249.95,-238.8) ">
<use xlink:href="#Layer0_0_MEMBER_12_MEMBER_0_MEMBER_0_FILL"/>
</g>

<g transform="matrix( 10, 0, 0, 10, -1249.95,-238.8) ">
<use xlink:href="#Layer0_0_MEMBER_12_MEMBER_1_MEMBER_0_MEMBER_0_FILL"/>
</g>

<g transform="matrix( 10, 0, 0, 10, -1249.95,-238.8) ">
<use xlink:href="#Layer0_0_MEMBER_13_MEMBER_0_MEMBER_0_FILL"/>
</g>

<g transform="matrix( 10, 0, 0, 10, -1249.95,-238.8) ">
<use xlink:href="#Layer0_0_MEMBER_13_MEMBER_1_MEMBER_0_MEMBER_0_FILL"/>
</g>

<g transform="matrix( 10, 0, 0, 10, -1249.95,-238.8) ">
<use xlink:href="#Layer0_0_MEMBER_14_MEMBER_0_MEMBER_0_FILL"/>
</g>

<g transform="matrix( 10, 0, 0, 10, -1249.95,-238.8) ">
<use xlink:href="#Layer0_0_MEMBER_14_MEMBER_1_MEMBER_0_MEMBER_0_FILL"/>
</g>

<g transform="matrix( 10, 0, 0, 10, -1249.95,-238.8) ">
<use xlink:href="#Layer0_0_MEMBER_15_MEMBER_0_MEMBER_0_FILL"/>
</g>

<g transform="matrix( 10, 0, 0, 10, -1249.95,-238.8) ">
<use xlink:href="#Layer0_0_MEMBER_15_MEMBER_1_MEMBER_0_MEMBER_0_FILL"/>
</g>

<g transform="matrix( 10, 0, 0, 10, -1249.95,-238.8) ">
<use xlink:href="#Layer0_0_MEMBER_16_MEMBER_0_MEMBER_0_FILL"/>
</g>

<g transform="matrix( 10, 0, 0, 10, -1249.95,-238.8) ">
<use xlink:href="#Layer0_0_MEMBER_16_MEMBER_1_MEMBER_0_MEMBER_0_FILL"/>
</g>

<g transform="matrix( 10, 0, 0, 10, -1249.95,-238.8) ">
<use xlink:href="#Layer0_0_MEMBER_17_MEMBER_0_MEMBER_0_FILL"/>
</g>

<g transform="matrix( 10, 0, 0, 10, -1249.95,-238.8) ">
<use xlink:href="#Layer0_0_MEMBER_17_MEMBER_1_MEMBER_0_MEMBER_0_FILL"/>
</g>
</svg>
