<svg xmlns="http://www.w3.org/2000/svg" xmlns:xlink="http://www.w3.org/1999/xlink" viewBox="0 0 481.53 441.03"><defs><style>.cls-1,.cls-4{fill:#9fa0a0;}.cls-1,.cls-11,.cls-15,.cls-3,.cls-6{stroke:#231815;stroke-miterlimit:10;stroke-width:5px;}.cls-2{fill:#f5a22f;}.cls-12,.cls-3{fill:#ea5514;}.cls-5{clip-path:url(#clip-path);}.cls-6{fill:none;}.cls-7{fill:#231815;}.cls-8{clip-path:url(#clip-path-2);}.cls-9{fill:#c5771e;}.cls-10{fill:#dae000;}.cls-11{fill:#f39800;}.cls-13{clip-path:url(#clip-path-3);}.cls-14{fill:#c63f1d;}.cls-15{fill:#faee00;}</style><clipPath id="clip-path"><rect class="cls-1" x="96.06" y="149.73" width="395.51" height="27.2" transform="translate(-36.84 223.88) rotate(-39.45)"/></clipPath><clipPath id="clip-path-2"><path class="cls-2" d="M251.9,276.58c-17.92,3.9-44.93-9.52-61.22-35.12-17.26-27.14-7.15-73.32-1.35-82.29,3.1-4.79,4.2-8.17,6.4-14.94,1.8-5.53,2.2-8.43.69-10.13-1.32-1.48-3.73-2.19-7.66-1.72C166.55,135,139.22,190.14,132.13,219q-.67,2.74-1.39,5.14a31.8,31.8,0,0,1-28.12,22.61c-13.74,1-37.16,3.81-54.14,33.45-25.62,44.75,20.57,84.9,20.57,84.9l7.2,5.64C89.31,384,117.13,405.24,150.78,390c31.12-14.1,36.11-37.15,38.42-50.74a31.8,31.8,0,0,1,25.17-25.85c1.64-.33,3.38-.63,5.25-.9,29.39-4.33,76.3-24,55.49-39.95C271.71,269.94,259.44,274.94,251.9,276.58Z"/></clipPath><clipPath id="clip-path-3"><path class="cls-3" d="M472.37,47.78C465.69,33.66,456.53,22.63,443,11.54c-2.11-1.74-6.86-4.81-11.8-.42-7.19,6.39-27,23.08-36.38,43.93,11.56,14.51,15.1,19.16,29.33,28.82,21-7.43,38.5-22.25,46.3-28.05A7.14,7.14,0,0,0,472.37,47.78Z"/></clipPath></defs><title>资源 1</title><g id="图层_2" data-name="图层 2"><g id="图层_1-2" data-name="图层 1"><rect class="cls-4" x="96.06" y="149.73" width="395.51" height="27.2" transform="translate(-36.84 223.88) rotate(-39.45)"/><g class="cls-5"><line class="cls-1" x1="145.15" y1="294.62" x2="449.93" y2="43.94"/><line class="cls-1" x1="140.87" y1="289.37" x2="445.64" y2="38.69"/><line class="cls-1" x1="137.59" y1="283.39" x2="442.37" y2="32.71"/></g><rect class="cls-6" x="96.06" y="149.73" width="395.51" height="27.2" transform="translate(-36.84 223.88) rotate(-39.45)"/><path class="cls-2" d="M127.16,397.78c-24.08,0-43.24-15.72-52.58-25.18L67.41,367A101.42,101.42,0,0,1,47,340.6C35.61,319.35,35.39,298,46.31,279c18.28-31.92,43.84-33.8,56.13-34.7a29.44,29.44,0,0,0,25.91-20.83c.47-1.61.93-3.29,1.35-5,7.27-29.59,35.1-85.67,58.76-88.5a21.14,21.14,0,0,1,2.55-.16c3.24,0,5.69.91,7.28,2.7,2.64,3,1.48,7.46-.18,12.57-2.2,6.75-3.41,10.46-6.68,15.52-5.32,8.22-15.3,53.4,1.36,79.59,13,20.38,34.61,34.62,52.63,34.62a27.71,27.71,0,0,0,6-.61c2-.44,4.47-1.15,7-1.9,4.93-1.44,10-2.92,13.69-2.92a7.18,7.18,0,0,1,4.53,1.26c6.35,4.86,6.65,9.86,5.79,13.19C278.59,298.5,243.07,311.57,220,315c-1.77.26-3.5.56-5.13.88a29.41,29.41,0,0,0-23.18,23.82c-2.07,12.15-6.36,37.41-39.86,52.6a59.6,59.6,0,0,1-24.65,5.51Z"/><path class="cls-7" d="M191,132.24c2.63,0,4.36.68,5.41,1.86,1.51,1.7,1.11,4.6-.69,10.13-2.2,6.77-3.3,10.15-6.4,14.94-5.8,9-15.91,55.15,1.35,82.29,14.42,22.67,37.25,35.78,54.73,35.78a30.91,30.91,0,0,0,6.49-.66c6-1.32,15.08-4.77,20.2-4.77a5,5,0,0,1,3,.74c20.81,15.94-26.1,35.62-55.49,39.95-1.87.27-3.61.57-5.25.9a31.8,31.8,0,0,0-25.17,25.85c-2.31,13.59-7.3,36.64-38.42,50.74a56.7,56.7,0,0,1-23.62,5.29c-22.81,0-41.06-14.54-50.91-24.55l-7.2-5.64s-46.19-40.15-20.57-84.9c17-29.64,40.4-32.44,54.14-33.45a31.82,31.82,0,0,0,28.12-22.61q.72-2.4,1.39-5.14c7.09-28.85,34.42-84,56.63-86.61a18.33,18.33,0,0,1,2.25-.14m0-5h0a23.8,23.8,0,0,0-2.84.18c-14.61,1.75-28.57,20.48-37.7,35.9-10.18,17.19-19.29,38.57-23.19,54.48-.42,1.7-.87,3.35-1.33,4.9a26.89,26.89,0,0,1-23.69,19.05c-11.73.87-39.17,2.89-58.12,36-11.37,19.86-11.16,42,.61,64.06a104.17,104.17,0,0,0,21,27.09l.2.16,6.94,5.45c9.66,9.75,29.36,25.81,54.25,25.81a61.9,61.9,0,0,0,25.68-5.74c34.72-15.73,39.32-42.86,41.29-54.45a26.91,26.91,0,0,1,21.21-21.79c1.58-.31,3.27-.6,5-.85A156.65,156.65,0,0,0,259.23,306c15-6.73,23.63-14,25.61-21.63.86-3.33,1.14-9.81-6.69-15.81a9.58,9.58,0,0,0-6-1.77c-4,0-9.29,1.54-14.39,3-2.52.74-4.91,1.43-6.87,1.86a25.36,25.36,0,0,1-5.43.55c-14.07,0-35.88-10.47-50.51-33.47-8.67-13.63-9.44-32-8.55-44.93,1-15.2,4.83-28.33,7.18-32,3.45-5.34,4.69-9.16,6.95-16.1,1.84-5.65,3.2-11-.32-15-2.09-2.35-5.17-3.54-9.15-3.54Z"/><path class="cls-2" d="M251.9,276.58c-17.92,3.9-44.93-9.52-61.22-35.12-17.26-27.14-7.15-73.32-1.35-82.29,3.1-4.79,4.2-8.17,6.4-14.94,1.8-5.53,2.2-8.43.69-10.13-1.32-1.48-3.73-2.19-7.66-1.72C166.55,135,139.22,190.14,132.13,219q-.67,2.74-1.39,5.14a31.8,31.8,0,0,1-28.12,22.61c-13.74,1-37.16,3.81-54.14,33.45-25.62,44.75,20.57,84.9,20.57,84.9l7.2,5.64C89.31,384,117.13,405.24,150.78,390c31.12-14.1,36.11-37.15,38.42-50.74a31.8,31.8,0,0,1,25.17-25.85c1.64-.33,3.38-.63,5.25-.9,29.39-4.33,76.3-24,55.49-39.95C271.71,269.94,259.44,274.94,251.9,276.58Z"/><g class="cls-8"><path class="cls-9" d="M0,327.54s95.47,54.55,144.92,16.52S214.71,242.3,214.71,242.3L290.9,229l46.88,122-204,90Z"/></g><path class="cls-10" d="M174.18,324.68a2.6,2.6,0,0,1-.4,0,2.51,2.51,0,0,1-1.63-1l-40.22-55.89a2.5,2.5,0,0,1,.56-3.49l15-10.82A2.48,2.48,0,0,1,149,253a1.81,1.81,0,0,1,.4,0,2.48,2.48,0,0,1,1.63,1l40.22,55.9a2.51,2.51,0,0,1-.57,3.49l-15,10.82A2.49,2.49,0,0,1,174.18,324.68Z"/><path class="cls-7" d="M149,255.46l40.22,55.9-15,10.82L134,266.29l15-10.83m0-5a5,5,0,0,0-2.93.95l-15,10.82a5,5,0,0,0-1.13,7l40.22,55.89a5,5,0,0,0,3.25,2,5.52,5.52,0,0,0,.81.06,5,5,0,0,0,2.92-.94l15-10.82a5,5,0,0,0,1.14-7L153,252.54a5,5,0,0,0-3.26-2,5.52,5.52,0,0,0-.8-.07Z"/><path class="cls-10" d="M136.47,352.17a2.83,2.83,0,0,1-.41,0,2.49,2.49,0,0,1-1.62-1l-41.73-58a2.51,2.51,0,0,1,.57-3.49l14.54-10.48a2.47,2.47,0,0,1,1.46-.47,2.69,2.69,0,0,1,.4,0,2.49,2.49,0,0,1,1.63,1l41.72,58a2.51,2.51,0,0,1-.56,3.49L137.93,351.7A2.49,2.49,0,0,1,136.47,352.17Z"/><path class="cls-7" d="M109.28,281.22l41.72,58-14.53,10.48-41.73-58,14.54-10.48m0-5a5,5,0,0,0-2.93.94L91.82,287.64a5,5,0,0,0-1.14,7l41.73,58a5,5,0,0,0,3.25,2,4.43,4.43,0,0,0,.81.07,5,5,0,0,0,2.92-.95l14.54-10.47a5,5,0,0,0,1.13-7l-41.72-58a5,5,0,0,0-3.26-2,5.39,5.39,0,0,0-.8-.06Z"/><rect class="cls-11" x="455.98" y="54.67" width="23.81" height="11.97" rx="3.06" transform="translate(199.82 -327.59) rotate(47.99)"/><rect class="cls-11" x="440.72" y="66.8" width="23.81" height="11.97" rx="3.06" transform="translate(203.78 -312.24) rotate(47.99)"/><rect class="cls-11" x="412.4" y="8.03" width="23.81" height="11.97" rx="3.06" transform="translate(703.74 333.63) rotate(-133.06)"/><rect class="cls-11" x="399.03" y="22.22" width="23.81" height="11.97" rx="3.06" transform="translate(670.87 347.73) rotate(-133.06)"/><rect class="cls-11" x="388.24" y="38.24" width="23.81" height="11.97" rx="3.06" transform="translate(641.01 366.8) rotate(-133.06)"/><rect class="cls-11" x="423.86" y="76.2" width="23.81" height="11.97" rx="3.06" transform="translate(205.19 -296.6) rotate(47.99)"/><path class="cls-12" d="M472.37,47.78C465.69,33.66,456.53,22.63,443,11.54c-2.11-1.74-6.86-4.81-11.8-.42-7.19,6.39-27,23.08-36.38,43.93,11.56,14.51,15.1,19.16,29.33,28.82,21-7.43,38.5-22.25,46.3-28.05A7.14,7.14,0,0,0,472.37,47.78Z"/><g class="cls-13"><path class="cls-14" d="M473.48,19.72S470.79,46.87,443,63.56s-50.52,5.19-50.52,5.19l16.64,43.84,69.42-13.2Z"/></g><path class="cls-6" d="M472.37,47.78C465.69,33.66,456.53,22.63,443,11.54c-2.11-1.74-6.86-4.81-11.8-.42-7.19,6.39-27,23.08-36.38,43.93,11.56,14.51,15.1,19.16,29.33,28.82,21-7.43,38.5-22.25,46.3-28.05A7.14,7.14,0,0,0,472.37,47.78Z"/><ellipse class="cls-15" cx="435.67" cy="30.54" rx="5.07" ry="5.07" transform="translate(-1.06 27.87) rotate(-3.66)"/><ellipse class="cls-15" cx="450.89" cy="45.67" rx="5.07" ry="5.07" transform="translate(-2 28.87) rotate(-3.66)"/><circle class="cls-15" cx="414.67" cy="50.29" r="4.33"/><ellipse class="cls-15" cx="430.58" cy="64.62" rx="5.07" ry="5.07" transform="translate(-3.25 27.61) rotate(-3.66)"/></g></g></svg>